%FSLAX45Y45*%
G04 Gerber Fmt 4.5, Leading zero omitted, Abs format (unit mm)*
G04 Created by KiCad (PCBNEW 4.0.2-stable) date 15/07/2016 10:20:29*
%MOMM*%
G01*
G04 APERTURE LIST*
%ADD10C,0.127000*%
%ADD11C,0.100000*%
%ADD12C,0.200000*%
%ADD13C,0.300000*%
G04 APERTURE END LIST*
D10*
D11*
X22000000Y-3800000D02*
X21975000Y-3800000D01*
X22000000Y-12525000D02*
X22000000Y-3800000D01*
X21975000Y-12525000D02*
X22000000Y-12525000D01*
X21975000Y-3800000D02*
X10625000Y-3800000D01*
X21950000Y-12525000D02*
X21975000Y-12525000D01*
X10625000Y-12525000D02*
X21950000Y-12525000D01*
X10625000Y-3800000D02*
X10625000Y-12525000D01*
D12*
X10850000Y-5125000D02*
X10900000Y-5175000D01*
X10900000Y-5125000D02*
X10850000Y-5175000D01*
X10850000Y-11000000D02*
X10900000Y-11050000D01*
X10900000Y-11000000D02*
X10850000Y-11050000D01*
X12300000Y-11975000D02*
X12350000Y-12025000D01*
X12350000Y-11975000D02*
X12300000Y-12025000D01*
X12725000Y-4953367D02*
X12775000Y-5003367D01*
X12775000Y-4953367D02*
X12725000Y-5003367D01*
X13351989Y-4953365D02*
X13401989Y-5003365D01*
X13401989Y-4953365D02*
X13351989Y-5003365D01*
X13450000Y-11550000D02*
X13500000Y-11600000D01*
X13500000Y-11550000D02*
X13450000Y-11600000D01*
X13632332Y-4993368D02*
X13682332Y-5043368D01*
X13682332Y-4993368D02*
X13632332Y-5043368D01*
X13900000Y-8000000D02*
X13950000Y-8050000D01*
X13950000Y-8000000D02*
X13900000Y-8050000D01*
X14000000Y-4075000D02*
X14050000Y-4125000D01*
X14050000Y-4075000D02*
X14000000Y-4125000D01*
X14000000Y-4375000D02*
X14050000Y-4425000D01*
X14050000Y-4375000D02*
X14000000Y-4425000D01*
X14000000Y-7850000D02*
X14050000Y-7900000D01*
X14050000Y-7850000D02*
X14000000Y-7900000D01*
X14100000Y-5175000D02*
X14150000Y-5225000D01*
X14150000Y-5175000D02*
X14100000Y-5225000D01*
X14225000Y-8100000D02*
X14275000Y-8150000D01*
X14275000Y-8100000D02*
X14225000Y-8150000D01*
X14250000Y-7525000D02*
X14300000Y-7575000D01*
X14300000Y-7525000D02*
X14250000Y-7575000D01*
X14418147Y-8410863D02*
X14468147Y-8460863D01*
X14468147Y-8410863D02*
X14418147Y-8460863D01*
X14500000Y-8125000D02*
X14550000Y-8175000D01*
X14550000Y-8125000D02*
X14500000Y-8175000D01*
X14575000Y-7200000D02*
X14625000Y-7250000D01*
X14625000Y-7200000D02*
X14575000Y-7250000D01*
X14650000Y-5200000D02*
X14700000Y-5250000D01*
X14700000Y-5200000D02*
X14650000Y-5250000D01*
X14733302Y-7103558D02*
X14783302Y-7153558D01*
X14783302Y-7103558D02*
X14733302Y-7153558D01*
X14736183Y-7436869D02*
X14786183Y-7486869D01*
X14786183Y-7436869D02*
X14736183Y-7486869D01*
X14757800Y-5874998D02*
X14807800Y-5924998D01*
X14807800Y-5874998D02*
X14757800Y-5924998D01*
X14985360Y-11450000D02*
X15035360Y-11500000D01*
X15035360Y-11450000D02*
X14985360Y-11500000D01*
X15150000Y-6000000D02*
X15200000Y-6050000D01*
X15200000Y-6000000D02*
X15150000Y-6050000D01*
X15215000Y-11786000D02*
X15265000Y-11836000D01*
X15265000Y-11786000D02*
X15215000Y-11836000D01*
X15258803Y-8441118D02*
X15308803Y-8491118D01*
X15308803Y-8441118D02*
X15258803Y-8491118D01*
X15328889Y-8234251D02*
X15378889Y-8284251D01*
X15378889Y-8234251D02*
X15328889Y-8284251D01*
X15375219Y-6791932D02*
X15425219Y-6841932D01*
X15425219Y-6791932D02*
X15375219Y-6841932D01*
X15388001Y-5069070D02*
X15438001Y-5119070D01*
X15438001Y-5069070D02*
X15388001Y-5119070D01*
X15423302Y-4905002D02*
X15473302Y-4955002D01*
X15473302Y-4905002D02*
X15423302Y-4955002D01*
X15461823Y-9111823D02*
X15511823Y-9161823D01*
X15511823Y-9111823D02*
X15461823Y-9161823D01*
X15535915Y-8374266D02*
X15585915Y-8424266D01*
X15585915Y-8374266D02*
X15535915Y-8424266D01*
X15547300Y-4905002D02*
X15597300Y-4955002D01*
X15597300Y-4905002D02*
X15547300Y-4955002D01*
X15600000Y-11450000D02*
X15650000Y-11500000D01*
X15650000Y-11450000D02*
X15600000Y-11500000D01*
X15650000Y-6300000D02*
X15700000Y-6350000D01*
X15700000Y-6300000D02*
X15650000Y-6350000D01*
X15651573Y-8342273D02*
X15701573Y-8392273D01*
X15701573Y-8342273D02*
X15651573Y-8392273D01*
X15679997Y-8541645D02*
X15729997Y-8591645D01*
X15729997Y-8541645D02*
X15679997Y-8591645D01*
X15707302Y-4921746D02*
X15757302Y-4971746D01*
X15757302Y-4921746D02*
X15707302Y-4971746D01*
X15725000Y-12325000D02*
X15775000Y-12375000D01*
X15775000Y-12325000D02*
X15725000Y-12375000D01*
X15750000Y-5078800D02*
X15800000Y-5128800D01*
X15800000Y-5078800D02*
X15750000Y-5128800D01*
X15944998Y-6255001D02*
X15994998Y-6305001D01*
X15994998Y-6255001D02*
X15944998Y-6305001D01*
X15975000Y-9400000D02*
X16025000Y-9450000D01*
X16025000Y-9400000D02*
X15975000Y-9450000D01*
X16079818Y-7085096D02*
X16129818Y-7135096D01*
X16129818Y-7085096D02*
X16079818Y-7135096D01*
X16350000Y-9375000D02*
X16400000Y-9425000D01*
X16400000Y-9375000D02*
X16350000Y-9425000D01*
X16370930Y-7240930D02*
X16420930Y-7290930D01*
X16420930Y-7240930D02*
X16370930Y-7290930D01*
X16373543Y-10261653D02*
X16423543Y-10311653D01*
X16423543Y-10261653D02*
X16373543Y-10311653D01*
X16394998Y-7832941D02*
X16444998Y-7882941D01*
X16444998Y-7832941D02*
X16394998Y-7882941D01*
X16450000Y-4900000D02*
X16500000Y-4950000D01*
X16500000Y-4900000D02*
X16450000Y-4950000D01*
X16480930Y-6855930D02*
X16530930Y-6905930D01*
X16530930Y-6855930D02*
X16480930Y-6905930D01*
X16575000Y-10075000D02*
X16625000Y-10125000D01*
X16625000Y-10075000D02*
X16575000Y-10125000D01*
X16669998Y-6463232D02*
X16719998Y-6513232D01*
X16719998Y-6463232D02*
X16669998Y-6513232D01*
X16750000Y-5900000D02*
X16800000Y-5950000D01*
X16800000Y-5900000D02*
X16750000Y-5950000D01*
X16830000Y-6040379D02*
X16880000Y-6090379D01*
X16880000Y-6040379D02*
X16830000Y-6090379D01*
X16875000Y-5150000D02*
X16925000Y-5200000D01*
X16925000Y-5150000D02*
X16875000Y-5200000D01*
X16914860Y-11313494D02*
X16964860Y-11363494D01*
X16964860Y-11313494D02*
X16914860Y-11363494D01*
X17005002Y-6478442D02*
X17055002Y-6528442D01*
X17055002Y-6478442D02*
X17005002Y-6528442D01*
X17089447Y-11544651D02*
X17139447Y-11594651D01*
X17139447Y-11544651D02*
X17089447Y-11594651D01*
X17100000Y-11175000D02*
X17150000Y-11225000D01*
X17150000Y-11175000D02*
X17100000Y-11225000D01*
X17111473Y-12234010D02*
X17161473Y-12284010D01*
X17161473Y-12234010D02*
X17111473Y-12284010D01*
X17200000Y-5450000D02*
X17250000Y-5500000D01*
X17250000Y-5450000D02*
X17200000Y-5500000D01*
X17200000Y-10800000D02*
X17250000Y-10850000D01*
X17250000Y-10800000D02*
X17200000Y-10850000D01*
X17300000Y-11025000D02*
X17350000Y-11075000D01*
X17350000Y-11025000D02*
X17300000Y-11075000D01*
X17400000Y-12175000D02*
X17450000Y-12225000D01*
X17450000Y-12175000D02*
X17400000Y-12225000D01*
X17525000Y-8025000D02*
X17575000Y-8075000D01*
X17575000Y-8025000D02*
X17525000Y-8075000D01*
X17700000Y-11275000D02*
X17750000Y-11325000D01*
X17750000Y-11275000D02*
X17700000Y-11325000D01*
X17719448Y-12239709D02*
X17769448Y-12289709D01*
X17769448Y-12239709D02*
X17719448Y-12289709D01*
X17850000Y-8175000D02*
X17900000Y-8225000D01*
X17900000Y-8175000D02*
X17850000Y-8225000D01*
X17875000Y-12175000D02*
X17925000Y-12225000D01*
X17925000Y-12175000D02*
X17875000Y-12225000D01*
X17961023Y-12415004D02*
X18011023Y-12465004D01*
X18011023Y-12415004D02*
X17961023Y-12465004D01*
X18025000Y-7525000D02*
X18075000Y-7575000D01*
X18075000Y-7525000D02*
X18025000Y-7575000D01*
X18025000Y-11025000D02*
X18075000Y-11075000D01*
X18075000Y-11025000D02*
X18025000Y-11075000D01*
X18076309Y-7835551D02*
X18126309Y-7885551D01*
X18126309Y-7835551D02*
X18076309Y-7885551D01*
X18130653Y-11540072D02*
X18180653Y-11590072D01*
X18180653Y-11540072D02*
X18130653Y-11590072D01*
X18275000Y-8975000D02*
X18325000Y-9025000D01*
X18325000Y-8975000D02*
X18275000Y-9025000D01*
X18300000Y-12229997D02*
X18350000Y-12279997D01*
X18350000Y-12229997D02*
X18300000Y-12279997D01*
X18325000Y-7350000D02*
X18375000Y-7400000D01*
X18375000Y-7350000D02*
X18325000Y-7400000D01*
X18325000Y-9367973D02*
X18375000Y-9417973D01*
X18375000Y-9367973D02*
X18325000Y-9417973D01*
X18450000Y-11025000D02*
X18500000Y-11075000D01*
X18500000Y-11025000D02*
X18450000Y-11075000D01*
X18500000Y-9100000D02*
X18550000Y-9150000D01*
X18550000Y-9100000D02*
X18500000Y-9150000D01*
X18500000Y-9900000D02*
X18550000Y-9950000D01*
X18550000Y-9900000D02*
X18500000Y-9950000D01*
X18525000Y-8675000D02*
X18575000Y-8725000D01*
X18575000Y-8675000D02*
X18525000Y-8725000D01*
X18550000Y-12269998D02*
X18600000Y-12319998D01*
X18600000Y-12269998D02*
X18550000Y-12319998D01*
X18700000Y-12350000D02*
X18750000Y-12400000D01*
X18750000Y-12350000D02*
X18700000Y-12400000D01*
X18775000Y-10950000D02*
X18825000Y-11000000D01*
X18825000Y-10950000D02*
X18775000Y-11000000D01*
X18900000Y-12225000D02*
X18950000Y-12275000D01*
X18950000Y-12225000D02*
X18900000Y-12275000D01*
X18925000Y-10625000D02*
X18975000Y-10675000D01*
X18975000Y-10625000D02*
X18925000Y-10675000D01*
X19275000Y-10650000D02*
X19325000Y-10700000D01*
X19325000Y-10650000D02*
X19275000Y-10700000D01*
X19325000Y-8325000D02*
X19375000Y-8375000D01*
X19375000Y-8325000D02*
X19325000Y-8375000D01*
X19325000Y-8575000D02*
X19375000Y-8625000D01*
X19375000Y-8575000D02*
X19325000Y-8625000D01*
X19350000Y-9850000D02*
X19400000Y-9900000D01*
X19400000Y-9850000D02*
X19350000Y-9900000D01*
X19350000Y-10342002D02*
X19400000Y-10392002D01*
X19400000Y-10342002D02*
X19350000Y-10392002D01*
X19525000Y-7875000D02*
X19575000Y-7925000D01*
X19575000Y-7875000D02*
X19525000Y-7925000D01*
X19700000Y-8225000D02*
X19750000Y-8275000D01*
X19750000Y-8225000D02*
X19700000Y-8275000D01*
X19700000Y-9675000D02*
X19750000Y-9725000D01*
X19750000Y-9675000D02*
X19700000Y-9725000D01*
X20100000Y-6925000D02*
X20150000Y-6975000D01*
X20150000Y-6925000D02*
X20100000Y-6975000D01*
X20750000Y-9900000D02*
X20800000Y-9950000D01*
X20800000Y-9900000D02*
X20750000Y-9950000D01*
X20825000Y-10250000D02*
X20875000Y-10300000D01*
X20875000Y-10250000D02*
X20825000Y-10300000D01*
X21125000Y-7150000D02*
X21175000Y-7200000D01*
X21175000Y-7150000D02*
X21125000Y-7200000D01*
X21200000Y-7500000D02*
X21250000Y-7550000D01*
X21250000Y-7500000D02*
X21200000Y-7550000D01*
X21300000Y-9850000D02*
X21350000Y-9900000D01*
X21350000Y-9850000D02*
X21300000Y-9900000D01*
X21675000Y-8625000D02*
X21725000Y-8675000D01*
X21725000Y-8625000D02*
X21675000Y-8675000D01*
X12360052Y-10125000D02*
G75*
G03X12360052Y-10125000I-35052J0D01*
G01*
X13376052Y-10125000D02*
G75*
G03X13376052Y-10125000I-35052J0D01*
G01*
X18542000Y-7353300D02*
X18542000Y-7429500D01*
X18503900Y-7391400D02*
X18580100Y-7391400D01*
X18542000Y-7581900D02*
X18542000Y-7658100D01*
X18503900Y-7620000D02*
X18580100Y-7620000D01*
X18542000Y-7810500D02*
X18542000Y-7886700D01*
X18503900Y-7848600D02*
X18580100Y-7848600D01*
X18116285Y-8410285D02*
X18116285Y-8353715D01*
X18059716Y-8353715D01*
X18059716Y-8410285D01*
X18116285Y-8410285D01*
X18316285Y-8410285D02*
X18316285Y-8353715D01*
X18259716Y-8353715D01*
X18259716Y-8410285D01*
X18316285Y-8410285D01*
X20021285Y-4473285D02*
X20021285Y-4416716D01*
X19964716Y-4416716D01*
X19964716Y-4473285D01*
X20021285Y-4473285D01*
X20221285Y-4473285D02*
X20221285Y-4416716D01*
X20164716Y-4416716D01*
X20164716Y-4473285D01*
X20221285Y-4473285D01*
X18034000Y-9057005D02*
X18074005Y-9017000D01*
X18034000Y-8976995D01*
X17993995Y-9017000D01*
X18034000Y-9057005D01*
X18034000Y-9311005D02*
X18074005Y-9271000D01*
X18034000Y-9230995D01*
X17993995Y-9271000D01*
X18034000Y-9311005D01*
X18034000Y-9565005D02*
X18074005Y-9525000D01*
X18034000Y-9484995D01*
X17993995Y-9525000D01*
X18034000Y-9565005D01*
X18034000Y-9819005D02*
X18074005Y-9779000D01*
X18034000Y-9738995D01*
X17993995Y-9779000D01*
X18034000Y-9819005D01*
X18034000Y-10073005D02*
X18074005Y-10033000D01*
X18034000Y-9992995D01*
X17993995Y-10033000D01*
X18034000Y-10073005D01*
X10816089Y-5411089D02*
X10915911Y-5510911D01*
X10915911Y-5411089D02*
X10816089Y-5510911D01*
X10915911Y-5461000D02*
G75*
G03X10915911Y-5461000I-49911J0D01*
G01*
X10816089Y-10491089D02*
X10915911Y-10590911D01*
X10915911Y-10491089D02*
X10816089Y-10590911D01*
X10915911Y-10541000D02*
G75*
G03X10915911Y-10541000I-49911J0D01*
G01*
X11070089Y-5411089D02*
X11169911Y-5510911D01*
X11169911Y-5411089D02*
X11070089Y-5510911D01*
X11169911Y-5461000D02*
G75*
G03X11169911Y-5461000I-49911J0D01*
G01*
X11070089Y-10491089D02*
X11169911Y-10590911D01*
X11169911Y-10491089D02*
X11070089Y-10590911D01*
X11169911Y-10541000D02*
G75*
G03X11169911Y-10541000I-49911J0D01*
G01*
X11324089Y-5411089D02*
X11423911Y-5510911D01*
X11423911Y-5411089D02*
X11324089Y-5510911D01*
X11423911Y-5461000D02*
G75*
G03X11423911Y-5461000I-49911J0D01*
G01*
X11324089Y-10491089D02*
X11423911Y-10590911D01*
X11423911Y-10491089D02*
X11324089Y-10590911D01*
X11423911Y-10541000D02*
G75*
G03X11423911Y-10541000I-49911J0D01*
G01*
X11578089Y-5411089D02*
X11677911Y-5510911D01*
X11677911Y-5411089D02*
X11578089Y-5510911D01*
X11677911Y-5461000D02*
G75*
G03X11677911Y-5461000I-49911J0D01*
G01*
X11578089Y-10491089D02*
X11677911Y-10590911D01*
X11677911Y-10491089D02*
X11578089Y-10590911D01*
X11677911Y-10541000D02*
G75*
G03X11677911Y-10541000I-49911J0D01*
G01*
X11832089Y-5411089D02*
X11931911Y-5510911D01*
X11931911Y-5411089D02*
X11832089Y-5510911D01*
X11931911Y-5461000D02*
G75*
G03X11931911Y-5461000I-49911J0D01*
G01*
X11832089Y-10491089D02*
X11931911Y-10590911D01*
X11931911Y-10491089D02*
X11832089Y-10590911D01*
X11931911Y-10541000D02*
G75*
G03X11931911Y-10541000I-49911J0D01*
G01*
X12086089Y-5411089D02*
X12185911Y-5510911D01*
X12185911Y-5411089D02*
X12086089Y-5510911D01*
X12185911Y-5461000D02*
G75*
G03X12185911Y-5461000I-49911J0D01*
G01*
X12086089Y-10491089D02*
X12185911Y-10590911D01*
X12185911Y-10491089D02*
X12086089Y-10590911D01*
X12185911Y-10541000D02*
G75*
G03X12185911Y-10541000I-49911J0D01*
G01*
X12340089Y-5411089D02*
X12439911Y-5510911D01*
X12439911Y-5411089D02*
X12340089Y-5510911D01*
X12439911Y-5461000D02*
G75*
G03X12439911Y-5461000I-49911J0D01*
G01*
X12340089Y-10491089D02*
X12439911Y-10590911D01*
X12439911Y-10491089D02*
X12340089Y-10590911D01*
X12439911Y-10541000D02*
G75*
G03X12439911Y-10541000I-49911J0D01*
G01*
X12594089Y-5411089D02*
X12693911Y-5510911D01*
X12693911Y-5411089D02*
X12594089Y-5510911D01*
X12693911Y-5461000D02*
G75*
G03X12693911Y-5461000I-49911J0D01*
G01*
X12594089Y-10491089D02*
X12693911Y-10590911D01*
X12693911Y-10491089D02*
X12594089Y-10590911D01*
X12693911Y-10541000D02*
G75*
G03X12693911Y-10541000I-49911J0D01*
G01*
X12848089Y-5411089D02*
X12947911Y-5510911D01*
X12947911Y-5411089D02*
X12848089Y-5510911D01*
X12947911Y-5461000D02*
G75*
G03X12947911Y-5461000I-49911J0D01*
G01*
X12848089Y-10491089D02*
X12947911Y-10590911D01*
X12947911Y-10491089D02*
X12848089Y-10590911D01*
X12947911Y-10541000D02*
G75*
G03X12947911Y-10541000I-49911J0D01*
G01*
X13102089Y-5411089D02*
X13201911Y-5510911D01*
X13201911Y-5411089D02*
X13102089Y-5510911D01*
X13201911Y-5461000D02*
G75*
G03X13201911Y-5461000I-49911J0D01*
G01*
X13102089Y-10491089D02*
X13201911Y-10590911D01*
X13201911Y-10491089D02*
X13102089Y-10590911D01*
X13201911Y-10541000D02*
G75*
G03X13201911Y-10541000I-49911J0D01*
G01*
X13356089Y-5411089D02*
X13455911Y-5510911D01*
X13455911Y-5411089D02*
X13356089Y-5510911D01*
X13455911Y-5461000D02*
G75*
G03X13455911Y-5461000I-49911J0D01*
G01*
X13356089Y-10491089D02*
X13455911Y-10590911D01*
X13455911Y-10491089D02*
X13356089Y-10590911D01*
X13455911Y-10541000D02*
G75*
G03X13455911Y-10541000I-49911J0D01*
G01*
X13610089Y-5411089D02*
X13709911Y-5510911D01*
X13709911Y-5411089D02*
X13610089Y-5510911D01*
X13709911Y-5461000D02*
G75*
G03X13709911Y-5461000I-49911J0D01*
G01*
X13610089Y-10491089D02*
X13709911Y-10590911D01*
X13709911Y-10491089D02*
X13610089Y-10590911D01*
X13709911Y-10541000D02*
G75*
G03X13709911Y-10541000I-49911J0D01*
G01*
X13864089Y-5411089D02*
X13963911Y-5510911D01*
X13963911Y-5411089D02*
X13864089Y-5510911D01*
X13963911Y-5461000D02*
G75*
G03X13963911Y-5461000I-49911J0D01*
G01*
X13864089Y-10491089D02*
X13963911Y-10590911D01*
X13963911Y-10491089D02*
X13864089Y-10590911D01*
X13963911Y-10541000D02*
G75*
G03X13963911Y-10541000I-49911J0D01*
G01*
X14118089Y-5411089D02*
X14217911Y-5510911D01*
X14217911Y-5411089D02*
X14118089Y-5510911D01*
X14217911Y-5461000D02*
G75*
G03X14217911Y-5461000I-49911J0D01*
G01*
X14118089Y-10491089D02*
X14217911Y-10590911D01*
X14217911Y-10491089D02*
X14118089Y-10590911D01*
X14217911Y-10541000D02*
G75*
G03X14217911Y-10541000I-49911J0D01*
G01*
X14372089Y-5411089D02*
X14471911Y-5510911D01*
X14471911Y-5411089D02*
X14372089Y-5510911D01*
X14471911Y-5461000D02*
G75*
G03X14471911Y-5461000I-49911J0D01*
G01*
X14372089Y-10491089D02*
X14471911Y-10590911D01*
X14471911Y-10491089D02*
X14372089Y-10590911D01*
X14471911Y-10541000D02*
G75*
G03X14471911Y-10541000I-49911J0D01*
G01*
X14626089Y-5411089D02*
X14725911Y-5510911D01*
X14725911Y-5411089D02*
X14626089Y-5510911D01*
X14725911Y-5461000D02*
G75*
G03X14725911Y-5461000I-49911J0D01*
G01*
X14626089Y-10491089D02*
X14725911Y-10590911D01*
X14725911Y-10491089D02*
X14626089Y-10590911D01*
X14725911Y-10541000D02*
G75*
G03X14725911Y-10541000I-49911J0D01*
G01*
X14880089Y-5411089D02*
X14979911Y-5510911D01*
X14979911Y-5411089D02*
X14880089Y-5510911D01*
X14979911Y-5461000D02*
G75*
G03X14979911Y-5461000I-49911J0D01*
G01*
X14880089Y-10491089D02*
X14979911Y-10590911D01*
X14979911Y-10491089D02*
X14880089Y-10590911D01*
X14979911Y-10541000D02*
G75*
G03X14979911Y-10541000I-49911J0D01*
G01*
X15134089Y-5411089D02*
X15233911Y-5510911D01*
X15233911Y-5411089D02*
X15134089Y-5510911D01*
X15233911Y-5461000D02*
G75*
G03X15233911Y-5461000I-49911J0D01*
G01*
X15134089Y-10491089D02*
X15233911Y-10590911D01*
X15233911Y-10491089D02*
X15134089Y-10590911D01*
X15233911Y-10541000D02*
G75*
G03X15233911Y-10541000I-49911J0D01*
G01*
X15388089Y-5411089D02*
X15487911Y-5510911D01*
X15487911Y-5411089D02*
X15388089Y-5510911D01*
X15487911Y-5461000D02*
G75*
G03X15487911Y-5461000I-49911J0D01*
G01*
X15388089Y-10491089D02*
X15487911Y-10590911D01*
X15487911Y-10491089D02*
X15388089Y-10590911D01*
X15487911Y-10541000D02*
G75*
G03X15487911Y-10541000I-49911J0D01*
G01*
X15642089Y-5411089D02*
X15741911Y-5510911D01*
X15741911Y-5411089D02*
X15642089Y-5510911D01*
X15741911Y-5461000D02*
G75*
G03X15741911Y-5461000I-49911J0D01*
G01*
X15642089Y-10491089D02*
X15741911Y-10590911D01*
X15741911Y-10491089D02*
X15642089Y-10590911D01*
X15741911Y-10541000D02*
G75*
G03X15741911Y-10541000I-49911J0D01*
G01*
X15896089Y-5411089D02*
X15995911Y-5510911D01*
X15995911Y-5411089D02*
X15896089Y-5510911D01*
X15995911Y-5461000D02*
G75*
G03X15995911Y-5461000I-49911J0D01*
G01*
X15896089Y-10491089D02*
X15995911Y-10590911D01*
X15995911Y-10491089D02*
X15896089Y-10590911D01*
X15995911Y-10541000D02*
G75*
G03X15995911Y-10541000I-49911J0D01*
G01*
X16150089Y-5411089D02*
X16249911Y-5510911D01*
X16249911Y-5411089D02*
X16150089Y-5510911D01*
X16249911Y-5461000D02*
G75*
G03X16249911Y-5461000I-49911J0D01*
G01*
X16150089Y-10491089D02*
X16249911Y-10590911D01*
X16249911Y-10491089D02*
X16150089Y-10590911D01*
X16249911Y-10541000D02*
G75*
G03X16249911Y-10541000I-49911J0D01*
G01*
X16404089Y-5411089D02*
X16503911Y-5510911D01*
X16503911Y-5411089D02*
X16404089Y-5510911D01*
X16503911Y-5461000D02*
G75*
G03X16503911Y-5461000I-49911J0D01*
G01*
X16404089Y-10491089D02*
X16503911Y-10590911D01*
X16503911Y-10491089D02*
X16404089Y-10590911D01*
X16503911Y-10541000D02*
G75*
G03X16503911Y-10541000I-49911J0D01*
G01*
X16658089Y-5411089D02*
X16757911Y-5510911D01*
X16757911Y-5411089D02*
X16658089Y-5510911D01*
X16757911Y-5461000D02*
G75*
G03X16757911Y-5461000I-49911J0D01*
G01*
X16658089Y-10491089D02*
X16757911Y-10590911D01*
X16757911Y-10491089D02*
X16658089Y-10590911D01*
X16757911Y-10541000D02*
G75*
G03X16757911Y-10541000I-49911J0D01*
G01*
X10815962Y-5664962D02*
X10916038Y-5765038D01*
X10916038Y-5664962D02*
X10815962Y-5765038D01*
X10866000Y-5664962D02*
X10866000Y-5765038D01*
X10815962Y-5715000D02*
X10916038Y-5715000D01*
X10815962Y-10744962D02*
X10916038Y-10845038D01*
X10916038Y-10744962D02*
X10815962Y-10845038D01*
X10866000Y-10744962D02*
X10866000Y-10845038D01*
X10815962Y-10795000D02*
X10916038Y-10795000D01*
X11069962Y-5664962D02*
X11170038Y-5765038D01*
X11170038Y-5664962D02*
X11069962Y-5765038D01*
X11120000Y-5664962D02*
X11120000Y-5765038D01*
X11069962Y-5715000D02*
X11170038Y-5715000D01*
X11069962Y-10744962D02*
X11170038Y-10845038D01*
X11170038Y-10744962D02*
X11069962Y-10845038D01*
X11120000Y-10744962D02*
X11120000Y-10845038D01*
X11069962Y-10795000D02*
X11170038Y-10795000D01*
X11323962Y-5664962D02*
X11424038Y-5765038D01*
X11424038Y-5664962D02*
X11323962Y-5765038D01*
X11374000Y-5664962D02*
X11374000Y-5765038D01*
X11323962Y-5715000D02*
X11424038Y-5715000D01*
X11323962Y-10744962D02*
X11424038Y-10845038D01*
X11424038Y-10744962D02*
X11323962Y-10845038D01*
X11374000Y-10744962D02*
X11374000Y-10845038D01*
X11323962Y-10795000D02*
X11424038Y-10795000D01*
X11577962Y-5664962D02*
X11678038Y-5765038D01*
X11678038Y-5664962D02*
X11577962Y-5765038D01*
X11628000Y-5664962D02*
X11628000Y-5765038D01*
X11577962Y-5715000D02*
X11678038Y-5715000D01*
X11577962Y-10744962D02*
X11678038Y-10845038D01*
X11678038Y-10744962D02*
X11577962Y-10845038D01*
X11628000Y-10744962D02*
X11628000Y-10845038D01*
X11577962Y-10795000D02*
X11678038Y-10795000D01*
X11831962Y-5664962D02*
X11932038Y-5765038D01*
X11932038Y-5664962D02*
X11831962Y-5765038D01*
X11882000Y-5664962D02*
X11882000Y-5765038D01*
X11831962Y-5715000D02*
X11932038Y-5715000D01*
X11831962Y-10744962D02*
X11932038Y-10845038D01*
X11932038Y-10744962D02*
X11831962Y-10845038D01*
X11882000Y-10744962D02*
X11882000Y-10845038D01*
X11831962Y-10795000D02*
X11932038Y-10795000D01*
X12085962Y-5664962D02*
X12186038Y-5765038D01*
X12186038Y-5664962D02*
X12085962Y-5765038D01*
X12136000Y-5664962D02*
X12136000Y-5765038D01*
X12085962Y-5715000D02*
X12186038Y-5715000D01*
X12085962Y-10744962D02*
X12186038Y-10845038D01*
X12186038Y-10744962D02*
X12085962Y-10845038D01*
X12136000Y-10744962D02*
X12136000Y-10845038D01*
X12085962Y-10795000D02*
X12186038Y-10795000D01*
X12339962Y-5664962D02*
X12440038Y-5765038D01*
X12440038Y-5664962D02*
X12339962Y-5765038D01*
X12390000Y-5664962D02*
X12390000Y-5765038D01*
X12339962Y-5715000D02*
X12440038Y-5715000D01*
X12339962Y-10744962D02*
X12440038Y-10845038D01*
X12440038Y-10744962D02*
X12339962Y-10845038D01*
X12390000Y-10744962D02*
X12390000Y-10845038D01*
X12339962Y-10795000D02*
X12440038Y-10795000D01*
X12593962Y-5664962D02*
X12694038Y-5765038D01*
X12694038Y-5664962D02*
X12593962Y-5765038D01*
X12644000Y-5664962D02*
X12644000Y-5765038D01*
X12593962Y-5715000D02*
X12694038Y-5715000D01*
X12593962Y-10744962D02*
X12694038Y-10845038D01*
X12694038Y-10744962D02*
X12593962Y-10845038D01*
X12644000Y-10744962D02*
X12644000Y-10845038D01*
X12593962Y-10795000D02*
X12694038Y-10795000D01*
X12847962Y-5664962D02*
X12948038Y-5765038D01*
X12948038Y-5664962D02*
X12847962Y-5765038D01*
X12898000Y-5664962D02*
X12898000Y-5765038D01*
X12847962Y-5715000D02*
X12948038Y-5715000D01*
X12847962Y-10744962D02*
X12948038Y-10845038D01*
X12948038Y-10744962D02*
X12847962Y-10845038D01*
X12898000Y-10744962D02*
X12898000Y-10845038D01*
X12847962Y-10795000D02*
X12948038Y-10795000D01*
X13101962Y-5664962D02*
X13202038Y-5765038D01*
X13202038Y-5664962D02*
X13101962Y-5765038D01*
X13152000Y-5664962D02*
X13152000Y-5765038D01*
X13101962Y-5715000D02*
X13202038Y-5715000D01*
X13101962Y-10744962D02*
X13202038Y-10845038D01*
X13202038Y-10744962D02*
X13101962Y-10845038D01*
X13152000Y-10744962D02*
X13152000Y-10845038D01*
X13101962Y-10795000D02*
X13202038Y-10795000D01*
X13355962Y-5664962D02*
X13456038Y-5765038D01*
X13456038Y-5664962D02*
X13355962Y-5765038D01*
X13406000Y-5664962D02*
X13406000Y-5765038D01*
X13355962Y-5715000D02*
X13456038Y-5715000D01*
X13355962Y-10744962D02*
X13456038Y-10845038D01*
X13456038Y-10744962D02*
X13355962Y-10845038D01*
X13406000Y-10744962D02*
X13406000Y-10845038D01*
X13355962Y-10795000D02*
X13456038Y-10795000D01*
X13609962Y-5664962D02*
X13710038Y-5765038D01*
X13710038Y-5664962D02*
X13609962Y-5765038D01*
X13660000Y-5664962D02*
X13660000Y-5765038D01*
X13609962Y-5715000D02*
X13710038Y-5715000D01*
X13609962Y-10744962D02*
X13710038Y-10845038D01*
X13710038Y-10744962D02*
X13609962Y-10845038D01*
X13660000Y-10744962D02*
X13660000Y-10845038D01*
X13609962Y-10795000D02*
X13710038Y-10795000D01*
X13863962Y-5664962D02*
X13964038Y-5765038D01*
X13964038Y-5664962D02*
X13863962Y-5765038D01*
X13914000Y-5664962D02*
X13914000Y-5765038D01*
X13863962Y-5715000D02*
X13964038Y-5715000D01*
X13863962Y-10744962D02*
X13964038Y-10845038D01*
X13964038Y-10744962D02*
X13863962Y-10845038D01*
X13914000Y-10744962D02*
X13914000Y-10845038D01*
X13863962Y-10795000D02*
X13964038Y-10795000D01*
X14117962Y-5664962D02*
X14218038Y-5765038D01*
X14218038Y-5664962D02*
X14117962Y-5765038D01*
X14168000Y-5664962D02*
X14168000Y-5765038D01*
X14117962Y-5715000D02*
X14218038Y-5715000D01*
X14117962Y-10744962D02*
X14218038Y-10845038D01*
X14218038Y-10744962D02*
X14117962Y-10845038D01*
X14168000Y-10744962D02*
X14168000Y-10845038D01*
X14117962Y-10795000D02*
X14218038Y-10795000D01*
X14371962Y-5664962D02*
X14472038Y-5765038D01*
X14472038Y-5664962D02*
X14371962Y-5765038D01*
X14422000Y-5664962D02*
X14422000Y-5765038D01*
X14371962Y-5715000D02*
X14472038Y-5715000D01*
X14371962Y-10744962D02*
X14472038Y-10845038D01*
X14472038Y-10744962D02*
X14371962Y-10845038D01*
X14422000Y-10744962D02*
X14422000Y-10845038D01*
X14371962Y-10795000D02*
X14472038Y-10795000D01*
X14625962Y-5664962D02*
X14726038Y-5765038D01*
X14726038Y-5664962D02*
X14625962Y-5765038D01*
X14676000Y-5664962D02*
X14676000Y-5765038D01*
X14625962Y-5715000D02*
X14726038Y-5715000D01*
X14625962Y-10744962D02*
X14726038Y-10845038D01*
X14726038Y-10744962D02*
X14625962Y-10845038D01*
X14676000Y-10744962D02*
X14676000Y-10845038D01*
X14625962Y-10795000D02*
X14726038Y-10795000D01*
X14879962Y-5664962D02*
X14980038Y-5765038D01*
X14980038Y-5664962D02*
X14879962Y-5765038D01*
X14930000Y-5664962D02*
X14930000Y-5765038D01*
X14879962Y-5715000D02*
X14980038Y-5715000D01*
X14879962Y-10744962D02*
X14980038Y-10845038D01*
X14980038Y-10744962D02*
X14879962Y-10845038D01*
X14930000Y-10744962D02*
X14930000Y-10845038D01*
X14879962Y-10795000D02*
X14980038Y-10795000D01*
X15133962Y-5664962D02*
X15234038Y-5765038D01*
X15234038Y-5664962D02*
X15133962Y-5765038D01*
X15184000Y-5664962D02*
X15184000Y-5765038D01*
X15133962Y-5715000D02*
X15234038Y-5715000D01*
X15133962Y-10744962D02*
X15234038Y-10845038D01*
X15234038Y-10744962D02*
X15133962Y-10845038D01*
X15184000Y-10744962D02*
X15184000Y-10845038D01*
X15133962Y-10795000D02*
X15234038Y-10795000D01*
X15387962Y-5664962D02*
X15488038Y-5765038D01*
X15488038Y-5664962D02*
X15387962Y-5765038D01*
X15438000Y-5664962D02*
X15438000Y-5765038D01*
X15387962Y-5715000D02*
X15488038Y-5715000D01*
X15387962Y-10744962D02*
X15488038Y-10845038D01*
X15488038Y-10744962D02*
X15387962Y-10845038D01*
X15438000Y-10744962D02*
X15438000Y-10845038D01*
X15387962Y-10795000D02*
X15488038Y-10795000D01*
X15641962Y-5664962D02*
X15742038Y-5765038D01*
X15742038Y-5664962D02*
X15641962Y-5765038D01*
X15692000Y-5664962D02*
X15692000Y-5765038D01*
X15641962Y-5715000D02*
X15742038Y-5715000D01*
X15641962Y-10744962D02*
X15742038Y-10845038D01*
X15742038Y-10744962D02*
X15641962Y-10845038D01*
X15692000Y-10744962D02*
X15692000Y-10845038D01*
X15641962Y-10795000D02*
X15742038Y-10795000D01*
X15895962Y-5664962D02*
X15996038Y-5765038D01*
X15996038Y-5664962D02*
X15895962Y-5765038D01*
X15946000Y-5664962D02*
X15946000Y-5765038D01*
X15895962Y-5715000D02*
X15996038Y-5715000D01*
X15895962Y-10744962D02*
X15996038Y-10845038D01*
X15996038Y-10744962D02*
X15895962Y-10845038D01*
X15946000Y-10744962D02*
X15946000Y-10845038D01*
X15895962Y-10795000D02*
X15996038Y-10795000D01*
X16149962Y-5664962D02*
X16250038Y-5765038D01*
X16250038Y-5664962D02*
X16149962Y-5765038D01*
X16200000Y-5664962D02*
X16200000Y-5765038D01*
X16149962Y-5715000D02*
X16250038Y-5715000D01*
X16149962Y-10744962D02*
X16250038Y-10845038D01*
X16250038Y-10744962D02*
X16149962Y-10845038D01*
X16200000Y-10744962D02*
X16200000Y-10845038D01*
X16149962Y-10795000D02*
X16250038Y-10795000D01*
X16403962Y-5664962D02*
X16504038Y-5765038D01*
X16504038Y-5664962D02*
X16403962Y-5765038D01*
X16454000Y-5664962D02*
X16454000Y-5765038D01*
X16403962Y-5715000D02*
X16504038Y-5715000D01*
X16403962Y-10744962D02*
X16504038Y-10845038D01*
X16504038Y-10744962D02*
X16403962Y-10845038D01*
X16454000Y-10744962D02*
X16454000Y-10845038D01*
X16403962Y-10795000D02*
X16504038Y-10795000D01*
X16657962Y-5664962D02*
X16758038Y-5765038D01*
X16758038Y-5664962D02*
X16657962Y-5765038D01*
X16708000Y-5664962D02*
X16708000Y-5765038D01*
X16657962Y-5715000D02*
X16758038Y-5715000D01*
X16657962Y-10744962D02*
X16758038Y-10845038D01*
X16758038Y-10744962D02*
X16657962Y-10845038D01*
X16708000Y-10744962D02*
X16708000Y-10845038D01*
X16657962Y-10795000D02*
X16758038Y-10795000D01*
X16911962Y-5410962D02*
X17012038Y-5511038D01*
X17012038Y-5410962D02*
X16911962Y-5511038D01*
X16962000Y-5410962D02*
X16962000Y-5511038D01*
X16911962Y-5461000D02*
X17012038Y-5461000D01*
X16911962Y-5664962D02*
X17012038Y-5765038D01*
X17012038Y-5664962D02*
X16911962Y-5765038D01*
X16962000Y-5664962D02*
X16962000Y-5765038D01*
X16911962Y-5715000D02*
X17012038Y-5715000D01*
X16911962Y-10490962D02*
X17012038Y-10591038D01*
X17012038Y-10490962D02*
X16911962Y-10591038D01*
X16962000Y-10490962D02*
X16962000Y-10591038D01*
X16911962Y-10541000D02*
X17012038Y-10541000D01*
X16911962Y-10744962D02*
X17012038Y-10845038D01*
X17012038Y-10744962D02*
X16911962Y-10845038D01*
X16962000Y-10744962D02*
X16962000Y-10845038D01*
X16911962Y-10795000D02*
X17012038Y-10795000D01*
X19705962Y-5410962D02*
X19806038Y-5511038D01*
X19806038Y-5410962D02*
X19705962Y-5511038D01*
X19756000Y-5410962D02*
X19756000Y-5511038D01*
X19705962Y-5461000D02*
X19806038Y-5461000D01*
X19705962Y-10744962D02*
X19806038Y-10845038D01*
X19806038Y-10744962D02*
X19705962Y-10845038D01*
X19756000Y-10744962D02*
X19756000Y-10845038D01*
X19705962Y-10795000D02*
X19806038Y-10795000D01*
X19959962Y-5410962D02*
X20060038Y-5511038D01*
X20060038Y-5410962D02*
X19959962Y-5511038D01*
X20010000Y-5410962D02*
X20010000Y-5511038D01*
X19959962Y-5461000D02*
X20060038Y-5461000D01*
X19959962Y-10744962D02*
X20060038Y-10845038D01*
X20060038Y-10744962D02*
X19959962Y-10845038D01*
X20010000Y-10744962D02*
X20010000Y-10845038D01*
X19959962Y-10795000D02*
X20060038Y-10795000D01*
X10998200Y-4267200D02*
X11099800Y-4368800D01*
X11099800Y-4267200D02*
X10998200Y-4368800D01*
X11084921Y-4353921D02*
X11084921Y-4282079D01*
X11013079Y-4282079D01*
X11013079Y-4353921D01*
X11084921Y-4353921D01*
X10998200Y-4521200D02*
X11099800Y-4622800D01*
X11099800Y-4521200D02*
X10998200Y-4622800D01*
X11084921Y-4607921D02*
X11084921Y-4536079D01*
X11013079Y-4536079D01*
X11013079Y-4607921D01*
X11084921Y-4607921D01*
X11252200Y-4267200D02*
X11353800Y-4368800D01*
X11353800Y-4267200D02*
X11252200Y-4368800D01*
X11338921Y-4353921D02*
X11338921Y-4282079D01*
X11267079Y-4282079D01*
X11267079Y-4353921D01*
X11338921Y-4353921D01*
X11252200Y-4521200D02*
X11353800Y-4622800D01*
X11353800Y-4521200D02*
X11252200Y-4622800D01*
X11338921Y-4607921D02*
X11338921Y-4536079D01*
X11267079Y-4536079D01*
X11267079Y-4607921D01*
X11338921Y-4607921D01*
X11506200Y-4267200D02*
X11607800Y-4368800D01*
X11607800Y-4267200D02*
X11506200Y-4368800D01*
X11592921Y-4353921D02*
X11592921Y-4282079D01*
X11521079Y-4282079D01*
X11521079Y-4353921D01*
X11592921Y-4353921D01*
X11506200Y-4521200D02*
X11607800Y-4622800D01*
X11607800Y-4521200D02*
X11506200Y-4622800D01*
X11592921Y-4607921D02*
X11592921Y-4536079D01*
X11521079Y-4536079D01*
X11521079Y-4607921D01*
X11592921Y-4607921D01*
X11645200Y-11624200D02*
X11746800Y-11725800D01*
X11746800Y-11624200D02*
X11645200Y-11725800D01*
X11731921Y-11710921D02*
X11731921Y-11639079D01*
X11660079Y-11639079D01*
X11660079Y-11710921D01*
X11731921Y-11710921D01*
X11760200Y-4267200D02*
X11861800Y-4368800D01*
X11861800Y-4267200D02*
X11760200Y-4368800D01*
X11846921Y-4353921D02*
X11846921Y-4282079D01*
X11775079Y-4282079D01*
X11775079Y-4353921D01*
X11846921Y-4353921D01*
X11760200Y-4521200D02*
X11861800Y-4622800D01*
X11861800Y-4521200D02*
X11760200Y-4622800D01*
X11846921Y-4607921D02*
X11846921Y-4536079D01*
X11775079Y-4536079D01*
X11775079Y-4607921D01*
X11846921Y-4607921D01*
X11899200Y-11624200D02*
X12000800Y-11725800D01*
X12000800Y-11624200D02*
X11899200Y-11725800D01*
X11985921Y-11710921D02*
X11985921Y-11639079D01*
X11914079Y-11639079D01*
X11914079Y-11710921D01*
X11985921Y-11710921D01*
X12014200Y-4267200D02*
X12115800Y-4368800D01*
X12115800Y-4267200D02*
X12014200Y-4368800D01*
X12100921Y-4353921D02*
X12100921Y-4282079D01*
X12029079Y-4282079D01*
X12029079Y-4353921D01*
X12100921Y-4353921D01*
X12014200Y-4521200D02*
X12115800Y-4622800D01*
X12115800Y-4521200D02*
X12014200Y-4622800D01*
X12100921Y-4607921D02*
X12100921Y-4536079D01*
X12029079Y-4536079D01*
X12029079Y-4607921D01*
X12100921Y-4607921D01*
X12177700Y-11699200D02*
X12279300Y-11800800D01*
X12279300Y-11699200D02*
X12177700Y-11800800D01*
X12264421Y-11785921D02*
X12264421Y-11714079D01*
X12192579Y-11714079D01*
X12192579Y-11785921D01*
X12264421Y-11785921D01*
X12522200Y-4267200D02*
X12623800Y-4368800D01*
X12623800Y-4267200D02*
X12522200Y-4368800D01*
X12608921Y-4353921D02*
X12608921Y-4282079D01*
X12537079Y-4282079D01*
X12537079Y-4353921D01*
X12608921Y-4353921D01*
X12522200Y-4521200D02*
X12623800Y-4622800D01*
X12623800Y-4521200D02*
X12522200Y-4622800D01*
X12608921Y-4607921D02*
X12608921Y-4536079D01*
X12537079Y-4536079D01*
X12537079Y-4607921D01*
X12608921Y-4607921D01*
X12776200Y-4267200D02*
X12877800Y-4368800D01*
X12877800Y-4267200D02*
X12776200Y-4368800D01*
X12862921Y-4353921D02*
X12862921Y-4282079D01*
X12791079Y-4282079D01*
X12791079Y-4353921D01*
X12862921Y-4353921D01*
X12776200Y-4521200D02*
X12877800Y-4622800D01*
X12877800Y-4521200D02*
X12776200Y-4622800D01*
X12862921Y-4607921D02*
X12862921Y-4536079D01*
X12791079Y-4536079D01*
X12791079Y-4607921D01*
X12862921Y-4607921D01*
X13030200Y-4267200D02*
X13131800Y-4368800D01*
X13131800Y-4267200D02*
X13030200Y-4368800D01*
X13116921Y-4353921D02*
X13116921Y-4282079D01*
X13045079Y-4282079D01*
X13045079Y-4353921D01*
X13116921Y-4353921D01*
X13030200Y-4521200D02*
X13131800Y-4622800D01*
X13131800Y-4521200D02*
X13030200Y-4622800D01*
X13116921Y-4607921D02*
X13116921Y-4536079D01*
X13045079Y-4536079D01*
X13045079Y-4607921D01*
X13116921Y-4607921D01*
X13284200Y-4267200D02*
X13385800Y-4368800D01*
X13385800Y-4267200D02*
X13284200Y-4368800D01*
X13370921Y-4353921D02*
X13370921Y-4282079D01*
X13299079Y-4282079D01*
X13299079Y-4353921D01*
X13370921Y-4353921D01*
X13284200Y-4521200D02*
X13385800Y-4622800D01*
X13385800Y-4521200D02*
X13284200Y-4622800D01*
X13370921Y-4607921D02*
X13370921Y-4536079D01*
X13299079Y-4536079D01*
X13299079Y-4607921D01*
X13370921Y-4607921D01*
X13320700Y-11699200D02*
X13422300Y-11800800D01*
X13422300Y-11699200D02*
X13320700Y-11800800D01*
X13407421Y-11785921D02*
X13407421Y-11714079D01*
X13335579Y-11714079D01*
X13335579Y-11785921D01*
X13407421Y-11785921D01*
X13538200Y-4267200D02*
X13639800Y-4368800D01*
X13639800Y-4267200D02*
X13538200Y-4368800D01*
X13624921Y-4353921D02*
X13624921Y-4282079D01*
X13553079Y-4282079D01*
X13553079Y-4353921D01*
X13624921Y-4353921D01*
X13538200Y-4521200D02*
X13639800Y-4622800D01*
X13639800Y-4521200D02*
X13538200Y-4622800D01*
X13624921Y-4607921D02*
X13624921Y-4536079D01*
X13553079Y-4536079D01*
X13553079Y-4607921D01*
X13624921Y-4607921D01*
X13674200Y-11674200D02*
X13775800Y-11775800D01*
X13775800Y-11674200D02*
X13674200Y-11775800D01*
X13760921Y-11760921D02*
X13760921Y-11689079D01*
X13689079Y-11689079D01*
X13689079Y-11760921D01*
X13760921Y-11760921D01*
X13674200Y-11928200D02*
X13775800Y-12029800D01*
X13775800Y-11928200D02*
X13674200Y-12029800D01*
X13760921Y-12014921D02*
X13760921Y-11943079D01*
X13689079Y-11943079D01*
X13689079Y-12014921D01*
X13760921Y-12014921D01*
X14173200Y-11760200D02*
X14274800Y-11861800D01*
X14274800Y-11760200D02*
X14173200Y-11861800D01*
X14259921Y-11846921D02*
X14259921Y-11775079D01*
X14188079Y-11775079D01*
X14188079Y-11846921D01*
X14259921Y-11846921D01*
X14173200Y-12014200D02*
X14274800Y-12115800D01*
X14274800Y-12014200D02*
X14173200Y-12115800D01*
X14259921Y-12100921D02*
X14259921Y-12029079D01*
X14188079Y-12029079D01*
X14188079Y-12100921D01*
X14259921Y-12100921D01*
X14427200Y-11760200D02*
X14528800Y-11861800D01*
X14528800Y-11760200D02*
X14427200Y-11861800D01*
X14513921Y-11846921D02*
X14513921Y-11775079D01*
X14442079Y-11775079D01*
X14442079Y-11846921D01*
X14513921Y-11846921D01*
X14427200Y-12014200D02*
X14528800Y-12115800D01*
X14528800Y-12014200D02*
X14427200Y-12115800D01*
X14513921Y-12100921D02*
X14513921Y-12029079D01*
X14442079Y-12029079D01*
X14442079Y-12100921D01*
X14513921Y-12100921D01*
X14577700Y-10099200D02*
X14679300Y-10200800D01*
X14679300Y-10099200D02*
X14577700Y-10200800D01*
X14664421Y-10185921D02*
X14664421Y-10114079D01*
X14592579Y-10114079D01*
X14592579Y-10185921D01*
X14664421Y-10185921D01*
X14681200Y-11760200D02*
X14782800Y-11861800D01*
X14782800Y-11760200D02*
X14681200Y-11861800D01*
X14767921Y-11846921D02*
X14767921Y-11775079D01*
X14696079Y-11775079D01*
X14696079Y-11846921D01*
X14767921Y-11846921D01*
X14681200Y-12014200D02*
X14782800Y-12115800D01*
X14782800Y-12014200D02*
X14681200Y-12115800D01*
X14767921Y-12100921D02*
X14767921Y-12029079D01*
X14696079Y-12029079D01*
X14696079Y-12100921D01*
X14767921Y-12100921D01*
X14935200Y-11760200D02*
X15036800Y-11861800D01*
X15036800Y-11760200D02*
X14935200Y-11861800D01*
X15021921Y-11846921D02*
X15021921Y-11775079D01*
X14950079Y-11775079D01*
X14950079Y-11846921D01*
X15021921Y-11846921D01*
X14935200Y-12014200D02*
X15036800Y-12115800D01*
X15036800Y-12014200D02*
X14935200Y-12115800D01*
X15021921Y-12100921D02*
X15021921Y-12029079D01*
X14950079Y-12029079D01*
X14950079Y-12100921D01*
X15021921Y-12100921D01*
X15133200Y-4224200D02*
X15234800Y-4325800D01*
X15234800Y-4224200D02*
X15133200Y-4325800D01*
X15219921Y-4310921D02*
X15219921Y-4239079D01*
X15148079Y-4239079D01*
X15148079Y-4310921D01*
X15219921Y-4310921D01*
X15133200Y-4478200D02*
X15234800Y-4579800D01*
X15234800Y-4478200D02*
X15133200Y-4579800D01*
X15219921Y-4564921D02*
X15219921Y-4493079D01*
X15148079Y-4493079D01*
X15148079Y-4564921D01*
X15219921Y-4564921D01*
X15189200Y-11760200D02*
X15290800Y-11861800D01*
X15290800Y-11760200D02*
X15189200Y-11861800D01*
X15275921Y-11846921D02*
X15275921Y-11775079D01*
X15204079Y-11775079D01*
X15204079Y-11846921D01*
X15275921Y-11846921D01*
X15189200Y-12014200D02*
X15290800Y-12115800D01*
X15290800Y-12014200D02*
X15189200Y-12115800D01*
X15275921Y-12100921D02*
X15275921Y-12029079D01*
X15204079Y-12029079D01*
X15204079Y-12100921D01*
X15275921Y-12100921D01*
X15387200Y-4224200D02*
X15488800Y-4325800D01*
X15488800Y-4224200D02*
X15387200Y-4325800D01*
X15473921Y-4310921D02*
X15473921Y-4239079D01*
X15402079Y-4239079D01*
X15402079Y-4310921D01*
X15473921Y-4310921D01*
X15387200Y-4478200D02*
X15488800Y-4579800D01*
X15488800Y-4478200D02*
X15387200Y-4579800D01*
X15473921Y-4564921D02*
X15473921Y-4493079D01*
X15402079Y-4493079D01*
X15402079Y-4564921D01*
X15473921Y-4564921D01*
X15641200Y-4224200D02*
X15742800Y-4325800D01*
X15742800Y-4224200D02*
X15641200Y-4325800D01*
X15727921Y-4310921D02*
X15727921Y-4239079D01*
X15656079Y-4239079D01*
X15656079Y-4310921D01*
X15727921Y-4310921D01*
X15641200Y-4478200D02*
X15742800Y-4579800D01*
X15742800Y-4478200D02*
X15641200Y-4579800D01*
X15727921Y-4564921D02*
X15727921Y-4493079D01*
X15656079Y-4493079D01*
X15656079Y-4564921D01*
X15727921Y-4564921D01*
X15697200Y-11760200D02*
X15798800Y-11861800D01*
X15798800Y-11760200D02*
X15697200Y-11861800D01*
X15783921Y-11846921D02*
X15783921Y-11775079D01*
X15712079Y-11775079D01*
X15712079Y-11846921D01*
X15783921Y-11846921D01*
X15697200Y-12014200D02*
X15798800Y-12115800D01*
X15798800Y-12014200D02*
X15697200Y-12115800D01*
X15783921Y-12100921D02*
X15783921Y-12029079D01*
X15712079Y-12029079D01*
X15712079Y-12100921D01*
X15783921Y-12100921D01*
X15720700Y-10099200D02*
X15822300Y-10200800D01*
X15822300Y-10099200D02*
X15720700Y-10200800D01*
X15807421Y-10185921D02*
X15807421Y-10114079D01*
X15735579Y-10114079D01*
X15735579Y-10185921D01*
X15807421Y-10185921D01*
X15895200Y-4224200D02*
X15996800Y-4325800D01*
X15996800Y-4224200D02*
X15895200Y-4325800D01*
X15981921Y-4310921D02*
X15981921Y-4239079D01*
X15910079Y-4239079D01*
X15910079Y-4310921D01*
X15981921Y-4310921D01*
X15895200Y-4478200D02*
X15996800Y-4579800D01*
X15996800Y-4478200D02*
X15895200Y-4579800D01*
X15981921Y-4564921D02*
X15981921Y-4493079D01*
X15910079Y-4493079D01*
X15910079Y-4564921D01*
X15981921Y-4564921D01*
X15951200Y-11760200D02*
X16052800Y-11861800D01*
X16052800Y-11760200D02*
X15951200Y-11861800D01*
X16037921Y-11846921D02*
X16037921Y-11775079D01*
X15966079Y-11775079D01*
X15966079Y-11846921D01*
X16037921Y-11846921D01*
X15951200Y-12014200D02*
X16052800Y-12115800D01*
X16052800Y-12014200D02*
X15951200Y-12115800D01*
X16037921Y-12100921D02*
X16037921Y-12029079D01*
X15966079Y-12029079D01*
X15966079Y-12100921D01*
X16037921Y-12100921D01*
X16052700Y-12274200D02*
X16154300Y-12375800D01*
X16154300Y-12274200D02*
X16052700Y-12375800D01*
X16139421Y-12360921D02*
X16139421Y-12289079D01*
X16067579Y-12289079D01*
X16067579Y-12360921D01*
X16139421Y-12360921D01*
X16149200Y-4224200D02*
X16250800Y-4325800D01*
X16250800Y-4224200D02*
X16149200Y-4325800D01*
X16235921Y-4310921D02*
X16235921Y-4239079D01*
X16164079Y-4239079D01*
X16164079Y-4310921D01*
X16235921Y-4310921D01*
X16149200Y-4478200D02*
X16250800Y-4579800D01*
X16250800Y-4478200D02*
X16149200Y-4579800D01*
X16235921Y-4564921D02*
X16235921Y-4493079D01*
X16164079Y-4493079D01*
X16164079Y-4564921D01*
X16235921Y-4564921D01*
X16205200Y-11760200D02*
X16306800Y-11861800D01*
X16306800Y-11760200D02*
X16205200Y-11861800D01*
X16291921Y-11846921D02*
X16291921Y-11775079D01*
X16220079Y-11775079D01*
X16220079Y-11846921D01*
X16291921Y-11846921D01*
X16205200Y-12014200D02*
X16306800Y-12115800D01*
X16306800Y-12014200D02*
X16205200Y-12115800D01*
X16291921Y-12100921D02*
X16291921Y-12029079D01*
X16220079Y-12029079D01*
X16220079Y-12100921D01*
X16291921Y-12100921D01*
X16459200Y-11760200D02*
X16560800Y-11861800D01*
X16560800Y-11760200D02*
X16459200Y-11861800D01*
X16545921Y-11846921D02*
X16545921Y-11775079D01*
X16474079Y-11775079D01*
X16474079Y-11846921D01*
X16545921Y-11846921D01*
X16459200Y-12014200D02*
X16560800Y-12115800D01*
X16560800Y-12014200D02*
X16459200Y-12115800D01*
X16545921Y-12100921D02*
X16545921Y-12029079D01*
X16474079Y-12029079D01*
X16474079Y-12100921D01*
X16545921Y-12100921D01*
X16708200Y-4224200D02*
X16809800Y-4325800D01*
X16809800Y-4224200D02*
X16708200Y-4325800D01*
X16794921Y-4310921D02*
X16794921Y-4239079D01*
X16723079Y-4239079D01*
X16723079Y-4310921D01*
X16794921Y-4310921D01*
X16708200Y-4478200D02*
X16809800Y-4579800D01*
X16809800Y-4478200D02*
X16708200Y-4579800D01*
X16794921Y-4564921D02*
X16794921Y-4493079D01*
X16723079Y-4493079D01*
X16723079Y-4564921D01*
X16794921Y-4564921D01*
X16713200Y-11760200D02*
X16814800Y-11861800D01*
X16814800Y-11760200D02*
X16713200Y-11861800D01*
X16799921Y-11846921D02*
X16799921Y-11775079D01*
X16728079Y-11775079D01*
X16728079Y-11846921D01*
X16799921Y-11846921D01*
X16713200Y-12014200D02*
X16814800Y-12115800D01*
X16814800Y-12014200D02*
X16713200Y-12115800D01*
X16799921Y-12100921D02*
X16799921Y-12029079D01*
X16728079Y-12029079D01*
X16728079Y-12100921D01*
X16799921Y-12100921D01*
X16962200Y-4224200D02*
X17063800Y-4325800D01*
X17063800Y-4224200D02*
X16962200Y-4325800D01*
X17048921Y-4310921D02*
X17048921Y-4239079D01*
X16977079Y-4239079D01*
X16977079Y-4310921D01*
X17048921Y-4310921D01*
X16962200Y-4478200D02*
X17063800Y-4579800D01*
X17063800Y-4478200D02*
X16962200Y-4579800D01*
X17048921Y-4564921D02*
X17048921Y-4493079D01*
X16977079Y-4493079D01*
X16977079Y-4564921D01*
X17048921Y-4564921D01*
X17195700Y-12274200D02*
X17297300Y-12375800D01*
X17297300Y-12274200D02*
X17195700Y-12375800D01*
X17282421Y-12360921D02*
X17282421Y-12289079D01*
X17210579Y-12289079D01*
X17210579Y-12360921D01*
X17282421Y-12360921D01*
X17216200Y-4224200D02*
X17317800Y-4325800D01*
X17317800Y-4224200D02*
X17216200Y-4325800D01*
X17302921Y-4310921D02*
X17302921Y-4239079D01*
X17231079Y-4239079D01*
X17231079Y-4310921D01*
X17302921Y-4310921D01*
X17216200Y-4478200D02*
X17317800Y-4579800D01*
X17317800Y-4478200D02*
X17216200Y-4579800D01*
X17302921Y-4564921D02*
X17302921Y-4493079D01*
X17231079Y-4493079D01*
X17231079Y-4564921D01*
X17302921Y-4564921D01*
X17221200Y-11760200D02*
X17322800Y-11861800D01*
X17322800Y-11760200D02*
X17221200Y-11861800D01*
X17307921Y-11846921D02*
X17307921Y-11775079D01*
X17236079Y-11775079D01*
X17236079Y-11846921D01*
X17307921Y-11846921D01*
X17221200Y-12014200D02*
X17322800Y-12115800D01*
X17322800Y-12014200D02*
X17221200Y-12115800D01*
X17307921Y-12100921D02*
X17307921Y-12029079D01*
X17236079Y-12029079D01*
X17236079Y-12100921D01*
X17307921Y-12100921D01*
X17284700Y-11252200D02*
X17386300Y-11353800D01*
X17386300Y-11252200D02*
X17284700Y-11353800D01*
X17371421Y-11338921D02*
X17371421Y-11267079D01*
X17299579Y-11267079D01*
X17299579Y-11338921D01*
X17371421Y-11338921D01*
X17470200Y-4224200D02*
X17571800Y-4325800D01*
X17571800Y-4224200D02*
X17470200Y-4325800D01*
X17556921Y-4310921D02*
X17556921Y-4239079D01*
X17485079Y-4239079D01*
X17485079Y-4310921D01*
X17556921Y-4310921D01*
X17470200Y-4478200D02*
X17571800Y-4579800D01*
X17571800Y-4478200D02*
X17470200Y-4579800D01*
X17556921Y-4564921D02*
X17556921Y-4493079D01*
X17485079Y-4493079D01*
X17485079Y-4564921D01*
X17556921Y-4564921D01*
X17475200Y-5410200D02*
X17576800Y-5511800D01*
X17576800Y-5410200D02*
X17475200Y-5511800D01*
X17561921Y-5496921D02*
X17561921Y-5425079D01*
X17490079Y-5425079D01*
X17490079Y-5496921D01*
X17561921Y-5496921D01*
X17475200Y-5664200D02*
X17576800Y-5765800D01*
X17576800Y-5664200D02*
X17475200Y-5765800D01*
X17561921Y-5750921D02*
X17561921Y-5679079D01*
X17490079Y-5679079D01*
X17490079Y-5750921D01*
X17561921Y-5750921D01*
X17475200Y-5918200D02*
X17576800Y-6019800D01*
X17576800Y-5918200D02*
X17475200Y-6019800D01*
X17561921Y-6004921D02*
X17561921Y-5933079D01*
X17490079Y-5933079D01*
X17490079Y-6004921D01*
X17561921Y-6004921D01*
X17475200Y-6172200D02*
X17576800Y-6273800D01*
X17576800Y-6172200D02*
X17475200Y-6273800D01*
X17561921Y-6258921D02*
X17561921Y-6187079D01*
X17490079Y-6187079D01*
X17490079Y-6258921D01*
X17561921Y-6258921D01*
X17475200Y-6426200D02*
X17576800Y-6527800D01*
X17576800Y-6426200D02*
X17475200Y-6527800D01*
X17561921Y-6512921D02*
X17561921Y-6441079D01*
X17490079Y-6441079D01*
X17490079Y-6512921D01*
X17561921Y-6512921D01*
X17475200Y-6680200D02*
X17576800Y-6781800D01*
X17576800Y-6680200D02*
X17475200Y-6781800D01*
X17561921Y-6766921D02*
X17561921Y-6695079D01*
X17490079Y-6695079D01*
X17490079Y-6766921D01*
X17561921Y-6766921D01*
X17475200Y-6934200D02*
X17576800Y-7035800D01*
X17576800Y-6934200D02*
X17475200Y-7035800D01*
X17561921Y-7020921D02*
X17561921Y-6949079D01*
X17490079Y-6949079D01*
X17490079Y-7020921D01*
X17561921Y-7020921D01*
X17475200Y-7188200D02*
X17576800Y-7289800D01*
X17576800Y-7188200D02*
X17475200Y-7289800D01*
X17561921Y-7274921D02*
X17561921Y-7203079D01*
X17490079Y-7203079D01*
X17490079Y-7274921D01*
X17561921Y-7274921D01*
X17475200Y-7442200D02*
X17576800Y-7543800D01*
X17576800Y-7442200D02*
X17475200Y-7543800D01*
X17561921Y-7528921D02*
X17561921Y-7457079D01*
X17490079Y-7457079D01*
X17490079Y-7528921D01*
X17561921Y-7528921D01*
X17475200Y-7696200D02*
X17576800Y-7797800D01*
X17576800Y-7696200D02*
X17475200Y-7797800D01*
X17561921Y-7782921D02*
X17561921Y-7711079D01*
X17490079Y-7711079D01*
X17490079Y-7782921D01*
X17561921Y-7782921D01*
X17475200Y-11760200D02*
X17576800Y-11861800D01*
X17576800Y-11760200D02*
X17475200Y-11861800D01*
X17561921Y-11846921D02*
X17561921Y-11775079D01*
X17490079Y-11775079D01*
X17490079Y-11846921D01*
X17561921Y-11846921D01*
X17475200Y-12014200D02*
X17576800Y-12115800D01*
X17576800Y-12014200D02*
X17475200Y-12115800D01*
X17561921Y-12100921D02*
X17561921Y-12029079D01*
X17490079Y-12029079D01*
X17490079Y-12100921D01*
X17561921Y-12100921D01*
X17724200Y-4224200D02*
X17825800Y-4325800D01*
X17825800Y-4224200D02*
X17724200Y-4325800D01*
X17810921Y-4310921D02*
X17810921Y-4239079D01*
X17739079Y-4239079D01*
X17739079Y-4310921D01*
X17810921Y-4310921D01*
X17724200Y-4478200D02*
X17825800Y-4579800D01*
X17825800Y-4478200D02*
X17724200Y-4579800D01*
X17810921Y-4564921D02*
X17810921Y-4493079D01*
X17739079Y-4493079D01*
X17739079Y-4564921D01*
X17810921Y-4564921D01*
X17729200Y-5410200D02*
X17830800Y-5511800D01*
X17830800Y-5410200D02*
X17729200Y-5511800D01*
X17815921Y-5496921D02*
X17815921Y-5425079D01*
X17744079Y-5425079D01*
X17744079Y-5496921D01*
X17815921Y-5496921D01*
X17729200Y-5664200D02*
X17830800Y-5765800D01*
X17830800Y-5664200D02*
X17729200Y-5765800D01*
X17815921Y-5750921D02*
X17815921Y-5679079D01*
X17744079Y-5679079D01*
X17744079Y-5750921D01*
X17815921Y-5750921D01*
X17729200Y-5918200D02*
X17830800Y-6019800D01*
X17830800Y-5918200D02*
X17729200Y-6019800D01*
X17815921Y-6004921D02*
X17815921Y-5933079D01*
X17744079Y-5933079D01*
X17744079Y-6004921D01*
X17815921Y-6004921D01*
X17729200Y-6172200D02*
X17830800Y-6273800D01*
X17830800Y-6172200D02*
X17729200Y-6273800D01*
X17815921Y-6258921D02*
X17815921Y-6187079D01*
X17744079Y-6187079D01*
X17744079Y-6258921D01*
X17815921Y-6258921D01*
X17729200Y-6426200D02*
X17830800Y-6527800D01*
X17830800Y-6426200D02*
X17729200Y-6527800D01*
X17815921Y-6512921D02*
X17815921Y-6441079D01*
X17744079Y-6441079D01*
X17744079Y-6512921D01*
X17815921Y-6512921D01*
X17729200Y-6680200D02*
X17830800Y-6781800D01*
X17830800Y-6680200D02*
X17729200Y-6781800D01*
X17815921Y-6766921D02*
X17815921Y-6695079D01*
X17744079Y-6695079D01*
X17744079Y-6766921D01*
X17815921Y-6766921D01*
X17729200Y-6934200D02*
X17830800Y-7035800D01*
X17830800Y-6934200D02*
X17729200Y-7035800D01*
X17815921Y-7020921D02*
X17815921Y-6949079D01*
X17744079Y-6949079D01*
X17744079Y-7020921D01*
X17815921Y-7020921D01*
X17729200Y-7188200D02*
X17830800Y-7289800D01*
X17830800Y-7188200D02*
X17729200Y-7289800D01*
X17815921Y-7274921D02*
X17815921Y-7203079D01*
X17744079Y-7203079D01*
X17744079Y-7274921D01*
X17815921Y-7274921D01*
X17729200Y-7442200D02*
X17830800Y-7543800D01*
X17830800Y-7442200D02*
X17729200Y-7543800D01*
X17815921Y-7528921D02*
X17815921Y-7457079D01*
X17744079Y-7457079D01*
X17744079Y-7528921D01*
X17815921Y-7528921D01*
X17729200Y-7696200D02*
X17830800Y-7797800D01*
X17830800Y-7696200D02*
X17729200Y-7797800D01*
X17815921Y-7782921D02*
X17815921Y-7711079D01*
X17744079Y-7711079D01*
X17744079Y-7782921D01*
X17815921Y-7782921D01*
X17729200Y-11760200D02*
X17830800Y-11861800D01*
X17830800Y-11760200D02*
X17729200Y-11861800D01*
X17815921Y-11846921D02*
X17815921Y-11775079D01*
X17744079Y-11775079D01*
X17744079Y-11846921D01*
X17815921Y-11846921D01*
X17729200Y-12014200D02*
X17830800Y-12115800D01*
X17830800Y-12014200D02*
X17729200Y-12115800D01*
X17815921Y-12100921D02*
X17815921Y-12029079D01*
X17744079Y-12029079D01*
X17744079Y-12100921D01*
X17815921Y-12100921D01*
X17983200Y-11760200D02*
X18084800Y-11861800D01*
X18084800Y-11760200D02*
X17983200Y-11861800D01*
X18069921Y-11846921D02*
X18069921Y-11775079D01*
X17998079Y-11775079D01*
X17998079Y-11846921D01*
X18069921Y-11846921D01*
X17983200Y-12014200D02*
X18084800Y-12115800D01*
X18084800Y-12014200D02*
X17983200Y-12115800D01*
X18069921Y-12100921D02*
X18069921Y-12029079D01*
X17998079Y-12029079D01*
X17998079Y-12100921D01*
X18069921Y-12100921D01*
X18237200Y-11760200D02*
X18338800Y-11861800D01*
X18338800Y-11760200D02*
X18237200Y-11861800D01*
X18323921Y-11846921D02*
X18323921Y-11775079D01*
X18252079Y-11775079D01*
X18252079Y-11846921D01*
X18323921Y-11846921D01*
X18237200Y-12014200D02*
X18338800Y-12115800D01*
X18338800Y-12014200D02*
X18237200Y-12115800D01*
X18323921Y-12100921D02*
X18323921Y-12029079D01*
X18252079Y-12029079D01*
X18252079Y-12100921D01*
X18323921Y-12100921D01*
X18427700Y-11252200D02*
X18529300Y-11353800D01*
X18529300Y-11252200D02*
X18427700Y-11353800D01*
X18514421Y-11338921D02*
X18514421Y-11267079D01*
X18442579Y-11267079D01*
X18442579Y-11338921D01*
X18514421Y-11338921D01*
X18745200Y-8331200D02*
X18846800Y-8432800D01*
X18846800Y-8331200D02*
X18745200Y-8432800D01*
X18831921Y-8417921D02*
X18831921Y-8346079D01*
X18760079Y-8346079D01*
X18760079Y-8417921D01*
X18831921Y-8417921D01*
X18745200Y-8585200D02*
X18846800Y-8686800D01*
X18846800Y-8585200D02*
X18745200Y-8686800D01*
X18831921Y-8671921D02*
X18831921Y-8600079D01*
X18760079Y-8600079D01*
X18760079Y-8671921D01*
X18831921Y-8671921D01*
X18745200Y-8839200D02*
X18846800Y-8940800D01*
X18846800Y-8839200D02*
X18745200Y-8940800D01*
X18831921Y-8925921D02*
X18831921Y-8854079D01*
X18760079Y-8854079D01*
X18760079Y-8925921D01*
X18831921Y-8925921D01*
X18745200Y-9093200D02*
X18846800Y-9194800D01*
X18846800Y-9093200D02*
X18745200Y-9194800D01*
X18831921Y-9179921D02*
X18831921Y-9108079D01*
X18760079Y-9108079D01*
X18760079Y-9179921D01*
X18831921Y-9179921D01*
X18745200Y-9347200D02*
X18846800Y-9448800D01*
X18846800Y-9347200D02*
X18745200Y-9448800D01*
X18831921Y-9433921D02*
X18831921Y-9362079D01*
X18760079Y-9362079D01*
X18760079Y-9433921D01*
X18831921Y-9433921D01*
X18745200Y-9601200D02*
X18846800Y-9702800D01*
X18846800Y-9601200D02*
X18745200Y-9702800D01*
X18831921Y-9687921D02*
X18831921Y-9616079D01*
X18760079Y-9616079D01*
X18760079Y-9687921D01*
X18831921Y-9687921D01*
X18745200Y-9855200D02*
X18846800Y-9956800D01*
X18846800Y-9855200D02*
X18745200Y-9956800D01*
X18831921Y-9941921D02*
X18831921Y-9870079D01*
X18760079Y-9870079D01*
X18760079Y-9941921D01*
X18831921Y-9941921D01*
X18745200Y-10109200D02*
X18846800Y-10210800D01*
X18846800Y-10109200D02*
X18745200Y-10210800D01*
X18831921Y-10195921D02*
X18831921Y-10124079D01*
X18760079Y-10124079D01*
X18760079Y-10195921D01*
X18831921Y-10195921D01*
X18745200Y-11760200D02*
X18846800Y-11861800D01*
X18846800Y-11760200D02*
X18745200Y-11861800D01*
X18831921Y-11846921D02*
X18831921Y-11775079D01*
X18760079Y-11775079D01*
X18760079Y-11846921D01*
X18831921Y-11846921D01*
X18745200Y-12014200D02*
X18846800Y-12115800D01*
X18846800Y-12014200D02*
X18745200Y-12115800D01*
X18831921Y-12100921D02*
X18831921Y-12029079D01*
X18760079Y-12029079D01*
X18760079Y-12100921D01*
X18831921Y-12100921D01*
X18808700Y-11252200D02*
X18910300Y-11353800D01*
X18910300Y-11252200D02*
X18808700Y-11353800D01*
X18895421Y-11338921D02*
X18895421Y-11267079D01*
X18823579Y-11267079D01*
X18823579Y-11338921D01*
X18895421Y-11338921D01*
X18935700Y-7442200D02*
X19037300Y-7543800D01*
X19037300Y-7442200D02*
X18935700Y-7543800D01*
X19022421Y-7528921D02*
X19022421Y-7457079D01*
X18950579Y-7457079D01*
X18950579Y-7528921D01*
X19022421Y-7528921D01*
X18935700Y-7823200D02*
X19037300Y-7924800D01*
X19037300Y-7823200D02*
X18935700Y-7924800D01*
X19022421Y-7909921D02*
X19022421Y-7838079D01*
X18950579Y-7838079D01*
X18950579Y-7909921D01*
X19022421Y-7909921D01*
X18999200Y-8331200D02*
X19100800Y-8432800D01*
X19100800Y-8331200D02*
X18999200Y-8432800D01*
X19085921Y-8417921D02*
X19085921Y-8346079D01*
X19014079Y-8346079D01*
X19014079Y-8417921D01*
X19085921Y-8417921D01*
X18999200Y-8585200D02*
X19100800Y-8686800D01*
X19100800Y-8585200D02*
X18999200Y-8686800D01*
X19085921Y-8671921D02*
X19085921Y-8600079D01*
X19014079Y-8600079D01*
X19014079Y-8671921D01*
X19085921Y-8671921D01*
X18999200Y-8839200D02*
X19100800Y-8940800D01*
X19100800Y-8839200D02*
X18999200Y-8940800D01*
X19085921Y-8925921D02*
X19085921Y-8854079D01*
X19014079Y-8854079D01*
X19014079Y-8925921D01*
X19085921Y-8925921D01*
X18999200Y-9093200D02*
X19100800Y-9194800D01*
X19100800Y-9093200D02*
X18999200Y-9194800D01*
X19085921Y-9179921D02*
X19085921Y-9108079D01*
X19014079Y-9108079D01*
X19014079Y-9179921D01*
X19085921Y-9179921D01*
X18999200Y-9347200D02*
X19100800Y-9448800D01*
X19100800Y-9347200D02*
X18999200Y-9448800D01*
X19085921Y-9433921D02*
X19085921Y-9362079D01*
X19014079Y-9362079D01*
X19014079Y-9433921D01*
X19085921Y-9433921D01*
X18999200Y-9601200D02*
X19100800Y-9702800D01*
X19100800Y-9601200D02*
X18999200Y-9702800D01*
X19085921Y-9687921D02*
X19085921Y-9616079D01*
X19014079Y-9616079D01*
X19014079Y-9687921D01*
X19085921Y-9687921D01*
X18999200Y-9855200D02*
X19100800Y-9956800D01*
X19100800Y-9855200D02*
X18999200Y-9956800D01*
X19085921Y-9941921D02*
X19085921Y-9870079D01*
X19014079Y-9870079D01*
X19014079Y-9941921D01*
X19085921Y-9941921D01*
X18999200Y-10109200D02*
X19100800Y-10210800D01*
X19100800Y-10109200D02*
X18999200Y-10210800D01*
X19085921Y-10195921D02*
X19085921Y-10124079D01*
X19014079Y-10124079D01*
X19014079Y-10195921D01*
X19085921Y-10195921D01*
X18999200Y-11760200D02*
X19100800Y-11861800D01*
X19100800Y-11760200D02*
X18999200Y-11861800D01*
X19085921Y-11846921D02*
X19085921Y-11775079D01*
X19014079Y-11775079D01*
X19014079Y-11846921D01*
X19085921Y-11846921D01*
X18999200Y-12014200D02*
X19100800Y-12115800D01*
X19100800Y-12014200D02*
X18999200Y-12115800D01*
X19085921Y-12100921D02*
X19085921Y-12029079D01*
X19014079Y-12029079D01*
X19014079Y-12100921D01*
X19085921Y-12100921D01*
X19253200Y-11760200D02*
X19354800Y-11861800D01*
X19354800Y-11760200D02*
X19253200Y-11861800D01*
X19339921Y-11846921D02*
X19339921Y-11775079D01*
X19268079Y-11775079D01*
X19268079Y-11846921D01*
X19339921Y-11846921D01*
X19253200Y-12014200D02*
X19354800Y-12115800D01*
X19354800Y-12014200D02*
X19253200Y-12115800D01*
X19339921Y-12100921D02*
X19339921Y-12029079D01*
X19268079Y-12029079D01*
X19268079Y-12100921D01*
X19339921Y-12100921D01*
X19507200Y-4267200D02*
X19608800Y-4368800D01*
X19608800Y-4267200D02*
X19507200Y-4368800D01*
X19593921Y-4353921D02*
X19593921Y-4282079D01*
X19522079Y-4282079D01*
X19522079Y-4353921D01*
X19593921Y-4353921D01*
X19507200Y-4521200D02*
X19608800Y-4622800D01*
X19608800Y-4521200D02*
X19507200Y-4622800D01*
X19593921Y-4607921D02*
X19593921Y-4536079D01*
X19522079Y-4536079D01*
X19522079Y-4607921D01*
X19593921Y-4607921D01*
X19507200Y-11760200D02*
X19608800Y-11861800D01*
X19608800Y-11760200D02*
X19507200Y-11861800D01*
X19593921Y-11846921D02*
X19593921Y-11775079D01*
X19522079Y-11775079D01*
X19522079Y-11846921D01*
X19593921Y-11846921D01*
X19507200Y-12014200D02*
X19608800Y-12115800D01*
X19608800Y-12014200D02*
X19507200Y-12115800D01*
X19593921Y-12100921D02*
X19593921Y-12029079D01*
X19522079Y-12029079D01*
X19522079Y-12100921D01*
X19593921Y-12100921D01*
X19761200Y-11760200D02*
X19862800Y-11861800D01*
X19862800Y-11760200D02*
X19761200Y-11861800D01*
X19847921Y-11846921D02*
X19847921Y-11775079D01*
X19776079Y-11775079D01*
X19776079Y-11846921D01*
X19847921Y-11846921D01*
X19761200Y-12014200D02*
X19862800Y-12115800D01*
X19862800Y-12014200D02*
X19761200Y-12115800D01*
X19847921Y-12100921D02*
X19847921Y-12029079D01*
X19776079Y-12029079D01*
X19776079Y-12100921D01*
X19847921Y-12100921D01*
X19951700Y-11252200D02*
X20053300Y-11353800D01*
X20053300Y-11252200D02*
X19951700Y-11353800D01*
X20038421Y-11338921D02*
X20038421Y-11267079D01*
X19966579Y-11267079D01*
X19966579Y-11338921D01*
X20038421Y-11338921D01*
X20078700Y-7442200D02*
X20180300Y-7543800D01*
X20180300Y-7442200D02*
X20078700Y-7543800D01*
X20165421Y-7528921D02*
X20165421Y-7457079D01*
X20093579Y-7457079D01*
X20093579Y-7528921D01*
X20165421Y-7528921D01*
X20078700Y-7823200D02*
X20180300Y-7924800D01*
X20180300Y-7823200D02*
X20078700Y-7924800D01*
X20165421Y-7909921D02*
X20165421Y-7838079D01*
X20093579Y-7838079D01*
X20093579Y-7909921D01*
X20165421Y-7909921D01*
X20523200Y-5156200D02*
X20624800Y-5257800D01*
X20624800Y-5156200D02*
X20523200Y-5257800D01*
X20609921Y-5242921D02*
X20609921Y-5171079D01*
X20538079Y-5171079D01*
X20538079Y-5242921D01*
X20609921Y-5242921D01*
X20523200Y-5410200D02*
X20624800Y-5511800D01*
X20624800Y-5410200D02*
X20523200Y-5511800D01*
X20609921Y-5496921D02*
X20609921Y-5425079D01*
X20538079Y-5425079D01*
X20538079Y-5496921D01*
X20609921Y-5496921D01*
X20523200Y-5664200D02*
X20624800Y-5765800D01*
X20624800Y-5664200D02*
X20523200Y-5765800D01*
X20609921Y-5750921D02*
X20609921Y-5679079D01*
X20538079Y-5679079D01*
X20538079Y-5750921D01*
X20609921Y-5750921D01*
X20523200Y-5918200D02*
X20624800Y-6019800D01*
X20624800Y-5918200D02*
X20523200Y-6019800D01*
X20609921Y-6004921D02*
X20609921Y-5933079D01*
X20538079Y-5933079D01*
X20538079Y-6004921D01*
X20609921Y-6004921D01*
X20523200Y-6172200D02*
X20624800Y-6273800D01*
X20624800Y-6172200D02*
X20523200Y-6273800D01*
X20609921Y-6258921D02*
X20609921Y-6187079D01*
X20538079Y-6187079D01*
X20538079Y-6258921D01*
X20609921Y-6258921D01*
X20523200Y-7823200D02*
X20624800Y-7924800D01*
X20624800Y-7823200D02*
X20523200Y-7924800D01*
X20609921Y-7909921D02*
X20609921Y-7838079D01*
X20538079Y-7838079D01*
X20538079Y-7909921D01*
X20609921Y-7909921D01*
X20523200Y-8077200D02*
X20624800Y-8178800D01*
X20624800Y-8077200D02*
X20523200Y-8178800D01*
X20609921Y-8163921D02*
X20609921Y-8092079D01*
X20538079Y-8092079D01*
X20538079Y-8163921D01*
X20609921Y-8163921D01*
X20523200Y-8331200D02*
X20624800Y-8432800D01*
X20624800Y-8331200D02*
X20523200Y-8432800D01*
X20609921Y-8417921D02*
X20609921Y-8346079D01*
X20538079Y-8346079D01*
X20538079Y-8417921D01*
X20609921Y-8417921D01*
X20523200Y-8585200D02*
X20624800Y-8686800D01*
X20624800Y-8585200D02*
X20523200Y-8686800D01*
X20609921Y-8671921D02*
X20609921Y-8600079D01*
X20538079Y-8600079D01*
X20538079Y-8671921D01*
X20609921Y-8671921D01*
X20523200Y-8839200D02*
X20624800Y-8940800D01*
X20624800Y-8839200D02*
X20523200Y-8940800D01*
X20609921Y-8925921D02*
X20609921Y-8854079D01*
X20538079Y-8854079D01*
X20538079Y-8925921D01*
X20609921Y-8925921D01*
X20523200Y-9093200D02*
X20624800Y-9194800D01*
X20624800Y-9093200D02*
X20523200Y-9194800D01*
X20609921Y-9179921D02*
X20609921Y-9108079D01*
X20538079Y-9108079D01*
X20538079Y-9179921D01*
X20609921Y-9179921D01*
X20523200Y-9347200D02*
X20624800Y-9448800D01*
X20624800Y-9347200D02*
X20523200Y-9448800D01*
X20609921Y-9433921D02*
X20609921Y-9362079D01*
X20538079Y-9362079D01*
X20538079Y-9433921D01*
X20609921Y-9433921D01*
X20523200Y-9601200D02*
X20624800Y-9702800D01*
X20624800Y-9601200D02*
X20523200Y-9702800D01*
X20609921Y-9687921D02*
X20609921Y-9616079D01*
X20538079Y-9616079D01*
X20538079Y-9687921D01*
X20609921Y-9687921D01*
X20523200Y-10236200D02*
X20624800Y-10337800D01*
X20624800Y-10236200D02*
X20523200Y-10337800D01*
X20609921Y-10322921D02*
X20609921Y-10251079D01*
X20538079Y-10251079D01*
X20538079Y-10322921D01*
X20609921Y-10322921D01*
X20523200Y-10490200D02*
X20624800Y-10591800D01*
X20624800Y-10490200D02*
X20523200Y-10591800D01*
X20609921Y-10576921D02*
X20609921Y-10505079D01*
X20538079Y-10505079D01*
X20538079Y-10576921D01*
X20609921Y-10576921D01*
X20523200Y-10744200D02*
X20624800Y-10845800D01*
X20624800Y-10744200D02*
X20523200Y-10845800D01*
X20609921Y-10830921D02*
X20609921Y-10759079D01*
X20538079Y-10759079D01*
X20538079Y-10830921D01*
X20609921Y-10830921D01*
X20777200Y-5156200D02*
X20878800Y-5257800D01*
X20878800Y-5156200D02*
X20777200Y-5257800D01*
X20863921Y-5242921D02*
X20863921Y-5171079D01*
X20792079Y-5171079D01*
X20792079Y-5242921D01*
X20863921Y-5242921D01*
X20777200Y-5410200D02*
X20878800Y-5511800D01*
X20878800Y-5410200D02*
X20777200Y-5511800D01*
X20863921Y-5496921D02*
X20863921Y-5425079D01*
X20792079Y-5425079D01*
X20792079Y-5496921D01*
X20863921Y-5496921D01*
X20777200Y-5664200D02*
X20878800Y-5765800D01*
X20878800Y-5664200D02*
X20777200Y-5765800D01*
X20863921Y-5750921D02*
X20863921Y-5679079D01*
X20792079Y-5679079D01*
X20792079Y-5750921D01*
X20863921Y-5750921D01*
X20777200Y-5918200D02*
X20878800Y-6019800D01*
X20878800Y-5918200D02*
X20777200Y-6019800D01*
X20863921Y-6004921D02*
X20863921Y-5933079D01*
X20792079Y-5933079D01*
X20792079Y-6004921D01*
X20863921Y-6004921D01*
X20777200Y-6172200D02*
X20878800Y-6273800D01*
X20878800Y-6172200D02*
X20777200Y-6273800D01*
X20863921Y-6258921D02*
X20863921Y-6187079D01*
X20792079Y-6187079D01*
X20792079Y-6258921D01*
X20863921Y-6258921D01*
X20777200Y-7823200D02*
X20878800Y-7924800D01*
X20878800Y-7823200D02*
X20777200Y-7924800D01*
X20863921Y-7909921D02*
X20863921Y-7838079D01*
X20792079Y-7838079D01*
X20792079Y-7909921D01*
X20863921Y-7909921D01*
X20777200Y-8077200D02*
X20878800Y-8178800D01*
X20878800Y-8077200D02*
X20777200Y-8178800D01*
X20863921Y-8163921D02*
X20863921Y-8092079D01*
X20792079Y-8092079D01*
X20792079Y-8163921D01*
X20863921Y-8163921D01*
X20777200Y-8331200D02*
X20878800Y-8432800D01*
X20878800Y-8331200D02*
X20777200Y-8432800D01*
X20863921Y-8417921D02*
X20863921Y-8346079D01*
X20792079Y-8346079D01*
X20792079Y-8417921D01*
X20863921Y-8417921D01*
X20777200Y-8585200D02*
X20878800Y-8686800D01*
X20878800Y-8585200D02*
X20777200Y-8686800D01*
X20863921Y-8671921D02*
X20863921Y-8600079D01*
X20792079Y-8600079D01*
X20792079Y-8671921D01*
X20863921Y-8671921D01*
X20777200Y-8839200D02*
X20878800Y-8940800D01*
X20878800Y-8839200D02*
X20777200Y-8940800D01*
X20863921Y-8925921D02*
X20863921Y-8854079D01*
X20792079Y-8854079D01*
X20792079Y-8925921D01*
X20863921Y-8925921D01*
X20777200Y-9093200D02*
X20878800Y-9194800D01*
X20878800Y-9093200D02*
X20777200Y-9194800D01*
X20863921Y-9179921D02*
X20863921Y-9108079D01*
X20792079Y-9108079D01*
X20792079Y-9179921D01*
X20863921Y-9179921D01*
X20777200Y-9347200D02*
X20878800Y-9448800D01*
X20878800Y-9347200D02*
X20777200Y-9448800D01*
X20863921Y-9433921D02*
X20863921Y-9362079D01*
X20792079Y-9362079D01*
X20792079Y-9433921D01*
X20863921Y-9433921D01*
X20777200Y-9601200D02*
X20878800Y-9702800D01*
X20878800Y-9601200D02*
X20777200Y-9702800D01*
X20863921Y-9687921D02*
X20863921Y-9616079D01*
X20792079Y-9616079D01*
X20792079Y-9687921D01*
X20863921Y-9687921D01*
X21158200Y-5156200D02*
X21259800Y-5257800D01*
X21259800Y-5156200D02*
X21158200Y-5257800D01*
X21244921Y-5242921D02*
X21244921Y-5171079D01*
X21173079Y-5171079D01*
X21173079Y-5242921D01*
X21244921Y-5242921D01*
X21158200Y-5410200D02*
X21259800Y-5511800D01*
X21259800Y-5410200D02*
X21158200Y-5511800D01*
X21244921Y-5496921D02*
X21244921Y-5425079D01*
X21173079Y-5425079D01*
X21173079Y-5496921D01*
X21244921Y-5496921D01*
X21158200Y-5664200D02*
X21259800Y-5765800D01*
X21259800Y-5664200D02*
X21158200Y-5765800D01*
X21244921Y-5750921D02*
X21244921Y-5679079D01*
X21173079Y-5679079D01*
X21173079Y-5750921D01*
X21244921Y-5750921D01*
X21158200Y-5918200D02*
X21259800Y-6019800D01*
X21259800Y-5918200D02*
X21158200Y-6019800D01*
X21244921Y-6004921D02*
X21244921Y-5933079D01*
X21173079Y-5933079D01*
X21173079Y-6004921D01*
X21244921Y-6004921D01*
X21158200Y-6172200D02*
X21259800Y-6273800D01*
X21259800Y-6172200D02*
X21158200Y-6273800D01*
X21244921Y-6258921D02*
X21244921Y-6187079D01*
X21173079Y-6187079D01*
X21173079Y-6258921D01*
X21244921Y-6258921D01*
X21158200Y-7823200D02*
X21259800Y-7924800D01*
X21259800Y-7823200D02*
X21158200Y-7924800D01*
X21244921Y-7909921D02*
X21244921Y-7838079D01*
X21173079Y-7838079D01*
X21173079Y-7909921D01*
X21244921Y-7909921D01*
X21158200Y-8077200D02*
X21259800Y-8178800D01*
X21259800Y-8077200D02*
X21158200Y-8178800D01*
X21244921Y-8163921D02*
X21244921Y-8092079D01*
X21173079Y-8092079D01*
X21173079Y-8163921D01*
X21244921Y-8163921D01*
X21158200Y-8331200D02*
X21259800Y-8432800D01*
X21259800Y-8331200D02*
X21158200Y-8432800D01*
X21244921Y-8417921D02*
X21244921Y-8346079D01*
X21173079Y-8346079D01*
X21173079Y-8417921D01*
X21244921Y-8417921D01*
X21158200Y-8585200D02*
X21259800Y-8686800D01*
X21259800Y-8585200D02*
X21158200Y-8686800D01*
X21244921Y-8671921D02*
X21244921Y-8600079D01*
X21173079Y-8600079D01*
X21173079Y-8671921D01*
X21244921Y-8671921D01*
X21158200Y-8839200D02*
X21259800Y-8940800D01*
X21259800Y-8839200D02*
X21158200Y-8940800D01*
X21244921Y-8925921D02*
X21244921Y-8854079D01*
X21173079Y-8854079D01*
X21173079Y-8925921D01*
X21244921Y-8925921D01*
X21158200Y-9093200D02*
X21259800Y-9194800D01*
X21259800Y-9093200D02*
X21158200Y-9194800D01*
X21244921Y-9179921D02*
X21244921Y-9108079D01*
X21173079Y-9108079D01*
X21173079Y-9179921D01*
X21244921Y-9179921D01*
X21158200Y-9347200D02*
X21259800Y-9448800D01*
X21259800Y-9347200D02*
X21158200Y-9448800D01*
X21244921Y-9433921D02*
X21244921Y-9362079D01*
X21173079Y-9362079D01*
X21173079Y-9433921D01*
X21244921Y-9433921D01*
X21158200Y-9601200D02*
X21259800Y-9702800D01*
X21259800Y-9601200D02*
X21158200Y-9702800D01*
X21244921Y-9687921D02*
X21244921Y-9616079D01*
X21173079Y-9616079D01*
X21173079Y-9687921D01*
X21244921Y-9687921D01*
X21412200Y-5156200D02*
X21513800Y-5257800D01*
X21513800Y-5156200D02*
X21412200Y-5257800D01*
X21498921Y-5242921D02*
X21498921Y-5171079D01*
X21427079Y-5171079D01*
X21427079Y-5242921D01*
X21498921Y-5242921D01*
X21412200Y-5410200D02*
X21513800Y-5511800D01*
X21513800Y-5410200D02*
X21412200Y-5511800D01*
X21498921Y-5496921D02*
X21498921Y-5425079D01*
X21427079Y-5425079D01*
X21427079Y-5496921D01*
X21498921Y-5496921D01*
X21412200Y-5664200D02*
X21513800Y-5765800D01*
X21513800Y-5664200D02*
X21412200Y-5765800D01*
X21498921Y-5750921D02*
X21498921Y-5679079D01*
X21427079Y-5679079D01*
X21427079Y-5750921D01*
X21498921Y-5750921D01*
X21412200Y-5918200D02*
X21513800Y-6019800D01*
X21513800Y-5918200D02*
X21412200Y-6019800D01*
X21498921Y-6004921D02*
X21498921Y-5933079D01*
X21427079Y-5933079D01*
X21427079Y-6004921D01*
X21498921Y-6004921D01*
X21412200Y-6172200D02*
X21513800Y-6273800D01*
X21513800Y-6172200D02*
X21412200Y-6273800D01*
X21498921Y-6258921D02*
X21498921Y-6187079D01*
X21427079Y-6187079D01*
X21427079Y-6258921D01*
X21498921Y-6258921D01*
X21412200Y-7823200D02*
X21513800Y-7924800D01*
X21513800Y-7823200D02*
X21412200Y-7924800D01*
X21498921Y-7909921D02*
X21498921Y-7838079D01*
X21427079Y-7838079D01*
X21427079Y-7909921D01*
X21498921Y-7909921D01*
X21412200Y-8077200D02*
X21513800Y-8178800D01*
X21513800Y-8077200D02*
X21412200Y-8178800D01*
X21498921Y-8163921D02*
X21498921Y-8092079D01*
X21427079Y-8092079D01*
X21427079Y-8163921D01*
X21498921Y-8163921D01*
X21412200Y-8331200D02*
X21513800Y-8432800D01*
X21513800Y-8331200D02*
X21412200Y-8432800D01*
X21498921Y-8417921D02*
X21498921Y-8346079D01*
X21427079Y-8346079D01*
X21427079Y-8417921D01*
X21498921Y-8417921D01*
X21412200Y-8585200D02*
X21513800Y-8686800D01*
X21513800Y-8585200D02*
X21412200Y-8686800D01*
X21498921Y-8671921D02*
X21498921Y-8600079D01*
X21427079Y-8600079D01*
X21427079Y-8671921D01*
X21498921Y-8671921D01*
X21412200Y-8839200D02*
X21513800Y-8940800D01*
X21513800Y-8839200D02*
X21412200Y-8940800D01*
X21498921Y-8925921D02*
X21498921Y-8854079D01*
X21427079Y-8854079D01*
X21427079Y-8925921D01*
X21498921Y-8925921D01*
X21412200Y-9093200D02*
X21513800Y-9194800D01*
X21513800Y-9093200D02*
X21412200Y-9194800D01*
X21498921Y-9179921D02*
X21498921Y-9108079D01*
X21427079Y-9108079D01*
X21427079Y-9179921D01*
X21498921Y-9179921D01*
X21412200Y-9347200D02*
X21513800Y-9448800D01*
X21513800Y-9347200D02*
X21412200Y-9448800D01*
X21498921Y-9433921D02*
X21498921Y-9362079D01*
X21427079Y-9362079D01*
X21427079Y-9433921D01*
X21498921Y-9433921D01*
X21412200Y-9601200D02*
X21513800Y-9702800D01*
X21513800Y-9601200D02*
X21412200Y-9702800D01*
X21498921Y-9687921D02*
X21498921Y-9616079D01*
X21427079Y-9616079D01*
X21427079Y-9687921D01*
X21498921Y-9687921D01*
X20395184Y-6798056D02*
X20515072Y-6917944D01*
X20515072Y-6798056D02*
X20395184Y-6917944D01*
X20455128Y-6917944D02*
X20515072Y-6858000D01*
X20455128Y-6798056D01*
X20395184Y-6858000D01*
X20455128Y-6917944D01*
X20645120Y-7297928D02*
X20765008Y-7417816D01*
X20765008Y-7297928D02*
X20645120Y-7417816D01*
X20705064Y-7417816D02*
X20765008Y-7357872D01*
X20705064Y-7297928D01*
X20645120Y-7357872D01*
X20705064Y-7417816D01*
X20895056Y-6798056D02*
X21014944Y-6917944D01*
X21014944Y-6798056D02*
X20895056Y-6917944D01*
X20955000Y-6917944D02*
X21014944Y-6858000D01*
X20955000Y-6798056D01*
X20895056Y-6858000D01*
X20955000Y-6917944D01*
X21284184Y-6798056D02*
X21404072Y-6917944D01*
X21404072Y-6798056D02*
X21284184Y-6917944D01*
X21344128Y-6917944D02*
X21404072Y-6858000D01*
X21344128Y-6798056D01*
X21284184Y-6858000D01*
X21344128Y-6917944D01*
X21534120Y-7297928D02*
X21654008Y-7417816D01*
X21654008Y-7297928D02*
X21534120Y-7417816D01*
X21594064Y-7417816D02*
X21654008Y-7357872D01*
X21594064Y-7297928D01*
X21534120Y-7357872D01*
X21594064Y-7417816D01*
X21784056Y-6798056D02*
X21903944Y-6917944D01*
X21903944Y-6798056D02*
X21784056Y-6917944D01*
X21844000Y-6917944D02*
X21903944Y-6858000D01*
X21844000Y-6798056D01*
X21784056Y-6858000D01*
X21844000Y-6917944D01*
D13*
X10891429Y-12995714D02*
X10891429Y-12695714D01*
X10962857Y-12695714D01*
X11005714Y-12710000D01*
X11034286Y-12738571D01*
X11048571Y-12767143D01*
X11062857Y-12824286D01*
X11062857Y-12867143D01*
X11048571Y-12924286D01*
X11034286Y-12952857D01*
X11005714Y-12981429D01*
X10962857Y-12995714D01*
X10891429Y-12995714D01*
X11191428Y-12995714D02*
X11191428Y-12795714D01*
X11191428Y-12852857D02*
X11205714Y-12824286D01*
X11220000Y-12810000D01*
X11248571Y-12795714D01*
X11277143Y-12795714D01*
X11377143Y-12995714D02*
X11377143Y-12795714D01*
X11377143Y-12695714D02*
X11362857Y-12710000D01*
X11377143Y-12724286D01*
X11391428Y-12710000D01*
X11377143Y-12695714D01*
X11377143Y-12724286D01*
X11562857Y-12995714D02*
X11534286Y-12981429D01*
X11520000Y-12952857D01*
X11520000Y-12695714D01*
X11720000Y-12995714D02*
X11691428Y-12981429D01*
X11677143Y-12952857D01*
X11677143Y-12695714D01*
X12062857Y-12995714D02*
X12062857Y-12695714D01*
X12162857Y-12910000D01*
X12262857Y-12695714D01*
X12262857Y-12995714D01*
X12534286Y-12995714D02*
X12534286Y-12838571D01*
X12520000Y-12810000D01*
X12491428Y-12795714D01*
X12434286Y-12795714D01*
X12405714Y-12810000D01*
X12534286Y-12981429D02*
X12505714Y-12995714D01*
X12434286Y-12995714D01*
X12405714Y-12981429D01*
X12391428Y-12952857D01*
X12391428Y-12924286D01*
X12405714Y-12895714D01*
X12434286Y-12881429D01*
X12505714Y-12881429D01*
X12534286Y-12867143D01*
X12677143Y-12795714D02*
X12677143Y-13095714D01*
X12677143Y-12810000D02*
X12705714Y-12795714D01*
X12762857Y-12795714D01*
X12791428Y-12810000D01*
X12805714Y-12824286D01*
X12820000Y-12852857D01*
X12820000Y-12938571D01*
X12805714Y-12967143D01*
X12791428Y-12981429D01*
X12762857Y-12995714D01*
X12705714Y-12995714D01*
X12677143Y-12981429D01*
X12948571Y-12967143D02*
X12962857Y-12981429D01*
X12948571Y-12995714D01*
X12934286Y-12981429D01*
X12948571Y-12967143D01*
X12948571Y-12995714D01*
X12948571Y-12810000D02*
X12962857Y-12824286D01*
X12948571Y-12838571D01*
X12934286Y-12824286D01*
X12948571Y-12810000D01*
X12948571Y-12838571D01*
X10570000Y-13465000D02*
X10620000Y-13515000D01*
X10620000Y-13465000D02*
X10570000Y-13515000D01*
X10948571Y-13325714D02*
X10977143Y-13325714D01*
X11005714Y-13340000D01*
X11020000Y-13354286D01*
X11034286Y-13382857D01*
X11048571Y-13440000D01*
X11048571Y-13511429D01*
X11034286Y-13568571D01*
X11020000Y-13597143D01*
X11005714Y-13611429D01*
X10977143Y-13625714D01*
X10948571Y-13625714D01*
X10920000Y-13611429D01*
X10905714Y-13597143D01*
X10891429Y-13568571D01*
X10877143Y-13511429D01*
X10877143Y-13440000D01*
X10891429Y-13382857D01*
X10905714Y-13354286D01*
X10920000Y-13340000D01*
X10948571Y-13325714D01*
X11177143Y-13597143D02*
X11191428Y-13611429D01*
X11177143Y-13625714D01*
X11162857Y-13611429D01*
X11177143Y-13597143D01*
X11177143Y-13625714D01*
X11462857Y-13325714D02*
X11320000Y-13325714D01*
X11305714Y-13468571D01*
X11320000Y-13454286D01*
X11348571Y-13440000D01*
X11420000Y-13440000D01*
X11448571Y-13454286D01*
X11462857Y-13468571D01*
X11477143Y-13497143D01*
X11477143Y-13568571D01*
X11462857Y-13597143D01*
X11448571Y-13611429D01*
X11420000Y-13625714D01*
X11348571Y-13625714D01*
X11320000Y-13611429D01*
X11305714Y-13597143D01*
X11662857Y-13325714D02*
X11691428Y-13325714D01*
X11720000Y-13340000D01*
X11734286Y-13354286D01*
X11748571Y-13382857D01*
X11762857Y-13440000D01*
X11762857Y-13511429D01*
X11748571Y-13568571D01*
X11734286Y-13597143D01*
X11720000Y-13611429D01*
X11691428Y-13625714D01*
X11662857Y-13625714D01*
X11634286Y-13611429D01*
X11620000Y-13597143D01*
X11605714Y-13568571D01*
X11591428Y-13511429D01*
X11591428Y-13440000D01*
X11605714Y-13382857D01*
X11620000Y-13354286D01*
X11634286Y-13340000D01*
X11662857Y-13325714D01*
X11891428Y-13625714D02*
X11891428Y-13425714D01*
X11891428Y-13454286D02*
X11905714Y-13440000D01*
X11934286Y-13425714D01*
X11977143Y-13425714D01*
X12005714Y-13440000D01*
X12020000Y-13468571D01*
X12020000Y-13625714D01*
X12020000Y-13468571D02*
X12034286Y-13440000D01*
X12062857Y-13425714D01*
X12105714Y-13425714D01*
X12134286Y-13440000D01*
X12148571Y-13468571D01*
X12148571Y-13625714D01*
X12291428Y-13625714D02*
X12291428Y-13425714D01*
X12291428Y-13454286D02*
X12305714Y-13440000D01*
X12334286Y-13425714D01*
X12377143Y-13425714D01*
X12405714Y-13440000D01*
X12420000Y-13468571D01*
X12420000Y-13625714D01*
X12420000Y-13468571D02*
X12434286Y-13440000D01*
X12462857Y-13425714D01*
X12505714Y-13425714D01*
X12534286Y-13440000D01*
X12548571Y-13468571D01*
X12548571Y-13625714D01*
X13134286Y-13311429D02*
X12877143Y-13697143D01*
X13520000Y-13325714D02*
X13548571Y-13325714D01*
X13577143Y-13340000D01*
X13591428Y-13354286D01*
X13605714Y-13382857D01*
X13620000Y-13440000D01*
X13620000Y-13511429D01*
X13605714Y-13568571D01*
X13591428Y-13597143D01*
X13577143Y-13611429D01*
X13548571Y-13625714D01*
X13520000Y-13625714D01*
X13491428Y-13611429D01*
X13477143Y-13597143D01*
X13462857Y-13568571D01*
X13448571Y-13511429D01*
X13448571Y-13440000D01*
X13462857Y-13382857D01*
X13477143Y-13354286D01*
X13491428Y-13340000D01*
X13520000Y-13325714D01*
X13748571Y-13597143D02*
X13762857Y-13611429D01*
X13748571Y-13625714D01*
X13734286Y-13611429D01*
X13748571Y-13597143D01*
X13748571Y-13625714D01*
X13948571Y-13325714D02*
X13977143Y-13325714D01*
X14005714Y-13340000D01*
X14020000Y-13354286D01*
X14034285Y-13382857D01*
X14048571Y-13440000D01*
X14048571Y-13511429D01*
X14034285Y-13568571D01*
X14020000Y-13597143D01*
X14005714Y-13611429D01*
X13977143Y-13625714D01*
X13948571Y-13625714D01*
X13920000Y-13611429D01*
X13905714Y-13597143D01*
X13891428Y-13568571D01*
X13877143Y-13511429D01*
X13877143Y-13440000D01*
X13891428Y-13382857D01*
X13905714Y-13354286D01*
X13920000Y-13340000D01*
X13948571Y-13325714D01*
X14162857Y-13354286D02*
X14177143Y-13340000D01*
X14205714Y-13325714D01*
X14277143Y-13325714D01*
X14305714Y-13340000D01*
X14320000Y-13354286D01*
X14334285Y-13382857D01*
X14334285Y-13411429D01*
X14320000Y-13454286D01*
X14148571Y-13625714D01*
X14334285Y-13625714D01*
X14520000Y-13325714D02*
X14548571Y-13325714D01*
X14577143Y-13340000D01*
X14591428Y-13354286D01*
X14605714Y-13382857D01*
X14620000Y-13440000D01*
X14620000Y-13511429D01*
X14605714Y-13568571D01*
X14591428Y-13597143D01*
X14577143Y-13611429D01*
X14548571Y-13625714D01*
X14520000Y-13625714D01*
X14491428Y-13611429D01*
X14477143Y-13597143D01*
X14462857Y-13568571D01*
X14448571Y-13511429D01*
X14448571Y-13440000D01*
X14462857Y-13382857D01*
X14477143Y-13354286D01*
X14491428Y-13340000D01*
X14520000Y-13325714D01*
X14734286Y-13325714D02*
X14734286Y-13382857D01*
X14848571Y-13325714D02*
X14848571Y-13382857D01*
X15291428Y-13740000D02*
X15277143Y-13725714D01*
X15248571Y-13682857D01*
X15234285Y-13654286D01*
X15220000Y-13611429D01*
X15205714Y-13540000D01*
X15205714Y-13482857D01*
X15220000Y-13411429D01*
X15234285Y-13368571D01*
X15248571Y-13340000D01*
X15277143Y-13297143D01*
X15291428Y-13282857D01*
X15562857Y-13625714D02*
X15391428Y-13625714D01*
X15477143Y-13625714D02*
X15477143Y-13325714D01*
X15448571Y-13368571D01*
X15420000Y-13397143D01*
X15391428Y-13411429D01*
X15748571Y-13325714D02*
X15777143Y-13325714D01*
X15805714Y-13340000D01*
X15820000Y-13354286D01*
X15834285Y-13382857D01*
X15848571Y-13440000D01*
X15848571Y-13511429D01*
X15834285Y-13568571D01*
X15820000Y-13597143D01*
X15805714Y-13611429D01*
X15777143Y-13625714D01*
X15748571Y-13625714D01*
X15720000Y-13611429D01*
X15705714Y-13597143D01*
X15691428Y-13568571D01*
X15677143Y-13511429D01*
X15677143Y-13440000D01*
X15691428Y-13382857D01*
X15705714Y-13354286D01*
X15720000Y-13340000D01*
X15748571Y-13325714D01*
X16034285Y-13325714D02*
X16062857Y-13325714D01*
X16091428Y-13340000D01*
X16105714Y-13354286D01*
X16120000Y-13382857D01*
X16134285Y-13440000D01*
X16134285Y-13511429D01*
X16120000Y-13568571D01*
X16105714Y-13597143D01*
X16091428Y-13611429D01*
X16062857Y-13625714D01*
X16034285Y-13625714D01*
X16005714Y-13611429D01*
X15991428Y-13597143D01*
X15977143Y-13568571D01*
X15962857Y-13511429D01*
X15962857Y-13440000D01*
X15977143Y-13382857D01*
X15991428Y-13354286D01*
X16005714Y-13340000D01*
X16034285Y-13325714D01*
X16491428Y-13625714D02*
X16491428Y-13325714D01*
X16620000Y-13625714D02*
X16620000Y-13468571D01*
X16605714Y-13440000D01*
X16577143Y-13425714D01*
X16534285Y-13425714D01*
X16505714Y-13440000D01*
X16491428Y-13454286D01*
X16805714Y-13625714D02*
X16777143Y-13611429D01*
X16762857Y-13597143D01*
X16748571Y-13568571D01*
X16748571Y-13482857D01*
X16762857Y-13454286D01*
X16777143Y-13440000D01*
X16805714Y-13425714D01*
X16848571Y-13425714D01*
X16877143Y-13440000D01*
X16891428Y-13454286D01*
X16905714Y-13482857D01*
X16905714Y-13568571D01*
X16891428Y-13597143D01*
X16877143Y-13611429D01*
X16848571Y-13625714D01*
X16805714Y-13625714D01*
X17077143Y-13625714D02*
X17048571Y-13611429D01*
X17034286Y-13582857D01*
X17034286Y-13325714D01*
X17305714Y-13611429D02*
X17277143Y-13625714D01*
X17220000Y-13625714D01*
X17191429Y-13611429D01*
X17177143Y-13582857D01*
X17177143Y-13468571D01*
X17191429Y-13440000D01*
X17220000Y-13425714D01*
X17277143Y-13425714D01*
X17305714Y-13440000D01*
X17320000Y-13468571D01*
X17320000Y-13497143D01*
X17177143Y-13525714D01*
X17434286Y-13611429D02*
X17462857Y-13625714D01*
X17520000Y-13625714D01*
X17548571Y-13611429D01*
X17562857Y-13582857D01*
X17562857Y-13568571D01*
X17548571Y-13540000D01*
X17520000Y-13525714D01*
X17477143Y-13525714D01*
X17448571Y-13511429D01*
X17434286Y-13482857D01*
X17434286Y-13468571D01*
X17448571Y-13440000D01*
X17477143Y-13425714D01*
X17520000Y-13425714D01*
X17548571Y-13440000D01*
X17662857Y-13740000D02*
X17677143Y-13725714D01*
X17705714Y-13682857D01*
X17720000Y-13654286D01*
X17734286Y-13611429D01*
X17748571Y-13540000D01*
X17748571Y-13482857D01*
X17734286Y-13411429D01*
X17720000Y-13368571D01*
X17705714Y-13340000D01*
X17677143Y-13297143D01*
X17662857Y-13282857D01*
X10620000Y-13886000D02*
G75*
G03X10620000Y-13886000I-35052J0D01*
G01*
X10948571Y-13721714D02*
X10977143Y-13721714D01*
X11005714Y-13736000D01*
X11020000Y-13750286D01*
X11034286Y-13778857D01*
X11048571Y-13836000D01*
X11048571Y-13907429D01*
X11034286Y-13964571D01*
X11020000Y-13993143D01*
X11005714Y-14007429D01*
X10977143Y-14021714D01*
X10948571Y-14021714D01*
X10920000Y-14007429D01*
X10905714Y-13993143D01*
X10891429Y-13964571D01*
X10877143Y-13907429D01*
X10877143Y-13836000D01*
X10891429Y-13778857D01*
X10905714Y-13750286D01*
X10920000Y-13736000D01*
X10948571Y-13721714D01*
X11177143Y-13993143D02*
X11191428Y-14007429D01*
X11177143Y-14021714D01*
X11162857Y-14007429D01*
X11177143Y-13993143D01*
X11177143Y-14021714D01*
X11291428Y-13721714D02*
X11491428Y-13721714D01*
X11362857Y-14021714D01*
X11662857Y-13721714D02*
X11691428Y-13721714D01*
X11720000Y-13736000D01*
X11734286Y-13750286D01*
X11748571Y-13778857D01*
X11762857Y-13836000D01*
X11762857Y-13907429D01*
X11748571Y-13964571D01*
X11734286Y-13993143D01*
X11720000Y-14007429D01*
X11691428Y-14021714D01*
X11662857Y-14021714D01*
X11634286Y-14007429D01*
X11620000Y-13993143D01*
X11605714Y-13964571D01*
X11591428Y-13907429D01*
X11591428Y-13836000D01*
X11605714Y-13778857D01*
X11620000Y-13750286D01*
X11634286Y-13736000D01*
X11662857Y-13721714D01*
X11891428Y-14021714D02*
X11891428Y-13821714D01*
X11891428Y-13850286D02*
X11905714Y-13836000D01*
X11934286Y-13821714D01*
X11977143Y-13821714D01*
X12005714Y-13836000D01*
X12020000Y-13864571D01*
X12020000Y-14021714D01*
X12020000Y-13864571D02*
X12034286Y-13836000D01*
X12062857Y-13821714D01*
X12105714Y-13821714D01*
X12134286Y-13836000D01*
X12148571Y-13864571D01*
X12148571Y-14021714D01*
X12291428Y-14021714D02*
X12291428Y-13821714D01*
X12291428Y-13850286D02*
X12305714Y-13836000D01*
X12334286Y-13821714D01*
X12377143Y-13821714D01*
X12405714Y-13836000D01*
X12420000Y-13864571D01*
X12420000Y-14021714D01*
X12420000Y-13864571D02*
X12434286Y-13836000D01*
X12462857Y-13821714D01*
X12505714Y-13821714D01*
X12534286Y-13836000D01*
X12548571Y-13864571D01*
X12548571Y-14021714D01*
X13134286Y-13707429D02*
X12877143Y-14093143D01*
X13520000Y-13721714D02*
X13548571Y-13721714D01*
X13577143Y-13736000D01*
X13591428Y-13750286D01*
X13605714Y-13778857D01*
X13620000Y-13836000D01*
X13620000Y-13907429D01*
X13605714Y-13964571D01*
X13591428Y-13993143D01*
X13577143Y-14007429D01*
X13548571Y-14021714D01*
X13520000Y-14021714D01*
X13491428Y-14007429D01*
X13477143Y-13993143D01*
X13462857Y-13964571D01*
X13448571Y-13907429D01*
X13448571Y-13836000D01*
X13462857Y-13778857D01*
X13477143Y-13750286D01*
X13491428Y-13736000D01*
X13520000Y-13721714D01*
X13748571Y-13993143D02*
X13762857Y-14007429D01*
X13748571Y-14021714D01*
X13734286Y-14007429D01*
X13748571Y-13993143D01*
X13748571Y-14021714D01*
X13948571Y-13721714D02*
X13977143Y-13721714D01*
X14005714Y-13736000D01*
X14020000Y-13750286D01*
X14034285Y-13778857D01*
X14048571Y-13836000D01*
X14048571Y-13907429D01*
X14034285Y-13964571D01*
X14020000Y-13993143D01*
X14005714Y-14007429D01*
X13977143Y-14021714D01*
X13948571Y-14021714D01*
X13920000Y-14007429D01*
X13905714Y-13993143D01*
X13891428Y-13964571D01*
X13877143Y-13907429D01*
X13877143Y-13836000D01*
X13891428Y-13778857D01*
X13905714Y-13750286D01*
X13920000Y-13736000D01*
X13948571Y-13721714D01*
X14162857Y-13750286D02*
X14177143Y-13736000D01*
X14205714Y-13721714D01*
X14277143Y-13721714D01*
X14305714Y-13736000D01*
X14320000Y-13750286D01*
X14334285Y-13778857D01*
X14334285Y-13807429D01*
X14320000Y-13850286D01*
X14148571Y-14021714D01*
X14334285Y-14021714D01*
X14505714Y-13850286D02*
X14477143Y-13836000D01*
X14462857Y-13821714D01*
X14448571Y-13793143D01*
X14448571Y-13778857D01*
X14462857Y-13750286D01*
X14477143Y-13736000D01*
X14505714Y-13721714D01*
X14562857Y-13721714D01*
X14591428Y-13736000D01*
X14605714Y-13750286D01*
X14620000Y-13778857D01*
X14620000Y-13793143D01*
X14605714Y-13821714D01*
X14591428Y-13836000D01*
X14562857Y-13850286D01*
X14505714Y-13850286D01*
X14477143Y-13864571D01*
X14462857Y-13878857D01*
X14448571Y-13907429D01*
X14448571Y-13964571D01*
X14462857Y-13993143D01*
X14477143Y-14007429D01*
X14505714Y-14021714D01*
X14562857Y-14021714D01*
X14591428Y-14007429D01*
X14605714Y-13993143D01*
X14620000Y-13964571D01*
X14620000Y-13907429D01*
X14605714Y-13878857D01*
X14591428Y-13864571D01*
X14562857Y-13850286D01*
X14734286Y-13721714D02*
X14734286Y-13778857D01*
X14848571Y-13721714D02*
X14848571Y-13778857D01*
X15291428Y-14136000D02*
X15277143Y-14121714D01*
X15248571Y-14078857D01*
X15234285Y-14050286D01*
X15220000Y-14007429D01*
X15205714Y-13936000D01*
X15205714Y-13878857D01*
X15220000Y-13807429D01*
X15234285Y-13764571D01*
X15248571Y-13736000D01*
X15277143Y-13693143D01*
X15291428Y-13678857D01*
X15391428Y-13750286D02*
X15405714Y-13736000D01*
X15434285Y-13721714D01*
X15505714Y-13721714D01*
X15534285Y-13736000D01*
X15548571Y-13750286D01*
X15562857Y-13778857D01*
X15562857Y-13807429D01*
X15548571Y-13850286D01*
X15377143Y-14021714D01*
X15562857Y-14021714D01*
X15920000Y-14021714D02*
X15920000Y-13721714D01*
X16048571Y-14021714D02*
X16048571Y-13864571D01*
X16034285Y-13836000D01*
X16005714Y-13821714D01*
X15962857Y-13821714D01*
X15934285Y-13836000D01*
X15920000Y-13850286D01*
X16234285Y-14021714D02*
X16205714Y-14007429D01*
X16191428Y-13993143D01*
X16177143Y-13964571D01*
X16177143Y-13878857D01*
X16191428Y-13850286D01*
X16205714Y-13836000D01*
X16234285Y-13821714D01*
X16277143Y-13821714D01*
X16305714Y-13836000D01*
X16320000Y-13850286D01*
X16334285Y-13878857D01*
X16334285Y-13964571D01*
X16320000Y-13993143D01*
X16305714Y-14007429D01*
X16277143Y-14021714D01*
X16234285Y-14021714D01*
X16505714Y-14021714D02*
X16477143Y-14007429D01*
X16462857Y-13978857D01*
X16462857Y-13721714D01*
X16734286Y-14007429D02*
X16705714Y-14021714D01*
X16648571Y-14021714D01*
X16620000Y-14007429D01*
X16605714Y-13978857D01*
X16605714Y-13864571D01*
X16620000Y-13836000D01*
X16648571Y-13821714D01*
X16705714Y-13821714D01*
X16734286Y-13836000D01*
X16748571Y-13864571D01*
X16748571Y-13893143D01*
X16605714Y-13921714D01*
X16862857Y-14007429D02*
X16891429Y-14021714D01*
X16948571Y-14021714D01*
X16977143Y-14007429D01*
X16991429Y-13978857D01*
X16991429Y-13964571D01*
X16977143Y-13936000D01*
X16948571Y-13921714D01*
X16905714Y-13921714D01*
X16877143Y-13907429D01*
X16862857Y-13878857D01*
X16862857Y-13864571D01*
X16877143Y-13836000D01*
X16905714Y-13821714D01*
X16948571Y-13821714D01*
X16977143Y-13836000D01*
X17091428Y-14136000D02*
X17105714Y-14121714D01*
X17134286Y-14078857D01*
X17148571Y-14050286D01*
X17162857Y-14007429D01*
X17177143Y-13936000D01*
X17177143Y-13878857D01*
X17162857Y-13807429D01*
X17148571Y-13764571D01*
X17134286Y-13736000D01*
X17105714Y-13693143D01*
X17091428Y-13678857D01*
X10581900Y-14243900D02*
X10581900Y-14320100D01*
X10543800Y-14282000D02*
X10620000Y-14282000D01*
X10948571Y-14117714D02*
X10977143Y-14117714D01*
X11005714Y-14132000D01*
X11020000Y-14146286D01*
X11034286Y-14174857D01*
X11048571Y-14232000D01*
X11048571Y-14303429D01*
X11034286Y-14360571D01*
X11020000Y-14389143D01*
X11005714Y-14403429D01*
X10977143Y-14417714D01*
X10948571Y-14417714D01*
X10920000Y-14403429D01*
X10905714Y-14389143D01*
X10891429Y-14360571D01*
X10877143Y-14303429D01*
X10877143Y-14232000D01*
X10891429Y-14174857D01*
X10905714Y-14146286D01*
X10920000Y-14132000D01*
X10948571Y-14117714D01*
X11177143Y-14389143D02*
X11191428Y-14403429D01*
X11177143Y-14417714D01*
X11162857Y-14403429D01*
X11177143Y-14389143D01*
X11177143Y-14417714D01*
X11291428Y-14117714D02*
X11491428Y-14117714D01*
X11362857Y-14417714D01*
X11734286Y-14117714D02*
X11677143Y-14117714D01*
X11648571Y-14132000D01*
X11634286Y-14146286D01*
X11605714Y-14189143D01*
X11591428Y-14246286D01*
X11591428Y-14360571D01*
X11605714Y-14389143D01*
X11620000Y-14403429D01*
X11648571Y-14417714D01*
X11705714Y-14417714D01*
X11734286Y-14403429D01*
X11748571Y-14389143D01*
X11762857Y-14360571D01*
X11762857Y-14289143D01*
X11748571Y-14260571D01*
X11734286Y-14246286D01*
X11705714Y-14232000D01*
X11648571Y-14232000D01*
X11620000Y-14246286D01*
X11605714Y-14260571D01*
X11591428Y-14289143D01*
X11891428Y-14417714D02*
X11891428Y-14217714D01*
X11891428Y-14246286D02*
X11905714Y-14232000D01*
X11934286Y-14217714D01*
X11977143Y-14217714D01*
X12005714Y-14232000D01*
X12020000Y-14260571D01*
X12020000Y-14417714D01*
X12020000Y-14260571D02*
X12034286Y-14232000D01*
X12062857Y-14217714D01*
X12105714Y-14217714D01*
X12134286Y-14232000D01*
X12148571Y-14260571D01*
X12148571Y-14417714D01*
X12291428Y-14417714D02*
X12291428Y-14217714D01*
X12291428Y-14246286D02*
X12305714Y-14232000D01*
X12334286Y-14217714D01*
X12377143Y-14217714D01*
X12405714Y-14232000D01*
X12420000Y-14260571D01*
X12420000Y-14417714D01*
X12420000Y-14260571D02*
X12434286Y-14232000D01*
X12462857Y-14217714D01*
X12505714Y-14217714D01*
X12534286Y-14232000D01*
X12548571Y-14260571D01*
X12548571Y-14417714D01*
X13134286Y-14103429D02*
X12877143Y-14489143D01*
X13520000Y-14117714D02*
X13548571Y-14117714D01*
X13577143Y-14132000D01*
X13591428Y-14146286D01*
X13605714Y-14174857D01*
X13620000Y-14232000D01*
X13620000Y-14303429D01*
X13605714Y-14360571D01*
X13591428Y-14389143D01*
X13577143Y-14403429D01*
X13548571Y-14417714D01*
X13520000Y-14417714D01*
X13491428Y-14403429D01*
X13477143Y-14389143D01*
X13462857Y-14360571D01*
X13448571Y-14303429D01*
X13448571Y-14232000D01*
X13462857Y-14174857D01*
X13477143Y-14146286D01*
X13491428Y-14132000D01*
X13520000Y-14117714D01*
X13748571Y-14389143D02*
X13762857Y-14403429D01*
X13748571Y-14417714D01*
X13734286Y-14403429D01*
X13748571Y-14389143D01*
X13748571Y-14417714D01*
X13948571Y-14117714D02*
X13977143Y-14117714D01*
X14005714Y-14132000D01*
X14020000Y-14146286D01*
X14034285Y-14174857D01*
X14048571Y-14232000D01*
X14048571Y-14303429D01*
X14034285Y-14360571D01*
X14020000Y-14389143D01*
X14005714Y-14403429D01*
X13977143Y-14417714D01*
X13948571Y-14417714D01*
X13920000Y-14403429D01*
X13905714Y-14389143D01*
X13891428Y-14360571D01*
X13877143Y-14303429D01*
X13877143Y-14232000D01*
X13891428Y-14174857D01*
X13905714Y-14146286D01*
X13920000Y-14132000D01*
X13948571Y-14117714D01*
X14148571Y-14117714D02*
X14334285Y-14117714D01*
X14234285Y-14232000D01*
X14277143Y-14232000D01*
X14305714Y-14246286D01*
X14320000Y-14260571D01*
X14334285Y-14289143D01*
X14334285Y-14360571D01*
X14320000Y-14389143D01*
X14305714Y-14403429D01*
X14277143Y-14417714D01*
X14191428Y-14417714D01*
X14162857Y-14403429D01*
X14148571Y-14389143D01*
X14520000Y-14117714D02*
X14548571Y-14117714D01*
X14577143Y-14132000D01*
X14591428Y-14146286D01*
X14605714Y-14174857D01*
X14620000Y-14232000D01*
X14620000Y-14303429D01*
X14605714Y-14360571D01*
X14591428Y-14389143D01*
X14577143Y-14403429D01*
X14548571Y-14417714D01*
X14520000Y-14417714D01*
X14491428Y-14403429D01*
X14477143Y-14389143D01*
X14462857Y-14360571D01*
X14448571Y-14303429D01*
X14448571Y-14232000D01*
X14462857Y-14174857D01*
X14477143Y-14146286D01*
X14491428Y-14132000D01*
X14520000Y-14117714D01*
X14734286Y-14117714D02*
X14734286Y-14174857D01*
X14848571Y-14117714D02*
X14848571Y-14174857D01*
X15291428Y-14532000D02*
X15277143Y-14517714D01*
X15248571Y-14474857D01*
X15234285Y-14446286D01*
X15220000Y-14403429D01*
X15205714Y-14332000D01*
X15205714Y-14274857D01*
X15220000Y-14203429D01*
X15234285Y-14160571D01*
X15248571Y-14132000D01*
X15277143Y-14089143D01*
X15291428Y-14074857D01*
X15377143Y-14117714D02*
X15562857Y-14117714D01*
X15462857Y-14232000D01*
X15505714Y-14232000D01*
X15534285Y-14246286D01*
X15548571Y-14260571D01*
X15562857Y-14289143D01*
X15562857Y-14360571D01*
X15548571Y-14389143D01*
X15534285Y-14403429D01*
X15505714Y-14417714D01*
X15420000Y-14417714D01*
X15391428Y-14403429D01*
X15377143Y-14389143D01*
X15920000Y-14417714D02*
X15920000Y-14117714D01*
X16048571Y-14417714D02*
X16048571Y-14260571D01*
X16034285Y-14232000D01*
X16005714Y-14217714D01*
X15962857Y-14217714D01*
X15934285Y-14232000D01*
X15920000Y-14246286D01*
X16234285Y-14417714D02*
X16205714Y-14403429D01*
X16191428Y-14389143D01*
X16177143Y-14360571D01*
X16177143Y-14274857D01*
X16191428Y-14246286D01*
X16205714Y-14232000D01*
X16234285Y-14217714D01*
X16277143Y-14217714D01*
X16305714Y-14232000D01*
X16320000Y-14246286D01*
X16334285Y-14274857D01*
X16334285Y-14360571D01*
X16320000Y-14389143D01*
X16305714Y-14403429D01*
X16277143Y-14417714D01*
X16234285Y-14417714D01*
X16505714Y-14417714D02*
X16477143Y-14403429D01*
X16462857Y-14374857D01*
X16462857Y-14117714D01*
X16734286Y-14403429D02*
X16705714Y-14417714D01*
X16648571Y-14417714D01*
X16620000Y-14403429D01*
X16605714Y-14374857D01*
X16605714Y-14260571D01*
X16620000Y-14232000D01*
X16648571Y-14217714D01*
X16705714Y-14217714D01*
X16734286Y-14232000D01*
X16748571Y-14260571D01*
X16748571Y-14289143D01*
X16605714Y-14317714D01*
X16862857Y-14403429D02*
X16891429Y-14417714D01*
X16948571Y-14417714D01*
X16977143Y-14403429D01*
X16991429Y-14374857D01*
X16991429Y-14360571D01*
X16977143Y-14332000D01*
X16948571Y-14317714D01*
X16905714Y-14317714D01*
X16877143Y-14303429D01*
X16862857Y-14274857D01*
X16862857Y-14260571D01*
X16877143Y-14232000D01*
X16905714Y-14217714D01*
X16948571Y-14217714D01*
X16977143Y-14232000D01*
X17091428Y-14532000D02*
X17105714Y-14517714D01*
X17134286Y-14474857D01*
X17148571Y-14446286D01*
X17162857Y-14403429D01*
X17177143Y-14332000D01*
X17177143Y-14274857D01*
X17162857Y-14203429D01*
X17148571Y-14160571D01*
X17134286Y-14132000D01*
X17105714Y-14089143D01*
X17091428Y-14074857D01*
X10608284Y-14706285D02*
X10608284Y-14649716D01*
X10551715Y-14649716D01*
X10551715Y-14706285D01*
X10608284Y-14706285D01*
X10948571Y-14513714D02*
X10977143Y-14513714D01*
X11005714Y-14528000D01*
X11020000Y-14542286D01*
X11034286Y-14570857D01*
X11048571Y-14628000D01*
X11048571Y-14699429D01*
X11034286Y-14756571D01*
X11020000Y-14785143D01*
X11005714Y-14799429D01*
X10977143Y-14813714D01*
X10948571Y-14813714D01*
X10920000Y-14799429D01*
X10905714Y-14785143D01*
X10891429Y-14756571D01*
X10877143Y-14699429D01*
X10877143Y-14628000D01*
X10891429Y-14570857D01*
X10905714Y-14542286D01*
X10920000Y-14528000D01*
X10948571Y-14513714D01*
X11177143Y-14785143D02*
X11191428Y-14799429D01*
X11177143Y-14813714D01*
X11162857Y-14799429D01*
X11177143Y-14785143D01*
X11177143Y-14813714D01*
X11362857Y-14642286D02*
X11334286Y-14628000D01*
X11320000Y-14613714D01*
X11305714Y-14585143D01*
X11305714Y-14570857D01*
X11320000Y-14542286D01*
X11334286Y-14528000D01*
X11362857Y-14513714D01*
X11420000Y-14513714D01*
X11448571Y-14528000D01*
X11462857Y-14542286D01*
X11477143Y-14570857D01*
X11477143Y-14585143D01*
X11462857Y-14613714D01*
X11448571Y-14628000D01*
X11420000Y-14642286D01*
X11362857Y-14642286D01*
X11334286Y-14656571D01*
X11320000Y-14670857D01*
X11305714Y-14699429D01*
X11305714Y-14756571D01*
X11320000Y-14785143D01*
X11334286Y-14799429D01*
X11362857Y-14813714D01*
X11420000Y-14813714D01*
X11448571Y-14799429D01*
X11462857Y-14785143D01*
X11477143Y-14756571D01*
X11477143Y-14699429D01*
X11462857Y-14670857D01*
X11448571Y-14656571D01*
X11420000Y-14642286D01*
X11662857Y-14513714D02*
X11691428Y-14513714D01*
X11720000Y-14528000D01*
X11734286Y-14542286D01*
X11748571Y-14570857D01*
X11762857Y-14628000D01*
X11762857Y-14699429D01*
X11748571Y-14756571D01*
X11734286Y-14785143D01*
X11720000Y-14799429D01*
X11691428Y-14813714D01*
X11662857Y-14813714D01*
X11634286Y-14799429D01*
X11620000Y-14785143D01*
X11605714Y-14756571D01*
X11591428Y-14699429D01*
X11591428Y-14628000D01*
X11605714Y-14570857D01*
X11620000Y-14542286D01*
X11634286Y-14528000D01*
X11662857Y-14513714D01*
X11891428Y-14813714D02*
X11891428Y-14613714D01*
X11891428Y-14642286D02*
X11905714Y-14628000D01*
X11934286Y-14613714D01*
X11977143Y-14613714D01*
X12005714Y-14628000D01*
X12020000Y-14656571D01*
X12020000Y-14813714D01*
X12020000Y-14656571D02*
X12034286Y-14628000D01*
X12062857Y-14613714D01*
X12105714Y-14613714D01*
X12134286Y-14628000D01*
X12148571Y-14656571D01*
X12148571Y-14813714D01*
X12291428Y-14813714D02*
X12291428Y-14613714D01*
X12291428Y-14642286D02*
X12305714Y-14628000D01*
X12334286Y-14613714D01*
X12377143Y-14613714D01*
X12405714Y-14628000D01*
X12420000Y-14656571D01*
X12420000Y-14813714D01*
X12420000Y-14656571D02*
X12434286Y-14628000D01*
X12462857Y-14613714D01*
X12505714Y-14613714D01*
X12534286Y-14628000D01*
X12548571Y-14656571D01*
X12548571Y-14813714D01*
X13134286Y-14499429D02*
X12877143Y-14885143D01*
X13520000Y-14513714D02*
X13548571Y-14513714D01*
X13577143Y-14528000D01*
X13591428Y-14542286D01*
X13605714Y-14570857D01*
X13620000Y-14628000D01*
X13620000Y-14699429D01*
X13605714Y-14756571D01*
X13591428Y-14785143D01*
X13577143Y-14799429D01*
X13548571Y-14813714D01*
X13520000Y-14813714D01*
X13491428Y-14799429D01*
X13477143Y-14785143D01*
X13462857Y-14756571D01*
X13448571Y-14699429D01*
X13448571Y-14628000D01*
X13462857Y-14570857D01*
X13477143Y-14542286D01*
X13491428Y-14528000D01*
X13520000Y-14513714D01*
X13748571Y-14785143D02*
X13762857Y-14799429D01*
X13748571Y-14813714D01*
X13734286Y-14799429D01*
X13748571Y-14785143D01*
X13748571Y-14813714D01*
X13948571Y-14513714D02*
X13977143Y-14513714D01*
X14005714Y-14528000D01*
X14020000Y-14542286D01*
X14034285Y-14570857D01*
X14048571Y-14628000D01*
X14048571Y-14699429D01*
X14034285Y-14756571D01*
X14020000Y-14785143D01*
X14005714Y-14799429D01*
X13977143Y-14813714D01*
X13948571Y-14813714D01*
X13920000Y-14799429D01*
X13905714Y-14785143D01*
X13891428Y-14756571D01*
X13877143Y-14699429D01*
X13877143Y-14628000D01*
X13891428Y-14570857D01*
X13905714Y-14542286D01*
X13920000Y-14528000D01*
X13948571Y-14513714D01*
X14148571Y-14513714D02*
X14334285Y-14513714D01*
X14234285Y-14628000D01*
X14277143Y-14628000D01*
X14305714Y-14642286D01*
X14320000Y-14656571D01*
X14334285Y-14685143D01*
X14334285Y-14756571D01*
X14320000Y-14785143D01*
X14305714Y-14799429D01*
X14277143Y-14813714D01*
X14191428Y-14813714D01*
X14162857Y-14799429D01*
X14148571Y-14785143D01*
X14620000Y-14813714D02*
X14448571Y-14813714D01*
X14534285Y-14813714D02*
X14534285Y-14513714D01*
X14505714Y-14556571D01*
X14477143Y-14585143D01*
X14448571Y-14599429D01*
X14734286Y-14513714D02*
X14734286Y-14570857D01*
X14848571Y-14513714D02*
X14848571Y-14570857D01*
X15291428Y-14928000D02*
X15277143Y-14913714D01*
X15248571Y-14870857D01*
X15234285Y-14842286D01*
X15220000Y-14799429D01*
X15205714Y-14728000D01*
X15205714Y-14670857D01*
X15220000Y-14599429D01*
X15234285Y-14556571D01*
X15248571Y-14528000D01*
X15277143Y-14485143D01*
X15291428Y-14470857D01*
X15534285Y-14613714D02*
X15534285Y-14813714D01*
X15462857Y-14499429D02*
X15391428Y-14713714D01*
X15577143Y-14713714D01*
X15920000Y-14813714D02*
X15920000Y-14513714D01*
X16048571Y-14813714D02*
X16048571Y-14656571D01*
X16034285Y-14628000D01*
X16005714Y-14613714D01*
X15962857Y-14613714D01*
X15934285Y-14628000D01*
X15920000Y-14642286D01*
X16234285Y-14813714D02*
X16205714Y-14799429D01*
X16191428Y-14785143D01*
X16177143Y-14756571D01*
X16177143Y-14670857D01*
X16191428Y-14642286D01*
X16205714Y-14628000D01*
X16234285Y-14613714D01*
X16277143Y-14613714D01*
X16305714Y-14628000D01*
X16320000Y-14642286D01*
X16334285Y-14670857D01*
X16334285Y-14756571D01*
X16320000Y-14785143D01*
X16305714Y-14799429D01*
X16277143Y-14813714D01*
X16234285Y-14813714D01*
X16505714Y-14813714D02*
X16477143Y-14799429D01*
X16462857Y-14770857D01*
X16462857Y-14513714D01*
X16734286Y-14799429D02*
X16705714Y-14813714D01*
X16648571Y-14813714D01*
X16620000Y-14799429D01*
X16605714Y-14770857D01*
X16605714Y-14656571D01*
X16620000Y-14628000D01*
X16648571Y-14613714D01*
X16705714Y-14613714D01*
X16734286Y-14628000D01*
X16748571Y-14656571D01*
X16748571Y-14685143D01*
X16605714Y-14713714D01*
X16862857Y-14799429D02*
X16891429Y-14813714D01*
X16948571Y-14813714D01*
X16977143Y-14799429D01*
X16991429Y-14770857D01*
X16991429Y-14756571D01*
X16977143Y-14728000D01*
X16948571Y-14713714D01*
X16905714Y-14713714D01*
X16877143Y-14699429D01*
X16862857Y-14670857D01*
X16862857Y-14656571D01*
X16877143Y-14628000D01*
X16905714Y-14613714D01*
X16948571Y-14613714D01*
X16977143Y-14628000D01*
X17091428Y-14928000D02*
X17105714Y-14913714D01*
X17134286Y-14870857D01*
X17148571Y-14842286D01*
X17162857Y-14799429D01*
X17177143Y-14728000D01*
X17177143Y-14670857D01*
X17162857Y-14599429D01*
X17148571Y-14556571D01*
X17134286Y-14528000D01*
X17105714Y-14485143D01*
X17091428Y-14470857D01*
X10579995Y-15114005D02*
X10620000Y-15074000D01*
X10579995Y-15033995D01*
X10539990Y-15074000D01*
X10579995Y-15114005D01*
X10948571Y-14909714D02*
X10977143Y-14909714D01*
X11005714Y-14924000D01*
X11020000Y-14938286D01*
X11034286Y-14966857D01*
X11048571Y-15024000D01*
X11048571Y-15095429D01*
X11034286Y-15152571D01*
X11020000Y-15181143D01*
X11005714Y-15195429D01*
X10977143Y-15209714D01*
X10948571Y-15209714D01*
X10920000Y-15195429D01*
X10905714Y-15181143D01*
X10891429Y-15152571D01*
X10877143Y-15095429D01*
X10877143Y-15024000D01*
X10891429Y-14966857D01*
X10905714Y-14938286D01*
X10920000Y-14924000D01*
X10948571Y-14909714D01*
X11177143Y-15181143D02*
X11191428Y-15195429D01*
X11177143Y-15209714D01*
X11162857Y-15195429D01*
X11177143Y-15181143D01*
X11177143Y-15209714D01*
X11362857Y-15038286D02*
X11334286Y-15024000D01*
X11320000Y-15009714D01*
X11305714Y-14981143D01*
X11305714Y-14966857D01*
X11320000Y-14938286D01*
X11334286Y-14924000D01*
X11362857Y-14909714D01*
X11420000Y-14909714D01*
X11448571Y-14924000D01*
X11462857Y-14938286D01*
X11477143Y-14966857D01*
X11477143Y-14981143D01*
X11462857Y-15009714D01*
X11448571Y-15024000D01*
X11420000Y-15038286D01*
X11362857Y-15038286D01*
X11334286Y-15052571D01*
X11320000Y-15066857D01*
X11305714Y-15095429D01*
X11305714Y-15152571D01*
X11320000Y-15181143D01*
X11334286Y-15195429D01*
X11362857Y-15209714D01*
X11420000Y-15209714D01*
X11448571Y-15195429D01*
X11462857Y-15181143D01*
X11477143Y-15152571D01*
X11477143Y-15095429D01*
X11462857Y-15066857D01*
X11448571Y-15052571D01*
X11420000Y-15038286D01*
X11662857Y-14909714D02*
X11691428Y-14909714D01*
X11720000Y-14924000D01*
X11734286Y-14938286D01*
X11748571Y-14966857D01*
X11762857Y-15024000D01*
X11762857Y-15095429D01*
X11748571Y-15152571D01*
X11734286Y-15181143D01*
X11720000Y-15195429D01*
X11691428Y-15209714D01*
X11662857Y-15209714D01*
X11634286Y-15195429D01*
X11620000Y-15181143D01*
X11605714Y-15152571D01*
X11591428Y-15095429D01*
X11591428Y-15024000D01*
X11605714Y-14966857D01*
X11620000Y-14938286D01*
X11634286Y-14924000D01*
X11662857Y-14909714D01*
X11891428Y-15209714D02*
X11891428Y-15009714D01*
X11891428Y-15038286D02*
X11905714Y-15024000D01*
X11934286Y-15009714D01*
X11977143Y-15009714D01*
X12005714Y-15024000D01*
X12020000Y-15052571D01*
X12020000Y-15209714D01*
X12020000Y-15052571D02*
X12034286Y-15024000D01*
X12062857Y-15009714D01*
X12105714Y-15009714D01*
X12134286Y-15024000D01*
X12148571Y-15052571D01*
X12148571Y-15209714D01*
X12291428Y-15209714D02*
X12291428Y-15009714D01*
X12291428Y-15038286D02*
X12305714Y-15024000D01*
X12334286Y-15009714D01*
X12377143Y-15009714D01*
X12405714Y-15024000D01*
X12420000Y-15052571D01*
X12420000Y-15209714D01*
X12420000Y-15052571D02*
X12434286Y-15024000D01*
X12462857Y-15009714D01*
X12505714Y-15009714D01*
X12534286Y-15024000D01*
X12548571Y-15052571D01*
X12548571Y-15209714D01*
X13134286Y-14895429D02*
X12877143Y-15281143D01*
X13520000Y-14909714D02*
X13548571Y-14909714D01*
X13577143Y-14924000D01*
X13591428Y-14938286D01*
X13605714Y-14966857D01*
X13620000Y-15024000D01*
X13620000Y-15095429D01*
X13605714Y-15152571D01*
X13591428Y-15181143D01*
X13577143Y-15195429D01*
X13548571Y-15209714D01*
X13520000Y-15209714D01*
X13491428Y-15195429D01*
X13477143Y-15181143D01*
X13462857Y-15152571D01*
X13448571Y-15095429D01*
X13448571Y-15024000D01*
X13462857Y-14966857D01*
X13477143Y-14938286D01*
X13491428Y-14924000D01*
X13520000Y-14909714D01*
X13748571Y-15181143D02*
X13762857Y-15195429D01*
X13748571Y-15209714D01*
X13734286Y-15195429D01*
X13748571Y-15181143D01*
X13748571Y-15209714D01*
X13948571Y-14909714D02*
X13977143Y-14909714D01*
X14005714Y-14924000D01*
X14020000Y-14938286D01*
X14034285Y-14966857D01*
X14048571Y-15024000D01*
X14048571Y-15095429D01*
X14034285Y-15152571D01*
X14020000Y-15181143D01*
X14005714Y-15195429D01*
X13977143Y-15209714D01*
X13948571Y-15209714D01*
X13920000Y-15195429D01*
X13905714Y-15181143D01*
X13891428Y-15152571D01*
X13877143Y-15095429D01*
X13877143Y-15024000D01*
X13891428Y-14966857D01*
X13905714Y-14938286D01*
X13920000Y-14924000D01*
X13948571Y-14909714D01*
X14148571Y-14909714D02*
X14334285Y-14909714D01*
X14234285Y-15024000D01*
X14277143Y-15024000D01*
X14305714Y-15038286D01*
X14320000Y-15052571D01*
X14334285Y-15081143D01*
X14334285Y-15152571D01*
X14320000Y-15181143D01*
X14305714Y-15195429D01*
X14277143Y-15209714D01*
X14191428Y-15209714D01*
X14162857Y-15195429D01*
X14148571Y-15181143D01*
X14448571Y-14938286D02*
X14462857Y-14924000D01*
X14491428Y-14909714D01*
X14562857Y-14909714D01*
X14591428Y-14924000D01*
X14605714Y-14938286D01*
X14620000Y-14966857D01*
X14620000Y-14995429D01*
X14605714Y-15038286D01*
X14434285Y-15209714D01*
X14620000Y-15209714D01*
X14734286Y-14909714D02*
X14734286Y-14966857D01*
X14848571Y-14909714D02*
X14848571Y-14966857D01*
X15291428Y-15324000D02*
X15277143Y-15309714D01*
X15248571Y-15266857D01*
X15234285Y-15238286D01*
X15220000Y-15195429D01*
X15205714Y-15124000D01*
X15205714Y-15066857D01*
X15220000Y-14995429D01*
X15234285Y-14952571D01*
X15248571Y-14924000D01*
X15277143Y-14881143D01*
X15291428Y-14866857D01*
X15548571Y-14909714D02*
X15405714Y-14909714D01*
X15391428Y-15052571D01*
X15405714Y-15038286D01*
X15434285Y-15024000D01*
X15505714Y-15024000D01*
X15534285Y-15038286D01*
X15548571Y-15052571D01*
X15562857Y-15081143D01*
X15562857Y-15152571D01*
X15548571Y-15181143D01*
X15534285Y-15195429D01*
X15505714Y-15209714D01*
X15434285Y-15209714D01*
X15405714Y-15195429D01*
X15391428Y-15181143D01*
X15920000Y-15209714D02*
X15920000Y-14909714D01*
X16048571Y-15209714D02*
X16048571Y-15052571D01*
X16034285Y-15024000D01*
X16005714Y-15009714D01*
X15962857Y-15009714D01*
X15934285Y-15024000D01*
X15920000Y-15038286D01*
X16234285Y-15209714D02*
X16205714Y-15195429D01*
X16191428Y-15181143D01*
X16177143Y-15152571D01*
X16177143Y-15066857D01*
X16191428Y-15038286D01*
X16205714Y-15024000D01*
X16234285Y-15009714D01*
X16277143Y-15009714D01*
X16305714Y-15024000D01*
X16320000Y-15038286D01*
X16334285Y-15066857D01*
X16334285Y-15152571D01*
X16320000Y-15181143D01*
X16305714Y-15195429D01*
X16277143Y-15209714D01*
X16234285Y-15209714D01*
X16505714Y-15209714D02*
X16477143Y-15195429D01*
X16462857Y-15166857D01*
X16462857Y-14909714D01*
X16734286Y-15195429D02*
X16705714Y-15209714D01*
X16648571Y-15209714D01*
X16620000Y-15195429D01*
X16605714Y-15166857D01*
X16605714Y-15052571D01*
X16620000Y-15024000D01*
X16648571Y-15009714D01*
X16705714Y-15009714D01*
X16734286Y-15024000D01*
X16748571Y-15052571D01*
X16748571Y-15081143D01*
X16605714Y-15109714D01*
X16862857Y-15195429D02*
X16891429Y-15209714D01*
X16948571Y-15209714D01*
X16977143Y-15195429D01*
X16991429Y-15166857D01*
X16991429Y-15152571D01*
X16977143Y-15124000D01*
X16948571Y-15109714D01*
X16905714Y-15109714D01*
X16877143Y-15095429D01*
X16862857Y-15066857D01*
X16862857Y-15052571D01*
X16877143Y-15024000D01*
X16905714Y-15009714D01*
X16948571Y-15009714D01*
X16977143Y-15024000D01*
X17091428Y-15324000D02*
X17105714Y-15309714D01*
X17134286Y-15266857D01*
X17148571Y-15238286D01*
X17162857Y-15195429D01*
X17177143Y-15124000D01*
X17177143Y-15066857D01*
X17162857Y-14995429D01*
X17148571Y-14952571D01*
X17134286Y-14924000D01*
X17105714Y-14881143D01*
X17091428Y-14866857D01*
X10520178Y-15420089D02*
X10620000Y-15519911D01*
X10620000Y-15420089D02*
X10520178Y-15519911D01*
X10620000Y-15470000D02*
G75*
G03X10620000Y-15470000I-49911J0D01*
G01*
X11048571Y-15605714D02*
X10877143Y-15605714D01*
X10962857Y-15605714D02*
X10962857Y-15305714D01*
X10934286Y-15348571D01*
X10905714Y-15377143D01*
X10877143Y-15391429D01*
X11177143Y-15577143D02*
X11191428Y-15591429D01*
X11177143Y-15605714D01*
X11162857Y-15591429D01*
X11177143Y-15577143D01*
X11177143Y-15605714D01*
X11377143Y-15305714D02*
X11405714Y-15305714D01*
X11434286Y-15320000D01*
X11448571Y-15334286D01*
X11462857Y-15362857D01*
X11477143Y-15420000D01*
X11477143Y-15491429D01*
X11462857Y-15548571D01*
X11448571Y-15577143D01*
X11434286Y-15591429D01*
X11405714Y-15605714D01*
X11377143Y-15605714D01*
X11348571Y-15591429D01*
X11334286Y-15577143D01*
X11320000Y-15548571D01*
X11305714Y-15491429D01*
X11305714Y-15420000D01*
X11320000Y-15362857D01*
X11334286Y-15334286D01*
X11348571Y-15320000D01*
X11377143Y-15305714D01*
X11662857Y-15305714D02*
X11691428Y-15305714D01*
X11720000Y-15320000D01*
X11734286Y-15334286D01*
X11748571Y-15362857D01*
X11762857Y-15420000D01*
X11762857Y-15491429D01*
X11748571Y-15548571D01*
X11734286Y-15577143D01*
X11720000Y-15591429D01*
X11691428Y-15605714D01*
X11662857Y-15605714D01*
X11634286Y-15591429D01*
X11620000Y-15577143D01*
X11605714Y-15548571D01*
X11591428Y-15491429D01*
X11591428Y-15420000D01*
X11605714Y-15362857D01*
X11620000Y-15334286D01*
X11634286Y-15320000D01*
X11662857Y-15305714D01*
X11891428Y-15605714D02*
X11891428Y-15405714D01*
X11891428Y-15434286D02*
X11905714Y-15420000D01*
X11934286Y-15405714D01*
X11977143Y-15405714D01*
X12005714Y-15420000D01*
X12020000Y-15448571D01*
X12020000Y-15605714D01*
X12020000Y-15448571D02*
X12034286Y-15420000D01*
X12062857Y-15405714D01*
X12105714Y-15405714D01*
X12134286Y-15420000D01*
X12148571Y-15448571D01*
X12148571Y-15605714D01*
X12291428Y-15605714D02*
X12291428Y-15405714D01*
X12291428Y-15434286D02*
X12305714Y-15420000D01*
X12334286Y-15405714D01*
X12377143Y-15405714D01*
X12405714Y-15420000D01*
X12420000Y-15448571D01*
X12420000Y-15605714D01*
X12420000Y-15448571D02*
X12434286Y-15420000D01*
X12462857Y-15405714D01*
X12505714Y-15405714D01*
X12534286Y-15420000D01*
X12548571Y-15448571D01*
X12548571Y-15605714D01*
X13134286Y-15291429D02*
X12877143Y-15677143D01*
X13520000Y-15305714D02*
X13548571Y-15305714D01*
X13577143Y-15320000D01*
X13591428Y-15334286D01*
X13605714Y-15362857D01*
X13620000Y-15420000D01*
X13620000Y-15491429D01*
X13605714Y-15548571D01*
X13591428Y-15577143D01*
X13577143Y-15591429D01*
X13548571Y-15605714D01*
X13520000Y-15605714D01*
X13491428Y-15591429D01*
X13477143Y-15577143D01*
X13462857Y-15548571D01*
X13448571Y-15491429D01*
X13448571Y-15420000D01*
X13462857Y-15362857D01*
X13477143Y-15334286D01*
X13491428Y-15320000D01*
X13520000Y-15305714D01*
X13748571Y-15577143D02*
X13762857Y-15591429D01*
X13748571Y-15605714D01*
X13734286Y-15591429D01*
X13748571Y-15577143D01*
X13748571Y-15605714D01*
X13948571Y-15305714D02*
X13977143Y-15305714D01*
X14005714Y-15320000D01*
X14020000Y-15334286D01*
X14034285Y-15362857D01*
X14048571Y-15420000D01*
X14048571Y-15491429D01*
X14034285Y-15548571D01*
X14020000Y-15577143D01*
X14005714Y-15591429D01*
X13977143Y-15605714D01*
X13948571Y-15605714D01*
X13920000Y-15591429D01*
X13905714Y-15577143D01*
X13891428Y-15548571D01*
X13877143Y-15491429D01*
X13877143Y-15420000D01*
X13891428Y-15362857D01*
X13905714Y-15334286D01*
X13920000Y-15320000D01*
X13948571Y-15305714D01*
X14148571Y-15305714D02*
X14334285Y-15305714D01*
X14234285Y-15420000D01*
X14277143Y-15420000D01*
X14305714Y-15434286D01*
X14320000Y-15448571D01*
X14334285Y-15477143D01*
X14334285Y-15548571D01*
X14320000Y-15577143D01*
X14305714Y-15591429D01*
X14277143Y-15605714D01*
X14191428Y-15605714D01*
X14162857Y-15591429D01*
X14148571Y-15577143D01*
X14477143Y-15605714D02*
X14534285Y-15605714D01*
X14562857Y-15591429D01*
X14577143Y-15577143D01*
X14605714Y-15534286D01*
X14620000Y-15477143D01*
X14620000Y-15362857D01*
X14605714Y-15334286D01*
X14591428Y-15320000D01*
X14562857Y-15305714D01*
X14505714Y-15305714D01*
X14477143Y-15320000D01*
X14462857Y-15334286D01*
X14448571Y-15362857D01*
X14448571Y-15434286D01*
X14462857Y-15462857D01*
X14477143Y-15477143D01*
X14505714Y-15491429D01*
X14562857Y-15491429D01*
X14591428Y-15477143D01*
X14605714Y-15462857D01*
X14620000Y-15434286D01*
X14734286Y-15305714D02*
X14734286Y-15362857D01*
X14848571Y-15305714D02*
X14848571Y-15362857D01*
X15291428Y-15720000D02*
X15277143Y-15705714D01*
X15248571Y-15662857D01*
X15234285Y-15634286D01*
X15220000Y-15591429D01*
X15205714Y-15520000D01*
X15205714Y-15462857D01*
X15220000Y-15391429D01*
X15234285Y-15348571D01*
X15248571Y-15320000D01*
X15277143Y-15277143D01*
X15291428Y-15262857D01*
X15534285Y-15405714D02*
X15534285Y-15605714D01*
X15462857Y-15291429D02*
X15391428Y-15505714D01*
X15577143Y-15505714D01*
X15734285Y-15434286D02*
X15705714Y-15420000D01*
X15691428Y-15405714D01*
X15677143Y-15377143D01*
X15677143Y-15362857D01*
X15691428Y-15334286D01*
X15705714Y-15320000D01*
X15734285Y-15305714D01*
X15791428Y-15305714D01*
X15820000Y-15320000D01*
X15834285Y-15334286D01*
X15848571Y-15362857D01*
X15848571Y-15377143D01*
X15834285Y-15405714D01*
X15820000Y-15420000D01*
X15791428Y-15434286D01*
X15734285Y-15434286D01*
X15705714Y-15448571D01*
X15691428Y-15462857D01*
X15677143Y-15491429D01*
X15677143Y-15548571D01*
X15691428Y-15577143D01*
X15705714Y-15591429D01*
X15734285Y-15605714D01*
X15791428Y-15605714D01*
X15820000Y-15591429D01*
X15834285Y-15577143D01*
X15848571Y-15548571D01*
X15848571Y-15491429D01*
X15834285Y-15462857D01*
X15820000Y-15448571D01*
X15791428Y-15434286D01*
X16205714Y-15605714D02*
X16205714Y-15305714D01*
X16334285Y-15605714D02*
X16334285Y-15448571D01*
X16320000Y-15420000D01*
X16291428Y-15405714D01*
X16248571Y-15405714D01*
X16220000Y-15420000D01*
X16205714Y-15434286D01*
X16520000Y-15605714D02*
X16491428Y-15591429D01*
X16477143Y-15577143D01*
X16462857Y-15548571D01*
X16462857Y-15462857D01*
X16477143Y-15434286D01*
X16491428Y-15420000D01*
X16520000Y-15405714D01*
X16562857Y-15405714D01*
X16591428Y-15420000D01*
X16605714Y-15434286D01*
X16620000Y-15462857D01*
X16620000Y-15548571D01*
X16605714Y-15577143D01*
X16591428Y-15591429D01*
X16562857Y-15605714D01*
X16520000Y-15605714D01*
X16791428Y-15605714D02*
X16762857Y-15591429D01*
X16748571Y-15562857D01*
X16748571Y-15305714D01*
X17020000Y-15591429D02*
X16991429Y-15605714D01*
X16934286Y-15605714D01*
X16905714Y-15591429D01*
X16891429Y-15562857D01*
X16891429Y-15448571D01*
X16905714Y-15420000D01*
X16934286Y-15405714D01*
X16991429Y-15405714D01*
X17020000Y-15420000D01*
X17034286Y-15448571D01*
X17034286Y-15477143D01*
X16891429Y-15505714D01*
X17148571Y-15591429D02*
X17177143Y-15605714D01*
X17234286Y-15605714D01*
X17262857Y-15591429D01*
X17277143Y-15562857D01*
X17277143Y-15548571D01*
X17262857Y-15520000D01*
X17234286Y-15505714D01*
X17191429Y-15505714D01*
X17162857Y-15491429D01*
X17148571Y-15462857D01*
X17148571Y-15448571D01*
X17162857Y-15420000D01*
X17191429Y-15405714D01*
X17234286Y-15405714D01*
X17262857Y-15420000D01*
X17377143Y-15720000D02*
X17391429Y-15705714D01*
X17420000Y-15662857D01*
X17434286Y-15634286D01*
X17448571Y-15591429D01*
X17462857Y-15520000D01*
X17462857Y-15462857D01*
X17448571Y-15391429D01*
X17434286Y-15348571D01*
X17420000Y-15320000D01*
X17391429Y-15277143D01*
X17377143Y-15262857D01*
X10519924Y-15815962D02*
X10620000Y-15916038D01*
X10620000Y-15815962D02*
X10519924Y-15916038D01*
X10569962Y-15815962D02*
X10569962Y-15916038D01*
X10519924Y-15866000D02*
X10620000Y-15866000D01*
X11048571Y-16001714D02*
X10877143Y-16001714D01*
X10962857Y-16001714D02*
X10962857Y-15701714D01*
X10934286Y-15744571D01*
X10905714Y-15773143D01*
X10877143Y-15787429D01*
X11177143Y-15973143D02*
X11191428Y-15987429D01*
X11177143Y-16001714D01*
X11162857Y-15987429D01*
X11177143Y-15973143D01*
X11177143Y-16001714D01*
X11377143Y-15701714D02*
X11405714Y-15701714D01*
X11434286Y-15716000D01*
X11448571Y-15730286D01*
X11462857Y-15758857D01*
X11477143Y-15816000D01*
X11477143Y-15887429D01*
X11462857Y-15944571D01*
X11448571Y-15973143D01*
X11434286Y-15987429D01*
X11405714Y-16001714D01*
X11377143Y-16001714D01*
X11348571Y-15987429D01*
X11334286Y-15973143D01*
X11320000Y-15944571D01*
X11305714Y-15887429D01*
X11305714Y-15816000D01*
X11320000Y-15758857D01*
X11334286Y-15730286D01*
X11348571Y-15716000D01*
X11377143Y-15701714D01*
X11662857Y-15701714D02*
X11691428Y-15701714D01*
X11720000Y-15716000D01*
X11734286Y-15730286D01*
X11748571Y-15758857D01*
X11762857Y-15816000D01*
X11762857Y-15887429D01*
X11748571Y-15944571D01*
X11734286Y-15973143D01*
X11720000Y-15987429D01*
X11691428Y-16001714D01*
X11662857Y-16001714D01*
X11634286Y-15987429D01*
X11620000Y-15973143D01*
X11605714Y-15944571D01*
X11591428Y-15887429D01*
X11591428Y-15816000D01*
X11605714Y-15758857D01*
X11620000Y-15730286D01*
X11634286Y-15716000D01*
X11662857Y-15701714D01*
X11891428Y-16001714D02*
X11891428Y-15801714D01*
X11891428Y-15830286D02*
X11905714Y-15816000D01*
X11934286Y-15801714D01*
X11977143Y-15801714D01*
X12005714Y-15816000D01*
X12020000Y-15844571D01*
X12020000Y-16001714D01*
X12020000Y-15844571D02*
X12034286Y-15816000D01*
X12062857Y-15801714D01*
X12105714Y-15801714D01*
X12134286Y-15816000D01*
X12148571Y-15844571D01*
X12148571Y-16001714D01*
X12291428Y-16001714D02*
X12291428Y-15801714D01*
X12291428Y-15830286D02*
X12305714Y-15816000D01*
X12334286Y-15801714D01*
X12377143Y-15801714D01*
X12405714Y-15816000D01*
X12420000Y-15844571D01*
X12420000Y-16001714D01*
X12420000Y-15844571D02*
X12434286Y-15816000D01*
X12462857Y-15801714D01*
X12505714Y-15801714D01*
X12534286Y-15816000D01*
X12548571Y-15844571D01*
X12548571Y-16001714D01*
X13134286Y-15687429D02*
X12877143Y-16073143D01*
X13520000Y-15701714D02*
X13548571Y-15701714D01*
X13577143Y-15716000D01*
X13591428Y-15730286D01*
X13605714Y-15758857D01*
X13620000Y-15816000D01*
X13620000Y-15887429D01*
X13605714Y-15944571D01*
X13591428Y-15973143D01*
X13577143Y-15987429D01*
X13548571Y-16001714D01*
X13520000Y-16001714D01*
X13491428Y-15987429D01*
X13477143Y-15973143D01*
X13462857Y-15944571D01*
X13448571Y-15887429D01*
X13448571Y-15816000D01*
X13462857Y-15758857D01*
X13477143Y-15730286D01*
X13491428Y-15716000D01*
X13520000Y-15701714D01*
X13748571Y-15973143D02*
X13762857Y-15987429D01*
X13748571Y-16001714D01*
X13734286Y-15987429D01*
X13748571Y-15973143D01*
X13748571Y-16001714D01*
X13948571Y-15701714D02*
X13977143Y-15701714D01*
X14005714Y-15716000D01*
X14020000Y-15730286D01*
X14034285Y-15758857D01*
X14048571Y-15816000D01*
X14048571Y-15887429D01*
X14034285Y-15944571D01*
X14020000Y-15973143D01*
X14005714Y-15987429D01*
X13977143Y-16001714D01*
X13948571Y-16001714D01*
X13920000Y-15987429D01*
X13905714Y-15973143D01*
X13891428Y-15944571D01*
X13877143Y-15887429D01*
X13877143Y-15816000D01*
X13891428Y-15758857D01*
X13905714Y-15730286D01*
X13920000Y-15716000D01*
X13948571Y-15701714D01*
X14148571Y-15701714D02*
X14334285Y-15701714D01*
X14234285Y-15816000D01*
X14277143Y-15816000D01*
X14305714Y-15830286D01*
X14320000Y-15844571D01*
X14334285Y-15873143D01*
X14334285Y-15944571D01*
X14320000Y-15973143D01*
X14305714Y-15987429D01*
X14277143Y-16001714D01*
X14191428Y-16001714D01*
X14162857Y-15987429D01*
X14148571Y-15973143D01*
X14477143Y-16001714D02*
X14534285Y-16001714D01*
X14562857Y-15987429D01*
X14577143Y-15973143D01*
X14605714Y-15930286D01*
X14620000Y-15873143D01*
X14620000Y-15758857D01*
X14605714Y-15730286D01*
X14591428Y-15716000D01*
X14562857Y-15701714D01*
X14505714Y-15701714D01*
X14477143Y-15716000D01*
X14462857Y-15730286D01*
X14448571Y-15758857D01*
X14448571Y-15830286D01*
X14462857Y-15858857D01*
X14477143Y-15873143D01*
X14505714Y-15887429D01*
X14562857Y-15887429D01*
X14591428Y-15873143D01*
X14605714Y-15858857D01*
X14620000Y-15830286D01*
X14734286Y-15701714D02*
X14734286Y-15758857D01*
X14848571Y-15701714D02*
X14848571Y-15758857D01*
X15291428Y-16116000D02*
X15277143Y-16101714D01*
X15248571Y-16058857D01*
X15234285Y-16030286D01*
X15220000Y-15987429D01*
X15205714Y-15916000D01*
X15205714Y-15858857D01*
X15220000Y-15787429D01*
X15234285Y-15744571D01*
X15248571Y-15716000D01*
X15277143Y-15673143D01*
X15291428Y-15658857D01*
X15548571Y-15701714D02*
X15405714Y-15701714D01*
X15391428Y-15844571D01*
X15405714Y-15830286D01*
X15434285Y-15816000D01*
X15505714Y-15816000D01*
X15534285Y-15830286D01*
X15548571Y-15844571D01*
X15562857Y-15873143D01*
X15562857Y-15944571D01*
X15548571Y-15973143D01*
X15534285Y-15987429D01*
X15505714Y-16001714D01*
X15434285Y-16001714D01*
X15405714Y-15987429D01*
X15391428Y-15973143D01*
X15820000Y-15701714D02*
X15762857Y-15701714D01*
X15734285Y-15716000D01*
X15720000Y-15730286D01*
X15691428Y-15773143D01*
X15677143Y-15830286D01*
X15677143Y-15944571D01*
X15691428Y-15973143D01*
X15705714Y-15987429D01*
X15734285Y-16001714D01*
X15791428Y-16001714D01*
X15820000Y-15987429D01*
X15834285Y-15973143D01*
X15848571Y-15944571D01*
X15848571Y-15873143D01*
X15834285Y-15844571D01*
X15820000Y-15830286D01*
X15791428Y-15816000D01*
X15734285Y-15816000D01*
X15705714Y-15830286D01*
X15691428Y-15844571D01*
X15677143Y-15873143D01*
X16205714Y-16001714D02*
X16205714Y-15701714D01*
X16334285Y-16001714D02*
X16334285Y-15844571D01*
X16320000Y-15816000D01*
X16291428Y-15801714D01*
X16248571Y-15801714D01*
X16220000Y-15816000D01*
X16205714Y-15830286D01*
X16520000Y-16001714D02*
X16491428Y-15987429D01*
X16477143Y-15973143D01*
X16462857Y-15944571D01*
X16462857Y-15858857D01*
X16477143Y-15830286D01*
X16491428Y-15816000D01*
X16520000Y-15801714D01*
X16562857Y-15801714D01*
X16591428Y-15816000D01*
X16605714Y-15830286D01*
X16620000Y-15858857D01*
X16620000Y-15944571D01*
X16605714Y-15973143D01*
X16591428Y-15987429D01*
X16562857Y-16001714D01*
X16520000Y-16001714D01*
X16791428Y-16001714D02*
X16762857Y-15987429D01*
X16748571Y-15958857D01*
X16748571Y-15701714D01*
X17020000Y-15987429D02*
X16991429Y-16001714D01*
X16934286Y-16001714D01*
X16905714Y-15987429D01*
X16891429Y-15958857D01*
X16891429Y-15844571D01*
X16905714Y-15816000D01*
X16934286Y-15801714D01*
X16991429Y-15801714D01*
X17020000Y-15816000D01*
X17034286Y-15844571D01*
X17034286Y-15873143D01*
X16891429Y-15901714D01*
X17148571Y-15987429D02*
X17177143Y-16001714D01*
X17234286Y-16001714D01*
X17262857Y-15987429D01*
X17277143Y-15958857D01*
X17277143Y-15944571D01*
X17262857Y-15916000D01*
X17234286Y-15901714D01*
X17191429Y-15901714D01*
X17162857Y-15887429D01*
X17148571Y-15858857D01*
X17148571Y-15844571D01*
X17162857Y-15816000D01*
X17191429Y-15801714D01*
X17234286Y-15801714D01*
X17262857Y-15816000D01*
X17377143Y-16116000D02*
X17391429Y-16101714D01*
X17420000Y-16058857D01*
X17434286Y-16030286D01*
X17448571Y-15987429D01*
X17462857Y-15916000D01*
X17462857Y-15858857D01*
X17448571Y-15787429D01*
X17434286Y-15744571D01*
X17420000Y-15716000D01*
X17391429Y-15673143D01*
X17377143Y-15658857D01*
X10518400Y-16211200D02*
X10620000Y-16312800D01*
X10620000Y-16211200D02*
X10518400Y-16312800D01*
X10605121Y-16297921D02*
X10605121Y-16226079D01*
X10533279Y-16226079D01*
X10533279Y-16297921D01*
X10605121Y-16297921D01*
X11048571Y-16397714D02*
X10877143Y-16397714D01*
X10962857Y-16397714D02*
X10962857Y-16097714D01*
X10934286Y-16140571D01*
X10905714Y-16169143D01*
X10877143Y-16183429D01*
X11177143Y-16369143D02*
X11191428Y-16383429D01*
X11177143Y-16397714D01*
X11162857Y-16383429D01*
X11177143Y-16369143D01*
X11177143Y-16397714D01*
X11377143Y-16097714D02*
X11405714Y-16097714D01*
X11434286Y-16112000D01*
X11448571Y-16126286D01*
X11462857Y-16154857D01*
X11477143Y-16212000D01*
X11477143Y-16283429D01*
X11462857Y-16340571D01*
X11448571Y-16369143D01*
X11434286Y-16383429D01*
X11405714Y-16397714D01*
X11377143Y-16397714D01*
X11348571Y-16383429D01*
X11334286Y-16369143D01*
X11320000Y-16340571D01*
X11305714Y-16283429D01*
X11305714Y-16212000D01*
X11320000Y-16154857D01*
X11334286Y-16126286D01*
X11348571Y-16112000D01*
X11377143Y-16097714D01*
X11591428Y-16126286D02*
X11605714Y-16112000D01*
X11634286Y-16097714D01*
X11705714Y-16097714D01*
X11734286Y-16112000D01*
X11748571Y-16126286D01*
X11762857Y-16154857D01*
X11762857Y-16183429D01*
X11748571Y-16226286D01*
X11577143Y-16397714D01*
X11762857Y-16397714D01*
X11891428Y-16397714D02*
X11891428Y-16197714D01*
X11891428Y-16226286D02*
X11905714Y-16212000D01*
X11934286Y-16197714D01*
X11977143Y-16197714D01*
X12005714Y-16212000D01*
X12020000Y-16240571D01*
X12020000Y-16397714D01*
X12020000Y-16240571D02*
X12034286Y-16212000D01*
X12062857Y-16197714D01*
X12105714Y-16197714D01*
X12134286Y-16212000D01*
X12148571Y-16240571D01*
X12148571Y-16397714D01*
X12291428Y-16397714D02*
X12291428Y-16197714D01*
X12291428Y-16226286D02*
X12305714Y-16212000D01*
X12334286Y-16197714D01*
X12377143Y-16197714D01*
X12405714Y-16212000D01*
X12420000Y-16240571D01*
X12420000Y-16397714D01*
X12420000Y-16240571D02*
X12434286Y-16212000D01*
X12462857Y-16197714D01*
X12505714Y-16197714D01*
X12534286Y-16212000D01*
X12548571Y-16240571D01*
X12548571Y-16397714D01*
X13134286Y-16083429D02*
X12877143Y-16469143D01*
X13520000Y-16097714D02*
X13548571Y-16097714D01*
X13577143Y-16112000D01*
X13591428Y-16126286D01*
X13605714Y-16154857D01*
X13620000Y-16212000D01*
X13620000Y-16283429D01*
X13605714Y-16340571D01*
X13591428Y-16369143D01*
X13577143Y-16383429D01*
X13548571Y-16397714D01*
X13520000Y-16397714D01*
X13491428Y-16383429D01*
X13477143Y-16369143D01*
X13462857Y-16340571D01*
X13448571Y-16283429D01*
X13448571Y-16212000D01*
X13462857Y-16154857D01*
X13477143Y-16126286D01*
X13491428Y-16112000D01*
X13520000Y-16097714D01*
X13748571Y-16369143D02*
X13762857Y-16383429D01*
X13748571Y-16397714D01*
X13734286Y-16383429D01*
X13748571Y-16369143D01*
X13748571Y-16397714D01*
X13948571Y-16097714D02*
X13977143Y-16097714D01*
X14005714Y-16112000D01*
X14020000Y-16126286D01*
X14034285Y-16154857D01*
X14048571Y-16212000D01*
X14048571Y-16283429D01*
X14034285Y-16340571D01*
X14020000Y-16369143D01*
X14005714Y-16383429D01*
X13977143Y-16397714D01*
X13948571Y-16397714D01*
X13920000Y-16383429D01*
X13905714Y-16369143D01*
X13891428Y-16340571D01*
X13877143Y-16283429D01*
X13877143Y-16212000D01*
X13891428Y-16154857D01*
X13905714Y-16126286D01*
X13920000Y-16112000D01*
X13948571Y-16097714D01*
X14305714Y-16197714D02*
X14305714Y-16397714D01*
X14234285Y-16083429D02*
X14162857Y-16297714D01*
X14348571Y-16297714D01*
X14520000Y-16097714D02*
X14548571Y-16097714D01*
X14577143Y-16112000D01*
X14591428Y-16126286D01*
X14605714Y-16154857D01*
X14620000Y-16212000D01*
X14620000Y-16283429D01*
X14605714Y-16340571D01*
X14591428Y-16369143D01*
X14577143Y-16383429D01*
X14548571Y-16397714D01*
X14520000Y-16397714D01*
X14491428Y-16383429D01*
X14477143Y-16369143D01*
X14462857Y-16340571D01*
X14448571Y-16283429D01*
X14448571Y-16212000D01*
X14462857Y-16154857D01*
X14477143Y-16126286D01*
X14491428Y-16112000D01*
X14520000Y-16097714D01*
X14734286Y-16097714D02*
X14734286Y-16154857D01*
X14848571Y-16097714D02*
X14848571Y-16154857D01*
X15291428Y-16512000D02*
X15277143Y-16497714D01*
X15248571Y-16454857D01*
X15234285Y-16426286D01*
X15220000Y-16383429D01*
X15205714Y-16312000D01*
X15205714Y-16254857D01*
X15220000Y-16183429D01*
X15234285Y-16140571D01*
X15248571Y-16112000D01*
X15277143Y-16069143D01*
X15291428Y-16054857D01*
X15562857Y-16397714D02*
X15391428Y-16397714D01*
X15477143Y-16397714D02*
X15477143Y-16097714D01*
X15448571Y-16140571D01*
X15420000Y-16169143D01*
X15391428Y-16183429D01*
X15705714Y-16397714D02*
X15762857Y-16397714D01*
X15791428Y-16383429D01*
X15805714Y-16369143D01*
X15834285Y-16326286D01*
X15848571Y-16269143D01*
X15848571Y-16154857D01*
X15834285Y-16126286D01*
X15820000Y-16112000D01*
X15791428Y-16097714D01*
X15734285Y-16097714D01*
X15705714Y-16112000D01*
X15691428Y-16126286D01*
X15677143Y-16154857D01*
X15677143Y-16226286D01*
X15691428Y-16254857D01*
X15705714Y-16269143D01*
X15734285Y-16283429D01*
X15791428Y-16283429D01*
X15820000Y-16269143D01*
X15834285Y-16254857D01*
X15848571Y-16226286D01*
X16134285Y-16397714D02*
X15962857Y-16397714D01*
X16048571Y-16397714D02*
X16048571Y-16097714D01*
X16020000Y-16140571D01*
X15991428Y-16169143D01*
X15962857Y-16183429D01*
X16491428Y-16397714D02*
X16491428Y-16097714D01*
X16620000Y-16397714D02*
X16620000Y-16240571D01*
X16605714Y-16212000D01*
X16577143Y-16197714D01*
X16534285Y-16197714D01*
X16505714Y-16212000D01*
X16491428Y-16226286D01*
X16805714Y-16397714D02*
X16777143Y-16383429D01*
X16762857Y-16369143D01*
X16748571Y-16340571D01*
X16748571Y-16254857D01*
X16762857Y-16226286D01*
X16777143Y-16212000D01*
X16805714Y-16197714D01*
X16848571Y-16197714D01*
X16877143Y-16212000D01*
X16891428Y-16226286D01*
X16905714Y-16254857D01*
X16905714Y-16340571D01*
X16891428Y-16369143D01*
X16877143Y-16383429D01*
X16848571Y-16397714D01*
X16805714Y-16397714D01*
X17077143Y-16397714D02*
X17048571Y-16383429D01*
X17034286Y-16354857D01*
X17034286Y-16097714D01*
X17305714Y-16383429D02*
X17277143Y-16397714D01*
X17220000Y-16397714D01*
X17191429Y-16383429D01*
X17177143Y-16354857D01*
X17177143Y-16240571D01*
X17191429Y-16212000D01*
X17220000Y-16197714D01*
X17277143Y-16197714D01*
X17305714Y-16212000D01*
X17320000Y-16240571D01*
X17320000Y-16269143D01*
X17177143Y-16297714D01*
X17434286Y-16383429D02*
X17462857Y-16397714D01*
X17520000Y-16397714D01*
X17548571Y-16383429D01*
X17562857Y-16354857D01*
X17562857Y-16340571D01*
X17548571Y-16312000D01*
X17520000Y-16297714D01*
X17477143Y-16297714D01*
X17448571Y-16283429D01*
X17434286Y-16254857D01*
X17434286Y-16240571D01*
X17448571Y-16212000D01*
X17477143Y-16197714D01*
X17520000Y-16197714D01*
X17548571Y-16212000D01*
X17662857Y-16512000D02*
X17677143Y-16497714D01*
X17705714Y-16454857D01*
X17720000Y-16426286D01*
X17734286Y-16383429D01*
X17748571Y-16312000D01*
X17748571Y-16254857D01*
X17734286Y-16183429D01*
X17720000Y-16140571D01*
X17705714Y-16112000D01*
X17677143Y-16069143D01*
X17662857Y-16054857D01*
X10500112Y-16598056D02*
X10620000Y-16717944D01*
X10620000Y-16598056D02*
X10500112Y-16717944D01*
X10560056Y-16717944D02*
X10620000Y-16658000D01*
X10560056Y-16598056D01*
X10500112Y-16658000D01*
X10560056Y-16717944D01*
X11048571Y-16793714D02*
X10877143Y-16793714D01*
X10962857Y-16793714D02*
X10962857Y-16493714D01*
X10934286Y-16536571D01*
X10905714Y-16565143D01*
X10877143Y-16579429D01*
X11177143Y-16765143D02*
X11191428Y-16779429D01*
X11177143Y-16793714D01*
X11162857Y-16779429D01*
X11177143Y-16765143D01*
X11177143Y-16793714D01*
X11305714Y-16522286D02*
X11320000Y-16508000D01*
X11348571Y-16493714D01*
X11420000Y-16493714D01*
X11448571Y-16508000D01*
X11462857Y-16522286D01*
X11477143Y-16550857D01*
X11477143Y-16579429D01*
X11462857Y-16622286D01*
X11291428Y-16793714D01*
X11477143Y-16793714D01*
X11662857Y-16493714D02*
X11691428Y-16493714D01*
X11720000Y-16508000D01*
X11734286Y-16522286D01*
X11748571Y-16550857D01*
X11762857Y-16608000D01*
X11762857Y-16679429D01*
X11748571Y-16736571D01*
X11734286Y-16765143D01*
X11720000Y-16779429D01*
X11691428Y-16793714D01*
X11662857Y-16793714D01*
X11634286Y-16779429D01*
X11620000Y-16765143D01*
X11605714Y-16736571D01*
X11591428Y-16679429D01*
X11591428Y-16608000D01*
X11605714Y-16550857D01*
X11620000Y-16522286D01*
X11634286Y-16508000D01*
X11662857Y-16493714D01*
X11891428Y-16793714D02*
X11891428Y-16593714D01*
X11891428Y-16622286D02*
X11905714Y-16608000D01*
X11934286Y-16593714D01*
X11977143Y-16593714D01*
X12005714Y-16608000D01*
X12020000Y-16636571D01*
X12020000Y-16793714D01*
X12020000Y-16636571D02*
X12034286Y-16608000D01*
X12062857Y-16593714D01*
X12105714Y-16593714D01*
X12134286Y-16608000D01*
X12148571Y-16636571D01*
X12148571Y-16793714D01*
X12291428Y-16793714D02*
X12291428Y-16593714D01*
X12291428Y-16622286D02*
X12305714Y-16608000D01*
X12334286Y-16593714D01*
X12377143Y-16593714D01*
X12405714Y-16608000D01*
X12420000Y-16636571D01*
X12420000Y-16793714D01*
X12420000Y-16636571D02*
X12434286Y-16608000D01*
X12462857Y-16593714D01*
X12505714Y-16593714D01*
X12534286Y-16608000D01*
X12548571Y-16636571D01*
X12548571Y-16793714D01*
X13134286Y-16479429D02*
X12877143Y-16865143D01*
X13520000Y-16493714D02*
X13548571Y-16493714D01*
X13577143Y-16508000D01*
X13591428Y-16522286D01*
X13605714Y-16550857D01*
X13620000Y-16608000D01*
X13620000Y-16679429D01*
X13605714Y-16736571D01*
X13591428Y-16765143D01*
X13577143Y-16779429D01*
X13548571Y-16793714D01*
X13520000Y-16793714D01*
X13491428Y-16779429D01*
X13477143Y-16765143D01*
X13462857Y-16736571D01*
X13448571Y-16679429D01*
X13448571Y-16608000D01*
X13462857Y-16550857D01*
X13477143Y-16522286D01*
X13491428Y-16508000D01*
X13520000Y-16493714D01*
X13748571Y-16765143D02*
X13762857Y-16779429D01*
X13748571Y-16793714D01*
X13734286Y-16779429D01*
X13748571Y-16765143D01*
X13748571Y-16793714D01*
X13948571Y-16493714D02*
X13977143Y-16493714D01*
X14005714Y-16508000D01*
X14020000Y-16522286D01*
X14034285Y-16550857D01*
X14048571Y-16608000D01*
X14048571Y-16679429D01*
X14034285Y-16736571D01*
X14020000Y-16765143D01*
X14005714Y-16779429D01*
X13977143Y-16793714D01*
X13948571Y-16793714D01*
X13920000Y-16779429D01*
X13905714Y-16765143D01*
X13891428Y-16736571D01*
X13877143Y-16679429D01*
X13877143Y-16608000D01*
X13891428Y-16550857D01*
X13905714Y-16522286D01*
X13920000Y-16508000D01*
X13948571Y-16493714D01*
X14305714Y-16593714D02*
X14305714Y-16793714D01*
X14234285Y-16479429D02*
X14162857Y-16693714D01*
X14348571Y-16693714D01*
X14434285Y-16493714D02*
X14634285Y-16493714D01*
X14505714Y-16793714D01*
X14734286Y-16493714D02*
X14734286Y-16550857D01*
X14848571Y-16493714D02*
X14848571Y-16550857D01*
X15291428Y-16908000D02*
X15277143Y-16893714D01*
X15248571Y-16850857D01*
X15234285Y-16822286D01*
X15220000Y-16779429D01*
X15205714Y-16708000D01*
X15205714Y-16650857D01*
X15220000Y-16579429D01*
X15234285Y-16536571D01*
X15248571Y-16508000D01*
X15277143Y-16465143D01*
X15291428Y-16450857D01*
X15534285Y-16493714D02*
X15477143Y-16493714D01*
X15448571Y-16508000D01*
X15434285Y-16522286D01*
X15405714Y-16565143D01*
X15391428Y-16622286D01*
X15391428Y-16736571D01*
X15405714Y-16765143D01*
X15420000Y-16779429D01*
X15448571Y-16793714D01*
X15505714Y-16793714D01*
X15534285Y-16779429D01*
X15548571Y-16765143D01*
X15562857Y-16736571D01*
X15562857Y-16665143D01*
X15548571Y-16636571D01*
X15534285Y-16622286D01*
X15505714Y-16608000D01*
X15448571Y-16608000D01*
X15420000Y-16622286D01*
X15405714Y-16636571D01*
X15391428Y-16665143D01*
X15920000Y-16793714D02*
X15920000Y-16493714D01*
X16048571Y-16793714D02*
X16048571Y-16636571D01*
X16034285Y-16608000D01*
X16005714Y-16593714D01*
X15962857Y-16593714D01*
X15934285Y-16608000D01*
X15920000Y-16622286D01*
X16234285Y-16793714D02*
X16205714Y-16779429D01*
X16191428Y-16765143D01*
X16177143Y-16736571D01*
X16177143Y-16650857D01*
X16191428Y-16622286D01*
X16205714Y-16608000D01*
X16234285Y-16593714D01*
X16277143Y-16593714D01*
X16305714Y-16608000D01*
X16320000Y-16622286D01*
X16334285Y-16650857D01*
X16334285Y-16736571D01*
X16320000Y-16765143D01*
X16305714Y-16779429D01*
X16277143Y-16793714D01*
X16234285Y-16793714D01*
X16505714Y-16793714D02*
X16477143Y-16779429D01*
X16462857Y-16750857D01*
X16462857Y-16493714D01*
X16734286Y-16779429D02*
X16705714Y-16793714D01*
X16648571Y-16793714D01*
X16620000Y-16779429D01*
X16605714Y-16750857D01*
X16605714Y-16636571D01*
X16620000Y-16608000D01*
X16648571Y-16593714D01*
X16705714Y-16593714D01*
X16734286Y-16608000D01*
X16748571Y-16636571D01*
X16748571Y-16665143D01*
X16605714Y-16693714D01*
X16862857Y-16779429D02*
X16891429Y-16793714D01*
X16948571Y-16793714D01*
X16977143Y-16779429D01*
X16991429Y-16750857D01*
X16991429Y-16736571D01*
X16977143Y-16708000D01*
X16948571Y-16693714D01*
X16905714Y-16693714D01*
X16877143Y-16679429D01*
X16862857Y-16650857D01*
X16862857Y-16636571D01*
X16877143Y-16608000D01*
X16905714Y-16593714D01*
X16948571Y-16593714D01*
X16977143Y-16608000D01*
X17091428Y-16908000D02*
X17105714Y-16893714D01*
X17134286Y-16850857D01*
X17148571Y-16822286D01*
X17162857Y-16779429D01*
X17177143Y-16708000D01*
X17177143Y-16650857D01*
X17162857Y-16579429D01*
X17148571Y-16536571D01*
X17134286Y-16508000D01*
X17105714Y-16465143D01*
X17091428Y-16450857D01*
M02*
