M48
;DRILL file {KiCad 4.0.2-stable} date 15/07/2016 10:20:30
;FORMAT={-:-/ absolute / metric / decimal}
FMAT,2
METRIC,TZ
T1C0.500
T2C0.701
T3C0.762
T4C0.800
T5C0.800
T6C0.998
T7C1.001
T8C1.016
T9C1.199
%
G90
G05
M71
T1
X108.75Y-51.5
X108.75Y-110.25
X123.25Y-120.
X127.5Y-49.784
X133.77Y-49.784
X134.75Y-115.75
X136.573Y-50.184
X139.25Y-80.25
X140.25Y-41.
X140.25Y-44.
X140.25Y-78.75
X141.25Y-52.
X142.5Y-81.25
X142.75Y-75.5
X144.431Y-84.359
X145.25Y-81.5
X146.Y-72.25
X146.75Y-52.25
X147.583Y-71.286
X147.612Y-74.619
X147.828Y-59.
X150.104Y-114.75
X151.75Y-60.25
X152.4Y-118.11
X152.838Y-84.661
X153.539Y-82.593
X154.002Y-68.169
X154.13Y-50.941
X154.483Y-49.3
X154.868Y-91.368
X155.609Y-83.993
X155.723Y-49.3
X156.25Y-114.75
X156.75Y-63.25
X156.766Y-83.673
X157.05Y-85.666
X157.323Y-49.467
X157.5Y-123.5
X157.75Y-51.038
X159.7Y-62.8
X160.Y-94.25
X161.048Y-71.101
X163.75Y-94.
X163.959Y-72.659
X163.985Y-102.867
X164.2Y-78.579
X164.75Y-49.25
X165.059Y-68.809
X166.Y-101.
X166.95Y-64.882
X167.75Y-59.25
X168.55Y-60.654
X169.Y-51.75
X169.399Y-113.385
X170.3Y-65.034
X171.144Y-115.697
X171.25Y-112.
X171.365Y-122.59
X172.25Y-54.75
X172.25Y-108.25
X173.25Y-110.5
X174.25Y-122.
X175.5Y-80.5
X177.25Y-113.
X177.444Y-122.647
X178.75Y-82.
X179.Y-122.
X179.86Y-124.4
X180.5Y-75.5
X180.5Y-110.5
X181.013Y-78.606
X181.557Y-115.651
X183.Y-90.
X183.25Y-122.55
X183.5Y-73.75
X183.5Y-93.93
X184.75Y-110.5
X185.25Y-91.25
X185.25Y-99.25
X185.5Y-87.
X185.75Y-122.95
X187.25Y-123.75
X188.Y-109.75
X189.25Y-122.5
X189.5Y-106.5
X193.Y-106.75
X193.5Y-83.5
X193.5Y-86.
X193.75Y-98.75
X193.75Y-103.67
X195.5Y-79.
X197.25Y-82.5
X197.25Y-97.
X201.25Y-69.5
X207.75Y-99.25
X208.5Y-102.75
X211.5Y-71.75
X212.25Y-75.25
X213.25Y-98.75
X217.Y-86.5
T2
X123.25Y-101.25
X133.41Y-101.25
T3
X185.42Y-73.914
X185.42Y-76.2
X185.42Y-78.486
T4
X180.88Y-83.82
X182.88Y-83.82
X199.93Y-44.45
X201.93Y-44.45
T5
X180.34Y-90.17
X180.34Y-92.71
X180.34Y-95.25
X180.34Y-97.79
X180.34Y-100.33
T6
X108.66Y-54.61
X108.66Y-105.41
X111.2Y-54.61
X111.2Y-105.41
X113.74Y-54.61
X113.74Y-105.41
X116.28Y-54.61
X116.28Y-105.41
X118.82Y-54.61
X118.82Y-105.41
X121.36Y-54.61
X121.36Y-105.41
X123.9Y-54.61
X123.9Y-105.41
X126.44Y-54.61
X126.44Y-105.41
X128.98Y-54.61
X128.98Y-105.41
X131.52Y-54.61
X131.52Y-105.41
X134.06Y-54.61
X134.06Y-105.41
X136.6Y-54.61
X136.6Y-105.41
X139.14Y-54.61
X139.14Y-105.41
X141.68Y-54.61
X141.68Y-105.41
X144.22Y-54.61
X144.22Y-105.41
X146.76Y-54.61
X146.76Y-105.41
X149.3Y-54.61
X149.3Y-105.41
X151.84Y-54.61
X151.84Y-105.41
X154.38Y-54.61
X154.38Y-105.41
X156.92Y-54.61
X156.92Y-105.41
X159.46Y-54.61
X159.46Y-105.41
X162.Y-54.61
X162.Y-105.41
X164.54Y-54.61
X164.54Y-105.41
X167.08Y-54.61
X167.08Y-105.41
T7
X108.66Y-57.15
X108.66Y-107.95
X111.2Y-57.15
X111.2Y-107.95
X113.74Y-57.15
X113.74Y-107.95
X116.28Y-57.15
X116.28Y-107.95
X118.82Y-57.15
X118.82Y-107.95
X121.36Y-57.15
X121.36Y-107.95
X123.9Y-57.15
X123.9Y-107.95
X126.44Y-57.15
X126.44Y-107.95
X128.98Y-57.15
X128.98Y-107.95
X131.52Y-57.15
X131.52Y-107.95
X134.06Y-57.15
X134.06Y-107.95
X136.6Y-57.15
X136.6Y-107.95
X139.14Y-57.15
X139.14Y-107.95
X141.68Y-57.15
X141.68Y-107.95
X144.22Y-57.15
X144.22Y-107.95
X146.76Y-57.15
X146.76Y-107.95
X149.3Y-57.15
X149.3Y-107.95
X151.84Y-57.15
X151.84Y-107.95
X154.38Y-57.15
X154.38Y-107.95
X156.92Y-57.15
X156.92Y-107.95
X159.46Y-57.15
X159.46Y-107.95
X162.Y-57.15
X162.Y-107.95
X164.54Y-57.15
X164.54Y-107.95
X167.08Y-57.15
X167.08Y-107.95
X169.62Y-54.61
X169.62Y-57.15
X169.62Y-105.41
X169.62Y-107.95
X197.56Y-54.61
X197.56Y-107.95
X200.1Y-54.61
X200.1Y-107.95
T8
X110.49Y-43.18
X110.49Y-45.72
X113.03Y-43.18
X113.03Y-45.72
X115.57Y-43.18
X115.57Y-45.72
X116.96Y-116.75
X118.11Y-43.18
X118.11Y-45.72
X119.5Y-116.75
X120.65Y-43.18
X120.65Y-45.72
X122.285Y-117.5
X125.73Y-43.18
X125.73Y-45.72
X128.27Y-43.18
X128.27Y-45.72
X130.81Y-43.18
X130.81Y-45.72
X133.35Y-43.18
X133.35Y-45.72
X133.715Y-117.5
X135.89Y-43.18
X135.89Y-45.72
X137.25Y-117.25
X137.25Y-119.79
X142.24Y-118.11
X142.24Y-120.65
X144.78Y-118.11
X144.78Y-120.65
X146.285Y-101.5
X147.32Y-118.11
X147.32Y-120.65
X149.86Y-118.11
X149.86Y-120.65
X151.84Y-42.75
X151.84Y-45.29
X152.4Y-118.11
X152.4Y-120.65
X154.38Y-42.75
X154.38Y-45.29
X156.92Y-42.75
X156.92Y-45.29
X157.48Y-118.11
X157.48Y-120.65
X157.715Y-101.5
X159.46Y-42.75
X159.46Y-45.29
X160.02Y-118.11
X160.02Y-120.65
X161.035Y-123.25
X162.Y-42.75
X162.Y-45.29
X162.56Y-118.11
X162.56Y-120.65
X165.1Y-118.11
X165.1Y-120.65
X167.59Y-42.75
X167.59Y-45.29
X167.64Y-118.11
X167.64Y-120.65
X170.13Y-42.75
X170.13Y-45.29
X172.465Y-123.25
X172.67Y-42.75
X172.67Y-45.29
X172.72Y-118.11
X172.72Y-120.65
X173.355Y-113.03
X175.21Y-42.75
X175.21Y-45.29
X175.26Y-54.61
X175.26Y-57.15
X175.26Y-59.69
X175.26Y-62.23
X175.26Y-64.77
X175.26Y-67.31
X175.26Y-69.85
X175.26Y-72.39
X175.26Y-74.93
X175.26Y-77.47
X175.26Y-118.11
X175.26Y-120.65
X177.75Y-42.75
X177.75Y-45.29
X177.8Y-54.61
X177.8Y-57.15
X177.8Y-59.69
X177.8Y-62.23
X177.8Y-64.77
X177.8Y-67.31
X177.8Y-69.85
X177.8Y-72.39
X177.8Y-74.93
X177.8Y-77.47
X177.8Y-118.11
X177.8Y-120.65
X180.34Y-118.11
X180.34Y-120.65
X182.88Y-118.11
X182.88Y-120.65
X184.785Y-113.03
X187.96Y-83.82
X187.96Y-86.36
X187.96Y-88.9
X187.96Y-91.44
X187.96Y-93.98
X187.96Y-96.52
X187.96Y-99.06
X187.96Y-101.6
X187.96Y-118.11
X187.96Y-120.65
X188.595Y-113.03
X189.865Y-74.93
X189.865Y-78.74
X190.5Y-83.82
X190.5Y-86.36
X190.5Y-88.9
X190.5Y-91.44
X190.5Y-93.98
X190.5Y-96.52
X190.5Y-99.06
X190.5Y-101.6
X190.5Y-118.11
X190.5Y-120.65
X193.04Y-118.11
X193.04Y-120.65
X195.58Y-43.18
X195.58Y-45.72
X195.58Y-118.11
X195.58Y-120.65
X198.12Y-118.11
X198.12Y-120.65
X200.025Y-113.03
X201.295Y-74.93
X201.295Y-78.74
X205.74Y-52.07
X205.74Y-54.61
X205.74Y-57.15
X205.74Y-59.69
X205.74Y-62.23
X205.74Y-78.74
X205.74Y-81.28
X205.74Y-83.82
X205.74Y-86.36
X205.74Y-88.9
X205.74Y-91.44
X205.74Y-93.98
X205.74Y-96.52
X205.74Y-102.87
X205.74Y-105.41
X205.74Y-107.95
X208.28Y-52.07
X208.28Y-54.61
X208.28Y-57.15
X208.28Y-59.69
X208.28Y-62.23
X208.28Y-78.74
X208.28Y-81.28
X208.28Y-83.82
X208.28Y-86.36
X208.28Y-88.9
X208.28Y-91.44
X208.28Y-93.98
X208.28Y-96.52
X212.09Y-52.07
X212.09Y-54.61
X212.09Y-57.15
X212.09Y-59.69
X212.09Y-62.23
X212.09Y-78.74
X212.09Y-81.28
X212.09Y-83.82
X212.09Y-86.36
X212.09Y-88.9
X212.09Y-91.44
X212.09Y-93.98
X212.09Y-96.52
X214.63Y-52.07
X214.63Y-54.61
X214.63Y-57.15
X214.63Y-59.69
X214.63Y-62.23
X214.63Y-78.74
X214.63Y-81.28
X214.63Y-83.82
X214.63Y-86.36
X214.63Y-88.9
X214.63Y-91.44
X214.63Y-93.98
X214.63Y-96.52
T9
X204.551Y-68.58
X207.051Y-73.579
X209.55Y-68.58
X213.441Y-68.58
X215.941Y-73.579
X218.44Y-68.58
T0
M30
