%FSLAX45Y45*%
G04 Gerber Fmt 4.5, Leading zero omitted, Abs format (unit mm)*
G04 Created by KiCad (PCBNEW 4.0.2-stable) date 15/07/2016 10:20:29*
%MOMM*%
G01*
G04 APERTURE LIST*
%ADD10C,0.127000*%
%ADD11C,0.100000*%
%ADD12C,0.200000*%
%ADD13C,0.300000*%
G04 APERTURE END LIST*
D10*
D11*
X22000000Y-3800000D02*
X21975000Y-3800000D01*
X22000000Y-12525000D02*
X22000000Y-3800000D01*
X21975000Y-12525000D02*
X22000000Y-12525000D01*
X21975000Y-3800000D02*
X10625000Y-3800000D01*
X21950000Y-12525000D02*
X21975000Y-12525000D01*
X10625000Y-12525000D02*
X21950000Y-12525000D01*
X10625000Y-3800000D02*
X10625000Y-12525000D01*
D12*
X10850000Y-11975000D02*
X11150000Y-12275000D01*
X11150000Y-11975000D02*
X10850000Y-12275000D01*
X10975000Y-6325000D02*
X11275000Y-6625000D01*
X11275000Y-6325000D02*
X10975000Y-6625000D01*
X21100000Y-4175000D02*
X21400000Y-4475000D01*
X21400000Y-4175000D02*
X21100000Y-4475000D01*
X21175000Y-11775000D02*
X21475000Y-12075000D01*
X21475000Y-11775000D02*
X21175000Y-12075000D01*
D13*
X10891429Y-12995714D02*
X10891429Y-12695714D01*
X10962857Y-12695714D01*
X11005714Y-12710000D01*
X11034286Y-12738571D01*
X11048571Y-12767143D01*
X11062857Y-12824286D01*
X11062857Y-12867143D01*
X11048571Y-12924286D01*
X11034286Y-12952857D01*
X11005714Y-12981429D01*
X10962857Y-12995714D01*
X10891429Y-12995714D01*
X11191428Y-12995714D02*
X11191428Y-12795714D01*
X11191428Y-12852857D02*
X11205714Y-12824286D01*
X11220000Y-12810000D01*
X11248571Y-12795714D01*
X11277143Y-12795714D01*
X11377143Y-12995714D02*
X11377143Y-12795714D01*
X11377143Y-12695714D02*
X11362857Y-12710000D01*
X11377143Y-12724286D01*
X11391428Y-12710000D01*
X11377143Y-12695714D01*
X11377143Y-12724286D01*
X11562857Y-12995714D02*
X11534286Y-12981429D01*
X11520000Y-12952857D01*
X11520000Y-12695714D01*
X11720000Y-12995714D02*
X11691428Y-12981429D01*
X11677143Y-12952857D01*
X11677143Y-12695714D01*
X12062857Y-12995714D02*
X12062857Y-12695714D01*
X12162857Y-12910000D01*
X12262857Y-12695714D01*
X12262857Y-12995714D01*
X12534286Y-12995714D02*
X12534286Y-12838571D01*
X12520000Y-12810000D01*
X12491428Y-12795714D01*
X12434286Y-12795714D01*
X12405714Y-12810000D01*
X12534286Y-12981429D02*
X12505714Y-12995714D01*
X12434286Y-12995714D01*
X12405714Y-12981429D01*
X12391428Y-12952857D01*
X12391428Y-12924286D01*
X12405714Y-12895714D01*
X12434286Y-12881429D01*
X12505714Y-12881429D01*
X12534286Y-12867143D01*
X12677143Y-12795714D02*
X12677143Y-13095714D01*
X12677143Y-12810000D02*
X12705714Y-12795714D01*
X12762857Y-12795714D01*
X12791428Y-12810000D01*
X12805714Y-12824286D01*
X12820000Y-12852857D01*
X12820000Y-12938571D01*
X12805714Y-12967143D01*
X12791428Y-12981429D01*
X12762857Y-12995714D01*
X12705714Y-12995714D01*
X12677143Y-12981429D01*
X12948571Y-12967143D02*
X12962857Y-12981429D01*
X12948571Y-12995714D01*
X12934286Y-12981429D01*
X12948571Y-12967143D01*
X12948571Y-12995714D01*
X12948571Y-12810000D02*
X12962857Y-12824286D01*
X12948571Y-12838571D01*
X12934286Y-12824286D01*
X12948571Y-12810000D01*
X12948571Y-12838571D01*
X10320000Y-13340000D02*
X10620000Y-13640000D01*
X10620000Y-13340000D02*
X10320000Y-13640000D01*
X10862857Y-13325714D02*
X11048571Y-13325714D01*
X10948571Y-13440000D01*
X10991429Y-13440000D01*
X11020000Y-13454286D01*
X11034286Y-13468571D01*
X11048571Y-13497143D01*
X11048571Y-13568571D01*
X11034286Y-13597143D01*
X11020000Y-13611429D01*
X10991429Y-13625714D01*
X10905714Y-13625714D01*
X10877143Y-13611429D01*
X10862857Y-13597143D01*
X11177143Y-13597143D02*
X11191428Y-13611429D01*
X11177143Y-13625714D01*
X11162857Y-13611429D01*
X11177143Y-13597143D01*
X11177143Y-13625714D01*
X11377143Y-13325714D02*
X11405714Y-13325714D01*
X11434286Y-13340000D01*
X11448571Y-13354286D01*
X11462857Y-13382857D01*
X11477143Y-13440000D01*
X11477143Y-13511429D01*
X11462857Y-13568571D01*
X11448571Y-13597143D01*
X11434286Y-13611429D01*
X11405714Y-13625714D01*
X11377143Y-13625714D01*
X11348571Y-13611429D01*
X11334286Y-13597143D01*
X11320000Y-13568571D01*
X11305714Y-13511429D01*
X11305714Y-13440000D01*
X11320000Y-13382857D01*
X11334286Y-13354286D01*
X11348571Y-13340000D01*
X11377143Y-13325714D01*
X11662857Y-13325714D02*
X11691428Y-13325714D01*
X11720000Y-13340000D01*
X11734286Y-13354286D01*
X11748571Y-13382857D01*
X11762857Y-13440000D01*
X11762857Y-13511429D01*
X11748571Y-13568571D01*
X11734286Y-13597143D01*
X11720000Y-13611429D01*
X11691428Y-13625714D01*
X11662857Y-13625714D01*
X11634286Y-13611429D01*
X11620000Y-13597143D01*
X11605714Y-13568571D01*
X11591428Y-13511429D01*
X11591428Y-13440000D01*
X11605714Y-13382857D01*
X11620000Y-13354286D01*
X11634286Y-13340000D01*
X11662857Y-13325714D01*
X11891428Y-13625714D02*
X11891428Y-13425714D01*
X11891428Y-13454286D02*
X11905714Y-13440000D01*
X11934286Y-13425714D01*
X11977143Y-13425714D01*
X12005714Y-13440000D01*
X12020000Y-13468571D01*
X12020000Y-13625714D01*
X12020000Y-13468571D02*
X12034286Y-13440000D01*
X12062857Y-13425714D01*
X12105714Y-13425714D01*
X12134286Y-13440000D01*
X12148571Y-13468571D01*
X12148571Y-13625714D01*
X12291428Y-13625714D02*
X12291428Y-13425714D01*
X12291428Y-13454286D02*
X12305714Y-13440000D01*
X12334286Y-13425714D01*
X12377143Y-13425714D01*
X12405714Y-13440000D01*
X12420000Y-13468571D01*
X12420000Y-13625714D01*
X12420000Y-13468571D02*
X12434286Y-13440000D01*
X12462857Y-13425714D01*
X12505714Y-13425714D01*
X12534286Y-13440000D01*
X12548571Y-13468571D01*
X12548571Y-13625714D01*
X13134286Y-13311429D02*
X12877143Y-13697143D01*
X13520000Y-13325714D02*
X13548571Y-13325714D01*
X13577143Y-13340000D01*
X13591428Y-13354286D01*
X13605714Y-13382857D01*
X13620000Y-13440000D01*
X13620000Y-13511429D01*
X13605714Y-13568571D01*
X13591428Y-13597143D01*
X13577143Y-13611429D01*
X13548571Y-13625714D01*
X13520000Y-13625714D01*
X13491428Y-13611429D01*
X13477143Y-13597143D01*
X13462857Y-13568571D01*
X13448571Y-13511429D01*
X13448571Y-13440000D01*
X13462857Y-13382857D01*
X13477143Y-13354286D01*
X13491428Y-13340000D01*
X13520000Y-13325714D01*
X13748571Y-13597143D02*
X13762857Y-13611429D01*
X13748571Y-13625714D01*
X13734286Y-13611429D01*
X13748571Y-13597143D01*
X13748571Y-13625714D01*
X14048571Y-13625714D02*
X13877143Y-13625714D01*
X13962857Y-13625714D02*
X13962857Y-13325714D01*
X13934285Y-13368571D01*
X13905714Y-13397143D01*
X13877143Y-13411429D01*
X14334285Y-13625714D02*
X14162857Y-13625714D01*
X14248571Y-13625714D02*
X14248571Y-13325714D01*
X14220000Y-13368571D01*
X14191428Y-13397143D01*
X14162857Y-13411429D01*
X14505714Y-13454286D02*
X14477143Y-13440000D01*
X14462857Y-13425714D01*
X14448571Y-13397143D01*
X14448571Y-13382857D01*
X14462857Y-13354286D01*
X14477143Y-13340000D01*
X14505714Y-13325714D01*
X14562857Y-13325714D01*
X14591428Y-13340000D01*
X14605714Y-13354286D01*
X14620000Y-13382857D01*
X14620000Y-13397143D01*
X14605714Y-13425714D01*
X14591428Y-13440000D01*
X14562857Y-13454286D01*
X14505714Y-13454286D01*
X14477143Y-13468571D01*
X14462857Y-13482857D01*
X14448571Y-13511429D01*
X14448571Y-13568571D01*
X14462857Y-13597143D01*
X14477143Y-13611429D01*
X14505714Y-13625714D01*
X14562857Y-13625714D01*
X14591428Y-13611429D01*
X14605714Y-13597143D01*
X14620000Y-13568571D01*
X14620000Y-13511429D01*
X14605714Y-13482857D01*
X14591428Y-13468571D01*
X14562857Y-13454286D01*
X14734286Y-13325714D02*
X14734286Y-13382857D01*
X14848571Y-13325714D02*
X14848571Y-13382857D01*
X15291428Y-13740000D02*
X15277143Y-13725714D01*
X15248571Y-13682857D01*
X15234285Y-13654286D01*
X15220000Y-13611429D01*
X15205714Y-13540000D01*
X15205714Y-13482857D01*
X15220000Y-13411429D01*
X15234285Y-13368571D01*
X15248571Y-13340000D01*
X15277143Y-13297143D01*
X15291428Y-13282857D01*
X15534285Y-13425714D02*
X15534285Y-13625714D01*
X15462857Y-13311429D02*
X15391428Y-13525714D01*
X15577143Y-13525714D01*
X15920000Y-13625714D02*
X15920000Y-13325714D01*
X16048571Y-13625714D02*
X16048571Y-13468571D01*
X16034285Y-13440000D01*
X16005714Y-13425714D01*
X15962857Y-13425714D01*
X15934285Y-13440000D01*
X15920000Y-13454286D01*
X16234285Y-13625714D02*
X16205714Y-13611429D01*
X16191428Y-13597143D01*
X16177143Y-13568571D01*
X16177143Y-13482857D01*
X16191428Y-13454286D01*
X16205714Y-13440000D01*
X16234285Y-13425714D01*
X16277143Y-13425714D01*
X16305714Y-13440000D01*
X16320000Y-13454286D01*
X16334285Y-13482857D01*
X16334285Y-13568571D01*
X16320000Y-13597143D01*
X16305714Y-13611429D01*
X16277143Y-13625714D01*
X16234285Y-13625714D01*
X16505714Y-13625714D02*
X16477143Y-13611429D01*
X16462857Y-13582857D01*
X16462857Y-13325714D01*
X16734286Y-13611429D02*
X16705714Y-13625714D01*
X16648571Y-13625714D01*
X16620000Y-13611429D01*
X16605714Y-13582857D01*
X16605714Y-13468571D01*
X16620000Y-13440000D01*
X16648571Y-13425714D01*
X16705714Y-13425714D01*
X16734286Y-13440000D01*
X16748571Y-13468571D01*
X16748571Y-13497143D01*
X16605714Y-13525714D01*
X16862857Y-13611429D02*
X16891429Y-13625714D01*
X16948571Y-13625714D01*
X16977143Y-13611429D01*
X16991429Y-13582857D01*
X16991429Y-13568571D01*
X16977143Y-13540000D01*
X16948571Y-13525714D01*
X16905714Y-13525714D01*
X16877143Y-13511429D01*
X16862857Y-13482857D01*
X16862857Y-13468571D01*
X16877143Y-13440000D01*
X16905714Y-13425714D01*
X16948571Y-13425714D01*
X16977143Y-13440000D01*
X17091428Y-13740000D02*
X17105714Y-13725714D01*
X17134286Y-13682857D01*
X17148571Y-13654286D01*
X17162857Y-13611429D01*
X17177143Y-13540000D01*
X17177143Y-13482857D01*
X17162857Y-13411429D01*
X17148571Y-13368571D01*
X17134286Y-13340000D01*
X17105714Y-13297143D01*
X17091428Y-13282857D01*
X17634286Y-13740000D02*
X17620000Y-13725714D01*
X17591428Y-13682857D01*
X17577143Y-13654286D01*
X17562857Y-13611429D01*
X17548571Y-13540000D01*
X17548571Y-13482857D01*
X17562857Y-13411429D01*
X17577143Y-13368571D01*
X17591428Y-13340000D01*
X17620000Y-13297143D01*
X17634286Y-13282857D01*
X17748571Y-13425714D02*
X17748571Y-13625714D01*
X17748571Y-13454286D02*
X17762857Y-13440000D01*
X17791428Y-13425714D01*
X17834286Y-13425714D01*
X17862857Y-13440000D01*
X17877143Y-13468571D01*
X17877143Y-13625714D01*
X18062857Y-13625714D02*
X18034286Y-13611429D01*
X18020000Y-13597143D01*
X18005714Y-13568571D01*
X18005714Y-13482857D01*
X18020000Y-13454286D01*
X18034286Y-13440000D01*
X18062857Y-13425714D01*
X18105714Y-13425714D01*
X18134286Y-13440000D01*
X18148571Y-13454286D01*
X18162857Y-13482857D01*
X18162857Y-13568571D01*
X18148571Y-13597143D01*
X18134286Y-13611429D01*
X18105714Y-13625714D01*
X18062857Y-13625714D01*
X18248571Y-13425714D02*
X18362857Y-13425714D01*
X18291429Y-13325714D02*
X18291429Y-13582857D01*
X18305714Y-13611429D01*
X18334286Y-13625714D01*
X18362857Y-13625714D01*
X18691429Y-13425714D02*
X18691429Y-13725714D01*
X18691429Y-13440000D02*
X18720000Y-13425714D01*
X18777143Y-13425714D01*
X18805714Y-13440000D01*
X18820000Y-13454286D01*
X18834286Y-13482857D01*
X18834286Y-13568571D01*
X18820000Y-13597143D01*
X18805714Y-13611429D01*
X18777143Y-13625714D01*
X18720000Y-13625714D01*
X18691429Y-13611429D01*
X19005714Y-13625714D02*
X18977143Y-13611429D01*
X18962857Y-13582857D01*
X18962857Y-13325714D01*
X19248571Y-13625714D02*
X19248571Y-13468571D01*
X19234286Y-13440000D01*
X19205714Y-13425714D01*
X19148571Y-13425714D01*
X19120000Y-13440000D01*
X19248571Y-13611429D02*
X19220000Y-13625714D01*
X19148571Y-13625714D01*
X19120000Y-13611429D01*
X19105714Y-13582857D01*
X19105714Y-13554286D01*
X19120000Y-13525714D01*
X19148571Y-13511429D01*
X19220000Y-13511429D01*
X19248571Y-13497143D01*
X19348571Y-13425714D02*
X19462857Y-13425714D01*
X19391429Y-13325714D02*
X19391429Y-13582857D01*
X19405714Y-13611429D01*
X19434286Y-13625714D01*
X19462857Y-13625714D01*
X19677143Y-13611429D02*
X19648572Y-13625714D01*
X19591429Y-13625714D01*
X19562857Y-13611429D01*
X19548572Y-13582857D01*
X19548572Y-13468571D01*
X19562857Y-13440000D01*
X19591429Y-13425714D01*
X19648572Y-13425714D01*
X19677143Y-13440000D01*
X19691429Y-13468571D01*
X19691429Y-13497143D01*
X19548572Y-13525714D01*
X19948572Y-13625714D02*
X19948572Y-13325714D01*
X19948572Y-13611429D02*
X19920000Y-13625714D01*
X19862857Y-13625714D01*
X19834286Y-13611429D01*
X19820000Y-13597143D01*
X19805714Y-13568571D01*
X19805714Y-13482857D01*
X19820000Y-13454286D01*
X19834286Y-13440000D01*
X19862857Y-13425714D01*
X19920000Y-13425714D01*
X19948572Y-13440000D01*
X20062857Y-13740000D02*
X20077143Y-13725714D01*
X20105714Y-13682857D01*
X20120000Y-13654286D01*
X20134286Y-13611429D01*
X20148572Y-13540000D01*
X20148572Y-13482857D01*
X20134286Y-13411429D01*
X20120000Y-13368571D01*
X20105714Y-13340000D01*
X20077143Y-13297143D01*
X20062857Y-13282857D01*
M02*
