%TF.GenerationSoftware,KiCad,Pcbnew,(7.0.0)*%
%TF.CreationDate,2023-05-18T23:58:31+02:00*%
%TF.ProjectId,Pot,506f742e-6b69-4636-9164-5f7063625858,rev?*%
%TF.SameCoordinates,Original*%
%TF.FileFunction,Drillmap*%
%TF.FilePolarity,Positive*%
%FSLAX45Y45*%
G04 Gerber Fmt 4.5, Leading zero omitted, Abs format (unit mm)*
G04 Created by KiCad (PCBNEW (7.0.0)) date 2023-05-18 23:58:31*
%MOMM*%
%LPD*%
G01*
G04 APERTURE LIST*
%ADD10C,0.100000*%
%ADD11C,0.200000*%
%ADD12C,0.320000*%
G04 APERTURE END LIST*
D10*
X16200000Y-11100000D02*
X6190000Y-11100000D01*
X6190000Y-6100000D01*
X16200000Y-6100000D01*
X16200000Y-11100000D01*
D11*
D12*
X6440000Y-6340000D02*
X6760000Y-6660000D01*
X6760000Y-6340000D02*
X6440000Y-6660000D01*
X6440000Y-10540000D02*
X6760000Y-10860000D01*
X6760000Y-10540000D02*
X6440000Y-10860000D01*
X8540000Y-7190000D02*
X8860000Y-7510000D01*
X8860000Y-7190000D02*
X8540000Y-7510000D01*
X8540000Y-9690000D02*
X8860000Y-10010000D01*
X8860000Y-9690000D02*
X8540000Y-10010000D01*
X11040000Y-7190000D02*
X11360000Y-7510000D01*
X11360000Y-7190000D02*
X11040000Y-7510000D01*
X11040000Y-9690000D02*
X11360000Y-10010000D01*
X11360000Y-9690000D02*
X11040000Y-10010000D01*
X13540000Y-7190000D02*
X13860000Y-7510000D01*
X13860000Y-7190000D02*
X13540000Y-7510000D01*
X13540000Y-9690000D02*
X13860000Y-10010000D01*
X13860000Y-9690000D02*
X13540000Y-10010000D01*
X15640000Y-6340000D02*
X15960000Y-6660000D01*
X15960000Y-6340000D02*
X15640000Y-6660000D01*
X15640000Y-10540000D02*
X15960000Y-10860000D01*
X15960000Y-10540000D02*
X15640000Y-10860000D01*
D11*
X6432619Y-11398476D02*
X6432619Y-11198476D01*
X6432619Y-11198476D02*
X6480238Y-11198476D01*
X6480238Y-11198476D02*
X6508809Y-11208000D01*
X6508809Y-11208000D02*
X6527857Y-11227048D01*
X6527857Y-11227048D02*
X6537381Y-11246095D01*
X6537381Y-11246095D02*
X6546905Y-11284190D01*
X6546905Y-11284190D02*
X6546905Y-11312762D01*
X6546905Y-11312762D02*
X6537381Y-11350857D01*
X6537381Y-11350857D02*
X6527857Y-11369905D01*
X6527857Y-11369905D02*
X6508809Y-11388952D01*
X6508809Y-11388952D02*
X6480238Y-11398476D01*
X6480238Y-11398476D02*
X6432619Y-11398476D01*
X6632619Y-11398476D02*
X6632619Y-11265143D01*
X6632619Y-11303238D02*
X6642143Y-11284190D01*
X6642143Y-11284190D02*
X6651667Y-11274667D01*
X6651667Y-11274667D02*
X6670714Y-11265143D01*
X6670714Y-11265143D02*
X6689762Y-11265143D01*
X6756428Y-11398476D02*
X6756428Y-11265143D01*
X6756428Y-11198476D02*
X6746905Y-11208000D01*
X6746905Y-11208000D02*
X6756428Y-11217524D01*
X6756428Y-11217524D02*
X6765952Y-11208000D01*
X6765952Y-11208000D02*
X6756428Y-11198476D01*
X6756428Y-11198476D02*
X6756428Y-11217524D01*
X6880238Y-11398476D02*
X6861190Y-11388952D01*
X6861190Y-11388952D02*
X6851667Y-11369905D01*
X6851667Y-11369905D02*
X6851667Y-11198476D01*
X6985000Y-11398476D02*
X6965952Y-11388952D01*
X6965952Y-11388952D02*
X6956428Y-11369905D01*
X6956428Y-11369905D02*
X6956428Y-11198476D01*
X7181190Y-11398476D02*
X7181190Y-11198476D01*
X7181190Y-11198476D02*
X7247857Y-11341333D01*
X7247857Y-11341333D02*
X7314524Y-11198476D01*
X7314524Y-11198476D02*
X7314524Y-11398476D01*
X7495476Y-11398476D02*
X7495476Y-11293714D01*
X7495476Y-11293714D02*
X7485952Y-11274667D01*
X7485952Y-11274667D02*
X7466905Y-11265143D01*
X7466905Y-11265143D02*
X7428809Y-11265143D01*
X7428809Y-11265143D02*
X7409762Y-11274667D01*
X7495476Y-11388952D02*
X7476428Y-11398476D01*
X7476428Y-11398476D02*
X7428809Y-11398476D01*
X7428809Y-11398476D02*
X7409762Y-11388952D01*
X7409762Y-11388952D02*
X7400238Y-11369905D01*
X7400238Y-11369905D02*
X7400238Y-11350857D01*
X7400238Y-11350857D02*
X7409762Y-11331809D01*
X7409762Y-11331809D02*
X7428809Y-11322286D01*
X7428809Y-11322286D02*
X7476428Y-11322286D01*
X7476428Y-11322286D02*
X7495476Y-11312762D01*
X7590714Y-11265143D02*
X7590714Y-11465143D01*
X7590714Y-11274667D02*
X7609762Y-11265143D01*
X7609762Y-11265143D02*
X7647857Y-11265143D01*
X7647857Y-11265143D02*
X7666905Y-11274667D01*
X7666905Y-11274667D02*
X7676428Y-11284190D01*
X7676428Y-11284190D02*
X7685952Y-11303238D01*
X7685952Y-11303238D02*
X7685952Y-11360381D01*
X7685952Y-11360381D02*
X7676428Y-11379428D01*
X7676428Y-11379428D02*
X7666905Y-11388952D01*
X7666905Y-11388952D02*
X7647857Y-11398476D01*
X7647857Y-11398476D02*
X7609762Y-11398476D01*
X7609762Y-11398476D02*
X7590714Y-11388952D01*
X7771667Y-11379428D02*
X7781190Y-11388952D01*
X7781190Y-11388952D02*
X7771667Y-11398476D01*
X7771667Y-11398476D02*
X7762143Y-11388952D01*
X7762143Y-11388952D02*
X7771667Y-11379428D01*
X7771667Y-11379428D02*
X7771667Y-11398476D01*
X7771667Y-11274667D02*
X7781190Y-11284190D01*
X7781190Y-11284190D02*
X7771667Y-11293714D01*
X7771667Y-11293714D02*
X7762143Y-11284190D01*
X7762143Y-11284190D02*
X7771667Y-11274667D01*
X7771667Y-11274667D02*
X7771667Y-11293714D01*
X5985000Y-11645000D02*
X6185000Y-11845000D01*
X6185000Y-11645000D02*
X5985000Y-11845000D01*
X6413571Y-11618476D02*
X6537381Y-11618476D01*
X6537381Y-11618476D02*
X6470714Y-11694667D01*
X6470714Y-11694667D02*
X6499286Y-11694667D01*
X6499286Y-11694667D02*
X6518333Y-11704190D01*
X6518333Y-11704190D02*
X6527857Y-11713714D01*
X6527857Y-11713714D02*
X6537381Y-11732762D01*
X6537381Y-11732762D02*
X6537381Y-11780381D01*
X6537381Y-11780381D02*
X6527857Y-11799428D01*
X6527857Y-11799428D02*
X6518333Y-11808952D01*
X6518333Y-11808952D02*
X6499286Y-11818476D01*
X6499286Y-11818476D02*
X6442143Y-11818476D01*
X6442143Y-11818476D02*
X6423095Y-11808952D01*
X6423095Y-11808952D02*
X6413571Y-11799428D01*
X6623095Y-11799428D02*
X6632619Y-11808952D01*
X6632619Y-11808952D02*
X6623095Y-11818476D01*
X6623095Y-11818476D02*
X6613571Y-11808952D01*
X6613571Y-11808952D02*
X6623095Y-11799428D01*
X6623095Y-11799428D02*
X6623095Y-11818476D01*
X6708809Y-11637524D02*
X6718333Y-11628000D01*
X6718333Y-11628000D02*
X6737381Y-11618476D01*
X6737381Y-11618476D02*
X6785000Y-11618476D01*
X6785000Y-11618476D02*
X6804048Y-11628000D01*
X6804048Y-11628000D02*
X6813571Y-11637524D01*
X6813571Y-11637524D02*
X6823095Y-11656571D01*
X6823095Y-11656571D02*
X6823095Y-11675619D01*
X6823095Y-11675619D02*
X6813571Y-11704190D01*
X6813571Y-11704190D02*
X6699286Y-11818476D01*
X6699286Y-11818476D02*
X6823095Y-11818476D01*
X6946905Y-11618476D02*
X6965952Y-11618476D01*
X6965952Y-11618476D02*
X6985000Y-11628000D01*
X6985000Y-11628000D02*
X6994524Y-11637524D01*
X6994524Y-11637524D02*
X7004048Y-11656571D01*
X7004048Y-11656571D02*
X7013571Y-11694667D01*
X7013571Y-11694667D02*
X7013571Y-11742286D01*
X7013571Y-11742286D02*
X7004048Y-11780381D01*
X7004048Y-11780381D02*
X6994524Y-11799428D01*
X6994524Y-11799428D02*
X6985000Y-11808952D01*
X6985000Y-11808952D02*
X6965952Y-11818476D01*
X6965952Y-11818476D02*
X6946905Y-11818476D01*
X6946905Y-11818476D02*
X6927857Y-11808952D01*
X6927857Y-11808952D02*
X6918333Y-11799428D01*
X6918333Y-11799428D02*
X6908809Y-11780381D01*
X6908809Y-11780381D02*
X6899286Y-11742286D01*
X6899286Y-11742286D02*
X6899286Y-11694667D01*
X6899286Y-11694667D02*
X6908809Y-11656571D01*
X6908809Y-11656571D02*
X6918333Y-11637524D01*
X6918333Y-11637524D02*
X6927857Y-11628000D01*
X6927857Y-11628000D02*
X6946905Y-11618476D01*
X7137381Y-11618476D02*
X7156429Y-11618476D01*
X7156429Y-11618476D02*
X7175476Y-11628000D01*
X7175476Y-11628000D02*
X7185000Y-11637524D01*
X7185000Y-11637524D02*
X7194524Y-11656571D01*
X7194524Y-11656571D02*
X7204048Y-11694667D01*
X7204048Y-11694667D02*
X7204048Y-11742286D01*
X7204048Y-11742286D02*
X7194524Y-11780381D01*
X7194524Y-11780381D02*
X7185000Y-11799428D01*
X7185000Y-11799428D02*
X7175476Y-11808952D01*
X7175476Y-11808952D02*
X7156429Y-11818476D01*
X7156429Y-11818476D02*
X7137381Y-11818476D01*
X7137381Y-11818476D02*
X7118333Y-11808952D01*
X7118333Y-11808952D02*
X7108809Y-11799428D01*
X7108809Y-11799428D02*
X7099286Y-11780381D01*
X7099286Y-11780381D02*
X7089762Y-11742286D01*
X7089762Y-11742286D02*
X7089762Y-11694667D01*
X7089762Y-11694667D02*
X7099286Y-11656571D01*
X7099286Y-11656571D02*
X7108809Y-11637524D01*
X7108809Y-11637524D02*
X7118333Y-11628000D01*
X7118333Y-11628000D02*
X7137381Y-11618476D01*
X7289762Y-11818476D02*
X7289762Y-11685143D01*
X7289762Y-11704190D02*
X7299286Y-11694667D01*
X7299286Y-11694667D02*
X7318333Y-11685143D01*
X7318333Y-11685143D02*
X7346905Y-11685143D01*
X7346905Y-11685143D02*
X7365952Y-11694667D01*
X7365952Y-11694667D02*
X7375476Y-11713714D01*
X7375476Y-11713714D02*
X7375476Y-11818476D01*
X7375476Y-11713714D02*
X7385000Y-11694667D01*
X7385000Y-11694667D02*
X7404048Y-11685143D01*
X7404048Y-11685143D02*
X7432619Y-11685143D01*
X7432619Y-11685143D02*
X7451667Y-11694667D01*
X7451667Y-11694667D02*
X7461190Y-11713714D01*
X7461190Y-11713714D02*
X7461190Y-11818476D01*
X7556429Y-11818476D02*
X7556429Y-11685143D01*
X7556429Y-11704190D02*
X7565952Y-11694667D01*
X7565952Y-11694667D02*
X7585000Y-11685143D01*
X7585000Y-11685143D02*
X7613571Y-11685143D01*
X7613571Y-11685143D02*
X7632619Y-11694667D01*
X7632619Y-11694667D02*
X7642143Y-11713714D01*
X7642143Y-11713714D02*
X7642143Y-11818476D01*
X7642143Y-11713714D02*
X7651667Y-11694667D01*
X7651667Y-11694667D02*
X7670714Y-11685143D01*
X7670714Y-11685143D02*
X7699286Y-11685143D01*
X7699286Y-11685143D02*
X7718333Y-11694667D01*
X7718333Y-11694667D02*
X7727857Y-11713714D01*
X7727857Y-11713714D02*
X7727857Y-11818476D01*
X8085952Y-11608952D02*
X7914524Y-11866095D01*
X8310714Y-11618476D02*
X8329762Y-11618476D01*
X8329762Y-11618476D02*
X8348810Y-11628000D01*
X8348810Y-11628000D02*
X8358333Y-11637524D01*
X8358333Y-11637524D02*
X8367857Y-11656571D01*
X8367857Y-11656571D02*
X8377381Y-11694667D01*
X8377381Y-11694667D02*
X8377381Y-11742286D01*
X8377381Y-11742286D02*
X8367857Y-11780381D01*
X8367857Y-11780381D02*
X8358333Y-11799428D01*
X8358333Y-11799428D02*
X8348810Y-11808952D01*
X8348810Y-11808952D02*
X8329762Y-11818476D01*
X8329762Y-11818476D02*
X8310714Y-11818476D01*
X8310714Y-11818476D02*
X8291667Y-11808952D01*
X8291667Y-11808952D02*
X8282143Y-11799428D01*
X8282143Y-11799428D02*
X8272619Y-11780381D01*
X8272619Y-11780381D02*
X8263095Y-11742286D01*
X8263095Y-11742286D02*
X8263095Y-11694667D01*
X8263095Y-11694667D02*
X8272619Y-11656571D01*
X8272619Y-11656571D02*
X8282143Y-11637524D01*
X8282143Y-11637524D02*
X8291667Y-11628000D01*
X8291667Y-11628000D02*
X8310714Y-11618476D01*
X8463095Y-11799428D02*
X8472619Y-11808952D01*
X8472619Y-11808952D02*
X8463095Y-11818476D01*
X8463095Y-11818476D02*
X8453572Y-11808952D01*
X8453572Y-11808952D02*
X8463095Y-11799428D01*
X8463095Y-11799428D02*
X8463095Y-11818476D01*
X8663095Y-11818476D02*
X8548810Y-11818476D01*
X8605952Y-11818476D02*
X8605952Y-11618476D01*
X8605952Y-11618476D02*
X8586905Y-11647048D01*
X8586905Y-11647048D02*
X8567857Y-11666095D01*
X8567857Y-11666095D02*
X8548810Y-11675619D01*
X8739286Y-11637524D02*
X8748810Y-11628000D01*
X8748810Y-11628000D02*
X8767857Y-11618476D01*
X8767857Y-11618476D02*
X8815476Y-11618476D01*
X8815476Y-11618476D02*
X8834524Y-11628000D01*
X8834524Y-11628000D02*
X8844048Y-11637524D01*
X8844048Y-11637524D02*
X8853572Y-11656571D01*
X8853572Y-11656571D02*
X8853572Y-11675619D01*
X8853572Y-11675619D02*
X8844048Y-11704190D01*
X8844048Y-11704190D02*
X8729762Y-11818476D01*
X8729762Y-11818476D02*
X8853572Y-11818476D01*
X9025000Y-11618476D02*
X8986905Y-11618476D01*
X8986905Y-11618476D02*
X8967857Y-11628000D01*
X8967857Y-11628000D02*
X8958333Y-11637524D01*
X8958333Y-11637524D02*
X8939286Y-11666095D01*
X8939286Y-11666095D02*
X8929762Y-11704190D01*
X8929762Y-11704190D02*
X8929762Y-11780381D01*
X8929762Y-11780381D02*
X8939286Y-11799428D01*
X8939286Y-11799428D02*
X8948810Y-11808952D01*
X8948810Y-11808952D02*
X8967857Y-11818476D01*
X8967857Y-11818476D02*
X9005953Y-11818476D01*
X9005953Y-11818476D02*
X9025000Y-11808952D01*
X9025000Y-11808952D02*
X9034524Y-11799428D01*
X9034524Y-11799428D02*
X9044048Y-11780381D01*
X9044048Y-11780381D02*
X9044048Y-11732762D01*
X9044048Y-11732762D02*
X9034524Y-11713714D01*
X9034524Y-11713714D02*
X9025000Y-11704190D01*
X9025000Y-11704190D02*
X9005953Y-11694667D01*
X9005953Y-11694667D02*
X8967857Y-11694667D01*
X8967857Y-11694667D02*
X8948810Y-11704190D01*
X8948810Y-11704190D02*
X8939286Y-11713714D01*
X8939286Y-11713714D02*
X8929762Y-11732762D01*
X9167857Y-11618476D02*
X9186905Y-11618476D01*
X9186905Y-11618476D02*
X9205953Y-11628000D01*
X9205953Y-11628000D02*
X9215476Y-11637524D01*
X9215476Y-11637524D02*
X9225000Y-11656571D01*
X9225000Y-11656571D02*
X9234524Y-11694667D01*
X9234524Y-11694667D02*
X9234524Y-11742286D01*
X9234524Y-11742286D02*
X9225000Y-11780381D01*
X9225000Y-11780381D02*
X9215476Y-11799428D01*
X9215476Y-11799428D02*
X9205953Y-11808952D01*
X9205953Y-11808952D02*
X9186905Y-11818476D01*
X9186905Y-11818476D02*
X9167857Y-11818476D01*
X9167857Y-11818476D02*
X9148810Y-11808952D01*
X9148810Y-11808952D02*
X9139286Y-11799428D01*
X9139286Y-11799428D02*
X9129762Y-11780381D01*
X9129762Y-11780381D02*
X9120238Y-11742286D01*
X9120238Y-11742286D02*
X9120238Y-11694667D01*
X9120238Y-11694667D02*
X9129762Y-11656571D01*
X9129762Y-11656571D02*
X9139286Y-11637524D01*
X9139286Y-11637524D02*
X9148810Y-11628000D01*
X9148810Y-11628000D02*
X9167857Y-11618476D01*
X9310714Y-11618476D02*
X9310714Y-11656571D01*
X9386905Y-11618476D02*
X9386905Y-11656571D01*
X9649762Y-11894667D02*
X9640238Y-11885143D01*
X9640238Y-11885143D02*
X9621191Y-11856571D01*
X9621191Y-11856571D02*
X9611667Y-11837524D01*
X9611667Y-11837524D02*
X9602143Y-11808952D01*
X9602143Y-11808952D02*
X9592619Y-11761333D01*
X9592619Y-11761333D02*
X9592619Y-11723238D01*
X9592619Y-11723238D02*
X9602143Y-11675619D01*
X9602143Y-11675619D02*
X9611667Y-11647048D01*
X9611667Y-11647048D02*
X9621191Y-11628000D01*
X9621191Y-11628000D02*
X9640238Y-11599428D01*
X9640238Y-11599428D02*
X9649762Y-11589905D01*
X9830714Y-11818476D02*
X9716429Y-11818476D01*
X9773572Y-11818476D02*
X9773572Y-11618476D01*
X9773572Y-11618476D02*
X9754524Y-11647048D01*
X9754524Y-11647048D02*
X9735476Y-11666095D01*
X9735476Y-11666095D02*
X9716429Y-11675619D01*
X9954524Y-11618476D02*
X9973572Y-11618476D01*
X9973572Y-11618476D02*
X9992619Y-11628000D01*
X9992619Y-11628000D02*
X10002143Y-11637524D01*
X10002143Y-11637524D02*
X10011667Y-11656571D01*
X10011667Y-11656571D02*
X10021191Y-11694667D01*
X10021191Y-11694667D02*
X10021191Y-11742286D01*
X10021191Y-11742286D02*
X10011667Y-11780381D01*
X10011667Y-11780381D02*
X10002143Y-11799428D01*
X10002143Y-11799428D02*
X9992619Y-11808952D01*
X9992619Y-11808952D02*
X9973572Y-11818476D01*
X9973572Y-11818476D02*
X9954524Y-11818476D01*
X9954524Y-11818476D02*
X9935476Y-11808952D01*
X9935476Y-11808952D02*
X9925953Y-11799428D01*
X9925953Y-11799428D02*
X9916429Y-11780381D01*
X9916429Y-11780381D02*
X9906905Y-11742286D01*
X9906905Y-11742286D02*
X9906905Y-11694667D01*
X9906905Y-11694667D02*
X9916429Y-11656571D01*
X9916429Y-11656571D02*
X9925953Y-11637524D01*
X9925953Y-11637524D02*
X9935476Y-11628000D01*
X9935476Y-11628000D02*
X9954524Y-11618476D01*
X10226905Y-11818476D02*
X10226905Y-11618476D01*
X10312619Y-11818476D02*
X10312619Y-11713714D01*
X10312619Y-11713714D02*
X10303095Y-11694667D01*
X10303095Y-11694667D02*
X10284048Y-11685143D01*
X10284048Y-11685143D02*
X10255476Y-11685143D01*
X10255476Y-11685143D02*
X10236429Y-11694667D01*
X10236429Y-11694667D02*
X10226905Y-11704190D01*
X10436429Y-11818476D02*
X10417381Y-11808952D01*
X10417381Y-11808952D02*
X10407857Y-11799428D01*
X10407857Y-11799428D02*
X10398334Y-11780381D01*
X10398334Y-11780381D02*
X10398334Y-11723238D01*
X10398334Y-11723238D02*
X10407857Y-11704190D01*
X10407857Y-11704190D02*
X10417381Y-11694667D01*
X10417381Y-11694667D02*
X10436429Y-11685143D01*
X10436429Y-11685143D02*
X10465000Y-11685143D01*
X10465000Y-11685143D02*
X10484048Y-11694667D01*
X10484048Y-11694667D02*
X10493572Y-11704190D01*
X10493572Y-11704190D02*
X10503095Y-11723238D01*
X10503095Y-11723238D02*
X10503095Y-11780381D01*
X10503095Y-11780381D02*
X10493572Y-11799428D01*
X10493572Y-11799428D02*
X10484048Y-11808952D01*
X10484048Y-11808952D02*
X10465000Y-11818476D01*
X10465000Y-11818476D02*
X10436429Y-11818476D01*
X10617381Y-11818476D02*
X10598334Y-11808952D01*
X10598334Y-11808952D02*
X10588810Y-11789905D01*
X10588810Y-11789905D02*
X10588810Y-11618476D01*
X10769762Y-11808952D02*
X10750715Y-11818476D01*
X10750715Y-11818476D02*
X10712619Y-11818476D01*
X10712619Y-11818476D02*
X10693572Y-11808952D01*
X10693572Y-11808952D02*
X10684048Y-11789905D01*
X10684048Y-11789905D02*
X10684048Y-11713714D01*
X10684048Y-11713714D02*
X10693572Y-11694667D01*
X10693572Y-11694667D02*
X10712619Y-11685143D01*
X10712619Y-11685143D02*
X10750715Y-11685143D01*
X10750715Y-11685143D02*
X10769762Y-11694667D01*
X10769762Y-11694667D02*
X10779286Y-11713714D01*
X10779286Y-11713714D02*
X10779286Y-11732762D01*
X10779286Y-11732762D02*
X10684048Y-11751809D01*
X10855476Y-11808952D02*
X10874524Y-11818476D01*
X10874524Y-11818476D02*
X10912619Y-11818476D01*
X10912619Y-11818476D02*
X10931667Y-11808952D01*
X10931667Y-11808952D02*
X10941191Y-11789905D01*
X10941191Y-11789905D02*
X10941191Y-11780381D01*
X10941191Y-11780381D02*
X10931667Y-11761333D01*
X10931667Y-11761333D02*
X10912619Y-11751809D01*
X10912619Y-11751809D02*
X10884048Y-11751809D01*
X10884048Y-11751809D02*
X10865000Y-11742286D01*
X10865000Y-11742286D02*
X10855476Y-11723238D01*
X10855476Y-11723238D02*
X10855476Y-11713714D01*
X10855476Y-11713714D02*
X10865000Y-11694667D01*
X10865000Y-11694667D02*
X10884048Y-11685143D01*
X10884048Y-11685143D02*
X10912619Y-11685143D01*
X10912619Y-11685143D02*
X10931667Y-11694667D01*
X11007857Y-11894667D02*
X11017381Y-11885143D01*
X11017381Y-11885143D02*
X11036429Y-11856571D01*
X11036429Y-11856571D02*
X11045953Y-11837524D01*
X11045953Y-11837524D02*
X11055476Y-11808952D01*
X11055476Y-11808952D02*
X11065000Y-11761333D01*
X11065000Y-11761333D02*
X11065000Y-11723238D01*
X11065000Y-11723238D02*
X11055476Y-11675619D01*
X11055476Y-11675619D02*
X11045953Y-11647048D01*
X11045953Y-11647048D02*
X11036429Y-11628000D01*
X11036429Y-11628000D02*
X11017381Y-11599428D01*
X11017381Y-11599428D02*
X11007857Y-11589905D01*
X11337381Y-11894667D02*
X11327857Y-11885143D01*
X11327857Y-11885143D02*
X11308810Y-11856571D01*
X11308810Y-11856571D02*
X11299286Y-11837524D01*
X11299286Y-11837524D02*
X11289762Y-11808952D01*
X11289762Y-11808952D02*
X11280238Y-11761333D01*
X11280238Y-11761333D02*
X11280238Y-11723238D01*
X11280238Y-11723238D02*
X11289762Y-11675619D01*
X11289762Y-11675619D02*
X11299286Y-11647048D01*
X11299286Y-11647048D02*
X11308810Y-11628000D01*
X11308810Y-11628000D02*
X11327857Y-11599428D01*
X11327857Y-11599428D02*
X11337381Y-11589905D01*
X11413572Y-11685143D02*
X11413572Y-11818476D01*
X11413572Y-11704190D02*
X11423095Y-11694667D01*
X11423095Y-11694667D02*
X11442143Y-11685143D01*
X11442143Y-11685143D02*
X11470714Y-11685143D01*
X11470714Y-11685143D02*
X11489762Y-11694667D01*
X11489762Y-11694667D02*
X11499286Y-11713714D01*
X11499286Y-11713714D02*
X11499286Y-11818476D01*
X11623095Y-11818476D02*
X11604048Y-11808952D01*
X11604048Y-11808952D02*
X11594524Y-11799428D01*
X11594524Y-11799428D02*
X11585000Y-11780381D01*
X11585000Y-11780381D02*
X11585000Y-11723238D01*
X11585000Y-11723238D02*
X11594524Y-11704190D01*
X11594524Y-11704190D02*
X11604048Y-11694667D01*
X11604048Y-11694667D02*
X11623095Y-11685143D01*
X11623095Y-11685143D02*
X11651667Y-11685143D01*
X11651667Y-11685143D02*
X11670714Y-11694667D01*
X11670714Y-11694667D02*
X11680238Y-11704190D01*
X11680238Y-11704190D02*
X11689762Y-11723238D01*
X11689762Y-11723238D02*
X11689762Y-11780381D01*
X11689762Y-11780381D02*
X11680238Y-11799428D01*
X11680238Y-11799428D02*
X11670714Y-11808952D01*
X11670714Y-11808952D02*
X11651667Y-11818476D01*
X11651667Y-11818476D02*
X11623095Y-11818476D01*
X11746905Y-11685143D02*
X11823095Y-11685143D01*
X11775476Y-11618476D02*
X11775476Y-11789905D01*
X11775476Y-11789905D02*
X11785000Y-11808952D01*
X11785000Y-11808952D02*
X11804048Y-11818476D01*
X11804048Y-11818476D02*
X11823095Y-11818476D01*
X12009762Y-11685143D02*
X12009762Y-11885143D01*
X12009762Y-11694667D02*
X12028810Y-11685143D01*
X12028810Y-11685143D02*
X12066905Y-11685143D01*
X12066905Y-11685143D02*
X12085953Y-11694667D01*
X12085953Y-11694667D02*
X12095476Y-11704190D01*
X12095476Y-11704190D02*
X12105000Y-11723238D01*
X12105000Y-11723238D02*
X12105000Y-11780381D01*
X12105000Y-11780381D02*
X12095476Y-11799428D01*
X12095476Y-11799428D02*
X12085953Y-11808952D01*
X12085953Y-11808952D02*
X12066905Y-11818476D01*
X12066905Y-11818476D02*
X12028810Y-11818476D01*
X12028810Y-11818476D02*
X12009762Y-11808952D01*
X12219286Y-11818476D02*
X12200238Y-11808952D01*
X12200238Y-11808952D02*
X12190714Y-11789905D01*
X12190714Y-11789905D02*
X12190714Y-11618476D01*
X12381191Y-11818476D02*
X12381191Y-11713714D01*
X12381191Y-11713714D02*
X12371667Y-11694667D01*
X12371667Y-11694667D02*
X12352619Y-11685143D01*
X12352619Y-11685143D02*
X12314524Y-11685143D01*
X12314524Y-11685143D02*
X12295476Y-11694667D01*
X12381191Y-11808952D02*
X12362143Y-11818476D01*
X12362143Y-11818476D02*
X12314524Y-11818476D01*
X12314524Y-11818476D02*
X12295476Y-11808952D01*
X12295476Y-11808952D02*
X12285953Y-11789905D01*
X12285953Y-11789905D02*
X12285953Y-11770857D01*
X12285953Y-11770857D02*
X12295476Y-11751809D01*
X12295476Y-11751809D02*
X12314524Y-11742286D01*
X12314524Y-11742286D02*
X12362143Y-11742286D01*
X12362143Y-11742286D02*
X12381191Y-11732762D01*
X12447857Y-11685143D02*
X12524048Y-11685143D01*
X12476429Y-11618476D02*
X12476429Y-11789905D01*
X12476429Y-11789905D02*
X12485953Y-11808952D01*
X12485953Y-11808952D02*
X12505000Y-11818476D01*
X12505000Y-11818476D02*
X12524048Y-11818476D01*
X12666905Y-11808952D02*
X12647857Y-11818476D01*
X12647857Y-11818476D02*
X12609762Y-11818476D01*
X12609762Y-11818476D02*
X12590714Y-11808952D01*
X12590714Y-11808952D02*
X12581191Y-11789905D01*
X12581191Y-11789905D02*
X12581191Y-11713714D01*
X12581191Y-11713714D02*
X12590714Y-11694667D01*
X12590714Y-11694667D02*
X12609762Y-11685143D01*
X12609762Y-11685143D02*
X12647857Y-11685143D01*
X12647857Y-11685143D02*
X12666905Y-11694667D01*
X12666905Y-11694667D02*
X12676429Y-11713714D01*
X12676429Y-11713714D02*
X12676429Y-11732762D01*
X12676429Y-11732762D02*
X12581191Y-11751809D01*
X12847857Y-11818476D02*
X12847857Y-11618476D01*
X12847857Y-11808952D02*
X12828810Y-11818476D01*
X12828810Y-11818476D02*
X12790714Y-11818476D01*
X12790714Y-11818476D02*
X12771667Y-11808952D01*
X12771667Y-11808952D02*
X12762143Y-11799428D01*
X12762143Y-11799428D02*
X12752619Y-11780381D01*
X12752619Y-11780381D02*
X12752619Y-11723238D01*
X12752619Y-11723238D02*
X12762143Y-11704190D01*
X12762143Y-11704190D02*
X12771667Y-11694667D01*
X12771667Y-11694667D02*
X12790714Y-11685143D01*
X12790714Y-11685143D02*
X12828810Y-11685143D01*
X12828810Y-11685143D02*
X12847857Y-11694667D01*
X12924048Y-11894667D02*
X12933572Y-11885143D01*
X12933572Y-11885143D02*
X12952619Y-11856571D01*
X12952619Y-11856571D02*
X12962143Y-11837524D01*
X12962143Y-11837524D02*
X12971667Y-11808952D01*
X12971667Y-11808952D02*
X12981191Y-11761333D01*
X12981191Y-11761333D02*
X12981191Y-11723238D01*
X12981191Y-11723238D02*
X12971667Y-11675619D01*
X12971667Y-11675619D02*
X12962143Y-11647048D01*
X12962143Y-11647048D02*
X12952619Y-11628000D01*
X12952619Y-11628000D02*
X12933572Y-11599428D01*
X12933572Y-11599428D02*
X12924048Y-11589905D01*
M02*
