  0
SECTION
  2
HEADER
  9
$ANGBASE
  50
0.0
  9
$ANGDIR
  70
  1
  9
$MEASUREMENT
  70
0
  0
ENDSEC
  0
SECTION
  2
TABLES
  0
TABLE
  2
LTYPE
  70
1
  0
LTYPE
  2
CONTINUOUS
  70
0
  3
Solid line
  72
65
  73
0
  40
0.0
  0
ENDTAB
  0
TABLE
  2
STYLE
  70
4
  0
STYLE
  2
KICAD
  70
0
  40
0
  41
1
  42
1
  50
0
  71
0
  3
isocp.shx
  0
STYLE
  2
KICADB
  70
0
  40
0
  41
1
  42
1
  50
0
  71
0
  3
isocp.shx
  0
STYLE
  2
KICADI
  70
0
  40
0
  41
1
  42
1
  50
15
  71
0
  3
isocp.shx
  0
STYLE
  2
KICADBI
  70
0
  40
0
  41
1
  42
1
  50
15
  71
0
  3
isocp.shx
  0
ENDTAB
  0
TABLE
  2
LAYER
  70
30
  0
LAYER
  2
BLACK
  70
0
  62
7
  6
CONTINUOUS
  0
LAYER
  2
GRAY1
  70
0
  62
251
  6
CONTINUOUS
  0
LAYER
  2
GRAY2
  70
0
  62
8
  6
CONTINUOUS
  0
LAYER
  2
GRAY3
  70
0
  62
9
  6
CONTINUOUS
  0
LAYER
  2
WHITE
  70
0
  62
7
  6
CONTINUOUS
  0
LAYER
  2
LYELLOW
  70
0
  62
51
  6
CONTINUOUS
  0
LAYER
  2
BLUE1
  70
0
  62
178
  6
CONTINUOUS
  0
LAYER
  2
GREEN1
  70
0
  62
98
  6
CONTINUOUS
  0
LAYER
  2
CYAN1
  70
0
  62
138
  6
CONTINUOUS
  0
LAYER
  2
RED1
  70
0
  62
18
  6
CONTINUOUS
  0
LAYER
  2
MAGENTA1
  70
0
  62
228
  6
CONTINUOUS
  0
LAYER
  2
BROWN1
  70
0
  62
58
  6
CONTINUOUS
  0
LAYER
  2
BLUE2
  70
0
  62
5
  6
CONTINUOUS
  0
LAYER
  2
GREEN2
  70
0
  62
3
  6
CONTINUOUS
  0
LAYER
  2
CYAN2
  70
0
  62
4
  6
CONTINUOUS
  0
LAYER
  2
RED2
  70
0
  62
1
  6
CONTINUOUS
  0
LAYER
  2
MAGENTA2
  70
0
  62
6
  6
CONTINUOUS
  0
LAYER
  2
BROWN2
  70
0
  62
54
  6
CONTINUOUS
  0
LAYER
  2
BLUE3
  70
0
  62
171
  6
CONTINUOUS
  0
LAYER
  2
GREEN3
  70
0
  62
91
  6
CONTINUOUS
  0
LAYER
  2
CYAN3
  70
0
  62
131
  6
CONTINUOUS
  0
LAYER
  2
RED3
  70
0
  62
11
  6
CONTINUOUS
  0
LAYER
  2
MAGENTA3
  70
0
  62
221
  6
CONTINUOUS
  0
LAYER
  2
YELLOW3
  70
0
  62
2
  6
CONTINUOUS
  0
LAYER
  2
BLUE4
  70
0
  62
5
  6
CONTINUOUS
  0
LAYER
  2
GREEN4
  70
0
  62
3
  6
CONTINUOUS
  0
LAYER
  2
CYAN4
  70
0
  62
4
  6
CONTINUOUS
  0
LAYER
  2
RED4
  70
0
  62
1
  6
CONTINUOUS
  0
LAYER
  2
MAGENTA4
  70
0
  62
6
  6
CONTINUOUS
  0
LAYER
  2
YELLOW4
  70
0
  62
2
  6
CONTINUOUS
  0
ENDTAB
  0
ENDSEC
  0
SECTION
  2
ENTITIES
0
LINE
8
Black
10
91.4465
20
-76.1261
11
91.453
21
-76.1261
0
LINE
8
Black
10
91.453
20
-76.1261
11
91.4592
21
-76.1284
0
LINE
8
Black
10
91.4592
20
-76.1284
11
91.4657
21
-76.1295
0
LINE
8
Black
10
91.4657
20
-76.1295
11
91.4713
21
-76.1328
0
LINE
8
Black
10
91.4713
20
-76.1328
11
91.4775
21
-76.135
0
LINE
8
Black
10
91.4775
20
-76.135
11
91.4825
21
-76.1393
0
LINE
8
Black
10
91.4825
20
-76.1393
11
91.4882
21
-76.1425
0
LINE
8
Black
10
91.4882
20
-76.1425
11
91.4924
21
-76.1476
0
LINE
8
Black
10
91.4924
20
-76.1476
11
91.4975
21
-76.1518
0
LINE
8
Black
10
91.4975
20
-76.1518
11
91.5007
21
-76.1575
0
LINE
8
Black
10
91.5007
20
-76.1575
11
91.505
21
-76.1625
0
LINE
8
Black
10
91.505
20
-76.1625
11
91.5072
21
-76.1687
0
LINE
8
Black
10
91.5072
20
-76.1687
11
91.5105
21
-76.1743
0
LINE
8
Black
10
91.5105
20
-76.1743
11
91.5116
21
-76.1808
0
LINE
8
Black
10
91.5116
20
-76.1808
11
91.5139
21
-76.187
0
LINE
8
Black
10
91.5139
20
-76.187
11
91.5139
21
-76.1935
0
LINE
8
Black
10
91.5139
20
-76.1935
11
91.515
21
-76.2
0
LINE
8
Black
10
91.515
20
-76.2
11
91.515
21
-111.685
0
LINE
8
Black
10
91.515
20
-111.685
11
462.28
21
-111.685
0
LINE
8
Black
10
462.28
20
-111.685
11
462.286
21
-111.686
0
LINE
8
Black
10
462.286
20
-111.686
11
462.293
21
-111.686
0
LINE
8
Black
10
462.293
20
-111.686
11
462.299
21
-111.688
0
LINE
8
Black
10
462.299
20
-111.688
11
462.306
21
-111.69
0
LINE
8
Black
10
462.306
20
-111.69
11
462.311
21
-111.693
0
LINE
8
Black
10
462.311
20
-111.693
11
462.317
21
-111.695
0
LINE
8
Black
10
462.317
20
-111.695
11
462.323
21
-111.699
0
LINE
8
Black
10
462.323
20
-111.699
11
462.328
21
-111.703
0
LINE
8
Black
10
462.328
20
-111.703
11
462.332
21
-111.708
0
LINE
8
Black
10
462.332
20
-111.708
11
462.337
21
-111.712
0
LINE
8
Black
10
462.337
20
-111.712
11
462.341
21
-111.717
0
LINE
8
Black
10
462.341
20
-111.717
11
462.345
21
-111.722
0
LINE
8
Black
10
462.345
20
-111.722
11
462.347
21
-111.729
0
LINE
8
Black
10
462.347
20
-111.729
11
462.35
21
-111.734
0
LINE
8
Black
10
462.35
20
-111.734
11
462.352
21
-111.741
0
LINE
8
Black
10
462.352
20
-111.741
11
462.354
21
-111.747
0
LINE
8
Black
10
462.354
20
-111.747
11
462.354
21
-111.754
0
LINE
8
Black
10
462.354
20
-111.754
11
462.355
21
-111.76
0
LINE
8
Black
10
462.355
20
-111.76
11
462.355
21
-198.12
0
LINE
8
Black
10
462.355
20
-198.12
11
462.354
21
-198.126
0
LINE
8
Black
10
462.354
20
-198.126
11
462.354
21
-198.133
0
LINE
8
Black
10
462.354
20
-198.133
11
462.352
21
-198.139
0
LINE
8
Black
10
462.352
20
-198.139
11
462.35
21
-198.146
0
LINE
8
Black
10
462.35
20
-198.146
11
462.347
21
-198.151
0
LINE
8
Black
10
462.347
20
-198.151
11
462.345
21
-198.157
0
LINE
8
Black
10
462.345
20
-198.157
11
462.341
21
-198.163
0
LINE
8
Black
10
462.341
20
-198.163
11
462.337
21
-198.168
0
LINE
8
Black
10
462.337
20
-198.168
11
462.332
21
-198.172
0
LINE
8
Black
10
462.332
20
-198.172
11
462.328
21
-198.177
0
LINE
8
Black
10
462.328
20
-198.177
11
462.323
21
-198.181
0
LINE
8
Black
10
462.323
20
-198.181
11
462.317
21
-198.185
0
LINE
8
Black
10
462.317
20
-198.185
11
462.311
21
-198.187
0
LINE
8
Black
10
462.311
20
-198.187
11
462.306
21
-198.19
0
LINE
8
Black
10
462.306
20
-198.19
11
462.299
21
-198.192
0
LINE
8
Black
10
462.299
20
-198.192
11
462.293
21
-198.194
0
LINE
8
Black
10
462.293
20
-198.194
11
462.286
21
-198.194
0
LINE
8
Black
10
462.286
20
-198.194
11
462.28
21
-198.195
0
LINE
8
Black
10
462.28
20
-198.195
11
40.64
21
-198.195
0
LINE
8
Black
10
40.64
20
-198.195
11
40.6335
21
-198.194
0
LINE
8
Black
10
40.6335
20
-198.194
11
40.627
21
-198.194
0
LINE
8
Black
10
40.627
20
-198.194
11
40.6208
21
-198.192
0
LINE
8
Black
10
40.6208
20
-198.192
11
40.6143
21
-198.19
0
LINE
8
Black
10
40.6143
20
-198.19
11
40.6087
21
-198.187
0
LINE
8
Black
10
40.6087
20
-198.187
11
40.6025
21
-198.185
0
LINE
8
Black
10
40.6025
20
-198.185
11
40.5975
21
-198.181
0
LINE
8
Black
10
40.5975
20
-198.181
11
40.5918
21
-198.177
0
LINE
8
Black
10
40.5918
20
-198.177
11
40.5876
21
-198.172
0
LINE
8
Black
10
40.5876
20
-198.172
11
40.5825
21
-198.168
0
LINE
8
Black
10
40.5825
20
-198.168
11
40.5793
21
-198.163
0
LINE
8
Black
10
40.5793
20
-198.163
11
40.575
21
-198.157
0
LINE
8
Black
10
40.575
20
-198.157
11
40.5728
21
-198.151
0
LINE
8
Black
10
40.5728
20
-198.151
11
40.5695
21
-198.146
0
LINE
8
Black
10
40.5695
20
-198.146
11
40.5684
21
-198.139
0
LINE
8
Black
10
40.5684
20
-198.139
11
40.5661
21
-198.133
0
LINE
8
Black
10
40.5661
20
-198.133
11
40.5661
21
-198.126
0
LINE
8
Black
10
40.5661
20
-198.126
11
40.565
21
-198.12
0
LINE
8
Black
10
40.565
20
-198.12
11
40.565
21
-76.2
0
LINE
8
Black
10
40.565
20
-76.2
11
40.5661
21
-76.1935
0
LINE
8
Black
10
40.5661
20
-76.1935
11
40.5661
21
-76.187
0
LINE
8
Black
10
40.5661
20
-76.187
11
40.5684
21
-76.1808
0
LINE
8
Black
10
40.5684
20
-76.1808
11
40.5695
21
-76.1743
0
LINE
8
Black
10
40.5695
20
-76.1743
11
40.5728
21
-76.1687
0
LINE
8
Black
10
40.5728
20
-76.1687
11
40.575
21
-76.1625
0
LINE
8
Black
10
40.575
20
-76.1625
11
40.5793
21
-76.1575
0
LINE
8
Black
10
40.5793
20
-76.1575
11
40.5825
21
-76.1518
0
LINE
8
Black
10
40.5825
20
-76.1518
11
40.5876
21
-76.1476
0
LINE
8
Black
10
40.5876
20
-76.1476
11
40.5918
21
-76.1425
0
LINE
8
Black
10
40.5918
20
-76.1425
11
40.5975
21
-76.1393
0
LINE
8
Black
10
40.5975
20
-76.1393
11
40.6025
21
-76.135
0
LINE
8
Black
10
40.6025
20
-76.135
11
40.6087
21
-76.1328
0
LINE
8
Black
10
40.6087
20
-76.1328
11
40.6143
21
-76.1295
0
LINE
8
Black
10
40.6143
20
-76.1295
11
40.6208
21
-76.1284
0
LINE
8
Black
10
40.6208
20
-76.1284
11
40.627
21
-76.1261
0
LINE
8
Black
10
40.627
20
-76.1261
11
40.6335
21
-76.1261
0
LINE
8
Black
10
40.6335
20
-76.1261
11
40.64
21
-76.125
0
LINE
8
Black
10
40.64
20
-76.125
11
91.44
21
-76.125
0
LINE
8
Black
10
91.44
20
-76.125
11
91.4465
21
-76.1261
0
LINE
8
Black
10
40.715
20
-76.275
11
40.715
21
-198.045
0
LINE
8
Black
10
40.715
20
-198.045
11
462.205
21
-198.045
0
LINE
8
Black
10
462.205
20
-198.045
11
462.205
21
-111.835
0
LINE
8
Black
10
462.205
20
-111.835
11
91.44
21
-111.835
0
LINE
8
Black
10
91.44
20
-111.835
11
91.4335
21
-111.834
0
LINE
8
Black
10
91.4335
20
-111.834
11
91.427
21
-111.834
0
LINE
8
Black
10
91.427
20
-111.834
11
91.4208
21
-111.832
0
LINE
8
Black
10
91.4208
20
-111.832
11
91.4143
21
-111.83
0
LINE
8
Black
10
91.4143
20
-111.83
11
91.4087
21
-111.827
0
LINE
8
Black
10
91.4087
20
-111.827
11
91.4025
21
-111.825
0
LINE
8
Black
10
91.4025
20
-111.825
11
91.3975
21
-111.821
0
LINE
8
Black
10
91.3975
20
-111.821
11
91.3918
21
-111.817
0
LINE
8
Black
10
91.3918
20
-111.817
11
91.3876
21
-111.812
0
LINE
8
Black
10
91.3876
20
-111.812
11
91.3825
21
-111.808
0
LINE
8
Black
10
91.3825
20
-111.808
11
91.3793
21
-111.803
0
LINE
8
Black
10
91.3793
20
-111.803
11
91.375
21
-111.797
0
LINE
8
Black
10
91.375
20
-111.797
11
91.3728
21
-111.791
0
LINE
8
Black
10
91.3728
20
-111.791
11
91.3695
21
-111.786
0
LINE
8
Black
10
91.3695
20
-111.786
11
91.3684
21
-111.779
0
LINE
8
Black
10
91.3684
20
-111.779
11
91.3661
21
-111.773
0
LINE
8
Black
10
91.3661
20
-111.773
11
91.3661
21
-111.766
0
LINE
8
Black
10
91.3661
20
-111.766
11
91.365
21
-111.76
0
LINE
8
Black
10
91.365
20
-111.76
11
91.365
21
-76.275
0
LINE
8
Black
10
91.365
20
-76.275
11
40.715
21
-76.275
  0
ENDSEC
  0
EOF
