%TF.GenerationSoftware,KiCad,Pcbnew,(7.0.0)*%
%TF.CreationDate,2023-05-19T01:27:41+02:00*%
%TF.ProjectId,Pot-X2,506f742d-5832-42e6-9b69-6361645f7063,rev?*%
%TF.SameCoordinates,Original*%
%TF.FileFunction,Drillmap*%
%TF.FilePolarity,Positive*%
%FSLAX45Y45*%
G04 Gerber Fmt 4.5, Leading zero omitted, Abs format (unit mm)*
G04 Created by KiCad (PCBNEW (7.0.0)) date 2023-05-19 01:27:41*
%MOMM*%
%LPD*%
G01*
G04 APERTURE LIST*
%ADD10C,0.100000*%
%ADD11C,0.200000*%
%ADD12C,0.050000*%
%ADD13C,0.320000*%
G04 APERTURE END LIST*
D10*
X16200000Y-11100000D02*
X6190000Y-11100000D01*
X6190000Y-1100000D01*
X16200000Y-1100000D01*
X16200000Y-11100000D01*
D11*
D12*
X7875000Y-6075000D02*
X7925000Y-6125000D01*
X7925000Y-6075000D02*
X7875000Y-6125000D01*
D11*
X6425000Y-6125000D02*
X9375000Y-6125000D01*
X9375000Y-6125000D02*
G75*
G03*
X9375000Y-6075000I0J25000D01*
G01*
X9375000Y-6075000D02*
X6425000Y-6075000D01*
X6425000Y-6075000D02*
G75*
G03*
X6425000Y-6125000I0J-25000D01*
G01*
D12*
X7875000Y-6075000D02*
X7925000Y-6125000D01*
X7925000Y-6075000D02*
X7875000Y-6125000D01*
D11*
X6425000Y-6125000D02*
X9375000Y-6125000D01*
X9375000Y-6125000D02*
G75*
G03*
X9375000Y-6075000I0J25000D01*
G01*
X9375000Y-6075000D02*
X6425000Y-6075000D01*
X6425000Y-6075000D02*
G75*
G03*
X6425000Y-6125000I0J-25000D01*
G01*
D12*
X11175000Y-6075000D02*
X11225000Y-6125000D01*
X11225000Y-6075000D02*
X11175000Y-6125000D01*
D11*
X9725000Y-6125000D02*
X12675000Y-6125000D01*
X12675000Y-6125000D02*
G75*
G03*
X12675000Y-6075000I0J25000D01*
G01*
X12675000Y-6075000D02*
X9725000Y-6075000D01*
X9725000Y-6075000D02*
G75*
G03*
X9725000Y-6125000I0J-25000D01*
G01*
D12*
X11175000Y-6075000D02*
X11225000Y-6125000D01*
X11225000Y-6075000D02*
X11175000Y-6125000D01*
D11*
X9725000Y-6125000D02*
X12675000Y-6125000D01*
X12675000Y-6125000D02*
G75*
G03*
X12675000Y-6075000I0J25000D01*
G01*
X12675000Y-6075000D02*
X9725000Y-6075000D01*
X9725000Y-6075000D02*
G75*
G03*
X9725000Y-6125000I0J-25000D01*
G01*
D12*
X14475000Y-6075000D02*
X14525000Y-6125000D01*
X14525000Y-6075000D02*
X14475000Y-6125000D01*
D11*
X13025000Y-6125000D02*
X15975000Y-6125000D01*
X15975000Y-6125000D02*
G75*
G03*
X15975000Y-6075000I0J25000D01*
G01*
X15975000Y-6075000D02*
X13025000Y-6075000D01*
X13025000Y-6075000D02*
G75*
G03*
X13025000Y-6125000I0J-25000D01*
G01*
D12*
X14475000Y-6075000D02*
X14525000Y-6125000D01*
X14525000Y-6075000D02*
X14475000Y-6125000D01*
D11*
X13025000Y-6125000D02*
X15975000Y-6125000D01*
X15975000Y-6125000D02*
G75*
G03*
X15975000Y-6075000I0J25000D01*
G01*
X15975000Y-6075000D02*
X13025000Y-6075000D01*
X13025000Y-6075000D02*
G75*
G03*
X13025000Y-6125000I0J-25000D01*
G01*
D13*
X6760000Y-1500000D02*
G75*
G03*
X6760000Y-1500000I-160000J0D01*
G01*
X6760000Y-5700000D02*
G75*
G03*
X6760000Y-5700000I-160000J0D01*
G01*
X6760000Y-6500000D02*
G75*
G03*
X6760000Y-6500000I-160000J0D01*
G01*
X6760000Y-10700000D02*
G75*
G03*
X6760000Y-10700000I-160000J0D01*
G01*
X8860000Y-2350000D02*
G75*
G03*
X8860000Y-2350000I-160000J0D01*
G01*
X8860000Y-4850000D02*
G75*
G03*
X8860000Y-4850000I-160000J0D01*
G01*
X8860000Y-7350000D02*
G75*
G03*
X8860000Y-7350000I-160000J0D01*
G01*
X8860000Y-9850000D02*
G75*
G03*
X8860000Y-9850000I-160000J0D01*
G01*
X11360000Y-2350000D02*
G75*
G03*
X11360000Y-2350000I-160000J0D01*
G01*
X11360000Y-4850000D02*
G75*
G03*
X11360000Y-4850000I-160000J0D01*
G01*
X11360000Y-7350000D02*
G75*
G03*
X11360000Y-7350000I-160000J0D01*
G01*
X11360000Y-9850000D02*
G75*
G03*
X11360000Y-9850000I-160000J0D01*
G01*
X13860000Y-2350000D02*
G75*
G03*
X13860000Y-2350000I-160000J0D01*
G01*
X13860000Y-4850000D02*
G75*
G03*
X13860000Y-4850000I-160000J0D01*
G01*
X13860000Y-7350000D02*
G75*
G03*
X13860000Y-7350000I-160000J0D01*
G01*
X13860000Y-9850000D02*
G75*
G03*
X13860000Y-9850000I-160000J0D01*
G01*
X15960000Y-1500000D02*
G75*
G03*
X15960000Y-1500000I-160000J0D01*
G01*
X15960000Y-5700000D02*
G75*
G03*
X15960000Y-5700000I-160000J0D01*
G01*
X15960000Y-6500000D02*
G75*
G03*
X15960000Y-6500000I-160000J0D01*
G01*
X15960000Y-10700000D02*
G75*
G03*
X15960000Y-10700000I-160000J0D01*
G01*
D11*
X6432619Y-11398476D02*
X6432619Y-11198476D01*
X6432619Y-11198476D02*
X6480238Y-11198476D01*
X6480238Y-11198476D02*
X6508809Y-11208000D01*
X6508809Y-11208000D02*
X6527857Y-11227048D01*
X6527857Y-11227048D02*
X6537381Y-11246095D01*
X6537381Y-11246095D02*
X6546905Y-11284190D01*
X6546905Y-11284190D02*
X6546905Y-11312762D01*
X6546905Y-11312762D02*
X6537381Y-11350857D01*
X6537381Y-11350857D02*
X6527857Y-11369905D01*
X6527857Y-11369905D02*
X6508809Y-11388952D01*
X6508809Y-11388952D02*
X6480238Y-11398476D01*
X6480238Y-11398476D02*
X6432619Y-11398476D01*
X6632619Y-11398476D02*
X6632619Y-11265143D01*
X6632619Y-11303238D02*
X6642143Y-11284190D01*
X6642143Y-11284190D02*
X6651667Y-11274667D01*
X6651667Y-11274667D02*
X6670714Y-11265143D01*
X6670714Y-11265143D02*
X6689762Y-11265143D01*
X6756428Y-11398476D02*
X6756428Y-11265143D01*
X6756428Y-11198476D02*
X6746905Y-11208000D01*
X6746905Y-11208000D02*
X6756428Y-11217524D01*
X6756428Y-11217524D02*
X6765952Y-11208000D01*
X6765952Y-11208000D02*
X6756428Y-11198476D01*
X6756428Y-11198476D02*
X6756428Y-11217524D01*
X6880238Y-11398476D02*
X6861190Y-11388952D01*
X6861190Y-11388952D02*
X6851667Y-11369905D01*
X6851667Y-11369905D02*
X6851667Y-11198476D01*
X6985000Y-11398476D02*
X6965952Y-11388952D01*
X6965952Y-11388952D02*
X6956428Y-11369905D01*
X6956428Y-11369905D02*
X6956428Y-11198476D01*
X7181190Y-11398476D02*
X7181190Y-11198476D01*
X7181190Y-11198476D02*
X7247857Y-11341333D01*
X7247857Y-11341333D02*
X7314524Y-11198476D01*
X7314524Y-11198476D02*
X7314524Y-11398476D01*
X7495476Y-11398476D02*
X7495476Y-11293714D01*
X7495476Y-11293714D02*
X7485952Y-11274667D01*
X7485952Y-11274667D02*
X7466905Y-11265143D01*
X7466905Y-11265143D02*
X7428809Y-11265143D01*
X7428809Y-11265143D02*
X7409762Y-11274667D01*
X7495476Y-11388952D02*
X7476428Y-11398476D01*
X7476428Y-11398476D02*
X7428809Y-11398476D01*
X7428809Y-11398476D02*
X7409762Y-11388952D01*
X7409762Y-11388952D02*
X7400238Y-11369905D01*
X7400238Y-11369905D02*
X7400238Y-11350857D01*
X7400238Y-11350857D02*
X7409762Y-11331809D01*
X7409762Y-11331809D02*
X7428809Y-11322286D01*
X7428809Y-11322286D02*
X7476428Y-11322286D01*
X7476428Y-11322286D02*
X7495476Y-11312762D01*
X7590714Y-11265143D02*
X7590714Y-11465143D01*
X7590714Y-11274667D02*
X7609762Y-11265143D01*
X7609762Y-11265143D02*
X7647857Y-11265143D01*
X7647857Y-11265143D02*
X7666905Y-11274667D01*
X7666905Y-11274667D02*
X7676428Y-11284190D01*
X7676428Y-11284190D02*
X7685952Y-11303238D01*
X7685952Y-11303238D02*
X7685952Y-11360381D01*
X7685952Y-11360381D02*
X7676428Y-11379428D01*
X7676428Y-11379428D02*
X7666905Y-11388952D01*
X7666905Y-11388952D02*
X7647857Y-11398476D01*
X7647857Y-11398476D02*
X7609762Y-11398476D01*
X7609762Y-11398476D02*
X7590714Y-11388952D01*
X7771667Y-11379428D02*
X7781190Y-11388952D01*
X7781190Y-11388952D02*
X7771667Y-11398476D01*
X7771667Y-11398476D02*
X7762143Y-11388952D01*
X7762143Y-11388952D02*
X7771667Y-11379428D01*
X7771667Y-11379428D02*
X7771667Y-11398476D01*
X7771667Y-11274667D02*
X7781190Y-11284190D01*
X7781190Y-11284190D02*
X7771667Y-11293714D01*
X7771667Y-11293714D02*
X7762143Y-11284190D01*
X7762143Y-11284190D02*
X7771667Y-11274667D01*
X7771667Y-11274667D02*
X7771667Y-11293714D01*
D12*
X6135000Y-11720000D02*
X6185000Y-11770000D01*
X6185000Y-11720000D02*
X6135000Y-11770000D01*
D11*
X6470714Y-11618476D02*
X6489762Y-11618476D01*
X6489762Y-11618476D02*
X6508809Y-11628000D01*
X6508809Y-11628000D02*
X6518333Y-11637524D01*
X6518333Y-11637524D02*
X6527857Y-11656571D01*
X6527857Y-11656571D02*
X6537381Y-11694667D01*
X6537381Y-11694667D02*
X6537381Y-11742286D01*
X6537381Y-11742286D02*
X6527857Y-11780381D01*
X6527857Y-11780381D02*
X6518333Y-11799428D01*
X6518333Y-11799428D02*
X6508809Y-11808952D01*
X6508809Y-11808952D02*
X6489762Y-11818476D01*
X6489762Y-11818476D02*
X6470714Y-11818476D01*
X6470714Y-11818476D02*
X6451667Y-11808952D01*
X6451667Y-11808952D02*
X6442143Y-11799428D01*
X6442143Y-11799428D02*
X6432619Y-11780381D01*
X6432619Y-11780381D02*
X6423095Y-11742286D01*
X6423095Y-11742286D02*
X6423095Y-11694667D01*
X6423095Y-11694667D02*
X6432619Y-11656571D01*
X6432619Y-11656571D02*
X6442143Y-11637524D01*
X6442143Y-11637524D02*
X6451667Y-11628000D01*
X6451667Y-11628000D02*
X6470714Y-11618476D01*
X6623095Y-11799428D02*
X6632619Y-11808952D01*
X6632619Y-11808952D02*
X6623095Y-11818476D01*
X6623095Y-11818476D02*
X6613571Y-11808952D01*
X6613571Y-11808952D02*
X6623095Y-11799428D01*
X6623095Y-11799428D02*
X6623095Y-11818476D01*
X6813571Y-11618476D02*
X6718333Y-11618476D01*
X6718333Y-11618476D02*
X6708809Y-11713714D01*
X6708809Y-11713714D02*
X6718333Y-11704190D01*
X6718333Y-11704190D02*
X6737381Y-11694667D01*
X6737381Y-11694667D02*
X6785000Y-11694667D01*
X6785000Y-11694667D02*
X6804048Y-11704190D01*
X6804048Y-11704190D02*
X6813571Y-11713714D01*
X6813571Y-11713714D02*
X6823095Y-11732762D01*
X6823095Y-11732762D02*
X6823095Y-11780381D01*
X6823095Y-11780381D02*
X6813571Y-11799428D01*
X6813571Y-11799428D02*
X6804048Y-11808952D01*
X6804048Y-11808952D02*
X6785000Y-11818476D01*
X6785000Y-11818476D02*
X6737381Y-11818476D01*
X6737381Y-11818476D02*
X6718333Y-11808952D01*
X6718333Y-11808952D02*
X6708809Y-11799428D01*
X6946905Y-11618476D02*
X6965952Y-11618476D01*
X6965952Y-11618476D02*
X6985000Y-11628000D01*
X6985000Y-11628000D02*
X6994524Y-11637524D01*
X6994524Y-11637524D02*
X7004048Y-11656571D01*
X7004048Y-11656571D02*
X7013571Y-11694667D01*
X7013571Y-11694667D02*
X7013571Y-11742286D01*
X7013571Y-11742286D02*
X7004048Y-11780381D01*
X7004048Y-11780381D02*
X6994524Y-11799428D01*
X6994524Y-11799428D02*
X6985000Y-11808952D01*
X6985000Y-11808952D02*
X6965952Y-11818476D01*
X6965952Y-11818476D02*
X6946905Y-11818476D01*
X6946905Y-11818476D02*
X6927857Y-11808952D01*
X6927857Y-11808952D02*
X6918333Y-11799428D01*
X6918333Y-11799428D02*
X6908809Y-11780381D01*
X6908809Y-11780381D02*
X6899286Y-11742286D01*
X6899286Y-11742286D02*
X6899286Y-11694667D01*
X6899286Y-11694667D02*
X6908809Y-11656571D01*
X6908809Y-11656571D02*
X6918333Y-11637524D01*
X6918333Y-11637524D02*
X6927857Y-11628000D01*
X6927857Y-11628000D02*
X6946905Y-11618476D01*
X7137381Y-11618476D02*
X7156429Y-11618476D01*
X7156429Y-11618476D02*
X7175476Y-11628000D01*
X7175476Y-11628000D02*
X7185000Y-11637524D01*
X7185000Y-11637524D02*
X7194524Y-11656571D01*
X7194524Y-11656571D02*
X7204048Y-11694667D01*
X7204048Y-11694667D02*
X7204048Y-11742286D01*
X7204048Y-11742286D02*
X7194524Y-11780381D01*
X7194524Y-11780381D02*
X7185000Y-11799428D01*
X7185000Y-11799428D02*
X7175476Y-11808952D01*
X7175476Y-11808952D02*
X7156429Y-11818476D01*
X7156429Y-11818476D02*
X7137381Y-11818476D01*
X7137381Y-11818476D02*
X7118333Y-11808952D01*
X7118333Y-11808952D02*
X7108809Y-11799428D01*
X7108809Y-11799428D02*
X7099286Y-11780381D01*
X7099286Y-11780381D02*
X7089762Y-11742286D01*
X7089762Y-11742286D02*
X7089762Y-11694667D01*
X7089762Y-11694667D02*
X7099286Y-11656571D01*
X7099286Y-11656571D02*
X7108809Y-11637524D01*
X7108809Y-11637524D02*
X7118333Y-11628000D01*
X7118333Y-11628000D02*
X7137381Y-11618476D01*
X7289762Y-11818476D02*
X7289762Y-11685143D01*
X7289762Y-11704190D02*
X7299286Y-11694667D01*
X7299286Y-11694667D02*
X7318333Y-11685143D01*
X7318333Y-11685143D02*
X7346905Y-11685143D01*
X7346905Y-11685143D02*
X7365952Y-11694667D01*
X7365952Y-11694667D02*
X7375476Y-11713714D01*
X7375476Y-11713714D02*
X7375476Y-11818476D01*
X7375476Y-11713714D02*
X7385000Y-11694667D01*
X7385000Y-11694667D02*
X7404048Y-11685143D01*
X7404048Y-11685143D02*
X7432619Y-11685143D01*
X7432619Y-11685143D02*
X7451667Y-11694667D01*
X7451667Y-11694667D02*
X7461190Y-11713714D01*
X7461190Y-11713714D02*
X7461190Y-11818476D01*
X7556429Y-11818476D02*
X7556429Y-11685143D01*
X7556429Y-11704190D02*
X7565952Y-11694667D01*
X7565952Y-11694667D02*
X7585000Y-11685143D01*
X7585000Y-11685143D02*
X7613571Y-11685143D01*
X7613571Y-11685143D02*
X7632619Y-11694667D01*
X7632619Y-11694667D02*
X7642143Y-11713714D01*
X7642143Y-11713714D02*
X7642143Y-11818476D01*
X7642143Y-11713714D02*
X7651667Y-11694667D01*
X7651667Y-11694667D02*
X7670714Y-11685143D01*
X7670714Y-11685143D02*
X7699286Y-11685143D01*
X7699286Y-11685143D02*
X7718333Y-11694667D01*
X7718333Y-11694667D02*
X7727857Y-11713714D01*
X7727857Y-11713714D02*
X7727857Y-11818476D01*
X8085952Y-11608952D02*
X7914524Y-11866095D01*
X8310714Y-11618476D02*
X8329762Y-11618476D01*
X8329762Y-11618476D02*
X8348810Y-11628000D01*
X8348810Y-11628000D02*
X8358333Y-11637524D01*
X8358333Y-11637524D02*
X8367857Y-11656571D01*
X8367857Y-11656571D02*
X8377381Y-11694667D01*
X8377381Y-11694667D02*
X8377381Y-11742286D01*
X8377381Y-11742286D02*
X8367857Y-11780381D01*
X8367857Y-11780381D02*
X8358333Y-11799428D01*
X8358333Y-11799428D02*
X8348810Y-11808952D01*
X8348810Y-11808952D02*
X8329762Y-11818476D01*
X8329762Y-11818476D02*
X8310714Y-11818476D01*
X8310714Y-11818476D02*
X8291667Y-11808952D01*
X8291667Y-11808952D02*
X8282143Y-11799428D01*
X8282143Y-11799428D02*
X8272619Y-11780381D01*
X8272619Y-11780381D02*
X8263095Y-11742286D01*
X8263095Y-11742286D02*
X8263095Y-11694667D01*
X8263095Y-11694667D02*
X8272619Y-11656571D01*
X8272619Y-11656571D02*
X8282143Y-11637524D01*
X8282143Y-11637524D02*
X8291667Y-11628000D01*
X8291667Y-11628000D02*
X8310714Y-11618476D01*
X8463095Y-11799428D02*
X8472619Y-11808952D01*
X8472619Y-11808952D02*
X8463095Y-11818476D01*
X8463095Y-11818476D02*
X8453572Y-11808952D01*
X8453572Y-11808952D02*
X8463095Y-11799428D01*
X8463095Y-11799428D02*
X8463095Y-11818476D01*
X8596429Y-11618476D02*
X8615476Y-11618476D01*
X8615476Y-11618476D02*
X8634524Y-11628000D01*
X8634524Y-11628000D02*
X8644048Y-11637524D01*
X8644048Y-11637524D02*
X8653572Y-11656571D01*
X8653572Y-11656571D02*
X8663095Y-11694667D01*
X8663095Y-11694667D02*
X8663095Y-11742286D01*
X8663095Y-11742286D02*
X8653572Y-11780381D01*
X8653572Y-11780381D02*
X8644048Y-11799428D01*
X8644048Y-11799428D02*
X8634524Y-11808952D01*
X8634524Y-11808952D02*
X8615476Y-11818476D01*
X8615476Y-11818476D02*
X8596429Y-11818476D01*
X8596429Y-11818476D02*
X8577381Y-11808952D01*
X8577381Y-11808952D02*
X8567857Y-11799428D01*
X8567857Y-11799428D02*
X8558333Y-11780381D01*
X8558333Y-11780381D02*
X8548810Y-11742286D01*
X8548810Y-11742286D02*
X8548810Y-11694667D01*
X8548810Y-11694667D02*
X8558333Y-11656571D01*
X8558333Y-11656571D02*
X8567857Y-11637524D01*
X8567857Y-11637524D02*
X8577381Y-11628000D01*
X8577381Y-11628000D02*
X8596429Y-11618476D01*
X8853572Y-11818476D02*
X8739286Y-11818476D01*
X8796429Y-11818476D02*
X8796429Y-11618476D01*
X8796429Y-11618476D02*
X8777381Y-11647048D01*
X8777381Y-11647048D02*
X8758333Y-11666095D01*
X8758333Y-11666095D02*
X8739286Y-11675619D01*
X8948810Y-11818476D02*
X8986905Y-11818476D01*
X8986905Y-11818476D02*
X9005953Y-11808952D01*
X9005953Y-11808952D02*
X9015476Y-11799428D01*
X9015476Y-11799428D02*
X9034524Y-11770857D01*
X9034524Y-11770857D02*
X9044048Y-11732762D01*
X9044048Y-11732762D02*
X9044048Y-11656571D01*
X9044048Y-11656571D02*
X9034524Y-11637524D01*
X9034524Y-11637524D02*
X9025000Y-11628000D01*
X9025000Y-11628000D02*
X9005953Y-11618476D01*
X9005953Y-11618476D02*
X8967857Y-11618476D01*
X8967857Y-11618476D02*
X8948810Y-11628000D01*
X8948810Y-11628000D02*
X8939286Y-11637524D01*
X8939286Y-11637524D02*
X8929762Y-11656571D01*
X8929762Y-11656571D02*
X8929762Y-11704190D01*
X8929762Y-11704190D02*
X8939286Y-11723238D01*
X8939286Y-11723238D02*
X8948810Y-11732762D01*
X8948810Y-11732762D02*
X8967857Y-11742286D01*
X8967857Y-11742286D02*
X9005953Y-11742286D01*
X9005953Y-11742286D02*
X9025000Y-11732762D01*
X9025000Y-11732762D02*
X9034524Y-11723238D01*
X9034524Y-11723238D02*
X9044048Y-11704190D01*
X9110714Y-11618476D02*
X9244048Y-11618476D01*
X9244048Y-11618476D02*
X9158333Y-11818476D01*
X9310714Y-11618476D02*
X9310714Y-11656571D01*
X9386905Y-11618476D02*
X9386905Y-11656571D01*
X9649762Y-11894667D02*
X9640238Y-11885143D01*
X9640238Y-11885143D02*
X9621191Y-11856571D01*
X9621191Y-11856571D02*
X9611667Y-11837524D01*
X9611667Y-11837524D02*
X9602143Y-11808952D01*
X9602143Y-11808952D02*
X9592619Y-11761333D01*
X9592619Y-11761333D02*
X9592619Y-11723238D01*
X9592619Y-11723238D02*
X9602143Y-11675619D01*
X9602143Y-11675619D02*
X9611667Y-11647048D01*
X9611667Y-11647048D02*
X9621191Y-11628000D01*
X9621191Y-11628000D02*
X9640238Y-11599428D01*
X9640238Y-11599428D02*
X9649762Y-11589905D01*
X9764048Y-11618476D02*
X9783095Y-11618476D01*
X9783095Y-11618476D02*
X9802143Y-11628000D01*
X9802143Y-11628000D02*
X9811667Y-11637524D01*
X9811667Y-11637524D02*
X9821191Y-11656571D01*
X9821191Y-11656571D02*
X9830714Y-11694667D01*
X9830714Y-11694667D02*
X9830714Y-11742286D01*
X9830714Y-11742286D02*
X9821191Y-11780381D01*
X9821191Y-11780381D02*
X9811667Y-11799428D01*
X9811667Y-11799428D02*
X9802143Y-11808952D01*
X9802143Y-11808952D02*
X9783095Y-11818476D01*
X9783095Y-11818476D02*
X9764048Y-11818476D01*
X9764048Y-11818476D02*
X9745000Y-11808952D01*
X9745000Y-11808952D02*
X9735476Y-11799428D01*
X9735476Y-11799428D02*
X9725953Y-11780381D01*
X9725953Y-11780381D02*
X9716429Y-11742286D01*
X9716429Y-11742286D02*
X9716429Y-11694667D01*
X9716429Y-11694667D02*
X9725953Y-11656571D01*
X9725953Y-11656571D02*
X9735476Y-11637524D01*
X9735476Y-11637524D02*
X9745000Y-11628000D01*
X9745000Y-11628000D02*
X9764048Y-11618476D01*
X10036429Y-11818476D02*
X10036429Y-11618476D01*
X10122143Y-11818476D02*
X10122143Y-11713714D01*
X10122143Y-11713714D02*
X10112619Y-11694667D01*
X10112619Y-11694667D02*
X10093572Y-11685143D01*
X10093572Y-11685143D02*
X10065000Y-11685143D01*
X10065000Y-11685143D02*
X10045953Y-11694667D01*
X10045953Y-11694667D02*
X10036429Y-11704190D01*
X10245953Y-11818476D02*
X10226905Y-11808952D01*
X10226905Y-11808952D02*
X10217381Y-11799428D01*
X10217381Y-11799428D02*
X10207857Y-11780381D01*
X10207857Y-11780381D02*
X10207857Y-11723238D01*
X10207857Y-11723238D02*
X10217381Y-11704190D01*
X10217381Y-11704190D02*
X10226905Y-11694667D01*
X10226905Y-11694667D02*
X10245953Y-11685143D01*
X10245953Y-11685143D02*
X10274524Y-11685143D01*
X10274524Y-11685143D02*
X10293572Y-11694667D01*
X10293572Y-11694667D02*
X10303095Y-11704190D01*
X10303095Y-11704190D02*
X10312619Y-11723238D01*
X10312619Y-11723238D02*
X10312619Y-11780381D01*
X10312619Y-11780381D02*
X10303095Y-11799428D01*
X10303095Y-11799428D02*
X10293572Y-11808952D01*
X10293572Y-11808952D02*
X10274524Y-11818476D01*
X10274524Y-11818476D02*
X10245953Y-11818476D01*
X10426905Y-11818476D02*
X10407857Y-11808952D01*
X10407857Y-11808952D02*
X10398334Y-11789905D01*
X10398334Y-11789905D02*
X10398334Y-11618476D01*
X10579286Y-11808952D02*
X10560238Y-11818476D01*
X10560238Y-11818476D02*
X10522143Y-11818476D01*
X10522143Y-11818476D02*
X10503095Y-11808952D01*
X10503095Y-11808952D02*
X10493572Y-11789905D01*
X10493572Y-11789905D02*
X10493572Y-11713714D01*
X10493572Y-11713714D02*
X10503095Y-11694667D01*
X10503095Y-11694667D02*
X10522143Y-11685143D01*
X10522143Y-11685143D02*
X10560238Y-11685143D01*
X10560238Y-11685143D02*
X10579286Y-11694667D01*
X10579286Y-11694667D02*
X10588810Y-11713714D01*
X10588810Y-11713714D02*
X10588810Y-11732762D01*
X10588810Y-11732762D02*
X10493572Y-11751809D01*
X10665000Y-11808952D02*
X10684048Y-11818476D01*
X10684048Y-11818476D02*
X10722143Y-11818476D01*
X10722143Y-11818476D02*
X10741191Y-11808952D01*
X10741191Y-11808952D02*
X10750715Y-11789905D01*
X10750715Y-11789905D02*
X10750715Y-11780381D01*
X10750715Y-11780381D02*
X10741191Y-11761333D01*
X10741191Y-11761333D02*
X10722143Y-11751809D01*
X10722143Y-11751809D02*
X10693572Y-11751809D01*
X10693572Y-11751809D02*
X10674524Y-11742286D01*
X10674524Y-11742286D02*
X10665000Y-11723238D01*
X10665000Y-11723238D02*
X10665000Y-11713714D01*
X10665000Y-11713714D02*
X10674524Y-11694667D01*
X10674524Y-11694667D02*
X10693572Y-11685143D01*
X10693572Y-11685143D02*
X10722143Y-11685143D01*
X10722143Y-11685143D02*
X10741191Y-11694667D01*
X10956429Y-11742286D02*
X11108810Y-11742286D01*
X11032619Y-11818476D02*
X11032619Y-11666095D01*
X11409762Y-11618476D02*
X11371667Y-11618476D01*
X11371667Y-11618476D02*
X11352619Y-11628000D01*
X11352619Y-11628000D02*
X11343095Y-11637524D01*
X11343095Y-11637524D02*
X11324048Y-11666095D01*
X11324048Y-11666095D02*
X11314524Y-11704190D01*
X11314524Y-11704190D02*
X11314524Y-11780381D01*
X11314524Y-11780381D02*
X11324048Y-11799428D01*
X11324048Y-11799428D02*
X11333572Y-11808952D01*
X11333572Y-11808952D02*
X11352619Y-11818476D01*
X11352619Y-11818476D02*
X11390714Y-11818476D01*
X11390714Y-11818476D02*
X11409762Y-11808952D01*
X11409762Y-11808952D02*
X11419286Y-11799428D01*
X11419286Y-11799428D02*
X11428810Y-11780381D01*
X11428810Y-11780381D02*
X11428810Y-11732762D01*
X11428810Y-11732762D02*
X11419286Y-11713714D01*
X11419286Y-11713714D02*
X11409762Y-11704190D01*
X11409762Y-11704190D02*
X11390714Y-11694667D01*
X11390714Y-11694667D02*
X11352619Y-11694667D01*
X11352619Y-11694667D02*
X11333572Y-11704190D01*
X11333572Y-11704190D02*
X11324048Y-11713714D01*
X11324048Y-11713714D02*
X11314524Y-11732762D01*
X11625000Y-11808952D02*
X11644048Y-11818476D01*
X11644048Y-11818476D02*
X11682143Y-11818476D01*
X11682143Y-11818476D02*
X11701191Y-11808952D01*
X11701191Y-11808952D02*
X11710714Y-11789905D01*
X11710714Y-11789905D02*
X11710714Y-11780381D01*
X11710714Y-11780381D02*
X11701191Y-11761333D01*
X11701191Y-11761333D02*
X11682143Y-11751809D01*
X11682143Y-11751809D02*
X11653572Y-11751809D01*
X11653572Y-11751809D02*
X11634524Y-11742286D01*
X11634524Y-11742286D02*
X11625000Y-11723238D01*
X11625000Y-11723238D02*
X11625000Y-11713714D01*
X11625000Y-11713714D02*
X11634524Y-11694667D01*
X11634524Y-11694667D02*
X11653572Y-11685143D01*
X11653572Y-11685143D02*
X11682143Y-11685143D01*
X11682143Y-11685143D02*
X11701191Y-11694667D01*
X11825000Y-11818476D02*
X11805953Y-11808952D01*
X11805953Y-11808952D02*
X11796429Y-11789905D01*
X11796429Y-11789905D02*
X11796429Y-11618476D01*
X11929762Y-11818476D02*
X11910714Y-11808952D01*
X11910714Y-11808952D02*
X11901191Y-11799428D01*
X11901191Y-11799428D02*
X11891667Y-11780381D01*
X11891667Y-11780381D02*
X11891667Y-11723238D01*
X11891667Y-11723238D02*
X11901191Y-11704190D01*
X11901191Y-11704190D02*
X11910714Y-11694667D01*
X11910714Y-11694667D02*
X11929762Y-11685143D01*
X11929762Y-11685143D02*
X11958334Y-11685143D01*
X11958334Y-11685143D02*
X11977381Y-11694667D01*
X11977381Y-11694667D02*
X11986905Y-11704190D01*
X11986905Y-11704190D02*
X11996429Y-11723238D01*
X11996429Y-11723238D02*
X11996429Y-11780381D01*
X11996429Y-11780381D02*
X11986905Y-11799428D01*
X11986905Y-11799428D02*
X11977381Y-11808952D01*
X11977381Y-11808952D02*
X11958334Y-11818476D01*
X11958334Y-11818476D02*
X11929762Y-11818476D01*
X12053572Y-11685143D02*
X12129762Y-11685143D01*
X12082143Y-11618476D02*
X12082143Y-11789905D01*
X12082143Y-11789905D02*
X12091667Y-11808952D01*
X12091667Y-11808952D02*
X12110714Y-11818476D01*
X12110714Y-11818476D02*
X12129762Y-11818476D01*
X12186905Y-11808952D02*
X12205953Y-11818476D01*
X12205953Y-11818476D02*
X12244048Y-11818476D01*
X12244048Y-11818476D02*
X12263095Y-11808952D01*
X12263095Y-11808952D02*
X12272619Y-11789905D01*
X12272619Y-11789905D02*
X12272619Y-11780381D01*
X12272619Y-11780381D02*
X12263095Y-11761333D01*
X12263095Y-11761333D02*
X12244048Y-11751809D01*
X12244048Y-11751809D02*
X12215476Y-11751809D01*
X12215476Y-11751809D02*
X12196429Y-11742286D01*
X12196429Y-11742286D02*
X12186905Y-11723238D01*
X12186905Y-11723238D02*
X12186905Y-11713714D01*
X12186905Y-11713714D02*
X12196429Y-11694667D01*
X12196429Y-11694667D02*
X12215476Y-11685143D01*
X12215476Y-11685143D02*
X12244048Y-11685143D01*
X12244048Y-11685143D02*
X12263095Y-11694667D01*
X12339286Y-11894667D02*
X12348810Y-11885143D01*
X12348810Y-11885143D02*
X12367857Y-11856571D01*
X12367857Y-11856571D02*
X12377381Y-11837524D01*
X12377381Y-11837524D02*
X12386905Y-11808952D01*
X12386905Y-11808952D02*
X12396429Y-11761333D01*
X12396429Y-11761333D02*
X12396429Y-11723238D01*
X12396429Y-11723238D02*
X12386905Y-11675619D01*
X12386905Y-11675619D02*
X12377381Y-11647048D01*
X12377381Y-11647048D02*
X12367857Y-11628000D01*
X12367857Y-11628000D02*
X12348810Y-11599428D01*
X12348810Y-11599428D02*
X12339286Y-11589905D01*
X12668810Y-11894667D02*
X12659286Y-11885143D01*
X12659286Y-11885143D02*
X12640238Y-11856571D01*
X12640238Y-11856571D02*
X12630714Y-11837524D01*
X12630714Y-11837524D02*
X12621191Y-11808952D01*
X12621191Y-11808952D02*
X12611667Y-11761333D01*
X12611667Y-11761333D02*
X12611667Y-11723238D01*
X12611667Y-11723238D02*
X12621191Y-11675619D01*
X12621191Y-11675619D02*
X12630714Y-11647048D01*
X12630714Y-11647048D02*
X12640238Y-11628000D01*
X12640238Y-11628000D02*
X12659286Y-11599428D01*
X12659286Y-11599428D02*
X12668810Y-11589905D01*
X12745000Y-11685143D02*
X12745000Y-11818476D01*
X12745000Y-11704190D02*
X12754524Y-11694667D01*
X12754524Y-11694667D02*
X12773572Y-11685143D01*
X12773572Y-11685143D02*
X12802143Y-11685143D01*
X12802143Y-11685143D02*
X12821191Y-11694667D01*
X12821191Y-11694667D02*
X12830714Y-11713714D01*
X12830714Y-11713714D02*
X12830714Y-11818476D01*
X12954524Y-11818476D02*
X12935476Y-11808952D01*
X12935476Y-11808952D02*
X12925953Y-11799428D01*
X12925953Y-11799428D02*
X12916429Y-11780381D01*
X12916429Y-11780381D02*
X12916429Y-11723238D01*
X12916429Y-11723238D02*
X12925953Y-11704190D01*
X12925953Y-11704190D02*
X12935476Y-11694667D01*
X12935476Y-11694667D02*
X12954524Y-11685143D01*
X12954524Y-11685143D02*
X12983095Y-11685143D01*
X12983095Y-11685143D02*
X13002143Y-11694667D01*
X13002143Y-11694667D02*
X13011667Y-11704190D01*
X13011667Y-11704190D02*
X13021191Y-11723238D01*
X13021191Y-11723238D02*
X13021191Y-11780381D01*
X13021191Y-11780381D02*
X13011667Y-11799428D01*
X13011667Y-11799428D02*
X13002143Y-11808952D01*
X13002143Y-11808952D02*
X12983095Y-11818476D01*
X12983095Y-11818476D02*
X12954524Y-11818476D01*
X13078334Y-11685143D02*
X13154524Y-11685143D01*
X13106905Y-11618476D02*
X13106905Y-11789905D01*
X13106905Y-11789905D02*
X13116429Y-11808952D01*
X13116429Y-11808952D02*
X13135476Y-11818476D01*
X13135476Y-11818476D02*
X13154524Y-11818476D01*
X13341191Y-11685143D02*
X13341191Y-11885143D01*
X13341191Y-11694667D02*
X13360238Y-11685143D01*
X13360238Y-11685143D02*
X13398334Y-11685143D01*
X13398334Y-11685143D02*
X13417381Y-11694667D01*
X13417381Y-11694667D02*
X13426905Y-11704190D01*
X13426905Y-11704190D02*
X13436429Y-11723238D01*
X13436429Y-11723238D02*
X13436429Y-11780381D01*
X13436429Y-11780381D02*
X13426905Y-11799428D01*
X13426905Y-11799428D02*
X13417381Y-11808952D01*
X13417381Y-11808952D02*
X13398334Y-11818476D01*
X13398334Y-11818476D02*
X13360238Y-11818476D01*
X13360238Y-11818476D02*
X13341191Y-11808952D01*
X13550714Y-11818476D02*
X13531667Y-11808952D01*
X13531667Y-11808952D02*
X13522143Y-11789905D01*
X13522143Y-11789905D02*
X13522143Y-11618476D01*
X13712619Y-11818476D02*
X13712619Y-11713714D01*
X13712619Y-11713714D02*
X13703095Y-11694667D01*
X13703095Y-11694667D02*
X13684048Y-11685143D01*
X13684048Y-11685143D02*
X13645953Y-11685143D01*
X13645953Y-11685143D02*
X13626905Y-11694667D01*
X13712619Y-11808952D02*
X13693572Y-11818476D01*
X13693572Y-11818476D02*
X13645953Y-11818476D01*
X13645953Y-11818476D02*
X13626905Y-11808952D01*
X13626905Y-11808952D02*
X13617381Y-11789905D01*
X13617381Y-11789905D02*
X13617381Y-11770857D01*
X13617381Y-11770857D02*
X13626905Y-11751809D01*
X13626905Y-11751809D02*
X13645953Y-11742286D01*
X13645953Y-11742286D02*
X13693572Y-11742286D01*
X13693572Y-11742286D02*
X13712619Y-11732762D01*
X13779286Y-11685143D02*
X13855476Y-11685143D01*
X13807857Y-11618476D02*
X13807857Y-11789905D01*
X13807857Y-11789905D02*
X13817381Y-11808952D01*
X13817381Y-11808952D02*
X13836429Y-11818476D01*
X13836429Y-11818476D02*
X13855476Y-11818476D01*
X13998334Y-11808952D02*
X13979286Y-11818476D01*
X13979286Y-11818476D02*
X13941191Y-11818476D01*
X13941191Y-11818476D02*
X13922143Y-11808952D01*
X13922143Y-11808952D02*
X13912619Y-11789905D01*
X13912619Y-11789905D02*
X13912619Y-11713714D01*
X13912619Y-11713714D02*
X13922143Y-11694667D01*
X13922143Y-11694667D02*
X13941191Y-11685143D01*
X13941191Y-11685143D02*
X13979286Y-11685143D01*
X13979286Y-11685143D02*
X13998334Y-11694667D01*
X13998334Y-11694667D02*
X14007857Y-11713714D01*
X14007857Y-11713714D02*
X14007857Y-11732762D01*
X14007857Y-11732762D02*
X13912619Y-11751809D01*
X14179286Y-11818476D02*
X14179286Y-11618476D01*
X14179286Y-11808952D02*
X14160238Y-11818476D01*
X14160238Y-11818476D02*
X14122143Y-11818476D01*
X14122143Y-11818476D02*
X14103095Y-11808952D01*
X14103095Y-11808952D02*
X14093572Y-11799428D01*
X14093572Y-11799428D02*
X14084048Y-11780381D01*
X14084048Y-11780381D02*
X14084048Y-11723238D01*
X14084048Y-11723238D02*
X14093572Y-11704190D01*
X14093572Y-11704190D02*
X14103095Y-11694667D01*
X14103095Y-11694667D02*
X14122143Y-11685143D01*
X14122143Y-11685143D02*
X14160238Y-11685143D01*
X14160238Y-11685143D02*
X14179286Y-11694667D01*
X14255476Y-11894667D02*
X14265000Y-11885143D01*
X14265000Y-11885143D02*
X14284048Y-11856571D01*
X14284048Y-11856571D02*
X14293572Y-11837524D01*
X14293572Y-11837524D02*
X14303095Y-11808952D01*
X14303095Y-11808952D02*
X14312619Y-11761333D01*
X14312619Y-11761333D02*
X14312619Y-11723238D01*
X14312619Y-11723238D02*
X14303095Y-11675619D01*
X14303095Y-11675619D02*
X14293572Y-11647048D01*
X14293572Y-11647048D02*
X14284048Y-11628000D01*
X14284048Y-11628000D02*
X14265000Y-11599428D01*
X14265000Y-11599428D02*
X14255476Y-11589905D01*
X6185000Y-12009000D02*
G75*
G03*
X6185000Y-12009000I-100000J0D01*
G01*
X6413571Y-11882476D02*
X6537381Y-11882476D01*
X6537381Y-11882476D02*
X6470714Y-11958667D01*
X6470714Y-11958667D02*
X6499286Y-11958667D01*
X6499286Y-11958667D02*
X6518333Y-11968190D01*
X6518333Y-11968190D02*
X6527857Y-11977714D01*
X6527857Y-11977714D02*
X6537381Y-11996762D01*
X6537381Y-11996762D02*
X6537381Y-12044381D01*
X6537381Y-12044381D02*
X6527857Y-12063428D01*
X6527857Y-12063428D02*
X6518333Y-12072952D01*
X6518333Y-12072952D02*
X6499286Y-12082476D01*
X6499286Y-12082476D02*
X6442143Y-12082476D01*
X6442143Y-12082476D02*
X6423095Y-12072952D01*
X6423095Y-12072952D02*
X6413571Y-12063428D01*
X6623095Y-12063428D02*
X6632619Y-12072952D01*
X6632619Y-12072952D02*
X6623095Y-12082476D01*
X6623095Y-12082476D02*
X6613571Y-12072952D01*
X6613571Y-12072952D02*
X6623095Y-12063428D01*
X6623095Y-12063428D02*
X6623095Y-12082476D01*
X6708809Y-11901524D02*
X6718333Y-11892000D01*
X6718333Y-11892000D02*
X6737381Y-11882476D01*
X6737381Y-11882476D02*
X6785000Y-11882476D01*
X6785000Y-11882476D02*
X6804048Y-11892000D01*
X6804048Y-11892000D02*
X6813571Y-11901524D01*
X6813571Y-11901524D02*
X6823095Y-11920571D01*
X6823095Y-11920571D02*
X6823095Y-11939619D01*
X6823095Y-11939619D02*
X6813571Y-11968190D01*
X6813571Y-11968190D02*
X6699286Y-12082476D01*
X6699286Y-12082476D02*
X6823095Y-12082476D01*
X6946905Y-11882476D02*
X6965952Y-11882476D01*
X6965952Y-11882476D02*
X6985000Y-11892000D01*
X6985000Y-11892000D02*
X6994524Y-11901524D01*
X6994524Y-11901524D02*
X7004048Y-11920571D01*
X7004048Y-11920571D02*
X7013571Y-11958667D01*
X7013571Y-11958667D02*
X7013571Y-12006286D01*
X7013571Y-12006286D02*
X7004048Y-12044381D01*
X7004048Y-12044381D02*
X6994524Y-12063428D01*
X6994524Y-12063428D02*
X6985000Y-12072952D01*
X6985000Y-12072952D02*
X6965952Y-12082476D01*
X6965952Y-12082476D02*
X6946905Y-12082476D01*
X6946905Y-12082476D02*
X6927857Y-12072952D01*
X6927857Y-12072952D02*
X6918333Y-12063428D01*
X6918333Y-12063428D02*
X6908809Y-12044381D01*
X6908809Y-12044381D02*
X6899286Y-12006286D01*
X6899286Y-12006286D02*
X6899286Y-11958667D01*
X6899286Y-11958667D02*
X6908809Y-11920571D01*
X6908809Y-11920571D02*
X6918333Y-11901524D01*
X6918333Y-11901524D02*
X6927857Y-11892000D01*
X6927857Y-11892000D02*
X6946905Y-11882476D01*
X7137381Y-11882476D02*
X7156429Y-11882476D01*
X7156429Y-11882476D02*
X7175476Y-11892000D01*
X7175476Y-11892000D02*
X7185000Y-11901524D01*
X7185000Y-11901524D02*
X7194524Y-11920571D01*
X7194524Y-11920571D02*
X7204048Y-11958667D01*
X7204048Y-11958667D02*
X7204048Y-12006286D01*
X7204048Y-12006286D02*
X7194524Y-12044381D01*
X7194524Y-12044381D02*
X7185000Y-12063428D01*
X7185000Y-12063428D02*
X7175476Y-12072952D01*
X7175476Y-12072952D02*
X7156429Y-12082476D01*
X7156429Y-12082476D02*
X7137381Y-12082476D01*
X7137381Y-12082476D02*
X7118333Y-12072952D01*
X7118333Y-12072952D02*
X7108809Y-12063428D01*
X7108809Y-12063428D02*
X7099286Y-12044381D01*
X7099286Y-12044381D02*
X7089762Y-12006286D01*
X7089762Y-12006286D02*
X7089762Y-11958667D01*
X7089762Y-11958667D02*
X7099286Y-11920571D01*
X7099286Y-11920571D02*
X7108809Y-11901524D01*
X7108809Y-11901524D02*
X7118333Y-11892000D01*
X7118333Y-11892000D02*
X7137381Y-11882476D01*
X7289762Y-12082476D02*
X7289762Y-11949143D01*
X7289762Y-11968190D02*
X7299286Y-11958667D01*
X7299286Y-11958667D02*
X7318333Y-11949143D01*
X7318333Y-11949143D02*
X7346905Y-11949143D01*
X7346905Y-11949143D02*
X7365952Y-11958667D01*
X7365952Y-11958667D02*
X7375476Y-11977714D01*
X7375476Y-11977714D02*
X7375476Y-12082476D01*
X7375476Y-11977714D02*
X7385000Y-11958667D01*
X7385000Y-11958667D02*
X7404048Y-11949143D01*
X7404048Y-11949143D02*
X7432619Y-11949143D01*
X7432619Y-11949143D02*
X7451667Y-11958667D01*
X7451667Y-11958667D02*
X7461190Y-11977714D01*
X7461190Y-11977714D02*
X7461190Y-12082476D01*
X7556429Y-12082476D02*
X7556429Y-11949143D01*
X7556429Y-11968190D02*
X7565952Y-11958667D01*
X7565952Y-11958667D02*
X7585000Y-11949143D01*
X7585000Y-11949143D02*
X7613571Y-11949143D01*
X7613571Y-11949143D02*
X7632619Y-11958667D01*
X7632619Y-11958667D02*
X7642143Y-11977714D01*
X7642143Y-11977714D02*
X7642143Y-12082476D01*
X7642143Y-11977714D02*
X7651667Y-11958667D01*
X7651667Y-11958667D02*
X7670714Y-11949143D01*
X7670714Y-11949143D02*
X7699286Y-11949143D01*
X7699286Y-11949143D02*
X7718333Y-11958667D01*
X7718333Y-11958667D02*
X7727857Y-11977714D01*
X7727857Y-11977714D02*
X7727857Y-12082476D01*
X8085952Y-11872952D02*
X7914524Y-12130095D01*
X8310714Y-11882476D02*
X8329762Y-11882476D01*
X8329762Y-11882476D02*
X8348810Y-11892000D01*
X8348810Y-11892000D02*
X8358333Y-11901524D01*
X8358333Y-11901524D02*
X8367857Y-11920571D01*
X8367857Y-11920571D02*
X8377381Y-11958667D01*
X8377381Y-11958667D02*
X8377381Y-12006286D01*
X8377381Y-12006286D02*
X8367857Y-12044381D01*
X8367857Y-12044381D02*
X8358333Y-12063428D01*
X8358333Y-12063428D02*
X8348810Y-12072952D01*
X8348810Y-12072952D02*
X8329762Y-12082476D01*
X8329762Y-12082476D02*
X8310714Y-12082476D01*
X8310714Y-12082476D02*
X8291667Y-12072952D01*
X8291667Y-12072952D02*
X8282143Y-12063428D01*
X8282143Y-12063428D02*
X8272619Y-12044381D01*
X8272619Y-12044381D02*
X8263095Y-12006286D01*
X8263095Y-12006286D02*
X8263095Y-11958667D01*
X8263095Y-11958667D02*
X8272619Y-11920571D01*
X8272619Y-11920571D02*
X8282143Y-11901524D01*
X8282143Y-11901524D02*
X8291667Y-11892000D01*
X8291667Y-11892000D02*
X8310714Y-11882476D01*
X8463095Y-12063428D02*
X8472619Y-12072952D01*
X8472619Y-12072952D02*
X8463095Y-12082476D01*
X8463095Y-12082476D02*
X8453572Y-12072952D01*
X8453572Y-12072952D02*
X8463095Y-12063428D01*
X8463095Y-12063428D02*
X8463095Y-12082476D01*
X8663095Y-12082476D02*
X8548810Y-12082476D01*
X8605952Y-12082476D02*
X8605952Y-11882476D01*
X8605952Y-11882476D02*
X8586905Y-11911048D01*
X8586905Y-11911048D02*
X8567857Y-11930095D01*
X8567857Y-11930095D02*
X8548810Y-11939619D01*
X8739286Y-11901524D02*
X8748810Y-11892000D01*
X8748810Y-11892000D02*
X8767857Y-11882476D01*
X8767857Y-11882476D02*
X8815476Y-11882476D01*
X8815476Y-11882476D02*
X8834524Y-11892000D01*
X8834524Y-11892000D02*
X8844048Y-11901524D01*
X8844048Y-11901524D02*
X8853572Y-11920571D01*
X8853572Y-11920571D02*
X8853572Y-11939619D01*
X8853572Y-11939619D02*
X8844048Y-11968190D01*
X8844048Y-11968190D02*
X8729762Y-12082476D01*
X8729762Y-12082476D02*
X8853572Y-12082476D01*
X9025000Y-11882476D02*
X8986905Y-11882476D01*
X8986905Y-11882476D02*
X8967857Y-11892000D01*
X8967857Y-11892000D02*
X8958333Y-11901524D01*
X8958333Y-11901524D02*
X8939286Y-11930095D01*
X8939286Y-11930095D02*
X8929762Y-11968190D01*
X8929762Y-11968190D02*
X8929762Y-12044381D01*
X8929762Y-12044381D02*
X8939286Y-12063428D01*
X8939286Y-12063428D02*
X8948810Y-12072952D01*
X8948810Y-12072952D02*
X8967857Y-12082476D01*
X8967857Y-12082476D02*
X9005953Y-12082476D01*
X9005953Y-12082476D02*
X9025000Y-12072952D01*
X9025000Y-12072952D02*
X9034524Y-12063428D01*
X9034524Y-12063428D02*
X9044048Y-12044381D01*
X9044048Y-12044381D02*
X9044048Y-11996762D01*
X9044048Y-11996762D02*
X9034524Y-11977714D01*
X9034524Y-11977714D02*
X9025000Y-11968190D01*
X9025000Y-11968190D02*
X9005953Y-11958667D01*
X9005953Y-11958667D02*
X8967857Y-11958667D01*
X8967857Y-11958667D02*
X8948810Y-11968190D01*
X8948810Y-11968190D02*
X8939286Y-11977714D01*
X8939286Y-11977714D02*
X8929762Y-11996762D01*
X9167857Y-11882476D02*
X9186905Y-11882476D01*
X9186905Y-11882476D02*
X9205953Y-11892000D01*
X9205953Y-11892000D02*
X9215476Y-11901524D01*
X9215476Y-11901524D02*
X9225000Y-11920571D01*
X9225000Y-11920571D02*
X9234524Y-11958667D01*
X9234524Y-11958667D02*
X9234524Y-12006286D01*
X9234524Y-12006286D02*
X9225000Y-12044381D01*
X9225000Y-12044381D02*
X9215476Y-12063428D01*
X9215476Y-12063428D02*
X9205953Y-12072952D01*
X9205953Y-12072952D02*
X9186905Y-12082476D01*
X9186905Y-12082476D02*
X9167857Y-12082476D01*
X9167857Y-12082476D02*
X9148810Y-12072952D01*
X9148810Y-12072952D02*
X9139286Y-12063428D01*
X9139286Y-12063428D02*
X9129762Y-12044381D01*
X9129762Y-12044381D02*
X9120238Y-12006286D01*
X9120238Y-12006286D02*
X9120238Y-11958667D01*
X9120238Y-11958667D02*
X9129762Y-11920571D01*
X9129762Y-11920571D02*
X9139286Y-11901524D01*
X9139286Y-11901524D02*
X9148810Y-11892000D01*
X9148810Y-11892000D02*
X9167857Y-11882476D01*
X9310714Y-11882476D02*
X9310714Y-11920571D01*
X9386905Y-11882476D02*
X9386905Y-11920571D01*
X9649762Y-12158667D02*
X9640238Y-12149143D01*
X9640238Y-12149143D02*
X9621191Y-12120571D01*
X9621191Y-12120571D02*
X9611667Y-12101524D01*
X9611667Y-12101524D02*
X9602143Y-12072952D01*
X9602143Y-12072952D02*
X9592619Y-12025333D01*
X9592619Y-12025333D02*
X9592619Y-11987238D01*
X9592619Y-11987238D02*
X9602143Y-11939619D01*
X9602143Y-11939619D02*
X9611667Y-11911048D01*
X9611667Y-11911048D02*
X9621191Y-11892000D01*
X9621191Y-11892000D02*
X9640238Y-11863428D01*
X9640238Y-11863428D02*
X9649762Y-11853905D01*
X9716429Y-11901524D02*
X9725953Y-11892000D01*
X9725953Y-11892000D02*
X9745000Y-11882476D01*
X9745000Y-11882476D02*
X9792619Y-11882476D01*
X9792619Y-11882476D02*
X9811667Y-11892000D01*
X9811667Y-11892000D02*
X9821191Y-11901524D01*
X9821191Y-11901524D02*
X9830714Y-11920571D01*
X9830714Y-11920571D02*
X9830714Y-11939619D01*
X9830714Y-11939619D02*
X9821191Y-11968190D01*
X9821191Y-11968190D02*
X9706905Y-12082476D01*
X9706905Y-12082476D02*
X9830714Y-12082476D01*
X9954524Y-11882476D02*
X9973572Y-11882476D01*
X9973572Y-11882476D02*
X9992619Y-11892000D01*
X9992619Y-11892000D02*
X10002143Y-11901524D01*
X10002143Y-11901524D02*
X10011667Y-11920571D01*
X10011667Y-11920571D02*
X10021191Y-11958667D01*
X10021191Y-11958667D02*
X10021191Y-12006286D01*
X10021191Y-12006286D02*
X10011667Y-12044381D01*
X10011667Y-12044381D02*
X10002143Y-12063428D01*
X10002143Y-12063428D02*
X9992619Y-12072952D01*
X9992619Y-12072952D02*
X9973572Y-12082476D01*
X9973572Y-12082476D02*
X9954524Y-12082476D01*
X9954524Y-12082476D02*
X9935476Y-12072952D01*
X9935476Y-12072952D02*
X9925953Y-12063428D01*
X9925953Y-12063428D02*
X9916429Y-12044381D01*
X9916429Y-12044381D02*
X9906905Y-12006286D01*
X9906905Y-12006286D02*
X9906905Y-11958667D01*
X9906905Y-11958667D02*
X9916429Y-11920571D01*
X9916429Y-11920571D02*
X9925953Y-11901524D01*
X9925953Y-11901524D02*
X9935476Y-11892000D01*
X9935476Y-11892000D02*
X9954524Y-11882476D01*
X10226905Y-12082476D02*
X10226905Y-11882476D01*
X10312619Y-12082476D02*
X10312619Y-11977714D01*
X10312619Y-11977714D02*
X10303095Y-11958667D01*
X10303095Y-11958667D02*
X10284048Y-11949143D01*
X10284048Y-11949143D02*
X10255476Y-11949143D01*
X10255476Y-11949143D02*
X10236429Y-11958667D01*
X10236429Y-11958667D02*
X10226905Y-11968190D01*
X10436429Y-12082476D02*
X10417381Y-12072952D01*
X10417381Y-12072952D02*
X10407857Y-12063428D01*
X10407857Y-12063428D02*
X10398334Y-12044381D01*
X10398334Y-12044381D02*
X10398334Y-11987238D01*
X10398334Y-11987238D02*
X10407857Y-11968190D01*
X10407857Y-11968190D02*
X10417381Y-11958667D01*
X10417381Y-11958667D02*
X10436429Y-11949143D01*
X10436429Y-11949143D02*
X10465000Y-11949143D01*
X10465000Y-11949143D02*
X10484048Y-11958667D01*
X10484048Y-11958667D02*
X10493572Y-11968190D01*
X10493572Y-11968190D02*
X10503095Y-11987238D01*
X10503095Y-11987238D02*
X10503095Y-12044381D01*
X10503095Y-12044381D02*
X10493572Y-12063428D01*
X10493572Y-12063428D02*
X10484048Y-12072952D01*
X10484048Y-12072952D02*
X10465000Y-12082476D01*
X10465000Y-12082476D02*
X10436429Y-12082476D01*
X10617381Y-12082476D02*
X10598334Y-12072952D01*
X10598334Y-12072952D02*
X10588810Y-12053905D01*
X10588810Y-12053905D02*
X10588810Y-11882476D01*
X10769762Y-12072952D02*
X10750715Y-12082476D01*
X10750715Y-12082476D02*
X10712619Y-12082476D01*
X10712619Y-12082476D02*
X10693572Y-12072952D01*
X10693572Y-12072952D02*
X10684048Y-12053905D01*
X10684048Y-12053905D02*
X10684048Y-11977714D01*
X10684048Y-11977714D02*
X10693572Y-11958667D01*
X10693572Y-11958667D02*
X10712619Y-11949143D01*
X10712619Y-11949143D02*
X10750715Y-11949143D01*
X10750715Y-11949143D02*
X10769762Y-11958667D01*
X10769762Y-11958667D02*
X10779286Y-11977714D01*
X10779286Y-11977714D02*
X10779286Y-11996762D01*
X10779286Y-11996762D02*
X10684048Y-12015809D01*
X10855476Y-12072952D02*
X10874524Y-12082476D01*
X10874524Y-12082476D02*
X10912619Y-12082476D01*
X10912619Y-12082476D02*
X10931667Y-12072952D01*
X10931667Y-12072952D02*
X10941191Y-12053905D01*
X10941191Y-12053905D02*
X10941191Y-12044381D01*
X10941191Y-12044381D02*
X10931667Y-12025333D01*
X10931667Y-12025333D02*
X10912619Y-12015809D01*
X10912619Y-12015809D02*
X10884048Y-12015809D01*
X10884048Y-12015809D02*
X10865000Y-12006286D01*
X10865000Y-12006286D02*
X10855476Y-11987238D01*
X10855476Y-11987238D02*
X10855476Y-11977714D01*
X10855476Y-11977714D02*
X10865000Y-11958667D01*
X10865000Y-11958667D02*
X10884048Y-11949143D01*
X10884048Y-11949143D02*
X10912619Y-11949143D01*
X10912619Y-11949143D02*
X10931667Y-11958667D01*
X11007857Y-12158667D02*
X11017381Y-12149143D01*
X11017381Y-12149143D02*
X11036429Y-12120571D01*
X11036429Y-12120571D02*
X11045953Y-12101524D01*
X11045953Y-12101524D02*
X11055476Y-12072952D01*
X11055476Y-12072952D02*
X11065000Y-12025333D01*
X11065000Y-12025333D02*
X11065000Y-11987238D01*
X11065000Y-11987238D02*
X11055476Y-11939619D01*
X11055476Y-11939619D02*
X11045953Y-11911048D01*
X11045953Y-11911048D02*
X11036429Y-11892000D01*
X11036429Y-11892000D02*
X11017381Y-11863428D01*
X11017381Y-11863428D02*
X11007857Y-11853905D01*
X11337381Y-12158667D02*
X11327857Y-12149143D01*
X11327857Y-12149143D02*
X11308810Y-12120571D01*
X11308810Y-12120571D02*
X11299286Y-12101524D01*
X11299286Y-12101524D02*
X11289762Y-12072952D01*
X11289762Y-12072952D02*
X11280238Y-12025333D01*
X11280238Y-12025333D02*
X11280238Y-11987238D01*
X11280238Y-11987238D02*
X11289762Y-11939619D01*
X11289762Y-11939619D02*
X11299286Y-11911048D01*
X11299286Y-11911048D02*
X11308810Y-11892000D01*
X11308810Y-11892000D02*
X11327857Y-11863428D01*
X11327857Y-11863428D02*
X11337381Y-11853905D01*
X11413572Y-11949143D02*
X11413572Y-12082476D01*
X11413572Y-11968190D02*
X11423095Y-11958667D01*
X11423095Y-11958667D02*
X11442143Y-11949143D01*
X11442143Y-11949143D02*
X11470714Y-11949143D01*
X11470714Y-11949143D02*
X11489762Y-11958667D01*
X11489762Y-11958667D02*
X11499286Y-11977714D01*
X11499286Y-11977714D02*
X11499286Y-12082476D01*
X11623095Y-12082476D02*
X11604048Y-12072952D01*
X11604048Y-12072952D02*
X11594524Y-12063428D01*
X11594524Y-12063428D02*
X11585000Y-12044381D01*
X11585000Y-12044381D02*
X11585000Y-11987238D01*
X11585000Y-11987238D02*
X11594524Y-11968190D01*
X11594524Y-11968190D02*
X11604048Y-11958667D01*
X11604048Y-11958667D02*
X11623095Y-11949143D01*
X11623095Y-11949143D02*
X11651667Y-11949143D01*
X11651667Y-11949143D02*
X11670714Y-11958667D01*
X11670714Y-11958667D02*
X11680238Y-11968190D01*
X11680238Y-11968190D02*
X11689762Y-11987238D01*
X11689762Y-11987238D02*
X11689762Y-12044381D01*
X11689762Y-12044381D02*
X11680238Y-12063428D01*
X11680238Y-12063428D02*
X11670714Y-12072952D01*
X11670714Y-12072952D02*
X11651667Y-12082476D01*
X11651667Y-12082476D02*
X11623095Y-12082476D01*
X11746905Y-11949143D02*
X11823095Y-11949143D01*
X11775476Y-11882476D02*
X11775476Y-12053905D01*
X11775476Y-12053905D02*
X11785000Y-12072952D01*
X11785000Y-12072952D02*
X11804048Y-12082476D01*
X11804048Y-12082476D02*
X11823095Y-12082476D01*
X12009762Y-11949143D02*
X12009762Y-12149143D01*
X12009762Y-11958667D02*
X12028810Y-11949143D01*
X12028810Y-11949143D02*
X12066905Y-11949143D01*
X12066905Y-11949143D02*
X12085953Y-11958667D01*
X12085953Y-11958667D02*
X12095476Y-11968190D01*
X12095476Y-11968190D02*
X12105000Y-11987238D01*
X12105000Y-11987238D02*
X12105000Y-12044381D01*
X12105000Y-12044381D02*
X12095476Y-12063428D01*
X12095476Y-12063428D02*
X12085953Y-12072952D01*
X12085953Y-12072952D02*
X12066905Y-12082476D01*
X12066905Y-12082476D02*
X12028810Y-12082476D01*
X12028810Y-12082476D02*
X12009762Y-12072952D01*
X12219286Y-12082476D02*
X12200238Y-12072952D01*
X12200238Y-12072952D02*
X12190714Y-12053905D01*
X12190714Y-12053905D02*
X12190714Y-11882476D01*
X12381191Y-12082476D02*
X12381191Y-11977714D01*
X12381191Y-11977714D02*
X12371667Y-11958667D01*
X12371667Y-11958667D02*
X12352619Y-11949143D01*
X12352619Y-11949143D02*
X12314524Y-11949143D01*
X12314524Y-11949143D02*
X12295476Y-11958667D01*
X12381191Y-12072952D02*
X12362143Y-12082476D01*
X12362143Y-12082476D02*
X12314524Y-12082476D01*
X12314524Y-12082476D02*
X12295476Y-12072952D01*
X12295476Y-12072952D02*
X12285953Y-12053905D01*
X12285953Y-12053905D02*
X12285953Y-12034857D01*
X12285953Y-12034857D02*
X12295476Y-12015809D01*
X12295476Y-12015809D02*
X12314524Y-12006286D01*
X12314524Y-12006286D02*
X12362143Y-12006286D01*
X12362143Y-12006286D02*
X12381191Y-11996762D01*
X12447857Y-11949143D02*
X12524048Y-11949143D01*
X12476429Y-11882476D02*
X12476429Y-12053905D01*
X12476429Y-12053905D02*
X12485953Y-12072952D01*
X12485953Y-12072952D02*
X12505000Y-12082476D01*
X12505000Y-12082476D02*
X12524048Y-12082476D01*
X12666905Y-12072952D02*
X12647857Y-12082476D01*
X12647857Y-12082476D02*
X12609762Y-12082476D01*
X12609762Y-12082476D02*
X12590714Y-12072952D01*
X12590714Y-12072952D02*
X12581191Y-12053905D01*
X12581191Y-12053905D02*
X12581191Y-11977714D01*
X12581191Y-11977714D02*
X12590714Y-11958667D01*
X12590714Y-11958667D02*
X12609762Y-11949143D01*
X12609762Y-11949143D02*
X12647857Y-11949143D01*
X12647857Y-11949143D02*
X12666905Y-11958667D01*
X12666905Y-11958667D02*
X12676429Y-11977714D01*
X12676429Y-11977714D02*
X12676429Y-11996762D01*
X12676429Y-11996762D02*
X12581191Y-12015809D01*
X12847857Y-12082476D02*
X12847857Y-11882476D01*
X12847857Y-12072952D02*
X12828810Y-12082476D01*
X12828810Y-12082476D02*
X12790714Y-12082476D01*
X12790714Y-12082476D02*
X12771667Y-12072952D01*
X12771667Y-12072952D02*
X12762143Y-12063428D01*
X12762143Y-12063428D02*
X12752619Y-12044381D01*
X12752619Y-12044381D02*
X12752619Y-11987238D01*
X12752619Y-11987238D02*
X12762143Y-11968190D01*
X12762143Y-11968190D02*
X12771667Y-11958667D01*
X12771667Y-11958667D02*
X12790714Y-11949143D01*
X12790714Y-11949143D02*
X12828810Y-11949143D01*
X12828810Y-11949143D02*
X12847857Y-11958667D01*
X12924048Y-12158667D02*
X12933572Y-12149143D01*
X12933572Y-12149143D02*
X12952619Y-12120571D01*
X12952619Y-12120571D02*
X12962143Y-12101524D01*
X12962143Y-12101524D02*
X12971667Y-12072952D01*
X12971667Y-12072952D02*
X12981191Y-12025333D01*
X12981191Y-12025333D02*
X12981191Y-11987238D01*
X12981191Y-11987238D02*
X12971667Y-11939619D01*
X12971667Y-11939619D02*
X12962143Y-11911048D01*
X12962143Y-11911048D02*
X12952619Y-11892000D01*
X12952619Y-11892000D02*
X12933572Y-11863428D01*
X12933572Y-11863428D02*
X12924048Y-11853905D01*
M02*
