G04 #@! TF.GenerationSoftware,KiCad,Pcbnew,(7.0.0)*
G04 #@! TF.CreationDate,2023-05-19T01:27:26+02:00*
G04 #@! TF.ProjectId,Pot-X2,506f742d-5832-42e6-9b69-6361645f7063,rev?*
G04 #@! TF.SameCoordinates,Original*
G04 #@! TF.FileFunction,Soldermask,Bot*
G04 #@! TF.FilePolarity,Negative*
%FSLAX46Y46*%
G04 Gerber Fmt 4.6, Leading zero omitted, Abs format (unit mm)*
G04 Created by KiCad (PCBNEW (7.0.0)) date 2023-05-19 01:27:26*
%MOMM*%
%LPD*%
G01*
G04 APERTURE LIST*
G04 Aperture macros list*
%AMRoundRect*
0 Rectangle with rounded corners*
0 $1 Rounding radius*
0 $2 $3 $4 $5 $6 $7 $8 $9 X,Y pos of 4 corners*
0 Add a 4 corners polygon primitive as box body*
4,1,4,$2,$3,$4,$5,$6,$7,$8,$9,$2,$3,0*
0 Add four circle primitives for the rounded corners*
1,1,$1+$1,$2,$3*
1,1,$1+$1,$4,$5*
1,1,$1+$1,$6,$7*
1,1,$1+$1,$8,$9*
0 Add four rect primitives between the rounded corners*
20,1,$1+$1,$2,$3,$4,$5,0*
20,1,$1+$1,$4,$5,$6,$7,0*
20,1,$1+$1,$6,$7,$8,$9,0*
20,1,$1+$1,$8,$9,$2,$3,0*%
G04 Aperture macros list end*
%ADD10O,1.500000X2.000000*%
%ADD11O,3.600000X3.300000*%
%ADD12C,3.200000*%
%ADD13O,30.000000X0.500000*%
%ADD14RoundRect,0.250000X-0.600000X0.600000X-0.600000X-0.600000X0.600000X-0.600000X0.600000X0.600000X0*%
%ADD15C,1.700000*%
G04 APERTURE END LIST*
D10*
X146999999Y-80751135D03*
X149493385Y-80753306D03*
X151999999Y-80746691D03*
D11*
X144599999Y-73499999D03*
X154399999Y-73499999D03*
D10*
X121999999Y-80751135D03*
X124493385Y-80753306D03*
X126999999Y-80746691D03*
D11*
X119599999Y-73499999D03*
X129399999Y-73499999D03*
D10*
X121999999Y-105687981D03*
X124493385Y-105690152D03*
X126999999Y-105683537D03*
D11*
X119599999Y-98436845D03*
X129399999Y-98436845D03*
D10*
X96999999Y-80751135D03*
X99493385Y-80753306D03*
X101999999Y-80746691D03*
D11*
X94599999Y-73499999D03*
X104399999Y-73499999D03*
D10*
X96999999Y-105751135D03*
X99493385Y-105753306D03*
X101999999Y-105746691D03*
D11*
X94599999Y-98499999D03*
X104399999Y-98499999D03*
D10*
X71999999Y-80687981D03*
X74493385Y-80690152D03*
X76999999Y-80683537D03*
D11*
X69599999Y-73436845D03*
X79399999Y-73436845D03*
D10*
X71999999Y-105687981D03*
X74493385Y-105690152D03*
X76999999Y-105683537D03*
D11*
X69599999Y-98436845D03*
X79399999Y-98436845D03*
D10*
X146999999Y-105687981D03*
X149493385Y-105690152D03*
X151999999Y-105683537D03*
D11*
X144599999Y-98436845D03*
X154399999Y-98436845D03*
D10*
X146999999Y-30751135D03*
X149493385Y-30753306D03*
X151999999Y-30746691D03*
D11*
X144599999Y-23499999D03*
X154399999Y-23499999D03*
D12*
X158000000Y-65000000D03*
D10*
X96999999Y-55751135D03*
X99493385Y-55753306D03*
X101999999Y-55746691D03*
D11*
X94599999Y-48499999D03*
X104399999Y-48499999D03*
D10*
X146999999Y-55687981D03*
X149493385Y-55690152D03*
X151999999Y-55683537D03*
D11*
X144599999Y-48436845D03*
X154399999Y-48436845D03*
D12*
X87000000Y-73500000D03*
X158000000Y-107000000D03*
X87000000Y-48500000D03*
X66000000Y-15000000D03*
D10*
X71999999Y-55687981D03*
X74493385Y-55690152D03*
X76999999Y-55683537D03*
D11*
X69599999Y-48436845D03*
X79399999Y-48436845D03*
D13*
X144999999Y-60999999D03*
X144999999Y-60999999D03*
D12*
X66000000Y-65000000D03*
X87000000Y-23500000D03*
X112000000Y-98500000D03*
D10*
X71999999Y-30687981D03*
X74493385Y-30690152D03*
X76999999Y-30683537D03*
D11*
X69599999Y-23436845D03*
X79399999Y-23436845D03*
D12*
X87000000Y-98500000D03*
X112000000Y-23500000D03*
D13*
X78999999Y-60999999D03*
X78999999Y-60999999D03*
D12*
X137000000Y-73500000D03*
D10*
X121999999Y-30751135D03*
X124493385Y-30753306D03*
X126999999Y-30746691D03*
D11*
X119599999Y-23499999D03*
X129399999Y-23499999D03*
D13*
X111999999Y-60999999D03*
X111999999Y-60999999D03*
D12*
X112000000Y-73500000D03*
X112000000Y-48500000D03*
D10*
X96999999Y-30751135D03*
X99493385Y-30753306D03*
X101999999Y-30746691D03*
D11*
X94599999Y-23499999D03*
X104399999Y-23499999D03*
D12*
X66000000Y-57000000D03*
X137000000Y-23500000D03*
X137000000Y-48500000D03*
X158000000Y-57000000D03*
X137000000Y-98500000D03*
X158000000Y-15000000D03*
D10*
X121999999Y-55687981D03*
X124493385Y-55690152D03*
X126999999Y-55683537D03*
D11*
X119599999Y-48436845D03*
X129399999Y-48436845D03*
D12*
X66000000Y-107000000D03*
D14*
X107414000Y-85946000D03*
D15*
X107414000Y-88486000D03*
X109954000Y-85946000D03*
X109954000Y-88486000D03*
X112494000Y-85946000D03*
X112494000Y-88486000D03*
X115034000Y-85946000D03*
X115034000Y-88486000D03*
X117574000Y-85946000D03*
X117574000Y-88486000D03*
D14*
X107414000Y-35946000D03*
D15*
X107414000Y-38486000D03*
X109954000Y-35946000D03*
X109954000Y-38486000D03*
X112494000Y-35946000D03*
X112494000Y-38486000D03*
X115034000Y-35946000D03*
X115034000Y-38486000D03*
X117574000Y-35946000D03*
X117574000Y-38486000D03*
M02*
