M48
; DRILL file {KiCad (7.0.0)} date Fri May 19 01:27:40 2023
; FORMAT={-:-/ absolute / metric / decimal}
; #@! TF.CreationDate,2023-05-19T01:27:40+02:00
; #@! TF.GenerationSoftware,Kicad,Pcbnew,(7.0.0)
; #@! TF.FileFunction,NonPlated,1,2,NPTH
FMAT,2
METRIC
; #@! TA.AperFunction,NonPlated,NPTH,ComponentDrill
T1C0.500
; #@! TA.AperFunction,NonPlated,NPTH,ComponentDrill
T2C3.200
%
G90
G05
T2
X66.0Y-15.0
X66.0Y-57.0
X66.0Y-65.0
X66.0Y-107.0
X87.0Y-23.5
X87.0Y-48.5
X87.0Y-73.5
X87.0Y-98.5
X112.0Y-23.5
X112.0Y-48.5
X112.0Y-73.5
X112.0Y-98.5
X137.0Y-23.5
X137.0Y-48.5
X137.0Y-73.5
X137.0Y-98.5
X158.0Y-15.0
X158.0Y-57.0
X158.0Y-65.0
X158.0Y-107.0
T1
X64.25Y-61.0G85X93.75Y-61.0
G05
X64.25Y-61.0G85X93.75Y-61.0
G05
X97.25Y-61.0G85X126.75Y-61.0
G05
X97.25Y-61.0G85X126.75Y-61.0
G05
X130.25Y-61.0G85X159.75Y-61.0
G05
X130.25Y-61.0G85X159.75Y-61.0
G05
T0
M30
