M48
; DRILL file {KiCad (7.0.0)} date Fri May 19 01:27:40 2023
; FORMAT={-:-/ absolute / metric / decimal}
; #@! TF.CreationDate,2023-05-19T01:27:40+02:00
; #@! TF.GenerationSoftware,Kicad,Pcbnew,(7.0.0)
; #@! TF.FileFunction,Plated,1,2,PTH
FMAT,2
METRIC
; #@! TA.AperFunction,Plated,PTH,ComponentDrill
T1C1.000
; #@! TA.AperFunction,Plated,PTH,ComponentDrill
T2C2.200
%
G90
G05
T1
X107.414Y-35.946
X107.414Y-38.486
X107.414Y-85.946
X107.414Y-88.486
X109.954Y-35.946
X109.954Y-38.486
X109.954Y-85.946
X109.954Y-88.486
X112.494Y-35.946
X112.494Y-38.486
X112.494Y-85.946
X112.494Y-88.486
X115.034Y-35.946
X115.034Y-38.486
X115.034Y-85.946
X115.034Y-88.486
X117.574Y-35.946
X117.574Y-38.486
X117.574Y-85.946
X117.574Y-88.486
T1
X72.0Y-30.438G85X72.0Y-30.938
G05
X72.0Y-55.438G85X72.0Y-55.938
G05
X72.0Y-80.438G85X72.0Y-80.938
G05
X72.0Y-105.438G85X72.0Y-105.938
G05
X74.493Y-30.44G85X74.493Y-30.94
G05
X74.493Y-55.44G85X74.493Y-55.94
G05
X74.493Y-80.44G85X74.493Y-80.94
G05
X74.493Y-105.44G85X74.493Y-105.94
G05
X77.0Y-30.434G85X77.0Y-30.934
G05
X77.0Y-55.434G85X77.0Y-55.934
G05
X77.0Y-80.434G85X77.0Y-80.934
G05
X77.0Y-105.434G85X77.0Y-105.934
G05
X97.0Y-30.501G85X97.0Y-31.001
G05
X97.0Y-55.501G85X97.0Y-56.001
G05
X97.0Y-80.501G85X97.0Y-81.001
G05
X97.0Y-105.501G85X97.0Y-106.001
G05
X99.493Y-30.503G85X99.493Y-31.003
G05
X99.493Y-55.503G85X99.493Y-56.003
G05
X99.493Y-80.503G85X99.493Y-81.003
G05
X99.493Y-105.503G85X99.493Y-106.003
G05
X102.0Y-30.497G85X102.0Y-30.997
G05
X102.0Y-55.497G85X102.0Y-55.997
G05
X102.0Y-80.497G85X102.0Y-80.997
G05
X102.0Y-105.497G85X102.0Y-105.997
G05
X122.0Y-30.501G85X122.0Y-31.001
G05
X122.0Y-55.438G85X122.0Y-55.938
G05
X122.0Y-80.501G85X122.0Y-81.001
G05
X122.0Y-105.438G85X122.0Y-105.938
G05
X124.493Y-30.503G85X124.493Y-31.003
G05
X124.493Y-55.44G85X124.493Y-55.94
G05
X124.493Y-80.503G85X124.493Y-81.003
G05
X124.493Y-105.44G85X124.493Y-105.94
G05
X127.0Y-30.497G85X127.0Y-30.997
G05
X127.0Y-55.434G85X127.0Y-55.934
G05
X127.0Y-80.497G85X127.0Y-80.997
G05
X127.0Y-105.434G85X127.0Y-105.934
G05
X147.0Y-30.501G85X147.0Y-31.001
G05
X147.0Y-55.438G85X147.0Y-55.938
G05
X147.0Y-80.501G85X147.0Y-81.001
G05
X147.0Y-105.438G85X147.0Y-105.938
G05
X149.493Y-30.503G85X149.493Y-31.003
G05
X149.493Y-55.44G85X149.493Y-55.94
G05
X149.493Y-80.503G85X149.493Y-81.003
G05
X149.493Y-105.44G85X149.493Y-105.94
G05
X152.0Y-30.497G85X152.0Y-30.997
G05
X152.0Y-55.434G85X152.0Y-55.934
G05
X152.0Y-80.497G85X152.0Y-80.997
G05
X152.0Y-105.434G85X152.0Y-105.934
G05
T2
X69.3Y-23.437G85X69.9Y-23.437
G05
X69.3Y-48.437G85X69.9Y-48.437
G05
X69.3Y-73.437G85X69.9Y-73.437
G05
X69.3Y-98.437G85X69.9Y-98.437
G05
X79.1Y-23.437G85X79.7Y-23.437
G05
X79.1Y-48.437G85X79.7Y-48.437
G05
X79.1Y-73.437G85X79.7Y-73.437
G05
X79.1Y-98.437G85X79.7Y-98.437
G05
X94.3Y-23.5G85X94.9Y-23.5
G05
X94.3Y-48.5G85X94.9Y-48.5
G05
X94.3Y-73.5G85X94.9Y-73.5
G05
X94.3Y-98.5G85X94.9Y-98.5
G05
X104.1Y-23.5G85X104.7Y-23.5
G05
X104.1Y-48.5G85X104.7Y-48.5
G05
X104.1Y-73.5G85X104.7Y-73.5
G05
X104.1Y-98.5G85X104.7Y-98.5
G05
X119.3Y-23.5G85X119.9Y-23.5
G05
X119.3Y-48.437G85X119.9Y-48.437
G05
X119.3Y-73.5G85X119.9Y-73.5
G05
X119.3Y-98.437G85X119.9Y-98.437
G05
X129.1Y-23.5G85X129.7Y-23.5
G05
X129.1Y-48.437G85X129.7Y-48.437
G05
X129.1Y-73.5G85X129.7Y-73.5
G05
X129.1Y-98.437G85X129.7Y-98.437
G05
X144.3Y-23.5G85X144.9Y-23.5
G05
X144.3Y-48.437G85X144.9Y-48.437
G05
X144.3Y-73.5G85X144.9Y-73.5
G05
X144.3Y-98.437G85X144.9Y-98.437
G05
X154.1Y-23.5G85X154.7Y-23.5
G05
X154.1Y-48.437G85X154.7Y-48.437
G05
X154.1Y-73.5G85X154.7Y-73.5
G05
X154.1Y-98.437G85X154.7Y-98.437
G05
T0
M30
