G04 #@! TF.FileFunction,Soldermask,Top*
%FSLAX46Y46*%
G04 Gerber Fmt 4.6, Leading zero omitted, Abs format (unit mm)*
G04 Created by KiCad (PCBNEW 4.0.2-stable) date 17/08/2016 20:59:21*
%MOMM*%
G01*
G04 APERTURE LIST*
%ADD10C,0.100000*%
%ADD11C,3.600000*%
%ADD12R,1.797000X1.797000*%
%ADD13C,1.797000*%
%ADD14O,2.000000X2.000000*%
%ADD15C,2.899360*%
%ADD16O,2.400000X1.900000*%
%ADD17R,2.400000X1.900000*%
G04 APERTURE END LIST*
D10*
D11*
X38200000Y-81190000D03*
X128020000Y-81520000D03*
X126950000Y-47210000D03*
X38810000Y-47360000D03*
D12*
X56310000Y-65030000D03*
D13*
X56310000Y-57410000D03*
D12*
X86430000Y-64700000D03*
D13*
X86430000Y-57080000D03*
D14*
X62210000Y-54750000D03*
X62210000Y-57290000D03*
X62210000Y-59830000D03*
X62210000Y-62370000D03*
X69830000Y-62370000D03*
X69830000Y-59830000D03*
X69830000Y-57290000D03*
X69830000Y-54750000D03*
X92730000Y-54670000D03*
X92730000Y-57210000D03*
X92730000Y-59750000D03*
X92730000Y-62290000D03*
X100350000Y-62290000D03*
X100350000Y-59750000D03*
X100350000Y-57210000D03*
X100350000Y-54670000D03*
D15*
X43854681Y-73227540D03*
X56348941Y-70725640D03*
X51352761Y-73225000D03*
X58850841Y-73227540D03*
X46356581Y-70725640D03*
X56354021Y-83222440D03*
X46351501Y-83222440D03*
X87113180Y-73235100D03*
X99607440Y-70733200D03*
X94611260Y-73232560D03*
X102109340Y-73235100D03*
X89615080Y-70733200D03*
X99612520Y-83230000D03*
X89610000Y-83230000D03*
X65554681Y-73227540D03*
X78048941Y-70725640D03*
X73052761Y-73225000D03*
X80550841Y-73227540D03*
X68056581Y-70725640D03*
X78054021Y-83222440D03*
X68051501Y-83222440D03*
X108513180Y-73225100D03*
X121007440Y-70723200D03*
X116011260Y-73222560D03*
X123509340Y-73225100D03*
X111015080Y-70723200D03*
X121012520Y-83220000D03*
X111010000Y-83220000D03*
D16*
X51110000Y-50150000D03*
X48070000Y-50150000D03*
X48070000Y-52690000D03*
X51110000Y-52690000D03*
D17*
X51110000Y-60310000D03*
D16*
X48070000Y-60310000D03*
X51110000Y-57770000D03*
X48070000Y-57770000D03*
X51110000Y-55230000D03*
X48070000Y-55230000D03*
X119130000Y-49790000D03*
X116090000Y-49790000D03*
X116090000Y-52330000D03*
X119130000Y-52330000D03*
D17*
X119130000Y-59950000D03*
D16*
X116090000Y-59950000D03*
X119130000Y-57410000D03*
X116090000Y-57410000D03*
X119130000Y-54870000D03*
X116090000Y-54870000D03*
D13*
X83340000Y-55320000D03*
X83340000Y-62940000D03*
X73700000Y-57360000D03*
X73700000Y-64980000D03*
X126210000Y-69540000D03*
X126210000Y-77160000D03*
X103470000Y-57140000D03*
X103470000Y-64760000D03*
X59120000Y-65080000D03*
X59120000Y-57460000D03*
X77070000Y-60960000D03*
X77070000Y-53340000D03*
X79750000Y-64510000D03*
X79750000Y-56890000D03*
X89470000Y-64980000D03*
X89470000Y-57360000D03*
X106790000Y-56780000D03*
X106790000Y-49160000D03*
X110650000Y-64520000D03*
X110650000Y-56900000D03*
M02*
