G04 #@! TF.FileFunction,Copper,L2,Bot,Signal*
%FSLAX46Y46*%
G04 Gerber Fmt 4.6, Leading zero omitted, Abs format (unit mm)*
G04 Created by KiCad (PCBNEW 4.0.2-stable) date 17/08/2016 20:59:21*
%MOMM*%
G01*
G04 APERTURE LIST*
%ADD10C,0.100000*%
%ADD11R,1.397000X1.397000*%
%ADD12C,1.397000*%
%ADD13O,1.600000X1.600000*%
%ADD14C,2.499360*%
%ADD15O,2.000000X1.500000*%
%ADD16R,2.000000X1.500000*%
%ADD17C,1.600000*%
%ADD18C,0.500000*%
%ADD19C,0.254000*%
G04 APERTURE END LIST*
D10*
D11*
X56310000Y-65030000D03*
D12*
X56310000Y-57410000D03*
D11*
X86430000Y-64700000D03*
D12*
X86430000Y-57080000D03*
D13*
X62210000Y-54750000D03*
X62210000Y-57290000D03*
X62210000Y-59830000D03*
X62210000Y-62370000D03*
X69830000Y-62370000D03*
X69830000Y-59830000D03*
X69830000Y-57290000D03*
X69830000Y-54750000D03*
X92730000Y-54670000D03*
X92730000Y-57210000D03*
X92730000Y-59750000D03*
X92730000Y-62290000D03*
X100350000Y-62290000D03*
X100350000Y-59750000D03*
X100350000Y-57210000D03*
X100350000Y-54670000D03*
D14*
X43854681Y-73227540D03*
X56348941Y-70725640D03*
X51352761Y-73225000D03*
X58850841Y-73227540D03*
X46356581Y-70725640D03*
X56354021Y-83222440D03*
X46351501Y-83222440D03*
X87113180Y-73235100D03*
X99607440Y-70733200D03*
X94611260Y-73232560D03*
X102109340Y-73235100D03*
X89615080Y-70733200D03*
X99612520Y-83230000D03*
X89610000Y-83230000D03*
X65554681Y-73227540D03*
X78048941Y-70725640D03*
X73052761Y-73225000D03*
X80550841Y-73227540D03*
X68056581Y-70725640D03*
X78054021Y-83222440D03*
X68051501Y-83222440D03*
X108513180Y-73225100D03*
X121007440Y-70723200D03*
X116011260Y-73222560D03*
X123509340Y-73225100D03*
X111015080Y-70723200D03*
X121012520Y-83220000D03*
X111010000Y-83220000D03*
D15*
X51110000Y-50150000D03*
X48070000Y-50150000D03*
X48070000Y-52690000D03*
X51110000Y-52690000D03*
D16*
X51110000Y-60310000D03*
D15*
X48070000Y-60310000D03*
X51110000Y-57770000D03*
X48070000Y-57770000D03*
X51110000Y-55230000D03*
X48070000Y-55230000D03*
X119130000Y-49790000D03*
X116090000Y-49790000D03*
X116090000Y-52330000D03*
X119130000Y-52330000D03*
D16*
X119130000Y-59950000D03*
D15*
X116090000Y-59950000D03*
X119130000Y-57410000D03*
X116090000Y-57410000D03*
X119130000Y-54870000D03*
X116090000Y-54870000D03*
D12*
X83340000Y-55320000D03*
X83340000Y-62940000D03*
X73700000Y-57360000D03*
X73700000Y-64980000D03*
X126210000Y-69540000D03*
X126210000Y-77160000D03*
X103470000Y-57140000D03*
X103470000Y-64760000D03*
X59120000Y-65080000D03*
X59120000Y-57460000D03*
X77070000Y-60960000D03*
X77070000Y-53340000D03*
X79750000Y-64510000D03*
X79750000Y-56890000D03*
X89470000Y-64980000D03*
X89470000Y-57360000D03*
X106790000Y-56780000D03*
X106790000Y-49160000D03*
X110650000Y-64520000D03*
X110650000Y-56900000D03*
D17*
X62513293Y-78402860D03*
X62430000Y-68740000D03*
X71997381Y-53200043D03*
X71850000Y-45480000D03*
X83760000Y-80150000D03*
X84260000Y-66130000D03*
X105000000Y-76679980D03*
X105030000Y-67750000D03*
X110705240Y-51560052D03*
X110840000Y-45519969D03*
X56257872Y-52751417D03*
X56514803Y-47099970D03*
X73860000Y-46790000D03*
X73788198Y-54361479D03*
D18*
X47694039Y-69475961D02*
X51740000Y-65430000D01*
X51740000Y-65430000D02*
X52140000Y-65030000D01*
X62210000Y-59830000D02*
X57340000Y-59830000D01*
X57340000Y-59830000D02*
X51740000Y-65430000D01*
X52140000Y-65030000D02*
X56310000Y-65030000D01*
X46356581Y-70725640D02*
X47606260Y-69475961D01*
X47606260Y-69475961D02*
X47694039Y-69475961D01*
X57010000Y-65030000D02*
X56310000Y-65030000D01*
X59120000Y-57460000D02*
X62040000Y-57460000D01*
X62040000Y-57460000D02*
X62210000Y-57290000D01*
X56310000Y-57410000D02*
X59060000Y-57400000D01*
X59060000Y-57400000D02*
X59120000Y-57460000D01*
X86430000Y-64700000D02*
X86430000Y-67189059D01*
X86430000Y-67189059D02*
X89606581Y-70365640D01*
X88380000Y-59850000D02*
X86430000Y-61800000D01*
X86430000Y-61800000D02*
X86430000Y-64700000D01*
X91498630Y-59850000D02*
X88380000Y-59850000D01*
X92730000Y-59750000D02*
X91598630Y-59750000D01*
X91598630Y-59750000D02*
X91498630Y-59850000D01*
X92578500Y-59750000D02*
X92730000Y-59750000D01*
X89470000Y-57360000D02*
X92580000Y-57360000D01*
X92580000Y-57360000D02*
X92730000Y-57210000D01*
X86430000Y-57080000D02*
X89190000Y-57080000D01*
X89190000Y-57080000D02*
X89470000Y-57360000D01*
X102133769Y-70300000D02*
X100567288Y-68733519D01*
X100567288Y-68733519D02*
X98647592Y-68733519D01*
X98647592Y-68733519D02*
X96610941Y-70770170D01*
X96610941Y-70770170D02*
X96610941Y-74192408D01*
X96610941Y-74192408D02*
X95571108Y-75232241D01*
X81510689Y-75227221D02*
X88087855Y-75219954D01*
X93651412Y-75232241D02*
X93639123Y-75219954D01*
X93639123Y-75219954D02*
X88087855Y-75219954D01*
X95571108Y-75232241D02*
X93651412Y-75232241D01*
X88087855Y-75219954D02*
X64594833Y-75227221D01*
X106460000Y-70300000D02*
X102133769Y-70300000D01*
X108270000Y-68490000D02*
X106460000Y-70300000D01*
X108270000Y-67160000D02*
X108270000Y-68490000D01*
X106568499Y-65458499D02*
X108270000Y-67160000D01*
X101481370Y-62290000D02*
X100350000Y-62290000D01*
X107485281Y-55331499D02*
X106094719Y-55331499D01*
X106094719Y-55331499D02*
X105341499Y-56084719D01*
X109201499Y-57047717D02*
X107485281Y-55331499D01*
X113014761Y-73185590D02*
X113014761Y-68936304D01*
X113014761Y-68936304D02*
X109201499Y-65123042D01*
X115051412Y-75222241D02*
X113014761Y-73185590D01*
X119007759Y-73185590D02*
X116971108Y-75222241D01*
X103470000Y-64760000D02*
X104168499Y-65458499D01*
X127658501Y-70235281D02*
X126905281Y-70988501D01*
X119007759Y-69763352D02*
X119007759Y-73185590D01*
X120047592Y-68723519D02*
X119007759Y-69763352D01*
X125514719Y-70988501D02*
X123249737Y-68723519D01*
X105341499Y-58429871D02*
X101481370Y-62290000D01*
X123249737Y-68723519D02*
X120047592Y-68723519D01*
X126905281Y-70988501D02*
X125514719Y-70988501D01*
X105341499Y-56084719D02*
X105341499Y-58429871D01*
X118880000Y-59950000D02*
X127658501Y-68728501D01*
X109201499Y-65123042D02*
X109201499Y-57047717D01*
X116971108Y-75222241D02*
X115051412Y-75222241D01*
X127658501Y-68728501D02*
X127658501Y-70235281D01*
X104168499Y-65458499D02*
X106568499Y-65458499D01*
X39799990Y-74960835D02*
X43242015Y-78402860D01*
X48455782Y-62139989D02*
X39799990Y-70795781D01*
X48725048Y-62139989D02*
X48455782Y-62139989D01*
X61381923Y-78402860D02*
X62513293Y-78402860D01*
X43242015Y-78402860D02*
X61381923Y-78402860D01*
X50860000Y-60310000D02*
X48725048Y-62139989D01*
X39799990Y-70795781D02*
X39799990Y-74960835D01*
X73700000Y-64980000D02*
X72440000Y-64980000D01*
X72440000Y-64980000D02*
X69830000Y-62370000D01*
X64594833Y-75227221D02*
X62430000Y-73062388D01*
X62430000Y-73062388D02*
X62430000Y-69871370D01*
X62430000Y-69871370D02*
X62430000Y-68740000D01*
X69830000Y-62370000D02*
X70629999Y-63169999D01*
X69830000Y-62370000D02*
X63460000Y-68740000D01*
X63460000Y-68740000D02*
X62430000Y-68740000D01*
X62929999Y-68240001D02*
X62430000Y-68740000D01*
X103470000Y-64760000D02*
X102820000Y-64760000D01*
X102820000Y-64760000D02*
X100350000Y-62290000D01*
X73700000Y-64980000D02*
X73350000Y-64980000D01*
X69798630Y-46400000D02*
X59523064Y-46400000D01*
X59523064Y-46400000D02*
X57673022Y-44549958D01*
X71850000Y-45480000D02*
X70718630Y-45480000D01*
X70718630Y-45480000D02*
X69798630Y-46400000D01*
X74771478Y-52811478D02*
X72385946Y-52811478D01*
X69830000Y-59830000D02*
X68279999Y-58279999D01*
X112178011Y-54870000D02*
X110418065Y-53110054D01*
X80210501Y-52871488D02*
X78293488Y-54788501D01*
X116340000Y-54870000D02*
X112178011Y-54870000D01*
X110418065Y-53110054D02*
X110001238Y-53110054D01*
X104780044Y-50700044D02*
X91640000Y-50700044D01*
X110001238Y-53110054D02*
X108499697Y-51608513D01*
X76374719Y-54788501D02*
X75380000Y-53793782D01*
X91640000Y-50700044D02*
X89468556Y-52871488D01*
X89468556Y-52871488D02*
X80210501Y-52871488D01*
X75380000Y-53420000D02*
X74771478Y-52811478D01*
X78293488Y-54788501D02*
X76374719Y-54788501D01*
X75380000Y-53793782D02*
X75380000Y-53420000D01*
X108499697Y-51608513D02*
X105688512Y-51608513D01*
X68279999Y-58279999D02*
X68279999Y-54005999D01*
X68279999Y-54005999D02*
X69086345Y-53199653D01*
X69086345Y-53199653D02*
X70865621Y-53199653D01*
X70865621Y-53199653D02*
X70866011Y-53200043D01*
X70866011Y-53200043D02*
X71997381Y-53200043D01*
X72385946Y-52811478D02*
X71997381Y-53200043D01*
X105688512Y-51608513D02*
X104780044Y-50700044D01*
X47330000Y-57770000D02*
X44319968Y-54759968D01*
X44319968Y-54759968D02*
X44319968Y-48060032D01*
X47310020Y-45069980D02*
X54836562Y-45069980D01*
X44319968Y-48060032D02*
X47310020Y-45069980D01*
X54836562Y-45069980D02*
X55356584Y-44549958D01*
X55356584Y-44549958D02*
X57673022Y-44549958D01*
X83340000Y-62940000D02*
X83340000Y-61952172D01*
X83340000Y-61952172D02*
X80417829Y-59030001D01*
X80417829Y-59030001D02*
X70629999Y-59030001D01*
X70629999Y-59030001D02*
X69830000Y-59830000D01*
X48320000Y-57770000D02*
X47330000Y-57770000D01*
X48238666Y-57770000D02*
X48078666Y-57930000D01*
X48320000Y-57770000D02*
X48238666Y-57770000D01*
X48620000Y-58210000D02*
X47960000Y-57550000D01*
X69830000Y-57290000D02*
X69770000Y-57400000D01*
X69770000Y-57400000D02*
X73700000Y-57360000D01*
X83760000Y-80150000D02*
X82628630Y-80150000D01*
X82628630Y-80150000D02*
X82438630Y-80340000D01*
X38799979Y-69910021D02*
X44300000Y-64410000D01*
X44300000Y-64410000D02*
X48320000Y-60310000D01*
X82438630Y-80340000D02*
X61600000Y-80340000D01*
X61600000Y-80340000D02*
X60920000Y-79660000D01*
X60920000Y-79660000D02*
X43084927Y-79660000D01*
X43084927Y-79660000D02*
X38983362Y-75558435D01*
X38983362Y-75558435D02*
X38799979Y-75558435D01*
X38799979Y-75558435D02*
X38799979Y-69910021D01*
X118130000Y-66610000D02*
X116340000Y-64820000D01*
X116340000Y-64820000D02*
X116340000Y-59950000D01*
X123280000Y-66610000D02*
X118130000Y-66610000D01*
X126210000Y-69540000D02*
X123280000Y-66610000D01*
X98380066Y-52700066D02*
X92480000Y-52700066D01*
X84337828Y-55330000D02*
X89850066Y-55330000D01*
X89850066Y-55330000D02*
X92480000Y-52700066D01*
X83340000Y-55320000D02*
X84327828Y-55320000D01*
X84327828Y-55320000D02*
X84337828Y-55330000D01*
X100350000Y-54670000D02*
X98380066Y-52700066D01*
X74395281Y-55911499D02*
X70991499Y-55911499D01*
X75513782Y-57030000D02*
X74395281Y-55911499D01*
X78622172Y-57030000D02*
X75513782Y-57030000D01*
X78762172Y-56890000D02*
X78622172Y-57030000D01*
X70629999Y-55549999D02*
X69830000Y-54750000D01*
X70991499Y-55911499D02*
X70629999Y-55549999D01*
X79750000Y-56890000D02*
X78762172Y-56890000D01*
X83340000Y-55320000D02*
X81320000Y-55320000D01*
X81320000Y-55320000D02*
X79750000Y-56890000D01*
X78673649Y-56978523D02*
X78762172Y-56890000D01*
X75626283Y-56978523D02*
X78673649Y-56978523D01*
X75626283Y-56978522D02*
X75638522Y-56978522D01*
X83340000Y-59780000D02*
X84970000Y-61410000D01*
X84970000Y-61410000D02*
X84970000Y-65420000D01*
X83340000Y-55320000D02*
X83340000Y-59780000D01*
X84970000Y-65420000D02*
X84260000Y-66130000D01*
X79750000Y-56270000D02*
X79750000Y-56890000D01*
X116340000Y-59950000D02*
X113780000Y-60030000D01*
X113780000Y-60030000D02*
X110650000Y-56900000D01*
X110650000Y-56900000D02*
X108081488Y-54331488D01*
X108081488Y-54331488D02*
X105680501Y-54331488D01*
X105680501Y-54331488D02*
X105341989Y-54670000D01*
X105341989Y-54670000D02*
X101481370Y-54670000D01*
X101481370Y-54670000D02*
X100350000Y-54670000D01*
X115198011Y-59950000D02*
X116340000Y-59950000D01*
X48320000Y-60310000D02*
X48320000Y-60910483D01*
X105000000Y-76679980D02*
X105547261Y-77227241D01*
X105547261Y-77227241D02*
X123880955Y-77227241D01*
X123880955Y-77227241D02*
X123948196Y-77160000D01*
X123948196Y-77160000D02*
X126210000Y-77160000D01*
X50860000Y-57770000D02*
X52710000Y-57770000D01*
X61619648Y-77002503D02*
X61769292Y-76852859D01*
X61769292Y-76852859D02*
X63392013Y-76852859D01*
X52710000Y-57770000D02*
X53659989Y-58719989D01*
X49348484Y-63359978D02*
X40800000Y-71908462D01*
X63766397Y-77227243D02*
X92817958Y-77227243D01*
X92817958Y-77227243D02*
X92822977Y-77232262D01*
X53659989Y-58719989D02*
X53659989Y-60681553D01*
X53659989Y-60681553D02*
X50981564Y-63359978D01*
X50981564Y-63359978D02*
X49348484Y-63359978D01*
X92822977Y-77232262D02*
X104447718Y-77232262D01*
X104447718Y-77232262D02*
X105000000Y-76679980D01*
X40800000Y-71908462D02*
X40800000Y-74546617D01*
X40800000Y-74546617D02*
X43255886Y-77002503D01*
X43255886Y-77002503D02*
X61619648Y-77002503D01*
X63392013Y-76852859D02*
X63766397Y-77227243D01*
X126908499Y-76461501D02*
X126210000Y-77160000D01*
X129658522Y-73711478D02*
X126908499Y-76461501D01*
X118961334Y-54870000D02*
X129658522Y-65567188D01*
X129658522Y-65567188D02*
X129658522Y-73711478D01*
X118880000Y-54870000D02*
X118961334Y-54870000D01*
X126052502Y-77002502D02*
X126210000Y-77160000D01*
X100350000Y-59750000D02*
X98799999Y-61300001D01*
X98799999Y-61300001D02*
X98799999Y-63034001D01*
X98799999Y-63034001D02*
X103585998Y-67820000D01*
X103585998Y-67820000D02*
X104322894Y-67750000D01*
X104322894Y-67750000D02*
X105030000Y-67750000D01*
X50860000Y-57770000D02*
X51670002Y-57770000D01*
X50860000Y-57770000D02*
X51670003Y-57770000D01*
X100350000Y-57210000D02*
X100650000Y-57210000D01*
X100650000Y-57210000D02*
X103470000Y-57140000D01*
X51352761Y-73225000D02*
X51352761Y-67407239D01*
X51352761Y-67407239D02*
X52080000Y-66680000D01*
X52080000Y-66680000D02*
X57520000Y-66680000D01*
X57520000Y-66680000D02*
X59120000Y-65080000D01*
X89470000Y-64980000D02*
X90168499Y-65678499D01*
X90168499Y-65678499D02*
X91658499Y-65678499D01*
X91658499Y-65678499D02*
X94602761Y-68622761D01*
X94602761Y-68622761D02*
X94602761Y-72865000D01*
X79750000Y-64510000D02*
X72750000Y-72922239D01*
X72750000Y-72922239D02*
X73052761Y-73225000D01*
X77110000Y-63713782D02*
X71347821Y-69475961D01*
X68056581Y-70725640D02*
X69306260Y-69475961D01*
X69306260Y-69475961D02*
X71347821Y-69475961D01*
X71347821Y-69475961D02*
X77150000Y-63673782D01*
X77150000Y-63673782D02*
X77150000Y-62137828D01*
X77150000Y-62137828D02*
X77150000Y-61150000D01*
X67860000Y-70529059D02*
X68056581Y-70725640D01*
X110650000Y-64520000D02*
X115500000Y-69370000D01*
X115500000Y-69370000D02*
X115500000Y-73000260D01*
X110503820Y-67979592D02*
X110503820Y-70500900D01*
X106790000Y-64265772D02*
X110503820Y-67979592D01*
X106790000Y-56780000D02*
X106790000Y-64265772D01*
X77864164Y-49650001D02*
X51359999Y-49650001D01*
X118880000Y-52330000D02*
X118961334Y-52330000D01*
X78064219Y-49449946D02*
X77864164Y-49650001D01*
X87005718Y-49449946D02*
X78064219Y-49449946D01*
X51359999Y-49650001D02*
X50860000Y-50150000D01*
X118901334Y-47190000D02*
X110564229Y-47190000D01*
X87005782Y-49450010D02*
X87005718Y-49449946D01*
X120880010Y-50411324D02*
X120880010Y-49168676D01*
X118961334Y-52330000D02*
X120880010Y-50411324D01*
X89764216Y-47700012D02*
X88014218Y-49450010D01*
X110564229Y-47190000D02*
X110054217Y-47700012D01*
X110054217Y-47700012D02*
X89764216Y-47700012D01*
X120880010Y-49168676D02*
X118901334Y-47190000D01*
X88014218Y-49450010D02*
X87005782Y-49450010D01*
X87600063Y-48449936D02*
X89349998Y-46700001D01*
X110020032Y-46319968D02*
X110040001Y-46319968D01*
X110040001Y-46319968D02*
X110840000Y-45519969D01*
X48320000Y-50150000D02*
X49820010Y-48649990D01*
X49820010Y-48649990D02*
X77449948Y-48649990D01*
X77449948Y-48649990D02*
X77650002Y-48449936D01*
X77650002Y-48449936D02*
X87600063Y-48449936D01*
X89349998Y-46700001D02*
X109639999Y-46700001D01*
X109639999Y-46700001D02*
X110020032Y-46319968D01*
X116340000Y-52330000D02*
X115570052Y-51560052D01*
X115570052Y-51560052D02*
X111836610Y-51560052D01*
X111836610Y-51560052D02*
X110705240Y-51560052D01*
X57359266Y-51650023D02*
X56257872Y-52751417D01*
X78960000Y-51449968D02*
X78759945Y-51650023D01*
X78759945Y-51650023D02*
X57359266Y-51650023D01*
X109904167Y-50010032D02*
X116119968Y-50010032D01*
X91163278Y-49700034D02*
X105194263Y-49700034D01*
X116119968Y-50010032D02*
X116340000Y-49790000D01*
X109305697Y-50608502D02*
X109904167Y-50010032D01*
X105194263Y-49700034D02*
X106102730Y-50608502D01*
X86177346Y-51450032D02*
X89413280Y-51450032D01*
X78960000Y-51449968D02*
X86177282Y-51449968D01*
X89413280Y-51450032D02*
X91163278Y-49700034D01*
X106102730Y-50608502D02*
X109305697Y-50608502D01*
X86177282Y-51449968D02*
X86177346Y-51450032D01*
X77070000Y-53340000D02*
X77768499Y-52641501D01*
X77768499Y-52641501D02*
X77768499Y-52641469D01*
X77768499Y-52641469D02*
X78960000Y-51449968D01*
X79250021Y-51449968D02*
X78960000Y-51449968D01*
X46319990Y-49384238D02*
X48074206Y-47630022D01*
X48320000Y-52690000D02*
X46319990Y-52690000D01*
X48074206Y-47630022D02*
X55984751Y-47630022D01*
X46319990Y-52690000D02*
X46319990Y-49384238D01*
X55984751Y-47630022D02*
X56514803Y-47099970D01*
X78478437Y-50449957D02*
X86591500Y-50449957D01*
X106330023Y-48700023D02*
X106790000Y-49160000D01*
X86591564Y-50450021D02*
X88999062Y-50450021D01*
X55251605Y-50650012D02*
X78278382Y-50650012D01*
X53211617Y-52690000D02*
X55251605Y-50650012D01*
X90749060Y-48700023D02*
X106330023Y-48700023D01*
X50860000Y-52690000D02*
X53211617Y-52690000D01*
X88999062Y-50450021D02*
X90749060Y-48700023D01*
X86591500Y-50449957D02*
X86591564Y-50450021D01*
X78278382Y-50650012D02*
X78478437Y-50449957D01*
X107927807Y-49010021D02*
X107777828Y-49160000D01*
X117379990Y-48289990D02*
X111298468Y-48289990D01*
X111298468Y-48289990D02*
X110578437Y-49010021D01*
X107777828Y-49160000D02*
X106790000Y-49160000D01*
X118880000Y-49790000D02*
X117379990Y-48289990D01*
X110578437Y-49010021D02*
X107927807Y-49010021D01*
X51395782Y-64359989D02*
X51350011Y-64359989D01*
X52170000Y-55230000D02*
X50860000Y-55230000D01*
X54660000Y-57720000D02*
X52170000Y-55230000D01*
X49762702Y-64359989D02*
X51395782Y-64359989D01*
X64180616Y-76227231D02*
X63180607Y-75227221D01*
X63180607Y-75227221D02*
X42894833Y-75227221D01*
X42894833Y-75227221D02*
X41800011Y-74132399D01*
X41800011Y-72322680D02*
X49762702Y-64359989D01*
X51395782Y-64359989D02*
X54660000Y-61095771D01*
X81924906Y-76227231D02*
X64180616Y-76227231D01*
X81932173Y-76219964D02*
X81924906Y-76227231D01*
X95985326Y-76232252D02*
X93237194Y-76232252D01*
X95997614Y-76219964D02*
X95985326Y-76232252D01*
X104213969Y-74090000D02*
X102084005Y-76219964D01*
X93237194Y-76232252D02*
X93224906Y-76219964D01*
X41800011Y-74132399D02*
X41800011Y-72322680D01*
X107024781Y-75224781D02*
X105890000Y-74090000D01*
X113639723Y-75224781D02*
X107024781Y-75224781D01*
X114637194Y-76222252D02*
X113639723Y-75224781D01*
X105890000Y-74090000D02*
X104213969Y-74090000D01*
X117385326Y-76222252D02*
X114637194Y-76222252D01*
X93224906Y-76219964D02*
X81932173Y-76219964D01*
X102084005Y-76219964D02*
X95997614Y-76219964D01*
X54660000Y-61095771D02*
X54660000Y-57720000D01*
X123733969Y-75960000D02*
X123466738Y-76227231D01*
X128658512Y-71035457D02*
X123733969Y-75960000D01*
X128658512Y-67988512D02*
X128658512Y-71035457D01*
X121090000Y-60420000D02*
X128658512Y-67988512D01*
X123466738Y-76227231D02*
X114642171Y-76227231D01*
X114642171Y-76227231D02*
X114574930Y-76159990D01*
X121090000Y-58809998D02*
X121090000Y-60420000D01*
X118880000Y-57410000D02*
X119690002Y-57410000D01*
X119690002Y-57410000D02*
X121090000Y-58809998D01*
X119824229Y-57410000D02*
X118880000Y-57410000D01*
X73060001Y-47589999D02*
X59298834Y-47589999D01*
X73860000Y-46790000D02*
X73060001Y-47589999D01*
X59298834Y-47589999D02*
X57258804Y-45549969D01*
X103910055Y-51700055D02*
X104928272Y-52718272D01*
X84493772Y-54329990D02*
X89435850Y-54329990D01*
X73788198Y-54361479D02*
X74423468Y-54361479D01*
X104928272Y-52718272D02*
X108155227Y-52718272D01*
X80905783Y-54319990D02*
X82196228Y-54319990D01*
X109547020Y-54110065D02*
X110003847Y-54110065D01*
X78449499Y-55788512D02*
X78707706Y-55788512D01*
X76040501Y-55978512D02*
X78259499Y-55978512D01*
X79054719Y-55441499D02*
X79164274Y-55441499D01*
X79335783Y-55269990D02*
X79955784Y-55269990D01*
X82196228Y-54319990D02*
X82644719Y-53871499D01*
X82644719Y-53871499D02*
X84035281Y-53871499D01*
X78707706Y-55788512D02*
X79054719Y-55441499D01*
X78259499Y-55978512D02*
X78449499Y-55788512D01*
X79955784Y-55269990D02*
X80905783Y-54319990D01*
X84035281Y-53871499D02*
X84493772Y-54329990D01*
X89435850Y-54329990D02*
X92065785Y-51700055D01*
X79164274Y-55441499D02*
X79335783Y-55269990D01*
X108155227Y-52718272D02*
X109547020Y-54110065D01*
X92065785Y-51700055D02*
X103910055Y-51700055D01*
X74423468Y-54361479D02*
X76040501Y-55978512D01*
X110003847Y-54110065D02*
X113303782Y-57410000D01*
X113303782Y-57410000D02*
X116340000Y-57410000D01*
X57258804Y-45549969D02*
X58328835Y-46620000D01*
X55770802Y-45549969D02*
X57258804Y-45549969D01*
X47959970Y-46330030D02*
X54990741Y-46330030D01*
X45319979Y-53999979D02*
X45319979Y-48970021D01*
X46550000Y-55230000D02*
X45319979Y-53999979D01*
X45319979Y-48970021D02*
X47959970Y-46330030D01*
X48320000Y-55230000D02*
X46550000Y-55230000D01*
X54990741Y-46330030D02*
X55770802Y-45549969D01*
X48320000Y-55230000D02*
X48238666Y-55230000D01*
X48238666Y-55230000D02*
X48178666Y-55170000D01*
X48145772Y-55230000D02*
X48320000Y-55230000D01*
D19*
G36*
X130790000Y-84290000D02*
X122608319Y-84290000D01*
X122609342Y-84288979D01*
X122896872Y-83596531D01*
X122897526Y-82846759D01*
X122611206Y-82153809D01*
X122420349Y-81962619D01*
X125784613Y-81962619D01*
X126124155Y-82784372D01*
X126752321Y-83413636D01*
X127573481Y-83754611D01*
X128462619Y-83755387D01*
X129284372Y-83415845D01*
X129913636Y-82787679D01*
X130254611Y-81966519D01*
X130255387Y-81077381D01*
X129915845Y-80255628D01*
X129287679Y-79626364D01*
X128466519Y-79285389D01*
X127577381Y-79284613D01*
X126755628Y-79624155D01*
X126126364Y-80252321D01*
X125785389Y-81073481D01*
X125784613Y-81962619D01*
X122420349Y-81962619D01*
X122081499Y-81623178D01*
X121389051Y-81335648D01*
X120639279Y-81334994D01*
X119946329Y-81621314D01*
X119415698Y-82151021D01*
X119128168Y-82843469D01*
X119127514Y-83593241D01*
X119413834Y-84286191D01*
X119417636Y-84290000D01*
X112605799Y-84290000D01*
X112606822Y-84288979D01*
X112894352Y-83596531D01*
X112895006Y-82846759D01*
X112608686Y-82153809D01*
X112078979Y-81623178D01*
X111386531Y-81335648D01*
X110636759Y-81334994D01*
X109943809Y-81621314D01*
X109413178Y-82151021D01*
X109125648Y-82843469D01*
X109124994Y-83593241D01*
X109411314Y-84286191D01*
X109415116Y-84290000D01*
X101213070Y-84290000D01*
X101496872Y-83606531D01*
X101497526Y-82856759D01*
X101211206Y-82163809D01*
X100681499Y-81633178D01*
X99989051Y-81345648D01*
X99239279Y-81344994D01*
X98546329Y-81631314D01*
X98015698Y-82161021D01*
X97728168Y-82853469D01*
X97727514Y-83603241D01*
X98011276Y-84290000D01*
X91210550Y-84290000D01*
X91494352Y-83606531D01*
X91495006Y-82856759D01*
X91208686Y-82163809D01*
X90678979Y-81633178D01*
X89986531Y-81345648D01*
X89236759Y-81344994D01*
X88543809Y-81631314D01*
X88013178Y-82161021D01*
X87725648Y-82853469D01*
X87724994Y-83603241D01*
X88008756Y-84290000D01*
X79651432Y-84290000D01*
X79938373Y-83598971D01*
X79939027Y-82849199D01*
X79652707Y-82156249D01*
X79123000Y-81625618D01*
X78430552Y-81338088D01*
X77680780Y-81337434D01*
X76987830Y-81623754D01*
X76457199Y-82153461D01*
X76169669Y-82845909D01*
X76169015Y-83595681D01*
X76455335Y-84288631D01*
X76456702Y-84290000D01*
X69648912Y-84290000D01*
X69935853Y-83598971D01*
X69936507Y-82849199D01*
X69650187Y-82156249D01*
X69120480Y-81625618D01*
X68428032Y-81338088D01*
X67678260Y-81337434D01*
X66985310Y-81623754D01*
X66454679Y-82153461D01*
X66167149Y-82845909D01*
X66166495Y-83595681D01*
X66452815Y-84288631D01*
X66454182Y-84290000D01*
X57951432Y-84290000D01*
X58238373Y-83598971D01*
X58239027Y-82849199D01*
X57952707Y-82156249D01*
X57423000Y-81625618D01*
X56730552Y-81338088D01*
X55980780Y-81337434D01*
X55287830Y-81623754D01*
X54757199Y-82153461D01*
X54469669Y-82845909D01*
X54469015Y-83595681D01*
X54755335Y-84288631D01*
X54756702Y-84290000D01*
X47948912Y-84290000D01*
X48235853Y-83598971D01*
X48236507Y-82849199D01*
X47950187Y-82156249D01*
X47420480Y-81625618D01*
X46728032Y-81338088D01*
X45978260Y-81337434D01*
X45285310Y-81623754D01*
X44754679Y-82153461D01*
X44467149Y-82845909D01*
X44466495Y-83595681D01*
X44752815Y-84288631D01*
X44754182Y-84290000D01*
X35210000Y-84290000D01*
X35210000Y-81632619D01*
X35964613Y-81632619D01*
X36304155Y-82454372D01*
X36932321Y-83083636D01*
X37753481Y-83424611D01*
X38642619Y-83425387D01*
X39464372Y-83085845D01*
X40093636Y-82457679D01*
X40434611Y-81636519D01*
X40435387Y-80747381D01*
X40095845Y-79925628D01*
X39467679Y-79296364D01*
X38646519Y-78955389D01*
X37757381Y-78954613D01*
X36935628Y-79294155D01*
X36306364Y-79922321D01*
X35965389Y-80743481D01*
X35964613Y-81632619D01*
X35210000Y-81632619D01*
X35210000Y-69910021D01*
X37914978Y-69910021D01*
X37914979Y-69910026D01*
X37914979Y-75558435D01*
X37982346Y-75897110D01*
X38174189Y-76184225D01*
X38461304Y-76376068D01*
X38571293Y-76397946D01*
X42459135Y-80285787D01*
X42459137Y-80285790D01*
X42746252Y-80477633D01*
X42801759Y-80488674D01*
X43084927Y-80545001D01*
X43084932Y-80545000D01*
X60553420Y-80545000D01*
X60974208Y-80965787D01*
X60974210Y-80965790D01*
X61141219Y-81077381D01*
X61261325Y-81157633D01*
X61600000Y-81225001D01*
X61600005Y-81225000D01*
X82438625Y-81225000D01*
X82438630Y-81225001D01*
X82721114Y-81168810D01*
X82744719Y-81164115D01*
X82946077Y-81365824D01*
X83473309Y-81584750D01*
X84044187Y-81585248D01*
X84571800Y-81367243D01*
X84975824Y-80963923D01*
X85194750Y-80436691D01*
X85195248Y-79865813D01*
X84977243Y-79338200D01*
X84573923Y-78934176D01*
X84046691Y-78715250D01*
X83475813Y-78714752D01*
X82948200Y-78932757D01*
X82612080Y-79268291D01*
X82289956Y-79332366D01*
X82281225Y-79338200D01*
X82106421Y-79455000D01*
X61966579Y-79455000D01*
X61545790Y-79034210D01*
X61426664Y-78954613D01*
X61258675Y-78842367D01*
X61202484Y-78831190D01*
X60920000Y-78774999D01*
X60919995Y-78775000D01*
X43451506Y-78775000D01*
X39684979Y-75008472D01*
X39684979Y-70276601D01*
X44925789Y-65035790D01*
X44928256Y-65032097D01*
X44931924Y-65029594D01*
X48138357Y-61759352D01*
X48320000Y-61795483D01*
X48658675Y-61728116D01*
X48859226Y-61594113D01*
X48882049Y-61589573D01*
X49331375Y-61289343D01*
X49475000Y-61074393D01*
X49475000Y-61186309D01*
X49571673Y-61419698D01*
X49750301Y-61598327D01*
X49983690Y-61695000D01*
X50824250Y-61695000D01*
X50983000Y-61536250D01*
X50983000Y-60437000D01*
X50963000Y-60437000D01*
X50963000Y-60183000D01*
X50983000Y-60183000D01*
X50983000Y-60163000D01*
X51237000Y-60163000D01*
X51237000Y-60183000D01*
X52586250Y-60183000D01*
X52745000Y-60024250D01*
X52745000Y-59433691D01*
X52648327Y-59200302D01*
X52469699Y-59021673D01*
X52236310Y-58925000D01*
X52108486Y-58925000D01*
X52371375Y-58749343D01*
X52397966Y-58709546D01*
X52774989Y-59086568D01*
X52774989Y-60314974D01*
X52619606Y-60470356D01*
X52586250Y-60437000D01*
X51237000Y-60437000D01*
X51237000Y-61536250D01*
X51395356Y-61694606D01*
X50614984Y-62474978D01*
X49348489Y-62474978D01*
X49348484Y-62474977D01*
X49066000Y-62531168D01*
X49009809Y-62542345D01*
X48722694Y-62734188D01*
X48722692Y-62734191D01*
X40174210Y-71282672D01*
X39982367Y-71569787D01*
X39982367Y-71569788D01*
X39914999Y-71908462D01*
X39915000Y-71908467D01*
X39915000Y-74546612D01*
X39914999Y-74546617D01*
X39969257Y-74819382D01*
X39982367Y-74885292D01*
X40137130Y-75116912D01*
X40174210Y-75172407D01*
X42630094Y-77628290D01*
X42630096Y-77628293D01*
X42917211Y-77820136D01*
X43255886Y-77887504D01*
X43255891Y-77887503D01*
X61619643Y-77887503D01*
X61619648Y-77887504D01*
X61902132Y-77831313D01*
X61958323Y-77820136D01*
X62081460Y-77737859D01*
X63025434Y-77737859D01*
X63140605Y-77853030D01*
X63140607Y-77853033D01*
X63427722Y-78044876D01*
X63483913Y-78056053D01*
X63766397Y-78112244D01*
X63766402Y-78112243D01*
X92797740Y-78112243D01*
X92822977Y-78117263D01*
X92822982Y-78117262D01*
X104447713Y-78117262D01*
X104447718Y-78117263D01*
X104631412Y-78080723D01*
X104713309Y-78114730D01*
X105284187Y-78115228D01*
X105374556Y-78077888D01*
X105547261Y-78112242D01*
X105547266Y-78112241D01*
X123880950Y-78112241D01*
X123880955Y-78112242D01*
X124163439Y-78056051D01*
X124218997Y-78045000D01*
X125209246Y-78045000D01*
X125453647Y-78289827D01*
X125943587Y-78493268D01*
X126474086Y-78493731D01*
X126964380Y-78291146D01*
X127339827Y-77916353D01*
X127543268Y-77426413D01*
X127543572Y-77078008D01*
X130284309Y-74337270D01*
X130284312Y-74337268D01*
X130476155Y-74050153D01*
X130501880Y-73920827D01*
X130543523Y-73711478D01*
X130543522Y-73711473D01*
X130543522Y-65567188D01*
X130476155Y-65228513D01*
X130284312Y-64941398D01*
X130284309Y-64941396D01*
X120700121Y-55357207D01*
X120797032Y-54870000D01*
X120691605Y-54339983D01*
X120391375Y-53890657D01*
X119956376Y-53600000D01*
X120391375Y-53309343D01*
X120691605Y-52860017D01*
X120797032Y-52330000D01*
X120700120Y-51842793D01*
X121505797Y-51037116D01*
X121505800Y-51037114D01*
X121697643Y-50749999D01*
X121717532Y-50650012D01*
X121765011Y-50411324D01*
X121765010Y-50411319D01*
X121765010Y-49168676D01*
X121697643Y-48830001D01*
X121505800Y-48542886D01*
X121505797Y-48542884D01*
X120615533Y-47652619D01*
X124714613Y-47652619D01*
X125054155Y-48474372D01*
X125682321Y-49103636D01*
X126503481Y-49444611D01*
X127392619Y-49445387D01*
X128214372Y-49105845D01*
X128843636Y-48477679D01*
X129184611Y-47656519D01*
X129185387Y-46767381D01*
X128845845Y-45945628D01*
X128217679Y-45316364D01*
X127396519Y-44975389D01*
X126507381Y-44974613D01*
X125685628Y-45314155D01*
X125056364Y-45942321D01*
X124715389Y-46763481D01*
X124714613Y-47652619D01*
X120615533Y-47652619D01*
X119527124Y-46564210D01*
X119439726Y-46505813D01*
X119240009Y-46372367D01*
X119183818Y-46361190D01*
X118901334Y-46304999D01*
X118901329Y-46305000D01*
X112067821Y-46305000D01*
X112274750Y-45806660D01*
X112275248Y-45235782D01*
X112057243Y-44708169D01*
X111653923Y-44304145D01*
X111126691Y-44085219D01*
X110555813Y-44084721D01*
X110028200Y-44302726D01*
X109624176Y-44706046D01*
X109405250Y-45233278D01*
X109404854Y-45687087D01*
X109394242Y-45694178D01*
X109394240Y-45694181D01*
X109273420Y-45815001D01*
X89350003Y-45815001D01*
X89349998Y-45815000D01*
X89067514Y-45871191D01*
X89011323Y-45882368D01*
X88724208Y-46074211D01*
X88724206Y-46074214D01*
X87233483Y-47564936D01*
X77650007Y-47564936D01*
X77650002Y-47564935D01*
X77322794Y-47630022D01*
X77311327Y-47632303D01*
X77112746Y-47764990D01*
X74914476Y-47764990D01*
X75075824Y-47603923D01*
X75294750Y-47076691D01*
X75295248Y-46505813D01*
X75077243Y-45978200D01*
X74673923Y-45574176D01*
X74146691Y-45355250D01*
X73575813Y-45354752D01*
X73285005Y-45474911D01*
X73285248Y-45195813D01*
X73067243Y-44668200D01*
X72663923Y-44264176D01*
X72136691Y-44045250D01*
X71565813Y-44044752D01*
X71038200Y-44262757D01*
X70702079Y-44598292D01*
X70379955Y-44662367D01*
X70092840Y-44854210D01*
X70092838Y-44854213D01*
X69432050Y-45515000D01*
X59889643Y-45515000D01*
X58298812Y-43924168D01*
X58011697Y-43732325D01*
X57955506Y-43721148D01*
X57673022Y-43664957D01*
X57673017Y-43664958D01*
X55356589Y-43664958D01*
X55356584Y-43664957D01*
X55017909Y-43732325D01*
X54730794Y-43924168D01*
X54730792Y-43924171D01*
X54469982Y-44184980D01*
X47310025Y-44184980D01*
X47310020Y-44184979D01*
X46971345Y-44252347D01*
X46684230Y-44444190D01*
X46684228Y-44444193D01*
X43694178Y-47434242D01*
X43502335Y-47721357D01*
X43493656Y-47764990D01*
X43434967Y-48060032D01*
X43434968Y-48060037D01*
X43434968Y-54759963D01*
X43434967Y-54759968D01*
X43476921Y-54970878D01*
X43502335Y-55098643D01*
X43650240Y-55320000D01*
X43694178Y-55385758D01*
X46483554Y-58175133D01*
X46508395Y-58300017D01*
X46808625Y-58749343D01*
X47243624Y-59040000D01*
X46808625Y-59330657D01*
X46508395Y-59779983D01*
X46402968Y-60310000D01*
X46508395Y-60840017D01*
X46529673Y-60871862D01*
X43671141Y-63787280D01*
X38174189Y-69284231D01*
X37982346Y-69571346D01*
X37982346Y-69571347D01*
X37914978Y-69910021D01*
X35210000Y-69910021D01*
X35210000Y-47802619D01*
X36574613Y-47802619D01*
X36914155Y-48624372D01*
X37542321Y-49253636D01*
X38363481Y-49594611D01*
X39252619Y-49595387D01*
X40074372Y-49255845D01*
X40703636Y-48627679D01*
X41044611Y-47806519D01*
X41045387Y-46917381D01*
X40705845Y-46095628D01*
X40077679Y-45466364D01*
X39256519Y-45125389D01*
X38367381Y-45124613D01*
X37545628Y-45464155D01*
X36916364Y-46092321D01*
X36575389Y-46913481D01*
X36574613Y-47802619D01*
X35210000Y-47802619D01*
X35210000Y-43210000D01*
X130790000Y-43210000D01*
X130790000Y-84290000D01*
X130790000Y-84290000D01*
G37*
X130790000Y-84290000D02*
X122608319Y-84290000D01*
X122609342Y-84288979D01*
X122896872Y-83596531D01*
X122897526Y-82846759D01*
X122611206Y-82153809D01*
X122420349Y-81962619D01*
X125784613Y-81962619D01*
X126124155Y-82784372D01*
X126752321Y-83413636D01*
X127573481Y-83754611D01*
X128462619Y-83755387D01*
X129284372Y-83415845D01*
X129913636Y-82787679D01*
X130254611Y-81966519D01*
X130255387Y-81077381D01*
X129915845Y-80255628D01*
X129287679Y-79626364D01*
X128466519Y-79285389D01*
X127577381Y-79284613D01*
X126755628Y-79624155D01*
X126126364Y-80252321D01*
X125785389Y-81073481D01*
X125784613Y-81962619D01*
X122420349Y-81962619D01*
X122081499Y-81623178D01*
X121389051Y-81335648D01*
X120639279Y-81334994D01*
X119946329Y-81621314D01*
X119415698Y-82151021D01*
X119128168Y-82843469D01*
X119127514Y-83593241D01*
X119413834Y-84286191D01*
X119417636Y-84290000D01*
X112605799Y-84290000D01*
X112606822Y-84288979D01*
X112894352Y-83596531D01*
X112895006Y-82846759D01*
X112608686Y-82153809D01*
X112078979Y-81623178D01*
X111386531Y-81335648D01*
X110636759Y-81334994D01*
X109943809Y-81621314D01*
X109413178Y-82151021D01*
X109125648Y-82843469D01*
X109124994Y-83593241D01*
X109411314Y-84286191D01*
X109415116Y-84290000D01*
X101213070Y-84290000D01*
X101496872Y-83606531D01*
X101497526Y-82856759D01*
X101211206Y-82163809D01*
X100681499Y-81633178D01*
X99989051Y-81345648D01*
X99239279Y-81344994D01*
X98546329Y-81631314D01*
X98015698Y-82161021D01*
X97728168Y-82853469D01*
X97727514Y-83603241D01*
X98011276Y-84290000D01*
X91210550Y-84290000D01*
X91494352Y-83606531D01*
X91495006Y-82856759D01*
X91208686Y-82163809D01*
X90678979Y-81633178D01*
X89986531Y-81345648D01*
X89236759Y-81344994D01*
X88543809Y-81631314D01*
X88013178Y-82161021D01*
X87725648Y-82853469D01*
X87724994Y-83603241D01*
X88008756Y-84290000D01*
X79651432Y-84290000D01*
X79938373Y-83598971D01*
X79939027Y-82849199D01*
X79652707Y-82156249D01*
X79123000Y-81625618D01*
X78430552Y-81338088D01*
X77680780Y-81337434D01*
X76987830Y-81623754D01*
X76457199Y-82153461D01*
X76169669Y-82845909D01*
X76169015Y-83595681D01*
X76455335Y-84288631D01*
X76456702Y-84290000D01*
X69648912Y-84290000D01*
X69935853Y-83598971D01*
X69936507Y-82849199D01*
X69650187Y-82156249D01*
X69120480Y-81625618D01*
X68428032Y-81338088D01*
X67678260Y-81337434D01*
X66985310Y-81623754D01*
X66454679Y-82153461D01*
X66167149Y-82845909D01*
X66166495Y-83595681D01*
X66452815Y-84288631D01*
X66454182Y-84290000D01*
X57951432Y-84290000D01*
X58238373Y-83598971D01*
X58239027Y-82849199D01*
X57952707Y-82156249D01*
X57423000Y-81625618D01*
X56730552Y-81338088D01*
X55980780Y-81337434D01*
X55287830Y-81623754D01*
X54757199Y-82153461D01*
X54469669Y-82845909D01*
X54469015Y-83595681D01*
X54755335Y-84288631D01*
X54756702Y-84290000D01*
X47948912Y-84290000D01*
X48235853Y-83598971D01*
X48236507Y-82849199D01*
X47950187Y-82156249D01*
X47420480Y-81625618D01*
X46728032Y-81338088D01*
X45978260Y-81337434D01*
X45285310Y-81623754D01*
X44754679Y-82153461D01*
X44467149Y-82845909D01*
X44466495Y-83595681D01*
X44752815Y-84288631D01*
X44754182Y-84290000D01*
X35210000Y-84290000D01*
X35210000Y-81632619D01*
X35964613Y-81632619D01*
X36304155Y-82454372D01*
X36932321Y-83083636D01*
X37753481Y-83424611D01*
X38642619Y-83425387D01*
X39464372Y-83085845D01*
X40093636Y-82457679D01*
X40434611Y-81636519D01*
X40435387Y-80747381D01*
X40095845Y-79925628D01*
X39467679Y-79296364D01*
X38646519Y-78955389D01*
X37757381Y-78954613D01*
X36935628Y-79294155D01*
X36306364Y-79922321D01*
X35965389Y-80743481D01*
X35964613Y-81632619D01*
X35210000Y-81632619D01*
X35210000Y-69910021D01*
X37914978Y-69910021D01*
X37914979Y-69910026D01*
X37914979Y-75558435D01*
X37982346Y-75897110D01*
X38174189Y-76184225D01*
X38461304Y-76376068D01*
X38571293Y-76397946D01*
X42459135Y-80285787D01*
X42459137Y-80285790D01*
X42746252Y-80477633D01*
X42801759Y-80488674D01*
X43084927Y-80545001D01*
X43084932Y-80545000D01*
X60553420Y-80545000D01*
X60974208Y-80965787D01*
X60974210Y-80965790D01*
X61141219Y-81077381D01*
X61261325Y-81157633D01*
X61600000Y-81225001D01*
X61600005Y-81225000D01*
X82438625Y-81225000D01*
X82438630Y-81225001D01*
X82721114Y-81168810D01*
X82744719Y-81164115D01*
X82946077Y-81365824D01*
X83473309Y-81584750D01*
X84044187Y-81585248D01*
X84571800Y-81367243D01*
X84975824Y-80963923D01*
X85194750Y-80436691D01*
X85195248Y-79865813D01*
X84977243Y-79338200D01*
X84573923Y-78934176D01*
X84046691Y-78715250D01*
X83475813Y-78714752D01*
X82948200Y-78932757D01*
X82612080Y-79268291D01*
X82289956Y-79332366D01*
X82281225Y-79338200D01*
X82106421Y-79455000D01*
X61966579Y-79455000D01*
X61545790Y-79034210D01*
X61426664Y-78954613D01*
X61258675Y-78842367D01*
X61202484Y-78831190D01*
X60920000Y-78774999D01*
X60919995Y-78775000D01*
X43451506Y-78775000D01*
X39684979Y-75008472D01*
X39684979Y-70276601D01*
X44925789Y-65035790D01*
X44928256Y-65032097D01*
X44931924Y-65029594D01*
X48138357Y-61759352D01*
X48320000Y-61795483D01*
X48658675Y-61728116D01*
X48859226Y-61594113D01*
X48882049Y-61589573D01*
X49331375Y-61289343D01*
X49475000Y-61074393D01*
X49475000Y-61186309D01*
X49571673Y-61419698D01*
X49750301Y-61598327D01*
X49983690Y-61695000D01*
X50824250Y-61695000D01*
X50983000Y-61536250D01*
X50983000Y-60437000D01*
X50963000Y-60437000D01*
X50963000Y-60183000D01*
X50983000Y-60183000D01*
X50983000Y-60163000D01*
X51237000Y-60163000D01*
X51237000Y-60183000D01*
X52586250Y-60183000D01*
X52745000Y-60024250D01*
X52745000Y-59433691D01*
X52648327Y-59200302D01*
X52469699Y-59021673D01*
X52236310Y-58925000D01*
X52108486Y-58925000D01*
X52371375Y-58749343D01*
X52397966Y-58709546D01*
X52774989Y-59086568D01*
X52774989Y-60314974D01*
X52619606Y-60470356D01*
X52586250Y-60437000D01*
X51237000Y-60437000D01*
X51237000Y-61536250D01*
X51395356Y-61694606D01*
X50614984Y-62474978D01*
X49348489Y-62474978D01*
X49348484Y-62474977D01*
X49066000Y-62531168D01*
X49009809Y-62542345D01*
X48722694Y-62734188D01*
X48722692Y-62734191D01*
X40174210Y-71282672D01*
X39982367Y-71569787D01*
X39982367Y-71569788D01*
X39914999Y-71908462D01*
X39915000Y-71908467D01*
X39915000Y-74546612D01*
X39914999Y-74546617D01*
X39969257Y-74819382D01*
X39982367Y-74885292D01*
X40137130Y-75116912D01*
X40174210Y-75172407D01*
X42630094Y-77628290D01*
X42630096Y-77628293D01*
X42917211Y-77820136D01*
X43255886Y-77887504D01*
X43255891Y-77887503D01*
X61619643Y-77887503D01*
X61619648Y-77887504D01*
X61902132Y-77831313D01*
X61958323Y-77820136D01*
X62081460Y-77737859D01*
X63025434Y-77737859D01*
X63140605Y-77853030D01*
X63140607Y-77853033D01*
X63427722Y-78044876D01*
X63483913Y-78056053D01*
X63766397Y-78112244D01*
X63766402Y-78112243D01*
X92797740Y-78112243D01*
X92822977Y-78117263D01*
X92822982Y-78117262D01*
X104447713Y-78117262D01*
X104447718Y-78117263D01*
X104631412Y-78080723D01*
X104713309Y-78114730D01*
X105284187Y-78115228D01*
X105374556Y-78077888D01*
X105547261Y-78112242D01*
X105547266Y-78112241D01*
X123880950Y-78112241D01*
X123880955Y-78112242D01*
X124163439Y-78056051D01*
X124218997Y-78045000D01*
X125209246Y-78045000D01*
X125453647Y-78289827D01*
X125943587Y-78493268D01*
X126474086Y-78493731D01*
X126964380Y-78291146D01*
X127339827Y-77916353D01*
X127543268Y-77426413D01*
X127543572Y-77078008D01*
X130284309Y-74337270D01*
X130284312Y-74337268D01*
X130476155Y-74050153D01*
X130501880Y-73920827D01*
X130543523Y-73711478D01*
X130543522Y-73711473D01*
X130543522Y-65567188D01*
X130476155Y-65228513D01*
X130284312Y-64941398D01*
X130284309Y-64941396D01*
X120700121Y-55357207D01*
X120797032Y-54870000D01*
X120691605Y-54339983D01*
X120391375Y-53890657D01*
X119956376Y-53600000D01*
X120391375Y-53309343D01*
X120691605Y-52860017D01*
X120797032Y-52330000D01*
X120700120Y-51842793D01*
X121505797Y-51037116D01*
X121505800Y-51037114D01*
X121697643Y-50749999D01*
X121717532Y-50650012D01*
X121765011Y-50411324D01*
X121765010Y-50411319D01*
X121765010Y-49168676D01*
X121697643Y-48830001D01*
X121505800Y-48542886D01*
X121505797Y-48542884D01*
X120615533Y-47652619D01*
X124714613Y-47652619D01*
X125054155Y-48474372D01*
X125682321Y-49103636D01*
X126503481Y-49444611D01*
X127392619Y-49445387D01*
X128214372Y-49105845D01*
X128843636Y-48477679D01*
X129184611Y-47656519D01*
X129185387Y-46767381D01*
X128845845Y-45945628D01*
X128217679Y-45316364D01*
X127396519Y-44975389D01*
X126507381Y-44974613D01*
X125685628Y-45314155D01*
X125056364Y-45942321D01*
X124715389Y-46763481D01*
X124714613Y-47652619D01*
X120615533Y-47652619D01*
X119527124Y-46564210D01*
X119439726Y-46505813D01*
X119240009Y-46372367D01*
X119183818Y-46361190D01*
X118901334Y-46304999D01*
X118901329Y-46305000D01*
X112067821Y-46305000D01*
X112274750Y-45806660D01*
X112275248Y-45235782D01*
X112057243Y-44708169D01*
X111653923Y-44304145D01*
X111126691Y-44085219D01*
X110555813Y-44084721D01*
X110028200Y-44302726D01*
X109624176Y-44706046D01*
X109405250Y-45233278D01*
X109404854Y-45687087D01*
X109394242Y-45694178D01*
X109394240Y-45694181D01*
X109273420Y-45815001D01*
X89350003Y-45815001D01*
X89349998Y-45815000D01*
X89067514Y-45871191D01*
X89011323Y-45882368D01*
X88724208Y-46074211D01*
X88724206Y-46074214D01*
X87233483Y-47564936D01*
X77650007Y-47564936D01*
X77650002Y-47564935D01*
X77322794Y-47630022D01*
X77311327Y-47632303D01*
X77112746Y-47764990D01*
X74914476Y-47764990D01*
X75075824Y-47603923D01*
X75294750Y-47076691D01*
X75295248Y-46505813D01*
X75077243Y-45978200D01*
X74673923Y-45574176D01*
X74146691Y-45355250D01*
X73575813Y-45354752D01*
X73285005Y-45474911D01*
X73285248Y-45195813D01*
X73067243Y-44668200D01*
X72663923Y-44264176D01*
X72136691Y-44045250D01*
X71565813Y-44044752D01*
X71038200Y-44262757D01*
X70702079Y-44598292D01*
X70379955Y-44662367D01*
X70092840Y-44854210D01*
X70092838Y-44854213D01*
X69432050Y-45515000D01*
X59889643Y-45515000D01*
X58298812Y-43924168D01*
X58011697Y-43732325D01*
X57955506Y-43721148D01*
X57673022Y-43664957D01*
X57673017Y-43664958D01*
X55356589Y-43664958D01*
X55356584Y-43664957D01*
X55017909Y-43732325D01*
X54730794Y-43924168D01*
X54730792Y-43924171D01*
X54469982Y-44184980D01*
X47310025Y-44184980D01*
X47310020Y-44184979D01*
X46971345Y-44252347D01*
X46684230Y-44444190D01*
X46684228Y-44444193D01*
X43694178Y-47434242D01*
X43502335Y-47721357D01*
X43493656Y-47764990D01*
X43434967Y-48060032D01*
X43434968Y-48060037D01*
X43434968Y-54759963D01*
X43434967Y-54759968D01*
X43476921Y-54970878D01*
X43502335Y-55098643D01*
X43650240Y-55320000D01*
X43694178Y-55385758D01*
X46483554Y-58175133D01*
X46508395Y-58300017D01*
X46808625Y-58749343D01*
X47243624Y-59040000D01*
X46808625Y-59330657D01*
X46508395Y-59779983D01*
X46402968Y-60310000D01*
X46508395Y-60840017D01*
X46529673Y-60871862D01*
X43671141Y-63787280D01*
X38174189Y-69284231D01*
X37982346Y-69571346D01*
X37982346Y-69571347D01*
X37914978Y-69910021D01*
X35210000Y-69910021D01*
X35210000Y-47802619D01*
X36574613Y-47802619D01*
X36914155Y-48624372D01*
X37542321Y-49253636D01*
X38363481Y-49594611D01*
X39252619Y-49595387D01*
X40074372Y-49255845D01*
X40703636Y-48627679D01*
X41044611Y-47806519D01*
X41045387Y-46917381D01*
X40705845Y-46095628D01*
X40077679Y-45466364D01*
X39256519Y-45125389D01*
X38367381Y-45124613D01*
X37545628Y-45464155D01*
X36916364Y-46092321D01*
X36575389Y-46913481D01*
X36574613Y-47802619D01*
X35210000Y-47802619D01*
X35210000Y-43210000D01*
X130790000Y-43210000D01*
X130790000Y-84290000D01*
G36*
X54823122Y-52464726D02*
X54822624Y-53035604D01*
X55040629Y-53563217D01*
X55443949Y-53967241D01*
X55971181Y-54186167D01*
X56542059Y-54186665D01*
X57069672Y-53968660D01*
X57473696Y-53565340D01*
X57692622Y-53038108D01*
X57693032Y-52567836D01*
X57725845Y-52535023D01*
X68518684Y-52535023D01*
X68460555Y-52573863D01*
X68460553Y-52573866D01*
X67654209Y-53380209D01*
X67462366Y-53667324D01*
X67460108Y-53678674D01*
X67394998Y-54005999D01*
X67394999Y-54006004D01*
X67394999Y-58279994D01*
X67394998Y-58279999D01*
X67436999Y-58491146D01*
X67462366Y-58618674D01*
X67610452Y-58840302D01*
X67654209Y-58905789D01*
X68401983Y-59653562D01*
X68366887Y-59830000D01*
X68476120Y-60379151D01*
X68787189Y-60844698D01*
X69191703Y-61114986D01*
X68974866Y-61217611D01*
X68598959Y-61632577D01*
X68438096Y-62020961D01*
X68560085Y-62243000D01*
X69703000Y-62243000D01*
X69703000Y-62223000D01*
X69957000Y-62223000D01*
X69957000Y-62243000D01*
X71099915Y-62243000D01*
X71221904Y-62020961D01*
X71061041Y-61632577D01*
X70685134Y-61217611D01*
X70468297Y-61114986D01*
X70872811Y-60844698D01*
X71183880Y-60379151D01*
X71276205Y-59915001D01*
X76229323Y-59915001D01*
X75940173Y-60203647D01*
X75736732Y-60693587D01*
X75736269Y-61224086D01*
X75938854Y-61714380D01*
X76265000Y-62041095D01*
X76265000Y-63307203D01*
X74991448Y-64580755D01*
X74869800Y-64287071D01*
X74634188Y-64225417D01*
X73879605Y-64980000D01*
X73893748Y-64994143D01*
X73714143Y-65173748D01*
X73700000Y-65159605D01*
X72945417Y-65914188D01*
X73007071Y-66149800D01*
X73314277Y-66257926D01*
X70981241Y-68590961D01*
X69306265Y-68590961D01*
X69306260Y-68590960D01*
X69023776Y-68647151D01*
X68967585Y-68658328D01*
X68680470Y-68850171D01*
X68680468Y-68850174D01*
X68614171Y-68916471D01*
X68433112Y-68841288D01*
X67683340Y-68840634D01*
X66990390Y-69126954D01*
X66459759Y-69656661D01*
X66172229Y-70349109D01*
X66171575Y-71098881D01*
X66343207Y-71514264D01*
X65931212Y-71343188D01*
X65181440Y-71342534D01*
X64488490Y-71628854D01*
X63957859Y-72158561D01*
X63670329Y-72851009D01*
X63669675Y-73600781D01*
X63955995Y-74293731D01*
X64485702Y-74824362D01*
X65178150Y-75111892D01*
X65927922Y-75112546D01*
X66620872Y-74826226D01*
X67151503Y-74296519D01*
X67439033Y-73604071D01*
X67439038Y-73598241D01*
X71167755Y-73598241D01*
X71454075Y-74291191D01*
X71983782Y-74821822D01*
X72676230Y-75109352D01*
X73426002Y-75110006D01*
X74118952Y-74823686D01*
X74649583Y-74293979D01*
X74937113Y-73601531D01*
X74937767Y-72851759D01*
X74651447Y-72158809D01*
X74588806Y-72096059D01*
X76286215Y-70056201D01*
X76164589Y-70349109D01*
X76163935Y-71098881D01*
X76450255Y-71791831D01*
X76979962Y-72322462D01*
X77672410Y-72609992D01*
X78422182Y-72610646D01*
X78837565Y-72439014D01*
X78666489Y-72851009D01*
X78665835Y-73600781D01*
X78952155Y-74293731D01*
X79481862Y-74824362D01*
X80174310Y-75111892D01*
X80924082Y-75112546D01*
X81617032Y-74826226D01*
X82147663Y-74296519D01*
X82435193Y-73604071D01*
X82435847Y-72854299D01*
X82149527Y-72161349D01*
X81619820Y-71630718D01*
X80927372Y-71343188D01*
X80177600Y-71342534D01*
X79762217Y-71514166D01*
X79933293Y-71102171D01*
X79933947Y-70352399D01*
X79647627Y-69659449D01*
X79117920Y-69128818D01*
X78425472Y-68841288D01*
X77675700Y-68840634D01*
X77099656Y-69078649D01*
X79791662Y-65843537D01*
X80014086Y-65843731D01*
X80504380Y-65641146D01*
X80879827Y-65266353D01*
X81083268Y-64776413D01*
X81083731Y-64245914D01*
X80881146Y-63755620D01*
X80506353Y-63380173D01*
X80016413Y-63176732D01*
X79485914Y-63176269D01*
X78995620Y-63378854D01*
X78620173Y-63753647D01*
X78416732Y-64243587D01*
X78416308Y-64729158D01*
X72915123Y-71340200D01*
X72679520Y-71339994D01*
X71986570Y-71626314D01*
X71455939Y-72156021D01*
X71168409Y-72848469D01*
X71167755Y-73598241D01*
X67439038Y-73598241D01*
X67439687Y-72854299D01*
X67268055Y-72438916D01*
X67680050Y-72609992D01*
X68429822Y-72610646D01*
X69122772Y-72324326D01*
X69653403Y-71794619D01*
X69940933Y-71102171D01*
X69941580Y-70360961D01*
X71347816Y-70360961D01*
X71347821Y-70360962D01*
X71630305Y-70304771D01*
X71686496Y-70293594D01*
X71973611Y-70101751D01*
X71973612Y-70101750D01*
X77775787Y-64299574D01*
X77775790Y-64299572D01*
X77967633Y-64012457D01*
X77969640Y-64002367D01*
X78035001Y-63673782D01*
X78035000Y-63673777D01*
X78035000Y-61880893D01*
X78199827Y-61716353D01*
X78403268Y-61226413D01*
X78403731Y-60695914D01*
X78201146Y-60205620D01*
X77911033Y-59915001D01*
X80051249Y-59915001D01*
X82265082Y-62128833D01*
X82210173Y-62183647D01*
X82006732Y-62673587D01*
X82006269Y-63204086D01*
X82208854Y-63694380D01*
X82583647Y-64069827D01*
X83073587Y-64273268D01*
X83604086Y-64273731D01*
X84085000Y-64075022D01*
X84085000Y-64694847D01*
X83975813Y-64694752D01*
X83448200Y-64912757D01*
X83044176Y-65316077D01*
X82825250Y-65843309D01*
X82824752Y-66414187D01*
X83042757Y-66941800D01*
X83446077Y-67345824D01*
X83973309Y-67564750D01*
X84544187Y-67565248D01*
X85071800Y-67347243D01*
X85475824Y-66943923D01*
X85545000Y-66777329D01*
X85545000Y-67189054D01*
X85544999Y-67189059D01*
X85599552Y-67463309D01*
X85612367Y-67527734D01*
X85704959Y-67666308D01*
X85804210Y-67814849D01*
X87911261Y-69921899D01*
X87730728Y-70356669D01*
X87730074Y-71106441D01*
X87901706Y-71521824D01*
X87489711Y-71350748D01*
X86739939Y-71350094D01*
X86046989Y-71636414D01*
X85516358Y-72166121D01*
X85228828Y-72858569D01*
X85228174Y-73608341D01*
X85514494Y-74301291D01*
X86044201Y-74831922D01*
X86736649Y-75119452D01*
X87486421Y-75120106D01*
X88179371Y-74833786D01*
X88710002Y-74304079D01*
X88997532Y-73611631D01*
X88998186Y-72861859D01*
X88826554Y-72446476D01*
X89238549Y-72617552D01*
X89988321Y-72618206D01*
X90681271Y-72331886D01*
X91211902Y-71802179D01*
X91499432Y-71109731D01*
X91500086Y-70359959D01*
X91213766Y-69667009D01*
X90684059Y-69136378D01*
X89991611Y-68848848D01*
X89340801Y-68848280D01*
X87315000Y-66822479D01*
X87315000Y-66010848D01*
X87363817Y-66001662D01*
X87579941Y-65862590D01*
X87724931Y-65650390D01*
X87775940Y-65398500D01*
X87775940Y-65244086D01*
X88136269Y-65244086D01*
X88338854Y-65734380D01*
X88713647Y-66109827D01*
X89203587Y-66313268D01*
X89556608Y-66313576D01*
X89829824Y-66496132D01*
X89886015Y-66507309D01*
X90168499Y-66563500D01*
X90168504Y-66563499D01*
X91291919Y-66563499D01*
X93717761Y-68989340D01*
X93717761Y-71562519D01*
X93545069Y-71633874D01*
X93014438Y-72163581D01*
X92726908Y-72856029D01*
X92726254Y-73605801D01*
X93012574Y-74298751D01*
X93542281Y-74829382D01*
X94234729Y-75116912D01*
X94984501Y-75117566D01*
X95677451Y-74831246D01*
X96208082Y-74301539D01*
X96495612Y-73609091D01*
X96496266Y-72859319D01*
X96209946Y-72166369D01*
X95680239Y-71635738D01*
X95487761Y-71555814D01*
X95487761Y-68622766D01*
X95487762Y-68622761D01*
X95420394Y-68284086D01*
X95387248Y-68234479D01*
X95228551Y-67996971D01*
X95228548Y-67996969D01*
X92284289Y-65052709D01*
X92268148Y-65041924D01*
X91997174Y-64860866D01*
X91940983Y-64849689D01*
X91658499Y-64793498D01*
X91658494Y-64793499D01*
X90803663Y-64793499D01*
X90803731Y-64715914D01*
X90601146Y-64225620D01*
X90226353Y-63850173D01*
X89736413Y-63646732D01*
X89205914Y-63646269D01*
X88715620Y-63848854D01*
X88340173Y-64223647D01*
X88136732Y-64713587D01*
X88136269Y-65244086D01*
X87775940Y-65244086D01*
X87775940Y-64001500D01*
X87731662Y-63766183D01*
X87592590Y-63550059D01*
X87380390Y-63405069D01*
X87315000Y-63391827D01*
X87315000Y-62166580D01*
X88746579Y-60735000D01*
X91498625Y-60735000D01*
X91498630Y-60735001D01*
X91647552Y-60705378D01*
X91687189Y-60764698D01*
X92069275Y-61020000D01*
X91687189Y-61275302D01*
X91376120Y-61740849D01*
X91266887Y-62290000D01*
X91376120Y-62839151D01*
X91687189Y-63304698D01*
X92152736Y-63615767D01*
X92701887Y-63725000D01*
X92758113Y-63725000D01*
X93307264Y-63615767D01*
X93772811Y-63304698D01*
X94083880Y-62839151D01*
X94193113Y-62290000D01*
X94083880Y-61740849D01*
X93772811Y-61275302D01*
X93390725Y-61020000D01*
X93772811Y-60764698D01*
X94083880Y-60299151D01*
X94193113Y-59750000D01*
X94083880Y-59200849D01*
X93772811Y-58735302D01*
X93390725Y-58480000D01*
X93772811Y-58224698D01*
X94083880Y-57759151D01*
X94193113Y-57210000D01*
X94083880Y-56660849D01*
X93772811Y-56195302D01*
X93390725Y-55940000D01*
X93772811Y-55684698D01*
X94083880Y-55219151D01*
X94193113Y-54670000D01*
X94083880Y-54120849D01*
X93772811Y-53655302D01*
X93667696Y-53585066D01*
X98013486Y-53585066D01*
X98921983Y-54493562D01*
X98886887Y-54670000D01*
X98996120Y-55219151D01*
X99307189Y-55684698D01*
X99689275Y-55940000D01*
X99307189Y-56195302D01*
X98996120Y-56660849D01*
X98886887Y-57210000D01*
X98996120Y-57759151D01*
X99307189Y-58224698D01*
X99689275Y-58480000D01*
X99307189Y-58735302D01*
X98996120Y-59200849D01*
X98886887Y-59750000D01*
X98921983Y-59926438D01*
X98174209Y-60674211D01*
X97982366Y-60961326D01*
X97982366Y-60961327D01*
X97914998Y-61300001D01*
X97914999Y-61300006D01*
X97914999Y-63033996D01*
X97914998Y-63034001D01*
X97943298Y-63176269D01*
X97982366Y-63372676D01*
X98111400Y-63565790D01*
X98174209Y-63659791D01*
X102960209Y-68445790D01*
X102995430Y-68469324D01*
X103022192Y-68502165D01*
X103137974Y-68564568D01*
X103247324Y-68637633D01*
X103288871Y-68645898D01*
X103326162Y-68665996D01*
X103456996Y-68679340D01*
X103585998Y-68705001D01*
X103627549Y-68696736D01*
X103669690Y-68701034D01*
X103927318Y-68676561D01*
X104216077Y-68965824D01*
X104743309Y-69184750D01*
X105314187Y-69185248D01*
X105841800Y-68967243D01*
X106245824Y-68563923D01*
X106464750Y-68036691D01*
X106465248Y-67465813D01*
X106247243Y-66938200D01*
X105843923Y-66534176D01*
X105316691Y-66315250D01*
X104745813Y-66314752D01*
X104218200Y-66532757D01*
X103883976Y-66866399D01*
X103039876Y-66022298D01*
X103277480Y-66105927D01*
X103807199Y-66077148D01*
X104162929Y-65929800D01*
X104224583Y-65694188D01*
X103470000Y-64939605D01*
X103455858Y-64953748D01*
X103276253Y-64774143D01*
X103290395Y-64760000D01*
X103649605Y-64760000D01*
X104404188Y-65514583D01*
X104639800Y-65452929D01*
X104815927Y-64952520D01*
X104787148Y-64422801D01*
X104639800Y-64067071D01*
X104404188Y-64005417D01*
X103649605Y-64760000D01*
X103290395Y-64760000D01*
X102535812Y-64005417D01*
X102300200Y-64067071D01*
X102124073Y-64567480D01*
X102152852Y-65097199D01*
X102179775Y-65162198D01*
X100843390Y-63825812D01*
X102715417Y-63825812D01*
X103470000Y-64580395D01*
X104224583Y-63825812D01*
X104162929Y-63590200D01*
X103662520Y-63414073D01*
X103132801Y-63442852D01*
X102777071Y-63590200D01*
X102715417Y-63825812D01*
X100843390Y-63825812D01*
X100699347Y-63681769D01*
X101205134Y-63442389D01*
X101581041Y-63027423D01*
X101741904Y-62639039D01*
X101619915Y-62417000D01*
X100477000Y-62417000D01*
X100477000Y-62437000D01*
X100223000Y-62437000D01*
X100223000Y-62417000D01*
X100203000Y-62417000D01*
X100203000Y-62163000D01*
X100223000Y-62163000D01*
X100223000Y-62143000D01*
X100477000Y-62143000D01*
X100477000Y-62163000D01*
X101619915Y-62163000D01*
X101741904Y-61940961D01*
X101581041Y-61552577D01*
X101205134Y-61137611D01*
X100988297Y-61034986D01*
X101392811Y-60764698D01*
X101703880Y-60299151D01*
X101813113Y-59750000D01*
X101703880Y-59200849D01*
X101392811Y-58735302D01*
X101010725Y-58480000D01*
X101392811Y-58224698D01*
X101493277Y-58074340D01*
X102493710Y-58049506D01*
X102713647Y-58269827D01*
X103203587Y-58473268D01*
X103734086Y-58473731D01*
X104224380Y-58271146D01*
X104599827Y-57896353D01*
X104803268Y-57406413D01*
X104803731Y-56875914D01*
X104601146Y-56385620D01*
X104226353Y-56010173D01*
X103736413Y-55806732D01*
X103205914Y-55806269D01*
X102715620Y-56008854D01*
X102443800Y-56280201D01*
X101465761Y-56304478D01*
X101392811Y-56195302D01*
X101010725Y-55940000D01*
X101392811Y-55684698D01*
X101479473Y-55555000D01*
X105341984Y-55555000D01*
X105341989Y-55555001D01*
X105639656Y-55495790D01*
X105680664Y-55487633D01*
X105967779Y-55295790D01*
X106047081Y-55216488D01*
X107714908Y-55216488D01*
X109316571Y-56818150D01*
X109316269Y-57164086D01*
X109518854Y-57654380D01*
X109893647Y-58029827D01*
X110383587Y-58233268D01*
X110731992Y-58233572D01*
X113154210Y-60655789D01*
X113165893Y-60663595D01*
X113174062Y-60675031D01*
X113309045Y-60759246D01*
X113441325Y-60847633D01*
X113455108Y-60850375D01*
X113467029Y-60857812D01*
X113623948Y-60883959D01*
X113780000Y-60915000D01*
X113793783Y-60912258D01*
X113807643Y-60914568D01*
X114798072Y-60883617D01*
X114828625Y-60929343D01*
X115277951Y-61229573D01*
X115455000Y-61264790D01*
X115455000Y-64819995D01*
X115454999Y-64820000D01*
X115501289Y-65052709D01*
X115522367Y-65158675D01*
X115634029Y-65325790D01*
X115714210Y-65445790D01*
X117504208Y-67235787D01*
X117504210Y-67235790D01*
X117760803Y-67407239D01*
X117791325Y-67427633D01*
X118130000Y-67495001D01*
X118130005Y-67495000D01*
X122913420Y-67495000D01*
X124876571Y-69458150D01*
X124876269Y-69804086D01*
X125078854Y-70294380D01*
X125453647Y-70669827D01*
X125943587Y-70873268D01*
X126474086Y-70873731D01*
X126964380Y-70671146D01*
X127339827Y-70296353D01*
X127543268Y-69806413D01*
X127543731Y-69275914D01*
X127341146Y-68785620D01*
X126966353Y-68410173D01*
X126476413Y-68206732D01*
X126128007Y-68206428D01*
X123905790Y-65984210D01*
X123900073Y-65980390D01*
X123618675Y-65792367D01*
X123562484Y-65781190D01*
X123280000Y-65724999D01*
X123279995Y-65725000D01*
X118496579Y-65725000D01*
X117225000Y-64453420D01*
X117225000Y-61013784D01*
X117351375Y-60929343D01*
X117495000Y-60714393D01*
X117495000Y-60826309D01*
X117591673Y-61059698D01*
X117770301Y-61238327D01*
X118003690Y-61335000D01*
X118844250Y-61335000D01*
X119003000Y-61176250D01*
X119003000Y-60077000D01*
X118983000Y-60077000D01*
X118983000Y-59823000D01*
X119003000Y-59823000D01*
X119003000Y-59803000D01*
X119257000Y-59803000D01*
X119257000Y-59823000D01*
X119277000Y-59823000D01*
X119277000Y-60077000D01*
X119257000Y-60077000D01*
X119257000Y-61176250D01*
X119415750Y-61335000D01*
X120256310Y-61335000D01*
X120489699Y-61238327D01*
X120573223Y-61154803D01*
X127773512Y-68355091D01*
X127773512Y-70668878D01*
X125394175Y-73048215D01*
X125394346Y-72851859D01*
X125108026Y-72158909D01*
X124578319Y-71628278D01*
X123885871Y-71340748D01*
X123136099Y-71340094D01*
X122720716Y-71511726D01*
X122891792Y-71099731D01*
X122892446Y-70349959D01*
X122606126Y-69657009D01*
X122076419Y-69126378D01*
X121383971Y-68838848D01*
X120634199Y-68838194D01*
X119941249Y-69124514D01*
X119410618Y-69654221D01*
X119123088Y-70346669D01*
X119122434Y-71096441D01*
X119408754Y-71789391D01*
X119938461Y-72320022D01*
X120630909Y-72607552D01*
X121380681Y-72608206D01*
X121796064Y-72436574D01*
X121624988Y-72848569D01*
X121624334Y-73598341D01*
X121910654Y-74291291D01*
X122440361Y-74821922D01*
X123132809Y-75109452D01*
X123332763Y-75109626D01*
X123108179Y-75334210D01*
X123108177Y-75334213D01*
X123100159Y-75342231D01*
X117410357Y-75342231D01*
X117385326Y-75337252D01*
X115003773Y-75337252D01*
X114265513Y-74598991D01*
X114187129Y-74546617D01*
X113978398Y-74407148D01*
X113922207Y-74395971D01*
X113639723Y-74339780D01*
X113639718Y-74339781D01*
X110064220Y-74339781D01*
X110110002Y-74294079D01*
X110397532Y-73601631D01*
X110398186Y-72851859D01*
X110226554Y-72436476D01*
X110638549Y-72607552D01*
X111388321Y-72608206D01*
X112081271Y-72321886D01*
X112611902Y-71792179D01*
X112899432Y-71099731D01*
X112900086Y-70349959D01*
X112613766Y-69657009D01*
X112084059Y-69126378D01*
X111391611Y-68838848D01*
X111388820Y-68838846D01*
X111388820Y-67979597D01*
X111388821Y-67979592D01*
X111321454Y-67640918D01*
X111225714Y-67497633D01*
X111129610Y-67353802D01*
X111129607Y-67353800D01*
X108559894Y-64784086D01*
X109316269Y-64784086D01*
X109518854Y-65274380D01*
X109893647Y-65649827D01*
X110383587Y-65853268D01*
X110731992Y-65853572D01*
X114615000Y-69736579D01*
X114615000Y-71953368D01*
X114414438Y-72153581D01*
X114126908Y-72846029D01*
X114126254Y-73595801D01*
X114412574Y-74288751D01*
X114942281Y-74819382D01*
X115634729Y-75106912D01*
X116384501Y-75107566D01*
X117077451Y-74821246D01*
X117608082Y-74291539D01*
X117895612Y-73599091D01*
X117896266Y-72849319D01*
X117609946Y-72156369D01*
X117080239Y-71625738D01*
X116387791Y-71338208D01*
X116385000Y-71338206D01*
X116385000Y-69370005D01*
X116385001Y-69370000D01*
X116317633Y-69031326D01*
X116317633Y-69031325D01*
X116125790Y-68744210D01*
X116125787Y-68744208D01*
X111983429Y-64601849D01*
X111983731Y-64255914D01*
X111781146Y-63765620D01*
X111406353Y-63390173D01*
X110916413Y-63186732D01*
X110385914Y-63186269D01*
X109895620Y-63388854D01*
X109520173Y-63763647D01*
X109316732Y-64253587D01*
X109316269Y-64784086D01*
X108559894Y-64784086D01*
X107675000Y-63899192D01*
X107675000Y-57780754D01*
X107919827Y-57536353D01*
X108123268Y-57046413D01*
X108123731Y-56515914D01*
X107921146Y-56025620D01*
X107546353Y-55650173D01*
X107056413Y-55446732D01*
X106525914Y-55446269D01*
X106035620Y-55648854D01*
X105660173Y-56023647D01*
X105456732Y-56513587D01*
X105456269Y-57044086D01*
X105658854Y-57534380D01*
X105905000Y-57780956D01*
X105905000Y-64265767D01*
X105904999Y-64265772D01*
X105949883Y-64491415D01*
X105972367Y-64604447D01*
X106092397Y-64784086D01*
X106164210Y-64891562D01*
X109618820Y-68346171D01*
X109618820Y-69454008D01*
X109418258Y-69654221D01*
X109130728Y-70346669D01*
X109130074Y-71096441D01*
X109301706Y-71511824D01*
X108889711Y-71340748D01*
X108139939Y-71340094D01*
X107446989Y-71626414D01*
X106916358Y-72156121D01*
X106628828Y-72848569D01*
X106628193Y-73576613D01*
X106515790Y-73464210D01*
X106228675Y-73272367D01*
X106171092Y-73260913D01*
X105890000Y-73204999D01*
X105889995Y-73205000D01*
X104213974Y-73205000D01*
X104213969Y-73204999D01*
X103994009Y-73248753D01*
X103994346Y-72861859D01*
X103708026Y-72168909D01*
X103178319Y-71638278D01*
X102485871Y-71350748D01*
X101736099Y-71350094D01*
X101320716Y-71521726D01*
X101491792Y-71109731D01*
X101492446Y-70359959D01*
X101206126Y-69667009D01*
X100676419Y-69136378D01*
X99983971Y-68848848D01*
X99234199Y-68848194D01*
X98541249Y-69134514D01*
X98010618Y-69664221D01*
X97723088Y-70356669D01*
X97722434Y-71106441D01*
X98008754Y-71799391D01*
X98538461Y-72330022D01*
X99230909Y-72617552D01*
X99980681Y-72618206D01*
X100396064Y-72446574D01*
X100224988Y-72858569D01*
X100224334Y-73608341D01*
X100510654Y-74301291D01*
X101040361Y-74831922D01*
X101732809Y-75119452D01*
X101932763Y-75119626D01*
X101717425Y-75334964D01*
X95997619Y-75334964D01*
X95997614Y-75334963D01*
X95935834Y-75347252D01*
X93286686Y-75347252D01*
X93224906Y-75334963D01*
X93224901Y-75334964D01*
X81932178Y-75334964D01*
X81932173Y-75334963D01*
X81895635Y-75342231D01*
X64547195Y-75342231D01*
X63806399Y-74601434D01*
X63806397Y-74601431D01*
X63519282Y-74409588D01*
X63180607Y-74342220D01*
X63180602Y-74342221D01*
X60401881Y-74342221D01*
X60447663Y-74296519D01*
X60735193Y-73604071D01*
X60735847Y-72854299D01*
X60449527Y-72161349D01*
X59919820Y-71630718D01*
X59227372Y-71343188D01*
X58477600Y-71342534D01*
X58062217Y-71514166D01*
X58233293Y-71102171D01*
X58233947Y-70352399D01*
X57947627Y-69659449D01*
X57417920Y-69128818D01*
X56725472Y-68841288D01*
X55975700Y-68840634D01*
X55282750Y-69126954D01*
X54752119Y-69656661D01*
X54464589Y-70349109D01*
X54463935Y-71098881D01*
X54750255Y-71791831D01*
X55279962Y-72322462D01*
X55972410Y-72609992D01*
X56722182Y-72610646D01*
X57137565Y-72439014D01*
X56966489Y-72851009D01*
X56965835Y-73600781D01*
X57252155Y-74293731D01*
X57300561Y-74342221D01*
X52901257Y-74342221D01*
X52949583Y-74293979D01*
X53237113Y-73601531D01*
X53237767Y-72851759D01*
X52951447Y-72158809D01*
X52421740Y-71628178D01*
X52237761Y-71551783D01*
X52237761Y-67773819D01*
X52446579Y-67565000D01*
X57519995Y-67565000D01*
X57520000Y-67565001D01*
X57802484Y-67508810D01*
X57858675Y-67497633D01*
X58145790Y-67305790D01*
X59038150Y-66413429D01*
X59384086Y-66413731D01*
X59874380Y-66211146D01*
X60249827Y-65836353D01*
X60453268Y-65346413D01*
X60453731Y-64815914D01*
X60441983Y-64787480D01*
X72354073Y-64787480D01*
X72382852Y-65317199D01*
X72530200Y-65672929D01*
X72765812Y-65734583D01*
X73520395Y-64980000D01*
X72765812Y-64225417D01*
X72530200Y-64287071D01*
X72354073Y-64787480D01*
X60441983Y-64787480D01*
X60251146Y-64325620D01*
X59971826Y-64045812D01*
X72945417Y-64045812D01*
X73700000Y-64800395D01*
X74454583Y-64045812D01*
X74392929Y-63810200D01*
X73892520Y-63634073D01*
X73362801Y-63662852D01*
X73007071Y-63810200D01*
X72945417Y-64045812D01*
X59971826Y-64045812D01*
X59876353Y-63950173D01*
X59386413Y-63746732D01*
X58855914Y-63746269D01*
X58365620Y-63948854D01*
X57990173Y-64323647D01*
X57830829Y-64707391D01*
X57827633Y-64691325D01*
X57655940Y-64434367D01*
X57655940Y-64331500D01*
X57611662Y-64096183D01*
X57472590Y-63880059D01*
X57260390Y-63735069D01*
X57008500Y-63684060D01*
X55611500Y-63684060D01*
X55376183Y-63728338D01*
X55160059Y-63867410D01*
X55015069Y-64079610D01*
X55001827Y-64145000D01*
X54276580Y-64145000D01*
X57706579Y-60715000D01*
X61080527Y-60715000D01*
X61167189Y-60844698D01*
X61549275Y-61100000D01*
X61167189Y-61355302D01*
X60856120Y-61820849D01*
X60746887Y-62370000D01*
X60856120Y-62919151D01*
X61167189Y-63384698D01*
X61632736Y-63695767D01*
X62181887Y-63805000D01*
X62238113Y-63805000D01*
X62787264Y-63695767D01*
X63252811Y-63384698D01*
X63563880Y-62919151D01*
X63603684Y-62719039D01*
X68438096Y-62719039D01*
X68598959Y-63107423D01*
X68974866Y-63522389D01*
X69480959Y-63761914D01*
X69703000Y-63640629D01*
X69703000Y-62497000D01*
X69957000Y-62497000D01*
X69957000Y-63640629D01*
X70179041Y-63761914D01*
X70685134Y-63522389D01*
X71061041Y-63107423D01*
X71221904Y-62719039D01*
X71099915Y-62497000D01*
X69957000Y-62497000D01*
X69703000Y-62497000D01*
X68560085Y-62497000D01*
X68438096Y-62719039D01*
X63603684Y-62719039D01*
X63673113Y-62370000D01*
X63563880Y-61820849D01*
X63252811Y-61355302D01*
X62870725Y-61100000D01*
X63252811Y-60844698D01*
X63563880Y-60379151D01*
X63673113Y-59830000D01*
X63563880Y-59280849D01*
X63252811Y-58815302D01*
X62870725Y-58560000D01*
X63252811Y-58304698D01*
X63563880Y-57839151D01*
X63673113Y-57290000D01*
X63563880Y-56740849D01*
X63252811Y-56275302D01*
X62870725Y-56020000D01*
X63252811Y-55764698D01*
X63563880Y-55299151D01*
X63673113Y-54750000D01*
X63563880Y-54200849D01*
X63252811Y-53735302D01*
X62787264Y-53424233D01*
X62238113Y-53315000D01*
X62181887Y-53315000D01*
X61632736Y-53424233D01*
X61167189Y-53735302D01*
X60856120Y-54200849D01*
X60746887Y-54750000D01*
X60856120Y-55299151D01*
X61167189Y-55764698D01*
X61549275Y-56020000D01*
X61167189Y-56275302D01*
X60966937Y-56575000D01*
X60120754Y-56575000D01*
X59876353Y-56330173D01*
X59386413Y-56126732D01*
X58855914Y-56126269D01*
X58365620Y-56328854D01*
X58175935Y-56518209D01*
X57307128Y-56521368D01*
X57066353Y-56280173D01*
X56576413Y-56076732D01*
X56045914Y-56076269D01*
X55555620Y-56278854D01*
X55180173Y-56653647D01*
X55081898Y-56890319D01*
X52795790Y-54604210D01*
X52508675Y-54412367D01*
X52474943Y-54405657D01*
X52371375Y-54250657D01*
X51936376Y-53960000D01*
X52371375Y-53669343D01*
X52434413Y-53575000D01*
X53211612Y-53575000D01*
X53211617Y-53575001D01*
X53519012Y-53513855D01*
X53550292Y-53507633D01*
X53837407Y-53315790D01*
X54918737Y-52234459D01*
X54823122Y-52464726D01*
X54823122Y-52464726D01*
G37*
X54823122Y-52464726D02*
X54822624Y-53035604D01*
X55040629Y-53563217D01*
X55443949Y-53967241D01*
X55971181Y-54186167D01*
X56542059Y-54186665D01*
X57069672Y-53968660D01*
X57473696Y-53565340D01*
X57692622Y-53038108D01*
X57693032Y-52567836D01*
X57725845Y-52535023D01*
X68518684Y-52535023D01*
X68460555Y-52573863D01*
X68460553Y-52573866D01*
X67654209Y-53380209D01*
X67462366Y-53667324D01*
X67460108Y-53678674D01*
X67394998Y-54005999D01*
X67394999Y-54006004D01*
X67394999Y-58279994D01*
X67394998Y-58279999D01*
X67436999Y-58491146D01*
X67462366Y-58618674D01*
X67610452Y-58840302D01*
X67654209Y-58905789D01*
X68401983Y-59653562D01*
X68366887Y-59830000D01*
X68476120Y-60379151D01*
X68787189Y-60844698D01*
X69191703Y-61114986D01*
X68974866Y-61217611D01*
X68598959Y-61632577D01*
X68438096Y-62020961D01*
X68560085Y-62243000D01*
X69703000Y-62243000D01*
X69703000Y-62223000D01*
X69957000Y-62223000D01*
X69957000Y-62243000D01*
X71099915Y-62243000D01*
X71221904Y-62020961D01*
X71061041Y-61632577D01*
X70685134Y-61217611D01*
X70468297Y-61114986D01*
X70872811Y-60844698D01*
X71183880Y-60379151D01*
X71276205Y-59915001D01*
X76229323Y-59915001D01*
X75940173Y-60203647D01*
X75736732Y-60693587D01*
X75736269Y-61224086D01*
X75938854Y-61714380D01*
X76265000Y-62041095D01*
X76265000Y-63307203D01*
X74991448Y-64580755D01*
X74869800Y-64287071D01*
X74634188Y-64225417D01*
X73879605Y-64980000D01*
X73893748Y-64994143D01*
X73714143Y-65173748D01*
X73700000Y-65159605D01*
X72945417Y-65914188D01*
X73007071Y-66149800D01*
X73314277Y-66257926D01*
X70981241Y-68590961D01*
X69306265Y-68590961D01*
X69306260Y-68590960D01*
X69023776Y-68647151D01*
X68967585Y-68658328D01*
X68680470Y-68850171D01*
X68680468Y-68850174D01*
X68614171Y-68916471D01*
X68433112Y-68841288D01*
X67683340Y-68840634D01*
X66990390Y-69126954D01*
X66459759Y-69656661D01*
X66172229Y-70349109D01*
X66171575Y-71098881D01*
X66343207Y-71514264D01*
X65931212Y-71343188D01*
X65181440Y-71342534D01*
X64488490Y-71628854D01*
X63957859Y-72158561D01*
X63670329Y-72851009D01*
X63669675Y-73600781D01*
X63955995Y-74293731D01*
X64485702Y-74824362D01*
X65178150Y-75111892D01*
X65927922Y-75112546D01*
X66620872Y-74826226D01*
X67151503Y-74296519D01*
X67439033Y-73604071D01*
X67439038Y-73598241D01*
X71167755Y-73598241D01*
X71454075Y-74291191D01*
X71983782Y-74821822D01*
X72676230Y-75109352D01*
X73426002Y-75110006D01*
X74118952Y-74823686D01*
X74649583Y-74293979D01*
X74937113Y-73601531D01*
X74937767Y-72851759D01*
X74651447Y-72158809D01*
X74588806Y-72096059D01*
X76286215Y-70056201D01*
X76164589Y-70349109D01*
X76163935Y-71098881D01*
X76450255Y-71791831D01*
X76979962Y-72322462D01*
X77672410Y-72609992D01*
X78422182Y-72610646D01*
X78837565Y-72439014D01*
X78666489Y-72851009D01*
X78665835Y-73600781D01*
X78952155Y-74293731D01*
X79481862Y-74824362D01*
X80174310Y-75111892D01*
X80924082Y-75112546D01*
X81617032Y-74826226D01*
X82147663Y-74296519D01*
X82435193Y-73604071D01*
X82435847Y-72854299D01*
X82149527Y-72161349D01*
X81619820Y-71630718D01*
X80927372Y-71343188D01*
X80177600Y-71342534D01*
X79762217Y-71514166D01*
X79933293Y-71102171D01*
X79933947Y-70352399D01*
X79647627Y-69659449D01*
X79117920Y-69128818D01*
X78425472Y-68841288D01*
X77675700Y-68840634D01*
X77099656Y-69078649D01*
X79791662Y-65843537D01*
X80014086Y-65843731D01*
X80504380Y-65641146D01*
X80879827Y-65266353D01*
X81083268Y-64776413D01*
X81083731Y-64245914D01*
X80881146Y-63755620D01*
X80506353Y-63380173D01*
X80016413Y-63176732D01*
X79485914Y-63176269D01*
X78995620Y-63378854D01*
X78620173Y-63753647D01*
X78416732Y-64243587D01*
X78416308Y-64729158D01*
X72915123Y-71340200D01*
X72679520Y-71339994D01*
X71986570Y-71626314D01*
X71455939Y-72156021D01*
X71168409Y-72848469D01*
X71167755Y-73598241D01*
X67439038Y-73598241D01*
X67439687Y-72854299D01*
X67268055Y-72438916D01*
X67680050Y-72609992D01*
X68429822Y-72610646D01*
X69122772Y-72324326D01*
X69653403Y-71794619D01*
X69940933Y-71102171D01*
X69941580Y-70360961D01*
X71347816Y-70360961D01*
X71347821Y-70360962D01*
X71630305Y-70304771D01*
X71686496Y-70293594D01*
X71973611Y-70101751D01*
X71973612Y-70101750D01*
X77775787Y-64299574D01*
X77775790Y-64299572D01*
X77967633Y-64012457D01*
X77969640Y-64002367D01*
X78035001Y-63673782D01*
X78035000Y-63673777D01*
X78035000Y-61880893D01*
X78199827Y-61716353D01*
X78403268Y-61226413D01*
X78403731Y-60695914D01*
X78201146Y-60205620D01*
X77911033Y-59915001D01*
X80051249Y-59915001D01*
X82265082Y-62128833D01*
X82210173Y-62183647D01*
X82006732Y-62673587D01*
X82006269Y-63204086D01*
X82208854Y-63694380D01*
X82583647Y-64069827D01*
X83073587Y-64273268D01*
X83604086Y-64273731D01*
X84085000Y-64075022D01*
X84085000Y-64694847D01*
X83975813Y-64694752D01*
X83448200Y-64912757D01*
X83044176Y-65316077D01*
X82825250Y-65843309D01*
X82824752Y-66414187D01*
X83042757Y-66941800D01*
X83446077Y-67345824D01*
X83973309Y-67564750D01*
X84544187Y-67565248D01*
X85071800Y-67347243D01*
X85475824Y-66943923D01*
X85545000Y-66777329D01*
X85545000Y-67189054D01*
X85544999Y-67189059D01*
X85599552Y-67463309D01*
X85612367Y-67527734D01*
X85704959Y-67666308D01*
X85804210Y-67814849D01*
X87911261Y-69921899D01*
X87730728Y-70356669D01*
X87730074Y-71106441D01*
X87901706Y-71521824D01*
X87489711Y-71350748D01*
X86739939Y-71350094D01*
X86046989Y-71636414D01*
X85516358Y-72166121D01*
X85228828Y-72858569D01*
X85228174Y-73608341D01*
X85514494Y-74301291D01*
X86044201Y-74831922D01*
X86736649Y-75119452D01*
X87486421Y-75120106D01*
X88179371Y-74833786D01*
X88710002Y-74304079D01*
X88997532Y-73611631D01*
X88998186Y-72861859D01*
X88826554Y-72446476D01*
X89238549Y-72617552D01*
X89988321Y-72618206D01*
X90681271Y-72331886D01*
X91211902Y-71802179D01*
X91499432Y-71109731D01*
X91500086Y-70359959D01*
X91213766Y-69667009D01*
X90684059Y-69136378D01*
X89991611Y-68848848D01*
X89340801Y-68848280D01*
X87315000Y-66822479D01*
X87315000Y-66010848D01*
X87363817Y-66001662D01*
X87579941Y-65862590D01*
X87724931Y-65650390D01*
X87775940Y-65398500D01*
X87775940Y-65244086D01*
X88136269Y-65244086D01*
X88338854Y-65734380D01*
X88713647Y-66109827D01*
X89203587Y-66313268D01*
X89556608Y-66313576D01*
X89829824Y-66496132D01*
X89886015Y-66507309D01*
X90168499Y-66563500D01*
X90168504Y-66563499D01*
X91291919Y-66563499D01*
X93717761Y-68989340D01*
X93717761Y-71562519D01*
X93545069Y-71633874D01*
X93014438Y-72163581D01*
X92726908Y-72856029D01*
X92726254Y-73605801D01*
X93012574Y-74298751D01*
X93542281Y-74829382D01*
X94234729Y-75116912D01*
X94984501Y-75117566D01*
X95677451Y-74831246D01*
X96208082Y-74301539D01*
X96495612Y-73609091D01*
X96496266Y-72859319D01*
X96209946Y-72166369D01*
X95680239Y-71635738D01*
X95487761Y-71555814D01*
X95487761Y-68622766D01*
X95487762Y-68622761D01*
X95420394Y-68284086D01*
X95387248Y-68234479D01*
X95228551Y-67996971D01*
X95228548Y-67996969D01*
X92284289Y-65052709D01*
X92268148Y-65041924D01*
X91997174Y-64860866D01*
X91940983Y-64849689D01*
X91658499Y-64793498D01*
X91658494Y-64793499D01*
X90803663Y-64793499D01*
X90803731Y-64715914D01*
X90601146Y-64225620D01*
X90226353Y-63850173D01*
X89736413Y-63646732D01*
X89205914Y-63646269D01*
X88715620Y-63848854D01*
X88340173Y-64223647D01*
X88136732Y-64713587D01*
X88136269Y-65244086D01*
X87775940Y-65244086D01*
X87775940Y-64001500D01*
X87731662Y-63766183D01*
X87592590Y-63550059D01*
X87380390Y-63405069D01*
X87315000Y-63391827D01*
X87315000Y-62166580D01*
X88746579Y-60735000D01*
X91498625Y-60735000D01*
X91498630Y-60735001D01*
X91647552Y-60705378D01*
X91687189Y-60764698D01*
X92069275Y-61020000D01*
X91687189Y-61275302D01*
X91376120Y-61740849D01*
X91266887Y-62290000D01*
X91376120Y-62839151D01*
X91687189Y-63304698D01*
X92152736Y-63615767D01*
X92701887Y-63725000D01*
X92758113Y-63725000D01*
X93307264Y-63615767D01*
X93772811Y-63304698D01*
X94083880Y-62839151D01*
X94193113Y-62290000D01*
X94083880Y-61740849D01*
X93772811Y-61275302D01*
X93390725Y-61020000D01*
X93772811Y-60764698D01*
X94083880Y-60299151D01*
X94193113Y-59750000D01*
X94083880Y-59200849D01*
X93772811Y-58735302D01*
X93390725Y-58480000D01*
X93772811Y-58224698D01*
X94083880Y-57759151D01*
X94193113Y-57210000D01*
X94083880Y-56660849D01*
X93772811Y-56195302D01*
X93390725Y-55940000D01*
X93772811Y-55684698D01*
X94083880Y-55219151D01*
X94193113Y-54670000D01*
X94083880Y-54120849D01*
X93772811Y-53655302D01*
X93667696Y-53585066D01*
X98013486Y-53585066D01*
X98921983Y-54493562D01*
X98886887Y-54670000D01*
X98996120Y-55219151D01*
X99307189Y-55684698D01*
X99689275Y-55940000D01*
X99307189Y-56195302D01*
X98996120Y-56660849D01*
X98886887Y-57210000D01*
X98996120Y-57759151D01*
X99307189Y-58224698D01*
X99689275Y-58480000D01*
X99307189Y-58735302D01*
X98996120Y-59200849D01*
X98886887Y-59750000D01*
X98921983Y-59926438D01*
X98174209Y-60674211D01*
X97982366Y-60961326D01*
X97982366Y-60961327D01*
X97914998Y-61300001D01*
X97914999Y-61300006D01*
X97914999Y-63033996D01*
X97914998Y-63034001D01*
X97943298Y-63176269D01*
X97982366Y-63372676D01*
X98111400Y-63565790D01*
X98174209Y-63659791D01*
X102960209Y-68445790D01*
X102995430Y-68469324D01*
X103022192Y-68502165D01*
X103137974Y-68564568D01*
X103247324Y-68637633D01*
X103288871Y-68645898D01*
X103326162Y-68665996D01*
X103456996Y-68679340D01*
X103585998Y-68705001D01*
X103627549Y-68696736D01*
X103669690Y-68701034D01*
X103927318Y-68676561D01*
X104216077Y-68965824D01*
X104743309Y-69184750D01*
X105314187Y-69185248D01*
X105841800Y-68967243D01*
X106245824Y-68563923D01*
X106464750Y-68036691D01*
X106465248Y-67465813D01*
X106247243Y-66938200D01*
X105843923Y-66534176D01*
X105316691Y-66315250D01*
X104745813Y-66314752D01*
X104218200Y-66532757D01*
X103883976Y-66866399D01*
X103039876Y-66022298D01*
X103277480Y-66105927D01*
X103807199Y-66077148D01*
X104162929Y-65929800D01*
X104224583Y-65694188D01*
X103470000Y-64939605D01*
X103455858Y-64953748D01*
X103276253Y-64774143D01*
X103290395Y-64760000D01*
X103649605Y-64760000D01*
X104404188Y-65514583D01*
X104639800Y-65452929D01*
X104815927Y-64952520D01*
X104787148Y-64422801D01*
X104639800Y-64067071D01*
X104404188Y-64005417D01*
X103649605Y-64760000D01*
X103290395Y-64760000D01*
X102535812Y-64005417D01*
X102300200Y-64067071D01*
X102124073Y-64567480D01*
X102152852Y-65097199D01*
X102179775Y-65162198D01*
X100843390Y-63825812D01*
X102715417Y-63825812D01*
X103470000Y-64580395D01*
X104224583Y-63825812D01*
X104162929Y-63590200D01*
X103662520Y-63414073D01*
X103132801Y-63442852D01*
X102777071Y-63590200D01*
X102715417Y-63825812D01*
X100843390Y-63825812D01*
X100699347Y-63681769D01*
X101205134Y-63442389D01*
X101581041Y-63027423D01*
X101741904Y-62639039D01*
X101619915Y-62417000D01*
X100477000Y-62417000D01*
X100477000Y-62437000D01*
X100223000Y-62437000D01*
X100223000Y-62417000D01*
X100203000Y-62417000D01*
X100203000Y-62163000D01*
X100223000Y-62163000D01*
X100223000Y-62143000D01*
X100477000Y-62143000D01*
X100477000Y-62163000D01*
X101619915Y-62163000D01*
X101741904Y-61940961D01*
X101581041Y-61552577D01*
X101205134Y-61137611D01*
X100988297Y-61034986D01*
X101392811Y-60764698D01*
X101703880Y-60299151D01*
X101813113Y-59750000D01*
X101703880Y-59200849D01*
X101392811Y-58735302D01*
X101010725Y-58480000D01*
X101392811Y-58224698D01*
X101493277Y-58074340D01*
X102493710Y-58049506D01*
X102713647Y-58269827D01*
X103203587Y-58473268D01*
X103734086Y-58473731D01*
X104224380Y-58271146D01*
X104599827Y-57896353D01*
X104803268Y-57406413D01*
X104803731Y-56875914D01*
X104601146Y-56385620D01*
X104226353Y-56010173D01*
X103736413Y-55806732D01*
X103205914Y-55806269D01*
X102715620Y-56008854D01*
X102443800Y-56280201D01*
X101465761Y-56304478D01*
X101392811Y-56195302D01*
X101010725Y-55940000D01*
X101392811Y-55684698D01*
X101479473Y-55555000D01*
X105341984Y-55555000D01*
X105341989Y-55555001D01*
X105639656Y-55495790D01*
X105680664Y-55487633D01*
X105967779Y-55295790D01*
X106047081Y-55216488D01*
X107714908Y-55216488D01*
X109316571Y-56818150D01*
X109316269Y-57164086D01*
X109518854Y-57654380D01*
X109893647Y-58029827D01*
X110383587Y-58233268D01*
X110731992Y-58233572D01*
X113154210Y-60655789D01*
X113165893Y-60663595D01*
X113174062Y-60675031D01*
X113309045Y-60759246D01*
X113441325Y-60847633D01*
X113455108Y-60850375D01*
X113467029Y-60857812D01*
X113623948Y-60883959D01*
X113780000Y-60915000D01*
X113793783Y-60912258D01*
X113807643Y-60914568D01*
X114798072Y-60883617D01*
X114828625Y-60929343D01*
X115277951Y-61229573D01*
X115455000Y-61264790D01*
X115455000Y-64819995D01*
X115454999Y-64820000D01*
X115501289Y-65052709D01*
X115522367Y-65158675D01*
X115634029Y-65325790D01*
X115714210Y-65445790D01*
X117504208Y-67235787D01*
X117504210Y-67235790D01*
X117760803Y-67407239D01*
X117791325Y-67427633D01*
X118130000Y-67495001D01*
X118130005Y-67495000D01*
X122913420Y-67495000D01*
X124876571Y-69458150D01*
X124876269Y-69804086D01*
X125078854Y-70294380D01*
X125453647Y-70669827D01*
X125943587Y-70873268D01*
X126474086Y-70873731D01*
X126964380Y-70671146D01*
X127339827Y-70296353D01*
X127543268Y-69806413D01*
X127543731Y-69275914D01*
X127341146Y-68785620D01*
X126966353Y-68410173D01*
X126476413Y-68206732D01*
X126128007Y-68206428D01*
X123905790Y-65984210D01*
X123900073Y-65980390D01*
X123618675Y-65792367D01*
X123562484Y-65781190D01*
X123280000Y-65724999D01*
X123279995Y-65725000D01*
X118496579Y-65725000D01*
X117225000Y-64453420D01*
X117225000Y-61013784D01*
X117351375Y-60929343D01*
X117495000Y-60714393D01*
X117495000Y-60826309D01*
X117591673Y-61059698D01*
X117770301Y-61238327D01*
X118003690Y-61335000D01*
X118844250Y-61335000D01*
X119003000Y-61176250D01*
X119003000Y-60077000D01*
X118983000Y-60077000D01*
X118983000Y-59823000D01*
X119003000Y-59823000D01*
X119003000Y-59803000D01*
X119257000Y-59803000D01*
X119257000Y-59823000D01*
X119277000Y-59823000D01*
X119277000Y-60077000D01*
X119257000Y-60077000D01*
X119257000Y-61176250D01*
X119415750Y-61335000D01*
X120256310Y-61335000D01*
X120489699Y-61238327D01*
X120573223Y-61154803D01*
X127773512Y-68355091D01*
X127773512Y-70668878D01*
X125394175Y-73048215D01*
X125394346Y-72851859D01*
X125108026Y-72158909D01*
X124578319Y-71628278D01*
X123885871Y-71340748D01*
X123136099Y-71340094D01*
X122720716Y-71511726D01*
X122891792Y-71099731D01*
X122892446Y-70349959D01*
X122606126Y-69657009D01*
X122076419Y-69126378D01*
X121383971Y-68838848D01*
X120634199Y-68838194D01*
X119941249Y-69124514D01*
X119410618Y-69654221D01*
X119123088Y-70346669D01*
X119122434Y-71096441D01*
X119408754Y-71789391D01*
X119938461Y-72320022D01*
X120630909Y-72607552D01*
X121380681Y-72608206D01*
X121796064Y-72436574D01*
X121624988Y-72848569D01*
X121624334Y-73598341D01*
X121910654Y-74291291D01*
X122440361Y-74821922D01*
X123132809Y-75109452D01*
X123332763Y-75109626D01*
X123108179Y-75334210D01*
X123108177Y-75334213D01*
X123100159Y-75342231D01*
X117410357Y-75342231D01*
X117385326Y-75337252D01*
X115003773Y-75337252D01*
X114265513Y-74598991D01*
X114187129Y-74546617D01*
X113978398Y-74407148D01*
X113922207Y-74395971D01*
X113639723Y-74339780D01*
X113639718Y-74339781D01*
X110064220Y-74339781D01*
X110110002Y-74294079D01*
X110397532Y-73601631D01*
X110398186Y-72851859D01*
X110226554Y-72436476D01*
X110638549Y-72607552D01*
X111388321Y-72608206D01*
X112081271Y-72321886D01*
X112611902Y-71792179D01*
X112899432Y-71099731D01*
X112900086Y-70349959D01*
X112613766Y-69657009D01*
X112084059Y-69126378D01*
X111391611Y-68838848D01*
X111388820Y-68838846D01*
X111388820Y-67979597D01*
X111388821Y-67979592D01*
X111321454Y-67640918D01*
X111225714Y-67497633D01*
X111129610Y-67353802D01*
X111129607Y-67353800D01*
X108559894Y-64784086D01*
X109316269Y-64784086D01*
X109518854Y-65274380D01*
X109893647Y-65649827D01*
X110383587Y-65853268D01*
X110731992Y-65853572D01*
X114615000Y-69736579D01*
X114615000Y-71953368D01*
X114414438Y-72153581D01*
X114126908Y-72846029D01*
X114126254Y-73595801D01*
X114412574Y-74288751D01*
X114942281Y-74819382D01*
X115634729Y-75106912D01*
X116384501Y-75107566D01*
X117077451Y-74821246D01*
X117608082Y-74291539D01*
X117895612Y-73599091D01*
X117896266Y-72849319D01*
X117609946Y-72156369D01*
X117080239Y-71625738D01*
X116387791Y-71338208D01*
X116385000Y-71338206D01*
X116385000Y-69370005D01*
X116385001Y-69370000D01*
X116317633Y-69031326D01*
X116317633Y-69031325D01*
X116125790Y-68744210D01*
X116125787Y-68744208D01*
X111983429Y-64601849D01*
X111983731Y-64255914D01*
X111781146Y-63765620D01*
X111406353Y-63390173D01*
X110916413Y-63186732D01*
X110385914Y-63186269D01*
X109895620Y-63388854D01*
X109520173Y-63763647D01*
X109316732Y-64253587D01*
X109316269Y-64784086D01*
X108559894Y-64784086D01*
X107675000Y-63899192D01*
X107675000Y-57780754D01*
X107919827Y-57536353D01*
X108123268Y-57046413D01*
X108123731Y-56515914D01*
X107921146Y-56025620D01*
X107546353Y-55650173D01*
X107056413Y-55446732D01*
X106525914Y-55446269D01*
X106035620Y-55648854D01*
X105660173Y-56023647D01*
X105456732Y-56513587D01*
X105456269Y-57044086D01*
X105658854Y-57534380D01*
X105905000Y-57780956D01*
X105905000Y-64265767D01*
X105904999Y-64265772D01*
X105949883Y-64491415D01*
X105972367Y-64604447D01*
X106092397Y-64784086D01*
X106164210Y-64891562D01*
X109618820Y-68346171D01*
X109618820Y-69454008D01*
X109418258Y-69654221D01*
X109130728Y-70346669D01*
X109130074Y-71096441D01*
X109301706Y-71511824D01*
X108889711Y-71340748D01*
X108139939Y-71340094D01*
X107446989Y-71626414D01*
X106916358Y-72156121D01*
X106628828Y-72848569D01*
X106628193Y-73576613D01*
X106515790Y-73464210D01*
X106228675Y-73272367D01*
X106171092Y-73260913D01*
X105890000Y-73204999D01*
X105889995Y-73205000D01*
X104213974Y-73205000D01*
X104213969Y-73204999D01*
X103994009Y-73248753D01*
X103994346Y-72861859D01*
X103708026Y-72168909D01*
X103178319Y-71638278D01*
X102485871Y-71350748D01*
X101736099Y-71350094D01*
X101320716Y-71521726D01*
X101491792Y-71109731D01*
X101492446Y-70359959D01*
X101206126Y-69667009D01*
X100676419Y-69136378D01*
X99983971Y-68848848D01*
X99234199Y-68848194D01*
X98541249Y-69134514D01*
X98010618Y-69664221D01*
X97723088Y-70356669D01*
X97722434Y-71106441D01*
X98008754Y-71799391D01*
X98538461Y-72330022D01*
X99230909Y-72617552D01*
X99980681Y-72618206D01*
X100396064Y-72446574D01*
X100224988Y-72858569D01*
X100224334Y-73608341D01*
X100510654Y-74301291D01*
X101040361Y-74831922D01*
X101732809Y-75119452D01*
X101932763Y-75119626D01*
X101717425Y-75334964D01*
X95997619Y-75334964D01*
X95997614Y-75334963D01*
X95935834Y-75347252D01*
X93286686Y-75347252D01*
X93224906Y-75334963D01*
X93224901Y-75334964D01*
X81932178Y-75334964D01*
X81932173Y-75334963D01*
X81895635Y-75342231D01*
X64547195Y-75342231D01*
X63806399Y-74601434D01*
X63806397Y-74601431D01*
X63519282Y-74409588D01*
X63180607Y-74342220D01*
X63180602Y-74342221D01*
X60401881Y-74342221D01*
X60447663Y-74296519D01*
X60735193Y-73604071D01*
X60735847Y-72854299D01*
X60449527Y-72161349D01*
X59919820Y-71630718D01*
X59227372Y-71343188D01*
X58477600Y-71342534D01*
X58062217Y-71514166D01*
X58233293Y-71102171D01*
X58233947Y-70352399D01*
X57947627Y-69659449D01*
X57417920Y-69128818D01*
X56725472Y-68841288D01*
X55975700Y-68840634D01*
X55282750Y-69126954D01*
X54752119Y-69656661D01*
X54464589Y-70349109D01*
X54463935Y-71098881D01*
X54750255Y-71791831D01*
X55279962Y-72322462D01*
X55972410Y-72609992D01*
X56722182Y-72610646D01*
X57137565Y-72439014D01*
X56966489Y-72851009D01*
X56965835Y-73600781D01*
X57252155Y-74293731D01*
X57300561Y-74342221D01*
X52901257Y-74342221D01*
X52949583Y-74293979D01*
X53237113Y-73601531D01*
X53237767Y-72851759D01*
X52951447Y-72158809D01*
X52421740Y-71628178D01*
X52237761Y-71551783D01*
X52237761Y-67773819D01*
X52446579Y-67565000D01*
X57519995Y-67565000D01*
X57520000Y-67565001D01*
X57802484Y-67508810D01*
X57858675Y-67497633D01*
X58145790Y-67305790D01*
X59038150Y-66413429D01*
X59384086Y-66413731D01*
X59874380Y-66211146D01*
X60249827Y-65836353D01*
X60453268Y-65346413D01*
X60453731Y-64815914D01*
X60441983Y-64787480D01*
X72354073Y-64787480D01*
X72382852Y-65317199D01*
X72530200Y-65672929D01*
X72765812Y-65734583D01*
X73520395Y-64980000D01*
X72765812Y-64225417D01*
X72530200Y-64287071D01*
X72354073Y-64787480D01*
X60441983Y-64787480D01*
X60251146Y-64325620D01*
X59971826Y-64045812D01*
X72945417Y-64045812D01*
X73700000Y-64800395D01*
X74454583Y-64045812D01*
X74392929Y-63810200D01*
X73892520Y-63634073D01*
X73362801Y-63662852D01*
X73007071Y-63810200D01*
X72945417Y-64045812D01*
X59971826Y-64045812D01*
X59876353Y-63950173D01*
X59386413Y-63746732D01*
X58855914Y-63746269D01*
X58365620Y-63948854D01*
X57990173Y-64323647D01*
X57830829Y-64707391D01*
X57827633Y-64691325D01*
X57655940Y-64434367D01*
X57655940Y-64331500D01*
X57611662Y-64096183D01*
X57472590Y-63880059D01*
X57260390Y-63735069D01*
X57008500Y-63684060D01*
X55611500Y-63684060D01*
X55376183Y-63728338D01*
X55160059Y-63867410D01*
X55015069Y-64079610D01*
X55001827Y-64145000D01*
X54276580Y-64145000D01*
X57706579Y-60715000D01*
X61080527Y-60715000D01*
X61167189Y-60844698D01*
X61549275Y-61100000D01*
X61167189Y-61355302D01*
X60856120Y-61820849D01*
X60746887Y-62370000D01*
X60856120Y-62919151D01*
X61167189Y-63384698D01*
X61632736Y-63695767D01*
X62181887Y-63805000D01*
X62238113Y-63805000D01*
X62787264Y-63695767D01*
X63252811Y-63384698D01*
X63563880Y-62919151D01*
X63603684Y-62719039D01*
X68438096Y-62719039D01*
X68598959Y-63107423D01*
X68974866Y-63522389D01*
X69480959Y-63761914D01*
X69703000Y-63640629D01*
X69703000Y-62497000D01*
X69957000Y-62497000D01*
X69957000Y-63640629D01*
X70179041Y-63761914D01*
X70685134Y-63522389D01*
X71061041Y-63107423D01*
X71221904Y-62719039D01*
X71099915Y-62497000D01*
X69957000Y-62497000D01*
X69703000Y-62497000D01*
X68560085Y-62497000D01*
X68438096Y-62719039D01*
X63603684Y-62719039D01*
X63673113Y-62370000D01*
X63563880Y-61820849D01*
X63252811Y-61355302D01*
X62870725Y-61100000D01*
X63252811Y-60844698D01*
X63563880Y-60379151D01*
X63673113Y-59830000D01*
X63563880Y-59280849D01*
X63252811Y-58815302D01*
X62870725Y-58560000D01*
X63252811Y-58304698D01*
X63563880Y-57839151D01*
X63673113Y-57290000D01*
X63563880Y-56740849D01*
X63252811Y-56275302D01*
X62870725Y-56020000D01*
X63252811Y-55764698D01*
X63563880Y-55299151D01*
X63673113Y-54750000D01*
X63563880Y-54200849D01*
X63252811Y-53735302D01*
X62787264Y-53424233D01*
X62238113Y-53315000D01*
X62181887Y-53315000D01*
X61632736Y-53424233D01*
X61167189Y-53735302D01*
X60856120Y-54200849D01*
X60746887Y-54750000D01*
X60856120Y-55299151D01*
X61167189Y-55764698D01*
X61549275Y-56020000D01*
X61167189Y-56275302D01*
X60966937Y-56575000D01*
X60120754Y-56575000D01*
X59876353Y-56330173D01*
X59386413Y-56126732D01*
X58855914Y-56126269D01*
X58365620Y-56328854D01*
X58175935Y-56518209D01*
X57307128Y-56521368D01*
X57066353Y-56280173D01*
X56576413Y-56076732D01*
X56045914Y-56076269D01*
X55555620Y-56278854D01*
X55180173Y-56653647D01*
X55081898Y-56890319D01*
X52795790Y-54604210D01*
X52508675Y-54412367D01*
X52474943Y-54405657D01*
X52371375Y-54250657D01*
X51936376Y-53960000D01*
X52371375Y-53669343D01*
X52434413Y-53575000D01*
X53211612Y-53575000D01*
X53211617Y-53575001D01*
X53519012Y-53513855D01*
X53550292Y-53507633D01*
X53837407Y-53315790D01*
X54918737Y-52234459D01*
X54823122Y-52464726D01*
M02*
