G04 #@! TF.FileFunction,Copper,L1,Top,Signal*
%FSLAX46Y46*%
G04 Gerber Fmt 4.6, Leading zero omitted, Abs format (unit mm)*
G04 Created by KiCad (PCBNEW 4.0.2-stable) date 17/08/2016 20:59:21*
%MOMM*%
G01*
G04 APERTURE LIST*
%ADD10C,0.100000*%
%ADD11R,1.397000X1.397000*%
%ADD12C,1.397000*%
%ADD13O,1.600000X1.600000*%
%ADD14C,2.499360*%
%ADD15O,2.000000X1.500000*%
%ADD16R,2.000000X1.500000*%
%ADD17C,1.600000*%
%ADD18C,0.500000*%
%ADD19C,0.254000*%
G04 APERTURE END LIST*
D10*
D11*
X56310000Y-65030000D03*
D12*
X56310000Y-57410000D03*
D11*
X86430000Y-64700000D03*
D12*
X86430000Y-57080000D03*
D13*
X62210000Y-54750000D03*
X62210000Y-57290000D03*
X62210000Y-59830000D03*
X62210000Y-62370000D03*
X69830000Y-62370000D03*
X69830000Y-59830000D03*
X69830000Y-57290000D03*
X69830000Y-54750000D03*
X92730000Y-54670000D03*
X92730000Y-57210000D03*
X92730000Y-59750000D03*
X92730000Y-62290000D03*
X100350000Y-62290000D03*
X100350000Y-59750000D03*
X100350000Y-57210000D03*
X100350000Y-54670000D03*
D14*
X43854681Y-73227540D03*
X56348941Y-70725640D03*
X51352761Y-73225000D03*
X58850841Y-73227540D03*
X46356581Y-70725640D03*
X56354021Y-83222440D03*
X46351501Y-83222440D03*
X87113180Y-73235100D03*
X99607440Y-70733200D03*
X94611260Y-73232560D03*
X102109340Y-73235100D03*
X89615080Y-70733200D03*
X99612520Y-83230000D03*
X89610000Y-83230000D03*
X65554681Y-73227540D03*
X78048941Y-70725640D03*
X73052761Y-73225000D03*
X80550841Y-73227540D03*
X68056581Y-70725640D03*
X78054021Y-83222440D03*
X68051501Y-83222440D03*
X108513180Y-73225100D03*
X121007440Y-70723200D03*
X116011260Y-73222560D03*
X123509340Y-73225100D03*
X111015080Y-70723200D03*
X121012520Y-83220000D03*
X111010000Y-83220000D03*
D15*
X51110000Y-50150000D03*
X48070000Y-50150000D03*
X48070000Y-52690000D03*
X51110000Y-52690000D03*
D16*
X51110000Y-60310000D03*
D15*
X48070000Y-60310000D03*
X51110000Y-57770000D03*
X48070000Y-57770000D03*
X51110000Y-55230000D03*
X48070000Y-55230000D03*
X119130000Y-49790000D03*
X116090000Y-49790000D03*
X116090000Y-52330000D03*
X119130000Y-52330000D03*
D16*
X119130000Y-59950000D03*
D15*
X116090000Y-59950000D03*
X119130000Y-57410000D03*
X116090000Y-57410000D03*
X119130000Y-54870000D03*
X116090000Y-54870000D03*
D12*
X83340000Y-55320000D03*
X83340000Y-62940000D03*
X73700000Y-57360000D03*
X73700000Y-64980000D03*
X126210000Y-69540000D03*
X126210000Y-77160000D03*
X103470000Y-57140000D03*
X103470000Y-64760000D03*
X59120000Y-65080000D03*
X59120000Y-57460000D03*
X77070000Y-60960000D03*
X77070000Y-53340000D03*
X79750000Y-64510000D03*
X79750000Y-56890000D03*
X89470000Y-64980000D03*
X89470000Y-57360000D03*
X106790000Y-56780000D03*
X106790000Y-49160000D03*
X110650000Y-64520000D03*
X110650000Y-56900000D03*
D17*
X62513293Y-78402860D03*
X62430000Y-68740000D03*
X71997381Y-53200043D03*
X71850000Y-45480000D03*
X83760000Y-80150000D03*
X84260000Y-66130000D03*
X105000000Y-76679980D03*
X105030000Y-67750000D03*
X110705240Y-51560052D03*
X110840000Y-45519969D03*
X56257872Y-52751417D03*
X56514803Y-47099970D03*
X73860000Y-46790000D03*
X73788198Y-54361479D03*
D18*
X62430000Y-68740000D02*
X62430000Y-78319567D01*
X62430000Y-78319567D02*
X62513293Y-78402860D01*
X71850000Y-45480000D02*
X71855659Y-53058321D01*
X71855659Y-53058321D02*
X71997381Y-53200043D01*
X71804341Y-45525659D02*
X71850000Y-45480000D01*
X84260000Y-66130000D02*
X84140000Y-79770000D01*
X84140000Y-79770000D02*
X83760000Y-80150000D01*
X105030000Y-76649980D02*
X105000000Y-76679980D01*
X105030000Y-67750000D02*
X105030000Y-76649980D01*
X110840000Y-45519969D02*
X110840000Y-51425292D01*
X110840000Y-51425292D02*
X110705240Y-51560052D01*
X56514803Y-52494486D02*
X56257872Y-52751417D01*
X56514803Y-47099970D02*
X56514803Y-52494486D01*
X73788198Y-54361479D02*
X73788198Y-46861802D01*
X73788198Y-46861802D02*
X73860000Y-46790000D01*
D19*
G36*
X130790000Y-84290000D02*
X122608319Y-84290000D01*
X122609342Y-84288979D01*
X122896872Y-83596531D01*
X122897526Y-82846759D01*
X122611206Y-82153809D01*
X122420349Y-81962619D01*
X125784613Y-81962619D01*
X126124155Y-82784372D01*
X126752321Y-83413636D01*
X127573481Y-83754611D01*
X128462619Y-83755387D01*
X129284372Y-83415845D01*
X129913636Y-82787679D01*
X130254611Y-81966519D01*
X130255387Y-81077381D01*
X129915845Y-80255628D01*
X129287679Y-79626364D01*
X128466519Y-79285389D01*
X127577381Y-79284613D01*
X126755628Y-79624155D01*
X126126364Y-80252321D01*
X125785389Y-81073481D01*
X125784613Y-81962619D01*
X122420349Y-81962619D01*
X122081499Y-81623178D01*
X121389051Y-81335648D01*
X120639279Y-81334994D01*
X119946329Y-81621314D01*
X119415698Y-82151021D01*
X119128168Y-82843469D01*
X119127514Y-83593241D01*
X119413834Y-84286191D01*
X119417636Y-84290000D01*
X112605799Y-84290000D01*
X112606822Y-84288979D01*
X112894352Y-83596531D01*
X112895006Y-82846759D01*
X112608686Y-82153809D01*
X112078979Y-81623178D01*
X111386531Y-81335648D01*
X110636759Y-81334994D01*
X109943809Y-81621314D01*
X109413178Y-82151021D01*
X109125648Y-82843469D01*
X109124994Y-83593241D01*
X109411314Y-84286191D01*
X109415116Y-84290000D01*
X101213070Y-84290000D01*
X101496872Y-83606531D01*
X101497526Y-82856759D01*
X101211206Y-82163809D01*
X100681499Y-81633178D01*
X99989051Y-81345648D01*
X99239279Y-81344994D01*
X98546329Y-81631314D01*
X98015698Y-82161021D01*
X97728168Y-82853469D01*
X97727514Y-83603241D01*
X98011276Y-84290000D01*
X91210550Y-84290000D01*
X91494352Y-83606531D01*
X91495006Y-82856759D01*
X91208686Y-82163809D01*
X90678979Y-81633178D01*
X89986531Y-81345648D01*
X89236759Y-81344994D01*
X88543809Y-81631314D01*
X88013178Y-82161021D01*
X87725648Y-82853469D01*
X87724994Y-83603241D01*
X88008756Y-84290000D01*
X79651432Y-84290000D01*
X79938373Y-83598971D01*
X79939027Y-82849199D01*
X79652707Y-82156249D01*
X79123000Y-81625618D01*
X78430552Y-81338088D01*
X77680780Y-81337434D01*
X76987830Y-81623754D01*
X76457199Y-82153461D01*
X76169669Y-82845909D01*
X76169015Y-83595681D01*
X76455335Y-84288631D01*
X76456702Y-84290000D01*
X69648912Y-84290000D01*
X69935853Y-83598971D01*
X69936507Y-82849199D01*
X69650187Y-82156249D01*
X69120480Y-81625618D01*
X68428032Y-81338088D01*
X67678260Y-81337434D01*
X66985310Y-81623754D01*
X66454679Y-82153461D01*
X66167149Y-82845909D01*
X66166495Y-83595681D01*
X66452815Y-84288631D01*
X66454182Y-84290000D01*
X57951432Y-84290000D01*
X58238373Y-83598971D01*
X58239027Y-82849199D01*
X57952707Y-82156249D01*
X57423000Y-81625618D01*
X56730552Y-81338088D01*
X55980780Y-81337434D01*
X55287830Y-81623754D01*
X54757199Y-82153461D01*
X54469669Y-82845909D01*
X54469015Y-83595681D01*
X54755335Y-84288631D01*
X54756702Y-84290000D01*
X47948912Y-84290000D01*
X48235853Y-83598971D01*
X48236507Y-82849199D01*
X47950187Y-82156249D01*
X47420480Y-81625618D01*
X46728032Y-81338088D01*
X45978260Y-81337434D01*
X45285310Y-81623754D01*
X44754679Y-82153461D01*
X44467149Y-82845909D01*
X44466495Y-83595681D01*
X44752815Y-84288631D01*
X44754182Y-84290000D01*
X35210000Y-84290000D01*
X35210000Y-81632619D01*
X35964613Y-81632619D01*
X36304155Y-82454372D01*
X36932321Y-83083636D01*
X37753481Y-83424611D01*
X38642619Y-83425387D01*
X39464372Y-83085845D01*
X40093636Y-82457679D01*
X40434611Y-81636519D01*
X40435387Y-80747381D01*
X40305978Y-80434187D01*
X82324752Y-80434187D01*
X82542757Y-80961800D01*
X82946077Y-81365824D01*
X83473309Y-81584750D01*
X84044187Y-81585248D01*
X84571800Y-81367243D01*
X84975824Y-80963923D01*
X85194750Y-80436691D01*
X85195248Y-79865813D01*
X85027758Y-79460455D01*
X85049719Y-76964167D01*
X103564752Y-76964167D01*
X103782757Y-77491780D01*
X104186077Y-77895804D01*
X104713309Y-78114730D01*
X105284187Y-78115228D01*
X105811800Y-77897223D01*
X106215824Y-77493903D01*
X106244814Y-77424086D01*
X124876269Y-77424086D01*
X125078854Y-77914380D01*
X125453647Y-78289827D01*
X125943587Y-78493268D01*
X126474086Y-78493731D01*
X126964380Y-78291146D01*
X127339827Y-77916353D01*
X127543268Y-77426413D01*
X127543731Y-76895914D01*
X127341146Y-76405620D01*
X126966353Y-76030173D01*
X126476413Y-75826732D01*
X125945914Y-75826269D01*
X125455620Y-76028854D01*
X125080173Y-76403647D01*
X124876732Y-76893587D01*
X124876269Y-77424086D01*
X106244814Y-77424086D01*
X106434750Y-76966671D01*
X106435248Y-76395793D01*
X106217243Y-75868180D01*
X105915000Y-75565409D01*
X105915000Y-73598341D01*
X106628174Y-73598341D01*
X106914494Y-74291291D01*
X107444201Y-74821922D01*
X108136649Y-75109452D01*
X108886421Y-75110106D01*
X109579371Y-74823786D01*
X110110002Y-74294079D01*
X110397532Y-73601631D01*
X110397537Y-73595801D01*
X114126254Y-73595801D01*
X114412574Y-74288751D01*
X114942281Y-74819382D01*
X115634729Y-75106912D01*
X116384501Y-75107566D01*
X117077451Y-74821246D01*
X117608082Y-74291539D01*
X117895612Y-73599091D01*
X117896266Y-72849319D01*
X117609946Y-72156369D01*
X117080239Y-71625738D01*
X116387791Y-71338208D01*
X115638019Y-71337554D01*
X114945069Y-71623874D01*
X114414438Y-72153581D01*
X114126908Y-72846029D01*
X114126254Y-73595801D01*
X110397537Y-73595801D01*
X110398186Y-72851859D01*
X110226554Y-72436476D01*
X110638549Y-72607552D01*
X111388321Y-72608206D01*
X112081271Y-72321886D01*
X112611902Y-71792179D01*
X112899432Y-71099731D01*
X112899434Y-71096441D01*
X119122434Y-71096441D01*
X119408754Y-71789391D01*
X119938461Y-72320022D01*
X120630909Y-72607552D01*
X121380681Y-72608206D01*
X121796064Y-72436574D01*
X121624988Y-72848569D01*
X121624334Y-73598341D01*
X121910654Y-74291291D01*
X122440361Y-74821922D01*
X123132809Y-75109452D01*
X123882581Y-75110106D01*
X124575531Y-74823786D01*
X125106162Y-74294079D01*
X125393692Y-73601631D01*
X125394346Y-72851859D01*
X125108026Y-72158909D01*
X124578319Y-71628278D01*
X123885871Y-71340748D01*
X123136099Y-71340094D01*
X122720716Y-71511726D01*
X122891792Y-71099731D01*
X122892446Y-70349959D01*
X122666897Y-69804086D01*
X124876269Y-69804086D01*
X125078854Y-70294380D01*
X125453647Y-70669827D01*
X125943587Y-70873268D01*
X126474086Y-70873731D01*
X126964380Y-70671146D01*
X127339827Y-70296353D01*
X127543268Y-69806413D01*
X127543731Y-69275914D01*
X127341146Y-68785620D01*
X126966353Y-68410173D01*
X126476413Y-68206732D01*
X125945914Y-68206269D01*
X125455620Y-68408854D01*
X125080173Y-68783647D01*
X124876732Y-69273587D01*
X124876269Y-69804086D01*
X122666897Y-69804086D01*
X122606126Y-69657009D01*
X122076419Y-69126378D01*
X121383971Y-68838848D01*
X120634199Y-68838194D01*
X119941249Y-69124514D01*
X119410618Y-69654221D01*
X119123088Y-70346669D01*
X119122434Y-71096441D01*
X112899434Y-71096441D01*
X112900086Y-70349959D01*
X112613766Y-69657009D01*
X112084059Y-69126378D01*
X111391611Y-68838848D01*
X110641839Y-68838194D01*
X109948889Y-69124514D01*
X109418258Y-69654221D01*
X109130728Y-70346669D01*
X109130074Y-71096441D01*
X109301706Y-71511824D01*
X108889711Y-71340748D01*
X108139939Y-71340094D01*
X107446989Y-71626414D01*
X106916358Y-72156121D01*
X106628828Y-72848569D01*
X106628174Y-73598341D01*
X105915000Y-73598341D01*
X105915000Y-68894171D01*
X106245824Y-68563923D01*
X106464750Y-68036691D01*
X106465248Y-67465813D01*
X106247243Y-66938200D01*
X105843923Y-66534176D01*
X105316691Y-66315250D01*
X104745813Y-66314752D01*
X104218200Y-66532757D01*
X103814176Y-66936077D01*
X103595250Y-67463309D01*
X103594752Y-68034187D01*
X103812757Y-68561800D01*
X104145000Y-68894623D01*
X104145000Y-75505862D01*
X103784176Y-75866057D01*
X103565250Y-76393289D01*
X103564752Y-76964167D01*
X85049719Y-76964167D01*
X85079242Y-73608341D01*
X85228174Y-73608341D01*
X85514494Y-74301291D01*
X86044201Y-74831922D01*
X86736649Y-75119452D01*
X87486421Y-75120106D01*
X88179371Y-74833786D01*
X88710002Y-74304079D01*
X88997532Y-73611631D01*
X88997537Y-73605801D01*
X92726254Y-73605801D01*
X93012574Y-74298751D01*
X93542281Y-74829382D01*
X94234729Y-75116912D01*
X94984501Y-75117566D01*
X95677451Y-74831246D01*
X96208082Y-74301539D01*
X96495612Y-73609091D01*
X96496266Y-72859319D01*
X96209946Y-72166369D01*
X95680239Y-71635738D01*
X94987791Y-71348208D01*
X94238019Y-71347554D01*
X93545069Y-71633874D01*
X93014438Y-72163581D01*
X92726908Y-72856029D01*
X92726254Y-73605801D01*
X88997537Y-73605801D01*
X88998186Y-72861859D01*
X88826554Y-72446476D01*
X89238549Y-72617552D01*
X89988321Y-72618206D01*
X90681271Y-72331886D01*
X91211902Y-71802179D01*
X91499432Y-71109731D01*
X91499434Y-71106441D01*
X97722434Y-71106441D01*
X98008754Y-71799391D01*
X98538461Y-72330022D01*
X99230909Y-72617552D01*
X99980681Y-72618206D01*
X100396064Y-72446574D01*
X100224988Y-72858569D01*
X100224334Y-73608341D01*
X100510654Y-74301291D01*
X101040361Y-74831922D01*
X101732809Y-75119452D01*
X102482581Y-75120106D01*
X103175531Y-74833786D01*
X103706162Y-74304079D01*
X103993692Y-73611631D01*
X103994346Y-72861859D01*
X103708026Y-72168909D01*
X103178319Y-71638278D01*
X102485871Y-71350748D01*
X101736099Y-71350094D01*
X101320716Y-71521726D01*
X101491792Y-71109731D01*
X101492446Y-70359959D01*
X101206126Y-69667009D01*
X100676419Y-69136378D01*
X99983971Y-68848848D01*
X99234199Y-68848194D01*
X98541249Y-69134514D01*
X98010618Y-69664221D01*
X97723088Y-70356669D01*
X97722434Y-71106441D01*
X91499434Y-71106441D01*
X91500086Y-70359959D01*
X91213766Y-69667009D01*
X90684059Y-69136378D01*
X89991611Y-68848848D01*
X89241839Y-68848194D01*
X88548889Y-69134514D01*
X88018258Y-69664221D01*
X87730728Y-70356669D01*
X87730074Y-71106441D01*
X87901706Y-71521824D01*
X87489711Y-71350748D01*
X86739939Y-71350094D01*
X86046989Y-71636414D01*
X85516358Y-72166121D01*
X85228828Y-72858569D01*
X85228174Y-73608341D01*
X85079242Y-73608341D01*
X85134880Y-67284273D01*
X85475824Y-66943923D01*
X85694750Y-66416691D01*
X85695080Y-66038565D01*
X85731500Y-66045940D01*
X87128500Y-66045940D01*
X87363817Y-66001662D01*
X87579941Y-65862590D01*
X87724931Y-65650390D01*
X87775940Y-65398500D01*
X87775940Y-65244086D01*
X88136269Y-65244086D01*
X88338854Y-65734380D01*
X88713647Y-66109827D01*
X89203587Y-66313268D01*
X89734086Y-66313731D01*
X90224380Y-66111146D01*
X90599827Y-65736353D01*
X90617335Y-65694188D01*
X102715417Y-65694188D01*
X102777071Y-65929800D01*
X103277480Y-66105927D01*
X103807199Y-66077148D01*
X104162929Y-65929800D01*
X104224583Y-65694188D01*
X103470000Y-64939605D01*
X102715417Y-65694188D01*
X90617335Y-65694188D01*
X90803268Y-65246413D01*
X90803731Y-64715914D01*
X90742400Y-64567480D01*
X102124073Y-64567480D01*
X102152852Y-65097199D01*
X102300200Y-65452929D01*
X102535812Y-65514583D01*
X103290395Y-64760000D01*
X103649605Y-64760000D01*
X104404188Y-65514583D01*
X104639800Y-65452929D01*
X104815927Y-64952520D01*
X104806777Y-64784086D01*
X109316269Y-64784086D01*
X109518854Y-65274380D01*
X109893647Y-65649827D01*
X110383587Y-65853268D01*
X110914086Y-65853731D01*
X111404380Y-65651146D01*
X111779827Y-65276353D01*
X111983268Y-64786413D01*
X111983731Y-64255914D01*
X111781146Y-63765620D01*
X111406353Y-63390173D01*
X110916413Y-63186732D01*
X110385914Y-63186269D01*
X109895620Y-63388854D01*
X109520173Y-63763647D01*
X109316732Y-64253587D01*
X109316269Y-64784086D01*
X104806777Y-64784086D01*
X104787148Y-64422801D01*
X104639800Y-64067071D01*
X104404188Y-64005417D01*
X103649605Y-64760000D01*
X103290395Y-64760000D01*
X102535812Y-64005417D01*
X102300200Y-64067071D01*
X102124073Y-64567480D01*
X90742400Y-64567480D01*
X90601146Y-64225620D01*
X90226353Y-63850173D01*
X90167686Y-63825812D01*
X102715417Y-63825812D01*
X103470000Y-64580395D01*
X104224583Y-63825812D01*
X104162929Y-63590200D01*
X103662520Y-63414073D01*
X103132801Y-63442852D01*
X102777071Y-63590200D01*
X102715417Y-63825812D01*
X90167686Y-63825812D01*
X89736413Y-63646732D01*
X89205914Y-63646269D01*
X88715620Y-63848854D01*
X88340173Y-64223647D01*
X88136732Y-64713587D01*
X88136269Y-65244086D01*
X87775940Y-65244086D01*
X87775940Y-64001500D01*
X87731662Y-63766183D01*
X87592590Y-63550059D01*
X87380390Y-63405069D01*
X87128500Y-63354060D01*
X85731500Y-63354060D01*
X85496183Y-63398338D01*
X85280059Y-63537410D01*
X85135069Y-63749610D01*
X85084060Y-64001500D01*
X85084060Y-64924331D01*
X85073923Y-64914176D01*
X84546691Y-64695250D01*
X83975813Y-64694752D01*
X83448200Y-64912757D01*
X83044176Y-65316077D01*
X82825250Y-65843309D01*
X82824752Y-66414187D01*
X83042757Y-66941800D01*
X83364984Y-67264589D01*
X83263477Y-78802487D01*
X82948200Y-78932757D01*
X82544176Y-79336077D01*
X82325250Y-79863309D01*
X82324752Y-80434187D01*
X40305978Y-80434187D01*
X40095845Y-79925628D01*
X39467679Y-79296364D01*
X38646519Y-78955389D01*
X37757381Y-78954613D01*
X36935628Y-79294155D01*
X36306364Y-79922321D01*
X35965389Y-80743481D01*
X35964613Y-81632619D01*
X35210000Y-81632619D01*
X35210000Y-73600781D01*
X41969675Y-73600781D01*
X42255995Y-74293731D01*
X42785702Y-74824362D01*
X43478150Y-75111892D01*
X44227922Y-75112546D01*
X44920872Y-74826226D01*
X45451503Y-74296519D01*
X45739033Y-73604071D01*
X45739038Y-73598241D01*
X49467755Y-73598241D01*
X49754075Y-74291191D01*
X50283782Y-74821822D01*
X50976230Y-75109352D01*
X51726002Y-75110006D01*
X52418952Y-74823686D01*
X52949583Y-74293979D01*
X53237113Y-73601531D01*
X53237767Y-72851759D01*
X52951447Y-72158809D01*
X52421740Y-71628178D01*
X51729292Y-71340648D01*
X50979520Y-71339994D01*
X50286570Y-71626314D01*
X49755939Y-72156021D01*
X49468409Y-72848469D01*
X49467755Y-73598241D01*
X45739038Y-73598241D01*
X45739687Y-72854299D01*
X45568055Y-72438916D01*
X45980050Y-72609992D01*
X46729822Y-72610646D01*
X47422772Y-72324326D01*
X47953403Y-71794619D01*
X48240933Y-71102171D01*
X48240935Y-71098881D01*
X54463935Y-71098881D01*
X54750255Y-71791831D01*
X55279962Y-72322462D01*
X55972410Y-72609992D01*
X56722182Y-72610646D01*
X57137565Y-72439014D01*
X56966489Y-72851009D01*
X56965835Y-73600781D01*
X57252155Y-74293731D01*
X57781862Y-74824362D01*
X58474310Y-75111892D01*
X59224082Y-75112546D01*
X59917032Y-74826226D01*
X60447663Y-74296519D01*
X60735193Y-73604071D01*
X60735195Y-73600781D01*
X63669675Y-73600781D01*
X63955995Y-74293731D01*
X64485702Y-74824362D01*
X65178150Y-75111892D01*
X65927922Y-75112546D01*
X66620872Y-74826226D01*
X67151503Y-74296519D01*
X67439033Y-73604071D01*
X67439038Y-73598241D01*
X71167755Y-73598241D01*
X71454075Y-74291191D01*
X71983782Y-74821822D01*
X72676230Y-75109352D01*
X73426002Y-75110006D01*
X74118952Y-74823686D01*
X74649583Y-74293979D01*
X74937113Y-73601531D01*
X74937767Y-72851759D01*
X74651447Y-72158809D01*
X74121740Y-71628178D01*
X73429292Y-71340648D01*
X72679520Y-71339994D01*
X71986570Y-71626314D01*
X71455939Y-72156021D01*
X71168409Y-72848469D01*
X71167755Y-73598241D01*
X67439038Y-73598241D01*
X67439687Y-72854299D01*
X67268055Y-72438916D01*
X67680050Y-72609992D01*
X68429822Y-72610646D01*
X69122772Y-72324326D01*
X69653403Y-71794619D01*
X69940933Y-71102171D01*
X69940935Y-71098881D01*
X76163935Y-71098881D01*
X76450255Y-71791831D01*
X76979962Y-72322462D01*
X77672410Y-72609992D01*
X78422182Y-72610646D01*
X78837565Y-72439014D01*
X78666489Y-72851009D01*
X78665835Y-73600781D01*
X78952155Y-74293731D01*
X79481862Y-74824362D01*
X80174310Y-75111892D01*
X80924082Y-75112546D01*
X81617032Y-74826226D01*
X82147663Y-74296519D01*
X82435193Y-73604071D01*
X82435847Y-72854299D01*
X82149527Y-72161349D01*
X81619820Y-71630718D01*
X80927372Y-71343188D01*
X80177600Y-71342534D01*
X79762217Y-71514166D01*
X79933293Y-71102171D01*
X79933947Y-70352399D01*
X79647627Y-69659449D01*
X79117920Y-69128818D01*
X78425472Y-68841288D01*
X77675700Y-68840634D01*
X76982750Y-69126954D01*
X76452119Y-69656661D01*
X76164589Y-70349109D01*
X76163935Y-71098881D01*
X69940935Y-71098881D01*
X69941587Y-70352399D01*
X69655267Y-69659449D01*
X69125560Y-69128818D01*
X68433112Y-68841288D01*
X67683340Y-68840634D01*
X66990390Y-69126954D01*
X66459759Y-69656661D01*
X66172229Y-70349109D01*
X66171575Y-71098881D01*
X66343207Y-71514264D01*
X65931212Y-71343188D01*
X65181440Y-71342534D01*
X64488490Y-71628854D01*
X63957859Y-72158561D01*
X63670329Y-72851009D01*
X63669675Y-73600781D01*
X60735195Y-73600781D01*
X60735847Y-72854299D01*
X60449527Y-72161349D01*
X59919820Y-71630718D01*
X59227372Y-71343188D01*
X58477600Y-71342534D01*
X58062217Y-71514166D01*
X58233293Y-71102171D01*
X58233947Y-70352399D01*
X57947627Y-69659449D01*
X57417920Y-69128818D01*
X56725472Y-68841288D01*
X55975700Y-68840634D01*
X55282750Y-69126954D01*
X54752119Y-69656661D01*
X54464589Y-70349109D01*
X54463935Y-71098881D01*
X48240935Y-71098881D01*
X48241587Y-70352399D01*
X47955267Y-69659449D01*
X47425560Y-69128818D01*
X46733112Y-68841288D01*
X45983340Y-68840634D01*
X45290390Y-69126954D01*
X44759759Y-69656661D01*
X44472229Y-70349109D01*
X44471575Y-71098881D01*
X44643207Y-71514264D01*
X44231212Y-71343188D01*
X43481440Y-71342534D01*
X42788490Y-71628854D01*
X42257859Y-72158561D01*
X41970329Y-72851009D01*
X41969675Y-73600781D01*
X35210000Y-73600781D01*
X35210000Y-64331500D01*
X54964060Y-64331500D01*
X54964060Y-65728500D01*
X55008338Y-65963817D01*
X55147410Y-66179941D01*
X55359610Y-66324931D01*
X55611500Y-66375940D01*
X57008500Y-66375940D01*
X57243817Y-66331662D01*
X57459941Y-66192590D01*
X57604931Y-65980390D01*
X57655940Y-65728500D01*
X57655940Y-65344086D01*
X57786269Y-65344086D01*
X57988854Y-65834380D01*
X58363647Y-66209827D01*
X58853587Y-66413268D01*
X59384086Y-66413731D01*
X59874380Y-66211146D01*
X60171856Y-65914188D01*
X72945417Y-65914188D01*
X73007071Y-66149800D01*
X73507480Y-66325927D01*
X74037199Y-66297148D01*
X74392929Y-66149800D01*
X74454583Y-65914188D01*
X73700000Y-65159605D01*
X72945417Y-65914188D01*
X60171856Y-65914188D01*
X60249827Y-65836353D01*
X60453268Y-65346413D01*
X60453731Y-64815914D01*
X60441983Y-64787480D01*
X72354073Y-64787480D01*
X72382852Y-65317199D01*
X72530200Y-65672929D01*
X72765812Y-65734583D01*
X73520395Y-64980000D01*
X73879605Y-64980000D01*
X74634188Y-65734583D01*
X74869800Y-65672929D01*
X75045927Y-65172520D01*
X75024281Y-64774086D01*
X78416269Y-64774086D01*
X78618854Y-65264380D01*
X78993647Y-65639827D01*
X79483587Y-65843268D01*
X80014086Y-65843731D01*
X80504380Y-65641146D01*
X80879827Y-65266353D01*
X81083268Y-64776413D01*
X81083731Y-64245914D01*
X80881146Y-63755620D01*
X80506353Y-63380173D01*
X80082289Y-63204086D01*
X82006269Y-63204086D01*
X82208854Y-63694380D01*
X82583647Y-64069827D01*
X83073587Y-64273268D01*
X83604086Y-64273731D01*
X84094380Y-64071146D01*
X84469827Y-63696353D01*
X84673268Y-63206413D01*
X84673731Y-62675914D01*
X84471146Y-62185620D01*
X84096353Y-61810173D01*
X83606413Y-61606732D01*
X83075914Y-61606269D01*
X82585620Y-61808854D01*
X82210173Y-62183647D01*
X82006732Y-62673587D01*
X82006269Y-63204086D01*
X80082289Y-63204086D01*
X80016413Y-63176732D01*
X79485914Y-63176269D01*
X78995620Y-63378854D01*
X78620173Y-63753647D01*
X78416732Y-64243587D01*
X78416269Y-64774086D01*
X75024281Y-64774086D01*
X75017148Y-64642801D01*
X74869800Y-64287071D01*
X74634188Y-64225417D01*
X73879605Y-64980000D01*
X73520395Y-64980000D01*
X72765812Y-64225417D01*
X72530200Y-64287071D01*
X72354073Y-64787480D01*
X60441983Y-64787480D01*
X60251146Y-64325620D01*
X59971826Y-64045812D01*
X72945417Y-64045812D01*
X73700000Y-64800395D01*
X74454583Y-64045812D01*
X74392929Y-63810200D01*
X73892520Y-63634073D01*
X73362801Y-63662852D01*
X73007071Y-63810200D01*
X72945417Y-64045812D01*
X59971826Y-64045812D01*
X59876353Y-63950173D01*
X59386413Y-63746732D01*
X58855914Y-63746269D01*
X58365620Y-63948854D01*
X57990173Y-64323647D01*
X57786732Y-64813587D01*
X57786269Y-65344086D01*
X57655940Y-65344086D01*
X57655940Y-64331500D01*
X57611662Y-64096183D01*
X57472590Y-63880059D01*
X57260390Y-63735069D01*
X57008500Y-63684060D01*
X55611500Y-63684060D01*
X55376183Y-63728338D01*
X55160059Y-63867410D01*
X55015069Y-64079610D01*
X54964060Y-64331500D01*
X35210000Y-64331500D01*
X35210000Y-50150000D01*
X46402968Y-50150000D01*
X46508395Y-50680017D01*
X46808625Y-51129343D01*
X47243624Y-51420000D01*
X46808625Y-51710657D01*
X46508395Y-52159983D01*
X46402968Y-52690000D01*
X46508395Y-53220017D01*
X46808625Y-53669343D01*
X47243624Y-53960000D01*
X46808625Y-54250657D01*
X46508395Y-54699983D01*
X46402968Y-55230000D01*
X46508395Y-55760017D01*
X46808625Y-56209343D01*
X47243624Y-56500000D01*
X46808625Y-56790657D01*
X46508395Y-57239983D01*
X46402968Y-57770000D01*
X46508395Y-58300017D01*
X46808625Y-58749343D01*
X47243624Y-59040000D01*
X46808625Y-59330657D01*
X46508395Y-59779983D01*
X46402968Y-60310000D01*
X46508395Y-60840017D01*
X46808625Y-61289343D01*
X47257951Y-61589573D01*
X47787968Y-61695000D01*
X48352032Y-61695000D01*
X48882049Y-61589573D01*
X49331375Y-61289343D01*
X49475000Y-61074393D01*
X49475000Y-61186309D01*
X49571673Y-61419698D01*
X49750301Y-61598327D01*
X49983690Y-61695000D01*
X50824250Y-61695000D01*
X50983000Y-61536250D01*
X50983000Y-60437000D01*
X51237000Y-60437000D01*
X51237000Y-61536250D01*
X51395750Y-61695000D01*
X52236310Y-61695000D01*
X52469699Y-61598327D01*
X52648327Y-61419698D01*
X52745000Y-61186309D01*
X52745000Y-60595750D01*
X52586250Y-60437000D01*
X51237000Y-60437000D01*
X50983000Y-60437000D01*
X50963000Y-60437000D01*
X50963000Y-60183000D01*
X50983000Y-60183000D01*
X50983000Y-60163000D01*
X51237000Y-60163000D01*
X51237000Y-60183000D01*
X52586250Y-60183000D01*
X52745000Y-60024250D01*
X52745000Y-59433691D01*
X52648327Y-59200302D01*
X52469699Y-59021673D01*
X52236310Y-58925000D01*
X52108486Y-58925000D01*
X52371375Y-58749343D01*
X52671605Y-58300017D01*
X52777032Y-57770000D01*
X52757954Y-57674086D01*
X54976269Y-57674086D01*
X55178854Y-58164380D01*
X55553647Y-58539827D01*
X56043587Y-58743268D01*
X56574086Y-58743731D01*
X57064380Y-58541146D01*
X57439827Y-58166353D01*
X57623472Y-57724086D01*
X57786269Y-57724086D01*
X57988854Y-58214380D01*
X58363647Y-58589827D01*
X58853587Y-58793268D01*
X59384086Y-58793731D01*
X59874380Y-58591146D01*
X60249827Y-58216353D01*
X60453268Y-57726413D01*
X60453731Y-57195914D01*
X60251146Y-56705620D01*
X59876353Y-56330173D01*
X59386413Y-56126732D01*
X58855914Y-56126269D01*
X58365620Y-56328854D01*
X57990173Y-56703647D01*
X57786732Y-57193587D01*
X57786269Y-57724086D01*
X57623472Y-57724086D01*
X57643268Y-57676413D01*
X57643731Y-57145914D01*
X57441146Y-56655620D01*
X57066353Y-56280173D01*
X56576413Y-56076732D01*
X56045914Y-56076269D01*
X55555620Y-56278854D01*
X55180173Y-56653647D01*
X54976732Y-57143587D01*
X54976269Y-57674086D01*
X52757954Y-57674086D01*
X52671605Y-57239983D01*
X52371375Y-56790657D01*
X51936376Y-56500000D01*
X52371375Y-56209343D01*
X52671605Y-55760017D01*
X52777032Y-55230000D01*
X52681555Y-54750000D01*
X60746887Y-54750000D01*
X60856120Y-55299151D01*
X61167189Y-55764698D01*
X61549275Y-56020000D01*
X61167189Y-56275302D01*
X60856120Y-56740849D01*
X60746887Y-57290000D01*
X60856120Y-57839151D01*
X61167189Y-58304698D01*
X61549275Y-58560000D01*
X61167189Y-58815302D01*
X60856120Y-59280849D01*
X60746887Y-59830000D01*
X60856120Y-60379151D01*
X61167189Y-60844698D01*
X61549275Y-61100000D01*
X61167189Y-61355302D01*
X60856120Y-61820849D01*
X60746887Y-62370000D01*
X60856120Y-62919151D01*
X61167189Y-63384698D01*
X61632736Y-63695767D01*
X62181887Y-63805000D01*
X62238113Y-63805000D01*
X62787264Y-63695767D01*
X63252811Y-63384698D01*
X63563880Y-62919151D01*
X63603684Y-62719039D01*
X68438096Y-62719039D01*
X68598959Y-63107423D01*
X68974866Y-63522389D01*
X69480959Y-63761914D01*
X69703000Y-63640629D01*
X69703000Y-62497000D01*
X69957000Y-62497000D01*
X69957000Y-63640629D01*
X70179041Y-63761914D01*
X70685134Y-63522389D01*
X71061041Y-63107423D01*
X71221904Y-62719039D01*
X71099915Y-62497000D01*
X69957000Y-62497000D01*
X69703000Y-62497000D01*
X68560085Y-62497000D01*
X68438096Y-62719039D01*
X63603684Y-62719039D01*
X63673113Y-62370000D01*
X63563880Y-61820849D01*
X63252811Y-61355302D01*
X62870725Y-61100000D01*
X63252811Y-60844698D01*
X63563880Y-60379151D01*
X63673113Y-59830000D01*
X63563880Y-59280849D01*
X63252811Y-58815302D01*
X62870725Y-58560000D01*
X63252811Y-58304698D01*
X63563880Y-57839151D01*
X63673113Y-57290000D01*
X63563880Y-56740849D01*
X63252811Y-56275302D01*
X62870725Y-56020000D01*
X63252811Y-55764698D01*
X63563880Y-55299151D01*
X63673113Y-54750000D01*
X68366887Y-54750000D01*
X68476120Y-55299151D01*
X68787189Y-55764698D01*
X69169275Y-56020000D01*
X68787189Y-56275302D01*
X68476120Y-56740849D01*
X68366887Y-57290000D01*
X68476120Y-57839151D01*
X68787189Y-58304698D01*
X69169275Y-58560000D01*
X68787189Y-58815302D01*
X68476120Y-59280849D01*
X68366887Y-59830000D01*
X68476120Y-60379151D01*
X68787189Y-60844698D01*
X69191703Y-61114986D01*
X68974866Y-61217611D01*
X68598959Y-61632577D01*
X68438096Y-62020961D01*
X68560085Y-62243000D01*
X69703000Y-62243000D01*
X69703000Y-62223000D01*
X69957000Y-62223000D01*
X69957000Y-62243000D01*
X71099915Y-62243000D01*
X71221904Y-62020961D01*
X71061041Y-61632577D01*
X70691000Y-61224086D01*
X75736269Y-61224086D01*
X75938854Y-61714380D01*
X76313647Y-62089827D01*
X76803587Y-62293268D01*
X77334086Y-62293731D01*
X77824380Y-62091146D01*
X78199827Y-61716353D01*
X78403268Y-61226413D01*
X78403731Y-60695914D01*
X78201146Y-60205620D01*
X77826353Y-59830173D01*
X77336413Y-59626732D01*
X76805914Y-59626269D01*
X76315620Y-59828854D01*
X75940173Y-60203647D01*
X75736732Y-60693587D01*
X75736269Y-61224086D01*
X70691000Y-61224086D01*
X70685134Y-61217611D01*
X70468297Y-61114986D01*
X70872811Y-60844698D01*
X71183880Y-60379151D01*
X71293113Y-59830000D01*
X71183880Y-59280849D01*
X70872811Y-58815302D01*
X70490725Y-58560000D01*
X70872811Y-58304698D01*
X71183880Y-57839151D01*
X71226659Y-57624086D01*
X72366269Y-57624086D01*
X72568854Y-58114380D01*
X72943647Y-58489827D01*
X73433587Y-58693268D01*
X73964086Y-58693731D01*
X74454380Y-58491146D01*
X74829827Y-58116353D01*
X75033268Y-57626413D01*
X75033680Y-57154086D01*
X78416269Y-57154086D01*
X78618854Y-57644380D01*
X78993647Y-58019827D01*
X79483587Y-58223268D01*
X80014086Y-58223731D01*
X80504380Y-58021146D01*
X80879827Y-57646353D01*
X81005339Y-57344086D01*
X85096269Y-57344086D01*
X85298854Y-57834380D01*
X85673647Y-58209827D01*
X86163587Y-58413268D01*
X86694086Y-58413731D01*
X87184380Y-58211146D01*
X87559827Y-57836353D01*
X87647968Y-57624086D01*
X88136269Y-57624086D01*
X88338854Y-58114380D01*
X88713647Y-58489827D01*
X89203587Y-58693268D01*
X89734086Y-58693731D01*
X90224380Y-58491146D01*
X90599827Y-58116353D01*
X90803268Y-57626413D01*
X90803731Y-57095914D01*
X90601146Y-56605620D01*
X90226353Y-56230173D01*
X89736413Y-56026732D01*
X89205914Y-56026269D01*
X88715620Y-56228854D01*
X88340173Y-56603647D01*
X88136732Y-57093587D01*
X88136269Y-57624086D01*
X87647968Y-57624086D01*
X87763268Y-57346413D01*
X87763731Y-56815914D01*
X87561146Y-56325620D01*
X87186353Y-55950173D01*
X86696413Y-55746732D01*
X86165914Y-55746269D01*
X85675620Y-55948854D01*
X85300173Y-56323647D01*
X85096732Y-56813587D01*
X85096269Y-57344086D01*
X81005339Y-57344086D01*
X81083268Y-57156413D01*
X81083731Y-56625914D01*
X80881146Y-56135620D01*
X80506353Y-55760173D01*
X80082289Y-55584086D01*
X82006269Y-55584086D01*
X82208854Y-56074380D01*
X82583647Y-56449827D01*
X83073587Y-56653268D01*
X83604086Y-56653731D01*
X84094380Y-56451146D01*
X84469827Y-56076353D01*
X84673268Y-55586413D01*
X84673731Y-55055914D01*
X84514275Y-54670000D01*
X91266887Y-54670000D01*
X91376120Y-55219151D01*
X91687189Y-55684698D01*
X92069275Y-55940000D01*
X91687189Y-56195302D01*
X91376120Y-56660849D01*
X91266887Y-57210000D01*
X91376120Y-57759151D01*
X91687189Y-58224698D01*
X92069275Y-58480000D01*
X91687189Y-58735302D01*
X91376120Y-59200849D01*
X91266887Y-59750000D01*
X91376120Y-60299151D01*
X91687189Y-60764698D01*
X92069275Y-61020000D01*
X91687189Y-61275302D01*
X91376120Y-61740849D01*
X91266887Y-62290000D01*
X91376120Y-62839151D01*
X91687189Y-63304698D01*
X92152736Y-63615767D01*
X92701887Y-63725000D01*
X92758113Y-63725000D01*
X93307264Y-63615767D01*
X93772811Y-63304698D01*
X94083880Y-62839151D01*
X94123684Y-62639039D01*
X98958096Y-62639039D01*
X99118959Y-63027423D01*
X99494866Y-63442389D01*
X100000959Y-63681914D01*
X100223000Y-63560629D01*
X100223000Y-62417000D01*
X100477000Y-62417000D01*
X100477000Y-63560629D01*
X100699041Y-63681914D01*
X101205134Y-63442389D01*
X101581041Y-63027423D01*
X101741904Y-62639039D01*
X101619915Y-62417000D01*
X100477000Y-62417000D01*
X100223000Y-62417000D01*
X99080085Y-62417000D01*
X98958096Y-62639039D01*
X94123684Y-62639039D01*
X94193113Y-62290000D01*
X94083880Y-61740849D01*
X93772811Y-61275302D01*
X93390725Y-61020000D01*
X93772811Y-60764698D01*
X94083880Y-60299151D01*
X94193113Y-59750000D01*
X94083880Y-59200849D01*
X93772811Y-58735302D01*
X93390725Y-58480000D01*
X93772811Y-58224698D01*
X94083880Y-57759151D01*
X94193113Y-57210000D01*
X94083880Y-56660849D01*
X93772811Y-56195302D01*
X93390725Y-55940000D01*
X93772811Y-55684698D01*
X94083880Y-55219151D01*
X94193113Y-54670000D01*
X98886887Y-54670000D01*
X98996120Y-55219151D01*
X99307189Y-55684698D01*
X99689275Y-55940000D01*
X99307189Y-56195302D01*
X98996120Y-56660849D01*
X98886887Y-57210000D01*
X98996120Y-57759151D01*
X99307189Y-58224698D01*
X99689275Y-58480000D01*
X99307189Y-58735302D01*
X98996120Y-59200849D01*
X98886887Y-59750000D01*
X98996120Y-60299151D01*
X99307189Y-60764698D01*
X99711703Y-61034986D01*
X99494866Y-61137611D01*
X99118959Y-61552577D01*
X98958096Y-61940961D01*
X99080085Y-62163000D01*
X100223000Y-62163000D01*
X100223000Y-62143000D01*
X100477000Y-62143000D01*
X100477000Y-62163000D01*
X101619915Y-62163000D01*
X101741904Y-61940961D01*
X101581041Y-61552577D01*
X101205134Y-61137611D01*
X100988297Y-61034986D01*
X101392811Y-60764698D01*
X101703880Y-60299151D01*
X101813113Y-59750000D01*
X101703880Y-59200849D01*
X101392811Y-58735302D01*
X101010725Y-58480000D01*
X101392811Y-58224698D01*
X101703880Y-57759151D01*
X101774506Y-57404086D01*
X102136269Y-57404086D01*
X102338854Y-57894380D01*
X102713647Y-58269827D01*
X103203587Y-58473268D01*
X103734086Y-58473731D01*
X104224380Y-58271146D01*
X104599827Y-57896353D01*
X104803268Y-57406413D01*
X104803584Y-57044086D01*
X105456269Y-57044086D01*
X105658854Y-57534380D01*
X106033647Y-57909827D01*
X106523587Y-58113268D01*
X107054086Y-58113731D01*
X107544380Y-57911146D01*
X107919827Y-57536353D01*
X108074405Y-57164086D01*
X109316269Y-57164086D01*
X109518854Y-57654380D01*
X109893647Y-58029827D01*
X110383587Y-58233268D01*
X110914086Y-58233731D01*
X111404380Y-58031146D01*
X111779827Y-57656353D01*
X111983268Y-57166413D01*
X111983731Y-56635914D01*
X111781146Y-56145620D01*
X111406353Y-55770173D01*
X110916413Y-55566732D01*
X110385914Y-55566269D01*
X109895620Y-55768854D01*
X109520173Y-56143647D01*
X109316732Y-56633587D01*
X109316269Y-57164086D01*
X108074405Y-57164086D01*
X108123268Y-57046413D01*
X108123731Y-56515914D01*
X107921146Y-56025620D01*
X107546353Y-55650173D01*
X107056413Y-55446732D01*
X106525914Y-55446269D01*
X106035620Y-55648854D01*
X105660173Y-56023647D01*
X105456732Y-56513587D01*
X105456269Y-57044086D01*
X104803584Y-57044086D01*
X104803731Y-56875914D01*
X104601146Y-56385620D01*
X104226353Y-56010173D01*
X103736413Y-55806732D01*
X103205914Y-55806269D01*
X102715620Y-56008854D01*
X102340173Y-56383647D01*
X102136732Y-56873587D01*
X102136269Y-57404086D01*
X101774506Y-57404086D01*
X101813113Y-57210000D01*
X101703880Y-56660849D01*
X101392811Y-56195302D01*
X101010725Y-55940000D01*
X101392811Y-55684698D01*
X101703880Y-55219151D01*
X101813113Y-54670000D01*
X101703880Y-54120849D01*
X101392811Y-53655302D01*
X100927264Y-53344233D01*
X100378113Y-53235000D01*
X100321887Y-53235000D01*
X99772736Y-53344233D01*
X99307189Y-53655302D01*
X98996120Y-54120849D01*
X98886887Y-54670000D01*
X94193113Y-54670000D01*
X94083880Y-54120849D01*
X93772811Y-53655302D01*
X93307264Y-53344233D01*
X92758113Y-53235000D01*
X92701887Y-53235000D01*
X92152736Y-53344233D01*
X91687189Y-53655302D01*
X91376120Y-54120849D01*
X91266887Y-54670000D01*
X84514275Y-54670000D01*
X84471146Y-54565620D01*
X84096353Y-54190173D01*
X83606413Y-53986732D01*
X83075914Y-53986269D01*
X82585620Y-54188854D01*
X82210173Y-54563647D01*
X82006732Y-55053587D01*
X82006269Y-55584086D01*
X80082289Y-55584086D01*
X80016413Y-55556732D01*
X79485914Y-55556269D01*
X78995620Y-55758854D01*
X78620173Y-56133647D01*
X78416732Y-56623587D01*
X78416269Y-57154086D01*
X75033680Y-57154086D01*
X75033731Y-57095914D01*
X74831146Y-56605620D01*
X74456353Y-56230173D01*
X73966413Y-56026732D01*
X73435914Y-56026269D01*
X72945620Y-56228854D01*
X72570173Y-56603647D01*
X72366732Y-57093587D01*
X72366269Y-57624086D01*
X71226659Y-57624086D01*
X71293113Y-57290000D01*
X71183880Y-56740849D01*
X70872811Y-56275302D01*
X70490725Y-56020000D01*
X70872811Y-55764698D01*
X71183880Y-55299151D01*
X71293113Y-54750000D01*
X71230538Y-54435417D01*
X71710690Y-54634793D01*
X72281568Y-54635291D01*
X72352985Y-54605782D01*
X72352950Y-54645666D01*
X72570955Y-55173279D01*
X72974275Y-55577303D01*
X73501507Y-55796229D01*
X74072385Y-55796727D01*
X74599998Y-55578722D01*
X75004022Y-55175402D01*
X75222948Y-54648170D01*
X75223446Y-54077292D01*
X75027922Y-53604086D01*
X75736269Y-53604086D01*
X75938854Y-54094380D01*
X76313647Y-54469827D01*
X76803587Y-54673268D01*
X77334086Y-54673731D01*
X77824380Y-54471146D01*
X78199827Y-54096353D01*
X78403268Y-53606413D01*
X78403731Y-53075914D01*
X78201146Y-52585620D01*
X77826353Y-52210173D01*
X77336413Y-52006732D01*
X76805914Y-52006269D01*
X76315620Y-52208854D01*
X75940173Y-52583647D01*
X75736732Y-53073587D01*
X75736269Y-53604086D01*
X75027922Y-53604086D01*
X75005441Y-53549679D01*
X74673198Y-53216856D01*
X74673198Y-51844239D01*
X109269992Y-51844239D01*
X109487997Y-52371852D01*
X109891317Y-52775876D01*
X110418549Y-52994802D01*
X110989427Y-52995300D01*
X111517040Y-52777295D01*
X111921064Y-52373975D01*
X112139990Y-51846743D01*
X112140488Y-51275865D01*
X111922483Y-50748252D01*
X111725000Y-50550424D01*
X111725000Y-49790000D01*
X114422968Y-49790000D01*
X114528395Y-50320017D01*
X114828625Y-50769343D01*
X115263624Y-51060000D01*
X114828625Y-51350657D01*
X114528395Y-51799983D01*
X114422968Y-52330000D01*
X114528395Y-52860017D01*
X114828625Y-53309343D01*
X115263624Y-53600000D01*
X114828625Y-53890657D01*
X114528395Y-54339983D01*
X114422968Y-54870000D01*
X114528395Y-55400017D01*
X114828625Y-55849343D01*
X115263624Y-56140000D01*
X114828625Y-56430657D01*
X114528395Y-56879983D01*
X114422968Y-57410000D01*
X114528395Y-57940017D01*
X114828625Y-58389343D01*
X115263624Y-58680000D01*
X114828625Y-58970657D01*
X114528395Y-59419983D01*
X114422968Y-59950000D01*
X114528395Y-60480017D01*
X114828625Y-60929343D01*
X115277951Y-61229573D01*
X115807968Y-61335000D01*
X116372032Y-61335000D01*
X116902049Y-61229573D01*
X117351375Y-60929343D01*
X117495000Y-60714393D01*
X117495000Y-60826309D01*
X117591673Y-61059698D01*
X117770301Y-61238327D01*
X118003690Y-61335000D01*
X118844250Y-61335000D01*
X119003000Y-61176250D01*
X119003000Y-60077000D01*
X119257000Y-60077000D01*
X119257000Y-61176250D01*
X119415750Y-61335000D01*
X120256310Y-61335000D01*
X120489699Y-61238327D01*
X120668327Y-61059698D01*
X120765000Y-60826309D01*
X120765000Y-60235750D01*
X120606250Y-60077000D01*
X119257000Y-60077000D01*
X119003000Y-60077000D01*
X118983000Y-60077000D01*
X118983000Y-59823000D01*
X119003000Y-59823000D01*
X119003000Y-59803000D01*
X119257000Y-59803000D01*
X119257000Y-59823000D01*
X120606250Y-59823000D01*
X120765000Y-59664250D01*
X120765000Y-59073691D01*
X120668327Y-58840302D01*
X120489699Y-58661673D01*
X120256310Y-58565000D01*
X120128486Y-58565000D01*
X120391375Y-58389343D01*
X120691605Y-57940017D01*
X120797032Y-57410000D01*
X120691605Y-56879983D01*
X120391375Y-56430657D01*
X119956376Y-56140000D01*
X120391375Y-55849343D01*
X120691605Y-55400017D01*
X120797032Y-54870000D01*
X120691605Y-54339983D01*
X120391375Y-53890657D01*
X119956376Y-53600000D01*
X120391375Y-53309343D01*
X120691605Y-52860017D01*
X120797032Y-52330000D01*
X120691605Y-51799983D01*
X120391375Y-51350657D01*
X119956376Y-51060000D01*
X120391375Y-50769343D01*
X120691605Y-50320017D01*
X120797032Y-49790000D01*
X120691605Y-49259983D01*
X120391375Y-48810657D01*
X119942049Y-48510427D01*
X119412032Y-48405000D01*
X118847968Y-48405000D01*
X118317951Y-48510427D01*
X117868625Y-48810657D01*
X117610000Y-49197717D01*
X117351375Y-48810657D01*
X116902049Y-48510427D01*
X116372032Y-48405000D01*
X115807968Y-48405000D01*
X115277951Y-48510427D01*
X114828625Y-48810657D01*
X114528395Y-49259983D01*
X114422968Y-49790000D01*
X111725000Y-49790000D01*
X111725000Y-47652619D01*
X124714613Y-47652619D01*
X125054155Y-48474372D01*
X125682321Y-49103636D01*
X126503481Y-49444611D01*
X127392619Y-49445387D01*
X128214372Y-49105845D01*
X128843636Y-48477679D01*
X129184611Y-47656519D01*
X129185387Y-46767381D01*
X128845845Y-45945628D01*
X128217679Y-45316364D01*
X127396519Y-44975389D01*
X126507381Y-44974613D01*
X125685628Y-45314155D01*
X125056364Y-45942321D01*
X124715389Y-46763481D01*
X124714613Y-47652619D01*
X111725000Y-47652619D01*
X111725000Y-46664140D01*
X112055824Y-46333892D01*
X112274750Y-45806660D01*
X112275248Y-45235782D01*
X112057243Y-44708169D01*
X111653923Y-44304145D01*
X111126691Y-44085219D01*
X110555813Y-44084721D01*
X110028200Y-44302726D01*
X109624176Y-44706046D01*
X109405250Y-45233278D01*
X109404752Y-45804156D01*
X109622757Y-46331769D01*
X109955000Y-46664592D01*
X109955000Y-50317373D01*
X109893440Y-50342809D01*
X109489416Y-50746129D01*
X109270490Y-51273361D01*
X109269992Y-51844239D01*
X74673198Y-51844239D01*
X74673198Y-49424086D01*
X105456269Y-49424086D01*
X105658854Y-49914380D01*
X106033647Y-50289827D01*
X106523587Y-50493268D01*
X107054086Y-50493731D01*
X107544380Y-50291146D01*
X107919827Y-49916353D01*
X108123268Y-49426413D01*
X108123731Y-48895914D01*
X107921146Y-48405620D01*
X107546353Y-48030173D01*
X107056413Y-47826732D01*
X106525914Y-47826269D01*
X106035620Y-48028854D01*
X105660173Y-48403647D01*
X105456732Y-48893587D01*
X105456269Y-49424086D01*
X74673198Y-49424086D01*
X74673198Y-48005847D01*
X75075824Y-47603923D01*
X75294750Y-47076691D01*
X75295248Y-46505813D01*
X75077243Y-45978200D01*
X74673923Y-45574176D01*
X74146691Y-45355250D01*
X73575813Y-45354752D01*
X73285005Y-45474911D01*
X73285248Y-45195813D01*
X73067243Y-44668200D01*
X72663923Y-44264176D01*
X72136691Y-44045250D01*
X71565813Y-44044752D01*
X71038200Y-44262757D01*
X70634176Y-44666077D01*
X70415250Y-45193309D01*
X70414752Y-45764187D01*
X70632757Y-46291800D01*
X70965855Y-46625479D01*
X70970016Y-52197989D01*
X70781557Y-52386120D01*
X70562631Y-52913352D01*
X70562133Y-53484230D01*
X70586952Y-53544297D01*
X70407264Y-53424233D01*
X69858113Y-53315000D01*
X69801887Y-53315000D01*
X69252736Y-53424233D01*
X68787189Y-53735302D01*
X68476120Y-54200849D01*
X68366887Y-54750000D01*
X63673113Y-54750000D01*
X63563880Y-54200849D01*
X63252811Y-53735302D01*
X62787264Y-53424233D01*
X62238113Y-53315000D01*
X62181887Y-53315000D01*
X61632736Y-53424233D01*
X61167189Y-53735302D01*
X60856120Y-54200849D01*
X60746887Y-54750000D01*
X52681555Y-54750000D01*
X52671605Y-54699983D01*
X52371375Y-54250657D01*
X51936376Y-53960000D01*
X52371375Y-53669343D01*
X52671605Y-53220017D01*
X52708287Y-53035604D01*
X54822624Y-53035604D01*
X55040629Y-53563217D01*
X55443949Y-53967241D01*
X55971181Y-54186167D01*
X56542059Y-54186665D01*
X57069672Y-53968660D01*
X57473696Y-53565340D01*
X57692622Y-53038108D01*
X57693120Y-52467230D01*
X57475115Y-51939617D01*
X57399803Y-51864174D01*
X57399803Y-48244141D01*
X57730627Y-47913893D01*
X57949553Y-47386661D01*
X57950051Y-46815783D01*
X57732046Y-46288170D01*
X57328726Y-45884146D01*
X56801494Y-45665220D01*
X56230616Y-45664722D01*
X55703003Y-45882727D01*
X55298979Y-46286047D01*
X55080053Y-46813279D01*
X55079555Y-47384157D01*
X55297560Y-47911770D01*
X55629803Y-48244593D01*
X55629803Y-51458258D01*
X55446072Y-51534174D01*
X55042048Y-51937494D01*
X54823122Y-52464726D01*
X54822624Y-53035604D01*
X52708287Y-53035604D01*
X52777032Y-52690000D01*
X52671605Y-52159983D01*
X52371375Y-51710657D01*
X51936376Y-51420000D01*
X52371375Y-51129343D01*
X52671605Y-50680017D01*
X52777032Y-50150000D01*
X52671605Y-49619983D01*
X52371375Y-49170657D01*
X51922049Y-48870427D01*
X51392032Y-48765000D01*
X50827968Y-48765000D01*
X50297951Y-48870427D01*
X49848625Y-49170657D01*
X49590000Y-49557717D01*
X49331375Y-49170657D01*
X48882049Y-48870427D01*
X48352032Y-48765000D01*
X47787968Y-48765000D01*
X47257951Y-48870427D01*
X46808625Y-49170657D01*
X46508395Y-49619983D01*
X46402968Y-50150000D01*
X35210000Y-50150000D01*
X35210000Y-47802619D01*
X36574613Y-47802619D01*
X36914155Y-48624372D01*
X37542321Y-49253636D01*
X38363481Y-49594611D01*
X39252619Y-49595387D01*
X40074372Y-49255845D01*
X40703636Y-48627679D01*
X41044611Y-47806519D01*
X41045387Y-46917381D01*
X40705845Y-46095628D01*
X40077679Y-45466364D01*
X39256519Y-45125389D01*
X38367381Y-45124613D01*
X37545628Y-45464155D01*
X36916364Y-46092321D01*
X36575389Y-46913481D01*
X36574613Y-47802619D01*
X35210000Y-47802619D01*
X35210000Y-43210000D01*
X130790000Y-43210000D01*
X130790000Y-84290000D01*
X130790000Y-84290000D01*
G37*
X130790000Y-84290000D02*
X122608319Y-84290000D01*
X122609342Y-84288979D01*
X122896872Y-83596531D01*
X122897526Y-82846759D01*
X122611206Y-82153809D01*
X122420349Y-81962619D01*
X125784613Y-81962619D01*
X126124155Y-82784372D01*
X126752321Y-83413636D01*
X127573481Y-83754611D01*
X128462619Y-83755387D01*
X129284372Y-83415845D01*
X129913636Y-82787679D01*
X130254611Y-81966519D01*
X130255387Y-81077381D01*
X129915845Y-80255628D01*
X129287679Y-79626364D01*
X128466519Y-79285389D01*
X127577381Y-79284613D01*
X126755628Y-79624155D01*
X126126364Y-80252321D01*
X125785389Y-81073481D01*
X125784613Y-81962619D01*
X122420349Y-81962619D01*
X122081499Y-81623178D01*
X121389051Y-81335648D01*
X120639279Y-81334994D01*
X119946329Y-81621314D01*
X119415698Y-82151021D01*
X119128168Y-82843469D01*
X119127514Y-83593241D01*
X119413834Y-84286191D01*
X119417636Y-84290000D01*
X112605799Y-84290000D01*
X112606822Y-84288979D01*
X112894352Y-83596531D01*
X112895006Y-82846759D01*
X112608686Y-82153809D01*
X112078979Y-81623178D01*
X111386531Y-81335648D01*
X110636759Y-81334994D01*
X109943809Y-81621314D01*
X109413178Y-82151021D01*
X109125648Y-82843469D01*
X109124994Y-83593241D01*
X109411314Y-84286191D01*
X109415116Y-84290000D01*
X101213070Y-84290000D01*
X101496872Y-83606531D01*
X101497526Y-82856759D01*
X101211206Y-82163809D01*
X100681499Y-81633178D01*
X99989051Y-81345648D01*
X99239279Y-81344994D01*
X98546329Y-81631314D01*
X98015698Y-82161021D01*
X97728168Y-82853469D01*
X97727514Y-83603241D01*
X98011276Y-84290000D01*
X91210550Y-84290000D01*
X91494352Y-83606531D01*
X91495006Y-82856759D01*
X91208686Y-82163809D01*
X90678979Y-81633178D01*
X89986531Y-81345648D01*
X89236759Y-81344994D01*
X88543809Y-81631314D01*
X88013178Y-82161021D01*
X87725648Y-82853469D01*
X87724994Y-83603241D01*
X88008756Y-84290000D01*
X79651432Y-84290000D01*
X79938373Y-83598971D01*
X79939027Y-82849199D01*
X79652707Y-82156249D01*
X79123000Y-81625618D01*
X78430552Y-81338088D01*
X77680780Y-81337434D01*
X76987830Y-81623754D01*
X76457199Y-82153461D01*
X76169669Y-82845909D01*
X76169015Y-83595681D01*
X76455335Y-84288631D01*
X76456702Y-84290000D01*
X69648912Y-84290000D01*
X69935853Y-83598971D01*
X69936507Y-82849199D01*
X69650187Y-82156249D01*
X69120480Y-81625618D01*
X68428032Y-81338088D01*
X67678260Y-81337434D01*
X66985310Y-81623754D01*
X66454679Y-82153461D01*
X66167149Y-82845909D01*
X66166495Y-83595681D01*
X66452815Y-84288631D01*
X66454182Y-84290000D01*
X57951432Y-84290000D01*
X58238373Y-83598971D01*
X58239027Y-82849199D01*
X57952707Y-82156249D01*
X57423000Y-81625618D01*
X56730552Y-81338088D01*
X55980780Y-81337434D01*
X55287830Y-81623754D01*
X54757199Y-82153461D01*
X54469669Y-82845909D01*
X54469015Y-83595681D01*
X54755335Y-84288631D01*
X54756702Y-84290000D01*
X47948912Y-84290000D01*
X48235853Y-83598971D01*
X48236507Y-82849199D01*
X47950187Y-82156249D01*
X47420480Y-81625618D01*
X46728032Y-81338088D01*
X45978260Y-81337434D01*
X45285310Y-81623754D01*
X44754679Y-82153461D01*
X44467149Y-82845909D01*
X44466495Y-83595681D01*
X44752815Y-84288631D01*
X44754182Y-84290000D01*
X35210000Y-84290000D01*
X35210000Y-81632619D01*
X35964613Y-81632619D01*
X36304155Y-82454372D01*
X36932321Y-83083636D01*
X37753481Y-83424611D01*
X38642619Y-83425387D01*
X39464372Y-83085845D01*
X40093636Y-82457679D01*
X40434611Y-81636519D01*
X40435387Y-80747381D01*
X40305978Y-80434187D01*
X82324752Y-80434187D01*
X82542757Y-80961800D01*
X82946077Y-81365824D01*
X83473309Y-81584750D01*
X84044187Y-81585248D01*
X84571800Y-81367243D01*
X84975824Y-80963923D01*
X85194750Y-80436691D01*
X85195248Y-79865813D01*
X85027758Y-79460455D01*
X85049719Y-76964167D01*
X103564752Y-76964167D01*
X103782757Y-77491780D01*
X104186077Y-77895804D01*
X104713309Y-78114730D01*
X105284187Y-78115228D01*
X105811800Y-77897223D01*
X106215824Y-77493903D01*
X106244814Y-77424086D01*
X124876269Y-77424086D01*
X125078854Y-77914380D01*
X125453647Y-78289827D01*
X125943587Y-78493268D01*
X126474086Y-78493731D01*
X126964380Y-78291146D01*
X127339827Y-77916353D01*
X127543268Y-77426413D01*
X127543731Y-76895914D01*
X127341146Y-76405620D01*
X126966353Y-76030173D01*
X126476413Y-75826732D01*
X125945914Y-75826269D01*
X125455620Y-76028854D01*
X125080173Y-76403647D01*
X124876732Y-76893587D01*
X124876269Y-77424086D01*
X106244814Y-77424086D01*
X106434750Y-76966671D01*
X106435248Y-76395793D01*
X106217243Y-75868180D01*
X105915000Y-75565409D01*
X105915000Y-73598341D01*
X106628174Y-73598341D01*
X106914494Y-74291291D01*
X107444201Y-74821922D01*
X108136649Y-75109452D01*
X108886421Y-75110106D01*
X109579371Y-74823786D01*
X110110002Y-74294079D01*
X110397532Y-73601631D01*
X110397537Y-73595801D01*
X114126254Y-73595801D01*
X114412574Y-74288751D01*
X114942281Y-74819382D01*
X115634729Y-75106912D01*
X116384501Y-75107566D01*
X117077451Y-74821246D01*
X117608082Y-74291539D01*
X117895612Y-73599091D01*
X117896266Y-72849319D01*
X117609946Y-72156369D01*
X117080239Y-71625738D01*
X116387791Y-71338208D01*
X115638019Y-71337554D01*
X114945069Y-71623874D01*
X114414438Y-72153581D01*
X114126908Y-72846029D01*
X114126254Y-73595801D01*
X110397537Y-73595801D01*
X110398186Y-72851859D01*
X110226554Y-72436476D01*
X110638549Y-72607552D01*
X111388321Y-72608206D01*
X112081271Y-72321886D01*
X112611902Y-71792179D01*
X112899432Y-71099731D01*
X112899434Y-71096441D01*
X119122434Y-71096441D01*
X119408754Y-71789391D01*
X119938461Y-72320022D01*
X120630909Y-72607552D01*
X121380681Y-72608206D01*
X121796064Y-72436574D01*
X121624988Y-72848569D01*
X121624334Y-73598341D01*
X121910654Y-74291291D01*
X122440361Y-74821922D01*
X123132809Y-75109452D01*
X123882581Y-75110106D01*
X124575531Y-74823786D01*
X125106162Y-74294079D01*
X125393692Y-73601631D01*
X125394346Y-72851859D01*
X125108026Y-72158909D01*
X124578319Y-71628278D01*
X123885871Y-71340748D01*
X123136099Y-71340094D01*
X122720716Y-71511726D01*
X122891792Y-71099731D01*
X122892446Y-70349959D01*
X122666897Y-69804086D01*
X124876269Y-69804086D01*
X125078854Y-70294380D01*
X125453647Y-70669827D01*
X125943587Y-70873268D01*
X126474086Y-70873731D01*
X126964380Y-70671146D01*
X127339827Y-70296353D01*
X127543268Y-69806413D01*
X127543731Y-69275914D01*
X127341146Y-68785620D01*
X126966353Y-68410173D01*
X126476413Y-68206732D01*
X125945914Y-68206269D01*
X125455620Y-68408854D01*
X125080173Y-68783647D01*
X124876732Y-69273587D01*
X124876269Y-69804086D01*
X122666897Y-69804086D01*
X122606126Y-69657009D01*
X122076419Y-69126378D01*
X121383971Y-68838848D01*
X120634199Y-68838194D01*
X119941249Y-69124514D01*
X119410618Y-69654221D01*
X119123088Y-70346669D01*
X119122434Y-71096441D01*
X112899434Y-71096441D01*
X112900086Y-70349959D01*
X112613766Y-69657009D01*
X112084059Y-69126378D01*
X111391611Y-68838848D01*
X110641839Y-68838194D01*
X109948889Y-69124514D01*
X109418258Y-69654221D01*
X109130728Y-70346669D01*
X109130074Y-71096441D01*
X109301706Y-71511824D01*
X108889711Y-71340748D01*
X108139939Y-71340094D01*
X107446989Y-71626414D01*
X106916358Y-72156121D01*
X106628828Y-72848569D01*
X106628174Y-73598341D01*
X105915000Y-73598341D01*
X105915000Y-68894171D01*
X106245824Y-68563923D01*
X106464750Y-68036691D01*
X106465248Y-67465813D01*
X106247243Y-66938200D01*
X105843923Y-66534176D01*
X105316691Y-66315250D01*
X104745813Y-66314752D01*
X104218200Y-66532757D01*
X103814176Y-66936077D01*
X103595250Y-67463309D01*
X103594752Y-68034187D01*
X103812757Y-68561800D01*
X104145000Y-68894623D01*
X104145000Y-75505862D01*
X103784176Y-75866057D01*
X103565250Y-76393289D01*
X103564752Y-76964167D01*
X85049719Y-76964167D01*
X85079242Y-73608341D01*
X85228174Y-73608341D01*
X85514494Y-74301291D01*
X86044201Y-74831922D01*
X86736649Y-75119452D01*
X87486421Y-75120106D01*
X88179371Y-74833786D01*
X88710002Y-74304079D01*
X88997532Y-73611631D01*
X88997537Y-73605801D01*
X92726254Y-73605801D01*
X93012574Y-74298751D01*
X93542281Y-74829382D01*
X94234729Y-75116912D01*
X94984501Y-75117566D01*
X95677451Y-74831246D01*
X96208082Y-74301539D01*
X96495612Y-73609091D01*
X96496266Y-72859319D01*
X96209946Y-72166369D01*
X95680239Y-71635738D01*
X94987791Y-71348208D01*
X94238019Y-71347554D01*
X93545069Y-71633874D01*
X93014438Y-72163581D01*
X92726908Y-72856029D01*
X92726254Y-73605801D01*
X88997537Y-73605801D01*
X88998186Y-72861859D01*
X88826554Y-72446476D01*
X89238549Y-72617552D01*
X89988321Y-72618206D01*
X90681271Y-72331886D01*
X91211902Y-71802179D01*
X91499432Y-71109731D01*
X91499434Y-71106441D01*
X97722434Y-71106441D01*
X98008754Y-71799391D01*
X98538461Y-72330022D01*
X99230909Y-72617552D01*
X99980681Y-72618206D01*
X100396064Y-72446574D01*
X100224988Y-72858569D01*
X100224334Y-73608341D01*
X100510654Y-74301291D01*
X101040361Y-74831922D01*
X101732809Y-75119452D01*
X102482581Y-75120106D01*
X103175531Y-74833786D01*
X103706162Y-74304079D01*
X103993692Y-73611631D01*
X103994346Y-72861859D01*
X103708026Y-72168909D01*
X103178319Y-71638278D01*
X102485871Y-71350748D01*
X101736099Y-71350094D01*
X101320716Y-71521726D01*
X101491792Y-71109731D01*
X101492446Y-70359959D01*
X101206126Y-69667009D01*
X100676419Y-69136378D01*
X99983971Y-68848848D01*
X99234199Y-68848194D01*
X98541249Y-69134514D01*
X98010618Y-69664221D01*
X97723088Y-70356669D01*
X97722434Y-71106441D01*
X91499434Y-71106441D01*
X91500086Y-70359959D01*
X91213766Y-69667009D01*
X90684059Y-69136378D01*
X89991611Y-68848848D01*
X89241839Y-68848194D01*
X88548889Y-69134514D01*
X88018258Y-69664221D01*
X87730728Y-70356669D01*
X87730074Y-71106441D01*
X87901706Y-71521824D01*
X87489711Y-71350748D01*
X86739939Y-71350094D01*
X86046989Y-71636414D01*
X85516358Y-72166121D01*
X85228828Y-72858569D01*
X85228174Y-73608341D01*
X85079242Y-73608341D01*
X85134880Y-67284273D01*
X85475824Y-66943923D01*
X85694750Y-66416691D01*
X85695080Y-66038565D01*
X85731500Y-66045940D01*
X87128500Y-66045940D01*
X87363817Y-66001662D01*
X87579941Y-65862590D01*
X87724931Y-65650390D01*
X87775940Y-65398500D01*
X87775940Y-65244086D01*
X88136269Y-65244086D01*
X88338854Y-65734380D01*
X88713647Y-66109827D01*
X89203587Y-66313268D01*
X89734086Y-66313731D01*
X90224380Y-66111146D01*
X90599827Y-65736353D01*
X90617335Y-65694188D01*
X102715417Y-65694188D01*
X102777071Y-65929800D01*
X103277480Y-66105927D01*
X103807199Y-66077148D01*
X104162929Y-65929800D01*
X104224583Y-65694188D01*
X103470000Y-64939605D01*
X102715417Y-65694188D01*
X90617335Y-65694188D01*
X90803268Y-65246413D01*
X90803731Y-64715914D01*
X90742400Y-64567480D01*
X102124073Y-64567480D01*
X102152852Y-65097199D01*
X102300200Y-65452929D01*
X102535812Y-65514583D01*
X103290395Y-64760000D01*
X103649605Y-64760000D01*
X104404188Y-65514583D01*
X104639800Y-65452929D01*
X104815927Y-64952520D01*
X104806777Y-64784086D01*
X109316269Y-64784086D01*
X109518854Y-65274380D01*
X109893647Y-65649827D01*
X110383587Y-65853268D01*
X110914086Y-65853731D01*
X111404380Y-65651146D01*
X111779827Y-65276353D01*
X111983268Y-64786413D01*
X111983731Y-64255914D01*
X111781146Y-63765620D01*
X111406353Y-63390173D01*
X110916413Y-63186732D01*
X110385914Y-63186269D01*
X109895620Y-63388854D01*
X109520173Y-63763647D01*
X109316732Y-64253587D01*
X109316269Y-64784086D01*
X104806777Y-64784086D01*
X104787148Y-64422801D01*
X104639800Y-64067071D01*
X104404188Y-64005417D01*
X103649605Y-64760000D01*
X103290395Y-64760000D01*
X102535812Y-64005417D01*
X102300200Y-64067071D01*
X102124073Y-64567480D01*
X90742400Y-64567480D01*
X90601146Y-64225620D01*
X90226353Y-63850173D01*
X90167686Y-63825812D01*
X102715417Y-63825812D01*
X103470000Y-64580395D01*
X104224583Y-63825812D01*
X104162929Y-63590200D01*
X103662520Y-63414073D01*
X103132801Y-63442852D01*
X102777071Y-63590200D01*
X102715417Y-63825812D01*
X90167686Y-63825812D01*
X89736413Y-63646732D01*
X89205914Y-63646269D01*
X88715620Y-63848854D01*
X88340173Y-64223647D01*
X88136732Y-64713587D01*
X88136269Y-65244086D01*
X87775940Y-65244086D01*
X87775940Y-64001500D01*
X87731662Y-63766183D01*
X87592590Y-63550059D01*
X87380390Y-63405069D01*
X87128500Y-63354060D01*
X85731500Y-63354060D01*
X85496183Y-63398338D01*
X85280059Y-63537410D01*
X85135069Y-63749610D01*
X85084060Y-64001500D01*
X85084060Y-64924331D01*
X85073923Y-64914176D01*
X84546691Y-64695250D01*
X83975813Y-64694752D01*
X83448200Y-64912757D01*
X83044176Y-65316077D01*
X82825250Y-65843309D01*
X82824752Y-66414187D01*
X83042757Y-66941800D01*
X83364984Y-67264589D01*
X83263477Y-78802487D01*
X82948200Y-78932757D01*
X82544176Y-79336077D01*
X82325250Y-79863309D01*
X82324752Y-80434187D01*
X40305978Y-80434187D01*
X40095845Y-79925628D01*
X39467679Y-79296364D01*
X38646519Y-78955389D01*
X37757381Y-78954613D01*
X36935628Y-79294155D01*
X36306364Y-79922321D01*
X35965389Y-80743481D01*
X35964613Y-81632619D01*
X35210000Y-81632619D01*
X35210000Y-73600781D01*
X41969675Y-73600781D01*
X42255995Y-74293731D01*
X42785702Y-74824362D01*
X43478150Y-75111892D01*
X44227922Y-75112546D01*
X44920872Y-74826226D01*
X45451503Y-74296519D01*
X45739033Y-73604071D01*
X45739038Y-73598241D01*
X49467755Y-73598241D01*
X49754075Y-74291191D01*
X50283782Y-74821822D01*
X50976230Y-75109352D01*
X51726002Y-75110006D01*
X52418952Y-74823686D01*
X52949583Y-74293979D01*
X53237113Y-73601531D01*
X53237767Y-72851759D01*
X52951447Y-72158809D01*
X52421740Y-71628178D01*
X51729292Y-71340648D01*
X50979520Y-71339994D01*
X50286570Y-71626314D01*
X49755939Y-72156021D01*
X49468409Y-72848469D01*
X49467755Y-73598241D01*
X45739038Y-73598241D01*
X45739687Y-72854299D01*
X45568055Y-72438916D01*
X45980050Y-72609992D01*
X46729822Y-72610646D01*
X47422772Y-72324326D01*
X47953403Y-71794619D01*
X48240933Y-71102171D01*
X48240935Y-71098881D01*
X54463935Y-71098881D01*
X54750255Y-71791831D01*
X55279962Y-72322462D01*
X55972410Y-72609992D01*
X56722182Y-72610646D01*
X57137565Y-72439014D01*
X56966489Y-72851009D01*
X56965835Y-73600781D01*
X57252155Y-74293731D01*
X57781862Y-74824362D01*
X58474310Y-75111892D01*
X59224082Y-75112546D01*
X59917032Y-74826226D01*
X60447663Y-74296519D01*
X60735193Y-73604071D01*
X60735195Y-73600781D01*
X63669675Y-73600781D01*
X63955995Y-74293731D01*
X64485702Y-74824362D01*
X65178150Y-75111892D01*
X65927922Y-75112546D01*
X66620872Y-74826226D01*
X67151503Y-74296519D01*
X67439033Y-73604071D01*
X67439038Y-73598241D01*
X71167755Y-73598241D01*
X71454075Y-74291191D01*
X71983782Y-74821822D01*
X72676230Y-75109352D01*
X73426002Y-75110006D01*
X74118952Y-74823686D01*
X74649583Y-74293979D01*
X74937113Y-73601531D01*
X74937767Y-72851759D01*
X74651447Y-72158809D01*
X74121740Y-71628178D01*
X73429292Y-71340648D01*
X72679520Y-71339994D01*
X71986570Y-71626314D01*
X71455939Y-72156021D01*
X71168409Y-72848469D01*
X71167755Y-73598241D01*
X67439038Y-73598241D01*
X67439687Y-72854299D01*
X67268055Y-72438916D01*
X67680050Y-72609992D01*
X68429822Y-72610646D01*
X69122772Y-72324326D01*
X69653403Y-71794619D01*
X69940933Y-71102171D01*
X69940935Y-71098881D01*
X76163935Y-71098881D01*
X76450255Y-71791831D01*
X76979962Y-72322462D01*
X77672410Y-72609992D01*
X78422182Y-72610646D01*
X78837565Y-72439014D01*
X78666489Y-72851009D01*
X78665835Y-73600781D01*
X78952155Y-74293731D01*
X79481862Y-74824362D01*
X80174310Y-75111892D01*
X80924082Y-75112546D01*
X81617032Y-74826226D01*
X82147663Y-74296519D01*
X82435193Y-73604071D01*
X82435847Y-72854299D01*
X82149527Y-72161349D01*
X81619820Y-71630718D01*
X80927372Y-71343188D01*
X80177600Y-71342534D01*
X79762217Y-71514166D01*
X79933293Y-71102171D01*
X79933947Y-70352399D01*
X79647627Y-69659449D01*
X79117920Y-69128818D01*
X78425472Y-68841288D01*
X77675700Y-68840634D01*
X76982750Y-69126954D01*
X76452119Y-69656661D01*
X76164589Y-70349109D01*
X76163935Y-71098881D01*
X69940935Y-71098881D01*
X69941587Y-70352399D01*
X69655267Y-69659449D01*
X69125560Y-69128818D01*
X68433112Y-68841288D01*
X67683340Y-68840634D01*
X66990390Y-69126954D01*
X66459759Y-69656661D01*
X66172229Y-70349109D01*
X66171575Y-71098881D01*
X66343207Y-71514264D01*
X65931212Y-71343188D01*
X65181440Y-71342534D01*
X64488490Y-71628854D01*
X63957859Y-72158561D01*
X63670329Y-72851009D01*
X63669675Y-73600781D01*
X60735195Y-73600781D01*
X60735847Y-72854299D01*
X60449527Y-72161349D01*
X59919820Y-71630718D01*
X59227372Y-71343188D01*
X58477600Y-71342534D01*
X58062217Y-71514166D01*
X58233293Y-71102171D01*
X58233947Y-70352399D01*
X57947627Y-69659449D01*
X57417920Y-69128818D01*
X56725472Y-68841288D01*
X55975700Y-68840634D01*
X55282750Y-69126954D01*
X54752119Y-69656661D01*
X54464589Y-70349109D01*
X54463935Y-71098881D01*
X48240935Y-71098881D01*
X48241587Y-70352399D01*
X47955267Y-69659449D01*
X47425560Y-69128818D01*
X46733112Y-68841288D01*
X45983340Y-68840634D01*
X45290390Y-69126954D01*
X44759759Y-69656661D01*
X44472229Y-70349109D01*
X44471575Y-71098881D01*
X44643207Y-71514264D01*
X44231212Y-71343188D01*
X43481440Y-71342534D01*
X42788490Y-71628854D01*
X42257859Y-72158561D01*
X41970329Y-72851009D01*
X41969675Y-73600781D01*
X35210000Y-73600781D01*
X35210000Y-64331500D01*
X54964060Y-64331500D01*
X54964060Y-65728500D01*
X55008338Y-65963817D01*
X55147410Y-66179941D01*
X55359610Y-66324931D01*
X55611500Y-66375940D01*
X57008500Y-66375940D01*
X57243817Y-66331662D01*
X57459941Y-66192590D01*
X57604931Y-65980390D01*
X57655940Y-65728500D01*
X57655940Y-65344086D01*
X57786269Y-65344086D01*
X57988854Y-65834380D01*
X58363647Y-66209827D01*
X58853587Y-66413268D01*
X59384086Y-66413731D01*
X59874380Y-66211146D01*
X60171856Y-65914188D01*
X72945417Y-65914188D01*
X73007071Y-66149800D01*
X73507480Y-66325927D01*
X74037199Y-66297148D01*
X74392929Y-66149800D01*
X74454583Y-65914188D01*
X73700000Y-65159605D01*
X72945417Y-65914188D01*
X60171856Y-65914188D01*
X60249827Y-65836353D01*
X60453268Y-65346413D01*
X60453731Y-64815914D01*
X60441983Y-64787480D01*
X72354073Y-64787480D01*
X72382852Y-65317199D01*
X72530200Y-65672929D01*
X72765812Y-65734583D01*
X73520395Y-64980000D01*
X73879605Y-64980000D01*
X74634188Y-65734583D01*
X74869800Y-65672929D01*
X75045927Y-65172520D01*
X75024281Y-64774086D01*
X78416269Y-64774086D01*
X78618854Y-65264380D01*
X78993647Y-65639827D01*
X79483587Y-65843268D01*
X80014086Y-65843731D01*
X80504380Y-65641146D01*
X80879827Y-65266353D01*
X81083268Y-64776413D01*
X81083731Y-64245914D01*
X80881146Y-63755620D01*
X80506353Y-63380173D01*
X80082289Y-63204086D01*
X82006269Y-63204086D01*
X82208854Y-63694380D01*
X82583647Y-64069827D01*
X83073587Y-64273268D01*
X83604086Y-64273731D01*
X84094380Y-64071146D01*
X84469827Y-63696353D01*
X84673268Y-63206413D01*
X84673731Y-62675914D01*
X84471146Y-62185620D01*
X84096353Y-61810173D01*
X83606413Y-61606732D01*
X83075914Y-61606269D01*
X82585620Y-61808854D01*
X82210173Y-62183647D01*
X82006732Y-62673587D01*
X82006269Y-63204086D01*
X80082289Y-63204086D01*
X80016413Y-63176732D01*
X79485914Y-63176269D01*
X78995620Y-63378854D01*
X78620173Y-63753647D01*
X78416732Y-64243587D01*
X78416269Y-64774086D01*
X75024281Y-64774086D01*
X75017148Y-64642801D01*
X74869800Y-64287071D01*
X74634188Y-64225417D01*
X73879605Y-64980000D01*
X73520395Y-64980000D01*
X72765812Y-64225417D01*
X72530200Y-64287071D01*
X72354073Y-64787480D01*
X60441983Y-64787480D01*
X60251146Y-64325620D01*
X59971826Y-64045812D01*
X72945417Y-64045812D01*
X73700000Y-64800395D01*
X74454583Y-64045812D01*
X74392929Y-63810200D01*
X73892520Y-63634073D01*
X73362801Y-63662852D01*
X73007071Y-63810200D01*
X72945417Y-64045812D01*
X59971826Y-64045812D01*
X59876353Y-63950173D01*
X59386413Y-63746732D01*
X58855914Y-63746269D01*
X58365620Y-63948854D01*
X57990173Y-64323647D01*
X57786732Y-64813587D01*
X57786269Y-65344086D01*
X57655940Y-65344086D01*
X57655940Y-64331500D01*
X57611662Y-64096183D01*
X57472590Y-63880059D01*
X57260390Y-63735069D01*
X57008500Y-63684060D01*
X55611500Y-63684060D01*
X55376183Y-63728338D01*
X55160059Y-63867410D01*
X55015069Y-64079610D01*
X54964060Y-64331500D01*
X35210000Y-64331500D01*
X35210000Y-50150000D01*
X46402968Y-50150000D01*
X46508395Y-50680017D01*
X46808625Y-51129343D01*
X47243624Y-51420000D01*
X46808625Y-51710657D01*
X46508395Y-52159983D01*
X46402968Y-52690000D01*
X46508395Y-53220017D01*
X46808625Y-53669343D01*
X47243624Y-53960000D01*
X46808625Y-54250657D01*
X46508395Y-54699983D01*
X46402968Y-55230000D01*
X46508395Y-55760017D01*
X46808625Y-56209343D01*
X47243624Y-56500000D01*
X46808625Y-56790657D01*
X46508395Y-57239983D01*
X46402968Y-57770000D01*
X46508395Y-58300017D01*
X46808625Y-58749343D01*
X47243624Y-59040000D01*
X46808625Y-59330657D01*
X46508395Y-59779983D01*
X46402968Y-60310000D01*
X46508395Y-60840017D01*
X46808625Y-61289343D01*
X47257951Y-61589573D01*
X47787968Y-61695000D01*
X48352032Y-61695000D01*
X48882049Y-61589573D01*
X49331375Y-61289343D01*
X49475000Y-61074393D01*
X49475000Y-61186309D01*
X49571673Y-61419698D01*
X49750301Y-61598327D01*
X49983690Y-61695000D01*
X50824250Y-61695000D01*
X50983000Y-61536250D01*
X50983000Y-60437000D01*
X51237000Y-60437000D01*
X51237000Y-61536250D01*
X51395750Y-61695000D01*
X52236310Y-61695000D01*
X52469699Y-61598327D01*
X52648327Y-61419698D01*
X52745000Y-61186309D01*
X52745000Y-60595750D01*
X52586250Y-60437000D01*
X51237000Y-60437000D01*
X50983000Y-60437000D01*
X50963000Y-60437000D01*
X50963000Y-60183000D01*
X50983000Y-60183000D01*
X50983000Y-60163000D01*
X51237000Y-60163000D01*
X51237000Y-60183000D01*
X52586250Y-60183000D01*
X52745000Y-60024250D01*
X52745000Y-59433691D01*
X52648327Y-59200302D01*
X52469699Y-59021673D01*
X52236310Y-58925000D01*
X52108486Y-58925000D01*
X52371375Y-58749343D01*
X52671605Y-58300017D01*
X52777032Y-57770000D01*
X52757954Y-57674086D01*
X54976269Y-57674086D01*
X55178854Y-58164380D01*
X55553647Y-58539827D01*
X56043587Y-58743268D01*
X56574086Y-58743731D01*
X57064380Y-58541146D01*
X57439827Y-58166353D01*
X57623472Y-57724086D01*
X57786269Y-57724086D01*
X57988854Y-58214380D01*
X58363647Y-58589827D01*
X58853587Y-58793268D01*
X59384086Y-58793731D01*
X59874380Y-58591146D01*
X60249827Y-58216353D01*
X60453268Y-57726413D01*
X60453731Y-57195914D01*
X60251146Y-56705620D01*
X59876353Y-56330173D01*
X59386413Y-56126732D01*
X58855914Y-56126269D01*
X58365620Y-56328854D01*
X57990173Y-56703647D01*
X57786732Y-57193587D01*
X57786269Y-57724086D01*
X57623472Y-57724086D01*
X57643268Y-57676413D01*
X57643731Y-57145914D01*
X57441146Y-56655620D01*
X57066353Y-56280173D01*
X56576413Y-56076732D01*
X56045914Y-56076269D01*
X55555620Y-56278854D01*
X55180173Y-56653647D01*
X54976732Y-57143587D01*
X54976269Y-57674086D01*
X52757954Y-57674086D01*
X52671605Y-57239983D01*
X52371375Y-56790657D01*
X51936376Y-56500000D01*
X52371375Y-56209343D01*
X52671605Y-55760017D01*
X52777032Y-55230000D01*
X52681555Y-54750000D01*
X60746887Y-54750000D01*
X60856120Y-55299151D01*
X61167189Y-55764698D01*
X61549275Y-56020000D01*
X61167189Y-56275302D01*
X60856120Y-56740849D01*
X60746887Y-57290000D01*
X60856120Y-57839151D01*
X61167189Y-58304698D01*
X61549275Y-58560000D01*
X61167189Y-58815302D01*
X60856120Y-59280849D01*
X60746887Y-59830000D01*
X60856120Y-60379151D01*
X61167189Y-60844698D01*
X61549275Y-61100000D01*
X61167189Y-61355302D01*
X60856120Y-61820849D01*
X60746887Y-62370000D01*
X60856120Y-62919151D01*
X61167189Y-63384698D01*
X61632736Y-63695767D01*
X62181887Y-63805000D01*
X62238113Y-63805000D01*
X62787264Y-63695767D01*
X63252811Y-63384698D01*
X63563880Y-62919151D01*
X63603684Y-62719039D01*
X68438096Y-62719039D01*
X68598959Y-63107423D01*
X68974866Y-63522389D01*
X69480959Y-63761914D01*
X69703000Y-63640629D01*
X69703000Y-62497000D01*
X69957000Y-62497000D01*
X69957000Y-63640629D01*
X70179041Y-63761914D01*
X70685134Y-63522389D01*
X71061041Y-63107423D01*
X71221904Y-62719039D01*
X71099915Y-62497000D01*
X69957000Y-62497000D01*
X69703000Y-62497000D01*
X68560085Y-62497000D01*
X68438096Y-62719039D01*
X63603684Y-62719039D01*
X63673113Y-62370000D01*
X63563880Y-61820849D01*
X63252811Y-61355302D01*
X62870725Y-61100000D01*
X63252811Y-60844698D01*
X63563880Y-60379151D01*
X63673113Y-59830000D01*
X63563880Y-59280849D01*
X63252811Y-58815302D01*
X62870725Y-58560000D01*
X63252811Y-58304698D01*
X63563880Y-57839151D01*
X63673113Y-57290000D01*
X63563880Y-56740849D01*
X63252811Y-56275302D01*
X62870725Y-56020000D01*
X63252811Y-55764698D01*
X63563880Y-55299151D01*
X63673113Y-54750000D01*
X68366887Y-54750000D01*
X68476120Y-55299151D01*
X68787189Y-55764698D01*
X69169275Y-56020000D01*
X68787189Y-56275302D01*
X68476120Y-56740849D01*
X68366887Y-57290000D01*
X68476120Y-57839151D01*
X68787189Y-58304698D01*
X69169275Y-58560000D01*
X68787189Y-58815302D01*
X68476120Y-59280849D01*
X68366887Y-59830000D01*
X68476120Y-60379151D01*
X68787189Y-60844698D01*
X69191703Y-61114986D01*
X68974866Y-61217611D01*
X68598959Y-61632577D01*
X68438096Y-62020961D01*
X68560085Y-62243000D01*
X69703000Y-62243000D01*
X69703000Y-62223000D01*
X69957000Y-62223000D01*
X69957000Y-62243000D01*
X71099915Y-62243000D01*
X71221904Y-62020961D01*
X71061041Y-61632577D01*
X70691000Y-61224086D01*
X75736269Y-61224086D01*
X75938854Y-61714380D01*
X76313647Y-62089827D01*
X76803587Y-62293268D01*
X77334086Y-62293731D01*
X77824380Y-62091146D01*
X78199827Y-61716353D01*
X78403268Y-61226413D01*
X78403731Y-60695914D01*
X78201146Y-60205620D01*
X77826353Y-59830173D01*
X77336413Y-59626732D01*
X76805914Y-59626269D01*
X76315620Y-59828854D01*
X75940173Y-60203647D01*
X75736732Y-60693587D01*
X75736269Y-61224086D01*
X70691000Y-61224086D01*
X70685134Y-61217611D01*
X70468297Y-61114986D01*
X70872811Y-60844698D01*
X71183880Y-60379151D01*
X71293113Y-59830000D01*
X71183880Y-59280849D01*
X70872811Y-58815302D01*
X70490725Y-58560000D01*
X70872811Y-58304698D01*
X71183880Y-57839151D01*
X71226659Y-57624086D01*
X72366269Y-57624086D01*
X72568854Y-58114380D01*
X72943647Y-58489827D01*
X73433587Y-58693268D01*
X73964086Y-58693731D01*
X74454380Y-58491146D01*
X74829827Y-58116353D01*
X75033268Y-57626413D01*
X75033680Y-57154086D01*
X78416269Y-57154086D01*
X78618854Y-57644380D01*
X78993647Y-58019827D01*
X79483587Y-58223268D01*
X80014086Y-58223731D01*
X80504380Y-58021146D01*
X80879827Y-57646353D01*
X81005339Y-57344086D01*
X85096269Y-57344086D01*
X85298854Y-57834380D01*
X85673647Y-58209827D01*
X86163587Y-58413268D01*
X86694086Y-58413731D01*
X87184380Y-58211146D01*
X87559827Y-57836353D01*
X87647968Y-57624086D01*
X88136269Y-57624086D01*
X88338854Y-58114380D01*
X88713647Y-58489827D01*
X89203587Y-58693268D01*
X89734086Y-58693731D01*
X90224380Y-58491146D01*
X90599827Y-58116353D01*
X90803268Y-57626413D01*
X90803731Y-57095914D01*
X90601146Y-56605620D01*
X90226353Y-56230173D01*
X89736413Y-56026732D01*
X89205914Y-56026269D01*
X88715620Y-56228854D01*
X88340173Y-56603647D01*
X88136732Y-57093587D01*
X88136269Y-57624086D01*
X87647968Y-57624086D01*
X87763268Y-57346413D01*
X87763731Y-56815914D01*
X87561146Y-56325620D01*
X87186353Y-55950173D01*
X86696413Y-55746732D01*
X86165914Y-55746269D01*
X85675620Y-55948854D01*
X85300173Y-56323647D01*
X85096732Y-56813587D01*
X85096269Y-57344086D01*
X81005339Y-57344086D01*
X81083268Y-57156413D01*
X81083731Y-56625914D01*
X80881146Y-56135620D01*
X80506353Y-55760173D01*
X80082289Y-55584086D01*
X82006269Y-55584086D01*
X82208854Y-56074380D01*
X82583647Y-56449827D01*
X83073587Y-56653268D01*
X83604086Y-56653731D01*
X84094380Y-56451146D01*
X84469827Y-56076353D01*
X84673268Y-55586413D01*
X84673731Y-55055914D01*
X84514275Y-54670000D01*
X91266887Y-54670000D01*
X91376120Y-55219151D01*
X91687189Y-55684698D01*
X92069275Y-55940000D01*
X91687189Y-56195302D01*
X91376120Y-56660849D01*
X91266887Y-57210000D01*
X91376120Y-57759151D01*
X91687189Y-58224698D01*
X92069275Y-58480000D01*
X91687189Y-58735302D01*
X91376120Y-59200849D01*
X91266887Y-59750000D01*
X91376120Y-60299151D01*
X91687189Y-60764698D01*
X92069275Y-61020000D01*
X91687189Y-61275302D01*
X91376120Y-61740849D01*
X91266887Y-62290000D01*
X91376120Y-62839151D01*
X91687189Y-63304698D01*
X92152736Y-63615767D01*
X92701887Y-63725000D01*
X92758113Y-63725000D01*
X93307264Y-63615767D01*
X93772811Y-63304698D01*
X94083880Y-62839151D01*
X94123684Y-62639039D01*
X98958096Y-62639039D01*
X99118959Y-63027423D01*
X99494866Y-63442389D01*
X100000959Y-63681914D01*
X100223000Y-63560629D01*
X100223000Y-62417000D01*
X100477000Y-62417000D01*
X100477000Y-63560629D01*
X100699041Y-63681914D01*
X101205134Y-63442389D01*
X101581041Y-63027423D01*
X101741904Y-62639039D01*
X101619915Y-62417000D01*
X100477000Y-62417000D01*
X100223000Y-62417000D01*
X99080085Y-62417000D01*
X98958096Y-62639039D01*
X94123684Y-62639039D01*
X94193113Y-62290000D01*
X94083880Y-61740849D01*
X93772811Y-61275302D01*
X93390725Y-61020000D01*
X93772811Y-60764698D01*
X94083880Y-60299151D01*
X94193113Y-59750000D01*
X94083880Y-59200849D01*
X93772811Y-58735302D01*
X93390725Y-58480000D01*
X93772811Y-58224698D01*
X94083880Y-57759151D01*
X94193113Y-57210000D01*
X94083880Y-56660849D01*
X93772811Y-56195302D01*
X93390725Y-55940000D01*
X93772811Y-55684698D01*
X94083880Y-55219151D01*
X94193113Y-54670000D01*
X98886887Y-54670000D01*
X98996120Y-55219151D01*
X99307189Y-55684698D01*
X99689275Y-55940000D01*
X99307189Y-56195302D01*
X98996120Y-56660849D01*
X98886887Y-57210000D01*
X98996120Y-57759151D01*
X99307189Y-58224698D01*
X99689275Y-58480000D01*
X99307189Y-58735302D01*
X98996120Y-59200849D01*
X98886887Y-59750000D01*
X98996120Y-60299151D01*
X99307189Y-60764698D01*
X99711703Y-61034986D01*
X99494866Y-61137611D01*
X99118959Y-61552577D01*
X98958096Y-61940961D01*
X99080085Y-62163000D01*
X100223000Y-62163000D01*
X100223000Y-62143000D01*
X100477000Y-62143000D01*
X100477000Y-62163000D01*
X101619915Y-62163000D01*
X101741904Y-61940961D01*
X101581041Y-61552577D01*
X101205134Y-61137611D01*
X100988297Y-61034986D01*
X101392811Y-60764698D01*
X101703880Y-60299151D01*
X101813113Y-59750000D01*
X101703880Y-59200849D01*
X101392811Y-58735302D01*
X101010725Y-58480000D01*
X101392811Y-58224698D01*
X101703880Y-57759151D01*
X101774506Y-57404086D01*
X102136269Y-57404086D01*
X102338854Y-57894380D01*
X102713647Y-58269827D01*
X103203587Y-58473268D01*
X103734086Y-58473731D01*
X104224380Y-58271146D01*
X104599827Y-57896353D01*
X104803268Y-57406413D01*
X104803584Y-57044086D01*
X105456269Y-57044086D01*
X105658854Y-57534380D01*
X106033647Y-57909827D01*
X106523587Y-58113268D01*
X107054086Y-58113731D01*
X107544380Y-57911146D01*
X107919827Y-57536353D01*
X108074405Y-57164086D01*
X109316269Y-57164086D01*
X109518854Y-57654380D01*
X109893647Y-58029827D01*
X110383587Y-58233268D01*
X110914086Y-58233731D01*
X111404380Y-58031146D01*
X111779827Y-57656353D01*
X111983268Y-57166413D01*
X111983731Y-56635914D01*
X111781146Y-56145620D01*
X111406353Y-55770173D01*
X110916413Y-55566732D01*
X110385914Y-55566269D01*
X109895620Y-55768854D01*
X109520173Y-56143647D01*
X109316732Y-56633587D01*
X109316269Y-57164086D01*
X108074405Y-57164086D01*
X108123268Y-57046413D01*
X108123731Y-56515914D01*
X107921146Y-56025620D01*
X107546353Y-55650173D01*
X107056413Y-55446732D01*
X106525914Y-55446269D01*
X106035620Y-55648854D01*
X105660173Y-56023647D01*
X105456732Y-56513587D01*
X105456269Y-57044086D01*
X104803584Y-57044086D01*
X104803731Y-56875914D01*
X104601146Y-56385620D01*
X104226353Y-56010173D01*
X103736413Y-55806732D01*
X103205914Y-55806269D01*
X102715620Y-56008854D01*
X102340173Y-56383647D01*
X102136732Y-56873587D01*
X102136269Y-57404086D01*
X101774506Y-57404086D01*
X101813113Y-57210000D01*
X101703880Y-56660849D01*
X101392811Y-56195302D01*
X101010725Y-55940000D01*
X101392811Y-55684698D01*
X101703880Y-55219151D01*
X101813113Y-54670000D01*
X101703880Y-54120849D01*
X101392811Y-53655302D01*
X100927264Y-53344233D01*
X100378113Y-53235000D01*
X100321887Y-53235000D01*
X99772736Y-53344233D01*
X99307189Y-53655302D01*
X98996120Y-54120849D01*
X98886887Y-54670000D01*
X94193113Y-54670000D01*
X94083880Y-54120849D01*
X93772811Y-53655302D01*
X93307264Y-53344233D01*
X92758113Y-53235000D01*
X92701887Y-53235000D01*
X92152736Y-53344233D01*
X91687189Y-53655302D01*
X91376120Y-54120849D01*
X91266887Y-54670000D01*
X84514275Y-54670000D01*
X84471146Y-54565620D01*
X84096353Y-54190173D01*
X83606413Y-53986732D01*
X83075914Y-53986269D01*
X82585620Y-54188854D01*
X82210173Y-54563647D01*
X82006732Y-55053587D01*
X82006269Y-55584086D01*
X80082289Y-55584086D01*
X80016413Y-55556732D01*
X79485914Y-55556269D01*
X78995620Y-55758854D01*
X78620173Y-56133647D01*
X78416732Y-56623587D01*
X78416269Y-57154086D01*
X75033680Y-57154086D01*
X75033731Y-57095914D01*
X74831146Y-56605620D01*
X74456353Y-56230173D01*
X73966413Y-56026732D01*
X73435914Y-56026269D01*
X72945620Y-56228854D01*
X72570173Y-56603647D01*
X72366732Y-57093587D01*
X72366269Y-57624086D01*
X71226659Y-57624086D01*
X71293113Y-57290000D01*
X71183880Y-56740849D01*
X70872811Y-56275302D01*
X70490725Y-56020000D01*
X70872811Y-55764698D01*
X71183880Y-55299151D01*
X71293113Y-54750000D01*
X71230538Y-54435417D01*
X71710690Y-54634793D01*
X72281568Y-54635291D01*
X72352985Y-54605782D01*
X72352950Y-54645666D01*
X72570955Y-55173279D01*
X72974275Y-55577303D01*
X73501507Y-55796229D01*
X74072385Y-55796727D01*
X74599998Y-55578722D01*
X75004022Y-55175402D01*
X75222948Y-54648170D01*
X75223446Y-54077292D01*
X75027922Y-53604086D01*
X75736269Y-53604086D01*
X75938854Y-54094380D01*
X76313647Y-54469827D01*
X76803587Y-54673268D01*
X77334086Y-54673731D01*
X77824380Y-54471146D01*
X78199827Y-54096353D01*
X78403268Y-53606413D01*
X78403731Y-53075914D01*
X78201146Y-52585620D01*
X77826353Y-52210173D01*
X77336413Y-52006732D01*
X76805914Y-52006269D01*
X76315620Y-52208854D01*
X75940173Y-52583647D01*
X75736732Y-53073587D01*
X75736269Y-53604086D01*
X75027922Y-53604086D01*
X75005441Y-53549679D01*
X74673198Y-53216856D01*
X74673198Y-51844239D01*
X109269992Y-51844239D01*
X109487997Y-52371852D01*
X109891317Y-52775876D01*
X110418549Y-52994802D01*
X110989427Y-52995300D01*
X111517040Y-52777295D01*
X111921064Y-52373975D01*
X112139990Y-51846743D01*
X112140488Y-51275865D01*
X111922483Y-50748252D01*
X111725000Y-50550424D01*
X111725000Y-49790000D01*
X114422968Y-49790000D01*
X114528395Y-50320017D01*
X114828625Y-50769343D01*
X115263624Y-51060000D01*
X114828625Y-51350657D01*
X114528395Y-51799983D01*
X114422968Y-52330000D01*
X114528395Y-52860017D01*
X114828625Y-53309343D01*
X115263624Y-53600000D01*
X114828625Y-53890657D01*
X114528395Y-54339983D01*
X114422968Y-54870000D01*
X114528395Y-55400017D01*
X114828625Y-55849343D01*
X115263624Y-56140000D01*
X114828625Y-56430657D01*
X114528395Y-56879983D01*
X114422968Y-57410000D01*
X114528395Y-57940017D01*
X114828625Y-58389343D01*
X115263624Y-58680000D01*
X114828625Y-58970657D01*
X114528395Y-59419983D01*
X114422968Y-59950000D01*
X114528395Y-60480017D01*
X114828625Y-60929343D01*
X115277951Y-61229573D01*
X115807968Y-61335000D01*
X116372032Y-61335000D01*
X116902049Y-61229573D01*
X117351375Y-60929343D01*
X117495000Y-60714393D01*
X117495000Y-60826309D01*
X117591673Y-61059698D01*
X117770301Y-61238327D01*
X118003690Y-61335000D01*
X118844250Y-61335000D01*
X119003000Y-61176250D01*
X119003000Y-60077000D01*
X119257000Y-60077000D01*
X119257000Y-61176250D01*
X119415750Y-61335000D01*
X120256310Y-61335000D01*
X120489699Y-61238327D01*
X120668327Y-61059698D01*
X120765000Y-60826309D01*
X120765000Y-60235750D01*
X120606250Y-60077000D01*
X119257000Y-60077000D01*
X119003000Y-60077000D01*
X118983000Y-60077000D01*
X118983000Y-59823000D01*
X119003000Y-59823000D01*
X119003000Y-59803000D01*
X119257000Y-59803000D01*
X119257000Y-59823000D01*
X120606250Y-59823000D01*
X120765000Y-59664250D01*
X120765000Y-59073691D01*
X120668327Y-58840302D01*
X120489699Y-58661673D01*
X120256310Y-58565000D01*
X120128486Y-58565000D01*
X120391375Y-58389343D01*
X120691605Y-57940017D01*
X120797032Y-57410000D01*
X120691605Y-56879983D01*
X120391375Y-56430657D01*
X119956376Y-56140000D01*
X120391375Y-55849343D01*
X120691605Y-55400017D01*
X120797032Y-54870000D01*
X120691605Y-54339983D01*
X120391375Y-53890657D01*
X119956376Y-53600000D01*
X120391375Y-53309343D01*
X120691605Y-52860017D01*
X120797032Y-52330000D01*
X120691605Y-51799983D01*
X120391375Y-51350657D01*
X119956376Y-51060000D01*
X120391375Y-50769343D01*
X120691605Y-50320017D01*
X120797032Y-49790000D01*
X120691605Y-49259983D01*
X120391375Y-48810657D01*
X119942049Y-48510427D01*
X119412032Y-48405000D01*
X118847968Y-48405000D01*
X118317951Y-48510427D01*
X117868625Y-48810657D01*
X117610000Y-49197717D01*
X117351375Y-48810657D01*
X116902049Y-48510427D01*
X116372032Y-48405000D01*
X115807968Y-48405000D01*
X115277951Y-48510427D01*
X114828625Y-48810657D01*
X114528395Y-49259983D01*
X114422968Y-49790000D01*
X111725000Y-49790000D01*
X111725000Y-47652619D01*
X124714613Y-47652619D01*
X125054155Y-48474372D01*
X125682321Y-49103636D01*
X126503481Y-49444611D01*
X127392619Y-49445387D01*
X128214372Y-49105845D01*
X128843636Y-48477679D01*
X129184611Y-47656519D01*
X129185387Y-46767381D01*
X128845845Y-45945628D01*
X128217679Y-45316364D01*
X127396519Y-44975389D01*
X126507381Y-44974613D01*
X125685628Y-45314155D01*
X125056364Y-45942321D01*
X124715389Y-46763481D01*
X124714613Y-47652619D01*
X111725000Y-47652619D01*
X111725000Y-46664140D01*
X112055824Y-46333892D01*
X112274750Y-45806660D01*
X112275248Y-45235782D01*
X112057243Y-44708169D01*
X111653923Y-44304145D01*
X111126691Y-44085219D01*
X110555813Y-44084721D01*
X110028200Y-44302726D01*
X109624176Y-44706046D01*
X109405250Y-45233278D01*
X109404752Y-45804156D01*
X109622757Y-46331769D01*
X109955000Y-46664592D01*
X109955000Y-50317373D01*
X109893440Y-50342809D01*
X109489416Y-50746129D01*
X109270490Y-51273361D01*
X109269992Y-51844239D01*
X74673198Y-51844239D01*
X74673198Y-49424086D01*
X105456269Y-49424086D01*
X105658854Y-49914380D01*
X106033647Y-50289827D01*
X106523587Y-50493268D01*
X107054086Y-50493731D01*
X107544380Y-50291146D01*
X107919827Y-49916353D01*
X108123268Y-49426413D01*
X108123731Y-48895914D01*
X107921146Y-48405620D01*
X107546353Y-48030173D01*
X107056413Y-47826732D01*
X106525914Y-47826269D01*
X106035620Y-48028854D01*
X105660173Y-48403647D01*
X105456732Y-48893587D01*
X105456269Y-49424086D01*
X74673198Y-49424086D01*
X74673198Y-48005847D01*
X75075824Y-47603923D01*
X75294750Y-47076691D01*
X75295248Y-46505813D01*
X75077243Y-45978200D01*
X74673923Y-45574176D01*
X74146691Y-45355250D01*
X73575813Y-45354752D01*
X73285005Y-45474911D01*
X73285248Y-45195813D01*
X73067243Y-44668200D01*
X72663923Y-44264176D01*
X72136691Y-44045250D01*
X71565813Y-44044752D01*
X71038200Y-44262757D01*
X70634176Y-44666077D01*
X70415250Y-45193309D01*
X70414752Y-45764187D01*
X70632757Y-46291800D01*
X70965855Y-46625479D01*
X70970016Y-52197989D01*
X70781557Y-52386120D01*
X70562631Y-52913352D01*
X70562133Y-53484230D01*
X70586952Y-53544297D01*
X70407264Y-53424233D01*
X69858113Y-53315000D01*
X69801887Y-53315000D01*
X69252736Y-53424233D01*
X68787189Y-53735302D01*
X68476120Y-54200849D01*
X68366887Y-54750000D01*
X63673113Y-54750000D01*
X63563880Y-54200849D01*
X63252811Y-53735302D01*
X62787264Y-53424233D01*
X62238113Y-53315000D01*
X62181887Y-53315000D01*
X61632736Y-53424233D01*
X61167189Y-53735302D01*
X60856120Y-54200849D01*
X60746887Y-54750000D01*
X52681555Y-54750000D01*
X52671605Y-54699983D01*
X52371375Y-54250657D01*
X51936376Y-53960000D01*
X52371375Y-53669343D01*
X52671605Y-53220017D01*
X52708287Y-53035604D01*
X54822624Y-53035604D01*
X55040629Y-53563217D01*
X55443949Y-53967241D01*
X55971181Y-54186167D01*
X56542059Y-54186665D01*
X57069672Y-53968660D01*
X57473696Y-53565340D01*
X57692622Y-53038108D01*
X57693120Y-52467230D01*
X57475115Y-51939617D01*
X57399803Y-51864174D01*
X57399803Y-48244141D01*
X57730627Y-47913893D01*
X57949553Y-47386661D01*
X57950051Y-46815783D01*
X57732046Y-46288170D01*
X57328726Y-45884146D01*
X56801494Y-45665220D01*
X56230616Y-45664722D01*
X55703003Y-45882727D01*
X55298979Y-46286047D01*
X55080053Y-46813279D01*
X55079555Y-47384157D01*
X55297560Y-47911770D01*
X55629803Y-48244593D01*
X55629803Y-51458258D01*
X55446072Y-51534174D01*
X55042048Y-51937494D01*
X54823122Y-52464726D01*
X54822624Y-53035604D01*
X52708287Y-53035604D01*
X52777032Y-52690000D01*
X52671605Y-52159983D01*
X52371375Y-51710657D01*
X51936376Y-51420000D01*
X52371375Y-51129343D01*
X52671605Y-50680017D01*
X52777032Y-50150000D01*
X52671605Y-49619983D01*
X52371375Y-49170657D01*
X51922049Y-48870427D01*
X51392032Y-48765000D01*
X50827968Y-48765000D01*
X50297951Y-48870427D01*
X49848625Y-49170657D01*
X49590000Y-49557717D01*
X49331375Y-49170657D01*
X48882049Y-48870427D01*
X48352032Y-48765000D01*
X47787968Y-48765000D01*
X47257951Y-48870427D01*
X46808625Y-49170657D01*
X46508395Y-49619983D01*
X46402968Y-50150000D01*
X35210000Y-50150000D01*
X35210000Y-47802619D01*
X36574613Y-47802619D01*
X36914155Y-48624372D01*
X37542321Y-49253636D01*
X38363481Y-49594611D01*
X39252619Y-49595387D01*
X40074372Y-49255845D01*
X40703636Y-48627679D01*
X41044611Y-47806519D01*
X41045387Y-46917381D01*
X40705845Y-46095628D01*
X40077679Y-45466364D01*
X39256519Y-45125389D01*
X38367381Y-45124613D01*
X37545628Y-45464155D01*
X36916364Y-46092321D01*
X36575389Y-46913481D01*
X36574613Y-47802619D01*
X35210000Y-47802619D01*
X35210000Y-43210000D01*
X130790000Y-43210000D01*
X130790000Y-84290000D01*
M02*
