M48
;DRILL file {KiCad 4.0.2-stable} date 17/08/2016 20:59:24
;FORMAT={-:-/ absolute / metric / decimal}
FMAT,2
METRIC,TZ
T1C0.800
T2C0.813
T3C1.000
T4C1.397
%
G90
G05
M71
T1
X56.258Y-52.751
X56.515Y-47.1
X62.21Y-54.75
X62.21Y-57.29
X62.21Y-59.83
X62.21Y-62.37
X62.43Y-68.74
X62.513Y-78.403
X69.83Y-54.75
X69.83Y-57.29
X69.83Y-59.83
X69.83Y-62.37
X71.85Y-45.48
X71.997Y-53.2
X73.788Y-54.361
X73.86Y-46.79
X83.76Y-80.15
X84.26Y-66.13
X92.73Y-54.67
X92.73Y-57.21
X92.73Y-59.75
X92.73Y-62.29
X100.35Y-54.67
X100.35Y-57.21
X100.35Y-59.75
X100.35Y-62.29
X105.Y-76.68
X105.03Y-67.75
X110.705Y-51.56
X110.84Y-45.52
T2
X56.31Y-57.41
X56.31Y-65.03
X59.12Y-57.46
X59.12Y-65.08
X73.7Y-57.36
X73.7Y-64.98
X77.07Y-53.34
X77.07Y-60.96
X79.75Y-56.89
X79.75Y-64.51
X83.34Y-55.32
X83.34Y-62.94
X86.43Y-57.08
X86.43Y-64.7
X89.47Y-57.36
X89.47Y-64.98
X103.47Y-57.14
X103.47Y-64.76
X106.79Y-49.16
X106.79Y-56.78
X110.65Y-56.9
X110.65Y-64.52
X126.21Y-69.54
X126.21Y-77.16
T3
X48.32Y-50.15
X48.32Y-52.69
X48.32Y-55.23
X48.32Y-57.77
X48.32Y-60.31
X50.86Y-50.15
X50.86Y-52.69
X50.86Y-55.23
X50.86Y-57.77
X50.86Y-60.31
X116.34Y-49.79
X116.34Y-52.33
X116.34Y-54.87
X116.34Y-57.41
X116.34Y-59.95
X118.88Y-49.79
X118.88Y-52.33
X118.88Y-54.87
X118.88Y-57.41
X118.88Y-59.95
T4
X43.855Y-73.228
X46.357Y-70.726
X51.353Y-73.225
X56.349Y-70.726
X58.851Y-73.228
X65.555Y-73.228
X68.057Y-70.726
X73.053Y-73.225
X78.049Y-70.726
X80.551Y-73.228
X87.113Y-73.235
X89.615Y-70.733
X94.611Y-73.233
X99.607Y-70.733
X102.109Y-73.235
X108.513Y-73.225
X111.015Y-70.723
X116.011Y-73.223
X121.007Y-70.723
X123.509Y-73.225
T0
M30
