%TF.GenerationSoftware,KiCad,Pcbnew,(7.0.0)*%
%TF.CreationDate,2023-06-04T12:20:11+02:00*%
%TF.ProjectId,DIN4_R5_KS,44494e34-5f52-4355-9f4b-532e6b696361,rev?*%
%TF.SameCoordinates,Original*%
%TF.FileFunction,Drillmap*%
%TF.FilePolarity,Positive*%
%FSLAX45Y45*%
G04 Gerber Fmt 4.5, Leading zero omitted, Abs format (unit mm)*
G04 Created by KiCad (PCBNEW (7.0.0)) date 2023-06-04 12:20:11*
%MOMM*%
%LPD*%
G01*
G04 APERTURE LIST*
%ADD10C,0.100000*%
%ADD11C,0.200000*%
%ADD12C,0.040000*%
%ADD13C,0.070000*%
%ADD14C,0.080000*%
G04 APERTURE END LIST*
D10*
X14000000Y-14000000D02*
X4000000Y-14000000D01*
X4000000Y-9000000D01*
X14000000Y-9000000D01*
X14000000Y-14000000D01*
D11*
D12*
X5930670Y-11434640D02*
X5970670Y-11474640D01*
X5970670Y-11434640D02*
X5930670Y-11474640D01*
X5977490Y-11863750D02*
X6017490Y-11903750D01*
X6017490Y-11863750D02*
X5977490Y-11903750D01*
X6530000Y-12080000D02*
X6570000Y-12120000D01*
X6570000Y-12080000D02*
X6530000Y-12120000D01*
X8630000Y-12080000D02*
X8670000Y-12120000D01*
X8670000Y-12080000D02*
X8630000Y-12120000D01*
X10780000Y-12080000D02*
X10820000Y-12120000D01*
X10820000Y-12080000D02*
X10780000Y-12120000D01*
X12330200Y-12154690D02*
X12370200Y-12194690D01*
X12370200Y-12154690D02*
X12330200Y-12194690D01*
X12900000Y-12080000D02*
X12940000Y-12120000D01*
X12940000Y-12080000D02*
X12900000Y-12120000D01*
D13*
X5275000Y-13032000D02*
G75*
G03*
X5275000Y-13032000I-35000J0D01*
G01*
X5275000Y-13794000D02*
G75*
G03*
X5275000Y-13794000I-35000J0D01*
G01*
X5505000Y-13034000D02*
G75*
G03*
X5505000Y-13034000I-35000J0D01*
G01*
X5505000Y-13796000D02*
G75*
G03*
X5505000Y-13796000I-35000J0D01*
G01*
X5515000Y-9207000D02*
G75*
G03*
X5515000Y-9207000I-35000J0D01*
G01*
X5515000Y-9969000D02*
G75*
G03*
X5515000Y-9969000I-35000J0D01*
G01*
X5755000Y-13032000D02*
G75*
G03*
X5755000Y-13032000I-35000J0D01*
G01*
X5755000Y-13794000D02*
G75*
G03*
X5755000Y-13794000I-35000J0D01*
G01*
X5765000Y-9207000D02*
G75*
G03*
X5765000Y-9207000I-35000J0D01*
G01*
X5765000Y-9969000D02*
G75*
G03*
X5765000Y-9969000I-35000J0D01*
G01*
X5995000Y-13032000D02*
G75*
G03*
X5995000Y-13032000I-35000J0D01*
G01*
X5995000Y-13794000D02*
G75*
G03*
X5995000Y-13794000I-35000J0D01*
G01*
X6015000Y-9208000D02*
G75*
G03*
X6015000Y-9208000I-35000J0D01*
G01*
X6015000Y-9970000D02*
G75*
G03*
X6015000Y-9970000I-35000J0D01*
G01*
X6235000Y-13033000D02*
G75*
G03*
X6235000Y-13033000I-35000J0D01*
G01*
X6235000Y-13795000D02*
G75*
G03*
X6235000Y-13795000I-35000J0D01*
G01*
X6275000Y-9208000D02*
G75*
G03*
X6275000Y-9208000I-35000J0D01*
G01*
X6275000Y-9970000D02*
G75*
G03*
X6275000Y-9970000I-35000J0D01*
G01*
X7475000Y-13021000D02*
G75*
G03*
X7475000Y-13021000I-35000J0D01*
G01*
X7475000Y-13783000D02*
G75*
G03*
X7475000Y-13783000I-35000J0D01*
G01*
X7585000Y-9209000D02*
G75*
G03*
X7585000Y-9209000I-35000J0D01*
G01*
X7585000Y-9971000D02*
G75*
G03*
X7585000Y-9971000I-35000J0D01*
G01*
X7705000Y-13020000D02*
G75*
G03*
X7705000Y-13020000I-35000J0D01*
G01*
X7705000Y-13782000D02*
G75*
G03*
X7705000Y-13782000I-35000J0D01*
G01*
X7845000Y-9209000D02*
G75*
G03*
X7845000Y-9209000I-35000J0D01*
G01*
X7845000Y-9971000D02*
G75*
G03*
X7845000Y-9971000I-35000J0D01*
G01*
X7935000Y-13020000D02*
G75*
G03*
X7935000Y-13020000I-35000J0D01*
G01*
X7935000Y-13782000D02*
G75*
G03*
X7935000Y-13782000I-35000J0D01*
G01*
X8105000Y-9209000D02*
G75*
G03*
X8105000Y-9209000I-35000J0D01*
G01*
X8105000Y-9971000D02*
G75*
G03*
X8105000Y-9971000I-35000J0D01*
G01*
X8165000Y-13021000D02*
G75*
G03*
X8165000Y-13021000I-35000J0D01*
G01*
X8165000Y-13783000D02*
G75*
G03*
X8165000Y-13783000I-35000J0D01*
G01*
X8355000Y-9210000D02*
G75*
G03*
X8355000Y-9210000I-35000J0D01*
G01*
X8355000Y-9972000D02*
G75*
G03*
X8355000Y-9972000I-35000J0D01*
G01*
X8395000Y-13020000D02*
G75*
G03*
X8395000Y-13020000I-35000J0D01*
G01*
X8395000Y-13782000D02*
G75*
G03*
X8395000Y-13782000I-35000J0D01*
G01*
X9492000Y-13030000D02*
G75*
G03*
X9492000Y-13030000I-35000J0D01*
G01*
X9492000Y-13792000D02*
G75*
G03*
X9492000Y-13792000I-35000J0D01*
G01*
X9743000Y-13030000D02*
G75*
G03*
X9743000Y-13030000I-35000J0D01*
G01*
X9743000Y-13792000D02*
G75*
G03*
X9743000Y-13792000I-35000J0D01*
G01*
X9776000Y-9198000D02*
G75*
G03*
X9776000Y-9198000I-35000J0D01*
G01*
X9776000Y-9960000D02*
G75*
G03*
X9776000Y-9960000I-35000J0D01*
G01*
X9994000Y-13030000D02*
G75*
G03*
X9994000Y-13030000I-35000J0D01*
G01*
X9994000Y-13792000D02*
G75*
G03*
X9994000Y-13792000I-35000J0D01*
G01*
X10026000Y-9207000D02*
G75*
G03*
X10026000Y-9207000I-35000J0D01*
G01*
X10026000Y-9969000D02*
G75*
G03*
X10026000Y-9969000I-35000J0D01*
G01*
X10245000Y-13030000D02*
G75*
G03*
X10245000Y-13030000I-35000J0D01*
G01*
X10245000Y-13792000D02*
G75*
G03*
X10245000Y-13792000I-35000J0D01*
G01*
X10286000Y-9208000D02*
G75*
G03*
X10286000Y-9208000I-35000J0D01*
G01*
X10286000Y-9970000D02*
G75*
G03*
X10286000Y-9970000I-35000J0D01*
G01*
X10485000Y-13022000D02*
G75*
G03*
X10485000Y-13022000I-35000J0D01*
G01*
X10485000Y-13784000D02*
G75*
G03*
X10485000Y-13784000I-35000J0D01*
G01*
X10536000Y-9208000D02*
G75*
G03*
X10536000Y-9208000I-35000J0D01*
G01*
X10536000Y-9970000D02*
G75*
G03*
X10536000Y-9970000I-35000J0D01*
G01*
X11565000Y-13030000D02*
G75*
G03*
X11565000Y-13030000I-35000J0D01*
G01*
X11565000Y-13792000D02*
G75*
G03*
X11565000Y-13792000I-35000J0D01*
G01*
X11816000Y-13030000D02*
G75*
G03*
X11816000Y-13030000I-35000J0D01*
G01*
X11816000Y-13792000D02*
G75*
G03*
X11816000Y-13792000I-35000J0D01*
G01*
X11982000Y-9208000D02*
G75*
G03*
X11982000Y-9208000I-35000J0D01*
G01*
X11982000Y-9970000D02*
G75*
G03*
X11982000Y-9970000I-35000J0D01*
G01*
X12067000Y-13030000D02*
G75*
G03*
X12067000Y-13030000I-35000J0D01*
G01*
X12067000Y-13792000D02*
G75*
G03*
X12067000Y-13792000I-35000J0D01*
G01*
X12233000Y-9208000D02*
G75*
G03*
X12233000Y-9208000I-35000J0D01*
G01*
X12233000Y-9970000D02*
G75*
G03*
X12233000Y-9970000I-35000J0D01*
G01*
X12318000Y-13030000D02*
G75*
G03*
X12318000Y-13030000I-35000J0D01*
G01*
X12318000Y-13792000D02*
G75*
G03*
X12318000Y-13792000I-35000J0D01*
G01*
X12484000Y-9208000D02*
G75*
G03*
X12484000Y-9208000I-35000J0D01*
G01*
X12484000Y-9970000D02*
G75*
G03*
X12484000Y-9970000I-35000J0D01*
G01*
X12565000Y-13030000D02*
G75*
G03*
X12565000Y-13030000I-35000J0D01*
G01*
X12565000Y-13792000D02*
G75*
G03*
X12565000Y-13792000I-35000J0D01*
G01*
X12735000Y-9208000D02*
G75*
G03*
X12735000Y-9208000I-35000J0D01*
G01*
X12735000Y-9970000D02*
G75*
G03*
X12735000Y-9970000I-35000J0D01*
G01*
D14*
X4962000Y-11660000D02*
X4962000Y-11740000D01*
X4922000Y-11700000D02*
X5002000Y-11700000D01*
X4962000Y-12422000D02*
X4962000Y-12502000D01*
X4922000Y-12462000D02*
X5002000Y-12462000D01*
X4976000Y-12712000D02*
X4976000Y-12792000D01*
X4936000Y-12752000D02*
X5016000Y-12752000D01*
X5216000Y-11660000D02*
X5216000Y-11740000D01*
X5176000Y-11700000D02*
X5256000Y-11700000D01*
X5216000Y-12422000D02*
X5216000Y-12502000D01*
X5176000Y-12462000D02*
X5256000Y-12462000D01*
X5224000Y-9430000D02*
X5224000Y-9510000D01*
X5184000Y-9470000D02*
X5264000Y-9470000D01*
X5230000Y-12712000D02*
X5230000Y-12792000D01*
X5190000Y-12752000D02*
X5270000Y-12752000D01*
X5470000Y-11660000D02*
X5470000Y-11740000D01*
X5430000Y-11700000D02*
X5510000Y-11700000D01*
X5470000Y-12422000D02*
X5470000Y-12502000D01*
X5430000Y-12462000D02*
X5510000Y-12462000D01*
X5478000Y-9430000D02*
X5478000Y-9510000D01*
X5438000Y-9470000D02*
X5518000Y-9470000D01*
X5484000Y-12712000D02*
X5484000Y-12792000D01*
X5444000Y-12752000D02*
X5524000Y-12752000D01*
X5724000Y-11660000D02*
X5724000Y-11740000D01*
X5684000Y-11700000D02*
X5764000Y-11700000D01*
X5724000Y-12422000D02*
X5724000Y-12502000D01*
X5684000Y-12462000D02*
X5764000Y-12462000D01*
X5732000Y-9430000D02*
X5732000Y-9510000D01*
X5692000Y-9470000D02*
X5772000Y-9470000D01*
X5738000Y-12712000D02*
X5738000Y-12792000D01*
X5698000Y-12752000D02*
X5778000Y-12752000D01*
X5978000Y-11660000D02*
X5978000Y-11740000D01*
X5938000Y-11700000D02*
X6018000Y-11700000D01*
X5978000Y-12422000D02*
X5978000Y-12502000D01*
X5938000Y-12462000D02*
X6018000Y-12462000D01*
X5986000Y-9430000D02*
X5986000Y-9510000D01*
X5946000Y-9470000D02*
X6026000Y-9470000D01*
X5992000Y-12712000D02*
X5992000Y-12792000D01*
X5952000Y-12752000D02*
X6032000Y-12752000D01*
X6232000Y-11660000D02*
X6232000Y-11740000D01*
X6192000Y-11700000D02*
X6272000Y-11700000D01*
X6232000Y-12422000D02*
X6232000Y-12502000D01*
X6192000Y-12462000D02*
X6272000Y-12462000D01*
X6240000Y-9430000D02*
X6240000Y-9510000D01*
X6200000Y-9470000D02*
X6280000Y-9470000D01*
X6246000Y-12712000D02*
X6246000Y-12792000D01*
X6206000Y-12752000D02*
X6286000Y-12752000D01*
X6486000Y-11660000D02*
X6486000Y-11740000D01*
X6446000Y-11700000D02*
X6526000Y-11700000D01*
X6486000Y-12422000D02*
X6486000Y-12502000D01*
X6446000Y-12462000D02*
X6526000Y-12462000D01*
X6494000Y-9430000D02*
X6494000Y-9510000D01*
X6454000Y-9470000D02*
X6534000Y-9470000D01*
X6540000Y-12712000D02*
X6540000Y-12792000D01*
X6500000Y-12752000D02*
X6580000Y-12752000D01*
X6740000Y-11660000D02*
X6740000Y-11740000D01*
X6700000Y-11700000D02*
X6780000Y-11700000D01*
X6740000Y-12422000D02*
X6740000Y-12502000D01*
X6700000Y-12462000D02*
X6780000Y-12462000D01*
X6790000Y-12712000D02*
X6790000Y-12792000D01*
X6750000Y-12752000D02*
X6830000Y-12752000D01*
X7062000Y-11660000D02*
X7062000Y-11740000D01*
X7022000Y-11700000D02*
X7102000Y-11700000D01*
X7062000Y-12422000D02*
X7062000Y-12502000D01*
X7022000Y-12462000D02*
X7102000Y-12462000D01*
X7080000Y-12712000D02*
X7080000Y-12792000D01*
X7040000Y-12752000D02*
X7120000Y-12752000D01*
X7300000Y-9450000D02*
X7300000Y-9530000D01*
X7260000Y-9490000D02*
X7340000Y-9490000D01*
X7316000Y-11660000D02*
X7316000Y-11740000D01*
X7276000Y-11700000D02*
X7356000Y-11700000D01*
X7316000Y-12422000D02*
X7316000Y-12502000D01*
X7276000Y-12462000D02*
X7356000Y-12462000D01*
X7334000Y-12712000D02*
X7334000Y-12792000D01*
X7294000Y-12752000D02*
X7374000Y-12752000D01*
X7554000Y-9450000D02*
X7554000Y-9530000D01*
X7514000Y-9490000D02*
X7594000Y-9490000D01*
X7570000Y-11660000D02*
X7570000Y-11740000D01*
X7530000Y-11700000D02*
X7610000Y-11700000D01*
X7570000Y-12422000D02*
X7570000Y-12502000D01*
X7530000Y-12462000D02*
X7610000Y-12462000D01*
X7588000Y-12712000D02*
X7588000Y-12792000D01*
X7548000Y-12752000D02*
X7628000Y-12752000D01*
X7808000Y-9450000D02*
X7808000Y-9530000D01*
X7768000Y-9490000D02*
X7848000Y-9490000D01*
X7824000Y-11660000D02*
X7824000Y-11740000D01*
X7784000Y-11700000D02*
X7864000Y-11700000D01*
X7824000Y-12422000D02*
X7824000Y-12502000D01*
X7784000Y-12462000D02*
X7864000Y-12462000D01*
X7842000Y-12712000D02*
X7842000Y-12792000D01*
X7802000Y-12752000D02*
X7882000Y-12752000D01*
X8062000Y-9450000D02*
X8062000Y-9530000D01*
X8022000Y-9490000D02*
X8102000Y-9490000D01*
X8078000Y-11660000D02*
X8078000Y-11740000D01*
X8038000Y-11700000D02*
X8118000Y-11700000D01*
X8078000Y-12422000D02*
X8078000Y-12502000D01*
X8038000Y-12462000D02*
X8118000Y-12462000D01*
X8096000Y-12712000D02*
X8096000Y-12792000D01*
X8056000Y-12752000D02*
X8136000Y-12752000D01*
X8316000Y-9450000D02*
X8316000Y-9530000D01*
X8276000Y-9490000D02*
X8356000Y-9490000D01*
X8332000Y-11660000D02*
X8332000Y-11740000D01*
X8292000Y-11700000D02*
X8372000Y-11700000D01*
X8332000Y-12422000D02*
X8332000Y-12502000D01*
X8292000Y-12462000D02*
X8372000Y-12462000D01*
X8350000Y-12712000D02*
X8350000Y-12792000D01*
X8310000Y-12752000D02*
X8390000Y-12752000D01*
X8570000Y-9450000D02*
X8570000Y-9530000D01*
X8530000Y-9490000D02*
X8610000Y-9490000D01*
X8586000Y-11660000D02*
X8586000Y-11740000D01*
X8546000Y-11700000D02*
X8626000Y-11700000D01*
X8586000Y-12422000D02*
X8586000Y-12502000D01*
X8546000Y-12462000D02*
X8626000Y-12462000D01*
X8640000Y-12712000D02*
X8640000Y-12792000D01*
X8600000Y-12752000D02*
X8680000Y-12752000D01*
X8840000Y-11660000D02*
X8840000Y-11740000D01*
X8800000Y-11700000D02*
X8880000Y-11700000D01*
X8840000Y-12422000D02*
X8840000Y-12502000D01*
X8800000Y-12462000D02*
X8880000Y-12462000D01*
X8890000Y-12712000D02*
X8890000Y-12792000D01*
X8850000Y-12752000D02*
X8930000Y-12752000D01*
X9160000Y-11660000D02*
X9160000Y-11740000D01*
X9120000Y-11700000D02*
X9200000Y-11700000D01*
X9160000Y-12422000D02*
X9160000Y-12502000D01*
X9120000Y-12462000D02*
X9200000Y-12462000D01*
X9184000Y-12712000D02*
X9184000Y-12792000D01*
X9144000Y-12752000D02*
X9224000Y-12752000D01*
X9414000Y-11660000D02*
X9414000Y-11740000D01*
X9374000Y-11700000D02*
X9454000Y-11700000D01*
X9414000Y-12422000D02*
X9414000Y-12502000D01*
X9374000Y-12462000D02*
X9454000Y-12462000D01*
X9438000Y-12712000D02*
X9438000Y-12792000D01*
X9398000Y-12752000D02*
X9478000Y-12752000D01*
X9489000Y-9448000D02*
X9489000Y-9528000D01*
X9449000Y-9488000D02*
X9529000Y-9488000D01*
X9668000Y-11660000D02*
X9668000Y-11740000D01*
X9628000Y-11700000D02*
X9708000Y-11700000D01*
X9668000Y-12422000D02*
X9668000Y-12502000D01*
X9628000Y-12462000D02*
X9708000Y-12462000D01*
X9692000Y-12712000D02*
X9692000Y-12792000D01*
X9652000Y-12752000D02*
X9732000Y-12752000D01*
X9743000Y-9448000D02*
X9743000Y-9528000D01*
X9703000Y-9488000D02*
X9783000Y-9488000D01*
X9922000Y-11660000D02*
X9922000Y-11740000D01*
X9882000Y-11700000D02*
X9962000Y-11700000D01*
X9922000Y-12422000D02*
X9922000Y-12502000D01*
X9882000Y-12462000D02*
X9962000Y-12462000D01*
X9946000Y-12712000D02*
X9946000Y-12792000D01*
X9906000Y-12752000D02*
X9986000Y-12752000D01*
X9997000Y-9448000D02*
X9997000Y-9528000D01*
X9957000Y-9488000D02*
X10037000Y-9488000D01*
X10176000Y-11660000D02*
X10176000Y-11740000D01*
X10136000Y-11700000D02*
X10216000Y-11700000D01*
X10176000Y-12422000D02*
X10176000Y-12502000D01*
X10136000Y-12462000D02*
X10216000Y-12462000D01*
X10200000Y-12712000D02*
X10200000Y-12792000D01*
X10160000Y-12752000D02*
X10240000Y-12752000D01*
X10251000Y-9448000D02*
X10251000Y-9528000D01*
X10211000Y-9488000D02*
X10291000Y-9488000D01*
X10430000Y-11660000D02*
X10430000Y-11740000D01*
X10390000Y-11700000D02*
X10470000Y-11700000D01*
X10430000Y-12422000D02*
X10430000Y-12502000D01*
X10390000Y-12462000D02*
X10470000Y-12462000D01*
X10454000Y-12712000D02*
X10454000Y-12792000D01*
X10414000Y-12752000D02*
X10494000Y-12752000D01*
X10505000Y-9448000D02*
X10505000Y-9528000D01*
X10465000Y-9488000D02*
X10545000Y-9488000D01*
X10684000Y-11660000D02*
X10684000Y-11740000D01*
X10644000Y-11700000D02*
X10724000Y-11700000D01*
X10684000Y-12422000D02*
X10684000Y-12502000D01*
X10644000Y-12462000D02*
X10724000Y-12462000D01*
X10740000Y-12702000D02*
X10740000Y-12782000D01*
X10700000Y-12742000D02*
X10780000Y-12742000D01*
X10759000Y-9448000D02*
X10759000Y-9528000D01*
X10719000Y-9488000D02*
X10799000Y-9488000D01*
X10938000Y-11660000D02*
X10938000Y-11740000D01*
X10898000Y-11700000D02*
X10978000Y-11700000D01*
X10938000Y-12422000D02*
X10938000Y-12502000D01*
X10898000Y-12462000D02*
X10978000Y-12462000D01*
X10990000Y-12702000D02*
X10990000Y-12782000D01*
X10950000Y-12742000D02*
X11030000Y-12742000D01*
X11260000Y-11661320D02*
X11260000Y-11741320D01*
X11220000Y-11701320D02*
X11300000Y-11701320D01*
X11260000Y-12423320D02*
X11260000Y-12503320D01*
X11220000Y-12463320D02*
X11300000Y-12463320D01*
X11270000Y-12712000D02*
X11270000Y-12792000D01*
X11230000Y-12752000D02*
X11310000Y-12752000D01*
X11514000Y-11661320D02*
X11514000Y-11741320D01*
X11474000Y-11701320D02*
X11554000Y-11701320D01*
X11514000Y-12423320D02*
X11514000Y-12503320D01*
X11474000Y-12463320D02*
X11554000Y-12463320D01*
X11524000Y-12712000D02*
X11524000Y-12792000D01*
X11484000Y-12752000D02*
X11564000Y-12752000D01*
X11685000Y-9458000D02*
X11685000Y-9538000D01*
X11645000Y-9498000D02*
X11725000Y-9498000D01*
X11768000Y-11661320D02*
X11768000Y-11741320D01*
X11728000Y-11701320D02*
X11808000Y-11701320D01*
X11768000Y-12423320D02*
X11768000Y-12503320D01*
X11728000Y-12463320D02*
X11808000Y-12463320D01*
X11778000Y-12712000D02*
X11778000Y-12792000D01*
X11738000Y-12752000D02*
X11818000Y-12752000D01*
X11939000Y-9458000D02*
X11939000Y-9538000D01*
X11899000Y-9498000D02*
X11979000Y-9498000D01*
X12022000Y-11661320D02*
X12022000Y-11741320D01*
X11982000Y-11701320D02*
X12062000Y-11701320D01*
X12022000Y-12423320D02*
X12022000Y-12503320D01*
X11982000Y-12463320D02*
X12062000Y-12463320D01*
X12032000Y-12712000D02*
X12032000Y-12792000D01*
X11992000Y-12752000D02*
X12072000Y-12752000D01*
X12193000Y-9458000D02*
X12193000Y-9538000D01*
X12153000Y-9498000D02*
X12233000Y-9498000D01*
X12276000Y-11661320D02*
X12276000Y-11741320D01*
X12236000Y-11701320D02*
X12316000Y-11701320D01*
X12276000Y-12423320D02*
X12276000Y-12503320D01*
X12236000Y-12463320D02*
X12316000Y-12463320D01*
X12286000Y-12712000D02*
X12286000Y-12792000D01*
X12246000Y-12752000D02*
X12326000Y-12752000D01*
X12447000Y-9458000D02*
X12447000Y-9538000D01*
X12407000Y-9498000D02*
X12487000Y-9498000D01*
X12530000Y-11661320D02*
X12530000Y-11741320D01*
X12490000Y-11701320D02*
X12570000Y-11701320D01*
X12530000Y-12423320D02*
X12530000Y-12503320D01*
X12490000Y-12463320D02*
X12570000Y-12463320D01*
X12540000Y-12712000D02*
X12540000Y-12792000D01*
X12500000Y-12752000D02*
X12580000Y-12752000D01*
X12701000Y-9458000D02*
X12701000Y-9538000D01*
X12661000Y-9498000D02*
X12741000Y-9498000D01*
X12784000Y-11661320D02*
X12784000Y-11741320D01*
X12744000Y-11701320D02*
X12824000Y-11701320D01*
X12784000Y-12423320D02*
X12784000Y-12503320D01*
X12744000Y-12463320D02*
X12824000Y-12463320D01*
X12840000Y-12702000D02*
X12840000Y-12782000D01*
X12800000Y-12742000D02*
X12880000Y-12742000D01*
X12955000Y-9458000D02*
X12955000Y-9538000D01*
X12915000Y-9498000D02*
X12995000Y-9498000D01*
X13038000Y-11661320D02*
X13038000Y-11741320D01*
X12998000Y-11701320D02*
X13078000Y-11701320D01*
X13038000Y-12423320D02*
X13038000Y-12503320D01*
X12998000Y-12463320D02*
X13078000Y-12463320D01*
X13090000Y-12702000D02*
X13090000Y-12782000D01*
X13050000Y-12742000D02*
X13130000Y-12742000D01*
D10*
X4211356Y-11785356D02*
X4211356Y-11714644D01*
X4140644Y-11714644D01*
X4140644Y-11785356D01*
X4211356Y-11785356D01*
X4211356Y-12039356D02*
X4211356Y-11968644D01*
X4140644Y-11968644D01*
X4140644Y-12039356D01*
X4211356Y-12039356D01*
X4211356Y-12293356D02*
X4211356Y-12222644D01*
X4140644Y-12222644D01*
X4140644Y-12293356D01*
X4211356Y-12293356D01*
X4211356Y-12547356D02*
X4211356Y-12476644D01*
X4140644Y-12476644D01*
X4140644Y-12547356D01*
X4211356Y-12547356D01*
X4211356Y-12801356D02*
X4211356Y-12730644D01*
X4140644Y-12730644D01*
X4140644Y-12801356D01*
X4211356Y-12801356D01*
X4465356Y-11785356D02*
X4465356Y-11714644D01*
X4394644Y-11714644D01*
X4394644Y-11785356D01*
X4465356Y-11785356D01*
X4465356Y-12039356D02*
X4465356Y-11968644D01*
X4394644Y-11968644D01*
X4394644Y-12039356D01*
X4465356Y-12039356D01*
X4465356Y-12293356D02*
X4465356Y-12222644D01*
X4394644Y-12222644D01*
X4394644Y-12293356D01*
X4465356Y-12293356D01*
X4465356Y-12547356D02*
X4465356Y-12476644D01*
X4394644Y-12476644D01*
X4394644Y-12547356D01*
X4465356Y-12547356D01*
X4465356Y-12801356D02*
X4465356Y-12730644D01*
X4394644Y-12730644D01*
X4394644Y-12801356D01*
X4465356Y-12801356D01*
X5299356Y-10589356D02*
X5299356Y-10518644D01*
X5228644Y-10518644D01*
X5228644Y-10589356D01*
X5299356Y-10589356D01*
X5299356Y-10843356D02*
X5299356Y-10772644D01*
X5228644Y-10772644D01*
X5228644Y-10843356D01*
X5299356Y-10843356D01*
X5553356Y-10589356D02*
X5553356Y-10518644D01*
X5482644Y-10518644D01*
X5482644Y-10589356D01*
X5553356Y-10589356D01*
X5553356Y-10843356D02*
X5553356Y-10772644D01*
X5482644Y-10772644D01*
X5482644Y-10843356D01*
X5553356Y-10843356D01*
X5807356Y-10589356D02*
X5807356Y-10518644D01*
X5736644Y-10518644D01*
X5736644Y-10589356D01*
X5807356Y-10589356D01*
X5807356Y-10843356D02*
X5807356Y-10772644D01*
X5736644Y-10772644D01*
X5736644Y-10843356D01*
X5807356Y-10843356D01*
X6061356Y-10589356D02*
X6061356Y-10518644D01*
X5990644Y-10518644D01*
X5990644Y-10589356D01*
X6061356Y-10589356D01*
X6061356Y-10843356D02*
X6061356Y-10772644D01*
X5990644Y-10772644D01*
X5990644Y-10843356D01*
X6061356Y-10843356D01*
X6315356Y-10589356D02*
X6315356Y-10518644D01*
X6244644Y-10518644D01*
X6244644Y-10589356D01*
X6315356Y-10589356D01*
X6315356Y-10843356D02*
X6315356Y-10772644D01*
X6244644Y-10772644D01*
X6244644Y-10843356D01*
X6315356Y-10843356D01*
X7449356Y-10589356D02*
X7449356Y-10518644D01*
X7378644Y-10518644D01*
X7378644Y-10589356D01*
X7449356Y-10589356D01*
X7449356Y-10843356D02*
X7449356Y-10772644D01*
X7378644Y-10772644D01*
X7378644Y-10843356D01*
X7449356Y-10843356D01*
X7703356Y-10589356D02*
X7703356Y-10518644D01*
X7632644Y-10518644D01*
X7632644Y-10589356D01*
X7703356Y-10589356D01*
X7703356Y-10843356D02*
X7703356Y-10772644D01*
X7632644Y-10772644D01*
X7632644Y-10843356D01*
X7703356Y-10843356D01*
X7957356Y-10589356D02*
X7957356Y-10518644D01*
X7886644Y-10518644D01*
X7886644Y-10589356D01*
X7957356Y-10589356D01*
X7957356Y-10843356D02*
X7957356Y-10772644D01*
X7886644Y-10772644D01*
X7886644Y-10843356D01*
X7957356Y-10843356D01*
X8211356Y-10589356D02*
X8211356Y-10518644D01*
X8140644Y-10518644D01*
X8140644Y-10589356D01*
X8211356Y-10589356D01*
X8211356Y-10843356D02*
X8211356Y-10772644D01*
X8140644Y-10772644D01*
X8140644Y-10843356D01*
X8211356Y-10843356D01*
X8465356Y-10589356D02*
X8465356Y-10518644D01*
X8394644Y-10518644D01*
X8394644Y-10589356D01*
X8465356Y-10589356D01*
X8465356Y-10843356D02*
X8465356Y-10772644D01*
X8394644Y-10772644D01*
X8394644Y-10843356D01*
X8465356Y-10843356D01*
X9605356Y-10589356D02*
X9605356Y-10518644D01*
X9534644Y-10518644D01*
X9534644Y-10589356D01*
X9605356Y-10589356D01*
X9605356Y-10843356D02*
X9605356Y-10772644D01*
X9534644Y-10772644D01*
X9534644Y-10843356D01*
X9605356Y-10843356D01*
X9859356Y-10589356D02*
X9859356Y-10518644D01*
X9788644Y-10518644D01*
X9788644Y-10589356D01*
X9859356Y-10589356D01*
X9859356Y-10843356D02*
X9859356Y-10772644D01*
X9788644Y-10772644D01*
X9788644Y-10843356D01*
X9859356Y-10843356D01*
X10113356Y-10589356D02*
X10113356Y-10518644D01*
X10042644Y-10518644D01*
X10042644Y-10589356D01*
X10113356Y-10589356D01*
X10113356Y-10843356D02*
X10113356Y-10772644D01*
X10042644Y-10772644D01*
X10042644Y-10843356D01*
X10113356Y-10843356D01*
X10367356Y-10589356D02*
X10367356Y-10518644D01*
X10296644Y-10518644D01*
X10296644Y-10589356D01*
X10367356Y-10589356D01*
X10367356Y-10843356D02*
X10367356Y-10772644D01*
X10296644Y-10772644D01*
X10296644Y-10843356D01*
X10367356Y-10843356D01*
X10621356Y-10589356D02*
X10621356Y-10518644D01*
X10550644Y-10518644D01*
X10550644Y-10589356D01*
X10621356Y-10589356D01*
X10621356Y-10843356D02*
X10621356Y-10772644D01*
X10550644Y-10772644D01*
X10550644Y-10843356D01*
X10621356Y-10843356D01*
X11752356Y-10589356D02*
X11752356Y-10518644D01*
X11681644Y-10518644D01*
X11681644Y-10589356D01*
X11752356Y-10589356D01*
X11752356Y-10843356D02*
X11752356Y-10772644D01*
X11681644Y-10772644D01*
X11681644Y-10843356D01*
X11752356Y-10843356D01*
X12006356Y-10589356D02*
X12006356Y-10518644D01*
X11935644Y-10518644D01*
X11935644Y-10589356D01*
X12006356Y-10589356D01*
X12006356Y-10843356D02*
X12006356Y-10772644D01*
X11935644Y-10772644D01*
X11935644Y-10843356D01*
X12006356Y-10843356D01*
X12260356Y-10589356D02*
X12260356Y-10518644D01*
X12189644Y-10518644D01*
X12189644Y-10589356D01*
X12260356Y-10589356D01*
X12260356Y-10843356D02*
X12260356Y-10772644D01*
X12189644Y-10772644D01*
X12189644Y-10843356D01*
X12260356Y-10843356D01*
X12514356Y-10589356D02*
X12514356Y-10518644D01*
X12443644Y-10518644D01*
X12443644Y-10589356D01*
X12514356Y-10589356D01*
X12514356Y-10843356D02*
X12514356Y-10772644D01*
X12443644Y-10772644D01*
X12443644Y-10843356D01*
X12514356Y-10843356D01*
X12768356Y-10589356D02*
X12768356Y-10518644D01*
X12697644Y-10518644D01*
X12697644Y-10589356D01*
X12768356Y-10589356D01*
X12768356Y-10843356D02*
X12768356Y-10772644D01*
X12697644Y-10772644D01*
X12697644Y-10843356D01*
X12768356Y-10843356D01*
X13621356Y-11785356D02*
X13621356Y-11714644D01*
X13550644Y-11714644D01*
X13550644Y-11785356D01*
X13621356Y-11785356D01*
X13621356Y-12039356D02*
X13621356Y-11968644D01*
X13550644Y-11968644D01*
X13550644Y-12039356D01*
X13621356Y-12039356D01*
X13621356Y-12293356D02*
X13621356Y-12222644D01*
X13550644Y-12222644D01*
X13550644Y-12293356D01*
X13621356Y-12293356D01*
X13621356Y-12547356D02*
X13621356Y-12476644D01*
X13550644Y-12476644D01*
X13550644Y-12547356D01*
X13621356Y-12547356D01*
X13621356Y-12801356D02*
X13621356Y-12730644D01*
X13550644Y-12730644D01*
X13550644Y-12801356D01*
X13621356Y-12801356D01*
X13875356Y-11785356D02*
X13875356Y-11714644D01*
X13804644Y-11714644D01*
X13804644Y-11785356D01*
X13875356Y-11785356D01*
X13875356Y-12039356D02*
X13875356Y-11968644D01*
X13804644Y-11968644D01*
X13804644Y-12039356D01*
X13875356Y-12039356D01*
X13875356Y-12293356D02*
X13875356Y-12222644D01*
X13804644Y-12222644D01*
X13804644Y-12293356D01*
X13875356Y-12293356D01*
X13875356Y-12547356D02*
X13875356Y-12476644D01*
X13804644Y-12476644D01*
X13804644Y-12547356D01*
X13875356Y-12547356D01*
X13875356Y-12801356D02*
X13875356Y-12730644D01*
X13804644Y-12730644D01*
X13804644Y-12801356D01*
X13875356Y-12801356D01*
D11*
X4242619Y-14298476D02*
X4242619Y-14098476D01*
X4242619Y-14098476D02*
X4290238Y-14098476D01*
X4290238Y-14098476D02*
X4318810Y-14108000D01*
X4318810Y-14108000D02*
X4337857Y-14127048D01*
X4337857Y-14127048D02*
X4347381Y-14146095D01*
X4347381Y-14146095D02*
X4356905Y-14184190D01*
X4356905Y-14184190D02*
X4356905Y-14212762D01*
X4356905Y-14212762D02*
X4347381Y-14250857D01*
X4347381Y-14250857D02*
X4337857Y-14269905D01*
X4337857Y-14269905D02*
X4318810Y-14288952D01*
X4318810Y-14288952D02*
X4290238Y-14298476D01*
X4290238Y-14298476D02*
X4242619Y-14298476D01*
X4442619Y-14298476D02*
X4442619Y-14165143D01*
X4442619Y-14203238D02*
X4452143Y-14184190D01*
X4452143Y-14184190D02*
X4461667Y-14174667D01*
X4461667Y-14174667D02*
X4480714Y-14165143D01*
X4480714Y-14165143D02*
X4499762Y-14165143D01*
X4566429Y-14298476D02*
X4566429Y-14165143D01*
X4566429Y-14098476D02*
X4556905Y-14108000D01*
X4556905Y-14108000D02*
X4566429Y-14117524D01*
X4566429Y-14117524D02*
X4575952Y-14108000D01*
X4575952Y-14108000D02*
X4566429Y-14098476D01*
X4566429Y-14098476D02*
X4566429Y-14117524D01*
X4690238Y-14298476D02*
X4671190Y-14288952D01*
X4671190Y-14288952D02*
X4661667Y-14269905D01*
X4661667Y-14269905D02*
X4661667Y-14098476D01*
X4795000Y-14298476D02*
X4775952Y-14288952D01*
X4775952Y-14288952D02*
X4766429Y-14269905D01*
X4766429Y-14269905D02*
X4766429Y-14098476D01*
X4991190Y-14298476D02*
X4991190Y-14098476D01*
X4991190Y-14098476D02*
X5057857Y-14241333D01*
X5057857Y-14241333D02*
X5124524Y-14098476D01*
X5124524Y-14098476D02*
X5124524Y-14298476D01*
X5305476Y-14298476D02*
X5305476Y-14193714D01*
X5305476Y-14193714D02*
X5295952Y-14174667D01*
X5295952Y-14174667D02*
X5276905Y-14165143D01*
X5276905Y-14165143D02*
X5238809Y-14165143D01*
X5238809Y-14165143D02*
X5219762Y-14174667D01*
X5305476Y-14288952D02*
X5286429Y-14298476D01*
X5286429Y-14298476D02*
X5238809Y-14298476D01*
X5238809Y-14298476D02*
X5219762Y-14288952D01*
X5219762Y-14288952D02*
X5210238Y-14269905D01*
X5210238Y-14269905D02*
X5210238Y-14250857D01*
X5210238Y-14250857D02*
X5219762Y-14231809D01*
X5219762Y-14231809D02*
X5238809Y-14222286D01*
X5238809Y-14222286D02*
X5286429Y-14222286D01*
X5286429Y-14222286D02*
X5305476Y-14212762D01*
X5400714Y-14165143D02*
X5400714Y-14365143D01*
X5400714Y-14174667D02*
X5419762Y-14165143D01*
X5419762Y-14165143D02*
X5457857Y-14165143D01*
X5457857Y-14165143D02*
X5476905Y-14174667D01*
X5476905Y-14174667D02*
X5486429Y-14184190D01*
X5486429Y-14184190D02*
X5495952Y-14203238D01*
X5495952Y-14203238D02*
X5495952Y-14260381D01*
X5495952Y-14260381D02*
X5486429Y-14279428D01*
X5486429Y-14279428D02*
X5476905Y-14288952D01*
X5476905Y-14288952D02*
X5457857Y-14298476D01*
X5457857Y-14298476D02*
X5419762Y-14298476D01*
X5419762Y-14298476D02*
X5400714Y-14288952D01*
X5581667Y-14279428D02*
X5591190Y-14288952D01*
X5591190Y-14288952D02*
X5581667Y-14298476D01*
X5581667Y-14298476D02*
X5572143Y-14288952D01*
X5572143Y-14288952D02*
X5581667Y-14279428D01*
X5581667Y-14279428D02*
X5581667Y-14298476D01*
X5581667Y-14174667D02*
X5591190Y-14184190D01*
X5591190Y-14184190D02*
X5581667Y-14193714D01*
X5581667Y-14193714D02*
X5572143Y-14184190D01*
X5572143Y-14184190D02*
X5581667Y-14174667D01*
X5581667Y-14174667D02*
X5581667Y-14193714D01*
D12*
X3955000Y-14625000D02*
X3995000Y-14665000D01*
X3995000Y-14625000D02*
X3955000Y-14665000D01*
D11*
X4280714Y-14518476D02*
X4299762Y-14518476D01*
X4299762Y-14518476D02*
X4318810Y-14528000D01*
X4318810Y-14528000D02*
X4328333Y-14537524D01*
X4328333Y-14537524D02*
X4337857Y-14556571D01*
X4337857Y-14556571D02*
X4347381Y-14594667D01*
X4347381Y-14594667D02*
X4347381Y-14642286D01*
X4347381Y-14642286D02*
X4337857Y-14680381D01*
X4337857Y-14680381D02*
X4328333Y-14699428D01*
X4328333Y-14699428D02*
X4318810Y-14708952D01*
X4318810Y-14708952D02*
X4299762Y-14718476D01*
X4299762Y-14718476D02*
X4280714Y-14718476D01*
X4280714Y-14718476D02*
X4261667Y-14708952D01*
X4261667Y-14708952D02*
X4252143Y-14699428D01*
X4252143Y-14699428D02*
X4242619Y-14680381D01*
X4242619Y-14680381D02*
X4233095Y-14642286D01*
X4233095Y-14642286D02*
X4233095Y-14594667D01*
X4233095Y-14594667D02*
X4242619Y-14556571D01*
X4242619Y-14556571D02*
X4252143Y-14537524D01*
X4252143Y-14537524D02*
X4261667Y-14528000D01*
X4261667Y-14528000D02*
X4280714Y-14518476D01*
X4433095Y-14699428D02*
X4442619Y-14708952D01*
X4442619Y-14708952D02*
X4433095Y-14718476D01*
X4433095Y-14718476D02*
X4423571Y-14708952D01*
X4423571Y-14708952D02*
X4433095Y-14699428D01*
X4433095Y-14699428D02*
X4433095Y-14718476D01*
X4614048Y-14585143D02*
X4614048Y-14718476D01*
X4566429Y-14508952D02*
X4518810Y-14651809D01*
X4518810Y-14651809D02*
X4642619Y-14651809D01*
X4756905Y-14518476D02*
X4775952Y-14518476D01*
X4775952Y-14518476D02*
X4795000Y-14528000D01*
X4795000Y-14528000D02*
X4804524Y-14537524D01*
X4804524Y-14537524D02*
X4814048Y-14556571D01*
X4814048Y-14556571D02*
X4823571Y-14594667D01*
X4823571Y-14594667D02*
X4823571Y-14642286D01*
X4823571Y-14642286D02*
X4814048Y-14680381D01*
X4814048Y-14680381D02*
X4804524Y-14699428D01*
X4804524Y-14699428D02*
X4795000Y-14708952D01*
X4795000Y-14708952D02*
X4775952Y-14718476D01*
X4775952Y-14718476D02*
X4756905Y-14718476D01*
X4756905Y-14718476D02*
X4737857Y-14708952D01*
X4737857Y-14708952D02*
X4728333Y-14699428D01*
X4728333Y-14699428D02*
X4718810Y-14680381D01*
X4718810Y-14680381D02*
X4709286Y-14642286D01*
X4709286Y-14642286D02*
X4709286Y-14594667D01*
X4709286Y-14594667D02*
X4718810Y-14556571D01*
X4718810Y-14556571D02*
X4728333Y-14537524D01*
X4728333Y-14537524D02*
X4737857Y-14528000D01*
X4737857Y-14528000D02*
X4756905Y-14518476D01*
X4947381Y-14518476D02*
X4966429Y-14518476D01*
X4966429Y-14518476D02*
X4985476Y-14528000D01*
X4985476Y-14528000D02*
X4995000Y-14537524D01*
X4995000Y-14537524D02*
X5004524Y-14556571D01*
X5004524Y-14556571D02*
X5014048Y-14594667D01*
X5014048Y-14594667D02*
X5014048Y-14642286D01*
X5014048Y-14642286D02*
X5004524Y-14680381D01*
X5004524Y-14680381D02*
X4995000Y-14699428D01*
X4995000Y-14699428D02*
X4985476Y-14708952D01*
X4985476Y-14708952D02*
X4966429Y-14718476D01*
X4966429Y-14718476D02*
X4947381Y-14718476D01*
X4947381Y-14718476D02*
X4928333Y-14708952D01*
X4928333Y-14708952D02*
X4918810Y-14699428D01*
X4918810Y-14699428D02*
X4909286Y-14680381D01*
X4909286Y-14680381D02*
X4899762Y-14642286D01*
X4899762Y-14642286D02*
X4899762Y-14594667D01*
X4899762Y-14594667D02*
X4909286Y-14556571D01*
X4909286Y-14556571D02*
X4918810Y-14537524D01*
X4918810Y-14537524D02*
X4928333Y-14528000D01*
X4928333Y-14528000D02*
X4947381Y-14518476D01*
X5099762Y-14718476D02*
X5099762Y-14585143D01*
X5099762Y-14604190D02*
X5109286Y-14594667D01*
X5109286Y-14594667D02*
X5128333Y-14585143D01*
X5128333Y-14585143D02*
X5156905Y-14585143D01*
X5156905Y-14585143D02*
X5175952Y-14594667D01*
X5175952Y-14594667D02*
X5185476Y-14613714D01*
X5185476Y-14613714D02*
X5185476Y-14718476D01*
X5185476Y-14613714D02*
X5195000Y-14594667D01*
X5195000Y-14594667D02*
X5214048Y-14585143D01*
X5214048Y-14585143D02*
X5242619Y-14585143D01*
X5242619Y-14585143D02*
X5261667Y-14594667D01*
X5261667Y-14594667D02*
X5271191Y-14613714D01*
X5271191Y-14613714D02*
X5271191Y-14718476D01*
X5366429Y-14718476D02*
X5366429Y-14585143D01*
X5366429Y-14604190D02*
X5375952Y-14594667D01*
X5375952Y-14594667D02*
X5395000Y-14585143D01*
X5395000Y-14585143D02*
X5423572Y-14585143D01*
X5423572Y-14585143D02*
X5442619Y-14594667D01*
X5442619Y-14594667D02*
X5452143Y-14613714D01*
X5452143Y-14613714D02*
X5452143Y-14718476D01*
X5452143Y-14613714D02*
X5461667Y-14594667D01*
X5461667Y-14594667D02*
X5480714Y-14585143D01*
X5480714Y-14585143D02*
X5509286Y-14585143D01*
X5509286Y-14585143D02*
X5528333Y-14594667D01*
X5528333Y-14594667D02*
X5537857Y-14613714D01*
X5537857Y-14613714D02*
X5537857Y-14718476D01*
X5895952Y-14508952D02*
X5724524Y-14766095D01*
X6120714Y-14518476D02*
X6139762Y-14518476D01*
X6139762Y-14518476D02*
X6158810Y-14528000D01*
X6158810Y-14528000D02*
X6168333Y-14537524D01*
X6168333Y-14537524D02*
X6177857Y-14556571D01*
X6177857Y-14556571D02*
X6187381Y-14594667D01*
X6187381Y-14594667D02*
X6187381Y-14642286D01*
X6187381Y-14642286D02*
X6177857Y-14680381D01*
X6177857Y-14680381D02*
X6168333Y-14699428D01*
X6168333Y-14699428D02*
X6158810Y-14708952D01*
X6158810Y-14708952D02*
X6139762Y-14718476D01*
X6139762Y-14718476D02*
X6120714Y-14718476D01*
X6120714Y-14718476D02*
X6101667Y-14708952D01*
X6101667Y-14708952D02*
X6092143Y-14699428D01*
X6092143Y-14699428D02*
X6082619Y-14680381D01*
X6082619Y-14680381D02*
X6073095Y-14642286D01*
X6073095Y-14642286D02*
X6073095Y-14594667D01*
X6073095Y-14594667D02*
X6082619Y-14556571D01*
X6082619Y-14556571D02*
X6092143Y-14537524D01*
X6092143Y-14537524D02*
X6101667Y-14528000D01*
X6101667Y-14528000D02*
X6120714Y-14518476D01*
X6273095Y-14699428D02*
X6282619Y-14708952D01*
X6282619Y-14708952D02*
X6273095Y-14718476D01*
X6273095Y-14718476D02*
X6263571Y-14708952D01*
X6263571Y-14708952D02*
X6273095Y-14699428D01*
X6273095Y-14699428D02*
X6273095Y-14718476D01*
X6406429Y-14518476D02*
X6425476Y-14518476D01*
X6425476Y-14518476D02*
X6444524Y-14528000D01*
X6444524Y-14528000D02*
X6454048Y-14537524D01*
X6454048Y-14537524D02*
X6463571Y-14556571D01*
X6463571Y-14556571D02*
X6473095Y-14594667D01*
X6473095Y-14594667D02*
X6473095Y-14642286D01*
X6473095Y-14642286D02*
X6463571Y-14680381D01*
X6463571Y-14680381D02*
X6454048Y-14699428D01*
X6454048Y-14699428D02*
X6444524Y-14708952D01*
X6444524Y-14708952D02*
X6425476Y-14718476D01*
X6425476Y-14718476D02*
X6406429Y-14718476D01*
X6406429Y-14718476D02*
X6387381Y-14708952D01*
X6387381Y-14708952D02*
X6377857Y-14699428D01*
X6377857Y-14699428D02*
X6368333Y-14680381D01*
X6368333Y-14680381D02*
X6358810Y-14642286D01*
X6358810Y-14642286D02*
X6358810Y-14594667D01*
X6358810Y-14594667D02*
X6368333Y-14556571D01*
X6368333Y-14556571D02*
X6377857Y-14537524D01*
X6377857Y-14537524D02*
X6387381Y-14528000D01*
X6387381Y-14528000D02*
X6406429Y-14518476D01*
X6663571Y-14718476D02*
X6549286Y-14718476D01*
X6606429Y-14718476D02*
X6606429Y-14518476D01*
X6606429Y-14518476D02*
X6587381Y-14547048D01*
X6587381Y-14547048D02*
X6568333Y-14566095D01*
X6568333Y-14566095D02*
X6549286Y-14575619D01*
X6844524Y-14518476D02*
X6749286Y-14518476D01*
X6749286Y-14518476D02*
X6739762Y-14613714D01*
X6739762Y-14613714D02*
X6749286Y-14604190D01*
X6749286Y-14604190D02*
X6768333Y-14594667D01*
X6768333Y-14594667D02*
X6815952Y-14594667D01*
X6815952Y-14594667D02*
X6835000Y-14604190D01*
X6835000Y-14604190D02*
X6844524Y-14613714D01*
X6844524Y-14613714D02*
X6854048Y-14632762D01*
X6854048Y-14632762D02*
X6854048Y-14680381D01*
X6854048Y-14680381D02*
X6844524Y-14699428D01*
X6844524Y-14699428D02*
X6835000Y-14708952D01*
X6835000Y-14708952D02*
X6815952Y-14718476D01*
X6815952Y-14718476D02*
X6768333Y-14718476D01*
X6768333Y-14718476D02*
X6749286Y-14708952D01*
X6749286Y-14708952D02*
X6739762Y-14699428D01*
X6920714Y-14518476D02*
X7054048Y-14518476D01*
X7054048Y-14518476D02*
X6968333Y-14718476D01*
X7120714Y-14518476D02*
X7120714Y-14556571D01*
X7196905Y-14518476D02*
X7196905Y-14556571D01*
X7459762Y-14794667D02*
X7450238Y-14785143D01*
X7450238Y-14785143D02*
X7431191Y-14756571D01*
X7431191Y-14756571D02*
X7421667Y-14737524D01*
X7421667Y-14737524D02*
X7412143Y-14708952D01*
X7412143Y-14708952D02*
X7402619Y-14661333D01*
X7402619Y-14661333D02*
X7402619Y-14623238D01*
X7402619Y-14623238D02*
X7412143Y-14575619D01*
X7412143Y-14575619D02*
X7421667Y-14547048D01*
X7421667Y-14547048D02*
X7431191Y-14528000D01*
X7431191Y-14528000D02*
X7450238Y-14499428D01*
X7450238Y-14499428D02*
X7459762Y-14489905D01*
X7516905Y-14518476D02*
X7650238Y-14518476D01*
X7650238Y-14518476D02*
X7564524Y-14718476D01*
X7846429Y-14718476D02*
X7846429Y-14518476D01*
X7932143Y-14718476D02*
X7932143Y-14613714D01*
X7932143Y-14613714D02*
X7922619Y-14594667D01*
X7922619Y-14594667D02*
X7903572Y-14585143D01*
X7903572Y-14585143D02*
X7875000Y-14585143D01*
X7875000Y-14585143D02*
X7855952Y-14594667D01*
X7855952Y-14594667D02*
X7846429Y-14604190D01*
X8055952Y-14718476D02*
X8036905Y-14708952D01*
X8036905Y-14708952D02*
X8027381Y-14699428D01*
X8027381Y-14699428D02*
X8017857Y-14680381D01*
X8017857Y-14680381D02*
X8017857Y-14623238D01*
X8017857Y-14623238D02*
X8027381Y-14604190D01*
X8027381Y-14604190D02*
X8036905Y-14594667D01*
X8036905Y-14594667D02*
X8055952Y-14585143D01*
X8055952Y-14585143D02*
X8084524Y-14585143D01*
X8084524Y-14585143D02*
X8103572Y-14594667D01*
X8103572Y-14594667D02*
X8113095Y-14604190D01*
X8113095Y-14604190D02*
X8122619Y-14623238D01*
X8122619Y-14623238D02*
X8122619Y-14680381D01*
X8122619Y-14680381D02*
X8113095Y-14699428D01*
X8113095Y-14699428D02*
X8103572Y-14708952D01*
X8103572Y-14708952D02*
X8084524Y-14718476D01*
X8084524Y-14718476D02*
X8055952Y-14718476D01*
X8236905Y-14718476D02*
X8217857Y-14708952D01*
X8217857Y-14708952D02*
X8208333Y-14689905D01*
X8208333Y-14689905D02*
X8208333Y-14518476D01*
X8389286Y-14708952D02*
X8370238Y-14718476D01*
X8370238Y-14718476D02*
X8332143Y-14718476D01*
X8332143Y-14718476D02*
X8313095Y-14708952D01*
X8313095Y-14708952D02*
X8303572Y-14689905D01*
X8303572Y-14689905D02*
X8303572Y-14613714D01*
X8303572Y-14613714D02*
X8313095Y-14594667D01*
X8313095Y-14594667D02*
X8332143Y-14585143D01*
X8332143Y-14585143D02*
X8370238Y-14585143D01*
X8370238Y-14585143D02*
X8389286Y-14594667D01*
X8389286Y-14594667D02*
X8398810Y-14613714D01*
X8398810Y-14613714D02*
X8398810Y-14632762D01*
X8398810Y-14632762D02*
X8303572Y-14651809D01*
X8475000Y-14708952D02*
X8494048Y-14718476D01*
X8494048Y-14718476D02*
X8532143Y-14718476D01*
X8532143Y-14718476D02*
X8551191Y-14708952D01*
X8551191Y-14708952D02*
X8560715Y-14689905D01*
X8560715Y-14689905D02*
X8560715Y-14680381D01*
X8560715Y-14680381D02*
X8551191Y-14661333D01*
X8551191Y-14661333D02*
X8532143Y-14651809D01*
X8532143Y-14651809D02*
X8503572Y-14651809D01*
X8503572Y-14651809D02*
X8484524Y-14642286D01*
X8484524Y-14642286D02*
X8475000Y-14623238D01*
X8475000Y-14623238D02*
X8475000Y-14613714D01*
X8475000Y-14613714D02*
X8484524Y-14594667D01*
X8484524Y-14594667D02*
X8503572Y-14585143D01*
X8503572Y-14585143D02*
X8532143Y-14585143D01*
X8532143Y-14585143D02*
X8551191Y-14594667D01*
X8627381Y-14794667D02*
X8636905Y-14785143D01*
X8636905Y-14785143D02*
X8655953Y-14756571D01*
X8655953Y-14756571D02*
X8665476Y-14737524D01*
X8665476Y-14737524D02*
X8675000Y-14708952D01*
X8675000Y-14708952D02*
X8684524Y-14661333D01*
X8684524Y-14661333D02*
X8684524Y-14623238D01*
X8684524Y-14623238D02*
X8675000Y-14575619D01*
X8675000Y-14575619D02*
X8665476Y-14547048D01*
X8665476Y-14547048D02*
X8655953Y-14528000D01*
X8655953Y-14528000D02*
X8636905Y-14499428D01*
X8636905Y-14499428D02*
X8627381Y-14489905D01*
D13*
X3995000Y-14909000D02*
G75*
G03*
X3995000Y-14909000I-35000J0D01*
G01*
D11*
X4280714Y-14782476D02*
X4299762Y-14782476D01*
X4299762Y-14782476D02*
X4318810Y-14792000D01*
X4318810Y-14792000D02*
X4328333Y-14801524D01*
X4328333Y-14801524D02*
X4337857Y-14820571D01*
X4337857Y-14820571D02*
X4347381Y-14858667D01*
X4347381Y-14858667D02*
X4347381Y-14906286D01*
X4347381Y-14906286D02*
X4337857Y-14944381D01*
X4337857Y-14944381D02*
X4328333Y-14963428D01*
X4328333Y-14963428D02*
X4318810Y-14972952D01*
X4318810Y-14972952D02*
X4299762Y-14982476D01*
X4299762Y-14982476D02*
X4280714Y-14982476D01*
X4280714Y-14982476D02*
X4261667Y-14972952D01*
X4261667Y-14972952D02*
X4252143Y-14963428D01*
X4252143Y-14963428D02*
X4242619Y-14944381D01*
X4242619Y-14944381D02*
X4233095Y-14906286D01*
X4233095Y-14906286D02*
X4233095Y-14858667D01*
X4233095Y-14858667D02*
X4242619Y-14820571D01*
X4242619Y-14820571D02*
X4252143Y-14801524D01*
X4252143Y-14801524D02*
X4261667Y-14792000D01*
X4261667Y-14792000D02*
X4280714Y-14782476D01*
X4433095Y-14963428D02*
X4442619Y-14972952D01*
X4442619Y-14972952D02*
X4433095Y-14982476D01*
X4433095Y-14982476D02*
X4423571Y-14972952D01*
X4423571Y-14972952D02*
X4433095Y-14963428D01*
X4433095Y-14963428D02*
X4433095Y-14982476D01*
X4509286Y-14782476D02*
X4642619Y-14782476D01*
X4642619Y-14782476D02*
X4556905Y-14982476D01*
X4756905Y-14782476D02*
X4775952Y-14782476D01*
X4775952Y-14782476D02*
X4795000Y-14792000D01*
X4795000Y-14792000D02*
X4804524Y-14801524D01*
X4804524Y-14801524D02*
X4814048Y-14820571D01*
X4814048Y-14820571D02*
X4823571Y-14858667D01*
X4823571Y-14858667D02*
X4823571Y-14906286D01*
X4823571Y-14906286D02*
X4814048Y-14944381D01*
X4814048Y-14944381D02*
X4804524Y-14963428D01*
X4804524Y-14963428D02*
X4795000Y-14972952D01*
X4795000Y-14972952D02*
X4775952Y-14982476D01*
X4775952Y-14982476D02*
X4756905Y-14982476D01*
X4756905Y-14982476D02*
X4737857Y-14972952D01*
X4737857Y-14972952D02*
X4728333Y-14963428D01*
X4728333Y-14963428D02*
X4718810Y-14944381D01*
X4718810Y-14944381D02*
X4709286Y-14906286D01*
X4709286Y-14906286D02*
X4709286Y-14858667D01*
X4709286Y-14858667D02*
X4718810Y-14820571D01*
X4718810Y-14820571D02*
X4728333Y-14801524D01*
X4728333Y-14801524D02*
X4737857Y-14792000D01*
X4737857Y-14792000D02*
X4756905Y-14782476D01*
X4947381Y-14782476D02*
X4966429Y-14782476D01*
X4966429Y-14782476D02*
X4985476Y-14792000D01*
X4985476Y-14792000D02*
X4995000Y-14801524D01*
X4995000Y-14801524D02*
X5004524Y-14820571D01*
X5004524Y-14820571D02*
X5014048Y-14858667D01*
X5014048Y-14858667D02*
X5014048Y-14906286D01*
X5014048Y-14906286D02*
X5004524Y-14944381D01*
X5004524Y-14944381D02*
X4995000Y-14963428D01*
X4995000Y-14963428D02*
X4985476Y-14972952D01*
X4985476Y-14972952D02*
X4966429Y-14982476D01*
X4966429Y-14982476D02*
X4947381Y-14982476D01*
X4947381Y-14982476D02*
X4928333Y-14972952D01*
X4928333Y-14972952D02*
X4918810Y-14963428D01*
X4918810Y-14963428D02*
X4909286Y-14944381D01*
X4909286Y-14944381D02*
X4899762Y-14906286D01*
X4899762Y-14906286D02*
X4899762Y-14858667D01*
X4899762Y-14858667D02*
X4909286Y-14820571D01*
X4909286Y-14820571D02*
X4918810Y-14801524D01*
X4918810Y-14801524D02*
X4928333Y-14792000D01*
X4928333Y-14792000D02*
X4947381Y-14782476D01*
X5099762Y-14982476D02*
X5099762Y-14849143D01*
X5099762Y-14868190D02*
X5109286Y-14858667D01*
X5109286Y-14858667D02*
X5128333Y-14849143D01*
X5128333Y-14849143D02*
X5156905Y-14849143D01*
X5156905Y-14849143D02*
X5175952Y-14858667D01*
X5175952Y-14858667D02*
X5185476Y-14877714D01*
X5185476Y-14877714D02*
X5185476Y-14982476D01*
X5185476Y-14877714D02*
X5195000Y-14858667D01*
X5195000Y-14858667D02*
X5214048Y-14849143D01*
X5214048Y-14849143D02*
X5242619Y-14849143D01*
X5242619Y-14849143D02*
X5261667Y-14858667D01*
X5261667Y-14858667D02*
X5271191Y-14877714D01*
X5271191Y-14877714D02*
X5271191Y-14982476D01*
X5366429Y-14982476D02*
X5366429Y-14849143D01*
X5366429Y-14868190D02*
X5375952Y-14858667D01*
X5375952Y-14858667D02*
X5395000Y-14849143D01*
X5395000Y-14849143D02*
X5423572Y-14849143D01*
X5423572Y-14849143D02*
X5442619Y-14858667D01*
X5442619Y-14858667D02*
X5452143Y-14877714D01*
X5452143Y-14877714D02*
X5452143Y-14982476D01*
X5452143Y-14877714D02*
X5461667Y-14858667D01*
X5461667Y-14858667D02*
X5480714Y-14849143D01*
X5480714Y-14849143D02*
X5509286Y-14849143D01*
X5509286Y-14849143D02*
X5528333Y-14858667D01*
X5528333Y-14858667D02*
X5537857Y-14877714D01*
X5537857Y-14877714D02*
X5537857Y-14982476D01*
X5895952Y-14772952D02*
X5724524Y-15030095D01*
X6120714Y-14782476D02*
X6139762Y-14782476D01*
X6139762Y-14782476D02*
X6158810Y-14792000D01*
X6158810Y-14792000D02*
X6168333Y-14801524D01*
X6168333Y-14801524D02*
X6177857Y-14820571D01*
X6177857Y-14820571D02*
X6187381Y-14858667D01*
X6187381Y-14858667D02*
X6187381Y-14906286D01*
X6187381Y-14906286D02*
X6177857Y-14944381D01*
X6177857Y-14944381D02*
X6168333Y-14963428D01*
X6168333Y-14963428D02*
X6158810Y-14972952D01*
X6158810Y-14972952D02*
X6139762Y-14982476D01*
X6139762Y-14982476D02*
X6120714Y-14982476D01*
X6120714Y-14982476D02*
X6101667Y-14972952D01*
X6101667Y-14972952D02*
X6092143Y-14963428D01*
X6092143Y-14963428D02*
X6082619Y-14944381D01*
X6082619Y-14944381D02*
X6073095Y-14906286D01*
X6073095Y-14906286D02*
X6073095Y-14858667D01*
X6073095Y-14858667D02*
X6082619Y-14820571D01*
X6082619Y-14820571D02*
X6092143Y-14801524D01*
X6092143Y-14801524D02*
X6101667Y-14792000D01*
X6101667Y-14792000D02*
X6120714Y-14782476D01*
X6273095Y-14963428D02*
X6282619Y-14972952D01*
X6282619Y-14972952D02*
X6273095Y-14982476D01*
X6273095Y-14982476D02*
X6263571Y-14972952D01*
X6263571Y-14972952D02*
X6273095Y-14963428D01*
X6273095Y-14963428D02*
X6273095Y-14982476D01*
X6406429Y-14782476D02*
X6425476Y-14782476D01*
X6425476Y-14782476D02*
X6444524Y-14792000D01*
X6444524Y-14792000D02*
X6454048Y-14801524D01*
X6454048Y-14801524D02*
X6463571Y-14820571D01*
X6463571Y-14820571D02*
X6473095Y-14858667D01*
X6473095Y-14858667D02*
X6473095Y-14906286D01*
X6473095Y-14906286D02*
X6463571Y-14944381D01*
X6463571Y-14944381D02*
X6454048Y-14963428D01*
X6454048Y-14963428D02*
X6444524Y-14972952D01*
X6444524Y-14972952D02*
X6425476Y-14982476D01*
X6425476Y-14982476D02*
X6406429Y-14982476D01*
X6406429Y-14982476D02*
X6387381Y-14972952D01*
X6387381Y-14972952D02*
X6377857Y-14963428D01*
X6377857Y-14963428D02*
X6368333Y-14944381D01*
X6368333Y-14944381D02*
X6358810Y-14906286D01*
X6358810Y-14906286D02*
X6358810Y-14858667D01*
X6358810Y-14858667D02*
X6368333Y-14820571D01*
X6368333Y-14820571D02*
X6377857Y-14801524D01*
X6377857Y-14801524D02*
X6387381Y-14792000D01*
X6387381Y-14792000D02*
X6406429Y-14782476D01*
X6549286Y-14801524D02*
X6558810Y-14792000D01*
X6558810Y-14792000D02*
X6577857Y-14782476D01*
X6577857Y-14782476D02*
X6625476Y-14782476D01*
X6625476Y-14782476D02*
X6644524Y-14792000D01*
X6644524Y-14792000D02*
X6654048Y-14801524D01*
X6654048Y-14801524D02*
X6663571Y-14820571D01*
X6663571Y-14820571D02*
X6663571Y-14839619D01*
X6663571Y-14839619D02*
X6654048Y-14868190D01*
X6654048Y-14868190D02*
X6539762Y-14982476D01*
X6539762Y-14982476D02*
X6663571Y-14982476D01*
X6730238Y-14782476D02*
X6863571Y-14782476D01*
X6863571Y-14782476D02*
X6777857Y-14982476D01*
X7025476Y-14782476D02*
X6987381Y-14782476D01*
X6987381Y-14782476D02*
X6968333Y-14792000D01*
X6968333Y-14792000D02*
X6958810Y-14801524D01*
X6958810Y-14801524D02*
X6939762Y-14830095D01*
X6939762Y-14830095D02*
X6930238Y-14868190D01*
X6930238Y-14868190D02*
X6930238Y-14944381D01*
X6930238Y-14944381D02*
X6939762Y-14963428D01*
X6939762Y-14963428D02*
X6949286Y-14972952D01*
X6949286Y-14972952D02*
X6968333Y-14982476D01*
X6968333Y-14982476D02*
X7006429Y-14982476D01*
X7006429Y-14982476D02*
X7025476Y-14972952D01*
X7025476Y-14972952D02*
X7035000Y-14963428D01*
X7035000Y-14963428D02*
X7044524Y-14944381D01*
X7044524Y-14944381D02*
X7044524Y-14896762D01*
X7044524Y-14896762D02*
X7035000Y-14877714D01*
X7035000Y-14877714D02*
X7025476Y-14868190D01*
X7025476Y-14868190D02*
X7006429Y-14858667D01*
X7006429Y-14858667D02*
X6968333Y-14858667D01*
X6968333Y-14858667D02*
X6949286Y-14868190D01*
X6949286Y-14868190D02*
X6939762Y-14877714D01*
X6939762Y-14877714D02*
X6930238Y-14896762D01*
X7120714Y-14782476D02*
X7120714Y-14820571D01*
X7196905Y-14782476D02*
X7196905Y-14820571D01*
X7459762Y-15058667D02*
X7450238Y-15049143D01*
X7450238Y-15049143D02*
X7431191Y-15020571D01*
X7431191Y-15020571D02*
X7421667Y-15001524D01*
X7421667Y-15001524D02*
X7412143Y-14972952D01*
X7412143Y-14972952D02*
X7402619Y-14925333D01*
X7402619Y-14925333D02*
X7402619Y-14887238D01*
X7402619Y-14887238D02*
X7412143Y-14839619D01*
X7412143Y-14839619D02*
X7421667Y-14811048D01*
X7421667Y-14811048D02*
X7431191Y-14792000D01*
X7431191Y-14792000D02*
X7450238Y-14763428D01*
X7450238Y-14763428D02*
X7459762Y-14753905D01*
X7516905Y-14782476D02*
X7650238Y-14782476D01*
X7650238Y-14782476D02*
X7564524Y-14982476D01*
X7716905Y-14801524D02*
X7726429Y-14792000D01*
X7726429Y-14792000D02*
X7745476Y-14782476D01*
X7745476Y-14782476D02*
X7793095Y-14782476D01*
X7793095Y-14782476D02*
X7812143Y-14792000D01*
X7812143Y-14792000D02*
X7821667Y-14801524D01*
X7821667Y-14801524D02*
X7831191Y-14820571D01*
X7831191Y-14820571D02*
X7831191Y-14839619D01*
X7831191Y-14839619D02*
X7821667Y-14868190D01*
X7821667Y-14868190D02*
X7707381Y-14982476D01*
X7707381Y-14982476D02*
X7831191Y-14982476D01*
X8036905Y-14982476D02*
X8036905Y-14782476D01*
X8122619Y-14982476D02*
X8122619Y-14877714D01*
X8122619Y-14877714D02*
X8113095Y-14858667D01*
X8113095Y-14858667D02*
X8094048Y-14849143D01*
X8094048Y-14849143D02*
X8065476Y-14849143D01*
X8065476Y-14849143D02*
X8046429Y-14858667D01*
X8046429Y-14858667D02*
X8036905Y-14868190D01*
X8246429Y-14982476D02*
X8227381Y-14972952D01*
X8227381Y-14972952D02*
X8217857Y-14963428D01*
X8217857Y-14963428D02*
X8208333Y-14944381D01*
X8208333Y-14944381D02*
X8208333Y-14887238D01*
X8208333Y-14887238D02*
X8217857Y-14868190D01*
X8217857Y-14868190D02*
X8227381Y-14858667D01*
X8227381Y-14858667D02*
X8246429Y-14849143D01*
X8246429Y-14849143D02*
X8275000Y-14849143D01*
X8275000Y-14849143D02*
X8294048Y-14858667D01*
X8294048Y-14858667D02*
X8303572Y-14868190D01*
X8303572Y-14868190D02*
X8313095Y-14887238D01*
X8313095Y-14887238D02*
X8313095Y-14944381D01*
X8313095Y-14944381D02*
X8303572Y-14963428D01*
X8303572Y-14963428D02*
X8294048Y-14972952D01*
X8294048Y-14972952D02*
X8275000Y-14982476D01*
X8275000Y-14982476D02*
X8246429Y-14982476D01*
X8427381Y-14982476D02*
X8408334Y-14972952D01*
X8408334Y-14972952D02*
X8398810Y-14953905D01*
X8398810Y-14953905D02*
X8398810Y-14782476D01*
X8579762Y-14972952D02*
X8560715Y-14982476D01*
X8560715Y-14982476D02*
X8522619Y-14982476D01*
X8522619Y-14982476D02*
X8503572Y-14972952D01*
X8503572Y-14972952D02*
X8494048Y-14953905D01*
X8494048Y-14953905D02*
X8494048Y-14877714D01*
X8494048Y-14877714D02*
X8503572Y-14858667D01*
X8503572Y-14858667D02*
X8522619Y-14849143D01*
X8522619Y-14849143D02*
X8560715Y-14849143D01*
X8560715Y-14849143D02*
X8579762Y-14858667D01*
X8579762Y-14858667D02*
X8589286Y-14877714D01*
X8589286Y-14877714D02*
X8589286Y-14896762D01*
X8589286Y-14896762D02*
X8494048Y-14915809D01*
X8665476Y-14972952D02*
X8684524Y-14982476D01*
X8684524Y-14982476D02*
X8722619Y-14982476D01*
X8722619Y-14982476D02*
X8741667Y-14972952D01*
X8741667Y-14972952D02*
X8751191Y-14953905D01*
X8751191Y-14953905D02*
X8751191Y-14944381D01*
X8751191Y-14944381D02*
X8741667Y-14925333D01*
X8741667Y-14925333D02*
X8722619Y-14915809D01*
X8722619Y-14915809D02*
X8694048Y-14915809D01*
X8694048Y-14915809D02*
X8675000Y-14906286D01*
X8675000Y-14906286D02*
X8665476Y-14887238D01*
X8665476Y-14887238D02*
X8665476Y-14877714D01*
X8665476Y-14877714D02*
X8675000Y-14858667D01*
X8675000Y-14858667D02*
X8694048Y-14849143D01*
X8694048Y-14849143D02*
X8722619Y-14849143D01*
X8722619Y-14849143D02*
X8741667Y-14858667D01*
X8817857Y-15058667D02*
X8827381Y-15049143D01*
X8827381Y-15049143D02*
X8846429Y-15020571D01*
X8846429Y-15020571D02*
X8855953Y-15001524D01*
X8855953Y-15001524D02*
X8865476Y-14972952D01*
X8865476Y-14972952D02*
X8875000Y-14925333D01*
X8875000Y-14925333D02*
X8875000Y-14887238D01*
X8875000Y-14887238D02*
X8865476Y-14839619D01*
X8865476Y-14839619D02*
X8855953Y-14811048D01*
X8855953Y-14811048D02*
X8846429Y-14792000D01*
X8846429Y-14792000D02*
X8827381Y-14763428D01*
X8827381Y-14763428D02*
X8817857Y-14753905D01*
D14*
X3955000Y-15133000D02*
X3955000Y-15213000D01*
X3915000Y-15173000D02*
X3995000Y-15173000D01*
D11*
X4280714Y-15046476D02*
X4299762Y-15046476D01*
X4299762Y-15046476D02*
X4318810Y-15056000D01*
X4318810Y-15056000D02*
X4328333Y-15065524D01*
X4328333Y-15065524D02*
X4337857Y-15084571D01*
X4337857Y-15084571D02*
X4347381Y-15122667D01*
X4347381Y-15122667D02*
X4347381Y-15170286D01*
X4347381Y-15170286D02*
X4337857Y-15208381D01*
X4337857Y-15208381D02*
X4328333Y-15227428D01*
X4328333Y-15227428D02*
X4318810Y-15236952D01*
X4318810Y-15236952D02*
X4299762Y-15246476D01*
X4299762Y-15246476D02*
X4280714Y-15246476D01*
X4280714Y-15246476D02*
X4261667Y-15236952D01*
X4261667Y-15236952D02*
X4252143Y-15227428D01*
X4252143Y-15227428D02*
X4242619Y-15208381D01*
X4242619Y-15208381D02*
X4233095Y-15170286D01*
X4233095Y-15170286D02*
X4233095Y-15122667D01*
X4233095Y-15122667D02*
X4242619Y-15084571D01*
X4242619Y-15084571D02*
X4252143Y-15065524D01*
X4252143Y-15065524D02*
X4261667Y-15056000D01*
X4261667Y-15056000D02*
X4280714Y-15046476D01*
X4433095Y-15227428D02*
X4442619Y-15236952D01*
X4442619Y-15236952D02*
X4433095Y-15246476D01*
X4433095Y-15246476D02*
X4423571Y-15236952D01*
X4423571Y-15236952D02*
X4433095Y-15227428D01*
X4433095Y-15227428D02*
X4433095Y-15246476D01*
X4556905Y-15132190D02*
X4537857Y-15122667D01*
X4537857Y-15122667D02*
X4528333Y-15113143D01*
X4528333Y-15113143D02*
X4518810Y-15094095D01*
X4518810Y-15094095D02*
X4518810Y-15084571D01*
X4518810Y-15084571D02*
X4528333Y-15065524D01*
X4528333Y-15065524D02*
X4537857Y-15056000D01*
X4537857Y-15056000D02*
X4556905Y-15046476D01*
X4556905Y-15046476D02*
X4595000Y-15046476D01*
X4595000Y-15046476D02*
X4614048Y-15056000D01*
X4614048Y-15056000D02*
X4623571Y-15065524D01*
X4623571Y-15065524D02*
X4633095Y-15084571D01*
X4633095Y-15084571D02*
X4633095Y-15094095D01*
X4633095Y-15094095D02*
X4623571Y-15113143D01*
X4623571Y-15113143D02*
X4614048Y-15122667D01*
X4614048Y-15122667D02*
X4595000Y-15132190D01*
X4595000Y-15132190D02*
X4556905Y-15132190D01*
X4556905Y-15132190D02*
X4537857Y-15141714D01*
X4537857Y-15141714D02*
X4528333Y-15151238D01*
X4528333Y-15151238D02*
X4518810Y-15170286D01*
X4518810Y-15170286D02*
X4518810Y-15208381D01*
X4518810Y-15208381D02*
X4528333Y-15227428D01*
X4528333Y-15227428D02*
X4537857Y-15236952D01*
X4537857Y-15236952D02*
X4556905Y-15246476D01*
X4556905Y-15246476D02*
X4595000Y-15246476D01*
X4595000Y-15246476D02*
X4614048Y-15236952D01*
X4614048Y-15236952D02*
X4623571Y-15227428D01*
X4623571Y-15227428D02*
X4633095Y-15208381D01*
X4633095Y-15208381D02*
X4633095Y-15170286D01*
X4633095Y-15170286D02*
X4623571Y-15151238D01*
X4623571Y-15151238D02*
X4614048Y-15141714D01*
X4614048Y-15141714D02*
X4595000Y-15132190D01*
X4756905Y-15046476D02*
X4775952Y-15046476D01*
X4775952Y-15046476D02*
X4795000Y-15056000D01*
X4795000Y-15056000D02*
X4804524Y-15065524D01*
X4804524Y-15065524D02*
X4814048Y-15084571D01*
X4814048Y-15084571D02*
X4823571Y-15122667D01*
X4823571Y-15122667D02*
X4823571Y-15170286D01*
X4823571Y-15170286D02*
X4814048Y-15208381D01*
X4814048Y-15208381D02*
X4804524Y-15227428D01*
X4804524Y-15227428D02*
X4795000Y-15236952D01*
X4795000Y-15236952D02*
X4775952Y-15246476D01*
X4775952Y-15246476D02*
X4756905Y-15246476D01*
X4756905Y-15246476D02*
X4737857Y-15236952D01*
X4737857Y-15236952D02*
X4728333Y-15227428D01*
X4728333Y-15227428D02*
X4718810Y-15208381D01*
X4718810Y-15208381D02*
X4709286Y-15170286D01*
X4709286Y-15170286D02*
X4709286Y-15122667D01*
X4709286Y-15122667D02*
X4718810Y-15084571D01*
X4718810Y-15084571D02*
X4728333Y-15065524D01*
X4728333Y-15065524D02*
X4737857Y-15056000D01*
X4737857Y-15056000D02*
X4756905Y-15046476D01*
X4947381Y-15046476D02*
X4966429Y-15046476D01*
X4966429Y-15046476D02*
X4985476Y-15056000D01*
X4985476Y-15056000D02*
X4995000Y-15065524D01*
X4995000Y-15065524D02*
X5004524Y-15084571D01*
X5004524Y-15084571D02*
X5014048Y-15122667D01*
X5014048Y-15122667D02*
X5014048Y-15170286D01*
X5014048Y-15170286D02*
X5004524Y-15208381D01*
X5004524Y-15208381D02*
X4995000Y-15227428D01*
X4995000Y-15227428D02*
X4985476Y-15236952D01*
X4985476Y-15236952D02*
X4966429Y-15246476D01*
X4966429Y-15246476D02*
X4947381Y-15246476D01*
X4947381Y-15246476D02*
X4928333Y-15236952D01*
X4928333Y-15236952D02*
X4918810Y-15227428D01*
X4918810Y-15227428D02*
X4909286Y-15208381D01*
X4909286Y-15208381D02*
X4899762Y-15170286D01*
X4899762Y-15170286D02*
X4899762Y-15122667D01*
X4899762Y-15122667D02*
X4909286Y-15084571D01*
X4909286Y-15084571D02*
X4918810Y-15065524D01*
X4918810Y-15065524D02*
X4928333Y-15056000D01*
X4928333Y-15056000D02*
X4947381Y-15046476D01*
X5099762Y-15246476D02*
X5099762Y-15113143D01*
X5099762Y-15132190D02*
X5109286Y-15122667D01*
X5109286Y-15122667D02*
X5128333Y-15113143D01*
X5128333Y-15113143D02*
X5156905Y-15113143D01*
X5156905Y-15113143D02*
X5175952Y-15122667D01*
X5175952Y-15122667D02*
X5185476Y-15141714D01*
X5185476Y-15141714D02*
X5185476Y-15246476D01*
X5185476Y-15141714D02*
X5195000Y-15122667D01*
X5195000Y-15122667D02*
X5214048Y-15113143D01*
X5214048Y-15113143D02*
X5242619Y-15113143D01*
X5242619Y-15113143D02*
X5261667Y-15122667D01*
X5261667Y-15122667D02*
X5271191Y-15141714D01*
X5271191Y-15141714D02*
X5271191Y-15246476D01*
X5366429Y-15246476D02*
X5366429Y-15113143D01*
X5366429Y-15132190D02*
X5375952Y-15122667D01*
X5375952Y-15122667D02*
X5395000Y-15113143D01*
X5395000Y-15113143D02*
X5423572Y-15113143D01*
X5423572Y-15113143D02*
X5442619Y-15122667D01*
X5442619Y-15122667D02*
X5452143Y-15141714D01*
X5452143Y-15141714D02*
X5452143Y-15246476D01*
X5452143Y-15141714D02*
X5461667Y-15122667D01*
X5461667Y-15122667D02*
X5480714Y-15113143D01*
X5480714Y-15113143D02*
X5509286Y-15113143D01*
X5509286Y-15113143D02*
X5528333Y-15122667D01*
X5528333Y-15122667D02*
X5537857Y-15141714D01*
X5537857Y-15141714D02*
X5537857Y-15246476D01*
X5895952Y-15036952D02*
X5724524Y-15294095D01*
X6120714Y-15046476D02*
X6139762Y-15046476D01*
X6139762Y-15046476D02*
X6158810Y-15056000D01*
X6158810Y-15056000D02*
X6168333Y-15065524D01*
X6168333Y-15065524D02*
X6177857Y-15084571D01*
X6177857Y-15084571D02*
X6187381Y-15122667D01*
X6187381Y-15122667D02*
X6187381Y-15170286D01*
X6187381Y-15170286D02*
X6177857Y-15208381D01*
X6177857Y-15208381D02*
X6168333Y-15227428D01*
X6168333Y-15227428D02*
X6158810Y-15236952D01*
X6158810Y-15236952D02*
X6139762Y-15246476D01*
X6139762Y-15246476D02*
X6120714Y-15246476D01*
X6120714Y-15246476D02*
X6101667Y-15236952D01*
X6101667Y-15236952D02*
X6092143Y-15227428D01*
X6092143Y-15227428D02*
X6082619Y-15208381D01*
X6082619Y-15208381D02*
X6073095Y-15170286D01*
X6073095Y-15170286D02*
X6073095Y-15122667D01*
X6073095Y-15122667D02*
X6082619Y-15084571D01*
X6082619Y-15084571D02*
X6092143Y-15065524D01*
X6092143Y-15065524D02*
X6101667Y-15056000D01*
X6101667Y-15056000D02*
X6120714Y-15046476D01*
X6273095Y-15227428D02*
X6282619Y-15236952D01*
X6282619Y-15236952D02*
X6273095Y-15246476D01*
X6273095Y-15246476D02*
X6263571Y-15236952D01*
X6263571Y-15236952D02*
X6273095Y-15227428D01*
X6273095Y-15227428D02*
X6273095Y-15246476D01*
X6406429Y-15046476D02*
X6425476Y-15046476D01*
X6425476Y-15046476D02*
X6444524Y-15056000D01*
X6444524Y-15056000D02*
X6454048Y-15065524D01*
X6454048Y-15065524D02*
X6463571Y-15084571D01*
X6463571Y-15084571D02*
X6473095Y-15122667D01*
X6473095Y-15122667D02*
X6473095Y-15170286D01*
X6473095Y-15170286D02*
X6463571Y-15208381D01*
X6463571Y-15208381D02*
X6454048Y-15227428D01*
X6454048Y-15227428D02*
X6444524Y-15236952D01*
X6444524Y-15236952D02*
X6425476Y-15246476D01*
X6425476Y-15246476D02*
X6406429Y-15246476D01*
X6406429Y-15246476D02*
X6387381Y-15236952D01*
X6387381Y-15236952D02*
X6377857Y-15227428D01*
X6377857Y-15227428D02*
X6368333Y-15208381D01*
X6368333Y-15208381D02*
X6358810Y-15170286D01*
X6358810Y-15170286D02*
X6358810Y-15122667D01*
X6358810Y-15122667D02*
X6368333Y-15084571D01*
X6368333Y-15084571D02*
X6377857Y-15065524D01*
X6377857Y-15065524D02*
X6387381Y-15056000D01*
X6387381Y-15056000D02*
X6406429Y-15046476D01*
X6539762Y-15046476D02*
X6663571Y-15046476D01*
X6663571Y-15046476D02*
X6596905Y-15122667D01*
X6596905Y-15122667D02*
X6625476Y-15122667D01*
X6625476Y-15122667D02*
X6644524Y-15132190D01*
X6644524Y-15132190D02*
X6654048Y-15141714D01*
X6654048Y-15141714D02*
X6663571Y-15160762D01*
X6663571Y-15160762D02*
X6663571Y-15208381D01*
X6663571Y-15208381D02*
X6654048Y-15227428D01*
X6654048Y-15227428D02*
X6644524Y-15236952D01*
X6644524Y-15236952D02*
X6625476Y-15246476D01*
X6625476Y-15246476D02*
X6568333Y-15246476D01*
X6568333Y-15246476D02*
X6549286Y-15236952D01*
X6549286Y-15236952D02*
X6539762Y-15227428D01*
X6854048Y-15246476D02*
X6739762Y-15246476D01*
X6796905Y-15246476D02*
X6796905Y-15046476D01*
X6796905Y-15046476D02*
X6777857Y-15075048D01*
X6777857Y-15075048D02*
X6758810Y-15094095D01*
X6758810Y-15094095D02*
X6739762Y-15103619D01*
X7035000Y-15046476D02*
X6939762Y-15046476D01*
X6939762Y-15046476D02*
X6930238Y-15141714D01*
X6930238Y-15141714D02*
X6939762Y-15132190D01*
X6939762Y-15132190D02*
X6958810Y-15122667D01*
X6958810Y-15122667D02*
X7006429Y-15122667D01*
X7006429Y-15122667D02*
X7025476Y-15132190D01*
X7025476Y-15132190D02*
X7035000Y-15141714D01*
X7035000Y-15141714D02*
X7044524Y-15160762D01*
X7044524Y-15160762D02*
X7044524Y-15208381D01*
X7044524Y-15208381D02*
X7035000Y-15227428D01*
X7035000Y-15227428D02*
X7025476Y-15236952D01*
X7025476Y-15236952D02*
X7006429Y-15246476D01*
X7006429Y-15246476D02*
X6958810Y-15246476D01*
X6958810Y-15246476D02*
X6939762Y-15236952D01*
X6939762Y-15236952D02*
X6930238Y-15227428D01*
X7120714Y-15046476D02*
X7120714Y-15084571D01*
X7196905Y-15046476D02*
X7196905Y-15084571D01*
X7459762Y-15322667D02*
X7450238Y-15313143D01*
X7450238Y-15313143D02*
X7431191Y-15284571D01*
X7431191Y-15284571D02*
X7421667Y-15265524D01*
X7421667Y-15265524D02*
X7412143Y-15236952D01*
X7412143Y-15236952D02*
X7402619Y-15189333D01*
X7402619Y-15189333D02*
X7402619Y-15151238D01*
X7402619Y-15151238D02*
X7412143Y-15103619D01*
X7412143Y-15103619D02*
X7421667Y-15075048D01*
X7421667Y-15075048D02*
X7431191Y-15056000D01*
X7431191Y-15056000D02*
X7450238Y-15027428D01*
X7450238Y-15027428D02*
X7459762Y-15017905D01*
X7640714Y-15246476D02*
X7526429Y-15246476D01*
X7583571Y-15246476D02*
X7583571Y-15046476D01*
X7583571Y-15046476D02*
X7564524Y-15075048D01*
X7564524Y-15075048D02*
X7545476Y-15094095D01*
X7545476Y-15094095D02*
X7526429Y-15103619D01*
X7716905Y-15065524D02*
X7726429Y-15056000D01*
X7726429Y-15056000D02*
X7745476Y-15046476D01*
X7745476Y-15046476D02*
X7793095Y-15046476D01*
X7793095Y-15046476D02*
X7812143Y-15056000D01*
X7812143Y-15056000D02*
X7821667Y-15065524D01*
X7821667Y-15065524D02*
X7831191Y-15084571D01*
X7831191Y-15084571D02*
X7831191Y-15103619D01*
X7831191Y-15103619D02*
X7821667Y-15132190D01*
X7821667Y-15132190D02*
X7707381Y-15246476D01*
X7707381Y-15246476D02*
X7831191Y-15246476D01*
X7955000Y-15046476D02*
X7974048Y-15046476D01*
X7974048Y-15046476D02*
X7993095Y-15056000D01*
X7993095Y-15056000D02*
X8002619Y-15065524D01*
X8002619Y-15065524D02*
X8012143Y-15084571D01*
X8012143Y-15084571D02*
X8021667Y-15122667D01*
X8021667Y-15122667D02*
X8021667Y-15170286D01*
X8021667Y-15170286D02*
X8012143Y-15208381D01*
X8012143Y-15208381D02*
X8002619Y-15227428D01*
X8002619Y-15227428D02*
X7993095Y-15236952D01*
X7993095Y-15236952D02*
X7974048Y-15246476D01*
X7974048Y-15246476D02*
X7955000Y-15246476D01*
X7955000Y-15246476D02*
X7935952Y-15236952D01*
X7935952Y-15236952D02*
X7926429Y-15227428D01*
X7926429Y-15227428D02*
X7916905Y-15208381D01*
X7916905Y-15208381D02*
X7907381Y-15170286D01*
X7907381Y-15170286D02*
X7907381Y-15122667D01*
X7907381Y-15122667D02*
X7916905Y-15084571D01*
X7916905Y-15084571D02*
X7926429Y-15065524D01*
X7926429Y-15065524D02*
X7935952Y-15056000D01*
X7935952Y-15056000D02*
X7955000Y-15046476D01*
X8227381Y-15246476D02*
X8227381Y-15046476D01*
X8313095Y-15246476D02*
X8313095Y-15141714D01*
X8313095Y-15141714D02*
X8303572Y-15122667D01*
X8303572Y-15122667D02*
X8284524Y-15113143D01*
X8284524Y-15113143D02*
X8255952Y-15113143D01*
X8255952Y-15113143D02*
X8236905Y-15122667D01*
X8236905Y-15122667D02*
X8227381Y-15132190D01*
X8436905Y-15246476D02*
X8417857Y-15236952D01*
X8417857Y-15236952D02*
X8408334Y-15227428D01*
X8408334Y-15227428D02*
X8398810Y-15208381D01*
X8398810Y-15208381D02*
X8398810Y-15151238D01*
X8398810Y-15151238D02*
X8408334Y-15132190D01*
X8408334Y-15132190D02*
X8417857Y-15122667D01*
X8417857Y-15122667D02*
X8436905Y-15113143D01*
X8436905Y-15113143D02*
X8465476Y-15113143D01*
X8465476Y-15113143D02*
X8484524Y-15122667D01*
X8484524Y-15122667D02*
X8494048Y-15132190D01*
X8494048Y-15132190D02*
X8503572Y-15151238D01*
X8503572Y-15151238D02*
X8503572Y-15208381D01*
X8503572Y-15208381D02*
X8494048Y-15227428D01*
X8494048Y-15227428D02*
X8484524Y-15236952D01*
X8484524Y-15236952D02*
X8465476Y-15246476D01*
X8465476Y-15246476D02*
X8436905Y-15246476D01*
X8617857Y-15246476D02*
X8598810Y-15236952D01*
X8598810Y-15236952D02*
X8589286Y-15217905D01*
X8589286Y-15217905D02*
X8589286Y-15046476D01*
X8770238Y-15236952D02*
X8751191Y-15246476D01*
X8751191Y-15246476D02*
X8713095Y-15246476D01*
X8713095Y-15246476D02*
X8694048Y-15236952D01*
X8694048Y-15236952D02*
X8684524Y-15217905D01*
X8684524Y-15217905D02*
X8684524Y-15141714D01*
X8684524Y-15141714D02*
X8694048Y-15122667D01*
X8694048Y-15122667D02*
X8713095Y-15113143D01*
X8713095Y-15113143D02*
X8751191Y-15113143D01*
X8751191Y-15113143D02*
X8770238Y-15122667D01*
X8770238Y-15122667D02*
X8779762Y-15141714D01*
X8779762Y-15141714D02*
X8779762Y-15160762D01*
X8779762Y-15160762D02*
X8684524Y-15179809D01*
X8855953Y-15236952D02*
X8875000Y-15246476D01*
X8875000Y-15246476D02*
X8913095Y-15246476D01*
X8913095Y-15246476D02*
X8932143Y-15236952D01*
X8932143Y-15236952D02*
X8941667Y-15217905D01*
X8941667Y-15217905D02*
X8941667Y-15208381D01*
X8941667Y-15208381D02*
X8932143Y-15189333D01*
X8932143Y-15189333D02*
X8913095Y-15179809D01*
X8913095Y-15179809D02*
X8884524Y-15179809D01*
X8884524Y-15179809D02*
X8865476Y-15170286D01*
X8865476Y-15170286D02*
X8855953Y-15151238D01*
X8855953Y-15151238D02*
X8855953Y-15141714D01*
X8855953Y-15141714D02*
X8865476Y-15122667D01*
X8865476Y-15122667D02*
X8884524Y-15113143D01*
X8884524Y-15113143D02*
X8913095Y-15113143D01*
X8913095Y-15113143D02*
X8932143Y-15122667D01*
X9008334Y-15322667D02*
X9017857Y-15313143D01*
X9017857Y-15313143D02*
X9036905Y-15284571D01*
X9036905Y-15284571D02*
X9046429Y-15265524D01*
X9046429Y-15265524D02*
X9055953Y-15236952D01*
X9055953Y-15236952D02*
X9065476Y-15189333D01*
X9065476Y-15189333D02*
X9065476Y-15151238D01*
X9065476Y-15151238D02*
X9055953Y-15103619D01*
X9055953Y-15103619D02*
X9046429Y-15075048D01*
X9046429Y-15075048D02*
X9036905Y-15056000D01*
X9036905Y-15056000D02*
X9017857Y-15027428D01*
X9017857Y-15027428D02*
X9008334Y-15017905D01*
D10*
X3980356Y-15472356D02*
X3980356Y-15401644D01*
X3909644Y-15401644D01*
X3909644Y-15472356D01*
X3980356Y-15472356D01*
D11*
X4347381Y-15510476D02*
X4233095Y-15510476D01*
X4290238Y-15510476D02*
X4290238Y-15310476D01*
X4290238Y-15310476D02*
X4271190Y-15339048D01*
X4271190Y-15339048D02*
X4252143Y-15358095D01*
X4252143Y-15358095D02*
X4233095Y-15367619D01*
X4433095Y-15491428D02*
X4442619Y-15500952D01*
X4442619Y-15500952D02*
X4433095Y-15510476D01*
X4433095Y-15510476D02*
X4423571Y-15500952D01*
X4423571Y-15500952D02*
X4433095Y-15491428D01*
X4433095Y-15491428D02*
X4433095Y-15510476D01*
X4566429Y-15310476D02*
X4585476Y-15310476D01*
X4585476Y-15310476D02*
X4604524Y-15320000D01*
X4604524Y-15320000D02*
X4614048Y-15329524D01*
X4614048Y-15329524D02*
X4623571Y-15348571D01*
X4623571Y-15348571D02*
X4633095Y-15386667D01*
X4633095Y-15386667D02*
X4633095Y-15434286D01*
X4633095Y-15434286D02*
X4623571Y-15472381D01*
X4623571Y-15472381D02*
X4614048Y-15491428D01*
X4614048Y-15491428D02*
X4604524Y-15500952D01*
X4604524Y-15500952D02*
X4585476Y-15510476D01*
X4585476Y-15510476D02*
X4566429Y-15510476D01*
X4566429Y-15510476D02*
X4547381Y-15500952D01*
X4547381Y-15500952D02*
X4537857Y-15491428D01*
X4537857Y-15491428D02*
X4528333Y-15472381D01*
X4528333Y-15472381D02*
X4518810Y-15434286D01*
X4518810Y-15434286D02*
X4518810Y-15386667D01*
X4518810Y-15386667D02*
X4528333Y-15348571D01*
X4528333Y-15348571D02*
X4537857Y-15329524D01*
X4537857Y-15329524D02*
X4547381Y-15320000D01*
X4547381Y-15320000D02*
X4566429Y-15310476D01*
X4756905Y-15310476D02*
X4775952Y-15310476D01*
X4775952Y-15310476D02*
X4795000Y-15320000D01*
X4795000Y-15320000D02*
X4804524Y-15329524D01*
X4804524Y-15329524D02*
X4814048Y-15348571D01*
X4814048Y-15348571D02*
X4823571Y-15386667D01*
X4823571Y-15386667D02*
X4823571Y-15434286D01*
X4823571Y-15434286D02*
X4814048Y-15472381D01*
X4814048Y-15472381D02*
X4804524Y-15491428D01*
X4804524Y-15491428D02*
X4795000Y-15500952D01*
X4795000Y-15500952D02*
X4775952Y-15510476D01*
X4775952Y-15510476D02*
X4756905Y-15510476D01*
X4756905Y-15510476D02*
X4737857Y-15500952D01*
X4737857Y-15500952D02*
X4728333Y-15491428D01*
X4728333Y-15491428D02*
X4718810Y-15472381D01*
X4718810Y-15472381D02*
X4709286Y-15434286D01*
X4709286Y-15434286D02*
X4709286Y-15386667D01*
X4709286Y-15386667D02*
X4718810Y-15348571D01*
X4718810Y-15348571D02*
X4728333Y-15329524D01*
X4728333Y-15329524D02*
X4737857Y-15320000D01*
X4737857Y-15320000D02*
X4756905Y-15310476D01*
X4947381Y-15310476D02*
X4966429Y-15310476D01*
X4966429Y-15310476D02*
X4985476Y-15320000D01*
X4985476Y-15320000D02*
X4995000Y-15329524D01*
X4995000Y-15329524D02*
X5004524Y-15348571D01*
X5004524Y-15348571D02*
X5014048Y-15386667D01*
X5014048Y-15386667D02*
X5014048Y-15434286D01*
X5014048Y-15434286D02*
X5004524Y-15472381D01*
X5004524Y-15472381D02*
X4995000Y-15491428D01*
X4995000Y-15491428D02*
X4985476Y-15500952D01*
X4985476Y-15500952D02*
X4966429Y-15510476D01*
X4966429Y-15510476D02*
X4947381Y-15510476D01*
X4947381Y-15510476D02*
X4928333Y-15500952D01*
X4928333Y-15500952D02*
X4918810Y-15491428D01*
X4918810Y-15491428D02*
X4909286Y-15472381D01*
X4909286Y-15472381D02*
X4899762Y-15434286D01*
X4899762Y-15434286D02*
X4899762Y-15386667D01*
X4899762Y-15386667D02*
X4909286Y-15348571D01*
X4909286Y-15348571D02*
X4918810Y-15329524D01*
X4918810Y-15329524D02*
X4928333Y-15320000D01*
X4928333Y-15320000D02*
X4947381Y-15310476D01*
X5099762Y-15510476D02*
X5099762Y-15377143D01*
X5099762Y-15396190D02*
X5109286Y-15386667D01*
X5109286Y-15386667D02*
X5128333Y-15377143D01*
X5128333Y-15377143D02*
X5156905Y-15377143D01*
X5156905Y-15377143D02*
X5175952Y-15386667D01*
X5175952Y-15386667D02*
X5185476Y-15405714D01*
X5185476Y-15405714D02*
X5185476Y-15510476D01*
X5185476Y-15405714D02*
X5195000Y-15386667D01*
X5195000Y-15386667D02*
X5214048Y-15377143D01*
X5214048Y-15377143D02*
X5242619Y-15377143D01*
X5242619Y-15377143D02*
X5261667Y-15386667D01*
X5261667Y-15386667D02*
X5271191Y-15405714D01*
X5271191Y-15405714D02*
X5271191Y-15510476D01*
X5366429Y-15510476D02*
X5366429Y-15377143D01*
X5366429Y-15396190D02*
X5375952Y-15386667D01*
X5375952Y-15386667D02*
X5395000Y-15377143D01*
X5395000Y-15377143D02*
X5423572Y-15377143D01*
X5423572Y-15377143D02*
X5442619Y-15386667D01*
X5442619Y-15386667D02*
X5452143Y-15405714D01*
X5452143Y-15405714D02*
X5452143Y-15510476D01*
X5452143Y-15405714D02*
X5461667Y-15386667D01*
X5461667Y-15386667D02*
X5480714Y-15377143D01*
X5480714Y-15377143D02*
X5509286Y-15377143D01*
X5509286Y-15377143D02*
X5528333Y-15386667D01*
X5528333Y-15386667D02*
X5537857Y-15405714D01*
X5537857Y-15405714D02*
X5537857Y-15510476D01*
X5895952Y-15300952D02*
X5724524Y-15558095D01*
X6120714Y-15310476D02*
X6139762Y-15310476D01*
X6139762Y-15310476D02*
X6158810Y-15320000D01*
X6158810Y-15320000D02*
X6168333Y-15329524D01*
X6168333Y-15329524D02*
X6177857Y-15348571D01*
X6177857Y-15348571D02*
X6187381Y-15386667D01*
X6187381Y-15386667D02*
X6187381Y-15434286D01*
X6187381Y-15434286D02*
X6177857Y-15472381D01*
X6177857Y-15472381D02*
X6168333Y-15491428D01*
X6168333Y-15491428D02*
X6158810Y-15500952D01*
X6158810Y-15500952D02*
X6139762Y-15510476D01*
X6139762Y-15510476D02*
X6120714Y-15510476D01*
X6120714Y-15510476D02*
X6101667Y-15500952D01*
X6101667Y-15500952D02*
X6092143Y-15491428D01*
X6092143Y-15491428D02*
X6082619Y-15472381D01*
X6082619Y-15472381D02*
X6073095Y-15434286D01*
X6073095Y-15434286D02*
X6073095Y-15386667D01*
X6073095Y-15386667D02*
X6082619Y-15348571D01*
X6082619Y-15348571D02*
X6092143Y-15329524D01*
X6092143Y-15329524D02*
X6101667Y-15320000D01*
X6101667Y-15320000D02*
X6120714Y-15310476D01*
X6273095Y-15491428D02*
X6282619Y-15500952D01*
X6282619Y-15500952D02*
X6273095Y-15510476D01*
X6273095Y-15510476D02*
X6263571Y-15500952D01*
X6263571Y-15500952D02*
X6273095Y-15491428D01*
X6273095Y-15491428D02*
X6273095Y-15510476D01*
X6406429Y-15310476D02*
X6425476Y-15310476D01*
X6425476Y-15310476D02*
X6444524Y-15320000D01*
X6444524Y-15320000D02*
X6454048Y-15329524D01*
X6454048Y-15329524D02*
X6463571Y-15348571D01*
X6463571Y-15348571D02*
X6473095Y-15386667D01*
X6473095Y-15386667D02*
X6473095Y-15434286D01*
X6473095Y-15434286D02*
X6463571Y-15472381D01*
X6463571Y-15472381D02*
X6454048Y-15491428D01*
X6454048Y-15491428D02*
X6444524Y-15500952D01*
X6444524Y-15500952D02*
X6425476Y-15510476D01*
X6425476Y-15510476D02*
X6406429Y-15510476D01*
X6406429Y-15510476D02*
X6387381Y-15500952D01*
X6387381Y-15500952D02*
X6377857Y-15491428D01*
X6377857Y-15491428D02*
X6368333Y-15472381D01*
X6368333Y-15472381D02*
X6358810Y-15434286D01*
X6358810Y-15434286D02*
X6358810Y-15386667D01*
X6358810Y-15386667D02*
X6368333Y-15348571D01*
X6368333Y-15348571D02*
X6377857Y-15329524D01*
X6377857Y-15329524D02*
X6387381Y-15320000D01*
X6387381Y-15320000D02*
X6406429Y-15310476D01*
X6539762Y-15310476D02*
X6663571Y-15310476D01*
X6663571Y-15310476D02*
X6596905Y-15386667D01*
X6596905Y-15386667D02*
X6625476Y-15386667D01*
X6625476Y-15386667D02*
X6644524Y-15396190D01*
X6644524Y-15396190D02*
X6654048Y-15405714D01*
X6654048Y-15405714D02*
X6663571Y-15424762D01*
X6663571Y-15424762D02*
X6663571Y-15472381D01*
X6663571Y-15472381D02*
X6654048Y-15491428D01*
X6654048Y-15491428D02*
X6644524Y-15500952D01*
X6644524Y-15500952D02*
X6625476Y-15510476D01*
X6625476Y-15510476D02*
X6568333Y-15510476D01*
X6568333Y-15510476D02*
X6549286Y-15500952D01*
X6549286Y-15500952D02*
X6539762Y-15491428D01*
X6758810Y-15510476D02*
X6796905Y-15510476D01*
X6796905Y-15510476D02*
X6815952Y-15500952D01*
X6815952Y-15500952D02*
X6825476Y-15491428D01*
X6825476Y-15491428D02*
X6844524Y-15462857D01*
X6844524Y-15462857D02*
X6854048Y-15424762D01*
X6854048Y-15424762D02*
X6854048Y-15348571D01*
X6854048Y-15348571D02*
X6844524Y-15329524D01*
X6844524Y-15329524D02*
X6835000Y-15320000D01*
X6835000Y-15320000D02*
X6815952Y-15310476D01*
X6815952Y-15310476D02*
X6777857Y-15310476D01*
X6777857Y-15310476D02*
X6758810Y-15320000D01*
X6758810Y-15320000D02*
X6749286Y-15329524D01*
X6749286Y-15329524D02*
X6739762Y-15348571D01*
X6739762Y-15348571D02*
X6739762Y-15396190D01*
X6739762Y-15396190D02*
X6749286Y-15415238D01*
X6749286Y-15415238D02*
X6758810Y-15424762D01*
X6758810Y-15424762D02*
X6777857Y-15434286D01*
X6777857Y-15434286D02*
X6815952Y-15434286D01*
X6815952Y-15434286D02*
X6835000Y-15424762D01*
X6835000Y-15424762D02*
X6844524Y-15415238D01*
X6844524Y-15415238D02*
X6854048Y-15396190D01*
X7025476Y-15377143D02*
X7025476Y-15510476D01*
X6977857Y-15300952D02*
X6930238Y-15443809D01*
X6930238Y-15443809D02*
X7054048Y-15443809D01*
X7120714Y-15310476D02*
X7120714Y-15348571D01*
X7196905Y-15310476D02*
X7196905Y-15348571D01*
X7459762Y-15586667D02*
X7450238Y-15577143D01*
X7450238Y-15577143D02*
X7431191Y-15548571D01*
X7431191Y-15548571D02*
X7421667Y-15529524D01*
X7421667Y-15529524D02*
X7412143Y-15500952D01*
X7412143Y-15500952D02*
X7402619Y-15453333D01*
X7402619Y-15453333D02*
X7402619Y-15415238D01*
X7402619Y-15415238D02*
X7412143Y-15367619D01*
X7412143Y-15367619D02*
X7421667Y-15339048D01*
X7421667Y-15339048D02*
X7431191Y-15320000D01*
X7431191Y-15320000D02*
X7450238Y-15291428D01*
X7450238Y-15291428D02*
X7459762Y-15281905D01*
X7621667Y-15310476D02*
X7583571Y-15310476D01*
X7583571Y-15310476D02*
X7564524Y-15320000D01*
X7564524Y-15320000D02*
X7555000Y-15329524D01*
X7555000Y-15329524D02*
X7535952Y-15358095D01*
X7535952Y-15358095D02*
X7526429Y-15396190D01*
X7526429Y-15396190D02*
X7526429Y-15472381D01*
X7526429Y-15472381D02*
X7535952Y-15491428D01*
X7535952Y-15491428D02*
X7545476Y-15500952D01*
X7545476Y-15500952D02*
X7564524Y-15510476D01*
X7564524Y-15510476D02*
X7602619Y-15510476D01*
X7602619Y-15510476D02*
X7621667Y-15500952D01*
X7621667Y-15500952D02*
X7631191Y-15491428D01*
X7631191Y-15491428D02*
X7640714Y-15472381D01*
X7640714Y-15472381D02*
X7640714Y-15424762D01*
X7640714Y-15424762D02*
X7631191Y-15405714D01*
X7631191Y-15405714D02*
X7621667Y-15396190D01*
X7621667Y-15396190D02*
X7602619Y-15386667D01*
X7602619Y-15386667D02*
X7564524Y-15386667D01*
X7564524Y-15386667D02*
X7545476Y-15396190D01*
X7545476Y-15396190D02*
X7535952Y-15405714D01*
X7535952Y-15405714D02*
X7526429Y-15424762D01*
X7764524Y-15310476D02*
X7783572Y-15310476D01*
X7783572Y-15310476D02*
X7802619Y-15320000D01*
X7802619Y-15320000D02*
X7812143Y-15329524D01*
X7812143Y-15329524D02*
X7821667Y-15348571D01*
X7821667Y-15348571D02*
X7831191Y-15386667D01*
X7831191Y-15386667D02*
X7831191Y-15434286D01*
X7831191Y-15434286D02*
X7821667Y-15472381D01*
X7821667Y-15472381D02*
X7812143Y-15491428D01*
X7812143Y-15491428D02*
X7802619Y-15500952D01*
X7802619Y-15500952D02*
X7783572Y-15510476D01*
X7783572Y-15510476D02*
X7764524Y-15510476D01*
X7764524Y-15510476D02*
X7745476Y-15500952D01*
X7745476Y-15500952D02*
X7735952Y-15491428D01*
X7735952Y-15491428D02*
X7726429Y-15472381D01*
X7726429Y-15472381D02*
X7716905Y-15434286D01*
X7716905Y-15434286D02*
X7716905Y-15386667D01*
X7716905Y-15386667D02*
X7726429Y-15348571D01*
X7726429Y-15348571D02*
X7735952Y-15329524D01*
X7735952Y-15329524D02*
X7745476Y-15320000D01*
X7745476Y-15320000D02*
X7764524Y-15310476D01*
X8036905Y-15510476D02*
X8036905Y-15310476D01*
X8122619Y-15510476D02*
X8122619Y-15405714D01*
X8122619Y-15405714D02*
X8113095Y-15386667D01*
X8113095Y-15386667D02*
X8094048Y-15377143D01*
X8094048Y-15377143D02*
X8065476Y-15377143D01*
X8065476Y-15377143D02*
X8046429Y-15386667D01*
X8046429Y-15386667D02*
X8036905Y-15396190D01*
X8246429Y-15510476D02*
X8227381Y-15500952D01*
X8227381Y-15500952D02*
X8217857Y-15491428D01*
X8217857Y-15491428D02*
X8208333Y-15472381D01*
X8208333Y-15472381D02*
X8208333Y-15415238D01*
X8208333Y-15415238D02*
X8217857Y-15396190D01*
X8217857Y-15396190D02*
X8227381Y-15386667D01*
X8227381Y-15386667D02*
X8246429Y-15377143D01*
X8246429Y-15377143D02*
X8275000Y-15377143D01*
X8275000Y-15377143D02*
X8294048Y-15386667D01*
X8294048Y-15386667D02*
X8303572Y-15396190D01*
X8303572Y-15396190D02*
X8313095Y-15415238D01*
X8313095Y-15415238D02*
X8313095Y-15472381D01*
X8313095Y-15472381D02*
X8303572Y-15491428D01*
X8303572Y-15491428D02*
X8294048Y-15500952D01*
X8294048Y-15500952D02*
X8275000Y-15510476D01*
X8275000Y-15510476D02*
X8246429Y-15510476D01*
X8427381Y-15510476D02*
X8408334Y-15500952D01*
X8408334Y-15500952D02*
X8398810Y-15481905D01*
X8398810Y-15481905D02*
X8398810Y-15310476D01*
X8579762Y-15500952D02*
X8560715Y-15510476D01*
X8560715Y-15510476D02*
X8522619Y-15510476D01*
X8522619Y-15510476D02*
X8503572Y-15500952D01*
X8503572Y-15500952D02*
X8494048Y-15481905D01*
X8494048Y-15481905D02*
X8494048Y-15405714D01*
X8494048Y-15405714D02*
X8503572Y-15386667D01*
X8503572Y-15386667D02*
X8522619Y-15377143D01*
X8522619Y-15377143D02*
X8560715Y-15377143D01*
X8560715Y-15377143D02*
X8579762Y-15386667D01*
X8579762Y-15386667D02*
X8589286Y-15405714D01*
X8589286Y-15405714D02*
X8589286Y-15424762D01*
X8589286Y-15424762D02*
X8494048Y-15443809D01*
X8665476Y-15500952D02*
X8684524Y-15510476D01*
X8684524Y-15510476D02*
X8722619Y-15510476D01*
X8722619Y-15510476D02*
X8741667Y-15500952D01*
X8741667Y-15500952D02*
X8751191Y-15481905D01*
X8751191Y-15481905D02*
X8751191Y-15472381D01*
X8751191Y-15472381D02*
X8741667Y-15453333D01*
X8741667Y-15453333D02*
X8722619Y-15443809D01*
X8722619Y-15443809D02*
X8694048Y-15443809D01*
X8694048Y-15443809D02*
X8675000Y-15434286D01*
X8675000Y-15434286D02*
X8665476Y-15415238D01*
X8665476Y-15415238D02*
X8665476Y-15405714D01*
X8665476Y-15405714D02*
X8675000Y-15386667D01*
X8675000Y-15386667D02*
X8694048Y-15377143D01*
X8694048Y-15377143D02*
X8722619Y-15377143D01*
X8722619Y-15377143D02*
X8741667Y-15386667D01*
X8817857Y-15586667D02*
X8827381Y-15577143D01*
X8827381Y-15577143D02*
X8846429Y-15548571D01*
X8846429Y-15548571D02*
X8855953Y-15529524D01*
X8855953Y-15529524D02*
X8865476Y-15500952D01*
X8865476Y-15500952D02*
X8875000Y-15453333D01*
X8875000Y-15453333D02*
X8875000Y-15415238D01*
X8875000Y-15415238D02*
X8865476Y-15367619D01*
X8865476Y-15367619D02*
X8855953Y-15339048D01*
X8855953Y-15339048D02*
X8846429Y-15320000D01*
X8846429Y-15320000D02*
X8827381Y-15291428D01*
X8827381Y-15291428D02*
X8817857Y-15281905D01*
M02*
