G04 #@! TF.GenerationSoftware,KiCad,Pcbnew,(7.0.0)*
G04 #@! TF.CreationDate,2023-06-04T12:20:01+02:00*
G04 #@! TF.ProjectId,DIN4_R5_KS,44494e34-5f52-4355-9f4b-532e6b696361,rev?*
G04 #@! TF.SameCoordinates,Original*
G04 #@! TF.FileFunction,Legend,Top*
G04 #@! TF.FilePolarity,Positive*
%FSLAX46Y46*%
G04 Gerber Fmt 4.6, Leading zero omitted, Abs format (unit mm)*
G04 Created by KiCad (PCBNEW (7.0.0)) date 2023-06-04 12:20:01*
%MOMM*%
%LPD*%
G01*
G04 APERTURE LIST*
G04 Aperture macros list*
%AMRoundRect*
0 Rectangle with rounded corners*
0 $1 Rounding radius*
0 $2 $3 $4 $5 $6 $7 $8 $9 X,Y pos of 4 corners*
0 Add a 4 corners polygon primitive as box body*
4,1,4,$2,$3,$4,$5,$6,$7,$8,$9,$2,$3,0*
0 Add four circle primitives for the rounded corners*
1,1,$1+$1,$2,$3*
1,1,$1+$1,$4,$5*
1,1,$1+$1,$6,$7*
1,1,$1+$1,$8,$9*
0 Add four rect primitives between the rounded corners*
20,1,$1+$1,$2,$3,$4,$5,0*
20,1,$1+$1,$4,$5,$6,$7,0*
20,1,$1+$1,$6,$7,$8,$9,0*
20,1,$1+$1,$8,$9,$2,$3,0*%
G04 Aperture macros list end*
%ADD10C,0.300000*%
%ADD11C,0.150000*%
%ADD12C,0.100000*%
%ADD13C,0.120000*%
%ADD14RoundRect,0.250000X-0.600000X-0.600000X0.600000X-0.600000X0.600000X0.600000X-0.600000X0.600000X0*%
%ADD15C,1.700000*%
%ADD16C,3.200000*%
%ADD17C,1.400000*%
%ADD18O,1.400000X1.400000*%
%ADD19RoundRect,0.250000X0.600000X-0.600000X0.600000X0.600000X-0.600000X0.600000X-0.600000X-0.600000X0*%
%ADD20C,1.600000*%
%ADD21R,1.600000X1.600000*%
%ADD22O,1.600000X1.600000*%
G04 APERTURE END LIST*
D10*
X134357142Y-100173571D02*
X134357142Y-98673571D01*
X134357142Y-98673571D02*
X134714285Y-98673571D01*
X134714285Y-98673571D02*
X134928571Y-98745000D01*
X134928571Y-98745000D02*
X135071428Y-98887857D01*
X135071428Y-98887857D02*
X135142857Y-99030714D01*
X135142857Y-99030714D02*
X135214285Y-99316428D01*
X135214285Y-99316428D02*
X135214285Y-99530714D01*
X135214285Y-99530714D02*
X135142857Y-99816428D01*
X135142857Y-99816428D02*
X135071428Y-99959285D01*
X135071428Y-99959285D02*
X134928571Y-100102142D01*
X134928571Y-100102142D02*
X134714285Y-100173571D01*
X134714285Y-100173571D02*
X134357142Y-100173571D01*
X135857142Y-100173571D02*
X135857142Y-98673571D01*
X136571428Y-100173571D02*
X136571428Y-98673571D01*
X136571428Y-98673571D02*
X137428571Y-100173571D01*
X137428571Y-100173571D02*
X137428571Y-98673571D01*
D11*
X131026666Y-133867380D02*
X131026666Y-134581666D01*
X131026666Y-134581666D02*
X130979047Y-134724523D01*
X130979047Y-134724523D02*
X130883809Y-134819761D01*
X130883809Y-134819761D02*
X130740952Y-134867380D01*
X130740952Y-134867380D02*
X130645714Y-134867380D01*
X131455238Y-133962619D02*
X131502857Y-133915000D01*
X131502857Y-133915000D02*
X131598095Y-133867380D01*
X131598095Y-133867380D02*
X131836190Y-133867380D01*
X131836190Y-133867380D02*
X131931428Y-133915000D01*
X131931428Y-133915000D02*
X131979047Y-133962619D01*
X131979047Y-133962619D02*
X132026666Y-134057857D01*
X132026666Y-134057857D02*
X132026666Y-134153095D01*
X132026666Y-134153095D02*
X131979047Y-134295952D01*
X131979047Y-134295952D02*
X131407619Y-134867380D01*
X131407619Y-134867380D02*
X132026666Y-134867380D01*
D12*
X142725238Y-121890476D02*
X142677619Y-122033333D01*
X142677619Y-122033333D02*
X142677619Y-122271428D01*
X142677619Y-122271428D02*
X142725238Y-122366666D01*
X142725238Y-122366666D02*
X142772857Y-122414285D01*
X142772857Y-122414285D02*
X142868095Y-122461904D01*
X142868095Y-122461904D02*
X142963333Y-122461904D01*
X142963333Y-122461904D02*
X143058571Y-122414285D01*
X143058571Y-122414285D02*
X143106190Y-122366666D01*
X143106190Y-122366666D02*
X143153809Y-122271428D01*
X143153809Y-122271428D02*
X143201428Y-122080952D01*
X143201428Y-122080952D02*
X143249047Y-121985714D01*
X143249047Y-121985714D02*
X143296666Y-121938095D01*
X143296666Y-121938095D02*
X143391904Y-121890476D01*
X143391904Y-121890476D02*
X143487142Y-121890476D01*
X143487142Y-121890476D02*
X143582380Y-121938095D01*
X143582380Y-121938095D02*
X143630000Y-121985714D01*
X143630000Y-121985714D02*
X143677619Y-122080952D01*
X143677619Y-122080952D02*
X143677619Y-122319047D01*
X143677619Y-122319047D02*
X143630000Y-122461904D01*
X143677619Y-123080952D02*
X143677619Y-123176190D01*
X143677619Y-123176190D02*
X143630000Y-123271428D01*
X143630000Y-123271428D02*
X143582380Y-123319047D01*
X143582380Y-123319047D02*
X143487142Y-123366666D01*
X143487142Y-123366666D02*
X143296666Y-123414285D01*
X143296666Y-123414285D02*
X143058571Y-123414285D01*
X143058571Y-123414285D02*
X142868095Y-123366666D01*
X142868095Y-123366666D02*
X142772857Y-123319047D01*
X142772857Y-123319047D02*
X142725238Y-123271428D01*
X142725238Y-123271428D02*
X142677619Y-123176190D01*
X142677619Y-123176190D02*
X142677619Y-123080952D01*
X142677619Y-123080952D02*
X142725238Y-122985714D01*
X142725238Y-122985714D02*
X142772857Y-122938095D01*
X142772857Y-122938095D02*
X142868095Y-122890476D01*
X142868095Y-122890476D02*
X143058571Y-122842857D01*
X143058571Y-122842857D02*
X143296666Y-122842857D01*
X143296666Y-122842857D02*
X143487142Y-122890476D01*
X143487142Y-122890476D02*
X143582380Y-122938095D01*
X143582380Y-122938095D02*
X143630000Y-122985714D01*
X143630000Y-122985714D02*
X143677619Y-123080952D01*
X132835238Y-124820476D02*
X132787619Y-124963333D01*
X132787619Y-124963333D02*
X132787619Y-125201428D01*
X132787619Y-125201428D02*
X132835238Y-125296666D01*
X132835238Y-125296666D02*
X132882857Y-125344285D01*
X132882857Y-125344285D02*
X132978095Y-125391904D01*
X132978095Y-125391904D02*
X133073333Y-125391904D01*
X133073333Y-125391904D02*
X133168571Y-125344285D01*
X133168571Y-125344285D02*
X133216190Y-125296666D01*
X133216190Y-125296666D02*
X133263809Y-125201428D01*
X133263809Y-125201428D02*
X133311428Y-125010952D01*
X133311428Y-125010952D02*
X133359047Y-124915714D01*
X133359047Y-124915714D02*
X133406666Y-124868095D01*
X133406666Y-124868095D02*
X133501904Y-124820476D01*
X133501904Y-124820476D02*
X133597142Y-124820476D01*
X133597142Y-124820476D02*
X133692380Y-124868095D01*
X133692380Y-124868095D02*
X133740000Y-124915714D01*
X133740000Y-124915714D02*
X133787619Y-125010952D01*
X133787619Y-125010952D02*
X133787619Y-125249047D01*
X133787619Y-125249047D02*
X133740000Y-125391904D01*
X132882857Y-126391904D02*
X132835238Y-126344285D01*
X132835238Y-126344285D02*
X132787619Y-126201428D01*
X132787619Y-126201428D02*
X132787619Y-126106190D01*
X132787619Y-126106190D02*
X132835238Y-125963333D01*
X132835238Y-125963333D02*
X132930476Y-125868095D01*
X132930476Y-125868095D02*
X133025714Y-125820476D01*
X133025714Y-125820476D02*
X133216190Y-125772857D01*
X133216190Y-125772857D02*
X133359047Y-125772857D01*
X133359047Y-125772857D02*
X133549523Y-125820476D01*
X133549523Y-125820476D02*
X133644761Y-125868095D01*
X133644761Y-125868095D02*
X133740000Y-125963333D01*
X133740000Y-125963333D02*
X133787619Y-126106190D01*
X133787619Y-126106190D02*
X133787619Y-126201428D01*
X133787619Y-126201428D02*
X133740000Y-126344285D01*
X133740000Y-126344285D02*
X133692380Y-126391904D01*
X143477619Y-118395238D02*
X142477619Y-118728571D01*
X142477619Y-118728571D02*
X143477619Y-119061904D01*
X142477619Y-119395238D02*
X143477619Y-119395238D01*
X143477619Y-119395238D02*
X143477619Y-119633333D01*
X143477619Y-119633333D02*
X143430000Y-119776190D01*
X143430000Y-119776190D02*
X143334761Y-119871428D01*
X143334761Y-119871428D02*
X143239523Y-119919047D01*
X143239523Y-119919047D02*
X143049047Y-119966666D01*
X143049047Y-119966666D02*
X142906190Y-119966666D01*
X142906190Y-119966666D02*
X142715714Y-119919047D01*
X142715714Y-119919047D02*
X142620476Y-119871428D01*
X142620476Y-119871428D02*
X142525238Y-119776190D01*
X142525238Y-119776190D02*
X142477619Y-119633333D01*
X142477619Y-119633333D02*
X142477619Y-119395238D01*
X142477619Y-120395238D02*
X143477619Y-120395238D01*
X143477619Y-120395238D02*
X143477619Y-120633333D01*
X143477619Y-120633333D02*
X143430000Y-120776190D01*
X143430000Y-120776190D02*
X143334761Y-120871428D01*
X143334761Y-120871428D02*
X143239523Y-120919047D01*
X143239523Y-120919047D02*
X143049047Y-120966666D01*
X143049047Y-120966666D02*
X142906190Y-120966666D01*
X142906190Y-120966666D02*
X142715714Y-120919047D01*
X142715714Y-120919047D02*
X142620476Y-120871428D01*
X142620476Y-120871428D02*
X142525238Y-120776190D01*
X142525238Y-120776190D02*
X142477619Y-120633333D01*
X142477619Y-120633333D02*
X142477619Y-120395238D01*
X133717619Y-118595238D02*
X132717619Y-118928571D01*
X132717619Y-118928571D02*
X133717619Y-119261904D01*
X132717619Y-119595238D02*
X133717619Y-119595238D01*
X133717619Y-119595238D02*
X133717619Y-119833333D01*
X133717619Y-119833333D02*
X133670000Y-119976190D01*
X133670000Y-119976190D02*
X133574761Y-120071428D01*
X133574761Y-120071428D02*
X133479523Y-120119047D01*
X133479523Y-120119047D02*
X133289047Y-120166666D01*
X133289047Y-120166666D02*
X133146190Y-120166666D01*
X133146190Y-120166666D02*
X132955714Y-120119047D01*
X132955714Y-120119047D02*
X132860476Y-120071428D01*
X132860476Y-120071428D02*
X132765238Y-119976190D01*
X132765238Y-119976190D02*
X132717619Y-119833333D01*
X132717619Y-119833333D02*
X132717619Y-119595238D01*
X132717619Y-120595238D02*
X133717619Y-120595238D01*
X133717619Y-120595238D02*
X133717619Y-120833333D01*
X133717619Y-120833333D02*
X133670000Y-120976190D01*
X133670000Y-120976190D02*
X133574761Y-121071428D01*
X133574761Y-121071428D02*
X133479523Y-121119047D01*
X133479523Y-121119047D02*
X133289047Y-121166666D01*
X133289047Y-121166666D02*
X133146190Y-121166666D01*
X133146190Y-121166666D02*
X132955714Y-121119047D01*
X132955714Y-121119047D02*
X132860476Y-121071428D01*
X132860476Y-121071428D02*
X132765238Y-120976190D01*
X132765238Y-120976190D02*
X132717619Y-120833333D01*
X132717619Y-120833333D02*
X132717619Y-120595238D01*
X132765238Y-121690476D02*
X132717619Y-121833333D01*
X132717619Y-121833333D02*
X132717619Y-122071428D01*
X132717619Y-122071428D02*
X132765238Y-122166666D01*
X132765238Y-122166666D02*
X132812857Y-122214285D01*
X132812857Y-122214285D02*
X132908095Y-122261904D01*
X132908095Y-122261904D02*
X133003333Y-122261904D01*
X133003333Y-122261904D02*
X133098571Y-122214285D01*
X133098571Y-122214285D02*
X133146190Y-122166666D01*
X133146190Y-122166666D02*
X133193809Y-122071428D01*
X133193809Y-122071428D02*
X133241428Y-121880952D01*
X133241428Y-121880952D02*
X133289047Y-121785714D01*
X133289047Y-121785714D02*
X133336666Y-121738095D01*
X133336666Y-121738095D02*
X133431904Y-121690476D01*
X133431904Y-121690476D02*
X133527142Y-121690476D01*
X133527142Y-121690476D02*
X133622380Y-121738095D01*
X133622380Y-121738095D02*
X133670000Y-121785714D01*
X133670000Y-121785714D02*
X133717619Y-121880952D01*
X133717619Y-121880952D02*
X133717619Y-122119047D01*
X133717619Y-122119047D02*
X133670000Y-122261904D01*
X132717619Y-123214285D02*
X132717619Y-122642857D01*
X132717619Y-122928571D02*
X133717619Y-122928571D01*
X133717619Y-122928571D02*
X133574761Y-122833333D01*
X133574761Y-122833333D02*
X133479523Y-122738095D01*
X133479523Y-122738095D02*
X133431904Y-122642857D01*
X132030000Y-113261904D02*
X132077619Y-113166666D01*
X132077619Y-113166666D02*
X132077619Y-113023809D01*
X132077619Y-113023809D02*
X132030000Y-112880952D01*
X132030000Y-112880952D02*
X131934761Y-112785714D01*
X131934761Y-112785714D02*
X131839523Y-112738095D01*
X131839523Y-112738095D02*
X131649047Y-112690476D01*
X131649047Y-112690476D02*
X131506190Y-112690476D01*
X131506190Y-112690476D02*
X131315714Y-112738095D01*
X131315714Y-112738095D02*
X131220476Y-112785714D01*
X131220476Y-112785714D02*
X131125238Y-112880952D01*
X131125238Y-112880952D02*
X131077619Y-113023809D01*
X131077619Y-113023809D02*
X131077619Y-113119047D01*
X131077619Y-113119047D02*
X131125238Y-113261904D01*
X131125238Y-113261904D02*
X131172857Y-113309523D01*
X131172857Y-113309523D02*
X131506190Y-113309523D01*
X131506190Y-113309523D02*
X131506190Y-113119047D01*
X131077619Y-113738095D02*
X132077619Y-113738095D01*
X132077619Y-113738095D02*
X131077619Y-114309523D01*
X131077619Y-114309523D02*
X132077619Y-114309523D01*
X131077619Y-114785714D02*
X132077619Y-114785714D01*
X132077619Y-114785714D02*
X132077619Y-115023809D01*
X132077619Y-115023809D02*
X132030000Y-115166666D01*
X132030000Y-115166666D02*
X131934761Y-115261904D01*
X131934761Y-115261904D02*
X131839523Y-115309523D01*
X131839523Y-115309523D02*
X131649047Y-115357142D01*
X131649047Y-115357142D02*
X131506190Y-115357142D01*
X131506190Y-115357142D02*
X131315714Y-115309523D01*
X131315714Y-115309523D02*
X131220476Y-115261904D01*
X131220476Y-115261904D02*
X131125238Y-115166666D01*
X131125238Y-115166666D02*
X131077619Y-115023809D01*
X131077619Y-115023809D02*
X131077619Y-114785714D01*
X143530000Y-114761904D02*
X143577619Y-114666666D01*
X143577619Y-114666666D02*
X143577619Y-114523809D01*
X143577619Y-114523809D02*
X143530000Y-114380952D01*
X143530000Y-114380952D02*
X143434761Y-114285714D01*
X143434761Y-114285714D02*
X143339523Y-114238095D01*
X143339523Y-114238095D02*
X143149047Y-114190476D01*
X143149047Y-114190476D02*
X143006190Y-114190476D01*
X143006190Y-114190476D02*
X142815714Y-114238095D01*
X142815714Y-114238095D02*
X142720476Y-114285714D01*
X142720476Y-114285714D02*
X142625238Y-114380952D01*
X142625238Y-114380952D02*
X142577619Y-114523809D01*
X142577619Y-114523809D02*
X142577619Y-114619047D01*
X142577619Y-114619047D02*
X142625238Y-114761904D01*
X142625238Y-114761904D02*
X142672857Y-114809523D01*
X142672857Y-114809523D02*
X143006190Y-114809523D01*
X143006190Y-114809523D02*
X143006190Y-114619047D01*
X142577619Y-115238095D02*
X143577619Y-115238095D01*
X143577619Y-115238095D02*
X142577619Y-115809523D01*
X142577619Y-115809523D02*
X143577619Y-115809523D01*
X142577619Y-116285714D02*
X143577619Y-116285714D01*
X143577619Y-116285714D02*
X143577619Y-116523809D01*
X143577619Y-116523809D02*
X143530000Y-116666666D01*
X143530000Y-116666666D02*
X143434761Y-116761904D01*
X143434761Y-116761904D02*
X143339523Y-116809523D01*
X143339523Y-116809523D02*
X143149047Y-116857142D01*
X143149047Y-116857142D02*
X143006190Y-116857142D01*
X143006190Y-116857142D02*
X142815714Y-116809523D01*
X142815714Y-116809523D02*
X142720476Y-116761904D01*
X142720476Y-116761904D02*
X142625238Y-116666666D01*
X142625238Y-116666666D02*
X142577619Y-116523809D01*
X142577619Y-116523809D02*
X142577619Y-116285714D01*
X142825238Y-124790476D02*
X142777619Y-124933333D01*
X142777619Y-124933333D02*
X142777619Y-125171428D01*
X142777619Y-125171428D02*
X142825238Y-125266666D01*
X142825238Y-125266666D02*
X142872857Y-125314285D01*
X142872857Y-125314285D02*
X142968095Y-125361904D01*
X142968095Y-125361904D02*
X143063333Y-125361904D01*
X143063333Y-125361904D02*
X143158571Y-125314285D01*
X143158571Y-125314285D02*
X143206190Y-125266666D01*
X143206190Y-125266666D02*
X143253809Y-125171428D01*
X143253809Y-125171428D02*
X143301428Y-124980952D01*
X143301428Y-124980952D02*
X143349047Y-124885714D01*
X143349047Y-124885714D02*
X143396666Y-124838095D01*
X143396666Y-124838095D02*
X143491904Y-124790476D01*
X143491904Y-124790476D02*
X143587142Y-124790476D01*
X143587142Y-124790476D02*
X143682380Y-124838095D01*
X143682380Y-124838095D02*
X143730000Y-124885714D01*
X143730000Y-124885714D02*
X143777619Y-124980952D01*
X143777619Y-124980952D02*
X143777619Y-125219047D01*
X143777619Y-125219047D02*
X143730000Y-125361904D01*
X142872857Y-126361904D02*
X142825238Y-126314285D01*
X142825238Y-126314285D02*
X142777619Y-126171428D01*
X142777619Y-126171428D02*
X142777619Y-126076190D01*
X142777619Y-126076190D02*
X142825238Y-125933333D01*
X142825238Y-125933333D02*
X142920476Y-125838095D01*
X142920476Y-125838095D02*
X143015714Y-125790476D01*
X143015714Y-125790476D02*
X143206190Y-125742857D01*
X143206190Y-125742857D02*
X143349047Y-125742857D01*
X143349047Y-125742857D02*
X143539523Y-125790476D01*
X143539523Y-125790476D02*
X143634761Y-125838095D01*
X143634761Y-125838095D02*
X143730000Y-125933333D01*
X143730000Y-125933333D02*
X143777619Y-126076190D01*
X143777619Y-126076190D02*
X143777619Y-126171428D01*
X143777619Y-126171428D02*
X143730000Y-126314285D01*
X143730000Y-126314285D02*
X143682380Y-126361904D01*
X132717619Y-128309523D02*
X133193809Y-127976190D01*
X132717619Y-127738095D02*
X133717619Y-127738095D01*
X133717619Y-127738095D02*
X133717619Y-128119047D01*
X133717619Y-128119047D02*
X133670000Y-128214285D01*
X133670000Y-128214285D02*
X133622380Y-128261904D01*
X133622380Y-128261904D02*
X133527142Y-128309523D01*
X133527142Y-128309523D02*
X133384285Y-128309523D01*
X133384285Y-128309523D02*
X133289047Y-128261904D01*
X133289047Y-128261904D02*
X133241428Y-128214285D01*
X133241428Y-128214285D02*
X133193809Y-128119047D01*
X133193809Y-128119047D02*
X133193809Y-127738095D01*
X132812857Y-129309523D02*
X132765238Y-129261904D01*
X132765238Y-129261904D02*
X132717619Y-129119047D01*
X132717619Y-129119047D02*
X132717619Y-129023809D01*
X132717619Y-129023809D02*
X132765238Y-128880952D01*
X132765238Y-128880952D02*
X132860476Y-128785714D01*
X132860476Y-128785714D02*
X132955714Y-128738095D01*
X132955714Y-128738095D02*
X133146190Y-128690476D01*
X133146190Y-128690476D02*
X133289047Y-128690476D01*
X133289047Y-128690476D02*
X133479523Y-128738095D01*
X133479523Y-128738095D02*
X133574761Y-128785714D01*
X133574761Y-128785714D02*
X133670000Y-128880952D01*
X133670000Y-128880952D02*
X133717619Y-129023809D01*
X133717619Y-129023809D02*
X133717619Y-129119047D01*
X133717619Y-129119047D02*
X133670000Y-129261904D01*
X133670000Y-129261904D02*
X133622380Y-129309523D01*
X142677619Y-128709523D02*
X143153809Y-128376190D01*
X142677619Y-128138095D02*
X143677619Y-128138095D01*
X143677619Y-128138095D02*
X143677619Y-128519047D01*
X143677619Y-128519047D02*
X143630000Y-128614285D01*
X143630000Y-128614285D02*
X143582380Y-128661904D01*
X143582380Y-128661904D02*
X143487142Y-128709523D01*
X143487142Y-128709523D02*
X143344285Y-128709523D01*
X143344285Y-128709523D02*
X143249047Y-128661904D01*
X143249047Y-128661904D02*
X143201428Y-128614285D01*
X143201428Y-128614285D02*
X143153809Y-128519047D01*
X143153809Y-128519047D02*
X143153809Y-128138095D01*
X142772857Y-129709523D02*
X142725238Y-129661904D01*
X142725238Y-129661904D02*
X142677619Y-129519047D01*
X142677619Y-129519047D02*
X142677619Y-129423809D01*
X142677619Y-129423809D02*
X142725238Y-129280952D01*
X142725238Y-129280952D02*
X142820476Y-129185714D01*
X142820476Y-129185714D02*
X142915714Y-129138095D01*
X142915714Y-129138095D02*
X143106190Y-129090476D01*
X143106190Y-129090476D02*
X143249047Y-129090476D01*
X143249047Y-129090476D02*
X143439523Y-129138095D01*
X143439523Y-129138095D02*
X143534761Y-129185714D01*
X143534761Y-129185714D02*
X143630000Y-129280952D01*
X143630000Y-129280952D02*
X143677619Y-129423809D01*
X143677619Y-129423809D02*
X143677619Y-129519047D01*
X143677619Y-129519047D02*
X143630000Y-129661904D01*
X143630000Y-129661904D02*
X143582380Y-129709523D01*
D11*
X48166666Y-133367380D02*
X48166666Y-134081666D01*
X48166666Y-134081666D02*
X48119047Y-134224523D01*
X48119047Y-134224523D02*
X48023809Y-134319761D01*
X48023809Y-134319761D02*
X47880952Y-134367380D01*
X47880952Y-134367380D02*
X47785714Y-134367380D01*
X49166666Y-134367380D02*
X48595238Y-134367380D01*
X48880952Y-134367380D02*
X48880952Y-133367380D01*
X48880952Y-133367380D02*
X48785714Y-133510238D01*
X48785714Y-133510238D02*
X48690476Y-133605476D01*
X48690476Y-133605476D02*
X48595238Y-133653095D01*
D12*
X46265238Y-121890476D02*
X46217619Y-122033333D01*
X46217619Y-122033333D02*
X46217619Y-122271428D01*
X46217619Y-122271428D02*
X46265238Y-122366666D01*
X46265238Y-122366666D02*
X46312857Y-122414285D01*
X46312857Y-122414285D02*
X46408095Y-122461904D01*
X46408095Y-122461904D02*
X46503333Y-122461904D01*
X46503333Y-122461904D02*
X46598571Y-122414285D01*
X46598571Y-122414285D02*
X46646190Y-122366666D01*
X46646190Y-122366666D02*
X46693809Y-122271428D01*
X46693809Y-122271428D02*
X46741428Y-122080952D01*
X46741428Y-122080952D02*
X46789047Y-121985714D01*
X46789047Y-121985714D02*
X46836666Y-121938095D01*
X46836666Y-121938095D02*
X46931904Y-121890476D01*
X46931904Y-121890476D02*
X47027142Y-121890476D01*
X47027142Y-121890476D02*
X47122380Y-121938095D01*
X47122380Y-121938095D02*
X47170000Y-121985714D01*
X47170000Y-121985714D02*
X47217619Y-122080952D01*
X47217619Y-122080952D02*
X47217619Y-122319047D01*
X47217619Y-122319047D02*
X47170000Y-122461904D01*
X47217619Y-123080952D02*
X47217619Y-123176190D01*
X47217619Y-123176190D02*
X47170000Y-123271428D01*
X47170000Y-123271428D02*
X47122380Y-123319047D01*
X47122380Y-123319047D02*
X47027142Y-123366666D01*
X47027142Y-123366666D02*
X46836666Y-123414285D01*
X46836666Y-123414285D02*
X46598571Y-123414285D01*
X46598571Y-123414285D02*
X46408095Y-123366666D01*
X46408095Y-123366666D02*
X46312857Y-123319047D01*
X46312857Y-123319047D02*
X46265238Y-123271428D01*
X46265238Y-123271428D02*
X46217619Y-123176190D01*
X46217619Y-123176190D02*
X46217619Y-123080952D01*
X46217619Y-123080952D02*
X46265238Y-122985714D01*
X46265238Y-122985714D02*
X46312857Y-122938095D01*
X46312857Y-122938095D02*
X46408095Y-122890476D01*
X46408095Y-122890476D02*
X46598571Y-122842857D01*
X46598571Y-122842857D02*
X46836666Y-122842857D01*
X46836666Y-122842857D02*
X47027142Y-122890476D01*
X47027142Y-122890476D02*
X47122380Y-122938095D01*
X47122380Y-122938095D02*
X47170000Y-122985714D01*
X47170000Y-122985714D02*
X47217619Y-123080952D01*
X35950476Y-125234761D02*
X36093333Y-125282380D01*
X36093333Y-125282380D02*
X36331428Y-125282380D01*
X36331428Y-125282380D02*
X36426666Y-125234761D01*
X36426666Y-125234761D02*
X36474285Y-125187142D01*
X36474285Y-125187142D02*
X36521904Y-125091904D01*
X36521904Y-125091904D02*
X36521904Y-124996666D01*
X36521904Y-124996666D02*
X36474285Y-124901428D01*
X36474285Y-124901428D02*
X36426666Y-124853809D01*
X36426666Y-124853809D02*
X36331428Y-124806190D01*
X36331428Y-124806190D02*
X36140952Y-124758571D01*
X36140952Y-124758571D02*
X36045714Y-124710952D01*
X36045714Y-124710952D02*
X35998095Y-124663333D01*
X35998095Y-124663333D02*
X35950476Y-124568095D01*
X35950476Y-124568095D02*
X35950476Y-124472857D01*
X35950476Y-124472857D02*
X35998095Y-124377619D01*
X35998095Y-124377619D02*
X36045714Y-124330000D01*
X36045714Y-124330000D02*
X36140952Y-124282380D01*
X36140952Y-124282380D02*
X36379047Y-124282380D01*
X36379047Y-124282380D02*
X36521904Y-124330000D01*
X37521904Y-125187142D02*
X37474285Y-125234761D01*
X37474285Y-125234761D02*
X37331428Y-125282380D01*
X37331428Y-125282380D02*
X37236190Y-125282380D01*
X37236190Y-125282380D02*
X37093333Y-125234761D01*
X37093333Y-125234761D02*
X36998095Y-125139523D01*
X36998095Y-125139523D02*
X36950476Y-125044285D01*
X36950476Y-125044285D02*
X36902857Y-124853809D01*
X36902857Y-124853809D02*
X36902857Y-124710952D01*
X36902857Y-124710952D02*
X36950476Y-124520476D01*
X36950476Y-124520476D02*
X36998095Y-124425238D01*
X36998095Y-124425238D02*
X37093333Y-124330000D01*
X37093333Y-124330000D02*
X37236190Y-124282380D01*
X37236190Y-124282380D02*
X37331428Y-124282380D01*
X37331428Y-124282380D02*
X37474285Y-124330000D01*
X37474285Y-124330000D02*
X37521904Y-124377619D01*
X47717619Y-118595238D02*
X46717619Y-118928571D01*
X46717619Y-118928571D02*
X47717619Y-119261904D01*
X46717619Y-119595238D02*
X47717619Y-119595238D01*
X47717619Y-119595238D02*
X47717619Y-119833333D01*
X47717619Y-119833333D02*
X47670000Y-119976190D01*
X47670000Y-119976190D02*
X47574761Y-120071428D01*
X47574761Y-120071428D02*
X47479523Y-120119047D01*
X47479523Y-120119047D02*
X47289047Y-120166666D01*
X47289047Y-120166666D02*
X47146190Y-120166666D01*
X47146190Y-120166666D02*
X46955714Y-120119047D01*
X46955714Y-120119047D02*
X46860476Y-120071428D01*
X46860476Y-120071428D02*
X46765238Y-119976190D01*
X46765238Y-119976190D02*
X46717619Y-119833333D01*
X46717619Y-119833333D02*
X46717619Y-119595238D01*
X46717619Y-120595238D02*
X47717619Y-120595238D01*
X47717619Y-120595238D02*
X47717619Y-120833333D01*
X47717619Y-120833333D02*
X47670000Y-120976190D01*
X47670000Y-120976190D02*
X47574761Y-121071428D01*
X47574761Y-121071428D02*
X47479523Y-121119047D01*
X47479523Y-121119047D02*
X47289047Y-121166666D01*
X47289047Y-121166666D02*
X47146190Y-121166666D01*
X47146190Y-121166666D02*
X46955714Y-121119047D01*
X46955714Y-121119047D02*
X46860476Y-121071428D01*
X46860476Y-121071428D02*
X46765238Y-120976190D01*
X46765238Y-120976190D02*
X46717619Y-120833333D01*
X46717619Y-120833333D02*
X46717619Y-120595238D01*
X35155238Y-119182380D02*
X35488571Y-120182380D01*
X35488571Y-120182380D02*
X35821904Y-119182380D01*
X36155238Y-120182380D02*
X36155238Y-119182380D01*
X36155238Y-119182380D02*
X36393333Y-119182380D01*
X36393333Y-119182380D02*
X36536190Y-119230000D01*
X36536190Y-119230000D02*
X36631428Y-119325238D01*
X36631428Y-119325238D02*
X36679047Y-119420476D01*
X36679047Y-119420476D02*
X36726666Y-119610952D01*
X36726666Y-119610952D02*
X36726666Y-119753809D01*
X36726666Y-119753809D02*
X36679047Y-119944285D01*
X36679047Y-119944285D02*
X36631428Y-120039523D01*
X36631428Y-120039523D02*
X36536190Y-120134761D01*
X36536190Y-120134761D02*
X36393333Y-120182380D01*
X36393333Y-120182380D02*
X36155238Y-120182380D01*
X37155238Y-120182380D02*
X37155238Y-119182380D01*
X37155238Y-119182380D02*
X37393333Y-119182380D01*
X37393333Y-119182380D02*
X37536190Y-119230000D01*
X37536190Y-119230000D02*
X37631428Y-119325238D01*
X37631428Y-119325238D02*
X37679047Y-119420476D01*
X37679047Y-119420476D02*
X37726666Y-119610952D01*
X37726666Y-119610952D02*
X37726666Y-119753809D01*
X37726666Y-119753809D02*
X37679047Y-119944285D01*
X37679047Y-119944285D02*
X37631428Y-120039523D01*
X37631428Y-120039523D02*
X37536190Y-120134761D01*
X37536190Y-120134761D02*
X37393333Y-120182380D01*
X37393333Y-120182380D02*
X37155238Y-120182380D01*
X35950476Y-122434761D02*
X36093333Y-122482380D01*
X36093333Y-122482380D02*
X36331428Y-122482380D01*
X36331428Y-122482380D02*
X36426666Y-122434761D01*
X36426666Y-122434761D02*
X36474285Y-122387142D01*
X36474285Y-122387142D02*
X36521904Y-122291904D01*
X36521904Y-122291904D02*
X36521904Y-122196666D01*
X36521904Y-122196666D02*
X36474285Y-122101428D01*
X36474285Y-122101428D02*
X36426666Y-122053809D01*
X36426666Y-122053809D02*
X36331428Y-122006190D01*
X36331428Y-122006190D02*
X36140952Y-121958571D01*
X36140952Y-121958571D02*
X36045714Y-121910952D01*
X36045714Y-121910952D02*
X35998095Y-121863333D01*
X35998095Y-121863333D02*
X35950476Y-121768095D01*
X35950476Y-121768095D02*
X35950476Y-121672857D01*
X35950476Y-121672857D02*
X35998095Y-121577619D01*
X35998095Y-121577619D02*
X36045714Y-121530000D01*
X36045714Y-121530000D02*
X36140952Y-121482380D01*
X36140952Y-121482380D02*
X36379047Y-121482380D01*
X36379047Y-121482380D02*
X36521904Y-121530000D01*
X37474285Y-122482380D02*
X36902857Y-122482380D01*
X37188571Y-122482380D02*
X37188571Y-121482380D01*
X37188571Y-121482380D02*
X37093333Y-121625238D01*
X37093333Y-121625238D02*
X36998095Y-121720476D01*
X36998095Y-121720476D02*
X36902857Y-121768095D01*
X37930000Y-114761904D02*
X37977619Y-114666666D01*
X37977619Y-114666666D02*
X37977619Y-114523809D01*
X37977619Y-114523809D02*
X37930000Y-114380952D01*
X37930000Y-114380952D02*
X37834761Y-114285714D01*
X37834761Y-114285714D02*
X37739523Y-114238095D01*
X37739523Y-114238095D02*
X37549047Y-114190476D01*
X37549047Y-114190476D02*
X37406190Y-114190476D01*
X37406190Y-114190476D02*
X37215714Y-114238095D01*
X37215714Y-114238095D02*
X37120476Y-114285714D01*
X37120476Y-114285714D02*
X37025238Y-114380952D01*
X37025238Y-114380952D02*
X36977619Y-114523809D01*
X36977619Y-114523809D02*
X36977619Y-114619047D01*
X36977619Y-114619047D02*
X37025238Y-114761904D01*
X37025238Y-114761904D02*
X37072857Y-114809523D01*
X37072857Y-114809523D02*
X37406190Y-114809523D01*
X37406190Y-114809523D02*
X37406190Y-114619047D01*
X36977619Y-115238095D02*
X37977619Y-115238095D01*
X37977619Y-115238095D02*
X36977619Y-115809523D01*
X36977619Y-115809523D02*
X37977619Y-115809523D01*
X36977619Y-116285714D02*
X37977619Y-116285714D01*
X37977619Y-116285714D02*
X37977619Y-116523809D01*
X37977619Y-116523809D02*
X37930000Y-116666666D01*
X37930000Y-116666666D02*
X37834761Y-116761904D01*
X37834761Y-116761904D02*
X37739523Y-116809523D01*
X37739523Y-116809523D02*
X37549047Y-116857142D01*
X37549047Y-116857142D02*
X37406190Y-116857142D01*
X37406190Y-116857142D02*
X37215714Y-116809523D01*
X37215714Y-116809523D02*
X37120476Y-116761904D01*
X37120476Y-116761904D02*
X37025238Y-116666666D01*
X37025238Y-116666666D02*
X36977619Y-116523809D01*
X36977619Y-116523809D02*
X36977619Y-116285714D01*
X49170000Y-113761904D02*
X49217619Y-113666666D01*
X49217619Y-113666666D02*
X49217619Y-113523809D01*
X49217619Y-113523809D02*
X49170000Y-113380952D01*
X49170000Y-113380952D02*
X49074761Y-113285714D01*
X49074761Y-113285714D02*
X48979523Y-113238095D01*
X48979523Y-113238095D02*
X48789047Y-113190476D01*
X48789047Y-113190476D02*
X48646190Y-113190476D01*
X48646190Y-113190476D02*
X48455714Y-113238095D01*
X48455714Y-113238095D02*
X48360476Y-113285714D01*
X48360476Y-113285714D02*
X48265238Y-113380952D01*
X48265238Y-113380952D02*
X48217619Y-113523809D01*
X48217619Y-113523809D02*
X48217619Y-113619047D01*
X48217619Y-113619047D02*
X48265238Y-113761904D01*
X48265238Y-113761904D02*
X48312857Y-113809523D01*
X48312857Y-113809523D02*
X48646190Y-113809523D01*
X48646190Y-113809523D02*
X48646190Y-113619047D01*
X48217619Y-114238095D02*
X49217619Y-114238095D01*
X49217619Y-114238095D02*
X48217619Y-114809523D01*
X48217619Y-114809523D02*
X49217619Y-114809523D01*
X48217619Y-115285714D02*
X49217619Y-115285714D01*
X49217619Y-115285714D02*
X49217619Y-115523809D01*
X49217619Y-115523809D02*
X49170000Y-115666666D01*
X49170000Y-115666666D02*
X49074761Y-115761904D01*
X49074761Y-115761904D02*
X48979523Y-115809523D01*
X48979523Y-115809523D02*
X48789047Y-115857142D01*
X48789047Y-115857142D02*
X48646190Y-115857142D01*
X48646190Y-115857142D02*
X48455714Y-115809523D01*
X48455714Y-115809523D02*
X48360476Y-115761904D01*
X48360476Y-115761904D02*
X48265238Y-115666666D01*
X48265238Y-115666666D02*
X48217619Y-115523809D01*
X48217619Y-115523809D02*
X48217619Y-115285714D01*
X46265238Y-124690476D02*
X46217619Y-124833333D01*
X46217619Y-124833333D02*
X46217619Y-125071428D01*
X46217619Y-125071428D02*
X46265238Y-125166666D01*
X46265238Y-125166666D02*
X46312857Y-125214285D01*
X46312857Y-125214285D02*
X46408095Y-125261904D01*
X46408095Y-125261904D02*
X46503333Y-125261904D01*
X46503333Y-125261904D02*
X46598571Y-125214285D01*
X46598571Y-125214285D02*
X46646190Y-125166666D01*
X46646190Y-125166666D02*
X46693809Y-125071428D01*
X46693809Y-125071428D02*
X46741428Y-124880952D01*
X46741428Y-124880952D02*
X46789047Y-124785714D01*
X46789047Y-124785714D02*
X46836666Y-124738095D01*
X46836666Y-124738095D02*
X46931904Y-124690476D01*
X46931904Y-124690476D02*
X47027142Y-124690476D01*
X47027142Y-124690476D02*
X47122380Y-124738095D01*
X47122380Y-124738095D02*
X47170000Y-124785714D01*
X47170000Y-124785714D02*
X47217619Y-124880952D01*
X47217619Y-124880952D02*
X47217619Y-125119047D01*
X47217619Y-125119047D02*
X47170000Y-125261904D01*
X46312857Y-126261904D02*
X46265238Y-126214285D01*
X46265238Y-126214285D02*
X46217619Y-126071428D01*
X46217619Y-126071428D02*
X46217619Y-125976190D01*
X46217619Y-125976190D02*
X46265238Y-125833333D01*
X46265238Y-125833333D02*
X46360476Y-125738095D01*
X46360476Y-125738095D02*
X46455714Y-125690476D01*
X46455714Y-125690476D02*
X46646190Y-125642857D01*
X46646190Y-125642857D02*
X46789047Y-125642857D01*
X46789047Y-125642857D02*
X46979523Y-125690476D01*
X46979523Y-125690476D02*
X47074761Y-125738095D01*
X47074761Y-125738095D02*
X47170000Y-125833333D01*
X47170000Y-125833333D02*
X47217619Y-125976190D01*
X47217619Y-125976190D02*
X47217619Y-126071428D01*
X47217619Y-126071428D02*
X47170000Y-126214285D01*
X47170000Y-126214285D02*
X47122380Y-126261904D01*
X36769523Y-128482380D02*
X36436190Y-128006190D01*
X36198095Y-128482380D02*
X36198095Y-127482380D01*
X36198095Y-127482380D02*
X36579047Y-127482380D01*
X36579047Y-127482380D02*
X36674285Y-127530000D01*
X36674285Y-127530000D02*
X36721904Y-127577619D01*
X36721904Y-127577619D02*
X36769523Y-127672857D01*
X36769523Y-127672857D02*
X36769523Y-127815714D01*
X36769523Y-127815714D02*
X36721904Y-127910952D01*
X36721904Y-127910952D02*
X36674285Y-127958571D01*
X36674285Y-127958571D02*
X36579047Y-128006190D01*
X36579047Y-128006190D02*
X36198095Y-128006190D01*
X37769523Y-128387142D02*
X37721904Y-128434761D01*
X37721904Y-128434761D02*
X37579047Y-128482380D01*
X37579047Y-128482380D02*
X37483809Y-128482380D01*
X37483809Y-128482380D02*
X37340952Y-128434761D01*
X37340952Y-128434761D02*
X37245714Y-128339523D01*
X37245714Y-128339523D02*
X37198095Y-128244285D01*
X37198095Y-128244285D02*
X37150476Y-128053809D01*
X37150476Y-128053809D02*
X37150476Y-127910952D01*
X37150476Y-127910952D02*
X37198095Y-127720476D01*
X37198095Y-127720476D02*
X37245714Y-127625238D01*
X37245714Y-127625238D02*
X37340952Y-127530000D01*
X37340952Y-127530000D02*
X37483809Y-127482380D01*
X37483809Y-127482380D02*
X37579047Y-127482380D01*
X37579047Y-127482380D02*
X37721904Y-127530000D01*
X37721904Y-127530000D02*
X37769523Y-127577619D01*
X46217619Y-127309523D02*
X46693809Y-126976190D01*
X46217619Y-126738095D02*
X47217619Y-126738095D01*
X47217619Y-126738095D02*
X47217619Y-127119047D01*
X47217619Y-127119047D02*
X47170000Y-127214285D01*
X47170000Y-127214285D02*
X47122380Y-127261904D01*
X47122380Y-127261904D02*
X47027142Y-127309523D01*
X47027142Y-127309523D02*
X46884285Y-127309523D01*
X46884285Y-127309523D02*
X46789047Y-127261904D01*
X46789047Y-127261904D02*
X46741428Y-127214285D01*
X46741428Y-127214285D02*
X46693809Y-127119047D01*
X46693809Y-127119047D02*
X46693809Y-126738095D01*
X46312857Y-128309523D02*
X46265238Y-128261904D01*
X46265238Y-128261904D02*
X46217619Y-128119047D01*
X46217619Y-128119047D02*
X46217619Y-128023809D01*
X46217619Y-128023809D02*
X46265238Y-127880952D01*
X46265238Y-127880952D02*
X46360476Y-127785714D01*
X46360476Y-127785714D02*
X46455714Y-127738095D01*
X46455714Y-127738095D02*
X46646190Y-127690476D01*
X46646190Y-127690476D02*
X46789047Y-127690476D01*
X46789047Y-127690476D02*
X46979523Y-127738095D01*
X46979523Y-127738095D02*
X47074761Y-127785714D01*
X47074761Y-127785714D02*
X47170000Y-127880952D01*
X47170000Y-127880952D02*
X47217619Y-128023809D01*
X47217619Y-128023809D02*
X47217619Y-128119047D01*
X47217619Y-128119047D02*
X47170000Y-128261904D01*
X47170000Y-128261904D02*
X47122380Y-128309523D01*
D11*
X98037380Y-134752857D02*
X97561190Y-135086190D01*
X98037380Y-135324285D02*
X97037380Y-135324285D01*
X97037380Y-135324285D02*
X97037380Y-134943333D01*
X97037380Y-134943333D02*
X97085000Y-134848095D01*
X97085000Y-134848095D02*
X97132619Y-134800476D01*
X97132619Y-134800476D02*
X97227857Y-134752857D01*
X97227857Y-134752857D02*
X97370714Y-134752857D01*
X97370714Y-134752857D02*
X97465952Y-134800476D01*
X97465952Y-134800476D02*
X97513571Y-134848095D01*
X97513571Y-134848095D02*
X97561190Y-134943333D01*
X97561190Y-134943333D02*
X97561190Y-135324285D01*
X97132619Y-134371904D02*
X97085000Y-134324285D01*
X97085000Y-134324285D02*
X97037380Y-134229047D01*
X97037380Y-134229047D02*
X97037380Y-133990952D01*
X97037380Y-133990952D02*
X97085000Y-133895714D01*
X97085000Y-133895714D02*
X97132619Y-133848095D01*
X97132619Y-133848095D02*
X97227857Y-133800476D01*
X97227857Y-133800476D02*
X97323095Y-133800476D01*
X97323095Y-133800476D02*
X97465952Y-133848095D01*
X97465952Y-133848095D02*
X98037380Y-134419523D01*
X98037380Y-134419523D02*
X98037380Y-133800476D01*
X97037380Y-132895714D02*
X97037380Y-133371904D01*
X97037380Y-133371904D02*
X97513571Y-133419523D01*
X97513571Y-133419523D02*
X97465952Y-133371904D01*
X97465952Y-133371904D02*
X97418333Y-133276666D01*
X97418333Y-133276666D02*
X97418333Y-133038571D01*
X97418333Y-133038571D02*
X97465952Y-132943333D01*
X97465952Y-132943333D02*
X97513571Y-132895714D01*
X97513571Y-132895714D02*
X97608809Y-132848095D01*
X97608809Y-132848095D02*
X97846904Y-132848095D01*
X97846904Y-132848095D02*
X97942142Y-132895714D01*
X97942142Y-132895714D02*
X97989761Y-132943333D01*
X97989761Y-132943333D02*
X98037380Y-133038571D01*
X98037380Y-133038571D02*
X98037380Y-133276666D01*
X98037380Y-133276666D02*
X97989761Y-133371904D01*
X97989761Y-133371904D02*
X97942142Y-133419523D01*
X55267380Y-134006666D02*
X54791190Y-134339999D01*
X55267380Y-134578094D02*
X54267380Y-134578094D01*
X54267380Y-134578094D02*
X54267380Y-134197142D01*
X54267380Y-134197142D02*
X54315000Y-134101904D01*
X54315000Y-134101904D02*
X54362619Y-134054285D01*
X54362619Y-134054285D02*
X54457857Y-134006666D01*
X54457857Y-134006666D02*
X54600714Y-134006666D01*
X54600714Y-134006666D02*
X54695952Y-134054285D01*
X54695952Y-134054285D02*
X54743571Y-134101904D01*
X54743571Y-134101904D02*
X54791190Y-134197142D01*
X54791190Y-134197142D02*
X54791190Y-134578094D01*
X54267380Y-133101904D02*
X54267380Y-133578094D01*
X54267380Y-133578094D02*
X54743571Y-133625713D01*
X54743571Y-133625713D02*
X54695952Y-133578094D01*
X54695952Y-133578094D02*
X54648333Y-133482856D01*
X54648333Y-133482856D02*
X54648333Y-133244761D01*
X54648333Y-133244761D02*
X54695952Y-133149523D01*
X54695952Y-133149523D02*
X54743571Y-133101904D01*
X54743571Y-133101904D02*
X54838809Y-133054285D01*
X54838809Y-133054285D02*
X55076904Y-133054285D01*
X55076904Y-133054285D02*
X55172142Y-133101904D01*
X55172142Y-133101904D02*
X55219761Y-133149523D01*
X55219761Y-133149523D02*
X55267380Y-133244761D01*
X55267380Y-133244761D02*
X55267380Y-133482856D01*
X55267380Y-133482856D02*
X55219761Y-133578094D01*
X55219761Y-133578094D02*
X55172142Y-133625713D01*
X110366666Y-111947380D02*
X110366666Y-112661666D01*
X110366666Y-112661666D02*
X110319047Y-112804523D01*
X110319047Y-112804523D02*
X110223809Y-112899761D01*
X110223809Y-112899761D02*
X110080952Y-112947380D01*
X110080952Y-112947380D02*
X109985714Y-112947380D01*
X111319047Y-111947380D02*
X110842857Y-111947380D01*
X110842857Y-111947380D02*
X110795238Y-112423571D01*
X110795238Y-112423571D02*
X110842857Y-112375952D01*
X110842857Y-112375952D02*
X110938095Y-112328333D01*
X110938095Y-112328333D02*
X111176190Y-112328333D01*
X111176190Y-112328333D02*
X111271428Y-112375952D01*
X111271428Y-112375952D02*
X111319047Y-112423571D01*
X111319047Y-112423571D02*
X111366666Y-112518809D01*
X111366666Y-112518809D02*
X111366666Y-112756904D01*
X111366666Y-112756904D02*
X111319047Y-112852142D01*
X111319047Y-112852142D02*
X111271428Y-112899761D01*
X111271428Y-112899761D02*
X111176190Y-112947380D01*
X111176190Y-112947380D02*
X110938095Y-112947380D01*
X110938095Y-112947380D02*
X110842857Y-112899761D01*
X110842857Y-112899761D02*
X110795238Y-112852142D01*
D12*
X92961904Y-111910000D02*
X92866666Y-111862380D01*
X92866666Y-111862380D02*
X92723809Y-111862380D01*
X92723809Y-111862380D02*
X92580952Y-111910000D01*
X92580952Y-111910000D02*
X92485714Y-112005238D01*
X92485714Y-112005238D02*
X92438095Y-112100476D01*
X92438095Y-112100476D02*
X92390476Y-112290952D01*
X92390476Y-112290952D02*
X92390476Y-112433809D01*
X92390476Y-112433809D02*
X92438095Y-112624285D01*
X92438095Y-112624285D02*
X92485714Y-112719523D01*
X92485714Y-112719523D02*
X92580952Y-112814761D01*
X92580952Y-112814761D02*
X92723809Y-112862380D01*
X92723809Y-112862380D02*
X92819047Y-112862380D01*
X92819047Y-112862380D02*
X92961904Y-112814761D01*
X92961904Y-112814761D02*
X93009523Y-112767142D01*
X93009523Y-112767142D02*
X93009523Y-112433809D01*
X93009523Y-112433809D02*
X92819047Y-112433809D01*
X93438095Y-112862380D02*
X93438095Y-111862380D01*
X93438095Y-111862380D02*
X94009523Y-112862380D01*
X94009523Y-112862380D02*
X94009523Y-111862380D01*
X94485714Y-112862380D02*
X94485714Y-111862380D01*
X94485714Y-111862380D02*
X94723809Y-111862380D01*
X94723809Y-111862380D02*
X94866666Y-111910000D01*
X94866666Y-111910000D02*
X94961904Y-112005238D01*
X94961904Y-112005238D02*
X95009523Y-112100476D01*
X95009523Y-112100476D02*
X95057142Y-112290952D01*
X95057142Y-112290952D02*
X95057142Y-112433809D01*
X95057142Y-112433809D02*
X95009523Y-112624285D01*
X95009523Y-112624285D02*
X94961904Y-112719523D01*
X94961904Y-112719523D02*
X94866666Y-112814761D01*
X94866666Y-112814761D02*
X94723809Y-112862380D01*
X94723809Y-112862380D02*
X94485714Y-112862380D01*
X97917619Y-110318095D02*
X98917619Y-110318095D01*
X98584285Y-110794285D02*
X97917619Y-110794285D01*
X98489047Y-110794285D02*
X98536666Y-110841904D01*
X98536666Y-110841904D02*
X98584285Y-110937142D01*
X98584285Y-110937142D02*
X98584285Y-111079999D01*
X98584285Y-111079999D02*
X98536666Y-111175237D01*
X98536666Y-111175237D02*
X98441428Y-111222856D01*
X98441428Y-111222856D02*
X97917619Y-111222856D01*
X98489047Y-111841904D02*
X98536666Y-111746666D01*
X98536666Y-111746666D02*
X98584285Y-111699047D01*
X98584285Y-111699047D02*
X98679523Y-111651428D01*
X98679523Y-111651428D02*
X98727142Y-111651428D01*
X98727142Y-111651428D02*
X98822380Y-111699047D01*
X98822380Y-111699047D02*
X98870000Y-111746666D01*
X98870000Y-111746666D02*
X98917619Y-111841904D01*
X98917619Y-111841904D02*
X98917619Y-112032380D01*
X98917619Y-112032380D02*
X98870000Y-112127618D01*
X98870000Y-112127618D02*
X98822380Y-112175237D01*
X98822380Y-112175237D02*
X98727142Y-112222856D01*
X98727142Y-112222856D02*
X98679523Y-112222856D01*
X98679523Y-112222856D02*
X98584285Y-112175237D01*
X98584285Y-112175237D02*
X98536666Y-112127618D01*
X98536666Y-112127618D02*
X98489047Y-112032380D01*
X98489047Y-112032380D02*
X98489047Y-111841904D01*
X98489047Y-111841904D02*
X98441428Y-111746666D01*
X98441428Y-111746666D02*
X98393809Y-111699047D01*
X98393809Y-111699047D02*
X98298571Y-111651428D01*
X98298571Y-111651428D02*
X98108095Y-111651428D01*
X98108095Y-111651428D02*
X98012857Y-111699047D01*
X98012857Y-111699047D02*
X97965238Y-111746666D01*
X97965238Y-111746666D02*
X97917619Y-111841904D01*
X97917619Y-111841904D02*
X97917619Y-112032380D01*
X97917619Y-112032380D02*
X97965238Y-112127618D01*
X97965238Y-112127618D02*
X98012857Y-112175237D01*
X98012857Y-112175237D02*
X98108095Y-112222856D01*
X98108095Y-112222856D02*
X98298571Y-112222856D01*
X98298571Y-112222856D02*
X98393809Y-112175237D01*
X98393809Y-112175237D02*
X98441428Y-112127618D01*
X98441428Y-112127618D02*
X98489047Y-112032380D01*
X103982380Y-103235772D02*
X102982380Y-103235772D01*
X103315714Y-102759582D02*
X103982380Y-102759582D01*
X103410952Y-102759582D02*
X103363333Y-102711963D01*
X103363333Y-102711963D02*
X103315714Y-102616725D01*
X103315714Y-102616725D02*
X103315714Y-102473868D01*
X103315714Y-102473868D02*
X103363333Y-102378630D01*
X103363333Y-102378630D02*
X103458571Y-102331011D01*
X103458571Y-102331011D02*
X103982380Y-102331011D01*
X103077619Y-101902439D02*
X103030000Y-101854820D01*
X103030000Y-101854820D02*
X102982380Y-101759582D01*
X102982380Y-101759582D02*
X102982380Y-101521487D01*
X102982380Y-101521487D02*
X103030000Y-101426249D01*
X103030000Y-101426249D02*
X103077619Y-101378630D01*
X103077619Y-101378630D02*
X103172857Y-101331011D01*
X103172857Y-101331011D02*
X103268095Y-101331011D01*
X103268095Y-101331011D02*
X103410952Y-101378630D01*
X103410952Y-101378630D02*
X103982380Y-101950058D01*
X103982380Y-101950058D02*
X103982380Y-101331011D01*
X100417619Y-110318095D02*
X101417619Y-110318095D01*
X101084285Y-110794285D02*
X100417619Y-110794285D01*
X100989047Y-110794285D02*
X101036666Y-110841904D01*
X101036666Y-110841904D02*
X101084285Y-110937142D01*
X101084285Y-110937142D02*
X101084285Y-111079999D01*
X101084285Y-111079999D02*
X101036666Y-111175237D01*
X101036666Y-111175237D02*
X100941428Y-111222856D01*
X100941428Y-111222856D02*
X100417619Y-111222856D01*
X101417619Y-112175237D02*
X101417619Y-111699047D01*
X101417619Y-111699047D02*
X100941428Y-111651428D01*
X100941428Y-111651428D02*
X100989047Y-111699047D01*
X100989047Y-111699047D02*
X101036666Y-111794285D01*
X101036666Y-111794285D02*
X101036666Y-112032380D01*
X101036666Y-112032380D02*
X100989047Y-112127618D01*
X100989047Y-112127618D02*
X100941428Y-112175237D01*
X100941428Y-112175237D02*
X100846190Y-112222856D01*
X100846190Y-112222856D02*
X100608095Y-112222856D01*
X100608095Y-112222856D02*
X100512857Y-112175237D01*
X100512857Y-112175237D02*
X100465238Y-112127618D01*
X100465238Y-112127618D02*
X100417619Y-112032380D01*
X100417619Y-112032380D02*
X100417619Y-111794285D01*
X100417619Y-111794285D02*
X100465238Y-111699047D01*
X100465238Y-111699047D02*
X100512857Y-111651428D01*
X101481600Y-103341904D02*
X100481600Y-103341904D01*
X100814934Y-102865714D02*
X101481600Y-102865714D01*
X100910172Y-102865714D02*
X100862553Y-102818095D01*
X100862553Y-102818095D02*
X100814934Y-102722857D01*
X100814934Y-102722857D02*
X100814934Y-102580000D01*
X100814934Y-102580000D02*
X100862553Y-102484762D01*
X100862553Y-102484762D02*
X100957791Y-102437143D01*
X100957791Y-102437143D02*
X101481600Y-102437143D01*
X100814934Y-101532381D02*
X101481600Y-101532381D01*
X100433981Y-101770476D02*
X101148267Y-102008571D01*
X101148267Y-102008571D02*
X101148267Y-101389524D01*
X98982380Y-103235772D02*
X97982380Y-103235772D01*
X98315714Y-102759582D02*
X98982380Y-102759582D01*
X98410952Y-102759582D02*
X98363333Y-102711963D01*
X98363333Y-102711963D02*
X98315714Y-102616725D01*
X98315714Y-102616725D02*
X98315714Y-102473868D01*
X98315714Y-102473868D02*
X98363333Y-102378630D01*
X98363333Y-102378630D02*
X98458571Y-102331011D01*
X98458571Y-102331011D02*
X98982380Y-102331011D01*
X97982380Y-101426249D02*
X97982380Y-101616725D01*
X97982380Y-101616725D02*
X98030000Y-101711963D01*
X98030000Y-101711963D02*
X98077619Y-101759582D01*
X98077619Y-101759582D02*
X98220476Y-101854820D01*
X98220476Y-101854820D02*
X98410952Y-101902439D01*
X98410952Y-101902439D02*
X98791904Y-101902439D01*
X98791904Y-101902439D02*
X98887142Y-101854820D01*
X98887142Y-101854820D02*
X98934761Y-101807201D01*
X98934761Y-101807201D02*
X98982380Y-101711963D01*
X98982380Y-101711963D02*
X98982380Y-101521487D01*
X98982380Y-101521487D02*
X98934761Y-101426249D01*
X98934761Y-101426249D02*
X98887142Y-101378630D01*
X98887142Y-101378630D02*
X98791904Y-101331011D01*
X98791904Y-101331011D02*
X98553809Y-101331011D01*
X98553809Y-101331011D02*
X98458571Y-101378630D01*
X98458571Y-101378630D02*
X98410952Y-101426249D01*
X98410952Y-101426249D02*
X98363333Y-101521487D01*
X98363333Y-101521487D02*
X98363333Y-101711963D01*
X98363333Y-101711963D02*
X98410952Y-101807201D01*
X98410952Y-101807201D02*
X98458571Y-101854820D01*
X98458571Y-101854820D02*
X98553809Y-101902439D01*
X106481600Y-103341904D02*
X105481600Y-103341904D01*
X105814934Y-102865714D02*
X106481600Y-102865714D01*
X105910172Y-102865714D02*
X105862553Y-102818095D01*
X105862553Y-102818095D02*
X105814934Y-102722857D01*
X105814934Y-102722857D02*
X105814934Y-102580000D01*
X105814934Y-102580000D02*
X105862553Y-102484762D01*
X105862553Y-102484762D02*
X105957791Y-102437143D01*
X105957791Y-102437143D02*
X106481600Y-102437143D01*
X105481600Y-101770476D02*
X105481600Y-101675238D01*
X105481600Y-101675238D02*
X105529220Y-101580000D01*
X105529220Y-101580000D02*
X105576839Y-101532381D01*
X105576839Y-101532381D02*
X105672077Y-101484762D01*
X105672077Y-101484762D02*
X105862553Y-101437143D01*
X105862553Y-101437143D02*
X106100648Y-101437143D01*
X106100648Y-101437143D02*
X106291124Y-101484762D01*
X106291124Y-101484762D02*
X106386362Y-101532381D01*
X106386362Y-101532381D02*
X106433981Y-101580000D01*
X106433981Y-101580000D02*
X106481600Y-101675238D01*
X106481600Y-101675238D02*
X106481600Y-101770476D01*
X106481600Y-101770476D02*
X106433981Y-101865714D01*
X106433981Y-101865714D02*
X106386362Y-101913333D01*
X106386362Y-101913333D02*
X106291124Y-101960952D01*
X106291124Y-101960952D02*
X106100648Y-102008571D01*
X106100648Y-102008571D02*
X105862553Y-102008571D01*
X105862553Y-102008571D02*
X105672077Y-101960952D01*
X105672077Y-101960952D02*
X105576839Y-101913333D01*
X105576839Y-101913333D02*
X105529220Y-101865714D01*
X105529220Y-101865714D02*
X105481600Y-101770476D01*
X105417619Y-110318095D02*
X106417619Y-110318095D01*
X106084285Y-110794285D02*
X105417619Y-110794285D01*
X105989047Y-110794285D02*
X106036666Y-110841904D01*
X106036666Y-110841904D02*
X106084285Y-110937142D01*
X106084285Y-110937142D02*
X106084285Y-111079999D01*
X106084285Y-111079999D02*
X106036666Y-111175237D01*
X106036666Y-111175237D02*
X105941428Y-111222856D01*
X105941428Y-111222856D02*
X105417619Y-111222856D01*
X105417619Y-112222856D02*
X105417619Y-111651428D01*
X105417619Y-111937142D02*
X106417619Y-111937142D01*
X106417619Y-111937142D02*
X106274761Y-111841904D01*
X106274761Y-111841904D02*
X106179523Y-111746666D01*
X106179523Y-111746666D02*
X106131904Y-111651428D01*
X102917619Y-110318095D02*
X103917619Y-110318095D01*
X103584285Y-110794285D02*
X102917619Y-110794285D01*
X103489047Y-110794285D02*
X103536666Y-110841904D01*
X103536666Y-110841904D02*
X103584285Y-110937142D01*
X103584285Y-110937142D02*
X103584285Y-111079999D01*
X103584285Y-111079999D02*
X103536666Y-111175237D01*
X103536666Y-111175237D02*
X103441428Y-111222856D01*
X103441428Y-111222856D02*
X102917619Y-111222856D01*
X103917619Y-111603809D02*
X103917619Y-112222856D01*
X103917619Y-112222856D02*
X103536666Y-111889523D01*
X103536666Y-111889523D02*
X103536666Y-112032380D01*
X103536666Y-112032380D02*
X103489047Y-112127618D01*
X103489047Y-112127618D02*
X103441428Y-112175237D01*
X103441428Y-112175237D02*
X103346190Y-112222856D01*
X103346190Y-112222856D02*
X103108095Y-112222856D01*
X103108095Y-112222856D02*
X103012857Y-112175237D01*
X103012857Y-112175237D02*
X102965238Y-112127618D01*
X102965238Y-112127618D02*
X102917619Y-112032380D01*
X102917619Y-112032380D02*
X102917619Y-111746666D01*
X102917619Y-111746666D02*
X102965238Y-111651428D01*
X102965238Y-111651428D02*
X103012857Y-111603809D01*
D11*
X60067380Y-134106666D02*
X59591190Y-134439999D01*
X60067380Y-134678094D02*
X59067380Y-134678094D01*
X59067380Y-134678094D02*
X59067380Y-134297142D01*
X59067380Y-134297142D02*
X59115000Y-134201904D01*
X59115000Y-134201904D02*
X59162619Y-134154285D01*
X59162619Y-134154285D02*
X59257857Y-134106666D01*
X59257857Y-134106666D02*
X59400714Y-134106666D01*
X59400714Y-134106666D02*
X59495952Y-134154285D01*
X59495952Y-134154285D02*
X59543571Y-134201904D01*
X59543571Y-134201904D02*
X59591190Y-134297142D01*
X59591190Y-134297142D02*
X59591190Y-134678094D01*
X59067380Y-133773332D02*
X59067380Y-133106666D01*
X59067380Y-133106666D02*
X60067380Y-133535237D01*
X87483333Y-125242142D02*
X87435714Y-125289761D01*
X87435714Y-125289761D02*
X87292857Y-125337380D01*
X87292857Y-125337380D02*
X87197619Y-125337380D01*
X87197619Y-125337380D02*
X87054762Y-125289761D01*
X87054762Y-125289761D02*
X86959524Y-125194523D01*
X86959524Y-125194523D02*
X86911905Y-125099285D01*
X86911905Y-125099285D02*
X86864286Y-124908809D01*
X86864286Y-124908809D02*
X86864286Y-124765952D01*
X86864286Y-124765952D02*
X86911905Y-124575476D01*
X86911905Y-124575476D02*
X86959524Y-124480238D01*
X86959524Y-124480238D02*
X87054762Y-124385000D01*
X87054762Y-124385000D02*
X87197619Y-124337380D01*
X87197619Y-124337380D02*
X87292857Y-124337380D01*
X87292857Y-124337380D02*
X87435714Y-124385000D01*
X87435714Y-124385000D02*
X87483333Y-124432619D01*
X87864286Y-124432619D02*
X87911905Y-124385000D01*
X87911905Y-124385000D02*
X88007143Y-124337380D01*
X88007143Y-124337380D02*
X88245238Y-124337380D01*
X88245238Y-124337380D02*
X88340476Y-124385000D01*
X88340476Y-124385000D02*
X88388095Y-124432619D01*
X88388095Y-124432619D02*
X88435714Y-124527857D01*
X88435714Y-124527857D02*
X88435714Y-124623095D01*
X88435714Y-124623095D02*
X88388095Y-124765952D01*
X88388095Y-124765952D02*
X87816667Y-125337380D01*
X87816667Y-125337380D02*
X88435714Y-125337380D01*
X100547380Y-134752857D02*
X100071190Y-135086190D01*
X100547380Y-135324285D02*
X99547380Y-135324285D01*
X99547380Y-135324285D02*
X99547380Y-134943333D01*
X99547380Y-134943333D02*
X99595000Y-134848095D01*
X99595000Y-134848095D02*
X99642619Y-134800476D01*
X99642619Y-134800476D02*
X99737857Y-134752857D01*
X99737857Y-134752857D02*
X99880714Y-134752857D01*
X99880714Y-134752857D02*
X99975952Y-134800476D01*
X99975952Y-134800476D02*
X100023571Y-134848095D01*
X100023571Y-134848095D02*
X100071190Y-134943333D01*
X100071190Y-134943333D02*
X100071190Y-135324285D01*
X99642619Y-134371904D02*
X99595000Y-134324285D01*
X99595000Y-134324285D02*
X99547380Y-134229047D01*
X99547380Y-134229047D02*
X99547380Y-133990952D01*
X99547380Y-133990952D02*
X99595000Y-133895714D01*
X99595000Y-133895714D02*
X99642619Y-133848095D01*
X99642619Y-133848095D02*
X99737857Y-133800476D01*
X99737857Y-133800476D02*
X99833095Y-133800476D01*
X99833095Y-133800476D02*
X99975952Y-133848095D01*
X99975952Y-133848095D02*
X100547380Y-134419523D01*
X100547380Y-134419523D02*
X100547380Y-133800476D01*
X99880714Y-132943333D02*
X100547380Y-132943333D01*
X99499761Y-133181428D02*
X100214047Y-133419523D01*
X100214047Y-133419523D02*
X100214047Y-132800476D01*
X95527380Y-134752857D02*
X95051190Y-135086190D01*
X95527380Y-135324285D02*
X94527380Y-135324285D01*
X94527380Y-135324285D02*
X94527380Y-134943333D01*
X94527380Y-134943333D02*
X94575000Y-134848095D01*
X94575000Y-134848095D02*
X94622619Y-134800476D01*
X94622619Y-134800476D02*
X94717857Y-134752857D01*
X94717857Y-134752857D02*
X94860714Y-134752857D01*
X94860714Y-134752857D02*
X94955952Y-134800476D01*
X94955952Y-134800476D02*
X95003571Y-134848095D01*
X95003571Y-134848095D02*
X95051190Y-134943333D01*
X95051190Y-134943333D02*
X95051190Y-135324285D01*
X94622619Y-134371904D02*
X94575000Y-134324285D01*
X94575000Y-134324285D02*
X94527380Y-134229047D01*
X94527380Y-134229047D02*
X94527380Y-133990952D01*
X94527380Y-133990952D02*
X94575000Y-133895714D01*
X94575000Y-133895714D02*
X94622619Y-133848095D01*
X94622619Y-133848095D02*
X94717857Y-133800476D01*
X94717857Y-133800476D02*
X94813095Y-133800476D01*
X94813095Y-133800476D02*
X94955952Y-133848095D01*
X94955952Y-133848095D02*
X95527380Y-134419523D01*
X95527380Y-134419523D02*
X95527380Y-133800476D01*
X94527380Y-132943333D02*
X94527380Y-133133809D01*
X94527380Y-133133809D02*
X94575000Y-133229047D01*
X94575000Y-133229047D02*
X94622619Y-133276666D01*
X94622619Y-133276666D02*
X94765476Y-133371904D01*
X94765476Y-133371904D02*
X94955952Y-133419523D01*
X94955952Y-133419523D02*
X95336904Y-133419523D01*
X95336904Y-133419523D02*
X95432142Y-133371904D01*
X95432142Y-133371904D02*
X95479761Y-133324285D01*
X95479761Y-133324285D02*
X95527380Y-133229047D01*
X95527380Y-133229047D02*
X95527380Y-133038571D01*
X95527380Y-133038571D02*
X95479761Y-132943333D01*
X95479761Y-132943333D02*
X95432142Y-132895714D01*
X95432142Y-132895714D02*
X95336904Y-132848095D01*
X95336904Y-132848095D02*
X95098809Y-132848095D01*
X95098809Y-132848095D02*
X95003571Y-132895714D01*
X95003571Y-132895714D02*
X94955952Y-132943333D01*
X94955952Y-132943333D02*
X94908333Y-133038571D01*
X94908333Y-133038571D02*
X94908333Y-133229047D01*
X94908333Y-133229047D02*
X94955952Y-133324285D01*
X94955952Y-133324285D02*
X95003571Y-133371904D01*
X95003571Y-133371904D02*
X95098809Y-133419523D01*
X62867380Y-97066666D02*
X62391190Y-97399999D01*
X62867380Y-97638094D02*
X61867380Y-97638094D01*
X61867380Y-97638094D02*
X61867380Y-97257142D01*
X61867380Y-97257142D02*
X61915000Y-97161904D01*
X61915000Y-97161904D02*
X61962619Y-97114285D01*
X61962619Y-97114285D02*
X62057857Y-97066666D01*
X62057857Y-97066666D02*
X62200714Y-97066666D01*
X62200714Y-97066666D02*
X62295952Y-97114285D01*
X62295952Y-97114285D02*
X62343571Y-97161904D01*
X62343571Y-97161904D02*
X62391190Y-97257142D01*
X62391190Y-97257142D02*
X62391190Y-97638094D01*
X62200714Y-96209523D02*
X62867380Y-96209523D01*
X61819761Y-96447618D02*
X62534047Y-96685713D01*
X62534047Y-96685713D02*
X62534047Y-96066666D01*
X72847380Y-134662857D02*
X72371190Y-134996190D01*
X72847380Y-135234285D02*
X71847380Y-135234285D01*
X71847380Y-135234285D02*
X71847380Y-134853333D01*
X71847380Y-134853333D02*
X71895000Y-134758095D01*
X71895000Y-134758095D02*
X71942619Y-134710476D01*
X71942619Y-134710476D02*
X72037857Y-134662857D01*
X72037857Y-134662857D02*
X72180714Y-134662857D01*
X72180714Y-134662857D02*
X72275952Y-134710476D01*
X72275952Y-134710476D02*
X72323571Y-134758095D01*
X72323571Y-134758095D02*
X72371190Y-134853333D01*
X72371190Y-134853333D02*
X72371190Y-135234285D01*
X72847380Y-133710476D02*
X72847380Y-134281904D01*
X72847380Y-133996190D02*
X71847380Y-133996190D01*
X71847380Y-133996190D02*
X71990238Y-134091428D01*
X71990238Y-134091428D02*
X72085476Y-134186666D01*
X72085476Y-134186666D02*
X72133095Y-134281904D01*
X72275952Y-133139047D02*
X72228333Y-133234285D01*
X72228333Y-133234285D02*
X72180714Y-133281904D01*
X72180714Y-133281904D02*
X72085476Y-133329523D01*
X72085476Y-133329523D02*
X72037857Y-133329523D01*
X72037857Y-133329523D02*
X71942619Y-133281904D01*
X71942619Y-133281904D02*
X71895000Y-133234285D01*
X71895000Y-133234285D02*
X71847380Y-133139047D01*
X71847380Y-133139047D02*
X71847380Y-132948571D01*
X71847380Y-132948571D02*
X71895000Y-132853333D01*
X71895000Y-132853333D02*
X71942619Y-132805714D01*
X71942619Y-132805714D02*
X72037857Y-132758095D01*
X72037857Y-132758095D02*
X72085476Y-132758095D01*
X72085476Y-132758095D02*
X72180714Y-132805714D01*
X72180714Y-132805714D02*
X72228333Y-132853333D01*
X72228333Y-132853333D02*
X72275952Y-132948571D01*
X72275952Y-132948571D02*
X72275952Y-133139047D01*
X72275952Y-133139047D02*
X72323571Y-133234285D01*
X72323571Y-133234285D02*
X72371190Y-133281904D01*
X72371190Y-133281904D02*
X72466428Y-133329523D01*
X72466428Y-133329523D02*
X72656904Y-133329523D01*
X72656904Y-133329523D02*
X72752142Y-133281904D01*
X72752142Y-133281904D02*
X72799761Y-133234285D01*
X72799761Y-133234285D02*
X72847380Y-133139047D01*
X72847380Y-133139047D02*
X72847380Y-132948571D01*
X72847380Y-132948571D02*
X72799761Y-132853333D01*
X72799761Y-132853333D02*
X72752142Y-132805714D01*
X72752142Y-132805714D02*
X72656904Y-132758095D01*
X72656904Y-132758095D02*
X72466428Y-132758095D01*
X72466428Y-132758095D02*
X72371190Y-132805714D01*
X72371190Y-132805714D02*
X72323571Y-132853333D01*
X72323571Y-132853333D02*
X72275952Y-132948571D01*
X66483333Y-125242142D02*
X66435714Y-125289761D01*
X66435714Y-125289761D02*
X66292857Y-125337380D01*
X66292857Y-125337380D02*
X66197619Y-125337380D01*
X66197619Y-125337380D02*
X66054762Y-125289761D01*
X66054762Y-125289761D02*
X65959524Y-125194523D01*
X65959524Y-125194523D02*
X65911905Y-125099285D01*
X65911905Y-125099285D02*
X65864286Y-124908809D01*
X65864286Y-124908809D02*
X65864286Y-124765952D01*
X65864286Y-124765952D02*
X65911905Y-124575476D01*
X65911905Y-124575476D02*
X65959524Y-124480238D01*
X65959524Y-124480238D02*
X66054762Y-124385000D01*
X66054762Y-124385000D02*
X66197619Y-124337380D01*
X66197619Y-124337380D02*
X66292857Y-124337380D01*
X66292857Y-124337380D02*
X66435714Y-124385000D01*
X66435714Y-124385000D02*
X66483333Y-124432619D01*
X67435714Y-125337380D02*
X66864286Y-125337380D01*
X67150000Y-125337380D02*
X67150000Y-124337380D01*
X67150000Y-124337380D02*
X67054762Y-124480238D01*
X67054762Y-124480238D02*
X66959524Y-124575476D01*
X66959524Y-124575476D02*
X66864286Y-124623095D01*
X118767380Y-134752857D02*
X118291190Y-135086190D01*
X118767380Y-135324285D02*
X117767380Y-135324285D01*
X117767380Y-135324285D02*
X117767380Y-134943333D01*
X117767380Y-134943333D02*
X117815000Y-134848095D01*
X117815000Y-134848095D02*
X117862619Y-134800476D01*
X117862619Y-134800476D02*
X117957857Y-134752857D01*
X117957857Y-134752857D02*
X118100714Y-134752857D01*
X118100714Y-134752857D02*
X118195952Y-134800476D01*
X118195952Y-134800476D02*
X118243571Y-134848095D01*
X118243571Y-134848095D02*
X118291190Y-134943333D01*
X118291190Y-134943333D02*
X118291190Y-135324285D01*
X117767380Y-134419523D02*
X117767380Y-133800476D01*
X117767380Y-133800476D02*
X118148333Y-134133809D01*
X118148333Y-134133809D02*
X118148333Y-133990952D01*
X118148333Y-133990952D02*
X118195952Y-133895714D01*
X118195952Y-133895714D02*
X118243571Y-133848095D01*
X118243571Y-133848095D02*
X118338809Y-133800476D01*
X118338809Y-133800476D02*
X118576904Y-133800476D01*
X118576904Y-133800476D02*
X118672142Y-133848095D01*
X118672142Y-133848095D02*
X118719761Y-133895714D01*
X118719761Y-133895714D02*
X118767380Y-133990952D01*
X118767380Y-133990952D02*
X118767380Y-134276666D01*
X118767380Y-134276666D02*
X118719761Y-134371904D01*
X118719761Y-134371904D02*
X118672142Y-134419523D01*
X118100714Y-132943333D02*
X118767380Y-132943333D01*
X117719761Y-133181428D02*
X118434047Y-133419523D01*
X118434047Y-133419523D02*
X118434047Y-132800476D01*
X52397142Y-110472380D02*
X52063809Y-109996190D01*
X51825714Y-110472380D02*
X51825714Y-109472380D01*
X51825714Y-109472380D02*
X52206666Y-109472380D01*
X52206666Y-109472380D02*
X52301904Y-109520000D01*
X52301904Y-109520000D02*
X52349523Y-109567619D01*
X52349523Y-109567619D02*
X52397142Y-109662857D01*
X52397142Y-109662857D02*
X52397142Y-109805714D01*
X52397142Y-109805714D02*
X52349523Y-109900952D01*
X52349523Y-109900952D02*
X52301904Y-109948571D01*
X52301904Y-109948571D02*
X52206666Y-109996190D01*
X52206666Y-109996190D02*
X51825714Y-109996190D01*
X52778095Y-109567619D02*
X52825714Y-109520000D01*
X52825714Y-109520000D02*
X52920952Y-109472380D01*
X52920952Y-109472380D02*
X53159047Y-109472380D01*
X53159047Y-109472380D02*
X53254285Y-109520000D01*
X53254285Y-109520000D02*
X53301904Y-109567619D01*
X53301904Y-109567619D02*
X53349523Y-109662857D01*
X53349523Y-109662857D02*
X53349523Y-109758095D01*
X53349523Y-109758095D02*
X53301904Y-109900952D01*
X53301904Y-109900952D02*
X52730476Y-110472380D01*
X52730476Y-110472380D02*
X53349523Y-110472380D01*
X53920952Y-109900952D02*
X53825714Y-109853333D01*
X53825714Y-109853333D02*
X53778095Y-109805714D01*
X53778095Y-109805714D02*
X53730476Y-109710476D01*
X53730476Y-109710476D02*
X53730476Y-109662857D01*
X53730476Y-109662857D02*
X53778095Y-109567619D01*
X53778095Y-109567619D02*
X53825714Y-109520000D01*
X53825714Y-109520000D02*
X53920952Y-109472380D01*
X53920952Y-109472380D02*
X54111428Y-109472380D01*
X54111428Y-109472380D02*
X54206666Y-109520000D01*
X54206666Y-109520000D02*
X54254285Y-109567619D01*
X54254285Y-109567619D02*
X54301904Y-109662857D01*
X54301904Y-109662857D02*
X54301904Y-109710476D01*
X54301904Y-109710476D02*
X54254285Y-109805714D01*
X54254285Y-109805714D02*
X54206666Y-109853333D01*
X54206666Y-109853333D02*
X54111428Y-109900952D01*
X54111428Y-109900952D02*
X53920952Y-109900952D01*
X53920952Y-109900952D02*
X53825714Y-109948571D01*
X53825714Y-109948571D02*
X53778095Y-109996190D01*
X53778095Y-109996190D02*
X53730476Y-110091428D01*
X53730476Y-110091428D02*
X53730476Y-110281904D01*
X53730476Y-110281904D02*
X53778095Y-110377142D01*
X53778095Y-110377142D02*
X53825714Y-110424761D01*
X53825714Y-110424761D02*
X53920952Y-110472380D01*
X53920952Y-110472380D02*
X54111428Y-110472380D01*
X54111428Y-110472380D02*
X54206666Y-110424761D01*
X54206666Y-110424761D02*
X54254285Y-110377142D01*
X54254285Y-110377142D02*
X54301904Y-110281904D01*
X54301904Y-110281904D02*
X54301904Y-110091428D01*
X54301904Y-110091428D02*
X54254285Y-109996190D01*
X54254285Y-109996190D02*
X54206666Y-109948571D01*
X54206666Y-109948571D02*
X54111428Y-109900952D01*
X113023810Y-115367380D02*
X113023810Y-114367380D01*
X114071428Y-115272142D02*
X114023809Y-115319761D01*
X114023809Y-115319761D02*
X113880952Y-115367380D01*
X113880952Y-115367380D02*
X113785714Y-115367380D01*
X113785714Y-115367380D02*
X113642857Y-115319761D01*
X113642857Y-115319761D02*
X113547619Y-115224523D01*
X113547619Y-115224523D02*
X113500000Y-115129285D01*
X113500000Y-115129285D02*
X113452381Y-114938809D01*
X113452381Y-114938809D02*
X113452381Y-114795952D01*
X113452381Y-114795952D02*
X113500000Y-114605476D01*
X113500000Y-114605476D02*
X113547619Y-114510238D01*
X113547619Y-114510238D02*
X113642857Y-114415000D01*
X113642857Y-114415000D02*
X113785714Y-114367380D01*
X113785714Y-114367380D02*
X113880952Y-114367380D01*
X113880952Y-114367380D02*
X114023809Y-114415000D01*
X114023809Y-114415000D02*
X114071428Y-114462619D01*
X114928571Y-114700714D02*
X114928571Y-115367380D01*
X114690476Y-114319761D02*
X114452381Y-115034047D01*
X114452381Y-115034047D02*
X115071428Y-115034047D01*
X90959523Y-97547380D02*
X90626190Y-97071190D01*
X90388095Y-97547380D02*
X90388095Y-96547380D01*
X90388095Y-96547380D02*
X90769047Y-96547380D01*
X90769047Y-96547380D02*
X90864285Y-96595000D01*
X90864285Y-96595000D02*
X90911904Y-96642619D01*
X90911904Y-96642619D02*
X90959523Y-96737857D01*
X90959523Y-96737857D02*
X90959523Y-96880714D01*
X90959523Y-96880714D02*
X90911904Y-96975952D01*
X90911904Y-96975952D02*
X90864285Y-97023571D01*
X90864285Y-97023571D02*
X90769047Y-97071190D01*
X90769047Y-97071190D02*
X90388095Y-97071190D01*
X91388095Y-97547380D02*
X91388095Y-96547380D01*
X91388095Y-96547380D02*
X91959523Y-97547380D01*
X91959523Y-97547380D02*
X91959523Y-96547380D01*
X92911904Y-96547380D02*
X92435714Y-96547380D01*
X92435714Y-96547380D02*
X92388095Y-97023571D01*
X92388095Y-97023571D02*
X92435714Y-96975952D01*
X92435714Y-96975952D02*
X92530952Y-96928333D01*
X92530952Y-96928333D02*
X92769047Y-96928333D01*
X92769047Y-96928333D02*
X92864285Y-96975952D01*
X92864285Y-96975952D02*
X92911904Y-97023571D01*
X92911904Y-97023571D02*
X92959523Y-97118809D01*
X92959523Y-97118809D02*
X92959523Y-97356904D01*
X92959523Y-97356904D02*
X92911904Y-97452142D01*
X92911904Y-97452142D02*
X92864285Y-97499761D01*
X92864285Y-97499761D02*
X92769047Y-97547380D01*
X92769047Y-97547380D02*
X92530952Y-97547380D01*
X92530952Y-97547380D02*
X92435714Y-97499761D01*
X92435714Y-97499761D02*
X92388095Y-97452142D01*
X82047380Y-134652857D02*
X81571190Y-134986190D01*
X82047380Y-135224285D02*
X81047380Y-135224285D01*
X81047380Y-135224285D02*
X81047380Y-134843333D01*
X81047380Y-134843333D02*
X81095000Y-134748095D01*
X81095000Y-134748095D02*
X81142619Y-134700476D01*
X81142619Y-134700476D02*
X81237857Y-134652857D01*
X81237857Y-134652857D02*
X81380714Y-134652857D01*
X81380714Y-134652857D02*
X81475952Y-134700476D01*
X81475952Y-134700476D02*
X81523571Y-134748095D01*
X81523571Y-134748095D02*
X81571190Y-134843333D01*
X81571190Y-134843333D02*
X81571190Y-135224285D01*
X82047380Y-133700476D02*
X82047380Y-134271904D01*
X82047380Y-133986190D02*
X81047380Y-133986190D01*
X81047380Y-133986190D02*
X81190238Y-134081428D01*
X81190238Y-134081428D02*
X81285476Y-134176666D01*
X81285476Y-134176666D02*
X81333095Y-134271904D01*
X81380714Y-132843333D02*
X82047380Y-132843333D01*
X80999761Y-133081428D02*
X81714047Y-133319523D01*
X81714047Y-133319523D02*
X81714047Y-132700476D01*
X77447380Y-134652857D02*
X76971190Y-134986190D01*
X77447380Y-135224285D02*
X76447380Y-135224285D01*
X76447380Y-135224285D02*
X76447380Y-134843333D01*
X76447380Y-134843333D02*
X76495000Y-134748095D01*
X76495000Y-134748095D02*
X76542619Y-134700476D01*
X76542619Y-134700476D02*
X76637857Y-134652857D01*
X76637857Y-134652857D02*
X76780714Y-134652857D01*
X76780714Y-134652857D02*
X76875952Y-134700476D01*
X76875952Y-134700476D02*
X76923571Y-134748095D01*
X76923571Y-134748095D02*
X76971190Y-134843333D01*
X76971190Y-134843333D02*
X76971190Y-135224285D01*
X77447380Y-133700476D02*
X77447380Y-134271904D01*
X77447380Y-133986190D02*
X76447380Y-133986190D01*
X76447380Y-133986190D02*
X76590238Y-134081428D01*
X76590238Y-134081428D02*
X76685476Y-134176666D01*
X76685476Y-134176666D02*
X76733095Y-134271904D01*
X76447380Y-132843333D02*
X76447380Y-133033809D01*
X76447380Y-133033809D02*
X76495000Y-133129047D01*
X76495000Y-133129047D02*
X76542619Y-133176666D01*
X76542619Y-133176666D02*
X76685476Y-133271904D01*
X76685476Y-133271904D02*
X76875952Y-133319523D01*
X76875952Y-133319523D02*
X77256904Y-133319523D01*
X77256904Y-133319523D02*
X77352142Y-133271904D01*
X77352142Y-133271904D02*
X77399761Y-133224285D01*
X77399761Y-133224285D02*
X77447380Y-133129047D01*
X77447380Y-133129047D02*
X77447380Y-132938571D01*
X77447380Y-132938571D02*
X77399761Y-132843333D01*
X77399761Y-132843333D02*
X77352142Y-132795714D01*
X77352142Y-132795714D02*
X77256904Y-132748095D01*
X77256904Y-132748095D02*
X77018809Y-132748095D01*
X77018809Y-132748095D02*
X76923571Y-132795714D01*
X76923571Y-132795714D02*
X76875952Y-132843333D01*
X76875952Y-132843333D02*
X76828333Y-132938571D01*
X76828333Y-132938571D02*
X76828333Y-133129047D01*
X76828333Y-133129047D02*
X76875952Y-133224285D01*
X76875952Y-133224285D02*
X76923571Y-133271904D01*
X76923571Y-133271904D02*
X77018809Y-133319523D01*
X107297380Y-96532857D02*
X106821190Y-96866190D01*
X107297380Y-97104285D02*
X106297380Y-97104285D01*
X106297380Y-97104285D02*
X106297380Y-96723333D01*
X106297380Y-96723333D02*
X106345000Y-96628095D01*
X106345000Y-96628095D02*
X106392619Y-96580476D01*
X106392619Y-96580476D02*
X106487857Y-96532857D01*
X106487857Y-96532857D02*
X106630714Y-96532857D01*
X106630714Y-96532857D02*
X106725952Y-96580476D01*
X106725952Y-96580476D02*
X106773571Y-96628095D01*
X106773571Y-96628095D02*
X106821190Y-96723333D01*
X106821190Y-96723333D02*
X106821190Y-97104285D01*
X106392619Y-96151904D02*
X106345000Y-96104285D01*
X106345000Y-96104285D02*
X106297380Y-96009047D01*
X106297380Y-96009047D02*
X106297380Y-95770952D01*
X106297380Y-95770952D02*
X106345000Y-95675714D01*
X106345000Y-95675714D02*
X106392619Y-95628095D01*
X106392619Y-95628095D02*
X106487857Y-95580476D01*
X106487857Y-95580476D02*
X106583095Y-95580476D01*
X106583095Y-95580476D02*
X106725952Y-95628095D01*
X106725952Y-95628095D02*
X107297380Y-96199523D01*
X107297380Y-96199523D02*
X107297380Y-95580476D01*
X106392619Y-95199523D02*
X106345000Y-95151904D01*
X106345000Y-95151904D02*
X106297380Y-95056666D01*
X106297380Y-95056666D02*
X106297380Y-94818571D01*
X106297380Y-94818571D02*
X106345000Y-94723333D01*
X106345000Y-94723333D02*
X106392619Y-94675714D01*
X106392619Y-94675714D02*
X106487857Y-94628095D01*
X106487857Y-94628095D02*
X106583095Y-94628095D01*
X106583095Y-94628095D02*
X106725952Y-94675714D01*
X106725952Y-94675714D02*
X107297380Y-95247142D01*
X107297380Y-95247142D02*
X107297380Y-94628095D01*
X93017380Y-134752857D02*
X92541190Y-135086190D01*
X93017380Y-135324285D02*
X92017380Y-135324285D01*
X92017380Y-135324285D02*
X92017380Y-134943333D01*
X92017380Y-134943333D02*
X92065000Y-134848095D01*
X92065000Y-134848095D02*
X92112619Y-134800476D01*
X92112619Y-134800476D02*
X92207857Y-134752857D01*
X92207857Y-134752857D02*
X92350714Y-134752857D01*
X92350714Y-134752857D02*
X92445952Y-134800476D01*
X92445952Y-134800476D02*
X92493571Y-134848095D01*
X92493571Y-134848095D02*
X92541190Y-134943333D01*
X92541190Y-134943333D02*
X92541190Y-135324285D01*
X92112619Y-134371904D02*
X92065000Y-134324285D01*
X92065000Y-134324285D02*
X92017380Y-134229047D01*
X92017380Y-134229047D02*
X92017380Y-133990952D01*
X92017380Y-133990952D02*
X92065000Y-133895714D01*
X92065000Y-133895714D02*
X92112619Y-133848095D01*
X92112619Y-133848095D02*
X92207857Y-133800476D01*
X92207857Y-133800476D02*
X92303095Y-133800476D01*
X92303095Y-133800476D02*
X92445952Y-133848095D01*
X92445952Y-133848095D02*
X93017380Y-134419523D01*
X93017380Y-134419523D02*
X93017380Y-133800476D01*
X92017380Y-133467142D02*
X92017380Y-132800476D01*
X92017380Y-132800476D02*
X93017380Y-133229047D01*
X77787380Y-96542857D02*
X77311190Y-96876190D01*
X77787380Y-97114285D02*
X76787380Y-97114285D01*
X76787380Y-97114285D02*
X76787380Y-96733333D01*
X76787380Y-96733333D02*
X76835000Y-96638095D01*
X76835000Y-96638095D02*
X76882619Y-96590476D01*
X76882619Y-96590476D02*
X76977857Y-96542857D01*
X76977857Y-96542857D02*
X77120714Y-96542857D01*
X77120714Y-96542857D02*
X77215952Y-96590476D01*
X77215952Y-96590476D02*
X77263571Y-96638095D01*
X77263571Y-96638095D02*
X77311190Y-96733333D01*
X77311190Y-96733333D02*
X77311190Y-97114285D01*
X77787380Y-95590476D02*
X77787380Y-96161904D01*
X77787380Y-95876190D02*
X76787380Y-95876190D01*
X76787380Y-95876190D02*
X76930238Y-95971428D01*
X76930238Y-95971428D02*
X77025476Y-96066666D01*
X77025476Y-96066666D02*
X77073095Y-96161904D01*
X76787380Y-94971428D02*
X76787380Y-94876190D01*
X76787380Y-94876190D02*
X76835000Y-94780952D01*
X76835000Y-94780952D02*
X76882619Y-94733333D01*
X76882619Y-94733333D02*
X76977857Y-94685714D01*
X76977857Y-94685714D02*
X77168333Y-94638095D01*
X77168333Y-94638095D02*
X77406428Y-94638095D01*
X77406428Y-94638095D02*
X77596904Y-94685714D01*
X77596904Y-94685714D02*
X77692142Y-94733333D01*
X77692142Y-94733333D02*
X77739761Y-94780952D01*
X77739761Y-94780952D02*
X77787380Y-94876190D01*
X77787380Y-94876190D02*
X77787380Y-94971428D01*
X77787380Y-94971428D02*
X77739761Y-95066666D01*
X77739761Y-95066666D02*
X77692142Y-95114285D01*
X77692142Y-95114285D02*
X77596904Y-95161904D01*
X77596904Y-95161904D02*
X77406428Y-95209523D01*
X77406428Y-95209523D02*
X77168333Y-95209523D01*
X77168333Y-95209523D02*
X76977857Y-95161904D01*
X76977857Y-95161904D02*
X76882619Y-95114285D01*
X76882619Y-95114285D02*
X76835000Y-95066666D01*
X76835000Y-95066666D02*
X76787380Y-94971428D01*
X57867380Y-96866666D02*
X57391190Y-97199999D01*
X57867380Y-97438094D02*
X56867380Y-97438094D01*
X56867380Y-97438094D02*
X56867380Y-97057142D01*
X56867380Y-97057142D02*
X56915000Y-96961904D01*
X56915000Y-96961904D02*
X56962619Y-96914285D01*
X56962619Y-96914285D02*
X57057857Y-96866666D01*
X57057857Y-96866666D02*
X57200714Y-96866666D01*
X57200714Y-96866666D02*
X57295952Y-96914285D01*
X57295952Y-96914285D02*
X57343571Y-96961904D01*
X57343571Y-96961904D02*
X57391190Y-97057142D01*
X57391190Y-97057142D02*
X57391190Y-97438094D01*
X56962619Y-96485713D02*
X56915000Y-96438094D01*
X56915000Y-96438094D02*
X56867380Y-96342856D01*
X56867380Y-96342856D02*
X56867380Y-96104761D01*
X56867380Y-96104761D02*
X56915000Y-96009523D01*
X56915000Y-96009523D02*
X56962619Y-95961904D01*
X56962619Y-95961904D02*
X57057857Y-95914285D01*
X57057857Y-95914285D02*
X57153095Y-95914285D01*
X57153095Y-95914285D02*
X57295952Y-95961904D01*
X57295952Y-95961904D02*
X57867380Y-96533332D01*
X57867380Y-96533332D02*
X57867380Y-95914285D01*
X67306666Y-111947380D02*
X67306666Y-112661666D01*
X67306666Y-112661666D02*
X67259047Y-112804523D01*
X67259047Y-112804523D02*
X67163809Y-112899761D01*
X67163809Y-112899761D02*
X67020952Y-112947380D01*
X67020952Y-112947380D02*
X66925714Y-112947380D01*
X67687619Y-111947380D02*
X68306666Y-111947380D01*
X68306666Y-111947380D02*
X67973333Y-112328333D01*
X67973333Y-112328333D02*
X68116190Y-112328333D01*
X68116190Y-112328333D02*
X68211428Y-112375952D01*
X68211428Y-112375952D02*
X68259047Y-112423571D01*
X68259047Y-112423571D02*
X68306666Y-112518809D01*
X68306666Y-112518809D02*
X68306666Y-112756904D01*
X68306666Y-112756904D02*
X68259047Y-112852142D01*
X68259047Y-112852142D02*
X68211428Y-112899761D01*
X68211428Y-112899761D02*
X68116190Y-112947380D01*
X68116190Y-112947380D02*
X67830476Y-112947380D01*
X67830476Y-112947380D02*
X67735238Y-112899761D01*
X67735238Y-112899761D02*
X67687619Y-112852142D01*
D12*
X49901904Y-111910000D02*
X49806666Y-111862380D01*
X49806666Y-111862380D02*
X49663809Y-111862380D01*
X49663809Y-111862380D02*
X49520952Y-111910000D01*
X49520952Y-111910000D02*
X49425714Y-112005238D01*
X49425714Y-112005238D02*
X49378095Y-112100476D01*
X49378095Y-112100476D02*
X49330476Y-112290952D01*
X49330476Y-112290952D02*
X49330476Y-112433809D01*
X49330476Y-112433809D02*
X49378095Y-112624285D01*
X49378095Y-112624285D02*
X49425714Y-112719523D01*
X49425714Y-112719523D02*
X49520952Y-112814761D01*
X49520952Y-112814761D02*
X49663809Y-112862380D01*
X49663809Y-112862380D02*
X49759047Y-112862380D01*
X49759047Y-112862380D02*
X49901904Y-112814761D01*
X49901904Y-112814761D02*
X49949523Y-112767142D01*
X49949523Y-112767142D02*
X49949523Y-112433809D01*
X49949523Y-112433809D02*
X49759047Y-112433809D01*
X50378095Y-112862380D02*
X50378095Y-111862380D01*
X50378095Y-111862380D02*
X50949523Y-112862380D01*
X50949523Y-112862380D02*
X50949523Y-111862380D01*
X51425714Y-112862380D02*
X51425714Y-111862380D01*
X51425714Y-111862380D02*
X51663809Y-111862380D01*
X51663809Y-111862380D02*
X51806666Y-111910000D01*
X51806666Y-111910000D02*
X51901904Y-112005238D01*
X51901904Y-112005238D02*
X51949523Y-112100476D01*
X51949523Y-112100476D02*
X51997142Y-112290952D01*
X51997142Y-112290952D02*
X51997142Y-112433809D01*
X51997142Y-112433809D02*
X51949523Y-112624285D01*
X51949523Y-112624285D02*
X51901904Y-112719523D01*
X51901904Y-112719523D02*
X51806666Y-112814761D01*
X51806666Y-112814761D02*
X51663809Y-112862380D01*
X51663809Y-112862380D02*
X51425714Y-112862380D01*
X63421600Y-103341904D02*
X62421600Y-103341904D01*
X62754934Y-102865714D02*
X63421600Y-102865714D01*
X62850172Y-102865714D02*
X62802553Y-102818095D01*
X62802553Y-102818095D02*
X62754934Y-102722857D01*
X62754934Y-102722857D02*
X62754934Y-102580000D01*
X62754934Y-102580000D02*
X62802553Y-102484762D01*
X62802553Y-102484762D02*
X62897791Y-102437143D01*
X62897791Y-102437143D02*
X63421600Y-102437143D01*
X62421600Y-101770476D02*
X62421600Y-101675238D01*
X62421600Y-101675238D02*
X62469220Y-101580000D01*
X62469220Y-101580000D02*
X62516839Y-101532381D01*
X62516839Y-101532381D02*
X62612077Y-101484762D01*
X62612077Y-101484762D02*
X62802553Y-101437143D01*
X62802553Y-101437143D02*
X63040648Y-101437143D01*
X63040648Y-101437143D02*
X63231124Y-101484762D01*
X63231124Y-101484762D02*
X63326362Y-101532381D01*
X63326362Y-101532381D02*
X63373981Y-101580000D01*
X63373981Y-101580000D02*
X63421600Y-101675238D01*
X63421600Y-101675238D02*
X63421600Y-101770476D01*
X63421600Y-101770476D02*
X63373981Y-101865714D01*
X63373981Y-101865714D02*
X63326362Y-101913333D01*
X63326362Y-101913333D02*
X63231124Y-101960952D01*
X63231124Y-101960952D02*
X63040648Y-102008571D01*
X63040648Y-102008571D02*
X62802553Y-102008571D01*
X62802553Y-102008571D02*
X62612077Y-101960952D01*
X62612077Y-101960952D02*
X62516839Y-101913333D01*
X62516839Y-101913333D02*
X62469220Y-101865714D01*
X62469220Y-101865714D02*
X62421600Y-101770476D01*
X54857619Y-110318095D02*
X55857619Y-110318095D01*
X55524285Y-110794285D02*
X54857619Y-110794285D01*
X55429047Y-110794285D02*
X55476666Y-110841904D01*
X55476666Y-110841904D02*
X55524285Y-110937142D01*
X55524285Y-110937142D02*
X55524285Y-111079999D01*
X55524285Y-111079999D02*
X55476666Y-111175237D01*
X55476666Y-111175237D02*
X55381428Y-111222856D01*
X55381428Y-111222856D02*
X54857619Y-111222856D01*
X55429047Y-111841904D02*
X55476666Y-111746666D01*
X55476666Y-111746666D02*
X55524285Y-111699047D01*
X55524285Y-111699047D02*
X55619523Y-111651428D01*
X55619523Y-111651428D02*
X55667142Y-111651428D01*
X55667142Y-111651428D02*
X55762380Y-111699047D01*
X55762380Y-111699047D02*
X55810000Y-111746666D01*
X55810000Y-111746666D02*
X55857619Y-111841904D01*
X55857619Y-111841904D02*
X55857619Y-112032380D01*
X55857619Y-112032380D02*
X55810000Y-112127618D01*
X55810000Y-112127618D02*
X55762380Y-112175237D01*
X55762380Y-112175237D02*
X55667142Y-112222856D01*
X55667142Y-112222856D02*
X55619523Y-112222856D01*
X55619523Y-112222856D02*
X55524285Y-112175237D01*
X55524285Y-112175237D02*
X55476666Y-112127618D01*
X55476666Y-112127618D02*
X55429047Y-112032380D01*
X55429047Y-112032380D02*
X55429047Y-111841904D01*
X55429047Y-111841904D02*
X55381428Y-111746666D01*
X55381428Y-111746666D02*
X55333809Y-111699047D01*
X55333809Y-111699047D02*
X55238571Y-111651428D01*
X55238571Y-111651428D02*
X55048095Y-111651428D01*
X55048095Y-111651428D02*
X54952857Y-111699047D01*
X54952857Y-111699047D02*
X54905238Y-111746666D01*
X54905238Y-111746666D02*
X54857619Y-111841904D01*
X54857619Y-111841904D02*
X54857619Y-112032380D01*
X54857619Y-112032380D02*
X54905238Y-112127618D01*
X54905238Y-112127618D02*
X54952857Y-112175237D01*
X54952857Y-112175237D02*
X55048095Y-112222856D01*
X55048095Y-112222856D02*
X55238571Y-112222856D01*
X55238571Y-112222856D02*
X55333809Y-112175237D01*
X55333809Y-112175237D02*
X55381428Y-112127618D01*
X55381428Y-112127618D02*
X55429047Y-112032380D01*
X57357619Y-110318095D02*
X58357619Y-110318095D01*
X58024285Y-110794285D02*
X57357619Y-110794285D01*
X57929047Y-110794285D02*
X57976666Y-110841904D01*
X57976666Y-110841904D02*
X58024285Y-110937142D01*
X58024285Y-110937142D02*
X58024285Y-111079999D01*
X58024285Y-111079999D02*
X57976666Y-111175237D01*
X57976666Y-111175237D02*
X57881428Y-111222856D01*
X57881428Y-111222856D02*
X57357619Y-111222856D01*
X58357619Y-112175237D02*
X58357619Y-111699047D01*
X58357619Y-111699047D02*
X57881428Y-111651428D01*
X57881428Y-111651428D02*
X57929047Y-111699047D01*
X57929047Y-111699047D02*
X57976666Y-111794285D01*
X57976666Y-111794285D02*
X57976666Y-112032380D01*
X57976666Y-112032380D02*
X57929047Y-112127618D01*
X57929047Y-112127618D02*
X57881428Y-112175237D01*
X57881428Y-112175237D02*
X57786190Y-112222856D01*
X57786190Y-112222856D02*
X57548095Y-112222856D01*
X57548095Y-112222856D02*
X57452857Y-112175237D01*
X57452857Y-112175237D02*
X57405238Y-112127618D01*
X57405238Y-112127618D02*
X57357619Y-112032380D01*
X57357619Y-112032380D02*
X57357619Y-111794285D01*
X57357619Y-111794285D02*
X57405238Y-111699047D01*
X57405238Y-111699047D02*
X57452857Y-111651428D01*
X60922380Y-103235772D02*
X59922380Y-103235772D01*
X60255714Y-102759582D02*
X60922380Y-102759582D01*
X60350952Y-102759582D02*
X60303333Y-102711963D01*
X60303333Y-102711963D02*
X60255714Y-102616725D01*
X60255714Y-102616725D02*
X60255714Y-102473868D01*
X60255714Y-102473868D02*
X60303333Y-102378630D01*
X60303333Y-102378630D02*
X60398571Y-102331011D01*
X60398571Y-102331011D02*
X60922380Y-102331011D01*
X60017619Y-101902439D02*
X59970000Y-101854820D01*
X59970000Y-101854820D02*
X59922380Y-101759582D01*
X59922380Y-101759582D02*
X59922380Y-101521487D01*
X59922380Y-101521487D02*
X59970000Y-101426249D01*
X59970000Y-101426249D02*
X60017619Y-101378630D01*
X60017619Y-101378630D02*
X60112857Y-101331011D01*
X60112857Y-101331011D02*
X60208095Y-101331011D01*
X60208095Y-101331011D02*
X60350952Y-101378630D01*
X60350952Y-101378630D02*
X60922380Y-101950058D01*
X60922380Y-101950058D02*
X60922380Y-101331011D01*
X55922380Y-103235772D02*
X54922380Y-103235772D01*
X55255714Y-102759582D02*
X55922380Y-102759582D01*
X55350952Y-102759582D02*
X55303333Y-102711963D01*
X55303333Y-102711963D02*
X55255714Y-102616725D01*
X55255714Y-102616725D02*
X55255714Y-102473868D01*
X55255714Y-102473868D02*
X55303333Y-102378630D01*
X55303333Y-102378630D02*
X55398571Y-102331011D01*
X55398571Y-102331011D02*
X55922380Y-102331011D01*
X54922380Y-101426249D02*
X54922380Y-101616725D01*
X54922380Y-101616725D02*
X54970000Y-101711963D01*
X54970000Y-101711963D02*
X55017619Y-101759582D01*
X55017619Y-101759582D02*
X55160476Y-101854820D01*
X55160476Y-101854820D02*
X55350952Y-101902439D01*
X55350952Y-101902439D02*
X55731904Y-101902439D01*
X55731904Y-101902439D02*
X55827142Y-101854820D01*
X55827142Y-101854820D02*
X55874761Y-101807201D01*
X55874761Y-101807201D02*
X55922380Y-101711963D01*
X55922380Y-101711963D02*
X55922380Y-101521487D01*
X55922380Y-101521487D02*
X55874761Y-101426249D01*
X55874761Y-101426249D02*
X55827142Y-101378630D01*
X55827142Y-101378630D02*
X55731904Y-101331011D01*
X55731904Y-101331011D02*
X55493809Y-101331011D01*
X55493809Y-101331011D02*
X55398571Y-101378630D01*
X55398571Y-101378630D02*
X55350952Y-101426249D01*
X55350952Y-101426249D02*
X55303333Y-101521487D01*
X55303333Y-101521487D02*
X55303333Y-101711963D01*
X55303333Y-101711963D02*
X55350952Y-101807201D01*
X55350952Y-101807201D02*
X55398571Y-101854820D01*
X55398571Y-101854820D02*
X55493809Y-101902439D01*
X58421600Y-103341904D02*
X57421600Y-103341904D01*
X57754934Y-102865714D02*
X58421600Y-102865714D01*
X57850172Y-102865714D02*
X57802553Y-102818095D01*
X57802553Y-102818095D02*
X57754934Y-102722857D01*
X57754934Y-102722857D02*
X57754934Y-102580000D01*
X57754934Y-102580000D02*
X57802553Y-102484762D01*
X57802553Y-102484762D02*
X57897791Y-102437143D01*
X57897791Y-102437143D02*
X58421600Y-102437143D01*
X57754934Y-101532381D02*
X58421600Y-101532381D01*
X57373981Y-101770476D02*
X58088267Y-102008571D01*
X58088267Y-102008571D02*
X58088267Y-101389524D01*
X59857619Y-110318095D02*
X60857619Y-110318095D01*
X60524285Y-110794285D02*
X59857619Y-110794285D01*
X60429047Y-110794285D02*
X60476666Y-110841904D01*
X60476666Y-110841904D02*
X60524285Y-110937142D01*
X60524285Y-110937142D02*
X60524285Y-111079999D01*
X60524285Y-111079999D02*
X60476666Y-111175237D01*
X60476666Y-111175237D02*
X60381428Y-111222856D01*
X60381428Y-111222856D02*
X59857619Y-111222856D01*
X60857619Y-111603809D02*
X60857619Y-112222856D01*
X60857619Y-112222856D02*
X60476666Y-111889523D01*
X60476666Y-111889523D02*
X60476666Y-112032380D01*
X60476666Y-112032380D02*
X60429047Y-112127618D01*
X60429047Y-112127618D02*
X60381428Y-112175237D01*
X60381428Y-112175237D02*
X60286190Y-112222856D01*
X60286190Y-112222856D02*
X60048095Y-112222856D01*
X60048095Y-112222856D02*
X59952857Y-112175237D01*
X59952857Y-112175237D02*
X59905238Y-112127618D01*
X59905238Y-112127618D02*
X59857619Y-112032380D01*
X59857619Y-112032380D02*
X59857619Y-111746666D01*
X59857619Y-111746666D02*
X59905238Y-111651428D01*
X59905238Y-111651428D02*
X59952857Y-111603809D01*
X62357619Y-110318095D02*
X63357619Y-110318095D01*
X63024285Y-110794285D02*
X62357619Y-110794285D01*
X62929047Y-110794285D02*
X62976666Y-110841904D01*
X62976666Y-110841904D02*
X63024285Y-110937142D01*
X63024285Y-110937142D02*
X63024285Y-111079999D01*
X63024285Y-111079999D02*
X62976666Y-111175237D01*
X62976666Y-111175237D02*
X62881428Y-111222856D01*
X62881428Y-111222856D02*
X62357619Y-111222856D01*
X62357619Y-112222856D02*
X62357619Y-111651428D01*
X62357619Y-111937142D02*
X63357619Y-111937142D01*
X63357619Y-111937142D02*
X63214761Y-111841904D01*
X63214761Y-111841904D02*
X63119523Y-111746666D01*
X63119523Y-111746666D02*
X63071904Y-111651428D01*
D11*
X79747380Y-134662857D02*
X79271190Y-134996190D01*
X79747380Y-135234285D02*
X78747380Y-135234285D01*
X78747380Y-135234285D02*
X78747380Y-134853333D01*
X78747380Y-134853333D02*
X78795000Y-134758095D01*
X78795000Y-134758095D02*
X78842619Y-134710476D01*
X78842619Y-134710476D02*
X78937857Y-134662857D01*
X78937857Y-134662857D02*
X79080714Y-134662857D01*
X79080714Y-134662857D02*
X79175952Y-134710476D01*
X79175952Y-134710476D02*
X79223571Y-134758095D01*
X79223571Y-134758095D02*
X79271190Y-134853333D01*
X79271190Y-134853333D02*
X79271190Y-135234285D01*
X79747380Y-133710476D02*
X79747380Y-134281904D01*
X79747380Y-133996190D02*
X78747380Y-133996190D01*
X78747380Y-133996190D02*
X78890238Y-134091428D01*
X78890238Y-134091428D02*
X78985476Y-134186666D01*
X78985476Y-134186666D02*
X79033095Y-134281904D01*
X78747380Y-132805714D02*
X78747380Y-133281904D01*
X78747380Y-133281904D02*
X79223571Y-133329523D01*
X79223571Y-133329523D02*
X79175952Y-133281904D01*
X79175952Y-133281904D02*
X79128333Y-133186666D01*
X79128333Y-133186666D02*
X79128333Y-132948571D01*
X79128333Y-132948571D02*
X79175952Y-132853333D01*
X79175952Y-132853333D02*
X79223571Y-132805714D01*
X79223571Y-132805714D02*
X79318809Y-132758095D01*
X79318809Y-132758095D02*
X79556904Y-132758095D01*
X79556904Y-132758095D02*
X79652142Y-132805714D01*
X79652142Y-132805714D02*
X79699761Y-132853333D01*
X79699761Y-132853333D02*
X79747380Y-132948571D01*
X79747380Y-132948571D02*
X79747380Y-133186666D01*
X79747380Y-133186666D02*
X79699761Y-133281904D01*
X79699761Y-133281904D02*
X79652142Y-133329523D01*
X85487380Y-96552857D02*
X85011190Y-96886190D01*
X85487380Y-97124285D02*
X84487380Y-97124285D01*
X84487380Y-97124285D02*
X84487380Y-96743333D01*
X84487380Y-96743333D02*
X84535000Y-96648095D01*
X84535000Y-96648095D02*
X84582619Y-96600476D01*
X84582619Y-96600476D02*
X84677857Y-96552857D01*
X84677857Y-96552857D02*
X84820714Y-96552857D01*
X84820714Y-96552857D02*
X84915952Y-96600476D01*
X84915952Y-96600476D02*
X84963571Y-96648095D01*
X84963571Y-96648095D02*
X85011190Y-96743333D01*
X85011190Y-96743333D02*
X85011190Y-97124285D01*
X85487380Y-95600476D02*
X85487380Y-96171904D01*
X85487380Y-95886190D02*
X84487380Y-95886190D01*
X84487380Y-95886190D02*
X84630238Y-95981428D01*
X84630238Y-95981428D02*
X84725476Y-96076666D01*
X84725476Y-96076666D02*
X84773095Y-96171904D01*
X84487380Y-95267142D02*
X84487380Y-94648095D01*
X84487380Y-94648095D02*
X84868333Y-94981428D01*
X84868333Y-94981428D02*
X84868333Y-94838571D01*
X84868333Y-94838571D02*
X84915952Y-94743333D01*
X84915952Y-94743333D02*
X84963571Y-94695714D01*
X84963571Y-94695714D02*
X85058809Y-94648095D01*
X85058809Y-94648095D02*
X85296904Y-94648095D01*
X85296904Y-94648095D02*
X85392142Y-94695714D01*
X85392142Y-94695714D02*
X85439761Y-94743333D01*
X85439761Y-94743333D02*
X85487380Y-94838571D01*
X85487380Y-94838571D02*
X85487380Y-95124285D01*
X85487380Y-95124285D02*
X85439761Y-95219523D01*
X85439761Y-95219523D02*
X85392142Y-95267142D01*
X69069523Y-97567380D02*
X68736190Y-97091190D01*
X68498095Y-97567380D02*
X68498095Y-96567380D01*
X68498095Y-96567380D02*
X68879047Y-96567380D01*
X68879047Y-96567380D02*
X68974285Y-96615000D01*
X68974285Y-96615000D02*
X69021904Y-96662619D01*
X69021904Y-96662619D02*
X69069523Y-96757857D01*
X69069523Y-96757857D02*
X69069523Y-96900714D01*
X69069523Y-96900714D02*
X69021904Y-96995952D01*
X69021904Y-96995952D02*
X68974285Y-97043571D01*
X68974285Y-97043571D02*
X68879047Y-97091190D01*
X68879047Y-97091190D02*
X68498095Y-97091190D01*
X69498095Y-97567380D02*
X69498095Y-96567380D01*
X69498095Y-96567380D02*
X70069523Y-97567380D01*
X70069523Y-97567380D02*
X70069523Y-96567380D01*
X70450476Y-96567380D02*
X71069523Y-96567380D01*
X71069523Y-96567380D02*
X70736190Y-96948333D01*
X70736190Y-96948333D02*
X70879047Y-96948333D01*
X70879047Y-96948333D02*
X70974285Y-96995952D01*
X70974285Y-96995952D02*
X71021904Y-97043571D01*
X71021904Y-97043571D02*
X71069523Y-97138809D01*
X71069523Y-97138809D02*
X71069523Y-97376904D01*
X71069523Y-97376904D02*
X71021904Y-97472142D01*
X71021904Y-97472142D02*
X70974285Y-97519761D01*
X70974285Y-97519761D02*
X70879047Y-97567380D01*
X70879047Y-97567380D02*
X70593333Y-97567380D01*
X70593333Y-97567380D02*
X70498095Y-97519761D01*
X70498095Y-97519761D02*
X70450476Y-97472142D01*
X82987380Y-96542857D02*
X82511190Y-96876190D01*
X82987380Y-97114285D02*
X81987380Y-97114285D01*
X81987380Y-97114285D02*
X81987380Y-96733333D01*
X81987380Y-96733333D02*
X82035000Y-96638095D01*
X82035000Y-96638095D02*
X82082619Y-96590476D01*
X82082619Y-96590476D02*
X82177857Y-96542857D01*
X82177857Y-96542857D02*
X82320714Y-96542857D01*
X82320714Y-96542857D02*
X82415952Y-96590476D01*
X82415952Y-96590476D02*
X82463571Y-96638095D01*
X82463571Y-96638095D02*
X82511190Y-96733333D01*
X82511190Y-96733333D02*
X82511190Y-97114285D01*
X82987380Y-95590476D02*
X82987380Y-96161904D01*
X82987380Y-95876190D02*
X81987380Y-95876190D01*
X81987380Y-95876190D02*
X82130238Y-95971428D01*
X82130238Y-95971428D02*
X82225476Y-96066666D01*
X82225476Y-96066666D02*
X82273095Y-96161904D01*
X82082619Y-95209523D02*
X82035000Y-95161904D01*
X82035000Y-95161904D02*
X81987380Y-95066666D01*
X81987380Y-95066666D02*
X81987380Y-94828571D01*
X81987380Y-94828571D02*
X82035000Y-94733333D01*
X82035000Y-94733333D02*
X82082619Y-94685714D01*
X82082619Y-94685714D02*
X82177857Y-94638095D01*
X82177857Y-94638095D02*
X82273095Y-94638095D01*
X82273095Y-94638095D02*
X82415952Y-94685714D01*
X82415952Y-94685714D02*
X82987380Y-95257142D01*
X82987380Y-95257142D02*
X82987380Y-94638095D01*
X70543810Y-115367380D02*
X70543810Y-114367380D01*
X71591428Y-115272142D02*
X71543809Y-115319761D01*
X71543809Y-115319761D02*
X71400952Y-115367380D01*
X71400952Y-115367380D02*
X71305714Y-115367380D01*
X71305714Y-115367380D02*
X71162857Y-115319761D01*
X71162857Y-115319761D02*
X71067619Y-115224523D01*
X71067619Y-115224523D02*
X71020000Y-115129285D01*
X71020000Y-115129285D02*
X70972381Y-114938809D01*
X70972381Y-114938809D02*
X70972381Y-114795952D01*
X70972381Y-114795952D02*
X71020000Y-114605476D01*
X71020000Y-114605476D02*
X71067619Y-114510238D01*
X71067619Y-114510238D02*
X71162857Y-114415000D01*
X71162857Y-114415000D02*
X71305714Y-114367380D01*
X71305714Y-114367380D02*
X71400952Y-114367380D01*
X71400952Y-114367380D02*
X71543809Y-114415000D01*
X71543809Y-114415000D02*
X71591428Y-114462619D01*
X71972381Y-114462619D02*
X72020000Y-114415000D01*
X72020000Y-114415000D02*
X72115238Y-114367380D01*
X72115238Y-114367380D02*
X72353333Y-114367380D01*
X72353333Y-114367380D02*
X72448571Y-114415000D01*
X72448571Y-114415000D02*
X72496190Y-114462619D01*
X72496190Y-114462619D02*
X72543809Y-114557857D01*
X72543809Y-114557857D02*
X72543809Y-114653095D01*
X72543809Y-114653095D02*
X72496190Y-114795952D01*
X72496190Y-114795952D02*
X71924762Y-115367380D01*
X71924762Y-115367380D02*
X72543809Y-115367380D01*
X49543810Y-115367380D02*
X49543810Y-114367380D01*
X50591428Y-115272142D02*
X50543809Y-115319761D01*
X50543809Y-115319761D02*
X50400952Y-115367380D01*
X50400952Y-115367380D02*
X50305714Y-115367380D01*
X50305714Y-115367380D02*
X50162857Y-115319761D01*
X50162857Y-115319761D02*
X50067619Y-115224523D01*
X50067619Y-115224523D02*
X50020000Y-115129285D01*
X50020000Y-115129285D02*
X49972381Y-114938809D01*
X49972381Y-114938809D02*
X49972381Y-114795952D01*
X49972381Y-114795952D02*
X50020000Y-114605476D01*
X50020000Y-114605476D02*
X50067619Y-114510238D01*
X50067619Y-114510238D02*
X50162857Y-114415000D01*
X50162857Y-114415000D02*
X50305714Y-114367380D01*
X50305714Y-114367380D02*
X50400952Y-114367380D01*
X50400952Y-114367380D02*
X50543809Y-114415000D01*
X50543809Y-114415000D02*
X50591428Y-114462619D01*
X51543809Y-115367380D02*
X50972381Y-115367380D01*
X51258095Y-115367380D02*
X51258095Y-114367380D01*
X51258095Y-114367380D02*
X51162857Y-114510238D01*
X51162857Y-114510238D02*
X51067619Y-114605476D01*
X51067619Y-114605476D02*
X50972381Y-114653095D01*
X129483333Y-125142142D02*
X129435714Y-125189761D01*
X129435714Y-125189761D02*
X129292857Y-125237380D01*
X129292857Y-125237380D02*
X129197619Y-125237380D01*
X129197619Y-125237380D02*
X129054762Y-125189761D01*
X129054762Y-125189761D02*
X128959524Y-125094523D01*
X128959524Y-125094523D02*
X128911905Y-124999285D01*
X128911905Y-124999285D02*
X128864286Y-124808809D01*
X128864286Y-124808809D02*
X128864286Y-124665952D01*
X128864286Y-124665952D02*
X128911905Y-124475476D01*
X128911905Y-124475476D02*
X128959524Y-124380238D01*
X128959524Y-124380238D02*
X129054762Y-124285000D01*
X129054762Y-124285000D02*
X129197619Y-124237380D01*
X129197619Y-124237380D02*
X129292857Y-124237380D01*
X129292857Y-124237380D02*
X129435714Y-124285000D01*
X129435714Y-124285000D02*
X129483333Y-124332619D01*
X130340476Y-124570714D02*
X130340476Y-125237380D01*
X130102381Y-124189761D02*
X129864286Y-124904047D01*
X129864286Y-124904047D02*
X130483333Y-124904047D01*
X69909523Y-130367380D02*
X69576190Y-129891190D01*
X69338095Y-130367380D02*
X69338095Y-129367380D01*
X69338095Y-129367380D02*
X69719047Y-129367380D01*
X69719047Y-129367380D02*
X69814285Y-129415000D01*
X69814285Y-129415000D02*
X69861904Y-129462619D01*
X69861904Y-129462619D02*
X69909523Y-129557857D01*
X69909523Y-129557857D02*
X69909523Y-129700714D01*
X69909523Y-129700714D02*
X69861904Y-129795952D01*
X69861904Y-129795952D02*
X69814285Y-129843571D01*
X69814285Y-129843571D02*
X69719047Y-129891190D01*
X69719047Y-129891190D02*
X69338095Y-129891190D01*
X70338095Y-130367380D02*
X70338095Y-129367380D01*
X70338095Y-129367380D02*
X70909523Y-130367380D01*
X70909523Y-130367380D02*
X70909523Y-129367380D01*
X71814285Y-129700714D02*
X71814285Y-130367380D01*
X71576190Y-129319761D02*
X71338095Y-130034047D01*
X71338095Y-130034047D02*
X71957142Y-130034047D01*
X48309523Y-97367380D02*
X47976190Y-96891190D01*
X47738095Y-97367380D02*
X47738095Y-96367380D01*
X47738095Y-96367380D02*
X48119047Y-96367380D01*
X48119047Y-96367380D02*
X48214285Y-96415000D01*
X48214285Y-96415000D02*
X48261904Y-96462619D01*
X48261904Y-96462619D02*
X48309523Y-96557857D01*
X48309523Y-96557857D02*
X48309523Y-96700714D01*
X48309523Y-96700714D02*
X48261904Y-96795952D01*
X48261904Y-96795952D02*
X48214285Y-96843571D01*
X48214285Y-96843571D02*
X48119047Y-96891190D01*
X48119047Y-96891190D02*
X47738095Y-96891190D01*
X48738095Y-97367380D02*
X48738095Y-96367380D01*
X48738095Y-96367380D02*
X49309523Y-97367380D01*
X49309523Y-97367380D02*
X49309523Y-96367380D01*
X50309523Y-97367380D02*
X49738095Y-97367380D01*
X50023809Y-97367380D02*
X50023809Y-96367380D01*
X50023809Y-96367380D02*
X49928571Y-96510238D01*
X49928571Y-96510238D02*
X49833333Y-96605476D01*
X49833333Y-96605476D02*
X49738095Y-96653095D01*
X99697380Y-96432857D02*
X99221190Y-96766190D01*
X99697380Y-97004285D02*
X98697380Y-97004285D01*
X98697380Y-97004285D02*
X98697380Y-96623333D01*
X98697380Y-96623333D02*
X98745000Y-96528095D01*
X98745000Y-96528095D02*
X98792619Y-96480476D01*
X98792619Y-96480476D02*
X98887857Y-96432857D01*
X98887857Y-96432857D02*
X99030714Y-96432857D01*
X99030714Y-96432857D02*
X99125952Y-96480476D01*
X99125952Y-96480476D02*
X99173571Y-96528095D01*
X99173571Y-96528095D02*
X99221190Y-96623333D01*
X99221190Y-96623333D02*
X99221190Y-97004285D01*
X99697380Y-95480476D02*
X99697380Y-96051904D01*
X99697380Y-95766190D02*
X98697380Y-95766190D01*
X98697380Y-95766190D02*
X98840238Y-95861428D01*
X98840238Y-95861428D02*
X98935476Y-95956666D01*
X98935476Y-95956666D02*
X98983095Y-96051904D01*
X99697380Y-95004285D02*
X99697380Y-94813809D01*
X99697380Y-94813809D02*
X99649761Y-94718571D01*
X99649761Y-94718571D02*
X99602142Y-94670952D01*
X99602142Y-94670952D02*
X99459285Y-94575714D01*
X99459285Y-94575714D02*
X99268809Y-94528095D01*
X99268809Y-94528095D02*
X98887857Y-94528095D01*
X98887857Y-94528095D02*
X98792619Y-94575714D01*
X98792619Y-94575714D02*
X98745000Y-94623333D01*
X98745000Y-94623333D02*
X98697380Y-94718571D01*
X98697380Y-94718571D02*
X98697380Y-94909047D01*
X98697380Y-94909047D02*
X98745000Y-95004285D01*
X98745000Y-95004285D02*
X98792619Y-95051904D01*
X98792619Y-95051904D02*
X98887857Y-95099523D01*
X98887857Y-95099523D02*
X99125952Y-95099523D01*
X99125952Y-95099523D02*
X99221190Y-95051904D01*
X99221190Y-95051904D02*
X99268809Y-95004285D01*
X99268809Y-95004285D02*
X99316428Y-94909047D01*
X99316428Y-94909047D02*
X99316428Y-94718571D01*
X99316428Y-94718571D02*
X99268809Y-94623333D01*
X99268809Y-94623333D02*
X99221190Y-94575714D01*
X99221190Y-94575714D02*
X99125952Y-94528095D01*
X112919523Y-97647380D02*
X112586190Y-97171190D01*
X112348095Y-97647380D02*
X112348095Y-96647380D01*
X112348095Y-96647380D02*
X112729047Y-96647380D01*
X112729047Y-96647380D02*
X112824285Y-96695000D01*
X112824285Y-96695000D02*
X112871904Y-96742619D01*
X112871904Y-96742619D02*
X112919523Y-96837857D01*
X112919523Y-96837857D02*
X112919523Y-96980714D01*
X112919523Y-96980714D02*
X112871904Y-97075952D01*
X112871904Y-97075952D02*
X112824285Y-97123571D01*
X112824285Y-97123571D02*
X112729047Y-97171190D01*
X112729047Y-97171190D02*
X112348095Y-97171190D01*
X113348095Y-97647380D02*
X113348095Y-96647380D01*
X113348095Y-96647380D02*
X113919523Y-97647380D01*
X113919523Y-97647380D02*
X113919523Y-96647380D01*
X114300476Y-96647380D02*
X114967142Y-96647380D01*
X114967142Y-96647380D02*
X114538571Y-97647380D01*
X88806666Y-111947380D02*
X88806666Y-112661666D01*
X88806666Y-112661666D02*
X88759047Y-112804523D01*
X88759047Y-112804523D02*
X88663809Y-112899761D01*
X88663809Y-112899761D02*
X88520952Y-112947380D01*
X88520952Y-112947380D02*
X88425714Y-112947380D01*
X89711428Y-112280714D02*
X89711428Y-112947380D01*
X89473333Y-111899761D02*
X89235238Y-112614047D01*
X89235238Y-112614047D02*
X89854285Y-112614047D01*
D12*
X77422380Y-103235772D02*
X76422380Y-103235772D01*
X76755714Y-102759582D02*
X77422380Y-102759582D01*
X76850952Y-102759582D02*
X76803333Y-102711963D01*
X76803333Y-102711963D02*
X76755714Y-102616725D01*
X76755714Y-102616725D02*
X76755714Y-102473868D01*
X76755714Y-102473868D02*
X76803333Y-102378630D01*
X76803333Y-102378630D02*
X76898571Y-102331011D01*
X76898571Y-102331011D02*
X77422380Y-102331011D01*
X76422380Y-101426249D02*
X76422380Y-101616725D01*
X76422380Y-101616725D02*
X76470000Y-101711963D01*
X76470000Y-101711963D02*
X76517619Y-101759582D01*
X76517619Y-101759582D02*
X76660476Y-101854820D01*
X76660476Y-101854820D02*
X76850952Y-101902439D01*
X76850952Y-101902439D02*
X77231904Y-101902439D01*
X77231904Y-101902439D02*
X77327142Y-101854820D01*
X77327142Y-101854820D02*
X77374761Y-101807201D01*
X77374761Y-101807201D02*
X77422380Y-101711963D01*
X77422380Y-101711963D02*
X77422380Y-101521487D01*
X77422380Y-101521487D02*
X77374761Y-101426249D01*
X77374761Y-101426249D02*
X77327142Y-101378630D01*
X77327142Y-101378630D02*
X77231904Y-101331011D01*
X77231904Y-101331011D02*
X76993809Y-101331011D01*
X76993809Y-101331011D02*
X76898571Y-101378630D01*
X76898571Y-101378630D02*
X76850952Y-101426249D01*
X76850952Y-101426249D02*
X76803333Y-101521487D01*
X76803333Y-101521487D02*
X76803333Y-101711963D01*
X76803333Y-101711963D02*
X76850952Y-101807201D01*
X76850952Y-101807201D02*
X76898571Y-101854820D01*
X76898571Y-101854820D02*
X76993809Y-101902439D01*
X71401904Y-111910000D02*
X71306666Y-111862380D01*
X71306666Y-111862380D02*
X71163809Y-111862380D01*
X71163809Y-111862380D02*
X71020952Y-111910000D01*
X71020952Y-111910000D02*
X70925714Y-112005238D01*
X70925714Y-112005238D02*
X70878095Y-112100476D01*
X70878095Y-112100476D02*
X70830476Y-112290952D01*
X70830476Y-112290952D02*
X70830476Y-112433809D01*
X70830476Y-112433809D02*
X70878095Y-112624285D01*
X70878095Y-112624285D02*
X70925714Y-112719523D01*
X70925714Y-112719523D02*
X71020952Y-112814761D01*
X71020952Y-112814761D02*
X71163809Y-112862380D01*
X71163809Y-112862380D02*
X71259047Y-112862380D01*
X71259047Y-112862380D02*
X71401904Y-112814761D01*
X71401904Y-112814761D02*
X71449523Y-112767142D01*
X71449523Y-112767142D02*
X71449523Y-112433809D01*
X71449523Y-112433809D02*
X71259047Y-112433809D01*
X71878095Y-112862380D02*
X71878095Y-111862380D01*
X71878095Y-111862380D02*
X72449523Y-112862380D01*
X72449523Y-112862380D02*
X72449523Y-111862380D01*
X72925714Y-112862380D02*
X72925714Y-111862380D01*
X72925714Y-111862380D02*
X73163809Y-111862380D01*
X73163809Y-111862380D02*
X73306666Y-111910000D01*
X73306666Y-111910000D02*
X73401904Y-112005238D01*
X73401904Y-112005238D02*
X73449523Y-112100476D01*
X73449523Y-112100476D02*
X73497142Y-112290952D01*
X73497142Y-112290952D02*
X73497142Y-112433809D01*
X73497142Y-112433809D02*
X73449523Y-112624285D01*
X73449523Y-112624285D02*
X73401904Y-112719523D01*
X73401904Y-112719523D02*
X73306666Y-112814761D01*
X73306666Y-112814761D02*
X73163809Y-112862380D01*
X73163809Y-112862380D02*
X72925714Y-112862380D01*
X84921600Y-103341904D02*
X83921600Y-103341904D01*
X84254934Y-102865714D02*
X84921600Y-102865714D01*
X84350172Y-102865714D02*
X84302553Y-102818095D01*
X84302553Y-102818095D02*
X84254934Y-102722857D01*
X84254934Y-102722857D02*
X84254934Y-102580000D01*
X84254934Y-102580000D02*
X84302553Y-102484762D01*
X84302553Y-102484762D02*
X84397791Y-102437143D01*
X84397791Y-102437143D02*
X84921600Y-102437143D01*
X83921600Y-101770476D02*
X83921600Y-101675238D01*
X83921600Y-101675238D02*
X83969220Y-101580000D01*
X83969220Y-101580000D02*
X84016839Y-101532381D01*
X84016839Y-101532381D02*
X84112077Y-101484762D01*
X84112077Y-101484762D02*
X84302553Y-101437143D01*
X84302553Y-101437143D02*
X84540648Y-101437143D01*
X84540648Y-101437143D02*
X84731124Y-101484762D01*
X84731124Y-101484762D02*
X84826362Y-101532381D01*
X84826362Y-101532381D02*
X84873981Y-101580000D01*
X84873981Y-101580000D02*
X84921600Y-101675238D01*
X84921600Y-101675238D02*
X84921600Y-101770476D01*
X84921600Y-101770476D02*
X84873981Y-101865714D01*
X84873981Y-101865714D02*
X84826362Y-101913333D01*
X84826362Y-101913333D02*
X84731124Y-101960952D01*
X84731124Y-101960952D02*
X84540648Y-102008571D01*
X84540648Y-102008571D02*
X84302553Y-102008571D01*
X84302553Y-102008571D02*
X84112077Y-101960952D01*
X84112077Y-101960952D02*
X84016839Y-101913333D01*
X84016839Y-101913333D02*
X83969220Y-101865714D01*
X83969220Y-101865714D02*
X83921600Y-101770476D01*
X81357619Y-110318095D02*
X82357619Y-110318095D01*
X82024285Y-110794285D02*
X81357619Y-110794285D01*
X81929047Y-110794285D02*
X81976666Y-110841904D01*
X81976666Y-110841904D02*
X82024285Y-110937142D01*
X82024285Y-110937142D02*
X82024285Y-111079999D01*
X82024285Y-111079999D02*
X81976666Y-111175237D01*
X81976666Y-111175237D02*
X81881428Y-111222856D01*
X81881428Y-111222856D02*
X81357619Y-111222856D01*
X82357619Y-111603809D02*
X82357619Y-112222856D01*
X82357619Y-112222856D02*
X81976666Y-111889523D01*
X81976666Y-111889523D02*
X81976666Y-112032380D01*
X81976666Y-112032380D02*
X81929047Y-112127618D01*
X81929047Y-112127618D02*
X81881428Y-112175237D01*
X81881428Y-112175237D02*
X81786190Y-112222856D01*
X81786190Y-112222856D02*
X81548095Y-112222856D01*
X81548095Y-112222856D02*
X81452857Y-112175237D01*
X81452857Y-112175237D02*
X81405238Y-112127618D01*
X81405238Y-112127618D02*
X81357619Y-112032380D01*
X81357619Y-112032380D02*
X81357619Y-111746666D01*
X81357619Y-111746666D02*
X81405238Y-111651428D01*
X81405238Y-111651428D02*
X81452857Y-111603809D01*
X82422380Y-103235772D02*
X81422380Y-103235772D01*
X81755714Y-102759582D02*
X82422380Y-102759582D01*
X81850952Y-102759582D02*
X81803333Y-102711963D01*
X81803333Y-102711963D02*
X81755714Y-102616725D01*
X81755714Y-102616725D02*
X81755714Y-102473868D01*
X81755714Y-102473868D02*
X81803333Y-102378630D01*
X81803333Y-102378630D02*
X81898571Y-102331011D01*
X81898571Y-102331011D02*
X82422380Y-102331011D01*
X81517619Y-101902439D02*
X81470000Y-101854820D01*
X81470000Y-101854820D02*
X81422380Y-101759582D01*
X81422380Y-101759582D02*
X81422380Y-101521487D01*
X81422380Y-101521487D02*
X81470000Y-101426249D01*
X81470000Y-101426249D02*
X81517619Y-101378630D01*
X81517619Y-101378630D02*
X81612857Y-101331011D01*
X81612857Y-101331011D02*
X81708095Y-101331011D01*
X81708095Y-101331011D02*
X81850952Y-101378630D01*
X81850952Y-101378630D02*
X82422380Y-101950058D01*
X82422380Y-101950058D02*
X82422380Y-101331011D01*
X78857619Y-110318095D02*
X79857619Y-110318095D01*
X79524285Y-110794285D02*
X78857619Y-110794285D01*
X79429047Y-110794285D02*
X79476666Y-110841904D01*
X79476666Y-110841904D02*
X79524285Y-110937142D01*
X79524285Y-110937142D02*
X79524285Y-111079999D01*
X79524285Y-111079999D02*
X79476666Y-111175237D01*
X79476666Y-111175237D02*
X79381428Y-111222856D01*
X79381428Y-111222856D02*
X78857619Y-111222856D01*
X79857619Y-112175237D02*
X79857619Y-111699047D01*
X79857619Y-111699047D02*
X79381428Y-111651428D01*
X79381428Y-111651428D02*
X79429047Y-111699047D01*
X79429047Y-111699047D02*
X79476666Y-111794285D01*
X79476666Y-111794285D02*
X79476666Y-112032380D01*
X79476666Y-112032380D02*
X79429047Y-112127618D01*
X79429047Y-112127618D02*
X79381428Y-112175237D01*
X79381428Y-112175237D02*
X79286190Y-112222856D01*
X79286190Y-112222856D02*
X79048095Y-112222856D01*
X79048095Y-112222856D02*
X78952857Y-112175237D01*
X78952857Y-112175237D02*
X78905238Y-112127618D01*
X78905238Y-112127618D02*
X78857619Y-112032380D01*
X78857619Y-112032380D02*
X78857619Y-111794285D01*
X78857619Y-111794285D02*
X78905238Y-111699047D01*
X78905238Y-111699047D02*
X78952857Y-111651428D01*
X79921600Y-103341904D02*
X78921600Y-103341904D01*
X79254934Y-102865714D02*
X79921600Y-102865714D01*
X79350172Y-102865714D02*
X79302553Y-102818095D01*
X79302553Y-102818095D02*
X79254934Y-102722857D01*
X79254934Y-102722857D02*
X79254934Y-102580000D01*
X79254934Y-102580000D02*
X79302553Y-102484762D01*
X79302553Y-102484762D02*
X79397791Y-102437143D01*
X79397791Y-102437143D02*
X79921600Y-102437143D01*
X79254934Y-101532381D02*
X79921600Y-101532381D01*
X78873981Y-101770476D02*
X79588267Y-102008571D01*
X79588267Y-102008571D02*
X79588267Y-101389524D01*
X83857619Y-110318095D02*
X84857619Y-110318095D01*
X84524285Y-110794285D02*
X83857619Y-110794285D01*
X84429047Y-110794285D02*
X84476666Y-110841904D01*
X84476666Y-110841904D02*
X84524285Y-110937142D01*
X84524285Y-110937142D02*
X84524285Y-111079999D01*
X84524285Y-111079999D02*
X84476666Y-111175237D01*
X84476666Y-111175237D02*
X84381428Y-111222856D01*
X84381428Y-111222856D02*
X83857619Y-111222856D01*
X83857619Y-112222856D02*
X83857619Y-111651428D01*
X83857619Y-111937142D02*
X84857619Y-111937142D01*
X84857619Y-111937142D02*
X84714761Y-111841904D01*
X84714761Y-111841904D02*
X84619523Y-111746666D01*
X84619523Y-111746666D02*
X84571904Y-111651428D01*
X76357619Y-110318095D02*
X77357619Y-110318095D01*
X77024285Y-110794285D02*
X76357619Y-110794285D01*
X76929047Y-110794285D02*
X76976666Y-110841904D01*
X76976666Y-110841904D02*
X77024285Y-110937142D01*
X77024285Y-110937142D02*
X77024285Y-111079999D01*
X77024285Y-111079999D02*
X76976666Y-111175237D01*
X76976666Y-111175237D02*
X76881428Y-111222856D01*
X76881428Y-111222856D02*
X76357619Y-111222856D01*
X76929047Y-111841904D02*
X76976666Y-111746666D01*
X76976666Y-111746666D02*
X77024285Y-111699047D01*
X77024285Y-111699047D02*
X77119523Y-111651428D01*
X77119523Y-111651428D02*
X77167142Y-111651428D01*
X77167142Y-111651428D02*
X77262380Y-111699047D01*
X77262380Y-111699047D02*
X77310000Y-111746666D01*
X77310000Y-111746666D02*
X77357619Y-111841904D01*
X77357619Y-111841904D02*
X77357619Y-112032380D01*
X77357619Y-112032380D02*
X77310000Y-112127618D01*
X77310000Y-112127618D02*
X77262380Y-112175237D01*
X77262380Y-112175237D02*
X77167142Y-112222856D01*
X77167142Y-112222856D02*
X77119523Y-112222856D01*
X77119523Y-112222856D02*
X77024285Y-112175237D01*
X77024285Y-112175237D02*
X76976666Y-112127618D01*
X76976666Y-112127618D02*
X76929047Y-112032380D01*
X76929047Y-112032380D02*
X76929047Y-111841904D01*
X76929047Y-111841904D02*
X76881428Y-111746666D01*
X76881428Y-111746666D02*
X76833809Y-111699047D01*
X76833809Y-111699047D02*
X76738571Y-111651428D01*
X76738571Y-111651428D02*
X76548095Y-111651428D01*
X76548095Y-111651428D02*
X76452857Y-111699047D01*
X76452857Y-111699047D02*
X76405238Y-111746666D01*
X76405238Y-111746666D02*
X76357619Y-111841904D01*
X76357619Y-111841904D02*
X76357619Y-112032380D01*
X76357619Y-112032380D02*
X76405238Y-112127618D01*
X76405238Y-112127618D02*
X76452857Y-112175237D01*
X76452857Y-112175237D02*
X76548095Y-112222856D01*
X76548095Y-112222856D02*
X76738571Y-112222856D01*
X76738571Y-112222856D02*
X76833809Y-112175237D01*
X76833809Y-112175237D02*
X76881428Y-112127618D01*
X76881428Y-112127618D02*
X76929047Y-112032380D01*
D11*
X52767380Y-134296666D02*
X52291190Y-134629999D01*
X52767380Y-134868094D02*
X51767380Y-134868094D01*
X51767380Y-134868094D02*
X51767380Y-134487142D01*
X51767380Y-134487142D02*
X51815000Y-134391904D01*
X51815000Y-134391904D02*
X51862619Y-134344285D01*
X51862619Y-134344285D02*
X51957857Y-134296666D01*
X51957857Y-134296666D02*
X52100714Y-134296666D01*
X52100714Y-134296666D02*
X52195952Y-134344285D01*
X52195952Y-134344285D02*
X52243571Y-134391904D01*
X52243571Y-134391904D02*
X52291190Y-134487142D01*
X52291190Y-134487142D02*
X52291190Y-134868094D01*
X52767380Y-133820475D02*
X52767380Y-133629999D01*
X52767380Y-133629999D02*
X52719761Y-133534761D01*
X52719761Y-133534761D02*
X52672142Y-133487142D01*
X52672142Y-133487142D02*
X52529285Y-133391904D01*
X52529285Y-133391904D02*
X52338809Y-133344285D01*
X52338809Y-133344285D02*
X51957857Y-133344285D01*
X51957857Y-133344285D02*
X51862619Y-133391904D01*
X51862619Y-133391904D02*
X51815000Y-133439523D01*
X51815000Y-133439523D02*
X51767380Y-133534761D01*
X51767380Y-133534761D02*
X51767380Y-133725237D01*
X51767380Y-133725237D02*
X51815000Y-133820475D01*
X51815000Y-133820475D02*
X51862619Y-133868094D01*
X51862619Y-133868094D02*
X51957857Y-133915713D01*
X51957857Y-133915713D02*
X52195952Y-133915713D01*
X52195952Y-133915713D02*
X52291190Y-133868094D01*
X52291190Y-133868094D02*
X52338809Y-133820475D01*
X52338809Y-133820475D02*
X52386428Y-133725237D01*
X52386428Y-133725237D02*
X52386428Y-133534761D01*
X52386428Y-133534761D02*
X52338809Y-133439523D01*
X52338809Y-133439523D02*
X52291190Y-133391904D01*
X52291190Y-133391904D02*
X52195952Y-133344285D01*
X60367380Y-96966666D02*
X59891190Y-97299999D01*
X60367380Y-97538094D02*
X59367380Y-97538094D01*
X59367380Y-97538094D02*
X59367380Y-97157142D01*
X59367380Y-97157142D02*
X59415000Y-97061904D01*
X59415000Y-97061904D02*
X59462619Y-97014285D01*
X59462619Y-97014285D02*
X59557857Y-96966666D01*
X59557857Y-96966666D02*
X59700714Y-96966666D01*
X59700714Y-96966666D02*
X59795952Y-97014285D01*
X59795952Y-97014285D02*
X59843571Y-97061904D01*
X59843571Y-97061904D02*
X59891190Y-97157142D01*
X59891190Y-97157142D02*
X59891190Y-97538094D01*
X59367380Y-96633332D02*
X59367380Y-96014285D01*
X59367380Y-96014285D02*
X59748333Y-96347618D01*
X59748333Y-96347618D02*
X59748333Y-96204761D01*
X59748333Y-96204761D02*
X59795952Y-96109523D01*
X59795952Y-96109523D02*
X59843571Y-96061904D01*
X59843571Y-96061904D02*
X59938809Y-96014285D01*
X59938809Y-96014285D02*
X60176904Y-96014285D01*
X60176904Y-96014285D02*
X60272142Y-96061904D01*
X60272142Y-96061904D02*
X60319761Y-96109523D01*
X60319761Y-96109523D02*
X60367380Y-96204761D01*
X60367380Y-96204761D02*
X60367380Y-96490475D01*
X60367380Y-96490475D02*
X60319761Y-96585713D01*
X60319761Y-96585713D02*
X60272142Y-96633332D01*
X124267380Y-96532857D02*
X123791190Y-96866190D01*
X124267380Y-97104285D02*
X123267380Y-97104285D01*
X123267380Y-97104285D02*
X123267380Y-96723333D01*
X123267380Y-96723333D02*
X123315000Y-96628095D01*
X123315000Y-96628095D02*
X123362619Y-96580476D01*
X123362619Y-96580476D02*
X123457857Y-96532857D01*
X123457857Y-96532857D02*
X123600714Y-96532857D01*
X123600714Y-96532857D02*
X123695952Y-96580476D01*
X123695952Y-96580476D02*
X123743571Y-96628095D01*
X123743571Y-96628095D02*
X123791190Y-96723333D01*
X123791190Y-96723333D02*
X123791190Y-97104285D01*
X123362619Y-96151904D02*
X123315000Y-96104285D01*
X123315000Y-96104285D02*
X123267380Y-96009047D01*
X123267380Y-96009047D02*
X123267380Y-95770952D01*
X123267380Y-95770952D02*
X123315000Y-95675714D01*
X123315000Y-95675714D02*
X123362619Y-95628095D01*
X123362619Y-95628095D02*
X123457857Y-95580476D01*
X123457857Y-95580476D02*
X123553095Y-95580476D01*
X123553095Y-95580476D02*
X123695952Y-95628095D01*
X123695952Y-95628095D02*
X124267380Y-96199523D01*
X124267380Y-96199523D02*
X124267380Y-95580476D01*
X124267380Y-95104285D02*
X124267380Y-94913809D01*
X124267380Y-94913809D02*
X124219761Y-94818571D01*
X124219761Y-94818571D02*
X124172142Y-94770952D01*
X124172142Y-94770952D02*
X124029285Y-94675714D01*
X124029285Y-94675714D02*
X123838809Y-94628095D01*
X123838809Y-94628095D02*
X123457857Y-94628095D01*
X123457857Y-94628095D02*
X123362619Y-94675714D01*
X123362619Y-94675714D02*
X123315000Y-94723333D01*
X123315000Y-94723333D02*
X123267380Y-94818571D01*
X123267380Y-94818571D02*
X123267380Y-95009047D01*
X123267380Y-95009047D02*
X123315000Y-95104285D01*
X123315000Y-95104285D02*
X123362619Y-95151904D01*
X123362619Y-95151904D02*
X123457857Y-95199523D01*
X123457857Y-95199523D02*
X123695952Y-95199523D01*
X123695952Y-95199523D02*
X123791190Y-95151904D01*
X123791190Y-95151904D02*
X123838809Y-95104285D01*
X123838809Y-95104285D02*
X123886428Y-95009047D01*
X123886428Y-95009047D02*
X123886428Y-94818571D01*
X123886428Y-94818571D02*
X123838809Y-94723333D01*
X123838809Y-94723333D02*
X123791190Y-94675714D01*
X123791190Y-94675714D02*
X123695952Y-94628095D01*
X121277380Y-134752857D02*
X120801190Y-135086190D01*
X121277380Y-135324285D02*
X120277380Y-135324285D01*
X120277380Y-135324285D02*
X120277380Y-134943333D01*
X120277380Y-134943333D02*
X120325000Y-134848095D01*
X120325000Y-134848095D02*
X120372619Y-134800476D01*
X120372619Y-134800476D02*
X120467857Y-134752857D01*
X120467857Y-134752857D02*
X120610714Y-134752857D01*
X120610714Y-134752857D02*
X120705952Y-134800476D01*
X120705952Y-134800476D02*
X120753571Y-134848095D01*
X120753571Y-134848095D02*
X120801190Y-134943333D01*
X120801190Y-134943333D02*
X120801190Y-135324285D01*
X120277380Y-134419523D02*
X120277380Y-133800476D01*
X120277380Y-133800476D02*
X120658333Y-134133809D01*
X120658333Y-134133809D02*
X120658333Y-133990952D01*
X120658333Y-133990952D02*
X120705952Y-133895714D01*
X120705952Y-133895714D02*
X120753571Y-133848095D01*
X120753571Y-133848095D02*
X120848809Y-133800476D01*
X120848809Y-133800476D02*
X121086904Y-133800476D01*
X121086904Y-133800476D02*
X121182142Y-133848095D01*
X121182142Y-133848095D02*
X121229761Y-133895714D01*
X121229761Y-133895714D02*
X121277380Y-133990952D01*
X121277380Y-133990952D02*
X121277380Y-134276666D01*
X121277380Y-134276666D02*
X121229761Y-134371904D01*
X121229761Y-134371904D02*
X121182142Y-134419523D01*
X120277380Y-133467142D02*
X120277380Y-132848095D01*
X120277380Y-132848095D02*
X120658333Y-133181428D01*
X120658333Y-133181428D02*
X120658333Y-133038571D01*
X120658333Y-133038571D02*
X120705952Y-132943333D01*
X120705952Y-132943333D02*
X120753571Y-132895714D01*
X120753571Y-132895714D02*
X120848809Y-132848095D01*
X120848809Y-132848095D02*
X121086904Y-132848095D01*
X121086904Y-132848095D02*
X121182142Y-132895714D01*
X121182142Y-132895714D02*
X121229761Y-132943333D01*
X121229761Y-132943333D02*
X121277380Y-133038571D01*
X121277380Y-133038571D02*
X121277380Y-133324285D01*
X121277380Y-133324285D02*
X121229761Y-133419523D01*
X121229761Y-133419523D02*
X121182142Y-133467142D01*
X90949523Y-130367380D02*
X90616190Y-129891190D01*
X90378095Y-130367380D02*
X90378095Y-129367380D01*
X90378095Y-129367380D02*
X90759047Y-129367380D01*
X90759047Y-129367380D02*
X90854285Y-129415000D01*
X90854285Y-129415000D02*
X90901904Y-129462619D01*
X90901904Y-129462619D02*
X90949523Y-129557857D01*
X90949523Y-129557857D02*
X90949523Y-129700714D01*
X90949523Y-129700714D02*
X90901904Y-129795952D01*
X90901904Y-129795952D02*
X90854285Y-129843571D01*
X90854285Y-129843571D02*
X90759047Y-129891190D01*
X90759047Y-129891190D02*
X90378095Y-129891190D01*
X91378095Y-130367380D02*
X91378095Y-129367380D01*
X91378095Y-129367380D02*
X91949523Y-130367380D01*
X91949523Y-130367380D02*
X91949523Y-129367380D01*
X92854285Y-129367380D02*
X92663809Y-129367380D01*
X92663809Y-129367380D02*
X92568571Y-129415000D01*
X92568571Y-129415000D02*
X92520952Y-129462619D01*
X92520952Y-129462619D02*
X92425714Y-129605476D01*
X92425714Y-129605476D02*
X92378095Y-129795952D01*
X92378095Y-129795952D02*
X92378095Y-130176904D01*
X92378095Y-130176904D02*
X92425714Y-130272142D01*
X92425714Y-130272142D02*
X92473333Y-130319761D01*
X92473333Y-130319761D02*
X92568571Y-130367380D01*
X92568571Y-130367380D02*
X92759047Y-130367380D01*
X92759047Y-130367380D02*
X92854285Y-130319761D01*
X92854285Y-130319761D02*
X92901904Y-130272142D01*
X92901904Y-130272142D02*
X92949523Y-130176904D01*
X92949523Y-130176904D02*
X92949523Y-129938809D01*
X92949523Y-129938809D02*
X92901904Y-129843571D01*
X92901904Y-129843571D02*
X92854285Y-129795952D01*
X92854285Y-129795952D02*
X92759047Y-129748333D01*
X92759047Y-129748333D02*
X92568571Y-129748333D01*
X92568571Y-129748333D02*
X92473333Y-129795952D01*
X92473333Y-129795952D02*
X92425714Y-129843571D01*
X92425714Y-129843571D02*
X92378095Y-129938809D01*
X128666666Y-112367380D02*
X128666666Y-113081666D01*
X128666666Y-113081666D02*
X128619047Y-113224523D01*
X128619047Y-113224523D02*
X128523809Y-113319761D01*
X128523809Y-113319761D02*
X128380952Y-113367380D01*
X128380952Y-113367380D02*
X128285714Y-113367380D01*
X129571428Y-112367380D02*
X129380952Y-112367380D01*
X129380952Y-112367380D02*
X129285714Y-112415000D01*
X129285714Y-112415000D02*
X129238095Y-112462619D01*
X129238095Y-112462619D02*
X129142857Y-112605476D01*
X129142857Y-112605476D02*
X129095238Y-112795952D01*
X129095238Y-112795952D02*
X129095238Y-113176904D01*
X129095238Y-113176904D02*
X129142857Y-113272142D01*
X129142857Y-113272142D02*
X129190476Y-113319761D01*
X129190476Y-113319761D02*
X129285714Y-113367380D01*
X129285714Y-113367380D02*
X129476190Y-113367380D01*
X129476190Y-113367380D02*
X129571428Y-113319761D01*
X129571428Y-113319761D02*
X129619047Y-113272142D01*
X129619047Y-113272142D02*
X129666666Y-113176904D01*
X129666666Y-113176904D02*
X129666666Y-112938809D01*
X129666666Y-112938809D02*
X129619047Y-112843571D01*
X129619047Y-112843571D02*
X129571428Y-112795952D01*
X129571428Y-112795952D02*
X129476190Y-112748333D01*
X129476190Y-112748333D02*
X129285714Y-112748333D01*
X129285714Y-112748333D02*
X129190476Y-112795952D01*
X129190476Y-112795952D02*
X129142857Y-112843571D01*
X129142857Y-112843571D02*
X129095238Y-112938809D01*
D12*
X127951600Y-103341904D02*
X126951600Y-103341904D01*
X127284934Y-102865714D02*
X127951600Y-102865714D01*
X127380172Y-102865714D02*
X127332553Y-102818095D01*
X127332553Y-102818095D02*
X127284934Y-102722857D01*
X127284934Y-102722857D02*
X127284934Y-102580000D01*
X127284934Y-102580000D02*
X127332553Y-102484762D01*
X127332553Y-102484762D02*
X127427791Y-102437143D01*
X127427791Y-102437143D02*
X127951600Y-102437143D01*
X126951600Y-101770476D02*
X126951600Y-101675238D01*
X126951600Y-101675238D02*
X126999220Y-101580000D01*
X126999220Y-101580000D02*
X127046839Y-101532381D01*
X127046839Y-101532381D02*
X127142077Y-101484762D01*
X127142077Y-101484762D02*
X127332553Y-101437143D01*
X127332553Y-101437143D02*
X127570648Y-101437143D01*
X127570648Y-101437143D02*
X127761124Y-101484762D01*
X127761124Y-101484762D02*
X127856362Y-101532381D01*
X127856362Y-101532381D02*
X127903981Y-101580000D01*
X127903981Y-101580000D02*
X127951600Y-101675238D01*
X127951600Y-101675238D02*
X127951600Y-101770476D01*
X127951600Y-101770476D02*
X127903981Y-101865714D01*
X127903981Y-101865714D02*
X127856362Y-101913333D01*
X127856362Y-101913333D02*
X127761124Y-101960952D01*
X127761124Y-101960952D02*
X127570648Y-102008571D01*
X127570648Y-102008571D02*
X127332553Y-102008571D01*
X127332553Y-102008571D02*
X127142077Y-101960952D01*
X127142077Y-101960952D02*
X127046839Y-101913333D01*
X127046839Y-101913333D02*
X126999220Y-101865714D01*
X126999220Y-101865714D02*
X126951600Y-101770476D01*
X124387619Y-110318095D02*
X125387619Y-110318095D01*
X125054285Y-110794285D02*
X124387619Y-110794285D01*
X124959047Y-110794285D02*
X125006666Y-110841904D01*
X125006666Y-110841904D02*
X125054285Y-110937142D01*
X125054285Y-110937142D02*
X125054285Y-111079999D01*
X125054285Y-111079999D02*
X125006666Y-111175237D01*
X125006666Y-111175237D02*
X124911428Y-111222856D01*
X124911428Y-111222856D02*
X124387619Y-111222856D01*
X125387619Y-111603809D02*
X125387619Y-112222856D01*
X125387619Y-112222856D02*
X125006666Y-111889523D01*
X125006666Y-111889523D02*
X125006666Y-112032380D01*
X125006666Y-112032380D02*
X124959047Y-112127618D01*
X124959047Y-112127618D02*
X124911428Y-112175237D01*
X124911428Y-112175237D02*
X124816190Y-112222856D01*
X124816190Y-112222856D02*
X124578095Y-112222856D01*
X124578095Y-112222856D02*
X124482857Y-112175237D01*
X124482857Y-112175237D02*
X124435238Y-112127618D01*
X124435238Y-112127618D02*
X124387619Y-112032380D01*
X124387619Y-112032380D02*
X124387619Y-111746666D01*
X124387619Y-111746666D02*
X124435238Y-111651428D01*
X124435238Y-111651428D02*
X124482857Y-111603809D01*
X121887619Y-110318095D02*
X122887619Y-110318095D01*
X122554285Y-110794285D02*
X121887619Y-110794285D01*
X122459047Y-110794285D02*
X122506666Y-110841904D01*
X122506666Y-110841904D02*
X122554285Y-110937142D01*
X122554285Y-110937142D02*
X122554285Y-111079999D01*
X122554285Y-111079999D02*
X122506666Y-111175237D01*
X122506666Y-111175237D02*
X122411428Y-111222856D01*
X122411428Y-111222856D02*
X121887619Y-111222856D01*
X122887619Y-112175237D02*
X122887619Y-111699047D01*
X122887619Y-111699047D02*
X122411428Y-111651428D01*
X122411428Y-111651428D02*
X122459047Y-111699047D01*
X122459047Y-111699047D02*
X122506666Y-111794285D01*
X122506666Y-111794285D02*
X122506666Y-112032380D01*
X122506666Y-112032380D02*
X122459047Y-112127618D01*
X122459047Y-112127618D02*
X122411428Y-112175237D01*
X122411428Y-112175237D02*
X122316190Y-112222856D01*
X122316190Y-112222856D02*
X122078095Y-112222856D01*
X122078095Y-112222856D02*
X121982857Y-112175237D01*
X121982857Y-112175237D02*
X121935238Y-112127618D01*
X121935238Y-112127618D02*
X121887619Y-112032380D01*
X121887619Y-112032380D02*
X121887619Y-111794285D01*
X121887619Y-111794285D02*
X121935238Y-111699047D01*
X121935238Y-111699047D02*
X121982857Y-111651428D01*
X120452380Y-103235772D02*
X119452380Y-103235772D01*
X119785714Y-102759582D02*
X120452380Y-102759582D01*
X119880952Y-102759582D02*
X119833333Y-102711963D01*
X119833333Y-102711963D02*
X119785714Y-102616725D01*
X119785714Y-102616725D02*
X119785714Y-102473868D01*
X119785714Y-102473868D02*
X119833333Y-102378630D01*
X119833333Y-102378630D02*
X119928571Y-102331011D01*
X119928571Y-102331011D02*
X120452380Y-102331011D01*
X119452380Y-101426249D02*
X119452380Y-101616725D01*
X119452380Y-101616725D02*
X119500000Y-101711963D01*
X119500000Y-101711963D02*
X119547619Y-101759582D01*
X119547619Y-101759582D02*
X119690476Y-101854820D01*
X119690476Y-101854820D02*
X119880952Y-101902439D01*
X119880952Y-101902439D02*
X120261904Y-101902439D01*
X120261904Y-101902439D02*
X120357142Y-101854820D01*
X120357142Y-101854820D02*
X120404761Y-101807201D01*
X120404761Y-101807201D02*
X120452380Y-101711963D01*
X120452380Y-101711963D02*
X120452380Y-101521487D01*
X120452380Y-101521487D02*
X120404761Y-101426249D01*
X120404761Y-101426249D02*
X120357142Y-101378630D01*
X120357142Y-101378630D02*
X120261904Y-101331011D01*
X120261904Y-101331011D02*
X120023809Y-101331011D01*
X120023809Y-101331011D02*
X119928571Y-101378630D01*
X119928571Y-101378630D02*
X119880952Y-101426249D01*
X119880952Y-101426249D02*
X119833333Y-101521487D01*
X119833333Y-101521487D02*
X119833333Y-101711963D01*
X119833333Y-101711963D02*
X119880952Y-101807201D01*
X119880952Y-101807201D02*
X119928571Y-101854820D01*
X119928571Y-101854820D02*
X120023809Y-101902439D01*
X119387619Y-110318095D02*
X120387619Y-110318095D01*
X120054285Y-110794285D02*
X119387619Y-110794285D01*
X119959047Y-110794285D02*
X120006666Y-110841904D01*
X120006666Y-110841904D02*
X120054285Y-110937142D01*
X120054285Y-110937142D02*
X120054285Y-111079999D01*
X120054285Y-111079999D02*
X120006666Y-111175237D01*
X120006666Y-111175237D02*
X119911428Y-111222856D01*
X119911428Y-111222856D02*
X119387619Y-111222856D01*
X119959047Y-111841904D02*
X120006666Y-111746666D01*
X120006666Y-111746666D02*
X120054285Y-111699047D01*
X120054285Y-111699047D02*
X120149523Y-111651428D01*
X120149523Y-111651428D02*
X120197142Y-111651428D01*
X120197142Y-111651428D02*
X120292380Y-111699047D01*
X120292380Y-111699047D02*
X120340000Y-111746666D01*
X120340000Y-111746666D02*
X120387619Y-111841904D01*
X120387619Y-111841904D02*
X120387619Y-112032380D01*
X120387619Y-112032380D02*
X120340000Y-112127618D01*
X120340000Y-112127618D02*
X120292380Y-112175237D01*
X120292380Y-112175237D02*
X120197142Y-112222856D01*
X120197142Y-112222856D02*
X120149523Y-112222856D01*
X120149523Y-112222856D02*
X120054285Y-112175237D01*
X120054285Y-112175237D02*
X120006666Y-112127618D01*
X120006666Y-112127618D02*
X119959047Y-112032380D01*
X119959047Y-112032380D02*
X119959047Y-111841904D01*
X119959047Y-111841904D02*
X119911428Y-111746666D01*
X119911428Y-111746666D02*
X119863809Y-111699047D01*
X119863809Y-111699047D02*
X119768571Y-111651428D01*
X119768571Y-111651428D02*
X119578095Y-111651428D01*
X119578095Y-111651428D02*
X119482857Y-111699047D01*
X119482857Y-111699047D02*
X119435238Y-111746666D01*
X119435238Y-111746666D02*
X119387619Y-111841904D01*
X119387619Y-111841904D02*
X119387619Y-112032380D01*
X119387619Y-112032380D02*
X119435238Y-112127618D01*
X119435238Y-112127618D02*
X119482857Y-112175237D01*
X119482857Y-112175237D02*
X119578095Y-112222856D01*
X119578095Y-112222856D02*
X119768571Y-112222856D01*
X119768571Y-112222856D02*
X119863809Y-112175237D01*
X119863809Y-112175237D02*
X119911428Y-112127618D01*
X119911428Y-112127618D02*
X119959047Y-112032380D01*
X126887619Y-110318095D02*
X127887619Y-110318095D01*
X127554285Y-110794285D02*
X126887619Y-110794285D01*
X127459047Y-110794285D02*
X127506666Y-110841904D01*
X127506666Y-110841904D02*
X127554285Y-110937142D01*
X127554285Y-110937142D02*
X127554285Y-111079999D01*
X127554285Y-111079999D02*
X127506666Y-111175237D01*
X127506666Y-111175237D02*
X127411428Y-111222856D01*
X127411428Y-111222856D02*
X126887619Y-111222856D01*
X126887619Y-112222856D02*
X126887619Y-111651428D01*
X126887619Y-111937142D02*
X127887619Y-111937142D01*
X127887619Y-111937142D02*
X127744761Y-111841904D01*
X127744761Y-111841904D02*
X127649523Y-111746666D01*
X127649523Y-111746666D02*
X127601904Y-111651428D01*
X125452380Y-103235772D02*
X124452380Y-103235772D01*
X124785714Y-102759582D02*
X125452380Y-102759582D01*
X124880952Y-102759582D02*
X124833333Y-102711963D01*
X124833333Y-102711963D02*
X124785714Y-102616725D01*
X124785714Y-102616725D02*
X124785714Y-102473868D01*
X124785714Y-102473868D02*
X124833333Y-102378630D01*
X124833333Y-102378630D02*
X124928571Y-102331011D01*
X124928571Y-102331011D02*
X125452380Y-102331011D01*
X124547619Y-101902439D02*
X124500000Y-101854820D01*
X124500000Y-101854820D02*
X124452380Y-101759582D01*
X124452380Y-101759582D02*
X124452380Y-101521487D01*
X124452380Y-101521487D02*
X124500000Y-101426249D01*
X124500000Y-101426249D02*
X124547619Y-101378630D01*
X124547619Y-101378630D02*
X124642857Y-101331011D01*
X124642857Y-101331011D02*
X124738095Y-101331011D01*
X124738095Y-101331011D02*
X124880952Y-101378630D01*
X124880952Y-101378630D02*
X125452380Y-101950058D01*
X125452380Y-101950058D02*
X125452380Y-101331011D01*
X122951600Y-103341904D02*
X121951600Y-103341904D01*
X122284934Y-102865714D02*
X122951600Y-102865714D01*
X122380172Y-102865714D02*
X122332553Y-102818095D01*
X122332553Y-102818095D02*
X122284934Y-102722857D01*
X122284934Y-102722857D02*
X122284934Y-102580000D01*
X122284934Y-102580000D02*
X122332553Y-102484762D01*
X122332553Y-102484762D02*
X122427791Y-102437143D01*
X122427791Y-102437143D02*
X122951600Y-102437143D01*
X122284934Y-101532381D02*
X122951600Y-101532381D01*
X121903981Y-101770476D02*
X122618267Y-102008571D01*
X122618267Y-102008571D02*
X122618267Y-101389524D01*
X114431904Y-111910000D02*
X114336666Y-111862380D01*
X114336666Y-111862380D02*
X114193809Y-111862380D01*
X114193809Y-111862380D02*
X114050952Y-111910000D01*
X114050952Y-111910000D02*
X113955714Y-112005238D01*
X113955714Y-112005238D02*
X113908095Y-112100476D01*
X113908095Y-112100476D02*
X113860476Y-112290952D01*
X113860476Y-112290952D02*
X113860476Y-112433809D01*
X113860476Y-112433809D02*
X113908095Y-112624285D01*
X113908095Y-112624285D02*
X113955714Y-112719523D01*
X113955714Y-112719523D02*
X114050952Y-112814761D01*
X114050952Y-112814761D02*
X114193809Y-112862380D01*
X114193809Y-112862380D02*
X114289047Y-112862380D01*
X114289047Y-112862380D02*
X114431904Y-112814761D01*
X114431904Y-112814761D02*
X114479523Y-112767142D01*
X114479523Y-112767142D02*
X114479523Y-112433809D01*
X114479523Y-112433809D02*
X114289047Y-112433809D01*
X114908095Y-112862380D02*
X114908095Y-111862380D01*
X114908095Y-111862380D02*
X115479523Y-112862380D01*
X115479523Y-112862380D02*
X115479523Y-111862380D01*
X115955714Y-112862380D02*
X115955714Y-111862380D01*
X115955714Y-111862380D02*
X116193809Y-111862380D01*
X116193809Y-111862380D02*
X116336666Y-111910000D01*
X116336666Y-111910000D02*
X116431904Y-112005238D01*
X116431904Y-112005238D02*
X116479523Y-112100476D01*
X116479523Y-112100476D02*
X116527142Y-112290952D01*
X116527142Y-112290952D02*
X116527142Y-112433809D01*
X116527142Y-112433809D02*
X116479523Y-112624285D01*
X116479523Y-112624285D02*
X116431904Y-112719523D01*
X116431904Y-112719523D02*
X116336666Y-112814761D01*
X116336666Y-112814761D02*
X116193809Y-112862380D01*
X116193809Y-112862380D02*
X115955714Y-112862380D01*
D11*
X126777380Y-96532857D02*
X126301190Y-96866190D01*
X126777380Y-97104285D02*
X125777380Y-97104285D01*
X125777380Y-97104285D02*
X125777380Y-96723333D01*
X125777380Y-96723333D02*
X125825000Y-96628095D01*
X125825000Y-96628095D02*
X125872619Y-96580476D01*
X125872619Y-96580476D02*
X125967857Y-96532857D01*
X125967857Y-96532857D02*
X126110714Y-96532857D01*
X126110714Y-96532857D02*
X126205952Y-96580476D01*
X126205952Y-96580476D02*
X126253571Y-96628095D01*
X126253571Y-96628095D02*
X126301190Y-96723333D01*
X126301190Y-96723333D02*
X126301190Y-97104285D01*
X125777380Y-96199523D02*
X125777380Y-95580476D01*
X125777380Y-95580476D02*
X126158333Y-95913809D01*
X126158333Y-95913809D02*
X126158333Y-95770952D01*
X126158333Y-95770952D02*
X126205952Y-95675714D01*
X126205952Y-95675714D02*
X126253571Y-95628095D01*
X126253571Y-95628095D02*
X126348809Y-95580476D01*
X126348809Y-95580476D02*
X126586904Y-95580476D01*
X126586904Y-95580476D02*
X126682142Y-95628095D01*
X126682142Y-95628095D02*
X126729761Y-95675714D01*
X126729761Y-95675714D02*
X126777380Y-95770952D01*
X126777380Y-95770952D02*
X126777380Y-96056666D01*
X126777380Y-96056666D02*
X126729761Y-96151904D01*
X126729761Y-96151904D02*
X126682142Y-96199523D01*
X125777380Y-94961428D02*
X125777380Y-94866190D01*
X125777380Y-94866190D02*
X125825000Y-94770952D01*
X125825000Y-94770952D02*
X125872619Y-94723333D01*
X125872619Y-94723333D02*
X125967857Y-94675714D01*
X125967857Y-94675714D02*
X126158333Y-94628095D01*
X126158333Y-94628095D02*
X126396428Y-94628095D01*
X126396428Y-94628095D02*
X126586904Y-94675714D01*
X126586904Y-94675714D02*
X126682142Y-94723333D01*
X126682142Y-94723333D02*
X126729761Y-94770952D01*
X126729761Y-94770952D02*
X126777380Y-94866190D01*
X126777380Y-94866190D02*
X126777380Y-94961428D01*
X126777380Y-94961428D02*
X126729761Y-95056666D01*
X126729761Y-95056666D02*
X126682142Y-95104285D01*
X126682142Y-95104285D02*
X126586904Y-95151904D01*
X126586904Y-95151904D02*
X126396428Y-95199523D01*
X126396428Y-95199523D02*
X126158333Y-95199523D01*
X126158333Y-95199523D02*
X125967857Y-95151904D01*
X125967857Y-95151904D02*
X125872619Y-95104285D01*
X125872619Y-95104285D02*
X125825000Y-95056666D01*
X125825000Y-95056666D02*
X125777380Y-94961428D01*
X129287380Y-96532857D02*
X128811190Y-96866190D01*
X129287380Y-97104285D02*
X128287380Y-97104285D01*
X128287380Y-97104285D02*
X128287380Y-96723333D01*
X128287380Y-96723333D02*
X128335000Y-96628095D01*
X128335000Y-96628095D02*
X128382619Y-96580476D01*
X128382619Y-96580476D02*
X128477857Y-96532857D01*
X128477857Y-96532857D02*
X128620714Y-96532857D01*
X128620714Y-96532857D02*
X128715952Y-96580476D01*
X128715952Y-96580476D02*
X128763571Y-96628095D01*
X128763571Y-96628095D02*
X128811190Y-96723333D01*
X128811190Y-96723333D02*
X128811190Y-97104285D01*
X128287380Y-96199523D02*
X128287380Y-95580476D01*
X128287380Y-95580476D02*
X128668333Y-95913809D01*
X128668333Y-95913809D02*
X128668333Y-95770952D01*
X128668333Y-95770952D02*
X128715952Y-95675714D01*
X128715952Y-95675714D02*
X128763571Y-95628095D01*
X128763571Y-95628095D02*
X128858809Y-95580476D01*
X128858809Y-95580476D02*
X129096904Y-95580476D01*
X129096904Y-95580476D02*
X129192142Y-95628095D01*
X129192142Y-95628095D02*
X129239761Y-95675714D01*
X129239761Y-95675714D02*
X129287380Y-95770952D01*
X129287380Y-95770952D02*
X129287380Y-96056666D01*
X129287380Y-96056666D02*
X129239761Y-96151904D01*
X129239761Y-96151904D02*
X129192142Y-96199523D01*
X129287380Y-94628095D02*
X129287380Y-95199523D01*
X129287380Y-94913809D02*
X128287380Y-94913809D01*
X128287380Y-94913809D02*
X128430238Y-95009047D01*
X128430238Y-95009047D02*
X128525476Y-95104285D01*
X128525476Y-95104285D02*
X128573095Y-95199523D01*
X123747380Y-134752857D02*
X123271190Y-135086190D01*
X123747380Y-135324285D02*
X122747380Y-135324285D01*
X122747380Y-135324285D02*
X122747380Y-134943333D01*
X122747380Y-134943333D02*
X122795000Y-134848095D01*
X122795000Y-134848095D02*
X122842619Y-134800476D01*
X122842619Y-134800476D02*
X122937857Y-134752857D01*
X122937857Y-134752857D02*
X123080714Y-134752857D01*
X123080714Y-134752857D02*
X123175952Y-134800476D01*
X123175952Y-134800476D02*
X123223571Y-134848095D01*
X123223571Y-134848095D02*
X123271190Y-134943333D01*
X123271190Y-134943333D02*
X123271190Y-135324285D01*
X122747380Y-134419523D02*
X122747380Y-133800476D01*
X122747380Y-133800476D02*
X123128333Y-134133809D01*
X123128333Y-134133809D02*
X123128333Y-133990952D01*
X123128333Y-133990952D02*
X123175952Y-133895714D01*
X123175952Y-133895714D02*
X123223571Y-133848095D01*
X123223571Y-133848095D02*
X123318809Y-133800476D01*
X123318809Y-133800476D02*
X123556904Y-133800476D01*
X123556904Y-133800476D02*
X123652142Y-133848095D01*
X123652142Y-133848095D02*
X123699761Y-133895714D01*
X123699761Y-133895714D02*
X123747380Y-133990952D01*
X123747380Y-133990952D02*
X123747380Y-134276666D01*
X123747380Y-134276666D02*
X123699761Y-134371904D01*
X123699761Y-134371904D02*
X123652142Y-134419523D01*
X122842619Y-133419523D02*
X122795000Y-133371904D01*
X122795000Y-133371904D02*
X122747380Y-133276666D01*
X122747380Y-133276666D02*
X122747380Y-133038571D01*
X122747380Y-133038571D02*
X122795000Y-132943333D01*
X122795000Y-132943333D02*
X122842619Y-132895714D01*
X122842619Y-132895714D02*
X122937857Y-132848095D01*
X122937857Y-132848095D02*
X123033095Y-132848095D01*
X123033095Y-132848095D02*
X123175952Y-132895714D01*
X123175952Y-132895714D02*
X123747380Y-133467142D01*
X123747380Y-133467142D02*
X123747380Y-132848095D01*
X80387380Y-96542857D02*
X79911190Y-96876190D01*
X80387380Y-97114285D02*
X79387380Y-97114285D01*
X79387380Y-97114285D02*
X79387380Y-96733333D01*
X79387380Y-96733333D02*
X79435000Y-96638095D01*
X79435000Y-96638095D02*
X79482619Y-96590476D01*
X79482619Y-96590476D02*
X79577857Y-96542857D01*
X79577857Y-96542857D02*
X79720714Y-96542857D01*
X79720714Y-96542857D02*
X79815952Y-96590476D01*
X79815952Y-96590476D02*
X79863571Y-96638095D01*
X79863571Y-96638095D02*
X79911190Y-96733333D01*
X79911190Y-96733333D02*
X79911190Y-97114285D01*
X80387380Y-95590476D02*
X80387380Y-96161904D01*
X80387380Y-95876190D02*
X79387380Y-95876190D01*
X79387380Y-95876190D02*
X79530238Y-95971428D01*
X79530238Y-95971428D02*
X79625476Y-96066666D01*
X79625476Y-96066666D02*
X79673095Y-96161904D01*
X80387380Y-94638095D02*
X80387380Y-95209523D01*
X80387380Y-94923809D02*
X79387380Y-94923809D01*
X79387380Y-94923809D02*
X79530238Y-95019047D01*
X79530238Y-95019047D02*
X79625476Y-95114285D01*
X79625476Y-95114285D02*
X79673095Y-95209523D01*
X102947380Y-134672857D02*
X102471190Y-135006190D01*
X102947380Y-135244285D02*
X101947380Y-135244285D01*
X101947380Y-135244285D02*
X101947380Y-134863333D01*
X101947380Y-134863333D02*
X101995000Y-134768095D01*
X101995000Y-134768095D02*
X102042619Y-134720476D01*
X102042619Y-134720476D02*
X102137857Y-134672857D01*
X102137857Y-134672857D02*
X102280714Y-134672857D01*
X102280714Y-134672857D02*
X102375952Y-134720476D01*
X102375952Y-134720476D02*
X102423571Y-134768095D01*
X102423571Y-134768095D02*
X102471190Y-134863333D01*
X102471190Y-134863333D02*
X102471190Y-135244285D01*
X102042619Y-134291904D02*
X101995000Y-134244285D01*
X101995000Y-134244285D02*
X101947380Y-134149047D01*
X101947380Y-134149047D02*
X101947380Y-133910952D01*
X101947380Y-133910952D02*
X101995000Y-133815714D01*
X101995000Y-133815714D02*
X102042619Y-133768095D01*
X102042619Y-133768095D02*
X102137857Y-133720476D01*
X102137857Y-133720476D02*
X102233095Y-133720476D01*
X102233095Y-133720476D02*
X102375952Y-133768095D01*
X102375952Y-133768095D02*
X102947380Y-134339523D01*
X102947380Y-134339523D02*
X102947380Y-133720476D01*
X101947380Y-133387142D02*
X101947380Y-132768095D01*
X101947380Y-132768095D02*
X102328333Y-133101428D01*
X102328333Y-133101428D02*
X102328333Y-132958571D01*
X102328333Y-132958571D02*
X102375952Y-132863333D01*
X102375952Y-132863333D02*
X102423571Y-132815714D01*
X102423571Y-132815714D02*
X102518809Y-132768095D01*
X102518809Y-132768095D02*
X102756904Y-132768095D01*
X102756904Y-132768095D02*
X102852142Y-132815714D01*
X102852142Y-132815714D02*
X102899761Y-132863333D01*
X102899761Y-132863333D02*
X102947380Y-132958571D01*
X102947380Y-132958571D02*
X102947380Y-133244285D01*
X102947380Y-133244285D02*
X102899761Y-133339523D01*
X102899761Y-133339523D02*
X102852142Y-133387142D01*
X48869523Y-130367380D02*
X48536190Y-129891190D01*
X48298095Y-130367380D02*
X48298095Y-129367380D01*
X48298095Y-129367380D02*
X48679047Y-129367380D01*
X48679047Y-129367380D02*
X48774285Y-129415000D01*
X48774285Y-129415000D02*
X48821904Y-129462619D01*
X48821904Y-129462619D02*
X48869523Y-129557857D01*
X48869523Y-129557857D02*
X48869523Y-129700714D01*
X48869523Y-129700714D02*
X48821904Y-129795952D01*
X48821904Y-129795952D02*
X48774285Y-129843571D01*
X48774285Y-129843571D02*
X48679047Y-129891190D01*
X48679047Y-129891190D02*
X48298095Y-129891190D01*
X49298095Y-130367380D02*
X49298095Y-129367380D01*
X49298095Y-129367380D02*
X49869523Y-130367380D01*
X49869523Y-130367380D02*
X49869523Y-129367380D01*
X50298095Y-129462619D02*
X50345714Y-129415000D01*
X50345714Y-129415000D02*
X50440952Y-129367380D01*
X50440952Y-129367380D02*
X50679047Y-129367380D01*
X50679047Y-129367380D02*
X50774285Y-129415000D01*
X50774285Y-129415000D02*
X50821904Y-129462619D01*
X50821904Y-129462619D02*
X50869523Y-129557857D01*
X50869523Y-129557857D02*
X50869523Y-129653095D01*
X50869523Y-129653095D02*
X50821904Y-129795952D01*
X50821904Y-129795952D02*
X50250476Y-130367380D01*
X50250476Y-130367380D02*
X50869523Y-130367380D01*
X111809523Y-130367380D02*
X111476190Y-129891190D01*
X111238095Y-130367380D02*
X111238095Y-129367380D01*
X111238095Y-129367380D02*
X111619047Y-129367380D01*
X111619047Y-129367380D02*
X111714285Y-129415000D01*
X111714285Y-129415000D02*
X111761904Y-129462619D01*
X111761904Y-129462619D02*
X111809523Y-129557857D01*
X111809523Y-129557857D02*
X111809523Y-129700714D01*
X111809523Y-129700714D02*
X111761904Y-129795952D01*
X111761904Y-129795952D02*
X111714285Y-129843571D01*
X111714285Y-129843571D02*
X111619047Y-129891190D01*
X111619047Y-129891190D02*
X111238095Y-129891190D01*
X112238095Y-130367380D02*
X112238095Y-129367380D01*
X112238095Y-129367380D02*
X112809523Y-130367380D01*
X112809523Y-130367380D02*
X112809523Y-129367380D01*
X113428571Y-129795952D02*
X113333333Y-129748333D01*
X113333333Y-129748333D02*
X113285714Y-129700714D01*
X113285714Y-129700714D02*
X113238095Y-129605476D01*
X113238095Y-129605476D02*
X113238095Y-129557857D01*
X113238095Y-129557857D02*
X113285714Y-129462619D01*
X113285714Y-129462619D02*
X113333333Y-129415000D01*
X113333333Y-129415000D02*
X113428571Y-129367380D01*
X113428571Y-129367380D02*
X113619047Y-129367380D01*
X113619047Y-129367380D02*
X113714285Y-129415000D01*
X113714285Y-129415000D02*
X113761904Y-129462619D01*
X113761904Y-129462619D02*
X113809523Y-129557857D01*
X113809523Y-129557857D02*
X113809523Y-129605476D01*
X113809523Y-129605476D02*
X113761904Y-129700714D01*
X113761904Y-129700714D02*
X113714285Y-129748333D01*
X113714285Y-129748333D02*
X113619047Y-129795952D01*
X113619047Y-129795952D02*
X113428571Y-129795952D01*
X113428571Y-129795952D02*
X113333333Y-129843571D01*
X113333333Y-129843571D02*
X113285714Y-129891190D01*
X113285714Y-129891190D02*
X113238095Y-129986428D01*
X113238095Y-129986428D02*
X113238095Y-130176904D01*
X113238095Y-130176904D02*
X113285714Y-130272142D01*
X113285714Y-130272142D02*
X113333333Y-130319761D01*
X113333333Y-130319761D02*
X113428571Y-130367380D01*
X113428571Y-130367380D02*
X113619047Y-130367380D01*
X113619047Y-130367380D02*
X113714285Y-130319761D01*
X113714285Y-130319761D02*
X113761904Y-130272142D01*
X113761904Y-130272142D02*
X113809523Y-130176904D01*
X113809523Y-130176904D02*
X113809523Y-129986428D01*
X113809523Y-129986428D02*
X113761904Y-129891190D01*
X113761904Y-129891190D02*
X113714285Y-129843571D01*
X113714285Y-129843571D02*
X113619047Y-129795952D01*
X62367380Y-134306666D02*
X61891190Y-134639999D01*
X62367380Y-134878094D02*
X61367380Y-134878094D01*
X61367380Y-134878094D02*
X61367380Y-134497142D01*
X61367380Y-134497142D02*
X61415000Y-134401904D01*
X61415000Y-134401904D02*
X61462619Y-134354285D01*
X61462619Y-134354285D02*
X61557857Y-134306666D01*
X61557857Y-134306666D02*
X61700714Y-134306666D01*
X61700714Y-134306666D02*
X61795952Y-134354285D01*
X61795952Y-134354285D02*
X61843571Y-134401904D01*
X61843571Y-134401904D02*
X61891190Y-134497142D01*
X61891190Y-134497142D02*
X61891190Y-134878094D01*
X61795952Y-133735237D02*
X61748333Y-133830475D01*
X61748333Y-133830475D02*
X61700714Y-133878094D01*
X61700714Y-133878094D02*
X61605476Y-133925713D01*
X61605476Y-133925713D02*
X61557857Y-133925713D01*
X61557857Y-133925713D02*
X61462619Y-133878094D01*
X61462619Y-133878094D02*
X61415000Y-133830475D01*
X61415000Y-133830475D02*
X61367380Y-133735237D01*
X61367380Y-133735237D02*
X61367380Y-133544761D01*
X61367380Y-133544761D02*
X61415000Y-133449523D01*
X61415000Y-133449523D02*
X61462619Y-133401904D01*
X61462619Y-133401904D02*
X61557857Y-133354285D01*
X61557857Y-133354285D02*
X61605476Y-133354285D01*
X61605476Y-133354285D02*
X61700714Y-133401904D01*
X61700714Y-133401904D02*
X61748333Y-133449523D01*
X61748333Y-133449523D02*
X61795952Y-133544761D01*
X61795952Y-133544761D02*
X61795952Y-133735237D01*
X61795952Y-133735237D02*
X61843571Y-133830475D01*
X61843571Y-133830475D02*
X61891190Y-133878094D01*
X61891190Y-133878094D02*
X61986428Y-133925713D01*
X61986428Y-133925713D02*
X62176904Y-133925713D01*
X62176904Y-133925713D02*
X62272142Y-133878094D01*
X62272142Y-133878094D02*
X62319761Y-133830475D01*
X62319761Y-133830475D02*
X62367380Y-133735237D01*
X62367380Y-133735237D02*
X62367380Y-133544761D01*
X62367380Y-133544761D02*
X62319761Y-133449523D01*
X62319761Y-133449523D02*
X62272142Y-133401904D01*
X62272142Y-133401904D02*
X62176904Y-133354285D01*
X62176904Y-133354285D02*
X61986428Y-133354285D01*
X61986428Y-133354285D02*
X61891190Y-133401904D01*
X61891190Y-133401904D02*
X61843571Y-133449523D01*
X61843571Y-133449523D02*
X61795952Y-133544761D01*
X102197380Y-96522857D02*
X101721190Y-96856190D01*
X102197380Y-97094285D02*
X101197380Y-97094285D01*
X101197380Y-97094285D02*
X101197380Y-96713333D01*
X101197380Y-96713333D02*
X101245000Y-96618095D01*
X101245000Y-96618095D02*
X101292619Y-96570476D01*
X101292619Y-96570476D02*
X101387857Y-96522857D01*
X101387857Y-96522857D02*
X101530714Y-96522857D01*
X101530714Y-96522857D02*
X101625952Y-96570476D01*
X101625952Y-96570476D02*
X101673571Y-96618095D01*
X101673571Y-96618095D02*
X101721190Y-96713333D01*
X101721190Y-96713333D02*
X101721190Y-97094285D01*
X101292619Y-96141904D02*
X101245000Y-96094285D01*
X101245000Y-96094285D02*
X101197380Y-95999047D01*
X101197380Y-95999047D02*
X101197380Y-95760952D01*
X101197380Y-95760952D02*
X101245000Y-95665714D01*
X101245000Y-95665714D02*
X101292619Y-95618095D01*
X101292619Y-95618095D02*
X101387857Y-95570476D01*
X101387857Y-95570476D02*
X101483095Y-95570476D01*
X101483095Y-95570476D02*
X101625952Y-95618095D01*
X101625952Y-95618095D02*
X102197380Y-96189523D01*
X102197380Y-96189523D02*
X102197380Y-95570476D01*
X101197380Y-94951428D02*
X101197380Y-94856190D01*
X101197380Y-94856190D02*
X101245000Y-94760952D01*
X101245000Y-94760952D02*
X101292619Y-94713333D01*
X101292619Y-94713333D02*
X101387857Y-94665714D01*
X101387857Y-94665714D02*
X101578333Y-94618095D01*
X101578333Y-94618095D02*
X101816428Y-94618095D01*
X101816428Y-94618095D02*
X102006904Y-94665714D01*
X102006904Y-94665714D02*
X102102142Y-94713333D01*
X102102142Y-94713333D02*
X102149761Y-94760952D01*
X102149761Y-94760952D02*
X102197380Y-94856190D01*
X102197380Y-94856190D02*
X102197380Y-94951428D01*
X102197380Y-94951428D02*
X102149761Y-95046666D01*
X102149761Y-95046666D02*
X102102142Y-95094285D01*
X102102142Y-95094285D02*
X102006904Y-95141904D01*
X102006904Y-95141904D02*
X101816428Y-95189523D01*
X101816428Y-95189523D02*
X101578333Y-95189523D01*
X101578333Y-95189523D02*
X101387857Y-95141904D01*
X101387857Y-95141904D02*
X101292619Y-95094285D01*
X101292619Y-95094285D02*
X101245000Y-95046666D01*
X101245000Y-95046666D02*
X101197380Y-94951428D01*
X113747380Y-134752857D02*
X113271190Y-135086190D01*
X113747380Y-135324285D02*
X112747380Y-135324285D01*
X112747380Y-135324285D02*
X112747380Y-134943333D01*
X112747380Y-134943333D02*
X112795000Y-134848095D01*
X112795000Y-134848095D02*
X112842619Y-134800476D01*
X112842619Y-134800476D02*
X112937857Y-134752857D01*
X112937857Y-134752857D02*
X113080714Y-134752857D01*
X113080714Y-134752857D02*
X113175952Y-134800476D01*
X113175952Y-134800476D02*
X113223571Y-134848095D01*
X113223571Y-134848095D02*
X113271190Y-134943333D01*
X113271190Y-134943333D02*
X113271190Y-135324285D01*
X112747380Y-134419523D02*
X112747380Y-133800476D01*
X112747380Y-133800476D02*
X113128333Y-134133809D01*
X113128333Y-134133809D02*
X113128333Y-133990952D01*
X113128333Y-133990952D02*
X113175952Y-133895714D01*
X113175952Y-133895714D02*
X113223571Y-133848095D01*
X113223571Y-133848095D02*
X113318809Y-133800476D01*
X113318809Y-133800476D02*
X113556904Y-133800476D01*
X113556904Y-133800476D02*
X113652142Y-133848095D01*
X113652142Y-133848095D02*
X113699761Y-133895714D01*
X113699761Y-133895714D02*
X113747380Y-133990952D01*
X113747380Y-133990952D02*
X113747380Y-134276666D01*
X113747380Y-134276666D02*
X113699761Y-134371904D01*
X113699761Y-134371904D02*
X113652142Y-134419523D01*
X112747380Y-132943333D02*
X112747380Y-133133809D01*
X112747380Y-133133809D02*
X112795000Y-133229047D01*
X112795000Y-133229047D02*
X112842619Y-133276666D01*
X112842619Y-133276666D02*
X112985476Y-133371904D01*
X112985476Y-133371904D02*
X113175952Y-133419523D01*
X113175952Y-133419523D02*
X113556904Y-133419523D01*
X113556904Y-133419523D02*
X113652142Y-133371904D01*
X113652142Y-133371904D02*
X113699761Y-133324285D01*
X113699761Y-133324285D02*
X113747380Y-133229047D01*
X113747380Y-133229047D02*
X113747380Y-133038571D01*
X113747380Y-133038571D02*
X113699761Y-132943333D01*
X113699761Y-132943333D02*
X113652142Y-132895714D01*
X113652142Y-132895714D02*
X113556904Y-132848095D01*
X113556904Y-132848095D02*
X113318809Y-132848095D01*
X113318809Y-132848095D02*
X113223571Y-132895714D01*
X113223571Y-132895714D02*
X113175952Y-132943333D01*
X113175952Y-132943333D02*
X113128333Y-133038571D01*
X113128333Y-133038571D02*
X113128333Y-133229047D01*
X113128333Y-133229047D02*
X113175952Y-133324285D01*
X113175952Y-133324285D02*
X113223571Y-133371904D01*
X113223571Y-133371904D02*
X113318809Y-133419523D01*
X57567380Y-134106666D02*
X57091190Y-134439999D01*
X57567380Y-134678094D02*
X56567380Y-134678094D01*
X56567380Y-134678094D02*
X56567380Y-134297142D01*
X56567380Y-134297142D02*
X56615000Y-134201904D01*
X56615000Y-134201904D02*
X56662619Y-134154285D01*
X56662619Y-134154285D02*
X56757857Y-134106666D01*
X56757857Y-134106666D02*
X56900714Y-134106666D01*
X56900714Y-134106666D02*
X56995952Y-134154285D01*
X56995952Y-134154285D02*
X57043571Y-134201904D01*
X57043571Y-134201904D02*
X57091190Y-134297142D01*
X57091190Y-134297142D02*
X57091190Y-134678094D01*
X56567380Y-133249523D02*
X56567380Y-133439999D01*
X56567380Y-133439999D02*
X56615000Y-133535237D01*
X56615000Y-133535237D02*
X56662619Y-133582856D01*
X56662619Y-133582856D02*
X56805476Y-133678094D01*
X56805476Y-133678094D02*
X56995952Y-133725713D01*
X56995952Y-133725713D02*
X57376904Y-133725713D01*
X57376904Y-133725713D02*
X57472142Y-133678094D01*
X57472142Y-133678094D02*
X57519761Y-133630475D01*
X57519761Y-133630475D02*
X57567380Y-133535237D01*
X57567380Y-133535237D02*
X57567380Y-133344761D01*
X57567380Y-133344761D02*
X57519761Y-133249523D01*
X57519761Y-133249523D02*
X57472142Y-133201904D01*
X57472142Y-133201904D02*
X57376904Y-133154285D01*
X57376904Y-133154285D02*
X57138809Y-133154285D01*
X57138809Y-133154285D02*
X57043571Y-133201904D01*
X57043571Y-133201904D02*
X56995952Y-133249523D01*
X56995952Y-133249523D02*
X56948333Y-133344761D01*
X56948333Y-133344761D02*
X56948333Y-133535237D01*
X56948333Y-133535237D02*
X56995952Y-133630475D01*
X56995952Y-133630475D02*
X57043571Y-133678094D01*
X57043571Y-133678094D02*
X57138809Y-133725713D01*
X108483333Y-125142142D02*
X108435714Y-125189761D01*
X108435714Y-125189761D02*
X108292857Y-125237380D01*
X108292857Y-125237380D02*
X108197619Y-125237380D01*
X108197619Y-125237380D02*
X108054762Y-125189761D01*
X108054762Y-125189761D02*
X107959524Y-125094523D01*
X107959524Y-125094523D02*
X107911905Y-124999285D01*
X107911905Y-124999285D02*
X107864286Y-124808809D01*
X107864286Y-124808809D02*
X107864286Y-124665952D01*
X107864286Y-124665952D02*
X107911905Y-124475476D01*
X107911905Y-124475476D02*
X107959524Y-124380238D01*
X107959524Y-124380238D02*
X108054762Y-124285000D01*
X108054762Y-124285000D02*
X108197619Y-124237380D01*
X108197619Y-124237380D02*
X108292857Y-124237380D01*
X108292857Y-124237380D02*
X108435714Y-124285000D01*
X108435714Y-124285000D02*
X108483333Y-124332619D01*
X108816667Y-124237380D02*
X109435714Y-124237380D01*
X109435714Y-124237380D02*
X109102381Y-124618333D01*
X109102381Y-124618333D02*
X109245238Y-124618333D01*
X109245238Y-124618333D02*
X109340476Y-124665952D01*
X109340476Y-124665952D02*
X109388095Y-124713571D01*
X109388095Y-124713571D02*
X109435714Y-124808809D01*
X109435714Y-124808809D02*
X109435714Y-125046904D01*
X109435714Y-125046904D02*
X109388095Y-125142142D01*
X109388095Y-125142142D02*
X109340476Y-125189761D01*
X109340476Y-125189761D02*
X109245238Y-125237380D01*
X109245238Y-125237380D02*
X108959524Y-125237380D01*
X108959524Y-125237380D02*
X108864286Y-125189761D01*
X108864286Y-125189761D02*
X108816667Y-125142142D01*
X75147380Y-134652857D02*
X74671190Y-134986190D01*
X75147380Y-135224285D02*
X74147380Y-135224285D01*
X74147380Y-135224285D02*
X74147380Y-134843333D01*
X74147380Y-134843333D02*
X74195000Y-134748095D01*
X74195000Y-134748095D02*
X74242619Y-134700476D01*
X74242619Y-134700476D02*
X74337857Y-134652857D01*
X74337857Y-134652857D02*
X74480714Y-134652857D01*
X74480714Y-134652857D02*
X74575952Y-134700476D01*
X74575952Y-134700476D02*
X74623571Y-134748095D01*
X74623571Y-134748095D02*
X74671190Y-134843333D01*
X74671190Y-134843333D02*
X74671190Y-135224285D01*
X75147380Y-133700476D02*
X75147380Y-134271904D01*
X75147380Y-133986190D02*
X74147380Y-133986190D01*
X74147380Y-133986190D02*
X74290238Y-134081428D01*
X74290238Y-134081428D02*
X74385476Y-134176666D01*
X74385476Y-134176666D02*
X74433095Y-134271904D01*
X74147380Y-133367142D02*
X74147380Y-132700476D01*
X74147380Y-132700476D02*
X75147380Y-133129047D01*
X91523810Y-115367380D02*
X91523810Y-114367380D01*
X92571428Y-115272142D02*
X92523809Y-115319761D01*
X92523809Y-115319761D02*
X92380952Y-115367380D01*
X92380952Y-115367380D02*
X92285714Y-115367380D01*
X92285714Y-115367380D02*
X92142857Y-115319761D01*
X92142857Y-115319761D02*
X92047619Y-115224523D01*
X92047619Y-115224523D02*
X92000000Y-115129285D01*
X92000000Y-115129285D02*
X91952381Y-114938809D01*
X91952381Y-114938809D02*
X91952381Y-114795952D01*
X91952381Y-114795952D02*
X92000000Y-114605476D01*
X92000000Y-114605476D02*
X92047619Y-114510238D01*
X92047619Y-114510238D02*
X92142857Y-114415000D01*
X92142857Y-114415000D02*
X92285714Y-114367380D01*
X92285714Y-114367380D02*
X92380952Y-114367380D01*
X92380952Y-114367380D02*
X92523809Y-114415000D01*
X92523809Y-114415000D02*
X92571428Y-114462619D01*
X92904762Y-114367380D02*
X93523809Y-114367380D01*
X93523809Y-114367380D02*
X93190476Y-114748333D01*
X93190476Y-114748333D02*
X93333333Y-114748333D01*
X93333333Y-114748333D02*
X93428571Y-114795952D01*
X93428571Y-114795952D02*
X93476190Y-114843571D01*
X93476190Y-114843571D02*
X93523809Y-114938809D01*
X93523809Y-114938809D02*
X93523809Y-115176904D01*
X93523809Y-115176904D02*
X93476190Y-115272142D01*
X93476190Y-115272142D02*
X93428571Y-115319761D01*
X93428571Y-115319761D02*
X93333333Y-115367380D01*
X93333333Y-115367380D02*
X93047619Y-115367380D01*
X93047619Y-115367380D02*
X92952381Y-115319761D01*
X92952381Y-115319761D02*
X92904762Y-115272142D01*
X55367380Y-96866666D02*
X54891190Y-97199999D01*
X55367380Y-97438094D02*
X54367380Y-97438094D01*
X54367380Y-97438094D02*
X54367380Y-97057142D01*
X54367380Y-97057142D02*
X54415000Y-96961904D01*
X54415000Y-96961904D02*
X54462619Y-96914285D01*
X54462619Y-96914285D02*
X54557857Y-96866666D01*
X54557857Y-96866666D02*
X54700714Y-96866666D01*
X54700714Y-96866666D02*
X54795952Y-96914285D01*
X54795952Y-96914285D02*
X54843571Y-96961904D01*
X54843571Y-96961904D02*
X54891190Y-97057142D01*
X54891190Y-97057142D02*
X54891190Y-97438094D01*
X55367380Y-95914285D02*
X55367380Y-96485713D01*
X55367380Y-96199999D02*
X54367380Y-96199999D01*
X54367380Y-96199999D02*
X54510238Y-96295237D01*
X54510238Y-96295237D02*
X54605476Y-96390475D01*
X54605476Y-96390475D02*
X54653095Y-96485713D01*
X104797380Y-96532857D02*
X104321190Y-96866190D01*
X104797380Y-97104285D02*
X103797380Y-97104285D01*
X103797380Y-97104285D02*
X103797380Y-96723333D01*
X103797380Y-96723333D02*
X103845000Y-96628095D01*
X103845000Y-96628095D02*
X103892619Y-96580476D01*
X103892619Y-96580476D02*
X103987857Y-96532857D01*
X103987857Y-96532857D02*
X104130714Y-96532857D01*
X104130714Y-96532857D02*
X104225952Y-96580476D01*
X104225952Y-96580476D02*
X104273571Y-96628095D01*
X104273571Y-96628095D02*
X104321190Y-96723333D01*
X104321190Y-96723333D02*
X104321190Y-97104285D01*
X103892619Y-96151904D02*
X103845000Y-96104285D01*
X103845000Y-96104285D02*
X103797380Y-96009047D01*
X103797380Y-96009047D02*
X103797380Y-95770952D01*
X103797380Y-95770952D02*
X103845000Y-95675714D01*
X103845000Y-95675714D02*
X103892619Y-95628095D01*
X103892619Y-95628095D02*
X103987857Y-95580476D01*
X103987857Y-95580476D02*
X104083095Y-95580476D01*
X104083095Y-95580476D02*
X104225952Y-95628095D01*
X104225952Y-95628095D02*
X104797380Y-96199523D01*
X104797380Y-96199523D02*
X104797380Y-95580476D01*
X104797380Y-94628095D02*
X104797380Y-95199523D01*
X104797380Y-94913809D02*
X103797380Y-94913809D01*
X103797380Y-94913809D02*
X103940238Y-95009047D01*
X103940238Y-95009047D02*
X104035476Y-95104285D01*
X104035476Y-95104285D02*
X104083095Y-95199523D01*
X116257380Y-134752857D02*
X115781190Y-135086190D01*
X116257380Y-135324285D02*
X115257380Y-135324285D01*
X115257380Y-135324285D02*
X115257380Y-134943333D01*
X115257380Y-134943333D02*
X115305000Y-134848095D01*
X115305000Y-134848095D02*
X115352619Y-134800476D01*
X115352619Y-134800476D02*
X115447857Y-134752857D01*
X115447857Y-134752857D02*
X115590714Y-134752857D01*
X115590714Y-134752857D02*
X115685952Y-134800476D01*
X115685952Y-134800476D02*
X115733571Y-134848095D01*
X115733571Y-134848095D02*
X115781190Y-134943333D01*
X115781190Y-134943333D02*
X115781190Y-135324285D01*
X115257380Y-134419523D02*
X115257380Y-133800476D01*
X115257380Y-133800476D02*
X115638333Y-134133809D01*
X115638333Y-134133809D02*
X115638333Y-133990952D01*
X115638333Y-133990952D02*
X115685952Y-133895714D01*
X115685952Y-133895714D02*
X115733571Y-133848095D01*
X115733571Y-133848095D02*
X115828809Y-133800476D01*
X115828809Y-133800476D02*
X116066904Y-133800476D01*
X116066904Y-133800476D02*
X116162142Y-133848095D01*
X116162142Y-133848095D02*
X116209761Y-133895714D01*
X116209761Y-133895714D02*
X116257380Y-133990952D01*
X116257380Y-133990952D02*
X116257380Y-134276666D01*
X116257380Y-134276666D02*
X116209761Y-134371904D01*
X116209761Y-134371904D02*
X116162142Y-134419523D01*
X115257380Y-132895714D02*
X115257380Y-133371904D01*
X115257380Y-133371904D02*
X115733571Y-133419523D01*
X115733571Y-133419523D02*
X115685952Y-133371904D01*
X115685952Y-133371904D02*
X115638333Y-133276666D01*
X115638333Y-133276666D02*
X115638333Y-133038571D01*
X115638333Y-133038571D02*
X115685952Y-132943333D01*
X115685952Y-132943333D02*
X115733571Y-132895714D01*
X115733571Y-132895714D02*
X115828809Y-132848095D01*
X115828809Y-132848095D02*
X116066904Y-132848095D01*
X116066904Y-132848095D02*
X116162142Y-132895714D01*
X116162142Y-132895714D02*
X116209761Y-132943333D01*
X116209761Y-132943333D02*
X116257380Y-133038571D01*
X116257380Y-133038571D02*
X116257380Y-133276666D01*
X116257380Y-133276666D02*
X116209761Y-133371904D01*
X116209761Y-133371904D02*
X116162142Y-133419523D01*
D13*
X131180000Y-117000000D02*
X131180000Y-118000000D01*
X131180000Y-118000000D02*
X132180000Y-117500000D01*
X132180000Y-117500000D02*
X131180000Y-117000000D01*
X132570000Y-112290000D02*
X141690000Y-112290000D01*
X132570000Y-120530000D02*
X133880000Y-120530000D01*
X132570000Y-132870000D02*
X132570000Y-112290000D01*
X133880000Y-113590000D02*
X140380000Y-113590000D01*
X133880000Y-120530000D02*
X133880000Y-113590000D01*
X133880000Y-124630000D02*
X132570000Y-124630000D01*
X133880000Y-124630000D02*
X133880000Y-124630000D01*
X133880000Y-131570000D02*
X133880000Y-124630000D01*
X140380000Y-113590000D02*
X140380000Y-131570000D01*
X140380000Y-131570000D02*
X133880000Y-131570000D01*
X141690000Y-112290000D02*
X141690000Y-132870000D01*
X141690000Y-132870000D02*
X132570000Y-132870000D01*
X37080000Y-117000000D02*
X37080000Y-118000000D01*
X37080000Y-118000000D02*
X38080000Y-117500000D01*
X38080000Y-117500000D02*
X37080000Y-117000000D01*
X38470000Y-112290000D02*
X47590000Y-112290000D01*
X38470000Y-120530000D02*
X39780000Y-120530000D01*
X38470000Y-132870000D02*
X38470000Y-112290000D01*
X39780000Y-113590000D02*
X46280000Y-113590000D01*
X39780000Y-120530000D02*
X39780000Y-113590000D01*
X39780000Y-124630000D02*
X38470000Y-124630000D01*
X39780000Y-124630000D02*
X39780000Y-124630000D01*
X39780000Y-131570000D02*
X39780000Y-124630000D01*
X46280000Y-113590000D02*
X46280000Y-131570000D01*
X46280000Y-131570000D02*
X39780000Y-131570000D01*
X47590000Y-112290000D02*
X47590000Y-132870000D01*
X47590000Y-132870000D02*
X38470000Y-132870000D01*
X99590000Y-136980000D02*
X99590000Y-136030000D01*
X98670000Y-136030000D02*
X100510000Y-136030000D01*
X100510000Y-136030000D02*
X100510000Y-132190000D01*
X98670000Y-132190000D02*
X98670000Y-136030000D01*
X100510000Y-132190000D02*
X98670000Y-132190000D01*
X99590000Y-131240000D02*
X99590000Y-132190000D01*
X54700000Y-137020000D02*
X54700000Y-136070000D01*
X53780000Y-136070000D02*
X55620000Y-136070000D01*
X55620000Y-136070000D02*
X55620000Y-132230000D01*
X53780000Y-132230000D02*
X53780000Y-136070000D01*
X55620000Y-132230000D02*
X53780000Y-132230000D01*
X54700000Y-131280000D02*
X54700000Y-132230000D01*
X95200000Y-112760000D02*
X96200000Y-112760000D01*
X96200000Y-112760000D02*
X95700000Y-111760000D01*
X95700000Y-111760000D02*
X95200000Y-112760000D01*
X90490000Y-111370000D02*
X90490000Y-102250000D01*
X98730000Y-111370000D02*
X98730000Y-110060000D01*
X111070000Y-111370000D02*
X90490000Y-111370000D01*
X91790000Y-110060000D02*
X91790000Y-103560000D01*
X98730000Y-110060000D02*
X91790000Y-110060000D01*
X102830000Y-110060000D02*
X102830000Y-111370000D01*
X102830000Y-110060000D02*
X102830000Y-110060000D01*
X109770000Y-110060000D02*
X102830000Y-110060000D01*
X91790000Y-103560000D02*
X109770000Y-103560000D01*
X109770000Y-103560000D02*
X109770000Y-110060000D01*
X90490000Y-102250000D02*
X111070000Y-102250000D01*
X111070000Y-102250000D02*
X111070000Y-111370000D01*
X59600000Y-137000000D02*
X59600000Y-136050000D01*
X58680000Y-136050000D02*
X60520000Y-136050000D01*
X60520000Y-136050000D02*
X60520000Y-132210000D01*
X58680000Y-132210000D02*
X58680000Y-136050000D01*
X60520000Y-132210000D02*
X58680000Y-132210000D01*
X59600000Y-131260000D02*
X59600000Y-132210000D01*
X85630000Y-126100000D02*
X85630000Y-126725000D01*
X85630000Y-126100000D02*
X89670000Y-126100000D01*
X85630000Y-128315000D02*
X85630000Y-128940000D01*
X85630000Y-128940000D02*
X89670000Y-128940000D01*
X89670000Y-126100000D02*
X89670000Y-126725000D01*
X89670000Y-128315000D02*
X89670000Y-128940000D01*
X102100000Y-136980000D02*
X102100000Y-136030000D01*
X101180000Y-136030000D02*
X103020000Y-136030000D01*
X103020000Y-136030000D02*
X103020000Y-132190000D01*
X101180000Y-132190000D02*
X101180000Y-136030000D01*
X103020000Y-132190000D02*
X101180000Y-132190000D01*
X102100000Y-131240000D02*
X102100000Y-132190000D01*
X97080000Y-136980000D02*
X97080000Y-136030000D01*
X96160000Y-136030000D02*
X98000000Y-136030000D01*
X98000000Y-136030000D02*
X98000000Y-132190000D01*
X96160000Y-132190000D02*
X96160000Y-136030000D01*
X98000000Y-132190000D02*
X96160000Y-132190000D01*
X97080000Y-131240000D02*
X97080000Y-132190000D01*
X62400000Y-93020000D02*
X62400000Y-93970000D01*
X63320000Y-93970000D02*
X61480000Y-93970000D01*
X61480000Y-93970000D02*
X61480000Y-97810000D01*
X63320000Y-97810000D02*
X63320000Y-93970000D01*
X61480000Y-97810000D02*
X63320000Y-97810000D01*
X62400000Y-98760000D02*
X62400000Y-97810000D01*
X74400000Y-136890000D02*
X74400000Y-135940000D01*
X73480000Y-135940000D02*
X75320000Y-135940000D01*
X75320000Y-135940000D02*
X75320000Y-132100000D01*
X73480000Y-132100000D02*
X73480000Y-135940000D01*
X75320000Y-132100000D02*
X73480000Y-132100000D01*
X74400000Y-131150000D02*
X74400000Y-132100000D01*
X64630000Y-126100000D02*
X64630000Y-126725000D01*
X64630000Y-126100000D02*
X68670000Y-126100000D01*
X64630000Y-128315000D02*
X64630000Y-128940000D01*
X64630000Y-128940000D02*
X68670000Y-128940000D01*
X68670000Y-126100000D02*
X68670000Y-126725000D01*
X68670000Y-128315000D02*
X68670000Y-128940000D01*
X120320000Y-136980000D02*
X120320000Y-136030000D01*
X119400000Y-136030000D02*
X121240000Y-136030000D01*
X121240000Y-136030000D02*
X121240000Y-132190000D01*
X119400000Y-132190000D02*
X119400000Y-136030000D01*
X121240000Y-132190000D02*
X119400000Y-132190000D01*
X120320000Y-131240000D02*
X120320000Y-132190000D01*
X119470000Y-93020000D02*
X119470000Y-93970000D01*
X120390000Y-93970000D02*
X118550000Y-93970000D01*
X118550000Y-93970000D02*
X118550000Y-97810000D01*
X120390000Y-97810000D02*
X120390000Y-93970000D01*
X118550000Y-97810000D02*
X120390000Y-97810000D01*
X119470000Y-98760000D02*
X119470000Y-97810000D01*
X131710000Y-118173200D02*
X111270000Y-118173200D01*
X111270000Y-118173200D02*
X111270000Y-123473200D01*
X131710000Y-119823200D02*
X131710000Y-118173200D01*
X131710000Y-123473200D02*
X131710000Y-121823200D01*
X111270000Y-123473200D02*
X131710000Y-123473200D01*
X131710000Y-119823200D02*
G75*
G03*
X131710000Y-121823200I0J-1000000D01*
G01*
X93450000Y-93480000D02*
X93450000Y-96280000D01*
X93450000Y-96280000D02*
X109030000Y-96280000D01*
X96160000Y-93480000D02*
X96160000Y-96280000D01*
X109030000Y-93480000D02*
X93450000Y-93480000D01*
X109030000Y-96280000D02*
X109030000Y-93480000D01*
X83600000Y-136880000D02*
X83600000Y-135930000D01*
X82680000Y-135930000D02*
X84520000Y-135930000D01*
X84520000Y-135930000D02*
X84520000Y-132090000D01*
X82680000Y-132090000D02*
X82680000Y-135930000D01*
X84520000Y-132090000D02*
X82680000Y-132090000D01*
X83600000Y-131140000D02*
X83600000Y-132090000D01*
X79000000Y-136880000D02*
X79000000Y-135930000D01*
X78080000Y-135930000D02*
X79920000Y-135930000D01*
X79920000Y-135930000D02*
X79920000Y-132090000D01*
X78080000Y-132090000D02*
X78080000Y-135930000D01*
X79920000Y-132090000D02*
X78080000Y-132090000D01*
X79000000Y-131140000D02*
X79000000Y-132090000D01*
X105010000Y-93020000D02*
X105010000Y-93970000D01*
X105930000Y-93970000D02*
X104090000Y-93970000D01*
X104090000Y-93970000D02*
X104090000Y-97810000D01*
X105930000Y-97810000D02*
X105930000Y-93970000D01*
X104090000Y-97810000D02*
X105930000Y-97810000D01*
X105010000Y-98760000D02*
X105010000Y-97810000D01*
X94570000Y-136980000D02*
X94570000Y-136030000D01*
X93650000Y-136030000D02*
X95490000Y-136030000D01*
X95490000Y-136030000D02*
X95490000Y-132190000D01*
X93650000Y-132190000D02*
X93650000Y-136030000D01*
X95490000Y-132190000D02*
X93650000Y-132190000D01*
X94570000Y-131240000D02*
X94570000Y-132190000D01*
X75500000Y-93030000D02*
X75500000Y-93980000D01*
X76420000Y-93980000D02*
X74580000Y-93980000D01*
X74580000Y-93980000D02*
X74580000Y-97820000D01*
X76420000Y-97820000D02*
X76420000Y-93980000D01*
X74580000Y-97820000D02*
X76420000Y-97820000D01*
X75500000Y-98770000D02*
X75500000Y-97820000D01*
X57300000Y-93010000D02*
X57300000Y-93960000D01*
X58220000Y-93960000D02*
X56380000Y-93960000D01*
X56380000Y-93960000D02*
X56380000Y-97800000D01*
X58220000Y-97800000D02*
X58220000Y-93960000D01*
X56380000Y-97800000D02*
X58220000Y-97800000D01*
X57300000Y-98750000D02*
X57300000Y-97800000D01*
X52140000Y-112760000D02*
X53140000Y-112760000D01*
X53140000Y-112760000D02*
X52640000Y-111760000D01*
X52640000Y-111760000D02*
X52140000Y-112760000D01*
X47430000Y-111370000D02*
X47430000Y-102250000D01*
X55670000Y-111370000D02*
X55670000Y-110060000D01*
X68010000Y-111370000D02*
X47430000Y-111370000D01*
X48730000Y-110060000D02*
X48730000Y-103560000D01*
X55670000Y-110060000D02*
X48730000Y-110060000D01*
X59770000Y-110060000D02*
X59770000Y-111370000D01*
X59770000Y-110060000D02*
X59770000Y-110060000D01*
X66710000Y-110060000D02*
X59770000Y-110060000D01*
X48730000Y-103560000D02*
X66710000Y-103560000D01*
X66710000Y-103560000D02*
X66710000Y-110060000D01*
X47430000Y-102250000D02*
X68010000Y-102250000D01*
X68010000Y-102250000D02*
X68010000Y-111370000D01*
X81300000Y-136890000D02*
X81300000Y-135940000D01*
X80380000Y-135940000D02*
X82220000Y-135940000D01*
X82220000Y-135940000D02*
X82220000Y-132100000D01*
X80380000Y-132100000D02*
X80380000Y-135940000D01*
X82220000Y-132100000D02*
X80380000Y-132100000D01*
X81300000Y-131150000D02*
X81300000Y-132100000D01*
X83200000Y-93040000D02*
X83200000Y-93990000D01*
X84120000Y-93990000D02*
X82280000Y-93990000D01*
X82280000Y-93990000D02*
X82280000Y-97830000D01*
X84120000Y-97830000D02*
X84120000Y-93990000D01*
X82280000Y-97830000D02*
X84120000Y-97830000D01*
X83200000Y-98780000D02*
X83200000Y-97830000D01*
X71560000Y-93500000D02*
X71560000Y-96300000D01*
X71560000Y-96300000D02*
X87140000Y-96300000D01*
X74270000Y-93500000D02*
X74270000Y-96300000D01*
X87140000Y-93500000D02*
X71560000Y-93500000D01*
X87140000Y-96300000D02*
X87140000Y-93500000D01*
X80700000Y-93030000D02*
X80700000Y-93980000D01*
X81620000Y-93980000D02*
X79780000Y-93980000D01*
X79780000Y-93980000D02*
X79780000Y-97820000D01*
X81620000Y-97820000D02*
X81620000Y-93980000D01*
X79780000Y-97820000D02*
X81620000Y-97820000D01*
X80700000Y-98770000D02*
X80700000Y-97820000D01*
X89730000Y-118160000D02*
X69290000Y-118160000D01*
X69290000Y-118160000D02*
X69290000Y-123460000D01*
X89730000Y-119810000D02*
X89730000Y-118160000D01*
X89730000Y-123460000D02*
X89730000Y-121810000D01*
X69290000Y-123460000D02*
X89730000Y-123460000D01*
X89730000Y-119810000D02*
G75*
G03*
X89730000Y-121810000I0J-1000000D01*
G01*
X68730000Y-118160000D02*
X48290000Y-118160000D01*
X48290000Y-118160000D02*
X48290000Y-123460000D01*
X68730000Y-119810000D02*
X68730000Y-118160000D01*
X68730000Y-123460000D02*
X68730000Y-121810000D01*
X48290000Y-123460000D02*
X68730000Y-123460000D01*
X68730000Y-119810000D02*
G75*
G03*
X68730000Y-121810000I0J-1000000D01*
G01*
X127630000Y-126000000D02*
X127630000Y-126625000D01*
X127630000Y-126000000D02*
X131670000Y-126000000D01*
X127630000Y-128215000D02*
X127630000Y-128840000D01*
X127630000Y-128840000D02*
X131670000Y-128840000D01*
X131670000Y-126000000D02*
X131670000Y-126625000D01*
X131670000Y-128215000D02*
X131670000Y-128840000D01*
X69360000Y-126120000D02*
X69360000Y-128920000D01*
X69360000Y-128920000D02*
X84940000Y-128920000D01*
X72070000Y-126120000D02*
X72070000Y-128920000D01*
X84940000Y-126120000D02*
X69360000Y-126120000D01*
X84940000Y-128920000D02*
X84940000Y-126120000D01*
X50800000Y-93300000D02*
X50800000Y-96100000D01*
X50800000Y-96100000D02*
X66380000Y-96100000D01*
X53510000Y-93300000D02*
X53510000Y-96100000D01*
X66380000Y-93300000D02*
X50800000Y-93300000D01*
X66380000Y-96100000D02*
X66380000Y-93300000D01*
X97410000Y-92920000D02*
X97410000Y-93870000D01*
X98330000Y-93870000D02*
X96490000Y-93870000D01*
X96490000Y-93870000D02*
X96490000Y-97710000D01*
X98330000Y-97710000D02*
X98330000Y-93870000D01*
X96490000Y-97710000D02*
X98330000Y-97710000D01*
X97410000Y-98660000D02*
X97410000Y-97710000D01*
X130990000Y-96380000D02*
X130990000Y-93580000D01*
X130990000Y-93580000D02*
X115410000Y-93580000D01*
X118120000Y-93580000D02*
X118120000Y-96380000D01*
X115410000Y-96380000D02*
X130990000Y-96380000D01*
X115410000Y-93580000D02*
X115410000Y-96380000D01*
X73640000Y-112760000D02*
X74640000Y-112760000D01*
X74640000Y-112760000D02*
X74140000Y-111760000D01*
X74140000Y-111760000D02*
X73640000Y-112760000D01*
X68930000Y-111370000D02*
X68930000Y-102250000D01*
X77170000Y-111370000D02*
X77170000Y-110060000D01*
X89510000Y-111370000D02*
X68930000Y-111370000D01*
X70230000Y-110060000D02*
X70230000Y-103560000D01*
X77170000Y-110060000D02*
X70230000Y-110060000D01*
X81270000Y-110060000D02*
X81270000Y-111370000D01*
X81270000Y-110060000D02*
X81270000Y-110060000D01*
X88210000Y-110060000D02*
X81270000Y-110060000D01*
X70230000Y-103560000D02*
X88210000Y-103560000D01*
X88210000Y-103560000D02*
X88210000Y-110060000D01*
X68930000Y-102250000D02*
X89510000Y-102250000D01*
X89510000Y-102250000D02*
X89510000Y-111370000D01*
X52400000Y-137000000D02*
X52400000Y-136050000D01*
X51480000Y-136050000D02*
X53320000Y-136050000D01*
X53320000Y-136050000D02*
X53320000Y-132210000D01*
X51480000Y-132210000D02*
X51480000Y-136050000D01*
X53320000Y-132210000D02*
X51480000Y-132210000D01*
X52400000Y-131260000D02*
X52400000Y-132210000D01*
X59800000Y-93020000D02*
X59800000Y-93970000D01*
X60720000Y-93970000D02*
X58880000Y-93970000D01*
X58880000Y-93970000D02*
X58880000Y-97810000D01*
X60720000Y-97810000D02*
X60720000Y-93970000D01*
X58880000Y-97810000D02*
X60720000Y-97810000D01*
X59800000Y-98760000D02*
X59800000Y-97810000D01*
X121980000Y-93020000D02*
X121980000Y-93970000D01*
X122900000Y-93970000D02*
X121060000Y-93970000D01*
X121060000Y-93970000D02*
X121060000Y-97810000D01*
X122900000Y-97810000D02*
X122900000Y-93970000D01*
X121060000Y-97810000D02*
X122900000Y-97810000D01*
X121980000Y-98760000D02*
X121980000Y-97810000D01*
X122830000Y-136980000D02*
X122830000Y-136030000D01*
X121910000Y-136030000D02*
X123750000Y-136030000D01*
X123750000Y-136030000D02*
X123750000Y-132190000D01*
X121910000Y-132190000D02*
X121910000Y-136030000D01*
X123750000Y-132190000D02*
X121910000Y-132190000D01*
X122830000Y-131240000D02*
X122830000Y-132190000D01*
X90400000Y-126120000D02*
X90400000Y-128920000D01*
X90400000Y-128920000D02*
X105980000Y-128920000D01*
X93110000Y-126120000D02*
X93110000Y-128920000D01*
X105980000Y-126120000D02*
X90400000Y-126120000D01*
X105980000Y-128920000D02*
X105980000Y-126120000D01*
X116670000Y-112760000D02*
X117670000Y-112760000D01*
X117670000Y-112760000D02*
X117170000Y-111760000D01*
X117170000Y-111760000D02*
X116670000Y-112760000D01*
X111960000Y-111370000D02*
X111960000Y-102250000D01*
X120200000Y-111370000D02*
X120200000Y-110060000D01*
X132540000Y-111370000D02*
X111960000Y-111370000D01*
X113260000Y-110060000D02*
X113260000Y-103560000D01*
X120200000Y-110060000D02*
X113260000Y-110060000D01*
X124300000Y-110060000D02*
X124300000Y-111370000D01*
X124300000Y-110060000D02*
X124300000Y-110060000D01*
X131240000Y-110060000D02*
X124300000Y-110060000D01*
X113260000Y-103560000D02*
X131240000Y-103560000D01*
X131240000Y-103560000D02*
X131240000Y-110060000D01*
X111960000Y-102250000D02*
X132540000Y-102250000D01*
X132540000Y-102250000D02*
X132540000Y-111370000D01*
X124490000Y-93020000D02*
X124490000Y-93970000D01*
X125410000Y-93970000D02*
X123570000Y-93970000D01*
X123570000Y-93970000D02*
X123570000Y-97810000D01*
X125410000Y-97810000D02*
X125410000Y-93970000D01*
X123570000Y-97810000D02*
X125410000Y-97810000D01*
X124490000Y-98760000D02*
X124490000Y-97810000D01*
X127000000Y-93020000D02*
X127000000Y-93970000D01*
X127920000Y-93970000D02*
X126080000Y-93970000D01*
X126080000Y-93970000D02*
X126080000Y-97810000D01*
X127920000Y-97810000D02*
X127920000Y-93970000D01*
X126080000Y-97810000D02*
X127920000Y-97810000D01*
X127000000Y-98760000D02*
X127000000Y-97810000D01*
X125300000Y-136980000D02*
X125300000Y-136030000D01*
X124380000Y-136030000D02*
X126220000Y-136030000D01*
X126220000Y-136030000D02*
X126220000Y-132190000D01*
X124380000Y-132190000D02*
X124380000Y-136030000D01*
X126220000Y-132190000D02*
X124380000Y-132190000D01*
X125300000Y-131240000D02*
X125300000Y-132190000D01*
X78100000Y-93030000D02*
X78100000Y-93980000D01*
X79020000Y-93980000D02*
X77180000Y-93980000D01*
X77180000Y-93980000D02*
X77180000Y-97820000D01*
X79020000Y-97820000D02*
X79020000Y-93980000D01*
X77180000Y-97820000D02*
X79020000Y-97820000D01*
X78100000Y-98770000D02*
X78100000Y-97820000D01*
X104500000Y-136900000D02*
X104500000Y-135950000D01*
X103580000Y-135950000D02*
X105420000Y-135950000D01*
X105420000Y-135950000D02*
X105420000Y-132110000D01*
X103580000Y-132110000D02*
X103580000Y-135950000D01*
X105420000Y-132110000D02*
X103580000Y-132110000D01*
X104500000Y-131160000D02*
X104500000Y-132110000D01*
X48320000Y-126120000D02*
X48320000Y-128920000D01*
X48320000Y-128920000D02*
X63900000Y-128920000D01*
X51030000Y-126120000D02*
X51030000Y-128920000D01*
X63900000Y-126120000D02*
X48320000Y-126120000D01*
X63900000Y-128920000D02*
X63900000Y-126120000D01*
X111260000Y-126120000D02*
X111260000Y-128920000D01*
X111260000Y-128920000D02*
X126840000Y-128920000D01*
X113970000Y-126120000D02*
X113970000Y-128920000D01*
X126840000Y-126120000D02*
X111260000Y-126120000D01*
X126840000Y-128920000D02*
X126840000Y-126120000D01*
X62000000Y-137010000D02*
X62000000Y-136060000D01*
X61080000Y-136060000D02*
X62920000Y-136060000D01*
X62920000Y-136060000D02*
X62920000Y-132220000D01*
X61080000Y-132220000D02*
X61080000Y-136060000D01*
X62920000Y-132220000D02*
X61080000Y-132220000D01*
X62000000Y-131270000D02*
X62000000Y-132220000D01*
X99910000Y-93010000D02*
X99910000Y-93960000D01*
X100830000Y-93960000D02*
X98990000Y-93960000D01*
X98990000Y-93960000D02*
X98990000Y-97800000D01*
X100830000Y-97800000D02*
X100830000Y-93960000D01*
X98990000Y-97800000D02*
X100830000Y-97800000D01*
X99910000Y-98750000D02*
X99910000Y-97800000D01*
X115300000Y-136980000D02*
X115300000Y-136030000D01*
X114380000Y-136030000D02*
X116220000Y-136030000D01*
X116220000Y-136030000D02*
X116220000Y-132190000D01*
X114380000Y-132190000D02*
X114380000Y-136030000D01*
X116220000Y-132190000D02*
X114380000Y-132190000D01*
X115300000Y-131240000D02*
X115300000Y-132190000D01*
X57200000Y-137000000D02*
X57200000Y-136050000D01*
X56280000Y-136050000D02*
X58120000Y-136050000D01*
X58120000Y-136050000D02*
X58120000Y-132210000D01*
X56280000Y-132210000D02*
X56280000Y-136050000D01*
X58120000Y-132210000D02*
X56280000Y-132210000D01*
X57200000Y-131260000D02*
X57200000Y-132210000D01*
X106630000Y-126000000D02*
X106630000Y-126625000D01*
X106630000Y-126000000D02*
X110670000Y-126000000D01*
X106630000Y-128215000D02*
X106630000Y-128840000D01*
X106630000Y-128840000D02*
X110670000Y-128840000D01*
X110670000Y-126000000D02*
X110670000Y-126625000D01*
X110670000Y-128215000D02*
X110670000Y-128840000D01*
X76700000Y-136880000D02*
X76700000Y-135930000D01*
X75780000Y-135930000D02*
X77620000Y-135930000D01*
X77620000Y-135930000D02*
X77620000Y-132090000D01*
X75780000Y-132090000D02*
X75780000Y-135930000D01*
X77620000Y-132090000D02*
X75780000Y-132090000D01*
X76700000Y-131140000D02*
X76700000Y-132090000D01*
X110710000Y-118160000D02*
X90270000Y-118160000D01*
X90270000Y-118160000D02*
X90270000Y-123460000D01*
X110710000Y-119810000D02*
X110710000Y-118160000D01*
X110710000Y-123460000D02*
X110710000Y-121810000D01*
X90270000Y-123460000D02*
X110710000Y-123460000D01*
X110710000Y-119810000D02*
G75*
G03*
X110710000Y-121810000I0J-1000000D01*
G01*
X54800000Y-93010000D02*
X54800000Y-93960000D01*
X55720000Y-93960000D02*
X53880000Y-93960000D01*
X53880000Y-93960000D02*
X53880000Y-97800000D01*
X55720000Y-97800000D02*
X55720000Y-93960000D01*
X53880000Y-97800000D02*
X55720000Y-97800000D01*
X54800000Y-98750000D02*
X54800000Y-97800000D01*
X102510000Y-93020000D02*
X102510000Y-93970000D01*
X103430000Y-93970000D02*
X101590000Y-93970000D01*
X101590000Y-93970000D02*
X101590000Y-97810000D01*
X103430000Y-97810000D02*
X103430000Y-93970000D01*
X101590000Y-97810000D02*
X103430000Y-97810000D01*
X102510000Y-98760000D02*
X102510000Y-97810000D01*
X117810000Y-136980000D02*
X117810000Y-136030000D01*
X116890000Y-136030000D02*
X118730000Y-136030000D01*
X118730000Y-136030000D02*
X118730000Y-132190000D01*
X116890000Y-132190000D02*
X116890000Y-136030000D01*
X118730000Y-132190000D02*
X116890000Y-132190000D01*
X117810000Y-131240000D02*
X117810000Y-132190000D01*
%LPC*%
D14*
X135860000Y-117500000D03*
D15*
X138400000Y-117500000D03*
X135860000Y-120040000D03*
X138400000Y-120040000D03*
X135860000Y-122580000D03*
X138400000Y-122580000D03*
X135860000Y-125120000D03*
X138400000Y-125120000D03*
X135860000Y-127660000D03*
X138400000Y-127660000D03*
D14*
X41760000Y-117500000D03*
D15*
X44300000Y-117500000D03*
X41760000Y-120040000D03*
X44300000Y-120040000D03*
X41760000Y-122580000D03*
X44300000Y-122580000D03*
X41760000Y-125120000D03*
X44300000Y-125120000D03*
X41760000Y-127660000D03*
X44300000Y-127660000D03*
D16*
X43500000Y-93500000D03*
D17*
X99590000Y-137920000D03*
D18*
X99589999Y-130299999D03*
D17*
X54700000Y-137960000D03*
D18*
X54699999Y-130339999D03*
D16*
X136500000Y-136500000D03*
D19*
X95700000Y-108080000D03*
D15*
X95700000Y-105540000D03*
X98240000Y-108080000D03*
X98240000Y-105540000D03*
X100780000Y-108080000D03*
X100780000Y-105540000D03*
X103320000Y-108080000D03*
X103320000Y-105540000D03*
X105860000Y-108080000D03*
X105860000Y-105540000D03*
D17*
X59600000Y-137940000D03*
D18*
X59599999Y-130319999D03*
D20*
X86400000Y-127520000D03*
X88900000Y-127520000D03*
D17*
X102100000Y-137920000D03*
D18*
X102099999Y-130299999D03*
D17*
X97080000Y-137920000D03*
D18*
X97079999Y-130299999D03*
D17*
X62400000Y-92080000D03*
D18*
X62399999Y-99699999D03*
D17*
X74400000Y-137830000D03*
D18*
X74399999Y-130209999D03*
D20*
X65400000Y-127520000D03*
X67900000Y-127520000D03*
D17*
X120320000Y-137920000D03*
D18*
X120319999Y-130299999D03*
D17*
X119470000Y-92080000D03*
D18*
X119469999Y-99699999D03*
D21*
X130379999Y-117013199D03*
D22*
X127839999Y-117013199D03*
X125299999Y-117013199D03*
X122759999Y-117013199D03*
X120219999Y-117013199D03*
X117679999Y-117013199D03*
X115139999Y-117013199D03*
X112599999Y-117013199D03*
X112599999Y-124633199D03*
X115139999Y-124633199D03*
X117679999Y-124633199D03*
X120219999Y-124633199D03*
X122759999Y-124633199D03*
X125299999Y-124633199D03*
X127839999Y-124633199D03*
X130379999Y-124633199D03*
D21*
X94889999Y-94879999D03*
D22*
X97429999Y-94879999D03*
X99969999Y-94879999D03*
X102509999Y-94879999D03*
X105049999Y-94879999D03*
X107589999Y-94879999D03*
D17*
X83600000Y-137820000D03*
D18*
X83599999Y-130199999D03*
D17*
X79000000Y-137820000D03*
D18*
X78999999Y-130199999D03*
D17*
X105010000Y-92080000D03*
D18*
X105009999Y-99699999D03*
D17*
X94570000Y-137920000D03*
D18*
X94569999Y-130299999D03*
D17*
X75500000Y-92090000D03*
D18*
X75499999Y-99709999D03*
D17*
X57300000Y-92070000D03*
D18*
X57299999Y-99689999D03*
D16*
X136500000Y-93500000D03*
D19*
X52640000Y-108080000D03*
D15*
X52640000Y-105540000D03*
X55180000Y-108080000D03*
X55180000Y-105540000D03*
X57720000Y-108080000D03*
X57720000Y-105540000D03*
X60260000Y-108080000D03*
X60260000Y-105540000D03*
X62800000Y-108080000D03*
X62800000Y-105540000D03*
D17*
X81300000Y-137830000D03*
D18*
X81299999Y-130209999D03*
D17*
X83200000Y-92100000D03*
D18*
X83199999Y-99719999D03*
D21*
X72999999Y-94899999D03*
D22*
X75539999Y-94899999D03*
X78079999Y-94899999D03*
X80619999Y-94899999D03*
X83159999Y-94899999D03*
X85699999Y-94899999D03*
D17*
X80700000Y-92090000D03*
D18*
X80699999Y-99709999D03*
D21*
X88399999Y-116999999D03*
D22*
X85859999Y-116999999D03*
X83319999Y-116999999D03*
X80779999Y-116999999D03*
X78239999Y-116999999D03*
X75699999Y-116999999D03*
X73159999Y-116999999D03*
X70619999Y-116999999D03*
X70619999Y-124619999D03*
X73159999Y-124619999D03*
X75699999Y-124619999D03*
X78239999Y-124619999D03*
X80779999Y-124619999D03*
X83319999Y-124619999D03*
X85859999Y-124619999D03*
X88399999Y-124619999D03*
D21*
X67399999Y-116999999D03*
D22*
X64859999Y-116999999D03*
X62319999Y-116999999D03*
X59779999Y-116999999D03*
X57239999Y-116999999D03*
X54699999Y-116999999D03*
X52159999Y-116999999D03*
X49619999Y-116999999D03*
X49619999Y-124619999D03*
X52159999Y-124619999D03*
X54699999Y-124619999D03*
X57239999Y-124619999D03*
X59779999Y-124619999D03*
X62319999Y-124619999D03*
X64859999Y-124619999D03*
X67399999Y-124619999D03*
D20*
X128400000Y-127420000D03*
X130900000Y-127420000D03*
D21*
X70799999Y-127519999D03*
D22*
X73339999Y-127519999D03*
X75879999Y-127519999D03*
X78419999Y-127519999D03*
X80959999Y-127519999D03*
X83499999Y-127519999D03*
D21*
X52239999Y-94699999D03*
D22*
X54779999Y-94699999D03*
X57319999Y-94699999D03*
X59859999Y-94699999D03*
X62399999Y-94699999D03*
X64939999Y-94699999D03*
D17*
X97410000Y-91980000D03*
D18*
X97409999Y-99599999D03*
D22*
X129549999Y-94979999D03*
X127009999Y-94979999D03*
X124469999Y-94979999D03*
X121929999Y-94979999D03*
X119389999Y-94979999D03*
D21*
X116849999Y-94979999D03*
D16*
X43500000Y-136500000D03*
D19*
X74140000Y-108080000D03*
D15*
X74140000Y-105540000D03*
X76680000Y-108080000D03*
X76680000Y-105540000D03*
X79220000Y-108080000D03*
X79220000Y-105540000D03*
X81760000Y-108080000D03*
X81760000Y-105540000D03*
X84300000Y-108080000D03*
X84300000Y-105540000D03*
D17*
X52400000Y-137940000D03*
D18*
X52399999Y-130319999D03*
D17*
X59800000Y-92080000D03*
D18*
X59799999Y-99699999D03*
D17*
X121980000Y-92080000D03*
D18*
X121979999Y-99699999D03*
D17*
X122830000Y-137920000D03*
D18*
X122829999Y-130299999D03*
D21*
X91839999Y-127519999D03*
D22*
X94379999Y-127519999D03*
X96919999Y-127519999D03*
X99459999Y-127519999D03*
X101999999Y-127519999D03*
X104539999Y-127519999D03*
D19*
X117170000Y-108080000D03*
D15*
X117170000Y-105540000D03*
X119710000Y-108080000D03*
X119710000Y-105540000D03*
X122250000Y-108080000D03*
X122250000Y-105540000D03*
X124790000Y-108080000D03*
X124790000Y-105540000D03*
X127330000Y-108080000D03*
X127330000Y-105540000D03*
D17*
X124490000Y-92080000D03*
D18*
X124489999Y-99699999D03*
D17*
X127000000Y-92080000D03*
D18*
X126999999Y-99699999D03*
D17*
X125300000Y-137920000D03*
D18*
X125299999Y-130299999D03*
D17*
X78100000Y-92090000D03*
D18*
X78099999Y-99709999D03*
D17*
X104500000Y-137840000D03*
D18*
X104499999Y-130219999D03*
D21*
X49759999Y-127519999D03*
D22*
X52299999Y-127519999D03*
X54839999Y-127519999D03*
X57379999Y-127519999D03*
X59919999Y-127519999D03*
X62459999Y-127519999D03*
D21*
X112699999Y-127519999D03*
D22*
X115239999Y-127519999D03*
X117779999Y-127519999D03*
X120319999Y-127519999D03*
X122859999Y-127519999D03*
X125399999Y-127519999D03*
D17*
X62000000Y-137950000D03*
D18*
X61999999Y-130329999D03*
D17*
X99910000Y-92070000D03*
D18*
X99909999Y-99689999D03*
D17*
X115300000Y-137920000D03*
D18*
X115299999Y-130299999D03*
D17*
X57200000Y-137940000D03*
D18*
X57199999Y-130319999D03*
D20*
X107400000Y-127420000D03*
X109900000Y-127420000D03*
D17*
X76700000Y-137820000D03*
D18*
X76699999Y-130199999D03*
D21*
X109379999Y-116999999D03*
D22*
X106839999Y-116999999D03*
X104299999Y-116999999D03*
X101759999Y-116999999D03*
X99219999Y-116999999D03*
X96679999Y-116999999D03*
X94139999Y-116999999D03*
X91599999Y-116999999D03*
X91599999Y-124619999D03*
X94139999Y-124619999D03*
X96679999Y-124619999D03*
X99219999Y-124619999D03*
X101759999Y-124619999D03*
X104299999Y-124619999D03*
X106839999Y-124619999D03*
X109379999Y-124619999D03*
D17*
X54800000Y-92070000D03*
D18*
X54799999Y-99689999D03*
D17*
X102510000Y-92080000D03*
D18*
X102509999Y-99699999D03*
D17*
X117810000Y-137920000D03*
D18*
X117809999Y-130299999D03*
M02*
