M48
; DRILL file {KiCad (7.0.0)} date Sun Jun  4 12:20:09 2023
; FORMAT={-:-/ absolute / metric / decimal}
; #@! TF.CreationDate,2023-06-04T12:20:09+02:00
; #@! TF.GenerationSoftware,Kicad,Pcbnew,(7.0.0)
; #@! TF.FileFunction,Plated,1,2,PTH
FMAT,2
METRIC
; #@! TA.AperFunction,Plated,PTH,ViaDrill
T1C0.400
; #@! TA.AperFunction,Plated,PTH,ComponentDrill
T2C0.700
; #@! TA.AperFunction,Plated,PTH,ComponentDrill
T3C0.800
; #@! TA.AperFunction,Plated,PTH,ComponentDrill
T4C1.000
%
G90
G05
T1
X59.507Y-114.546
X59.975Y-118.837
X65.5Y-121.0
X86.5Y-121.0
X108.0Y-121.0
X123.502Y-121.747
X129.2Y-121.0
T2
X52.4Y-130.32
X52.4Y-137.94
X54.7Y-130.34
X54.7Y-137.96
X54.8Y-92.07
X54.8Y-99.69
X57.2Y-130.32
X57.2Y-137.94
X57.3Y-92.07
X57.3Y-99.69
X59.6Y-130.32
X59.6Y-137.94
X59.8Y-92.08
X59.8Y-99.7
X62.0Y-130.33
X62.0Y-137.95
X62.4Y-92.08
X62.4Y-99.7
X74.4Y-130.21
X74.4Y-137.83
X75.5Y-92.09
X75.5Y-99.71
X76.7Y-130.2
X76.7Y-137.82
X78.1Y-92.09
X78.1Y-99.71
X79.0Y-130.2
X79.0Y-137.82
X80.7Y-92.09
X80.7Y-99.71
X81.3Y-130.21
X81.3Y-137.83
X83.2Y-92.1
X83.2Y-99.72
X83.6Y-130.2
X83.6Y-137.82
X94.57Y-130.3
X94.57Y-137.92
X97.08Y-130.3
X97.08Y-137.92
X97.41Y-91.98
X97.41Y-99.6
X99.59Y-130.3
X99.59Y-137.92
X99.91Y-92.07
X99.91Y-99.69
X102.1Y-130.3
X102.1Y-137.92
X102.51Y-92.08
X102.51Y-99.7
X104.5Y-130.22
X104.5Y-137.84
X105.01Y-92.08
X105.01Y-99.7
X115.3Y-130.3
X115.3Y-137.92
X117.81Y-130.3
X117.81Y-137.92
X119.47Y-92.08
X119.47Y-99.7
X120.32Y-130.3
X120.32Y-137.92
X121.98Y-92.08
X121.98Y-99.7
X122.83Y-130.3
X122.83Y-137.92
X124.49Y-92.08
X124.49Y-99.7
X125.3Y-130.3
X125.3Y-137.92
X127.0Y-92.08
X127.0Y-99.7
T3
X49.62Y-117.0
X49.62Y-124.62
X49.76Y-127.52
X52.16Y-117.0
X52.16Y-124.62
X52.24Y-94.7
X52.3Y-127.52
X54.7Y-117.0
X54.7Y-124.62
X54.78Y-94.7
X54.84Y-127.52
X57.24Y-117.0
X57.24Y-124.62
X57.32Y-94.7
X57.38Y-127.52
X59.78Y-117.0
X59.78Y-124.62
X59.86Y-94.7
X59.92Y-127.52
X62.32Y-117.0
X62.32Y-124.62
X62.4Y-94.7
X62.46Y-127.52
X64.86Y-117.0
X64.86Y-124.62
X64.94Y-94.7
X65.4Y-127.52
X67.4Y-117.0
X67.4Y-124.62
X67.9Y-127.52
X70.62Y-117.0
X70.62Y-124.62
X70.8Y-127.52
X73.0Y-94.9
X73.16Y-117.0
X73.16Y-124.62
X73.34Y-127.52
X75.54Y-94.9
X75.7Y-117.0
X75.7Y-124.62
X75.88Y-127.52
X78.08Y-94.9
X78.24Y-117.0
X78.24Y-124.62
X78.42Y-127.52
X80.62Y-94.9
X80.78Y-117.0
X80.78Y-124.62
X80.96Y-127.52
X83.16Y-94.9
X83.32Y-117.0
X83.32Y-124.62
X83.5Y-127.52
X85.7Y-94.9
X85.86Y-117.0
X85.86Y-124.62
X86.4Y-127.52
X88.4Y-117.0
X88.4Y-124.62
X88.9Y-127.52
X91.6Y-117.0
X91.6Y-124.62
X91.84Y-127.52
X94.14Y-117.0
X94.14Y-124.62
X94.38Y-127.52
X94.89Y-94.88
X96.68Y-117.0
X96.68Y-124.62
X96.92Y-127.52
X97.43Y-94.88
X99.22Y-117.0
X99.22Y-124.62
X99.46Y-127.52
X99.97Y-94.88
X101.76Y-117.0
X101.76Y-124.62
X102.0Y-127.52
X102.51Y-94.88
X104.3Y-117.0
X104.3Y-124.62
X104.54Y-127.52
X105.05Y-94.88
X106.84Y-117.0
X106.84Y-124.62
X107.4Y-127.42
X107.59Y-94.88
X109.38Y-117.0
X109.38Y-124.62
X109.9Y-127.42
X112.6Y-117.013
X112.6Y-124.633
X112.7Y-127.52
X115.14Y-117.013
X115.14Y-124.633
X115.24Y-127.52
X116.85Y-94.98
X117.68Y-117.013
X117.68Y-124.633
X117.78Y-127.52
X119.39Y-94.98
X120.22Y-117.013
X120.22Y-124.633
X120.32Y-127.52
X121.93Y-94.98
X122.76Y-117.013
X122.76Y-124.633
X122.86Y-127.52
X124.47Y-94.98
X125.3Y-117.013
X125.3Y-124.633
X125.4Y-127.52
X127.01Y-94.98
X127.84Y-117.013
X127.84Y-124.633
X128.4Y-127.42
X129.55Y-94.98
X130.38Y-117.013
X130.38Y-124.633
X130.9Y-127.42
T4
X41.76Y-117.5
X41.76Y-120.04
X41.76Y-122.58
X41.76Y-125.12
X41.76Y-127.66
X44.3Y-117.5
X44.3Y-120.04
X44.3Y-122.58
X44.3Y-125.12
X44.3Y-127.66
X52.64Y-105.54
X52.64Y-108.08
X55.18Y-105.54
X55.18Y-108.08
X57.72Y-105.54
X57.72Y-108.08
X60.26Y-105.54
X60.26Y-108.08
X62.8Y-105.54
X62.8Y-108.08
X74.14Y-105.54
X74.14Y-108.08
X76.68Y-105.54
X76.68Y-108.08
X79.22Y-105.54
X79.22Y-108.08
X81.76Y-105.54
X81.76Y-108.08
X84.3Y-105.54
X84.3Y-108.08
X95.7Y-105.54
X95.7Y-108.08
X98.24Y-105.54
X98.24Y-108.08
X100.78Y-105.54
X100.78Y-108.08
X103.32Y-105.54
X103.32Y-108.08
X105.86Y-105.54
X105.86Y-108.08
X117.17Y-105.54
X117.17Y-108.08
X119.71Y-105.54
X119.71Y-108.08
X122.25Y-105.54
X122.25Y-108.08
X124.79Y-105.54
X124.79Y-108.08
X127.33Y-105.54
X127.33Y-108.08
X135.86Y-117.5
X135.86Y-120.04
X135.86Y-122.58
X135.86Y-125.12
X135.86Y-127.66
X138.4Y-117.5
X138.4Y-120.04
X138.4Y-122.58
X138.4Y-125.12
X138.4Y-127.66
T0
M30
