%TF.GenerationSoftware,KiCad,Pcbnew,(7.0.0)*%
%TF.CreationDate,2023-06-04T12:20:11+02:00*%
%TF.ProjectId,DIN4_R5_KS,44494e34-5f52-4355-9f4b-532e6b696361,rev?*%
%TF.SameCoordinates,Original*%
%TF.FileFunction,Drillmap*%
%TF.FilePolarity,Positive*%
%FSLAX45Y45*%
G04 Gerber Fmt 4.5, Leading zero omitted, Abs format (unit mm)*
G04 Created by KiCad (PCBNEW (7.0.0)) date 2023-06-04 12:20:11*
%MOMM*%
%LPD*%
G01*
G04 APERTURE LIST*
%ADD10C,0.100000*%
%ADD11C,0.200000*%
%ADD12C,0.320000*%
G04 APERTURE END LIST*
D10*
X14000000Y-14000000D02*
X4000000Y-14000000D01*
X4000000Y-9000000D01*
X14000000Y-9000000D01*
X14000000Y-14000000D01*
D11*
D12*
X4190000Y-9190000D02*
X4510000Y-9510000D01*
X4510000Y-9190000D02*
X4190000Y-9510000D01*
X4190000Y-13490000D02*
X4510000Y-13810000D01*
X4510000Y-13490000D02*
X4190000Y-13810000D01*
X13490000Y-9190000D02*
X13810000Y-9510000D01*
X13810000Y-9190000D02*
X13490000Y-9510000D01*
X13490000Y-13490000D02*
X13810000Y-13810000D01*
X13810000Y-13490000D02*
X13490000Y-13810000D01*
D11*
X4242619Y-14298476D02*
X4242619Y-14098476D01*
X4242619Y-14098476D02*
X4290238Y-14098476D01*
X4290238Y-14098476D02*
X4318810Y-14108000D01*
X4318810Y-14108000D02*
X4337857Y-14127048D01*
X4337857Y-14127048D02*
X4347381Y-14146095D01*
X4347381Y-14146095D02*
X4356905Y-14184190D01*
X4356905Y-14184190D02*
X4356905Y-14212762D01*
X4356905Y-14212762D02*
X4347381Y-14250857D01*
X4347381Y-14250857D02*
X4337857Y-14269905D01*
X4337857Y-14269905D02*
X4318810Y-14288952D01*
X4318810Y-14288952D02*
X4290238Y-14298476D01*
X4290238Y-14298476D02*
X4242619Y-14298476D01*
X4442619Y-14298476D02*
X4442619Y-14165143D01*
X4442619Y-14203238D02*
X4452143Y-14184190D01*
X4452143Y-14184190D02*
X4461667Y-14174667D01*
X4461667Y-14174667D02*
X4480714Y-14165143D01*
X4480714Y-14165143D02*
X4499762Y-14165143D01*
X4566429Y-14298476D02*
X4566429Y-14165143D01*
X4566429Y-14098476D02*
X4556905Y-14108000D01*
X4556905Y-14108000D02*
X4566429Y-14117524D01*
X4566429Y-14117524D02*
X4575952Y-14108000D01*
X4575952Y-14108000D02*
X4566429Y-14098476D01*
X4566429Y-14098476D02*
X4566429Y-14117524D01*
X4690238Y-14298476D02*
X4671190Y-14288952D01*
X4671190Y-14288952D02*
X4661667Y-14269905D01*
X4661667Y-14269905D02*
X4661667Y-14098476D01*
X4795000Y-14298476D02*
X4775952Y-14288952D01*
X4775952Y-14288952D02*
X4766429Y-14269905D01*
X4766429Y-14269905D02*
X4766429Y-14098476D01*
X4991190Y-14298476D02*
X4991190Y-14098476D01*
X4991190Y-14098476D02*
X5057857Y-14241333D01*
X5057857Y-14241333D02*
X5124524Y-14098476D01*
X5124524Y-14098476D02*
X5124524Y-14298476D01*
X5305476Y-14298476D02*
X5305476Y-14193714D01*
X5305476Y-14193714D02*
X5295952Y-14174667D01*
X5295952Y-14174667D02*
X5276905Y-14165143D01*
X5276905Y-14165143D02*
X5238809Y-14165143D01*
X5238809Y-14165143D02*
X5219762Y-14174667D01*
X5305476Y-14288952D02*
X5286429Y-14298476D01*
X5286429Y-14298476D02*
X5238809Y-14298476D01*
X5238809Y-14298476D02*
X5219762Y-14288952D01*
X5219762Y-14288952D02*
X5210238Y-14269905D01*
X5210238Y-14269905D02*
X5210238Y-14250857D01*
X5210238Y-14250857D02*
X5219762Y-14231809D01*
X5219762Y-14231809D02*
X5238809Y-14222286D01*
X5238809Y-14222286D02*
X5286429Y-14222286D01*
X5286429Y-14222286D02*
X5305476Y-14212762D01*
X5400714Y-14165143D02*
X5400714Y-14365143D01*
X5400714Y-14174667D02*
X5419762Y-14165143D01*
X5419762Y-14165143D02*
X5457857Y-14165143D01*
X5457857Y-14165143D02*
X5476905Y-14174667D01*
X5476905Y-14174667D02*
X5486429Y-14184190D01*
X5486429Y-14184190D02*
X5495952Y-14203238D01*
X5495952Y-14203238D02*
X5495952Y-14260381D01*
X5495952Y-14260381D02*
X5486429Y-14279428D01*
X5486429Y-14279428D02*
X5476905Y-14288952D01*
X5476905Y-14288952D02*
X5457857Y-14298476D01*
X5457857Y-14298476D02*
X5419762Y-14298476D01*
X5419762Y-14298476D02*
X5400714Y-14288952D01*
X5581667Y-14279428D02*
X5591190Y-14288952D01*
X5591190Y-14288952D02*
X5581667Y-14298476D01*
X5581667Y-14298476D02*
X5572143Y-14288952D01*
X5572143Y-14288952D02*
X5581667Y-14279428D01*
X5581667Y-14279428D02*
X5581667Y-14298476D01*
X5581667Y-14174667D02*
X5591190Y-14184190D01*
X5591190Y-14184190D02*
X5581667Y-14193714D01*
X5581667Y-14193714D02*
X5572143Y-14184190D01*
X5572143Y-14184190D02*
X5581667Y-14174667D01*
X5581667Y-14174667D02*
X5581667Y-14193714D01*
X3795000Y-14545000D02*
X3995000Y-14745000D01*
X3995000Y-14545000D02*
X3795000Y-14745000D01*
X4223571Y-14518476D02*
X4347381Y-14518476D01*
X4347381Y-14518476D02*
X4280714Y-14594667D01*
X4280714Y-14594667D02*
X4309286Y-14594667D01*
X4309286Y-14594667D02*
X4328333Y-14604190D01*
X4328333Y-14604190D02*
X4337857Y-14613714D01*
X4337857Y-14613714D02*
X4347381Y-14632762D01*
X4347381Y-14632762D02*
X4347381Y-14680381D01*
X4347381Y-14680381D02*
X4337857Y-14699428D01*
X4337857Y-14699428D02*
X4328333Y-14708952D01*
X4328333Y-14708952D02*
X4309286Y-14718476D01*
X4309286Y-14718476D02*
X4252143Y-14718476D01*
X4252143Y-14718476D02*
X4233095Y-14708952D01*
X4233095Y-14708952D02*
X4223571Y-14699428D01*
X4433095Y-14699428D02*
X4442619Y-14708952D01*
X4442619Y-14708952D02*
X4433095Y-14718476D01*
X4433095Y-14718476D02*
X4423571Y-14708952D01*
X4423571Y-14708952D02*
X4433095Y-14699428D01*
X4433095Y-14699428D02*
X4433095Y-14718476D01*
X4518810Y-14537524D02*
X4528333Y-14528000D01*
X4528333Y-14528000D02*
X4547381Y-14518476D01*
X4547381Y-14518476D02*
X4595000Y-14518476D01*
X4595000Y-14518476D02*
X4614048Y-14528000D01*
X4614048Y-14528000D02*
X4623571Y-14537524D01*
X4623571Y-14537524D02*
X4633095Y-14556571D01*
X4633095Y-14556571D02*
X4633095Y-14575619D01*
X4633095Y-14575619D02*
X4623571Y-14604190D01*
X4623571Y-14604190D02*
X4509286Y-14718476D01*
X4509286Y-14718476D02*
X4633095Y-14718476D01*
X4756905Y-14518476D02*
X4775952Y-14518476D01*
X4775952Y-14518476D02*
X4795000Y-14528000D01*
X4795000Y-14528000D02*
X4804524Y-14537524D01*
X4804524Y-14537524D02*
X4814048Y-14556571D01*
X4814048Y-14556571D02*
X4823571Y-14594667D01*
X4823571Y-14594667D02*
X4823571Y-14642286D01*
X4823571Y-14642286D02*
X4814048Y-14680381D01*
X4814048Y-14680381D02*
X4804524Y-14699428D01*
X4804524Y-14699428D02*
X4795000Y-14708952D01*
X4795000Y-14708952D02*
X4775952Y-14718476D01*
X4775952Y-14718476D02*
X4756905Y-14718476D01*
X4756905Y-14718476D02*
X4737857Y-14708952D01*
X4737857Y-14708952D02*
X4728333Y-14699428D01*
X4728333Y-14699428D02*
X4718810Y-14680381D01*
X4718810Y-14680381D02*
X4709286Y-14642286D01*
X4709286Y-14642286D02*
X4709286Y-14594667D01*
X4709286Y-14594667D02*
X4718810Y-14556571D01*
X4718810Y-14556571D02*
X4728333Y-14537524D01*
X4728333Y-14537524D02*
X4737857Y-14528000D01*
X4737857Y-14528000D02*
X4756905Y-14518476D01*
X4947381Y-14518476D02*
X4966429Y-14518476D01*
X4966429Y-14518476D02*
X4985476Y-14528000D01*
X4985476Y-14528000D02*
X4995000Y-14537524D01*
X4995000Y-14537524D02*
X5004524Y-14556571D01*
X5004524Y-14556571D02*
X5014048Y-14594667D01*
X5014048Y-14594667D02*
X5014048Y-14642286D01*
X5014048Y-14642286D02*
X5004524Y-14680381D01*
X5004524Y-14680381D02*
X4995000Y-14699428D01*
X4995000Y-14699428D02*
X4985476Y-14708952D01*
X4985476Y-14708952D02*
X4966429Y-14718476D01*
X4966429Y-14718476D02*
X4947381Y-14718476D01*
X4947381Y-14718476D02*
X4928333Y-14708952D01*
X4928333Y-14708952D02*
X4918810Y-14699428D01*
X4918810Y-14699428D02*
X4909286Y-14680381D01*
X4909286Y-14680381D02*
X4899762Y-14642286D01*
X4899762Y-14642286D02*
X4899762Y-14594667D01*
X4899762Y-14594667D02*
X4909286Y-14556571D01*
X4909286Y-14556571D02*
X4918810Y-14537524D01*
X4918810Y-14537524D02*
X4928333Y-14528000D01*
X4928333Y-14528000D02*
X4947381Y-14518476D01*
X5099762Y-14718476D02*
X5099762Y-14585143D01*
X5099762Y-14604190D02*
X5109286Y-14594667D01*
X5109286Y-14594667D02*
X5128333Y-14585143D01*
X5128333Y-14585143D02*
X5156905Y-14585143D01*
X5156905Y-14585143D02*
X5175952Y-14594667D01*
X5175952Y-14594667D02*
X5185476Y-14613714D01*
X5185476Y-14613714D02*
X5185476Y-14718476D01*
X5185476Y-14613714D02*
X5195000Y-14594667D01*
X5195000Y-14594667D02*
X5214048Y-14585143D01*
X5214048Y-14585143D02*
X5242619Y-14585143D01*
X5242619Y-14585143D02*
X5261667Y-14594667D01*
X5261667Y-14594667D02*
X5271191Y-14613714D01*
X5271191Y-14613714D02*
X5271191Y-14718476D01*
X5366429Y-14718476D02*
X5366429Y-14585143D01*
X5366429Y-14604190D02*
X5375952Y-14594667D01*
X5375952Y-14594667D02*
X5395000Y-14585143D01*
X5395000Y-14585143D02*
X5423572Y-14585143D01*
X5423572Y-14585143D02*
X5442619Y-14594667D01*
X5442619Y-14594667D02*
X5452143Y-14613714D01*
X5452143Y-14613714D02*
X5452143Y-14718476D01*
X5452143Y-14613714D02*
X5461667Y-14594667D01*
X5461667Y-14594667D02*
X5480714Y-14585143D01*
X5480714Y-14585143D02*
X5509286Y-14585143D01*
X5509286Y-14585143D02*
X5528333Y-14594667D01*
X5528333Y-14594667D02*
X5537857Y-14613714D01*
X5537857Y-14613714D02*
X5537857Y-14718476D01*
X5895952Y-14508952D02*
X5724524Y-14766095D01*
X6120714Y-14518476D02*
X6139762Y-14518476D01*
X6139762Y-14518476D02*
X6158810Y-14528000D01*
X6158810Y-14528000D02*
X6168333Y-14537524D01*
X6168333Y-14537524D02*
X6177857Y-14556571D01*
X6177857Y-14556571D02*
X6187381Y-14594667D01*
X6187381Y-14594667D02*
X6187381Y-14642286D01*
X6187381Y-14642286D02*
X6177857Y-14680381D01*
X6177857Y-14680381D02*
X6168333Y-14699428D01*
X6168333Y-14699428D02*
X6158810Y-14708952D01*
X6158810Y-14708952D02*
X6139762Y-14718476D01*
X6139762Y-14718476D02*
X6120714Y-14718476D01*
X6120714Y-14718476D02*
X6101667Y-14708952D01*
X6101667Y-14708952D02*
X6092143Y-14699428D01*
X6092143Y-14699428D02*
X6082619Y-14680381D01*
X6082619Y-14680381D02*
X6073095Y-14642286D01*
X6073095Y-14642286D02*
X6073095Y-14594667D01*
X6073095Y-14594667D02*
X6082619Y-14556571D01*
X6082619Y-14556571D02*
X6092143Y-14537524D01*
X6092143Y-14537524D02*
X6101667Y-14528000D01*
X6101667Y-14528000D02*
X6120714Y-14518476D01*
X6273095Y-14699428D02*
X6282619Y-14708952D01*
X6282619Y-14708952D02*
X6273095Y-14718476D01*
X6273095Y-14718476D02*
X6263571Y-14708952D01*
X6263571Y-14708952D02*
X6273095Y-14699428D01*
X6273095Y-14699428D02*
X6273095Y-14718476D01*
X6473095Y-14718476D02*
X6358810Y-14718476D01*
X6415952Y-14718476D02*
X6415952Y-14518476D01*
X6415952Y-14518476D02*
X6396905Y-14547048D01*
X6396905Y-14547048D02*
X6377857Y-14566095D01*
X6377857Y-14566095D02*
X6358810Y-14575619D01*
X6549286Y-14537524D02*
X6558810Y-14528000D01*
X6558810Y-14528000D02*
X6577857Y-14518476D01*
X6577857Y-14518476D02*
X6625476Y-14518476D01*
X6625476Y-14518476D02*
X6644524Y-14528000D01*
X6644524Y-14528000D02*
X6654048Y-14537524D01*
X6654048Y-14537524D02*
X6663571Y-14556571D01*
X6663571Y-14556571D02*
X6663571Y-14575619D01*
X6663571Y-14575619D02*
X6654048Y-14604190D01*
X6654048Y-14604190D02*
X6539762Y-14718476D01*
X6539762Y-14718476D02*
X6663571Y-14718476D01*
X6835000Y-14518476D02*
X6796905Y-14518476D01*
X6796905Y-14518476D02*
X6777857Y-14528000D01*
X6777857Y-14528000D02*
X6768333Y-14537524D01*
X6768333Y-14537524D02*
X6749286Y-14566095D01*
X6749286Y-14566095D02*
X6739762Y-14604190D01*
X6739762Y-14604190D02*
X6739762Y-14680381D01*
X6739762Y-14680381D02*
X6749286Y-14699428D01*
X6749286Y-14699428D02*
X6758810Y-14708952D01*
X6758810Y-14708952D02*
X6777857Y-14718476D01*
X6777857Y-14718476D02*
X6815952Y-14718476D01*
X6815952Y-14718476D02*
X6835000Y-14708952D01*
X6835000Y-14708952D02*
X6844524Y-14699428D01*
X6844524Y-14699428D02*
X6854048Y-14680381D01*
X6854048Y-14680381D02*
X6854048Y-14632762D01*
X6854048Y-14632762D02*
X6844524Y-14613714D01*
X6844524Y-14613714D02*
X6835000Y-14604190D01*
X6835000Y-14604190D02*
X6815952Y-14594667D01*
X6815952Y-14594667D02*
X6777857Y-14594667D01*
X6777857Y-14594667D02*
X6758810Y-14604190D01*
X6758810Y-14604190D02*
X6749286Y-14613714D01*
X6749286Y-14613714D02*
X6739762Y-14632762D01*
X6977857Y-14518476D02*
X6996905Y-14518476D01*
X6996905Y-14518476D02*
X7015952Y-14528000D01*
X7015952Y-14528000D02*
X7025476Y-14537524D01*
X7025476Y-14537524D02*
X7035000Y-14556571D01*
X7035000Y-14556571D02*
X7044524Y-14594667D01*
X7044524Y-14594667D02*
X7044524Y-14642286D01*
X7044524Y-14642286D02*
X7035000Y-14680381D01*
X7035000Y-14680381D02*
X7025476Y-14699428D01*
X7025476Y-14699428D02*
X7015952Y-14708952D01*
X7015952Y-14708952D02*
X6996905Y-14718476D01*
X6996905Y-14718476D02*
X6977857Y-14718476D01*
X6977857Y-14718476D02*
X6958810Y-14708952D01*
X6958810Y-14708952D02*
X6949286Y-14699428D01*
X6949286Y-14699428D02*
X6939762Y-14680381D01*
X6939762Y-14680381D02*
X6930238Y-14642286D01*
X6930238Y-14642286D02*
X6930238Y-14594667D01*
X6930238Y-14594667D02*
X6939762Y-14556571D01*
X6939762Y-14556571D02*
X6949286Y-14537524D01*
X6949286Y-14537524D02*
X6958810Y-14528000D01*
X6958810Y-14528000D02*
X6977857Y-14518476D01*
X7120714Y-14518476D02*
X7120714Y-14556571D01*
X7196905Y-14518476D02*
X7196905Y-14556571D01*
X7459762Y-14794667D02*
X7450238Y-14785143D01*
X7450238Y-14785143D02*
X7431191Y-14756571D01*
X7431191Y-14756571D02*
X7421667Y-14737524D01*
X7421667Y-14737524D02*
X7412143Y-14708952D01*
X7412143Y-14708952D02*
X7402619Y-14661333D01*
X7402619Y-14661333D02*
X7402619Y-14623238D01*
X7402619Y-14623238D02*
X7412143Y-14575619D01*
X7412143Y-14575619D02*
X7421667Y-14547048D01*
X7421667Y-14547048D02*
X7431191Y-14528000D01*
X7431191Y-14528000D02*
X7450238Y-14499428D01*
X7450238Y-14499428D02*
X7459762Y-14489905D01*
X7621667Y-14585143D02*
X7621667Y-14718476D01*
X7574048Y-14508952D02*
X7526429Y-14651809D01*
X7526429Y-14651809D02*
X7650238Y-14651809D01*
X7846429Y-14718476D02*
X7846429Y-14518476D01*
X7932143Y-14718476D02*
X7932143Y-14613714D01*
X7932143Y-14613714D02*
X7922619Y-14594667D01*
X7922619Y-14594667D02*
X7903572Y-14585143D01*
X7903572Y-14585143D02*
X7875000Y-14585143D01*
X7875000Y-14585143D02*
X7855952Y-14594667D01*
X7855952Y-14594667D02*
X7846429Y-14604190D01*
X8055952Y-14718476D02*
X8036905Y-14708952D01*
X8036905Y-14708952D02*
X8027381Y-14699428D01*
X8027381Y-14699428D02*
X8017857Y-14680381D01*
X8017857Y-14680381D02*
X8017857Y-14623238D01*
X8017857Y-14623238D02*
X8027381Y-14604190D01*
X8027381Y-14604190D02*
X8036905Y-14594667D01*
X8036905Y-14594667D02*
X8055952Y-14585143D01*
X8055952Y-14585143D02*
X8084524Y-14585143D01*
X8084524Y-14585143D02*
X8103572Y-14594667D01*
X8103572Y-14594667D02*
X8113095Y-14604190D01*
X8113095Y-14604190D02*
X8122619Y-14623238D01*
X8122619Y-14623238D02*
X8122619Y-14680381D01*
X8122619Y-14680381D02*
X8113095Y-14699428D01*
X8113095Y-14699428D02*
X8103572Y-14708952D01*
X8103572Y-14708952D02*
X8084524Y-14718476D01*
X8084524Y-14718476D02*
X8055952Y-14718476D01*
X8236905Y-14718476D02*
X8217857Y-14708952D01*
X8217857Y-14708952D02*
X8208333Y-14689905D01*
X8208333Y-14689905D02*
X8208333Y-14518476D01*
X8389286Y-14708952D02*
X8370238Y-14718476D01*
X8370238Y-14718476D02*
X8332143Y-14718476D01*
X8332143Y-14718476D02*
X8313095Y-14708952D01*
X8313095Y-14708952D02*
X8303572Y-14689905D01*
X8303572Y-14689905D02*
X8303572Y-14613714D01*
X8303572Y-14613714D02*
X8313095Y-14594667D01*
X8313095Y-14594667D02*
X8332143Y-14585143D01*
X8332143Y-14585143D02*
X8370238Y-14585143D01*
X8370238Y-14585143D02*
X8389286Y-14594667D01*
X8389286Y-14594667D02*
X8398810Y-14613714D01*
X8398810Y-14613714D02*
X8398810Y-14632762D01*
X8398810Y-14632762D02*
X8303572Y-14651809D01*
X8475000Y-14708952D02*
X8494048Y-14718476D01*
X8494048Y-14718476D02*
X8532143Y-14718476D01*
X8532143Y-14718476D02*
X8551191Y-14708952D01*
X8551191Y-14708952D02*
X8560715Y-14689905D01*
X8560715Y-14689905D02*
X8560715Y-14680381D01*
X8560715Y-14680381D02*
X8551191Y-14661333D01*
X8551191Y-14661333D02*
X8532143Y-14651809D01*
X8532143Y-14651809D02*
X8503572Y-14651809D01*
X8503572Y-14651809D02*
X8484524Y-14642286D01*
X8484524Y-14642286D02*
X8475000Y-14623238D01*
X8475000Y-14623238D02*
X8475000Y-14613714D01*
X8475000Y-14613714D02*
X8484524Y-14594667D01*
X8484524Y-14594667D02*
X8503572Y-14585143D01*
X8503572Y-14585143D02*
X8532143Y-14585143D01*
X8532143Y-14585143D02*
X8551191Y-14594667D01*
X8627381Y-14794667D02*
X8636905Y-14785143D01*
X8636905Y-14785143D02*
X8655953Y-14756571D01*
X8655953Y-14756571D02*
X8665476Y-14737524D01*
X8665476Y-14737524D02*
X8675000Y-14708952D01*
X8675000Y-14708952D02*
X8684524Y-14661333D01*
X8684524Y-14661333D02*
X8684524Y-14623238D01*
X8684524Y-14623238D02*
X8675000Y-14575619D01*
X8675000Y-14575619D02*
X8665476Y-14547048D01*
X8665476Y-14547048D02*
X8655953Y-14528000D01*
X8655953Y-14528000D02*
X8636905Y-14499428D01*
X8636905Y-14499428D02*
X8627381Y-14489905D01*
X8956905Y-14794667D02*
X8947381Y-14785143D01*
X8947381Y-14785143D02*
X8928334Y-14756571D01*
X8928334Y-14756571D02*
X8918810Y-14737524D01*
X8918810Y-14737524D02*
X8909286Y-14708952D01*
X8909286Y-14708952D02*
X8899762Y-14661333D01*
X8899762Y-14661333D02*
X8899762Y-14623238D01*
X8899762Y-14623238D02*
X8909286Y-14575619D01*
X8909286Y-14575619D02*
X8918810Y-14547048D01*
X8918810Y-14547048D02*
X8928334Y-14528000D01*
X8928334Y-14528000D02*
X8947381Y-14499428D01*
X8947381Y-14499428D02*
X8956905Y-14489905D01*
X9033095Y-14585143D02*
X9033095Y-14718476D01*
X9033095Y-14604190D02*
X9042619Y-14594667D01*
X9042619Y-14594667D02*
X9061667Y-14585143D01*
X9061667Y-14585143D02*
X9090238Y-14585143D01*
X9090238Y-14585143D02*
X9109286Y-14594667D01*
X9109286Y-14594667D02*
X9118810Y-14613714D01*
X9118810Y-14613714D02*
X9118810Y-14718476D01*
X9242619Y-14718476D02*
X9223572Y-14708952D01*
X9223572Y-14708952D02*
X9214048Y-14699428D01*
X9214048Y-14699428D02*
X9204524Y-14680381D01*
X9204524Y-14680381D02*
X9204524Y-14623238D01*
X9204524Y-14623238D02*
X9214048Y-14604190D01*
X9214048Y-14604190D02*
X9223572Y-14594667D01*
X9223572Y-14594667D02*
X9242619Y-14585143D01*
X9242619Y-14585143D02*
X9271191Y-14585143D01*
X9271191Y-14585143D02*
X9290238Y-14594667D01*
X9290238Y-14594667D02*
X9299762Y-14604190D01*
X9299762Y-14604190D02*
X9309286Y-14623238D01*
X9309286Y-14623238D02*
X9309286Y-14680381D01*
X9309286Y-14680381D02*
X9299762Y-14699428D01*
X9299762Y-14699428D02*
X9290238Y-14708952D01*
X9290238Y-14708952D02*
X9271191Y-14718476D01*
X9271191Y-14718476D02*
X9242619Y-14718476D01*
X9366429Y-14585143D02*
X9442619Y-14585143D01*
X9395000Y-14518476D02*
X9395000Y-14689905D01*
X9395000Y-14689905D02*
X9404524Y-14708952D01*
X9404524Y-14708952D02*
X9423572Y-14718476D01*
X9423572Y-14718476D02*
X9442619Y-14718476D01*
X9629286Y-14585143D02*
X9629286Y-14785143D01*
X9629286Y-14594667D02*
X9648334Y-14585143D01*
X9648334Y-14585143D02*
X9686429Y-14585143D01*
X9686429Y-14585143D02*
X9705476Y-14594667D01*
X9705476Y-14594667D02*
X9715000Y-14604190D01*
X9715000Y-14604190D02*
X9724524Y-14623238D01*
X9724524Y-14623238D02*
X9724524Y-14680381D01*
X9724524Y-14680381D02*
X9715000Y-14699428D01*
X9715000Y-14699428D02*
X9705476Y-14708952D01*
X9705476Y-14708952D02*
X9686429Y-14718476D01*
X9686429Y-14718476D02*
X9648334Y-14718476D01*
X9648334Y-14718476D02*
X9629286Y-14708952D01*
X9838810Y-14718476D02*
X9819762Y-14708952D01*
X9819762Y-14708952D02*
X9810238Y-14689905D01*
X9810238Y-14689905D02*
X9810238Y-14518476D01*
X10000715Y-14718476D02*
X10000715Y-14613714D01*
X10000715Y-14613714D02*
X9991191Y-14594667D01*
X9991191Y-14594667D02*
X9972143Y-14585143D01*
X9972143Y-14585143D02*
X9934048Y-14585143D01*
X9934048Y-14585143D02*
X9915000Y-14594667D01*
X10000715Y-14708952D02*
X9981667Y-14718476D01*
X9981667Y-14718476D02*
X9934048Y-14718476D01*
X9934048Y-14718476D02*
X9915000Y-14708952D01*
X9915000Y-14708952D02*
X9905476Y-14689905D01*
X9905476Y-14689905D02*
X9905476Y-14670857D01*
X9905476Y-14670857D02*
X9915000Y-14651809D01*
X9915000Y-14651809D02*
X9934048Y-14642286D01*
X9934048Y-14642286D02*
X9981667Y-14642286D01*
X9981667Y-14642286D02*
X10000715Y-14632762D01*
X10067381Y-14585143D02*
X10143572Y-14585143D01*
X10095953Y-14518476D02*
X10095953Y-14689905D01*
X10095953Y-14689905D02*
X10105476Y-14708952D01*
X10105476Y-14708952D02*
X10124524Y-14718476D01*
X10124524Y-14718476D02*
X10143572Y-14718476D01*
X10286429Y-14708952D02*
X10267381Y-14718476D01*
X10267381Y-14718476D02*
X10229286Y-14718476D01*
X10229286Y-14718476D02*
X10210238Y-14708952D01*
X10210238Y-14708952D02*
X10200715Y-14689905D01*
X10200715Y-14689905D02*
X10200715Y-14613714D01*
X10200715Y-14613714D02*
X10210238Y-14594667D01*
X10210238Y-14594667D02*
X10229286Y-14585143D01*
X10229286Y-14585143D02*
X10267381Y-14585143D01*
X10267381Y-14585143D02*
X10286429Y-14594667D01*
X10286429Y-14594667D02*
X10295953Y-14613714D01*
X10295953Y-14613714D02*
X10295953Y-14632762D01*
X10295953Y-14632762D02*
X10200715Y-14651809D01*
X10467381Y-14718476D02*
X10467381Y-14518476D01*
X10467381Y-14708952D02*
X10448334Y-14718476D01*
X10448334Y-14718476D02*
X10410238Y-14718476D01*
X10410238Y-14718476D02*
X10391191Y-14708952D01*
X10391191Y-14708952D02*
X10381667Y-14699428D01*
X10381667Y-14699428D02*
X10372143Y-14680381D01*
X10372143Y-14680381D02*
X10372143Y-14623238D01*
X10372143Y-14623238D02*
X10381667Y-14604190D01*
X10381667Y-14604190D02*
X10391191Y-14594667D01*
X10391191Y-14594667D02*
X10410238Y-14585143D01*
X10410238Y-14585143D02*
X10448334Y-14585143D01*
X10448334Y-14585143D02*
X10467381Y-14594667D01*
X10543572Y-14794667D02*
X10553096Y-14785143D01*
X10553096Y-14785143D02*
X10572143Y-14756571D01*
X10572143Y-14756571D02*
X10581667Y-14737524D01*
X10581667Y-14737524D02*
X10591191Y-14708952D01*
X10591191Y-14708952D02*
X10600715Y-14661333D01*
X10600715Y-14661333D02*
X10600715Y-14623238D01*
X10600715Y-14623238D02*
X10591191Y-14575619D01*
X10591191Y-14575619D02*
X10581667Y-14547048D01*
X10581667Y-14547048D02*
X10572143Y-14528000D01*
X10572143Y-14528000D02*
X10553096Y-14499428D01*
X10553096Y-14499428D02*
X10543572Y-14489905D01*
M02*
