G04 #@! TF.GenerationSoftware,KiCad,Pcbnew,(7.0.0)*
G04 #@! TF.CreationDate,2023-06-04T12:20:01+02:00*
G04 #@! TF.ProjectId,DIN4_R5_KS,44494e34-5f52-4355-9f4b-532e6b696361,rev?*
G04 #@! TF.SameCoordinates,Original*
G04 #@! TF.FileFunction,Copper,L2,Bot*
G04 #@! TF.FilePolarity,Positive*
%FSLAX46Y46*%
G04 Gerber Fmt 4.6, Leading zero omitted, Abs format (unit mm)*
G04 Created by KiCad (PCBNEW (7.0.0)) date 2023-06-04 12:20:01*
%MOMM*%
%LPD*%
G01*
G04 APERTURE LIST*
G04 Aperture macros list*
%AMRoundRect*
0 Rectangle with rounded corners*
0 $1 Rounding radius*
0 $2 $3 $4 $5 $6 $7 $8 $9 X,Y pos of 4 corners*
0 Add a 4 corners polygon primitive as box body*
4,1,4,$2,$3,$4,$5,$6,$7,$8,$9,$2,$3,0*
0 Add four circle primitives for the rounded corners*
1,1,$1+$1,$2,$3*
1,1,$1+$1,$4,$5*
1,1,$1+$1,$6,$7*
1,1,$1+$1,$8,$9*
0 Add four rect primitives between the rounded corners*
20,1,$1+$1,$2,$3,$4,$5,0*
20,1,$1+$1,$4,$5,$6,$7,0*
20,1,$1+$1,$6,$7,$8,$9,0*
20,1,$1+$1,$8,$9,$2,$3,0*%
G04 Aperture macros list end*
G04 #@! TA.AperFunction,ComponentPad*
%ADD10RoundRect,0.250000X-0.600000X-0.600000X0.600000X-0.600000X0.600000X0.600000X-0.600000X0.600000X0*%
G04 #@! TD*
G04 #@! TA.AperFunction,ComponentPad*
%ADD11C,1.700000*%
G04 #@! TD*
G04 #@! TA.AperFunction,ComponentPad*
%ADD12C,1.400000*%
G04 #@! TD*
G04 #@! TA.AperFunction,ComponentPad*
%ADD13O,1.400000X1.400000*%
G04 #@! TD*
G04 #@! TA.AperFunction,ComponentPad*
%ADD14RoundRect,0.250000X0.600000X-0.600000X0.600000X0.600000X-0.600000X0.600000X-0.600000X-0.600000X0*%
G04 #@! TD*
G04 #@! TA.AperFunction,ComponentPad*
%ADD15C,1.600000*%
G04 #@! TD*
G04 #@! TA.AperFunction,ComponentPad*
%ADD16R,1.600000X1.600000*%
G04 #@! TD*
G04 #@! TA.AperFunction,ComponentPad*
%ADD17O,1.600000X1.600000*%
G04 #@! TD*
G04 #@! TA.AperFunction,ViaPad*
%ADD18C,0.800000*%
G04 #@! TD*
G04 #@! TA.AperFunction,Conductor*
%ADD19C,0.250000*%
G04 #@! TD*
G04 #@! TA.AperFunction,Conductor*
%ADD20C,0.400000*%
G04 #@! TD*
G04 APERTURE END LIST*
D10*
X135860000Y-117500000D03*
D11*
X138400000Y-117500000D03*
X135860000Y-120040000D03*
X138400000Y-120040000D03*
X135860000Y-122580000D03*
X138400000Y-122580000D03*
X135860000Y-125120000D03*
X138400000Y-125120000D03*
X135860000Y-127660000D03*
X138400000Y-127660000D03*
D10*
X41760000Y-117500000D03*
D11*
X44300000Y-117500000D03*
X41760000Y-120040000D03*
X44300000Y-120040000D03*
X41760000Y-122580000D03*
X44300000Y-122580000D03*
X41760000Y-125120000D03*
X44300000Y-125120000D03*
X41760000Y-127660000D03*
X44300000Y-127660000D03*
D12*
X99590000Y-137920000D03*
D13*
X99589999Y-130299999D03*
D12*
X54700000Y-137960000D03*
D13*
X54699999Y-130339999D03*
D14*
X95700000Y-108080000D03*
D11*
X95700000Y-105540000D03*
X98240000Y-108080000D03*
X98240000Y-105540000D03*
X100780000Y-108080000D03*
X100780000Y-105540000D03*
X103320000Y-108080000D03*
X103320000Y-105540000D03*
X105860000Y-108080000D03*
X105860000Y-105540000D03*
D12*
X59600000Y-137940000D03*
D13*
X59599999Y-130319999D03*
D15*
X86400000Y-127520000D03*
X88900000Y-127520000D03*
D12*
X102100000Y-137920000D03*
D13*
X102099999Y-130299999D03*
D12*
X97080000Y-137920000D03*
D13*
X97079999Y-130299999D03*
D12*
X62400000Y-92080000D03*
D13*
X62399999Y-99699999D03*
D12*
X74400000Y-137830000D03*
D13*
X74399999Y-130209999D03*
D15*
X65400000Y-127520000D03*
X67900000Y-127520000D03*
D12*
X120320000Y-137920000D03*
D13*
X120319999Y-130299999D03*
D12*
X119470000Y-92080000D03*
D13*
X119469999Y-99699999D03*
D16*
X130379999Y-117013199D03*
D17*
X127839999Y-117013199D03*
X125299999Y-117013199D03*
X122759999Y-117013199D03*
X120219999Y-117013199D03*
X117679999Y-117013199D03*
X115139999Y-117013199D03*
X112599999Y-117013199D03*
X112599999Y-124633199D03*
X115139999Y-124633199D03*
X117679999Y-124633199D03*
X120219999Y-124633199D03*
X122759999Y-124633199D03*
X125299999Y-124633199D03*
X127839999Y-124633199D03*
X130379999Y-124633199D03*
D16*
X94889999Y-94879999D03*
D17*
X97429999Y-94879999D03*
X99969999Y-94879999D03*
X102509999Y-94879999D03*
X105049999Y-94879999D03*
X107589999Y-94879999D03*
D12*
X83600000Y-137820000D03*
D13*
X83599999Y-130199999D03*
D12*
X79000000Y-137820000D03*
D13*
X78999999Y-130199999D03*
D12*
X105010000Y-92080000D03*
D13*
X105009999Y-99699999D03*
D12*
X94570000Y-137920000D03*
D13*
X94569999Y-130299999D03*
D12*
X75500000Y-92090000D03*
D13*
X75499999Y-99709999D03*
D12*
X57300000Y-92070000D03*
D13*
X57299999Y-99689999D03*
D14*
X52640000Y-108080000D03*
D11*
X52640000Y-105540000D03*
X55180000Y-108080000D03*
X55180000Y-105540000D03*
X57720000Y-108080000D03*
X57720000Y-105540000D03*
X60260000Y-108080000D03*
X60260000Y-105540000D03*
X62800000Y-108080000D03*
X62800000Y-105540000D03*
D12*
X81300000Y-137830000D03*
D13*
X81299999Y-130209999D03*
D12*
X83200000Y-92100000D03*
D13*
X83199999Y-99719999D03*
D16*
X72999999Y-94899999D03*
D17*
X75539999Y-94899999D03*
X78079999Y-94899999D03*
X80619999Y-94899999D03*
X83159999Y-94899999D03*
X85699999Y-94899999D03*
D12*
X80700000Y-92090000D03*
D13*
X80699999Y-99709999D03*
D16*
X88399999Y-116999999D03*
D17*
X85859999Y-116999999D03*
X83319999Y-116999999D03*
X80779999Y-116999999D03*
X78239999Y-116999999D03*
X75699999Y-116999999D03*
X73159999Y-116999999D03*
X70619999Y-116999999D03*
X70619999Y-124619999D03*
X73159999Y-124619999D03*
X75699999Y-124619999D03*
X78239999Y-124619999D03*
X80779999Y-124619999D03*
X83319999Y-124619999D03*
X85859999Y-124619999D03*
X88399999Y-124619999D03*
D16*
X67399999Y-116999999D03*
D17*
X64859999Y-116999999D03*
X62319999Y-116999999D03*
X59779999Y-116999999D03*
X57239999Y-116999999D03*
X54699999Y-116999999D03*
X52159999Y-116999999D03*
X49619999Y-116999999D03*
X49619999Y-124619999D03*
X52159999Y-124619999D03*
X54699999Y-124619999D03*
X57239999Y-124619999D03*
X59779999Y-124619999D03*
X62319999Y-124619999D03*
X64859999Y-124619999D03*
X67399999Y-124619999D03*
D15*
X128400000Y-127420000D03*
X130900000Y-127420000D03*
D16*
X70799999Y-127519999D03*
D17*
X73339999Y-127519999D03*
X75879999Y-127519999D03*
X78419999Y-127519999D03*
X80959999Y-127519999D03*
X83499999Y-127519999D03*
D16*
X52239999Y-94699999D03*
D17*
X54779999Y-94699999D03*
X57319999Y-94699999D03*
X59859999Y-94699999D03*
X62399999Y-94699999D03*
X64939999Y-94699999D03*
D12*
X97410000Y-91980000D03*
D13*
X97409999Y-99599999D03*
D17*
X129549999Y-94979999D03*
X127009999Y-94979999D03*
X124469999Y-94979999D03*
X121929999Y-94979999D03*
X119389999Y-94979999D03*
D16*
X116849999Y-94979999D03*
D14*
X74140000Y-108080000D03*
D11*
X74140000Y-105540000D03*
X76680000Y-108080000D03*
X76680000Y-105540000D03*
X79220000Y-108080000D03*
X79220000Y-105540000D03*
X81760000Y-108080000D03*
X81760000Y-105540000D03*
X84300000Y-108080000D03*
X84300000Y-105540000D03*
D12*
X52400000Y-137940000D03*
D13*
X52399999Y-130319999D03*
D12*
X59800000Y-92080000D03*
D13*
X59799999Y-99699999D03*
D12*
X121980000Y-92080000D03*
D13*
X121979999Y-99699999D03*
D12*
X122830000Y-137920000D03*
D13*
X122829999Y-130299999D03*
D16*
X91839999Y-127519999D03*
D17*
X94379999Y-127519999D03*
X96919999Y-127519999D03*
X99459999Y-127519999D03*
X101999999Y-127519999D03*
X104539999Y-127519999D03*
D14*
X117170000Y-108080000D03*
D11*
X117170000Y-105540000D03*
X119710000Y-108080000D03*
X119710000Y-105540000D03*
X122250000Y-108080000D03*
X122250000Y-105540000D03*
X124790000Y-108080000D03*
X124790000Y-105540000D03*
X127330000Y-108080000D03*
X127330000Y-105540000D03*
D12*
X124490000Y-92080000D03*
D13*
X124489999Y-99699999D03*
D12*
X127000000Y-92080000D03*
D13*
X126999999Y-99699999D03*
D12*
X125300000Y-137920000D03*
D13*
X125299999Y-130299999D03*
D12*
X78100000Y-92090000D03*
D13*
X78099999Y-99709999D03*
D12*
X104500000Y-137840000D03*
D13*
X104499999Y-130219999D03*
D16*
X49759999Y-127519999D03*
D17*
X52299999Y-127519999D03*
X54839999Y-127519999D03*
X57379999Y-127519999D03*
X59919999Y-127519999D03*
X62459999Y-127519999D03*
D16*
X112699999Y-127519999D03*
D17*
X115239999Y-127519999D03*
X117779999Y-127519999D03*
X120319999Y-127519999D03*
X122859999Y-127519999D03*
X125399999Y-127519999D03*
D12*
X62000000Y-137950000D03*
D13*
X61999999Y-130329999D03*
D12*
X99910000Y-92070000D03*
D13*
X99909999Y-99689999D03*
D12*
X115300000Y-137920000D03*
D13*
X115299999Y-130299999D03*
D12*
X57200000Y-137940000D03*
D13*
X57199999Y-130319999D03*
D15*
X107400000Y-127420000D03*
X109900000Y-127420000D03*
D12*
X76700000Y-137820000D03*
D13*
X76699999Y-130199999D03*
D16*
X109379999Y-116999999D03*
D17*
X106839999Y-116999999D03*
X104299999Y-116999999D03*
X101759999Y-116999999D03*
X99219999Y-116999999D03*
X96679999Y-116999999D03*
X94139999Y-116999999D03*
X91599999Y-116999999D03*
X91599999Y-124619999D03*
X94139999Y-124619999D03*
X96679999Y-124619999D03*
X99219999Y-124619999D03*
X101759999Y-124619999D03*
X104299999Y-124619999D03*
X106839999Y-124619999D03*
X109379999Y-124619999D03*
D12*
X54800000Y-92070000D03*
D13*
X54799999Y-99689999D03*
D12*
X102510000Y-92080000D03*
D13*
X102509999Y-99699999D03*
D12*
X117810000Y-137920000D03*
D13*
X117809999Y-130299999D03*
D18*
X123502000Y-121746900D03*
X59974900Y-118837500D03*
X59506700Y-114546400D03*
X129200000Y-121000000D03*
X86500000Y-121000000D03*
X108000000Y-121000000D03*
X65500000Y-121000000D03*
D19*
X57320000Y-94700000D02*
X57320000Y-95825100D01*
X57300000Y-95845100D02*
X57300000Y-99690000D01*
X57320000Y-95825100D02*
X57300000Y-95845100D01*
X55180000Y-102835100D02*
X55180000Y-105540000D01*
X57300000Y-100715100D02*
X55180000Y-102835100D01*
X57300000Y-99690000D02*
X57300000Y-100715100D01*
X56544800Y-106904800D02*
X55180000Y-105540000D01*
X56544800Y-115179700D02*
X56544800Y-106904800D01*
X57240000Y-115874900D02*
X56544800Y-115179700D01*
X57240000Y-117000000D02*
X57240000Y-115874900D01*
X125300000Y-126294900D02*
X125300000Y-124633200D01*
X125400000Y-126394900D02*
X125300000Y-126294900D01*
X125400000Y-127520000D02*
X125400000Y-126957400D01*
X125400000Y-126957400D02*
X125400000Y-126394900D01*
X125300000Y-127057400D02*
X125300000Y-130300000D01*
X125400000Y-126957400D02*
X125300000Y-127057400D01*
X124065100Y-132560200D02*
X122830000Y-131325100D01*
X124065100Y-138479300D02*
X124065100Y-132560200D01*
X124799900Y-139214100D02*
X124065100Y-138479300D01*
X128549800Y-139214100D02*
X124799900Y-139214100D01*
X139613600Y-128150300D02*
X128549800Y-139214100D01*
X139613600Y-124617500D02*
X139613600Y-128150300D01*
X138846100Y-123850000D02*
X139613600Y-124617500D01*
X135444600Y-123850000D02*
X138846100Y-123850000D01*
X132994500Y-121399900D02*
X135444600Y-123850000D01*
X132994500Y-115425800D02*
X132994500Y-121399900D01*
X126060000Y-108491300D02*
X132994500Y-115425800D01*
X126060000Y-106810000D02*
X126060000Y-108491300D01*
X124790000Y-105540000D02*
X126060000Y-106810000D01*
X122830000Y-130300000D02*
X122830000Y-131325100D01*
X122830000Y-128675100D02*
X122830000Y-130300000D01*
X122860000Y-128645100D02*
X122830000Y-128675100D01*
X122860000Y-127520000D02*
X122860000Y-128645100D01*
X122860000Y-125858300D02*
X122860000Y-127520000D01*
X122760000Y-125758300D02*
X122860000Y-125858300D01*
X122760000Y-124633200D02*
X122760000Y-125758300D01*
X120320000Y-127520000D02*
X120320000Y-130300000D01*
X120320000Y-127520000D02*
X120320000Y-126394900D01*
X120220000Y-126294900D02*
X120220000Y-124633200D01*
X120320000Y-126394900D02*
X120220000Y-126294900D01*
X121345100Y-123903800D02*
X123502000Y-121746900D01*
X121345100Y-124633200D02*
X121345100Y-123903800D01*
X120220000Y-124633200D02*
X121345100Y-124633200D01*
X117680000Y-126294900D02*
X117680000Y-124633200D01*
X117780000Y-126394900D02*
X117680000Y-126294900D01*
X117780000Y-127520000D02*
X117780000Y-126957400D01*
X117780000Y-126957400D02*
X117780000Y-126394900D01*
X117810000Y-126987400D02*
X117810000Y-130300000D01*
X117780000Y-126957400D02*
X117810000Y-126987400D01*
X115240000Y-129214900D02*
X115300000Y-129274900D01*
X115240000Y-127520000D02*
X115240000Y-129214900D01*
X115300000Y-130300000D02*
X115300000Y-129274900D01*
X115240000Y-125858300D02*
X115240000Y-127520000D01*
X115140000Y-125758300D02*
X115240000Y-125858300D01*
X115140000Y-124633200D02*
X115140000Y-125758300D01*
X119470000Y-96185100D02*
X119470000Y-99700000D01*
X119390000Y-96105100D02*
X119470000Y-96185100D01*
X119390000Y-94980000D02*
X119390000Y-96105100D01*
X119710000Y-113858100D02*
X119710000Y-108080000D01*
X117680000Y-115888100D02*
X119710000Y-113858100D01*
X117680000Y-117013200D02*
X117680000Y-115888100D01*
X121930000Y-94980000D02*
X121930000Y-96105100D01*
X121980000Y-96155100D02*
X121980000Y-99700000D01*
X121930000Y-96105100D02*
X121980000Y-96155100D01*
X121980000Y-99700000D02*
X121980000Y-100725100D01*
X119710000Y-102995100D02*
X119710000Y-105540000D01*
X121980000Y-100725100D02*
X119710000Y-102995100D01*
X120906600Y-115201500D02*
X120220000Y-115888100D01*
X120906600Y-106736600D02*
X120906600Y-115201500D01*
X119710000Y-105540000D02*
X120906600Y-106736600D01*
X120220000Y-117013200D02*
X120220000Y-115888100D01*
X124490000Y-96125100D02*
X124490000Y-99700000D01*
X124470000Y-96105100D02*
X124490000Y-96125100D01*
X124470000Y-94980000D02*
X124470000Y-96105100D01*
X122760000Y-117013200D02*
X122760000Y-115888100D01*
X122250000Y-115378100D02*
X122250000Y-108080000D01*
X122760000Y-115888100D02*
X122250000Y-115378100D01*
X127010000Y-98664900D02*
X127000000Y-98674900D01*
X127010000Y-94980000D02*
X127010000Y-98664900D01*
X127000000Y-99700000D02*
X127000000Y-98674900D01*
X125300000Y-117013200D02*
X125300000Y-115888100D01*
X127000000Y-99700000D02*
X127000000Y-100725100D01*
X122689100Y-105540000D02*
X122250000Y-105540000D01*
X123520000Y-106370900D02*
X122689100Y-105540000D01*
X123520000Y-114108100D02*
X123520000Y-106370900D01*
X125300000Y-115888100D02*
X123520000Y-114108100D01*
X122689100Y-105036000D02*
X127000000Y-100725100D01*
X122689100Y-105540000D02*
X122689100Y-105036000D01*
X104540000Y-125985100D02*
X104540000Y-127520000D01*
X104300000Y-125745100D02*
X104540000Y-125985100D01*
X104300000Y-124620000D02*
X104300000Y-125745100D01*
X102000000Y-125985100D02*
X102000000Y-127520000D01*
X101760000Y-125745100D02*
X102000000Y-125985100D01*
X101760000Y-124620000D02*
X101760000Y-125745100D01*
X99220000Y-126154900D02*
X99220000Y-124620000D01*
X99460000Y-126394900D02*
X99220000Y-126154900D01*
X99460000Y-127520000D02*
X99460000Y-126957400D01*
X99460000Y-126957400D02*
X99460000Y-126394900D01*
X99590000Y-127087400D02*
X99590000Y-130300000D01*
X99460000Y-126957400D02*
X99590000Y-127087400D01*
X96680000Y-126154900D02*
X96680000Y-124620000D01*
X96920000Y-126394900D02*
X96680000Y-126154900D01*
X96920000Y-127520000D02*
X96920000Y-126957400D01*
X96920000Y-126957400D02*
X96920000Y-126394900D01*
X97080000Y-127117400D02*
X97080000Y-130300000D01*
X96920000Y-126957400D02*
X97080000Y-127117400D01*
X94380000Y-129084900D02*
X94570000Y-129274900D01*
X94380000Y-127520000D02*
X94380000Y-129084900D01*
X94570000Y-130300000D02*
X94570000Y-129274900D01*
X94380000Y-125985100D02*
X94380000Y-127520000D01*
X94140000Y-125745100D02*
X94380000Y-125985100D01*
X94140000Y-124620000D02*
X94140000Y-125745100D01*
X97430000Y-98554900D02*
X97410000Y-98574900D01*
X97430000Y-94880000D02*
X97430000Y-98554900D01*
X97410000Y-99600000D02*
X97410000Y-98574900D01*
X98240000Y-114314900D02*
X98240000Y-108080000D01*
X96680000Y-115874900D02*
X98240000Y-114314900D01*
X96680000Y-117000000D02*
X96680000Y-115874900D01*
X99970000Y-94880000D02*
X99970000Y-96005100D01*
X99220000Y-117000000D02*
X99220000Y-115874900D01*
X99437500Y-106737500D02*
X98240000Y-105540000D01*
X99437500Y-115657400D02*
X99437500Y-106737500D01*
X99220000Y-115874900D02*
X99437500Y-115657400D01*
X99910000Y-96065100D02*
X99910000Y-99690000D01*
X99970000Y-96005100D02*
X99910000Y-96065100D01*
X98240000Y-102385100D02*
X98240000Y-105540000D01*
X99910000Y-100715100D02*
X98240000Y-102385100D01*
X99910000Y-99690000D02*
X99910000Y-100715100D01*
X102510000Y-94880000D02*
X102510000Y-99700000D01*
X101760000Y-117000000D02*
X101760000Y-115874900D01*
X100780000Y-114894900D02*
X100780000Y-108080000D01*
X101760000Y-115874900D02*
X100780000Y-114894900D01*
X104300000Y-117000000D02*
X104300000Y-115874900D01*
X102050000Y-105540000D02*
X100780000Y-105540000D01*
X102050000Y-103685100D02*
X102050000Y-105540000D01*
X105010000Y-100725100D02*
X102050000Y-103685100D01*
X102050000Y-113624900D02*
X104300000Y-115874900D01*
X102050000Y-105540000D02*
X102050000Y-113624900D01*
X105010000Y-99700000D02*
X105010000Y-100725100D01*
X105050000Y-98634900D02*
X105010000Y-98674900D01*
X105050000Y-94880000D02*
X105050000Y-98634900D01*
X105010000Y-99700000D02*
X105010000Y-98674900D01*
X83500000Y-125925100D02*
X83500000Y-127520000D01*
X83320000Y-125745100D02*
X83500000Y-125925100D01*
X83320000Y-124620000D02*
X83320000Y-125745100D01*
X80960000Y-125925100D02*
X80960000Y-127520000D01*
X80780000Y-125745100D02*
X80960000Y-125925100D01*
X80780000Y-124620000D02*
X80780000Y-125745100D01*
X78470200Y-128645100D02*
X79000000Y-129174900D01*
X78420000Y-128645100D02*
X78470200Y-128645100D01*
X79000000Y-130200000D02*
X79000000Y-129174900D01*
X78420000Y-127520000D02*
X78420000Y-128645100D01*
X78240000Y-126214900D02*
X78420000Y-126394900D01*
X78240000Y-124620000D02*
X78240000Y-126214900D01*
X78420000Y-127520000D02*
X78420000Y-126394900D01*
X75700000Y-126214900D02*
X75700000Y-124620000D01*
X75880000Y-126394900D02*
X75700000Y-126214900D01*
X75880000Y-126957400D02*
X75880000Y-126394900D01*
X75880000Y-126957400D02*
X75880000Y-127520000D01*
X76170200Y-128645100D02*
X76700000Y-129174900D01*
X75880000Y-128645100D02*
X76170200Y-128645100D01*
X76700000Y-130200000D02*
X76700000Y-129174900D01*
X75880000Y-127520000D02*
X75880000Y-128645100D01*
X73879800Y-129184900D02*
X74400000Y-129184900D01*
X73340000Y-128645100D02*
X73879800Y-129184900D01*
X73340000Y-127520000D02*
X73340000Y-128645100D01*
X74400000Y-130210000D02*
X74400000Y-129184900D01*
X73160000Y-126214900D02*
X73340000Y-126394900D01*
X73160000Y-124620000D02*
X73160000Y-126214900D01*
X73340000Y-127520000D02*
X73340000Y-126394900D01*
X75540000Y-94900000D02*
X75540000Y-96025100D01*
X75500000Y-96065100D02*
X75500000Y-99710000D01*
X75540000Y-96025100D02*
X75500000Y-96065100D01*
X75500000Y-106900000D02*
X76680000Y-108080000D01*
X75500000Y-99710000D02*
X75500000Y-106900000D01*
X76680000Y-114894900D02*
X76680000Y-108080000D01*
X75700000Y-115874900D02*
X76680000Y-114894900D01*
X75700000Y-117000000D02*
X75700000Y-115874900D01*
X78080000Y-94900000D02*
X78080000Y-96025100D01*
X78240000Y-117000000D02*
X78240000Y-115874900D01*
X77950000Y-106810000D02*
X76680000Y-105540000D01*
X77950000Y-115584900D02*
X77950000Y-106810000D01*
X78240000Y-115874900D02*
X77950000Y-115584900D01*
X78100000Y-96045100D02*
X78100000Y-99710000D01*
X78080000Y-96025100D02*
X78100000Y-96045100D01*
X76680000Y-102155100D02*
X76680000Y-105540000D01*
X78100000Y-100735100D02*
X76680000Y-102155100D01*
X78100000Y-99710000D02*
X78100000Y-100735100D01*
X80700000Y-96105100D02*
X80700000Y-99710000D01*
X80620000Y-96025100D02*
X80700000Y-96105100D01*
X80620000Y-94900000D02*
X80620000Y-96025100D01*
X80780000Y-117000000D02*
X80780000Y-115874900D01*
X79220000Y-114314900D02*
X79220000Y-108080000D01*
X80780000Y-115874900D02*
X79220000Y-114314900D01*
X83160000Y-98654900D02*
X83200000Y-98694900D01*
X83160000Y-94900000D02*
X83160000Y-98654900D01*
X83200000Y-99720000D02*
X83200000Y-98694900D01*
X83320000Y-117000000D02*
X83320000Y-115874900D01*
X83200000Y-99720000D02*
X83200000Y-100745100D01*
X79659100Y-105540000D02*
X79220000Y-105540000D01*
X80490000Y-106370900D02*
X79659100Y-105540000D01*
X80490000Y-113044900D02*
X80490000Y-106370900D01*
X83320000Y-115874900D02*
X80490000Y-113044900D01*
X79659100Y-104286000D02*
X83200000Y-100745100D01*
X79659100Y-105540000D02*
X79659100Y-104286000D01*
X62460000Y-125885100D02*
X62460000Y-127520000D01*
X62320000Y-125745100D02*
X62460000Y-125885100D01*
X62320000Y-124620000D02*
X62320000Y-125745100D01*
X59920000Y-125885100D02*
X59920000Y-127520000D01*
X59780000Y-125745100D02*
X59920000Y-125885100D01*
X59780000Y-124620000D02*
X59780000Y-125745100D01*
X57380000Y-125885100D02*
X57380000Y-127520000D01*
X57240000Y-125745100D02*
X57380000Y-125885100D01*
X57240000Y-124620000D02*
X57240000Y-125745100D01*
X60905200Y-109974800D02*
X62800000Y-108080000D01*
X60905200Y-117907200D02*
X60905200Y-109974800D01*
X59974900Y-118837500D02*
X60905200Y-117907200D01*
X54840000Y-127520000D02*
X54840000Y-126957400D01*
X54840000Y-126957400D02*
X54840000Y-126394900D01*
X54700000Y-127097400D02*
X54700000Y-130340000D01*
X54840000Y-126957400D02*
X54700000Y-127097400D01*
X54700000Y-126254900D02*
X54700000Y-124620000D01*
X54840000Y-126394900D02*
X54700000Y-126254900D01*
X59506700Y-110736600D02*
X59506700Y-114546400D01*
X61530000Y-108713300D02*
X59506700Y-110736600D01*
X61530000Y-106810000D02*
X61530000Y-108713300D01*
X62800000Y-105540000D02*
X61530000Y-106810000D01*
X52400000Y-130320000D02*
X52400000Y-129294900D01*
X52300000Y-129194900D02*
X52300000Y-127520000D01*
X52400000Y-129294900D02*
X52300000Y-129194900D01*
X52300000Y-125885100D02*
X52160000Y-125745100D01*
X52300000Y-127520000D02*
X52300000Y-125885100D01*
X52160000Y-124620000D02*
X52160000Y-125745100D01*
X40546800Y-123793200D02*
X41760000Y-122580000D01*
X40546800Y-128181500D02*
X40546800Y-123793200D01*
X41203500Y-128838200D02*
X40546800Y-128181500D01*
X44839200Y-128838200D02*
X41203500Y-128838200D01*
X48494900Y-125182500D02*
X44839200Y-128838200D01*
X48494900Y-124620000D02*
X48494900Y-125182500D01*
X49620000Y-124620000D02*
X48494900Y-124620000D01*
X54780000Y-98644900D02*
X54800000Y-98664900D01*
X54780000Y-94700000D02*
X54780000Y-98644900D01*
X54800000Y-99690000D02*
X54800000Y-98664900D01*
X54800000Y-99690000D02*
X54800000Y-100715100D01*
X54700000Y-117000000D02*
X54700000Y-115874900D01*
X55180000Y-108080000D02*
X55039800Y-108080000D01*
X53965700Y-107005900D02*
X55039800Y-108080000D01*
X53965700Y-101549400D02*
X53965700Y-107005900D01*
X54800000Y-100715100D02*
X53965700Y-101549400D01*
X55039800Y-115535100D02*
X54700000Y-115874900D01*
X55039800Y-108080000D02*
X55039800Y-115535100D01*
X59800000Y-95885100D02*
X59800000Y-99700000D01*
X59860000Y-95825100D02*
X59800000Y-95885100D01*
X59860000Y-94700000D02*
X59860000Y-95825100D01*
X59780000Y-117000000D02*
X59780000Y-115874900D01*
X57720000Y-113814900D02*
X57720000Y-108080000D01*
X59780000Y-115874900D02*
X57720000Y-113814900D01*
X58990000Y-101535100D02*
X59800000Y-100725100D01*
X58990000Y-106810000D02*
X58990000Y-101535100D01*
X57720000Y-108080000D02*
X58990000Y-106810000D01*
X59800000Y-99700000D02*
X59800000Y-100725100D01*
X62320000Y-117000000D02*
X62320000Y-115874900D01*
X64002000Y-114192900D02*
X62320000Y-115874900D01*
X64002000Y-102327100D02*
X64002000Y-114192900D01*
X62400000Y-100725100D02*
X64002000Y-102327100D01*
X62400000Y-99700000D02*
X62400000Y-100725100D01*
X58539800Y-104720200D02*
X57720000Y-105540000D01*
X58539800Y-94354400D02*
X58539800Y-104720200D01*
X59338500Y-93555700D02*
X58539800Y-94354400D01*
X60411900Y-93555700D02*
X59338500Y-93555700D01*
X61274900Y-94418700D02*
X60411900Y-93555700D01*
X61274900Y-94700000D02*
X61274900Y-94418700D01*
X62400000Y-94700000D02*
X61837500Y-94700000D01*
X61837500Y-94700000D02*
X61274900Y-94700000D01*
X61837500Y-98112400D02*
X62400000Y-98674900D01*
X61837500Y-94700000D02*
X61837500Y-98112400D01*
X62400000Y-99700000D02*
X62400000Y-98674900D01*
X85860000Y-118140000D02*
X84000000Y-120000000D01*
X85860000Y-117000000D02*
X85860000Y-118140000D01*
X127840000Y-118660000D02*
X126500000Y-120000000D01*
X127840000Y-117013200D02*
X127840000Y-118660000D01*
X64860000Y-118640000D02*
X63500000Y-120000000D01*
X64860000Y-117000000D02*
X64860000Y-118640000D01*
X106840000Y-118160000D02*
X105000000Y-120000000D01*
X106840000Y-117000000D02*
X106840000Y-118160000D01*
X126500000Y-120000000D02*
X105000000Y-120000000D01*
X45880000Y-125120000D02*
X44300000Y-125120000D01*
X46000000Y-125000000D02*
X45880000Y-125120000D01*
X46000000Y-124000000D02*
X46000000Y-125000000D01*
X50000000Y-120000000D02*
X46000000Y-124000000D01*
X63500000Y-120000000D02*
X50000000Y-120000000D01*
X44300000Y-125120000D02*
X41760000Y-125120000D01*
X105000000Y-120000000D02*
X84000000Y-120000000D01*
X84000000Y-120000000D02*
X63500000Y-120000000D01*
X127840000Y-117013000D02*
X127840000Y-117013200D01*
X138400000Y-125120000D02*
X135860000Y-125120000D01*
X130740000Y-120000000D02*
X126500000Y-120000000D01*
X135860000Y-125120000D02*
X130740000Y-120000000D01*
X108000000Y-121000000D02*
X129200000Y-121000000D01*
X135860000Y-127660000D02*
X138400000Y-127660000D01*
X86500000Y-121000000D02*
X108000000Y-121000000D01*
X41760000Y-127660000D02*
X44300000Y-127660000D01*
X129200000Y-121000000D02*
X135860000Y-127660000D01*
X50960000Y-121000000D02*
X65500000Y-121000000D01*
X44300000Y-127660000D02*
X50960000Y-121000000D01*
X65500000Y-121000000D02*
X86500000Y-121000000D01*
D20*
X53570100Y-93299900D02*
X54800000Y-92070000D01*
X52240000Y-93299900D02*
X53570100Y-93299900D01*
X52240000Y-94700000D02*
X52240000Y-93299900D01*
X74090100Y-93499900D02*
X75500000Y-92090000D01*
X73000000Y-93499900D02*
X74090100Y-93499900D01*
X73000000Y-94900000D02*
X73000000Y-93499900D01*
X109380000Y-126900000D02*
X109900000Y-127420000D01*
X109380000Y-124620000D02*
X109380000Y-126900000D01*
X130380000Y-124633200D02*
X130380000Y-126033300D01*
X110000000Y-127520000D02*
X109900000Y-127420000D01*
X112700000Y-127520000D02*
X110000000Y-127520000D01*
X130900000Y-126553300D02*
X130900000Y-127420000D01*
X130380000Y-126033300D02*
X130900000Y-126553300D01*
X130900000Y-132320000D02*
X125300000Y-137920000D01*
X130900000Y-127420000D02*
X130900000Y-132320000D01*
X48041400Y-100298700D02*
X52240000Y-96100100D01*
X48041400Y-116298600D02*
X48041400Y-100298700D01*
X44300000Y-120040000D02*
X48041400Y-116298600D01*
X52240000Y-94700000D02*
X52240000Y-96100100D01*
X54720000Y-137940000D02*
X54700000Y-137960000D01*
X57200000Y-137940000D02*
X54720000Y-137940000D01*
X49760000Y-135300000D02*
X49760000Y-127520000D01*
X52400000Y-137940000D02*
X49760000Y-135300000D01*
X70800000Y-127520000D02*
X67900000Y-127520000D01*
X67900000Y-126520100D02*
X67400000Y-126020100D01*
X67900000Y-127520000D02*
X67900000Y-126520100D01*
X67400000Y-124620000D02*
X67400000Y-126020100D01*
X91840000Y-127520000D02*
X88900000Y-127520000D01*
X88900000Y-126520100D02*
X88400000Y-126020100D01*
X88900000Y-127520000D02*
X88900000Y-126520100D01*
X88400000Y-124620000D02*
X88400000Y-126020100D01*
X117970100Y-93579900D02*
X119470000Y-92080000D01*
X116850000Y-93579900D02*
X117970100Y-93579900D01*
X116850000Y-94980000D02*
X116850000Y-93579900D01*
X138400000Y-120040000D02*
X135860000Y-120040000D01*
X95910100Y-93479900D02*
X94890000Y-93479900D01*
X97410000Y-91980000D02*
X95910100Y-93479900D01*
X94890000Y-94880000D02*
X94890000Y-93479900D01*
X107020000Y-135320000D02*
X104500000Y-137840000D01*
X112700000Y-135320000D02*
X107020000Y-135320000D01*
X112700000Y-127520000D02*
X112700000Y-135320000D01*
X112700000Y-135320000D02*
X115300000Y-137920000D01*
X91600000Y-112180000D02*
X95700000Y-108080000D01*
X91600000Y-117000000D02*
X91600000Y-112180000D01*
X64860000Y-124620000D02*
X64860000Y-126020100D01*
X70620000Y-111600000D02*
X74140000Y-108080000D01*
X70620000Y-117000000D02*
X70620000Y-111600000D01*
X128400000Y-126593300D02*
X128400000Y-127420000D01*
X127840000Y-126033300D02*
X128400000Y-126593300D01*
X127840000Y-124633200D02*
X127840000Y-126033300D01*
X65400000Y-126560100D02*
X65400000Y-127520000D01*
X64860000Y-126020100D02*
X65400000Y-126560100D01*
X86400000Y-136917800D02*
X86400000Y-127520000D01*
X84186900Y-139130900D02*
X86400000Y-136917800D01*
X73859700Y-139130900D02*
X84186900Y-139130900D01*
X65400000Y-130671200D02*
X73859700Y-139130900D01*
X65400000Y-127520000D02*
X65400000Y-130671200D01*
X52640000Y-112579900D02*
X49620000Y-115599900D01*
X52640000Y-108080000D02*
X52640000Y-112579900D01*
X49620000Y-117000000D02*
X49620000Y-115599900D01*
X86400000Y-126560100D02*
X86400000Y-127520000D01*
X85860000Y-126020100D02*
X86400000Y-126560100D01*
X85860000Y-124620000D02*
X85860000Y-126020100D01*
X117170000Y-111043100D02*
X117170000Y-108080000D01*
X112600000Y-115613100D02*
X117170000Y-111043100D01*
X112600000Y-117013200D02*
X112600000Y-115613100D01*
X105405000Y-123185000D02*
X106840000Y-124620000D01*
X87295000Y-123185000D02*
X105405000Y-123185000D01*
X85860000Y-124620000D02*
X87295000Y-123185000D01*
X107400000Y-126580100D02*
X107400000Y-127420000D01*
X106840000Y-126020100D02*
X107400000Y-126580100D01*
X106840000Y-124620000D02*
X106840000Y-126020100D01*
G04 #@! TA.AperFunction,Conductor*
G36*
X106743533Y-128556552D02*
G01*
X106748488Y-128559413D01*
X106945946Y-128651489D01*
X106956238Y-128655235D01*
X107166687Y-128711625D01*
X107177480Y-128713528D01*
X107394525Y-128732517D01*
X107405475Y-128732517D01*
X107622519Y-128713528D01*
X107633312Y-128711625D01*
X107849071Y-128653813D01*
X107849298Y-128654663D01*
X107898171Y-128648407D01*
X107950860Y-128665652D01*
X107991048Y-128703843D01*
X108032348Y-128765652D01*
X108070975Y-128823461D01*
X108269811Y-129050189D01*
X108496539Y-129249025D01*
X108747282Y-129416566D01*
X108750986Y-129418392D01*
X108750985Y-129418392D01*
X109008462Y-129545366D01*
X109017748Y-129549945D01*
X109303309Y-129646880D01*
X109599080Y-129705713D01*
X109900000Y-129725436D01*
X110200920Y-129705713D01*
X110496691Y-129646880D01*
X110782252Y-129549945D01*
X110801733Y-129540338D01*
X110817772Y-129532429D01*
X110879683Y-129519587D01*
X110940037Y-129538436D01*
X110983635Y-129584229D01*
X110999500Y-129645435D01*
X110999500Y-133493500D01*
X110982619Y-133556500D01*
X110936500Y-133602619D01*
X110873500Y-133619500D01*
X107142646Y-133619500D01*
X107125802Y-133618369D01*
X107122745Y-133617956D01*
X107122735Y-133617955D01*
X107117958Y-133617311D01*
X107113136Y-133617403D01*
X107113130Y-133617403D01*
X107004911Y-133619477D01*
X107002497Y-133619500D01*
X106954823Y-133619500D01*
X106942159Y-133620472D01*
X106934954Y-133620817D01*
X106861720Y-133622220D01*
X106861712Y-133622220D01*
X106856896Y-133622313D01*
X106852146Y-133623140D01*
X106852136Y-133623141D01*
X106814515Y-133629692D01*
X106802550Y-133631190D01*
X106764465Y-133634114D01*
X106764455Y-133634115D01*
X106759656Y-133634484D01*
X106754973Y-133635579D01*
X106754952Y-133635583D01*
X106683644Y-133652269D01*
X106676557Y-133653714D01*
X106604415Y-133666278D01*
X106604397Y-133666282D01*
X106599657Y-133667108D01*
X106595100Y-133668646D01*
X106595091Y-133668649D01*
X106558908Y-133680867D01*
X106547312Y-133684173D01*
X106510123Y-133692876D01*
X106510110Y-133692879D01*
X106505414Y-133693979D01*
X106500944Y-133695780D01*
X106500933Y-133695784D01*
X106433014Y-133723158D01*
X106426225Y-133725670D01*
X106356839Y-133749099D01*
X106356825Y-133749104D01*
X106352270Y-133750643D01*
X106347989Y-133752865D01*
X106347988Y-133752866D01*
X106314084Y-133770468D01*
X106303134Y-133775503D01*
X106267709Y-133789782D01*
X106267705Y-133789783D01*
X106263234Y-133791586D01*
X106259095Y-133794046D01*
X106259088Y-133794050D01*
X106196134Y-133831476D01*
X106189812Y-133834993D01*
X106124819Y-133868739D01*
X106124812Y-133868742D01*
X106120535Y-133870964D01*
X106116644Y-133873813D01*
X106116637Y-133873818D01*
X106085832Y-133896379D01*
X106075779Y-133903027D01*
X106042948Y-133922547D01*
X106038792Y-133925018D01*
X106035070Y-133928086D01*
X106035062Y-133928093D01*
X105978571Y-133974680D01*
X105972859Y-133979121D01*
X105913777Y-134022394D01*
X105913765Y-134022404D01*
X105909881Y-134025249D01*
X105906479Y-134028650D01*
X105906466Y-134028662D01*
X105879454Y-134055674D01*
X105870531Y-134063781D01*
X105837348Y-134091148D01*
X105834142Y-134094744D01*
X105834135Y-134094752D01*
X105785407Y-134149428D01*
X105780438Y-134154690D01*
X104319881Y-135615247D01*
X104282789Y-135640920D01*
X104239032Y-135651882D01*
X104216274Y-135653374D01*
X104216268Y-135653374D01*
X104212161Y-135653644D01*
X104208124Y-135654446D01*
X104208116Y-135654448D01*
X103933297Y-135709113D01*
X103933291Y-135709114D01*
X103929247Y-135709919D01*
X103925344Y-135711243D01*
X103925336Y-135711246D01*
X103659997Y-135801317D01*
X103659990Y-135801319D01*
X103656098Y-135802641D01*
X103652405Y-135804462D01*
X103652403Y-135804463D01*
X103401098Y-135928392D01*
X103401087Y-135928398D01*
X103397389Y-135930222D01*
X103393959Y-135932513D01*
X103393950Y-135932519D01*
X103306275Y-135991101D01*
X103244515Y-136012065D01*
X103180547Y-135999341D01*
X103036676Y-135928392D01*
X102943902Y-135882641D01*
X102788589Y-135829919D01*
X102674663Y-135791246D01*
X102674659Y-135791244D01*
X102670753Y-135789919D01*
X102666705Y-135789113D01*
X102666702Y-135789113D01*
X102391881Y-135734448D01*
X102391880Y-135734447D01*
X102387839Y-135733644D01*
X102383728Y-135733374D01*
X102383724Y-135733374D01*
X102127237Y-135716563D01*
X102100000Y-135714778D01*
X102076753Y-135716301D01*
X101816275Y-135733374D01*
X101816269Y-135733374D01*
X101812161Y-135733644D01*
X101808120Y-135734447D01*
X101808118Y-135734448D01*
X101533297Y-135789113D01*
X101533291Y-135789114D01*
X101529247Y-135789919D01*
X101525344Y-135791243D01*
X101525336Y-135791246D01*
X101259997Y-135881317D01*
X101259990Y-135881319D01*
X101256098Y-135882641D01*
X101252405Y-135884462D01*
X101252403Y-135884463D01*
X101001092Y-136008395D01*
X101001081Y-136008401D01*
X100997389Y-136010222D01*
X100993963Y-136012510D01*
X100993958Y-136012514D01*
X100915000Y-136065272D01*
X100869580Y-136084085D01*
X100820417Y-136084085D01*
X100774998Y-136065271D01*
X100746812Y-136046438D01*
X100696044Y-136012515D01*
X100696034Y-136012509D01*
X100692611Y-136010222D01*
X100688911Y-136008397D01*
X100688907Y-136008395D01*
X100515014Y-135922641D01*
X100433902Y-135882641D01*
X100278589Y-135829919D01*
X100164663Y-135791246D01*
X100164659Y-135791244D01*
X100160753Y-135789919D01*
X100156705Y-135789113D01*
X100156702Y-135789113D01*
X99881881Y-135734448D01*
X99881880Y-135734447D01*
X99877839Y-135733644D01*
X99873728Y-135733374D01*
X99873724Y-135733374D01*
X99617237Y-135716563D01*
X99590000Y-135714778D01*
X99566753Y-135716301D01*
X99306275Y-135733374D01*
X99306269Y-135733374D01*
X99302161Y-135733644D01*
X99298120Y-135734447D01*
X99298118Y-135734448D01*
X99023297Y-135789113D01*
X99023291Y-135789114D01*
X99019247Y-135789919D01*
X99015344Y-135791243D01*
X99015336Y-135791246D01*
X98749997Y-135881317D01*
X98749990Y-135881319D01*
X98746098Y-135882641D01*
X98742405Y-135884462D01*
X98742403Y-135884463D01*
X98491092Y-136008395D01*
X98491081Y-136008401D01*
X98487389Y-136010222D01*
X98483963Y-136012510D01*
X98483958Y-136012514D01*
X98405000Y-136065272D01*
X98359580Y-136084085D01*
X98310417Y-136084085D01*
X98264998Y-136065271D01*
X98236812Y-136046438D01*
X98186044Y-136012515D01*
X98186034Y-136012509D01*
X98182611Y-136010222D01*
X98178911Y-136008397D01*
X98178907Y-136008395D01*
X98005014Y-135922641D01*
X97923902Y-135882641D01*
X97768589Y-135829919D01*
X97654663Y-135791246D01*
X97654659Y-135791244D01*
X97650753Y-135789919D01*
X97646705Y-135789113D01*
X97646702Y-135789113D01*
X97371881Y-135734448D01*
X97371880Y-135734447D01*
X97367839Y-135733644D01*
X97363728Y-135733374D01*
X97363724Y-135733374D01*
X97107237Y-135716563D01*
X97080000Y-135714778D01*
X97056753Y-135716301D01*
X96796275Y-135733374D01*
X96796269Y-135733374D01*
X96792161Y-135733644D01*
X96788120Y-135734447D01*
X96788118Y-135734448D01*
X96513297Y-135789113D01*
X96513291Y-135789114D01*
X96509247Y-135789919D01*
X96505344Y-135791243D01*
X96505336Y-135791246D01*
X96239997Y-135881317D01*
X96239990Y-135881319D01*
X96236098Y-135882641D01*
X96232405Y-135884462D01*
X96232403Y-135884463D01*
X95981092Y-136008395D01*
X95981081Y-136008401D01*
X95977389Y-136010222D01*
X95973963Y-136012510D01*
X95973958Y-136012514D01*
X95895000Y-136065272D01*
X95849580Y-136084085D01*
X95800417Y-136084085D01*
X95754998Y-136065271D01*
X95726812Y-136046438D01*
X95676044Y-136012515D01*
X95676034Y-136012509D01*
X95672611Y-136010222D01*
X95668911Y-136008397D01*
X95668907Y-136008395D01*
X95495014Y-135922641D01*
X95413902Y-135882641D01*
X95258589Y-135829919D01*
X95144663Y-135791246D01*
X95144659Y-135791244D01*
X95140753Y-135789919D01*
X95136705Y-135789113D01*
X95136702Y-135789113D01*
X94861881Y-135734448D01*
X94861880Y-135734447D01*
X94857839Y-135733644D01*
X94853728Y-135733374D01*
X94853724Y-135733374D01*
X94597237Y-135716563D01*
X94570000Y-135714778D01*
X94546753Y-135716301D01*
X94286275Y-135733374D01*
X94286269Y-135733374D01*
X94282161Y-135733644D01*
X94278120Y-135734447D01*
X94278118Y-135734448D01*
X94003297Y-135789113D01*
X94003291Y-135789114D01*
X93999247Y-135789919D01*
X93995344Y-135791243D01*
X93995336Y-135791246D01*
X93729997Y-135881317D01*
X93729990Y-135881319D01*
X93726098Y-135882641D01*
X93722405Y-135884462D01*
X93722403Y-135884463D01*
X93471092Y-136008395D01*
X93471081Y-136008401D01*
X93467389Y-136010222D01*
X93463960Y-136012512D01*
X93463955Y-136012516D01*
X93230977Y-136168187D01*
X93230972Y-136168190D01*
X93227546Y-136170480D01*
X93224451Y-136173193D01*
X93224446Y-136173198D01*
X93013761Y-136357964D01*
X93013753Y-136357971D01*
X93010673Y-136360673D01*
X93007971Y-136363753D01*
X93007964Y-136363761D01*
X92823198Y-136574446D01*
X92823193Y-136574451D01*
X92820480Y-136577546D01*
X92818190Y-136580972D01*
X92818187Y-136580977D01*
X92662516Y-136813955D01*
X92662512Y-136813960D01*
X92660222Y-136817389D01*
X92658401Y-136821081D01*
X92658395Y-136821092D01*
X92578846Y-136982403D01*
X92532641Y-137076098D01*
X92531319Y-137079990D01*
X92531317Y-137079997D01*
X92441246Y-137345336D01*
X92441243Y-137345344D01*
X92439919Y-137349247D01*
X92439114Y-137353291D01*
X92439113Y-137353297D01*
X92394097Y-137579610D01*
X92383644Y-137632161D01*
X92383374Y-137636269D01*
X92383374Y-137636275D01*
X92373240Y-137790891D01*
X92364778Y-137920000D01*
X92365048Y-137924119D01*
X92383193Y-138200967D01*
X92383644Y-138207839D01*
X92384447Y-138211880D01*
X92384448Y-138211881D01*
X92420805Y-138394663D01*
X92439919Y-138490753D01*
X92441244Y-138494659D01*
X92441246Y-138494663D01*
X92506738Y-138687596D01*
X92532641Y-138763902D01*
X92549257Y-138797596D01*
X92610907Y-138922611D01*
X92660222Y-139022611D01*
X92820480Y-139262454D01*
X92823200Y-139265556D01*
X92823205Y-139265562D01*
X92845445Y-139290922D01*
X92872421Y-139341388D01*
X92874293Y-139398581D01*
X92850677Y-139450704D01*
X92806442Y-139487006D01*
X92750714Y-139500000D01*
X85331588Y-139500000D01*
X85275860Y-139487006D01*
X85231625Y-139450704D01*
X85208009Y-139398581D01*
X85209881Y-139341389D01*
X85236856Y-139290922D01*
X85238526Y-139289018D01*
X85349520Y-139162454D01*
X85509778Y-138922611D01*
X85637359Y-138663902D01*
X85730081Y-138390753D01*
X85786356Y-138107839D01*
X85805222Y-137820000D01*
X85786356Y-137532161D01*
X85730081Y-137249247D01*
X85637359Y-136976098D01*
X85509778Y-136717389D01*
X85349520Y-136477546D01*
X85159327Y-136260673D01*
X84942454Y-136070480D01*
X84702611Y-135910222D01*
X84698911Y-135908397D01*
X84698907Y-135908395D01*
X84517860Y-135819113D01*
X84443902Y-135782641D01*
X84432266Y-135778691D01*
X84174663Y-135691246D01*
X84174659Y-135691244D01*
X84170753Y-135689919D01*
X84166705Y-135689113D01*
X84166702Y-135689113D01*
X83891881Y-135634448D01*
X83891880Y-135634447D01*
X83887839Y-135633644D01*
X83883728Y-135633374D01*
X83883724Y-135633374D01*
X83627238Y-135616563D01*
X83600000Y-135614778D01*
X83576753Y-135616301D01*
X83316275Y-135633374D01*
X83316269Y-135633374D01*
X83312161Y-135633644D01*
X83308120Y-135634447D01*
X83308118Y-135634448D01*
X83033297Y-135689113D01*
X83033291Y-135689114D01*
X83029247Y-135689919D01*
X83025344Y-135691243D01*
X83025336Y-135691246D01*
X82759997Y-135781317D01*
X82759990Y-135781319D01*
X82756098Y-135782641D01*
X82752405Y-135784462D01*
X82752403Y-135784463D01*
X82497389Y-135910222D01*
X82496819Y-135909067D01*
X82444101Y-135924106D01*
X82384274Y-135911179D01*
X82197582Y-135819113D01*
X82143902Y-135792641D01*
X82140002Y-135791317D01*
X81874663Y-135701246D01*
X81874659Y-135701244D01*
X81870753Y-135699919D01*
X81866705Y-135699113D01*
X81866702Y-135699113D01*
X81591881Y-135644448D01*
X81591880Y-135644447D01*
X81587839Y-135643644D01*
X81583728Y-135643374D01*
X81583724Y-135643374D01*
X81304119Y-135625048D01*
X81300000Y-135624778D01*
X81295881Y-135625048D01*
X81016275Y-135643374D01*
X81016269Y-135643374D01*
X81012161Y-135643644D01*
X81008120Y-135644447D01*
X81008118Y-135644448D01*
X80733297Y-135699113D01*
X80733291Y-135699114D01*
X80729247Y-135699919D01*
X80725344Y-135701243D01*
X80725336Y-135701246D01*
X80459997Y-135791317D01*
X80459990Y-135791319D01*
X80456098Y-135792641D01*
X80452405Y-135794462D01*
X80452403Y-135794463D01*
X80215725Y-135911179D01*
X80155881Y-135924106D01*
X80103183Y-135909061D01*
X80102611Y-135910222D01*
X79843902Y-135782641D01*
X79832266Y-135778691D01*
X79574663Y-135691246D01*
X79574659Y-135691244D01*
X79570753Y-135689919D01*
X79566705Y-135689113D01*
X79566702Y-135689113D01*
X79291881Y-135634448D01*
X79291880Y-135634447D01*
X79287839Y-135633644D01*
X79283728Y-135633374D01*
X79283724Y-135633374D01*
X79027238Y-135616563D01*
X79000000Y-135614778D01*
X78976753Y-135616301D01*
X78716275Y-135633374D01*
X78716269Y-135633374D01*
X78712161Y-135633644D01*
X78708120Y-135634447D01*
X78708118Y-135634448D01*
X78433297Y-135689113D01*
X78433291Y-135689114D01*
X78429247Y-135689919D01*
X78425344Y-135691243D01*
X78425336Y-135691246D01*
X78159997Y-135781317D01*
X78159990Y-135781319D01*
X78156098Y-135782641D01*
X78152405Y-135784462D01*
X78152403Y-135784463D01*
X77905728Y-135906109D01*
X77850000Y-135919103D01*
X77794272Y-135906109D01*
X77597582Y-135809113D01*
X77543902Y-135782641D01*
X77532266Y-135778691D01*
X77274663Y-135691246D01*
X77274659Y-135691244D01*
X77270753Y-135689919D01*
X77266705Y-135689113D01*
X77266702Y-135689113D01*
X76991881Y-135634448D01*
X76991880Y-135634447D01*
X76987839Y-135633644D01*
X76983728Y-135633374D01*
X76983724Y-135633374D01*
X76727238Y-135616563D01*
X76700000Y-135614778D01*
X76676753Y-135616301D01*
X76416275Y-135633374D01*
X76416269Y-135633374D01*
X76412161Y-135633644D01*
X76408120Y-135634447D01*
X76408118Y-135634448D01*
X76133297Y-135689113D01*
X76133291Y-135689114D01*
X76129247Y-135689919D01*
X76125344Y-135691243D01*
X76125336Y-135691246D01*
X75859997Y-135781317D01*
X75859990Y-135781319D01*
X75856098Y-135782641D01*
X75852405Y-135784462D01*
X75852403Y-135784463D01*
X75597389Y-135910222D01*
X75596819Y-135909067D01*
X75544101Y-135924106D01*
X75484274Y-135911179D01*
X75297582Y-135819113D01*
X75243902Y-135792641D01*
X75240002Y-135791317D01*
X74974663Y-135701246D01*
X74974659Y-135701244D01*
X74970753Y-135699919D01*
X74966705Y-135699113D01*
X74966702Y-135699113D01*
X74691881Y-135644448D01*
X74691880Y-135644447D01*
X74687839Y-135643644D01*
X74683728Y-135643374D01*
X74683724Y-135643374D01*
X74404119Y-135625048D01*
X74400000Y-135624778D01*
X74395881Y-135625048D01*
X74116275Y-135643374D01*
X74116269Y-135643374D01*
X74112161Y-135643644D01*
X74108120Y-135644447D01*
X74108118Y-135644448D01*
X73833297Y-135699113D01*
X73833291Y-135699114D01*
X73829247Y-135699919D01*
X73825344Y-135701243D01*
X73825336Y-135701246D01*
X73559997Y-135791317D01*
X73559990Y-135791319D01*
X73556098Y-135792641D01*
X73552405Y-135794462D01*
X73552403Y-135794463D01*
X73301092Y-135918395D01*
X73301081Y-135918401D01*
X73297389Y-135920222D01*
X73293960Y-135922512D01*
X73293955Y-135922516D01*
X73060977Y-136078187D01*
X73060972Y-136078190D01*
X73057546Y-136080480D01*
X73054451Y-136083193D01*
X73054446Y-136083198D01*
X72843761Y-136267964D01*
X72843753Y-136267971D01*
X72840673Y-136270673D01*
X72837971Y-136273753D01*
X72837964Y-136273761D01*
X72653198Y-136484446D01*
X72653193Y-136484451D01*
X72650480Y-136487546D01*
X72648190Y-136490972D01*
X72648187Y-136490977D01*
X72492516Y-136723955D01*
X72492512Y-136723960D01*
X72490222Y-136727389D01*
X72488401Y-136731081D01*
X72488395Y-136731092D01*
X72364463Y-136982403D01*
X72362641Y-136986098D01*
X72361319Y-136989990D01*
X72361317Y-136989997D01*
X72271246Y-137255336D01*
X72271243Y-137255344D01*
X72269919Y-137259247D01*
X72269114Y-137263291D01*
X72269113Y-137263297D01*
X72245244Y-137383297D01*
X72213644Y-137542161D01*
X72213374Y-137546269D01*
X72213374Y-137546275D01*
X72203941Y-137690197D01*
X72194778Y-137830000D01*
X72195048Y-137834119D01*
X72212988Y-138107839D01*
X72213644Y-138117839D01*
X72214447Y-138121880D01*
X72214448Y-138121881D01*
X72268707Y-138394663D01*
X72269919Y-138400753D01*
X72271244Y-138404659D01*
X72271246Y-138404663D01*
X72359246Y-138663902D01*
X72362641Y-138673902D01*
X72369394Y-138687596D01*
X72486983Y-138926044D01*
X72490222Y-138932611D01*
X72650480Y-139172454D01*
X72752704Y-139289018D01*
X72754374Y-139290922D01*
X72781349Y-139341389D01*
X72783221Y-139398581D01*
X72759605Y-139450704D01*
X72715370Y-139487006D01*
X72659642Y-139500000D01*
X63845427Y-139500000D01*
X63778890Y-139480999D01*
X63732421Y-139429728D01*
X63720034Y-139361650D01*
X63745464Y-139297296D01*
X63746794Y-139295562D01*
X63749520Y-139292454D01*
X63909778Y-139052611D01*
X64037359Y-138793902D01*
X64130081Y-138520753D01*
X64186356Y-138237839D01*
X64205222Y-137950000D01*
X64186356Y-137662161D01*
X64130081Y-137379247D01*
X64037359Y-137106098D01*
X63909778Y-136847389D01*
X63749520Y-136607546D01*
X63559327Y-136390673D01*
X63342454Y-136200480D01*
X63102611Y-136040222D01*
X63098911Y-136038397D01*
X63098907Y-136038395D01*
X62903205Y-135941886D01*
X62843902Y-135912641D01*
X62836776Y-135910222D01*
X62574663Y-135821246D01*
X62574659Y-135821244D01*
X62570753Y-135819919D01*
X62566705Y-135819113D01*
X62566702Y-135819113D01*
X62291881Y-135764448D01*
X62291880Y-135764447D01*
X62287839Y-135763644D01*
X62283728Y-135763374D01*
X62283724Y-135763374D01*
X62004119Y-135745048D01*
X62000000Y-135744778D01*
X61995881Y-135745048D01*
X61716275Y-135763374D01*
X61716269Y-135763374D01*
X61712161Y-135763644D01*
X61708120Y-135764447D01*
X61708118Y-135764448D01*
X61433297Y-135819113D01*
X61433291Y-135819114D01*
X61429247Y-135819919D01*
X61425344Y-135821243D01*
X61425336Y-135821246D01*
X61159997Y-135911317D01*
X61159990Y-135911319D01*
X61156098Y-135912641D01*
X61152405Y-135914462D01*
X61152403Y-135914463D01*
X60901092Y-136038395D01*
X60901081Y-136038401D01*
X60897389Y-136040222D01*
X60893964Y-136042510D01*
X60893951Y-136042518D01*
X60877483Y-136053522D01*
X60832063Y-136072335D01*
X60782902Y-136072335D01*
X60737482Y-136053522D01*
X60710203Y-136035295D01*
X60702611Y-136030222D01*
X60698911Y-136028397D01*
X60698907Y-136028395D01*
X60523483Y-135941886D01*
X60443902Y-135902641D01*
X60417772Y-135893771D01*
X60174663Y-135811246D01*
X60174659Y-135811244D01*
X60170753Y-135809919D01*
X60166705Y-135809113D01*
X60166702Y-135809113D01*
X59891881Y-135754448D01*
X59891880Y-135754447D01*
X59887839Y-135753644D01*
X59883728Y-135753374D01*
X59883724Y-135753374D01*
X59604119Y-135735048D01*
X59600000Y-135734778D01*
X59595881Y-135735048D01*
X59316275Y-135753374D01*
X59316269Y-135753374D01*
X59312161Y-135753644D01*
X59308120Y-135754447D01*
X59308118Y-135754448D01*
X59033297Y-135809113D01*
X59033291Y-135809114D01*
X59029247Y-135809919D01*
X59025344Y-135811243D01*
X59025336Y-135811246D01*
X58759997Y-135901317D01*
X58759990Y-135901319D01*
X58756098Y-135902641D01*
X58752405Y-135904462D01*
X58752403Y-135904463D01*
X58501089Y-136028396D01*
X58501072Y-136028405D01*
X58497389Y-136030222D01*
X58493968Y-136032507D01*
X58493952Y-136032517D01*
X58469999Y-136048522D01*
X58424579Y-136067335D01*
X58375416Y-136067335D01*
X58329999Y-136048522D01*
X58302611Y-136030222D01*
X58298911Y-136028397D01*
X58298907Y-136028395D01*
X58123483Y-135941886D01*
X58043902Y-135902641D01*
X58017772Y-135893771D01*
X57774663Y-135811246D01*
X57774659Y-135811244D01*
X57770753Y-135809919D01*
X57766705Y-135809113D01*
X57766702Y-135809113D01*
X57491881Y-135754448D01*
X57491880Y-135754447D01*
X57487839Y-135753644D01*
X57483728Y-135753374D01*
X57483724Y-135753374D01*
X57204119Y-135735048D01*
X57200000Y-135734778D01*
X57195881Y-135735048D01*
X56916275Y-135753374D01*
X56916269Y-135753374D01*
X56912161Y-135753644D01*
X56908120Y-135754447D01*
X56908118Y-135754448D01*
X56633297Y-135809113D01*
X56633291Y-135809114D01*
X56629247Y-135809919D01*
X56625344Y-135811243D01*
X56625336Y-135811246D01*
X56359997Y-135901317D01*
X56359990Y-135901319D01*
X56356098Y-135902641D01*
X56352405Y-135904462D01*
X56352403Y-135904463D01*
X56101098Y-136028392D01*
X56101087Y-136028398D01*
X56097389Y-136030222D01*
X56093958Y-136032513D01*
X56093957Y-136032515D01*
X56005034Y-136091931D01*
X55959613Y-136110744D01*
X55910451Y-136110744D01*
X55865031Y-136091930D01*
X55806044Y-136052515D01*
X55806034Y-136052509D01*
X55802611Y-136050222D01*
X55798911Y-136048397D01*
X55798907Y-136048395D01*
X55644017Y-135972012D01*
X55543902Y-135922641D01*
X55536776Y-135920222D01*
X55274663Y-135831246D01*
X55274659Y-135831244D01*
X55270753Y-135829919D01*
X55266705Y-135829113D01*
X55266702Y-135829113D01*
X54991881Y-135774448D01*
X54991880Y-135774447D01*
X54987839Y-135773644D01*
X54983728Y-135773374D01*
X54983724Y-135773374D01*
X54704119Y-135755048D01*
X54700000Y-135754778D01*
X54695881Y-135755048D01*
X54416275Y-135773374D01*
X54416269Y-135773374D01*
X54412161Y-135773644D01*
X54408120Y-135774447D01*
X54408118Y-135774448D01*
X54133297Y-135829113D01*
X54133291Y-135829114D01*
X54129247Y-135829919D01*
X54125344Y-135831243D01*
X54125336Y-135831246D01*
X53859997Y-135921317D01*
X53859990Y-135921319D01*
X53856098Y-135922641D01*
X53852405Y-135924462D01*
X53852403Y-135924463D01*
X53625066Y-136036572D01*
X53565216Y-136049499D01*
X53506340Y-136032686D01*
X53506036Y-136032510D01*
X53502611Y-136030222D01*
X53243902Y-135902641D01*
X53217772Y-135893771D01*
X52974663Y-135811246D01*
X52974659Y-135811244D01*
X52970753Y-135809919D01*
X52966705Y-135809113D01*
X52966702Y-135809113D01*
X52691883Y-135754448D01*
X52691877Y-135754447D01*
X52687839Y-135753644D01*
X52683727Y-135753374D01*
X52683724Y-135753374D01*
X52660968Y-135751882D01*
X52617210Y-135740920D01*
X52580118Y-135715247D01*
X51497405Y-134632535D01*
X51470091Y-134591658D01*
X51460500Y-134543440D01*
X51460500Y-132500741D01*
X51474421Y-132443171D01*
X51513108Y-132398322D01*
X51568012Y-132376105D01*
X51627001Y-132381428D01*
X51825331Y-132448752D01*
X51825335Y-132448753D01*
X51829247Y-132450081D01*
X52112161Y-132506356D01*
X52400000Y-132525222D01*
X52687839Y-132506356D01*
X52970753Y-132450081D01*
X53243902Y-132357359D01*
X53474933Y-132243426D01*
X53534784Y-132230500D01*
X53593662Y-132247314D01*
X53593951Y-132247481D01*
X53597389Y-132249778D01*
X53856098Y-132377359D01*
X54129247Y-132470081D01*
X54412161Y-132526356D01*
X54700000Y-132545222D01*
X54987839Y-132526356D01*
X55270753Y-132470081D01*
X55543902Y-132377359D01*
X55802611Y-132249778D01*
X55894964Y-132188069D01*
X55940383Y-132169255D01*
X55989546Y-132169255D01*
X56034967Y-132188069D01*
X56041844Y-132192664D01*
X56097389Y-132229778D01*
X56356098Y-132357359D01*
X56629247Y-132450081D01*
X56912161Y-132506356D01*
X57200000Y-132525222D01*
X57487839Y-132506356D01*
X57770753Y-132450081D01*
X58043902Y-132357359D01*
X58302611Y-132229778D01*
X58329997Y-132211478D01*
X58375418Y-132192664D01*
X58424582Y-132192664D01*
X58470003Y-132211479D01*
X58493952Y-132227482D01*
X58493954Y-132227483D01*
X58497389Y-132229778D01*
X58756098Y-132357359D01*
X59029247Y-132450081D01*
X59312161Y-132506356D01*
X59600000Y-132525222D01*
X59887839Y-132506356D01*
X60170753Y-132450081D01*
X60443902Y-132357359D01*
X60702611Y-132229778D01*
X60722514Y-132216478D01*
X60767932Y-132197665D01*
X60817096Y-132197664D01*
X60862518Y-132216478D01*
X60897389Y-132239778D01*
X61156098Y-132367359D01*
X61429247Y-132460081D01*
X61712161Y-132516356D01*
X62000000Y-132535222D01*
X62287839Y-132516356D01*
X62570753Y-132460081D01*
X62843902Y-132367359D01*
X63102611Y-132239778D01*
X63342454Y-132079520D01*
X63559327Y-131889327D01*
X63749520Y-131672454D01*
X63909778Y-131432611D01*
X64037359Y-131173902D01*
X64130081Y-130900753D01*
X64186356Y-130617839D01*
X64205222Y-130330000D01*
X64186356Y-130042161D01*
X64130081Y-129759247D01*
X64047540Y-129516089D01*
X64038683Y-129489998D01*
X64038682Y-129489996D01*
X64037359Y-129486098D01*
X63983093Y-129376059D01*
X63980430Y-129370658D01*
X63967466Y-129317678D01*
X63978107Y-129264182D01*
X64010357Y-129220199D01*
X64090189Y-129150189D01*
X64289025Y-128923461D01*
X64456566Y-128672718D01*
X64470982Y-128643483D01*
X64504586Y-128601379D01*
X64552706Y-128577157D01*
X64606544Y-128575247D01*
X64656259Y-128595999D01*
X64738993Y-128653931D01*
X64748489Y-128659413D01*
X64945946Y-128751489D01*
X64956238Y-128755235D01*
X65166687Y-128811625D01*
X65177480Y-128813528D01*
X65394525Y-128832517D01*
X65405475Y-128832517D01*
X65622519Y-128813528D01*
X65633312Y-128811625D01*
X65849071Y-128753813D01*
X65849298Y-128754663D01*
X65898171Y-128748407D01*
X65950860Y-128765652D01*
X65991048Y-128803843D01*
X66013719Y-128837772D01*
X66070975Y-128923461D01*
X66269811Y-129150189D01*
X66496539Y-129349025D01*
X66747282Y-129516566D01*
X66811093Y-129548034D01*
X67008602Y-129645435D01*
X67017748Y-129649945D01*
X67303309Y-129746880D01*
X67599080Y-129805713D01*
X67900000Y-129825436D01*
X68200920Y-129805713D01*
X68496691Y-129746880D01*
X68782252Y-129649945D01*
X69004514Y-129540337D01*
X69070377Y-129527752D01*
X69123952Y-129547301D01*
X69125106Y-129545366D01*
X69334249Y-129669988D01*
X69334251Y-129669989D01*
X69338727Y-129672656D01*
X69570386Y-129763050D01*
X69813763Y-129814081D01*
X69917158Y-129820500D01*
X71680874Y-129820500D01*
X71682842Y-129820500D01*
X71786237Y-129814081D01*
X72029614Y-129763050D01*
X72041820Y-129758286D01*
X72092657Y-129749765D01*
X72142653Y-129762315D01*
X72179966Y-129791151D01*
X72180327Y-129790791D01*
X72182289Y-129792753D01*
X72182505Y-129793114D01*
X72183439Y-129793836D01*
X72187044Y-129798057D01*
X72186001Y-129798947D01*
X72213768Y-129845271D01*
X72216773Y-129906427D01*
X72214449Y-129918111D01*
X72214447Y-129918119D01*
X72213644Y-129922161D01*
X72213374Y-129926269D01*
X72213374Y-129926275D01*
X72202653Y-130089852D01*
X72194778Y-130210000D01*
X72195048Y-130214119D01*
X72212988Y-130487839D01*
X72213644Y-130497839D01*
X72214447Y-130501880D01*
X72214448Y-130501881D01*
X72268707Y-130774663D01*
X72269919Y-130780753D01*
X72271244Y-130784659D01*
X72271246Y-130784663D01*
X72359246Y-131043902D01*
X72362641Y-131053902D01*
X72369394Y-131067596D01*
X72486983Y-131306044D01*
X72490222Y-131312611D01*
X72650480Y-131552454D01*
X72840673Y-131769327D01*
X73057546Y-131959520D01*
X73297389Y-132119778D01*
X73556098Y-132247359D01*
X73829247Y-132340081D01*
X74112161Y-132396356D01*
X74400000Y-132415222D01*
X74687839Y-132396356D01*
X74970753Y-132340081D01*
X75243902Y-132247359D01*
X75502611Y-132119778D01*
X75503187Y-132120947D01*
X75555853Y-132105894D01*
X75615723Y-132118819D01*
X75676719Y-132148899D01*
X75843170Y-132230984D01*
X75856098Y-132237359D01*
X76129247Y-132330081D01*
X76412161Y-132386356D01*
X76700000Y-132405222D01*
X76987839Y-132386356D01*
X77270753Y-132330081D01*
X77543902Y-132237359D01*
X77794273Y-132113889D01*
X77850000Y-132100896D01*
X77905726Y-132113889D01*
X77976719Y-132148899D01*
X78143170Y-132230984D01*
X78156098Y-132237359D01*
X78429247Y-132330081D01*
X78712161Y-132386356D01*
X79000000Y-132405222D01*
X79287839Y-132386356D01*
X79570753Y-132330081D01*
X79843902Y-132237359D01*
X80084277Y-132118818D01*
X80144129Y-132105894D01*
X80196814Y-132120942D01*
X80197389Y-132119778D01*
X80456098Y-132247359D01*
X80729247Y-132340081D01*
X81012161Y-132396356D01*
X81300000Y-132415222D01*
X81587839Y-132396356D01*
X81870753Y-132340081D01*
X82143902Y-132247359D01*
X82402611Y-132119778D01*
X82403187Y-132120947D01*
X82455853Y-132105894D01*
X82515723Y-132118819D01*
X82576719Y-132148899D01*
X82743170Y-132230984D01*
X82756098Y-132237359D01*
X83029247Y-132330081D01*
X83312161Y-132386356D01*
X83600000Y-132405222D01*
X83887839Y-132386356D01*
X84170753Y-132330081D01*
X84443902Y-132237359D01*
X84702611Y-132109778D01*
X84942454Y-131949520D01*
X85159327Y-131759327D01*
X85349520Y-131542454D01*
X85509778Y-131302611D01*
X85637359Y-131043902D01*
X85730081Y-130770753D01*
X85786356Y-130487839D01*
X85805222Y-130200000D01*
X85786356Y-129912161D01*
X85730081Y-129629247D01*
X85637359Y-129356098D01*
X85509778Y-129097389D01*
X85432464Y-128981681D01*
X85408067Y-128945168D01*
X85389253Y-128899747D01*
X85389253Y-128850584D01*
X85408064Y-128805168D01*
X85496566Y-128672718D01*
X85500715Y-128664304D01*
X85534318Y-128622200D01*
X85582437Y-128597977D01*
X85636276Y-128596067D01*
X85685992Y-128616819D01*
X85738993Y-128653931D01*
X85748489Y-128659413D01*
X85945946Y-128751489D01*
X85956238Y-128755235D01*
X86166687Y-128811625D01*
X86177480Y-128813528D01*
X86394525Y-128832517D01*
X86405475Y-128832517D01*
X86622519Y-128813528D01*
X86633312Y-128811625D01*
X86849071Y-128753813D01*
X86849298Y-128754663D01*
X86898171Y-128748407D01*
X86950860Y-128765652D01*
X86991048Y-128803843D01*
X87013719Y-128837772D01*
X87070975Y-128923461D01*
X87269811Y-129150189D01*
X87496539Y-129349025D01*
X87747282Y-129516566D01*
X87811093Y-129548034D01*
X88008602Y-129645435D01*
X88017748Y-129649945D01*
X88303309Y-129746880D01*
X88599080Y-129805713D01*
X88900000Y-129825436D01*
X89200920Y-129805713D01*
X89496691Y-129746880D01*
X89782252Y-129649945D01*
X90028175Y-129528668D01*
X90094088Y-129516089D01*
X90157116Y-129539132D01*
X90161126Y-129541995D01*
X90165106Y-129545366D01*
X90226722Y-129582081D01*
X90374249Y-129669988D01*
X90374251Y-129669989D01*
X90378727Y-129672656D01*
X90610386Y-129763050D01*
X90853763Y-129814081D01*
X90957158Y-129820500D01*
X92268236Y-129820500D01*
X92322108Y-129832597D01*
X92365635Y-129866566D01*
X92390460Y-129915884D01*
X92391815Y-129971081D01*
X92384447Y-130008118D01*
X92384444Y-130008135D01*
X92383644Y-130012161D01*
X92383374Y-130016265D01*
X92383374Y-130016273D01*
X92366491Y-130273863D01*
X92364778Y-130300000D01*
X92365048Y-130304119D01*
X92378400Y-130507839D01*
X92383644Y-130587839D01*
X92384447Y-130591880D01*
X92384448Y-130591881D01*
X92420805Y-130774663D01*
X92439919Y-130870753D01*
X92441244Y-130874659D01*
X92441246Y-130874663D01*
X92506738Y-131067596D01*
X92532641Y-131143902D01*
X92549257Y-131177596D01*
X92610907Y-131302611D01*
X92660222Y-131402611D01*
X92820480Y-131642454D01*
X93010673Y-131859327D01*
X93227546Y-132049520D01*
X93467389Y-132209778D01*
X93726098Y-132337359D01*
X93999247Y-132430081D01*
X94282161Y-132486356D01*
X94570000Y-132505222D01*
X94857839Y-132486356D01*
X95140753Y-132430081D01*
X95413902Y-132337359D01*
X95672611Y-132209778D01*
X95754998Y-132154727D01*
X95800416Y-132135914D01*
X95849580Y-132135914D01*
X95895001Y-132154728D01*
X95901317Y-132158948D01*
X95977389Y-132209778D01*
X96236098Y-132337359D01*
X96509247Y-132430081D01*
X96792161Y-132486356D01*
X97080000Y-132505222D01*
X97367839Y-132486356D01*
X97650753Y-132430081D01*
X97923902Y-132337359D01*
X98182611Y-132209778D01*
X98264998Y-132154727D01*
X98310416Y-132135914D01*
X98359580Y-132135914D01*
X98405001Y-132154728D01*
X98411317Y-132158948D01*
X98487389Y-132209778D01*
X98746098Y-132337359D01*
X99019247Y-132430081D01*
X99302161Y-132486356D01*
X99590000Y-132505222D01*
X99877839Y-132486356D01*
X100160753Y-132430081D01*
X100433902Y-132337359D01*
X100692611Y-132209778D01*
X100774998Y-132154727D01*
X100820416Y-132135914D01*
X100869580Y-132135914D01*
X100915001Y-132154728D01*
X100921317Y-132158948D01*
X100997389Y-132209778D01*
X101256098Y-132337359D01*
X101529247Y-132430081D01*
X101812161Y-132486356D01*
X102100000Y-132505222D01*
X102387839Y-132486356D01*
X102670753Y-132430081D01*
X102943902Y-132337359D01*
X103202611Y-132209778D01*
X103293724Y-132148897D01*
X103355482Y-132127934D01*
X103419451Y-132140658D01*
X103468212Y-132164704D01*
X103656098Y-132257359D01*
X103929247Y-132350081D01*
X104212161Y-132406356D01*
X104500000Y-132425222D01*
X104787839Y-132406356D01*
X105070753Y-132350081D01*
X105343902Y-132257359D01*
X105602611Y-132129778D01*
X105842454Y-131969520D01*
X106059327Y-131779327D01*
X106249520Y-131562454D01*
X106409778Y-131322611D01*
X106537359Y-131063902D01*
X106630081Y-130790753D01*
X106686356Y-130507839D01*
X106705222Y-130220000D01*
X106686356Y-129932161D01*
X106630081Y-129649247D01*
X106537359Y-129376098D01*
X106409778Y-129117389D01*
X106371382Y-129059926D01*
X106352571Y-129014511D01*
X106352571Y-128965348D01*
X106371382Y-128919932D01*
X106536566Y-128672718D01*
X106567525Y-128609937D01*
X106612829Y-128559402D01*
X106677782Y-128539699D01*
X106743533Y-128556552D01*
G37*
G04 #@! TD.AperFunction*
G04 #@! TA.AperFunction,Conductor*
G36*
X64539525Y-122640912D02*
G01*
X64708487Y-122733172D01*
X64963199Y-122828175D01*
X65228840Y-122885961D01*
X65500000Y-122905355D01*
X65560901Y-122900999D01*
X65619075Y-122910675D01*
X65666475Y-122945763D01*
X65692716Y-122998577D01*
X65692049Y-123057548D01*
X65664621Y-123109755D01*
X65573699Y-123213431D01*
X65573687Y-123213446D01*
X65570975Y-123216539D01*
X65568690Y-123219958D01*
X65568679Y-123219973D01*
X65482380Y-123349127D01*
X65439023Y-123389148D01*
X65382199Y-123405041D01*
X65324370Y-123393321D01*
X65314055Y-123388511D01*
X65303756Y-123384762D01*
X65128001Y-123337669D01*
X65116591Y-123337296D01*
X65114000Y-123348411D01*
X65114000Y-124319337D01*
X65113729Y-124327578D01*
X65094564Y-124620000D01*
X65094834Y-124624119D01*
X65113730Y-124912422D01*
X65114000Y-124920663D01*
X65114000Y-125891589D01*
X65116591Y-125902703D01*
X65128001Y-125902330D01*
X65303761Y-125855235D01*
X65314052Y-125851489D01*
X65324365Y-125846681D01*
X65382196Y-125834958D01*
X65439022Y-125850851D01*
X65482382Y-125890873D01*
X65565902Y-126015869D01*
X65587090Y-126082435D01*
X65569563Y-126150057D01*
X65518707Y-126197950D01*
X65450156Y-126211392D01*
X65405475Y-126207483D01*
X65394525Y-126207483D01*
X65177480Y-126226471D01*
X65166687Y-126228374D01*
X64956238Y-126284764D01*
X64945946Y-126288510D01*
X64748489Y-126380586D01*
X64738987Y-126386072D01*
X64656258Y-126444000D01*
X64606544Y-126464752D01*
X64552706Y-126462842D01*
X64504587Y-126438621D01*
X64470982Y-126396515D01*
X64458392Y-126370985D01*
X64456566Y-126367282D01*
X64289025Y-126116539D01*
X64286302Y-126113434D01*
X64286299Y-126113430D01*
X64238015Y-126058373D01*
X64211780Y-126010554D01*
X64208213Y-125956127D01*
X64227978Y-125905297D01*
X64237620Y-125890867D01*
X64280977Y-125850849D01*
X64337804Y-125834957D01*
X64395634Y-125846680D01*
X64405946Y-125851489D01*
X64416241Y-125855236D01*
X64591998Y-125902330D01*
X64603408Y-125902703D01*
X64606000Y-125891589D01*
X64606000Y-124920663D01*
X64606270Y-124912422D01*
X64625166Y-124624119D01*
X64625436Y-124620000D01*
X64606270Y-124327578D01*
X64606000Y-124319337D01*
X64606000Y-123348411D01*
X64603408Y-123337296D01*
X64591998Y-123337669D01*
X64416243Y-123384762D01*
X64405934Y-123388515D01*
X64395628Y-123393321D01*
X64337799Y-123405042D01*
X64280974Y-123389148D01*
X64237617Y-123349127D01*
X64151317Y-123219969D01*
X64151315Y-123219967D01*
X64149025Y-123216539D01*
X63950189Y-122989811D01*
X63786468Y-122846231D01*
X63751916Y-122796654D01*
X63744420Y-122736690D01*
X63765707Y-122680133D01*
X63810880Y-122639992D01*
X63869547Y-122625500D01*
X64479140Y-122625500D01*
X64539525Y-122640912D01*
G37*
G04 #@! TD.AperFunction*
G04 #@! TA.AperFunction,Conductor*
G36*
X85539525Y-122640912D02*
G01*
X85708487Y-122733172D01*
X85963199Y-122828175D01*
X86228840Y-122885961D01*
X86500000Y-122905355D01*
X86560901Y-122900999D01*
X86619075Y-122910675D01*
X86666475Y-122945763D01*
X86692716Y-122998577D01*
X86692049Y-123057548D01*
X86664621Y-123109755D01*
X86573699Y-123213431D01*
X86573687Y-123213446D01*
X86570975Y-123216539D01*
X86568690Y-123219958D01*
X86568679Y-123219973D01*
X86482380Y-123349127D01*
X86439023Y-123389148D01*
X86382199Y-123405041D01*
X86324370Y-123393321D01*
X86314055Y-123388511D01*
X86303756Y-123384762D01*
X86128001Y-123337669D01*
X86116591Y-123337296D01*
X86114000Y-123348411D01*
X86114000Y-124319337D01*
X86113729Y-124327578D01*
X86094564Y-124620000D01*
X86094834Y-124624119D01*
X86113730Y-124912422D01*
X86114000Y-124920663D01*
X86114000Y-125891589D01*
X86116591Y-125902703D01*
X86128001Y-125902330D01*
X86303761Y-125855235D01*
X86314052Y-125851489D01*
X86324365Y-125846681D01*
X86382196Y-125834958D01*
X86439022Y-125850851D01*
X86482382Y-125890873D01*
X86565902Y-126015869D01*
X86587090Y-126082435D01*
X86569563Y-126150057D01*
X86518707Y-126197950D01*
X86450156Y-126211392D01*
X86405475Y-126207483D01*
X86394525Y-126207483D01*
X86177480Y-126226471D01*
X86166687Y-126228374D01*
X85956238Y-126284764D01*
X85945946Y-126288510D01*
X85748482Y-126380589D01*
X85739004Y-126386062D01*
X85685991Y-126423182D01*
X85636275Y-126443933D01*
X85582437Y-126442023D01*
X85534317Y-126417800D01*
X85500715Y-126375695D01*
X85496566Y-126367282D01*
X85382389Y-126196404D01*
X85331318Y-126119970D01*
X85331314Y-126119965D01*
X85329025Y-126116539D01*
X85305724Y-126089969D01*
X85275690Y-126055722D01*
X85246736Y-125996684D01*
X85251469Y-125931098D01*
X85288599Y-125876828D01*
X85348013Y-125848654D01*
X85410872Y-125854022D01*
X85410929Y-125853813D01*
X85412100Y-125854126D01*
X85413531Y-125854249D01*
X85416247Y-125855238D01*
X85591998Y-125902330D01*
X85603408Y-125902703D01*
X85606000Y-125891589D01*
X85606000Y-124920663D01*
X85606270Y-124912422D01*
X85625166Y-124624119D01*
X85625436Y-124620000D01*
X85606270Y-124327578D01*
X85606000Y-124319337D01*
X85606000Y-123348411D01*
X85603408Y-123337296D01*
X85591998Y-123337669D01*
X85416243Y-123384762D01*
X85405934Y-123388515D01*
X85395628Y-123393321D01*
X85337799Y-123405042D01*
X85280974Y-123389148D01*
X85237617Y-123349127D01*
X85151317Y-123219969D01*
X85151315Y-123219967D01*
X85149025Y-123216539D01*
X84950189Y-122989811D01*
X84786468Y-122846231D01*
X84751916Y-122796654D01*
X84744420Y-122736690D01*
X84765707Y-122680133D01*
X84810880Y-122639992D01*
X84869547Y-122625500D01*
X85479140Y-122625500D01*
X85539525Y-122640912D01*
G37*
G04 #@! TD.AperFunction*
G04 #@! TA.AperFunction,Conductor*
G36*
X128239525Y-122640912D02*
G01*
X128408487Y-122733172D01*
X128663199Y-122828175D01*
X128665426Y-122828659D01*
X128718610Y-122860266D01*
X128750385Y-122914091D01*
X128752384Y-122976562D01*
X128724116Y-123032308D01*
X128553699Y-123226631D01*
X128553687Y-123226646D01*
X128550975Y-123229739D01*
X128548690Y-123233158D01*
X128548679Y-123233173D01*
X128462380Y-123362327D01*
X128419023Y-123402348D01*
X128362199Y-123418241D01*
X128304370Y-123406521D01*
X128294055Y-123401711D01*
X128283756Y-123397962D01*
X128108001Y-123350869D01*
X128096591Y-123350496D01*
X128094000Y-123361611D01*
X128094000Y-124332537D01*
X128093729Y-124340778D01*
X128074564Y-124633200D01*
X128074834Y-124637319D01*
X128093730Y-124925622D01*
X128094000Y-124933863D01*
X128094000Y-125904789D01*
X128096990Y-125917614D01*
X128143213Y-125954300D01*
X128167568Y-126010479D01*
X128162564Y-126071505D01*
X128129384Y-126122967D01*
X128075862Y-126152711D01*
X127956239Y-126184764D01*
X127945946Y-126188510D01*
X127748489Y-126280586D01*
X127738987Y-126286072D01*
X127574170Y-126401478D01*
X127509236Y-126424051D01*
X127442118Y-126409180D01*
X127397987Y-126366331D01*
X127396566Y-126367282D01*
X127229025Y-126116539D01*
X127226308Y-126113441D01*
X127226299Y-126113429D01*
X127205724Y-126089969D01*
X127179488Y-126042150D01*
X127175920Y-125987723D01*
X127195687Y-125936892D01*
X127217619Y-125904068D01*
X127260975Y-125864050D01*
X127317800Y-125848157D01*
X127375630Y-125859879D01*
X127385941Y-125864687D01*
X127396241Y-125868436D01*
X127571998Y-125915530D01*
X127583408Y-125915903D01*
X127586000Y-125904789D01*
X127586000Y-124933863D01*
X127586270Y-124925622D01*
X127605166Y-124637319D01*
X127605436Y-124633200D01*
X127586270Y-124340778D01*
X127586000Y-124332537D01*
X127586000Y-123361611D01*
X127583408Y-123350496D01*
X127571998Y-123350869D01*
X127396243Y-123397962D01*
X127385934Y-123401715D01*
X127375628Y-123406521D01*
X127317799Y-123418242D01*
X127260974Y-123402348D01*
X127217617Y-123362327D01*
X127131317Y-123233169D01*
X127131315Y-123233167D01*
X127129025Y-123229739D01*
X126930189Y-123003011D01*
X126912048Y-122987102D01*
X126751418Y-122846232D01*
X126716865Y-122796654D01*
X126709369Y-122736690D01*
X126730656Y-122680133D01*
X126775829Y-122639992D01*
X126834496Y-122625500D01*
X128179140Y-122625500D01*
X128239525Y-122640912D01*
G37*
G04 #@! TD.AperFunction*
G04 #@! TA.AperFunction,Conductor*
G36*
X107039525Y-122640912D02*
G01*
X107208487Y-122733172D01*
X107463199Y-122828175D01*
X107614011Y-122860981D01*
X107671565Y-122890490D01*
X107706897Y-122944667D01*
X107710695Y-123009234D01*
X107681959Y-123067179D01*
X107553699Y-123213431D01*
X107553687Y-123213446D01*
X107550975Y-123216539D01*
X107548690Y-123219958D01*
X107548679Y-123219973D01*
X107462380Y-123349127D01*
X107419023Y-123389148D01*
X107362199Y-123405041D01*
X107304370Y-123393321D01*
X107294055Y-123388511D01*
X107283756Y-123384762D01*
X107108001Y-123337669D01*
X107096591Y-123337296D01*
X107094000Y-123348411D01*
X107094000Y-124319337D01*
X107093729Y-124327578D01*
X107074564Y-124620000D01*
X107074834Y-124624119D01*
X107093730Y-124912422D01*
X107094000Y-124920663D01*
X107094000Y-125891589D01*
X107096836Y-125903753D01*
X107113559Y-125911331D01*
X107161520Y-125949396D01*
X107185874Y-126005575D01*
X107180870Y-126066601D01*
X107147690Y-126118062D01*
X107094168Y-126147806D01*
X106956239Y-126184764D01*
X106945946Y-126188510D01*
X106748482Y-126280589D01*
X106739004Y-126286062D01*
X106669608Y-126334653D01*
X106607406Y-126357036D01*
X106542433Y-126344847D01*
X106492573Y-126301441D01*
X106373320Y-126122967D01*
X106369025Y-126116539D01*
X106366302Y-126113434D01*
X106366299Y-126113430D01*
X106334991Y-126077730D01*
X106306476Y-126020849D01*
X106309389Y-125957288D01*
X106342989Y-125903255D01*
X106398707Y-125872529D01*
X106462334Y-125872945D01*
X106571999Y-125902330D01*
X106583408Y-125902703D01*
X106586000Y-125891589D01*
X106586000Y-124920663D01*
X106586270Y-124912422D01*
X106605166Y-124624119D01*
X106605436Y-124620000D01*
X106586270Y-124327578D01*
X106586000Y-124319337D01*
X106586000Y-123348411D01*
X106583408Y-123337296D01*
X106571998Y-123337669D01*
X106396243Y-123384762D01*
X106385934Y-123388515D01*
X106375628Y-123393321D01*
X106317799Y-123405042D01*
X106260974Y-123389148D01*
X106217617Y-123349127D01*
X106131317Y-123219969D01*
X106131315Y-123219967D01*
X106129025Y-123216539D01*
X105930189Y-122989811D01*
X105766468Y-122846231D01*
X105731916Y-122796654D01*
X105724420Y-122736690D01*
X105745707Y-122680133D01*
X105790880Y-122639992D01*
X105849547Y-122625500D01*
X106979140Y-122625500D01*
X107039525Y-122640912D01*
G37*
G04 #@! TD.AperFunction*
G04 #@! TA.AperFunction,Conductor*
G36*
X139437000Y-90516881D02*
G01*
X139483119Y-90563000D01*
X139500000Y-90626000D01*
X139500000Y-116377568D01*
X139480885Y-116444289D01*
X139429339Y-116490765D01*
X139361002Y-116502896D01*
X139296609Y-116477000D01*
X139149411Y-116362431D01*
X139140718Y-116356752D01*
X138951957Y-116254599D01*
X138942440Y-116250424D01*
X138739442Y-116180735D01*
X138729372Y-116178185D01*
X138517664Y-116142857D01*
X138507316Y-116142000D01*
X138292684Y-116142000D01*
X138282335Y-116142857D01*
X138070627Y-116178185D01*
X138060557Y-116180735D01*
X137857559Y-116250424D01*
X137848042Y-116254599D01*
X137659277Y-116356754D01*
X137650591Y-116362428D01*
X137648445Y-116364098D01*
X137640210Y-116375465D01*
X137646979Y-116387769D01*
X138670114Y-117410904D01*
X138702726Y-117467388D01*
X138702725Y-117532611D01*
X138670114Y-117589095D01*
X138604370Y-117654838D01*
X138559658Y-117683666D01*
X138507035Y-117691472D01*
X138404121Y-117684727D01*
X138404119Y-117684727D01*
X138400000Y-117684457D01*
X138395881Y-117684727D01*
X138395880Y-117684727D01*
X138292962Y-117691472D01*
X138240338Y-117683666D01*
X138195627Y-117654837D01*
X137286861Y-116746071D01*
X137267066Y-116733572D01*
X137217037Y-116712311D01*
X137177133Y-116654354D01*
X137153964Y-116584435D01*
X137147807Y-116571232D01*
X137062488Y-116432908D01*
X137053441Y-116421467D01*
X136938532Y-116306558D01*
X136927091Y-116297511D01*
X136788767Y-116212192D01*
X136775564Y-116206035D01*
X136620846Y-116154767D01*
X136607488Y-116151907D01*
X136513692Y-116142325D01*
X136507303Y-116142000D01*
X136130590Y-116142000D01*
X136117506Y-116145506D01*
X136114000Y-116158590D01*
X136114000Y-117566576D01*
X136095719Y-117631941D01*
X136046181Y-117678339D01*
X135979760Y-117692306D01*
X135864121Y-117684727D01*
X135864119Y-117684727D01*
X135860000Y-117684457D01*
X135855881Y-117684727D01*
X135855879Y-117684727D01*
X135740240Y-117692306D01*
X135673819Y-117678339D01*
X135624281Y-117631941D01*
X135606000Y-117566576D01*
X135606000Y-116158590D01*
X135602493Y-116145506D01*
X135589410Y-116142000D01*
X135212697Y-116142000D01*
X135206307Y-116142325D01*
X135112511Y-116151907D01*
X135099153Y-116154767D01*
X134944435Y-116206035D01*
X134931232Y-116212192D01*
X134812147Y-116285645D01*
X134748748Y-116304374D01*
X134684594Y-116288428D01*
X134637342Y-116242196D01*
X134620000Y-116178404D01*
X134620000Y-115494616D01*
X134620388Y-115484730D01*
X134624638Y-115430730D01*
X134625026Y-115425800D01*
X134620000Y-115361937D01*
X134604952Y-115170730D01*
X134545222Y-114921940D01*
X134447309Y-114685557D01*
X134422889Y-114645707D01*
X134313623Y-114467400D01*
X134189060Y-114321556D01*
X134189060Y-114321555D01*
X134189046Y-114321540D01*
X134150669Y-114276606D01*
X134147456Y-114272844D01*
X134102493Y-114234442D01*
X134095241Y-114227737D01*
X129345071Y-109477567D01*
X129314853Y-109428973D01*
X129309244Y-109372024D01*
X129329399Y-109318474D01*
X129369960Y-109257772D01*
X129506238Y-108981427D01*
X129605280Y-108689659D01*
X129665391Y-108387460D01*
X129685543Y-108080000D01*
X129665391Y-107772540D01*
X129605280Y-107470341D01*
X129506238Y-107178573D01*
X129369960Y-106902229D01*
X129355105Y-106879997D01*
X129336294Y-106834579D01*
X129336295Y-106785416D01*
X129355108Y-106739998D01*
X129369960Y-106717772D01*
X129506238Y-106441427D01*
X129605280Y-106149659D01*
X129665391Y-105847460D01*
X129685543Y-105540000D01*
X129665391Y-105232540D01*
X129605280Y-104930341D01*
X129506238Y-104638573D01*
X129369960Y-104362229D01*
X129198778Y-104106036D01*
X128995620Y-103874380D01*
X128763964Y-103671222D01*
X128507772Y-103500040D01*
X128504072Y-103498215D01*
X128504068Y-103498213D01*
X128235125Y-103365585D01*
X128235116Y-103365581D01*
X128231427Y-103363762D01*
X127939659Y-103264720D01*
X127935619Y-103263916D01*
X127935614Y-103263915D01*
X127641502Y-103205413D01*
X127641501Y-103205412D01*
X127637460Y-103204609D01*
X127633349Y-103204339D01*
X127633345Y-103204339D01*
X127334119Y-103184727D01*
X127330000Y-103184457D01*
X127325881Y-103184727D01*
X127325879Y-103184727D01*
X127139093Y-103196969D01*
X127079604Y-103186346D01*
X127031903Y-103149245D01*
X127006963Y-103094201D01*
X127010521Y-103033875D01*
X127041756Y-102982146D01*
X128100752Y-101923150D01*
X128107991Y-101916458D01*
X128152956Y-101878056D01*
X128264582Y-101747359D01*
X128319123Y-101683500D01*
X128452809Y-101465343D01*
X128497421Y-101357638D01*
X128514815Y-101315646D01*
X128548148Y-101269129D01*
X128559327Y-101259327D01*
X128749520Y-101042454D01*
X128909778Y-100802611D01*
X129037359Y-100543902D01*
X129130081Y-100270753D01*
X129186356Y-99987839D01*
X129205222Y-99700000D01*
X129186356Y-99412161D01*
X129130081Y-99129247D01*
X129037359Y-98856098D01*
X128909778Y-98597389D01*
X128749520Y-98357546D01*
X128746799Y-98354443D01*
X128746795Y-98354438D01*
X128666768Y-98263184D01*
X128643576Y-98224490D01*
X128635500Y-98180107D01*
X128635500Y-97274831D01*
X128649421Y-97217261D01*
X128688108Y-97172412D01*
X128743012Y-97150195D01*
X128802001Y-97155518D01*
X128851770Y-97172412D01*
X128953309Y-97206880D01*
X129249080Y-97265713D01*
X129550000Y-97285436D01*
X129850920Y-97265713D01*
X130146691Y-97206880D01*
X130432252Y-97109945D01*
X130702718Y-96976566D01*
X130953461Y-96809025D01*
X131180189Y-96610189D01*
X131379025Y-96383461D01*
X131546566Y-96132718D01*
X131679945Y-95862252D01*
X131776880Y-95576691D01*
X131835713Y-95280920D01*
X131855436Y-94980000D01*
X131835713Y-94679080D01*
X131776880Y-94383309D01*
X131679945Y-94097748D01*
X131630630Y-93997748D01*
X131606429Y-93948672D01*
X131546566Y-93827282D01*
X131379025Y-93576539D01*
X131371330Y-93567765D01*
X134645788Y-93567765D01*
X134646290Y-93572332D01*
X134646291Y-93572344D01*
X134674910Y-93832444D01*
X134674911Y-93832453D01*
X134675414Y-93837018D01*
X134676576Y-93841463D01*
X134676577Y-93841468D01*
X134722509Y-94017158D01*
X134743928Y-94099088D01*
X134745725Y-94103318D01*
X134745728Y-94103325D01*
X134823934Y-94287358D01*
X134849870Y-94348390D01*
X134990982Y-94579610D01*
X135164255Y-94787820D01*
X135259177Y-94872870D01*
X135362561Y-94965503D01*
X135362565Y-94965506D01*
X135365998Y-94968582D01*
X135591910Y-95118044D01*
X135837176Y-95233020D01*
X136096569Y-95311060D01*
X136364561Y-95350500D01*
X136565330Y-95350500D01*
X136567631Y-95350500D01*
X136770156Y-95335677D01*
X137034553Y-95276780D01*
X137287558Y-95180014D01*
X137523777Y-95047441D01*
X137738177Y-94881888D01*
X137926186Y-94686881D01*
X138083799Y-94466579D01*
X138207656Y-94225675D01*
X138295118Y-93969305D01*
X138344319Y-93702933D01*
X138351975Y-93493439D01*
X138354044Y-93436837D01*
X138354043Y-93436834D01*
X138354212Y-93432235D01*
X138324586Y-93162982D01*
X138256072Y-92900912D01*
X138150130Y-92651610D01*
X138009018Y-92420390D01*
X137835745Y-92212180D01*
X137757850Y-92142386D01*
X137637438Y-92034496D01*
X137637432Y-92034491D01*
X137634002Y-92031418D01*
X137519698Y-91955795D01*
X137411925Y-91884493D01*
X137411922Y-91884491D01*
X137408090Y-91881956D01*
X137402441Y-91879308D01*
X137245312Y-91805649D01*
X137162824Y-91766980D01*
X137106731Y-91750104D01*
X136907843Y-91690267D01*
X136907838Y-91690265D01*
X136903431Y-91688940D01*
X136898874Y-91688269D01*
X136898868Y-91688268D01*
X136640000Y-91650171D01*
X136639996Y-91650170D01*
X136635439Y-91649500D01*
X136432369Y-91649500D01*
X136430098Y-91649666D01*
X136430076Y-91649667D01*
X136234438Y-91663986D01*
X136234427Y-91663987D01*
X136229844Y-91664323D01*
X136225353Y-91665323D01*
X136225349Y-91665324D01*
X135969939Y-91722219D01*
X135969934Y-91722220D01*
X135965447Y-91723220D01*
X135961149Y-91724863D01*
X135961145Y-91724865D01*
X135716746Y-91818339D01*
X135716735Y-91818343D01*
X135712442Y-91819986D01*
X135708434Y-91822235D01*
X135708422Y-91822241D01*
X135480232Y-91950308D01*
X135480221Y-91950314D01*
X135476223Y-91952559D01*
X135472589Y-91955364D01*
X135472586Y-91955367D01*
X135265466Y-92115298D01*
X135265458Y-92115305D01*
X135261823Y-92118112D01*
X135258632Y-92121421D01*
X135258625Y-92121428D01*
X135077011Y-92309802D01*
X135077004Y-92309809D01*
X135073814Y-92313119D01*
X135071136Y-92316861D01*
X135071131Y-92316868D01*
X134918885Y-92529668D01*
X134918878Y-92529677D01*
X134916201Y-92533421D01*
X134914097Y-92537512D01*
X134914091Y-92537523D01*
X134795221Y-92768729D01*
X134792344Y-92774325D01*
X134790856Y-92778684D01*
X134790854Y-92778691D01*
X134706371Y-93026327D01*
X134706367Y-93026341D01*
X134704882Y-93030695D01*
X134704044Y-93035228D01*
X134704044Y-93035231D01*
X134656517Y-93292537D01*
X134656515Y-93292546D01*
X134655681Y-93297067D01*
X134655513Y-93301656D01*
X134655512Y-93301668D01*
X134646401Y-93550985D01*
X134645788Y-93567765D01*
X131371330Y-93567765D01*
X131180189Y-93349811D01*
X130953461Y-93150975D01*
X130702718Y-92983434D01*
X130699018Y-92981609D01*
X130699014Y-92981607D01*
X130435950Y-92851878D01*
X130435941Y-92851874D01*
X130432252Y-92850055D01*
X130273132Y-92796041D01*
X130150604Y-92754448D01*
X130150599Y-92754446D01*
X130146691Y-92753120D01*
X130142646Y-92752315D01*
X130142641Y-92752314D01*
X129854959Y-92695090D01*
X129854952Y-92695089D01*
X129850920Y-92694287D01*
X129846813Y-92694017D01*
X129846807Y-92694017D01*
X129554119Y-92674834D01*
X129550000Y-92674564D01*
X129545881Y-92674834D01*
X129545880Y-92674834D01*
X129283590Y-92692025D01*
X129227131Y-92682704D01*
X129180617Y-92649372D01*
X129153642Y-92598906D01*
X129151770Y-92541714D01*
X129155781Y-92521551D01*
X129186356Y-92367839D01*
X129205222Y-92080000D01*
X129186356Y-91792161D01*
X129130081Y-91509247D01*
X129037359Y-91236098D01*
X128909778Y-90977389D01*
X128749520Y-90737546D01*
X128746797Y-90734441D01*
X128746794Y-90734437D01*
X128724555Y-90709078D01*
X128697579Y-90658612D01*
X128695707Y-90601419D01*
X128719323Y-90549296D01*
X128763558Y-90512994D01*
X128819286Y-90500000D01*
X139374000Y-90500000D01*
X139437000Y-90516881D01*
G37*
G04 #@! TD.AperFunction*
G04 #@! TA.AperFunction,Conductor*
G36*
X53027672Y-90512994D02*
G01*
X53071907Y-90549296D01*
X53095523Y-90601419D01*
X53093651Y-90658611D01*
X53066676Y-90709078D01*
X53053198Y-90724446D01*
X53053193Y-90724451D01*
X53050480Y-90727546D01*
X53048190Y-90730972D01*
X53048187Y-90730977D01*
X52892516Y-90963955D01*
X52892512Y-90963960D01*
X52890222Y-90967389D01*
X52888401Y-90971081D01*
X52888395Y-90971092D01*
X52808846Y-91132403D01*
X52762641Y-91226098D01*
X52761319Y-91229990D01*
X52761317Y-91229997D01*
X52671243Y-91495343D01*
X52671238Y-91495360D01*
X52669919Y-91499247D01*
X52669115Y-91503283D01*
X52668385Y-91506013D01*
X52643200Y-91554392D01*
X52599928Y-91587595D01*
X52546679Y-91599400D01*
X52345077Y-91599400D01*
X52330627Y-91598569D01*
X52310124Y-91596202D01*
X52310123Y-91596201D01*
X52305325Y-91595648D01*
X52300497Y-91595833D01*
X52209838Y-91599308D01*
X52205012Y-91599400D01*
X52174823Y-91599400D01*
X52172440Y-91599582D01*
X52172437Y-91599583D01*
X52164657Y-91600180D01*
X52144714Y-91601711D01*
X52139919Y-91601986D01*
X52049242Y-91605462D01*
X52049220Y-91605464D01*
X52044407Y-91605649D01*
X52039677Y-91606566D01*
X52039662Y-91606568D01*
X52019394Y-91610499D01*
X52005060Y-91612433D01*
X51984473Y-91614014D01*
X51984470Y-91614014D01*
X51979656Y-91614384D01*
X51974961Y-91615482D01*
X51974952Y-91615484D01*
X51886597Y-91636160D01*
X51881878Y-91637169D01*
X51792813Y-91654442D01*
X51792804Y-91654444D01*
X51788073Y-91655362D01*
X51783538Y-91656990D01*
X51783526Y-91656994D01*
X51764089Y-91663975D01*
X51750217Y-91668074D01*
X51725414Y-91673879D01*
X51720942Y-91675681D01*
X51720924Y-91675687D01*
X51636792Y-91709595D01*
X51632284Y-91711312D01*
X51546877Y-91741987D01*
X51546858Y-91741995D01*
X51542332Y-91743621D01*
X51538103Y-91745920D01*
X51538093Y-91745925D01*
X51519942Y-91755795D01*
X51506860Y-91761963D01*
X51487718Y-91769678D01*
X51487710Y-91769681D01*
X51483234Y-91771486D01*
X51479085Y-91773952D01*
X51479072Y-91773959D01*
X51401084Y-91820323D01*
X51396891Y-91822709D01*
X51371148Y-91836708D01*
X51312943Y-91868359D01*
X51309103Y-91871285D01*
X51309095Y-91871291D01*
X51292675Y-91883806D01*
X51280696Y-91891894D01*
X51262942Y-91902450D01*
X51262936Y-91902453D01*
X51258792Y-91904918D01*
X51255075Y-91907982D01*
X51255064Y-91907991D01*
X51185071Y-91965714D01*
X51181290Y-91968712D01*
X51109131Y-92023717D01*
X51109126Y-92023720D01*
X51105284Y-92026650D01*
X51101938Y-92030125D01*
X51101924Y-92030139D01*
X51087605Y-92045017D01*
X51076994Y-92054845D01*
X51061072Y-92067976D01*
X51061066Y-92067981D01*
X51057348Y-92071048D01*
X51054142Y-92074644D01*
X51054135Y-92074652D01*
X50993770Y-92142386D01*
X50990492Y-92145925D01*
X50927569Y-92211307D01*
X50927562Y-92211315D01*
X50924222Y-92214786D01*
X50921447Y-92218730D01*
X50921442Y-92218737D01*
X50909562Y-92235625D01*
X50900579Y-92246953D01*
X50886839Y-92262371D01*
X50886826Y-92262387D01*
X50883625Y-92265980D01*
X50881003Y-92270028D01*
X50880999Y-92270034D01*
X50831673Y-92346200D01*
X50828974Y-92350197D01*
X50776783Y-92424398D01*
X50776772Y-92424415D01*
X50774001Y-92428356D01*
X50771862Y-92432674D01*
X50771857Y-92432684D01*
X50762693Y-92451192D01*
X50755541Y-92463764D01*
X50744316Y-92481097D01*
X50744312Y-92481103D01*
X50741694Y-92485147D01*
X50739722Y-92489544D01*
X50739718Y-92489553D01*
X50706434Y-92563800D01*
X50685567Y-92596041D01*
X50655957Y-92620498D01*
X50569575Y-92671970D01*
X50569566Y-92671976D01*
X50565106Y-92674634D01*
X50561138Y-92677994D01*
X50561132Y-92677999D01*
X50379322Y-92831985D01*
X50379316Y-92831990D01*
X50375350Y-92835350D01*
X50371990Y-92839316D01*
X50371985Y-92839322D01*
X50218004Y-93021126D01*
X50217999Y-93021132D01*
X50214634Y-93025106D01*
X50211969Y-93029578D01*
X50211965Y-93029584D01*
X50090011Y-93234249D01*
X50090005Y-93234261D01*
X50087344Y-93238727D01*
X50085451Y-93243576D01*
X50085448Y-93243584D01*
X49998847Y-93465522D01*
X49998843Y-93465532D01*
X49996950Y-93470386D01*
X49995881Y-93475483D01*
X49995878Y-93475494D01*
X49946854Y-93709301D01*
X49946852Y-93709308D01*
X49945919Y-93713763D01*
X49945637Y-93718298D01*
X49945636Y-93718309D01*
X49939621Y-93815195D01*
X49939620Y-93815222D01*
X49939500Y-93817158D01*
X49939500Y-95582842D01*
X49939620Y-95584778D01*
X49939621Y-95584804D01*
X49945636Y-95681690D01*
X49945637Y-95681699D01*
X49945919Y-95686237D01*
X49946853Y-95690692D01*
X49946854Y-95690698D01*
X49984458Y-95870041D01*
X49981902Y-95931851D01*
X49950235Y-95984993D01*
X46925689Y-99009539D01*
X46912991Y-99020641D01*
X46910530Y-99022516D01*
X46910513Y-99022530D01*
X46906684Y-99025450D01*
X46903345Y-99028918D01*
X46903333Y-99028930D01*
X46828284Y-99106911D01*
X46826597Y-99108631D01*
X46794590Y-99140639D01*
X46794578Y-99140651D01*
X46792878Y-99142352D01*
X46791321Y-99144167D01*
X46791293Y-99144198D01*
X46784614Y-99151987D01*
X46779760Y-99157329D01*
X46728973Y-99210102D01*
X46728961Y-99210116D01*
X46725622Y-99213586D01*
X46722855Y-99217519D01*
X46722844Y-99217533D01*
X46700869Y-99248774D01*
X46693471Y-99258288D01*
X46668614Y-99287280D01*
X46668600Y-99287299D01*
X46665469Y-99290951D01*
X46662925Y-99295048D01*
X46662920Y-99295056D01*
X46624297Y-99357276D01*
X46620307Y-99363311D01*
X46575401Y-99427156D01*
X46573262Y-99431473D01*
X46573254Y-99431489D01*
X46556310Y-99465708D01*
X46550452Y-99476240D01*
X46530312Y-99508688D01*
X46527762Y-99512797D01*
X46525869Y-99517245D01*
X46525869Y-99517246D01*
X46497206Y-99584611D01*
X46494182Y-99591187D01*
X46461686Y-99656817D01*
X46461677Y-99656837D01*
X46459541Y-99661153D01*
X46458084Y-99665755D01*
X46458081Y-99665764D01*
X46446560Y-99702168D01*
X46442375Y-99713478D01*
X46427428Y-99748608D01*
X46427423Y-99748620D01*
X46425534Y-99753062D01*
X46424345Y-99757736D01*
X46424343Y-99757743D01*
X46406293Y-99828720D01*
X46404308Y-99835679D01*
X46382217Y-99905483D01*
X46382212Y-99905501D01*
X46380759Y-99910095D01*
X46380023Y-99914856D01*
X46380021Y-99914867D01*
X46374191Y-99952608D01*
X46371782Y-99964420D01*
X46362371Y-100001431D01*
X46362369Y-100001441D01*
X46361180Y-100006118D01*
X46360719Y-100010914D01*
X46360717Y-100010927D01*
X46353715Y-100083812D01*
X46352816Y-100090994D01*
X46341637Y-100163368D01*
X46341636Y-100163379D01*
X46340900Y-100168145D01*
X46340900Y-100172974D01*
X46340900Y-100211171D01*
X46340322Y-100223221D01*
X46336671Y-100261217D01*
X46336670Y-100261224D01*
X46336209Y-100266032D01*
X46336486Y-100270849D01*
X46336486Y-100270857D01*
X46340692Y-100343956D01*
X46340900Y-100351193D01*
X46340900Y-115542040D01*
X46331309Y-115590258D01*
X46303995Y-115631135D01*
X44280746Y-117654382D01*
X44243650Y-117680057D01*
X44199888Y-117691017D01*
X44192958Y-117691471D01*
X44140336Y-117683664D01*
X44095626Y-117654836D01*
X43186861Y-116746071D01*
X43167066Y-116733572D01*
X43117037Y-116712311D01*
X43077133Y-116654354D01*
X43053964Y-116584435D01*
X43047807Y-116571232D01*
X42962488Y-116432908D01*
X42953441Y-116421467D01*
X42907439Y-116375465D01*
X43540210Y-116375465D01*
X43546979Y-116387769D01*
X44288270Y-117129060D01*
X44299999Y-117135832D01*
X44311730Y-117129059D01*
X45053022Y-116387766D01*
X45059788Y-116375466D01*
X45051551Y-116364096D01*
X45049411Y-116362431D01*
X45040720Y-116356753D01*
X44851957Y-116254599D01*
X44842440Y-116250424D01*
X44639442Y-116180735D01*
X44629372Y-116178185D01*
X44417664Y-116142857D01*
X44407316Y-116142000D01*
X44192684Y-116142000D01*
X44182335Y-116142857D01*
X43970627Y-116178185D01*
X43960557Y-116180735D01*
X43757559Y-116250424D01*
X43748042Y-116254599D01*
X43559277Y-116356754D01*
X43550591Y-116362428D01*
X43548445Y-116364098D01*
X43540210Y-116375465D01*
X42907439Y-116375465D01*
X42838532Y-116306558D01*
X42827091Y-116297511D01*
X42688767Y-116212192D01*
X42675564Y-116206035D01*
X42520846Y-116154767D01*
X42507488Y-116151907D01*
X42413692Y-116142325D01*
X42407303Y-116142000D01*
X42030590Y-116142000D01*
X42017506Y-116145506D01*
X42014000Y-116158590D01*
X42014000Y-117566576D01*
X41995719Y-117631941D01*
X41946181Y-117678339D01*
X41879760Y-117692306D01*
X41764121Y-117684727D01*
X41764119Y-117684727D01*
X41760000Y-117684457D01*
X41755881Y-117684727D01*
X41755879Y-117684727D01*
X41640240Y-117692306D01*
X41573819Y-117678339D01*
X41524281Y-117631941D01*
X41506000Y-117566576D01*
X41506000Y-116158590D01*
X41502493Y-116145506D01*
X41489410Y-116142000D01*
X41112697Y-116142000D01*
X41106307Y-116142325D01*
X41012511Y-116151907D01*
X40999153Y-116154767D01*
X40844435Y-116206035D01*
X40831232Y-116212192D01*
X40692147Y-116297981D01*
X40628748Y-116316710D01*
X40564594Y-116300764D01*
X40517342Y-116254532D01*
X40500000Y-116190740D01*
X40500000Y-93567765D01*
X41645788Y-93567765D01*
X41646290Y-93572332D01*
X41646291Y-93572344D01*
X41674910Y-93832444D01*
X41674911Y-93832453D01*
X41675414Y-93837018D01*
X41676576Y-93841463D01*
X41676577Y-93841468D01*
X41722509Y-94017158D01*
X41743928Y-94099088D01*
X41745725Y-94103318D01*
X41745728Y-94103325D01*
X41823934Y-94287358D01*
X41849870Y-94348390D01*
X41990982Y-94579610D01*
X42164255Y-94787820D01*
X42259177Y-94872870D01*
X42362561Y-94965503D01*
X42362565Y-94965506D01*
X42365998Y-94968582D01*
X42591910Y-95118044D01*
X42837176Y-95233020D01*
X43096569Y-95311060D01*
X43364561Y-95350500D01*
X43565330Y-95350500D01*
X43567631Y-95350500D01*
X43770156Y-95335677D01*
X44034553Y-95276780D01*
X44287558Y-95180014D01*
X44523777Y-95047441D01*
X44738177Y-94881888D01*
X44926186Y-94686881D01*
X45083799Y-94466579D01*
X45207656Y-94225675D01*
X45295118Y-93969305D01*
X45344319Y-93702933D01*
X45351975Y-93493439D01*
X45354044Y-93436837D01*
X45354043Y-93436834D01*
X45354212Y-93432235D01*
X45324586Y-93162982D01*
X45256072Y-92900912D01*
X45150130Y-92651610D01*
X45009018Y-92420390D01*
X44835745Y-92212180D01*
X44757850Y-92142386D01*
X44637438Y-92034496D01*
X44637432Y-92034491D01*
X44634002Y-92031418D01*
X44519698Y-91955795D01*
X44411925Y-91884493D01*
X44411922Y-91884491D01*
X44408090Y-91881956D01*
X44402441Y-91879308D01*
X44245312Y-91805649D01*
X44162824Y-91766980D01*
X44106731Y-91750104D01*
X43907843Y-91690267D01*
X43907838Y-91690265D01*
X43903431Y-91688940D01*
X43898874Y-91688269D01*
X43898868Y-91688268D01*
X43640000Y-91650171D01*
X43639996Y-91650170D01*
X43635439Y-91649500D01*
X43432369Y-91649500D01*
X43430098Y-91649666D01*
X43430076Y-91649667D01*
X43234438Y-91663986D01*
X43234427Y-91663987D01*
X43229844Y-91664323D01*
X43225353Y-91665323D01*
X43225349Y-91665324D01*
X42969939Y-91722219D01*
X42969934Y-91722220D01*
X42965447Y-91723220D01*
X42961149Y-91724863D01*
X42961145Y-91724865D01*
X42716746Y-91818339D01*
X42716735Y-91818343D01*
X42712442Y-91819986D01*
X42708434Y-91822235D01*
X42708422Y-91822241D01*
X42480232Y-91950308D01*
X42480221Y-91950314D01*
X42476223Y-91952559D01*
X42472589Y-91955364D01*
X42472586Y-91955367D01*
X42265466Y-92115298D01*
X42265458Y-92115305D01*
X42261823Y-92118112D01*
X42258632Y-92121421D01*
X42258625Y-92121428D01*
X42077011Y-92309802D01*
X42077004Y-92309809D01*
X42073814Y-92313119D01*
X42071136Y-92316861D01*
X42071131Y-92316868D01*
X41918885Y-92529668D01*
X41918878Y-92529677D01*
X41916201Y-92533421D01*
X41914097Y-92537512D01*
X41914091Y-92537523D01*
X41795221Y-92768729D01*
X41792344Y-92774325D01*
X41790856Y-92778684D01*
X41790854Y-92778691D01*
X41706371Y-93026327D01*
X41706367Y-93026341D01*
X41704882Y-93030695D01*
X41704044Y-93035228D01*
X41704044Y-93035231D01*
X41656517Y-93292537D01*
X41656515Y-93292546D01*
X41655681Y-93297067D01*
X41655513Y-93301656D01*
X41655512Y-93301668D01*
X41646401Y-93550985D01*
X41645788Y-93567765D01*
X40500000Y-93567765D01*
X40500000Y-90626000D01*
X40516881Y-90563000D01*
X40563000Y-90516881D01*
X40626000Y-90500000D01*
X52971944Y-90500000D01*
X53027672Y-90512994D01*
G37*
G04 #@! TD.AperFunction*
G04 #@! TA.AperFunction,Conductor*
G36*
X117706442Y-90512994D02*
G01*
X117750677Y-90549296D01*
X117774293Y-90601419D01*
X117772421Y-90658612D01*
X117745445Y-90709078D01*
X117723205Y-90734437D01*
X117723194Y-90734450D01*
X117720480Y-90737546D01*
X117718190Y-90740972D01*
X117718187Y-90740977D01*
X117562516Y-90973955D01*
X117562512Y-90973960D01*
X117560222Y-90977389D01*
X117558401Y-90981081D01*
X117558395Y-90981092D01*
X117434463Y-91232403D01*
X117432641Y-91236098D01*
X117431319Y-91239990D01*
X117431317Y-91239997D01*
X117341246Y-91505336D01*
X117341243Y-91505344D01*
X117339919Y-91509247D01*
X117339114Y-91513291D01*
X117339113Y-91513297D01*
X117319006Y-91614384D01*
X117286819Y-91776202D01*
X117286465Y-91777981D01*
X117262849Y-91830104D01*
X117218614Y-91866406D01*
X117162886Y-91879400D01*
X116955077Y-91879400D01*
X116940627Y-91878569D01*
X116920124Y-91876202D01*
X116920123Y-91876201D01*
X116915325Y-91875648D01*
X116910497Y-91875833D01*
X116819838Y-91879308D01*
X116815012Y-91879400D01*
X116784823Y-91879400D01*
X116782440Y-91879582D01*
X116782437Y-91879583D01*
X116776980Y-91880002D01*
X116754714Y-91881711D01*
X116749919Y-91881986D01*
X116659242Y-91885462D01*
X116659220Y-91885464D01*
X116654407Y-91885649D01*
X116649677Y-91886566D01*
X116649662Y-91886568D01*
X116629394Y-91890499D01*
X116615060Y-91892433D01*
X116594473Y-91894014D01*
X116594470Y-91894014D01*
X116589656Y-91894384D01*
X116584961Y-91895482D01*
X116584952Y-91895484D01*
X116496597Y-91916160D01*
X116491878Y-91917169D01*
X116402813Y-91934442D01*
X116402804Y-91934444D01*
X116398073Y-91935362D01*
X116393538Y-91936990D01*
X116393526Y-91936994D01*
X116374089Y-91943975D01*
X116360217Y-91948074D01*
X116335414Y-91953879D01*
X116330942Y-91955681D01*
X116330924Y-91955687D01*
X116246792Y-91989595D01*
X116242284Y-91991312D01*
X116156877Y-92021987D01*
X116156858Y-92021995D01*
X116152332Y-92023621D01*
X116148103Y-92025920D01*
X116148093Y-92025925D01*
X116129942Y-92035795D01*
X116116860Y-92041963D01*
X116097718Y-92049678D01*
X116097710Y-92049681D01*
X116093234Y-92051486D01*
X116089085Y-92053952D01*
X116089072Y-92053959D01*
X116011084Y-92100323D01*
X116006891Y-92102709D01*
X115922943Y-92148359D01*
X115919103Y-92151285D01*
X115919095Y-92151291D01*
X115902675Y-92163806D01*
X115890696Y-92171894D01*
X115872942Y-92182450D01*
X115872936Y-92182453D01*
X115868792Y-92184918D01*
X115865075Y-92187982D01*
X115865064Y-92187991D01*
X115795071Y-92245714D01*
X115791290Y-92248712D01*
X115719131Y-92303717D01*
X115719126Y-92303720D01*
X115715284Y-92306650D01*
X115711938Y-92310125D01*
X115711924Y-92310139D01*
X115697605Y-92325017D01*
X115686994Y-92334845D01*
X115671072Y-92347976D01*
X115671066Y-92347981D01*
X115667348Y-92351048D01*
X115664142Y-92354644D01*
X115664135Y-92354652D01*
X115603770Y-92422386D01*
X115600492Y-92425925D01*
X115537569Y-92491307D01*
X115537562Y-92491315D01*
X115534222Y-92494786D01*
X115531447Y-92498730D01*
X115531442Y-92498737D01*
X115519562Y-92515625D01*
X115510579Y-92526953D01*
X115496839Y-92542371D01*
X115496826Y-92542387D01*
X115493625Y-92545980D01*
X115491003Y-92550028D01*
X115490999Y-92550034D01*
X115441673Y-92626200D01*
X115438974Y-92630197D01*
X115386783Y-92704398D01*
X115386772Y-92704415D01*
X115384001Y-92708356D01*
X115381862Y-92712674D01*
X115381857Y-92712684D01*
X115372693Y-92731192D01*
X115365541Y-92743764D01*
X115354316Y-92761097D01*
X115354312Y-92761103D01*
X115351694Y-92765147D01*
X115349722Y-92769544D01*
X115349718Y-92769553D01*
X115316434Y-92843800D01*
X115295567Y-92876041D01*
X115265957Y-92900498D01*
X115179575Y-92951970D01*
X115179566Y-92951976D01*
X115175106Y-92954634D01*
X115171138Y-92957994D01*
X115171132Y-92957999D01*
X114989322Y-93111985D01*
X114989316Y-93111990D01*
X114985350Y-93115350D01*
X114981990Y-93119316D01*
X114981985Y-93119322D01*
X114828004Y-93301126D01*
X114827999Y-93301132D01*
X114824634Y-93305106D01*
X114821969Y-93309578D01*
X114821965Y-93309584D01*
X114700011Y-93514249D01*
X114700005Y-93514261D01*
X114697344Y-93518727D01*
X114695451Y-93523576D01*
X114695448Y-93523584D01*
X114608847Y-93745522D01*
X114608843Y-93745532D01*
X114606950Y-93750386D01*
X114605881Y-93755483D01*
X114605878Y-93755494D01*
X114556854Y-93989301D01*
X114556852Y-93989308D01*
X114555919Y-93993763D01*
X114555637Y-93998298D01*
X114555636Y-93998309D01*
X114549621Y-94095195D01*
X114549620Y-94095222D01*
X114549500Y-94097158D01*
X114549500Y-95862842D01*
X114549620Y-95864778D01*
X114549621Y-95864804D01*
X114555636Y-95961690D01*
X114555637Y-95961699D01*
X114555919Y-95966237D01*
X114556853Y-95970692D01*
X114556854Y-95970698D01*
X114605878Y-96204505D01*
X114605880Y-96204513D01*
X114606950Y-96209614D01*
X114608845Y-96214470D01*
X114608847Y-96214477D01*
X114695448Y-96436415D01*
X114697344Y-96441273D01*
X114700007Y-96445743D01*
X114700011Y-96445750D01*
X114799609Y-96612897D01*
X114824634Y-96654894D01*
X114828003Y-96658872D01*
X114828004Y-96658873D01*
X114900654Y-96744650D01*
X114985350Y-96844650D01*
X115175106Y-97005366D01*
X115259272Y-97055518D01*
X115384249Y-97129988D01*
X115384251Y-97129989D01*
X115388727Y-97132656D01*
X115620386Y-97223050D01*
X115863763Y-97274081D01*
X115967158Y-97280500D01*
X115969126Y-97280500D01*
X117718500Y-97280500D01*
X117781500Y-97297381D01*
X117827619Y-97343500D01*
X117844500Y-97406500D01*
X117844500Y-98168705D01*
X117836424Y-98213089D01*
X117813232Y-98251783D01*
X117723198Y-98354446D01*
X117723193Y-98354451D01*
X117720480Y-98357546D01*
X117718190Y-98360972D01*
X117718187Y-98360977D01*
X117562516Y-98593955D01*
X117562512Y-98593960D01*
X117560222Y-98597389D01*
X117558401Y-98601081D01*
X117558395Y-98601092D01*
X117434463Y-98852403D01*
X117432641Y-98856098D01*
X117431319Y-98859990D01*
X117431317Y-98859997D01*
X117341246Y-99125336D01*
X117341243Y-99125344D01*
X117339919Y-99129247D01*
X117339114Y-99133291D01*
X117339113Y-99133297D01*
X117304339Y-99308118D01*
X117283644Y-99412161D01*
X117283374Y-99416269D01*
X117283374Y-99416275D01*
X117282920Y-99423208D01*
X117264778Y-99700000D01*
X117265048Y-99704119D01*
X117282988Y-99977839D01*
X117283644Y-99987839D01*
X117284447Y-99991880D01*
X117284448Y-99991881D01*
X117329267Y-100217205D01*
X117339919Y-100270753D01*
X117341244Y-100274657D01*
X117341246Y-100274663D01*
X117398695Y-100443902D01*
X117432641Y-100543902D01*
X117439394Y-100557596D01*
X117510907Y-100702611D01*
X117560222Y-100802611D01*
X117720480Y-101042454D01*
X117910673Y-101259327D01*
X118127546Y-101449520D01*
X118367389Y-101609778D01*
X118371093Y-101611604D01*
X118371092Y-101611604D01*
X118495187Y-101672801D01*
X118539170Y-101708776D01*
X118562874Y-101760417D01*
X118561480Y-101817221D01*
X118535271Y-101867635D01*
X118515440Y-101890855D01*
X118515440Y-101890856D01*
X118390877Y-102036700D01*
X118388293Y-102040916D01*
X118388287Y-102040925D01*
X118304345Y-102177909D01*
X118259777Y-102250636D01*
X118259773Y-102250642D01*
X118257191Y-102254857D01*
X118255298Y-102259426D01*
X118255296Y-102259431D01*
X118161172Y-102486666D01*
X118161169Y-102486672D01*
X118159278Y-102491240D01*
X118158124Y-102496043D01*
X118158122Y-102496052D01*
X118100703Y-102735217D01*
X118100702Y-102735223D01*
X118099548Y-102740030D01*
X118099160Y-102744953D01*
X118099159Y-102744963D01*
X118095497Y-102791500D01*
X118087325Y-102895343D01*
X118079474Y-102995100D01*
X118079862Y-103000030D01*
X118084112Y-103054030D01*
X118084500Y-103063916D01*
X118084500Y-103192367D01*
X118070579Y-103249937D01*
X118031892Y-103294786D01*
X117976988Y-103317003D01*
X117917999Y-103311680D01*
X117783565Y-103266046D01*
X117783566Y-103266046D01*
X117779659Y-103264720D01*
X117775619Y-103263916D01*
X117775614Y-103263915D01*
X117481502Y-103205413D01*
X117481501Y-103205412D01*
X117477460Y-103204609D01*
X117473349Y-103204339D01*
X117473345Y-103204339D01*
X117174119Y-103184727D01*
X117170000Y-103184457D01*
X117165881Y-103184727D01*
X116866654Y-103204339D01*
X116866648Y-103204339D01*
X116862540Y-103204609D01*
X116858499Y-103205412D01*
X116858497Y-103205413D01*
X116564385Y-103263915D01*
X116564376Y-103263917D01*
X116560341Y-103264720D01*
X116556437Y-103266045D01*
X116556434Y-103266046D01*
X116278318Y-103360454D01*
X116268573Y-103363762D01*
X116264888Y-103365578D01*
X116264874Y-103365585D01*
X115995932Y-103498213D01*
X115995921Y-103498219D01*
X115992229Y-103500040D01*
X115988800Y-103502330D01*
X115988795Y-103502334D01*
X115739466Y-103668929D01*
X115739454Y-103668937D01*
X115736036Y-103671222D01*
X115732941Y-103673935D01*
X115732936Y-103673940D01*
X115507468Y-103871671D01*
X115507460Y-103871678D01*
X115504380Y-103874380D01*
X115501678Y-103877460D01*
X115501671Y-103877468D01*
X115303940Y-104102936D01*
X115303935Y-104102941D01*
X115301222Y-104106036D01*
X115298937Y-104109454D01*
X115298929Y-104109466D01*
X115132334Y-104358795D01*
X115132330Y-104358800D01*
X115130040Y-104362229D01*
X115128219Y-104365921D01*
X115128213Y-104365932D01*
X114995585Y-104634874D01*
X114995578Y-104634888D01*
X114993762Y-104638573D01*
X114894720Y-104930341D01*
X114893917Y-104934376D01*
X114893915Y-104934385D01*
X114835413Y-105228497D01*
X114834609Y-105232540D01*
X114814457Y-105540000D01*
X114834609Y-105847460D01*
X114894720Y-106149659D01*
X114993762Y-106441427D01*
X114995581Y-106445116D01*
X114995585Y-106445125D01*
X115128213Y-106714068D01*
X115130040Y-106717772D01*
X115301222Y-106973964D01*
X115504380Y-107205620D01*
X115736036Y-107408778D01*
X115752361Y-107419686D01*
X115756002Y-107422119D01*
X115797122Y-107467488D01*
X115812000Y-107526884D01*
X115812000Y-107809410D01*
X115815506Y-107822493D01*
X115828590Y-107826000D01*
X116601824Y-107826000D01*
X116626405Y-107828421D01*
X116862540Y-107875391D01*
X117170000Y-107895543D01*
X117224027Y-107892001D01*
X117292869Y-107907262D01*
X117342733Y-107957124D01*
X117357997Y-108025969D01*
X117354895Y-108073310D01*
X117354457Y-108080000D01*
X117354727Y-108084119D01*
X117360626Y-108174129D01*
X117374609Y-108387460D01*
X117375412Y-108391501D01*
X117375413Y-108391502D01*
X117421579Y-108623595D01*
X117424000Y-108648176D01*
X117424000Y-109421410D01*
X117427506Y-109434493D01*
X117440590Y-109438000D01*
X117723116Y-109438000D01*
X117782512Y-109452878D01*
X117827881Y-109493998D01*
X117841222Y-109513964D01*
X118044380Y-109745620D01*
X118047476Y-109748335D01*
X118047590Y-109748449D01*
X118074907Y-109789328D01*
X118084500Y-109837549D01*
X118084500Y-113132606D01*
X118074909Y-113180824D01*
X118047597Y-113221698D01*
X116826259Y-114443036D01*
X116579256Y-114690039D01*
X116571994Y-114696752D01*
X116535069Y-114728290D01*
X116527044Y-114735144D01*
X116523836Y-114738899D01*
X116523830Y-114738906D01*
X116485440Y-114783855D01*
X116485439Y-114783855D01*
X116485440Y-114783856D01*
X116364085Y-114925943D01*
X116364080Y-114925949D01*
X116360877Y-114929700D01*
X116358878Y-114932960D01*
X116314920Y-114970666D01*
X116258330Y-114984642D01*
X116201506Y-114971653D01*
X116025950Y-114885078D01*
X116025941Y-114885074D01*
X116022252Y-114883255D01*
X115867969Y-114830883D01*
X115740604Y-114787648D01*
X115740599Y-114787646D01*
X115736691Y-114786320D01*
X115732646Y-114785515D01*
X115732641Y-114785514D01*
X115444959Y-114728290D01*
X115444952Y-114728289D01*
X115440920Y-114727487D01*
X115436813Y-114727217D01*
X115436807Y-114727217D01*
X115144119Y-114708034D01*
X115140000Y-114707764D01*
X115135881Y-114708034D01*
X114843192Y-114727217D01*
X114843184Y-114727217D01*
X114839080Y-114727487D01*
X114835049Y-114728288D01*
X114835040Y-114728290D01*
X114547358Y-114785514D01*
X114547349Y-114785516D01*
X114543309Y-114786320D01*
X114539403Y-114787645D01*
X114539395Y-114787648D01*
X114261654Y-114881929D01*
X114257748Y-114883255D01*
X114254063Y-114885072D01*
X114254049Y-114885078D01*
X113990985Y-115014807D01*
X113990974Y-115014813D01*
X113987282Y-115016634D01*
X113983853Y-115018924D01*
X113983848Y-115018928D01*
X113739970Y-115181882D01*
X113739965Y-115181885D01*
X113736539Y-115184175D01*
X113733444Y-115186888D01*
X113733439Y-115186893D01*
X113512899Y-115380302D01*
X113512891Y-115380309D01*
X113509811Y-115383011D01*
X113507109Y-115386091D01*
X113507102Y-115386099D01*
X113313693Y-115606639D01*
X113313688Y-115606644D01*
X113310975Y-115609739D01*
X113308690Y-115613158D01*
X113308679Y-115613173D01*
X113222380Y-115742327D01*
X113179023Y-115782348D01*
X113122199Y-115798241D01*
X113064370Y-115786521D01*
X113054055Y-115781711D01*
X113043756Y-115777962D01*
X112868001Y-115730869D01*
X112856591Y-115730496D01*
X112854000Y-115741611D01*
X112854000Y-116712537D01*
X112853729Y-116720778D01*
X112834564Y-117013200D01*
X112834834Y-117017319D01*
X112834834Y-117017321D01*
X112842413Y-117132960D01*
X112828446Y-117199381D01*
X112782048Y-117248919D01*
X112716683Y-117267200D01*
X112472000Y-117267200D01*
X112409000Y-117250319D01*
X112362881Y-117204200D01*
X112346000Y-117141200D01*
X112346000Y-115741611D01*
X112343408Y-115730496D01*
X112331998Y-115730869D01*
X112156238Y-115777964D01*
X112145946Y-115781710D01*
X111948489Y-115873786D01*
X111938987Y-115879272D01*
X111839810Y-115948717D01*
X111782263Y-115970641D01*
X111721199Y-115962673D01*
X111671204Y-115926716D01*
X111644222Y-115871361D01*
X111628890Y-115798241D01*
X111623050Y-115770386D01*
X111532656Y-115538727D01*
X111405366Y-115325106D01*
X111244650Y-115135350D01*
X111054894Y-114974634D01*
X111048235Y-114970666D01*
X110845750Y-114850011D01*
X110845743Y-114850007D01*
X110841273Y-114847344D01*
X110836419Y-114845449D01*
X110836415Y-114845448D01*
X110614477Y-114758847D01*
X110614470Y-114758845D01*
X110609614Y-114756950D01*
X110604513Y-114755880D01*
X110604505Y-114755878D01*
X110370698Y-114706854D01*
X110370692Y-114706853D01*
X110366237Y-114705919D01*
X110361699Y-114705637D01*
X110361690Y-114705636D01*
X110264804Y-114699621D01*
X110264778Y-114699620D01*
X110262842Y-114699500D01*
X108497158Y-114699500D01*
X108495222Y-114699620D01*
X108495195Y-114699621D01*
X108398309Y-114705636D01*
X108398298Y-114705637D01*
X108393763Y-114705919D01*
X108389308Y-114706852D01*
X108389301Y-114706854D01*
X108155494Y-114755878D01*
X108155483Y-114755881D01*
X108150386Y-114756950D01*
X108145532Y-114758843D01*
X108145522Y-114758847D01*
X107923584Y-114845448D01*
X107923576Y-114845451D01*
X107918727Y-114847344D01*
X107914255Y-114850008D01*
X107914246Y-114850013D01*
X107867716Y-114877738D01*
X107808210Y-114895397D01*
X107747494Y-114882503D01*
X107746330Y-114881929D01*
X107722252Y-114870055D01*
X107589006Y-114824824D01*
X107440604Y-114774448D01*
X107440599Y-114774446D01*
X107436691Y-114773120D01*
X107432646Y-114772315D01*
X107432641Y-114772314D01*
X107144959Y-114715090D01*
X107144952Y-114715089D01*
X107140920Y-114714287D01*
X107136813Y-114714017D01*
X107136807Y-114714017D01*
X106844119Y-114694834D01*
X106840000Y-114694564D01*
X106835881Y-114694834D01*
X106543192Y-114714017D01*
X106543184Y-114714017D01*
X106539080Y-114714287D01*
X106535049Y-114715088D01*
X106535040Y-114715090D01*
X106247358Y-114772314D01*
X106247349Y-114772316D01*
X106243309Y-114773120D01*
X106239403Y-114774445D01*
X106239395Y-114774448D01*
X105985766Y-114860544D01*
X105957748Y-114870055D01*
X105954063Y-114871872D01*
X105954049Y-114871878D01*
X105778493Y-114958453D01*
X105721665Y-114971442D01*
X105665073Y-114957463D01*
X105621119Y-114919757D01*
X105619124Y-114916501D01*
X105615872Y-114912694D01*
X105494560Y-114770656D01*
X105494560Y-114770655D01*
X105494546Y-114770640D01*
X105456169Y-114725706D01*
X105452956Y-114721944D01*
X105407993Y-114683542D01*
X105400741Y-114676837D01*
X103712405Y-112988501D01*
X103685091Y-112947624D01*
X103675500Y-112899406D01*
X103675500Y-110509241D01*
X103688494Y-110453513D01*
X103724796Y-110409279D01*
X103776919Y-110385662D01*
X103831651Y-110374774D01*
X103929659Y-110355280D01*
X104221427Y-110256238D01*
X104497772Y-110119960D01*
X104519998Y-110105108D01*
X104565415Y-110086296D01*
X104614578Y-110086295D01*
X104659999Y-110105108D01*
X104678789Y-110117663D01*
X104678798Y-110117668D01*
X104682228Y-110119960D01*
X104958573Y-110256238D01*
X105250341Y-110355280D01*
X105552540Y-110415391D01*
X105860000Y-110435543D01*
X106167460Y-110415391D01*
X106469659Y-110355280D01*
X106761427Y-110256238D01*
X107037772Y-110119960D01*
X107293964Y-109948778D01*
X107525620Y-109745620D01*
X107728778Y-109513964D01*
X107899960Y-109257772D01*
X108036238Y-108981427D01*
X108122502Y-108727303D01*
X115812000Y-108727303D01*
X115812325Y-108733692D01*
X115821907Y-108827488D01*
X115824767Y-108840846D01*
X115876035Y-108995564D01*
X115882192Y-109008767D01*
X115967511Y-109147091D01*
X115976558Y-109158532D01*
X116091467Y-109273441D01*
X116102908Y-109282488D01*
X116241232Y-109367807D01*
X116254435Y-109373964D01*
X116409153Y-109425232D01*
X116422511Y-109428092D01*
X116516307Y-109437674D01*
X116522697Y-109438000D01*
X116899410Y-109438000D01*
X116912493Y-109434493D01*
X116916000Y-109421410D01*
X116916000Y-108350590D01*
X116912493Y-108337506D01*
X116899410Y-108334000D01*
X115828590Y-108334000D01*
X115815506Y-108337506D01*
X115812000Y-108350590D01*
X115812000Y-108727303D01*
X108122502Y-108727303D01*
X108135280Y-108689659D01*
X108195391Y-108387460D01*
X108215543Y-108080000D01*
X108195391Y-107772540D01*
X108135280Y-107470341D01*
X108036238Y-107178573D01*
X107899960Y-106902229D01*
X107885105Y-106879997D01*
X107866294Y-106834579D01*
X107866295Y-106785416D01*
X107885108Y-106739998D01*
X107899960Y-106717772D01*
X108036238Y-106441427D01*
X108135280Y-106149659D01*
X108195391Y-105847460D01*
X108215543Y-105540000D01*
X108195391Y-105232540D01*
X108135280Y-104930341D01*
X108036238Y-104638573D01*
X107899960Y-104362229D01*
X107728778Y-104106036D01*
X107525620Y-103874380D01*
X107293964Y-103671222D01*
X107037772Y-103500040D01*
X107034072Y-103498215D01*
X107034068Y-103498213D01*
X106765125Y-103365585D01*
X106765116Y-103365581D01*
X106761427Y-103363762D01*
X106469659Y-103264720D01*
X106465619Y-103263916D01*
X106465614Y-103263915D01*
X106171502Y-103205413D01*
X106171501Y-103205412D01*
X106167460Y-103204609D01*
X106163349Y-103204339D01*
X106163345Y-103204339D01*
X105864119Y-103184727D01*
X105860000Y-103184457D01*
X105855881Y-103184727D01*
X105556654Y-103204339D01*
X105556648Y-103204339D01*
X105552540Y-103204609D01*
X105548499Y-103205412D01*
X105548497Y-103205413D01*
X105254385Y-103263915D01*
X105254376Y-103263917D01*
X105250341Y-103264720D01*
X105246437Y-103266045D01*
X105246434Y-103266046D01*
X105033620Y-103338286D01*
X104966922Y-103342220D01*
X104907590Y-103311497D01*
X104872308Y-103254759D01*
X104870996Y-103187958D01*
X104904022Y-103129880D01*
X106110752Y-101923150D01*
X106117991Y-101916458D01*
X106162956Y-101878056D01*
X106274582Y-101747359D01*
X106329123Y-101683500D01*
X106462809Y-101465343D01*
X106507421Y-101357638D01*
X106524815Y-101315646D01*
X106558148Y-101269129D01*
X106569327Y-101259327D01*
X106759520Y-101042454D01*
X106919778Y-100802611D01*
X107047359Y-100543902D01*
X107140081Y-100270753D01*
X107196356Y-99987839D01*
X107215222Y-99700000D01*
X107196356Y-99412161D01*
X107140081Y-99129247D01*
X107047359Y-98856098D01*
X106919778Y-98597389D01*
X106759520Y-98357546D01*
X106706768Y-98297394D01*
X106683576Y-98258700D01*
X106675500Y-98214316D01*
X106675500Y-97174831D01*
X106689421Y-97117261D01*
X106728108Y-97072412D01*
X106783012Y-97050195D01*
X106842001Y-97055518D01*
X106891770Y-97072412D01*
X106993309Y-97106880D01*
X107289080Y-97165713D01*
X107590000Y-97185436D01*
X107890920Y-97165713D01*
X108186691Y-97106880D01*
X108472252Y-97009945D01*
X108742718Y-96876566D01*
X108993461Y-96709025D01*
X109220189Y-96510189D01*
X109419025Y-96283461D01*
X109586566Y-96032718D01*
X109719945Y-95762252D01*
X109816880Y-95476691D01*
X109875713Y-95180920D01*
X109895436Y-94880000D01*
X109875713Y-94579080D01*
X109816880Y-94283309D01*
X109719945Y-93997748D01*
X109715779Y-93989301D01*
X109637707Y-93830985D01*
X109586566Y-93727282D01*
X109419025Y-93476539D01*
X109220189Y-93249811D01*
X109213088Y-93243584D01*
X109121180Y-93162982D01*
X108993461Y-93050975D01*
X108742718Y-92883434D01*
X108739018Y-92881609D01*
X108739014Y-92881607D01*
X108475950Y-92751878D01*
X108475941Y-92751874D01*
X108472252Y-92750055D01*
X108307170Y-92694017D01*
X108190604Y-92654448D01*
X108190599Y-92654446D01*
X108186691Y-92653120D01*
X108182646Y-92652315D01*
X108182641Y-92652314D01*
X107894959Y-92595090D01*
X107894952Y-92595089D01*
X107890920Y-92594287D01*
X107886813Y-92594017D01*
X107886807Y-92594017D01*
X107594119Y-92574834D01*
X107590000Y-92574564D01*
X107585881Y-92574834D01*
X107585879Y-92574834D01*
X107313346Y-92592696D01*
X107256887Y-92583375D01*
X107210373Y-92550043D01*
X107183399Y-92499576D01*
X107181527Y-92442388D01*
X107196356Y-92367839D01*
X107215222Y-92080000D01*
X107196356Y-91792161D01*
X107140081Y-91509247D01*
X107047359Y-91236098D01*
X106919778Y-90977389D01*
X106759520Y-90737546D01*
X106756797Y-90734441D01*
X106756794Y-90734437D01*
X106734555Y-90709078D01*
X106707579Y-90658612D01*
X106705707Y-90601419D01*
X106729323Y-90549296D01*
X106773558Y-90512994D01*
X106829286Y-90500000D01*
X117650714Y-90500000D01*
X117706442Y-90512994D01*
G37*
G04 #@! TD.AperFunction*
G04 #@! TA.AperFunction,Conductor*
G36*
X95581433Y-90517926D02*
G01*
X95627778Y-90566604D01*
X95642504Y-90632183D01*
X95621421Y-90696002D01*
X95502516Y-90873955D01*
X95502512Y-90873960D01*
X95500222Y-90877389D01*
X95498401Y-90881081D01*
X95498395Y-90881092D01*
X95374463Y-91132403D01*
X95372641Y-91136098D01*
X95371319Y-91139990D01*
X95371317Y-91139997D01*
X95281246Y-91405336D01*
X95281243Y-91405344D01*
X95279919Y-91409247D01*
X95279114Y-91413291D01*
X95279113Y-91413297D01*
X95256050Y-91529247D01*
X95228983Y-91665324D01*
X95226465Y-91677981D01*
X95202849Y-91730104D01*
X95158614Y-91766406D01*
X95102886Y-91779400D01*
X94995077Y-91779400D01*
X94980627Y-91778569D01*
X94960124Y-91776202D01*
X94960123Y-91776201D01*
X94955325Y-91775648D01*
X94950497Y-91775833D01*
X94859838Y-91779308D01*
X94855012Y-91779400D01*
X94824823Y-91779400D01*
X94822440Y-91779582D01*
X94822437Y-91779583D01*
X94814657Y-91780180D01*
X94794714Y-91781711D01*
X94789919Y-91781986D01*
X94699242Y-91785462D01*
X94699220Y-91785464D01*
X94694407Y-91785649D01*
X94689677Y-91786566D01*
X94689662Y-91786568D01*
X94669394Y-91790499D01*
X94655060Y-91792433D01*
X94634473Y-91794014D01*
X94634470Y-91794014D01*
X94629656Y-91794384D01*
X94624961Y-91795482D01*
X94624952Y-91795484D01*
X94536597Y-91816160D01*
X94531878Y-91817169D01*
X94442813Y-91834442D01*
X94442804Y-91834444D01*
X94438073Y-91835362D01*
X94433538Y-91836990D01*
X94433526Y-91836994D01*
X94414089Y-91843975D01*
X94400217Y-91848074D01*
X94375414Y-91853879D01*
X94370942Y-91855681D01*
X94370924Y-91855687D01*
X94286792Y-91889595D01*
X94282284Y-91891312D01*
X94196877Y-91921987D01*
X94196858Y-91921995D01*
X94192332Y-91923621D01*
X94188103Y-91925920D01*
X94188093Y-91925925D01*
X94169942Y-91935795D01*
X94156860Y-91941963D01*
X94137718Y-91949678D01*
X94137710Y-91949681D01*
X94133234Y-91951486D01*
X94129085Y-91953952D01*
X94129072Y-91953959D01*
X94051084Y-92000323D01*
X94046891Y-92002709D01*
X93962943Y-92048359D01*
X93959103Y-92051285D01*
X93959095Y-92051291D01*
X93942675Y-92063806D01*
X93930696Y-92071894D01*
X93912942Y-92082450D01*
X93912936Y-92082453D01*
X93908792Y-92084918D01*
X93905075Y-92087982D01*
X93905064Y-92087991D01*
X93835071Y-92145714D01*
X93831290Y-92148712D01*
X93759131Y-92203717D01*
X93759126Y-92203720D01*
X93755284Y-92206650D01*
X93751938Y-92210125D01*
X93751924Y-92210139D01*
X93737605Y-92225017D01*
X93726994Y-92234845D01*
X93711072Y-92247976D01*
X93711066Y-92247981D01*
X93707348Y-92251048D01*
X93704142Y-92254644D01*
X93704135Y-92254652D01*
X93643770Y-92322386D01*
X93640492Y-92325925D01*
X93577569Y-92391307D01*
X93577562Y-92391315D01*
X93574222Y-92394786D01*
X93571447Y-92398730D01*
X93571442Y-92398737D01*
X93559562Y-92415625D01*
X93550579Y-92426953D01*
X93536839Y-92442371D01*
X93536830Y-92442383D01*
X93533625Y-92445980D01*
X93531003Y-92450028D01*
X93530999Y-92450034D01*
X93481673Y-92526200D01*
X93478974Y-92530197D01*
X93426783Y-92604398D01*
X93426772Y-92604415D01*
X93424001Y-92608356D01*
X93421862Y-92612674D01*
X93421857Y-92612684D01*
X93412693Y-92631192D01*
X93405541Y-92643764D01*
X93394316Y-92661097D01*
X93394312Y-92661103D01*
X93391694Y-92665147D01*
X93389722Y-92669544D01*
X93389718Y-92669553D01*
X93356434Y-92743800D01*
X93335567Y-92776041D01*
X93305957Y-92800498D01*
X93219575Y-92851970D01*
X93219566Y-92851976D01*
X93215106Y-92854634D01*
X93211138Y-92857994D01*
X93211132Y-92857999D01*
X93029322Y-93011985D01*
X93029316Y-93011990D01*
X93025350Y-93015350D01*
X93021990Y-93019316D01*
X93021985Y-93019322D01*
X92868004Y-93201126D01*
X92867999Y-93201132D01*
X92864634Y-93205106D01*
X92861969Y-93209578D01*
X92861965Y-93209584D01*
X92740011Y-93414249D01*
X92740005Y-93414261D01*
X92737344Y-93418727D01*
X92735451Y-93423576D01*
X92735448Y-93423584D01*
X92648847Y-93645522D01*
X92648843Y-93645532D01*
X92646950Y-93650386D01*
X92645881Y-93655483D01*
X92645878Y-93655494D01*
X92596854Y-93889301D01*
X92596852Y-93889308D01*
X92595919Y-93893763D01*
X92595637Y-93898298D01*
X92595636Y-93898309D01*
X92589621Y-93995195D01*
X92589620Y-93995222D01*
X92589500Y-93997158D01*
X92589500Y-95762842D01*
X92589620Y-95764778D01*
X92589621Y-95764804D01*
X92595636Y-95861690D01*
X92595637Y-95861699D01*
X92595919Y-95866237D01*
X92596853Y-95870692D01*
X92596854Y-95870698D01*
X92645878Y-96104505D01*
X92645880Y-96104513D01*
X92646950Y-96109614D01*
X92648845Y-96114470D01*
X92648847Y-96114477D01*
X92735448Y-96336415D01*
X92737344Y-96341273D01*
X92740007Y-96345743D01*
X92740011Y-96345750D01*
X92839609Y-96512897D01*
X92864634Y-96554894D01*
X92868003Y-96558872D01*
X92868004Y-96558873D01*
X92982681Y-96694271D01*
X93025350Y-96744650D01*
X93215106Y-96905366D01*
X93253148Y-96928034D01*
X93424249Y-97029988D01*
X93424251Y-97029989D01*
X93428727Y-97032656D01*
X93660386Y-97123050D01*
X93903763Y-97174081D01*
X94007158Y-97180500D01*
X94009126Y-97180500D01*
X95678500Y-97180500D01*
X95741500Y-97197381D01*
X95787619Y-97243500D01*
X95804500Y-97306500D01*
X95804500Y-98045899D01*
X95796424Y-98090283D01*
X95773232Y-98128977D01*
X95663198Y-98254446D01*
X95663193Y-98254451D01*
X95660480Y-98257546D01*
X95658190Y-98260972D01*
X95658187Y-98260977D01*
X95502516Y-98493955D01*
X95502512Y-98493960D01*
X95500222Y-98497389D01*
X95498401Y-98501081D01*
X95498395Y-98501092D01*
X95374463Y-98752403D01*
X95372641Y-98756098D01*
X95371319Y-98759990D01*
X95371317Y-98759997D01*
X95281246Y-99025336D01*
X95281243Y-99025344D01*
X95279919Y-99029247D01*
X95279114Y-99033291D01*
X95279113Y-99033297D01*
X95236252Y-99248774D01*
X95223644Y-99312161D01*
X95223374Y-99316269D01*
X95223374Y-99316275D01*
X95216107Y-99427156D01*
X95204778Y-99600000D01*
X95223644Y-99887839D01*
X95224447Y-99891880D01*
X95224448Y-99891881D01*
X95240727Y-99973724D01*
X95279919Y-100170753D01*
X95281244Y-100174659D01*
X95281246Y-100174663D01*
X95371317Y-100440002D01*
X95372641Y-100443902D01*
X95500222Y-100702611D01*
X95660480Y-100942454D01*
X95850673Y-101159327D01*
X96067546Y-101349520D01*
X96307389Y-101509778D01*
X96311093Y-101511604D01*
X96311092Y-101511604D01*
X96553170Y-101630984D01*
X96566098Y-101637359D01*
X96635270Y-101660839D01*
X96691289Y-101699160D01*
X96719301Y-101760983D01*
X96711178Y-101828368D01*
X96691169Y-101876673D01*
X96691166Y-101876680D01*
X96689278Y-101881240D01*
X96688124Y-101886043D01*
X96688123Y-101886049D01*
X96630703Y-102125217D01*
X96630702Y-102125223D01*
X96629548Y-102130030D01*
X96629160Y-102134953D01*
X96629159Y-102134963D01*
X96614499Y-102321237D01*
X96614500Y-102321237D01*
X96609474Y-102385100D01*
X96609862Y-102390030D01*
X96614112Y-102444030D01*
X96614500Y-102453916D01*
X96614500Y-103192367D01*
X96600579Y-103249937D01*
X96561892Y-103294786D01*
X96506988Y-103317003D01*
X96447999Y-103311680D01*
X96313565Y-103266046D01*
X96313566Y-103266046D01*
X96309659Y-103264720D01*
X96305619Y-103263916D01*
X96305614Y-103263915D01*
X96011502Y-103205413D01*
X96011501Y-103205412D01*
X96007460Y-103204609D01*
X96003349Y-103204339D01*
X96003345Y-103204339D01*
X95704119Y-103184727D01*
X95700000Y-103184457D01*
X95695881Y-103184727D01*
X95396654Y-103204339D01*
X95396648Y-103204339D01*
X95392540Y-103204609D01*
X95388499Y-103205412D01*
X95388497Y-103205413D01*
X95094385Y-103263915D01*
X95094376Y-103263917D01*
X95090341Y-103264720D01*
X95086437Y-103266045D01*
X95086434Y-103266046D01*
X94808318Y-103360454D01*
X94798573Y-103363762D01*
X94794888Y-103365578D01*
X94794874Y-103365585D01*
X94525932Y-103498213D01*
X94525921Y-103498219D01*
X94522229Y-103500040D01*
X94518800Y-103502330D01*
X94518795Y-103502334D01*
X94269466Y-103668929D01*
X94269454Y-103668937D01*
X94266036Y-103671222D01*
X94262941Y-103673935D01*
X94262936Y-103673940D01*
X94037468Y-103871671D01*
X94037460Y-103871678D01*
X94034380Y-103874380D01*
X94031678Y-103877460D01*
X94031671Y-103877468D01*
X93833940Y-104102936D01*
X93833935Y-104102941D01*
X93831222Y-104106036D01*
X93828937Y-104109454D01*
X93828929Y-104109466D01*
X93662334Y-104358795D01*
X93662330Y-104358800D01*
X93660040Y-104362229D01*
X93658219Y-104365921D01*
X93658213Y-104365932D01*
X93525585Y-104634874D01*
X93525578Y-104634888D01*
X93523762Y-104638573D01*
X93424720Y-104930341D01*
X93423917Y-104934376D01*
X93423915Y-104934385D01*
X93365413Y-105228497D01*
X93364609Y-105232540D01*
X93344457Y-105540000D01*
X93364609Y-105847460D01*
X93424720Y-106149659D01*
X93523762Y-106441427D01*
X93525581Y-106445116D01*
X93525585Y-106445125D01*
X93658213Y-106714068D01*
X93660040Y-106717772D01*
X93831222Y-106973964D01*
X94034380Y-107205620D01*
X94266036Y-107408778D01*
X94282361Y-107419686D01*
X94286002Y-107422119D01*
X94327122Y-107467488D01*
X94342000Y-107526884D01*
X94342000Y-107809410D01*
X94345506Y-107822493D01*
X94358590Y-107826000D01*
X95131824Y-107826000D01*
X95156405Y-107828421D01*
X95392540Y-107875391D01*
X95700000Y-107895543D01*
X95754027Y-107892001D01*
X95822869Y-107907262D01*
X95872733Y-107957124D01*
X95887997Y-108025969D01*
X95884895Y-108073310D01*
X95884457Y-108080000D01*
X95884727Y-108084119D01*
X95890626Y-108174129D01*
X95904609Y-108387460D01*
X95905412Y-108391501D01*
X95905413Y-108391502D01*
X95951579Y-108623595D01*
X95954000Y-108648176D01*
X95954000Y-109421410D01*
X95957506Y-109434493D01*
X95970590Y-109438000D01*
X96253116Y-109438000D01*
X96312512Y-109452878D01*
X96357881Y-109493998D01*
X96371222Y-109513964D01*
X96574380Y-109745620D01*
X96577476Y-109748335D01*
X96577590Y-109748449D01*
X96604907Y-109789328D01*
X96614500Y-109837549D01*
X96614500Y-113589406D01*
X96604909Y-113637624D01*
X96577597Y-113678498D01*
X95813059Y-114443036D01*
X95579256Y-114676839D01*
X95571994Y-114683552D01*
X95535069Y-114715090D01*
X95527044Y-114721944D01*
X95523836Y-114725699D01*
X95523830Y-114725706D01*
X95485440Y-114770655D01*
X95485439Y-114770655D01*
X95485440Y-114770656D01*
X95364085Y-114912743D01*
X95364080Y-114912749D01*
X95360877Y-114916500D01*
X95358878Y-114919760D01*
X95314920Y-114957466D01*
X95258330Y-114971442D01*
X95201506Y-114958453D01*
X95025950Y-114871878D01*
X95025941Y-114871874D01*
X95022252Y-114870055D01*
X94889006Y-114824824D01*
X94740604Y-114774448D01*
X94740599Y-114774446D01*
X94736691Y-114773120D01*
X94732646Y-114772315D01*
X94732641Y-114772314D01*
X94444959Y-114715090D01*
X94444952Y-114715089D01*
X94440920Y-114714287D01*
X94436813Y-114714017D01*
X94436807Y-114714017D01*
X94144119Y-114694834D01*
X94140000Y-114694564D01*
X94135881Y-114694834D01*
X93843192Y-114714017D01*
X93843184Y-114714017D01*
X93839080Y-114714287D01*
X93835049Y-114715088D01*
X93835040Y-114715090D01*
X93547358Y-114772314D01*
X93547349Y-114772316D01*
X93543309Y-114773120D01*
X93539403Y-114774445D01*
X93539395Y-114774448D01*
X93285766Y-114860544D01*
X93257748Y-114870055D01*
X93254063Y-114871872D01*
X93254049Y-114871878D01*
X92990985Y-115001607D01*
X92990974Y-115001613D01*
X92987282Y-115003434D01*
X92983853Y-115005724D01*
X92983848Y-115005728D01*
X92739970Y-115168682D01*
X92739965Y-115168685D01*
X92736539Y-115170975D01*
X92733444Y-115173688D01*
X92733439Y-115173693D01*
X92512899Y-115367102D01*
X92512891Y-115367109D01*
X92509811Y-115369811D01*
X92507109Y-115372891D01*
X92507102Y-115372899D01*
X92313693Y-115593439D01*
X92313688Y-115593444D01*
X92310975Y-115596539D01*
X92308690Y-115599958D01*
X92308679Y-115599973D01*
X92222380Y-115729127D01*
X92179023Y-115769148D01*
X92122199Y-115785041D01*
X92064370Y-115773321D01*
X92054055Y-115768511D01*
X92043756Y-115764762D01*
X91868001Y-115717669D01*
X91856591Y-115717296D01*
X91854000Y-115728411D01*
X91854000Y-116699337D01*
X91853729Y-116707578D01*
X91834564Y-117000000D01*
X91834834Y-117004119D01*
X91834834Y-117004121D01*
X91842413Y-117119760D01*
X91828446Y-117186181D01*
X91782048Y-117235719D01*
X91716683Y-117254000D01*
X91472000Y-117254000D01*
X91409000Y-117237119D01*
X91362881Y-117191000D01*
X91346000Y-117128000D01*
X91346000Y-115728411D01*
X91343408Y-115717296D01*
X91331998Y-115717669D01*
X91156238Y-115764764D01*
X91145946Y-115768510D01*
X90948489Y-115860586D01*
X90938995Y-115866067D01*
X90854836Y-115924996D01*
X90797289Y-115946919D01*
X90736225Y-115938951D01*
X90686230Y-115902994D01*
X90659248Y-115847639D01*
X90648890Y-115798241D01*
X90643050Y-115770386D01*
X90552656Y-115538727D01*
X90425366Y-115325106D01*
X90264650Y-115135350D01*
X90074894Y-114974634D01*
X90068235Y-114970666D01*
X89865750Y-114850011D01*
X89865743Y-114850007D01*
X89861273Y-114847344D01*
X89856419Y-114845449D01*
X89856415Y-114845448D01*
X89634477Y-114758847D01*
X89634470Y-114758845D01*
X89629614Y-114756950D01*
X89624513Y-114755880D01*
X89624505Y-114755878D01*
X89390698Y-114706854D01*
X89390692Y-114706853D01*
X89386237Y-114705919D01*
X89381699Y-114705637D01*
X89381690Y-114705636D01*
X89284804Y-114699621D01*
X89284778Y-114699620D01*
X89282842Y-114699500D01*
X87517158Y-114699500D01*
X87515222Y-114699620D01*
X87515195Y-114699621D01*
X87418309Y-114705636D01*
X87418298Y-114705637D01*
X87413763Y-114705919D01*
X87409308Y-114706852D01*
X87409301Y-114706854D01*
X87175494Y-114755878D01*
X87175483Y-114755881D01*
X87170386Y-114756950D01*
X87165532Y-114758843D01*
X87165522Y-114758847D01*
X86943584Y-114845448D01*
X86943576Y-114845451D01*
X86938727Y-114847344D01*
X86934255Y-114850008D01*
X86934246Y-114850013D01*
X86887716Y-114877738D01*
X86828210Y-114895397D01*
X86767494Y-114882503D01*
X86766330Y-114881929D01*
X86742252Y-114870055D01*
X86609006Y-114824824D01*
X86460604Y-114774448D01*
X86460599Y-114774446D01*
X86456691Y-114773120D01*
X86452646Y-114772315D01*
X86452641Y-114772314D01*
X86164959Y-114715090D01*
X86164952Y-114715089D01*
X86160920Y-114714287D01*
X86156813Y-114714017D01*
X86156807Y-114714017D01*
X85864119Y-114694834D01*
X85860000Y-114694564D01*
X85855881Y-114694834D01*
X85563192Y-114714017D01*
X85563184Y-114714017D01*
X85559080Y-114714287D01*
X85555049Y-114715088D01*
X85555040Y-114715090D01*
X85267358Y-114772314D01*
X85267349Y-114772316D01*
X85263309Y-114773120D01*
X85259403Y-114774445D01*
X85259395Y-114774448D01*
X85005766Y-114860544D01*
X84977748Y-114870055D01*
X84974063Y-114871872D01*
X84974049Y-114871878D01*
X84798492Y-114958453D01*
X84741662Y-114971442D01*
X84685069Y-114957461D01*
X84641117Y-114919755D01*
X84639123Y-114916500D01*
X84514560Y-114770656D01*
X84514560Y-114770655D01*
X84514546Y-114770640D01*
X84476169Y-114725706D01*
X84472956Y-114721944D01*
X84427993Y-114683542D01*
X84420741Y-114676837D01*
X82152405Y-112408501D01*
X82125091Y-112367624D01*
X82115500Y-112319406D01*
X82115500Y-110509241D01*
X82128494Y-110453513D01*
X82164796Y-110409279D01*
X82216919Y-110385662D01*
X82271651Y-110374774D01*
X82369659Y-110355280D01*
X82661427Y-110256238D01*
X82937772Y-110119960D01*
X82959998Y-110105108D01*
X83005419Y-110086295D01*
X83054581Y-110086295D01*
X83100002Y-110105109D01*
X83118794Y-110117666D01*
X83118799Y-110117669D01*
X83122228Y-110119960D01*
X83398573Y-110256238D01*
X83690341Y-110355280D01*
X83992540Y-110415391D01*
X84300000Y-110435543D01*
X84607460Y-110415391D01*
X84909659Y-110355280D01*
X85201427Y-110256238D01*
X85477772Y-110119960D01*
X85733964Y-109948778D01*
X85965620Y-109745620D01*
X86168778Y-109513964D01*
X86339960Y-109257772D01*
X86476238Y-108981427D01*
X86562502Y-108727303D01*
X94342000Y-108727303D01*
X94342325Y-108733692D01*
X94351907Y-108827488D01*
X94354767Y-108840846D01*
X94406035Y-108995564D01*
X94412192Y-109008767D01*
X94497511Y-109147091D01*
X94506558Y-109158532D01*
X94621467Y-109273441D01*
X94632908Y-109282488D01*
X94771232Y-109367807D01*
X94784435Y-109373964D01*
X94939153Y-109425232D01*
X94952511Y-109428092D01*
X95046307Y-109437674D01*
X95052697Y-109438000D01*
X95429410Y-109438000D01*
X95442493Y-109434493D01*
X95446000Y-109421410D01*
X95446000Y-108350590D01*
X95442493Y-108337506D01*
X95429410Y-108334000D01*
X94358590Y-108334000D01*
X94345506Y-108337506D01*
X94342000Y-108350590D01*
X94342000Y-108727303D01*
X86562502Y-108727303D01*
X86575280Y-108689659D01*
X86635391Y-108387460D01*
X86655543Y-108080000D01*
X86635391Y-107772540D01*
X86575280Y-107470341D01*
X86476238Y-107178573D01*
X86339960Y-106902229D01*
X86325105Y-106879997D01*
X86306294Y-106834579D01*
X86306295Y-106785416D01*
X86325108Y-106739998D01*
X86339960Y-106717772D01*
X86476238Y-106441427D01*
X86575280Y-106149659D01*
X86635391Y-105847460D01*
X86655543Y-105540000D01*
X86635391Y-105232540D01*
X86575280Y-104930341D01*
X86476238Y-104638573D01*
X86339960Y-104362229D01*
X86168778Y-104106036D01*
X85965620Y-103874380D01*
X85733964Y-103671222D01*
X85477772Y-103500040D01*
X85474072Y-103498215D01*
X85474068Y-103498213D01*
X85205125Y-103365585D01*
X85205116Y-103365581D01*
X85201427Y-103363762D01*
X84909659Y-103264720D01*
X84905619Y-103263916D01*
X84905614Y-103263915D01*
X84611502Y-103205413D01*
X84611501Y-103205412D01*
X84607460Y-103204609D01*
X84603349Y-103204339D01*
X84603345Y-103204339D01*
X84304119Y-103184727D01*
X84300000Y-103184457D01*
X84295881Y-103184727D01*
X83996654Y-103204339D01*
X83996648Y-103204339D01*
X83992540Y-103204609D01*
X83988499Y-103205412D01*
X83988497Y-103205413D01*
X83694385Y-103263915D01*
X83694376Y-103263917D01*
X83690341Y-103264720D01*
X83686437Y-103266045D01*
X83686434Y-103266046D01*
X83408318Y-103360454D01*
X83398573Y-103363762D01*
X83394888Y-103365578D01*
X83394874Y-103365585D01*
X83125929Y-103498214D01*
X83125912Y-103498223D01*
X83122229Y-103500040D01*
X83118814Y-103502321D01*
X83118798Y-103502331D01*
X83099998Y-103514893D01*
X83054578Y-103533705D01*
X83005417Y-103533704D01*
X82959998Y-103514890D01*
X82949188Y-103507667D01*
X82911116Y-103467679D01*
X82893797Y-103415252D01*
X82900555Y-103360454D01*
X82930093Y-103313809D01*
X84300752Y-101943150D01*
X84307991Y-101936458D01*
X84352956Y-101898056D01*
X84411012Y-101830081D01*
X84519123Y-101703500D01*
X84652809Y-101485343D01*
X84699373Y-101372925D01*
X84714815Y-101335646D01*
X84748148Y-101289129D01*
X84759327Y-101279327D01*
X84949520Y-101062454D01*
X85109778Y-100822611D01*
X85237359Y-100563902D01*
X85330081Y-100290753D01*
X85386356Y-100007839D01*
X85405222Y-99720000D01*
X85386356Y-99432161D01*
X85330081Y-99149247D01*
X85237359Y-98876098D01*
X85109778Y-98617389D01*
X84949520Y-98377546D01*
X84816768Y-98226172D01*
X84793576Y-98187478D01*
X84785500Y-98143094D01*
X84785500Y-97194831D01*
X84799421Y-97137261D01*
X84838108Y-97092412D01*
X84893012Y-97070195D01*
X84952001Y-97075518D01*
X85001770Y-97092412D01*
X85103309Y-97126880D01*
X85399080Y-97185713D01*
X85700000Y-97205436D01*
X86000920Y-97185713D01*
X86296691Y-97126880D01*
X86582252Y-97029945D01*
X86852718Y-96896566D01*
X87103461Y-96729025D01*
X87330189Y-96530189D01*
X87529025Y-96303461D01*
X87696566Y-96052718D01*
X87829945Y-95782252D01*
X87926880Y-95496691D01*
X87985713Y-95200920D01*
X88005436Y-94900000D01*
X87985713Y-94599080D01*
X87926880Y-94303309D01*
X87829945Y-94017748D01*
X87815916Y-93989301D01*
X87733242Y-93821654D01*
X87696566Y-93747282D01*
X87529025Y-93496539D01*
X87330189Y-93269811D01*
X87103461Y-93070975D01*
X86852718Y-92903434D01*
X86849018Y-92901609D01*
X86849014Y-92901607D01*
X86585950Y-92771878D01*
X86585941Y-92771874D01*
X86582252Y-92770055D01*
X86380611Y-92701607D01*
X86300604Y-92674448D01*
X86300599Y-92674446D01*
X86296691Y-92673120D01*
X86292646Y-92672315D01*
X86292641Y-92672314D01*
X86004959Y-92615090D01*
X86004952Y-92615089D01*
X86000920Y-92614287D01*
X85996813Y-92614017D01*
X85996807Y-92614017D01*
X85704119Y-92594834D01*
X85700000Y-92594564D01*
X85695881Y-92594834D01*
X85695879Y-92594834D01*
X85504403Y-92607383D01*
X85447944Y-92598061D01*
X85401430Y-92564730D01*
X85374456Y-92514263D01*
X85372584Y-92457073D01*
X85386356Y-92387839D01*
X85405222Y-92100000D01*
X85386356Y-91812161D01*
X85330081Y-91529247D01*
X85237359Y-91256098D01*
X85109778Y-90997389D01*
X84949520Y-90757546D01*
X84946805Y-90754450D01*
X84946795Y-90754437D01*
X84907015Y-90709077D01*
X84880040Y-90658611D01*
X84878168Y-90601418D01*
X84901785Y-90549296D01*
X84946019Y-90512994D01*
X85001747Y-90500000D01*
X95516656Y-90500000D01*
X95581433Y-90517926D01*
G37*
G04 #@! TD.AperFunction*
G04 #@! TA.AperFunction,Conductor*
G36*
X73745213Y-90512994D02*
G01*
X73789447Y-90549296D01*
X73813063Y-90601419D01*
X73811190Y-90658612D01*
X73784215Y-90709078D01*
X73753205Y-90744437D01*
X73753194Y-90744450D01*
X73750480Y-90747546D01*
X73748190Y-90750972D01*
X73748187Y-90750977D01*
X73592516Y-90983955D01*
X73592512Y-90983960D01*
X73590222Y-90987389D01*
X73588401Y-90991081D01*
X73588395Y-90991092D01*
X73464463Y-91242403D01*
X73462641Y-91246098D01*
X73461319Y-91249990D01*
X73461317Y-91249997D01*
X73371246Y-91515336D01*
X73371243Y-91515344D01*
X73369919Y-91519247D01*
X73369114Y-91523291D01*
X73369113Y-91523297D01*
X73367124Y-91533297D01*
X73335525Y-91692161D01*
X73334367Y-91697981D01*
X73310751Y-91750104D01*
X73266516Y-91786406D01*
X73210788Y-91799400D01*
X73105077Y-91799400D01*
X73090627Y-91798569D01*
X73070124Y-91796202D01*
X73070123Y-91796201D01*
X73065325Y-91795648D01*
X73060497Y-91795833D01*
X72969838Y-91799308D01*
X72965012Y-91799400D01*
X72934823Y-91799400D01*
X72932440Y-91799582D01*
X72932437Y-91799583D01*
X72924657Y-91800180D01*
X72904714Y-91801711D01*
X72899919Y-91801986D01*
X72809242Y-91805462D01*
X72809220Y-91805464D01*
X72804407Y-91805649D01*
X72799677Y-91806566D01*
X72799662Y-91806568D01*
X72779394Y-91810499D01*
X72765060Y-91812433D01*
X72744473Y-91814014D01*
X72744470Y-91814014D01*
X72739656Y-91814384D01*
X72734961Y-91815482D01*
X72734952Y-91815484D01*
X72646597Y-91836160D01*
X72641878Y-91837169D01*
X72552813Y-91854442D01*
X72552804Y-91854444D01*
X72548073Y-91855362D01*
X72543538Y-91856990D01*
X72543526Y-91856994D01*
X72524089Y-91863975D01*
X72510217Y-91868074D01*
X72485414Y-91873879D01*
X72480942Y-91875681D01*
X72480924Y-91875687D01*
X72396792Y-91909595D01*
X72392284Y-91911312D01*
X72306877Y-91941987D01*
X72306858Y-91941995D01*
X72302332Y-91943621D01*
X72298103Y-91945920D01*
X72298093Y-91945925D01*
X72279942Y-91955795D01*
X72266860Y-91961963D01*
X72247718Y-91969678D01*
X72247710Y-91969681D01*
X72243234Y-91971486D01*
X72239085Y-91973952D01*
X72239072Y-91973959D01*
X72161084Y-92020323D01*
X72156891Y-92022709D01*
X72132827Y-92035795D01*
X72072943Y-92068359D01*
X72069103Y-92071285D01*
X72069095Y-92071291D01*
X72052675Y-92083806D01*
X72040696Y-92091894D01*
X72022942Y-92102450D01*
X72022936Y-92102453D01*
X72018792Y-92104918D01*
X72015075Y-92107982D01*
X72015064Y-92107991D01*
X71945071Y-92165714D01*
X71941290Y-92168712D01*
X71869131Y-92223717D01*
X71869126Y-92223720D01*
X71865284Y-92226650D01*
X71861938Y-92230125D01*
X71861924Y-92230139D01*
X71847605Y-92245017D01*
X71836994Y-92254845D01*
X71821072Y-92267976D01*
X71821066Y-92267981D01*
X71817348Y-92271048D01*
X71814142Y-92274644D01*
X71814135Y-92274652D01*
X71753770Y-92342386D01*
X71750492Y-92345925D01*
X71687569Y-92411307D01*
X71687562Y-92411315D01*
X71684222Y-92414786D01*
X71681447Y-92418730D01*
X71681442Y-92418737D01*
X71669562Y-92435625D01*
X71660579Y-92446953D01*
X71646839Y-92462371D01*
X71646826Y-92462387D01*
X71643625Y-92465980D01*
X71641003Y-92470028D01*
X71640999Y-92470034D01*
X71591673Y-92546200D01*
X71588974Y-92550197D01*
X71536783Y-92624398D01*
X71536772Y-92624415D01*
X71534001Y-92628356D01*
X71531862Y-92632674D01*
X71531857Y-92632684D01*
X71522693Y-92651192D01*
X71515541Y-92663764D01*
X71504316Y-92681097D01*
X71504312Y-92681103D01*
X71501694Y-92685147D01*
X71499722Y-92689544D01*
X71499718Y-92689553D01*
X71466434Y-92763800D01*
X71445567Y-92796041D01*
X71415957Y-92820498D01*
X71329575Y-92871970D01*
X71329566Y-92871976D01*
X71325106Y-92874634D01*
X71321138Y-92877994D01*
X71321132Y-92877999D01*
X71139322Y-93031985D01*
X71139316Y-93031990D01*
X71135350Y-93035350D01*
X71131990Y-93039316D01*
X71131985Y-93039322D01*
X70978004Y-93221126D01*
X70977999Y-93221132D01*
X70974634Y-93225106D01*
X70971969Y-93229578D01*
X70971965Y-93229584D01*
X70850011Y-93434249D01*
X70850005Y-93434261D01*
X70847344Y-93438727D01*
X70845451Y-93443576D01*
X70845448Y-93443584D01*
X70758847Y-93665522D01*
X70758843Y-93665532D01*
X70756950Y-93670386D01*
X70755881Y-93675483D01*
X70755878Y-93675494D01*
X70706854Y-93909301D01*
X70706852Y-93909308D01*
X70705919Y-93913763D01*
X70705637Y-93918298D01*
X70705636Y-93918309D01*
X70699621Y-94015195D01*
X70699620Y-94015222D01*
X70699500Y-94017158D01*
X70699500Y-95782842D01*
X70699620Y-95784778D01*
X70699621Y-95784804D01*
X70705636Y-95881690D01*
X70705637Y-95881699D01*
X70705919Y-95886237D01*
X70706853Y-95890692D01*
X70706854Y-95890698D01*
X70755878Y-96124505D01*
X70755880Y-96124513D01*
X70756950Y-96129614D01*
X70758845Y-96134470D01*
X70758847Y-96134477D01*
X70845448Y-96356415D01*
X70847344Y-96361273D01*
X70850007Y-96365743D01*
X70850011Y-96365750D01*
X70971965Y-96570415D01*
X70974634Y-96574894D01*
X70978003Y-96578872D01*
X70978004Y-96578873D01*
X71034994Y-96646160D01*
X71135350Y-96764650D01*
X71325106Y-96925366D01*
X71425032Y-96984909D01*
X71534249Y-97049988D01*
X71534251Y-97049989D01*
X71538727Y-97052656D01*
X71770386Y-97143050D01*
X72013763Y-97194081D01*
X72117158Y-97200500D01*
X73748500Y-97200500D01*
X73811500Y-97217381D01*
X73857619Y-97263500D01*
X73874500Y-97326500D01*
X73874500Y-98178705D01*
X73866424Y-98223089D01*
X73843232Y-98261783D01*
X73753198Y-98364446D01*
X73753193Y-98364451D01*
X73750480Y-98367546D01*
X73748190Y-98370972D01*
X73748187Y-98370977D01*
X73592516Y-98603955D01*
X73592512Y-98603960D01*
X73590222Y-98607389D01*
X73588401Y-98611081D01*
X73588395Y-98611092D01*
X73464463Y-98862403D01*
X73462641Y-98866098D01*
X73461319Y-98869990D01*
X73461317Y-98869997D01*
X73371246Y-99135336D01*
X73371243Y-99135344D01*
X73369919Y-99139247D01*
X73369114Y-99143291D01*
X73369113Y-99143297D01*
X73335524Y-99312161D01*
X73313644Y-99422161D01*
X73313374Y-99426269D01*
X73313374Y-99426275D01*
X73307703Y-99512797D01*
X73294778Y-99710000D01*
X73295048Y-99714119D01*
X73312988Y-99987839D01*
X73313644Y-99997839D01*
X73314447Y-100001880D01*
X73314448Y-100001881D01*
X73368707Y-100274663D01*
X73369919Y-100280753D01*
X73371244Y-100284659D01*
X73371246Y-100284663D01*
X73459246Y-100543902D01*
X73462641Y-100553902D01*
X73480936Y-100591000D01*
X73586983Y-100806044D01*
X73590222Y-100812611D01*
X73750480Y-101052454D01*
X73753198Y-101055553D01*
X73843232Y-101158217D01*
X73866424Y-101196911D01*
X73874500Y-101241295D01*
X73874500Y-103092857D01*
X73861506Y-103148585D01*
X73825204Y-103192820D01*
X73773081Y-103216436D01*
X73534385Y-103263915D01*
X73534376Y-103263917D01*
X73530341Y-103264720D01*
X73526437Y-103266045D01*
X73526434Y-103266046D01*
X73248318Y-103360454D01*
X73238573Y-103363762D01*
X73234888Y-103365578D01*
X73234874Y-103365585D01*
X72965932Y-103498213D01*
X72965921Y-103498219D01*
X72962229Y-103500040D01*
X72958800Y-103502330D01*
X72958795Y-103502334D01*
X72709466Y-103668929D01*
X72709454Y-103668937D01*
X72706036Y-103671222D01*
X72702941Y-103673935D01*
X72702936Y-103673940D01*
X72477468Y-103871671D01*
X72477460Y-103871678D01*
X72474380Y-103874380D01*
X72471678Y-103877460D01*
X72471671Y-103877468D01*
X72273940Y-104102936D01*
X72273935Y-104102941D01*
X72271222Y-104106036D01*
X72268937Y-104109454D01*
X72268929Y-104109466D01*
X72102334Y-104358795D01*
X72102330Y-104358800D01*
X72100040Y-104362229D01*
X72098219Y-104365921D01*
X72098213Y-104365932D01*
X71965585Y-104634874D01*
X71965578Y-104634888D01*
X71963762Y-104638573D01*
X71864720Y-104930341D01*
X71863917Y-104934376D01*
X71863915Y-104934385D01*
X71805413Y-105228497D01*
X71804609Y-105232540D01*
X71784457Y-105540000D01*
X71804609Y-105847460D01*
X71864720Y-106149659D01*
X71963762Y-106441427D01*
X71965581Y-106445116D01*
X71965585Y-106445125D01*
X72098213Y-106714068D01*
X72100040Y-106717772D01*
X72271222Y-106973964D01*
X72474380Y-107205620D01*
X72706036Y-107408778D01*
X72722361Y-107419686D01*
X72726002Y-107422119D01*
X72767122Y-107467488D01*
X72782000Y-107526884D01*
X72782000Y-107809410D01*
X72785506Y-107822493D01*
X72798590Y-107826000D01*
X73571824Y-107826000D01*
X73596405Y-107828421D01*
X73832540Y-107875391D01*
X74140000Y-107895543D01*
X74145703Y-107895169D01*
X74146321Y-107895273D01*
X74148242Y-107895273D01*
X74148242Y-107895596D01*
X74202930Y-107904802D01*
X74249773Y-107939067D01*
X74291088Y-107987441D01*
X74291084Y-107987435D01*
X74291088Y-107987440D01*
X74294535Y-107991476D01*
X74316938Y-108029696D01*
X74324727Y-108073310D01*
X74324727Y-108075877D01*
X74324457Y-108080000D01*
X74324727Y-108084119D01*
X74330626Y-108174129D01*
X74344609Y-108387460D01*
X74345412Y-108391501D01*
X74345413Y-108391502D01*
X74391579Y-108623595D01*
X74394000Y-108648176D01*
X74394000Y-109421410D01*
X74397506Y-109434493D01*
X74410590Y-109438000D01*
X74693116Y-109438000D01*
X74752512Y-109452878D01*
X74797881Y-109493998D01*
X74811222Y-109513964D01*
X75014380Y-109745620D01*
X75017476Y-109748335D01*
X75017590Y-109748449D01*
X75044907Y-109789328D01*
X75054500Y-109837549D01*
X75054500Y-114169405D01*
X75044909Y-114217623D01*
X75017595Y-114258501D01*
X74599249Y-114676845D01*
X74591987Y-114683558D01*
X74555069Y-114715090D01*
X74547044Y-114721944D01*
X74543836Y-114725699D01*
X74543830Y-114725706D01*
X74505440Y-114770655D01*
X74505439Y-114770655D01*
X74505440Y-114770656D01*
X74384085Y-114912743D01*
X74384080Y-114912749D01*
X74380877Y-114916500D01*
X74378878Y-114919760D01*
X74334920Y-114957466D01*
X74278330Y-114971442D01*
X74221506Y-114958453D01*
X74045950Y-114871878D01*
X74045941Y-114871874D01*
X74042252Y-114870055D01*
X73909006Y-114824824D01*
X73760604Y-114774448D01*
X73760599Y-114774446D01*
X73756691Y-114773120D01*
X73752646Y-114772315D01*
X73752641Y-114772314D01*
X73464959Y-114715090D01*
X73464952Y-114715089D01*
X73460920Y-114714287D01*
X73456813Y-114714017D01*
X73456807Y-114714017D01*
X73164119Y-114694834D01*
X73160000Y-114694564D01*
X73155881Y-114694834D01*
X72863192Y-114714017D01*
X72863184Y-114714017D01*
X72859080Y-114714287D01*
X72855049Y-114715088D01*
X72855040Y-114715090D01*
X72567358Y-114772314D01*
X72567349Y-114772316D01*
X72563309Y-114773120D01*
X72559403Y-114774445D01*
X72559395Y-114774448D01*
X72305766Y-114860544D01*
X72277748Y-114870055D01*
X72274063Y-114871872D01*
X72274049Y-114871878D01*
X72010985Y-115001607D01*
X72010974Y-115001613D01*
X72007282Y-115003434D01*
X72003853Y-115005724D01*
X72003848Y-115005728D01*
X71759970Y-115168682D01*
X71759965Y-115168685D01*
X71756539Y-115170975D01*
X71753444Y-115173688D01*
X71753439Y-115173693D01*
X71532899Y-115367102D01*
X71532891Y-115367109D01*
X71529811Y-115369811D01*
X71527109Y-115372891D01*
X71527102Y-115372899D01*
X71333693Y-115593439D01*
X71333688Y-115593444D01*
X71330975Y-115596539D01*
X71328690Y-115599958D01*
X71328679Y-115599973D01*
X71242380Y-115729127D01*
X71199023Y-115769148D01*
X71142199Y-115785041D01*
X71084370Y-115773321D01*
X71074055Y-115768511D01*
X71063756Y-115764762D01*
X70888001Y-115717669D01*
X70876591Y-115717296D01*
X70874000Y-115728411D01*
X70874000Y-116699337D01*
X70873729Y-116707578D01*
X70854564Y-117000000D01*
X70854834Y-117004119D01*
X70854834Y-117004121D01*
X70862413Y-117119760D01*
X70848446Y-117186181D01*
X70802048Y-117235719D01*
X70736683Y-117254000D01*
X70492000Y-117254000D01*
X70429000Y-117237119D01*
X70382881Y-117191000D01*
X70366000Y-117128000D01*
X70366000Y-115728411D01*
X70363408Y-115717296D01*
X70351998Y-115717669D01*
X70176238Y-115764764D01*
X70165946Y-115768510D01*
X69968489Y-115860586D01*
X69958995Y-115866067D01*
X69857396Y-115937207D01*
X69799848Y-115959130D01*
X69738784Y-115951161D01*
X69688790Y-115915205D01*
X69661808Y-115859849D01*
X69648890Y-115798241D01*
X69643050Y-115770386D01*
X69552656Y-115538727D01*
X69425366Y-115325106D01*
X69264650Y-115135350D01*
X69074894Y-114974634D01*
X69068235Y-114970666D01*
X68865750Y-114850011D01*
X68865743Y-114850007D01*
X68861273Y-114847344D01*
X68856419Y-114845449D01*
X68856415Y-114845448D01*
X68634477Y-114758847D01*
X68634470Y-114758845D01*
X68629614Y-114756950D01*
X68624513Y-114755880D01*
X68624505Y-114755878D01*
X68390698Y-114706854D01*
X68390692Y-114706853D01*
X68386237Y-114705919D01*
X68381699Y-114705637D01*
X68381690Y-114705636D01*
X68284804Y-114699621D01*
X68284778Y-114699620D01*
X68282842Y-114699500D01*
X66517158Y-114699500D01*
X66515222Y-114699620D01*
X66515195Y-114699621D01*
X66418309Y-114705636D01*
X66418298Y-114705637D01*
X66413763Y-114705919D01*
X66409308Y-114706852D01*
X66409301Y-114706854D01*
X66175494Y-114755878D01*
X66175483Y-114755881D01*
X66170386Y-114756950D01*
X66165532Y-114758843D01*
X66165522Y-114758847D01*
X65943584Y-114845448D01*
X65943576Y-114845451D01*
X65938727Y-114847344D01*
X65934255Y-114850008D01*
X65934246Y-114850013D01*
X65887716Y-114877738D01*
X65828210Y-114895397D01*
X65767494Y-114882503D01*
X65745941Y-114871874D01*
X65745938Y-114871873D01*
X65742252Y-114870055D01*
X65683210Y-114850013D01*
X65637387Y-114834458D01*
X65585709Y-114801045D01*
X65556019Y-114747141D01*
X65555401Y-114685604D01*
X65555442Y-114685434D01*
X65588493Y-114547764D01*
X65612452Y-114447970D01*
X65627500Y-114256763D01*
X65627500Y-114256760D01*
X65632526Y-114192900D01*
X65627887Y-114133969D01*
X65627500Y-114124084D01*
X65627500Y-108727303D01*
X72782000Y-108727303D01*
X72782325Y-108733692D01*
X72791907Y-108827488D01*
X72794767Y-108840846D01*
X72846035Y-108995564D01*
X72852192Y-109008767D01*
X72937511Y-109147091D01*
X72946558Y-109158532D01*
X73061467Y-109273441D01*
X73072908Y-109282488D01*
X73211232Y-109367807D01*
X73224435Y-109373964D01*
X73379153Y-109425232D01*
X73392511Y-109428092D01*
X73486307Y-109437674D01*
X73492697Y-109438000D01*
X73869410Y-109438000D01*
X73882493Y-109434493D01*
X73886000Y-109421410D01*
X73886000Y-108350590D01*
X73882493Y-108337506D01*
X73869410Y-108334000D01*
X72798590Y-108334000D01*
X72785506Y-108337506D01*
X72782000Y-108350590D01*
X72782000Y-108727303D01*
X65627500Y-108727303D01*
X65627500Y-102395916D01*
X65627888Y-102386030D01*
X65632138Y-102332030D01*
X65632526Y-102327100D01*
X65626840Y-102254857D01*
X65612452Y-102072030D01*
X65552722Y-101823240D01*
X65454809Y-101586857D01*
X65444785Y-101570500D01*
X65321123Y-101368700D01*
X65196560Y-101222856D01*
X65196560Y-101222855D01*
X65196546Y-101222840D01*
X65158169Y-101177906D01*
X65154956Y-101174144D01*
X65109993Y-101135742D01*
X65102741Y-101129037D01*
X64513098Y-100539394D01*
X64479484Y-100478910D01*
X64482879Y-100409800D01*
X64530081Y-100270753D01*
X64586356Y-99987839D01*
X64605222Y-99700000D01*
X64586356Y-99412161D01*
X64530081Y-99129247D01*
X64437359Y-98856098D01*
X64309778Y-98597389D01*
X64149520Y-98357546D01*
X63959327Y-98140673D01*
X63948143Y-98130865D01*
X63914815Y-98084354D01*
X63854702Y-97939227D01*
X63854701Y-97939226D01*
X63852809Y-97934657D01*
X63811337Y-97866980D01*
X63719123Y-97716500D01*
X63594560Y-97570656D01*
X63594560Y-97570655D01*
X63594546Y-97570640D01*
X63556169Y-97525706D01*
X63552956Y-97521944D01*
X63507993Y-97483542D01*
X63500741Y-97476837D01*
X63499905Y-97476001D01*
X63472591Y-97435124D01*
X63463000Y-97386906D01*
X63463000Y-96819162D01*
X63482000Y-96752626D01*
X63533270Y-96706157D01*
X63549013Y-96698393D01*
X63549015Y-96698392D01*
X63552718Y-96696566D01*
X63600000Y-96664972D01*
X63645418Y-96646160D01*
X63694582Y-96646160D01*
X63739999Y-96664972D01*
X63787282Y-96696566D01*
X64057748Y-96829945D01*
X64343309Y-96926880D01*
X64639080Y-96985713D01*
X64940000Y-97005436D01*
X65240920Y-96985713D01*
X65536691Y-96926880D01*
X65822252Y-96829945D01*
X66092718Y-96696566D01*
X66343461Y-96529025D01*
X66570189Y-96330189D01*
X66769025Y-96103461D01*
X66936566Y-95852718D01*
X67069945Y-95582252D01*
X67166880Y-95296691D01*
X67225713Y-95000920D01*
X67245436Y-94700000D01*
X67225713Y-94399080D01*
X67166880Y-94103309D01*
X67069945Y-93817748D01*
X66936566Y-93547282D01*
X66769025Y-93296539D01*
X66570189Y-93069811D01*
X66343461Y-92870975D01*
X66092718Y-92703434D01*
X66089018Y-92701609D01*
X66089014Y-92701607D01*
X65825950Y-92571878D01*
X65825941Y-92571874D01*
X65822252Y-92570055D01*
X65614628Y-92499576D01*
X65540604Y-92474448D01*
X65540599Y-92474446D01*
X65536691Y-92473120D01*
X65532646Y-92472315D01*
X65532641Y-92472314D01*
X65244959Y-92415090D01*
X65244952Y-92415089D01*
X65240920Y-92414287D01*
X65236813Y-92414017D01*
X65236807Y-92414017D01*
X64944119Y-92394834D01*
X64940000Y-92394564D01*
X64935881Y-92394834D01*
X64935879Y-92394834D01*
X64726437Y-92408561D01*
X64657592Y-92393298D01*
X64607729Y-92343435D01*
X64592467Y-92274593D01*
X64605222Y-92080000D01*
X64586356Y-91792161D01*
X64530081Y-91509247D01*
X64437359Y-91236098D01*
X64309778Y-90977389D01*
X64149520Y-90737546D01*
X64146797Y-90734441D01*
X64146794Y-90734437D01*
X64124555Y-90709078D01*
X64097579Y-90658612D01*
X64095707Y-90601419D01*
X64119323Y-90549296D01*
X64163558Y-90512994D01*
X64219286Y-90500000D01*
X73689484Y-90500000D01*
X73745213Y-90512994D01*
G37*
G04 #@! TD.AperFunction*
G04 #@! TA.AperFunction,Conductor*
G36*
X53102561Y-97792724D02*
G01*
X53140767Y-97837457D01*
X53154500Y-97894660D01*
X53154500Y-98181510D01*
X53146424Y-98225893D01*
X53123232Y-98264587D01*
X53053204Y-98344438D01*
X53053192Y-98344452D01*
X53050480Y-98347546D01*
X53048190Y-98350972D01*
X53048187Y-98350977D01*
X52892516Y-98583955D01*
X52892512Y-98583960D01*
X52890222Y-98587389D01*
X52888401Y-98591081D01*
X52888395Y-98591092D01*
X52808846Y-98752403D01*
X52762641Y-98846098D01*
X52761319Y-98849990D01*
X52761317Y-98849997D01*
X52671246Y-99115336D01*
X52671243Y-99115344D01*
X52669919Y-99119247D01*
X52669114Y-99123291D01*
X52669113Y-99123297D01*
X52622572Y-99357276D01*
X52613644Y-99402161D01*
X52613374Y-99406269D01*
X52613374Y-99406275D01*
X52600947Y-99595881D01*
X52594778Y-99690000D01*
X52595048Y-99694119D01*
X52609516Y-99914867D01*
X52613644Y-99977839D01*
X52614447Y-99981880D01*
X52614448Y-99981881D01*
X52661256Y-100217205D01*
X52669919Y-100260753D01*
X52698162Y-100343956D01*
X52720469Y-100409669D01*
X52724893Y-100473942D01*
X52696968Y-100531998D01*
X52646577Y-100591000D01*
X52643996Y-100595211D01*
X52643990Y-100595220D01*
X52564401Y-100725100D01*
X52515477Y-100804936D01*
X52515473Y-100804942D01*
X52512891Y-100809157D01*
X52510998Y-100813726D01*
X52510996Y-100813731D01*
X52416872Y-101040966D01*
X52416869Y-101040972D01*
X52414978Y-101045540D01*
X52413824Y-101050343D01*
X52413822Y-101050352D01*
X52356403Y-101289517D01*
X52356402Y-101289523D01*
X52355248Y-101294330D01*
X52354860Y-101299253D01*
X52354859Y-101299263D01*
X52342854Y-101451812D01*
X52340200Y-101485537D01*
X52335174Y-101549400D01*
X52335562Y-101554330D01*
X52339812Y-101608330D01*
X52340200Y-101618216D01*
X52340200Y-103099680D01*
X52327206Y-103155408D01*
X52290904Y-103199643D01*
X52238781Y-103223258D01*
X52216499Y-103227691D01*
X52034385Y-103263915D01*
X52034376Y-103263917D01*
X52030341Y-103264720D01*
X52026437Y-103266045D01*
X52026434Y-103266046D01*
X51748318Y-103360454D01*
X51738573Y-103363762D01*
X51734888Y-103365578D01*
X51734874Y-103365585D01*
X51465932Y-103498213D01*
X51465921Y-103498219D01*
X51462229Y-103500040D01*
X51458800Y-103502330D01*
X51458795Y-103502334D01*
X51209466Y-103668929D01*
X51209454Y-103668937D01*
X51206036Y-103671222D01*
X51202941Y-103673935D01*
X51202936Y-103673940D01*
X50977468Y-103871671D01*
X50977460Y-103871678D01*
X50974380Y-103874380D01*
X50971678Y-103877460D01*
X50971671Y-103877468D01*
X50773940Y-104102936D01*
X50773935Y-104102941D01*
X50771222Y-104106036D01*
X50768937Y-104109454D01*
X50768929Y-104109466D01*
X50602334Y-104358795D01*
X50602330Y-104358800D01*
X50600040Y-104362229D01*
X50598219Y-104365921D01*
X50598213Y-104365932D01*
X50465585Y-104634874D01*
X50465578Y-104634888D01*
X50463762Y-104638573D01*
X50364720Y-104930341D01*
X50363917Y-104934376D01*
X50363915Y-104934385D01*
X50305413Y-105228497D01*
X50304609Y-105232540D01*
X50284457Y-105540000D01*
X50304609Y-105847460D01*
X50364720Y-106149659D01*
X50463762Y-106441427D01*
X50465581Y-106445116D01*
X50465585Y-106445125D01*
X50598213Y-106714068D01*
X50600040Y-106717772D01*
X50771222Y-106973964D01*
X50974380Y-107205620D01*
X51206036Y-107408778D01*
X51222361Y-107419686D01*
X51226002Y-107422119D01*
X51267122Y-107467488D01*
X51282000Y-107526884D01*
X51282000Y-107809410D01*
X51285506Y-107822493D01*
X51298590Y-107826000D01*
X52071824Y-107826000D01*
X52096405Y-107828421D01*
X52332540Y-107875391D01*
X52537850Y-107888847D01*
X52594740Y-107906716D01*
X52637043Y-107948742D01*
X52642179Y-107957124D01*
X52646577Y-107964300D01*
X52761930Y-108099360D01*
X52803848Y-108148441D01*
X52824757Y-108182813D01*
X52833765Y-108222026D01*
X52842192Y-108350590D01*
X52844609Y-108387460D01*
X52845412Y-108391501D01*
X52845413Y-108391502D01*
X52891579Y-108623595D01*
X52894000Y-108648176D01*
X52894000Y-109421410D01*
X52897506Y-109434493D01*
X52910590Y-109438000D01*
X53193116Y-109438000D01*
X53252512Y-109452878D01*
X53297881Y-109493998D01*
X53311222Y-109513964D01*
X53383033Y-109595849D01*
X53406224Y-109634540D01*
X53414300Y-109678924D01*
X53414300Y-114830883D01*
X53406511Y-114874498D01*
X53386606Y-114908454D01*
X53386996Y-114908738D01*
X53384120Y-114912694D01*
X53384106Y-114912718D01*
X53380877Y-114916500D01*
X53378878Y-114919760D01*
X53334920Y-114957466D01*
X53278330Y-114971442D01*
X53221506Y-114958453D01*
X53045950Y-114871878D01*
X53045941Y-114871874D01*
X53042252Y-114870055D01*
X52909006Y-114824824D01*
X52760604Y-114774448D01*
X52760599Y-114774446D01*
X52756691Y-114773120D01*
X52752646Y-114772315D01*
X52752641Y-114772314D01*
X52464959Y-114715090D01*
X52464952Y-114715089D01*
X52460920Y-114714287D01*
X52456813Y-114714017D01*
X52456807Y-114714017D01*
X52164119Y-114694834D01*
X52160000Y-114694564D01*
X52155881Y-114694834D01*
X51863192Y-114714017D01*
X51863184Y-114714017D01*
X51859080Y-114714287D01*
X51855049Y-114715088D01*
X51855040Y-114715090D01*
X51567358Y-114772314D01*
X51567349Y-114772316D01*
X51563309Y-114773120D01*
X51559403Y-114774445D01*
X51559395Y-114774448D01*
X51305766Y-114860544D01*
X51277748Y-114870055D01*
X51274063Y-114871872D01*
X51274049Y-114871878D01*
X51010985Y-115001607D01*
X51010974Y-115001613D01*
X51007282Y-115003434D01*
X51003853Y-115005724D01*
X51003848Y-115005728D01*
X50759970Y-115168682D01*
X50759965Y-115168685D01*
X50756539Y-115170975D01*
X50753444Y-115173688D01*
X50753439Y-115173693D01*
X50532899Y-115367102D01*
X50532891Y-115367109D01*
X50529811Y-115369811D01*
X50527109Y-115372891D01*
X50527102Y-115372899D01*
X50333693Y-115593439D01*
X50333688Y-115593444D01*
X50330975Y-115596539D01*
X50328690Y-115599958D01*
X50328679Y-115599973D01*
X50242380Y-115729127D01*
X50199023Y-115769148D01*
X50142199Y-115785041D01*
X50084370Y-115773321D01*
X50074055Y-115768511D01*
X50063756Y-115764762D01*
X49853311Y-115708374D01*
X49846021Y-115707089D01*
X49792659Y-115684071D01*
X49755302Y-115639552D01*
X49741900Y-115583003D01*
X49741900Y-108727303D01*
X51282000Y-108727303D01*
X51282325Y-108733692D01*
X51291907Y-108827488D01*
X51294767Y-108840846D01*
X51346035Y-108995564D01*
X51352192Y-109008767D01*
X51437511Y-109147091D01*
X51446558Y-109158532D01*
X51561467Y-109273441D01*
X51572908Y-109282488D01*
X51711232Y-109367807D01*
X51724435Y-109373964D01*
X51879153Y-109425232D01*
X51892511Y-109428092D01*
X51986307Y-109437674D01*
X51992697Y-109438000D01*
X52369410Y-109438000D01*
X52382493Y-109434493D01*
X52386000Y-109421410D01*
X52386000Y-108350590D01*
X52382493Y-108337506D01*
X52369410Y-108334000D01*
X51298590Y-108334000D01*
X51285506Y-108337506D01*
X51282000Y-108350590D01*
X51282000Y-108727303D01*
X49741900Y-108727303D01*
X49741900Y-101055260D01*
X49751491Y-101007042D01*
X49778805Y-100966165D01*
X52939405Y-97805565D01*
X52989564Y-97774827D01*
X53048211Y-97770211D01*
X53102561Y-97792724D01*
G37*
G04 #@! TD.AperFunction*
G04 #@! TA.AperFunction,NonConductor*
G36*
X79598283Y-101620219D02*
G01*
X79629341Y-101635535D01*
X79727089Y-101683738D01*
X79772564Y-101721686D01*
X79795677Y-101776219D01*
X79791320Y-101835288D01*
X79760455Y-101885839D01*
X78558356Y-103087938D01*
X78551094Y-103094652D01*
X78513330Y-103126906D01*
X78448767Y-103155907D01*
X78378751Y-103145523D01*
X78325381Y-103099028D01*
X78305500Y-103031096D01*
X78305500Y-102880595D01*
X78315091Y-102832377D01*
X78342404Y-102791500D01*
X78553049Y-102580855D01*
X79200758Y-101933144D01*
X79207998Y-101926452D01*
X79252956Y-101888056D01*
X79311012Y-101820081D01*
X79419123Y-101693500D01*
X79435123Y-101667389D01*
X79479078Y-101624383D01*
X79538157Y-101607302D01*
X79598283Y-101620219D01*
G37*
G04 #@! TD.AperFunction*
G04 #@! TA.AperFunction,NonConductor*
G36*
X123456727Y-101643971D02*
G01*
X123517089Y-101673739D01*
X123562564Y-101711685D01*
X123585677Y-101766219D01*
X123581320Y-101825287D01*
X123550455Y-101875839D01*
X122274799Y-103151495D01*
X122237705Y-103177169D01*
X122193945Y-103188130D01*
X122123303Y-103192760D01*
X122063813Y-103182137D01*
X122016112Y-103145036D01*
X121991172Y-103089992D01*
X121994729Y-103029666D01*
X122025965Y-102977937D01*
X123080752Y-101923150D01*
X123087991Y-101916458D01*
X123132956Y-101878056D01*
X123244582Y-101747359D01*
X123299123Y-101683500D01*
X123299934Y-101682175D01*
X123343302Y-101644966D01*
X123399897Y-101630984D01*
X123456727Y-101643971D01*
G37*
G04 #@! TD.AperFunction*
G04 #@! TA.AperFunction,NonConductor*
G36*
X101407046Y-101610473D02*
G01*
X101407389Y-101609778D01*
X101530393Y-101670436D01*
X101575867Y-101708382D01*
X101598980Y-101762916D01*
X101594623Y-101821985D01*
X101563758Y-101872536D01*
X100949256Y-102487038D01*
X100941994Y-102493752D01*
X100897044Y-102532144D01*
X100893836Y-102535899D01*
X100893830Y-102535906D01*
X100855440Y-102580855D01*
X100855439Y-102580855D01*
X100855440Y-102580856D01*
X100734087Y-102722940D01*
X100734079Y-102722950D01*
X100730877Y-102726700D01*
X100728298Y-102730908D01*
X100728294Y-102730914D01*
X100643968Y-102868523D01*
X100599776Y-102940637D01*
X100599771Y-102940646D01*
X100597191Y-102944857D01*
X100595302Y-102949416D01*
X100595297Y-102949427D01*
X100516903Y-103138689D01*
X100480428Y-103187870D01*
X100425076Y-103214050D01*
X100174382Y-103263916D01*
X100174379Y-103263916D01*
X100170341Y-103264720D01*
X100166437Y-103266045D01*
X100166434Y-103266046D01*
X100032001Y-103311680D01*
X99973012Y-103317003D01*
X99918108Y-103294786D01*
X99879421Y-103249937D01*
X99865500Y-103192367D01*
X99865500Y-103110594D01*
X99875091Y-103062376D01*
X99902402Y-103021501D01*
X101010764Y-101913138D01*
X101017991Y-101906458D01*
X101062956Y-101868056D01*
X101116621Y-101805222D01*
X101229124Y-101673500D01*
X101240562Y-101654833D01*
X101286909Y-101610465D01*
X101349100Y-101594672D01*
X101407046Y-101610473D01*
G37*
G04 #@! TD.AperFunction*
G04 #@! TA.AperFunction,NonConductor*
G36*
X61152752Y-101785474D02*
G01*
X61195809Y-101818067D01*
X61247044Y-101878056D01*
X61288149Y-101913163D01*
X61291992Y-101916445D01*
X61299257Y-101923161D01*
X62339595Y-102963499D01*
X62366909Y-103004376D01*
X62376500Y-103052594D01*
X62376500Y-103124285D01*
X62363506Y-103180013D01*
X62327204Y-103224247D01*
X62275082Y-103247864D01*
X62194382Y-103263916D01*
X62194379Y-103263916D01*
X62190341Y-103264720D01*
X62186437Y-103266045D01*
X62186434Y-103266046D01*
X61908318Y-103360454D01*
X61898573Y-103363762D01*
X61894888Y-103365578D01*
X61894874Y-103365585D01*
X61625929Y-103498214D01*
X61625912Y-103498223D01*
X61622229Y-103500040D01*
X61618814Y-103502321D01*
X61618798Y-103502331D01*
X61599998Y-103514893D01*
X61554579Y-103533704D01*
X61505419Y-103533704D01*
X61460000Y-103514891D01*
X61441208Y-103502335D01*
X61441198Y-103502329D01*
X61437772Y-103500040D01*
X61434081Y-103498219D01*
X61434071Y-103498214D01*
X61165125Y-103365585D01*
X61165116Y-103365581D01*
X61161427Y-103363762D01*
X60869659Y-103264720D01*
X60865619Y-103263916D01*
X60865614Y-103263915D01*
X60716919Y-103234338D01*
X60664796Y-103210721D01*
X60628494Y-103166487D01*
X60615500Y-103110759D01*
X60615500Y-102260595D01*
X60625091Y-102212377D01*
X60652404Y-102171500D01*
X60698687Y-102125217D01*
X60900758Y-101923144D01*
X60908007Y-101916445D01*
X60952956Y-101878056D01*
X61004190Y-101818067D01*
X61047248Y-101785474D01*
X61100000Y-101773900D01*
X61152752Y-101785474D01*
G37*
G04 #@! TD.AperFunction*
G04 #@! TA.AperFunction,NonConductor*
G36*
X125623426Y-110353530D02*
G01*
X129767501Y-114497605D01*
X129798239Y-114547764D01*
X129802855Y-114606411D01*
X129780342Y-114660761D01*
X129735609Y-114698967D01*
X129678406Y-114712700D01*
X129497158Y-114712700D01*
X129495222Y-114712820D01*
X129495195Y-114712821D01*
X129398309Y-114718836D01*
X129398298Y-114718837D01*
X129393763Y-114719119D01*
X129389308Y-114720052D01*
X129389301Y-114720054D01*
X129155494Y-114769078D01*
X129155483Y-114769081D01*
X129150386Y-114770150D01*
X129145532Y-114772043D01*
X129145522Y-114772047D01*
X128923584Y-114858648D01*
X128923576Y-114858651D01*
X128918727Y-114860544D01*
X128914255Y-114863208D01*
X128914246Y-114863213D01*
X128867716Y-114890938D01*
X128808210Y-114908597D01*
X128747494Y-114895703D01*
X128722252Y-114883255D01*
X128567969Y-114830883D01*
X128440604Y-114787648D01*
X128440599Y-114787646D01*
X128436691Y-114786320D01*
X128432646Y-114785515D01*
X128432641Y-114785514D01*
X128144959Y-114728290D01*
X128144952Y-114728289D01*
X128140920Y-114727487D01*
X128136813Y-114727217D01*
X128136807Y-114727217D01*
X127844119Y-114708034D01*
X127840000Y-114707764D01*
X127835881Y-114708034D01*
X127543192Y-114727217D01*
X127543184Y-114727217D01*
X127539080Y-114727487D01*
X127535049Y-114728288D01*
X127535040Y-114728290D01*
X127247358Y-114785514D01*
X127247349Y-114785516D01*
X127243309Y-114786320D01*
X127239403Y-114787645D01*
X127239395Y-114787648D01*
X126961654Y-114881929D01*
X126957748Y-114883255D01*
X126954063Y-114885072D01*
X126954049Y-114885078D01*
X126778492Y-114971653D01*
X126721662Y-114984642D01*
X126665069Y-114970661D01*
X126621117Y-114932955D01*
X126619123Y-114929700D01*
X126494560Y-114783856D01*
X126494560Y-114783855D01*
X126494546Y-114783840D01*
X126456169Y-114738906D01*
X126452956Y-114735144D01*
X126407993Y-114696742D01*
X126400741Y-114690037D01*
X125182405Y-113471701D01*
X125155091Y-113430824D01*
X125145500Y-113382606D01*
X125145500Y-110509241D01*
X125158494Y-110453513D01*
X125194796Y-110409279D01*
X125246919Y-110385662D01*
X125292316Y-110376631D01*
X125399659Y-110355280D01*
X125493832Y-110323311D01*
X125562942Y-110319916D01*
X125623426Y-110353530D01*
G37*
G04 #@! TD.AperFunction*
G04 #@! TA.AperFunction,NonConductor*
G36*
X69857396Y-118062793D02*
G01*
X69958991Y-118133930D01*
X69968432Y-118139381D01*
X70014551Y-118185500D01*
X70031432Y-118248500D01*
X70014551Y-118311500D01*
X69968432Y-118357619D01*
X69905432Y-118374500D01*
X69767830Y-118374500D01*
X69713664Y-118362263D01*
X69670020Y-118327930D01*
X69645373Y-118278169D01*
X69644511Y-118222645D01*
X69661809Y-118140145D01*
X69688790Y-118084794D01*
X69738784Y-118048838D01*
X69799849Y-118040869D01*
X69857396Y-118062793D01*
G37*
G04 #@! TD.AperFunction*
G04 #@! TA.AperFunction,NonConductor*
G36*
X48840884Y-118051231D02*
G01*
X48958987Y-118133927D01*
X48968489Y-118139413D01*
X49165946Y-118231489D01*
X49176238Y-118235235D01*
X49325717Y-118275288D01*
X49379838Y-118305598D01*
X49412939Y-118358058D01*
X49416996Y-118419956D01*
X49391027Y-118476289D01*
X49341325Y-118513403D01*
X49264337Y-118545292D01*
X49264317Y-118545302D01*
X49259757Y-118547191D01*
X49255541Y-118549773D01*
X49255536Y-118549777D01*
X49045813Y-118678294D01*
X49045801Y-118678302D01*
X49041600Y-118680877D01*
X49037850Y-118684079D01*
X49037840Y-118684087D01*
X48895756Y-118805440D01*
X48850806Y-118843830D01*
X48850799Y-118843836D01*
X48847044Y-118847044D01*
X48843836Y-118850799D01*
X48843834Y-118850802D01*
X48808652Y-118891994D01*
X48801938Y-118899256D01*
X46712640Y-120988554D01*
X46654560Y-121021582D01*
X46587759Y-121020270D01*
X46531020Y-120984988D01*
X46500298Y-120925656D01*
X46504231Y-120858959D01*
X46575280Y-120649659D01*
X46635391Y-120347460D01*
X46648981Y-120140104D01*
X46659942Y-120096346D01*
X46685613Y-120059255D01*
X48679521Y-118065347D01*
X48728981Y-118034839D01*
X48786875Y-118029774D01*
X48840884Y-118051231D01*
G37*
G04 #@! TD.AperFunction*
G04 #@! TA.AperFunction,NonConductor*
G36*
X111124173Y-122639992D02*
G01*
X111169345Y-122680133D01*
X111190632Y-122736691D01*
X111183136Y-122796656D01*
X111148581Y-122846232D01*
X111144237Y-122850042D01*
X111080601Y-122905848D01*
X111027472Y-122933504D01*
X110967576Y-122933504D01*
X110914448Y-122905847D01*
X110846470Y-122846232D01*
X110811916Y-122796654D01*
X110804420Y-122736690D01*
X110825707Y-122680133D01*
X110870880Y-122639992D01*
X110929547Y-122625500D01*
X111065505Y-122625500D01*
X111124173Y-122639992D01*
G37*
G04 #@! TD.AperFunction*
G04 #@! TA.AperFunction,NonConductor*
G36*
X133360600Y-127477780D02*
G01*
X133409194Y-127507998D01*
X133467822Y-127566626D01*
X133495136Y-127607503D01*
X133504727Y-127655721D01*
X133504727Y-127655880D01*
X133504457Y-127660000D01*
X133524609Y-127967460D01*
X133525412Y-127971501D01*
X133525413Y-127971502D01*
X133579886Y-128245360D01*
X133584720Y-128269659D01*
X133683762Y-128561427D01*
X133685581Y-128565116D01*
X133685585Y-128565125D01*
X133818213Y-128834068D01*
X133820040Y-128837772D01*
X133991222Y-129093964D01*
X134194380Y-129325620D01*
X134426036Y-129528778D01*
X134682228Y-129699960D01*
X134733341Y-129725166D01*
X134951189Y-129832597D01*
X134958573Y-129836238D01*
X135250341Y-129935280D01*
X135254389Y-129936085D01*
X135258373Y-129937153D01*
X135257997Y-129938555D01*
X135312278Y-129965874D01*
X135348239Y-130022658D01*
X135349890Y-130089852D01*
X135316761Y-130148333D01*
X132799346Y-132665748D01*
X132746884Y-132697210D01*
X132685788Y-132700255D01*
X132630457Y-132674167D01*
X132593934Y-132625093D01*
X132584829Y-132564602D01*
X132587685Y-132534878D01*
X132588584Y-132527693D01*
X132588966Y-132525222D01*
X132600500Y-132450555D01*
X132600500Y-132407529D01*
X132601078Y-132395479D01*
X132603652Y-132368682D01*
X132605191Y-132352668D01*
X132600708Y-132274744D01*
X132600500Y-132267507D01*
X132600500Y-129017439D01*
X132608576Y-128973055D01*
X132631768Y-128934361D01*
X132644426Y-128919927D01*
X132729025Y-128823461D01*
X132896566Y-128572718D01*
X133029945Y-128302252D01*
X133126880Y-128016691D01*
X133185713Y-127720920D01*
X133194369Y-127588851D01*
X133210980Y-127534093D01*
X133250097Y-127492328D01*
X133303653Y-127472171D01*
X133360600Y-127477780D01*
G37*
G04 #@! TD.AperFunction*
G04 #@! TA.AperFunction,NonConductor*
G36*
X127648316Y-128490438D02*
G01*
X127738993Y-128553931D01*
X127748489Y-128559413D01*
X127945946Y-128651489D01*
X127956238Y-128655235D01*
X128166687Y-128711625D01*
X128177480Y-128713528D01*
X128394525Y-128732517D01*
X128405475Y-128732517D01*
X128622519Y-128713528D01*
X128633312Y-128711625D01*
X128849071Y-128653813D01*
X128849298Y-128654663D01*
X128898171Y-128648407D01*
X128950860Y-128665652D01*
X128991048Y-128703843D01*
X129032348Y-128765652D01*
X129070975Y-128823461D01*
X129086536Y-128841205D01*
X129168232Y-128934361D01*
X129191424Y-128973055D01*
X129199500Y-129017439D01*
X129199500Y-131563440D01*
X129189909Y-131611658D01*
X129162595Y-131652535D01*
X125905695Y-134909435D01*
X125855536Y-134940173D01*
X125796889Y-134944789D01*
X125742539Y-134922276D01*
X125704333Y-134877543D01*
X125690600Y-134820340D01*
X125690600Y-132629016D01*
X125690988Y-132619130D01*
X125695626Y-132560200D01*
X125697122Y-132560317D01*
X125708232Y-132512669D01*
X125744535Y-132468435D01*
X125796657Y-132444819D01*
X125870753Y-132430081D01*
X126143902Y-132337359D01*
X126402611Y-132209778D01*
X126642454Y-132049520D01*
X126859327Y-131859327D01*
X127049520Y-131642454D01*
X127209778Y-131402611D01*
X127337359Y-131143902D01*
X127430081Y-130870753D01*
X127486356Y-130587839D01*
X127505222Y-130300000D01*
X127486356Y-130012161D01*
X127430081Y-129729247D01*
X127337359Y-129456098D01*
X127209778Y-129197389D01*
X127207485Y-129193958D01*
X127207482Y-129193952D01*
X127167932Y-129134763D01*
X127148162Y-129083928D01*
X127151730Y-129029501D01*
X127177961Y-128981686D01*
X127229025Y-128923461D01*
X127396566Y-128672718D01*
X127463040Y-128537921D01*
X127496644Y-128495817D01*
X127544763Y-128471596D01*
X127598601Y-128469686D01*
X127648316Y-128490438D01*
G37*
G04 #@! TD.AperFunction*
G04 #@! TA.AperFunction,NonConductor*
G36*
X116625001Y-132154728D02*
G01*
X116631317Y-132158948D01*
X116707389Y-132209778D01*
X116966098Y-132337359D01*
X117239247Y-132430081D01*
X117522161Y-132486356D01*
X117810000Y-132505222D01*
X118097839Y-132486356D01*
X118380753Y-132430081D01*
X118653902Y-132337359D01*
X118912611Y-132209778D01*
X118994998Y-132154727D01*
X119040416Y-132135914D01*
X119089580Y-132135914D01*
X119135001Y-132154728D01*
X119141317Y-132158948D01*
X119217389Y-132209778D01*
X119476098Y-132337359D01*
X119749247Y-132430081D01*
X120032161Y-132486356D01*
X120320000Y-132505222D01*
X120607839Y-132486356D01*
X120890753Y-132430081D01*
X121163902Y-132337359D01*
X121353272Y-132243972D01*
X121410093Y-132230984D01*
X121466684Y-132244960D01*
X121510059Y-132282166D01*
X121510877Y-132283500D01*
X121635440Y-132429344D01*
X121677044Y-132478056D01*
X121680806Y-132481269D01*
X121721992Y-132516445D01*
X121729257Y-132523161D01*
X122402695Y-133196599D01*
X122430009Y-133237476D01*
X122439600Y-133285694D01*
X122439600Y-135650639D01*
X122426606Y-135706367D01*
X122390304Y-135750601D01*
X122338181Y-135774218D01*
X122263297Y-135789113D01*
X122263290Y-135789114D01*
X122259247Y-135789919D01*
X122255344Y-135791243D01*
X122255336Y-135791246D01*
X121989997Y-135881317D01*
X121989990Y-135881319D01*
X121986098Y-135882641D01*
X121982405Y-135884462D01*
X121982403Y-135884463D01*
X121731092Y-136008395D01*
X121731081Y-136008401D01*
X121727389Y-136010222D01*
X121723963Y-136012510D01*
X121723958Y-136012514D01*
X121645000Y-136065272D01*
X121599580Y-136084085D01*
X121550417Y-136084085D01*
X121504998Y-136065271D01*
X121476812Y-136046438D01*
X121426044Y-136012515D01*
X121426034Y-136012509D01*
X121422611Y-136010222D01*
X121418911Y-136008397D01*
X121418907Y-136008395D01*
X121245014Y-135922641D01*
X121163902Y-135882641D01*
X121008589Y-135829919D01*
X120894663Y-135791246D01*
X120894659Y-135791244D01*
X120890753Y-135789919D01*
X120886705Y-135789113D01*
X120886702Y-135789113D01*
X120611881Y-135734448D01*
X120611880Y-135734447D01*
X120607839Y-135733644D01*
X120603728Y-135733374D01*
X120603724Y-135733374D01*
X120347237Y-135716563D01*
X120320000Y-135714778D01*
X120296753Y-135716301D01*
X120036275Y-135733374D01*
X120036269Y-135733374D01*
X120032161Y-135733644D01*
X120028120Y-135734447D01*
X120028118Y-135734448D01*
X119753297Y-135789113D01*
X119753291Y-135789114D01*
X119749247Y-135789919D01*
X119745344Y-135791243D01*
X119745336Y-135791246D01*
X119479997Y-135881317D01*
X119479990Y-135881319D01*
X119476098Y-135882641D01*
X119472405Y-135884462D01*
X119472403Y-135884463D01*
X119221092Y-136008395D01*
X119221081Y-136008401D01*
X119217389Y-136010222D01*
X119213963Y-136012510D01*
X119213958Y-136012514D01*
X119135000Y-136065272D01*
X119089580Y-136084085D01*
X119040417Y-136084085D01*
X118994998Y-136065271D01*
X118966812Y-136046438D01*
X118916044Y-136012515D01*
X118916034Y-136012509D01*
X118912611Y-136010222D01*
X118908911Y-136008397D01*
X118908907Y-136008395D01*
X118735014Y-135922641D01*
X118653902Y-135882641D01*
X118498589Y-135829919D01*
X118384663Y-135791246D01*
X118384659Y-135791244D01*
X118380753Y-135789919D01*
X118376705Y-135789113D01*
X118376702Y-135789113D01*
X118101881Y-135734448D01*
X118101880Y-135734447D01*
X118097839Y-135733644D01*
X118093728Y-135733374D01*
X118093724Y-135733374D01*
X117837237Y-135716563D01*
X117810000Y-135714778D01*
X117786753Y-135716301D01*
X117526275Y-135733374D01*
X117526269Y-135733374D01*
X117522161Y-135733644D01*
X117518120Y-135734447D01*
X117518118Y-135734448D01*
X117243297Y-135789113D01*
X117243291Y-135789114D01*
X117239247Y-135789919D01*
X117235344Y-135791243D01*
X117235336Y-135791246D01*
X116969997Y-135881317D01*
X116969990Y-135881319D01*
X116966098Y-135882641D01*
X116962405Y-135884462D01*
X116962403Y-135884463D01*
X116711092Y-136008395D01*
X116711081Y-136008401D01*
X116707389Y-136010222D01*
X116703963Y-136012510D01*
X116703958Y-136012514D01*
X116625000Y-136065272D01*
X116579580Y-136084085D01*
X116530417Y-136084085D01*
X116484998Y-136065271D01*
X116456812Y-136046438D01*
X116406044Y-136012515D01*
X116406034Y-136012509D01*
X116402611Y-136010222D01*
X116398911Y-136008397D01*
X116398907Y-136008395D01*
X116225014Y-135922641D01*
X116143902Y-135882641D01*
X115988589Y-135829919D01*
X115874663Y-135791246D01*
X115874659Y-135791244D01*
X115870753Y-135789919D01*
X115866705Y-135789113D01*
X115866702Y-135789113D01*
X115591883Y-135734448D01*
X115591877Y-135734447D01*
X115587839Y-135733644D01*
X115583727Y-135733374D01*
X115583724Y-135733374D01*
X115560967Y-135731882D01*
X115517209Y-135720920D01*
X115480117Y-135695247D01*
X114437405Y-134652535D01*
X114410091Y-134611658D01*
X114400500Y-134563440D01*
X114400500Y-132494319D01*
X114414421Y-132436749D01*
X114453108Y-132391900D01*
X114508012Y-132369683D01*
X114567001Y-132375005D01*
X114729247Y-132430081D01*
X115012161Y-132486356D01*
X115300000Y-132505222D01*
X115587839Y-132486356D01*
X115870753Y-132430081D01*
X116143902Y-132337359D01*
X116402611Y-132209778D01*
X116484998Y-132154727D01*
X116530416Y-132135914D01*
X116579580Y-132135914D01*
X116625001Y-132154728D01*
G37*
G04 #@! TD.AperFunction*
G04 #@! TA.AperFunction,NonConductor*
G36*
X47427035Y-128642548D02*
G01*
X47483784Y-128677973D01*
X47514399Y-128737451D01*
X47516950Y-128749614D01*
X47518843Y-128754465D01*
X47518845Y-128754472D01*
X47601130Y-128965348D01*
X47607344Y-128981273D01*
X47610007Y-128985743D01*
X47610011Y-128985750D01*
X47709609Y-129152897D01*
X47734634Y-129194894D01*
X47895350Y-129384650D01*
X48010768Y-129482405D01*
X48014934Y-129485933D01*
X48047817Y-129529094D01*
X48059500Y-129582081D01*
X48059500Y-135177354D01*
X48058369Y-135194198D01*
X48057956Y-135197254D01*
X48057955Y-135197265D01*
X48057311Y-135202042D01*
X48057403Y-135206862D01*
X48057403Y-135206869D01*
X48059477Y-135315089D01*
X48059500Y-135317503D01*
X48059500Y-135365177D01*
X48060472Y-135377840D01*
X48060817Y-135385045D01*
X48062220Y-135458277D01*
X48062220Y-135458283D01*
X48062313Y-135463104D01*
X48063139Y-135467850D01*
X48063140Y-135467856D01*
X48069692Y-135505485D01*
X48071189Y-135517446D01*
X48074114Y-135555536D01*
X48074115Y-135555545D01*
X48074484Y-135560344D01*
X48075579Y-135565026D01*
X48075582Y-135565041D01*
X48092269Y-135636350D01*
X48093715Y-135643441D01*
X48106279Y-135715590D01*
X48107107Y-135720343D01*
X48108651Y-135724917D01*
X48108652Y-135724919D01*
X48120870Y-135761104D01*
X48124177Y-135772701D01*
X48131183Y-135802641D01*
X48133979Y-135814586D01*
X48135783Y-135819062D01*
X48135784Y-135819065D01*
X48163157Y-135886983D01*
X48165668Y-135893771D01*
X48189094Y-135963145D01*
X48189099Y-135963157D01*
X48190643Y-135967729D01*
X48210471Y-136005919D01*
X48215496Y-136016846D01*
X48231586Y-136056766D01*
X48234054Y-136060917D01*
X48271477Y-136123867D01*
X48274994Y-136130191D01*
X48308739Y-136195181D01*
X48308742Y-136195187D01*
X48310964Y-136199465D01*
X48313804Y-136203343D01*
X48313813Y-136203357D01*
X48336382Y-136234172D01*
X48343032Y-136244229D01*
X48362546Y-136277052D01*
X48362553Y-136277062D01*
X48365018Y-136281208D01*
X48368092Y-136284935D01*
X48414685Y-136341434D01*
X48419128Y-136347148D01*
X48465249Y-136410119D01*
X48468668Y-136413538D01*
X48495660Y-136440530D01*
X48503772Y-136449458D01*
X48528073Y-136478925D01*
X48528082Y-136478934D01*
X48531148Y-136482652D01*
X48589428Y-136534591D01*
X48594692Y-136539562D01*
X50175247Y-138120117D01*
X50200920Y-138157209D01*
X50211882Y-138200967D01*
X50212063Y-138203724D01*
X50213644Y-138227839D01*
X50214447Y-138231877D01*
X50214448Y-138231883D01*
X50269113Y-138506702D01*
X50269919Y-138510753D01*
X50271244Y-138514659D01*
X50271246Y-138514663D01*
X50328695Y-138683902D01*
X50362641Y-138783902D01*
X50369394Y-138797596D01*
X50440907Y-138942611D01*
X50490222Y-139042611D01*
X50650480Y-139282454D01*
X50653198Y-139285553D01*
X50653204Y-139285561D01*
X50657907Y-139290924D01*
X50684881Y-139341390D01*
X50686753Y-139398583D01*
X50663136Y-139450705D01*
X50618902Y-139487006D01*
X50563174Y-139500000D01*
X40626000Y-139500000D01*
X40563000Y-139483119D01*
X40516881Y-139437000D01*
X40500000Y-139374000D01*
X40500000Y-136567765D01*
X41645788Y-136567765D01*
X41646290Y-136572332D01*
X41646291Y-136572344D01*
X41674910Y-136832444D01*
X41674911Y-136832453D01*
X41675414Y-136837018D01*
X41676576Y-136841463D01*
X41676577Y-136841468D01*
X41715408Y-136989997D01*
X41743928Y-137099088D01*
X41745725Y-137103318D01*
X41745728Y-137103325D01*
X41795866Y-137221308D01*
X41849870Y-137348390D01*
X41852265Y-137352315D01*
X41852266Y-137352316D01*
X41965659Y-137538118D01*
X41990982Y-137579610D01*
X41993917Y-137583137D01*
X41993918Y-137583138D01*
X42031350Y-137628118D01*
X42164255Y-137787820D01*
X42206734Y-137825881D01*
X42362561Y-137965503D01*
X42362565Y-137965506D01*
X42365998Y-137968582D01*
X42591910Y-138118044D01*
X42837176Y-138233020D01*
X43096569Y-138311060D01*
X43364561Y-138350500D01*
X43565330Y-138350500D01*
X43567631Y-138350500D01*
X43770156Y-138335677D01*
X44034553Y-138276780D01*
X44287558Y-138180014D01*
X44523777Y-138047441D01*
X44738177Y-137881888D01*
X44926186Y-137686881D01*
X45083799Y-137466579D01*
X45207656Y-137225675D01*
X45295118Y-136969305D01*
X45344319Y-136702933D01*
X45352304Y-136484446D01*
X45354044Y-136436837D01*
X45354043Y-136436834D01*
X45354212Y-136432235D01*
X45324586Y-136162982D01*
X45256072Y-135900912D01*
X45150130Y-135651610D01*
X45009018Y-135420390D01*
X44835745Y-135212180D01*
X44760137Y-135144435D01*
X44637438Y-135034496D01*
X44637432Y-135034491D01*
X44634002Y-135031418D01*
X44408090Y-134881956D01*
X44351496Y-134855426D01*
X44272383Y-134818339D01*
X44162824Y-134766980D01*
X44158420Y-134765655D01*
X43907843Y-134690267D01*
X43907838Y-134690265D01*
X43903431Y-134688940D01*
X43898874Y-134688269D01*
X43898868Y-134688268D01*
X43640000Y-134650171D01*
X43639996Y-134650170D01*
X43635439Y-134649500D01*
X43432369Y-134649500D01*
X43430098Y-134649666D01*
X43430076Y-134649667D01*
X43234438Y-134663986D01*
X43234427Y-134663987D01*
X43229844Y-134664323D01*
X43225353Y-134665323D01*
X43225349Y-134665324D01*
X42969939Y-134722219D01*
X42969934Y-134722220D01*
X42965447Y-134723220D01*
X42961149Y-134724863D01*
X42961145Y-134724865D01*
X42716746Y-134818339D01*
X42716735Y-134818343D01*
X42712442Y-134819986D01*
X42708434Y-134822235D01*
X42708422Y-134822241D01*
X42480232Y-134950308D01*
X42480221Y-134950314D01*
X42476223Y-134952559D01*
X42472589Y-134955364D01*
X42472586Y-134955367D01*
X42265466Y-135115298D01*
X42265458Y-135115305D01*
X42261823Y-135118112D01*
X42258632Y-135121421D01*
X42258625Y-135121428D01*
X42077011Y-135309802D01*
X42077004Y-135309809D01*
X42073814Y-135313119D01*
X42071136Y-135316861D01*
X42071131Y-135316868D01*
X41918885Y-135529668D01*
X41918878Y-135529677D01*
X41916201Y-135533421D01*
X41914097Y-135537512D01*
X41914091Y-135537523D01*
X41799141Y-135761104D01*
X41792344Y-135774325D01*
X41790856Y-135778684D01*
X41790854Y-135778691D01*
X41706371Y-136026327D01*
X41706367Y-136026341D01*
X41704882Y-136030695D01*
X41704044Y-136035228D01*
X41704044Y-136035231D01*
X41656517Y-136292537D01*
X41656515Y-136292546D01*
X41655681Y-136297067D01*
X41655513Y-136301656D01*
X41655512Y-136301668D01*
X41645956Y-136563161D01*
X41645788Y-136567765D01*
X40500000Y-136567765D01*
X40500000Y-130494801D01*
X40514878Y-130435405D01*
X40555998Y-130390036D01*
X40613649Y-130369408D01*
X40674218Y-130378392D01*
X40699640Y-130388922D01*
X40948430Y-130448652D01*
X41139637Y-130463700D01*
X41139640Y-130463700D01*
X41203500Y-130468726D01*
X41262430Y-130464087D01*
X41272316Y-130463700D01*
X44770384Y-130463700D01*
X44780269Y-130464087D01*
X44839200Y-130468726D01*
X44903060Y-130463700D01*
X44903063Y-130463700D01*
X45094270Y-130448652D01*
X45343060Y-130388922D01*
X45579443Y-130291009D01*
X45607423Y-130273863D01*
X45797600Y-130157323D01*
X45943444Y-130032760D01*
X45943444Y-130032759D01*
X45992156Y-129991156D01*
X46030558Y-129946191D01*
X46037250Y-129938952D01*
X47301989Y-128674213D01*
X47360151Y-128641166D01*
X47427035Y-128642548D01*
G37*
G04 #@! TD.AperFunction*
G04 #@! TA.AperFunction,NonConductor*
G36*
X111991658Y-137030091D02*
G01*
X112032535Y-137057405D01*
X113075247Y-138100117D01*
X113100920Y-138137209D01*
X113111882Y-138180967D01*
X113113374Y-138203724D01*
X113113644Y-138207839D01*
X113114447Y-138211877D01*
X113114448Y-138211883D01*
X113153200Y-138406702D01*
X113169919Y-138490753D01*
X113171244Y-138494659D01*
X113171246Y-138494663D01*
X113236738Y-138687596D01*
X113262641Y-138763902D01*
X113279257Y-138797596D01*
X113340907Y-138922611D01*
X113390222Y-139022611D01*
X113550480Y-139262454D01*
X113553200Y-139265556D01*
X113553205Y-139265562D01*
X113575445Y-139290922D01*
X113602421Y-139341388D01*
X113604293Y-139398581D01*
X113580677Y-139450704D01*
X113536442Y-139487006D01*
X113480714Y-139500000D01*
X106249128Y-139500000D01*
X106193400Y-139487006D01*
X106149165Y-139450704D01*
X106125549Y-139398581D01*
X106127421Y-139341389D01*
X106154396Y-139290922D01*
X106176636Y-139265562D01*
X106249520Y-139182454D01*
X106409778Y-138942611D01*
X106537359Y-138683902D01*
X106630081Y-138410753D01*
X106686356Y-138127839D01*
X106688117Y-138100967D01*
X106699076Y-138057213D01*
X106724746Y-138020122D01*
X107687467Y-137057402D01*
X107728342Y-137030091D01*
X107776560Y-137020500D01*
X111943440Y-137020500D01*
X111991658Y-137030091D01*
G37*
G04 #@! TD.AperFunction*
G04 #@! TA.AperFunction,NonConductor*
G36*
X139448061Y-130764958D02*
G01*
X139486267Y-130809691D01*
X139500000Y-130866894D01*
X139500000Y-139374000D01*
X139483119Y-139437000D01*
X139437000Y-139483119D01*
X139374000Y-139500000D01*
X130866894Y-139500000D01*
X130809691Y-139486267D01*
X130764958Y-139448061D01*
X130742445Y-139393711D01*
X130747061Y-139335064D01*
X130777799Y-139284905D01*
X132718550Y-137344154D01*
X134807451Y-135255252D01*
X134860611Y-135223581D01*
X134922440Y-135221039D01*
X134978024Y-135248239D01*
X135013954Y-135298622D01*
X135021564Y-135360034D01*
X134999019Y-135417662D01*
X134916201Y-135533421D01*
X134914097Y-135537512D01*
X134914091Y-135537523D01*
X134799141Y-135761104D01*
X134792344Y-135774325D01*
X134790856Y-135778684D01*
X134790854Y-135778691D01*
X134706371Y-136026327D01*
X134706367Y-136026341D01*
X134704882Y-136030695D01*
X134704044Y-136035228D01*
X134704044Y-136035231D01*
X134656517Y-136292537D01*
X134656515Y-136292546D01*
X134655681Y-136297067D01*
X134655513Y-136301656D01*
X134655512Y-136301668D01*
X134645956Y-136563161D01*
X134645788Y-136567765D01*
X134646290Y-136572332D01*
X134646291Y-136572344D01*
X134674910Y-136832444D01*
X134674911Y-136832453D01*
X134675414Y-136837018D01*
X134676576Y-136841463D01*
X134676577Y-136841468D01*
X134715408Y-136989997D01*
X134743928Y-137099088D01*
X134745725Y-137103318D01*
X134745728Y-137103325D01*
X134795866Y-137221308D01*
X134849870Y-137348390D01*
X134852265Y-137352315D01*
X134852266Y-137352316D01*
X134965659Y-137538118D01*
X134990982Y-137579610D01*
X134993917Y-137583137D01*
X134993918Y-137583138D01*
X135031350Y-137628118D01*
X135164255Y-137787820D01*
X135206734Y-137825881D01*
X135362561Y-137965503D01*
X135362565Y-137965506D01*
X135365998Y-137968582D01*
X135591910Y-138118044D01*
X135837176Y-138233020D01*
X136096569Y-138311060D01*
X136364561Y-138350500D01*
X136565330Y-138350500D01*
X136567631Y-138350500D01*
X136770156Y-138335677D01*
X137034553Y-138276780D01*
X137287558Y-138180014D01*
X137523777Y-138047441D01*
X137738177Y-137881888D01*
X137926186Y-137686881D01*
X138083799Y-137466579D01*
X138207656Y-137225675D01*
X138295118Y-136969305D01*
X138344319Y-136702933D01*
X138352304Y-136484446D01*
X138354044Y-136436837D01*
X138354043Y-136436834D01*
X138354212Y-136432235D01*
X138324586Y-136162982D01*
X138256072Y-135900912D01*
X138150130Y-135651610D01*
X138009018Y-135420390D01*
X137835745Y-135212180D01*
X137760137Y-135144435D01*
X137637438Y-135034496D01*
X137637432Y-135034491D01*
X137634002Y-135031418D01*
X137408090Y-134881956D01*
X137351496Y-134855426D01*
X137272383Y-134818339D01*
X137162824Y-134766980D01*
X137158420Y-134765655D01*
X136907843Y-134690267D01*
X136907838Y-134690265D01*
X136903431Y-134688940D01*
X136898874Y-134688269D01*
X136898868Y-134688268D01*
X136640000Y-134650171D01*
X136639996Y-134650170D01*
X136635439Y-134649500D01*
X136432369Y-134649500D01*
X136430098Y-134649666D01*
X136430076Y-134649667D01*
X136234438Y-134663986D01*
X136234427Y-134663987D01*
X136229844Y-134664323D01*
X136225353Y-134665323D01*
X136225349Y-134665324D01*
X135969939Y-134722219D01*
X135969934Y-134722220D01*
X135965447Y-134723220D01*
X135961149Y-134724863D01*
X135961145Y-134724865D01*
X135716746Y-134818339D01*
X135716735Y-134818343D01*
X135712442Y-134819986D01*
X135708434Y-134822235D01*
X135708422Y-134822241D01*
X135480232Y-134950308D01*
X135480221Y-134950314D01*
X135476223Y-134952559D01*
X135472598Y-134955357D01*
X135472580Y-134955370D01*
X135427276Y-134990353D01*
X135369752Y-135015108D01*
X135307415Y-135009111D01*
X135255664Y-134973844D01*
X135227284Y-134918019D01*
X135229286Y-134855426D01*
X135261173Y-134801530D01*
X139284904Y-130777799D01*
X139335064Y-130747061D01*
X139393711Y-130742445D01*
X139448061Y-130764958D01*
G37*
G04 #@! TD.AperFunction*
M02*
