M48
; DRILL file {KiCad (7.0.0)} date Sun Jun  4 12:17:26 2023
; FORMAT={-:-/ absolute / metric / decimal}
; #@! TF.CreationDate,2023-06-04T12:17:26+02:00
; #@! TF.GenerationSoftware,Kicad,Pcbnew,(7.0.0)
; #@! TF.FileFunction,Plated,1,2,PTH
FMAT,2
METRIC
; #@! TA.AperFunction,Plated,PTH,ViaDrill
T1C0.400
; #@! TA.AperFunction,Plated,PTH,ComponentDrill
T2C0.800
; #@! TA.AperFunction,Plated,PTH,ComponentDrill
T3C1.000
%
G90
G05
T1
X193.184Y-72.13
T2
X149.49Y-67.52
X149.49Y-75.14
X149.55Y-53.32
X149.55Y-60.94
X152.03Y-67.52
X152.03Y-75.14
X152.09Y-53.32
X152.09Y-60.94
X154.57Y-67.52
X154.57Y-75.14
X154.63Y-53.32
X154.63Y-60.94
X157.11Y-67.52
X157.11Y-75.14
X157.17Y-53.32
X157.17Y-60.94
X159.65Y-67.52
X159.65Y-75.14
X159.71Y-53.32
X159.71Y-60.94
X162.19Y-67.52
X162.19Y-75.14
X162.25Y-53.32
X162.25Y-60.94
X164.73Y-67.52
X164.73Y-75.14
X164.79Y-53.32
X164.79Y-60.94
X167.27Y-67.52
X167.27Y-75.14
X167.33Y-53.32
X167.33Y-60.94
X170.16Y-80.44
X170.16Y-82.94
X170.52Y-53.31
X170.52Y-60.93
X170.59Y-67.52
X170.59Y-75.14
X173.06Y-53.31
X173.06Y-60.93
X173.13Y-67.52
X173.13Y-75.14
X175.6Y-53.31
X175.6Y-60.93
X175.67Y-67.52
X175.67Y-75.14
X178.14Y-53.31
X178.14Y-60.93
X178.21Y-67.52
X178.21Y-75.14
X180.68Y-53.31
X180.68Y-60.93
X180.75Y-67.52
X180.75Y-75.14
X183.22Y-53.31
X183.22Y-60.93
X183.29Y-67.52
X183.29Y-75.14
X185.76Y-53.31
X185.76Y-60.93
X185.83Y-67.52
X185.83Y-75.14
X188.3Y-53.31
X188.3Y-60.93
X188.37Y-67.52
X188.37Y-75.14
X188.4Y-78.0
X188.4Y-80.5
X191.67Y-53.32
X191.67Y-60.94
X191.7Y-67.52
X191.7Y-75.14
X194.21Y-53.32
X194.21Y-60.94
X194.24Y-67.52
X194.24Y-75.14
X196.75Y-53.32
X196.75Y-60.94
X196.78Y-67.52
X196.78Y-75.14
X199.29Y-53.32
X199.29Y-60.94
X199.32Y-67.52
X199.32Y-75.14
X201.83Y-53.32
X201.83Y-60.94
X201.86Y-67.52
X201.86Y-75.14
X204.37Y-53.32
X204.37Y-60.94
X204.4Y-67.52
X204.4Y-75.14
X206.91Y-53.32
X206.91Y-60.94
X206.94Y-67.52
X206.94Y-75.14
X209.45Y-53.32
X209.45Y-60.94
X209.48Y-67.52
X209.48Y-75.14
X209.5Y-77.95
X209.5Y-80.45
X212.67Y-53.32
X212.67Y-60.94
X212.78Y-67.52
X212.78Y-75.14
X215.21Y-53.32
X215.21Y-60.94
X215.32Y-67.52
X215.32Y-75.14
X217.75Y-53.32
X217.75Y-60.94
X217.86Y-67.52
X217.86Y-75.14
X220.29Y-53.32
X220.29Y-60.94
X220.4Y-67.52
X220.4Y-75.14
X222.83Y-53.32
X222.83Y-60.94
X222.94Y-67.52
X222.94Y-75.14
X225.37Y-53.32
X225.37Y-60.94
X225.48Y-67.52
X225.48Y-75.14
X227.91Y-53.32
X227.91Y-60.94
X228.02Y-67.52
X228.02Y-75.14
X230.45Y-53.32
X230.45Y-60.94
X230.54Y-78.35
X230.56Y-67.52
X230.56Y-75.14
X233.04Y-78.35
T3
X152.63Y-44.2
X152.63Y-46.74
X152.7Y-83.06
X152.7Y-85.6
X155.17Y-44.2
X155.17Y-46.74
X155.24Y-83.06
X155.24Y-85.6
X157.71Y-44.2
X157.71Y-46.74
X157.78Y-83.06
X157.78Y-85.6
X160.25Y-44.2
X160.25Y-46.74
X160.32Y-83.06
X160.32Y-85.6
X162.79Y-44.2
X162.79Y-46.74
X162.86Y-83.06
X162.86Y-85.6
X174.07Y-44.2
X174.07Y-46.74
X176.61Y-44.2
X176.61Y-46.74
X179.15Y-44.2
X179.15Y-46.74
X181.69Y-44.2
X181.69Y-46.74
X184.23Y-44.2
X184.23Y-46.74
X195.77Y-44.21
X195.77Y-46.75
X198.31Y-44.21
X198.31Y-46.75
X200.85Y-44.21
X200.85Y-46.75
X203.39Y-44.21
X203.39Y-46.75
X205.93Y-44.21
X205.93Y-46.75
X216.97Y-83.75
X216.97Y-86.29
X217.25Y-44.21
X217.25Y-46.75
X219.51Y-83.75
X219.51Y-86.29
X219.79Y-44.21
X219.79Y-46.75
X222.05Y-83.75
X222.05Y-86.29
X222.33Y-44.21
X222.33Y-46.75
X224.59Y-83.75
X224.59Y-86.29
X224.87Y-44.21
X224.87Y-46.75
X227.13Y-83.75
X227.13Y-86.29
X227.41Y-44.21
X227.41Y-46.75
T0
M30
