<?xml version="1.0" standalone="no"?>
 <!DOCTYPE svg PUBLIC "-//W3C//DTD SVG 1.1//EN" 
 "http://www.w3.org/Graphics/SVG/1.1/DTD/svg11.dtd"> 
<svg xmlns="http://www.w3.org/2000/svg" version="1.1" 
    width="59.4004cm" height="41.9989cm" viewBox="0 0 233860 165350 ">
<title>SVG Picture created as case-Eco1.User.svg date 2016/11/07 19:06:14 </title>
  <desc>Picture generated by PCBNEW </desc>
<g style="fill:#000000; fill-opacity:1;stroke:#000000; stroke-opacity:1;
stroke-linecap:round; stroke-linejoin:round; "
 transform="translate(0 0) scale(1 1)">
</g>
<g style="fill:#000000; fill-opacity:0.0; 
stroke:#000000; stroke-width:-0.000393701; stroke-opacity:1; 
stroke-linecap:round; stroke-linejoin:round;">
</g>
<g style="fill:#000000; fill-opacity:0.0; 
stroke:#000000; stroke-width:39.3701; stroke-opacity:1; 
stroke-linecap:round; stroke-linejoin:round;">
<path d="M15250 80000
L15250 28000
" />
<path d="M182750 80000
L182750 28000
" />
</g>
<g style="fill:#000000; fill-opacity:0.0; 
stroke:#000000; stroke-width:78.7402; stroke-opacity:1; 
stroke-linecap:round; stroke-linejoin:round;">
<path d="M28461 68303
L28479 68335
" />
<path d="M28437 68274
L28461 68303
" />
<path d="M28410 68249
L28437 68274
" />
<path d="M28346 68212
L28379 68228
" />
<path d="M28379 68228
L28410 68249
" />
<path d="M28007 68443
L28010 68406
" />
<path d="M28010 68406
L28018 68370
" />
<path d="M28018 68370
L28032 68335
" />
<path d="M28007 68666
L28007 68443
" />
<path d="M29000 68666
L28007 68666
" />
<path d="M28702 69435
L28702 69038
" />
<path d="M28007 69237
L29000 68939
" />
<path d="M29000 69534
L28007 69237
" />
<path d="M28503 68443
L29000 68195
" />
<path d="M28503 68666
L28503 68443
" />
<path d="M28503 68443
L28503 68666
" />
<path d="M28501 68406
L28503 68443
" />
<path d="M28492 68370
L28501 68406
" />
<path d="M28479 68335
L28492 68370
" />
<path d="M28311 68201
L28346 68212
" />
<path d="M28274 68196
L28311 68201
" />
<path d="M28237 68196
L28274 68196
" />
<path d="M28200 68201
L28237 68196
" />
<path d="M28165 68212
L28200 68201
" />
<path d="M28131 68228
L28165 68212
" />
<path d="M28101 68249
L28131 68228
" />
<path d="M28074 68274
L28101 68249
" />
<path d="M28050 68303
L28074 68274
" />
<path d="M28032 68335
L28050 68303
" />
<path d="M65973 55255
L65973 55751
" />
<path d="M136893 76255
L137265 76255
" />
<path d="M136893 76751
L137340 76751
" />
<path d="M137340 75759
L136893 75759
" />
<path d="M136612 75759
L136612 76751
" />
<path d="M136290 76453
L136612 75759
" />
<path d="M136893 75759
L136893 76751
" />
<path d="M138039 55751
L138461 55751
" />
<path d="M138361 55503
L138361 56000
" />
<path d="M138361 55007
L138039 55751
" />
<circle cx="32500" cy="53000" r="985.203" /> 
<circle cx="32500" cy="47500" r="985.203" /> 
<circle cx="32500" cy="42000" r="985.203" /> 
<circle cx="32500" cy="36500" r="985.203" /> 
<circle cx="23500" cy="36500" r="985.203" /> 
<circle cx="23500" cy="42000" r="985.203" /> 
<circle cx="23500" cy="47500" r="985.203" /> 
<circle cx="23500" cy="53000" r="985.203" /> 
<circle cx="23500" cy="62500" r="985.203" /> 
<circle cx="23500" cy="68000" r="985.203" /> 
<circle cx="23500" cy="73500" r="985.203" /> 
<circle cx="32500" cy="62500" r="985.203" /> 
<circle cx="32500" cy="68000" r="985.203" /> 
<circle cx="32500" cy="73500" r="985.203" /> 
<circle cx="46500" cy="73500" r="985.203" /> 
<circle cx="54000" cy="73500" r="985.203" /> 
<circle cx="61500" cy="73500" r="985.203" /> 
<circle cx="69000" cy="73500" r="985.203" /> 
<circle cx="76500" cy="73500" r="985.203" /> 
<circle cx="84000" cy="73500" r="985.203" /> 
<circle cx="91500" cy="73500" r="985.203" /> 
<circle cx="91500" cy="64500" r="985.203" /> 
<circle cx="84000" cy="64500" r="985.203" /> 
<circle cx="76500" cy="64500" r="985.203" /> 
<circle cx="69000" cy="64500" r="985.203" /> 
<circle cx="61500" cy="64500" r="985.203" /> 
<circle cx="54000" cy="64500" r="985.203" /> 
<circle cx="46500" cy="64500" r="985.203" /> 
<circle cx="46500" cy="55500" r="985.203" /> 
<circle cx="54000" cy="55500" r="985.203" /> 
<circle cx="61500" cy="55500" r="985.203" /> 
<circle cx="69000" cy="55500" r="985.203" /> 
<circle cx="76500" cy="55500" r="985.203" /> 
<circle cx="84000" cy="55500" r="985.203" /> 
<circle cx="91500" cy="55500" r="985.203" /> 
<circle cx="99000" cy="55500" r="985.203" /> 
<circle cx="119000" cy="55500" r="985.203" /> 
<circle cx="126500" cy="55500" r="985.203" /> 
<circle cx="134000" cy="55500" r="985.203" /> 
<circle cx="141500" cy="55500" r="985.203" /> 
<circle cx="149000" cy="55500" r="985.203" /> 
<circle cx="156500" cy="55500" r="985.203" /> 
<circle cx="164000" cy="55500" r="985.203" /> 
<circle cx="171500" cy="55500" r="985.203" /> 
<circle cx="171500" cy="64500" r="985.203" /> 
<circle cx="164000" cy="64500" r="985.203" /> 
<circle cx="156500" cy="64500" r="985.203" /> 
<circle cx="149000" cy="64500" r="985.203" /> 
<circle cx="141500" cy="64500" r="985.203" /> 
<circle cx="134000" cy="64500" r="985.203" /> 
<circle cx="126500" cy="64500" r="985.203" /> 
<circle cx="126500" cy="73500" r="985.203" /> 
<circle cx="134000" cy="73500" r="985.203" /> 
<circle cx="141500" cy="73500" r="985.203" /> 
<circle cx="149000" cy="73500" r="985.203" /> 
<circle cx="156500" cy="73500" r="985.203" /> 
<circle cx="164000" cy="73500" r="985.203" /> 
<circle cx="171500" cy="73500" r="985.203" /> 
<path d="M28200 59007
L28237 59002
" />
<path d="M28165 59018
L28200 59007
" />
<path d="M28131 59034
L28165 59018
" />
<path d="M28101 59055
L28131 59034
" />
<path d="M28074 59080
L28101 59055
" />
<path d="M28050 59109
L28074 59080
" />
<path d="M28032 59142
L28050 59109
" />
<path d="M28018 59176
L28032 59142
" />
<path d="M28010 59212
L28018 59176
" />
<path d="M28007 59249
L28010 59212
" />
<path d="M28007 59472
L28007 59249
" />
<path d="M29000 59472
L28007 59472
" />
<path d="M28503 60192
L28503 59820
" />
<path d="M29000 60192
L29000 59745
" />
<path d="M28007 60192
L29000 60192
" />
<path d="M28007 59745
L28007 60192
" />
<path d="M28627 60696
L28007 60473
" />
<path d="M29000 60696
L28627 60696
" />
<path d="M28627 60696
L29000 60696
" />
<path d="M28007 60919
L28627 60696
" />
<path d="M28702 61696
L28702 61300
" />
<path d="M28007 61498
L29000 61200
" />
<path d="M29000 61796
L28007 61498
" />
<path d="M29000 62399
L29000 62077
" />
<path d="M28007 62399
L29000 62399
" />
<path d="M28503 63714
L29000 63466
" />
<path d="M28503 63937
L28503 63714
" />
<path d="M28503 63714
L28503 63937
" />
<path d="M28501 63677
L28503 63714
" />
<path d="M28492 63640
L28501 63677
" />
<path d="M28479 63606
L28492 63640
" />
<path d="M28461 63574
L28479 63606
" />
<path d="M28437 63545
L28461 63574
" />
<path d="M28410 63520
L28437 63545
" />
<path d="M28379 63499
L28410 63520
" />
<path d="M28346 63483
L28379 63499
" />
<path d="M28311 63472
L28346 63483
" />
<path d="M28274 63466
L28311 63472
" />
<path d="M28237 63466
L28274 63466
" />
<path d="M28200 63472
L28237 63466
" />
<path d="M28165 63483
L28200 63472
" />
<path d="M28131 63499
L28165 63483
" />
<path d="M28101 63520
L28131 63499
" />
<path d="M28074 63545
L28101 63520
" />
<path d="M28050 63574
L28074 63545
" />
<path d="M28032 63606
L28050 63574
" />
<path d="M28018 63640
L28032 63606
" />
<path d="M28010 63677
L28018 63640
" />
<path d="M28007 63714
L28010 63677
" />
<path d="M28007 63937
L28007 63714
" />
<path d="M29000 63937
L28007 63937
" />
<path d="M28503 64656
L28503 64284
" />
<path d="M29000 64656
L29000 64210
" />
<path d="M28007 64656
L29000 64656
" />
<path d="M28007 64210
L28007 64656
" />
<path d="M28007 65161
L29000 65161
" />
<path d="M28007 64937
L28007 65161
" />
<path d="M28007 65384
L28007 64937
" />
<path d="M28503 66111
L28503 65739
" />
<path d="M29000 66111
L29000 65665
" />
<path d="M28007 66111
L29000 66111
" />
<path d="M28007 65665
L28007 66111
" />
<path d="M28007 66392
L29000 66392
" />
<path d="M28702 66715
L28007 66392
" />
<path d="M28007 67037
L28702 66715
" />
<path d="M29000 67037
L28007 67037
" />
<path d="M28702 67814
L28702 67418
" />
<path d="M28007 67616
L29000 67318
" />
<path d="M29000 67914
L28007 67616
" />
<path d="M28007 70287
L29000 70287
" />
<path d="M28007 70063
L28007 70287
" />
<path d="M28010 70026
L28007 70063
" />
<path d="M28018 69990
L28010 70026
" />
<path d="M28032 69956
L28018 69990
" />
<path d="M28050 69924
L28032 69956
" />
<path d="M28074 69894
L28050 69924
" />
<path d="M28101 69869
L28074 69894
" />
<path d="M28131 69848
L28101 69869
" />
<path d="M28165 69833
L28131 69848
" />
<path d="M28200 69822
L28165 69833
" />
<path d="M28237 69816
L28200 69822
" />
<path d="M28274 69816
L28237 69816
" />
<path d="M28311 69822
L28274 69816
" />
<path d="M28346 69833
L28311 69822
" />
<path d="M28379 69848
L28346 69833
" />
<path d="M28410 69869
L28379 69848
" />
<path d="M28437 69894
L28410 69869
" />
<path d="M28461 69924
L28437 69894
" />
<path d="M28479 69956
L28461 69924
" />
<path d="M28492 69990
L28479 69956
" />
<path d="M28501 70026
L28492 69990
" />
<path d="M28503 70063
L28501 70026
" />
<path d="M28503 70287
L28503 70063
" />
<path d="M33285 71036.6 A214.961 214.961 0.0 0 0 33715 71036.6 " />
<path d="M33285 70474
L33285 71036
" />
<path d="M33715 70474.4 A214.961 214.961 0.0 0 0 33285 70474.4 " />
<path d="M33474 64759
L33267 64759
" />
<path d="M33490.9 65247.2 A244.094 244.094 0.0 0 0 33474.4 64759.4 " />
<path d="M33267 65247
L33490 65247
" />
<path d="M33490 65247
L33267 65247
" />
<path d="M33490.9 65751.6 A252.362 252.362 0.0 0 0 33490.9 65247.2 " />
<path d="M33267 65751
L33490 65751
" />
<path d="M33267 64759
L33267 65751
" />
<path d="M33301 59953
L33698 59953
" />
<path d="M33500 59259
L33797 60251
" />
<path d="M33202 60251
L33500 59259
" />
<path d="M33611 50255
L33611 50751
" />
<path d="M33289 50503
L33711 50503
" />
<path d="M33611 49759
L33289 50503
" />
<path d="M33249.6 45028.3 A238.976 238.976 0.0 0 0 33555.5 45235 " />
<path d="M33555.5 45235 A270.866 270.866 0.0 0 0 33448 44705.9 " />
<path d="M33448 44705.9 A219.685 219.685 0.0 0 0 33530.7 44276 " />
<path d="M33530.7 44276 A203.543 203.543 0.0 0 0 33274.4 44457.9 " />
<path d="M33287 39751
L33709 39751
" />
<path d="M33684 39081
L33287 39751
" />
<path d="M33684.6 39081.9 A216.142 216.142 0.0 0 0 33486.2 38759.4 " />
<path d="M33486.2 38759.5 A204.724 204.724 0.0 0 0 33287.8 38982.7 " />
<path d="M33611 33259
L33611 34251
" />
<path d="M33388 33507
L33611 33259
" />
<path d="M28404 33274
L29000 33001
" />
<path d="M28652 33448
L28007 33001
" />
<path d="M29000 33448
L28652 33448
" />
<path d="M28007 33448
L29000 33448
" />
<path d="M28816 33731
L28785 33729
" />
<path d="M28848 33738
L28816 33731
" />
<path d="M28878 33750
L28848 33738
" />
<path d="M28906 33766
L28878 33750
" />
<path d="M28931 33786
L28906 33766
" />
<path d="M28953 33810
L28931 33786
" />
<path d="M28971 33836
L28953 33810
" />
<path d="M28985 33865
L28971 33836
" />
<path d="M28994 33896
L28985 33865
" />
<path d="M28999 33927
L28994 33896
" />
<path d="M28999 33960
L28999 33927
" />
<path d="M28994 33991
L28999 33960
" />
<path d="M28985 34022
L28994 33991
" />
<path d="M28971 34051
L28985 34022
" />
<path d="M28953 34077
L28971 34051
" />
<path d="M28931 34101
L28953 34077
" />
<path d="M28906 34121
L28931 34101
" />
<path d="M28878 34137
L28906 34121
" />
<path d="M28848 34149
L28878 34137
" />
<path d="M28816 34156
L28848 34149
" />
<path d="M28785 34159
L28816 34156
" />
<path d="M28222 34159
L28785 34159
" />
<path d="M28190 34156
L28222 34159
" />
<path d="M28159 34149
L28190 34156
" />
<path d="M28129 34137
L28159 34149
" />
<path d="M28101 34121
L28129 34137
" />
<path d="M28076 34101
L28101 34121
" />
<path d="M28054 34077
L28076 34101
" />
<path d="M28036 34051
L28054 34077
" />
<path d="M28022 34022
L28036 34051
" />
<path d="M28013 33991
L28022 34022
" />
<path d="M28008 33960
L28013 33991
" />
<path d="M28008 33927
L28008 33960
" />
<path d="M28013 33896
L28008 33927
" />
<path d="M28022 33865
L28013 33896
" />
<path d="M28036 33836
L28022 33865
" />
<path d="M28054 33810
L28036 33836
" />
<path d="M28076 33786
L28054 33810
" />
<path d="M28101 33766
L28076 33786
" />
<path d="M28129 33750
L28101 33766
" />
<path d="M28159 33738
L28129 33750
" />
<path d="M28190 33731
L28159 33738
" />
<path d="M28222 33729
L28190 33731
" />
<path d="M28702 34936
L28702 34539
" />
<path d="M28007 34737
L29000 34440
" />
<path d="M29000 35035
L28007 34737
" />
<path d="M28503 35564
L29000 35316
" />
<path d="M28503 35787
L28503 35564
" />
<path d="M28503 35564
L28503 35787
" />
<path d="M28501 35527
L28503 35564
" />
<path d="M28492 35491
L28501 35527
" />
<path d="M28479 35457
L28492 35491
" />
<path d="M28461 35424
L28479 35457
" />
<path d="M28437 35395
L28461 35424
" />
<path d="M28410 35370
L28437 35395
" />
<path d="M28379 35349
L28410 35370
" />
<path d="M28346 35333
L28379 35349
" />
<path d="M28311 35322
L28346 35333
" />
<path d="M28274 35317
L28311 35322
" />
<path d="M28237 35317
L28274 35317
" />
<path d="M28200 35322
L28237 35317
" />
<path d="M28165 35333
L28200 35322
" />
<path d="M28131 35349
L28165 35333
" />
<path d="M28101 35370
L28131 35349
" />
<path d="M28074 35395
L28101 35370
" />
<path d="M28050 35424
L28074 35395
" />
<path d="M28032 35457
L28050 35424
" />
<path d="M28018 35491
L28032 35457
" />
<path d="M28010 35527
L28018 35491
" />
<path d="M28007 35564
L28010 35527
" />
<path d="M28007 35787
L28007 35564
" />
<path d="M29000 35787
L28007 35787
" />
<path d="M28007 36283
L29000 36283
" />
<path d="M28007 36060
L28007 36283
" />
<path d="M28007 36507
L28007 36060
" />
<path d="M24285 71036.6 A214.961 214.961 0.0 0 0 24715 71036.6 " />
<path d="M24285 70474
L24285 71036
" />
<path d="M24715 70474.4 A214.961 214.961 0.0 0 0 24285 70474.4 " />
<path d="M24474 64759
L24267 64759
" />
<path d="M24490.9 65247.2 A244.094 244.094 0.0 0 0 24474.4 64759.4 " />
<path d="M24267 65247
L24490 65247
" />
<path d="M24490 65247
L24267 65247
" />
<path d="M24490.9 65751.6 A252.362 252.362 0.0 0 0 24490.9 65247.2 " />
<path d="M24267 65751
L24490 65751
" />
<path d="M24267 64759
L24267 65751
" />
<path d="M24301 59953
L24698 59953
" />
<path d="M24500 59259
L24797 60251
" />
<path d="M24202 60251
L24500 59259
" />
<path d="M24611 50255
L24611 50751
" />
<path d="M24289 50503
L24711 50503
" />
<path d="M24611 49759
L24289 50503
" />
<path d="M24249.6 45028.3 A238.976 238.976 0.0 0 0 24555.5 45235 " />
<path d="M24555.5 45235 A270.866 270.866 0.0 0 0 24448 44705.9 " />
<path d="M24448 44705.9 A219.685 219.685 0.0 0 0 24530.7 44276 " />
<path d="M24530.7 44276 A203.543 203.543 0.0 0 0 24274.4 44457.9 " />
<path d="M24287 39751
L24709 39751
" />
<path d="M24684 39081
L24287 39751
" />
<path d="M24684.6 39081.9 A216.142 216.142 0.0 0 0 24486.2 38759.4 " />
<path d="M24486.2 38759.5 A204.724 204.724 0.0 0 0 24287.8 38982.7 " />
<path d="M24611 33259
L24611 34251
" />
<path d="M24388 33507
L24611 33259
" />
<path d="M19503 59249
L20000 59001
" />
<path d="M19503 59472
L19503 59249
" />
<path d="M19503 59249
L19503 59472
" />
<path d="M19501 59212
L19503 59249
" />
<path d="M19492 59176
L19501 59212
" />
<path d="M19479 59142
L19492 59176
" />
<path d="M19461 59109
L19479 59142
" />
<path d="M19437 59080
L19461 59109
" />
<path d="M19410 59055
L19437 59080
" />
<path d="M19379 59034
L19410 59055
" />
<path d="M19346 59018
L19379 59034
" />
<path d="M19311 59007
L19346 59018
" />
<path d="M19274 59002
L19311 59007
" />
<path d="M19237 59002
L19274 59002
" />
<path d="M19200 59007
L19237 59002
" />
<path d="M19165 59018
L19200 59007
" />
<path d="M19131 59034
L19165 59018
" />
<path d="M19101 59055
L19131 59034
" />
<path d="M19074 59080
L19101 59055
" />
<path d="M19050 59109
L19074 59080
" />
<path d="M19032 59142
L19050 59109
" />
<path d="M19018 59176
L19032 59142
" />
<path d="M19010 59212
L19018 59176
" />
<path d="M19007 59249
L19010 59212
" />
<path d="M19007 59472
L19007 59249
" />
<path d="M20000 59472
L19007 59472
" />
<path d="M19503 60192
L19503 59820
" />
<path d="M20000 60192
L20000 59745
" />
<path d="M19007 60192
L20000 60192
" />
<path d="M19007 59745
L19007 60192
" />
<path d="M19627 60696
L19007 60473
" />
<path d="M20000 60696
L19627 60696
" />
<path d="M19627 60696
L20000 60696
" />
<path d="M19007 60919
L19627 60696
" />
<path d="M19702 61696
L19702 61300
" />
<path d="M19007 61498
L20000 61200
" />
<path d="M20000 61796
L19007 61498
" />
<path d="M20000 62399
L20000 62077
" />
<path d="M19007 62399
L20000 62399
" />
<path d="M19503 63714
L20000 63466
" />
<path d="M19503 63937
L19503 63714
" />
<path d="M19503 63714
L19503 63937
" />
<path d="M19501 63677
L19503 63714
" />
<path d="M19492 63640
L19501 63677
" />
<path d="M19479 63606
L19492 63640
" />
<path d="M19461 63574
L19479 63606
" />
<path d="M19437 63545
L19461 63574
" />
<path d="M19410 63520
L19437 63545
" />
<path d="M19379 63499
L19410 63520
" />
<path d="M19346 63483
L19379 63499
" />
<path d="M19311 63472
L19346 63483
" />
<path d="M19274 63466
L19311 63472
" />
<path d="M19237 63466
L19274 63466
" />
<path d="M19200 63472
L19237 63466
" />
<path d="M19165 63483
L19200 63472
" />
<path d="M19131 63499
L19165 63483
" />
<path d="M19101 63520
L19131 63499
" />
<path d="M19074 63545
L19101 63520
" />
<path d="M19050 63574
L19074 63545
" />
<path d="M19032 63606
L19050 63574
" />
<path d="M19018 63640
L19032 63606
" />
<path d="M19010 63677
L19018 63640
" />
<path d="M19007 63714
L19010 63677
" />
<path d="M19007 63937
L19007 63714
" />
<path d="M20000 63937
L19007 63937
" />
<path d="M19503 64656
L19503 64284
" />
<path d="M20000 64656
L20000 64210
" />
<path d="M19007 64656
L20000 64656
" />
<path d="M19007 64210
L19007 64656
" />
<path d="M19528 64937
L19528 65161
" />
<path d="M19776 64937
L19528 64937
" />
<path d="M19810 64940
L19776 64937
" />
<path d="M19842 64947
L19810 64940
" />
<path d="M19873 64959
L19842 64947
" />
<path d="M19902 64976
L19873 64959
" />
<path d="M19928 64997
L19902 64976
" />
<path d="M19951 65021
L19928 64997
" />
<path d="M19970 65049
L19951 65021
" />
<path d="M19984 65079
L19970 65049
" />
<path d="M19994 65111
L19984 65079
" />
<path d="M19999 65144
L19994 65111
" />
<path d="M19999 65177
L19999 65144
" />
<path d="M19994 65210
L19999 65177
" />
<path d="M19984 65242
L19994 65210
" />
<path d="M19970 65272
L19984 65242
" />
<path d="M19951 65300
L19970 65272
" />
<path d="M19928 65324
L19951 65300
" />
<path d="M19902 65345
L19928 65324
" />
<path d="M19873 65362
L19902 65345
" />
<path d="M19842 65374
L19873 65362
" />
<path d="M19810 65381
L19842 65374
" />
<path d="M19776 65384
L19810 65381
" />
<path d="M19231 65384
L19776 65384
" />
<path d="M19197 65381
L19231 65384
" />
<path d="M19165 65374
L19197 65381
" />
<path d="M19134 65362
L19165 65374
" />
<path d="M19105 65345
L19134 65362
" />
<path d="M19079 65324
L19105 65345
" />
<path d="M19056 65300
L19079 65324
" />
<path d="M19037 65272
L19056 65300
" />
<path d="M19023 65242
L19037 65272
" />
<path d="M19013 65210
L19023 65242
" />
<path d="M19008 65177
L19013 65210
" />
<path d="M19008 65144
L19008 65177
" />
<path d="M19013 65111
L19008 65144
" />
<path d="M19023 65079
L19013 65111
" />
<path d="M19037 65049
L19023 65079
" />
<path d="M19056 65021
L19037 65049
" />
<path d="M19079 64997
L19056 65021
" />
<path d="M19105 64976
L19079 64997
" />
<path d="M19134 64959
L19105 64976
" />
<path d="M19165 64947
L19134 64959
" />
<path d="M19197 64940
L19165 64947
" />
<path d="M19231 64937
L19197 64940
" />
<path d="M19528 65665
L19528 65888
" />
<path d="M19776 65665
L19528 65665
" />
<path d="M19810 65667
L19776 65665
" />
<path d="M19842 65675
L19810 65667
" />
<path d="M19873 65687
L19842 65675
" />
<path d="M19902 65704
L19873 65687
" />
<path d="M19928 65724
L19902 65704
" />
<path d="M19951 65749
L19928 65724
" />
<path d="M19970 65776
L19951 65749
" />
<path d="M19984 65807
L19970 65776
" />
<path d="M19994 65838
L19984 65807
" />
<path d="M19999 65872
L19994 65838
" />
<path d="M19999 65905
L19999 65872
" />
<path d="M19994 65938
L19999 65905
" />
<path d="M19984 65970
L19994 65938
" />
<path d="M19970 66000
L19984 65970
" />
<path d="M19951 66027
L19970 66000
" />
<path d="M19928 66052
L19951 66027
" />
<path d="M19902 66072
L19928 66052
" />
<path d="M19873 66089
L19902 66072
" />
<path d="M19842 66101
L19873 66089
" />
<path d="M19810 66109
L19842 66101
" />
<path d="M19776 66111
L19810 66109
" />
<path d="M19231 66111
L19776 66111
" />
<path d="M19197 66109
L19231 66111
" />
<path d="M19165 66101
L19197 66109
" />
<path d="M19134 66089
L19165 66101
" />
<path d="M19105 66072
L19134 66089
" />
<path d="M19079 66052
L19105 66072
" />
<path d="M19056 66027
L19079 66052
" />
<path d="M19037 66000
L19056 66027
" />
<path d="M19023 65970
L19037 66000
" />
<path d="M19013 65938
L19023 65970
" />
<path d="M19008 65905
L19013 65938
" />
<path d="M19008 65872
L19008 65905
" />
<path d="M19013 65838
L19008 65872
" />
<path d="M19023 65807
L19013 65838
" />
<path d="M19037 65776
L19023 65807
" />
<path d="M19056 65749
L19037 65776
" />
<path d="M19079 65724
L19056 65749
" />
<path d="M19105 65704
L19079 65724
" />
<path d="M19134 65687
L19105 65704
" />
<path d="M19165 65675
L19134 65687
" />
<path d="M19197 65667
L19165 65675
" />
<path d="M19231 65665
L19197 65667
" />
<path d="M19007 66392
L20000 66392
" />
<path d="M19503 66922
L20000 66674
" />
<path d="M19503 67145
L19503 66922
" />
<path d="M19503 66922
L19503 67145
" />
<path d="M19501 66885
L19503 66922
" />
<path d="M19492 66848
L19501 66885
" />
<path d="M19479 66814
L19492 66848
" />
<path d="M19461 66782
L19479 66814
" />
<path d="M19437 66753
L19461 66782
" />
<path d="M19410 66727
L19437 66753
" />
<path d="M19379 66707
L19410 66727
" />
<path d="M19346 66691
L19379 66707
" />
<path d="M19311 66680
L19346 66691
" />
<path d="M19274 66674
L19311 66680
" />
<path d="M19237 66674
L19274 66674
" />
<path d="M19200 66680
L19237 66674
" />
<path d="M19165 66691
L19200 66680
" />
<path d="M19131 66707
L19165 66691
" />
<path d="M19101 66727
L19131 66707
" />
<path d="M19074 66753
L19101 66727
" />
<path d="M19050 66782
L19074 66753
" />
<path d="M19032 66814
L19050 66782
" />
<path d="M19018 66848
L19032 66814
" />
<path d="M19010 66885
L19018 66848
" />
<path d="M19007 66922
L19010 66885
" />
<path d="M19007 67145
L19007 66922
" />
<path d="M20000 67145
L19007 67145
" />
<path d="M19007 67641
L20000 67641
" />
<path d="M19007 67418
L19007 67641
" />
<path d="M19007 67864
L19007 67418
" />
<path d="M19007 33472
L20000 33472
" />
<path d="M19007 33248
L19007 33472
" />
<path d="M19010 33211
L19007 33248
" />
<path d="M19018 33175
L19010 33211
" />
<path d="M19032 33141
L19018 33175
" />
<path d="M19050 33109
L19032 33141
" />
<path d="M19074 33079
L19050 33109
" />
<path d="M19101 33054
L19074 33079
" />
<path d="M19131 33033
L19101 33054
" />
<path d="M19165 33018
L19131 33033
" />
<path d="M19200 33007
L19165 33018
" />
<path d="M19237 33001
L19200 33007
" />
<path d="M19274 33001
L19237 33001
" />
<path d="M19311 33007
L19274 33001
" />
<path d="M19346 33018
L19311 33007
" />
<path d="M19379 33033
L19346 33018
" />
<path d="M19410 33054
L19379 33033
" />
<path d="M19437 33079
L19410 33054
" />
<path d="M19461 33109
L19437 33079
" />
<path d="M19479 33141
L19461 33109
" />
<path d="M19492 33175
L19479 33141
" />
<path d="M19501 33211
L19492 33175
" />
<path d="M19503 33248
L19501 33211
" />
<path d="M19503 33472
L19503 33248
" />
<path d="M19776 33744
L19007 33744
" />
<path d="M19810 33747
L19776 33744
" />
<path d="M19842 33754
L19810 33747
" />
<path d="M19873 33766
L19842 33754
" />
<path d="M19902 33783
L19873 33766
" />
<path d="M19928 33804
L19902 33783
" />
<path d="M19951 33828
L19928 33804
" />
<path d="M19970 33856
L19951 33828
" />
<path d="M19984 33886
L19970 33856
" />
<path d="M19994 33918
L19984 33886
" />
<path d="M19999 33951
L19994 33918
" />
<path d="M19999 33984
L19999 33951
" />
<path d="M19994 34017
L19999 33984
" />
<path d="M19984 34049
L19994 34017
" />
<path d="M19970 34079
L19984 34049
" />
<path d="M19951 34107
L19970 34079
" />
<path d="M19928 34131
L19951 34107
" />
<path d="M19902 34152
L19928 34131
" />
<path d="M19873 34169
L19902 34152
" />
<path d="M19842 34181
L19873 34169
" />
<path d="M19810 34188
L19842 34181
" />
<path d="M19776 34191
L19810 34188
" />
<path d="M19007 34191
L19776 34191
" />
<path d="M19231 34918
L19776 34918
" />
<path d="M19197 34916
L19231 34918
" />
<path d="M19165 34909
L19197 34916
" />
<path d="M19134 34896
L19165 34909
" />
<path d="M19105 34879
L19134 34896
" />
<path d="M19079 34859
L19105 34879
" />
<path d="M19056 34835
L19079 34859
" />
<path d="M19037 34807
L19056 34835
" />
<path d="M19023 34777
L19037 34807
" />
<path d="M19013 34745
L19023 34777
" />
<path d="M19008 34712
L19013 34745
" />
<path d="M19008 34679
L19008 34712
" />
<path d="M19013 34646
L19008 34679
" />
<path d="M19023 34614
L19013 34646
" />
<path d="M19037 34583
L19023 34614
" />
<path d="M19056 34556
L19037 34583
" />
<path d="M19079 34531
L19056 34556
" />
<path d="M19105 34511
L19079 34531
" />
<path d="M19134 34494
L19105 34511
" />
<path d="M19165 34482
L19134 34494
" />
<path d="M19197 34474
L19165 34482
" />
<path d="M19231 34472
L19197 34474
" />
<path d="M19776 34472
L19231 34472
" />
<path d="M19810 34474
L19776 34472
" />
<path d="M19842 34482
L19810 34474
" />
<path d="M19873 34494
L19842 34482
" />
<path d="M19902 34511
L19873 34494
" />
<path d="M19928 34531
L19902 34511
" />
<path d="M19951 34556
L19928 34531
" />
<path d="M19970 34583
L19951 34556
" />
<path d="M19984 34614
L19970 34583
" />
<path d="M19994 34646
L19984 34614
" />
<path d="M19999 34679
L19994 34646
" />
<path d="M19999 34712
L19999 34679
" />
<path d="M19994 34745
L19999 34712
" />
<path d="M19984 34777
L19994 34745
" />
<path d="M19970 34807
L19984 34777
" />
<path d="M19951 34835
L19970 34807
" />
<path d="M19928 34859
L19951 34835
" />
<path d="M19902 34879
L19928 34859
" />
<path d="M19873 34896
L19902 34879
" />
<path d="M19842 34909
L19873 34896
" />
<path d="M19810 34916
L19842 34909
" />
<path d="M19776 34918
L19810 34916
" />
<path d="M19503 35448
L20000 35200
" />
<path d="M19503 35671
L19503 35448
" />
<path d="M19503 35448
L19503 35671
" />
<path d="M19501 35411
L19503 35448
" />
<path d="M19492 35374
L19501 35411
" />
<path d="M19479 35340
L19492 35374
" />
<path d="M19461 35308
L19479 35340
" />
<path d="M19437 35279
L19461 35308
" />
<path d="M19410 35253
L19437 35279
" />
<path d="M19379 35233
L19410 35253
" />
<path d="M19346 35217
L19379 35233
" />
<path d="M19311 35206
L19346 35217
" />
<path d="M19274 35200
L19311 35206
" />
<path d="M19237 35200
L19274 35200
" />
<path d="M19200 35206
L19237 35200
" />
<path d="M19165 35217
L19200 35206
" />
<path d="M19131 35233
L19165 35217
" />
<path d="M19101 35253
L19131 35233
" />
<path d="M19074 35279
L19101 35253
" />
<path d="M19050 35308
L19074 35279
" />
<path d="M19032 35340
L19050 35308
" />
<path d="M19018 35374
L19032 35340
" />
<path d="M19010 35411
L19018 35374
" />
<path d="M19007 35448
L19010 35411
" />
<path d="M19007 35671
L19007 35448
" />
<path d="M20000 35671
L19007 35671
" />
<path d="M19528 35944
L19528 36167
" />
<path d="M19776 35944
L19528 35944
" />
<path d="M19810 35946
L19776 35944
" />
<path d="M19842 35953
L19810 35946
" />
<path d="M19873 35966
L19842 35953
" />
<path d="M19902 35983
L19873 35966
" />
<path d="M19928 36003
L19902 35983
" />
<path d="M19951 36027
L19928 36003
" />
<path d="M19970 36055
L19951 36027
" />
<path d="M19984 36085
L19970 36055
" />
<path d="M19994 36117
L19984 36085
" />
<path d="M19999 36150
L19994 36117
" />
<path d="M19999 36183
L19999 36150
" />
<path d="M19994 36216
L19999 36183
" />
<path d="M19984 36248
L19994 36216
" />
<path d="M19970 36278
L19984 36248
" />
<path d="M19951 36306
L19970 36278
" />
<path d="M19928 36331
L19951 36306
" />
<path d="M19902 36351
L19928 36331
" />
<path d="M19873 36368
L19902 36351
" />
<path d="M19842 36380
L19873 36368
" />
<path d="M19810 36388
L19842 36380
" />
<path d="M19776 36390
L19810 36388
" />
<path d="M19231 36390
L19776 36390
" />
<path d="M19197 36388
L19231 36390
" />
<path d="M19165 36380
L19197 36388
" />
<path d="M19134 36368
L19165 36380
" />
<path d="M19105 36351
L19134 36368
" />
<path d="M19079 36331
L19105 36351
" />
<path d="M19056 36306
L19079 36331
" />
<path d="M19037 36278
L19056 36306
" />
<path d="M19023 36248
L19037 36278
" />
<path d="M19013 36216
L19023 36248
" />
<path d="M19008 36183
L19013 36216
" />
<path d="M19008 36150
L19008 36183
" />
<path d="M19013 36117
L19008 36150
" />
<path d="M19023 36085
L19013 36117
" />
<path d="M19037 36055
L19023 36085
" />
<path d="M19056 36027
L19037 36055
" />
<path d="M19079 36003
L19056 36027
" />
<path d="M19105 35983
L19079 36003
" />
<path d="M19134 35966
L19105 35983
" />
<path d="M19165 35953
L19134 35966
" />
<path d="M19197 35946
L19165 35953
" />
<path d="M19231 35944
L19197 35946
" />
<path d="M19404 37738
L20000 37465
" />
<path d="M19652 37911
L19007 37465
" />
<path d="M20000 37911
L19652 37911
" />
<path d="M19007 37911
L20000 37911
" />
<path d="M19816 38195
L19785 38192
" />
<path d="M19848 38202
L19816 38195
" />
<path d="M19878 38214
L19848 38202
" />
<path d="M19906 38230
L19878 38214
" />
<path d="M19931 38250
L19906 38230
" />
<path d="M19953 38274
L19931 38250
" />
<path d="M19971 38300
L19953 38274
" />
<path d="M19985 38329
L19971 38300
" />
<path d="M19994 38360
L19985 38329
" />
<path d="M19999 38391
L19994 38360
" />
<path d="M19999 38424
L19999 38391
" />
<path d="M19994 38455
L19999 38424
" />
<path d="M19985 38486
L19994 38455
" />
<path d="M19971 38515
L19985 38486
" />
<path d="M19953 38541
L19971 38515
" />
<path d="M19931 38565
L19953 38541
" />
<path d="M19906 38585
L19931 38565
" />
<path d="M19878 38601
L19906 38585
" />
<path d="M19848 38613
L19878 38601
" />
<path d="M19816 38620
L19848 38613
" />
<path d="M19785 38622
L19816 38620
" />
<path d="M19222 38622
L19785 38622
" />
<path d="M19190 38620
L19222 38622
" />
<path d="M19159 38613
L19190 38620
" />
<path d="M19129 38601
L19159 38613
" />
<path d="M19101 38585
L19129 38601
" />
<path d="M19076 38565
L19101 38585
" />
<path d="M19054 38541
L19076 38565
" />
<path d="M19036 38515
L19054 38541
" />
<path d="M19022 38486
L19036 38515
" />
<path d="M19013 38455
L19022 38486
" />
<path d="M19008 38424
L19013 38455
" />
<path d="M19008 38391
L19008 38424
" />
<path d="M19013 38360
L19008 38391
" />
<path d="M19022 38329
L19013 38360
" />
<path d="M19036 38300
L19022 38329
" />
<path d="M19054 38274
L19036 38300
" />
<path d="M19076 38250
L19054 38274
" />
<path d="M19101 38230
L19076 38250
" />
<path d="M19129 38214
L19101 38230
" />
<path d="M19159 38202
L19129 38214
" />
<path d="M19190 38195
L19159 38202
" />
<path d="M19222 38192
L19190 38195
" />
<path d="M19702 39400
L19702 39003
" />
<path d="M19007 39201
L20000 38903
" />
<path d="M20000 39499
L19007 39201
" />
<path d="M19503 40028
L20000 39780
" />
<path d="M19503 40251
L19503 40028
" />
<path d="M19503 40028
L19503 40251
" />
<path d="M19501 39991
L19503 40028
" />
<path d="M19492 39955
L19501 39991
" />
<path d="M19479 39920
L19492 39955
" />
<path d="M19461 39888
L19479 39920
" />
<path d="M19437 39859
L19461 39888
" />
<path d="M19410 39834
L19437 39859
" />
<path d="M19379 39813
L19410 39834
" />
<path d="M19346 39797
L19379 39813
" />
<path d="M19311 39786
L19346 39797
" />
<path d="M19274 39781
L19311 39786
" />
<path d="M19237 39781
L19274 39781
" />
<path d="M19200 39786
L19237 39781
" />
<path d="M19165 39797
L19200 39786
" />
<path d="M19131 39813
L19165 39797
" />
<path d="M19101 39834
L19131 39813
" />
<path d="M19074 39859
L19101 39834
" />
<path d="M19050 39888
L19074 39859
" />
<path d="M19032 39920
L19050 39888
" />
<path d="M19018 39955
L19032 39920
" />
<path d="M19010 39991
L19018 39955
" />
<path d="M19007 40028
L19010 39991
" />
<path d="M19007 40251
L19007 40028
" />
<path d="M20000 40251
L19007 40251
" />
<path d="M19007 40747
L20000 40747
" />
<path d="M19007 40524
L19007 40747
" />
<path d="M19007 40970
L19007 40524
" />
<path d="M135967 75759
L136290 76453
" />
<path d="M135967 76751
L135967 75759
" />
<path d="M135240 75982
L135240 76528
" />
<path d="M135687 75982.7 A223.228 223.228 0.0 0 0 135240 75982.7 " />
<path d="M135686 76528
L135686 75982
" />
<path d="M135240 76528.3 A223.228 223.228 0.0 0 0 135687 76528.3 " />
<path d="M134959 76751
L134959 75759
" />
<path d="M134512 75759
L134959 76751
" />
<path d="M134512 76751
L134512 75759
" />
<path d="M133785 75982
L133785 76528
" />
<path d="M134231 75982.7 A223.228 223.228 0.0 0 0 133785 75982.7 " />
<path d="M134231 76528
L134231 75982
" />
<path d="M133785 76528.3 A223.228 223.228 0.0 0 0 134231 76528.3 " />
<path d="M133255 76255
L133503 76751
" />
<path d="M133032 76255
L133255 76255
" />
<path d="M133255 76255
L133032 76255
" />
<path d="M133256 76255.5 A248.031 248.031 0.0 0 0 133256 75759.4 " />
<path d="M133032 75759
L133255 75759
" />
<path d="M133032 76751
L133032 75759
" />
<path d="M132536 75759
L132536 76751
" />
<path d="M132759 75759
L132536 75759
" />
<path d="M132313 75759
L132759 75759
" />
<path d="M131585 76255
L131957 76255
" />
<path d="M131585 76751
L132032 76751
" />
<path d="M131585 75759
L131585 76751
" />
<path d="M132032 75759
L131585 75759
" />
<path d="M131304 75759
L131304 76751
" />
<path d="M130982 76453
L131304 75759
" />
<path d="M130659 75759
L130982 76453
" />
<path d="M130659 76751
L130659 75759
" />
<path d="M127954 75759
L127747 75759
" />
<path d="M127971 76247.2 A244.094 244.094 0.0 0 0 127954 75759.4 " />
<path d="M127747 76247
L127970 76247
" />
<path d="M127970 76247
L127747 76247
" />
<path d="M127971 76751.6 A252.362 252.362 0.0 0 0 127971 76247.2 " />
<path d="M127747 76751
L127970 76751
" />
<path d="M127747 75759
L127747 76751
" />
<path d="M127466 76528
L127466 75759
" />
<path d="M127020 76528.3 A223.228 223.228 0.0 0 0 127467 76528.3 " />
<path d="M127020 75759
L127020 76528
" />
<path d="M126490 76255
L126738 76751
" />
<path d="M126267 76255
L126490 76255
" />
<path d="M126490 76255
L126267 76255
" />
<path d="M126491 76255.5 A248.031 248.031 0.0 0 0 126491 75759.4 " />
<path d="M126267 75759
L126490 75759
" />
<path d="M126267 76751
L126267 75759
" />
<path d="M125565 76536.6 A214.961 214.961 0.0 0 0 125995 76536.6 " />
<path d="M125564 75974
L125564 76536
" />
<path d="M125995 75974.4 A214.961 214.961 0.0 0 0 125565 75974.4 " />
<path d="M125284 76007.5 A246.85 246.85 0.0 0 0 125036 75759.4 " />
<path d="M125036 75759.4 A248.031 248.031 0.0 0 0 125036 76255.5 " />
<path d="M125284 76503.5 A246.85 246.85 0.0 0 0 125036 76255.5 " />
<path d="M124788 76503.5 A248.031 248.031 0.0 0 0 125284 76503.5 " />
<path d="M92368 75759
L92368 76751
" />
<path d="M92591 75759
L92368 75759
" />
<path d="M92144 75759
L92591 75759
" />
<path d="M91863 75759
L91863 76751
" />
<path d="M91136 76751
L91582 75759
" />
<path d="M91136 75759
L91582 76751
" />
<path d="M90408 76255
L90780 76255
" />
<path d="M90408 76751
L90855 76751
" />
<path d="M90408 75759
L90408 76751
" />
<path d="M90855 75759
L90408 75759
" />
<path d="M85769 75759
L85769 76751
" />
<path d="M85992 75759
L85769 75759
" />
<path d="M85546 75759
L85992 75759
" />
<path d="M84835 76536.6 A214.961 214.961 0.0 0 0 85265 76536.6 " />
<path d="M84835 75974
L84835 76536
" />
<path d="M85265 75974.4 A214.961 214.961 0.0 0 0 84835 75974.4 " />
<path d="M84107 76255
L84479 76255
" />
<path d="M84107 76751
L84553 76751
" />
<path d="M84107 75759
L84107 76751
" />
<path d="M84553 75759
L84107 75759
" />
<path d="M83503 76751
L83826 76751
" />
<path d="M83503 75759
L83503 76751
" />
<path d="M82784 76255
L83156 76255
" />
<path d="M82784 76751
L83231 76751
" />
<path d="M82784 75759
L82784 76751
" />
<path d="M83231 75759
L82784 75759
" />
<path d="M82503.5 76007.5 A246.85 246.85 0.0 0 0 82255.5 75759.4 " />
<path d="M82255.5 75759.4 A248.031 248.031 0.0 0 0 82255.5 76255.5 " />
<path d="M82503.5 76503.5 A246.85 246.85 0.0 0 0 82255.5 76255.5 " />
<path d="M82007.5 76503.5 A248.031 248.031 0.0 0 0 82503.5 76503.5 " />
<path d="M77913 76528
L77913 75759
" />
<path d="M77467.3 76528.3 A223.228 223.228 0.0 0 0 77913.8 76528.3 " />
<path d="M77467 75759
L77467 76528
" />
<path d="M77186 76751
L77186 75759
" />
<path d="M76739 75759
L77186 76751
" />
<path d="M76739 76751
L76739 75759
" />
<path d="M76012 76255
L76384 76255
" />
<path d="M76012 76751
L76458 76751
" />
<path d="M76012 75759
L76012 76751
" />
<path d="M76458 75759
L76012 75759
" />
<path d="M75731 75759
L75731 76751
" />
<path d="M75408 76453
L75731 75759
" />
<path d="M75086 75759
L75408 76453
" />
<path d="M75086 76751
L75086 75759
" />
<path d="M69570 76751
L69892 76751
" />
<path d="M69570 75759
L69570 76751
" />
<path d="M68975 76751
L69297 76751
" />
<path d="M68975 75759
L68975 76751
" />
<path d="M68206 76453
L68603 76453
" />
<path d="M68404 75759
L68702 76751
" />
<path d="M68107 76751
L68404 75759
" />
<path d="M62665 75759
L62665 76751
" />
<path d="M62888 75759
L62665 75759
" />
<path d="M62442 75759
L62888 75759
" />
<path d="M62161.4 76007.5 A246.85 246.85 0.0 0 0 61913.4 75759.4 " />
<path d="M61913.4 75759.4 A248.031 248.031 0.0 0 0 61913.4 76255.5 " />
<path d="M62161.4 76503.5 A246.85 246.85 0.0 0 0 61913.4 76255.5 " />
<path d="M61665.4 76503.5 A248.031 248.031 0.0 0 0 62161.4 76503.5 " />
<path d="M60888 76453
L61285 76453
" />
<path d="M61086 75759
L61384 76751
" />
<path d="M60788 76751
L61086 75759
" />
<path d="M60111 76255
L60359 76255
" />
<path d="M60111 76751
L60111 76255
" />
<path d="M60111 75759
L60111 76751
" />
<path d="M60507 75759
L60111 75759
" />
<path d="M54826 75982
L54826 76528
" />
<path d="M55273.2 75982.7 A223.228 223.228 0.0 0 0 54826.8 75982.7 " />
<path d="M55273 76528
L55273 75982
" />
<path d="M54826.8 76528.3 A223.228 223.228 0.0 0 0 55273.2 76528.3 " />
<path d="M54223 76751
L54545 76751
" />
<path d="M54223 75759
L54223 76751
" />
<path d="M53503 75982
L53503 76528
" />
<path d="M53950.4 75982.7 A223.228 223.228 0.0 0 0 53503.9 75982.7 " />
<path d="M53950 76528
L53950 75982
" />
<path d="M53503.9 76528.3 A223.228 223.228 0.0 0 0 53950.4 76528.3 " />
<path d="M53222.8 76007.5 A246.85 246.85 0.0 0 0 52974.8 75759.4 " />
<path d="M52974.8 75759.4 A248.031 248.031 0.0 0 0 52974.8 76255.5 " />
<path d="M53222.8 76503.5 A246.85 246.85 0.0 0 0 52974.8 76255.5 " />
<path d="M52726.8 76503.5 A248.031 248.031 0.0 0 0 53222.8 76503.5 " />
<path d="M49476 76751
L49699 75759
" />
<path d="M49253 75759
L49476 76751
" />
<path d="M49029 76751
L49253 75759
" />
<path d="M48806 75759
L49029 76751
" />
<path d="M48079 76255
L48451 76255
" />
<path d="M48079 76751
L48525 76751
" />
<path d="M48079 75759
L48079 76751
" />
<path d="M48525 75759
L48079 75759
" />
<path d="M47798 75759
L47798 76751
" />
<path d="M47293 76751
L47516 75759
" />
<path d="M47070 75759
L47293 76751
" />
<path d="M45524 75759
L45524 76751
" />
<path d="M45747 75759
L45524 75759
" />
<path d="M45747.6 76255.5 A248.031 248.031 0.0 0 0 45747.6 75759.4 " />
<path d="M45524 76255
L45747 76255
" />
<path d="M44805 76255
L45177 76255
" />
<path d="M44805 76751
L45251 76751
" />
<path d="M44805 75759
L44805 76751
" />
<path d="M45251 75759
L44805 75759
" />
<path d="M44300 75759
L44300 76751
" />
<path d="M44524 75759
L44300 75759
" />
<path d="M44077 75759
L44524 75759
" />
<path d="M43796.5 76007.5 A246.85 246.85 0.0 0 0 43548.4 75759.4 " />
<path d="M43548.4 75759.4 A248.031 248.031 0.0 0 0 43548.4 76255.5 " />
<path d="M43796.5 76503.5 A246.85 246.85 0.0 0 0 43548.4 76255.5 " />
<path d="M43300.4 76503.5 A248.031 248.031 0.0 0 0 43796.5 76503.5 " />
<path d="M92938 67255
L93186 67751
" />
<path d="M92715 67255
L92938 67255
" />
<path d="M92938 67255
L92715 67255
" />
<path d="M92938.6 67255.5 A248.031 248.031 0.0 0 0 92938.6 66759.4 " />
<path d="M92715 66759
L92938 66759
" />
<path d="M92715 67751
L92715 66759
" />
<path d="M91946 67453
L92343 67453
" />
<path d="M92144 66759
L92442 67751
" />
<path d="M91847 67751
L92144 66759
" />
<path d="M91119 67255
L91491 67255
" />
<path d="M91119 67751
L91566 67751
" />
<path d="M91119 66759
L91119 67751
" />
<path d="M91566 66759
L91119 66759
" />
<path d="M90516 67751
L90838 67751
" />
<path d="M90516 66759
L90516 67751
" />
<path d="M89813.4 67536.6 A214.961 214.961 0.0 0 0 90243.3 67536.6 " />
<path d="M89813 66974
L89813 67536
" />
<path d="M90243.3 66974.4 A214.961 214.961 0.0 0 0 89813.4 66974.4 " />
<path d="M85343 67255
L85715 67255
" />
<path d="M85343 67751
L85790 67751
" />
<path d="M85343 66759
L85343 67751
" />
<path d="M85790 66759
L85343 66759
" />
<path d="M84839 66759
L84839 67751
" />
<path d="M85062 66759
L84839 66759
" />
<path d="M84616 66759
L85062 66759
" />
<path d="M84335 67007.5 A246.85 246.85 0.0 0 0 84087 66759.4 " />
<path d="M84087 66759.4 A248.031 248.031 0.0 0 0 84087 67255.5 " />
<path d="M84335 67503.5 A246.85 246.85 0.0 0 0 84087 67255.5 " />
<path d="M83839 67503.5 A248.031 248.031 0.0 0 0 84335 67503.5 " />
<path d="M83061 67453
L83458 67453
" />
<path d="M83260 66759
L83557 67751
" />
<path d="M82962 67751
L83260 66759
" />
<path d="M82210 66759
L82210 67751
" />
<path d="M82433 66759
L82210 66759
" />
<path d="M82433.5 67255.5 A248.031 248.031 0.0 0 0 82433.5 66759.4 " />
<path d="M82210 67255
L82433 67255
" />
<path d="M77591 67379
L77814 66759
" />
<path d="M77591 67751
L77591 67379
" />
<path d="M77591 67379
L77591 67751
" />
<path d="M77368 66759
L77591 67379
" />
<path d="M76615 66759
L76615 67751
" />
<path d="M76838 66759
L76615 66759
" />
<path d="M76839 67255.5 A248.031 248.031 0.0 0 0 76839 66759.4 " />
<path d="M76615 67255
L76838 67255
" />
<path d="M75896 66982
L75896 67528
" />
<path d="M76342.9 66982.7 A223.228 223.228 0.0 0 0 75896.5 66982.7 " />
<path d="M76342 67528
L76342 66982
" />
<path d="M75896.5 67528.3 A223.228 223.228 0.0 0 0 76342.9 67528.3 " />
<path d="M75185.4 67536.6 A214.961 214.961 0.0 0 0 75615.4 67536.6 " />
<path d="M75185 66974
L75185 67536
" />
<path d="M75615.4 66974.4 A214.961 214.961 0.0 0 0 75185.4 66974.4 " />
<path d="M70339 67280
L70116 67280
" />
<path d="M70339 67528
L70339 67280
" />
<path d="M69892.9 67528.3 A223.228 223.228 0.0 0 0 70339.4 67528.3 " />
<path d="M69892 66982
L69892 67528
" />
<path d="M70339.4 66982.7 A223.228 223.228 0.0 0 0 69892.9 66982.7 " />
<path d="M69611 67751
L69611 66759
" />
<path d="M69165 66759
L69611 67751
" />
<path d="M69165 67751
L69165 66759
" />
<path d="M68437 66982
L68437 67528
" />
<path d="M68884.3 66982.7 A223.228 223.228 0.0 0 0 68437.8 66982.7 " />
<path d="M68884 67528
L68884 66982
" />
<path d="M68437.8 67528.3 A223.228 223.228 0.0 0 0 68884.3 67528.3 " />
<path d="M68156.7 67007.5 A246.85 246.85 0.0 0 0 67908.7 66759.4 " />
<path d="M67908.7 66759.4 A248.031 248.031 0.0 0 0 67908.7 67255.5 " />
<path d="M68156.7 67503.5 A246.85 246.85 0.0 0 0 67908.7 67255.5 " />
<path d="M67660.6 67503.5 A248.031 248.031 0.0 0 0 68156.7 67503.5 " />
<path d="M64001 67751
L64001 66759
" />
<path d="M63554 66759
L64001 67751
" />
<path d="M63554 67751
L63554 66759
" />
<path d="M63025 67255
L63273 67751
" />
<path d="M62802 67255
L63025 67255
" />
<path d="M63025 67255
L62802 67255
" />
<path d="M63025.6 67255.5 A248.031 248.031 0.0 0 0 63025.6 66759.4 " />
<path d="M62802 66759
L63025 66759
" />
<path d="M62802 67751
L62802 66759
" />
<path d="M62083 67255
L62455 67255
" />
<path d="M62083 67751
L62529 67751
" />
<path d="M62083 66759
L62083 67751
" />
<path d="M62529 66759
L62083 66759
" />
<path d="M61578 66759
L61578 67751
" />
<path d="M61801 66759
L61578 66759
" />
<path d="M61355 66759
L61801 66759
" />
<path d="M60851 66759
L60851 67751
" />
<path d="M61074 66759
L60851 66759
" />
<path d="M60627 66759
L61074 66759
" />
<path d="M59850 67453
L60247 67453
" />
<path d="M60049 66759
L60346 67751
" />
<path d="M59751 67751
L60049 66759
" />
<path d="M58999 66759
L58999 67751
" />
<path d="M59222 66759
L58999 66759
" />
<path d="M59222.4 67255.5 A248.031 248.031 0.0 0 0 59222.4 66759.4 " />
<path d="M58999 67255
L59222 67255
" />
<path d="M54967 67255
L55339 67255
" />
<path d="M54967 67751
L55413 67751
" />
<path d="M54967 66759
L54967 67751
" />
<path d="M55413 66759
L54967 66759
" />
<path d="M54462 66759
L54462 67751
" />
<path d="M54686 66759
L54462 66759
" />
<path d="M54239 66759
L54686 66759
" />
<path d="M53958 67528
L53958 66759
" />
<path d="M53512.2 67528.3 A223.228 223.228 0.0 0 0 53958.7 67528.3 " />
<path d="M53512 66759
L53512 67528
" />
<path d="M53231 66759
L53231 67751
" />
<path d="M52908 67453
L53231 66759
" />
<path d="M52586 66759
L52908 67453
" />
<path d="M52586 67751
L52586 66759
" />
<path d="M47368 66759
L47368 67751
" />
<path d="M47591 66759
L47368 66759
" />
<path d="M47144 66759
L47591 66759
" />
<path d="M46863 66759
L46863 67751
" />
<path d="M46334 67751
L46136 67751
" />
<path d="M46334.6 67751.6 A246.85 246.85 0.0 0 0 46582.7 67503.5 " />
<path d="M46582 67007
L46582 67503
" />
<path d="M46582.7 67007.5 A246.85 246.85 0.0 0 0 46334.6 66759.4 " />
<path d="M46136 66759
L46334 66759
" />
<path d="M46136 67751
L46136 66759
" />
<path d="M45408 67255
L45780 67255
" />
<path d="M45408 67751
L45855 67751
" />
<path d="M45408 66759
L45408 67751
" />
<path d="M45855 66759
L45408 66759
" />
<path d="M110182 57759
L110182 58751
" />
<path d="M110405 57759
L110182 57759
" />
<path d="M109959 57759
L110405 57759
" />
<path d="M109181 58453
L109578 58453
" />
<path d="M109380 57759
L109677 58751
" />
<path d="M109082 58751
L109380 57759
" />
<path d="M108355 58255
L108727 58255
" />
<path d="M108355 58751
L108801 58751
" />
<path d="M108355 57759
L108355 58751
" />
<path d="M108801 57759
L108355 57759
" />
<path d="M107801 57759
L107594 57759
" />
<path d="M107818 58247.2 A244.094 244.094 0.0 0 0 107801 57759.4 " />
<path d="M107594 58247
L107817 58247
" />
<path d="M107817 58247
L107594 58247
" />
<path d="M107818 58751.6 A252.362 252.362 0.0 0 0 107818 58247.2 " />
<path d="M107594 58751
L107817 58751
" />
<path d="M107594 57759
L107594 58751
" />
<path d="M173178 58751
L173624 57759
" />
<path d="M173178 57759
L173624 58751
" />
<path d="M172450 58255
L172822 58255
" />
<path d="M172450 58751
L172897 58751
" />
<path d="M172450 57759
L172450 58751
" />
<path d="M172897 57759
L172450 57759
" />
<path d="M171376 58007.5 A246.85 246.85 0.0 0 0 171128 57759.4 " />
<path d="M171128 57759.4 A248.031 248.031 0.0 0 0 171128 58255.5 " />
<path d="M171376 58503.5 A246.85 246.85 0.0 0 0 171128 58255.5 " />
<path d="M170880 58503.5 A248.031 248.031 0.0 0 0 171376 58503.5 " />
<path d="M170375 58379
L170598 57759
" />
<path d="M170375 58751
L170375 58379
" />
<path d="M170375 58379
L170375 58751
" />
<path d="M170152 57759
L170375 58379
" />
<path d="M169871 58007.5 A246.85 246.85 0.0 0 0 169623 57759.4 " />
<path d="M169623 57759.4 A248.031 248.031 0.0 0 0 169623 58255.5 " />
<path d="M169871 58503.5 A246.85 246.85 0.0 0 0 169623 58255.5 " />
<path d="M169375 58503.5 A248.031 248.031 0.0 0 0 169871 58503.5 " />
<path d="M164967 57759
L164967 58751
" />
<path d="M164438 58751
L164239 58751
" />
<path d="M164438 58751.6 A246.85 246.85 0.0 0 0 164686 58503.5 " />
<path d="M164686 58007
L164686 58503
" />
<path d="M164686 58007.5 A246.85 246.85 0.0 0 0 164438 57759.4 " />
<path d="M164239 57759
L164438 57759
" />
<path d="M164239 58751
L164239 57759
" />
<path d="M163958 57759
L163958 58751
" />
<path d="M163677 57759
L163677 58751
" />
<path d="M163355 58453
L163677 57759
" />
<path d="M163032 57759
L163355 58453
" />
<path d="M163032 58751
L163032 57759
" />
<path d="M157467 58255
L157839 58255
" />
<path d="M157467 58751
L157913 58751
" />
<path d="M157467 57759
L157467 58751
" />
<path d="M157913 57759
L157467 57759
" />
<path d="M156962 58751
L157186 57759
" />
<path d="M156739 57759
L156962 58751
" />
<path d="M155962 58453
L156359 58453
" />
<path d="M156161 57759
L156458 58751
" />
<path d="M188915 41423.2 A2066.93 2066.93 0.0 0 0 188915 44076.8 " />
<path d="M188915 44076.8 A472.047 472.047 0.0 0 0 189278 44246.1 " />
<path d="M191722 44246
L189277 44246
" />
<path d="M191722 44246.1 A472.047 472.047 0.0 0 0 192085 44076.8 " />
<path d="M192085 44076.8 A2066.93 2066.93 0.0 0 0 192085 41423.2 " />
<path d="M192085 41423.2 A472.047 472.047 0.0 0 0 191722 41253.9 " />
<path d="M189277 41253
L191722 41253
" />
<path d="M189278 41253.9 A472.047 472.047 0.0 0 0 188915 41423.2 " />
<path d="M188915 63923.2 A2066.93 2066.93 0.0 0 0 188915 66576.8 " />
<path d="M188915 66576.8 A472.047 472.047 0.0 0 0 189278 66746.1 " />
<path d="M191722 66746
L189277 66746
" />
<path d="M191722 66746.1 A472.047 472.047 0.0 0 0 192085 66576.8 " />
<path d="M192085 66576.8 A2066.93 2066.93 0.0 0 0 192085 63923.2 " />
<path d="M192085 63923.2 A472.047 472.047 0.0 0 0 191722 63753.9 " />
<path d="M189277 63753
L191722 63753
" />
<path d="M189278 63753.9 A472.047 472.047 0.0 0 0 188915 63923.2 " />
<path d="M5915.36 41423.2 A2066.93 2066.93 0.0 0 0 5915.36 44076.8 " />
<path d="M5915.35 44076.8 A472.047 472.047 0.0 0 0 6277.56 44246.1 " />
<path d="M8722 44246
L6277 44246
" />
<path d="M8722.44 44246.1 A472.047 472.047 0.0 0 0 9084.65 44076.8 " />
<path d="M9084.64 44076.8 A2066.93 2066.93 0.0 0 0 9084.64 41423.2 " />
<path d="M9084.65 41423.2 A472.047 472.047 0.0 0 0 8722.44 41253.9 " />
<path d="M6277 41253
L8722 41253
" />
<path d="M6277.56 41253.9 A472.047 472.047 0.0 0 0 5915.35 41423.2 " />
<path d="M5915.36 63923.2 A2066.93 2066.93 0.0 0 0 5915.36 66576.8 " />
<path d="M5915.35 66576.8 A472.047 472.047 0.0 0 0 6277.56 66746.1 " />
<path d="M8722 66746
L6277 66746
" />
<path d="M8722.44 66746.1 A472.047 472.047 0.0 0 0 9084.65 66576.8 " />
<path d="M9084.64 66576.8 A2066.93 2066.93 0.0 0 0 9084.64 63923.2 " />
<path d="M9084.65 63923.2 A472.047 472.047 0.0 0 0 8722.44 63753.9 " />
<path d="M6277 63753
L8722 63753
" />
<path d="M6277.56 63753.9 A472.047 472.047 0.0 0 0 5915.35 63923.2 " />
<circle cx="180500" cy="76500" r="483.858" /> 
<path d="M181091 76500 A590.551 590.551 0.0 1 0 180500 77090.6 " />
<circle cx="180500" cy="62500" r="483.858" /> 
<path d="M181091 62500 A590.551 590.551 0.0 1 0 180500 63090.6 " />
<circle cx="180500" cy="45500" r="483.858" /> 
<path d="M181091 45500 A590.551 590.551 0.0 1 0 180500 46090.6 " />
<circle cx="179443" cy="42216.5" r="483.858" /> 
<path d="M180033 42216.5 A590.551 590.551 0.0 1 0 179443 42807.1 " />
<circle cx="179443" cy="31783.5" r="483.858" /> 
<path d="M180033 31783.5 A590.551 590.551 0.0 1 0 179443 32374 " />
<circle cx="121500" cy="76500" r="483.858" /> 
<path d="M122091 76500 A590.551 590.551 0.0 1 0 121500 77090.6 " />
<circle cx="118500" cy="76500" r="483.858" /> 
<path d="M119091 76500 A590.551 590.551 0.0 1 0 118500 77090.6 " />
<circle cx="110500" cy="45500" r="483.858" /> 
<path d="M111091 45500 A590.551 590.551 0.0 1 0 110500 46090.6 " />
<circle cx="110545" cy="42216.5" r="483.858" /> 
<path d="M111136 42216.5 A590.551 590.551 0.0 1 0 110545 42807.1 " />
<circle cx="110545" cy="31783.5" r="483.858" /> 
<path d="M111136 31783.5 A590.551 590.551 0.0 1 0 110545 32374 " />
<circle cx="106943" cy="31783.5" r="483.858" /> 
<path d="M107533 31783.5 A590.551 590.551 0.0 1 0 106943 32374 " />
<circle cx="106943" cy="42216.5" r="483.858" /> 
<path d="M107533 42216.5 A590.551 590.551 0.0 1 0 106943 42807.1 " />
<circle cx="107500" cy="45500" r="483.858" /> 
<path d="M108091 45500 A590.551 590.551 0.0 1 0 107500 46090.6 " />
<circle cx="38045.3" cy="42216.5" r="483.858" /> 
<path d="M38635.8 42216.5 A590.551 590.551 0.0 1 0 38045.3 42807.1 " />
<circle cx="38045.3" cy="31783.5" r="483.858" /> 
<path d="M38635.8 31783.5 A590.551 590.551 0.0 1 0 38045.3 32374 " />
<circle cx="17500" cy="76500" r="483.858" /> 
<path d="M18090.6 76500 A590.551 590.551 0.0 1 0 17500 77090.6 " />
<circle cx="17500" cy="62500" r="483.858" /> 
<path d="M18090.6 62500 A590.551 590.551 0.0 1 0 17500 63090.6 " />
<circle cx="17500" cy="45500" r="483.858" /> 
<path d="M18090.6 45500 A590.551 590.551 0.0 1 0 17500 46090.6 " />
<circle cx="17500" cy="31500" r="483.858" /> 
<path d="M18090.6 31500 A590.551 590.551 0.0 1 0 17500 32090.6 " />
<circle cx="109000" cy="55500" r="984.252" /> 
<path d="M115584 33161
L176371 33161
" />
<path d="M115584 33161.4 A590.551 590.551 0.0 0 0 114994 33752 " />
<path d="M114993 40248
L114993 33751
" />
<path d="M114994 40248 A590.551 590.551 0.0 0 0 115584 40838.6 " />
<path d="M176371 40838
L115584 40838
" />
<path d="M176372 40838.6 A590.551 590.551 0.0 0 0 176962 40248 " />
<path d="M176962 33751
L176962 40248
" />
<path d="M176962 33752 A590.551 590.551 0.0 0 0 176372 33161.4 " />
<path d="M43084 33161
L103872 33161
" />
<path d="M43084.6 33161.4 A590.551 590.551 0.0 0 0 42494.1 33752 " />
<path d="M42494 40248
L42494 33751
" />
<path d="M42494.1 40248 A590.551 590.551 0.0 0 0 43084.6 40838.6 " />
<path d="M103872 40838
L43084 40838
" />
<path d="M103872 40838.6 A590.551 590.551 0.0 0 0 104463 40248 " />
<path d="M104462 33751
L104462 40248
" />
<path d="M104463 33752 A590.551 590.551 0.0 0 0 103872 33161.4 " />
<circle cx="31500" cy="70750" r="590.551" /> 
<circle cx="31500" cy="65250" r="590.551" /> 
<circle cx="31500" cy="59750" r="590.551" /> 
<circle cx="31500" cy="50250" r="590.551" /> 
<circle cx="31500" cy="44750" r="590.551" /> 
<circle cx="31500" cy="39250" r="590.551" /> 
<circle cx="31500" cy="33750" r="590.551" /> 
<circle cx="22500" cy="70750" r="590.551" /> 
<circle cx="22500" cy="65250" r="590.551" /> 
<circle cx="22500" cy="59750" r="590.551" /> 
<circle cx="22500" cy="50250" r="590.551" /> 
<circle cx="22500" cy="44750" r="590.551" /> 
<circle cx="22500" cy="39250" r="590.551" /> 
<circle cx="22500" cy="33750" r="590.551" /> 
<circle cx="109000" cy="68500" r="1968.5" /> 
<circle cx="171500" cy="70750" r="590.551" /> 
<circle cx="171500" cy="52750" r="590.551" /> 
<circle cx="164000" cy="70750" r="590.551" /> 
<circle cx="164000" cy="52750" r="590.551" /> 
<circle cx="156500" cy="70750" r="590.551" /> 
<circle cx="156500" cy="52750" r="590.551" /> 
<circle cx="149000" cy="70750" r="590.551" /> 
<circle cx="149000" cy="52750" r="590.551" /> 
<circle cx="141500" cy="70750" r="590.551" /> 
<circle cx="141500" cy="52750" r="590.551" /> 
<circle cx="134000" cy="52750" r="590.551" /> 
<circle cx="126500" cy="52750" r="590.551" /> 
<circle cx="119000" cy="52750" r="590.551" /> 
<circle cx="99000" cy="52750" r="590.551" /> 
<circle cx="91500" cy="52750" r="590.551" /> 
<circle cx="84000" cy="52750" r="590.551" /> 
<circle cx="76500" cy="52750" r="590.551" /> 
<circle cx="69000" cy="70750" r="590.551" /> 
<circle cx="69000" cy="61750" r="590.551" /> 
<circle cx="69000" cy="52750" r="590.551" /> 
<circle cx="61500" cy="70750" r="590.551" /> 
<circle cx="61500" cy="61750" r="590.551" /> 
<circle cx="61500" cy="52750" r="590.551" /> 
<circle cx="54000" cy="70750" r="590.551" /> 
<circle cx="54000" cy="61750" r="590.551" /> 
<circle cx="54000" cy="52750" r="590.551" /> 
<circle cx="46500" cy="70750" r="590.551" /> 
<circle cx="46500" cy="61750" r="590.551" /> 
<circle cx="46500" cy="52750" r="590.551" /> 
<circle cx="171500" cy="47500" r="1968.5" /> 
<circle cx="164000" cy="47500" r="1968.5" /> 
<circle cx="156500" cy="47500" r="1968.5" /> 
<circle cx="149000" cy="47500" r="1968.5" /> 
<circle cx="141500" cy="47500" r="1968.5" /> 
<circle cx="134000" cy="47500" r="1968.5" /> 
<circle cx="126500" cy="47500" r="1968.5" /> 
<circle cx="119000" cy="47500" r="1968.5" /> 
<circle cx="99000" cy="47500" r="1968.5" /> 
<circle cx="91500" cy="47500" r="1968.5" /> 
<circle cx="84000" cy="47500" r="1968.5" /> 
<circle cx="76500" cy="47500" r="1968.5" /> 
<circle cx="69000" cy="47500" r="1968.5" /> 
<circle cx="61500" cy="47500" r="1968.5" /> 
<circle cx="54000" cy="47500" r="1968.5" /> 
<circle cx="46500" cy="47500" r="1968.5" /> 
<path d="M176273 33259
L145977 33259
" />
<path d="M176864 33850.4 A590.551 590.551 0.0 0 0 176273 33259.8 " />
<path d="M176863 40149
L176863 33850
" />
<path d="M176273 40740.2 A590.551 590.551 0.0 0 0 176864 40149.6 " />
<path d="M115682 40740
L176273 40740
" />
<path d="M115092 40149.6 A590.551 590.551 0.0 0 0 115683 40740.2 " />
<path d="M115092 33850
L115092 40149
" />
<path d="M115683 33259.8 A590.551 590.551 0.0 0 0 115092 33850.4 " />
<path d="M145977 33259
L115682 33259
" />
<path d="M177552 31980
L145977 31980
" />
<path d="M178143 32570.9 A590.551 590.551 0.0 0 0 177553 31980.3 " />
<path d="M178143 41429
L178143 32570
" />
<path d="M177553 42019.7 A590.551 590.551 0.0 0 0 178143 41429.1 " />
<path d="M114403 42019
L177552 42019
" />
<path d="M113813 41429.1 A590.551 590.551 0.0 0 0 114403 42019.7 " />
<path d="M113812 32570
L113812 41429
" />
<path d="M114403 31980.3 A590.551 590.551 0.0 0 0 113813 32570.9 " />
<path d="M145977 31980
L114403 31980
" />
<path d="M103773 33259
L73478 33259
" />
<path d="M104364 33850.4 A590.551 590.551 0.0 0 0 103774 33259.8 " />
<path d="M104364 40149
L104364 33850
" />
<path d="M103774 40740.2 A590.551 590.551 0.0 0 0 104364 40149.6 " />
<path d="M43183 40740
L103773 40740
" />
<path d="M42592.5 40149.6 A590.551 590.551 0.0 0 0 43183.1 40740.2 " />
<path d="M42592 33850
L42592 40149
" />
<path d="M43183.1 33259.8 A590.551 590.551 0.0 0 0 42592.5 33850.4 " />
<path d="M73478 33259
L43183 33259
" />
<path d="M105053 31980
L73478 31980
" />
<path d="M105644 32570.9 A590.551 590.551 0.0 0 0 105053 31980.3 " />
<path d="M105643 41429
L105643 32570
" />
<path d="M105053 42019.7 A590.551 590.551 0.0 0 0 105644 41429.1 " />
<path d="M41903 42019
L105053 42019
" />
<path d="M41313 41429.1 A590.551 590.551 0.0 0 0 41903.5 42019.7 " />
<path d="M41312 32570
L41312 41429
" />
<path d="M41903.5 31980.3 A590.551 590.551 0.0 0 0 41313 32570.9 " />
<path d="M73478 31980
L41903 31980
" />
<path d="M143170 67379
L143393 66759
" />
<path d="M143170 67751
L143170 67379
" />
<path d="M143170 67379
L143170 67751
" />
<path d="M142946 66759
L143170 67379
" />
<path d="M142442 66759
L142442 67751
" />
<path d="M142665 66759
L142442 66759
" />
<path d="M142219 66759
L142665 66759
" />
<path d="M141938 66759
L141938 67751
" />
<path d="M141334 67751
L141657 67751
" />
<path d="M141334 66759
L141334 67751
" />
<path d="M141061 66759
L141061 67751
" />
<path d="M140557 66759
L140557 67751
" />
<path d="M140780 66759
L140557 66759
" />
<path d="M140334 66759
L140780 66759
" />
<path d="M140053 67528
L140053 66759
" />
<path d="M139607 67528.3 A223.228 223.228 0.0 0 0 140053 67528.3 " />
<path d="M139606 66759
L139606 67528
" />
<path d="M171946 67255
L171946 67751
" />
<path d="M171624 67503
L172045 67503
" />
<path d="M171946 66759
L171624 67503
" />
<path d="M170954 67255
L171202 67255
" />
<path d="M170954 67751
L170954 67255
" />
<path d="M170954 66759
L170954 67751
" />
<path d="M171351 66759
L170954 66759
" />
<path d="M164084 67528.3 A238.976 238.976 0.0 0 0 164390 67735 " />
<path d="M164390 67735 A270.866 270.866 0.0 0 0 164283 67205.9 " />
<path d="M164283 67205.9 A219.685 219.685 0.0 0 0 164365 66776 " />
<path d="M164365 66776 A203.543 203.543 0.0 0 0 164109 66957.9 " />
<path d="M163414 67255
L163662 67255
" />
<path d="M163414 67751
L163414 67255
" />
<path d="M163414 66759
L163414 67751
" />
<path d="M163811 66759
L163414 66759
" />
<path d="M156622 67751
L157044 67751
" />
<path d="M157019 67081
L156622 67751
" />
<path d="M157019 67081.9 A216.142 216.142 0.0 0 0 156821 66759.4 " />
<path d="M156821 66759.5 A204.724 204.724 0.0 0 0 156622 66982.7 " />
<path d="M155952 67255
L156200 67255
" />
<path d="M155952 67751
L155952 67255
" />
<path d="M155952 66759
L155952 67751
" />
<path d="M156349 66759
L155952 66759
" />
<path d="M149446 66759
L149446 67751
" />
<path d="M149223 67007
L149446 66759
" />
<path d="M148553 67255
L148801 67255
" />
<path d="M148553 67751
L148553 67255
" />
<path d="M148553 66759
L148553 67751
" />
<path d="M148950 66759
L148553 66759
" />
<path d="M28503 59249
L29000 59001
" />
<path d="M28503 59472
L28503 59249
" />
<path d="M28503 59249
L28503 59472
" />
<path d="M28501 59212
L28503 59249
" />
<path d="M28492 59176
L28501 59212
" />
<path d="M28479 59142
L28492 59176
" />
<path d="M28461 59109
L28479 59142
" />
<path d="M28437 59080
L28461 59109
" />
<path d="M28410 59055
L28437 59080
" />
<path d="M28379 59034
L28410 59055
" />
<path d="M28346 59018
L28379 59034
" />
<path d="M28311 59007
L28346 59018
" />
<path d="M28274 59002
L28311 59007
" />
<path d="M28237 59002
L28274 59002
" />
<path d="M155863 58751
L156161 57759
" />
<path d="M155582 58007.5 A246.85 246.85 0.0 0 0 155334 57759.4 " />
<path d="M155334 57759.4 A248.031 248.031 0.0 0 0 155334 58255.5 " />
<path d="M155582 58503.5 A246.85 246.85 0.0 0 0 155334 58255.5 " />
<path d="M155086 58503.5 A248.031 248.031 0.0 0 0 155582 58503.5 " />
<path d="M150074 57759
L150074 58751
" />
<path d="M149752 58453
L150074 57759
" />
<path d="M149429 57759
L149752 58453
" />
<path d="M149429 58751
L149429 57759
" />
<path d="M148677 57759
L148677 58751
" />
<path d="M148900 57759
L148677 57759
" />
<path d="M148901 58255.5 A248.031 248.031 0.0 0 0 148901 57759.4 " />
<path d="M148677 58255
L148900 58255
" />
<path d="M148131 57759
L147925 57759
" />
<path d="M148148 58247.2 A244.094 244.094 0.0 0 0 148132 57759.4 " />
<path d="M147925 58247
L148148 58247
" />
<path d="M148148 58247
L147925 58247
" />
<path d="M148148 58751.6 A252.362 252.362 0.0 0 0 148148 58247.2 " />
<path d="M147925 58751
L148148 58751
" />
<path d="M147925 57759
L147925 58751
" />
<path d="M143294 58751
L143294 57759
" />
<path d="M142847 58255
L143294 58255
" />
<path d="M142847 57759
L142847 58751
" />
<path d="M142095 57759
L142095 58751
" />
<path d="M142318 57759
L142095 57759
" />
<path d="M142319 58255.5 A248.031 248.031 0.0 0 0 142319 57759.4 " />
<path d="M142095 58255
L142318 58255
" />
<path d="M141574 58255
L141822 58751
" />
<path d="M141351 58255
L141574 58255
" />
<path d="M141574 58255
L141351 58255
" />
<path d="M141574 58255.5 A248.031 248.031 0.0 0 0 141574 57759.4 " />
<path d="M141351 57759
L141574 57759
" />
<path d="M141351 58751
L141351 57759
" />
<path d="M140631 57982
L140631 58528
" />
<path d="M141078 57982.7 A223.228 223.228 0.0 0 0 140632 57982.7 " />
<path d="M141078 58528
L141078 57982
" />
<path d="M140632 58528.3 A223.228 223.228 0.0 0 0 141078 58528.3 " />
<path d="M140350 57759
L140350 58751
" />
<path d="M140028 58453
L140350 57759
" />
<path d="M139705 57759
L140028 58453
" />
<path d="M139705 58751
L139705 57759
" />
<path d="M135901 58751
L136224 58751
" />
<path d="M135901 57759
L135901 58751
" />
<path d="M135132 58453
L135529 58453
" />
<path d="M135331 57759
L135628 58751
" />
<path d="M135033 58751
L135331 57759
" />
<path d="M134752 58528
L134752 57759
" />
<path d="M134306 58528.3 A223.228 223.228 0.0 0 0 134752 58528.3 " />
<path d="M134305 57759
L134305 58528
" />
<path d="M134024 58751
L134024 57759
" />
<path d="M133578 57759
L134024 58751
" />
<path d="M133578 58751
L133578 57759
" />
<path d="M132801 58453
L133198 58453
" />
<path d="M132999 57759
L133297 58751
" />
<path d="M132701 58751
L132999 57759
" />
<path d="M132420 57759
L132420 58751
" />
<path d="M132098 58453
L132420 57759
" />
<path d="M131775 57759
L132098 58453
" />
<path d="M131775 58751
L131775 57759
" />
<path d="M126615 58751
L127062 57759
" />
<path d="M126615 57759
L127062 58751
" />
<path d="M125937 58255
L126185 58255
" />
<path d="M125937 58751
L125937 58255
" />
<path d="M125937 57759
L125937 58751
" />
<path d="M126334 57759
L125937 57759
" />
<path d="M120951 58255
L121199 58751
" />
<path d="M120727 58255
L120951 58255
" />
<path d="M120951 58255
L120727 58255
" />
<path d="M120951 58255.5 A248.031 248.031 0.0 0 0 120951 57759.4 " />
<path d="M120727 57759
L120951 57759
" />
<path d="M120727 58751
L120727 57759
" />
<path d="M120008 58255
L120380 58255
" />
<path d="M120008 58751
L120455 58751
" />
<path d="M120008 57759
L120008 58751
" />
<path d="M120455 57759
L120008 57759
" />
<path d="M119727 58280
L119504 58280
" />
<path d="M119727 58528
L119727 58280
" />
<path d="M119281 58528.3 A223.228 223.228 0.0 0 0 119728 58528.3 " />
<path d="M119281 57982
L119281 58528
" />
<path d="M119728 57982.7 A223.228 223.228 0.0 0 0 119281 57982.7 " />
<path d="M119000 58280
L118776 58280
" />
<path d="M119000 58528
L119000 58280
" />
<path d="M118554 58528.3 A223.228 223.228 0.0 0 0 119000 58528.3 " />
<path d="M118553 57982
L118553 58528
" />
<path d="M119000 57982.7 A223.228 223.228 0.0 0 0 118554 57982.7 " />
<path d="M118272 57759
L118272 58751
" />
<path d="M117743 58255
L117991 58751
" />
<path d="M117520 58255
L117743 58255
" />
<path d="M117743 58255
L117520 58255
" />
<path d="M117743 58255.5 A248.031 248.031 0.0 0 0 117743 57759.4 " />
<path d="M117520 57759
L117743 57759
" />
<path d="M117520 58751
L117520 57759
" />
<path d="M117024 57759
L117024 58751
" />
<path d="M117247 57759
L117024 57759
" />
<path d="M116800 57759
L117247 57759
" />
<path d="M100603 58255
L100975 58255
" />
<path d="M100603 58751
L101050 58751
" />
<path d="M100603 57759
L100603 58751
" />
<path d="M101050 57759
L100603 57759
" />
<path d="M100099 58751
L100322 57759
" />
<path d="M99876 57759
L100099 58751
" />
<path d="M99148 57982
L99148 58528
" />
<path d="M99595.3 57982.7 A223.228 223.228 0.0 0 0 99148.8 57982.7 " />
<path d="M99595 58528
L99595 57982
" />
<path d="M99148.8 58528.3 A223.228 223.228 0.0 0 0 99595.3 58528.3 " />
<path d="M98421 57982
L98421 58528
" />
<path d="M98867.7 57982.7 A223.228 223.228 0.0 0 0 98421.3 57982.7 " />
<path d="M98867 58528
L98867 57982
" />
<path d="M98421.3 58528.3 A223.228 223.228 0.0 0 0 98867.7 58528.3 " />
<path d="M97892 58255
L98140 58751
" />
<path d="M97668 58255
L97892 58255
" />
<path d="M97892 58255
L97668 58255
" />
<path d="M97892.1 58255.5 A248.031 248.031 0.0 0 0 97892.1 57759.4 " />
<path d="M97668 57759
L97892 57759
" />
<path d="M97668 58751
L97668 57759
" />
<path d="M97396 58280
L97172 58280
" />
<path d="M97396 58528
L97396 58280
" />
<path d="M96949.6 58528.3 A223.228 223.228 0.0 0 0 97396.1 58528.3 " />
<path d="M96949 57982
L96949 58528
" />
<path d="M97396.1 57982.7 A223.228 223.228 0.0 0 0 96949.6 57982.7 " />
<path d="M94327 58255
L94699 58255
" />
<path d="M94327 58751
L94774 58751
" />
<path d="M94327 57759
L94327 58751
" />
<path d="M94774 57759
L94327 57759
" />
<path d="M94046.5 58007.5 A246.85 246.85 0.0 0 0 93798.4 57759.4 " />
<path d="M93798.4 57759.4 A248.031 248.031 0.0 0 0 93798.4 58255.5 " />
<path d="M94046.5 58503.5 A246.85 246.85 0.0 0 0 93798.4 58255.5 " />
<path d="M93550.4 58503.5 A248.031 248.031 0.0 0 0 94046.5 58503.5 " />
<path d="M92822 57982
L92822 58528
" />
<path d="M93269.3 57982.7 A223.228 223.228 0.0 0 0 92822.8 57982.7 " />
<path d="M93269 58528
L93269 57982
" />
<path d="M92822.8 58528.3 A223.228 223.228 0.0 0 0 93269.3 58528.3 " />
<path d="M92070 57759
L92070 58751
" />
<path d="M92293 57759
L92070 57759
" />
<path d="M92293.7 58255.5 A248.031 248.031 0.0 0 0 92293.7 57759.4 " />
<path d="M92070 58255
L92293 58255
" />
<path d="M91797.6 58007.5 A246.85 246.85 0.0 0 0 91549.6 57759.4 " />
<path d="M91549.6 57759.4 A248.031 248.031 0.0 0 0 91549.6 58255.5 " />
<path d="M91797.6 58503.5 A246.85 246.85 0.0 0 0 91549.6 58255.5 " />
<path d="M91301.6 58503.5 A248.031 248.031 0.0 0 0 91797.6 58503.5 " />
<path d="M91020 58751
L91020 57759
" />
<path d="M90574 57759
L91020 58751
" />
<path d="M90574 58751
L90574 57759
" />
<path d="M89796 58453
L90193 58453
" />
<path d="M89995 57759
L90292 58751
" />
<path d="M89697 58751
L89995 57759
" />
<path d="M89168 58255
L89416 58751
" />
<path d="M88945 58255
L89168 58255
" />
<path d="M89168 58255
L88945 58255
" />
<path d="M89168.5 58255.5 A248.031 248.031 0.0 0 0 89168.5 57759.4 " />
<path d="M88945 57759
L89168 57759
" />
<path d="M88945 58751
L88945 57759
" />
<path d="M88449 57759
L88449 58751
" />
<path d="M88672 57759
L88449 57759
" />
<path d="M88225 57759
L88672 57759
" />
<path d="M85980 58751
L85980 57759
" />
<path d="M85533 58255
L85980 58255
" />
<path d="M85533 57759
L85533 58751
" />
<path d="M85029 57759
L85029 58751
" />
<path d="M85252 57759
L85029 57759
" />
<path d="M84806 57759
L85252 57759
" />
<path d="M84525 58280
L84301 58280
" />
<path d="M84525 58528
L84525 58280
" />
<path d="M84078.7 58528.3 A223.228 223.228 0.0 0 0 84525.2 58528.3 " />
<path d="M84078 57982
L84078 58528
" />
<path d="M84525.2 57982.7 A223.228 223.228 0.0 0 0 84078.7 57982.7 " />
<path d="M83797 58751
L83797 57759
" />
<path d="M83351 57759
L83797 58751
" />
<path d="M83351 58751
L83351 57759
" />
<path d="M82623 58255
L82995 58255
" />
<path d="M82623 58751
L83070 58751
" />
<path d="M82623 57759
L82623 58751
" />
<path d="M83070 57759
L82623 57759
" />
<path d="M82020 58751
L82342 58751
" />
<path d="M82020 57759
L82020 58751
" />
<path d="M78219 58255
L78467 58751
" />
<path d="M77996 58255
L78219 58255
" />
<path d="M78219 58255
L77996 58255
" />
<path d="M78219.7 58255.5 A248.031 248.031 0.0 0 0 78219.7 57759.4 " />
<path d="M77996 57759
L78219 57759
" />
<path d="M77996 58751
L77996 57759
" />
<path d="M77277 58255
L77649 58255
" />
<path d="M77277 58751
L77723 58751
" />
<path d="M77277 57759
L77277 58751
" />
<path d="M77723 57759
L77277 57759
" />
<path d="M76748 58751
L76549 58751
" />
<path d="M76748 58751.6 A246.85 246.85 0.0 0 0 76996.1 58503.5 " />
<path d="M76996 58007
L76996 58503
" />
<path d="M76996.1 58007.5 A246.85 246.85 0.0 0 0 76748 57759.4 " />
<path d="M76549 57759
L76748 57759
" />
<path d="M76549 58751
L76549 57759
" />
<path d="M76268 57759
L76268 58751
" />
<path d="M75764 58751
L75987 57759
" />
<path d="M75540 57759
L75764 58751
" />
<path d="M75259 57759
L75259 58751
" />
<path d="M74730 58751
L74532 58751
" />
<path d="M74730.7 58751.6 A246.85 246.85 0.0 0 0 74978.7 58503.5 " />
<path d="M74978 58007
L74978 58503
" />
<path d="M74978.7 58007.5 A246.85 246.85 0.0 0 0 74730.7 57759.4 " />
<path d="M74532 57759
L74730 57759
" />
<path d="M74532 58751
L74532 57759
" />
<path d="M71687 58751
L71687 57759
" />
<path d="M71240 57759
L71687 58751
" />
<path d="M71240 58751
L71240 57759
" />
<path d="M70512 57982
L70512 58528
" />
<path d="M70959.4 57982.7 A223.228 223.228 0.0 0 0 70513 57982.7 " />
<path d="M70959 58528
L70959 57982
" />
<path d="M70513 58528.3 A223.228 223.228 0.0 0 0 70959.4 58528.3 " />
<path d="M70231 57759
L70231 58751
" />
<path d="M69727 57759
L69727 58751
" />
<path d="M69950 57759
L69727 57759
" />
<path d="M69504 57759
L69950 57759
" />
<path d="M68793.3 58536.6 A214.961 214.961 0.0 0 0 69223.2 58536.6 " />
<path d="M68793 57974
L68793 58536
" />
<path d="M69223.2 57974.4 A214.961 214.961 0.0 0 0 68793.3 57974.4 " />
<path d="M68065 58255
L68437 58255
" />
<path d="M68065 58751
L68512 58751
" />
<path d="M68065 57759
L68065 58751
" />
<path d="M68512 57759
L68065 57759
" />
<path d="M67536 58255
L67784 58751
" />
<path d="M67313 58255
L67536 58255
" />
<path d="M67536 58255
L67313 58255
" />
<path d="M67536.6 58255.5 A248.031 248.031 0.0 0 0 67536.6 57759.4 " />
<path d="M67313 57759
L67536 57759
" />
<path d="M67313 58751
L67313 57759
" />
<path d="M67040 57759
L67040 58751
" />
<path d="M66511 58751
L66312 58751
" />
<path d="M66511.4 58751.6 A246.85 246.85 0.0 0 0 66759.4 58503.5 " />
<path d="M66759 58007
L66759 58503
" />
<path d="M66759.4 58007.5 A246.85 246.85 0.0 0 0 66511.4 57759.4 " />
<path d="M66312 57759
L66511 57759
" />
<path d="M66312 58751
L66312 57759
" />
<path d="M62467 58255
L62839 58255
" />
<path d="M62467 58751
L62913 58751
" />
<path d="M62467 57759
L62467 58751
" />
<path d="M62913 57759
L62467 57759
" />
<path d="M61938 58751
L61739 58751
" />
<path d="M61938.2 58751.6 A246.85 246.85 0.0 0 0 62186.2 58503.5 " />
<path d="M62186 58007
L62186 58503
" />
<path d="M62186.2 58007.5 A246.85 246.85 0.0 0 0 61938.2 57759.4 " />
<path d="M61739 57759
L61938 57759
" />
<path d="M61739 58751
L61739 57759
" />
<path d="M61012 57982
L61012 58528
" />
<path d="M61458.7 57982.7 A223.228 223.228 0.0 0 0 61012.2 57982.7 " />
<path d="M61458 58528
L61458 57982
" />
<path d="M61012.2 58528.3 A223.228 223.228 0.0 0 0 61458.7 58528.3 " />
<path d="M60731 57759
L60731 58751
" />
<path d="M60408 58453
L60731 57759
" />
<path d="M60086 57759
L60408 58453
" />
<path d="M60086 58751
L60086 57759
" />
<path d="M55455 57759
L55455 58751
" />
<path d="M55678 57759
L55455 57759
" />
<path d="M55231 57759
L55678 57759
" />
<path d="M54950 58751
L54950 57759
" />
<path d="M54504 57759
L54950 58751
" />
<path d="M54504 58751
L54504 57759
" />
<path d="M53776 58255
L54148 58255
" />
<path d="M53776 58751
L54223 58751
" />
<path d="M53776 57759
L53776 58751
" />
<path d="M54223 57759
L53776 57759
" />
<path d="M53272 58751
L53495 57759
" />
<path d="M53049 57759
L53272 58751
" />
<path d="M52321 58255
L52693 58255
" />
<path d="M52321 58751
L52768 58751
" />
<path d="M52321 57759
L52321 58751
" />
<path d="M52768 57759
L52321 57759
" />
<path d="M47814 58255
L48062 58751
" />
<path d="M47591 58255
L47814 58255
" />
<path d="M47814 58255
L47591 58255
" />
<path d="M47814.6 58255.5 A248.031 248.031 0.0 0 0 47814.6 57759.4 " />
<path d="M47591 57759
L47814 57759
" />
<path d="M47591 58751
L47591 57759
" />
<path d="M46872 58255
L47244 58255
" />
<path d="M46872 58751
L47318 58751
" />
<path d="M46872 57759
L46872 58751
" />
<path d="M47318 57759
L46872 57759
" />
<path d="M46144 58751
L46590 57759
" />
<path d="M46144 57759
L46590 58751
" />
<path d="M45863 57759
L45863 58751
" />
<path d="M45582 57759
L45582 58751
" />
<path d="M45259 58453
L45582 57759
" />
<path d="M44937 57759
L45259 58453
" />
<path d="M44937 58751
L44937 57759
" />
<path d="M98785 51286.6 A213.78 213.78 0.0 0 0 99000 51501.6 " />
<path d="M98785 51212
L98785 51286
" />
<path d="M99000 51005.5 A209.843 209.843 0.0 0 0 98785 51212.2 " />
<path d="M98801.6 50807.1 A197.244 197.244 0.0 0 0 99000 51005.5 " />
<path d="M98801 50707
L98801 50807
" />
<path d="M99198.4 50707.9 A198.425 198.425 0.0 0 0 98801.6 50707.9 " />
<path d="M99198 50807
L99198 50707
" />
<path d="M99000 51005.5 A197.244 197.244 0.0 0 0 99198.4 50807.1 " />
<path d="M99215 51212.2 A209.843 209.843 0.0 0 0 99000 51005.5 " />
<path d="M99214 51286
L99214 51212
" />
<path d="M99000 51501.6 A213.78 213.78 0.0 0 0 99215 51286.6 " />
<path d="M91711 50509
L91388 51501
" />
<path d="M91289 50509
L91711 50509
" />
<path d="M91289 50683
L91289 50509
" />
<path d="M84211 51104.7 A223.228 223.228 0.0 0 0 83789.4 51030.3 " />
<path d="M84211 51303
L84211 51104
" />
<path d="M83987.8 51501.6 A218.898 218.898 0.0 0 0 84211 51303.1 " />
<path d="M83789.4 51303.2 A222.835 222.835 0.0 0 0 83987.8 51501.6 " />
<path d="M83789 50707
L83789 51303
" />
<path d="M84012.6 50509.4 A204.724 204.724 0.0 0 0 83789.4 50707.9 " />
<path d="M84211 50732.7 A218.898 218.898 0.0 0 0 84012.6 50509.4 " />
<path d="M76289 51278.3 A231.496 231.496 0.0 0 0 76512.2 51501.6 " />
<path d="M76512.2 51501.6 A205.906 205.906 0.0 0 0 76710.6 51303.1 " />
<path d="M76710 51055
L76710 51303
" />
<path d="M76710.6 51055.1 A201.575 201.575 0.0 0 0 76338.6 50931.1 " />
<path d="M76338 50509
L76338 50931
" />
<path d="M76710 50509
L76338 50509
" />
<path d="M69111 51005
L69111 51501
" />
<path d="M68789 51253
L69211 51253
" />
<path d="M69111 50509
L68789 51253
" />
<path d="M61249.6 51278.3 A238.976 238.976 0.0 0 0 61555.5 51485 " />
<path d="M61555.5 51485 A270.866 270.866 0.0 0 0 61448 50955.9 " />
<path d="M61448 50955.9 A219.685 219.685 0.0 0 0 61530.7 50526 " />
<path d="M61530.7 50526 A203.543 203.543 0.0 0 0 61274.4 50707.9 " />
<path d="M53787 51501
L54209 51501
" />
<path d="M54184 50831
L53787 51501
" />
<path d="M54184.6 50831.9 A216.142 216.142 0.0 0 0 53986.2 50509.4 " />
<path d="M53986.2 50509.5 A204.724 204.724 0.0 0 0 53787.8 50732.7 " />
<path d="M46611 50509
L46611 51501
" />
<path d="M46388 50757
L46611 50509
" />
<path d="M171959 51104.7 A223.228 223.228 0.0 0 0 171537 51030.3 " />
<path d="M171959 51303
L171959 51104
" />
<path d="M171736 51501.6 A218.898 218.898 0.0 0 0 171959 51303.1 " />
<path d="M171537 51303.2 A222.835 222.835 0.0 0 0 171736 51501.6 " />
<path d="M171537 50707
L171537 51303
" />
<path d="M171761 50509.4 A204.724 204.724 0.0 0 0 171537 50707.9 " />
<path d="M171959 50732.7 A218.898 218.898 0.0 0 0 171761 50509.4 " />
<path d="M171264 50509
L171264 51501
" />
<path d="M171041 50757
L171264 50509
" />
<path d="M164037 51278.3 A231.496 231.496 0.0 0 0 164260 51501.6 " />
<path d="M164260 51501.6 A205.906 205.906 0.0 0 0 164459 51303.1 " />
<path d="M164458 51055
L164458 51303
" />
<path d="M164459 51055.1 A201.575 201.575 0.0 0 0 164087 50931.1 " />
<path d="M164086 50509
L164086 50931
" />
<path d="M164458 50509
L164086 50509
" />
<path d="M163764 50509
L163764 51501
" />
<path d="M163540 50757
L163764 50509
" />
<path d="M156859 51005
L156859 51501
" />
<path d="M156537 51253
L156959 51253
" />
<path d="M156859 50509
L156537 51253
" />
<path d="M156264 50509
L156264 51501
" />
<path d="M156041 50757
L156264 50509
" />
<path d="M148998 51278.3 A238.976 238.976 0.0 0 0 149304 51485 " />
<path d="M149304 51485 A270.866 270.866 0.0 0 0 149196 50955.9 " />
<path d="M149196 50955.9 A219.685 219.685 0.0 0 0 149279 50526 " />
<path d="M149279 50526 A203.543 203.543 0.0 0 0 149022 50707.9 " />
<path d="M148724 50509
L148724 51501
" />
<path d="M148501 50757
L148724 50509
" />
<path d="M141535 51501
L141957 51501
" />
<path d="M141932 50831
L141535 51501
" />
<path d="M141933 50831.9 A216.142 216.142 0.0 0 0 141734 50509.4 " />
<path d="M141734 50509.5 A204.724 204.724 0.0 0 0 141536 50732.7 " />
<path d="M141262 50509
L141262 51501
" />
<path d="M141039 50757
L141262 50509
" />
<path d="M134359 50509
L134359 51501
" />
<path d="M134136 50757
L134359 50509
" />
<path d="M133863 50509
L133863 51501
" />
<path d="M133640 50757
L133863 50509
" />
<path d="M126529 50732
L126529 51278
" />
<path d="M126976 50732.7 A223.228 223.228 0.0 0 0 126529 50732.7 " />
<path d="M126975 51278
L126975 50732
" />
<path d="M126529 51278.3 A223.228 223.228 0.0 0 0 126976 51278.3 " />
<path d="M126248 50509
L126248 51501
" />
<path d="M126024 50757
L126248 50509
" />
<path d="M118802 50856.7 A205.906 205.906 0.0 0 0 119198 50906.3 " />
<path d="M118801 50707
L118801 50856
" />
<path d="M119198 50707.9 A198.425 198.425 0.0 0 0 118802 50707.9 " />
<path d="M119198 51303
L119198 50707
" />
<path d="M119000 51501.6 A205.906 205.906 0.0 0 0 119198 51303.1 " />
<path d="M118802 51278.3 A218.898 218.898 0.0 0 0 119000 51501.6 " />
<path d="M168035 55785 A213.78 213.78 0.0 0 0 168250 56000 " />
<path d="M168035 55710
L168035 55785
" />
<path d="M168250 55503.9 A209.843 209.843 0.0 0 0 168035 55710.6 " />
<path d="M168052 55305.5 A197.244 197.244 0.0 0 0 168250 55503.9 " />
<path d="M168051 55206
L168051 55305
" />
<path d="M168448 55206.3 A198.425 198.425 0.0 0 0 168052 55206.3 " />
<path d="M168448 55305
L168448 55206
" />
<path d="M168250 55503.9 A197.244 197.244 0.0 0 0 168448 55305.5 " />
<path d="M168465 55710.6 A209.843 209.843 0.0 0 0 168250 55503.9 " />
<path d="M168464 55785
L168464 55710
" />
<path d="M168250 56000 A213.78 213.78 0.0 0 0 168465 55785 " />
<path d="M160961 55007
L160638 56000
" />
<path d="M160539 55007
L160961 55007
" />
<path d="M160539 55181
L160539 55007
" />
<path d="M153461 55603.2 A223.228 223.228 0.0 0 0 153039 55528.7 " />
<path d="M153461 55801
L153461 55603
" />
<path d="M153238 56000 A218.898 218.898 0.0 0 0 153461 55801.6 " />
<path d="M153039 55801.6 A222.835 222.835 0.0 0 0 153238 56000 " />
<path d="M153039 55206
L153039 55801
" />
<path d="M153263 55007.9 A204.724 204.724 0.0 0 0 153039 55206.3 " />
<path d="M153461 55231.1 A218.898 218.898 0.0 0 0 153263 55007.9 " />
<path d="M145539 55776.8 A231.496 231.496 0.0 0 0 145762 56000 " />
<path d="M145762 56000 A205.906 205.906 0.0 0 0 145961 55801.6 " />
<path d="M145960 55553
L145960 55801
" />
<path d="M145961 55553.5 A201.575 201.575 0.0 0 0 145589 55429.5 " />
<path d="M145588 55007
L145588 55429
" />
<path d="M145960 55007
L145588 55007
" />
<path d="M130500 55776.8 A238.976 238.976 0.0 0 0 130806 55983.5 " />
<path d="M130806 55983.5 A270.866 270.866 0.0 0 0 130698 55454.3 " />
<path d="M130698 55454.3 A219.685 219.685 0.0 0 0 130781 55024.4 " />
<path d="M130781 55024.4 A203.543 203.543 0.0 0 0 130524 55206.3 " />
<path d="M123037 56000
L123459 56000
" />
<path d="M123434 55330
L123037 56000
" />
<path d="M123435 55330.3 A216.142 216.142 0.0 0 0 123236 55007.9 " />
<path d="M123236 55007.9 A204.724 204.724 0.0 0 0 123038 55231.1 " />
<path d="M115861 55007
L115861 56000
" />
<path d="M115638 55255
L115861 55007
" />
<path d="M95973 56000
L95973 55007
" />
<path d="M95526 55503
L95973 55503
" />
<path d="M95526 55007
L95526 56000
" />
<path d="M88473 55528
L88250 55528
" />
<path d="M88473 55776
L88473 55528
" />
<path d="M88026.8 55776.8 A223.228 223.228 0.0 0 0 88473.2 55776.8 " />
<path d="M88026 55231
L88026 55776
" />
<path d="M88473.2 55231.1 A223.228 223.228 0.0 0 0 88026.8 55231.1 " />
<path d="M80551 55503
L80799 55503
" />
<path d="M80551 56000
L80551 55503
" />
<path d="M80551 55007
L80551 56000
" />
<path d="M80948 55007
L80551 55007
" />
<path d="M73026 55503
L73398 55503
" />
<path d="M73026 56000
L73473 56000
" />
<path d="M73026 55007
L73026 56000
" />
<path d="M73473 55007
L73026 55007
" />
<path d="M65725 56000
L65526 56000
" />
<path d="M65725.2 56000 A246.85 246.85 0.0 0 0 65973.2 55752 " />
<path d="M65973.2 55255.9 A246.85 246.85 0.0 0 0 65725.2 55007.9 " />
<path d="M65526 55007
L65725 55007
" />
<path d="M65526 56000
L65526 55007
" />
<path d="M58035 55785 A214.961 214.961 0.0 0 0 58465 55785 " />
<path d="M58035 55222
L58035 55785
" />
<path d="M58465 55222.8 A214.961 214.961 0.0 0 0 58035 55222.8 " />
<path d="M50724 55007
L50517 55007
" />
<path d="M50740.9 55495.7 A244.094 244.094 0.0 0 0 50724.4 55007.9 " />
<path d="M50517 55495
L50740 55495
" />
<path d="M50740 55495
L50517 55495
" />
<path d="M50740.9 56000 A252.362 252.362 0.0 0 0 50740.9 55495.7 " />
<path d="M50517 56000
L50740 56000
" />
<path d="M50517 55007
L50517 56000
" />
<path d="M43051 55702
L43448 55702
" />
<path d="M43250 55007
L43547 56000
" />
<path d="M42952 56000
L43250 55007
" />
<path d="M172250 76250
L171750 75750
" />
<path d="M171750 76750
L172250 76250
" />
<path d="M171750 75750
L171750 76750
" />
<path d="M171500 76250
L171000 75750
" />
<path d="M171000 76750
L171500 76250
" />
<path d="M171000 75750
L171000 76750
" />
<path d="M163500 76750
L164500 76250
" />
<path d="M163500 75750
L164500 76250
" />
<path d="M163500 76750
L163500 75750
" />
<path d="M156874 76750
L156625 76750
" />
<path d="M156874 75750
L156874 76750
" />
<path d="M156625 75750
L156874 75750
" />
<path d="M156624 76750
L156624 75750
" />
<path d="M156374 76750
L156125 76750
" />
<path d="M156375 75750
L156375 76750
" />
<path d="M156125 75750
L156374 75750
" />
<path d="M156125 76750
L156125 75750
" />
<path d="M148500 76750
L148500 75750
" />
<path d="M149500 76750
L148500 76750
" />
<path d="M149500 75750
L149500 76750
" />
<path d="M148500 75750
L149500 75750
" />
<path d="M140750 76250
L141250 76750
" />
<path d="M141250 75750
L140750 76250
" />
<path d="M141250 76750
L141250 75750
" />
<path d="M141500 76250
L142000 75750
" />
<path d="M142000 76750
L141500 76250
" />
<path d="M142000 75750
L142000 76750
" />
<path d="M133500 67750
L134500 67750
" />
<path d="M134000 66750
L134500 67750
" />
<path d="M133500 67750
L134000 66750
" />
<path d="M127000 66750
L126000 66750
" />
<path d="M126000 66750
L126500 67750
" />
<path d="M126500 67750
L127000 66750
" />
<path d="M29500 59000
L29500 74750
" />
<path d="M20500 59000
L20500 74750
" />
<path d="M29500 33000
L29500 54250
" />
<path d="M20500 33000
L20500 54250
" />
</g>
<g style="fill:#000000; fill-opacity:0.0; 
stroke:#000000; stroke-width:39.3701; stroke-opacity:1; 
stroke-linecap:round; stroke-linejoin:round;">
<path d="M194000 28000
L99000 28000
" />
<path d="M194000 28000
L194000 28000
" />
<path d="M194000 80000
L194000 28000
" />
<path d="M194000 80000
L194000 80000
" />
<path d="M4000 80000
L194000 80000
" />
<path d="M4000 80000
L4000 80000
" />
<path d="M4000 28000
L4000 80000
" />
<path d="M4000 28000
L4000 28000
" />
<path d="M99000 28000
L4000 28000
" />
</g> 
</svg>
