G04 #@! TF.FileFunction,Soldermask,Top*
%FSLAX46Y46*%
G04 Gerber Fmt 4.6, Leading zero omitted, Abs format (unit mm)*
G04 Created by KiCad (PCBNEW 4.0.2-stable) date 20/09/2016 17:33:02*
%MOMM*%
G01*
G04 APERTURE LIST*
%ADD10C,0.100000*%
%ADD11C,2.398980*%
%ADD12C,4.499560*%
%ADD13O,2.000000X2.000000*%
%ADD14C,2.076400*%
%ADD15R,1.822400X1.822400*%
%ADD16C,1.822400*%
%ADD17R,1.750000X1.750000*%
%ADD18C,1.750000*%
%ADD19R,1.700000X1.700000*%
%ADD20C,1.700000*%
%ADD21R,2.400000X2.400000*%
%ADD22C,2.400000*%
%ADD23R,2.432000X2.127200*%
%ADD24O,2.432000X2.127200*%
%ADD25C,1.924000*%
%ADD26R,1.797000X1.797000*%
%ADD27C,1.797000*%
%ADD28O,2.400000X1.900000*%
%ADD29R,2.400000X1.900000*%
%ADD30C,6.000000*%
G04 APERTURE END LIST*
D10*
D11*
X191810640Y-113649760D03*
X196809360Y-113649760D03*
X191810640Y-128150620D03*
X196809360Y-128150620D03*
X194310000Y-128150620D03*
D12*
X187711080Y-120650000D03*
X200908920Y-120650000D03*
D11*
X115610640Y-113649760D03*
X120609360Y-113649760D03*
X115610640Y-128150620D03*
X120609360Y-128150620D03*
X118110000Y-128150620D03*
D12*
X111511080Y-120650000D03*
X124708920Y-120650000D03*
D13*
X102235000Y-141478000D03*
X102235000Y-138938000D03*
X102235000Y-136398000D03*
X102235000Y-133858000D03*
X102235000Y-131318000D03*
X102235000Y-128778000D03*
X102235000Y-126238000D03*
X102235000Y-123698000D03*
X94615000Y-123698000D03*
X94615000Y-126238000D03*
X94615000Y-128778000D03*
X94615000Y-131318000D03*
X94615000Y-133858000D03*
X94615000Y-136398000D03*
X94615000Y-138938000D03*
X94615000Y-141478000D03*
D14*
X120650000Y-133985000D03*
X118110000Y-133985000D03*
X115570000Y-133985000D03*
X139700000Y-133985000D03*
X137160000Y-133985000D03*
X134620000Y-133985000D03*
X158750000Y-133985000D03*
X156210000Y-133985000D03*
X153670000Y-133985000D03*
X177800000Y-133985000D03*
X175260000Y-133985000D03*
X172720000Y-133985000D03*
X196850000Y-133985000D03*
X194310000Y-133985000D03*
X191770000Y-133985000D03*
X215900000Y-133985000D03*
X213360000Y-133985000D03*
X210820000Y-133985000D03*
X234950000Y-133985000D03*
X232410000Y-133985000D03*
X229870000Y-133985000D03*
X254000000Y-133985000D03*
X251460000Y-133985000D03*
X248920000Y-133985000D03*
X304800000Y-133985000D03*
X302260000Y-133985000D03*
X299720000Y-133985000D03*
X323850000Y-133985000D03*
X321310000Y-133985000D03*
X318770000Y-133985000D03*
X342900000Y-133985000D03*
X340360000Y-133985000D03*
X337820000Y-133985000D03*
X361950000Y-133985000D03*
X359410000Y-133985000D03*
X356870000Y-133985000D03*
X375920000Y-133985000D03*
X378460000Y-133985000D03*
X381000000Y-133985000D03*
X394970000Y-133985000D03*
X397510000Y-133985000D03*
X400050000Y-133985000D03*
X419100000Y-133985000D03*
X416560000Y-133985000D03*
X414020000Y-133985000D03*
X438150000Y-133985000D03*
X435610000Y-133985000D03*
X433070000Y-133985000D03*
D11*
X243078000Y-181610000D03*
X250698000Y-181610000D03*
X282628160Y-162671940D03*
X282628160Y-155051940D03*
X286128160Y-162671940D03*
X286128160Y-155051940D03*
X289628160Y-162671940D03*
X289628160Y-155051940D03*
X293128160Y-162671940D03*
X293128160Y-155051940D03*
X250698000Y-184404000D03*
X243078000Y-184404000D03*
X250698000Y-187198000D03*
X243078000Y-187198000D03*
X250825000Y-189992000D03*
X243205000Y-189992000D03*
D15*
X52070000Y-88900000D03*
D16*
X52070000Y-96520000D03*
D15*
X52070000Y-102870000D03*
D16*
X52070000Y-110490000D03*
D15*
X52070000Y-116840000D03*
D16*
X52070000Y-124460000D03*
D15*
X52070000Y-130810000D03*
D16*
X52070000Y-138430000D03*
D15*
X52070000Y-154940000D03*
D16*
X52070000Y-162560000D03*
D15*
X52070000Y-168910000D03*
D16*
X52070000Y-176530000D03*
D15*
X52070000Y-182880000D03*
D16*
X52070000Y-190500000D03*
D15*
X74930000Y-88900000D03*
D16*
X74930000Y-96520000D03*
D15*
X74930000Y-102870000D03*
D16*
X74930000Y-110490000D03*
D15*
X74930000Y-116840000D03*
D16*
X74930000Y-124460000D03*
D15*
X72359160Y-132058940D03*
D16*
X72359160Y-139678940D03*
D15*
X74930000Y-154940000D03*
D16*
X74930000Y-162560000D03*
D15*
X74930000Y-169058940D03*
D16*
X74930000Y-176678940D03*
D15*
X74930000Y-182880000D03*
D16*
X74930000Y-190500000D03*
D15*
X121955160Y-147320000D03*
D16*
X114335160Y-147320000D03*
D15*
X121920000Y-170180000D03*
D16*
X114300000Y-170180000D03*
D15*
X121920000Y-193040000D03*
D16*
X114300000Y-193040000D03*
D15*
X140970000Y-147320000D03*
D16*
X133350000Y-147320000D03*
D15*
X140970000Y-170180000D03*
D16*
X133350000Y-170180000D03*
D15*
X140970000Y-193040000D03*
D16*
X133350000Y-193040000D03*
D15*
X160020000Y-147320000D03*
D16*
X152400000Y-147320000D03*
D15*
X158750000Y-170180000D03*
D16*
X151130000Y-170180000D03*
D15*
X160020000Y-193040000D03*
D16*
X152400000Y-193040000D03*
D15*
X179070000Y-147320000D03*
D16*
X171450000Y-147320000D03*
D15*
X179070000Y-170180000D03*
D16*
X171450000Y-170180000D03*
D15*
X179070000Y-193040000D03*
D16*
X171450000Y-193040000D03*
D15*
X198120000Y-147320000D03*
D16*
X190500000Y-147320000D03*
D15*
X198120000Y-170180000D03*
D16*
X190500000Y-170180000D03*
D15*
X198120000Y-193040000D03*
D16*
X190500000Y-193040000D03*
D15*
X217170000Y-147320000D03*
D16*
X209550000Y-147320000D03*
D15*
X217170000Y-170180000D03*
D16*
X209550000Y-170180000D03*
D15*
X217170000Y-193040000D03*
D16*
X209550000Y-193040000D03*
D15*
X236220000Y-147320000D03*
D16*
X228600000Y-147320000D03*
D15*
X236220000Y-170180000D03*
D16*
X228600000Y-170180000D03*
D15*
X236220000Y-193040000D03*
D16*
X228600000Y-193040000D03*
D15*
X255270000Y-147320000D03*
D16*
X247650000Y-147320000D03*
D15*
X306070000Y-147320000D03*
D16*
X298450000Y-147320000D03*
D15*
X325120000Y-147320000D03*
D16*
X317500000Y-147320000D03*
D15*
X325120000Y-170180000D03*
D16*
X317500000Y-170180000D03*
D15*
X325120000Y-193040000D03*
D16*
X317500000Y-193040000D03*
D15*
X344170000Y-147320000D03*
D16*
X336550000Y-147320000D03*
D15*
X344170000Y-170180000D03*
D16*
X336550000Y-170180000D03*
D15*
X344170000Y-193040000D03*
D16*
X336550000Y-193040000D03*
D15*
X363220000Y-147320000D03*
D16*
X355600000Y-147320000D03*
D15*
X363220000Y-170180000D03*
D16*
X355600000Y-170180000D03*
D15*
X363220000Y-193040000D03*
D16*
X355600000Y-193040000D03*
D15*
X382270000Y-147320000D03*
D16*
X374650000Y-147320000D03*
D15*
X382270000Y-170180000D03*
D16*
X374650000Y-170180000D03*
D15*
X401320000Y-193040000D03*
D16*
X393700000Y-193040000D03*
D15*
X401320000Y-147320000D03*
D16*
X393700000Y-147320000D03*
D15*
X401320000Y-170180000D03*
D16*
X393700000Y-170180000D03*
D15*
X382270000Y-193040000D03*
D16*
X374650000Y-193040000D03*
D15*
X420370000Y-147320000D03*
D16*
X412750000Y-147320000D03*
D15*
X420370000Y-170180000D03*
D16*
X412750000Y-170180000D03*
D15*
X420370000Y-193040000D03*
D16*
X412750000Y-193040000D03*
D15*
X439420000Y-147320000D03*
D16*
X431800000Y-147320000D03*
D15*
X439455160Y-170180000D03*
D16*
X431835160Y-170180000D03*
D15*
X439420000Y-193040000D03*
D16*
X431800000Y-193040000D03*
D17*
X300228000Y-164592000D03*
D18*
X298228000Y-164592000D03*
D19*
X296545000Y-168315000D03*
D20*
X296545000Y-170815000D03*
D19*
X268224000Y-184023000D03*
D20*
X270724000Y-184023000D03*
D19*
X450723000Y-184023000D03*
D20*
X450723000Y-181523000D03*
D19*
X451358000Y-147701000D03*
D20*
X451358000Y-145201000D03*
D19*
X287655000Y-144105000D03*
D20*
X287655000Y-141605000D03*
D19*
X265684000Y-144613000D03*
D20*
X265684000Y-142113000D03*
D19*
X249803160Y-177337940D03*
D20*
X249803160Y-174837940D03*
D19*
X98679000Y-138263000D03*
D20*
X98679000Y-135763000D03*
D21*
X119380000Y-156845000D03*
D22*
X116840000Y-156845000D03*
D21*
X436880000Y-179705000D03*
D22*
X434340000Y-179705000D03*
D21*
X415290000Y-179705000D03*
D22*
X417830000Y-179705000D03*
D21*
X379730000Y-179705000D03*
D22*
X377190000Y-179705000D03*
D21*
X398780000Y-179705000D03*
D22*
X396240000Y-179705000D03*
D21*
X360680000Y-179705000D03*
D22*
X358140000Y-179705000D03*
D21*
X278130000Y-140970000D03*
D22*
X275590000Y-140970000D03*
D21*
X176530000Y-179705000D03*
D22*
X173990000Y-179705000D03*
D21*
X176530000Y-156845000D03*
D22*
X173990000Y-156845000D03*
D21*
X157480000Y-179705000D03*
D22*
X154940000Y-179705000D03*
D21*
X157480000Y-156845000D03*
D22*
X154940000Y-156845000D03*
D21*
X138430000Y-179705000D03*
D22*
X135890000Y-179705000D03*
D21*
X138430000Y-156845000D03*
D22*
X135890000Y-156845000D03*
D21*
X119380000Y-179705000D03*
D22*
X116840000Y-179705000D03*
D21*
X81280000Y-179705000D03*
D22*
X78740000Y-179705000D03*
D21*
X81280000Y-165735000D03*
D22*
X78740000Y-165735000D03*
D21*
X81280000Y-151765000D03*
D22*
X78740000Y-151765000D03*
D21*
X81280000Y-127635000D03*
D22*
X78740000Y-127635000D03*
D21*
X81280000Y-113665000D03*
D22*
X78740000Y-113665000D03*
D21*
X81280000Y-99695000D03*
D22*
X78740000Y-99695000D03*
D21*
X81280000Y-85622940D03*
D22*
X78740000Y-85622940D03*
D21*
X58420000Y-179705000D03*
D22*
X55880000Y-179705000D03*
D21*
X58420000Y-165735000D03*
D22*
X55880000Y-165735000D03*
D21*
X58420000Y-151765000D03*
D22*
X55880000Y-151765000D03*
D21*
X58420000Y-127635000D03*
D22*
X55880000Y-127635000D03*
D21*
X58420000Y-113665000D03*
D22*
X55880000Y-113665000D03*
D21*
X58420000Y-99695000D03*
D22*
X55880000Y-99695000D03*
D21*
X58420000Y-85725000D03*
D22*
X55880000Y-85725000D03*
D23*
X264033000Y-173736000D03*
D24*
X264033000Y-171196000D03*
X264033000Y-168656000D03*
D25*
X64690000Y-88964000D03*
X64690000Y-96456000D03*
X54690000Y-96456000D03*
X56690000Y-94456000D03*
X62690000Y-94456000D03*
X62690000Y-90964000D03*
X56690000Y-90964000D03*
X54690000Y-88964000D03*
X64690000Y-102934000D03*
X64690000Y-110426000D03*
X54690000Y-110426000D03*
X56690000Y-108426000D03*
X62690000Y-108426000D03*
X62690000Y-104934000D03*
X56690000Y-104934000D03*
X54690000Y-102934000D03*
X64690000Y-116904000D03*
X64690000Y-124396000D03*
X54690000Y-124396000D03*
X56690000Y-122396000D03*
X62690000Y-122396000D03*
X62690000Y-118904000D03*
X56690000Y-118904000D03*
X54690000Y-116904000D03*
X64690000Y-130874000D03*
X64690000Y-138366000D03*
X54690000Y-138366000D03*
X56690000Y-136366000D03*
X62690000Y-136366000D03*
X62690000Y-132874000D03*
X56690000Y-132874000D03*
X54690000Y-130874000D03*
X64690000Y-155004000D03*
X64690000Y-162496000D03*
X54690000Y-162496000D03*
X56690000Y-160496000D03*
X62690000Y-160496000D03*
X62690000Y-157004000D03*
X56690000Y-157004000D03*
X54690000Y-155004000D03*
X64690000Y-168974000D03*
X64690000Y-176466000D03*
X54690000Y-176466000D03*
X56690000Y-174466000D03*
X62690000Y-174466000D03*
X62690000Y-170974000D03*
X56690000Y-170974000D03*
X54690000Y-168974000D03*
X64690000Y-182944000D03*
X64690000Y-190436000D03*
X54690000Y-190436000D03*
X56690000Y-188436000D03*
X62690000Y-188436000D03*
X62690000Y-184944000D03*
X56690000Y-184944000D03*
X54690000Y-182944000D03*
X87550000Y-88964000D03*
X87550000Y-96456000D03*
X77550000Y-96456000D03*
X79550000Y-94456000D03*
X85550000Y-94456000D03*
X85550000Y-90964000D03*
X79550000Y-90964000D03*
X77550000Y-88964000D03*
X87550000Y-102934000D03*
X87550000Y-110426000D03*
X77550000Y-110426000D03*
X79550000Y-108426000D03*
X85550000Y-108426000D03*
X85550000Y-104934000D03*
X79550000Y-104934000D03*
X77550000Y-102934000D03*
X87550000Y-116904000D03*
X87550000Y-124396000D03*
X77550000Y-124396000D03*
X79550000Y-122396000D03*
X85550000Y-122396000D03*
X85550000Y-118904000D03*
X79550000Y-118904000D03*
X77550000Y-116904000D03*
X87598000Y-130876940D03*
X87598000Y-138368940D03*
X77598000Y-138368940D03*
X79598000Y-136368940D03*
X85598000Y-136368940D03*
X85598000Y-132876940D03*
X79598000Y-132876940D03*
X77598000Y-130876940D03*
X87550000Y-155004000D03*
X87550000Y-162496000D03*
X77550000Y-162496000D03*
X79550000Y-160496000D03*
X85550000Y-160496000D03*
X85550000Y-157004000D03*
X79550000Y-157004000D03*
X77550000Y-155004000D03*
X87550000Y-168974000D03*
X87550000Y-176466000D03*
X77550000Y-176466000D03*
X79550000Y-174466000D03*
X85550000Y-174466000D03*
X85550000Y-170974000D03*
X79550000Y-170974000D03*
X77550000Y-168974000D03*
X87550000Y-182944000D03*
X87550000Y-190436000D03*
X77550000Y-190436000D03*
X79550000Y-188436000D03*
X85550000Y-188436000D03*
X85550000Y-184944000D03*
X79550000Y-184944000D03*
X77550000Y-182944000D03*
X123110000Y-137224000D03*
X123110000Y-144716000D03*
X113110000Y-144716000D03*
X115110000Y-142716000D03*
X121110000Y-142716000D03*
X121110000Y-139224000D03*
X115110000Y-139224000D03*
X113110000Y-137224000D03*
X123110000Y-160084000D03*
X123110000Y-167576000D03*
X113110000Y-167576000D03*
X115110000Y-165576000D03*
X121110000Y-165576000D03*
X121110000Y-162084000D03*
X115110000Y-162084000D03*
X113110000Y-160084000D03*
X123110000Y-182944000D03*
X123110000Y-190436000D03*
X113110000Y-190436000D03*
X115110000Y-188436000D03*
X121110000Y-188436000D03*
X121110000Y-184944000D03*
X115110000Y-184944000D03*
X113110000Y-182944000D03*
X142160000Y-137224000D03*
X142160000Y-144716000D03*
X132160000Y-144716000D03*
X134160000Y-142716000D03*
X140160000Y-142716000D03*
X140160000Y-139224000D03*
X134160000Y-139224000D03*
X132160000Y-137224000D03*
X142160000Y-160084000D03*
X142160000Y-167576000D03*
X132160000Y-167576000D03*
X134160000Y-165576000D03*
X140160000Y-165576000D03*
X140160000Y-162084000D03*
X134160000Y-162084000D03*
X132160000Y-160084000D03*
X142160000Y-182944000D03*
X142160000Y-190436000D03*
X132160000Y-190436000D03*
X134160000Y-188436000D03*
X140160000Y-188436000D03*
X140160000Y-184944000D03*
X134160000Y-184944000D03*
X132160000Y-182944000D03*
X161210000Y-137224000D03*
X161210000Y-144716000D03*
X151210000Y-144716000D03*
X153210000Y-142716000D03*
X159210000Y-142716000D03*
X159210000Y-139224000D03*
X153210000Y-139224000D03*
X151210000Y-137224000D03*
X161210000Y-160084000D03*
X161210000Y-167576000D03*
X151210000Y-167576000D03*
X153210000Y-165576000D03*
X159210000Y-165576000D03*
X159210000Y-162084000D03*
X153210000Y-162084000D03*
X151210000Y-160084000D03*
X161210000Y-182944000D03*
X161210000Y-190436000D03*
X151210000Y-190436000D03*
X153210000Y-188436000D03*
X159210000Y-188436000D03*
X159210000Y-184944000D03*
X153210000Y-184944000D03*
X151210000Y-182944000D03*
X180260000Y-137224000D03*
X180260000Y-144716000D03*
X170260000Y-144716000D03*
X172260000Y-142716000D03*
X178260000Y-142716000D03*
X178260000Y-139224000D03*
X172260000Y-139224000D03*
X170260000Y-137224000D03*
X180260000Y-160084000D03*
X180260000Y-167576000D03*
X170260000Y-167576000D03*
X172260000Y-165576000D03*
X178260000Y-165576000D03*
X178260000Y-162084000D03*
X172260000Y-162084000D03*
X170260000Y-160084000D03*
X180260000Y-182944000D03*
X180260000Y-190436000D03*
X170260000Y-190436000D03*
X172260000Y-188436000D03*
X178260000Y-188436000D03*
X178260000Y-184944000D03*
X172260000Y-184944000D03*
X170260000Y-182944000D03*
X199310000Y-137224000D03*
X199310000Y-144716000D03*
X189310000Y-144716000D03*
X191310000Y-142716000D03*
X197310000Y-142716000D03*
X197310000Y-139224000D03*
X191310000Y-139224000D03*
X189310000Y-137224000D03*
X199310000Y-160084000D03*
X199310000Y-167576000D03*
X189310000Y-167576000D03*
X191310000Y-165576000D03*
X197310000Y-165576000D03*
X197310000Y-162084000D03*
X191310000Y-162084000D03*
X189310000Y-160084000D03*
X199310000Y-182944000D03*
X199310000Y-190436000D03*
X189310000Y-190436000D03*
X191310000Y-188436000D03*
X197310000Y-188436000D03*
X197310000Y-184944000D03*
X191310000Y-184944000D03*
X189310000Y-182944000D03*
X218360000Y-137224000D03*
X218360000Y-144716000D03*
X208360000Y-144716000D03*
X210360000Y-142716000D03*
X216360000Y-142716000D03*
X216360000Y-139224000D03*
X210360000Y-139224000D03*
X208360000Y-137224000D03*
X218360000Y-160084000D03*
X218360000Y-167576000D03*
X208360000Y-167576000D03*
X210360000Y-165576000D03*
X216360000Y-165576000D03*
X216360000Y-162084000D03*
X210360000Y-162084000D03*
X208360000Y-160084000D03*
X218360000Y-182944000D03*
X218360000Y-190436000D03*
X208360000Y-190436000D03*
X210360000Y-188436000D03*
X216360000Y-188436000D03*
X216360000Y-184944000D03*
X210360000Y-184944000D03*
X208360000Y-182944000D03*
X237410000Y-137224000D03*
X237410000Y-144716000D03*
X227410000Y-144716000D03*
X229410000Y-142716000D03*
X235410000Y-142716000D03*
X235410000Y-139224000D03*
X229410000Y-139224000D03*
X227410000Y-137224000D03*
X237410000Y-160084000D03*
X237410000Y-167576000D03*
X227410000Y-167576000D03*
X229410000Y-165576000D03*
X235410000Y-165576000D03*
X235410000Y-162084000D03*
X229410000Y-162084000D03*
X227410000Y-160084000D03*
X237410000Y-182944000D03*
X237410000Y-190436000D03*
X227410000Y-190436000D03*
X229410000Y-188436000D03*
X235410000Y-188436000D03*
X235410000Y-184944000D03*
X229410000Y-184944000D03*
X227410000Y-182944000D03*
X256460000Y-137224000D03*
X256460000Y-144716000D03*
X246460000Y-144716000D03*
X248460000Y-142716000D03*
X254460000Y-142716000D03*
X254460000Y-139224000D03*
X248460000Y-139224000D03*
X246460000Y-137224000D03*
X307260000Y-137224000D03*
X307260000Y-144716000D03*
X297260000Y-144716000D03*
X299260000Y-142716000D03*
X305260000Y-142716000D03*
X305260000Y-139224000D03*
X299260000Y-139224000D03*
X297260000Y-137224000D03*
X326310000Y-137224000D03*
X326310000Y-144716000D03*
X316310000Y-144716000D03*
X318310000Y-142716000D03*
X324310000Y-142716000D03*
X324310000Y-139224000D03*
X318310000Y-139224000D03*
X316310000Y-137224000D03*
X326310000Y-160084000D03*
X326310000Y-167576000D03*
X316310000Y-167576000D03*
X318310000Y-165576000D03*
X324310000Y-165576000D03*
X324310000Y-162084000D03*
X318310000Y-162084000D03*
X316310000Y-160084000D03*
X326310000Y-182944000D03*
X326310000Y-190436000D03*
X316310000Y-190436000D03*
X318310000Y-188436000D03*
X324310000Y-188436000D03*
X324310000Y-184944000D03*
X318310000Y-184944000D03*
X316310000Y-182944000D03*
X345360000Y-137224000D03*
X345360000Y-144716000D03*
X335360000Y-144716000D03*
X337360000Y-142716000D03*
X343360000Y-142716000D03*
X343360000Y-139224000D03*
X337360000Y-139224000D03*
X335360000Y-137224000D03*
X345360000Y-160084000D03*
X345360000Y-167576000D03*
X335360000Y-167576000D03*
X337360000Y-165576000D03*
X343360000Y-165576000D03*
X343360000Y-162084000D03*
X337360000Y-162084000D03*
X335360000Y-160084000D03*
X345360000Y-182944000D03*
X345360000Y-190436000D03*
X335360000Y-190436000D03*
X337360000Y-188436000D03*
X343360000Y-188436000D03*
X343360000Y-184944000D03*
X337360000Y-184944000D03*
X335360000Y-182944000D03*
X364410000Y-137224000D03*
X364410000Y-144716000D03*
X354410000Y-144716000D03*
X356410000Y-142716000D03*
X362410000Y-142716000D03*
X362410000Y-139224000D03*
X356410000Y-139224000D03*
X354410000Y-137224000D03*
X364410000Y-160084000D03*
X364410000Y-167576000D03*
X354410000Y-167576000D03*
X356410000Y-165576000D03*
X362410000Y-165576000D03*
X362410000Y-162084000D03*
X356410000Y-162084000D03*
X354410000Y-160084000D03*
X364410000Y-182944000D03*
X364410000Y-190436000D03*
X354410000Y-190436000D03*
X356410000Y-188436000D03*
X362410000Y-188436000D03*
X362410000Y-184944000D03*
X356410000Y-184944000D03*
X354410000Y-182944000D03*
X383460000Y-137224000D03*
X383460000Y-144716000D03*
X373460000Y-144716000D03*
X375460000Y-142716000D03*
X381460000Y-142716000D03*
X381460000Y-139224000D03*
X375460000Y-139224000D03*
X373460000Y-137224000D03*
X383460000Y-160084000D03*
X383460000Y-167576000D03*
X373460000Y-167576000D03*
X375460000Y-165576000D03*
X381460000Y-165576000D03*
X381460000Y-162084000D03*
X375460000Y-162084000D03*
X373460000Y-160084000D03*
X402510000Y-182944000D03*
X402510000Y-190436000D03*
X392510000Y-190436000D03*
X394510000Y-188436000D03*
X400510000Y-188436000D03*
X400510000Y-184944000D03*
X394510000Y-184944000D03*
X392510000Y-182944000D03*
X402510000Y-137224000D03*
X402510000Y-144716000D03*
X392510000Y-144716000D03*
X394510000Y-142716000D03*
X400510000Y-142716000D03*
X400510000Y-139224000D03*
X394510000Y-139224000D03*
X392510000Y-137224000D03*
X402510000Y-160084000D03*
X402510000Y-167576000D03*
X392510000Y-167576000D03*
X394510000Y-165576000D03*
X400510000Y-165576000D03*
X400510000Y-162084000D03*
X394510000Y-162084000D03*
X392510000Y-160084000D03*
X383460000Y-182944000D03*
X383460000Y-190436000D03*
X373460000Y-190436000D03*
X375460000Y-188436000D03*
X381460000Y-188436000D03*
X381460000Y-184944000D03*
X375460000Y-184944000D03*
X373460000Y-182944000D03*
X421560000Y-137224000D03*
X421560000Y-144716000D03*
X411560000Y-144716000D03*
X413560000Y-142716000D03*
X419560000Y-142716000D03*
X419560000Y-139224000D03*
X413560000Y-139224000D03*
X411560000Y-137224000D03*
X421560000Y-160084000D03*
X421560000Y-167576000D03*
X411560000Y-167576000D03*
X413560000Y-165576000D03*
X419560000Y-165576000D03*
X419560000Y-162084000D03*
X413560000Y-162084000D03*
X411560000Y-160084000D03*
X421560000Y-182944000D03*
X421560000Y-190436000D03*
X411560000Y-190436000D03*
X413560000Y-188436000D03*
X419560000Y-188436000D03*
X419560000Y-184944000D03*
X413560000Y-184944000D03*
X411560000Y-182944000D03*
X440610000Y-137224000D03*
X440610000Y-144716000D03*
X430610000Y-144716000D03*
X432610000Y-142716000D03*
X438610000Y-142716000D03*
X438610000Y-139224000D03*
X432610000Y-139224000D03*
X430610000Y-137224000D03*
X440610000Y-160084000D03*
X440610000Y-167576000D03*
X430610000Y-167576000D03*
X432610000Y-165576000D03*
X438610000Y-165576000D03*
X438610000Y-162084000D03*
X432610000Y-162084000D03*
X430610000Y-160084000D03*
X440610000Y-182944000D03*
X440610000Y-190436000D03*
X430610000Y-190436000D03*
X432610000Y-188436000D03*
X438610000Y-188436000D03*
X438610000Y-184944000D03*
X432610000Y-184944000D03*
X430610000Y-182944000D03*
D11*
X134645800Y-113622700D03*
X139644520Y-113622700D03*
X134645800Y-128123560D03*
X139644520Y-128123560D03*
X137145160Y-128123560D03*
D12*
X130546240Y-120622940D03*
X143744080Y-120622940D03*
D11*
X153710640Y-113649760D03*
X158709360Y-113649760D03*
X153710640Y-128150620D03*
X158709360Y-128150620D03*
X156210000Y-128150620D03*
D12*
X149611080Y-120650000D03*
X162808920Y-120650000D03*
D11*
X172760640Y-113649760D03*
X177759360Y-113649760D03*
X172760640Y-128150620D03*
X177759360Y-128150620D03*
X175260000Y-128150620D03*
D12*
X168661080Y-120650000D03*
X181858920Y-120650000D03*
D11*
X210645800Y-113622700D03*
X215644520Y-113622700D03*
X210645800Y-128123560D03*
X215644520Y-128123560D03*
X213145160Y-128123560D03*
D12*
X206546240Y-120622940D03*
X219744080Y-120622940D03*
D11*
X229910640Y-113649760D03*
X234909360Y-113649760D03*
X229910640Y-128150620D03*
X234909360Y-128150620D03*
X232410000Y-128150620D03*
D12*
X225811080Y-120650000D03*
X239008920Y-120650000D03*
D11*
X248960640Y-113649760D03*
X253959360Y-113649760D03*
X248960640Y-128150620D03*
X253959360Y-128150620D03*
X251460000Y-128150620D03*
D12*
X244861080Y-120650000D03*
X258058920Y-120650000D03*
D11*
X274360640Y-166989760D03*
X279359360Y-166989760D03*
X274360640Y-181490620D03*
X279359360Y-181490620D03*
X276860000Y-181490620D03*
D12*
X270261080Y-173990000D03*
X283458920Y-173990000D03*
D11*
X318810640Y-113649760D03*
X323809360Y-113649760D03*
X318810640Y-128150620D03*
X323809360Y-128150620D03*
X321310000Y-128150620D03*
D12*
X314711080Y-120650000D03*
X327908920Y-120650000D03*
D11*
X356910640Y-113649760D03*
X361909360Y-113649760D03*
X356910640Y-128150620D03*
X361909360Y-128150620D03*
X359410000Y-128150620D03*
D12*
X352811080Y-120650000D03*
X366008920Y-120650000D03*
D11*
X413933640Y-113522760D03*
X418932360Y-113522760D03*
X413933640Y-128023620D03*
X418932360Y-128023620D03*
X416433000Y-128023620D03*
D12*
X409834080Y-120523000D03*
X423031920Y-120523000D03*
D11*
X433110640Y-113649760D03*
X438109360Y-113649760D03*
X433110640Y-128150620D03*
X438109360Y-128150620D03*
X435610000Y-128150620D03*
D12*
X429011080Y-120650000D03*
X442208920Y-120650000D03*
D11*
X337860640Y-113649760D03*
X342859360Y-113649760D03*
X337860640Y-128150620D03*
X342859360Y-128150620D03*
X340360000Y-128150620D03*
D12*
X333761080Y-120650000D03*
X346958920Y-120650000D03*
D11*
X375960640Y-113649760D03*
X380959360Y-113649760D03*
X375960640Y-128150620D03*
X380959360Y-128150620D03*
X378460000Y-128150620D03*
D12*
X371861080Y-120650000D03*
X385058920Y-120650000D03*
D11*
X299760640Y-113649760D03*
X304759360Y-113649760D03*
X299760640Y-128150620D03*
X304759360Y-128150620D03*
X302260000Y-128150620D03*
D12*
X295661080Y-120650000D03*
X308858920Y-120650000D03*
D11*
X395010640Y-113649760D03*
X400009360Y-113649760D03*
X395010640Y-128150620D03*
X400009360Y-128150620D03*
X397510000Y-128150620D03*
D12*
X390911080Y-120650000D03*
X404108920Y-120650000D03*
D26*
X259842000Y-128651000D03*
D27*
X259842000Y-131191000D03*
X259842000Y-133731000D03*
X259842000Y-136271000D03*
X259842000Y-138811000D03*
X259842000Y-141351000D03*
D26*
X445039824Y-168114852D03*
D27*
X445039824Y-170654852D03*
X445039824Y-173194852D03*
X445039824Y-175734852D03*
X445039824Y-178274852D03*
X445039824Y-180814852D03*
D26*
X457866824Y-168114852D03*
D27*
X457866824Y-170654852D03*
X457866824Y-173194852D03*
X457866824Y-175734852D03*
X457866824Y-178274852D03*
X457866824Y-180814852D03*
D26*
X444489354Y-131973752D03*
D27*
X444489354Y-134513752D03*
X444489354Y-137053752D03*
X444489354Y-139593752D03*
X444489354Y-142133752D03*
X444489354Y-144673752D03*
D26*
X457824354Y-131973752D03*
D27*
X457824354Y-134513752D03*
X457824354Y-137053752D03*
X457824354Y-139593752D03*
X457824354Y-142133752D03*
X457824354Y-144673752D03*
D26*
X281432000Y-128524000D03*
D27*
X281432000Y-131064000D03*
X281432000Y-133604000D03*
X281432000Y-136144000D03*
X281432000Y-138684000D03*
X281432000Y-141224000D03*
D26*
X294259000Y-128524000D03*
D27*
X294259000Y-131064000D03*
X294259000Y-133604000D03*
X294259000Y-136144000D03*
X294259000Y-138684000D03*
X294259000Y-141224000D03*
D26*
X243713000Y-159512000D03*
D27*
X243713000Y-162052000D03*
X243713000Y-164592000D03*
X243713000Y-167132000D03*
X243713000Y-169672000D03*
X243713000Y-172212000D03*
D26*
X256921000Y-159639000D03*
D27*
X256921000Y-162179000D03*
X256921000Y-164719000D03*
X256921000Y-167259000D03*
X256921000Y-169799000D03*
X256921000Y-172339000D03*
D26*
X92075000Y-123698000D03*
D27*
X92075000Y-126238000D03*
X92075000Y-128778000D03*
X92075000Y-131318000D03*
X92075000Y-133858000D03*
X92075000Y-136398000D03*
D26*
X272542000Y-128651000D03*
D27*
X272542000Y-131191000D03*
X272542000Y-133731000D03*
X272542000Y-136271000D03*
X272542000Y-138811000D03*
X272542000Y-141351000D03*
D26*
X104902000Y-123698000D03*
D27*
X104902000Y-126238000D03*
X104902000Y-128778000D03*
X104902000Y-131318000D03*
X104902000Y-133858000D03*
X104902000Y-136398000D03*
D28*
X95889000Y-152146000D03*
X98929000Y-152146000D03*
X98929000Y-154686000D03*
X95889000Y-154686000D03*
D29*
X95889000Y-162306000D03*
D28*
X98929000Y-162306000D03*
X95889000Y-159766000D03*
X98929000Y-159766000D03*
X95889000Y-157226000D03*
X98929000Y-157226000D03*
X96016000Y-174244000D03*
X99056000Y-174244000D03*
X99056000Y-176784000D03*
X96016000Y-176784000D03*
D29*
X96016000Y-184404000D03*
D28*
X99056000Y-184404000D03*
X96016000Y-181864000D03*
X99056000Y-181864000D03*
X96016000Y-179324000D03*
X99056000Y-179324000D03*
D30*
X458470000Y-158750000D03*
X458470000Y-194310000D03*
X458470000Y-115570000D03*
X280670000Y-115570000D03*
X273050000Y-115570000D03*
X308610000Y-194310000D03*
X300990000Y-194310000D03*
X44450000Y-194310000D03*
X44450000Y-158750000D03*
X44450000Y-115570000D03*
X44450000Y-80010000D03*
D13*
X268224000Y-194310000D03*
X270764000Y-194310000D03*
X273304000Y-194310000D03*
X275844000Y-194310000D03*
X278384000Y-194310000D03*
X280924000Y-194310000D03*
X283464000Y-194310000D03*
X286004000Y-194310000D03*
X286004000Y-186690000D03*
X283464000Y-186690000D03*
X280924000Y-186690000D03*
X278384000Y-186690000D03*
X275844000Y-186690000D03*
X273304000Y-186690000D03*
X270764000Y-186690000D03*
X268224000Y-186690000D03*
X254381000Y-177292000D03*
X254381000Y-174752000D03*
X254381000Y-172212000D03*
X254381000Y-169672000D03*
X254381000Y-167132000D03*
X254381000Y-164592000D03*
X254381000Y-162052000D03*
X254381000Y-159512000D03*
X246761000Y-159512000D03*
X246761000Y-162052000D03*
X246761000Y-164592000D03*
X246761000Y-167132000D03*
X246761000Y-169672000D03*
X246761000Y-172212000D03*
X246761000Y-174752000D03*
X246761000Y-177292000D03*
X270002000Y-146304000D03*
X270002000Y-143764000D03*
X270002000Y-141224000D03*
X270002000Y-138684000D03*
X270002000Y-136144000D03*
X270002000Y-133604000D03*
X270002000Y-131064000D03*
X270002000Y-128524000D03*
X262382000Y-128524000D03*
X262382000Y-131064000D03*
X262382000Y-133604000D03*
X262382000Y-136144000D03*
X262382000Y-138684000D03*
X262382000Y-141224000D03*
X262382000Y-143764000D03*
X262382000Y-146304000D03*
X291592000Y-146304000D03*
X291592000Y-143764000D03*
X291592000Y-141224000D03*
X291592000Y-138684000D03*
X291592000Y-136144000D03*
X291592000Y-133604000D03*
X291592000Y-131064000D03*
X291592000Y-128524000D03*
X283972000Y-128524000D03*
X283972000Y-131064000D03*
X283972000Y-133604000D03*
X283972000Y-136144000D03*
X283972000Y-138684000D03*
X283972000Y-141224000D03*
X283972000Y-143764000D03*
X283972000Y-146304000D03*
X454838194Y-149876812D03*
X454838194Y-147336812D03*
X454838194Y-144796812D03*
X454838194Y-142256812D03*
X454838194Y-139716812D03*
X454838194Y-137176812D03*
X454838194Y-134636812D03*
X454838194Y-132096812D03*
X447218194Y-132096812D03*
X447218194Y-134636812D03*
X447218194Y-137176812D03*
X447218194Y-139716812D03*
X447218194Y-142256812D03*
X447218194Y-144796812D03*
X447218194Y-147336812D03*
X447218194Y-149876812D03*
X455265864Y-185993912D03*
X455265864Y-183453912D03*
X455265864Y-180913912D03*
X455265864Y-178373912D03*
X455265864Y-175833912D03*
X455265864Y-173293912D03*
X455265864Y-170753912D03*
X455265864Y-168213912D03*
X447645864Y-168213912D03*
X447645864Y-170753912D03*
X447645864Y-173293912D03*
X447645864Y-175833912D03*
X447645864Y-178373912D03*
X447645864Y-180913912D03*
X447645864Y-183453912D03*
X447645864Y-185993912D03*
X292608000Y-168529000D03*
X292608000Y-171069000D03*
X292608000Y-173609000D03*
X292608000Y-176149000D03*
X292608000Y-178689000D03*
X292608000Y-181229000D03*
X292608000Y-183769000D03*
X292608000Y-186309000D03*
X300228000Y-186309000D03*
X300228000Y-183769000D03*
X300228000Y-181229000D03*
X300228000Y-178689000D03*
X300228000Y-176149000D03*
X300228000Y-173609000D03*
X300228000Y-171069000D03*
X300228000Y-168529000D03*
M02*
