M48
;DRILL file {KiCad 4.0.2-stable} date 20/09/2016 17:33:05
;FORMAT={-:-/ absolute / metric / decimal}
FMAT,2
METRIC,TZ
T1C0.300
T2C0.610
T3C0.762
T4C0.800
T5C0.800
T6C0.813
T7C0.998
T8C1.000
T9C1.001
T10C1.016
T11C2.601
T12C3.200
%
G90
G05
M71
T1
X57.311Y-129.942
X71.937Y-164.836
X72.272Y-149.815
X75.184Y-164.211
X75.438Y-164.983
X82.838Y-141.137
X86.313Y-177.175
X88.708Y-146.44
X90.824Y-157.101
X91.948Y-174.498
X92.71Y-146.558
X92.732Y-165.104
X94.421Y-164.149
X95.377Y-165.227
X104.431Y-175.558
X106.553Y-149.479
X107.693Y-155.953
X107.862Y-120.611
X108.712Y-154.051
X113.164Y-150.245
X118.569Y-191.965
X152.146Y-129.921
X161.681Y-129.413
X173.772Y-129.946
X179.848Y-130.882
X180.773Y-129.028
X188.331Y-132.658
X189.131Y-132.658
X189.47Y-133.383
X193.247Y-132.06
X194.296Y-147.003
X194.428Y-132.086
X195.503Y-148.677
X210.616Y-148.658
X213.329Y-150.801
X214.574Y-150.801
X232.68Y-150.669
X234.368Y-148.996
X240.335Y-178.03
X240.758Y-166.662
X241.935Y-123.063
X242.179Y-147.411
X242.56Y-178.218
X248.312Y-190.151
X249.495Y-150.963
X250.23Y-147.873
X251.136Y-148.172
X253.764Y-179.582
X254.13Y-189.178
X256.263Y-156.499
X256.977Y-123.56
X259.594Y-179.071
X263.906Y-152.446
X265.111Y-124.185
X267.114Y-162.426
X268.097Y-128.651
X269.781Y-189.79
X275.59Y-170.18
X276.217Y-129.675
X279.951Y-170.805
X289.941Y-128.143
X293.64Y-151.68
X294.513Y-149.86
X295.624Y-185.828
X296.789Y-176.932
X298.069Y-160.172
X299.72Y-159.24
X300.822Y-151.266
X308.483Y-135.382
X318.459Y-136.281
X336.519Y-174.704
X340.741Y-122.174
X351.167Y-184.394
X357.736Y-122.151
X359.256Y-122.152
X365.445Y-132.197
X366.873Y-132.197
X424.815Y-158.722
X425.115Y-144.671
X449.473Y-157.48
X451.231Y-158.75
X452.12Y-131.191
X452.501Y-153.035
X452.638Y-154.813
X456.819Y-154.305
X459.242Y-144.654
T2
X52.07Y-88.9
X52.07Y-96.52
X52.07Y-102.87
X52.07Y-110.49
X52.07Y-116.84
X52.07Y-124.46
X52.07Y-130.81
X52.07Y-138.43
X52.07Y-154.94
X52.07Y-162.56
X52.07Y-168.91
X52.07Y-176.53
X52.07Y-182.88
X52.07Y-190.5
X72.359Y-132.059
X72.359Y-139.679
X74.93Y-88.9
X74.93Y-96.52
X74.93Y-102.87
X74.93Y-110.49
X74.93Y-116.84
X74.93Y-124.46
X74.93Y-154.94
X74.93Y-162.56
X74.93Y-169.059
X74.93Y-176.679
X74.93Y-182.88
X74.93Y-190.5
X114.3Y-170.18
X114.3Y-193.04
X114.335Y-147.32
X121.92Y-170.18
X121.92Y-193.04
X121.955Y-147.32
X133.35Y-147.32
X133.35Y-170.18
X133.35Y-193.04
X140.97Y-147.32
X140.97Y-170.18
X140.97Y-193.04
X151.13Y-170.18
X152.4Y-147.32
X152.4Y-193.04
X158.75Y-170.18
X160.02Y-147.32
X160.02Y-193.04
X171.45Y-147.32
X171.45Y-170.18
X171.45Y-193.04
X179.07Y-147.32
X179.07Y-170.18
X179.07Y-193.04
X190.5Y-147.32
X190.5Y-170.18
X190.5Y-193.04
X198.12Y-147.32
X198.12Y-170.18
X198.12Y-193.04
X209.55Y-147.32
X209.55Y-170.18
X209.55Y-193.04
X217.17Y-147.32
X217.17Y-170.18
X217.17Y-193.04
X228.6Y-147.32
X228.6Y-170.18
X228.6Y-193.04
X236.22Y-147.32
X236.22Y-170.18
X236.22Y-193.04
X247.65Y-147.32
X255.27Y-147.32
X298.45Y-147.32
X306.07Y-147.32
X317.5Y-147.32
X317.5Y-170.18
X317.5Y-193.04
X325.12Y-147.32
X325.12Y-170.18
X325.12Y-193.04
X336.55Y-147.32
X336.55Y-170.18
X336.55Y-193.04
X344.17Y-147.32
X344.17Y-170.18
X344.17Y-193.04
X355.6Y-147.32
X355.6Y-170.18
X355.6Y-193.04
X363.22Y-147.32
X363.22Y-170.18
X363.22Y-193.04
X374.65Y-147.32
X374.65Y-170.18
X374.65Y-193.04
X382.27Y-147.32
X382.27Y-170.18
X382.27Y-193.04
X393.7Y-147.32
X393.7Y-170.18
X393.7Y-193.04
X401.32Y-147.32
X401.32Y-170.18
X401.32Y-193.04
X412.75Y-147.32
X412.75Y-170.18
X412.75Y-193.04
X420.37Y-147.32
X420.37Y-170.18
X420.37Y-193.04
X431.8Y-147.32
X431.8Y-193.04
X431.835Y-170.18
X439.42Y-147.32
X439.42Y-193.04
X439.455Y-170.18
T3
X54.69Y-88.964
X54.69Y-96.456
X54.69Y-102.934
X54.69Y-110.426
X54.69Y-116.904
X54.69Y-124.396
X54.69Y-130.874
X54.69Y-138.366
X54.69Y-155.004
X54.69Y-162.496
X54.69Y-168.974
X54.69Y-176.466
X54.69Y-182.944
X54.69Y-190.436
X56.69Y-90.964
X56.69Y-94.456
X56.69Y-104.934
X56.69Y-108.426
X56.69Y-118.904
X56.69Y-122.396
X56.69Y-132.874
X56.69Y-136.366
X56.69Y-157.004
X56.69Y-160.496
X56.69Y-170.974
X56.69Y-174.466
X56.69Y-184.944
X56.69Y-188.436
X62.69Y-90.964
X62.69Y-94.456
X62.69Y-104.934
X62.69Y-108.426
X62.69Y-118.904
X62.69Y-122.396
X62.69Y-132.874
X62.69Y-136.366
X62.69Y-157.004
X62.69Y-160.496
X62.69Y-170.974
X62.69Y-174.466
X62.69Y-184.944
X62.69Y-188.436
X64.69Y-88.964
X64.69Y-96.456
X64.69Y-102.934
X64.69Y-110.426
X64.69Y-116.904
X64.69Y-124.396
X64.69Y-130.874
X64.69Y-138.366
X64.69Y-155.004
X64.69Y-162.496
X64.69Y-168.974
X64.69Y-176.466
X64.69Y-182.944
X64.69Y-190.436
X77.55Y-88.964
X77.55Y-96.456
X77.55Y-102.934
X77.55Y-110.426
X77.55Y-116.904
X77.55Y-124.396
X77.55Y-155.004
X77.55Y-162.496
X77.55Y-168.974
X77.55Y-176.466
X77.55Y-182.944
X77.55Y-190.436
X77.598Y-130.877
X77.598Y-138.369
X79.55Y-90.964
X79.55Y-94.456
X79.55Y-104.934
X79.55Y-108.426
X79.55Y-118.904
X79.55Y-122.396
X79.55Y-157.004
X79.55Y-160.496
X79.55Y-170.974
X79.55Y-174.466
X79.55Y-184.944
X79.55Y-188.436
X79.598Y-132.877
X79.598Y-136.369
X85.55Y-90.964
X85.55Y-94.456
X85.55Y-104.934
X85.55Y-108.426
X85.55Y-118.904
X85.55Y-122.396
X85.55Y-157.004
X85.55Y-160.496
X85.55Y-170.974
X85.55Y-174.466
X85.55Y-184.944
X85.55Y-188.436
X85.598Y-132.877
X85.598Y-136.369
X87.55Y-88.964
X87.55Y-96.456
X87.55Y-102.934
X87.55Y-110.426
X87.55Y-116.904
X87.55Y-124.396
X87.55Y-155.004
X87.55Y-162.496
X87.55Y-168.974
X87.55Y-176.466
X87.55Y-182.944
X87.55Y-190.436
X87.598Y-130.877
X87.598Y-138.369
X113.11Y-137.224
X113.11Y-144.716
X113.11Y-160.084
X113.11Y-167.576
X113.11Y-182.944
X113.11Y-190.436
X115.11Y-139.224
X115.11Y-142.716
X115.11Y-162.084
X115.11Y-165.576
X115.11Y-184.944
X115.11Y-188.436
X121.11Y-139.224
X121.11Y-142.716
X121.11Y-162.084
X121.11Y-165.576
X121.11Y-184.944
X121.11Y-188.436
X123.11Y-137.224
X123.11Y-144.716
X123.11Y-160.084
X123.11Y-167.576
X123.11Y-182.944
X123.11Y-190.436
X132.16Y-137.224
X132.16Y-144.716
X132.16Y-160.084
X132.16Y-167.576
X132.16Y-182.944
X132.16Y-190.436
X134.16Y-139.224
X134.16Y-142.716
X134.16Y-162.084
X134.16Y-165.576
X134.16Y-184.944
X134.16Y-188.436
X140.16Y-139.224
X140.16Y-142.716
X140.16Y-162.084
X140.16Y-165.576
X140.16Y-184.944
X140.16Y-188.436
X142.16Y-137.224
X142.16Y-144.716
X142.16Y-160.084
X142.16Y-167.576
X142.16Y-182.944
X142.16Y-190.436
X151.21Y-137.224
X151.21Y-144.716
X151.21Y-160.084
X151.21Y-167.576
X151.21Y-182.944
X151.21Y-190.436
X153.21Y-139.224
X153.21Y-142.716
X153.21Y-162.084
X153.21Y-165.576
X153.21Y-184.944
X153.21Y-188.436
X159.21Y-139.224
X159.21Y-142.716
X159.21Y-162.084
X159.21Y-165.576
X159.21Y-184.944
X159.21Y-188.436
X161.21Y-137.224
X161.21Y-144.716
X161.21Y-160.084
X161.21Y-167.576
X161.21Y-182.944
X161.21Y-190.436
X170.26Y-137.224
X170.26Y-144.716
X170.26Y-160.084
X170.26Y-167.576
X170.26Y-182.944
X170.26Y-190.436
X172.26Y-139.224
X172.26Y-142.716
X172.26Y-162.084
X172.26Y-165.576
X172.26Y-184.944
X172.26Y-188.436
X178.26Y-139.224
X178.26Y-142.716
X178.26Y-162.084
X178.26Y-165.576
X178.26Y-184.944
X178.26Y-188.436
X180.26Y-137.224
X180.26Y-144.716
X180.26Y-160.084
X180.26Y-167.576
X180.26Y-182.944
X180.26Y-190.436
X189.31Y-137.224
X189.31Y-144.716
X189.31Y-160.084
X189.31Y-167.576
X189.31Y-182.944
X189.31Y-190.436
X191.31Y-139.224
X191.31Y-142.716
X191.31Y-162.084
X191.31Y-165.576
X191.31Y-184.944
X191.31Y-188.436
X197.31Y-139.224
X197.31Y-142.716
X197.31Y-162.084
X197.31Y-165.576
X197.31Y-184.944
X197.31Y-188.436
X199.31Y-137.224
X199.31Y-144.716
X199.31Y-160.084
X199.31Y-167.576
X199.31Y-182.944
X199.31Y-190.436
X208.36Y-137.224
X208.36Y-144.716
X208.36Y-160.084
X208.36Y-167.576
X208.36Y-182.944
X208.36Y-190.436
X210.36Y-139.224
X210.36Y-142.716
X210.36Y-162.084
X210.36Y-165.576
X210.36Y-184.944
X210.36Y-188.436
X216.36Y-139.224
X216.36Y-142.716
X216.36Y-162.084
X216.36Y-165.576
X216.36Y-184.944
X216.36Y-188.436
X218.36Y-137.224
X218.36Y-144.716
X218.36Y-160.084
X218.36Y-167.576
X218.36Y-182.944
X218.36Y-190.436
X227.41Y-137.224
X227.41Y-144.716
X227.41Y-160.084
X227.41Y-167.576
X227.41Y-182.944
X227.41Y-190.436
X229.41Y-139.224
X229.41Y-142.716
X229.41Y-162.084
X229.41Y-165.576
X229.41Y-184.944
X229.41Y-188.436
X235.41Y-139.224
X235.41Y-142.716
X235.41Y-162.084
X235.41Y-165.576
X235.41Y-184.944
X235.41Y-188.436
X237.41Y-137.224
X237.41Y-144.716
X237.41Y-160.084
X237.41Y-167.576
X237.41Y-182.944
X237.41Y-190.436
X246.46Y-137.224
X246.46Y-144.716
X248.46Y-139.224
X248.46Y-142.716
X254.46Y-139.224
X254.46Y-142.716
X256.46Y-137.224
X256.46Y-144.716
X297.26Y-137.224
X297.26Y-144.716
X299.26Y-139.224
X299.26Y-142.716
X305.26Y-139.224
X305.26Y-142.716
X307.26Y-137.224
X307.26Y-144.716
X316.31Y-137.224
X316.31Y-144.716
X316.31Y-160.084
X316.31Y-167.576
X316.31Y-182.944
X316.31Y-190.436
X318.31Y-139.224
X318.31Y-142.716
X318.31Y-162.084
X318.31Y-165.576
X318.31Y-184.944
X318.31Y-188.436
X324.31Y-139.224
X324.31Y-142.716
X324.31Y-162.084
X324.31Y-165.576
X324.31Y-184.944
X324.31Y-188.436
X326.31Y-137.224
X326.31Y-144.716
X326.31Y-160.084
X326.31Y-167.576
X326.31Y-182.944
X326.31Y-190.436
X335.36Y-137.224
X335.36Y-144.716
X335.36Y-160.084
X335.36Y-167.576
X335.36Y-182.944
X335.36Y-190.436
X337.36Y-139.224
X337.36Y-142.716
X337.36Y-162.084
X337.36Y-165.576
X337.36Y-184.944
X337.36Y-188.436
X343.36Y-139.224
X343.36Y-142.716
X343.36Y-162.084
X343.36Y-165.576
X343.36Y-184.944
X343.36Y-188.436
X345.36Y-137.224
X345.36Y-144.716
X345.36Y-160.084
X345.36Y-167.576
X345.36Y-182.944
X345.36Y-190.436
X354.41Y-137.224
X354.41Y-144.716
X354.41Y-160.084
X354.41Y-167.576
X354.41Y-182.944
X354.41Y-190.436
X356.41Y-139.224
X356.41Y-142.716
X356.41Y-162.084
X356.41Y-165.576
X356.41Y-184.944
X356.41Y-188.436
X362.41Y-139.224
X362.41Y-142.716
X362.41Y-162.084
X362.41Y-165.576
X362.41Y-184.944
X362.41Y-188.436
X364.41Y-137.224
X364.41Y-144.716
X364.41Y-160.084
X364.41Y-167.576
X364.41Y-182.944
X364.41Y-190.436
X373.46Y-137.224
X373.46Y-144.716
X373.46Y-160.084
X373.46Y-167.576
X373.46Y-182.944
X373.46Y-190.436
X375.46Y-139.224
X375.46Y-142.716
X375.46Y-162.084
X375.46Y-165.576
X375.46Y-184.944
X375.46Y-188.436
X381.46Y-139.224
X381.46Y-142.716
X381.46Y-162.084
X381.46Y-165.576
X381.46Y-184.944
X381.46Y-188.436
X383.46Y-137.224
X383.46Y-144.716
X383.46Y-160.084
X383.46Y-167.576
X383.46Y-182.944
X383.46Y-190.436
X392.51Y-137.224
X392.51Y-144.716
X392.51Y-160.084
X392.51Y-167.576
X392.51Y-182.944
X392.51Y-190.436
X394.51Y-139.224
X394.51Y-142.716
X394.51Y-162.084
X394.51Y-165.576
X394.51Y-184.944
X394.51Y-188.436
X400.51Y-139.224
X400.51Y-142.716
X400.51Y-162.084
X400.51Y-165.576
X400.51Y-184.944
X400.51Y-188.436
X402.51Y-137.224
X402.51Y-144.716
X402.51Y-160.084
X402.51Y-167.576
X402.51Y-182.944
X402.51Y-190.436
X411.56Y-137.224
X411.56Y-144.716
X411.56Y-160.084
X411.56Y-167.576
X411.56Y-182.944
X411.56Y-190.436
X413.56Y-139.224
X413.56Y-142.716
X413.56Y-162.084
X413.56Y-165.576
X413.56Y-184.944
X413.56Y-188.436
X419.56Y-139.224
X419.56Y-142.716
X419.56Y-162.084
X419.56Y-165.576
X419.56Y-184.944
X419.56Y-188.436
X421.56Y-137.224
X421.56Y-144.716
X421.56Y-160.084
X421.56Y-167.576
X421.56Y-182.944
X421.56Y-190.436
X430.61Y-137.224
X430.61Y-144.716
X430.61Y-160.084
X430.61Y-167.576
X430.61Y-182.944
X430.61Y-190.436
X432.61Y-139.224
X432.61Y-142.716
X432.61Y-162.084
X432.61Y-165.576
X432.61Y-184.944
X432.61Y-188.436
X438.61Y-139.224
X438.61Y-142.716
X438.61Y-162.084
X438.61Y-165.576
X438.61Y-184.944
X438.61Y-188.436
X440.61Y-137.224
X440.61Y-144.716
X440.61Y-160.084
X440.61Y-167.576
X440.61Y-182.944
X440.61Y-190.436
T4
X94.615Y-123.698
X94.615Y-126.238
X94.615Y-128.778
X94.615Y-131.318
X94.615Y-133.858
X94.615Y-136.398
X94.615Y-138.938
X94.615Y-141.478
X98.679Y-138.263
X102.235Y-123.698
X102.235Y-126.238
X102.235Y-128.778
X102.235Y-131.318
X102.235Y-133.858
X102.235Y-136.398
X102.235Y-138.938
X102.235Y-141.478
X246.761Y-159.512
X246.761Y-162.052
X246.761Y-164.592
X246.761Y-167.132
X246.761Y-169.672
X246.761Y-172.212
X246.761Y-174.752
X246.761Y-177.292
X249.803Y-177.338
X254.381Y-159.512
X254.381Y-162.052
X254.381Y-164.592
X254.381Y-167.132
X254.381Y-169.672
X254.381Y-172.212
X254.381Y-174.752
X254.381Y-177.292
X262.382Y-128.524
X262.382Y-131.064
X262.382Y-133.604
X262.382Y-136.144
X262.382Y-138.684
X262.382Y-141.224
X262.382Y-143.764
X262.382Y-146.304
X265.684Y-144.613
X268.224Y-184.023
X268.224Y-186.69
X268.224Y-194.31
X270.002Y-128.524
X270.002Y-131.064
X270.002Y-133.604
X270.002Y-136.144
X270.002Y-138.684
X270.002Y-141.224
X270.002Y-143.764
X270.002Y-146.304
X270.764Y-186.69
X270.764Y-194.31
X273.304Y-186.69
X273.304Y-194.31
X275.844Y-186.69
X275.844Y-194.31
X278.384Y-186.69
X278.384Y-194.31
X280.924Y-186.69
X280.924Y-194.31
X283.464Y-186.69
X283.464Y-194.31
X283.972Y-128.524
X283.972Y-131.064
X283.972Y-133.604
X283.972Y-136.144
X283.972Y-138.684
X283.972Y-141.224
X283.972Y-143.764
X283.972Y-146.304
X286.004Y-186.69
X286.004Y-194.31
X287.655Y-144.105
X291.592Y-128.524
X291.592Y-131.064
X291.592Y-133.604
X291.592Y-136.144
X291.592Y-138.684
X291.592Y-141.224
X291.592Y-143.764
X291.592Y-146.304
X292.608Y-168.529
X292.608Y-171.069
X292.608Y-173.609
X292.608Y-176.149
X292.608Y-178.689
X292.608Y-181.229
X292.608Y-183.769
X292.608Y-186.309
X296.545Y-168.315
X298.228Y-164.592
X300.228Y-164.592
X300.228Y-168.529
X300.228Y-171.069
X300.228Y-173.609
X300.228Y-176.149
X300.228Y-178.689
X300.228Y-181.229
X300.228Y-183.769
X300.228Y-186.309
X447.218Y-132.097
X447.218Y-134.637
X447.218Y-137.177
X447.218Y-139.717
X447.218Y-142.257
X447.218Y-144.797
X447.218Y-147.337
X447.218Y-149.877
X447.646Y-168.214
X447.646Y-170.754
X447.646Y-173.294
X447.646Y-175.834
X447.646Y-178.374
X447.646Y-180.914
X447.646Y-183.454
X447.646Y-185.994
X450.723Y-184.023
X451.358Y-147.701
X454.838Y-132.097
X454.838Y-134.637
X454.838Y-137.177
X454.838Y-139.717
X454.838Y-142.257
X454.838Y-144.797
X454.838Y-147.337
X454.838Y-149.877
X455.266Y-168.214
X455.266Y-170.754
X455.266Y-173.294
X455.266Y-175.834
X455.266Y-178.374
X455.266Y-180.914
X455.266Y-183.454
X455.266Y-185.994
T5
X98.679Y-135.763
X249.803Y-174.838
X265.684Y-142.113
X270.724Y-184.023
X287.655Y-141.605
X296.545Y-170.815
X450.723Y-181.523
X451.358Y-145.201
T6
X92.075Y-123.698
X92.075Y-126.238
X92.075Y-128.778
X92.075Y-131.318
X92.075Y-133.858
X92.075Y-136.398
X104.902Y-123.698
X104.902Y-126.238
X104.902Y-128.778
X104.902Y-131.318
X104.902Y-133.858
X104.902Y-136.398
X115.57Y-133.985
X118.11Y-133.985
X120.65Y-133.985
X134.62Y-133.985
X137.16Y-133.985
X139.7Y-133.985
X153.67Y-133.985
X156.21Y-133.985
X158.75Y-133.985
X172.72Y-133.985
X175.26Y-133.985
X177.8Y-133.985
X191.77Y-133.985
X194.31Y-133.985
X196.85Y-133.985
X210.82Y-133.985
X213.36Y-133.985
X215.9Y-133.985
X229.87Y-133.985
X232.41Y-133.985
X234.95Y-133.985
X243.713Y-159.512
X243.713Y-162.052
X243.713Y-164.592
X243.713Y-167.132
X243.713Y-169.672
X243.713Y-172.212
X248.92Y-133.985
X251.46Y-133.985
X254.Y-133.985
X256.921Y-159.639
X256.921Y-162.179
X256.921Y-164.719
X256.921Y-167.259
X256.921Y-169.799
X256.921Y-172.339
X259.842Y-128.651
X259.842Y-131.191
X259.842Y-133.731
X259.842Y-136.271
X259.842Y-138.811
X259.842Y-141.351
X272.542Y-128.651
X272.542Y-131.191
X272.542Y-133.731
X272.542Y-136.271
X272.542Y-138.811
X272.542Y-141.351
X281.432Y-128.524
X281.432Y-131.064
X281.432Y-133.604
X281.432Y-136.144
X281.432Y-138.684
X281.432Y-141.224
X294.259Y-128.524
X294.259Y-131.064
X294.259Y-133.604
X294.259Y-136.144
X294.259Y-138.684
X294.259Y-141.224
X299.72Y-133.985
X302.26Y-133.985
X304.8Y-133.985
X318.77Y-133.985
X321.31Y-133.985
X323.85Y-133.985
X337.82Y-133.985
X340.36Y-133.985
X342.9Y-133.985
X356.87Y-133.985
X359.41Y-133.985
X361.95Y-133.985
X375.92Y-133.985
X378.46Y-133.985
X381.Y-133.985
X394.97Y-133.985
X397.51Y-133.985
X400.05Y-133.985
X414.02Y-133.985
X416.56Y-133.985
X419.1Y-133.985
X433.07Y-133.985
X435.61Y-133.985
X438.15Y-133.985
X444.489Y-131.974
X444.489Y-134.514
X444.489Y-137.054
X444.489Y-139.594
X444.489Y-142.134
X444.489Y-144.674
X445.04Y-168.115
X445.04Y-170.655
X445.04Y-173.195
X445.04Y-175.735
X445.04Y-178.275
X445.04Y-180.815
X457.824Y-131.974
X457.824Y-134.514
X457.824Y-137.054
X457.824Y-139.594
X457.824Y-142.134
X457.824Y-144.674
X457.867Y-168.115
X457.867Y-170.655
X457.867Y-173.195
X457.867Y-175.735
X457.867Y-178.275
X457.867Y-180.815
T7
X120.609Y-113.65
X139.645Y-113.623
X158.709Y-113.65
X177.759Y-113.65
X196.809Y-113.65
X215.645Y-113.623
X234.909Y-113.65
X253.959Y-113.65
X279.359Y-166.99
X304.759Y-113.65
X323.809Y-113.65
X342.859Y-113.65
X361.909Y-113.65
X380.959Y-113.65
X400.009Y-113.65
X418.932Y-113.523
X438.109Y-113.65
T8
X96.139Y-152.146
X96.139Y-154.686
X96.139Y-157.226
X96.139Y-159.766
X96.139Y-162.306
X96.266Y-174.244
X96.266Y-176.784
X96.266Y-179.324
X96.266Y-181.864
X96.266Y-184.404
X98.679Y-152.146
X98.679Y-154.686
X98.679Y-157.226
X98.679Y-159.766
X98.679Y-162.306
X98.806Y-174.244
X98.806Y-176.784
X98.806Y-179.324
X98.806Y-181.864
X98.806Y-184.404
T9
X55.88Y-85.725
X55.88Y-99.695
X55.88Y-113.665
X55.88Y-127.635
X55.88Y-151.765
X55.88Y-165.735
X55.88Y-179.705
X58.42Y-85.725
X58.42Y-99.695
X58.42Y-113.665
X58.42Y-127.635
X58.42Y-151.765
X58.42Y-165.735
X58.42Y-179.705
X78.74Y-85.623
X78.74Y-99.695
X78.74Y-113.665
X78.74Y-127.635
X78.74Y-151.765
X78.74Y-165.735
X78.74Y-179.705
X81.28Y-85.623
X81.28Y-99.695
X81.28Y-113.665
X81.28Y-127.635
X81.28Y-151.765
X81.28Y-165.735
X81.28Y-179.705
X115.611Y-113.65
X115.611Y-128.151
X116.84Y-156.845
X116.84Y-179.705
X118.11Y-128.151
X119.38Y-156.845
X119.38Y-179.705
X120.609Y-128.151
X134.646Y-113.623
X134.646Y-128.124
X135.89Y-156.845
X135.89Y-179.705
X137.145Y-128.124
X138.43Y-156.845
X138.43Y-179.705
X139.645Y-128.124
X153.711Y-113.65
X153.711Y-128.151
X154.94Y-156.845
X154.94Y-179.705
X156.21Y-128.151
X157.48Y-156.845
X157.48Y-179.705
X158.709Y-128.151
X172.761Y-113.65
X172.761Y-128.151
X173.99Y-156.845
X173.99Y-179.705
X175.26Y-128.151
X176.53Y-156.845
X176.53Y-179.705
X177.759Y-128.151
X191.811Y-113.65
X191.811Y-128.151
X194.31Y-128.151
X196.809Y-128.151
X210.646Y-113.623
X210.646Y-128.124
X213.145Y-128.124
X215.645Y-128.124
X229.911Y-113.65
X229.911Y-128.151
X232.41Y-128.151
X234.909Y-128.151
X243.078Y-181.61
X243.078Y-184.404
X243.078Y-187.198
X243.205Y-189.992
X248.961Y-113.65
X248.961Y-128.151
X250.698Y-181.61
X250.698Y-184.404
X250.698Y-187.198
X250.825Y-189.992
X251.46Y-128.151
X253.959Y-128.151
X274.361Y-166.99
X274.361Y-181.491
X275.59Y-140.97
X276.86Y-181.491
X278.13Y-140.97
X279.359Y-181.491
X282.628Y-155.052
X282.628Y-162.672
X286.128Y-155.052
X286.128Y-162.672
X289.628Y-155.052
X289.628Y-162.672
X293.128Y-155.052
X293.128Y-162.672
X299.761Y-113.65
X299.761Y-128.151
X302.26Y-128.151
X304.759Y-128.151
X318.811Y-113.65
X318.811Y-128.151
X321.31Y-128.151
X323.809Y-128.151
X337.861Y-113.65
X337.861Y-128.151
X340.36Y-128.151
X342.859Y-128.151
X356.911Y-113.65
X356.911Y-128.151
X358.14Y-179.705
X359.41Y-128.151
X360.68Y-179.705
X361.909Y-128.151
X375.961Y-113.65
X375.961Y-128.151
X377.19Y-179.705
X378.46Y-128.151
X379.73Y-179.705
X380.959Y-128.151
X395.011Y-113.65
X395.011Y-128.151
X396.24Y-179.705
X397.51Y-128.151
X398.78Y-179.705
X400.009Y-128.151
X413.934Y-113.523
X413.934Y-128.024
X415.29Y-179.705
X416.433Y-128.024
X417.83Y-179.705
X418.932Y-128.024
X433.111Y-113.65
X433.111Y-128.151
X434.34Y-179.705
X435.61Y-128.151
X436.88Y-179.705
X438.109Y-128.151
T10
X264.033Y-168.656
X264.033Y-171.196
X264.033Y-173.736
T11
X111.511Y-120.65
X124.709Y-120.65
X130.546Y-120.623
X143.744Y-120.623
X149.611Y-120.65
X162.809Y-120.65
X168.661Y-120.65
X181.859Y-120.65
X187.711Y-120.65
X200.909Y-120.65
X206.546Y-120.623
X219.744Y-120.623
X225.811Y-120.65
X239.009Y-120.65
X244.861Y-120.65
X258.059Y-120.65
X270.261Y-173.99
X283.459Y-173.99
X295.661Y-120.65
X308.859Y-120.65
X314.711Y-120.65
X327.909Y-120.65
X333.761Y-120.65
X346.959Y-120.65
X352.811Y-120.65
X366.009Y-120.65
X371.861Y-120.65
X385.059Y-120.65
X390.911Y-120.65
X404.109Y-120.65
X409.834Y-120.523
X423.032Y-120.523
X429.011Y-120.65
X442.209Y-120.65
T12
X44.45Y-80.01
X44.45Y-115.57
X44.45Y-158.75
X44.45Y-194.31
X273.05Y-115.57
X280.67Y-115.57
X300.99Y-194.31
X308.61Y-194.31
X458.47Y-115.57
X458.47Y-158.75
X458.47Y-194.31
T0
M30
