G04 #@! TF.GenerationSoftware,KiCad,Pcbnew,(7.0.0)*
G04 #@! TF.CreationDate,2023-05-18T23:41:24+02:00*
G04 #@! TF.ProjectId,Fad_1,4661645f-312e-46b6-9963-61645f706362,rev?*
G04 #@! TF.SameCoordinates,Original*
G04 #@! TF.FileFunction,Legend,Top*
G04 #@! TF.FilePolarity,Positive*
%FSLAX46Y46*%
G04 Gerber Fmt 4.6, Leading zero omitted, Abs format (unit mm)*
G04 Created by KiCad (PCBNEW (7.0.0)) date 2023-05-18 23:41:24*
%MOMM*%
%LPD*%
G01*
G04 APERTURE LIST*
G04 Aperture macros list*
%AMRoundRect*
0 Rectangle with rounded corners*
0 $1 Rounding radius*
0 $2 $3 $4 $5 $6 $7 $8 $9 X,Y pos of 4 corners*
0 Add a 4 corners polygon primitive as box body*
4,1,4,$2,$3,$4,$5,$6,$7,$8,$9,$2,$3,0*
0 Add four circle primitives for the rounded corners*
1,1,$1+$1,$2,$3*
1,1,$1+$1,$4,$5*
1,1,$1+$1,$6,$7*
1,1,$1+$1,$8,$9*
0 Add four rect primitives between the rounded corners*
20,1,$1+$1,$2,$3,$4,$5,0*
20,1,$1+$1,$4,$5,$6,$7,0*
20,1,$1+$1,$6,$7,$8,$9,0*
20,1,$1+$1,$8,$9,$2,$3,0*%
G04 Aperture macros list end*
%ADD10C,0.150000*%
%ADD11C,4.000000*%
%ADD12C,3.200000*%
%ADD13RoundRect,0.250000X-0.600000X-0.600000X0.600000X-0.600000X0.600000X0.600000X-0.600000X0.600000X0*%
%ADD14C,1.700000*%
G04 APERTURE END LIST*
D10*
X126130000Y-111838095D02*
X126082380Y-111933333D01*
X126082380Y-111933333D02*
X126082380Y-112076190D01*
X126082380Y-112076190D02*
X126130000Y-112219047D01*
X126130000Y-112219047D02*
X126225238Y-112314285D01*
X126225238Y-112314285D02*
X126320476Y-112361904D01*
X126320476Y-112361904D02*
X126510952Y-112409523D01*
X126510952Y-112409523D02*
X126653809Y-112409523D01*
X126653809Y-112409523D02*
X126844285Y-112361904D01*
X126844285Y-112361904D02*
X126939523Y-112314285D01*
X126939523Y-112314285D02*
X127034761Y-112219047D01*
X127034761Y-112219047D02*
X127082380Y-112076190D01*
X127082380Y-112076190D02*
X127082380Y-111980952D01*
X127082380Y-111980952D02*
X127034761Y-111838095D01*
X127034761Y-111838095D02*
X126987142Y-111790476D01*
X126987142Y-111790476D02*
X126653809Y-111790476D01*
X126653809Y-111790476D02*
X126653809Y-111980952D01*
X127082380Y-111361904D02*
X126082380Y-111361904D01*
X126082380Y-111361904D02*
X127082380Y-110790476D01*
X127082380Y-110790476D02*
X126082380Y-110790476D01*
X127082380Y-110314285D02*
X126082380Y-110314285D01*
X126082380Y-110314285D02*
X126082380Y-110076190D01*
X126082380Y-110076190D02*
X126130000Y-109933333D01*
X126130000Y-109933333D02*
X126225238Y-109838095D01*
X126225238Y-109838095D02*
X126320476Y-109790476D01*
X126320476Y-109790476D02*
X126510952Y-109742857D01*
X126510952Y-109742857D02*
X126653809Y-109742857D01*
X126653809Y-109742857D02*
X126844285Y-109790476D01*
X126844285Y-109790476D02*
X126939523Y-109838095D01*
X126939523Y-109838095D02*
X127034761Y-109933333D01*
X127034761Y-109933333D02*
X127082380Y-110076190D01*
X127082380Y-110076190D02*
X127082380Y-110314285D01*
X126330000Y-87338095D02*
X126282380Y-87433333D01*
X126282380Y-87433333D02*
X126282380Y-87576190D01*
X126282380Y-87576190D02*
X126330000Y-87719047D01*
X126330000Y-87719047D02*
X126425238Y-87814285D01*
X126425238Y-87814285D02*
X126520476Y-87861904D01*
X126520476Y-87861904D02*
X126710952Y-87909523D01*
X126710952Y-87909523D02*
X126853809Y-87909523D01*
X126853809Y-87909523D02*
X127044285Y-87861904D01*
X127044285Y-87861904D02*
X127139523Y-87814285D01*
X127139523Y-87814285D02*
X127234761Y-87719047D01*
X127234761Y-87719047D02*
X127282380Y-87576190D01*
X127282380Y-87576190D02*
X127282380Y-87480952D01*
X127282380Y-87480952D02*
X127234761Y-87338095D01*
X127234761Y-87338095D02*
X127187142Y-87290476D01*
X127187142Y-87290476D02*
X126853809Y-87290476D01*
X126853809Y-87290476D02*
X126853809Y-87480952D01*
X127282380Y-86861904D02*
X126282380Y-86861904D01*
X126282380Y-86861904D02*
X127282380Y-86290476D01*
X127282380Y-86290476D02*
X126282380Y-86290476D01*
X127282380Y-85814285D02*
X126282380Y-85814285D01*
X126282380Y-85814285D02*
X126282380Y-85576190D01*
X126282380Y-85576190D02*
X126330000Y-85433333D01*
X126330000Y-85433333D02*
X126425238Y-85338095D01*
X126425238Y-85338095D02*
X126520476Y-85290476D01*
X126520476Y-85290476D02*
X126710952Y-85242857D01*
X126710952Y-85242857D02*
X126853809Y-85242857D01*
X126853809Y-85242857D02*
X127044285Y-85290476D01*
X127044285Y-85290476D02*
X127139523Y-85338095D01*
X127139523Y-85338095D02*
X127234761Y-85433333D01*
X127234761Y-85433333D02*
X127282380Y-85576190D01*
X127282380Y-85576190D02*
X127282380Y-85814285D01*
X151719048Y-43267380D02*
X151719048Y-42267380D01*
X151719048Y-42267380D02*
X152052381Y-42981666D01*
X152052381Y-42981666D02*
X152385714Y-42267380D01*
X152385714Y-42267380D02*
X152385714Y-43267380D01*
X153195238Y-42743571D02*
X153338095Y-42791190D01*
X153338095Y-42791190D02*
X153385714Y-42838809D01*
X153385714Y-42838809D02*
X153433333Y-42934047D01*
X153433333Y-42934047D02*
X153433333Y-43076904D01*
X153433333Y-43076904D02*
X153385714Y-43172142D01*
X153385714Y-43172142D02*
X153338095Y-43219761D01*
X153338095Y-43219761D02*
X153242857Y-43267380D01*
X153242857Y-43267380D02*
X152861905Y-43267380D01*
X152861905Y-43267380D02*
X152861905Y-42267380D01*
X152861905Y-42267380D02*
X153195238Y-42267380D01*
X153195238Y-42267380D02*
X153290476Y-42315000D01*
X153290476Y-42315000D02*
X153338095Y-42362619D01*
X153338095Y-42362619D02*
X153385714Y-42457857D01*
X153385714Y-42457857D02*
X153385714Y-42553095D01*
X153385714Y-42553095D02*
X153338095Y-42648333D01*
X153338095Y-42648333D02*
X153290476Y-42695952D01*
X153290476Y-42695952D02*
X153195238Y-42743571D01*
X153195238Y-42743571D02*
X152861905Y-42743571D01*
X153861905Y-42886428D02*
X154623810Y-42886428D01*
X155433333Y-42743571D02*
X155100000Y-42743571D01*
X155100000Y-43267380D02*
X155100000Y-42267380D01*
X155100000Y-42267380D02*
X155576190Y-42267380D01*
X155909524Y-42981666D02*
X156385714Y-42981666D01*
X155814286Y-43267380D02*
X156147619Y-42267380D01*
X156147619Y-42267380D02*
X156480952Y-43267380D01*
X156814286Y-43267380D02*
X156814286Y-42267380D01*
X156814286Y-42267380D02*
X157052381Y-42267380D01*
X157052381Y-42267380D02*
X157195238Y-42315000D01*
X157195238Y-42315000D02*
X157290476Y-42410238D01*
X157290476Y-42410238D02*
X157338095Y-42505476D01*
X157338095Y-42505476D02*
X157385714Y-42695952D01*
X157385714Y-42695952D02*
X157385714Y-42838809D01*
X157385714Y-42838809D02*
X157338095Y-43029285D01*
X157338095Y-43029285D02*
X157290476Y-43124523D01*
X157290476Y-43124523D02*
X157195238Y-43219761D01*
X157195238Y-43219761D02*
X157052381Y-43267380D01*
X157052381Y-43267380D02*
X156814286Y-43267380D01*
X157766667Y-43219761D02*
X157861905Y-43267380D01*
X157861905Y-43267380D02*
X158052381Y-43267380D01*
X158052381Y-43267380D02*
X158147619Y-43219761D01*
X158147619Y-43219761D02*
X158195238Y-43124523D01*
X158195238Y-43124523D02*
X158195238Y-43076904D01*
X158195238Y-43076904D02*
X158147619Y-42981666D01*
X158147619Y-42981666D02*
X158052381Y-42934047D01*
X158052381Y-42934047D02*
X157909524Y-42934047D01*
X157909524Y-42934047D02*
X157814286Y-42886428D01*
X157814286Y-42886428D02*
X157766667Y-42791190D01*
X157766667Y-42791190D02*
X157766667Y-42743571D01*
X157766667Y-42743571D02*
X157814286Y-42648333D01*
X157814286Y-42648333D02*
X157909524Y-42600714D01*
X157909524Y-42600714D02*
X158052381Y-42600714D01*
X158052381Y-42600714D02*
X158147619Y-42648333D01*
X159147619Y-43267380D02*
X158576191Y-43267380D01*
X158861905Y-43267380D02*
X158861905Y-42267380D01*
X158861905Y-42267380D02*
X158766667Y-42410238D01*
X158766667Y-42410238D02*
X158671429Y-42505476D01*
X158671429Y-42505476D02*
X158576191Y-42553095D01*
X159576191Y-42886428D02*
X160338096Y-42886428D01*
X161242857Y-42600714D02*
X161242857Y-43267380D01*
X161004762Y-42219761D02*
X160766667Y-42934047D01*
X160766667Y-42934047D02*
X161385714Y-42934047D01*
X161671429Y-43267380D02*
X162195238Y-42600714D01*
X161671429Y-42600714D02*
X162195238Y-43267380D01*
X163100000Y-43267380D02*
X162528572Y-43267380D01*
X162814286Y-43267380D02*
X162814286Y-42267380D01*
X162814286Y-42267380D02*
X162719048Y-42410238D01*
X162719048Y-42410238D02*
X162623810Y-42505476D01*
X162623810Y-42505476D02*
X162528572Y-42553095D01*
X164100000Y-43172142D02*
X164052381Y-43219761D01*
X164052381Y-43219761D02*
X163909524Y-43267380D01*
X163909524Y-43267380D02*
X163814286Y-43267380D01*
X163814286Y-43267380D02*
X163671429Y-43219761D01*
X163671429Y-43219761D02*
X163576191Y-43124523D01*
X163576191Y-43124523D02*
X163528572Y-43029285D01*
X163528572Y-43029285D02*
X163480953Y-42838809D01*
X163480953Y-42838809D02*
X163480953Y-42695952D01*
X163480953Y-42695952D02*
X163528572Y-42505476D01*
X163528572Y-42505476D02*
X163576191Y-42410238D01*
X163576191Y-42410238D02*
X163671429Y-42315000D01*
X163671429Y-42315000D02*
X163814286Y-42267380D01*
X163814286Y-42267380D02*
X163909524Y-42267380D01*
X163909524Y-42267380D02*
X164052381Y-42315000D01*
X164052381Y-42315000D02*
X164100000Y-42362619D01*
X164480953Y-43219761D02*
X164623810Y-43267380D01*
X164623810Y-43267380D02*
X164861905Y-43267380D01*
X164861905Y-43267380D02*
X164957143Y-43219761D01*
X164957143Y-43219761D02*
X165004762Y-43172142D01*
X165004762Y-43172142D02*
X165052381Y-43076904D01*
X165052381Y-43076904D02*
X165052381Y-42981666D01*
X165052381Y-42981666D02*
X165004762Y-42886428D01*
X165004762Y-42886428D02*
X164957143Y-42838809D01*
X164957143Y-42838809D02*
X164861905Y-42791190D01*
X164861905Y-42791190D02*
X164671429Y-42743571D01*
X164671429Y-42743571D02*
X164576191Y-42695952D01*
X164576191Y-42695952D02*
X164528572Y-42648333D01*
X164528572Y-42648333D02*
X164480953Y-42553095D01*
X164480953Y-42553095D02*
X164480953Y-42457857D01*
X164480953Y-42457857D02*
X164528572Y-42362619D01*
X164528572Y-42362619D02*
X164576191Y-42315000D01*
X164576191Y-42315000D02*
X164671429Y-42267380D01*
X164671429Y-42267380D02*
X164909524Y-42267380D01*
X164909524Y-42267380D02*
X165052381Y-42315000D01*
X165480953Y-42886428D02*
X166242858Y-42886428D01*
X166576191Y-42267380D02*
X166909524Y-43267380D01*
X166909524Y-43267380D02*
X167242857Y-42267380D01*
X167766667Y-42267380D02*
X167861905Y-42267380D01*
X167861905Y-42267380D02*
X167957143Y-42315000D01*
X167957143Y-42315000D02*
X168004762Y-42362619D01*
X168004762Y-42362619D02*
X168052381Y-42457857D01*
X168052381Y-42457857D02*
X168100000Y-42648333D01*
X168100000Y-42648333D02*
X168100000Y-42886428D01*
X168100000Y-42886428D02*
X168052381Y-43076904D01*
X168052381Y-43076904D02*
X168004762Y-43172142D01*
X168004762Y-43172142D02*
X167957143Y-43219761D01*
X167957143Y-43219761D02*
X167861905Y-43267380D01*
X167861905Y-43267380D02*
X167766667Y-43267380D01*
X167766667Y-43267380D02*
X167671429Y-43219761D01*
X167671429Y-43219761D02*
X167623810Y-43172142D01*
X167623810Y-43172142D02*
X167576191Y-43076904D01*
X167576191Y-43076904D02*
X167528572Y-42886428D01*
X167528572Y-42886428D02*
X167528572Y-42648333D01*
X167528572Y-42648333D02*
X167576191Y-42457857D01*
X167576191Y-42457857D02*
X167623810Y-42362619D01*
X167623810Y-42362619D02*
X167671429Y-42315000D01*
X167671429Y-42315000D02*
X167766667Y-42267380D01*
X168528572Y-43172142D02*
X168576191Y-43219761D01*
X168576191Y-43219761D02*
X168528572Y-43267380D01*
X168528572Y-43267380D02*
X168480953Y-43219761D01*
X168480953Y-43219761D02*
X168528572Y-43172142D01*
X168528572Y-43172142D02*
X168528572Y-43267380D01*
X169528571Y-43267380D02*
X168957143Y-43267380D01*
X169242857Y-43267380D02*
X169242857Y-42267380D01*
X169242857Y-42267380D02*
X169147619Y-42410238D01*
X169147619Y-42410238D02*
X169052381Y-42505476D01*
X169052381Y-42505476D02*
X168957143Y-42553095D01*
X134900714Y-134571428D02*
X134900714Y-134190476D01*
X135567380Y-134428571D02*
X134710238Y-134428571D01*
X134710238Y-134428571D02*
X134615000Y-134380952D01*
X134615000Y-134380952D02*
X134567380Y-134285714D01*
X134567380Y-134285714D02*
X134567380Y-134190476D01*
X135567380Y-133428571D02*
X135043571Y-133428571D01*
X135043571Y-133428571D02*
X134948333Y-133476190D01*
X134948333Y-133476190D02*
X134900714Y-133571428D01*
X134900714Y-133571428D02*
X134900714Y-133761904D01*
X134900714Y-133761904D02*
X134948333Y-133857142D01*
X135519761Y-133428571D02*
X135567380Y-133523809D01*
X135567380Y-133523809D02*
X135567380Y-133761904D01*
X135567380Y-133761904D02*
X135519761Y-133857142D01*
X135519761Y-133857142D02*
X135424523Y-133904761D01*
X135424523Y-133904761D02*
X135329285Y-133904761D01*
X135329285Y-133904761D02*
X135234047Y-133857142D01*
X135234047Y-133857142D02*
X135186428Y-133761904D01*
X135186428Y-133761904D02*
X135186428Y-133523809D01*
X135186428Y-133523809D02*
X135138809Y-133428571D01*
X135567380Y-132523809D02*
X134567380Y-132523809D01*
X135519761Y-132523809D02*
X135567380Y-132619047D01*
X135567380Y-132619047D02*
X135567380Y-132809523D01*
X135567380Y-132809523D02*
X135519761Y-132904761D01*
X135519761Y-132904761D02*
X135472142Y-132952380D01*
X135472142Y-132952380D02*
X135376904Y-132999999D01*
X135376904Y-132999999D02*
X135091190Y-132999999D01*
X135091190Y-132999999D02*
X134995952Y-132952380D01*
X134995952Y-132952380D02*
X134948333Y-132904761D01*
X134948333Y-132904761D02*
X134900714Y-132809523D01*
X134900714Y-132809523D02*
X134900714Y-132619047D01*
X134900714Y-132619047D02*
X134948333Y-132523809D01*
X134995952Y-131904761D02*
X134948333Y-131999999D01*
X134948333Y-131999999D02*
X134900714Y-132047618D01*
X134900714Y-132047618D02*
X134805476Y-132095237D01*
X134805476Y-132095237D02*
X134757857Y-132095237D01*
X134757857Y-132095237D02*
X134662619Y-132047618D01*
X134662619Y-132047618D02*
X134615000Y-131999999D01*
X134615000Y-131999999D02*
X134567380Y-131904761D01*
X134567380Y-131904761D02*
X134567380Y-131714285D01*
X134567380Y-131714285D02*
X134615000Y-131619047D01*
X134615000Y-131619047D02*
X134662619Y-131571428D01*
X134662619Y-131571428D02*
X134757857Y-131523809D01*
X134757857Y-131523809D02*
X134805476Y-131523809D01*
X134805476Y-131523809D02*
X134900714Y-131571428D01*
X134900714Y-131571428D02*
X134948333Y-131619047D01*
X134948333Y-131619047D02*
X134995952Y-131714285D01*
X134995952Y-131714285D02*
X134995952Y-131904761D01*
X134995952Y-131904761D02*
X135043571Y-131999999D01*
X135043571Y-131999999D02*
X135091190Y-132047618D01*
X135091190Y-132047618D02*
X135186428Y-132095237D01*
X135186428Y-132095237D02*
X135376904Y-132095237D01*
X135376904Y-132095237D02*
X135472142Y-132047618D01*
X135472142Y-132047618D02*
X135519761Y-131999999D01*
X135519761Y-131999999D02*
X135567380Y-131904761D01*
X135567380Y-131904761D02*
X135567380Y-131714285D01*
X135567380Y-131714285D02*
X135519761Y-131619047D01*
X135519761Y-131619047D02*
X135472142Y-131571428D01*
X135472142Y-131571428D02*
X135376904Y-131523809D01*
X135376904Y-131523809D02*
X135186428Y-131523809D01*
X135186428Y-131523809D02*
X135091190Y-131571428D01*
X135091190Y-131571428D02*
X135043571Y-131619047D01*
X135043571Y-131619047D02*
X134995952Y-131714285D01*
X160200714Y-134571428D02*
X160200714Y-134190476D01*
X160867380Y-134428571D02*
X160010238Y-134428571D01*
X160010238Y-134428571D02*
X159915000Y-134380952D01*
X159915000Y-134380952D02*
X159867380Y-134285714D01*
X159867380Y-134285714D02*
X159867380Y-134190476D01*
X160867380Y-133428571D02*
X160343571Y-133428571D01*
X160343571Y-133428571D02*
X160248333Y-133476190D01*
X160248333Y-133476190D02*
X160200714Y-133571428D01*
X160200714Y-133571428D02*
X160200714Y-133761904D01*
X160200714Y-133761904D02*
X160248333Y-133857142D01*
X160819761Y-133428571D02*
X160867380Y-133523809D01*
X160867380Y-133523809D02*
X160867380Y-133761904D01*
X160867380Y-133761904D02*
X160819761Y-133857142D01*
X160819761Y-133857142D02*
X160724523Y-133904761D01*
X160724523Y-133904761D02*
X160629285Y-133904761D01*
X160629285Y-133904761D02*
X160534047Y-133857142D01*
X160534047Y-133857142D02*
X160486428Y-133761904D01*
X160486428Y-133761904D02*
X160486428Y-133523809D01*
X160486428Y-133523809D02*
X160438809Y-133428571D01*
X160867380Y-132523809D02*
X159867380Y-132523809D01*
X160819761Y-132523809D02*
X160867380Y-132619047D01*
X160867380Y-132619047D02*
X160867380Y-132809523D01*
X160867380Y-132809523D02*
X160819761Y-132904761D01*
X160819761Y-132904761D02*
X160772142Y-132952380D01*
X160772142Y-132952380D02*
X160676904Y-132999999D01*
X160676904Y-132999999D02*
X160391190Y-132999999D01*
X160391190Y-132999999D02*
X160295952Y-132952380D01*
X160295952Y-132952380D02*
X160248333Y-132904761D01*
X160248333Y-132904761D02*
X160200714Y-132809523D01*
X160200714Y-132809523D02*
X160200714Y-132619047D01*
X160200714Y-132619047D02*
X160248333Y-132523809D01*
X159867380Y-131571428D02*
X159867380Y-132047618D01*
X159867380Y-132047618D02*
X160343571Y-132095237D01*
X160343571Y-132095237D02*
X160295952Y-132047618D01*
X160295952Y-132047618D02*
X160248333Y-131952380D01*
X160248333Y-131952380D02*
X160248333Y-131714285D01*
X160248333Y-131714285D02*
X160295952Y-131619047D01*
X160295952Y-131619047D02*
X160343571Y-131571428D01*
X160343571Y-131571428D02*
X160438809Y-131523809D01*
X160438809Y-131523809D02*
X160676904Y-131523809D01*
X160676904Y-131523809D02*
X160772142Y-131571428D01*
X160772142Y-131571428D02*
X160819761Y-131619047D01*
X160819761Y-131619047D02*
X160867380Y-131714285D01*
X160867380Y-131714285D02*
X160867380Y-131952380D01*
X160867380Y-131952380D02*
X160819761Y-132047618D01*
X160819761Y-132047618D02*
X160772142Y-132095237D01*
X110000714Y-133771428D02*
X110000714Y-133390476D01*
X110667380Y-133628571D02*
X109810238Y-133628571D01*
X109810238Y-133628571D02*
X109715000Y-133580952D01*
X109715000Y-133580952D02*
X109667380Y-133485714D01*
X109667380Y-133485714D02*
X109667380Y-133390476D01*
X110667380Y-132628571D02*
X110143571Y-132628571D01*
X110143571Y-132628571D02*
X110048333Y-132676190D01*
X110048333Y-132676190D02*
X110000714Y-132771428D01*
X110000714Y-132771428D02*
X110000714Y-132961904D01*
X110000714Y-132961904D02*
X110048333Y-133057142D01*
X110619761Y-132628571D02*
X110667380Y-132723809D01*
X110667380Y-132723809D02*
X110667380Y-132961904D01*
X110667380Y-132961904D02*
X110619761Y-133057142D01*
X110619761Y-133057142D02*
X110524523Y-133104761D01*
X110524523Y-133104761D02*
X110429285Y-133104761D01*
X110429285Y-133104761D02*
X110334047Y-133057142D01*
X110334047Y-133057142D02*
X110286428Y-132961904D01*
X110286428Y-132961904D02*
X110286428Y-132723809D01*
X110286428Y-132723809D02*
X110238809Y-132628571D01*
X110667380Y-131723809D02*
X109667380Y-131723809D01*
X110619761Y-131723809D02*
X110667380Y-131819047D01*
X110667380Y-131819047D02*
X110667380Y-132009523D01*
X110667380Y-132009523D02*
X110619761Y-132104761D01*
X110619761Y-132104761D02*
X110572142Y-132152380D01*
X110572142Y-132152380D02*
X110476904Y-132199999D01*
X110476904Y-132199999D02*
X110191190Y-132199999D01*
X110191190Y-132199999D02*
X110095952Y-132152380D01*
X110095952Y-132152380D02*
X110048333Y-132104761D01*
X110048333Y-132104761D02*
X110000714Y-132009523D01*
X110000714Y-132009523D02*
X110000714Y-131819047D01*
X110000714Y-131819047D02*
X110048333Y-131723809D01*
X109667380Y-131342856D02*
X109667380Y-130676190D01*
X109667380Y-130676190D02*
X110667380Y-131104761D01*
X84500714Y-133571428D02*
X84500714Y-133190476D01*
X85167380Y-133428571D02*
X84310238Y-133428571D01*
X84310238Y-133428571D02*
X84215000Y-133380952D01*
X84215000Y-133380952D02*
X84167380Y-133285714D01*
X84167380Y-133285714D02*
X84167380Y-133190476D01*
X85167380Y-132428571D02*
X84643571Y-132428571D01*
X84643571Y-132428571D02*
X84548333Y-132476190D01*
X84548333Y-132476190D02*
X84500714Y-132571428D01*
X84500714Y-132571428D02*
X84500714Y-132761904D01*
X84500714Y-132761904D02*
X84548333Y-132857142D01*
X85119761Y-132428571D02*
X85167380Y-132523809D01*
X85167380Y-132523809D02*
X85167380Y-132761904D01*
X85167380Y-132761904D02*
X85119761Y-132857142D01*
X85119761Y-132857142D02*
X85024523Y-132904761D01*
X85024523Y-132904761D02*
X84929285Y-132904761D01*
X84929285Y-132904761D02*
X84834047Y-132857142D01*
X84834047Y-132857142D02*
X84786428Y-132761904D01*
X84786428Y-132761904D02*
X84786428Y-132523809D01*
X84786428Y-132523809D02*
X84738809Y-132428571D01*
X85167380Y-131523809D02*
X84167380Y-131523809D01*
X85119761Y-131523809D02*
X85167380Y-131619047D01*
X85167380Y-131619047D02*
X85167380Y-131809523D01*
X85167380Y-131809523D02*
X85119761Y-131904761D01*
X85119761Y-131904761D02*
X85072142Y-131952380D01*
X85072142Y-131952380D02*
X84976904Y-131999999D01*
X84976904Y-131999999D02*
X84691190Y-131999999D01*
X84691190Y-131999999D02*
X84595952Y-131952380D01*
X84595952Y-131952380D02*
X84548333Y-131904761D01*
X84548333Y-131904761D02*
X84500714Y-131809523D01*
X84500714Y-131809523D02*
X84500714Y-131619047D01*
X84500714Y-131619047D02*
X84548333Y-131523809D01*
X84167380Y-130619047D02*
X84167380Y-130809523D01*
X84167380Y-130809523D02*
X84215000Y-130904761D01*
X84215000Y-130904761D02*
X84262619Y-130952380D01*
X84262619Y-130952380D02*
X84405476Y-131047618D01*
X84405476Y-131047618D02*
X84595952Y-131095237D01*
X84595952Y-131095237D02*
X84976904Y-131095237D01*
X84976904Y-131095237D02*
X85072142Y-131047618D01*
X85072142Y-131047618D02*
X85119761Y-130999999D01*
X85119761Y-130999999D02*
X85167380Y-130904761D01*
X85167380Y-130904761D02*
X85167380Y-130714285D01*
X85167380Y-130714285D02*
X85119761Y-130619047D01*
X85119761Y-130619047D02*
X85072142Y-130571428D01*
X85072142Y-130571428D02*
X84976904Y-130523809D01*
X84976904Y-130523809D02*
X84738809Y-130523809D01*
X84738809Y-130523809D02*
X84643571Y-130571428D01*
X84643571Y-130571428D02*
X84595952Y-130619047D01*
X84595952Y-130619047D02*
X84548333Y-130714285D01*
X84548333Y-130714285D02*
X84548333Y-130904761D01*
X84548333Y-130904761D02*
X84595952Y-130999999D01*
X84595952Y-130999999D02*
X84643571Y-131047618D01*
X84643571Y-131047618D02*
X84738809Y-131095237D01*
X136500000Y-135000000D02*
X136500000Y-45000000D01*
X148500000Y-45000000D02*
X136500000Y-45000000D01*
X148500000Y-46000000D02*
X148500000Y-45000000D01*
X148500000Y-135000000D02*
X136500000Y-135000000D01*
X148500000Y-135000000D02*
X148500000Y-46000000D01*
X161500000Y-135000000D02*
X161500000Y-45000000D01*
X173500000Y-45000000D02*
X161500000Y-45000000D01*
X173500000Y-46000000D02*
X173500000Y-45000000D01*
X173500000Y-135000000D02*
X161500000Y-135000000D01*
X173500000Y-135000000D02*
X173500000Y-46000000D01*
X111500000Y-135000000D02*
X111500000Y-45000000D01*
X123500000Y-45000000D02*
X111500000Y-45000000D01*
X123500000Y-46000000D02*
X123500000Y-45000000D01*
X123500000Y-135000000D02*
X111500000Y-135000000D01*
X123500000Y-135000000D02*
X123500000Y-46000000D01*
X86500000Y-135000000D02*
X86500000Y-45000000D01*
X98500000Y-45000000D02*
X86500000Y-45000000D01*
X98500000Y-46000000D02*
X98500000Y-45000000D01*
X98500000Y-135000000D02*
X86500000Y-135000000D01*
X98500000Y-135000000D02*
X98500000Y-46000000D01*
D11*
X145000000Y-125000000D03*
X140000000Y-50000000D03*
X140000000Y-130000000D03*
X145000000Y-55000000D03*
X170000000Y-125000000D03*
X165000000Y-50000000D03*
X165000000Y-130000000D03*
X170000000Y-55000000D03*
X120000000Y-125000000D03*
X115000000Y-50000000D03*
X115000000Y-130000000D03*
X120000000Y-55000000D03*
X95000000Y-125000000D03*
X90000000Y-50000000D03*
X90000000Y-130000000D03*
X95000000Y-55000000D03*
%LPC*%
D12*
X154000000Y-65000000D03*
X154000000Y-115000000D03*
D11*
X145000000Y-125000000D03*
X140000000Y-50000000D03*
X140000000Y-130000000D03*
X145000000Y-55000000D03*
D12*
X106000000Y-115000000D03*
D11*
X170000000Y-125000000D03*
X165000000Y-50000000D03*
X165000000Y-130000000D03*
X170000000Y-55000000D03*
D12*
X106000000Y-65000000D03*
D11*
X120000000Y-125000000D03*
X115000000Y-50000000D03*
X115000000Y-130000000D03*
X120000000Y-55000000D03*
X95000000Y-125000000D03*
X90000000Y-50000000D03*
X90000000Y-130000000D03*
X95000000Y-55000000D03*
D12*
X176000000Y-44000000D03*
X84000000Y-136000000D03*
X84000000Y-44000000D03*
X176000000Y-136000000D03*
D13*
X128753500Y-83968000D03*
D14*
X131293500Y-83968000D03*
X128753500Y-81428000D03*
X131293500Y-81428000D03*
X128753500Y-78888000D03*
X131293500Y-78888000D03*
X128753500Y-76348000D03*
X131293500Y-76348000D03*
X128753500Y-73808000D03*
X131293500Y-73808000D03*
D13*
X129000000Y-108000000D03*
D14*
X131540000Y-108000000D03*
X129000000Y-105460000D03*
X131540000Y-105460000D03*
X129000000Y-102920000D03*
X131540000Y-102920000D03*
X129000000Y-100380000D03*
X131540000Y-100380000D03*
X129000000Y-97840000D03*
X131540000Y-97840000D03*
M02*
