M48
; DRILL file {KiCad (7.0.0)} date Thu May 18 23:42:18 2023
; FORMAT={-:-/ absolute / metric / decimal}
; #@! TF.CreationDate,2023-05-18T23:42:18+02:00
; #@! TF.GenerationSoftware,Kicad,Pcbnew,(7.0.0)
; #@! TF.FileFunction,Plated,1,2,PTH
FMAT,2
METRIC
; #@! TA.AperFunction,Plated,PTH,ViaDrill
T1C0.400
; #@! TA.AperFunction,Plated,PTH,ComponentDrill
T2C1.000
; #@! TA.AperFunction,Plated,PTH,ComponentDrill
T3C2.500
%
G90
G05
T1
X138.3Y-73.8
T2
X128.754Y-73.808
X128.754Y-76.348
X128.754Y-78.888
X128.754Y-81.428
X128.754Y-83.968
X129.0Y-97.84
X129.0Y-100.38
X129.0Y-102.92
X129.0Y-105.46
X129.0Y-108.0
X131.293Y-73.808
X131.293Y-76.348
X131.293Y-78.888
X131.293Y-81.428
X131.293Y-83.968
X131.54Y-97.84
X131.54Y-100.38
X131.54Y-102.92
X131.54Y-105.46
X131.54Y-108.0
T3
X90.0Y-50.0
X90.0Y-130.0
X95.0Y-55.0
X95.0Y-125.0
X115.0Y-50.0
X115.0Y-130.0
X120.0Y-55.0
X120.0Y-125.0
X140.0Y-50.0
X140.0Y-130.0
X145.0Y-55.0
X145.0Y-125.0
X165.0Y-50.0
X165.0Y-130.0
X170.0Y-55.0
X170.0Y-125.0
T0
M30
