G04 #@! TF.GenerationSoftware,KiCad,Pcbnew,(7.0.0)*
G04 #@! TF.CreationDate,2023-05-18T23:41:24+02:00*
G04 #@! TF.ProjectId,Fad_1,4661645f-312e-46b6-9963-61645f706362,rev?*
G04 #@! TF.SameCoordinates,Original*
G04 #@! TF.FileFunction,Copper,L1,Top*
G04 #@! TF.FilePolarity,Positive*
%FSLAX46Y46*%
G04 Gerber Fmt 4.6, Leading zero omitted, Abs format (unit mm)*
G04 Created by KiCad (PCBNEW (7.0.0)) date 2023-05-18 23:41:24*
%MOMM*%
%LPD*%
G01*
G04 APERTURE LIST*
G04 Aperture macros list*
%AMRoundRect*
0 Rectangle with rounded corners*
0 $1 Rounding radius*
0 $2 $3 $4 $5 $6 $7 $8 $9 X,Y pos of 4 corners*
0 Add a 4 corners polygon primitive as box body*
4,1,4,$2,$3,$4,$5,$6,$7,$8,$9,$2,$3,0*
0 Add four circle primitives for the rounded corners*
1,1,$1+$1,$2,$3*
1,1,$1+$1,$4,$5*
1,1,$1+$1,$6,$7*
1,1,$1+$1,$8,$9*
0 Add four rect primitives between the rounded corners*
20,1,$1+$1,$2,$3,$4,$5,0*
20,1,$1+$1,$4,$5,$6,$7,0*
20,1,$1+$1,$6,$7,$8,$9,0*
20,1,$1+$1,$8,$9,$2,$3,0*%
G04 Aperture macros list end*
G04 #@! TA.AperFunction,ComponentPad*
%ADD10C,4.000000*%
G04 #@! TD*
G04 #@! TA.AperFunction,ComponentPad*
%ADD11RoundRect,0.250000X-0.600000X-0.600000X0.600000X-0.600000X0.600000X0.600000X-0.600000X0.600000X0*%
G04 #@! TD*
G04 #@! TA.AperFunction,ComponentPad*
%ADD12C,1.700000*%
G04 #@! TD*
G04 #@! TA.AperFunction,ViaPad*
%ADD13C,0.800000*%
G04 #@! TD*
G04 #@! TA.AperFunction,Conductor*
%ADD14C,1.500000*%
G04 #@! TD*
G04 #@! TA.AperFunction,Conductor*
%ADD15C,1.000000*%
G04 #@! TD*
G04 APERTURE END LIST*
D10*
X145000000Y-125000000D03*
X140000000Y-50000000D03*
X140000000Y-130000000D03*
X145000000Y-55000000D03*
X170000000Y-125000000D03*
X165000000Y-50000000D03*
X165000000Y-130000000D03*
X170000000Y-55000000D03*
X120000000Y-125000000D03*
X115000000Y-50000000D03*
X115000000Y-130000000D03*
X120000000Y-55000000D03*
X95000000Y-125000000D03*
X90000000Y-50000000D03*
X90000000Y-130000000D03*
X95000000Y-55000000D03*
D11*
X128753500Y-83968000D03*
D12*
X131293500Y-83968000D03*
X128753500Y-81428000D03*
X131293500Y-81428000D03*
X128753500Y-78888000D03*
X131293500Y-78888000D03*
X128753500Y-76348000D03*
X131293500Y-76348000D03*
X128753500Y-73808000D03*
X131293500Y-73808000D03*
D11*
X129000000Y-108000000D03*
D12*
X131540000Y-108000000D03*
X129000000Y-105460000D03*
X131540000Y-105460000D03*
X129000000Y-102920000D03*
X131540000Y-102920000D03*
X129000000Y-100380000D03*
X131540000Y-100380000D03*
X129000000Y-97840000D03*
X131540000Y-97840000D03*
D13*
X138300000Y-73800000D03*
D14*
X133468000Y-83968000D02*
X136000000Y-86500000D01*
X131540000Y-108000000D02*
X134000000Y-108000000D01*
X134000000Y-108000000D02*
X136000000Y-106000000D01*
X96500000Y-55000000D02*
X120500000Y-55000000D01*
X133468000Y-83968000D02*
X136000000Y-81436000D01*
X136000000Y-106000000D02*
X136000000Y-86500000D01*
X120500000Y-55000000D02*
X135500000Y-55000000D01*
X136000000Y-81436000D02*
X136000000Y-55500000D01*
X131293500Y-83968000D02*
X133468000Y-83968000D01*
X144500000Y-55000000D02*
X168500000Y-55000000D01*
X135500000Y-55000000D02*
X144500000Y-55000000D01*
X136000000Y-55500000D02*
X135500000Y-55000000D01*
D15*
X115500000Y-81500000D02*
X115500000Y-130000000D01*
X123192000Y-73808000D02*
X115500000Y-81500000D01*
X128753500Y-73808000D02*
X123192000Y-73808000D01*
X138300000Y-73800000D02*
X139500000Y-75000000D01*
X139500000Y-75000000D02*
X139500000Y-130000000D01*
G04 #@! TA.AperFunction,Conductor*
G36*
X171667210Y-40515299D02*
G01*
X171775500Y-40560155D01*
X171868491Y-40631509D01*
X171939845Y-40724500D01*
X171984701Y-40832790D01*
X172000000Y-40949000D01*
X172000000Y-48000000D01*
X179051000Y-48000000D01*
X179167210Y-48015299D01*
X179275500Y-48060155D01*
X179368491Y-48131509D01*
X179439845Y-48224500D01*
X179484701Y-48332790D01*
X179500000Y-48449000D01*
X179500000Y-131551000D01*
X179484701Y-131667210D01*
X179439845Y-131775500D01*
X179368491Y-131868491D01*
X179275500Y-131939845D01*
X179167210Y-131984701D01*
X179051000Y-132000000D01*
X172000000Y-132000000D01*
X172000000Y-132029429D01*
X172000000Y-139051000D01*
X171984701Y-139167210D01*
X171939845Y-139275500D01*
X171868491Y-139368491D01*
X171775500Y-139439845D01*
X171667210Y-139484701D01*
X171551000Y-139500000D01*
X88449000Y-139500000D01*
X88332790Y-139484701D01*
X88224500Y-139439845D01*
X88131509Y-139368491D01*
X88060155Y-139275500D01*
X88015299Y-139167210D01*
X88000000Y-139051000D01*
X88000000Y-133081146D01*
X88018863Y-132952371D01*
X88073866Y-132834416D01*
X88160388Y-132737192D01*
X88271160Y-132668867D01*
X88396874Y-132635182D01*
X88526968Y-132638967D01*
X88650510Y-132679904D01*
X88809549Y-132759777D01*
X89137989Y-132879319D01*
X89478086Y-132959923D01*
X89825241Y-133000500D01*
X90161701Y-133000500D01*
X90174759Y-133000500D01*
X90521914Y-132959923D01*
X90862011Y-132879319D01*
X91190451Y-132759777D01*
X91502793Y-132602913D01*
X91794811Y-132410849D01*
X92062558Y-132186183D01*
X92302412Y-131931953D01*
X92511130Y-131651596D01*
X92685889Y-131348904D01*
X92824326Y-131027971D01*
X92924569Y-130693136D01*
X92985262Y-130348927D01*
X93005585Y-130000000D01*
X92985262Y-129651073D01*
X92924569Y-129306864D01*
X92824326Y-128972029D01*
X92685889Y-128651096D01*
X92511130Y-128348404D01*
X92302412Y-128068047D01*
X92293452Y-128058550D01*
X92293447Y-128058544D01*
X92071520Y-127823316D01*
X92071518Y-127823314D01*
X92062558Y-127813817D01*
X91849541Y-127635075D01*
X91804816Y-127597546D01*
X91804814Y-127597544D01*
X91794811Y-127589151D01*
X91684197Y-127516399D01*
X93196441Y-127516399D01*
X93216758Y-127535787D01*
X93337819Y-127621684D01*
X93359137Y-127635080D01*
X93641813Y-127791310D01*
X93664479Y-127802225D01*
X93962879Y-127925826D01*
X93986629Y-127934137D01*
X94296994Y-128023551D01*
X94321518Y-128029149D01*
X94639947Y-128083252D01*
X94664932Y-128086067D01*
X94987429Y-128104179D01*
X95012571Y-128104179D01*
X95335067Y-128086067D01*
X95360052Y-128083252D01*
X95678481Y-128029149D01*
X95703005Y-128023551D01*
X96013370Y-127934137D01*
X96037120Y-127925826D01*
X96335520Y-127802225D01*
X96358186Y-127791310D01*
X96640870Y-127635075D01*
X96662174Y-127621689D01*
X96783240Y-127535788D01*
X96803557Y-127516399D01*
X96786775Y-127493882D01*
X95020812Y-125727919D01*
X95000000Y-125711949D01*
X94979187Y-125727919D01*
X93213223Y-127493882D01*
X93196441Y-127516399D01*
X91684197Y-127516399D01*
X91502793Y-127397087D01*
X91247990Y-127269120D01*
X91202126Y-127246086D01*
X91202120Y-127246083D01*
X91190451Y-127240223D01*
X91178175Y-127235755D01*
X91178173Y-127235754D01*
X90874287Y-127125149D01*
X90874285Y-127125148D01*
X90862011Y-127120681D01*
X90849304Y-127117669D01*
X90849296Y-127117667D01*
X90534624Y-127043089D01*
X90534618Y-127043088D01*
X90521914Y-127040077D01*
X90508955Y-127038562D01*
X90508942Y-127038560D01*
X90187728Y-127001015D01*
X90187713Y-127001014D01*
X90174759Y-126999500D01*
X89825241Y-126999500D01*
X89812287Y-127001014D01*
X89812271Y-127001015D01*
X89491057Y-127038560D01*
X89491041Y-127038562D01*
X89478086Y-127040077D01*
X89465383Y-127043087D01*
X89465375Y-127043089D01*
X89150703Y-127117667D01*
X89150691Y-127117670D01*
X89137989Y-127120681D01*
X89125718Y-127125146D01*
X89125712Y-127125149D01*
X88821826Y-127235754D01*
X88821817Y-127235757D01*
X88809549Y-127240223D01*
X88797885Y-127246080D01*
X88797873Y-127246086D01*
X88508880Y-127391224D01*
X88508872Y-127391228D01*
X88497207Y-127397087D01*
X88486301Y-127404259D01*
X88486294Y-127404264D01*
X88216097Y-127581976D01*
X88216089Y-127581981D01*
X88205189Y-127589151D01*
X88195193Y-127597538D01*
X88195183Y-127597546D01*
X87947452Y-127805417D01*
X87947445Y-127805422D01*
X87937442Y-127813817D01*
X87928489Y-127823306D01*
X87928479Y-127823316D01*
X87706552Y-128058544D01*
X87706538Y-128058559D01*
X87697588Y-128068047D01*
X87689790Y-128078520D01*
X87689782Y-128078531D01*
X87496675Y-128337919D01*
X87496668Y-128337928D01*
X87488870Y-128348404D01*
X87482346Y-128359703D01*
X87482338Y-128359716D01*
X87320639Y-128639787D01*
X87320630Y-128639803D01*
X87314111Y-128651096D01*
X87308942Y-128663078D01*
X87308937Y-128663089D01*
X87180852Y-128960023D01*
X87180847Y-128960036D01*
X87175674Y-128972029D01*
X87171926Y-128984545D01*
X87171923Y-128984556D01*
X87079177Y-129294348D01*
X87079173Y-129294364D01*
X87075431Y-129306864D01*
X87014738Y-129651073D01*
X87013978Y-129664109D01*
X87013977Y-129664124D01*
X86995786Y-129976453D01*
X86994415Y-130000000D01*
X86995175Y-130013048D01*
X87013977Y-130335875D01*
X87013978Y-130335888D01*
X87014738Y-130348927D01*
X87075431Y-130693136D01*
X87079174Y-130705639D01*
X87079177Y-130705651D01*
X87171923Y-131015443D01*
X87175674Y-131027971D01*
X87314111Y-131348904D01*
X87316340Y-131352765D01*
X87356192Y-131473030D01*
X87359978Y-131603124D01*
X87326294Y-131728838D01*
X87257969Y-131839611D01*
X87160744Y-131926134D01*
X87042789Y-131981137D01*
X86914014Y-132000000D01*
X80949000Y-132000000D01*
X80832790Y-131984701D01*
X80724500Y-131939845D01*
X80631509Y-131868491D01*
X80560155Y-131775500D01*
X80515299Y-131667210D01*
X80500000Y-131551000D01*
X80500000Y-125012571D01*
X91895821Y-125012571D01*
X91913932Y-125335067D01*
X91916747Y-125360052D01*
X91970850Y-125678481D01*
X91976448Y-125703005D01*
X92065862Y-126013370D01*
X92074173Y-126037120D01*
X92197774Y-126335520D01*
X92208689Y-126358186D01*
X92364919Y-126640862D01*
X92378315Y-126662181D01*
X92464211Y-126783240D01*
X92483599Y-126803557D01*
X92506116Y-126786775D01*
X94272080Y-125020812D01*
X94288050Y-125000000D01*
X95711949Y-125000000D01*
X95727919Y-125020812D01*
X97493882Y-126786775D01*
X97516399Y-126803557D01*
X97535788Y-126783240D01*
X97621689Y-126662174D01*
X97635075Y-126640870D01*
X97791310Y-126358186D01*
X97802225Y-126335520D01*
X97925826Y-126037120D01*
X97934137Y-126013370D01*
X98023551Y-125703005D01*
X98029149Y-125678481D01*
X98083252Y-125360052D01*
X98086067Y-125335067D01*
X98104179Y-125012571D01*
X98104179Y-124987429D01*
X98086067Y-124664932D01*
X98083252Y-124639947D01*
X98029149Y-124321518D01*
X98023551Y-124296994D01*
X97934137Y-123986629D01*
X97925826Y-123962879D01*
X97802225Y-123664479D01*
X97791310Y-123641813D01*
X97635080Y-123359137D01*
X97621684Y-123337819D01*
X97535787Y-123216758D01*
X97516399Y-123196441D01*
X97493882Y-123213223D01*
X95727919Y-124979187D01*
X95711949Y-125000000D01*
X94288050Y-125000000D01*
X94272080Y-124979187D01*
X92506116Y-123213223D01*
X92483599Y-123196441D01*
X92464212Y-123216757D01*
X92378305Y-123337832D01*
X92364926Y-123359124D01*
X92208689Y-123641813D01*
X92197774Y-123664479D01*
X92074173Y-123962879D01*
X92065862Y-123986629D01*
X91976448Y-124296994D01*
X91970850Y-124321518D01*
X91916747Y-124639947D01*
X91913932Y-124664932D01*
X91895821Y-124987429D01*
X91895821Y-125012571D01*
X80500000Y-125012571D01*
X80500000Y-122483599D01*
X93196441Y-122483599D01*
X93213223Y-122506116D01*
X94979187Y-124272080D01*
X95000000Y-124288050D01*
X95020812Y-124272080D01*
X96786775Y-122506116D01*
X96803557Y-122483599D01*
X96783240Y-122464211D01*
X96662181Y-122378315D01*
X96640862Y-122364919D01*
X96358186Y-122208689D01*
X96335520Y-122197774D01*
X96037120Y-122074173D01*
X96013370Y-122065862D01*
X95703005Y-121976448D01*
X95678481Y-121970850D01*
X95360052Y-121916747D01*
X95335067Y-121913932D01*
X95012571Y-121895821D01*
X94987429Y-121895821D01*
X94664932Y-121913932D01*
X94639947Y-121916747D01*
X94321518Y-121970850D01*
X94296994Y-121976448D01*
X93986629Y-122065862D01*
X93962879Y-122074173D01*
X93664479Y-122197774D01*
X93641813Y-122208689D01*
X93359124Y-122364926D01*
X93337832Y-122378305D01*
X93216757Y-122464212D01*
X93196441Y-122483599D01*
X80500000Y-122483599D01*
X80500000Y-111000000D01*
X102000000Y-111000000D01*
X102000000Y-119000000D01*
X109970571Y-119000000D01*
X110000000Y-119000000D01*
X110000000Y-111000000D01*
X102000000Y-111000000D01*
X80500000Y-111000000D01*
X80500000Y-61000000D01*
X102000000Y-61000000D01*
X102000000Y-69000000D01*
X109970571Y-69000000D01*
X110000000Y-69000000D01*
X110000000Y-61000000D01*
X102000000Y-61000000D01*
X80500000Y-61000000D01*
X80500000Y-55000000D01*
X91994415Y-55000000D01*
X91995175Y-55013048D01*
X92013977Y-55335875D01*
X92013978Y-55335888D01*
X92014738Y-55348927D01*
X92075431Y-55693136D01*
X92079174Y-55705639D01*
X92079177Y-55705651D01*
X92171923Y-56015443D01*
X92175674Y-56027971D01*
X92314111Y-56348904D01*
X92320634Y-56360203D01*
X92320639Y-56360212D01*
X92482338Y-56640283D01*
X92488870Y-56651596D01*
X92697588Y-56931953D01*
X92706544Y-56941446D01*
X92706552Y-56941455D01*
X92840367Y-57083290D01*
X92937442Y-57186183D01*
X93205189Y-57410849D01*
X93497207Y-57602913D01*
X93809549Y-57759777D01*
X94137989Y-57879319D01*
X94478086Y-57959923D01*
X94825241Y-58000500D01*
X95161701Y-58000500D01*
X95174759Y-58000500D01*
X95521914Y-57959923D01*
X95862011Y-57879319D01*
X96190451Y-57759777D01*
X96502793Y-57602913D01*
X96794811Y-57410849D01*
X97062558Y-57186183D01*
X97302412Y-56931953D01*
X97310212Y-56921475D01*
X97318610Y-56911468D01*
X97320300Y-56912886D01*
X97374296Y-56855620D01*
X97461416Y-56798293D01*
X97559411Y-56762612D01*
X97662995Y-56750500D01*
X117337005Y-56750500D01*
X117440589Y-56762612D01*
X117538584Y-56798293D01*
X117625704Y-56855620D01*
X117679699Y-56912886D01*
X117681390Y-56911468D01*
X117689790Y-56921478D01*
X117697588Y-56931953D01*
X117937442Y-57186183D01*
X118205189Y-57410849D01*
X118497207Y-57602913D01*
X118809549Y-57759777D01*
X119137989Y-57879319D01*
X119478086Y-57959923D01*
X119825241Y-58000500D01*
X120161701Y-58000500D01*
X120174759Y-58000500D01*
X120521914Y-57959923D01*
X120862011Y-57879319D01*
X121190451Y-57759777D01*
X121502793Y-57602913D01*
X121794811Y-57410849D01*
X122062558Y-57186183D01*
X122302412Y-56931953D01*
X122310212Y-56921475D01*
X122318610Y-56911468D01*
X122320300Y-56912886D01*
X122374296Y-56855620D01*
X122461416Y-56798293D01*
X122559411Y-56762612D01*
X122662995Y-56750500D01*
X133800500Y-56750500D01*
X133916710Y-56765799D01*
X134025000Y-56810655D01*
X134117991Y-56882009D01*
X134189345Y-56975000D01*
X134234201Y-57083290D01*
X134249500Y-57199500D01*
X134249500Y-80524937D01*
X134234201Y-80641147D01*
X134189345Y-80749438D01*
X134117990Y-80842429D01*
X133830384Y-81130033D01*
X133735064Y-81202722D01*
X133623908Y-81247601D01*
X133504840Y-81261469D01*
X133386345Y-81243338D01*
X133276871Y-81194502D01*
X133184220Y-81118440D01*
X133114996Y-81020575D01*
X133084179Y-80935588D01*
X133081502Y-80936375D01*
X133076987Y-80920998D01*
X133073577Y-80905322D01*
X132981074Y-80657311D01*
X132854216Y-80424989D01*
X132844595Y-80412136D01*
X132837279Y-80400753D01*
X132784187Y-80284501D01*
X132765999Y-80158000D01*
X132784187Y-80031499D01*
X132837279Y-79915247D01*
X132844593Y-79903864D01*
X132854216Y-79891011D01*
X132981074Y-79658689D01*
X133073577Y-79410678D01*
X133129843Y-79152026D01*
X133148727Y-78888000D01*
X133129843Y-78623974D01*
X133073577Y-78365322D01*
X132981074Y-78117311D01*
X132854216Y-77884989D01*
X132844595Y-77872136D01*
X132837279Y-77860753D01*
X132784187Y-77744501D01*
X132765999Y-77618000D01*
X132784187Y-77491499D01*
X132837279Y-77375247D01*
X132844593Y-77363864D01*
X132854216Y-77351011D01*
X132981074Y-77118689D01*
X133073577Y-76870678D01*
X133129843Y-76612026D01*
X133148727Y-76348000D01*
X133129843Y-76083974D01*
X133073577Y-75825322D01*
X132981074Y-75577311D01*
X132854216Y-75344989D01*
X132844603Y-75332148D01*
X132837277Y-75320748D01*
X132784186Y-75204496D01*
X132765999Y-75077995D01*
X132784189Y-74951495D01*
X132837281Y-74835243D01*
X132844591Y-74823867D01*
X132854216Y-74811011D01*
X132981074Y-74578689D01*
X133073577Y-74330678D01*
X133129843Y-74072026D01*
X133148727Y-73808000D01*
X133129843Y-73543974D01*
X133073577Y-73285322D01*
X132981074Y-73037311D01*
X132854216Y-72804989D01*
X132695587Y-72593085D01*
X132508415Y-72405913D01*
X132479058Y-72383937D01*
X132309351Y-72256896D01*
X132309352Y-72256896D01*
X132296511Y-72247284D01*
X132282437Y-72239599D01*
X132282434Y-72239597D01*
X132078263Y-72128111D01*
X132078262Y-72128110D01*
X132064189Y-72120426D01*
X131816178Y-72027923D01*
X131800510Y-72024514D01*
X131800501Y-72024512D01*
X131573199Y-71975066D01*
X131573193Y-71975065D01*
X131557526Y-71971657D01*
X131541536Y-71970513D01*
X131541527Y-71970512D01*
X131309495Y-71953917D01*
X131293500Y-71952773D01*
X131277505Y-71953917D01*
X131045472Y-71970512D01*
X131045461Y-71970513D01*
X131029474Y-71971657D01*
X131013808Y-71975064D01*
X131013800Y-71975066D01*
X130786498Y-72024512D01*
X130786486Y-72024515D01*
X130770822Y-72027923D01*
X130755795Y-72033527D01*
X130755794Y-72033528D01*
X130537832Y-72114823D01*
X130537826Y-72114825D01*
X130522811Y-72120426D01*
X130508742Y-72128108D01*
X130508736Y-72128111D01*
X130304561Y-72239599D01*
X130304549Y-72239606D01*
X130290489Y-72247284D01*
X130277656Y-72256890D01*
X130266247Y-72264223D01*
X130149998Y-72317312D01*
X130023500Y-72335500D01*
X129897002Y-72317312D01*
X129780753Y-72264223D01*
X129769345Y-72256891D01*
X129756511Y-72247284D01*
X129742443Y-72239602D01*
X129742438Y-72239599D01*
X129538263Y-72128111D01*
X129538262Y-72128110D01*
X129524189Y-72120426D01*
X129276178Y-72027923D01*
X129260510Y-72024514D01*
X129260501Y-72024512D01*
X129033199Y-71975066D01*
X129033193Y-71975065D01*
X129017526Y-71971657D01*
X129001536Y-71970513D01*
X129001527Y-71970512D01*
X128769495Y-71953917D01*
X128753500Y-71952773D01*
X128737505Y-71953917D01*
X128505472Y-71970512D01*
X128505461Y-71970513D01*
X128489474Y-71971657D01*
X128473808Y-71975064D01*
X128473800Y-71975066D01*
X128246498Y-72024512D01*
X128246486Y-72024515D01*
X128230822Y-72027923D01*
X128215795Y-72033527D01*
X128215794Y-72033528D01*
X127997832Y-72114823D01*
X127997826Y-72114825D01*
X127982811Y-72120426D01*
X127968742Y-72128108D01*
X127968736Y-72128111D01*
X127750489Y-72247284D01*
X127749512Y-72245495D01*
X127653568Y-72289312D01*
X127527069Y-72307500D01*
X123313039Y-72307500D01*
X123291229Y-72306146D01*
X123291206Y-72306708D01*
X123272652Y-72305940D01*
X123254221Y-72303643D01*
X123235666Y-72304410D01*
X123235656Y-72304410D01*
X123170249Y-72307116D01*
X123151695Y-72307500D01*
X123129933Y-72307500D01*
X123120700Y-72308264D01*
X123120674Y-72308266D01*
X123108223Y-72309298D01*
X123089732Y-72310445D01*
X123024321Y-72313151D01*
X123024316Y-72313151D01*
X123005763Y-72313919D01*
X122987591Y-72317728D01*
X122975081Y-72319288D01*
X122962668Y-72321359D01*
X122944179Y-72322892D01*
X122926190Y-72327447D01*
X122926185Y-72327448D01*
X122862718Y-72343519D01*
X122844655Y-72347698D01*
X122780564Y-72361137D01*
X122780550Y-72361141D01*
X122762386Y-72364950D01*
X122745093Y-72371697D01*
X122733030Y-72375289D01*
X122721113Y-72379379D01*
X122703119Y-72383937D01*
X122686116Y-72391394D01*
X122686113Y-72391396D01*
X122626156Y-72417695D01*
X122609021Y-72424792D01*
X122548018Y-72448596D01*
X122548009Y-72448600D01*
X122530727Y-72455344D01*
X122514794Y-72464837D01*
X122503490Y-72470363D01*
X122492387Y-72476371D01*
X122475393Y-72483827D01*
X122459850Y-72493981D01*
X122459849Y-72493982D01*
X122405045Y-72529786D01*
X122389318Y-72539603D01*
X122333053Y-72573130D01*
X122333040Y-72573139D01*
X122317106Y-72582634D01*
X122302945Y-72594626D01*
X122292703Y-72601940D01*
X122282754Y-72609683D01*
X122267215Y-72619836D01*
X122253563Y-72632402D01*
X122253548Y-72632415D01*
X122205380Y-72676757D01*
X122191487Y-72689026D01*
X122181968Y-72697088D01*
X122181947Y-72697106D01*
X122174874Y-72703098D01*
X122168309Y-72709661D01*
X122168301Y-72709670D01*
X122159468Y-72718502D01*
X122146104Y-72731324D01*
X122097925Y-72775677D01*
X122097918Y-72775684D01*
X122084262Y-72788256D01*
X122072859Y-72802905D01*
X122060281Y-72816569D01*
X122059868Y-72816189D01*
X122045401Y-72832569D01*
X114524569Y-80353401D01*
X114508189Y-80367868D01*
X114508569Y-80368281D01*
X114494905Y-80380859D01*
X114480256Y-80392262D01*
X114467684Y-80405918D01*
X114467677Y-80405925D01*
X114423324Y-80454104D01*
X114410502Y-80467468D01*
X114401670Y-80476301D01*
X114401661Y-80476309D01*
X114395098Y-80482874D01*
X114389106Y-80489947D01*
X114389088Y-80489968D01*
X114381026Y-80499487D01*
X114368757Y-80513380D01*
X114324415Y-80561548D01*
X114324402Y-80561563D01*
X114311836Y-80575215D01*
X114301685Y-80590751D01*
X114293945Y-80600696D01*
X114286628Y-80610943D01*
X114274634Y-80625106D01*
X114265133Y-80641049D01*
X114265126Y-80641060D01*
X114231601Y-80697320D01*
X114221785Y-80713046D01*
X114185978Y-80767854D01*
X114185973Y-80767861D01*
X114175827Y-80783393D01*
X114168372Y-80800387D01*
X114162371Y-80811477D01*
X114156845Y-80822780D01*
X114147344Y-80838726D01*
X114140596Y-80856016D01*
X114140592Y-80856027D01*
X114116791Y-80917022D01*
X114109696Y-80934151D01*
X114083395Y-80994112D01*
X114083388Y-80994130D01*
X114075937Y-81011119D01*
X114071381Y-81029107D01*
X114067300Y-81040996D01*
X114063699Y-81053089D01*
X114056951Y-81070386D01*
X114053140Y-81088556D01*
X114053138Y-81088566D01*
X114039700Y-81152650D01*
X114035520Y-81170717D01*
X114019450Y-81234177D01*
X114019448Y-81234183D01*
X114014892Y-81252179D01*
X114013359Y-81270673D01*
X114011286Y-81283096D01*
X114009728Y-81295595D01*
X114005919Y-81313763D01*
X114005151Y-81332310D01*
X114005151Y-81332317D01*
X114002445Y-81397732D01*
X114001298Y-81416223D01*
X114000266Y-81428674D01*
X114000264Y-81428700D01*
X113999500Y-81437933D01*
X113999500Y-81447222D01*
X113999500Y-81459695D01*
X113999116Y-81478249D01*
X113996410Y-81543656D01*
X113996410Y-81543666D01*
X113995643Y-81562221D01*
X113997940Y-81580652D01*
X113998708Y-81599206D01*
X113998146Y-81599229D01*
X113999500Y-81621039D01*
X113999500Y-126867879D01*
X113982465Y-126990384D01*
X113932651Y-127103594D01*
X113853840Y-127198917D01*
X113752010Y-127269120D01*
X113508887Y-127391220D01*
X113508872Y-127391228D01*
X113497207Y-127397087D01*
X113486301Y-127404259D01*
X113486294Y-127404264D01*
X113216097Y-127581976D01*
X113216089Y-127581981D01*
X113205189Y-127589151D01*
X113195193Y-127597538D01*
X113195183Y-127597546D01*
X112947452Y-127805417D01*
X112947445Y-127805422D01*
X112937442Y-127813817D01*
X112928489Y-127823306D01*
X112928479Y-127823316D01*
X112706552Y-128058544D01*
X112706538Y-128058559D01*
X112697588Y-128068047D01*
X112689790Y-128078520D01*
X112689782Y-128078531D01*
X112496675Y-128337919D01*
X112496668Y-128337928D01*
X112488870Y-128348404D01*
X112482346Y-128359703D01*
X112482338Y-128359716D01*
X112320639Y-128639787D01*
X112320630Y-128639803D01*
X112314111Y-128651096D01*
X112308942Y-128663078D01*
X112308937Y-128663089D01*
X112180852Y-128960023D01*
X112180847Y-128960036D01*
X112175674Y-128972029D01*
X112171926Y-128984545D01*
X112171923Y-128984556D01*
X112079177Y-129294348D01*
X112079173Y-129294364D01*
X112075431Y-129306864D01*
X112014738Y-129651073D01*
X112013978Y-129664109D01*
X112013977Y-129664124D01*
X111995786Y-129976453D01*
X111994415Y-130000000D01*
X111995175Y-130013048D01*
X112013977Y-130335875D01*
X112013978Y-130335888D01*
X112014738Y-130348927D01*
X112075431Y-130693136D01*
X112079174Y-130705639D01*
X112079177Y-130705651D01*
X112171923Y-131015443D01*
X112175674Y-131027971D01*
X112314111Y-131348904D01*
X112320634Y-131360203D01*
X112320639Y-131360212D01*
X112482338Y-131640283D01*
X112488870Y-131651596D01*
X112496674Y-131662079D01*
X112496675Y-131662080D01*
X112546374Y-131728838D01*
X112697588Y-131931953D01*
X112706546Y-131941448D01*
X112706552Y-131941455D01*
X112928479Y-132176683D01*
X112937442Y-132186183D01*
X113205189Y-132410849D01*
X113497207Y-132602913D01*
X113809549Y-132759777D01*
X114137989Y-132879319D01*
X114478086Y-132959923D01*
X114825241Y-133000500D01*
X115161701Y-133000500D01*
X115174759Y-133000500D01*
X115521914Y-132959923D01*
X115862011Y-132879319D01*
X116190451Y-132759777D01*
X116502793Y-132602913D01*
X116794811Y-132410849D01*
X117062558Y-132186183D01*
X117302412Y-131931953D01*
X117511130Y-131651596D01*
X117685889Y-131348904D01*
X117824326Y-131027971D01*
X117924569Y-130693136D01*
X117985262Y-130348927D01*
X118005585Y-130000000D01*
X117985262Y-129651073D01*
X117924569Y-129306864D01*
X117824326Y-128972029D01*
X117685889Y-128651096D01*
X117511130Y-128348404D01*
X117302412Y-128068047D01*
X117293452Y-128058550D01*
X117293447Y-128058544D01*
X117122909Y-127877785D01*
X117056374Y-127786580D01*
X117014693Y-127681661D01*
X117000500Y-127569662D01*
X117000500Y-127516399D01*
X118196441Y-127516399D01*
X118216758Y-127535787D01*
X118337819Y-127621684D01*
X118359137Y-127635080D01*
X118641813Y-127791310D01*
X118664479Y-127802225D01*
X118962879Y-127925826D01*
X118986629Y-127934137D01*
X119296994Y-128023551D01*
X119321518Y-128029149D01*
X119639947Y-128083252D01*
X119664932Y-128086067D01*
X119987429Y-128104179D01*
X120012571Y-128104179D01*
X120335067Y-128086067D01*
X120360052Y-128083252D01*
X120678481Y-128029149D01*
X120703005Y-128023551D01*
X121013370Y-127934137D01*
X121037120Y-127925826D01*
X121335520Y-127802225D01*
X121358186Y-127791310D01*
X121640870Y-127635075D01*
X121662174Y-127621689D01*
X121783240Y-127535788D01*
X121803557Y-127516399D01*
X121786775Y-127493882D01*
X120020812Y-125727919D01*
X120000000Y-125711949D01*
X119979187Y-125727919D01*
X118213223Y-127493882D01*
X118196441Y-127516399D01*
X117000500Y-127516399D01*
X117000500Y-127256978D01*
X117014645Y-127145167D01*
X117056187Y-127040401D01*
X117122510Y-126949280D01*
X117209434Y-126877545D01*
X117311484Y-126829716D01*
X117422230Y-126808807D01*
X117481384Y-126805207D01*
X117506116Y-126786775D01*
X119272080Y-125020812D01*
X119288050Y-125000000D01*
X120711949Y-125000000D01*
X120727919Y-125020812D01*
X122493882Y-126786775D01*
X122516399Y-126803557D01*
X122535788Y-126783240D01*
X122621689Y-126662174D01*
X122635075Y-126640870D01*
X122791310Y-126358186D01*
X122802225Y-126335520D01*
X122925826Y-126037120D01*
X122934137Y-126013370D01*
X123023551Y-125703005D01*
X123029149Y-125678481D01*
X123083252Y-125360052D01*
X123086067Y-125335067D01*
X123104179Y-125012571D01*
X123104179Y-124987429D01*
X123086067Y-124664932D01*
X123083252Y-124639947D01*
X123029149Y-124321518D01*
X123023551Y-124296994D01*
X122934137Y-123986629D01*
X122925826Y-123962879D01*
X122802225Y-123664479D01*
X122791310Y-123641813D01*
X122635080Y-123359137D01*
X122621684Y-123337819D01*
X122535787Y-123216758D01*
X122516399Y-123196441D01*
X122493882Y-123213223D01*
X120727919Y-124979187D01*
X120711949Y-125000000D01*
X119288050Y-125000000D01*
X119272080Y-124979187D01*
X117506116Y-123213223D01*
X117481384Y-123194791D01*
X117422230Y-123191192D01*
X117311484Y-123170283D01*
X117209434Y-123122454D01*
X117122510Y-123050719D01*
X117056187Y-122959598D01*
X117014644Y-122854832D01*
X117000500Y-122743021D01*
X117000500Y-122483599D01*
X118196441Y-122483599D01*
X118213223Y-122506116D01*
X119979187Y-124272080D01*
X120000000Y-124288050D01*
X120020812Y-124272080D01*
X121786775Y-122506116D01*
X121803557Y-122483599D01*
X121783240Y-122464211D01*
X121662181Y-122378315D01*
X121640862Y-122364919D01*
X121358186Y-122208689D01*
X121335520Y-122197774D01*
X121037120Y-122074173D01*
X121013370Y-122065862D01*
X120703005Y-121976448D01*
X120678481Y-121970850D01*
X120360052Y-121916747D01*
X120335067Y-121913932D01*
X120012571Y-121895821D01*
X119987429Y-121895821D01*
X119664932Y-121913932D01*
X119639947Y-121916747D01*
X119321518Y-121970850D01*
X119296994Y-121976448D01*
X118986629Y-122065862D01*
X118962879Y-122074173D01*
X118664479Y-122197774D01*
X118641813Y-122208689D01*
X118359124Y-122364926D01*
X118337832Y-122378305D01*
X118216757Y-122464212D01*
X118196441Y-122483599D01*
X117000500Y-122483599D01*
X117000500Y-108649147D01*
X127050001Y-108649147D01*
X127050854Y-108668700D01*
X127063722Y-108815795D01*
X127070503Y-108854253D01*
X127121496Y-109044561D01*
X127134852Y-109081254D01*
X127218117Y-109259818D01*
X127237639Y-109293629D01*
X127350648Y-109455023D01*
X127375750Y-109484938D01*
X127515061Y-109624249D01*
X127544976Y-109649351D01*
X127706370Y-109762360D01*
X127740181Y-109781882D01*
X127918745Y-109865147D01*
X127955438Y-109878503D01*
X128145749Y-109929496D01*
X128184206Y-109936277D01*
X128331298Y-109949146D01*
X128350845Y-109950000D01*
X128470571Y-109950000D01*
X128496576Y-109946576D01*
X128500000Y-109920571D01*
X128500000Y-108529429D01*
X128496576Y-108503423D01*
X128470571Y-108500000D01*
X127079430Y-108500000D01*
X127053424Y-108503423D01*
X127050001Y-108529429D01*
X127050001Y-108649147D01*
X117000500Y-108649147D01*
X117000500Y-84617147D01*
X126803501Y-84617147D01*
X126804354Y-84636700D01*
X126817222Y-84783795D01*
X126824003Y-84822253D01*
X126874996Y-85012561D01*
X126888352Y-85049254D01*
X126971617Y-85227818D01*
X126991139Y-85261629D01*
X127104148Y-85423023D01*
X127129250Y-85452938D01*
X127268561Y-85592249D01*
X127298476Y-85617351D01*
X127459870Y-85730360D01*
X127493681Y-85749882D01*
X127672245Y-85833147D01*
X127708938Y-85846503D01*
X127899249Y-85897496D01*
X127937706Y-85904277D01*
X128084798Y-85917146D01*
X128104345Y-85918000D01*
X128224071Y-85918000D01*
X128250076Y-85914576D01*
X128253500Y-85888571D01*
X128253500Y-84497429D01*
X128250076Y-84471423D01*
X128224071Y-84468000D01*
X126832930Y-84468000D01*
X126806924Y-84471423D01*
X126803501Y-84497429D01*
X126803501Y-84617147D01*
X117000500Y-84617147D01*
X117000500Y-82307510D01*
X117015799Y-82191300D01*
X117060655Y-82083010D01*
X117132009Y-81990019D01*
X123682019Y-75440009D01*
X123775010Y-75368655D01*
X123883300Y-75323799D01*
X123999510Y-75308500D01*
X126528676Y-75308500D01*
X126660291Y-75328223D01*
X126780344Y-75385661D01*
X126878286Y-75475766D01*
X126945513Y-75590623D01*
X126976119Y-75720141D01*
X126967415Y-75852939D01*
X126917157Y-76083974D01*
X126916013Y-76099961D01*
X126916012Y-76099972D01*
X126899417Y-76332005D01*
X126898273Y-76348000D01*
X126899417Y-76363995D01*
X126916012Y-76596027D01*
X126916013Y-76596036D01*
X126917157Y-76612026D01*
X126920565Y-76627693D01*
X126920566Y-76627699D01*
X126970012Y-76855001D01*
X126970014Y-76855010D01*
X126973423Y-76870678D01*
X127065926Y-77118689D01*
X127073610Y-77132762D01*
X127073611Y-77132763D01*
X127185099Y-77336938D01*
X127185102Y-77336943D01*
X127192784Y-77351011D01*
X127202391Y-77363845D01*
X127209723Y-77375253D01*
X127262812Y-77491502D01*
X127281000Y-77618000D01*
X127262812Y-77744498D01*
X127209723Y-77860747D01*
X127202390Y-77872156D01*
X127192784Y-77884989D01*
X127185106Y-77899049D01*
X127185099Y-77899061D01*
X127073611Y-78103236D01*
X127073608Y-78103242D01*
X127065926Y-78117311D01*
X126973423Y-78365322D01*
X126970015Y-78380986D01*
X126970012Y-78380998D01*
X126920566Y-78608300D01*
X126920564Y-78608308D01*
X126917157Y-78623974D01*
X126916013Y-78639961D01*
X126916012Y-78639972D01*
X126899417Y-78872005D01*
X126898273Y-78888000D01*
X126899417Y-78903995D01*
X126916012Y-79136027D01*
X126916013Y-79136036D01*
X126917157Y-79152026D01*
X126920565Y-79167693D01*
X126920566Y-79167699D01*
X126970012Y-79395001D01*
X126970014Y-79395010D01*
X126973423Y-79410678D01*
X127065926Y-79658689D01*
X127073610Y-79672762D01*
X127073611Y-79672763D01*
X127185099Y-79876938D01*
X127185102Y-79876943D01*
X127192784Y-79891011D01*
X127202391Y-79903845D01*
X127209723Y-79915253D01*
X127262812Y-80031502D01*
X127281000Y-80158000D01*
X127262812Y-80284498D01*
X127209723Y-80400747D01*
X127202390Y-80412156D01*
X127192784Y-80424989D01*
X127185106Y-80439049D01*
X127185099Y-80439061D01*
X127073611Y-80643236D01*
X127073608Y-80643242D01*
X127065926Y-80657311D01*
X127060325Y-80672326D01*
X127060323Y-80672332D01*
X127018900Y-80783393D01*
X126973423Y-80905322D01*
X126970015Y-80920986D01*
X126970012Y-80920998D01*
X126920566Y-81148300D01*
X126920564Y-81148308D01*
X126917157Y-81163974D01*
X126916013Y-81179961D01*
X126916012Y-81179972D01*
X126900438Y-81397732D01*
X126898273Y-81428000D01*
X126899417Y-81443995D01*
X126916012Y-81676027D01*
X126916013Y-81676036D01*
X126917157Y-81692026D01*
X126920565Y-81707693D01*
X126920566Y-81707699D01*
X126970012Y-81935001D01*
X126970014Y-81935010D01*
X126973423Y-81950678D01*
X127002729Y-82029251D01*
X127060327Y-82183679D01*
X127060330Y-82183685D01*
X127063341Y-82191758D01*
X127065926Y-82198689D01*
X127065520Y-82198840D01*
X127096153Y-82298403D01*
X127100650Y-82414642D01*
X127075134Y-82528135D01*
X127021320Y-82631264D01*
X126991145Y-82674359D01*
X126971617Y-82708181D01*
X126888352Y-82886745D01*
X126874996Y-82923438D01*
X126824003Y-83113749D01*
X126817222Y-83152206D01*
X126804353Y-83299298D01*
X126803500Y-83318845D01*
X126803500Y-83438571D01*
X126806923Y-83464576D01*
X126832929Y-83468000D01*
X128804500Y-83468000D01*
X128920710Y-83483299D01*
X129029000Y-83528155D01*
X129121991Y-83599509D01*
X129193345Y-83692500D01*
X129238201Y-83800790D01*
X129253500Y-83917000D01*
X129253500Y-85888570D01*
X129256923Y-85914575D01*
X129282929Y-85917999D01*
X129402646Y-85917999D01*
X129422200Y-85917145D01*
X129569295Y-85904277D01*
X129607753Y-85897496D01*
X129798061Y-85846503D01*
X129834754Y-85833147D01*
X130013318Y-85749882D01*
X130047131Y-85730359D01*
X130090227Y-85700184D01*
X130193360Y-85646366D01*
X130306858Y-85620849D01*
X130423102Y-85625347D01*
X130522659Y-85655980D01*
X130522811Y-85655574D01*
X130770822Y-85748077D01*
X131029474Y-85804343D01*
X131293500Y-85823227D01*
X131557526Y-85804343D01*
X131816178Y-85748077D01*
X131831213Y-85742469D01*
X131846587Y-85737955D01*
X131846979Y-85739291D01*
X131896763Y-85725634D01*
X131976484Y-85718500D01*
X132556937Y-85718500D01*
X132673147Y-85733799D01*
X132781437Y-85778655D01*
X132874428Y-85850009D01*
X134117991Y-87093572D01*
X134189345Y-87186563D01*
X134234201Y-87294853D01*
X134249500Y-87411063D01*
X134249500Y-97413500D01*
X134230398Y-97543071D01*
X134174718Y-97661617D01*
X134087197Y-97759051D01*
X133975282Y-97827085D01*
X133925423Y-97840000D01*
X133975282Y-97852915D01*
X134087197Y-97920949D01*
X134174718Y-98018383D01*
X134230398Y-98136929D01*
X134249500Y-98266500D01*
X134249500Y-99953500D01*
X134230398Y-100083071D01*
X134174718Y-100201617D01*
X134087197Y-100299051D01*
X133975282Y-100367085D01*
X133925423Y-100380000D01*
X133975282Y-100392915D01*
X134087197Y-100460949D01*
X134174718Y-100558383D01*
X134230398Y-100676929D01*
X134249500Y-100806500D01*
X134249500Y-102493500D01*
X134230398Y-102623071D01*
X134174718Y-102741617D01*
X134087197Y-102839051D01*
X133975282Y-102907085D01*
X133925423Y-102920000D01*
X133975282Y-102932915D01*
X134087197Y-103000949D01*
X134174718Y-103098383D01*
X134230398Y-103216929D01*
X134249500Y-103346500D01*
X134249500Y-105033500D01*
X134230398Y-105163071D01*
X134174718Y-105281617D01*
X134087197Y-105379051D01*
X133975282Y-105447085D01*
X133848496Y-105479927D01*
X133717626Y-105474785D01*
X133593807Y-105432096D01*
X133487575Y-105355492D01*
X133407968Y-105251491D01*
X133361761Y-105128941D01*
X133323487Y-104952998D01*
X133320077Y-104937322D01*
X133227574Y-104689311D01*
X133100716Y-104456989D01*
X133091095Y-104444136D01*
X133083779Y-104432753D01*
X133030687Y-104316501D01*
X133012499Y-104190000D01*
X133030687Y-104063499D01*
X133083779Y-103947247D01*
X133091093Y-103935864D01*
X133100716Y-103923011D01*
X133227574Y-103690689D01*
X133320077Y-103442678D01*
X133361760Y-103251059D01*
X133407968Y-103128509D01*
X133487575Y-103024508D01*
X133593807Y-102947904D01*
X133674742Y-102920000D01*
X133593807Y-102892096D01*
X133487575Y-102815492D01*
X133407968Y-102711491D01*
X133361761Y-102588941D01*
X133323487Y-102412998D01*
X133320077Y-102397322D01*
X133227574Y-102149311D01*
X133100716Y-101916989D01*
X133091103Y-101904148D01*
X133083777Y-101892748D01*
X133030686Y-101776496D01*
X133012499Y-101649995D01*
X133030689Y-101523495D01*
X133083781Y-101407243D01*
X133091091Y-101395867D01*
X133100716Y-101383011D01*
X133227574Y-101150689D01*
X133320077Y-100902678D01*
X133361760Y-100711059D01*
X133407968Y-100588509D01*
X133487575Y-100484508D01*
X133593807Y-100407904D01*
X133674742Y-100380000D01*
X133593807Y-100352096D01*
X133487575Y-100275492D01*
X133407968Y-100171491D01*
X133361761Y-100048941D01*
X133323487Y-99872998D01*
X133320077Y-99857322D01*
X133227574Y-99609311D01*
X133100716Y-99376989D01*
X133091103Y-99364148D01*
X133083777Y-99352748D01*
X133030686Y-99236496D01*
X133012499Y-99109995D01*
X133030689Y-98983495D01*
X133083781Y-98867243D01*
X133091091Y-98855867D01*
X133100716Y-98843011D01*
X133227574Y-98610689D01*
X133320077Y-98362678D01*
X133361760Y-98171059D01*
X133407968Y-98048509D01*
X133487575Y-97944508D01*
X133593807Y-97867904D01*
X133674742Y-97840000D01*
X133593807Y-97812096D01*
X133487575Y-97735492D01*
X133407968Y-97631491D01*
X133361761Y-97508941D01*
X133323487Y-97332998D01*
X133320077Y-97317322D01*
X133227574Y-97069311D01*
X133100716Y-96836989D01*
X132942087Y-96625085D01*
X132754915Y-96437913D01*
X132543011Y-96279284D01*
X132528937Y-96271599D01*
X132528934Y-96271597D01*
X132324763Y-96160111D01*
X132324762Y-96160110D01*
X132310689Y-96152426D01*
X132062678Y-96059923D01*
X132047010Y-96056514D01*
X132047001Y-96056512D01*
X131819699Y-96007066D01*
X131819693Y-96007065D01*
X131804026Y-96003657D01*
X131788036Y-96002513D01*
X131788027Y-96002512D01*
X131555995Y-95985917D01*
X131540000Y-95984773D01*
X131524005Y-95985917D01*
X131291972Y-96002512D01*
X131291961Y-96002513D01*
X131275974Y-96003657D01*
X131260308Y-96007064D01*
X131260300Y-96007066D01*
X131032998Y-96056512D01*
X131032986Y-96056515D01*
X131017322Y-96059923D01*
X131002295Y-96065527D01*
X131002294Y-96065528D01*
X130784332Y-96146823D01*
X130784326Y-96146825D01*
X130769311Y-96152426D01*
X130755242Y-96160108D01*
X130755236Y-96160111D01*
X130551061Y-96271599D01*
X130551049Y-96271606D01*
X130536989Y-96279284D01*
X130524156Y-96288890D01*
X130512747Y-96296223D01*
X130396498Y-96349312D01*
X130270000Y-96367500D01*
X130143502Y-96349312D01*
X130027253Y-96296223D01*
X130015845Y-96288891D01*
X130003011Y-96279284D01*
X129988943Y-96271602D01*
X129988938Y-96271599D01*
X129784763Y-96160111D01*
X129784762Y-96160110D01*
X129770689Y-96152426D01*
X129522678Y-96059923D01*
X129507010Y-96056514D01*
X129507001Y-96056512D01*
X129279699Y-96007066D01*
X129279693Y-96007065D01*
X129264026Y-96003657D01*
X129248036Y-96002513D01*
X129248027Y-96002512D01*
X129015995Y-95985917D01*
X129000000Y-95984773D01*
X128984005Y-95985917D01*
X128751972Y-96002512D01*
X128751961Y-96002513D01*
X128735974Y-96003657D01*
X128720308Y-96007064D01*
X128720300Y-96007066D01*
X128492998Y-96056512D01*
X128492986Y-96056515D01*
X128477322Y-96059923D01*
X128462295Y-96065527D01*
X128462294Y-96065528D01*
X128244332Y-96146823D01*
X128244326Y-96146825D01*
X128229311Y-96152426D01*
X128215242Y-96160108D01*
X128215236Y-96160111D01*
X128011065Y-96271597D01*
X128011055Y-96271602D01*
X127996989Y-96279284D01*
X127984153Y-96288892D01*
X127984148Y-96288896D01*
X127797928Y-96428298D01*
X127797920Y-96428304D01*
X127785085Y-96437913D01*
X127773749Y-96449248D01*
X127773742Y-96449255D01*
X127609255Y-96613742D01*
X127609248Y-96613749D01*
X127597913Y-96625085D01*
X127588304Y-96637920D01*
X127588298Y-96637928D01*
X127448896Y-96824148D01*
X127448892Y-96824153D01*
X127439284Y-96836989D01*
X127431602Y-96851055D01*
X127431597Y-96851065D01*
X127320111Y-97055236D01*
X127320108Y-97055242D01*
X127312426Y-97069311D01*
X127219923Y-97317322D01*
X127216515Y-97332986D01*
X127216512Y-97332998D01*
X127167066Y-97560300D01*
X127167064Y-97560308D01*
X127163657Y-97575974D01*
X127162513Y-97591961D01*
X127162512Y-97591972D01*
X127150563Y-97759051D01*
X127144773Y-97840000D01*
X127145917Y-97855995D01*
X127162512Y-98088027D01*
X127162513Y-98088036D01*
X127163657Y-98104026D01*
X127167065Y-98119693D01*
X127167066Y-98119699D01*
X127216512Y-98347001D01*
X127216514Y-98347010D01*
X127219923Y-98362678D01*
X127312426Y-98610689D01*
X127439284Y-98843011D01*
X127448899Y-98855856D01*
X127456221Y-98867248D01*
X127509311Y-98983497D01*
X127527500Y-99109995D01*
X127509314Y-99236493D01*
X127456225Y-99352743D01*
X127448887Y-99364159D01*
X127439284Y-99376989D01*
X127431604Y-99391053D01*
X127431600Y-99391060D01*
X127320111Y-99595236D01*
X127320108Y-99595242D01*
X127312426Y-99609311D01*
X127219923Y-99857322D01*
X127216515Y-99872986D01*
X127216512Y-99872998D01*
X127167066Y-100100300D01*
X127167064Y-100100308D01*
X127163657Y-100115974D01*
X127162513Y-100131961D01*
X127162512Y-100131972D01*
X127150563Y-100299051D01*
X127144773Y-100380000D01*
X127145917Y-100395995D01*
X127162512Y-100628027D01*
X127162513Y-100628036D01*
X127163657Y-100644026D01*
X127167065Y-100659693D01*
X127167066Y-100659699D01*
X127216512Y-100887001D01*
X127216514Y-100887010D01*
X127219923Y-100902678D01*
X127312426Y-101150689D01*
X127320110Y-101164762D01*
X127320111Y-101164763D01*
X127431599Y-101368938D01*
X127431602Y-101368943D01*
X127439284Y-101383011D01*
X127448891Y-101395845D01*
X127456223Y-101407253D01*
X127509312Y-101523502D01*
X127527500Y-101650000D01*
X127509312Y-101776498D01*
X127456223Y-101892747D01*
X127448890Y-101904156D01*
X127439284Y-101916989D01*
X127431606Y-101931049D01*
X127431599Y-101931061D01*
X127320111Y-102135236D01*
X127320108Y-102135242D01*
X127312426Y-102149311D01*
X127219923Y-102397322D01*
X127216515Y-102412986D01*
X127216512Y-102412998D01*
X127167066Y-102640300D01*
X127167064Y-102640308D01*
X127163657Y-102655974D01*
X127162513Y-102671961D01*
X127162512Y-102671972D01*
X127150563Y-102839051D01*
X127144773Y-102920000D01*
X127145917Y-102935995D01*
X127162512Y-103168027D01*
X127162513Y-103168036D01*
X127163657Y-103184026D01*
X127167065Y-103199693D01*
X127167066Y-103199699D01*
X127216512Y-103427001D01*
X127216514Y-103427010D01*
X127219923Y-103442678D01*
X127312426Y-103690689D01*
X127320110Y-103704762D01*
X127320111Y-103704763D01*
X127431599Y-103908938D01*
X127431602Y-103908943D01*
X127439284Y-103923011D01*
X127448891Y-103935845D01*
X127456223Y-103947253D01*
X127509312Y-104063502D01*
X127527500Y-104190000D01*
X127509312Y-104316498D01*
X127456223Y-104432747D01*
X127448890Y-104444156D01*
X127439284Y-104456989D01*
X127431606Y-104471049D01*
X127431599Y-104471061D01*
X127320111Y-104675236D01*
X127320108Y-104675242D01*
X127312426Y-104689311D01*
X127219923Y-104937322D01*
X127216515Y-104952986D01*
X127216512Y-104952998D01*
X127167066Y-105180300D01*
X127167064Y-105180308D01*
X127163657Y-105195974D01*
X127162513Y-105211961D01*
X127162512Y-105211972D01*
X127150563Y-105379051D01*
X127144773Y-105460000D01*
X127145917Y-105475995D01*
X127162512Y-105708027D01*
X127162513Y-105708036D01*
X127163657Y-105724026D01*
X127167065Y-105739693D01*
X127167066Y-105739699D01*
X127216512Y-105967001D01*
X127216514Y-105967010D01*
X127219923Y-105982678D01*
X127225528Y-105997705D01*
X127306827Y-106215679D01*
X127306830Y-106215685D01*
X127309841Y-106223758D01*
X127312426Y-106230689D01*
X127312020Y-106230840D01*
X127342653Y-106330403D01*
X127347150Y-106446642D01*
X127321634Y-106560135D01*
X127267820Y-106663264D01*
X127237645Y-106706359D01*
X127218117Y-106740181D01*
X127134852Y-106918745D01*
X127121496Y-106955438D01*
X127070503Y-107145749D01*
X127063722Y-107184206D01*
X127050853Y-107331298D01*
X127050000Y-107350845D01*
X127050000Y-107470571D01*
X127053423Y-107496576D01*
X127079429Y-107500000D01*
X129051000Y-107500000D01*
X129167210Y-107515299D01*
X129275500Y-107560155D01*
X129368491Y-107631509D01*
X129439845Y-107724500D01*
X129484701Y-107832790D01*
X129500000Y-107949000D01*
X129500000Y-109920570D01*
X129503423Y-109946575D01*
X129529429Y-109949999D01*
X129649146Y-109949999D01*
X129668700Y-109949145D01*
X129815795Y-109936277D01*
X129854253Y-109929496D01*
X130044561Y-109878503D01*
X130081254Y-109865147D01*
X130259818Y-109781882D01*
X130293631Y-109762359D01*
X130336727Y-109732184D01*
X130439860Y-109678366D01*
X130553358Y-109652849D01*
X130669602Y-109657347D01*
X130769159Y-109687980D01*
X130769311Y-109687574D01*
X131017322Y-109780077D01*
X131275974Y-109836343D01*
X131540000Y-109855227D01*
X131804026Y-109836343D01*
X132062678Y-109780077D01*
X132077713Y-109774469D01*
X132093087Y-109769955D01*
X132093479Y-109771291D01*
X132143263Y-109757634D01*
X132222984Y-109750500D01*
X133958870Y-109750500D01*
X133975659Y-109750813D01*
X134065636Y-109754181D01*
X134155125Y-109744097D01*
X134171814Y-109742531D01*
X134261630Y-109735802D01*
X134278025Y-109732059D01*
X134293858Y-109729673D01*
X134309636Y-109726687D01*
X134326350Y-109724805D01*
X134413348Y-109701493D01*
X134429606Y-109697462D01*
X134439389Y-109695228D01*
X134517416Y-109677420D01*
X134533062Y-109671278D01*
X134548374Y-109666556D01*
X134563534Y-109661251D01*
X134579775Y-109656900D01*
X134662337Y-109620877D01*
X134677792Y-109614476D01*
X134761643Y-109581568D01*
X134776206Y-109573159D01*
X134790674Y-109566192D01*
X134804846Y-109558701D01*
X134820247Y-109551983D01*
X134896514Y-109504060D01*
X134910878Y-109495406D01*
X134988857Y-109450386D01*
X135001999Y-109439904D01*
X135015267Y-109430859D01*
X135028162Y-109421341D01*
X135042397Y-109412398D01*
X135110675Y-109353637D01*
X135123549Y-109342970D01*
X135193981Y-109286805D01*
X135255221Y-109220802D01*
X135266844Y-109208735D01*
X137208735Y-107266844D01*
X137220809Y-107255215D01*
X137245110Y-107232668D01*
X137351920Y-107159115D01*
X137475297Y-107119158D01*
X137604948Y-107116129D01*
X137730056Y-107150281D01*
X137840185Y-107218765D01*
X137926147Y-107315868D01*
X137980771Y-107433489D01*
X137999500Y-107561815D01*
X137999500Y-127569662D01*
X137985307Y-127681661D01*
X137943626Y-127786580D01*
X137877091Y-127877785D01*
X137706552Y-128058544D01*
X137706538Y-128058559D01*
X137697588Y-128068047D01*
X137689790Y-128078520D01*
X137689782Y-128078531D01*
X137496675Y-128337919D01*
X137496668Y-128337928D01*
X137488870Y-128348404D01*
X137482346Y-128359703D01*
X137482338Y-128359716D01*
X137320639Y-128639787D01*
X137320630Y-128639803D01*
X137314111Y-128651096D01*
X137308942Y-128663078D01*
X137308937Y-128663089D01*
X137180852Y-128960023D01*
X137180847Y-128960036D01*
X137175674Y-128972029D01*
X137171926Y-128984545D01*
X137171923Y-128984556D01*
X137079177Y-129294348D01*
X137079173Y-129294364D01*
X137075431Y-129306864D01*
X137014738Y-129651073D01*
X137013978Y-129664109D01*
X137013977Y-129664124D01*
X136995786Y-129976453D01*
X136994415Y-130000000D01*
X136995175Y-130013048D01*
X137013977Y-130335875D01*
X137013978Y-130335888D01*
X137014738Y-130348927D01*
X137075431Y-130693136D01*
X137079174Y-130705639D01*
X137079177Y-130705651D01*
X137171923Y-131015443D01*
X137175674Y-131027971D01*
X137314111Y-131348904D01*
X137320634Y-131360203D01*
X137320639Y-131360212D01*
X137482338Y-131640283D01*
X137488870Y-131651596D01*
X137496674Y-131662079D01*
X137496675Y-131662080D01*
X137546374Y-131728838D01*
X137697588Y-131931953D01*
X137706546Y-131941448D01*
X137706552Y-131941455D01*
X137928479Y-132176683D01*
X137937442Y-132186183D01*
X138205189Y-132410849D01*
X138497207Y-132602913D01*
X138809549Y-132759777D01*
X139137989Y-132879319D01*
X139478086Y-132959923D01*
X139825241Y-133000500D01*
X140161701Y-133000500D01*
X140174759Y-133000500D01*
X140521914Y-132959923D01*
X140862011Y-132879319D01*
X141190451Y-132759777D01*
X141502793Y-132602913D01*
X141794811Y-132410849D01*
X142062558Y-132186183D01*
X142302412Y-131931953D01*
X142511130Y-131651596D01*
X142685889Y-131348904D01*
X142824326Y-131027971D01*
X142924569Y-130693136D01*
X142985262Y-130348927D01*
X143005585Y-130000000D01*
X161994415Y-130000000D01*
X161995175Y-130013048D01*
X162013977Y-130335875D01*
X162013978Y-130335888D01*
X162014738Y-130348927D01*
X162075431Y-130693136D01*
X162079174Y-130705639D01*
X162079177Y-130705651D01*
X162171923Y-131015443D01*
X162175674Y-131027971D01*
X162314111Y-131348904D01*
X162320634Y-131360203D01*
X162320639Y-131360212D01*
X162482338Y-131640283D01*
X162488870Y-131651596D01*
X162496674Y-131662079D01*
X162496675Y-131662080D01*
X162546374Y-131728838D01*
X162697588Y-131931953D01*
X162706546Y-131941448D01*
X162706552Y-131941455D01*
X162928479Y-132176683D01*
X162937442Y-132186183D01*
X163205189Y-132410849D01*
X163497207Y-132602913D01*
X163809549Y-132759777D01*
X164137989Y-132879319D01*
X164478086Y-132959923D01*
X164825241Y-133000500D01*
X165161701Y-133000500D01*
X165174759Y-133000500D01*
X165521914Y-132959923D01*
X165862011Y-132879319D01*
X166190451Y-132759777D01*
X166502793Y-132602913D01*
X166794811Y-132410849D01*
X167062558Y-132186183D01*
X167302412Y-131931953D01*
X167511130Y-131651596D01*
X167685889Y-131348904D01*
X167824326Y-131027971D01*
X167924569Y-130693136D01*
X167985262Y-130348927D01*
X168005585Y-130000000D01*
X167985262Y-129651073D01*
X167924569Y-129306864D01*
X167824326Y-128972029D01*
X167685889Y-128651096D01*
X167511130Y-128348404D01*
X167302412Y-128068047D01*
X167293452Y-128058550D01*
X167293447Y-128058544D01*
X167071520Y-127823316D01*
X167071518Y-127823314D01*
X167062558Y-127813817D01*
X166849541Y-127635075D01*
X166804816Y-127597546D01*
X166804814Y-127597544D01*
X166794811Y-127589151D01*
X166684197Y-127516399D01*
X168196441Y-127516399D01*
X168216758Y-127535787D01*
X168337819Y-127621684D01*
X168359137Y-127635080D01*
X168641813Y-127791310D01*
X168664479Y-127802225D01*
X168962879Y-127925826D01*
X168986629Y-127934137D01*
X169296994Y-128023551D01*
X169321518Y-128029149D01*
X169639947Y-128083252D01*
X169664932Y-128086067D01*
X169987429Y-128104179D01*
X170012571Y-128104179D01*
X170335067Y-128086067D01*
X170360052Y-128083252D01*
X170678481Y-128029149D01*
X170703005Y-128023551D01*
X171013370Y-127934137D01*
X171037120Y-127925826D01*
X171335520Y-127802225D01*
X171358186Y-127791310D01*
X171640870Y-127635075D01*
X171662174Y-127621689D01*
X171783240Y-127535788D01*
X171803557Y-127516399D01*
X171786775Y-127493882D01*
X170020812Y-125727919D01*
X170000000Y-125711949D01*
X169979187Y-125727919D01*
X168213223Y-127493882D01*
X168196441Y-127516399D01*
X166684197Y-127516399D01*
X166502793Y-127397087D01*
X166247990Y-127269120D01*
X166202126Y-127246086D01*
X166202120Y-127246083D01*
X166190451Y-127240223D01*
X166178175Y-127235755D01*
X166178173Y-127235754D01*
X165874287Y-127125149D01*
X165874285Y-127125148D01*
X165862011Y-127120681D01*
X165849304Y-127117669D01*
X165849296Y-127117667D01*
X165534624Y-127043089D01*
X165534618Y-127043088D01*
X165521914Y-127040077D01*
X165508955Y-127038562D01*
X165508942Y-127038560D01*
X165187728Y-127001015D01*
X165187713Y-127001014D01*
X165174759Y-126999500D01*
X164825241Y-126999500D01*
X164812287Y-127001014D01*
X164812271Y-127001015D01*
X164491057Y-127038560D01*
X164491041Y-127038562D01*
X164478086Y-127040077D01*
X164465383Y-127043087D01*
X164465375Y-127043089D01*
X164150703Y-127117667D01*
X164150691Y-127117670D01*
X164137989Y-127120681D01*
X164125718Y-127125146D01*
X164125712Y-127125149D01*
X163821826Y-127235754D01*
X163821817Y-127235757D01*
X163809549Y-127240223D01*
X163797885Y-127246080D01*
X163797873Y-127246086D01*
X163508880Y-127391224D01*
X163508872Y-127391228D01*
X163497207Y-127397087D01*
X163486301Y-127404259D01*
X163486294Y-127404264D01*
X163216097Y-127581976D01*
X163216089Y-127581981D01*
X163205189Y-127589151D01*
X163195193Y-127597538D01*
X163195183Y-127597546D01*
X162947452Y-127805417D01*
X162947445Y-127805422D01*
X162937442Y-127813817D01*
X162928489Y-127823306D01*
X162928479Y-127823316D01*
X162706552Y-128058544D01*
X162706538Y-128058559D01*
X162697588Y-128068047D01*
X162689790Y-128078520D01*
X162689782Y-128078531D01*
X162496675Y-128337919D01*
X162496668Y-128337928D01*
X162488870Y-128348404D01*
X162482346Y-128359703D01*
X162482338Y-128359716D01*
X162320639Y-128639787D01*
X162320630Y-128639803D01*
X162314111Y-128651096D01*
X162308942Y-128663078D01*
X162308937Y-128663089D01*
X162180852Y-128960023D01*
X162180847Y-128960036D01*
X162175674Y-128972029D01*
X162171926Y-128984545D01*
X162171923Y-128984556D01*
X162079177Y-129294348D01*
X162079173Y-129294364D01*
X162075431Y-129306864D01*
X162014738Y-129651073D01*
X162013978Y-129664109D01*
X162013977Y-129664124D01*
X161995786Y-129976453D01*
X161994415Y-130000000D01*
X143005585Y-130000000D01*
X142985262Y-129651073D01*
X142924569Y-129306864D01*
X142824326Y-128972029D01*
X142685889Y-128651096D01*
X142511130Y-128348404D01*
X142302412Y-128068047D01*
X142293452Y-128058550D01*
X142293447Y-128058544D01*
X142071520Y-127823316D01*
X142071518Y-127823314D01*
X142062558Y-127813817D01*
X141849541Y-127635075D01*
X141804816Y-127597546D01*
X141804814Y-127597544D01*
X141794811Y-127589151D01*
X141684197Y-127516399D01*
X143196441Y-127516399D01*
X143216758Y-127535787D01*
X143337819Y-127621684D01*
X143359137Y-127635080D01*
X143641813Y-127791310D01*
X143664479Y-127802225D01*
X143962879Y-127925826D01*
X143986629Y-127934137D01*
X144296994Y-128023551D01*
X144321518Y-128029149D01*
X144639947Y-128083252D01*
X144664932Y-128086067D01*
X144987429Y-128104179D01*
X145012571Y-128104179D01*
X145335067Y-128086067D01*
X145360052Y-128083252D01*
X145678481Y-128029149D01*
X145703005Y-128023551D01*
X146013370Y-127934137D01*
X146037120Y-127925826D01*
X146335520Y-127802225D01*
X146358186Y-127791310D01*
X146640870Y-127635075D01*
X146662174Y-127621689D01*
X146783240Y-127535788D01*
X146803557Y-127516399D01*
X146786775Y-127493882D01*
X145020812Y-125727919D01*
X145000000Y-125711949D01*
X144979187Y-125727919D01*
X143213223Y-127493882D01*
X143196441Y-127516399D01*
X141684197Y-127516399D01*
X141502793Y-127397087D01*
X141491119Y-127391224D01*
X141491112Y-127391220D01*
X141247990Y-127269120D01*
X141146160Y-127198917D01*
X141067349Y-127103594D01*
X141017535Y-126990384D01*
X141000500Y-126867879D01*
X141000500Y-125072880D01*
X141010788Y-124999999D01*
X141888305Y-124999999D01*
X141897794Y-125047704D01*
X141913932Y-125335067D01*
X141916747Y-125360052D01*
X141970850Y-125678481D01*
X141976448Y-125703005D01*
X142065862Y-126013370D01*
X142074173Y-126037120D01*
X142197774Y-126335520D01*
X142208689Y-126358186D01*
X142364919Y-126640862D01*
X142378315Y-126662181D01*
X142464211Y-126783240D01*
X142483599Y-126803557D01*
X142506116Y-126786775D01*
X144272080Y-125020812D01*
X144288050Y-125000000D01*
X145711949Y-125000000D01*
X145727919Y-125020812D01*
X147493882Y-126786775D01*
X147516399Y-126803557D01*
X147535788Y-126783240D01*
X147621689Y-126662174D01*
X147635075Y-126640870D01*
X147791310Y-126358186D01*
X147802225Y-126335520D01*
X147925826Y-126037120D01*
X147934137Y-126013370D01*
X148023551Y-125703005D01*
X148029149Y-125678481D01*
X148083252Y-125360052D01*
X148086067Y-125335067D01*
X148104179Y-125012571D01*
X166895821Y-125012571D01*
X166913932Y-125335067D01*
X166916747Y-125360052D01*
X166970850Y-125678481D01*
X166976448Y-125703005D01*
X167065862Y-126013370D01*
X167074173Y-126037120D01*
X167197774Y-126335520D01*
X167208689Y-126358186D01*
X167364919Y-126640862D01*
X167378315Y-126662181D01*
X167464211Y-126783240D01*
X167483599Y-126803557D01*
X167506116Y-126786775D01*
X169272080Y-125020812D01*
X169288050Y-125000000D01*
X170711949Y-125000000D01*
X170727919Y-125020812D01*
X172493882Y-126786775D01*
X172516399Y-126803557D01*
X172535788Y-126783240D01*
X172621689Y-126662174D01*
X172635075Y-126640870D01*
X172791310Y-126358186D01*
X172802225Y-126335520D01*
X172925826Y-126037120D01*
X172934137Y-126013370D01*
X173023551Y-125703005D01*
X173029149Y-125678481D01*
X173083252Y-125360052D01*
X173086067Y-125335067D01*
X173104179Y-125012571D01*
X173104179Y-124987429D01*
X173086067Y-124664932D01*
X173083252Y-124639947D01*
X173029149Y-124321518D01*
X173023551Y-124296994D01*
X172934137Y-123986629D01*
X172925826Y-123962879D01*
X172802225Y-123664479D01*
X172791310Y-123641813D01*
X172635080Y-123359137D01*
X172621684Y-123337819D01*
X172535787Y-123216758D01*
X172516399Y-123196441D01*
X172493882Y-123213223D01*
X170727919Y-124979187D01*
X170711949Y-125000000D01*
X169288050Y-125000000D01*
X169272080Y-124979187D01*
X167506116Y-123213223D01*
X167483599Y-123196441D01*
X167464212Y-123216757D01*
X167378305Y-123337832D01*
X167364926Y-123359124D01*
X167208689Y-123641813D01*
X167197774Y-123664479D01*
X167074173Y-123962879D01*
X167065862Y-123986629D01*
X166976448Y-124296994D01*
X166970850Y-124321518D01*
X166916747Y-124639947D01*
X166913932Y-124664932D01*
X166895821Y-124987429D01*
X166895821Y-125012571D01*
X148104179Y-125012571D01*
X148104179Y-124987429D01*
X148086067Y-124664932D01*
X148083252Y-124639947D01*
X148029149Y-124321518D01*
X148023551Y-124296994D01*
X147934137Y-123986629D01*
X147925826Y-123962879D01*
X147802225Y-123664479D01*
X147791310Y-123641813D01*
X147635080Y-123359137D01*
X147621684Y-123337819D01*
X147535787Y-123216758D01*
X147516399Y-123196441D01*
X147493882Y-123213223D01*
X145727919Y-124979187D01*
X145711949Y-125000000D01*
X144288050Y-125000000D01*
X144272080Y-124979187D01*
X142506116Y-123213223D01*
X142483599Y-123196441D01*
X142464212Y-123216757D01*
X142378305Y-123337832D01*
X142364926Y-123359124D01*
X142208689Y-123641813D01*
X142197774Y-123664479D01*
X142074173Y-123962879D01*
X142065862Y-123986629D01*
X141976448Y-124296994D01*
X141970850Y-124321518D01*
X141916747Y-124639947D01*
X141913932Y-124664932D01*
X141897794Y-124952296D01*
X141888305Y-124999999D01*
X141010788Y-124999999D01*
X141000500Y-124927120D01*
X141000500Y-122483599D01*
X143196441Y-122483599D01*
X143213223Y-122506116D01*
X144979187Y-124272080D01*
X145000000Y-124288050D01*
X145020812Y-124272080D01*
X146786775Y-122506116D01*
X146803557Y-122483599D01*
X168196441Y-122483599D01*
X168213223Y-122506116D01*
X169979187Y-124272080D01*
X170000000Y-124288050D01*
X170020812Y-124272080D01*
X171786775Y-122506116D01*
X171803557Y-122483599D01*
X171783240Y-122464211D01*
X171662181Y-122378315D01*
X171640862Y-122364919D01*
X171358186Y-122208689D01*
X171335520Y-122197774D01*
X171037120Y-122074173D01*
X171013370Y-122065862D01*
X170703005Y-121976448D01*
X170678481Y-121970850D01*
X170360052Y-121916747D01*
X170335067Y-121913932D01*
X170012571Y-121895821D01*
X169987429Y-121895821D01*
X169664932Y-121913932D01*
X169639947Y-121916747D01*
X169321518Y-121970850D01*
X169296994Y-121976448D01*
X168986629Y-122065862D01*
X168962879Y-122074173D01*
X168664479Y-122197774D01*
X168641813Y-122208689D01*
X168359124Y-122364926D01*
X168337832Y-122378305D01*
X168216757Y-122464212D01*
X168196441Y-122483599D01*
X146803557Y-122483599D01*
X146783240Y-122464211D01*
X146662181Y-122378315D01*
X146640862Y-122364919D01*
X146358186Y-122208689D01*
X146335520Y-122197774D01*
X146037120Y-122074173D01*
X146013370Y-122065862D01*
X145703005Y-121976448D01*
X145678481Y-121970850D01*
X145360052Y-121916747D01*
X145335067Y-121913932D01*
X145012571Y-121895821D01*
X144987429Y-121895821D01*
X144664932Y-121913932D01*
X144639947Y-121916747D01*
X144321518Y-121970850D01*
X144296994Y-121976448D01*
X143986629Y-122065862D01*
X143962879Y-122074173D01*
X143664479Y-122197774D01*
X143641813Y-122208689D01*
X143359124Y-122364926D01*
X143337832Y-122378305D01*
X143216757Y-122464212D01*
X143196441Y-122483599D01*
X141000500Y-122483599D01*
X141000500Y-111000000D01*
X150000000Y-111000000D01*
X150000000Y-119000000D01*
X157970571Y-119000000D01*
X158000000Y-119000000D01*
X158000000Y-111000000D01*
X150000000Y-111000000D01*
X141000500Y-111000000D01*
X141000500Y-75121041D01*
X141001853Y-75099232D01*
X141001292Y-75099209D01*
X141002059Y-75080654D01*
X141004357Y-75062221D01*
X141000883Y-74978257D01*
X141000500Y-74959702D01*
X141000500Y-74947208D01*
X141000500Y-74937933D01*
X140998697Y-74916186D01*
X140997555Y-74897786D01*
X140994080Y-74813763D01*
X140990266Y-74795579D01*
X140988708Y-74783077D01*
X140986641Y-74770690D01*
X140985108Y-74752179D01*
X140964462Y-74670650D01*
X140960299Y-74652659D01*
X140943049Y-74570386D01*
X140936297Y-74553083D01*
X140932703Y-74541010D01*
X140928621Y-74529121D01*
X140924063Y-74511119D01*
X140890302Y-74434152D01*
X140883199Y-74417004D01*
X140882007Y-74413951D01*
X140852655Y-74338726D01*
X140843149Y-74322772D01*
X140837624Y-74311470D01*
X140831633Y-74300400D01*
X140824173Y-74283393D01*
X140778200Y-74213026D01*
X140768400Y-74197327D01*
X140725366Y-74125106D01*
X140713358Y-74110928D01*
X140706048Y-74100690D01*
X140698322Y-74090764D01*
X140688164Y-74075215D01*
X140631248Y-74013388D01*
X140618980Y-73999496D01*
X140610902Y-73989958D01*
X140610898Y-73989954D01*
X140604902Y-73982874D01*
X140589505Y-73967477D01*
X140576656Y-73954085D01*
X140532325Y-73905928D01*
X140532321Y-73905924D01*
X140519744Y-73892262D01*
X140505088Y-73880854D01*
X140491425Y-73868277D01*
X140491805Y-73867863D01*
X140475428Y-73853400D01*
X139323683Y-72701655D01*
X139323683Y-72701654D01*
X139317126Y-72695098D01*
X139174894Y-72574634D01*
X138961274Y-72447344D01*
X138729614Y-72356951D01*
X138711447Y-72353141D01*
X138711438Y-72353139D01*
X138504418Y-72309731D01*
X138504415Y-72309730D01*
X138486237Y-72305919D01*
X138467677Y-72305151D01*
X138467674Y-72305151D01*
X138256340Y-72296410D01*
X138256331Y-72296410D01*
X138237779Y-72295643D01*
X138219348Y-72297940D01*
X138218050Y-72297994D01*
X138098292Y-72286822D01*
X137985797Y-72244259D01*
X137888637Y-72173360D01*
X137813784Y-72079212D01*
X137766610Y-71968571D01*
X137750500Y-71849377D01*
X137750500Y-61000000D01*
X150000000Y-61000000D01*
X150000000Y-69000000D01*
X157970571Y-69000000D01*
X158000000Y-69000000D01*
X158000000Y-61000000D01*
X150000000Y-61000000D01*
X137750500Y-61000000D01*
X137750500Y-57199500D01*
X137765799Y-57083290D01*
X137810655Y-56975000D01*
X137882009Y-56882009D01*
X137975000Y-56810655D01*
X138083290Y-56765799D01*
X138199500Y-56750500D01*
X142337005Y-56750500D01*
X142440589Y-56762612D01*
X142538584Y-56798293D01*
X142625704Y-56855620D01*
X142679699Y-56912886D01*
X142681390Y-56911468D01*
X142689790Y-56921478D01*
X142697588Y-56931953D01*
X142937442Y-57186183D01*
X143205189Y-57410849D01*
X143497207Y-57602913D01*
X143809549Y-57759777D01*
X144137989Y-57879319D01*
X144478086Y-57959923D01*
X144825241Y-58000500D01*
X145161701Y-58000500D01*
X145174759Y-58000500D01*
X145521914Y-57959923D01*
X145862011Y-57879319D01*
X146190451Y-57759777D01*
X146502793Y-57602913D01*
X146794811Y-57410849D01*
X147062558Y-57186183D01*
X147302412Y-56931953D01*
X147310212Y-56921475D01*
X147318610Y-56911468D01*
X147320300Y-56912886D01*
X147374296Y-56855620D01*
X147461416Y-56798293D01*
X147559411Y-56762612D01*
X147662995Y-56750500D01*
X167337005Y-56750500D01*
X167440589Y-56762612D01*
X167538584Y-56798293D01*
X167625704Y-56855620D01*
X167679699Y-56912886D01*
X167681390Y-56911468D01*
X167689790Y-56921478D01*
X167697588Y-56931953D01*
X167937442Y-57186183D01*
X168205189Y-57410849D01*
X168497207Y-57602913D01*
X168809549Y-57759777D01*
X169137989Y-57879319D01*
X169478086Y-57959923D01*
X169825241Y-58000500D01*
X170161701Y-58000500D01*
X170174759Y-58000500D01*
X170521914Y-57959923D01*
X170862011Y-57879319D01*
X171190451Y-57759777D01*
X171502793Y-57602913D01*
X171794811Y-57410849D01*
X172062558Y-57186183D01*
X172302412Y-56931953D01*
X172511130Y-56651596D01*
X172685889Y-56348904D01*
X172824326Y-56027971D01*
X172924569Y-55693136D01*
X172985262Y-55348927D01*
X173005585Y-55000000D01*
X172985262Y-54651073D01*
X172924569Y-54306864D01*
X172824326Y-53972029D01*
X172685889Y-53651096D01*
X172511130Y-53348404D01*
X172302412Y-53068047D01*
X172293452Y-53058550D01*
X172293447Y-53058544D01*
X172071520Y-52823316D01*
X172071518Y-52823314D01*
X172062558Y-52813817D01*
X171917629Y-52692207D01*
X171804816Y-52597546D01*
X171804814Y-52597544D01*
X171794811Y-52589151D01*
X171502793Y-52397087D01*
X171491119Y-52391224D01*
X171202126Y-52246086D01*
X171202120Y-52246083D01*
X171190451Y-52240223D01*
X171178175Y-52235755D01*
X171178173Y-52235754D01*
X170874287Y-52125149D01*
X170874285Y-52125148D01*
X170862011Y-52120681D01*
X170849304Y-52117669D01*
X170849296Y-52117667D01*
X170534624Y-52043089D01*
X170534618Y-52043088D01*
X170521914Y-52040077D01*
X170508955Y-52038562D01*
X170508942Y-52038560D01*
X170187728Y-52001015D01*
X170187713Y-52001014D01*
X170174759Y-51999500D01*
X169825241Y-51999500D01*
X169812287Y-52001014D01*
X169812271Y-52001015D01*
X169491057Y-52038560D01*
X169491041Y-52038562D01*
X169478086Y-52040077D01*
X169465383Y-52043087D01*
X169465375Y-52043089D01*
X169150703Y-52117667D01*
X169150691Y-52117670D01*
X169137989Y-52120681D01*
X169125718Y-52125146D01*
X169125712Y-52125149D01*
X168821826Y-52235754D01*
X168821817Y-52235757D01*
X168809549Y-52240223D01*
X168797885Y-52246080D01*
X168797873Y-52246086D01*
X168508880Y-52391224D01*
X168508872Y-52391228D01*
X168497207Y-52397087D01*
X168486301Y-52404259D01*
X168486294Y-52404264D01*
X168216097Y-52581976D01*
X168216089Y-52581981D01*
X168205189Y-52589151D01*
X168195193Y-52597538D01*
X168195183Y-52597546D01*
X167947452Y-52805417D01*
X167947445Y-52805422D01*
X167937442Y-52813817D01*
X167928489Y-52823306D01*
X167928479Y-52823316D01*
X167706545Y-53058553D01*
X167697588Y-53068047D01*
X167689792Y-53078518D01*
X167681390Y-53088532D01*
X167679699Y-53087113D01*
X167625704Y-53144380D01*
X167538584Y-53201707D01*
X167440589Y-53237388D01*
X167337005Y-53249500D01*
X167019469Y-53249500D01*
X166893478Y-53231461D01*
X166777610Y-53178792D01*
X166681176Y-53095727D01*
X166611926Y-52988939D01*
X166575422Y-52867010D01*
X166574600Y-52739736D01*
X166609523Y-52617345D01*
X166677388Y-52509671D01*
X166772739Y-52425366D01*
X166794811Y-52410849D01*
X167062558Y-52186183D01*
X167302412Y-51931953D01*
X167511130Y-51651596D01*
X167685889Y-51348904D01*
X167824326Y-51027971D01*
X167924569Y-50693136D01*
X167985262Y-50348927D01*
X168005585Y-50000000D01*
X167985262Y-49651073D01*
X167924569Y-49306864D01*
X167824326Y-48972029D01*
X167685889Y-48651096D01*
X167511130Y-48348404D01*
X167302412Y-48068047D01*
X167293452Y-48058550D01*
X167293447Y-48058544D01*
X167071520Y-47823316D01*
X167071518Y-47823314D01*
X167062558Y-47813817D01*
X166794811Y-47589151D01*
X166502793Y-47397087D01*
X166371468Y-47331133D01*
X166202126Y-47246086D01*
X166202120Y-47246083D01*
X166190451Y-47240223D01*
X166178175Y-47235755D01*
X166178173Y-47235754D01*
X165874287Y-47125149D01*
X165874285Y-47125148D01*
X165862011Y-47120681D01*
X165849304Y-47117669D01*
X165849296Y-47117667D01*
X165534624Y-47043089D01*
X165534618Y-47043088D01*
X165521914Y-47040077D01*
X165508955Y-47038562D01*
X165508942Y-47038560D01*
X165187728Y-47001015D01*
X165187713Y-47001014D01*
X165174759Y-46999500D01*
X164825241Y-46999500D01*
X164812287Y-47001014D01*
X164812271Y-47001015D01*
X164491057Y-47038560D01*
X164491041Y-47038562D01*
X164478086Y-47040077D01*
X164465383Y-47043087D01*
X164465375Y-47043089D01*
X164150703Y-47117667D01*
X164150691Y-47117670D01*
X164137989Y-47120681D01*
X164125718Y-47125146D01*
X164125712Y-47125149D01*
X163821826Y-47235754D01*
X163821817Y-47235757D01*
X163809549Y-47240223D01*
X163797885Y-47246080D01*
X163797873Y-47246086D01*
X163508880Y-47391224D01*
X163508872Y-47391228D01*
X163497207Y-47397087D01*
X163486301Y-47404259D01*
X163486294Y-47404264D01*
X163216097Y-47581976D01*
X163216089Y-47581981D01*
X163205189Y-47589151D01*
X163195193Y-47597538D01*
X163195183Y-47597546D01*
X162947452Y-47805417D01*
X162947445Y-47805422D01*
X162937442Y-47813817D01*
X162928489Y-47823306D01*
X162928479Y-47823316D01*
X162706552Y-48058544D01*
X162706538Y-48058559D01*
X162697588Y-48068047D01*
X162689790Y-48078520D01*
X162689782Y-48078531D01*
X162496675Y-48337919D01*
X162496668Y-48337928D01*
X162488870Y-48348404D01*
X162482346Y-48359703D01*
X162482338Y-48359716D01*
X162320639Y-48639787D01*
X162320630Y-48639803D01*
X162314111Y-48651096D01*
X162308942Y-48663078D01*
X162308937Y-48663089D01*
X162180852Y-48960023D01*
X162180847Y-48960036D01*
X162175674Y-48972029D01*
X162171926Y-48984545D01*
X162171923Y-48984556D01*
X162079177Y-49294348D01*
X162079173Y-49294364D01*
X162075431Y-49306864D01*
X162014738Y-49651073D01*
X162013978Y-49664109D01*
X162013977Y-49664124D01*
X161995786Y-49976453D01*
X161994415Y-50000000D01*
X161995175Y-50013048D01*
X162013977Y-50335875D01*
X162013978Y-50335888D01*
X162014738Y-50348927D01*
X162075431Y-50693136D01*
X162079174Y-50705639D01*
X162079177Y-50705651D01*
X162171923Y-51015443D01*
X162175674Y-51027971D01*
X162314111Y-51348904D01*
X162320634Y-51360203D01*
X162320639Y-51360212D01*
X162482338Y-51640283D01*
X162488870Y-51651596D01*
X162697588Y-51931953D01*
X162706546Y-51941448D01*
X162706552Y-51941455D01*
X162872800Y-52117667D01*
X162937442Y-52186183D01*
X163205189Y-52410849D01*
X163227261Y-52425366D01*
X163322612Y-52509671D01*
X163390477Y-52617345D01*
X163425400Y-52739736D01*
X163424578Y-52867010D01*
X163388074Y-52988939D01*
X163318824Y-53095727D01*
X163222390Y-53178792D01*
X163106522Y-53231461D01*
X162980531Y-53249500D01*
X147662995Y-53249500D01*
X147559411Y-53237388D01*
X147461416Y-53201707D01*
X147374296Y-53144380D01*
X147320300Y-53087113D01*
X147318610Y-53088532D01*
X147310210Y-53078521D01*
X147302412Y-53068047D01*
X147062558Y-52813817D01*
X146917629Y-52692207D01*
X146804816Y-52597546D01*
X146804814Y-52597544D01*
X146794811Y-52589151D01*
X146502793Y-52397087D01*
X146491119Y-52391224D01*
X146202126Y-52246086D01*
X146202120Y-52246083D01*
X146190451Y-52240223D01*
X146178175Y-52235755D01*
X146178173Y-52235754D01*
X145874287Y-52125149D01*
X145874285Y-52125148D01*
X145862011Y-52120681D01*
X145849304Y-52117669D01*
X145849296Y-52117667D01*
X145534624Y-52043089D01*
X145534618Y-52043088D01*
X145521914Y-52040077D01*
X145508955Y-52038562D01*
X145508942Y-52038560D01*
X145187728Y-52001015D01*
X145187713Y-52001014D01*
X145174759Y-51999500D01*
X144825241Y-51999500D01*
X144812287Y-52001014D01*
X144812271Y-52001015D01*
X144491057Y-52038560D01*
X144491041Y-52038562D01*
X144478086Y-52040077D01*
X144465383Y-52043087D01*
X144465375Y-52043089D01*
X144150703Y-52117667D01*
X144150691Y-52117670D01*
X144137989Y-52120681D01*
X144125718Y-52125146D01*
X144125712Y-52125149D01*
X143821826Y-52235754D01*
X143821817Y-52235757D01*
X143809549Y-52240223D01*
X143797885Y-52246080D01*
X143797873Y-52246086D01*
X143508880Y-52391224D01*
X143508872Y-52391228D01*
X143497207Y-52397087D01*
X143486301Y-52404259D01*
X143486294Y-52404264D01*
X143216097Y-52581976D01*
X143216089Y-52581981D01*
X143205189Y-52589151D01*
X143195193Y-52597538D01*
X143195183Y-52597546D01*
X142947452Y-52805417D01*
X142947445Y-52805422D01*
X142937442Y-52813817D01*
X142928489Y-52823306D01*
X142928479Y-52823316D01*
X142706545Y-53058553D01*
X142697588Y-53068047D01*
X142689792Y-53078518D01*
X142681390Y-53088532D01*
X142679699Y-53087113D01*
X142625704Y-53144380D01*
X142538584Y-53201707D01*
X142440589Y-53237388D01*
X142337005Y-53249500D01*
X142019469Y-53249500D01*
X141893478Y-53231461D01*
X141777610Y-53178792D01*
X141681176Y-53095727D01*
X141611926Y-52988939D01*
X141575422Y-52867010D01*
X141574600Y-52739736D01*
X141609523Y-52617345D01*
X141677388Y-52509671D01*
X141772739Y-52425366D01*
X141794811Y-52410849D01*
X142062558Y-52186183D01*
X142302412Y-51931953D01*
X142511130Y-51651596D01*
X142685889Y-51348904D01*
X142824326Y-51027971D01*
X142924569Y-50693136D01*
X142985262Y-50348927D01*
X143005585Y-50000000D01*
X142985262Y-49651073D01*
X142924569Y-49306864D01*
X142824326Y-48972029D01*
X142685889Y-48651096D01*
X142511130Y-48348404D01*
X142302412Y-48068047D01*
X142293452Y-48058550D01*
X142293447Y-48058544D01*
X142071520Y-47823316D01*
X142071518Y-47823314D01*
X142062558Y-47813817D01*
X141794811Y-47589151D01*
X141502793Y-47397087D01*
X141371468Y-47331133D01*
X141202126Y-47246086D01*
X141202120Y-47246083D01*
X141190451Y-47240223D01*
X141178175Y-47235755D01*
X141178173Y-47235754D01*
X140874287Y-47125149D01*
X140874285Y-47125148D01*
X140862011Y-47120681D01*
X140849304Y-47117669D01*
X140849296Y-47117667D01*
X140534624Y-47043089D01*
X140534618Y-47043088D01*
X140521914Y-47040077D01*
X140508955Y-47038562D01*
X140508942Y-47038560D01*
X140187728Y-47001015D01*
X140187713Y-47001014D01*
X140174759Y-46999500D01*
X139825241Y-46999500D01*
X139812287Y-47001014D01*
X139812271Y-47001015D01*
X139491057Y-47038560D01*
X139491041Y-47038562D01*
X139478086Y-47040077D01*
X139465383Y-47043087D01*
X139465375Y-47043089D01*
X139150703Y-47117667D01*
X139150691Y-47117670D01*
X139137989Y-47120681D01*
X139125718Y-47125146D01*
X139125712Y-47125149D01*
X138821826Y-47235754D01*
X138821817Y-47235757D01*
X138809549Y-47240223D01*
X138797885Y-47246080D01*
X138797873Y-47246086D01*
X138508880Y-47391224D01*
X138508872Y-47391228D01*
X138497207Y-47397087D01*
X138486301Y-47404259D01*
X138486294Y-47404264D01*
X138216097Y-47581976D01*
X138216089Y-47581981D01*
X138205189Y-47589151D01*
X138195193Y-47597538D01*
X138195183Y-47597546D01*
X137947452Y-47805417D01*
X137947445Y-47805422D01*
X137937442Y-47813817D01*
X137928489Y-47823306D01*
X137928479Y-47823316D01*
X137706552Y-48058544D01*
X137706538Y-48058559D01*
X137697588Y-48068047D01*
X137689790Y-48078520D01*
X137689782Y-48078531D01*
X137496675Y-48337919D01*
X137496668Y-48337928D01*
X137488870Y-48348404D01*
X137482346Y-48359703D01*
X137482338Y-48359716D01*
X137320639Y-48639787D01*
X137320630Y-48639803D01*
X137314111Y-48651096D01*
X137308942Y-48663078D01*
X137308937Y-48663089D01*
X137180852Y-48960023D01*
X137180847Y-48960036D01*
X137175674Y-48972029D01*
X137171926Y-48984545D01*
X137171923Y-48984556D01*
X137079177Y-49294348D01*
X137079173Y-49294364D01*
X137075431Y-49306864D01*
X137014738Y-49651073D01*
X137013978Y-49664109D01*
X137013977Y-49664124D01*
X136995786Y-49976453D01*
X136994415Y-50000000D01*
X136995175Y-50013048D01*
X137013977Y-50335875D01*
X137013978Y-50335888D01*
X137014738Y-50348927D01*
X137075431Y-50693136D01*
X137079174Y-50705639D01*
X137079177Y-50705651D01*
X137171923Y-51015443D01*
X137175674Y-51027971D01*
X137314111Y-51348904D01*
X137320634Y-51360203D01*
X137320639Y-51360212D01*
X137482338Y-51640283D01*
X137488870Y-51651596D01*
X137697588Y-51931953D01*
X137706546Y-51941448D01*
X137706552Y-51941455D01*
X137872800Y-52117667D01*
X137937442Y-52186183D01*
X138205189Y-52410849D01*
X138227261Y-52425366D01*
X138322612Y-52509671D01*
X138390477Y-52617345D01*
X138425400Y-52739736D01*
X138424578Y-52867010D01*
X138388074Y-52988939D01*
X138318824Y-53095727D01*
X138222390Y-53178792D01*
X138106522Y-53231461D01*
X137980531Y-53249500D01*
X135623524Y-53249500D01*
X135599129Y-53248130D01*
X135599122Y-53248328D01*
X135582326Y-53247699D01*
X135565636Y-53245819D01*
X135548851Y-53246447D01*
X135548849Y-53246447D01*
X135475660Y-53249186D01*
X135458870Y-53249500D01*
X122662995Y-53249500D01*
X122559411Y-53237388D01*
X122461416Y-53201707D01*
X122374296Y-53144380D01*
X122320300Y-53087113D01*
X122318610Y-53088532D01*
X122310210Y-53078521D01*
X122302412Y-53068047D01*
X122062558Y-52813817D01*
X121917629Y-52692207D01*
X121804816Y-52597546D01*
X121804814Y-52597544D01*
X121794811Y-52589151D01*
X121502793Y-52397087D01*
X121491119Y-52391224D01*
X121202126Y-52246086D01*
X121202120Y-52246083D01*
X121190451Y-52240223D01*
X121178175Y-52235755D01*
X121178173Y-52235754D01*
X120874287Y-52125149D01*
X120874285Y-52125148D01*
X120862011Y-52120681D01*
X120849304Y-52117669D01*
X120849296Y-52117667D01*
X120534624Y-52043089D01*
X120534618Y-52043088D01*
X120521914Y-52040077D01*
X120508955Y-52038562D01*
X120508942Y-52038560D01*
X120187728Y-52001015D01*
X120187713Y-52001014D01*
X120174759Y-51999500D01*
X119825241Y-51999500D01*
X119812287Y-52001014D01*
X119812271Y-52001015D01*
X119491057Y-52038560D01*
X119491041Y-52038562D01*
X119478086Y-52040077D01*
X119465383Y-52043087D01*
X119465375Y-52043089D01*
X119150703Y-52117667D01*
X119150691Y-52117670D01*
X119137989Y-52120681D01*
X119125718Y-52125146D01*
X119125712Y-52125149D01*
X118821826Y-52235754D01*
X118821817Y-52235757D01*
X118809549Y-52240223D01*
X118797885Y-52246080D01*
X118797873Y-52246086D01*
X118508880Y-52391224D01*
X118508872Y-52391228D01*
X118497207Y-52397087D01*
X118486301Y-52404259D01*
X118486294Y-52404264D01*
X118216097Y-52581976D01*
X118216089Y-52581981D01*
X118205189Y-52589151D01*
X118195193Y-52597538D01*
X118195183Y-52597546D01*
X117947452Y-52805417D01*
X117947445Y-52805422D01*
X117937442Y-52813817D01*
X117928489Y-52823306D01*
X117928479Y-52823316D01*
X117706545Y-53058553D01*
X117697588Y-53068047D01*
X117689792Y-53078518D01*
X117681390Y-53088532D01*
X117679699Y-53087113D01*
X117625704Y-53144380D01*
X117538584Y-53201707D01*
X117440589Y-53237388D01*
X117337005Y-53249500D01*
X117019469Y-53249500D01*
X116893478Y-53231461D01*
X116777610Y-53178792D01*
X116681176Y-53095727D01*
X116611926Y-52988939D01*
X116575422Y-52867010D01*
X116574600Y-52739736D01*
X116609523Y-52617345D01*
X116677388Y-52509671D01*
X116772739Y-52425366D01*
X116794811Y-52410849D01*
X117062558Y-52186183D01*
X117302412Y-51931953D01*
X117511130Y-51651596D01*
X117685889Y-51348904D01*
X117824326Y-51027971D01*
X117924569Y-50693136D01*
X117985262Y-50348927D01*
X118005585Y-50000000D01*
X117985262Y-49651073D01*
X117924569Y-49306864D01*
X117824326Y-48972029D01*
X117685889Y-48651096D01*
X117511130Y-48348404D01*
X117302412Y-48068047D01*
X117293452Y-48058550D01*
X117293447Y-48058544D01*
X117071520Y-47823316D01*
X117071518Y-47823314D01*
X117062558Y-47813817D01*
X116794811Y-47589151D01*
X116502793Y-47397087D01*
X116371468Y-47331133D01*
X116202126Y-47246086D01*
X116202120Y-47246083D01*
X116190451Y-47240223D01*
X116178175Y-47235755D01*
X116178173Y-47235754D01*
X115874287Y-47125149D01*
X115874285Y-47125148D01*
X115862011Y-47120681D01*
X115849304Y-47117669D01*
X115849296Y-47117667D01*
X115534624Y-47043089D01*
X115534618Y-47043088D01*
X115521914Y-47040077D01*
X115508955Y-47038562D01*
X115508942Y-47038560D01*
X115187728Y-47001015D01*
X115187713Y-47001014D01*
X115174759Y-46999500D01*
X114825241Y-46999500D01*
X114812287Y-47001014D01*
X114812271Y-47001015D01*
X114491057Y-47038560D01*
X114491041Y-47038562D01*
X114478086Y-47040077D01*
X114465383Y-47043087D01*
X114465375Y-47043089D01*
X114150703Y-47117667D01*
X114150691Y-47117670D01*
X114137989Y-47120681D01*
X114125718Y-47125146D01*
X114125712Y-47125149D01*
X113821826Y-47235754D01*
X113821817Y-47235757D01*
X113809549Y-47240223D01*
X113797885Y-47246080D01*
X113797873Y-47246086D01*
X113508880Y-47391224D01*
X113508872Y-47391228D01*
X113497207Y-47397087D01*
X113486301Y-47404259D01*
X113486294Y-47404264D01*
X113216097Y-47581976D01*
X113216089Y-47581981D01*
X113205189Y-47589151D01*
X113195193Y-47597538D01*
X113195183Y-47597546D01*
X112947452Y-47805417D01*
X112947445Y-47805422D01*
X112937442Y-47813817D01*
X112928489Y-47823306D01*
X112928479Y-47823316D01*
X112706552Y-48058544D01*
X112706538Y-48058559D01*
X112697588Y-48068047D01*
X112689790Y-48078520D01*
X112689782Y-48078531D01*
X112496675Y-48337919D01*
X112496668Y-48337928D01*
X112488870Y-48348404D01*
X112482346Y-48359703D01*
X112482338Y-48359716D01*
X112320639Y-48639787D01*
X112320630Y-48639803D01*
X112314111Y-48651096D01*
X112308942Y-48663078D01*
X112308937Y-48663089D01*
X112180852Y-48960023D01*
X112180847Y-48960036D01*
X112175674Y-48972029D01*
X112171926Y-48984545D01*
X112171923Y-48984556D01*
X112079177Y-49294348D01*
X112079173Y-49294364D01*
X112075431Y-49306864D01*
X112014738Y-49651073D01*
X112013978Y-49664109D01*
X112013977Y-49664124D01*
X111995786Y-49976453D01*
X111994415Y-50000000D01*
X111995175Y-50013048D01*
X112013977Y-50335875D01*
X112013978Y-50335888D01*
X112014738Y-50348927D01*
X112075431Y-50693136D01*
X112079174Y-50705639D01*
X112079177Y-50705651D01*
X112171923Y-51015443D01*
X112175674Y-51027971D01*
X112314111Y-51348904D01*
X112320634Y-51360203D01*
X112320639Y-51360212D01*
X112482338Y-51640283D01*
X112488870Y-51651596D01*
X112697588Y-51931953D01*
X112706546Y-51941448D01*
X112706552Y-51941455D01*
X112872800Y-52117667D01*
X112937442Y-52186183D01*
X113205189Y-52410849D01*
X113227261Y-52425366D01*
X113322612Y-52509671D01*
X113390477Y-52617345D01*
X113425400Y-52739736D01*
X113424578Y-52867010D01*
X113388074Y-52988939D01*
X113318824Y-53095727D01*
X113222390Y-53178792D01*
X113106522Y-53231461D01*
X112980531Y-53249500D01*
X97662995Y-53249500D01*
X97559411Y-53237388D01*
X97461416Y-53201707D01*
X97374296Y-53144380D01*
X97320300Y-53087113D01*
X97318610Y-53088532D01*
X97310210Y-53078521D01*
X97302412Y-53068047D01*
X97062558Y-52813817D01*
X96917629Y-52692207D01*
X96804816Y-52597546D01*
X96804814Y-52597544D01*
X96794811Y-52589151D01*
X96502793Y-52397087D01*
X96491119Y-52391224D01*
X96202126Y-52246086D01*
X96202120Y-52246083D01*
X96190451Y-52240223D01*
X96178175Y-52235755D01*
X96178173Y-52235754D01*
X95874287Y-52125149D01*
X95874285Y-52125148D01*
X95862011Y-52120681D01*
X95849304Y-52117669D01*
X95849296Y-52117667D01*
X95534624Y-52043089D01*
X95534618Y-52043088D01*
X95521914Y-52040077D01*
X95508955Y-52038562D01*
X95508942Y-52038560D01*
X95187728Y-52001015D01*
X95187713Y-52001014D01*
X95174759Y-51999500D01*
X94825241Y-51999500D01*
X94812287Y-52001014D01*
X94812271Y-52001015D01*
X94491057Y-52038560D01*
X94491041Y-52038562D01*
X94478086Y-52040077D01*
X94465383Y-52043087D01*
X94465375Y-52043089D01*
X94150703Y-52117667D01*
X94150691Y-52117670D01*
X94137989Y-52120681D01*
X94125718Y-52125146D01*
X94125712Y-52125149D01*
X93821826Y-52235754D01*
X93821817Y-52235757D01*
X93809549Y-52240223D01*
X93797885Y-52246080D01*
X93797873Y-52246086D01*
X93508880Y-52391224D01*
X93508872Y-52391228D01*
X93497207Y-52397087D01*
X93486301Y-52404259D01*
X93486294Y-52404264D01*
X93216097Y-52581976D01*
X93216089Y-52581981D01*
X93205189Y-52589151D01*
X93195193Y-52597538D01*
X93195183Y-52597546D01*
X92947452Y-52805417D01*
X92947445Y-52805422D01*
X92937442Y-52813817D01*
X92928489Y-52823306D01*
X92928479Y-52823316D01*
X92706552Y-53058544D01*
X92706538Y-53058559D01*
X92697588Y-53068047D01*
X92689790Y-53078520D01*
X92689782Y-53078531D01*
X92496675Y-53337919D01*
X92496668Y-53337928D01*
X92488870Y-53348404D01*
X92482346Y-53359703D01*
X92482338Y-53359716D01*
X92320639Y-53639787D01*
X92320630Y-53639803D01*
X92314111Y-53651096D01*
X92308942Y-53663078D01*
X92308937Y-53663089D01*
X92180852Y-53960023D01*
X92180847Y-53960036D01*
X92175674Y-53972029D01*
X92171926Y-53984545D01*
X92171923Y-53984556D01*
X92079177Y-54294348D01*
X92079173Y-54294364D01*
X92075431Y-54306864D01*
X92014738Y-54651073D01*
X92013978Y-54664109D01*
X92013977Y-54664124D01*
X91995786Y-54976453D01*
X91994415Y-55000000D01*
X80500000Y-55000000D01*
X80500000Y-48449000D01*
X80515299Y-48332790D01*
X80560155Y-48224500D01*
X80631509Y-48131509D01*
X80724500Y-48060155D01*
X80832790Y-48015299D01*
X80949000Y-48000000D01*
X86914014Y-48000000D01*
X87042789Y-48018863D01*
X87160744Y-48073866D01*
X87257969Y-48160389D01*
X87326294Y-48271162D01*
X87359978Y-48396876D01*
X87356192Y-48526970D01*
X87316340Y-48647234D01*
X87314111Y-48651096D01*
X87308939Y-48663085D01*
X87308936Y-48663092D01*
X87180852Y-48960023D01*
X87180847Y-48960036D01*
X87175674Y-48972029D01*
X87171926Y-48984545D01*
X87171923Y-48984556D01*
X87079177Y-49294348D01*
X87079173Y-49294364D01*
X87075431Y-49306864D01*
X87014738Y-49651073D01*
X87013978Y-49664109D01*
X87013977Y-49664124D01*
X86995786Y-49976453D01*
X86994415Y-50000000D01*
X86995175Y-50013048D01*
X87013977Y-50335875D01*
X87013978Y-50335888D01*
X87014738Y-50348927D01*
X87075431Y-50693136D01*
X87079174Y-50705639D01*
X87079177Y-50705651D01*
X87171923Y-51015443D01*
X87175674Y-51027971D01*
X87314111Y-51348904D01*
X87320634Y-51360203D01*
X87320639Y-51360212D01*
X87482338Y-51640283D01*
X87488870Y-51651596D01*
X87697588Y-51931953D01*
X87706546Y-51941448D01*
X87706552Y-51941455D01*
X87872800Y-52117667D01*
X87937442Y-52186183D01*
X88205189Y-52410849D01*
X88497207Y-52602913D01*
X88809549Y-52759777D01*
X89137989Y-52879319D01*
X89478086Y-52959923D01*
X89825241Y-53000500D01*
X90161701Y-53000500D01*
X90174759Y-53000500D01*
X90521914Y-52959923D01*
X90862011Y-52879319D01*
X91190451Y-52759777D01*
X91502793Y-52602913D01*
X91794811Y-52410849D01*
X92062558Y-52186183D01*
X92302412Y-51931953D01*
X92511130Y-51651596D01*
X92685889Y-51348904D01*
X92824326Y-51027971D01*
X92924569Y-50693136D01*
X92985262Y-50348927D01*
X93005585Y-50000000D01*
X92985262Y-49651073D01*
X92924569Y-49306864D01*
X92824326Y-48972029D01*
X92685889Y-48651096D01*
X92511130Y-48348404D01*
X92302412Y-48068047D01*
X92293452Y-48058550D01*
X92293447Y-48058544D01*
X92071520Y-47823316D01*
X92071518Y-47823314D01*
X92062558Y-47813817D01*
X91794811Y-47589151D01*
X91502793Y-47397087D01*
X91371468Y-47331133D01*
X91202126Y-47246086D01*
X91202120Y-47246083D01*
X91190451Y-47240223D01*
X91178175Y-47235755D01*
X91178173Y-47235754D01*
X90874287Y-47125149D01*
X90874285Y-47125148D01*
X90862011Y-47120681D01*
X90849304Y-47117669D01*
X90849296Y-47117667D01*
X90534624Y-47043089D01*
X90534618Y-47043088D01*
X90521914Y-47040077D01*
X90508955Y-47038562D01*
X90508942Y-47038560D01*
X90187728Y-47001015D01*
X90187713Y-47001014D01*
X90174759Y-46999500D01*
X89825241Y-46999500D01*
X89812287Y-47001014D01*
X89812271Y-47001015D01*
X89491057Y-47038560D01*
X89491041Y-47038562D01*
X89478086Y-47040077D01*
X89465383Y-47043087D01*
X89465375Y-47043089D01*
X89150703Y-47117667D01*
X89150691Y-47117670D01*
X89137989Y-47120681D01*
X89125718Y-47125146D01*
X89125712Y-47125149D01*
X88821826Y-47235754D01*
X88821817Y-47235757D01*
X88809549Y-47240223D01*
X88797885Y-47246080D01*
X88797873Y-47246086D01*
X88650511Y-47320095D01*
X88526968Y-47361033D01*
X88396874Y-47364818D01*
X88271160Y-47331133D01*
X88160388Y-47262808D01*
X88073866Y-47165584D01*
X88018863Y-47047629D01*
X88000000Y-46918854D01*
X88000000Y-40949000D01*
X88015299Y-40832790D01*
X88060155Y-40724500D01*
X88131509Y-40631509D01*
X88224500Y-40560155D01*
X88332790Y-40515299D01*
X88449000Y-40500000D01*
X171551000Y-40500000D01*
X171667210Y-40515299D01*
G37*
G04 #@! TD.AperFunction*
M02*
