%TF.GenerationSoftware,KiCad,Pcbnew,(7.0.0)*%
%TF.CreationDate,2023-05-18T23:42:44+02:00*%
%TF.ProjectId,Fad_1,4661645f-312e-46b6-9963-61645f706362,rev?*%
%TF.SameCoordinates,Original*%
%TF.FileFunction,Drillmap*%
%TF.FilePolarity,Positive*%
%FSLAX45Y45*%
G04 Gerber Fmt 4.5, Leading zero omitted, Abs format (unit mm)*
G04 Created by KiCad (PCBNEW (7.0.0)) date 2023-05-18 23:42:44*
%MOMM*%
%LPD*%
G01*
G04 APERTURE LIST*
%ADD10C,0.100000*%
%ADD11C,0.200000*%
%ADD12C,0.320000*%
G04 APERTURE END LIST*
D10*
X18000000Y-14000000D02*
X8000000Y-14000000D01*
X8000000Y-4000000D01*
X18000000Y-4000000D01*
X18000000Y-14000000D01*
D11*
D12*
X8240000Y-4240000D02*
X8560000Y-4560000D01*
X8560000Y-4240000D02*
X8240000Y-4560000D01*
X8240000Y-13440000D02*
X8560000Y-13760000D01*
X8560000Y-13440000D02*
X8240000Y-13760000D01*
X10440000Y-6340000D02*
X10760000Y-6660000D01*
X10760000Y-6340000D02*
X10440000Y-6660000D01*
X10440000Y-11340000D02*
X10760000Y-11660000D01*
X10760000Y-11340000D02*
X10440000Y-11660000D01*
X15240000Y-6340000D02*
X15560000Y-6660000D01*
X15560000Y-6340000D02*
X15240000Y-6660000D01*
X15240000Y-11340000D02*
X15560000Y-11660000D01*
X15560000Y-11340000D02*
X15240000Y-11660000D01*
X17440000Y-4240000D02*
X17760000Y-4560000D01*
X17760000Y-4240000D02*
X17440000Y-4560000D01*
X17440000Y-13440000D02*
X17760000Y-13760000D01*
X17760000Y-13440000D02*
X17440000Y-13760000D01*
D11*
X8242619Y-14298476D02*
X8242619Y-14098476D01*
X8242619Y-14098476D02*
X8290238Y-14098476D01*
X8290238Y-14098476D02*
X8318809Y-14108000D01*
X8318809Y-14108000D02*
X8337857Y-14127048D01*
X8337857Y-14127048D02*
X8347381Y-14146095D01*
X8347381Y-14146095D02*
X8356905Y-14184190D01*
X8356905Y-14184190D02*
X8356905Y-14212762D01*
X8356905Y-14212762D02*
X8347381Y-14250857D01*
X8347381Y-14250857D02*
X8337857Y-14269905D01*
X8337857Y-14269905D02*
X8318809Y-14288952D01*
X8318809Y-14288952D02*
X8290238Y-14298476D01*
X8290238Y-14298476D02*
X8242619Y-14298476D01*
X8442619Y-14298476D02*
X8442619Y-14165143D01*
X8442619Y-14203238D02*
X8452143Y-14184190D01*
X8452143Y-14184190D02*
X8461667Y-14174667D01*
X8461667Y-14174667D02*
X8480714Y-14165143D01*
X8480714Y-14165143D02*
X8499762Y-14165143D01*
X8566429Y-14298476D02*
X8566429Y-14165143D01*
X8566429Y-14098476D02*
X8556905Y-14108000D01*
X8556905Y-14108000D02*
X8566429Y-14117524D01*
X8566429Y-14117524D02*
X8575952Y-14108000D01*
X8575952Y-14108000D02*
X8566429Y-14098476D01*
X8566429Y-14098476D02*
X8566429Y-14117524D01*
X8690238Y-14298476D02*
X8671190Y-14288952D01*
X8671190Y-14288952D02*
X8661667Y-14269905D01*
X8661667Y-14269905D02*
X8661667Y-14098476D01*
X8795000Y-14298476D02*
X8775952Y-14288952D01*
X8775952Y-14288952D02*
X8766429Y-14269905D01*
X8766429Y-14269905D02*
X8766429Y-14098476D01*
X8991190Y-14298476D02*
X8991190Y-14098476D01*
X8991190Y-14098476D02*
X9057857Y-14241333D01*
X9057857Y-14241333D02*
X9124524Y-14098476D01*
X9124524Y-14098476D02*
X9124524Y-14298476D01*
X9305476Y-14298476D02*
X9305476Y-14193714D01*
X9305476Y-14193714D02*
X9295952Y-14174667D01*
X9295952Y-14174667D02*
X9276905Y-14165143D01*
X9276905Y-14165143D02*
X9238809Y-14165143D01*
X9238809Y-14165143D02*
X9219762Y-14174667D01*
X9305476Y-14288952D02*
X9286429Y-14298476D01*
X9286429Y-14298476D02*
X9238809Y-14298476D01*
X9238809Y-14298476D02*
X9219762Y-14288952D01*
X9219762Y-14288952D02*
X9210238Y-14269905D01*
X9210238Y-14269905D02*
X9210238Y-14250857D01*
X9210238Y-14250857D02*
X9219762Y-14231809D01*
X9219762Y-14231809D02*
X9238809Y-14222286D01*
X9238809Y-14222286D02*
X9286429Y-14222286D01*
X9286429Y-14222286D02*
X9305476Y-14212762D01*
X9400714Y-14165143D02*
X9400714Y-14365143D01*
X9400714Y-14174667D02*
X9419762Y-14165143D01*
X9419762Y-14165143D02*
X9457857Y-14165143D01*
X9457857Y-14165143D02*
X9476905Y-14174667D01*
X9476905Y-14174667D02*
X9486429Y-14184190D01*
X9486429Y-14184190D02*
X9495952Y-14203238D01*
X9495952Y-14203238D02*
X9495952Y-14260381D01*
X9495952Y-14260381D02*
X9486429Y-14279428D01*
X9486429Y-14279428D02*
X9476905Y-14288952D01*
X9476905Y-14288952D02*
X9457857Y-14298476D01*
X9457857Y-14298476D02*
X9419762Y-14298476D01*
X9419762Y-14298476D02*
X9400714Y-14288952D01*
X9581667Y-14279428D02*
X9591190Y-14288952D01*
X9591190Y-14288952D02*
X9581667Y-14298476D01*
X9581667Y-14298476D02*
X9572143Y-14288952D01*
X9572143Y-14288952D02*
X9581667Y-14279428D01*
X9581667Y-14279428D02*
X9581667Y-14298476D01*
X9581667Y-14174667D02*
X9591190Y-14184190D01*
X9591190Y-14184190D02*
X9581667Y-14193714D01*
X9581667Y-14193714D02*
X9572143Y-14184190D01*
X9572143Y-14184190D02*
X9581667Y-14174667D01*
X9581667Y-14174667D02*
X9581667Y-14193714D01*
X7795000Y-14545000D02*
X7995000Y-14745000D01*
X7995000Y-14545000D02*
X7795000Y-14745000D01*
X8223571Y-14518476D02*
X8347381Y-14518476D01*
X8347381Y-14518476D02*
X8280714Y-14594667D01*
X8280714Y-14594667D02*
X8309286Y-14594667D01*
X8309286Y-14594667D02*
X8328333Y-14604190D01*
X8328333Y-14604190D02*
X8337857Y-14613714D01*
X8337857Y-14613714D02*
X8347381Y-14632762D01*
X8347381Y-14632762D02*
X8347381Y-14680381D01*
X8347381Y-14680381D02*
X8337857Y-14699428D01*
X8337857Y-14699428D02*
X8328333Y-14708952D01*
X8328333Y-14708952D02*
X8309286Y-14718476D01*
X8309286Y-14718476D02*
X8252143Y-14718476D01*
X8252143Y-14718476D02*
X8233095Y-14708952D01*
X8233095Y-14708952D02*
X8223571Y-14699428D01*
X8433095Y-14699428D02*
X8442619Y-14708952D01*
X8442619Y-14708952D02*
X8433095Y-14718476D01*
X8433095Y-14718476D02*
X8423571Y-14708952D01*
X8423571Y-14708952D02*
X8433095Y-14699428D01*
X8433095Y-14699428D02*
X8433095Y-14718476D01*
X8518810Y-14537524D02*
X8528333Y-14528000D01*
X8528333Y-14528000D02*
X8547381Y-14518476D01*
X8547381Y-14518476D02*
X8595000Y-14518476D01*
X8595000Y-14518476D02*
X8614048Y-14528000D01*
X8614048Y-14528000D02*
X8623571Y-14537524D01*
X8623571Y-14537524D02*
X8633095Y-14556571D01*
X8633095Y-14556571D02*
X8633095Y-14575619D01*
X8633095Y-14575619D02*
X8623571Y-14604190D01*
X8623571Y-14604190D02*
X8509286Y-14718476D01*
X8509286Y-14718476D02*
X8633095Y-14718476D01*
X8756905Y-14518476D02*
X8775952Y-14518476D01*
X8775952Y-14518476D02*
X8795000Y-14528000D01*
X8795000Y-14528000D02*
X8804524Y-14537524D01*
X8804524Y-14537524D02*
X8814048Y-14556571D01*
X8814048Y-14556571D02*
X8823571Y-14594667D01*
X8823571Y-14594667D02*
X8823571Y-14642286D01*
X8823571Y-14642286D02*
X8814048Y-14680381D01*
X8814048Y-14680381D02*
X8804524Y-14699428D01*
X8804524Y-14699428D02*
X8795000Y-14708952D01*
X8795000Y-14708952D02*
X8775952Y-14718476D01*
X8775952Y-14718476D02*
X8756905Y-14718476D01*
X8756905Y-14718476D02*
X8737857Y-14708952D01*
X8737857Y-14708952D02*
X8728333Y-14699428D01*
X8728333Y-14699428D02*
X8718810Y-14680381D01*
X8718810Y-14680381D02*
X8709286Y-14642286D01*
X8709286Y-14642286D02*
X8709286Y-14594667D01*
X8709286Y-14594667D02*
X8718810Y-14556571D01*
X8718810Y-14556571D02*
X8728333Y-14537524D01*
X8728333Y-14537524D02*
X8737857Y-14528000D01*
X8737857Y-14528000D02*
X8756905Y-14518476D01*
X8947381Y-14518476D02*
X8966429Y-14518476D01*
X8966429Y-14518476D02*
X8985476Y-14528000D01*
X8985476Y-14528000D02*
X8995000Y-14537524D01*
X8995000Y-14537524D02*
X9004524Y-14556571D01*
X9004524Y-14556571D02*
X9014048Y-14594667D01*
X9014048Y-14594667D02*
X9014048Y-14642286D01*
X9014048Y-14642286D02*
X9004524Y-14680381D01*
X9004524Y-14680381D02*
X8995000Y-14699428D01*
X8995000Y-14699428D02*
X8985476Y-14708952D01*
X8985476Y-14708952D02*
X8966429Y-14718476D01*
X8966429Y-14718476D02*
X8947381Y-14718476D01*
X8947381Y-14718476D02*
X8928333Y-14708952D01*
X8928333Y-14708952D02*
X8918810Y-14699428D01*
X8918810Y-14699428D02*
X8909286Y-14680381D01*
X8909286Y-14680381D02*
X8899762Y-14642286D01*
X8899762Y-14642286D02*
X8899762Y-14594667D01*
X8899762Y-14594667D02*
X8909286Y-14556571D01*
X8909286Y-14556571D02*
X8918810Y-14537524D01*
X8918810Y-14537524D02*
X8928333Y-14528000D01*
X8928333Y-14528000D02*
X8947381Y-14518476D01*
X9099762Y-14718476D02*
X9099762Y-14585143D01*
X9099762Y-14604190D02*
X9109286Y-14594667D01*
X9109286Y-14594667D02*
X9128333Y-14585143D01*
X9128333Y-14585143D02*
X9156905Y-14585143D01*
X9156905Y-14585143D02*
X9175952Y-14594667D01*
X9175952Y-14594667D02*
X9185476Y-14613714D01*
X9185476Y-14613714D02*
X9185476Y-14718476D01*
X9185476Y-14613714D02*
X9195000Y-14594667D01*
X9195000Y-14594667D02*
X9214048Y-14585143D01*
X9214048Y-14585143D02*
X9242619Y-14585143D01*
X9242619Y-14585143D02*
X9261667Y-14594667D01*
X9261667Y-14594667D02*
X9271191Y-14613714D01*
X9271191Y-14613714D02*
X9271191Y-14718476D01*
X9366429Y-14718476D02*
X9366429Y-14585143D01*
X9366429Y-14604190D02*
X9375952Y-14594667D01*
X9375952Y-14594667D02*
X9395000Y-14585143D01*
X9395000Y-14585143D02*
X9423572Y-14585143D01*
X9423572Y-14585143D02*
X9442619Y-14594667D01*
X9442619Y-14594667D02*
X9452143Y-14613714D01*
X9452143Y-14613714D02*
X9452143Y-14718476D01*
X9452143Y-14613714D02*
X9461667Y-14594667D01*
X9461667Y-14594667D02*
X9480714Y-14585143D01*
X9480714Y-14585143D02*
X9509286Y-14585143D01*
X9509286Y-14585143D02*
X9528333Y-14594667D01*
X9528333Y-14594667D02*
X9537857Y-14613714D01*
X9537857Y-14613714D02*
X9537857Y-14718476D01*
X9895952Y-14508952D02*
X9724524Y-14766095D01*
X10120714Y-14518476D02*
X10139762Y-14518476D01*
X10139762Y-14518476D02*
X10158810Y-14528000D01*
X10158810Y-14528000D02*
X10168333Y-14537524D01*
X10168333Y-14537524D02*
X10177857Y-14556571D01*
X10177857Y-14556571D02*
X10187381Y-14594667D01*
X10187381Y-14594667D02*
X10187381Y-14642286D01*
X10187381Y-14642286D02*
X10177857Y-14680381D01*
X10177857Y-14680381D02*
X10168333Y-14699428D01*
X10168333Y-14699428D02*
X10158810Y-14708952D01*
X10158810Y-14708952D02*
X10139762Y-14718476D01*
X10139762Y-14718476D02*
X10120714Y-14718476D01*
X10120714Y-14718476D02*
X10101667Y-14708952D01*
X10101667Y-14708952D02*
X10092143Y-14699428D01*
X10092143Y-14699428D02*
X10082619Y-14680381D01*
X10082619Y-14680381D02*
X10073095Y-14642286D01*
X10073095Y-14642286D02*
X10073095Y-14594667D01*
X10073095Y-14594667D02*
X10082619Y-14556571D01*
X10082619Y-14556571D02*
X10092143Y-14537524D01*
X10092143Y-14537524D02*
X10101667Y-14528000D01*
X10101667Y-14528000D02*
X10120714Y-14518476D01*
X10273095Y-14699428D02*
X10282619Y-14708952D01*
X10282619Y-14708952D02*
X10273095Y-14718476D01*
X10273095Y-14718476D02*
X10263572Y-14708952D01*
X10263572Y-14708952D02*
X10273095Y-14699428D01*
X10273095Y-14699428D02*
X10273095Y-14718476D01*
X10473095Y-14718476D02*
X10358810Y-14718476D01*
X10415952Y-14718476D02*
X10415952Y-14518476D01*
X10415952Y-14518476D02*
X10396905Y-14547048D01*
X10396905Y-14547048D02*
X10377857Y-14566095D01*
X10377857Y-14566095D02*
X10358810Y-14575619D01*
X10549286Y-14537524D02*
X10558810Y-14528000D01*
X10558810Y-14528000D02*
X10577857Y-14518476D01*
X10577857Y-14518476D02*
X10625476Y-14518476D01*
X10625476Y-14518476D02*
X10644524Y-14528000D01*
X10644524Y-14528000D02*
X10654048Y-14537524D01*
X10654048Y-14537524D02*
X10663572Y-14556571D01*
X10663572Y-14556571D02*
X10663572Y-14575619D01*
X10663572Y-14575619D02*
X10654048Y-14604190D01*
X10654048Y-14604190D02*
X10539762Y-14718476D01*
X10539762Y-14718476D02*
X10663572Y-14718476D01*
X10835000Y-14518476D02*
X10796905Y-14518476D01*
X10796905Y-14518476D02*
X10777857Y-14528000D01*
X10777857Y-14528000D02*
X10768333Y-14537524D01*
X10768333Y-14537524D02*
X10749286Y-14566095D01*
X10749286Y-14566095D02*
X10739762Y-14604190D01*
X10739762Y-14604190D02*
X10739762Y-14680381D01*
X10739762Y-14680381D02*
X10749286Y-14699428D01*
X10749286Y-14699428D02*
X10758810Y-14708952D01*
X10758810Y-14708952D02*
X10777857Y-14718476D01*
X10777857Y-14718476D02*
X10815953Y-14718476D01*
X10815953Y-14718476D02*
X10835000Y-14708952D01*
X10835000Y-14708952D02*
X10844524Y-14699428D01*
X10844524Y-14699428D02*
X10854048Y-14680381D01*
X10854048Y-14680381D02*
X10854048Y-14632762D01*
X10854048Y-14632762D02*
X10844524Y-14613714D01*
X10844524Y-14613714D02*
X10835000Y-14604190D01*
X10835000Y-14604190D02*
X10815953Y-14594667D01*
X10815953Y-14594667D02*
X10777857Y-14594667D01*
X10777857Y-14594667D02*
X10758810Y-14604190D01*
X10758810Y-14604190D02*
X10749286Y-14613714D01*
X10749286Y-14613714D02*
X10739762Y-14632762D01*
X10977857Y-14518476D02*
X10996905Y-14518476D01*
X10996905Y-14518476D02*
X11015953Y-14528000D01*
X11015953Y-14528000D02*
X11025476Y-14537524D01*
X11025476Y-14537524D02*
X11035000Y-14556571D01*
X11035000Y-14556571D02*
X11044524Y-14594667D01*
X11044524Y-14594667D02*
X11044524Y-14642286D01*
X11044524Y-14642286D02*
X11035000Y-14680381D01*
X11035000Y-14680381D02*
X11025476Y-14699428D01*
X11025476Y-14699428D02*
X11015953Y-14708952D01*
X11015953Y-14708952D02*
X10996905Y-14718476D01*
X10996905Y-14718476D02*
X10977857Y-14718476D01*
X10977857Y-14718476D02*
X10958810Y-14708952D01*
X10958810Y-14708952D02*
X10949286Y-14699428D01*
X10949286Y-14699428D02*
X10939762Y-14680381D01*
X10939762Y-14680381D02*
X10930238Y-14642286D01*
X10930238Y-14642286D02*
X10930238Y-14594667D01*
X10930238Y-14594667D02*
X10939762Y-14556571D01*
X10939762Y-14556571D02*
X10949286Y-14537524D01*
X10949286Y-14537524D02*
X10958810Y-14528000D01*
X10958810Y-14528000D02*
X10977857Y-14518476D01*
X11120714Y-14518476D02*
X11120714Y-14556571D01*
X11196905Y-14518476D02*
X11196905Y-14556571D01*
X11459762Y-14794667D02*
X11450238Y-14785143D01*
X11450238Y-14785143D02*
X11431191Y-14756571D01*
X11431191Y-14756571D02*
X11421667Y-14737524D01*
X11421667Y-14737524D02*
X11412143Y-14708952D01*
X11412143Y-14708952D02*
X11402619Y-14661333D01*
X11402619Y-14661333D02*
X11402619Y-14623238D01*
X11402619Y-14623238D02*
X11412143Y-14575619D01*
X11412143Y-14575619D02*
X11421667Y-14547048D01*
X11421667Y-14547048D02*
X11431191Y-14528000D01*
X11431191Y-14528000D02*
X11450238Y-14499428D01*
X11450238Y-14499428D02*
X11459762Y-14489905D01*
X11564524Y-14604190D02*
X11545476Y-14594667D01*
X11545476Y-14594667D02*
X11535952Y-14585143D01*
X11535952Y-14585143D02*
X11526429Y-14566095D01*
X11526429Y-14566095D02*
X11526429Y-14556571D01*
X11526429Y-14556571D02*
X11535952Y-14537524D01*
X11535952Y-14537524D02*
X11545476Y-14528000D01*
X11545476Y-14528000D02*
X11564524Y-14518476D01*
X11564524Y-14518476D02*
X11602619Y-14518476D01*
X11602619Y-14518476D02*
X11621667Y-14528000D01*
X11621667Y-14528000D02*
X11631191Y-14537524D01*
X11631191Y-14537524D02*
X11640714Y-14556571D01*
X11640714Y-14556571D02*
X11640714Y-14566095D01*
X11640714Y-14566095D02*
X11631191Y-14585143D01*
X11631191Y-14585143D02*
X11621667Y-14594667D01*
X11621667Y-14594667D02*
X11602619Y-14604190D01*
X11602619Y-14604190D02*
X11564524Y-14604190D01*
X11564524Y-14604190D02*
X11545476Y-14613714D01*
X11545476Y-14613714D02*
X11535952Y-14623238D01*
X11535952Y-14623238D02*
X11526429Y-14642286D01*
X11526429Y-14642286D02*
X11526429Y-14680381D01*
X11526429Y-14680381D02*
X11535952Y-14699428D01*
X11535952Y-14699428D02*
X11545476Y-14708952D01*
X11545476Y-14708952D02*
X11564524Y-14718476D01*
X11564524Y-14718476D02*
X11602619Y-14718476D01*
X11602619Y-14718476D02*
X11621667Y-14708952D01*
X11621667Y-14708952D02*
X11631191Y-14699428D01*
X11631191Y-14699428D02*
X11640714Y-14680381D01*
X11640714Y-14680381D02*
X11640714Y-14642286D01*
X11640714Y-14642286D02*
X11631191Y-14623238D01*
X11631191Y-14623238D02*
X11621667Y-14613714D01*
X11621667Y-14613714D02*
X11602619Y-14604190D01*
X11846429Y-14718476D02*
X11846429Y-14518476D01*
X11932143Y-14718476D02*
X11932143Y-14613714D01*
X11932143Y-14613714D02*
X11922619Y-14594667D01*
X11922619Y-14594667D02*
X11903572Y-14585143D01*
X11903572Y-14585143D02*
X11875000Y-14585143D01*
X11875000Y-14585143D02*
X11855952Y-14594667D01*
X11855952Y-14594667D02*
X11846429Y-14604190D01*
X12055952Y-14718476D02*
X12036905Y-14708952D01*
X12036905Y-14708952D02*
X12027381Y-14699428D01*
X12027381Y-14699428D02*
X12017857Y-14680381D01*
X12017857Y-14680381D02*
X12017857Y-14623238D01*
X12017857Y-14623238D02*
X12027381Y-14604190D01*
X12027381Y-14604190D02*
X12036905Y-14594667D01*
X12036905Y-14594667D02*
X12055952Y-14585143D01*
X12055952Y-14585143D02*
X12084524Y-14585143D01*
X12084524Y-14585143D02*
X12103572Y-14594667D01*
X12103572Y-14594667D02*
X12113095Y-14604190D01*
X12113095Y-14604190D02*
X12122619Y-14623238D01*
X12122619Y-14623238D02*
X12122619Y-14680381D01*
X12122619Y-14680381D02*
X12113095Y-14699428D01*
X12113095Y-14699428D02*
X12103572Y-14708952D01*
X12103572Y-14708952D02*
X12084524Y-14718476D01*
X12084524Y-14718476D02*
X12055952Y-14718476D01*
X12236905Y-14718476D02*
X12217857Y-14708952D01*
X12217857Y-14708952D02*
X12208333Y-14689905D01*
X12208333Y-14689905D02*
X12208333Y-14518476D01*
X12389286Y-14708952D02*
X12370238Y-14718476D01*
X12370238Y-14718476D02*
X12332143Y-14718476D01*
X12332143Y-14718476D02*
X12313095Y-14708952D01*
X12313095Y-14708952D02*
X12303572Y-14689905D01*
X12303572Y-14689905D02*
X12303572Y-14613714D01*
X12303572Y-14613714D02*
X12313095Y-14594667D01*
X12313095Y-14594667D02*
X12332143Y-14585143D01*
X12332143Y-14585143D02*
X12370238Y-14585143D01*
X12370238Y-14585143D02*
X12389286Y-14594667D01*
X12389286Y-14594667D02*
X12398810Y-14613714D01*
X12398810Y-14613714D02*
X12398810Y-14632762D01*
X12398810Y-14632762D02*
X12303572Y-14651809D01*
X12475000Y-14708952D02*
X12494048Y-14718476D01*
X12494048Y-14718476D02*
X12532143Y-14718476D01*
X12532143Y-14718476D02*
X12551191Y-14708952D01*
X12551191Y-14708952D02*
X12560714Y-14689905D01*
X12560714Y-14689905D02*
X12560714Y-14680381D01*
X12560714Y-14680381D02*
X12551191Y-14661333D01*
X12551191Y-14661333D02*
X12532143Y-14651809D01*
X12532143Y-14651809D02*
X12503572Y-14651809D01*
X12503572Y-14651809D02*
X12484524Y-14642286D01*
X12484524Y-14642286D02*
X12475000Y-14623238D01*
X12475000Y-14623238D02*
X12475000Y-14613714D01*
X12475000Y-14613714D02*
X12484524Y-14594667D01*
X12484524Y-14594667D02*
X12503572Y-14585143D01*
X12503572Y-14585143D02*
X12532143Y-14585143D01*
X12532143Y-14585143D02*
X12551191Y-14594667D01*
X12627381Y-14794667D02*
X12636905Y-14785143D01*
X12636905Y-14785143D02*
X12655953Y-14756571D01*
X12655953Y-14756571D02*
X12665476Y-14737524D01*
X12665476Y-14737524D02*
X12675000Y-14708952D01*
X12675000Y-14708952D02*
X12684524Y-14661333D01*
X12684524Y-14661333D02*
X12684524Y-14623238D01*
X12684524Y-14623238D02*
X12675000Y-14575619D01*
X12675000Y-14575619D02*
X12665476Y-14547048D01*
X12665476Y-14547048D02*
X12655953Y-14528000D01*
X12655953Y-14528000D02*
X12636905Y-14499428D01*
X12636905Y-14499428D02*
X12627381Y-14489905D01*
X12956905Y-14794667D02*
X12947381Y-14785143D01*
X12947381Y-14785143D02*
X12928333Y-14756571D01*
X12928333Y-14756571D02*
X12918810Y-14737524D01*
X12918810Y-14737524D02*
X12909286Y-14708952D01*
X12909286Y-14708952D02*
X12899762Y-14661333D01*
X12899762Y-14661333D02*
X12899762Y-14623238D01*
X12899762Y-14623238D02*
X12909286Y-14575619D01*
X12909286Y-14575619D02*
X12918810Y-14547048D01*
X12918810Y-14547048D02*
X12928333Y-14528000D01*
X12928333Y-14528000D02*
X12947381Y-14499428D01*
X12947381Y-14499428D02*
X12956905Y-14489905D01*
X13033095Y-14585143D02*
X13033095Y-14718476D01*
X13033095Y-14604190D02*
X13042619Y-14594667D01*
X13042619Y-14594667D02*
X13061667Y-14585143D01*
X13061667Y-14585143D02*
X13090238Y-14585143D01*
X13090238Y-14585143D02*
X13109286Y-14594667D01*
X13109286Y-14594667D02*
X13118810Y-14613714D01*
X13118810Y-14613714D02*
X13118810Y-14718476D01*
X13242619Y-14718476D02*
X13223572Y-14708952D01*
X13223572Y-14708952D02*
X13214048Y-14699428D01*
X13214048Y-14699428D02*
X13204524Y-14680381D01*
X13204524Y-14680381D02*
X13204524Y-14623238D01*
X13204524Y-14623238D02*
X13214048Y-14604190D01*
X13214048Y-14604190D02*
X13223572Y-14594667D01*
X13223572Y-14594667D02*
X13242619Y-14585143D01*
X13242619Y-14585143D02*
X13271191Y-14585143D01*
X13271191Y-14585143D02*
X13290238Y-14594667D01*
X13290238Y-14594667D02*
X13299762Y-14604190D01*
X13299762Y-14604190D02*
X13309286Y-14623238D01*
X13309286Y-14623238D02*
X13309286Y-14680381D01*
X13309286Y-14680381D02*
X13299762Y-14699428D01*
X13299762Y-14699428D02*
X13290238Y-14708952D01*
X13290238Y-14708952D02*
X13271191Y-14718476D01*
X13271191Y-14718476D02*
X13242619Y-14718476D01*
X13366429Y-14585143D02*
X13442619Y-14585143D01*
X13395000Y-14518476D02*
X13395000Y-14689905D01*
X13395000Y-14689905D02*
X13404524Y-14708952D01*
X13404524Y-14708952D02*
X13423572Y-14718476D01*
X13423572Y-14718476D02*
X13442619Y-14718476D01*
X13629286Y-14585143D02*
X13629286Y-14785143D01*
X13629286Y-14594667D02*
X13648333Y-14585143D01*
X13648333Y-14585143D02*
X13686429Y-14585143D01*
X13686429Y-14585143D02*
X13705476Y-14594667D01*
X13705476Y-14594667D02*
X13715000Y-14604190D01*
X13715000Y-14604190D02*
X13724524Y-14623238D01*
X13724524Y-14623238D02*
X13724524Y-14680381D01*
X13724524Y-14680381D02*
X13715000Y-14699428D01*
X13715000Y-14699428D02*
X13705476Y-14708952D01*
X13705476Y-14708952D02*
X13686429Y-14718476D01*
X13686429Y-14718476D02*
X13648333Y-14718476D01*
X13648333Y-14718476D02*
X13629286Y-14708952D01*
X13838810Y-14718476D02*
X13819762Y-14708952D01*
X13819762Y-14708952D02*
X13810238Y-14689905D01*
X13810238Y-14689905D02*
X13810238Y-14518476D01*
X14000714Y-14718476D02*
X14000714Y-14613714D01*
X14000714Y-14613714D02*
X13991191Y-14594667D01*
X13991191Y-14594667D02*
X13972143Y-14585143D01*
X13972143Y-14585143D02*
X13934048Y-14585143D01*
X13934048Y-14585143D02*
X13915000Y-14594667D01*
X14000714Y-14708952D02*
X13981667Y-14718476D01*
X13981667Y-14718476D02*
X13934048Y-14718476D01*
X13934048Y-14718476D02*
X13915000Y-14708952D01*
X13915000Y-14708952D02*
X13905476Y-14689905D01*
X13905476Y-14689905D02*
X13905476Y-14670857D01*
X13905476Y-14670857D02*
X13915000Y-14651809D01*
X13915000Y-14651809D02*
X13934048Y-14642286D01*
X13934048Y-14642286D02*
X13981667Y-14642286D01*
X13981667Y-14642286D02*
X14000714Y-14632762D01*
X14067381Y-14585143D02*
X14143572Y-14585143D01*
X14095953Y-14518476D02*
X14095953Y-14689905D01*
X14095953Y-14689905D02*
X14105476Y-14708952D01*
X14105476Y-14708952D02*
X14124524Y-14718476D01*
X14124524Y-14718476D02*
X14143572Y-14718476D01*
X14286429Y-14708952D02*
X14267381Y-14718476D01*
X14267381Y-14718476D02*
X14229286Y-14718476D01*
X14229286Y-14718476D02*
X14210238Y-14708952D01*
X14210238Y-14708952D02*
X14200714Y-14689905D01*
X14200714Y-14689905D02*
X14200714Y-14613714D01*
X14200714Y-14613714D02*
X14210238Y-14594667D01*
X14210238Y-14594667D02*
X14229286Y-14585143D01*
X14229286Y-14585143D02*
X14267381Y-14585143D01*
X14267381Y-14585143D02*
X14286429Y-14594667D01*
X14286429Y-14594667D02*
X14295953Y-14613714D01*
X14295953Y-14613714D02*
X14295953Y-14632762D01*
X14295953Y-14632762D02*
X14200714Y-14651809D01*
X14467381Y-14718476D02*
X14467381Y-14518476D01*
X14467381Y-14708952D02*
X14448334Y-14718476D01*
X14448334Y-14718476D02*
X14410238Y-14718476D01*
X14410238Y-14718476D02*
X14391191Y-14708952D01*
X14391191Y-14708952D02*
X14381667Y-14699428D01*
X14381667Y-14699428D02*
X14372143Y-14680381D01*
X14372143Y-14680381D02*
X14372143Y-14623238D01*
X14372143Y-14623238D02*
X14381667Y-14604190D01*
X14381667Y-14604190D02*
X14391191Y-14594667D01*
X14391191Y-14594667D02*
X14410238Y-14585143D01*
X14410238Y-14585143D02*
X14448334Y-14585143D01*
X14448334Y-14585143D02*
X14467381Y-14594667D01*
X14543572Y-14794667D02*
X14553095Y-14785143D01*
X14553095Y-14785143D02*
X14572143Y-14756571D01*
X14572143Y-14756571D02*
X14581667Y-14737524D01*
X14581667Y-14737524D02*
X14591191Y-14708952D01*
X14591191Y-14708952D02*
X14600714Y-14661333D01*
X14600714Y-14661333D02*
X14600714Y-14623238D01*
X14600714Y-14623238D02*
X14591191Y-14575619D01*
X14591191Y-14575619D02*
X14581667Y-14547048D01*
X14581667Y-14547048D02*
X14572143Y-14528000D01*
X14572143Y-14528000D02*
X14553095Y-14499428D01*
X14553095Y-14499428D02*
X14543572Y-14489905D01*
M02*
