G04 #@! TF.FileFunction,Soldermask,Bot*
%FSLAX46Y46*%
G04 Gerber Fmt 4.6, Leading zero omitted, Abs format (unit mm)*
G04 Created by KiCad (PCBNEW 4.0.2-stable) date 18/08/2016 01:32:27*
%MOMM*%
G01*
G04 APERTURE LIST*
%ADD10C,0.100000*%
%ADD11O,2.000000X2.000000*%
%ADD12C,6.100000*%
%ADD13O,1.900000X2.400000*%
%ADD14R,1.900000X2.400000*%
%ADD15C,2.099260*%
%ADD16R,2.099260X2.099260*%
%ADD17R,2.432000X2.432000*%
%ADD18O,2.432000X2.432000*%
%ADD19R,2.127200X2.432000*%
%ADD20O,2.127200X2.432000*%
%ADD21R,2.599640X1.924000*%
%ADD22O,2.599640X1.924000*%
%ADD23C,1.924000*%
%ADD24C,2.899360*%
%ADD25R,2.127200X2.127200*%
%ADD26O,2.127200X2.127200*%
%ADD27O,2.400000X1.900000*%
%ADD28R,2.400000X1.900000*%
%ADD29R,1.700000X1.700000*%
%ADD30C,1.700000*%
%ADD31R,1.797000X1.797000*%
%ADD32C,1.797000*%
G04 APERTURE END LIST*
D10*
D11*
X133620000Y-74280000D03*
X133620000Y-71740000D03*
X133620000Y-69200000D03*
X133620000Y-66660000D03*
X133620000Y-64120000D03*
X133620000Y-61580000D03*
X133620000Y-59040000D03*
X133620000Y-56500000D03*
X126000000Y-56500000D03*
X126000000Y-59040000D03*
X126000000Y-61580000D03*
X126000000Y-64120000D03*
X126000000Y-66660000D03*
X126000000Y-69200000D03*
X126000000Y-71740000D03*
X126000000Y-74280000D03*
D12*
X199000000Y-16500000D03*
X164000000Y-17000000D03*
X199000000Y-106500000D03*
X164500000Y-106000000D03*
D11*
X108500000Y-32380000D03*
X108500000Y-34920000D03*
X108500000Y-37460000D03*
X108500000Y-40000000D03*
X108500000Y-42540000D03*
X108500000Y-45080000D03*
X108500000Y-47620000D03*
X108500000Y-50160000D03*
X108500000Y-52700000D03*
X108500000Y-55240000D03*
X116120000Y-55240000D03*
X116120000Y-52700000D03*
X116120000Y-50160000D03*
X116120000Y-47620000D03*
X116120000Y-45080000D03*
X116120000Y-42540000D03*
X116120000Y-40000000D03*
X116120000Y-37460000D03*
X116120000Y-34920000D03*
X116120000Y-32380000D03*
D13*
X42500000Y-80380000D03*
X45040000Y-80380000D03*
X47580000Y-80380000D03*
X50120000Y-80380000D03*
X52660000Y-80380000D03*
X55200000Y-80380000D03*
X57740000Y-80380000D03*
X60280000Y-80380000D03*
X62820000Y-80380000D03*
X65360000Y-80380000D03*
X67900000Y-80380000D03*
X70440000Y-80380000D03*
X72980000Y-80380000D03*
X75520000Y-80380000D03*
X78060000Y-80380000D03*
X80600000Y-80380000D03*
X83140000Y-80380000D03*
X85680000Y-80380000D03*
X88220000Y-80380000D03*
X90760000Y-80380000D03*
X93300000Y-80380000D03*
X95840000Y-80380000D03*
X98380000Y-80380000D03*
X100920000Y-80380000D03*
D14*
X103460000Y-80380000D03*
D13*
X103460000Y-83420000D03*
X100920000Y-83420000D03*
X98380000Y-83420000D03*
X95840000Y-83420000D03*
X93300000Y-83420000D03*
X90760000Y-83420000D03*
X88220000Y-83420000D03*
X85680000Y-83420000D03*
X83140000Y-83420000D03*
X80600000Y-83420000D03*
X78060000Y-83420000D03*
X75520000Y-83420000D03*
X72980000Y-83420000D03*
X70440000Y-83420000D03*
X67900000Y-83420000D03*
X65360000Y-83420000D03*
X62820000Y-83420000D03*
X60280000Y-83420000D03*
X57740000Y-83420000D03*
X55200000Y-83420000D03*
X52660000Y-83420000D03*
X50120000Y-83420000D03*
X47580000Y-83420000D03*
X45040000Y-83420000D03*
X42500000Y-83420000D03*
X42500000Y-32620000D03*
X45040000Y-32620000D03*
X47580000Y-32620000D03*
X50120000Y-32620000D03*
X52660000Y-32620000D03*
X55200000Y-32620000D03*
X57740000Y-32620000D03*
X60280000Y-32620000D03*
X62820000Y-32620000D03*
X65360000Y-32620000D03*
X67900000Y-32620000D03*
X70440000Y-32620000D03*
X72980000Y-32620000D03*
X75520000Y-32620000D03*
X78060000Y-32620000D03*
X80600000Y-32620000D03*
X83140000Y-32620000D03*
X85680000Y-32620000D03*
X88220000Y-32620000D03*
X90760000Y-32620000D03*
X93300000Y-32620000D03*
X95840000Y-32620000D03*
X98380000Y-32620000D03*
X100920000Y-32620000D03*
X103460000Y-32620000D03*
D14*
X103460000Y-29580000D03*
D13*
X100920000Y-29580000D03*
X98380000Y-29580000D03*
X95840000Y-29580000D03*
X93300000Y-29580000D03*
X90760000Y-29580000D03*
X88220000Y-29580000D03*
X85680000Y-29580000D03*
X83140000Y-29580000D03*
X80600000Y-29580000D03*
X78060000Y-29580000D03*
X75520000Y-29580000D03*
X72980000Y-29580000D03*
X70440000Y-29580000D03*
X67900000Y-29580000D03*
X65360000Y-29580000D03*
X62820000Y-29580000D03*
X60280000Y-29580000D03*
X57740000Y-29580000D03*
X55200000Y-29580000D03*
X52660000Y-29580000D03*
X50120000Y-29580000D03*
X47580000Y-29580000D03*
X45040000Y-29580000D03*
X42500000Y-29580000D03*
D12*
X44000000Y-96000000D03*
D15*
X121160520Y-84997460D03*
D16*
X111000520Y-84997460D03*
D17*
X141500000Y-16000000D03*
D18*
X144040000Y-16000000D03*
D19*
X139960000Y-91500000D03*
D20*
X142500000Y-91500000D03*
X145040000Y-91500000D03*
D17*
X141960000Y-20500000D03*
D18*
X144500000Y-20500000D03*
D21*
X119500000Y-78660000D03*
D22*
X119500000Y-76120000D03*
X119500000Y-73580000D03*
X119500000Y-71040000D03*
X119500000Y-68500000D03*
D23*
X110070000Y-81500000D03*
X121500000Y-81500000D03*
X128285000Y-88000000D03*
X139715000Y-88000000D03*
X79000000Y-89000000D03*
X90430000Y-89000000D03*
X135215000Y-48500000D03*
X123785000Y-48500000D03*
X88430000Y-86500000D03*
X77000000Y-86500000D03*
X114785000Y-88000000D03*
X126215000Y-88000000D03*
X126285000Y-45500000D03*
X137715000Y-45500000D03*
D24*
X142500000Y-55000000D03*
X140000640Y-50001280D03*
X144999360Y-50001280D03*
X152500000Y-55000000D03*
X150000640Y-50001280D03*
X154999360Y-50001280D03*
D25*
X140460000Y-96000000D03*
D26*
X143000000Y-96000000D03*
D23*
X123000000Y-52000000D03*
X125286000Y-52000000D03*
X120714000Y-52000000D03*
D27*
X144250000Y-28840000D03*
X141210000Y-28840000D03*
X141210000Y-31380000D03*
X144250000Y-31380000D03*
D28*
X144250000Y-39000000D03*
D27*
X141210000Y-39000000D03*
X144250000Y-36460000D03*
X141210000Y-36460000D03*
X144250000Y-33920000D03*
X141210000Y-33920000D03*
D13*
X77340000Y-16750000D03*
X77340000Y-19790000D03*
X79880000Y-19790000D03*
X79880000Y-16750000D03*
D14*
X87500000Y-16750000D03*
D13*
X87500000Y-19790000D03*
X84960000Y-16750000D03*
X84960000Y-19790000D03*
X82420000Y-16750000D03*
X82420000Y-19790000D03*
X53380000Y-93710000D03*
X53380000Y-96750000D03*
X55920000Y-96750000D03*
X55920000Y-93710000D03*
D14*
X63540000Y-93710000D03*
D13*
X63540000Y-96750000D03*
X61000000Y-93710000D03*
X61000000Y-96750000D03*
X58460000Y-93710000D03*
X58460000Y-96750000D03*
X99340000Y-93710000D03*
X99340000Y-96750000D03*
X101880000Y-96750000D03*
X101880000Y-93710000D03*
D14*
X109500000Y-93710000D03*
D13*
X109500000Y-96750000D03*
X106960000Y-93710000D03*
X106960000Y-96750000D03*
X104420000Y-93710000D03*
X104420000Y-96750000D03*
X55340000Y-16710000D03*
X55340000Y-19750000D03*
X57880000Y-19750000D03*
X57880000Y-16710000D03*
D14*
X65500000Y-16710000D03*
D13*
X65500000Y-19750000D03*
X62960000Y-16710000D03*
X62960000Y-19750000D03*
X60420000Y-16710000D03*
X60420000Y-19750000D03*
D27*
X154250000Y-28840000D03*
X151210000Y-28840000D03*
X151210000Y-31380000D03*
X154250000Y-31380000D03*
D28*
X154250000Y-39000000D03*
D27*
X151210000Y-39000000D03*
X154250000Y-36460000D03*
X151210000Y-36460000D03*
X154250000Y-33920000D03*
X151210000Y-33920000D03*
D13*
X99500000Y-16710000D03*
X99500000Y-19750000D03*
X102040000Y-19750000D03*
X102040000Y-16710000D03*
D14*
X109660000Y-16710000D03*
D13*
X109660000Y-19750000D03*
X107120000Y-16710000D03*
X107120000Y-19750000D03*
X104580000Y-16710000D03*
X104580000Y-19750000D03*
X121960000Y-16750000D03*
X121960000Y-19790000D03*
X124500000Y-19790000D03*
X124500000Y-16750000D03*
D14*
X132120000Y-16750000D03*
D13*
X132120000Y-19790000D03*
X129580000Y-16750000D03*
X129580000Y-19790000D03*
X127040000Y-16750000D03*
X127040000Y-19790000D03*
X86500000Y-96750000D03*
X86500000Y-93710000D03*
X83960000Y-93710000D03*
X83960000Y-96750000D03*
D14*
X76340000Y-96750000D03*
D13*
X76340000Y-93710000D03*
X78880000Y-96750000D03*
X78880000Y-93710000D03*
X81420000Y-96750000D03*
X81420000Y-93710000D03*
X132000000Y-96750000D03*
X132000000Y-93710000D03*
X129460000Y-93710000D03*
X129460000Y-96750000D03*
D14*
X121840000Y-96750000D03*
D13*
X121840000Y-93710000D03*
X124380000Y-96750000D03*
X124380000Y-93710000D03*
X126920000Y-96750000D03*
X126920000Y-93710000D03*
D27*
X144250000Y-83700000D03*
X141210000Y-83700000D03*
X141210000Y-81160000D03*
X144250000Y-81160000D03*
X144250000Y-78620000D03*
X141210000Y-78620000D03*
X141210000Y-76080000D03*
X144250000Y-76080000D03*
X144250000Y-73540000D03*
X141210000Y-73540000D03*
D28*
X141210000Y-65920000D03*
D27*
X144250000Y-65920000D03*
X141210000Y-68460000D03*
X144250000Y-68460000D03*
X141210000Y-71000000D03*
X144250000Y-71000000D03*
X154250000Y-83780000D03*
X151210000Y-83780000D03*
X151210000Y-81240000D03*
X154250000Y-81240000D03*
X154250000Y-78700000D03*
X151210000Y-78700000D03*
X151210000Y-76160000D03*
X154250000Y-76160000D03*
X154250000Y-73620000D03*
X151210000Y-73620000D03*
D28*
X151210000Y-66000000D03*
D27*
X154250000Y-66000000D03*
X151210000Y-68540000D03*
X154250000Y-68540000D03*
X151210000Y-71080000D03*
X154250000Y-71080000D03*
D12*
X154000000Y-17000000D03*
X44000000Y-17000000D03*
X154000000Y-96000000D03*
D29*
X132000000Y-52000000D03*
D30*
X129500000Y-52000000D03*
D29*
X121500000Y-35000000D03*
D30*
X121500000Y-32500000D03*
D31*
X182530000Y-88190000D03*
D32*
X174910000Y-88190000D03*
D31*
X182200000Y-58070000D03*
D32*
X174580000Y-58070000D03*
D11*
X172250000Y-82290000D03*
X174790000Y-82290000D03*
X177330000Y-82290000D03*
X179870000Y-82290000D03*
X179870000Y-74670000D03*
X177330000Y-74670000D03*
X174790000Y-74670000D03*
X172250000Y-74670000D03*
X172170000Y-51770000D03*
X174710000Y-51770000D03*
X177250000Y-51770000D03*
X179790000Y-51770000D03*
X179790000Y-44150000D03*
X177250000Y-44150000D03*
X174710000Y-44150000D03*
X172170000Y-44150000D03*
D24*
X190727540Y-100645319D03*
X188225640Y-88151059D03*
X190725000Y-93147239D03*
X190727540Y-85649159D03*
X188225640Y-98143419D03*
X200722440Y-88145979D03*
X200722440Y-98148499D03*
X190735100Y-57386820D03*
X188233200Y-44892560D03*
X190732560Y-49888740D03*
X190735100Y-42390660D03*
X188233200Y-54884920D03*
X200730000Y-44887480D03*
X200730000Y-54890000D03*
X190727540Y-78945319D03*
X188225640Y-66451059D03*
X190725000Y-71447239D03*
X190727540Y-63949159D03*
X188225640Y-76443419D03*
X200722440Y-66445979D03*
X200722440Y-76448499D03*
X190725100Y-35986820D03*
X188223200Y-23492560D03*
X190722560Y-28488740D03*
X190725100Y-20990660D03*
X188223200Y-33484920D03*
X200720000Y-23487480D03*
X200720000Y-33490000D03*
D13*
X167650000Y-93390000D03*
X167650000Y-96430000D03*
X170190000Y-96430000D03*
X170190000Y-93390000D03*
D14*
X177810000Y-93390000D03*
D13*
X177810000Y-96430000D03*
X175270000Y-93390000D03*
X175270000Y-96430000D03*
X172730000Y-93390000D03*
X172730000Y-96430000D03*
X167290000Y-25370000D03*
X167290000Y-28410000D03*
X169830000Y-28410000D03*
X169830000Y-25370000D03*
D14*
X177450000Y-25370000D03*
D13*
X177450000Y-28410000D03*
X174910000Y-25370000D03*
X174910000Y-28410000D03*
X172370000Y-25370000D03*
X172370000Y-28410000D03*
D32*
X172820000Y-61160000D03*
X180440000Y-61160000D03*
X174860000Y-70800000D03*
X182480000Y-70800000D03*
X187040000Y-18290000D03*
X194660000Y-18290000D03*
X174640000Y-41030000D03*
X182260000Y-41030000D03*
X182580000Y-85380000D03*
X174960000Y-85380000D03*
X178460000Y-67430000D03*
X170840000Y-67430000D03*
X182010000Y-64750000D03*
X174390000Y-64750000D03*
X182480000Y-55030000D03*
X174860000Y-55030000D03*
X174280000Y-37710000D03*
X166660000Y-37710000D03*
X182020000Y-33850000D03*
X174400000Y-33850000D03*
M02*
