G04 #@! TF.FileFunction,Legend,Top*
%FSLAX46Y46*%
G04 Gerber Fmt 4.6, Leading zero omitted, Abs format (unit mm)*
G04 Created by KiCad (PCBNEW 4.0.2-stable) date 18/08/2016 01:32:27*
%MOMM*%
G01*
G04 APERTURE LIST*
%ADD10C,0.100000*%
%ADD11C,0.300000*%
%ADD12C,0.200000*%
%ADD13C,0.150000*%
%ADD14C,0.381000*%
%ADD15C,0.317500*%
%ADD16C,0.304800*%
%ADD17C,0.299720*%
%ADD18C,0.203200*%
G04 APERTURE END LIST*
D10*
D11*
X164978571Y-68321429D02*
X163478571Y-68321429D01*
X164550000Y-67821429D01*
X163478571Y-67321429D01*
X164978571Y-67321429D01*
X164978571Y-66607143D02*
X163478571Y-66607143D01*
X164978571Y-65892857D02*
X163478571Y-65892857D01*
X163478571Y-65535714D01*
X163550000Y-65321429D01*
X163692857Y-65178571D01*
X163835714Y-65107143D01*
X164121429Y-65035714D01*
X164335714Y-65035714D01*
X164621429Y-65107143D01*
X164764286Y-65178571D01*
X164907143Y-65321429D01*
X164978571Y-65535714D01*
X164978571Y-65892857D01*
X164978571Y-64392857D02*
X163478571Y-64392857D01*
X164978571Y-62535714D02*
X163478571Y-62535714D01*
X163407143Y-60750000D02*
X165335714Y-62035714D01*
X163478571Y-59964285D02*
X163478571Y-59678571D01*
X163550000Y-59535713D01*
X163692857Y-59392856D01*
X163978571Y-59321428D01*
X164478571Y-59321428D01*
X164764286Y-59392856D01*
X164907143Y-59535713D01*
X164978571Y-59678571D01*
X164978571Y-59964285D01*
X164907143Y-60107142D01*
X164764286Y-60249999D01*
X164478571Y-60321428D01*
X163978571Y-60321428D01*
X163692857Y-60249999D01*
X163550000Y-60107142D01*
X163478571Y-59964285D01*
X164978571Y-57535713D02*
X163478571Y-57535713D01*
X164978571Y-56678570D02*
X164121429Y-57321427D01*
X163478571Y-56678570D02*
X164335714Y-57535713D01*
X164907143Y-56107142D02*
X164978571Y-55964285D01*
X164978571Y-55678570D01*
X164907143Y-55535713D01*
X164764286Y-55464285D01*
X164692857Y-55464285D01*
X164550000Y-55535713D01*
X164478571Y-55678570D01*
X164478571Y-55892856D01*
X164407143Y-56035713D01*
X164264286Y-56107142D01*
X164192857Y-56107142D01*
X164050000Y-56035713D01*
X163978571Y-55892856D01*
X163978571Y-55678570D01*
X164050000Y-55535713D01*
X165121429Y-55178570D02*
X165121429Y-54035713D01*
X163478571Y-53892856D02*
X164978571Y-53392856D01*
X163478571Y-52892856D01*
X164978571Y-51607142D02*
X164978571Y-52464285D01*
X164978571Y-52035713D02*
X163478571Y-52035713D01*
X163692857Y-52178570D01*
X163835714Y-52321428D01*
X163907143Y-52464285D01*
X167378571Y-66035715D02*
X165878571Y-66035715D01*
X166950000Y-65535715D01*
X165878571Y-65035715D01*
X167378571Y-65035715D01*
X167378571Y-64321429D02*
X166378571Y-64321429D01*
X165878571Y-64321429D02*
X165950000Y-64392858D01*
X166021429Y-64321429D01*
X165950000Y-64250001D01*
X165878571Y-64321429D01*
X166021429Y-64321429D01*
X167378571Y-62964286D02*
X165878571Y-62964286D01*
X167307143Y-62964286D02*
X167378571Y-63107143D01*
X167378571Y-63392857D01*
X167307143Y-63535715D01*
X167235714Y-63607143D01*
X167092857Y-63678572D01*
X166664286Y-63678572D01*
X166521429Y-63607143D01*
X166450000Y-63535715D01*
X166378571Y-63392857D01*
X166378571Y-63107143D01*
X166450000Y-62964286D01*
X167378571Y-62250000D02*
X166378571Y-62250000D01*
X165878571Y-62250000D02*
X165950000Y-62321429D01*
X166021429Y-62250000D01*
X165950000Y-62178572D01*
X165878571Y-62250000D01*
X166021429Y-62250000D01*
X167378571Y-61535714D02*
X165878571Y-61535714D01*
X166450000Y-61535714D02*
X166378571Y-61392857D01*
X166378571Y-61107143D01*
X166450000Y-60964286D01*
X166521429Y-60892857D01*
X166664286Y-60821428D01*
X167092857Y-60821428D01*
X167235714Y-60892857D01*
X167307143Y-60964286D01*
X167378571Y-61107143D01*
X167378571Y-61392857D01*
X167307143Y-61535714D01*
X167378571Y-59964285D02*
X167307143Y-60107143D01*
X167235714Y-60178571D01*
X167092857Y-60250000D01*
X166664286Y-60250000D01*
X166521429Y-60178571D01*
X166450000Y-60107143D01*
X166378571Y-59964285D01*
X166378571Y-59750000D01*
X166450000Y-59607143D01*
X166521429Y-59535714D01*
X166664286Y-59464285D01*
X167092857Y-59464285D01*
X167235714Y-59535714D01*
X167307143Y-59607143D01*
X167378571Y-59750000D01*
X167378571Y-59964285D01*
X167378571Y-58964285D02*
X166378571Y-58178571D01*
X166378571Y-58964285D02*
X167378571Y-58178571D01*
X167235714Y-57607142D02*
X167307143Y-57535714D01*
X167378571Y-57607142D01*
X167307143Y-57678571D01*
X167235714Y-57607142D01*
X167378571Y-57607142D01*
X167378571Y-56678570D02*
X167307143Y-56821428D01*
X167235714Y-56892856D01*
X167092857Y-56964285D01*
X166664286Y-56964285D01*
X166521429Y-56892856D01*
X166450000Y-56821428D01*
X166378571Y-56678570D01*
X166378571Y-56464285D01*
X166450000Y-56321428D01*
X166521429Y-56249999D01*
X166664286Y-56178570D01*
X167092857Y-56178570D01*
X167235714Y-56249999D01*
X167307143Y-56321428D01*
X167378571Y-56464285D01*
X167378571Y-56678570D01*
X167378571Y-55535713D02*
X166378571Y-55535713D01*
X166664286Y-55535713D02*
X166521429Y-55464285D01*
X166450000Y-55392856D01*
X166378571Y-55249999D01*
X166378571Y-55107142D01*
X166378571Y-53964285D02*
X167592857Y-53964285D01*
X167735714Y-54035714D01*
X167807143Y-54107142D01*
X167878571Y-54249999D01*
X167878571Y-54464285D01*
X167807143Y-54607142D01*
X167307143Y-53964285D02*
X167378571Y-54107142D01*
X167378571Y-54392856D01*
X167307143Y-54535714D01*
X167235714Y-54607142D01*
X167092857Y-54678571D01*
X166664286Y-54678571D01*
X166521429Y-54607142D01*
X166450000Y-54535714D01*
X166378571Y-54392856D01*
X166378571Y-54107142D01*
X166450000Y-53964285D01*
D12*
X158000000Y-100000000D02*
X158000000Y-13000000D01*
X40000000Y-100000000D02*
X158000000Y-100000000D01*
X40000000Y-13000000D02*
X40000000Y-100000000D01*
X158000000Y-13000000D02*
X40000000Y-13000000D01*
D11*
X51750002Y-62478571D02*
X51750002Y-60978571D01*
X52250002Y-62050000D01*
X52750002Y-60978571D01*
X52750002Y-62478571D01*
X53964288Y-61692857D02*
X54178574Y-61764286D01*
X54250002Y-61835714D01*
X54321431Y-61978571D01*
X54321431Y-62192857D01*
X54250002Y-62335714D01*
X54178574Y-62407143D01*
X54035716Y-62478571D01*
X53464288Y-62478571D01*
X53464288Y-60978571D01*
X53964288Y-60978571D01*
X54107145Y-61050000D01*
X54178574Y-61121429D01*
X54250002Y-61264286D01*
X54250002Y-61407143D01*
X54178574Y-61550000D01*
X54107145Y-61621429D01*
X53964288Y-61692857D01*
X53464288Y-61692857D01*
X54964288Y-62478571D02*
X54964288Y-60978571D01*
X54964288Y-61692857D02*
X55821431Y-61692857D01*
X55821431Y-62478571D02*
X55821431Y-60978571D01*
X56535717Y-62478571D02*
X56535717Y-60978571D01*
X57107145Y-60978571D01*
X57250003Y-61050000D01*
X57321431Y-61121429D01*
X57392860Y-61264286D01*
X57392860Y-61478571D01*
X57321431Y-61621429D01*
X57250003Y-61692857D01*
X57107145Y-61764286D01*
X56535717Y-61764286D01*
X57678574Y-62621429D02*
X58821431Y-62621429D01*
X60035717Y-62335714D02*
X59964288Y-62407143D01*
X59750002Y-62478571D01*
X59607145Y-62478571D01*
X59392860Y-62407143D01*
X59250002Y-62264286D01*
X59178574Y-62121429D01*
X59107145Y-61835714D01*
X59107145Y-61621429D01*
X59178574Y-61335714D01*
X59250002Y-61192857D01*
X59392860Y-61050000D01*
X59607145Y-60978571D01*
X59750002Y-60978571D01*
X59964288Y-61050000D01*
X60035717Y-61121429D01*
X60892860Y-62478571D02*
X60750002Y-62407143D01*
X60678574Y-62335714D01*
X60607145Y-62192857D01*
X60607145Y-61764286D01*
X60678574Y-61621429D01*
X60750002Y-61550000D01*
X60892860Y-61478571D01*
X61107145Y-61478571D01*
X61250002Y-61550000D01*
X61321431Y-61621429D01*
X61392860Y-61764286D01*
X61392860Y-62192857D01*
X61321431Y-62335714D01*
X61250002Y-62407143D01*
X61107145Y-62478571D01*
X60892860Y-62478571D01*
X62035717Y-62478571D02*
X62035717Y-61478571D01*
X62035717Y-61764286D02*
X62107145Y-61621429D01*
X62178574Y-61550000D01*
X62321431Y-61478571D01*
X62464288Y-61478571D01*
X63535716Y-62407143D02*
X63392859Y-62478571D01*
X63107145Y-62478571D01*
X62964288Y-62407143D01*
X62892859Y-62264286D01*
X62892859Y-61692857D01*
X62964288Y-61550000D01*
X63107145Y-61478571D01*
X63392859Y-61478571D01*
X63535716Y-61550000D01*
X63607145Y-61692857D01*
X63607145Y-61835714D01*
X62892859Y-61978571D01*
X63892859Y-62621429D02*
X65035716Y-62621429D01*
X65321430Y-62407143D02*
X65535716Y-62478571D01*
X65892859Y-62478571D01*
X66035716Y-62407143D01*
X66107145Y-62335714D01*
X66178573Y-62192857D01*
X66178573Y-62050000D01*
X66107145Y-61907143D01*
X66035716Y-61835714D01*
X65892859Y-61764286D01*
X65607145Y-61692857D01*
X65464287Y-61621429D01*
X65392859Y-61550000D01*
X65321430Y-61407143D01*
X65321430Y-61264286D01*
X65392859Y-61121429D01*
X65464287Y-61050000D01*
X65607145Y-60978571D01*
X65964287Y-60978571D01*
X66178573Y-61050000D01*
X66607144Y-60978571D02*
X67464287Y-60978571D01*
X67035716Y-62478571D02*
X67035716Y-60978571D01*
X67964287Y-62478571D02*
X67964287Y-60978571D01*
X68464287Y-62050000D01*
X68964287Y-60978571D01*
X68964287Y-62478571D01*
X69535716Y-60978571D02*
X70464287Y-60978571D01*
X69964287Y-61550000D01*
X70178573Y-61550000D01*
X70321430Y-61621429D01*
X70392859Y-61692857D01*
X70464287Y-61835714D01*
X70464287Y-62192857D01*
X70392859Y-62335714D01*
X70321430Y-62407143D01*
X70178573Y-62478571D01*
X69750001Y-62478571D01*
X69607144Y-62407143D01*
X69535716Y-62335714D01*
X71035715Y-61121429D02*
X71107144Y-61050000D01*
X71250001Y-60978571D01*
X71607144Y-60978571D01*
X71750001Y-61050000D01*
X71821430Y-61121429D01*
X71892858Y-61264286D01*
X71892858Y-61407143D01*
X71821430Y-61621429D01*
X70964287Y-62478571D01*
X71892858Y-62478571D01*
X73035715Y-61692857D02*
X72535715Y-61692857D01*
X72535715Y-62478571D02*
X72535715Y-60978571D01*
X73250001Y-60978571D01*
X74464286Y-61478571D02*
X74464286Y-62478571D01*
X74107143Y-60907143D02*
X73750000Y-61978571D01*
X74678572Y-61978571D01*
X76392857Y-62478571D02*
X76392857Y-60978571D01*
X77250000Y-62478571D02*
X76607143Y-61621429D01*
X77250000Y-60978571D02*
X76392857Y-61835714D01*
X77821428Y-62407143D02*
X77964285Y-62478571D01*
X78250000Y-62478571D01*
X78392857Y-62407143D01*
X78464285Y-62264286D01*
X78464285Y-62192857D01*
X78392857Y-62050000D01*
X78250000Y-61978571D01*
X78035714Y-61978571D01*
X77892857Y-61907143D01*
X77821428Y-61764286D01*
X77821428Y-61692857D01*
X77892857Y-61550000D01*
X78035714Y-61478571D01*
X78250000Y-61478571D01*
X78392857Y-61550000D01*
X78750000Y-62621429D02*
X79892857Y-62621429D01*
X80035714Y-60978571D02*
X80535714Y-62478571D01*
X81035714Y-60978571D01*
X82321428Y-62478571D02*
X81464285Y-62478571D01*
X81892857Y-62478571D02*
X81892857Y-60978571D01*
X81750000Y-61192857D01*
X81607142Y-61335714D01*
X81464285Y-61407143D01*
X60964285Y-64878571D02*
X60964285Y-63378571D01*
X61464285Y-64450000D01*
X61964285Y-63378571D01*
X61964285Y-64878571D01*
X62678571Y-64878571D02*
X62678571Y-63878571D01*
X62678571Y-63378571D02*
X62607142Y-63450000D01*
X62678571Y-63521429D01*
X62749999Y-63450000D01*
X62678571Y-63378571D01*
X62678571Y-63521429D01*
X64035714Y-64878571D02*
X64035714Y-63378571D01*
X64035714Y-64807143D02*
X63892857Y-64878571D01*
X63607143Y-64878571D01*
X63464285Y-64807143D01*
X63392857Y-64735714D01*
X63321428Y-64592857D01*
X63321428Y-64164286D01*
X63392857Y-64021429D01*
X63464285Y-63950000D01*
X63607143Y-63878571D01*
X63892857Y-63878571D01*
X64035714Y-63950000D01*
X64750000Y-64878571D02*
X64750000Y-63878571D01*
X64750000Y-63378571D02*
X64678571Y-63450000D01*
X64750000Y-63521429D01*
X64821428Y-63450000D01*
X64750000Y-63378571D01*
X64750000Y-63521429D01*
X65464286Y-64878571D02*
X65464286Y-63378571D01*
X65464286Y-63950000D02*
X65607143Y-63878571D01*
X65892857Y-63878571D01*
X66035714Y-63950000D01*
X66107143Y-64021429D01*
X66178572Y-64164286D01*
X66178572Y-64592857D01*
X66107143Y-64735714D01*
X66035714Y-64807143D01*
X65892857Y-64878571D01*
X65607143Y-64878571D01*
X65464286Y-64807143D01*
X67035715Y-64878571D02*
X66892857Y-64807143D01*
X66821429Y-64735714D01*
X66750000Y-64592857D01*
X66750000Y-64164286D01*
X66821429Y-64021429D01*
X66892857Y-63950000D01*
X67035715Y-63878571D01*
X67250000Y-63878571D01*
X67392857Y-63950000D01*
X67464286Y-64021429D01*
X67535715Y-64164286D01*
X67535715Y-64592857D01*
X67464286Y-64735714D01*
X67392857Y-64807143D01*
X67250000Y-64878571D01*
X67035715Y-64878571D01*
X68035715Y-64878571D02*
X68821429Y-63878571D01*
X68035715Y-63878571D02*
X68821429Y-64878571D01*
X69392858Y-64735714D02*
X69464286Y-64807143D01*
X69392858Y-64878571D01*
X69321429Y-64807143D01*
X69392858Y-64735714D01*
X69392858Y-64878571D01*
X70321430Y-64878571D02*
X70178572Y-64807143D01*
X70107144Y-64735714D01*
X70035715Y-64592857D01*
X70035715Y-64164286D01*
X70107144Y-64021429D01*
X70178572Y-63950000D01*
X70321430Y-63878571D01*
X70535715Y-63878571D01*
X70678572Y-63950000D01*
X70750001Y-64021429D01*
X70821430Y-64164286D01*
X70821430Y-64592857D01*
X70750001Y-64735714D01*
X70678572Y-64807143D01*
X70535715Y-64878571D01*
X70321430Y-64878571D01*
X71464287Y-64878571D02*
X71464287Y-63878571D01*
X71464287Y-64164286D02*
X71535715Y-64021429D01*
X71607144Y-63950000D01*
X71750001Y-63878571D01*
X71892858Y-63878571D01*
X73035715Y-63878571D02*
X73035715Y-65092857D01*
X72964286Y-65235714D01*
X72892858Y-65307143D01*
X72750001Y-65378571D01*
X72535715Y-65378571D01*
X72392858Y-65307143D01*
X73035715Y-64807143D02*
X72892858Y-64878571D01*
X72607144Y-64878571D01*
X72464286Y-64807143D01*
X72392858Y-64735714D01*
X72321429Y-64592857D01*
X72321429Y-64164286D01*
X72392858Y-64021429D01*
X72464286Y-63950000D01*
X72607144Y-63878571D01*
X72892858Y-63878571D01*
X73035715Y-63950000D01*
D13*
X202500000Y-13000000D02*
X160000000Y-13000000D01*
X160000000Y-110000000D02*
X160000000Y-13000000D01*
X202500000Y-110000000D02*
X161000000Y-110000000D01*
X202500000Y-13000000D02*
X202500000Y-110000000D01*
X131080000Y-76566000D02*
G75*
G03X128540000Y-76566000I-1270000J0D01*
G01*
X133485000Y-76575000D02*
X133485000Y-75305000D01*
X126135000Y-76575000D02*
X126135000Y-75305000D01*
X126135000Y-54205000D02*
X126135000Y-55475000D01*
X133485000Y-54205000D02*
X133485000Y-55475000D01*
X133485000Y-76575000D02*
X126135000Y-76575000D01*
X133485000Y-54205000D02*
X126135000Y-54205000D01*
X133485000Y-75305000D02*
X134420000Y-75305000D01*
X111040000Y-30094000D02*
G75*
G03X113580000Y-30094000I1270000J0D01*
G01*
X108635000Y-30085000D02*
X108635000Y-31355000D01*
X115985000Y-30085000D02*
X115985000Y-31355000D01*
X115985000Y-57535000D02*
X115985000Y-56265000D01*
X108635000Y-57535000D02*
X108635000Y-56265000D01*
X108635000Y-30085000D02*
X115985000Y-30085000D01*
X108635000Y-57535000D02*
X115985000Y-57535000D01*
X108635000Y-31355000D02*
X107700000Y-31355000D01*
D14*
X41230000Y-79360000D02*
X104730000Y-79360000D01*
X104730000Y-79360000D02*
X104730000Y-84440000D01*
X41230000Y-79360000D02*
X41230000Y-84440000D01*
X41230000Y-84440000D02*
X104730000Y-84440000D01*
X102178500Y-79360000D02*
X102178500Y-84440000D01*
X102178500Y-28560000D02*
X102178500Y-33640000D01*
X41230000Y-33640000D02*
X104730000Y-33640000D01*
X137280000Y-23500000D02*
X40280000Y-23500000D01*
X40280000Y-89500000D02*
X137280000Y-89500000D01*
X137280000Y-89500000D02*
X137280000Y-23500000D01*
X40280000Y-89500000D02*
X40280000Y-23500000D01*
X41230000Y-28560000D02*
X41230000Y-33640000D01*
X104730000Y-28560000D02*
X104730000Y-33640000D01*
X41230000Y-28560000D02*
X104730000Y-28560000D01*
D13*
X118366520Y-84997460D02*
X119763520Y-84997460D01*
X113921520Y-84997460D02*
X112397520Y-84997460D01*
X114302520Y-84235460D02*
X114302520Y-85759460D01*
X114048520Y-84235460D02*
X114048520Y-85759460D01*
X113794520Y-84997460D02*
X113794520Y-85759460D01*
X113794520Y-85759460D02*
X118366520Y-85759460D01*
X118366520Y-85759460D02*
X118366520Y-84235460D01*
X118366520Y-84235460D02*
X113794520Y-84235460D01*
X113794520Y-84235460D02*
X113794520Y-84997460D01*
X142770000Y-14730000D02*
X145310000Y-14730000D01*
X139950000Y-14450000D02*
X141500000Y-14450000D01*
X142770000Y-14730000D02*
X142770000Y-17270000D01*
X141500000Y-17550000D02*
X139950000Y-17550000D01*
X139950000Y-17550000D02*
X139950000Y-14450000D01*
X142770000Y-17270000D02*
X145310000Y-17270000D01*
X145310000Y-17270000D02*
X145310000Y-14730000D01*
X141230000Y-92770000D02*
X146310000Y-92770000D01*
X146310000Y-92770000D02*
X146310000Y-90230000D01*
X146310000Y-90230000D02*
X141230000Y-90230000D01*
X138410000Y-89950000D02*
X139960000Y-89950000D01*
X141230000Y-90230000D02*
X141230000Y-92770000D01*
X139960000Y-93050000D02*
X138410000Y-93050000D01*
X138410000Y-93050000D02*
X138410000Y-89950000D01*
X143230000Y-19230000D02*
X145770000Y-19230000D01*
X140410000Y-18950000D02*
X141960000Y-18950000D01*
X143230000Y-19230000D02*
X143230000Y-21770000D01*
X141960000Y-22050000D02*
X140410000Y-22050000D01*
X140410000Y-22050000D02*
X140410000Y-18950000D01*
X143230000Y-21770000D02*
X145770000Y-21770000D01*
X145770000Y-21770000D02*
X145770000Y-19230000D01*
D15*
X118230000Y-79930000D02*
X118230000Y-67230000D01*
X120770000Y-67230000D02*
X120770000Y-79930000D01*
D16*
X118230000Y-77390000D02*
X120770000Y-77390000D01*
D15*
X118230000Y-67230000D02*
X120770000Y-67230000D01*
D16*
X120770000Y-79930000D02*
X118230000Y-79930000D01*
D13*
X111340000Y-80230000D02*
X111340000Y-82770000D01*
X111340000Y-82770000D02*
X120230000Y-82770000D01*
X120230000Y-82770000D02*
X120230000Y-80230000D01*
X120230000Y-80230000D02*
X111340000Y-80230000D01*
X111340000Y-80865000D02*
X111975000Y-80230000D01*
X111340000Y-81500000D02*
X110070000Y-81500000D01*
X120230000Y-81500000D02*
X121500000Y-81500000D01*
X129555000Y-86730000D02*
X129555000Y-89270000D01*
X129555000Y-89270000D02*
X138445000Y-89270000D01*
X138445000Y-89270000D02*
X138445000Y-86730000D01*
X138445000Y-86730000D02*
X129555000Y-86730000D01*
X129555000Y-87365000D02*
X130190000Y-86730000D01*
X129555000Y-88000000D02*
X128285000Y-88000000D01*
X138445000Y-88000000D02*
X139715000Y-88000000D01*
X80270000Y-87730000D02*
X80270000Y-90270000D01*
X80270000Y-90270000D02*
X89160000Y-90270000D01*
X89160000Y-90270000D02*
X89160000Y-87730000D01*
X89160000Y-87730000D02*
X80270000Y-87730000D01*
X80270000Y-88365000D02*
X80905000Y-87730000D01*
X80270000Y-89000000D02*
X79000000Y-89000000D01*
X89160000Y-89000000D02*
X90430000Y-89000000D01*
X133945000Y-49770000D02*
X133945000Y-47230000D01*
X133945000Y-47230000D02*
X125055000Y-47230000D01*
X125055000Y-47230000D02*
X125055000Y-49770000D01*
X125055000Y-49770000D02*
X133945000Y-49770000D01*
X133945000Y-49135000D02*
X133310000Y-49770000D01*
X133945000Y-48500000D02*
X135215000Y-48500000D01*
X125055000Y-48500000D02*
X123785000Y-48500000D01*
X87160000Y-87770000D02*
X87160000Y-85230000D01*
X87160000Y-85230000D02*
X78270000Y-85230000D01*
X78270000Y-85230000D02*
X78270000Y-87770000D01*
X78270000Y-87770000D02*
X87160000Y-87770000D01*
X87160000Y-87135000D02*
X86525000Y-87770000D01*
X87160000Y-86500000D02*
X88430000Y-86500000D01*
X78270000Y-86500000D02*
X77000000Y-86500000D01*
X116055000Y-86730000D02*
X116055000Y-89270000D01*
X116055000Y-89270000D02*
X124945000Y-89270000D01*
X124945000Y-89270000D02*
X124945000Y-86730000D01*
X124945000Y-86730000D02*
X116055000Y-86730000D01*
X116055000Y-87365000D02*
X116690000Y-86730000D01*
X116055000Y-88000000D02*
X114785000Y-88000000D01*
X124945000Y-88000000D02*
X126215000Y-88000000D01*
X127555000Y-44230000D02*
X127555000Y-46770000D01*
X127555000Y-46770000D02*
X136445000Y-46770000D01*
X136445000Y-46770000D02*
X136445000Y-44230000D01*
X136445000Y-44230000D02*
X127555000Y-44230000D01*
X127555000Y-44865000D02*
X128190000Y-44230000D01*
X127555000Y-45500000D02*
X126285000Y-45500000D01*
X136445000Y-45500000D02*
X137715000Y-45500000D01*
X143399160Y-49249440D02*
X141600840Y-49249440D01*
X142500000Y-51799600D02*
X142500000Y-53201680D01*
X143201040Y-52500640D02*
X141798960Y-52500640D01*
X140899800Y-55751840D02*
X139500260Y-54199900D01*
X139500260Y-54199900D02*
X139500260Y-51700540D01*
X144100200Y-55751840D02*
X145499740Y-54199900D01*
X145499740Y-54199900D02*
X145499740Y-51700540D01*
X153399160Y-49249440D02*
X151600840Y-49249440D01*
X152500000Y-51799600D02*
X152500000Y-53201680D01*
X153201040Y-52500640D02*
X151798960Y-52500640D01*
X150899800Y-55751840D02*
X149500260Y-54199900D01*
X149500260Y-54199900D02*
X149500260Y-51700540D01*
X154100200Y-55751840D02*
X155499740Y-54199900D01*
X155499740Y-54199900D02*
X155499740Y-51700540D01*
X138910000Y-96000000D02*
X138910000Y-94450000D01*
X140460000Y-94450000D02*
X138910000Y-94450000D01*
X139190000Y-97270000D02*
X141730000Y-97270000D01*
X144270000Y-94730000D02*
X141730000Y-94730000D01*
X141730000Y-94730000D02*
X141730000Y-97270000D01*
X141730000Y-97270000D02*
X144270000Y-97270000D01*
X144270000Y-97270000D02*
X144270000Y-94730000D01*
X120968000Y-53270000D02*
X125032000Y-53270000D01*
X125396231Y-52000000D02*
G75*
G03X125396231Y-52000000I-2396231J0D01*
G01*
D16*
X147430000Y-44320000D02*
X147430000Y-23520000D01*
X138030000Y-23520000D02*
X138030000Y-44320000D01*
X138030000Y-44320000D02*
X147430000Y-44320000D01*
X138030000Y-23520000D02*
X147430000Y-23520000D01*
D17*
X147430000Y-31620000D02*
X146030000Y-31620000D01*
X146030000Y-31620000D02*
X146030000Y-36220000D01*
X146030000Y-36220000D02*
X147430000Y-36220000D01*
D16*
X92820000Y-13570000D02*
X72020000Y-13570000D01*
X72020000Y-22970000D02*
X92820000Y-22970000D01*
X92820000Y-22970000D02*
X92820000Y-13570000D01*
X72020000Y-22970000D02*
X72020000Y-13570000D01*
D17*
X80120000Y-13570000D02*
X80120000Y-14970000D01*
X80120000Y-14970000D02*
X84720000Y-14970000D01*
X84720000Y-14970000D02*
X84720000Y-13570000D01*
D16*
X68860000Y-90530000D02*
X48060000Y-90530000D01*
X48060000Y-99930000D02*
X68860000Y-99930000D01*
X68860000Y-99930000D02*
X68860000Y-90530000D01*
X48060000Y-99930000D02*
X48060000Y-90530000D01*
D17*
X56160000Y-90530000D02*
X56160000Y-91930000D01*
X56160000Y-91930000D02*
X60760000Y-91930000D01*
X60760000Y-91930000D02*
X60760000Y-90530000D01*
D16*
X114820000Y-90530000D02*
X94020000Y-90530000D01*
X94020000Y-99930000D02*
X114820000Y-99930000D01*
X114820000Y-99930000D02*
X114820000Y-90530000D01*
X94020000Y-99930000D02*
X94020000Y-90530000D01*
D17*
X102120000Y-90530000D02*
X102120000Y-91930000D01*
X102120000Y-91930000D02*
X106720000Y-91930000D01*
X106720000Y-91930000D02*
X106720000Y-90530000D01*
D16*
X70820000Y-13530000D02*
X50020000Y-13530000D01*
X50020000Y-22930000D02*
X70820000Y-22930000D01*
X70820000Y-22930000D02*
X70820000Y-13530000D01*
X50020000Y-22930000D02*
X50020000Y-13530000D01*
D17*
X58120000Y-13530000D02*
X58120000Y-14930000D01*
X58120000Y-14930000D02*
X62720000Y-14930000D01*
X62720000Y-14930000D02*
X62720000Y-13530000D01*
D16*
X157430000Y-44320000D02*
X157430000Y-23520000D01*
X148030000Y-23520000D02*
X148030000Y-44320000D01*
X148030000Y-44320000D02*
X157430000Y-44320000D01*
X148030000Y-23520000D02*
X157430000Y-23520000D01*
D17*
X157430000Y-31620000D02*
X156030000Y-31620000D01*
X156030000Y-31620000D02*
X156030000Y-36220000D01*
X156030000Y-36220000D02*
X157430000Y-36220000D01*
D16*
X114980000Y-13530000D02*
X94180000Y-13530000D01*
X94180000Y-22930000D02*
X114980000Y-22930000D01*
X114980000Y-22930000D02*
X114980000Y-13530000D01*
X94180000Y-22930000D02*
X94180000Y-13530000D01*
D17*
X102280000Y-13530000D02*
X102280000Y-14930000D01*
X102280000Y-14930000D02*
X106880000Y-14930000D01*
X106880000Y-14930000D02*
X106880000Y-13530000D01*
D16*
X137440000Y-13570000D02*
X116640000Y-13570000D01*
X116640000Y-22970000D02*
X137440000Y-22970000D01*
X137440000Y-22970000D02*
X137440000Y-13570000D01*
X116640000Y-22970000D02*
X116640000Y-13570000D01*
D17*
X124740000Y-13570000D02*
X124740000Y-14970000D01*
X124740000Y-14970000D02*
X129340000Y-14970000D01*
X129340000Y-14970000D02*
X129340000Y-13570000D01*
D16*
X71020000Y-99930000D02*
X91820000Y-99930000D01*
X91820000Y-90530000D02*
X71020000Y-90530000D01*
X71020000Y-90530000D02*
X71020000Y-99930000D01*
X91820000Y-90530000D02*
X91820000Y-99930000D01*
D17*
X83720000Y-99930000D02*
X83720000Y-98530000D01*
X83720000Y-98530000D02*
X79120000Y-98530000D01*
X79120000Y-98530000D02*
X79120000Y-99930000D01*
D16*
X116520000Y-99930000D02*
X137320000Y-99930000D01*
X137320000Y-90530000D02*
X116520000Y-90530000D01*
X116520000Y-90530000D02*
X116520000Y-99930000D01*
X137320000Y-90530000D02*
X137320000Y-99930000D01*
D17*
X129220000Y-99930000D02*
X129220000Y-98530000D01*
X129220000Y-98530000D02*
X124620000Y-98530000D01*
X124620000Y-98530000D02*
X124620000Y-99930000D01*
D16*
X138030000Y-60610000D02*
X138030000Y-89010000D01*
X147430000Y-89010000D02*
X147430000Y-60610000D01*
X147430000Y-60610000D02*
X138030000Y-60610000D01*
X147430000Y-89010000D02*
X138030000Y-89010000D01*
D17*
X138030000Y-77110000D02*
X139430000Y-77110000D01*
X139430000Y-77110000D02*
X139430000Y-72510000D01*
X139430000Y-72510000D02*
X138030000Y-72510000D01*
D16*
X148030000Y-60690000D02*
X148030000Y-89090000D01*
X157430000Y-89090000D02*
X157430000Y-60690000D01*
X157430000Y-60690000D02*
X148030000Y-60690000D01*
X157430000Y-89090000D02*
X148030000Y-89090000D01*
D17*
X148030000Y-77190000D02*
X149430000Y-77190000D01*
X149430000Y-77190000D02*
X149430000Y-72590000D01*
X149430000Y-72590000D02*
X148030000Y-72590000D01*
D13*
X132250000Y-53250000D02*
X129250000Y-53250000D01*
X129250000Y-50750000D02*
X132250000Y-50750000D01*
X120250000Y-35250000D02*
X120250000Y-32250000D01*
X122750000Y-32250000D02*
X122750000Y-35250000D01*
X182530000Y-88190000D02*
X181768000Y-88190000D01*
X181768000Y-88190000D02*
X181768000Y-87174000D01*
X181768000Y-87174000D02*
X175672000Y-87174000D01*
X175672000Y-87174000D02*
X175672000Y-88190000D01*
X175672000Y-88190000D02*
X174910000Y-88190000D01*
X175672000Y-88190000D02*
X175672000Y-89206000D01*
X175672000Y-89206000D02*
X181768000Y-89206000D01*
X181768000Y-89206000D02*
X181768000Y-88190000D01*
X181260000Y-87174000D02*
X181260000Y-89206000D01*
X181006000Y-89206000D02*
X181006000Y-87174000D01*
X182200000Y-58070000D02*
X181438000Y-58070000D01*
X181438000Y-58070000D02*
X181438000Y-57054000D01*
X181438000Y-57054000D02*
X175342000Y-57054000D01*
X175342000Y-57054000D02*
X175342000Y-58070000D01*
X175342000Y-58070000D02*
X174580000Y-58070000D01*
X175342000Y-58070000D02*
X175342000Y-59086000D01*
X175342000Y-59086000D02*
X181438000Y-59086000D01*
X181438000Y-59086000D02*
X181438000Y-58070000D01*
X180930000Y-57054000D02*
X180930000Y-59086000D01*
X180676000Y-59086000D02*
X180676000Y-57054000D01*
X169955000Y-82155000D02*
X171225000Y-82155000D01*
X169955000Y-74805000D02*
X171225000Y-74805000D01*
X182165000Y-74805000D02*
X180895000Y-74805000D01*
X182165000Y-82155000D02*
X180895000Y-82155000D01*
X169955000Y-82155000D02*
X169955000Y-74805000D01*
X182165000Y-82155000D02*
X182165000Y-74805000D01*
X171225000Y-82155000D02*
X171225000Y-83090000D01*
X169875000Y-51635000D02*
X171145000Y-51635000D01*
X169875000Y-44285000D02*
X171145000Y-44285000D01*
X182085000Y-44285000D02*
X180815000Y-44285000D01*
X182085000Y-51635000D02*
X180815000Y-51635000D01*
X169875000Y-51635000D02*
X169875000Y-44285000D01*
X182085000Y-51635000D02*
X182085000Y-44285000D01*
X171145000Y-51635000D02*
X171145000Y-52570000D01*
D16*
X202475040Y-102146459D02*
X202475040Y-82646879D01*
X202723960Y-84148019D02*
X202723960Y-102146459D01*
X202975420Y-103647599D02*
X202975420Y-84148019D01*
X184725520Y-102146459D02*
X201725740Y-102146459D01*
X184725520Y-102146459D02*
X184225140Y-101646079D01*
X184225140Y-101646079D02*
X184225140Y-99146719D01*
X184225140Y-99146719D02*
X184725520Y-98646339D01*
X184725520Y-98646339D02*
X186724500Y-98646339D01*
X186724500Y-98646339D02*
X186724500Y-95146219D01*
X184725520Y-84148019D02*
X201725740Y-84148019D01*
X184725520Y-84148019D02*
X184225140Y-84648399D01*
X184225140Y-84648399D02*
X184225140Y-86647379D01*
X184225140Y-86647379D02*
X184225140Y-87147759D01*
X184225140Y-87147759D02*
X184725520Y-87648139D01*
X184725520Y-87648139D02*
X186724500Y-87648139D01*
X186724500Y-87648139D02*
X186724500Y-91148259D01*
X184225140Y-94648379D02*
X184725520Y-95146219D01*
X184725520Y-95146219D02*
X186724500Y-95146219D01*
X184225140Y-94648379D02*
X184225140Y-91646099D01*
X184225140Y-91646099D02*
X184725520Y-91148259D01*
X184725520Y-91148259D02*
X186724500Y-91148259D01*
X202723960Y-82646879D02*
X202723960Y-84148019D01*
X202723960Y-84148019D02*
X203224340Y-84148019D01*
X203224340Y-84148019D02*
X203224340Y-103647599D01*
X202723960Y-103647599D02*
X202723960Y-102146459D01*
X202723960Y-102146459D02*
X202223580Y-102146459D01*
X202223580Y-102146459D02*
X202223580Y-82646879D01*
X201725740Y-84148019D02*
X201725740Y-84648399D01*
X201725740Y-102146459D02*
X201725740Y-101646079D01*
X202223580Y-84648399D02*
X201725740Y-84648399D01*
X201725740Y-101646079D02*
X202223580Y-101646079D01*
X203224340Y-103647599D02*
X202723960Y-103647599D01*
X202223580Y-82646879D02*
X202723960Y-82646879D01*
X202482600Y-58887960D02*
X202482600Y-39388380D01*
X202731520Y-40889520D02*
X202731520Y-58887960D01*
X202982980Y-60389100D02*
X202982980Y-40889520D01*
X184733080Y-58887960D02*
X201733300Y-58887960D01*
X184733080Y-58887960D02*
X184232700Y-58387580D01*
X184232700Y-58387580D02*
X184232700Y-55888220D01*
X184232700Y-55888220D02*
X184733080Y-55387840D01*
X184733080Y-55387840D02*
X186732060Y-55387840D01*
X186732060Y-55387840D02*
X186732060Y-51887720D01*
X184733080Y-40889520D02*
X201733300Y-40889520D01*
X184733080Y-40889520D02*
X184232700Y-41389900D01*
X184232700Y-41389900D02*
X184232700Y-43388880D01*
X184232700Y-43388880D02*
X184232700Y-43889260D01*
X184232700Y-43889260D02*
X184733080Y-44389640D01*
X184733080Y-44389640D02*
X186732060Y-44389640D01*
X186732060Y-44389640D02*
X186732060Y-47889760D01*
X184232700Y-51389880D02*
X184733080Y-51887720D01*
X184733080Y-51887720D02*
X186732060Y-51887720D01*
X184232700Y-51389880D02*
X184232700Y-48387600D01*
X184232700Y-48387600D02*
X184733080Y-47889760D01*
X184733080Y-47889760D02*
X186732060Y-47889760D01*
X202731520Y-39388380D02*
X202731520Y-40889520D01*
X202731520Y-40889520D02*
X203231900Y-40889520D01*
X203231900Y-40889520D02*
X203231900Y-60389100D01*
X202731520Y-60389100D02*
X202731520Y-58887960D01*
X202731520Y-58887960D02*
X202231140Y-58887960D01*
X202231140Y-58887960D02*
X202231140Y-39388380D01*
X201733300Y-40889520D02*
X201733300Y-41389900D01*
X201733300Y-58887960D02*
X201733300Y-58387580D01*
X202231140Y-41389900D02*
X201733300Y-41389900D01*
X201733300Y-58387580D02*
X202231140Y-58387580D01*
X203231900Y-60389100D02*
X202731520Y-60389100D01*
X202231140Y-39388380D02*
X202731520Y-39388380D01*
X202475040Y-80446459D02*
X202475040Y-60946879D01*
X202723960Y-62448019D02*
X202723960Y-80446459D01*
X202975420Y-81947599D02*
X202975420Y-62448019D01*
X184725520Y-80446459D02*
X201725740Y-80446459D01*
X184725520Y-80446459D02*
X184225140Y-79946079D01*
X184225140Y-79946079D02*
X184225140Y-77446719D01*
X184225140Y-77446719D02*
X184725520Y-76946339D01*
X184725520Y-76946339D02*
X186724500Y-76946339D01*
X186724500Y-76946339D02*
X186724500Y-73446219D01*
X184725520Y-62448019D02*
X201725740Y-62448019D01*
X184725520Y-62448019D02*
X184225140Y-62948399D01*
X184225140Y-62948399D02*
X184225140Y-64947379D01*
X184225140Y-64947379D02*
X184225140Y-65447759D01*
X184225140Y-65447759D02*
X184725520Y-65948139D01*
X184725520Y-65948139D02*
X186724500Y-65948139D01*
X186724500Y-65948139D02*
X186724500Y-69448259D01*
X184225140Y-72948379D02*
X184725520Y-73446219D01*
X184725520Y-73446219D02*
X186724500Y-73446219D01*
X184225140Y-72948379D02*
X184225140Y-69946099D01*
X184225140Y-69946099D02*
X184725520Y-69448259D01*
X184725520Y-69448259D02*
X186724500Y-69448259D01*
X202723960Y-60946879D02*
X202723960Y-62448019D01*
X202723960Y-62448019D02*
X203224340Y-62448019D01*
X203224340Y-62448019D02*
X203224340Y-81947599D01*
X202723960Y-81947599D02*
X202723960Y-80446459D01*
X202723960Y-80446459D02*
X202223580Y-80446459D01*
X202223580Y-80446459D02*
X202223580Y-60946879D01*
X201725740Y-62448019D02*
X201725740Y-62948399D01*
X201725740Y-80446459D02*
X201725740Y-79946079D01*
X202223580Y-62948399D02*
X201725740Y-62948399D01*
X201725740Y-79946079D02*
X202223580Y-79946079D01*
X203224340Y-81947599D02*
X202723960Y-81947599D01*
X202223580Y-60946879D02*
X202723960Y-60946879D01*
X202472600Y-37487960D02*
X202472600Y-17988380D01*
X202721520Y-19489520D02*
X202721520Y-37487960D01*
X202972980Y-38989100D02*
X202972980Y-19489520D01*
X184723080Y-37487960D02*
X201723300Y-37487960D01*
X184723080Y-37487960D02*
X184222700Y-36987580D01*
X184222700Y-36987580D02*
X184222700Y-34488220D01*
X184222700Y-34488220D02*
X184723080Y-33987840D01*
X184723080Y-33987840D02*
X186722060Y-33987840D01*
X186722060Y-33987840D02*
X186722060Y-30487720D01*
X184723080Y-19489520D02*
X201723300Y-19489520D01*
X184723080Y-19489520D02*
X184222700Y-19989900D01*
X184222700Y-19989900D02*
X184222700Y-21988880D01*
X184222700Y-21988880D02*
X184222700Y-22489260D01*
X184222700Y-22489260D02*
X184723080Y-22989640D01*
X184723080Y-22989640D02*
X186722060Y-22989640D01*
X186722060Y-22989640D02*
X186722060Y-26489760D01*
X184222700Y-29989880D02*
X184723080Y-30487720D01*
X184723080Y-30487720D02*
X186722060Y-30487720D01*
X184222700Y-29989880D02*
X184222700Y-26987600D01*
X184222700Y-26987600D02*
X184723080Y-26489760D01*
X184723080Y-26489760D02*
X186722060Y-26489760D01*
X202721520Y-17988380D02*
X202721520Y-19489520D01*
X202721520Y-19489520D02*
X203221900Y-19489520D01*
X203221900Y-19489520D02*
X203221900Y-38989100D01*
X202721520Y-38989100D02*
X202721520Y-37487960D01*
X202721520Y-37487960D02*
X202221140Y-37487960D01*
X202221140Y-37487960D02*
X202221140Y-17988380D01*
X201723300Y-19489520D02*
X201723300Y-19989900D01*
X201723300Y-37487960D02*
X201723300Y-36987580D01*
X202221140Y-19989900D02*
X201723300Y-19989900D01*
X201723300Y-36987580D02*
X202221140Y-36987580D01*
X203221900Y-38989100D02*
X202721520Y-38989100D01*
X202221140Y-17988380D02*
X202721520Y-17988380D01*
X183130000Y-90210000D02*
X162330000Y-90210000D01*
X162330000Y-99610000D02*
X183130000Y-99610000D01*
X183130000Y-99610000D02*
X183130000Y-90210000D01*
X162330000Y-99610000D02*
X162330000Y-90210000D01*
D17*
X170430000Y-90210000D02*
X170430000Y-91610000D01*
X170430000Y-91610000D02*
X175030000Y-91610000D01*
X175030000Y-91610000D02*
X175030000Y-90210000D01*
D16*
X182770000Y-22190000D02*
X161970000Y-22190000D01*
X161970000Y-31590000D02*
X182770000Y-31590000D01*
X182770000Y-31590000D02*
X182770000Y-22190000D01*
X161970000Y-31590000D02*
X161970000Y-22190000D01*
D17*
X170070000Y-22190000D02*
X170070000Y-23590000D01*
X170070000Y-23590000D02*
X174670000Y-23590000D01*
X174670000Y-23590000D02*
X174670000Y-22190000D01*
D13*
X172820000Y-61160000D02*
X173328000Y-61160000D01*
X180440000Y-61160000D02*
X179932000Y-61160000D01*
X179932000Y-61160000D02*
X179932000Y-60144000D01*
X179932000Y-60144000D02*
X173328000Y-60144000D01*
X173328000Y-60144000D02*
X173328000Y-62176000D01*
X173328000Y-62176000D02*
X179932000Y-62176000D01*
X179932000Y-62176000D02*
X179932000Y-61160000D01*
X173328000Y-60652000D02*
X173836000Y-60144000D01*
X174860000Y-70800000D02*
X175368000Y-70800000D01*
X182480000Y-70800000D02*
X181972000Y-70800000D01*
X181972000Y-70800000D02*
X181972000Y-69784000D01*
X181972000Y-69784000D02*
X175368000Y-69784000D01*
X175368000Y-69784000D02*
X175368000Y-71816000D01*
X175368000Y-71816000D02*
X181972000Y-71816000D01*
X181972000Y-71816000D02*
X181972000Y-70800000D01*
X175368000Y-70292000D02*
X175876000Y-69784000D01*
X187040000Y-18290000D02*
X187548000Y-18290000D01*
X194660000Y-18290000D02*
X194152000Y-18290000D01*
X194152000Y-18290000D02*
X194152000Y-17274000D01*
X194152000Y-17274000D02*
X187548000Y-17274000D01*
X187548000Y-17274000D02*
X187548000Y-19306000D01*
X187548000Y-19306000D02*
X194152000Y-19306000D01*
X194152000Y-19306000D02*
X194152000Y-18290000D01*
X187548000Y-17782000D02*
X188056000Y-17274000D01*
X174640000Y-41030000D02*
X175148000Y-41030000D01*
X182260000Y-41030000D02*
X181752000Y-41030000D01*
X181752000Y-41030000D02*
X181752000Y-40014000D01*
X181752000Y-40014000D02*
X175148000Y-40014000D01*
X175148000Y-40014000D02*
X175148000Y-42046000D01*
X175148000Y-42046000D02*
X181752000Y-42046000D01*
X181752000Y-42046000D02*
X181752000Y-41030000D01*
X175148000Y-40522000D02*
X175656000Y-40014000D01*
X182580000Y-85380000D02*
X182072000Y-85380000D01*
X174960000Y-85380000D02*
X175468000Y-85380000D01*
X175468000Y-85380000D02*
X175468000Y-86396000D01*
X175468000Y-86396000D02*
X182072000Y-86396000D01*
X182072000Y-86396000D02*
X182072000Y-84364000D01*
X182072000Y-84364000D02*
X175468000Y-84364000D01*
X175468000Y-84364000D02*
X175468000Y-85380000D01*
X182072000Y-85888000D02*
X181564000Y-86396000D01*
X178460000Y-67430000D02*
X177952000Y-67430000D01*
X170840000Y-67430000D02*
X171348000Y-67430000D01*
X171348000Y-67430000D02*
X171348000Y-68446000D01*
X171348000Y-68446000D02*
X177952000Y-68446000D01*
X177952000Y-68446000D02*
X177952000Y-66414000D01*
X177952000Y-66414000D02*
X171348000Y-66414000D01*
X171348000Y-66414000D02*
X171348000Y-67430000D01*
X177952000Y-67938000D02*
X177444000Y-68446000D01*
X182010000Y-64750000D02*
X181502000Y-64750000D01*
X174390000Y-64750000D02*
X174898000Y-64750000D01*
X174898000Y-64750000D02*
X174898000Y-65766000D01*
X174898000Y-65766000D02*
X181502000Y-65766000D01*
X181502000Y-65766000D02*
X181502000Y-63734000D01*
X181502000Y-63734000D02*
X174898000Y-63734000D01*
X174898000Y-63734000D02*
X174898000Y-64750000D01*
X181502000Y-65258000D02*
X180994000Y-65766000D01*
X182480000Y-55030000D02*
X181972000Y-55030000D01*
X174860000Y-55030000D02*
X175368000Y-55030000D01*
X175368000Y-55030000D02*
X175368000Y-56046000D01*
X175368000Y-56046000D02*
X181972000Y-56046000D01*
X181972000Y-56046000D02*
X181972000Y-54014000D01*
X181972000Y-54014000D02*
X175368000Y-54014000D01*
X175368000Y-54014000D02*
X175368000Y-55030000D01*
X181972000Y-55538000D02*
X181464000Y-56046000D01*
X174280000Y-37710000D02*
X173772000Y-37710000D01*
X166660000Y-37710000D02*
X167168000Y-37710000D01*
X167168000Y-37710000D02*
X167168000Y-38726000D01*
X167168000Y-38726000D02*
X173772000Y-38726000D01*
X173772000Y-38726000D02*
X173772000Y-36694000D01*
X173772000Y-36694000D02*
X167168000Y-36694000D01*
X167168000Y-36694000D02*
X167168000Y-37710000D01*
X173772000Y-38218000D02*
X173264000Y-38726000D01*
X182020000Y-33850000D02*
X181512000Y-33850000D01*
X174400000Y-33850000D02*
X174908000Y-33850000D01*
X174908000Y-33850000D02*
X174908000Y-34866000D01*
X174908000Y-34866000D02*
X181512000Y-34866000D01*
X181512000Y-34866000D02*
X181512000Y-32834000D01*
X181512000Y-32834000D02*
X174908000Y-32834000D01*
X174908000Y-32834000D02*
X174908000Y-33850000D01*
X181512000Y-34358000D02*
X181004000Y-34866000D01*
X129572381Y-69899048D02*
X128572381Y-69899048D01*
X129477143Y-68851429D02*
X129524762Y-68899048D01*
X129572381Y-69041905D01*
X129572381Y-69137143D01*
X129524762Y-69280001D01*
X129429524Y-69375239D01*
X129334286Y-69422858D01*
X129143810Y-69470477D01*
X129000952Y-69470477D01*
X128810476Y-69422858D01*
X128715238Y-69375239D01*
X128620000Y-69280001D01*
X128572381Y-69137143D01*
X128572381Y-69041905D01*
X128620000Y-68899048D01*
X128667619Y-68851429D01*
X128667619Y-68470477D02*
X128620000Y-68422858D01*
X128572381Y-68327620D01*
X128572381Y-68089524D01*
X128620000Y-67994286D01*
X128667619Y-67946667D01*
X128762857Y-67899048D01*
X128858095Y-67899048D01*
X129000952Y-67946667D01*
X129572381Y-68518096D01*
X129572381Y-67899048D01*
X128572381Y-66803810D02*
X128572381Y-66137143D01*
X129572381Y-66565715D01*
X128905714Y-65327619D02*
X129572381Y-65327619D01*
X128524762Y-65565715D02*
X129239048Y-65803810D01*
X129239048Y-65184762D01*
X129572381Y-64803810D02*
X128572381Y-64803810D01*
X129572381Y-64375238D02*
X129048571Y-64375238D01*
X128953333Y-64422857D01*
X128905714Y-64518095D01*
X128905714Y-64660953D01*
X128953333Y-64756191D01*
X129000952Y-64803810D01*
X129524762Y-63470476D02*
X129572381Y-63565714D01*
X129572381Y-63756191D01*
X129524762Y-63851429D01*
X129477143Y-63899048D01*
X129381905Y-63946667D01*
X129096190Y-63946667D01*
X129000952Y-63899048D01*
X128953333Y-63851429D01*
X128905714Y-63756191D01*
X128905714Y-63565714D01*
X128953333Y-63470476D01*
X128572381Y-62565714D02*
X128572381Y-63041905D01*
X129048571Y-63089524D01*
X129000952Y-63041905D01*
X128953333Y-62946667D01*
X128953333Y-62708571D01*
X129000952Y-62613333D01*
X129048571Y-62565714D01*
X129143810Y-62518095D01*
X129381905Y-62518095D01*
X129477143Y-62565714D01*
X129524762Y-62613333D01*
X129572381Y-62708571D01*
X129572381Y-62946667D01*
X129524762Y-63041905D01*
X129477143Y-63089524D01*
X129572381Y-62041905D02*
X129572381Y-61851429D01*
X129524762Y-61756190D01*
X129477143Y-61708571D01*
X129334286Y-61613333D01*
X129143810Y-61565714D01*
X128762857Y-61565714D01*
X128667619Y-61613333D01*
X128620000Y-61660952D01*
X128572381Y-61756190D01*
X128572381Y-61946667D01*
X128620000Y-62041905D01*
X128667619Y-62089524D01*
X128762857Y-62137143D01*
X129000952Y-62137143D01*
X129096190Y-62089524D01*
X129143810Y-62041905D01*
X129191429Y-61946667D01*
X129191429Y-61756190D01*
X129143810Y-61660952D01*
X129096190Y-61613333D01*
X129000952Y-61565714D01*
X128572381Y-60660952D02*
X128572381Y-61137143D01*
X129048571Y-61184762D01*
X129000952Y-61137143D01*
X128953333Y-61041905D01*
X128953333Y-60803809D01*
X129000952Y-60708571D01*
X129048571Y-60660952D01*
X129143810Y-60613333D01*
X129381905Y-60613333D01*
X129477143Y-60660952D01*
X129524762Y-60708571D01*
X129572381Y-60803809D01*
X129572381Y-61041905D01*
X129524762Y-61137143D01*
X129477143Y-61184762D01*
X111872381Y-47211429D02*
X111205714Y-47211429D01*
X110872381Y-47211429D02*
X110920000Y-47259048D01*
X110967619Y-47211429D01*
X110920000Y-47163810D01*
X110872381Y-47211429D01*
X110967619Y-47211429D01*
X111824762Y-46306667D02*
X111872381Y-46401905D01*
X111872381Y-46592382D01*
X111824762Y-46687620D01*
X111777143Y-46735239D01*
X111681905Y-46782858D01*
X111396190Y-46782858D01*
X111300952Y-46735239D01*
X111253333Y-46687620D01*
X111205714Y-46592382D01*
X111205714Y-46401905D01*
X111253333Y-46306667D01*
X111872381Y-45354286D02*
X111872381Y-45925715D01*
X111872381Y-45640001D02*
X110872381Y-45640001D01*
X111015238Y-45735239D01*
X111110476Y-45830477D01*
X111158095Y-45925715D01*
X110872381Y-44259048D02*
X110872381Y-43592381D01*
X111872381Y-44020953D01*
X111205714Y-42782857D02*
X111872381Y-42782857D01*
X110824762Y-43020953D02*
X111539048Y-43259048D01*
X111539048Y-42640000D01*
X111872381Y-42259048D02*
X110872381Y-42259048D01*
X111348571Y-42259048D02*
X111348571Y-41687619D01*
X111872381Y-41687619D02*
X110872381Y-41687619D01*
X111777143Y-40640000D02*
X111824762Y-40687619D01*
X111872381Y-40830476D01*
X111872381Y-40925714D01*
X111824762Y-41068572D01*
X111729524Y-41163810D01*
X111634286Y-41211429D01*
X111443810Y-41259048D01*
X111300952Y-41259048D01*
X111110476Y-41211429D01*
X111015238Y-41163810D01*
X110920000Y-41068572D01*
X110872381Y-40925714D01*
X110872381Y-40830476D01*
X110920000Y-40687619D01*
X110967619Y-40640000D01*
X110872381Y-40354286D02*
X110872381Y-39782857D01*
X111872381Y-40068572D02*
X110872381Y-40068572D01*
X110872381Y-38973333D02*
X110872381Y-39449524D01*
X111348571Y-39497143D01*
X111300952Y-39449524D01*
X111253333Y-39354286D01*
X111253333Y-39116190D01*
X111300952Y-39020952D01*
X111348571Y-38973333D01*
X111443810Y-38925714D01*
X111681905Y-38925714D01*
X111777143Y-38973333D01*
X111824762Y-39020952D01*
X111872381Y-39116190D01*
X111872381Y-39354286D01*
X111824762Y-39449524D01*
X111777143Y-39497143D01*
X111205714Y-38068571D02*
X111872381Y-38068571D01*
X110824762Y-38306667D02*
X111539048Y-38544762D01*
X111539048Y-37925714D01*
X111872381Y-37020952D02*
X111872381Y-37592381D01*
X111872381Y-37306667D02*
X110872381Y-37306667D01*
X111015238Y-37401905D01*
X111110476Y-37497143D01*
X111158095Y-37592381D01*
D18*
X87788191Y-58229619D02*
X87788191Y-57213619D01*
X88852572Y-58132857D02*
X88804191Y-58181238D01*
X88659048Y-58229619D01*
X88562286Y-58229619D01*
X88417144Y-58181238D01*
X88320382Y-58084476D01*
X88272001Y-57987714D01*
X88223620Y-57794190D01*
X88223620Y-57649048D01*
X88272001Y-57455524D01*
X88320382Y-57358762D01*
X88417144Y-57262000D01*
X88562286Y-57213619D01*
X88659048Y-57213619D01*
X88804191Y-57262000D01*
X88852572Y-57310381D01*
X89723429Y-57552286D02*
X89723429Y-58229619D01*
X89481525Y-57165238D02*
X89239620Y-57890952D01*
X89868572Y-57890952D01*
D13*
X114762425Y-85449841D02*
X114762425Y-84449841D01*
X115000520Y-84449841D01*
X115143378Y-84497460D01*
X115238616Y-84592698D01*
X115286235Y-84687936D01*
X115333854Y-84878412D01*
X115333854Y-85021270D01*
X115286235Y-85211746D01*
X115238616Y-85306984D01*
X115143378Y-85402222D01*
X115000520Y-85449841D01*
X114762425Y-85449841D01*
X116286235Y-85449841D02*
X115714806Y-85449841D01*
X116000520Y-85449841D02*
X116000520Y-84449841D01*
X115905282Y-84592698D01*
X115810044Y-84687936D01*
X115714806Y-84735555D01*
X113928572Y-83952381D02*
X113357143Y-83952381D01*
X113642857Y-83952381D02*
X113642857Y-82952381D01*
X113547619Y-83095238D01*
X113452381Y-83190476D01*
X113357143Y-83238095D01*
X114357143Y-83285714D02*
X114357143Y-83952381D01*
X114357143Y-83380952D02*
X114404762Y-83333333D01*
X114500000Y-83285714D01*
X114642858Y-83285714D01*
X114738096Y-83333333D01*
X114785715Y-83428571D01*
X114785715Y-83952381D01*
X115690477Y-83285714D02*
X115690477Y-83952381D01*
X115452381Y-82904762D02*
X115214286Y-83619048D01*
X115833334Y-83619048D01*
X116738096Y-83952381D02*
X116166667Y-83952381D01*
X116452381Y-83952381D02*
X116452381Y-82952381D01*
X116357143Y-83095238D01*
X116261905Y-83190476D01*
X116166667Y-83238095D01*
X117595239Y-83285714D02*
X117595239Y-83952381D01*
X117357143Y-82904762D02*
X117119048Y-83619048D01*
X117738096Y-83619048D01*
X118261905Y-83380952D02*
X118166667Y-83333333D01*
X118119048Y-83285714D01*
X118071429Y-83190476D01*
X118071429Y-83142857D01*
X118119048Y-83047619D01*
X118166667Y-83000000D01*
X118261905Y-82952381D01*
X118452382Y-82952381D01*
X118547620Y-83000000D01*
X118595239Y-83047619D01*
X118642858Y-83142857D01*
X118642858Y-83190476D01*
X118595239Y-83285714D01*
X118547620Y-83333333D01*
X118452382Y-83380952D01*
X118261905Y-83380952D01*
X118166667Y-83428571D01*
X118119048Y-83476190D01*
X118071429Y-83571429D01*
X118071429Y-83761905D01*
X118119048Y-83857143D01*
X118166667Y-83904762D01*
X118261905Y-83952381D01*
X118452382Y-83952381D01*
X118547620Y-83904762D01*
X118595239Y-83857143D01*
X118642858Y-83761905D01*
X118642858Y-83571429D01*
X118595239Y-83476190D01*
X118547620Y-83428571D01*
X118452382Y-83380952D01*
X147166667Y-15452381D02*
X147166667Y-16166667D01*
X147119047Y-16309524D01*
X147023809Y-16404762D01*
X146880952Y-16452381D01*
X146785714Y-16452381D01*
X147595238Y-15547619D02*
X147642857Y-15500000D01*
X147738095Y-15452381D01*
X147976191Y-15452381D01*
X148071429Y-15500000D01*
X148119048Y-15547619D01*
X148166667Y-15642857D01*
X148166667Y-15738095D01*
X148119048Y-15880952D01*
X147547619Y-16452381D01*
X148166667Y-16452381D01*
X147238096Y-90952381D02*
X147238096Y-91666667D01*
X147190476Y-91809524D01*
X147095238Y-91904762D01*
X146952381Y-91952381D01*
X146857143Y-91952381D01*
X148238096Y-91952381D02*
X147666667Y-91952381D01*
X147952381Y-91952381D02*
X147952381Y-90952381D01*
X147857143Y-91095238D01*
X147761905Y-91190476D01*
X147666667Y-91238095D01*
X149142858Y-90952381D02*
X148666667Y-90952381D01*
X148619048Y-91428571D01*
X148666667Y-91380952D01*
X148761905Y-91333333D01*
X149000001Y-91333333D01*
X149095239Y-91380952D01*
X149142858Y-91428571D01*
X149190477Y-91523810D01*
X149190477Y-91761905D01*
X149142858Y-91857143D01*
X149095239Y-91904762D01*
X149000001Y-91952381D01*
X148761905Y-91952381D01*
X148666667Y-91904762D01*
X148619048Y-91857143D01*
X149571429Y-91904762D02*
X149714286Y-91952381D01*
X149952382Y-91952381D01*
X150047620Y-91904762D01*
X150095239Y-91857143D01*
X150142858Y-91761905D01*
X150142858Y-91666667D01*
X150095239Y-91571429D01*
X150047620Y-91523810D01*
X149952382Y-91476190D01*
X149761905Y-91428571D01*
X149666667Y-91380952D01*
X149619048Y-91333333D01*
X149571429Y-91238095D01*
X149571429Y-91142857D01*
X149619048Y-91047619D01*
X149666667Y-91000000D01*
X149761905Y-90952381D01*
X150000001Y-90952381D01*
X150142858Y-91000000D01*
X151095239Y-91952381D02*
X150523810Y-91952381D01*
X150809524Y-91952381D02*
X150809524Y-90952381D01*
X150714286Y-91095238D01*
X150619048Y-91190476D01*
X150523810Y-91238095D01*
X146400477Y-20202381D02*
X146400477Y-20916667D01*
X146352857Y-21059524D01*
X146257619Y-21154762D01*
X146114762Y-21202381D01*
X146019524Y-21202381D01*
X147400477Y-21202381D02*
X146829048Y-21202381D01*
X147114762Y-21202381D02*
X147114762Y-20202381D01*
X147019524Y-20345238D01*
X146924286Y-20440476D01*
X146829048Y-20488095D01*
X147733810Y-20202381D02*
X148400477Y-20202381D01*
X147971905Y-21202381D01*
D18*
X122459619Y-69153143D02*
X121975810Y-69491809D01*
X122459619Y-69733714D02*
X121443619Y-69733714D01*
X121443619Y-69346667D01*
X121492000Y-69249905D01*
X121540381Y-69201524D01*
X121637143Y-69153143D01*
X121782286Y-69153143D01*
X121879048Y-69201524D01*
X121927429Y-69249905D01*
X121975810Y-69346667D01*
X121975810Y-69733714D01*
X121443619Y-68814476D02*
X121443619Y-68185524D01*
X121830667Y-68524190D01*
X121830667Y-68379048D01*
X121879048Y-68282286D01*
X121927429Y-68233905D01*
X122024190Y-68185524D01*
X122266095Y-68185524D01*
X122362857Y-68233905D01*
X122411238Y-68282286D01*
X122459619Y-68379048D01*
X122459619Y-68669333D01*
X122411238Y-68766095D01*
X122362857Y-68814476D01*
X121443619Y-67846857D02*
X121443619Y-67217905D01*
X121830667Y-67556571D01*
X121830667Y-67411429D01*
X121879048Y-67314667D01*
X121927429Y-67266286D01*
X122024190Y-67217905D01*
X122266095Y-67217905D01*
X122362857Y-67266286D01*
X122411238Y-67314667D01*
X122459619Y-67411429D01*
X122459619Y-67701714D01*
X122411238Y-67798476D01*
X122362857Y-67846857D01*
X122459619Y-78175000D02*
X121975810Y-78471334D01*
X122459619Y-78683000D02*
X121443619Y-78683000D01*
X121443619Y-78344334D01*
X121492000Y-78259667D01*
X121540381Y-78217334D01*
X121637143Y-78175000D01*
X121782286Y-78175000D01*
X121879048Y-78217334D01*
X121927429Y-78259667D01*
X121975810Y-78344334D01*
X121975810Y-78683000D01*
X122072571Y-77794000D02*
X122072571Y-77116667D01*
X122411238Y-76735667D02*
X122459619Y-76608667D01*
X122459619Y-76397000D01*
X122411238Y-76312333D01*
X122362857Y-76270000D01*
X122266095Y-76227667D01*
X122169333Y-76227667D01*
X122072571Y-76270000D01*
X122024190Y-76312333D01*
X121975810Y-76397000D01*
X121927429Y-76566333D01*
X121879048Y-76651000D01*
X121830667Y-76693333D01*
X121733905Y-76735667D01*
X121637143Y-76735667D01*
X121540381Y-76693333D01*
X121492000Y-76651000D01*
X121443619Y-76566333D01*
X121443619Y-76354667D01*
X121492000Y-76227667D01*
X122459619Y-75846666D02*
X121443619Y-75846666D01*
X122459619Y-75000000D02*
X122459619Y-75423333D01*
X121443619Y-75423333D01*
X122556381Y-74915333D02*
X122556381Y-74238000D01*
X121782286Y-73645333D02*
X122459619Y-73645333D01*
X121395238Y-73857000D02*
X122120952Y-74068667D01*
X122120952Y-73518333D01*
X122459619Y-73264333D02*
X121782286Y-72798666D01*
X121782286Y-73264333D02*
X122459619Y-72798666D01*
X122459619Y-71994333D02*
X122459619Y-72502333D01*
X122459619Y-72248333D02*
X121443619Y-72248333D01*
X121588762Y-72332999D01*
X121685524Y-72417666D01*
X121733905Y-72502333D01*
X122459619Y-71613332D02*
X121443619Y-71613332D01*
X122072571Y-71528666D02*
X122459619Y-71274666D01*
X121782286Y-71274666D02*
X122169333Y-71613332D01*
D13*
X113099143Y-81952381D02*
X112765809Y-81476190D01*
X112527714Y-81952381D02*
X112527714Y-80952381D01*
X112908667Y-80952381D01*
X113003905Y-81000000D01*
X113051524Y-81047619D01*
X113099143Y-81142857D01*
X113099143Y-81285714D01*
X113051524Y-81380952D01*
X113003905Y-81428571D01*
X112908667Y-81476190D01*
X112527714Y-81476190D01*
X114051524Y-81952381D02*
X113480095Y-81952381D01*
X113765809Y-81952381D02*
X113765809Y-80952381D01*
X113670571Y-81095238D01*
X113575333Y-81190476D01*
X113480095Y-81238095D01*
X115003905Y-81952381D02*
X114432476Y-81952381D01*
X114718190Y-81952381D02*
X114718190Y-80952381D01*
X114622952Y-81095238D01*
X114527714Y-81190476D01*
X114432476Y-81238095D01*
X117622953Y-81952381D02*
X117051524Y-81952381D01*
X117337238Y-81952381D02*
X117337238Y-80952381D01*
X117242000Y-81095238D01*
X117146762Y-81190476D01*
X117051524Y-81238095D01*
X118051524Y-81952381D02*
X118051524Y-80952381D01*
X118146762Y-81571429D02*
X118432477Y-81952381D01*
X118432477Y-81285714D02*
X118051524Y-81666667D01*
X134880953Y-88452381D02*
X134547619Y-87976190D01*
X134309524Y-88452381D02*
X134309524Y-87452381D01*
X134690477Y-87452381D01*
X134785715Y-87500000D01*
X134833334Y-87547619D01*
X134880953Y-87642857D01*
X134880953Y-87785714D01*
X134833334Y-87880952D01*
X134785715Y-87928571D01*
X134690477Y-87976190D01*
X134309524Y-87976190D01*
X135452381Y-87880952D02*
X135357143Y-87833333D01*
X135309524Y-87785714D01*
X135261905Y-87690476D01*
X135261905Y-87642857D01*
X135309524Y-87547619D01*
X135357143Y-87500000D01*
X135452381Y-87452381D01*
X135642858Y-87452381D01*
X135738096Y-87500000D01*
X135785715Y-87547619D01*
X135833334Y-87642857D01*
X135833334Y-87690476D01*
X135785715Y-87785714D01*
X135738096Y-87833333D01*
X135642858Y-87880952D01*
X135452381Y-87880952D01*
X135357143Y-87928571D01*
X135309524Y-87976190D01*
X135261905Y-88071429D01*
X135261905Y-88261905D01*
X135309524Y-88357143D01*
X135357143Y-88404762D01*
X135452381Y-88452381D01*
X135642858Y-88452381D01*
X135738096Y-88404762D01*
X135785715Y-88357143D01*
X135833334Y-88261905D01*
X135833334Y-88071429D01*
X135785715Y-87976190D01*
X135738096Y-87928571D01*
X135642858Y-87880952D01*
X136690477Y-88452381D02*
X136690477Y-87928571D01*
X136642858Y-87833333D01*
X136547620Y-87785714D01*
X136357143Y-87785714D01*
X136261905Y-87833333D01*
X136690477Y-88404762D02*
X136595239Y-88452381D01*
X136357143Y-88452381D01*
X136261905Y-88404762D01*
X136214286Y-88309524D01*
X136214286Y-88214286D01*
X136261905Y-88119048D01*
X136357143Y-88071429D01*
X136595239Y-88071429D01*
X136690477Y-88023810D01*
X130595238Y-87547619D02*
X130642857Y-87500000D01*
X130738095Y-87452381D01*
X130976191Y-87452381D01*
X131071429Y-87500000D01*
X131119048Y-87547619D01*
X131166667Y-87642857D01*
X131166667Y-87738095D01*
X131119048Y-87880952D01*
X130547619Y-88452381D01*
X131166667Y-88452381D01*
X131595238Y-88357143D02*
X131642857Y-88404762D01*
X131595238Y-88452381D01*
X131547619Y-88404762D01*
X131595238Y-88357143D01*
X131595238Y-88452381D01*
X132023809Y-87547619D02*
X132071428Y-87500000D01*
X132166666Y-87452381D01*
X132404762Y-87452381D01*
X132500000Y-87500000D01*
X132547619Y-87547619D01*
X132595238Y-87642857D01*
X132595238Y-87738095D01*
X132547619Y-87880952D01*
X131976190Y-88452381D01*
X132595238Y-88452381D01*
X133023809Y-88452381D02*
X133023809Y-87452381D01*
X133119047Y-88071429D02*
X133404762Y-88452381D01*
X133404762Y-87785714D02*
X133023809Y-88166667D01*
X86310953Y-88952381D02*
X85977619Y-88476190D01*
X85739524Y-88952381D02*
X85739524Y-87952381D01*
X86120477Y-87952381D01*
X86215715Y-88000000D01*
X86263334Y-88047619D01*
X86310953Y-88142857D01*
X86310953Y-88285714D01*
X86263334Y-88380952D01*
X86215715Y-88428571D01*
X86120477Y-88476190D01*
X85739524Y-88476190D01*
X86882381Y-88380952D02*
X86787143Y-88333333D01*
X86739524Y-88285714D01*
X86691905Y-88190476D01*
X86691905Y-88142857D01*
X86739524Y-88047619D01*
X86787143Y-88000000D01*
X86882381Y-87952381D01*
X87072858Y-87952381D01*
X87168096Y-88000000D01*
X87215715Y-88047619D01*
X87263334Y-88142857D01*
X87263334Y-88190476D01*
X87215715Y-88285714D01*
X87168096Y-88333333D01*
X87072858Y-88380952D01*
X86882381Y-88380952D01*
X86787143Y-88428571D01*
X86739524Y-88476190D01*
X86691905Y-88571429D01*
X86691905Y-88761905D01*
X86739524Y-88857143D01*
X86787143Y-88904762D01*
X86882381Y-88952381D01*
X87072858Y-88952381D01*
X87168096Y-88904762D01*
X87215715Y-88857143D01*
X87263334Y-88761905D01*
X87263334Y-88571429D01*
X87215715Y-88476190D01*
X87168096Y-88428571D01*
X87072858Y-88380952D01*
X87691905Y-88952381D02*
X87691905Y-87952381D01*
X87691905Y-88333333D02*
X87787143Y-88285714D01*
X87977620Y-88285714D01*
X88072858Y-88333333D01*
X88120477Y-88380952D01*
X88168096Y-88476190D01*
X88168096Y-88761905D01*
X88120477Y-88857143D01*
X88072858Y-88904762D01*
X87977620Y-88952381D01*
X87787143Y-88952381D01*
X87691905Y-88904762D01*
X81525238Y-88047619D02*
X81572857Y-88000000D01*
X81668095Y-87952381D01*
X81906191Y-87952381D01*
X82001429Y-88000000D01*
X82049048Y-88047619D01*
X82096667Y-88142857D01*
X82096667Y-88238095D01*
X82049048Y-88380952D01*
X81477619Y-88952381D01*
X82096667Y-88952381D01*
X82525238Y-88857143D02*
X82572857Y-88904762D01*
X82525238Y-88952381D01*
X82477619Y-88904762D01*
X82525238Y-88857143D01*
X82525238Y-88952381D01*
X82953809Y-88047619D02*
X83001428Y-88000000D01*
X83096666Y-87952381D01*
X83334762Y-87952381D01*
X83430000Y-88000000D01*
X83477619Y-88047619D01*
X83525238Y-88142857D01*
X83525238Y-88238095D01*
X83477619Y-88380952D01*
X82906190Y-88952381D01*
X83525238Y-88952381D01*
X83953809Y-88952381D02*
X83953809Y-87952381D01*
X84049047Y-88571429D02*
X84334762Y-88952381D01*
X84334762Y-88285714D02*
X83953809Y-88666667D01*
X130850143Y-48952381D02*
X130516809Y-48476190D01*
X130278714Y-48952381D02*
X130278714Y-47952381D01*
X130659667Y-47952381D01*
X130754905Y-48000000D01*
X130802524Y-48047619D01*
X130850143Y-48142857D01*
X130850143Y-48285714D01*
X130802524Y-48380952D01*
X130754905Y-48428571D01*
X130659667Y-48476190D01*
X130278714Y-48476190D01*
X131802524Y-48952381D02*
X131231095Y-48952381D01*
X131516809Y-48952381D02*
X131516809Y-47952381D01*
X131421571Y-48095238D01*
X131326333Y-48190476D01*
X131231095Y-48238095D01*
X132135857Y-47952381D02*
X132754905Y-47952381D01*
X132421571Y-48333333D01*
X132564429Y-48333333D01*
X132659667Y-48380952D01*
X132707286Y-48428571D01*
X132754905Y-48523810D01*
X132754905Y-48761905D01*
X132707286Y-48857143D01*
X132659667Y-48904762D01*
X132564429Y-48952381D01*
X132278714Y-48952381D01*
X132183476Y-48904762D01*
X132135857Y-48857143D01*
X127373953Y-48952381D02*
X126802524Y-48952381D01*
X127088238Y-48952381D02*
X127088238Y-47952381D01*
X126993000Y-48095238D01*
X126897762Y-48190476D01*
X126802524Y-48238095D01*
X127802524Y-48952381D02*
X127802524Y-47952381D01*
X127897762Y-48571429D02*
X128183477Y-48952381D01*
X128183477Y-48285714D02*
X127802524Y-48666667D01*
X84138953Y-86952381D02*
X83805619Y-86476190D01*
X83567524Y-86952381D02*
X83567524Y-85952381D01*
X83948477Y-85952381D01*
X84043715Y-86000000D01*
X84091334Y-86047619D01*
X84138953Y-86142857D01*
X84138953Y-86285714D01*
X84091334Y-86380952D01*
X84043715Y-86428571D01*
X83948477Y-86476190D01*
X83567524Y-86476190D01*
X84472286Y-85952381D02*
X85138953Y-85952381D01*
X84710381Y-86952381D01*
X85519905Y-86952381D02*
X85519905Y-85952381D01*
X85519905Y-86333333D02*
X85615143Y-86285714D01*
X85805620Y-86285714D01*
X85900858Y-86333333D01*
X85948477Y-86380952D01*
X85996096Y-86476190D01*
X85996096Y-86761905D01*
X85948477Y-86857143D01*
X85900858Y-86904762D01*
X85805620Y-86952381D01*
X85615143Y-86952381D01*
X85519905Y-86904762D01*
X79353238Y-86042618D02*
X79400857Y-85994999D01*
X79496095Y-85947380D01*
X79734191Y-85947380D01*
X79829429Y-85994999D01*
X79877048Y-86042618D01*
X79924667Y-86137856D01*
X79924667Y-86233094D01*
X79877048Y-86375951D01*
X79305619Y-86947380D01*
X79924667Y-86947380D01*
X80353238Y-86852142D02*
X80400857Y-86899761D01*
X80353238Y-86947380D01*
X80305619Y-86899761D01*
X80353238Y-86852142D01*
X80353238Y-86947380D01*
X80781809Y-86042618D02*
X80829428Y-85994999D01*
X80924666Y-85947380D01*
X81162762Y-85947380D01*
X81258000Y-85994999D01*
X81305619Y-86042618D01*
X81353238Y-86137856D01*
X81353238Y-86233094D01*
X81305619Y-86375951D01*
X80734190Y-86947380D01*
X81353238Y-86947380D01*
X81781809Y-86947380D02*
X81781809Y-85947380D01*
X81877047Y-86566428D02*
X82162762Y-86947380D01*
X82162762Y-86280713D02*
X81781809Y-86661666D01*
X121873953Y-88452381D02*
X121540619Y-87976190D01*
X121302524Y-88452381D02*
X121302524Y-87452381D01*
X121683477Y-87452381D01*
X121778715Y-87500000D01*
X121826334Y-87547619D01*
X121873953Y-87642857D01*
X121873953Y-87785714D01*
X121826334Y-87880952D01*
X121778715Y-87928571D01*
X121683477Y-87976190D01*
X121302524Y-87976190D01*
X122207286Y-87452381D02*
X122873953Y-87452381D01*
X122445381Y-88452381D01*
X123683477Y-88452381D02*
X123683477Y-87928571D01*
X123635858Y-87833333D01*
X123540620Y-87785714D01*
X123350143Y-87785714D01*
X123254905Y-87833333D01*
X123683477Y-88404762D02*
X123588239Y-88452381D01*
X123350143Y-88452381D01*
X123254905Y-88404762D01*
X123207286Y-88309524D01*
X123207286Y-88214286D01*
X123254905Y-88119048D01*
X123350143Y-88071429D01*
X123588239Y-88071429D01*
X123683477Y-88023810D01*
X117088238Y-87547619D02*
X117135857Y-87500000D01*
X117231095Y-87452381D01*
X117469191Y-87452381D01*
X117564429Y-87500000D01*
X117612048Y-87547619D01*
X117659667Y-87642857D01*
X117659667Y-87738095D01*
X117612048Y-87880952D01*
X117040619Y-88452381D01*
X117659667Y-88452381D01*
X118088238Y-88357143D02*
X118135857Y-88404762D01*
X118088238Y-88452381D01*
X118040619Y-88404762D01*
X118088238Y-88357143D01*
X118088238Y-88452381D01*
X118516809Y-87547619D02*
X118564428Y-87500000D01*
X118659666Y-87452381D01*
X118897762Y-87452381D01*
X118993000Y-87500000D01*
X119040619Y-87547619D01*
X119088238Y-87642857D01*
X119088238Y-87738095D01*
X119040619Y-87880952D01*
X118469190Y-88452381D01*
X119088238Y-88452381D01*
X119516809Y-88452381D02*
X119516809Y-87452381D01*
X119612047Y-88071429D02*
X119897762Y-88452381D01*
X119897762Y-87785714D02*
X119516809Y-88166667D01*
X132900143Y-45952381D02*
X132566809Y-45476190D01*
X132328714Y-45952381D02*
X132328714Y-44952381D01*
X132709667Y-44952381D01*
X132804905Y-45000000D01*
X132852524Y-45047619D01*
X132900143Y-45142857D01*
X132900143Y-45285714D01*
X132852524Y-45380952D01*
X132804905Y-45428571D01*
X132709667Y-45476190D01*
X132328714Y-45476190D01*
X133852524Y-45952381D02*
X133281095Y-45952381D01*
X133566809Y-45952381D02*
X133566809Y-44952381D01*
X133471571Y-45095238D01*
X133376333Y-45190476D01*
X133281095Y-45238095D01*
X134233476Y-45047619D02*
X134281095Y-45000000D01*
X134376333Y-44952381D01*
X134614429Y-44952381D01*
X134709667Y-45000000D01*
X134757286Y-45047619D01*
X134804905Y-45142857D01*
X134804905Y-45238095D01*
X134757286Y-45380952D01*
X134185857Y-45952381D01*
X134804905Y-45952381D01*
X129447762Y-45952381D02*
X128876333Y-45952381D01*
X129162047Y-45952381D02*
X129162047Y-44952381D01*
X129066809Y-45095238D01*
X128971571Y-45190476D01*
X128876333Y-45238095D01*
X130066809Y-44952381D02*
X130162048Y-44952381D01*
X130257286Y-45000000D01*
X130304905Y-45047619D01*
X130352524Y-45142857D01*
X130400143Y-45333333D01*
X130400143Y-45571429D01*
X130352524Y-45761905D01*
X130304905Y-45857143D01*
X130257286Y-45904762D01*
X130162048Y-45952381D01*
X130066809Y-45952381D01*
X129971571Y-45904762D01*
X129923952Y-45857143D01*
X129876333Y-45761905D01*
X129828714Y-45571429D01*
X129828714Y-45333333D01*
X129876333Y-45142857D01*
X129923952Y-45047619D01*
X129971571Y-45000000D01*
X130066809Y-44952381D01*
X130828714Y-45952381D02*
X130828714Y-44952381D01*
X130923952Y-45571429D02*
X131209667Y-45952381D01*
X131209667Y-45285714D02*
X130828714Y-45666667D01*
X137999524Y-56096354D02*
X137999524Y-57096354D01*
X137999524Y-56143973D02*
X138094762Y-56096354D01*
X138285239Y-56096354D01*
X138380477Y-56143973D01*
X138428096Y-56191592D01*
X138475715Y-56286830D01*
X138475715Y-56572545D01*
X138428096Y-56667783D01*
X138380477Y-56715402D01*
X138285239Y-56763021D01*
X138094762Y-56763021D01*
X137999524Y-56715402D01*
X138856667Y-55858259D02*
X138904286Y-55810640D01*
X138999524Y-55763021D01*
X139237620Y-55763021D01*
X139332858Y-55810640D01*
X139380477Y-55858259D01*
X139428096Y-55953497D01*
X139428096Y-56048735D01*
X139380477Y-56191592D01*
X138809048Y-56763021D01*
X139428096Y-56763021D01*
X139595238Y-47952381D02*
X139595238Y-46952381D01*
X139976191Y-46952381D01*
X140071429Y-47000000D01*
X140119048Y-47047619D01*
X140166667Y-47142857D01*
X140166667Y-47285714D01*
X140119048Y-47380952D01*
X140071429Y-47428571D01*
X139976191Y-47476190D01*
X139595238Y-47476190D01*
X140785714Y-46952381D02*
X140976191Y-46952381D01*
X141071429Y-47000000D01*
X141166667Y-47095238D01*
X141214286Y-47285714D01*
X141214286Y-47619048D01*
X141166667Y-47809524D01*
X141071429Y-47904762D01*
X140976191Y-47952381D01*
X140785714Y-47952381D01*
X140690476Y-47904762D01*
X140595238Y-47809524D01*
X140547619Y-47619048D01*
X140547619Y-47285714D01*
X140595238Y-47095238D01*
X140690476Y-47000000D01*
X140785714Y-46952381D01*
X141500000Y-46952381D02*
X142071429Y-46952381D01*
X141785714Y-47952381D02*
X141785714Y-46952381D01*
X143690477Y-47952381D02*
X143119048Y-47952381D01*
X143404762Y-47952381D02*
X143404762Y-46952381D01*
X143309524Y-47095238D01*
X143214286Y-47190476D01*
X143119048Y-47238095D01*
X144309524Y-46952381D02*
X144404763Y-46952381D01*
X144500001Y-47000000D01*
X144547620Y-47047619D01*
X144595239Y-47142857D01*
X144642858Y-47333333D01*
X144642858Y-47571429D01*
X144595239Y-47761905D01*
X144547620Y-47857143D01*
X144500001Y-47904762D01*
X144404763Y-47952381D01*
X144309524Y-47952381D01*
X144214286Y-47904762D01*
X144166667Y-47857143D01*
X144119048Y-47761905D01*
X144071429Y-47571429D01*
X144071429Y-47333333D01*
X144119048Y-47142857D01*
X144166667Y-47047619D01*
X144214286Y-47000000D01*
X144309524Y-46952381D01*
X145071429Y-47952381D02*
X145071429Y-46952381D01*
X145166667Y-47571429D02*
X145452382Y-47952381D01*
X145452382Y-47285714D02*
X145071429Y-47666667D01*
X148309524Y-55285714D02*
X148309524Y-56285714D01*
X148309524Y-55333333D02*
X148404762Y-55285714D01*
X148595239Y-55285714D01*
X148690477Y-55333333D01*
X148738096Y-55380952D01*
X148785715Y-55476190D01*
X148785715Y-55761905D01*
X148738096Y-55857143D01*
X148690477Y-55904762D01*
X148595239Y-55952381D01*
X148404762Y-55952381D01*
X148309524Y-55904762D01*
X149738096Y-55952381D02*
X149166667Y-55952381D01*
X149452381Y-55952381D02*
X149452381Y-54952381D01*
X149357143Y-55095238D01*
X149261905Y-55190476D01*
X149166667Y-55238095D01*
X149595238Y-47952381D02*
X149595238Y-46952381D01*
X149976191Y-46952381D01*
X150071429Y-47000000D01*
X150119048Y-47047619D01*
X150166667Y-47142857D01*
X150166667Y-47285714D01*
X150119048Y-47380952D01*
X150071429Y-47428571D01*
X149976191Y-47476190D01*
X149595238Y-47476190D01*
X150785714Y-46952381D02*
X150976191Y-46952381D01*
X151071429Y-47000000D01*
X151166667Y-47095238D01*
X151214286Y-47285714D01*
X151214286Y-47619048D01*
X151166667Y-47809524D01*
X151071429Y-47904762D01*
X150976191Y-47952381D01*
X150785714Y-47952381D01*
X150690476Y-47904762D01*
X150595238Y-47809524D01*
X150547619Y-47619048D01*
X150547619Y-47285714D01*
X150595238Y-47095238D01*
X150690476Y-47000000D01*
X150785714Y-46952381D01*
X151500000Y-46952381D02*
X152071429Y-46952381D01*
X151785714Y-47952381D02*
X151785714Y-46952381D01*
X153690477Y-47952381D02*
X153119048Y-47952381D01*
X153404762Y-47952381D02*
X153404762Y-46952381D01*
X153309524Y-47095238D01*
X153214286Y-47190476D01*
X153119048Y-47238095D01*
X154309524Y-46952381D02*
X154404763Y-46952381D01*
X154500001Y-47000000D01*
X154547620Y-47047619D01*
X154595239Y-47142857D01*
X154642858Y-47333333D01*
X154642858Y-47571429D01*
X154595239Y-47761905D01*
X154547620Y-47857143D01*
X154500001Y-47904762D01*
X154404763Y-47952381D01*
X154309524Y-47952381D01*
X154214286Y-47904762D01*
X154166667Y-47857143D01*
X154119048Y-47761905D01*
X154071429Y-47571429D01*
X154071429Y-47333333D01*
X154119048Y-47142857D01*
X154166667Y-47047619D01*
X154214286Y-47000000D01*
X154309524Y-46952381D01*
X155071429Y-47952381D02*
X155071429Y-46952381D01*
X155166667Y-47571429D02*
X155452382Y-47952381D01*
X155452382Y-47285714D02*
X155071429Y-47666667D01*
X145690477Y-95452381D02*
X145690477Y-96166667D01*
X145642857Y-96309524D01*
X145547619Y-96404762D01*
X145404762Y-96452381D01*
X145309524Y-96452381D01*
X146690477Y-96452381D02*
X146119048Y-96452381D01*
X146404762Y-96452381D02*
X146404762Y-95452381D01*
X146309524Y-95595238D01*
X146214286Y-95690476D01*
X146119048Y-95738095D01*
X147261905Y-95880952D02*
X147166667Y-95833333D01*
X147119048Y-95785714D01*
X147071429Y-95690476D01*
X147071429Y-95642857D01*
X147119048Y-95547619D01*
X147166667Y-95500000D01*
X147261905Y-95452381D01*
X147452382Y-95452381D01*
X147547620Y-95500000D01*
X147595239Y-95547619D01*
X147642858Y-95642857D01*
X147642858Y-95690476D01*
X147595239Y-95785714D01*
X147547620Y-95833333D01*
X147452382Y-95880952D01*
X147261905Y-95880952D01*
X147166667Y-95928571D01*
X147119048Y-95976190D01*
X147071429Y-96071429D01*
X147071429Y-96261905D01*
X147119048Y-96357143D01*
X147166667Y-96404762D01*
X147261905Y-96452381D01*
X147452382Y-96452381D01*
X147547620Y-96404762D01*
X147595239Y-96357143D01*
X147642858Y-96261905D01*
X147642858Y-96071429D01*
X147595239Y-95976190D01*
X147547620Y-95928571D01*
X147452382Y-95880952D01*
X121142858Y-48626571D02*
X121285715Y-48674190D01*
X121333334Y-48721810D01*
X121380953Y-48817048D01*
X121380953Y-48959905D01*
X121333334Y-49055143D01*
X121285715Y-49102762D01*
X121190477Y-49150381D01*
X120809524Y-49150381D01*
X120809524Y-48150381D01*
X121142858Y-48150381D01*
X121238096Y-48198000D01*
X121285715Y-48245619D01*
X121333334Y-48340857D01*
X121333334Y-48436095D01*
X121285715Y-48531333D01*
X121238096Y-48578952D01*
X121142858Y-48626571D01*
X120809524Y-48626571D01*
X122380953Y-49055143D02*
X122333334Y-49102762D01*
X122190477Y-49150381D01*
X122095239Y-49150381D01*
X121952381Y-49102762D01*
X121857143Y-49007524D01*
X121809524Y-48912286D01*
X121761905Y-48721810D01*
X121761905Y-48578952D01*
X121809524Y-48388476D01*
X121857143Y-48293238D01*
X121952381Y-48198000D01*
X122095239Y-48150381D01*
X122190477Y-48150381D01*
X122333334Y-48198000D01*
X122380953Y-48245619D01*
X122714286Y-48150381D02*
X123333334Y-48150381D01*
X123000000Y-48531333D01*
X123142858Y-48531333D01*
X123238096Y-48578952D01*
X123285715Y-48626571D01*
X123333334Y-48721810D01*
X123333334Y-48959905D01*
X123285715Y-49055143D01*
X123238096Y-49102762D01*
X123142858Y-49150381D01*
X122857143Y-49150381D01*
X122761905Y-49102762D01*
X122714286Y-49055143D01*
X123666667Y-48150381D02*
X124285715Y-48150381D01*
X123952381Y-48531333D01*
X124095239Y-48531333D01*
X124190477Y-48578952D01*
X124238096Y-48626571D01*
X124285715Y-48721810D01*
X124285715Y-48959905D01*
X124238096Y-49055143D01*
X124190477Y-49102762D01*
X124095239Y-49150381D01*
X123809524Y-49150381D01*
X123714286Y-49102762D01*
X123666667Y-49055143D01*
X124619048Y-48150381D02*
X125285715Y-48150381D01*
X124857143Y-49150381D01*
D18*
X144690477Y-44952381D02*
X144690477Y-45666667D01*
X144642857Y-45809524D01*
X144547619Y-45904762D01*
X144404762Y-45952381D01*
X144309524Y-45952381D01*
X145690477Y-45952381D02*
X145119048Y-45952381D01*
X145404762Y-45952381D02*
X145404762Y-44952381D01*
X145309524Y-45095238D01*
X145214286Y-45190476D01*
X145119048Y-45238095D01*
X146166667Y-45952381D02*
X146357143Y-45952381D01*
X146452382Y-45904762D01*
X146500001Y-45857143D01*
X146595239Y-45714286D01*
X146642858Y-45523810D01*
X146642858Y-45142857D01*
X146595239Y-45047619D01*
X146547620Y-45000000D01*
X146452382Y-44952381D01*
X146261905Y-44952381D01*
X146166667Y-45000000D01*
X146119048Y-45047619D01*
X146071429Y-45142857D01*
X146071429Y-45380952D01*
X146119048Y-45476190D01*
X146166667Y-45523810D01*
X146261905Y-45571429D01*
X146452382Y-45571429D01*
X146547620Y-45523810D01*
X146595239Y-45476190D01*
X146642858Y-45380952D01*
X81610477Y-23952381D02*
X81610477Y-24666667D01*
X81562857Y-24809524D01*
X81467619Y-24904762D01*
X81324762Y-24952381D01*
X81229524Y-24952381D01*
X82610477Y-24952381D02*
X82039048Y-24952381D01*
X82324762Y-24952381D02*
X82324762Y-23952381D01*
X82229524Y-24095238D01*
X82134286Y-24190476D01*
X82039048Y-24238095D01*
X83467620Y-23952381D02*
X83277143Y-23952381D01*
X83181905Y-24000000D01*
X83134286Y-24047619D01*
X83039048Y-24190476D01*
X82991429Y-24380952D01*
X82991429Y-24761905D01*
X83039048Y-24857143D01*
X83086667Y-24904762D01*
X83181905Y-24952381D01*
X83372382Y-24952381D01*
X83467620Y-24904762D01*
X83515239Y-24857143D01*
X83562858Y-24761905D01*
X83562858Y-24523810D01*
X83515239Y-24428571D01*
X83467620Y-24380952D01*
X83372382Y-24333333D01*
X83181905Y-24333333D01*
X83086667Y-24380952D01*
X83039048Y-24428571D01*
X82991429Y-24523810D01*
X58238096Y-87952381D02*
X58238096Y-88666667D01*
X58190476Y-88809524D01*
X58095238Y-88904762D01*
X57952381Y-88952381D01*
X57857143Y-88952381D01*
X59238096Y-88952381D02*
X58666667Y-88952381D01*
X58952381Y-88952381D02*
X58952381Y-87952381D01*
X58857143Y-88095238D01*
X58761905Y-88190476D01*
X58666667Y-88238095D01*
X60190477Y-88952381D02*
X59619048Y-88952381D01*
X59904762Y-88952381D02*
X59904762Y-87952381D01*
X59809524Y-88095238D01*
X59714286Y-88190476D01*
X59619048Y-88238095D01*
X60619048Y-88428571D02*
X60952382Y-88428571D01*
X61095239Y-88952381D02*
X60619048Y-88952381D01*
X60619048Y-87952381D01*
X61095239Y-87952381D01*
X107190477Y-87952381D02*
X107190477Y-88666667D01*
X107142857Y-88809524D01*
X107047619Y-88904762D01*
X106904762Y-88952381D01*
X106809524Y-88952381D01*
X108190477Y-88952381D02*
X107619048Y-88952381D01*
X107904762Y-88952381D02*
X107904762Y-87952381D01*
X107809524Y-88095238D01*
X107714286Y-88190476D01*
X107619048Y-88238095D01*
X108809524Y-87952381D02*
X108904763Y-87952381D01*
X109000001Y-88000000D01*
X109047620Y-88047619D01*
X109095239Y-88142857D01*
X109142858Y-88333333D01*
X109142858Y-88571429D01*
X109095239Y-88761905D01*
X109047620Y-88857143D01*
X109000001Y-88904762D01*
X108904763Y-88952381D01*
X108809524Y-88952381D01*
X108714286Y-88904762D01*
X108666667Y-88857143D01*
X108619048Y-88761905D01*
X108571429Y-88571429D01*
X108571429Y-88333333D01*
X108619048Y-88142857D01*
X108666667Y-88047619D01*
X108714286Y-88000000D01*
X108809524Y-87952381D01*
X109904763Y-88428571D02*
X110047620Y-88476190D01*
X110095239Y-88523810D01*
X110142858Y-88619048D01*
X110142858Y-88761905D01*
X110095239Y-88857143D01*
X110047620Y-88904762D01*
X109952382Y-88952381D01*
X109571429Y-88952381D01*
X109571429Y-87952381D01*
X109904763Y-87952381D01*
X110000001Y-88000000D01*
X110047620Y-88047619D01*
X110095239Y-88142857D01*
X110095239Y-88238095D01*
X110047620Y-88333333D01*
X110000001Y-88380952D01*
X109904763Y-88428571D01*
X109571429Y-88428571D01*
X59181905Y-23952381D02*
X59181905Y-24666667D01*
X59134285Y-24809524D01*
X59039047Y-24904762D01*
X58896190Y-24952381D01*
X58800952Y-24952381D01*
X60181905Y-24952381D02*
X59610476Y-24952381D01*
X59896190Y-24952381D02*
X59896190Y-23952381D01*
X59800952Y-24095238D01*
X59705714Y-24190476D01*
X59610476Y-24238095D01*
X60800952Y-23952381D02*
X60896191Y-23952381D01*
X60991429Y-24000000D01*
X61039048Y-24047619D01*
X61086667Y-24142857D01*
X61134286Y-24333333D01*
X61134286Y-24571429D01*
X61086667Y-24761905D01*
X61039048Y-24857143D01*
X60991429Y-24904762D01*
X60896191Y-24952381D01*
X60800952Y-24952381D01*
X60705714Y-24904762D01*
X60658095Y-24857143D01*
X60610476Y-24761905D01*
X60562857Y-24571429D01*
X60562857Y-24333333D01*
X60610476Y-24142857D01*
X60658095Y-24047619D01*
X60705714Y-24000000D01*
X60800952Y-23952381D01*
X61515238Y-24666667D02*
X61991429Y-24666667D01*
X61420000Y-24952381D02*
X61753333Y-23952381D01*
X62086667Y-24952381D01*
X154309524Y-44952381D02*
X154309524Y-45666667D01*
X154261904Y-45809524D01*
X154166666Y-45904762D01*
X154023809Y-45952381D01*
X153928571Y-45952381D01*
X154928571Y-45380952D02*
X154833333Y-45333333D01*
X154785714Y-45285714D01*
X154738095Y-45190476D01*
X154738095Y-45142857D01*
X154785714Y-45047619D01*
X154833333Y-45000000D01*
X154928571Y-44952381D01*
X155119048Y-44952381D01*
X155214286Y-45000000D01*
X155261905Y-45047619D01*
X155309524Y-45142857D01*
X155309524Y-45190476D01*
X155261905Y-45285714D01*
X155214286Y-45333333D01*
X155119048Y-45380952D01*
X154928571Y-45380952D01*
X154833333Y-45428571D01*
X154785714Y-45476190D01*
X154738095Y-45571429D01*
X154738095Y-45761905D01*
X154785714Y-45857143D01*
X154833333Y-45904762D01*
X154928571Y-45952381D01*
X155119048Y-45952381D01*
X155214286Y-45904762D01*
X155261905Y-45857143D01*
X155309524Y-45761905D01*
X155309524Y-45571429D01*
X155261905Y-45476190D01*
X155214286Y-45428571D01*
X155119048Y-45380952D01*
X156023810Y-44952381D02*
X156023810Y-45666667D01*
X155976190Y-45809524D01*
X155880952Y-45904762D01*
X155738095Y-45952381D01*
X155642857Y-45952381D01*
X156547619Y-45952381D02*
X156738095Y-45952381D01*
X156833334Y-45904762D01*
X156880953Y-45857143D01*
X156976191Y-45714286D01*
X157023810Y-45523810D01*
X157023810Y-45142857D01*
X156976191Y-45047619D01*
X156928572Y-45000000D01*
X156833334Y-44952381D01*
X156642857Y-44952381D01*
X156547619Y-45000000D01*
X156500000Y-45047619D01*
X156452381Y-45142857D01*
X156452381Y-45380952D01*
X156500000Y-45476190D01*
X156547619Y-45523810D01*
X156642857Y-45571429D01*
X156833334Y-45571429D01*
X156928572Y-45523810D01*
X156976191Y-45476190D01*
X157023810Y-45380952D01*
X103166667Y-24452381D02*
X103166667Y-25166667D01*
X103119047Y-25309524D01*
X103023809Y-25404762D01*
X102880952Y-25452381D01*
X102785714Y-25452381D01*
X104119048Y-24452381D02*
X103642857Y-24452381D01*
X103595238Y-24928571D01*
X103642857Y-24880952D01*
X103738095Y-24833333D01*
X103976191Y-24833333D01*
X104071429Y-24880952D01*
X104119048Y-24928571D01*
X104166667Y-25023810D01*
X104166667Y-25261905D01*
X104119048Y-25357143D01*
X104071429Y-25404762D01*
X103976191Y-25452381D01*
X103738095Y-25452381D01*
X103642857Y-25404762D01*
X103595238Y-25357143D01*
X104928572Y-24928571D02*
X105071429Y-24976190D01*
X105119048Y-25023810D01*
X105166667Y-25119048D01*
X105166667Y-25261905D01*
X105119048Y-25357143D01*
X105071429Y-25404762D01*
X104976191Y-25452381D01*
X104595238Y-25452381D01*
X104595238Y-24452381D01*
X104928572Y-24452381D01*
X105023810Y-24500000D01*
X105071429Y-24547619D01*
X105119048Y-24642857D01*
X105119048Y-24738095D01*
X105071429Y-24833333D01*
X105023810Y-24880952D01*
X104928572Y-24928571D01*
X104595238Y-24928571D01*
X125738096Y-24452381D02*
X125738096Y-25166667D01*
X125690476Y-25309524D01*
X125595238Y-25404762D01*
X125452381Y-25452381D01*
X125357143Y-25452381D01*
X126690477Y-24452381D02*
X126214286Y-24452381D01*
X126166667Y-24928571D01*
X126214286Y-24880952D01*
X126309524Y-24833333D01*
X126547620Y-24833333D01*
X126642858Y-24880952D01*
X126690477Y-24928571D01*
X126738096Y-25023810D01*
X126738096Y-25261905D01*
X126690477Y-25357143D01*
X126642858Y-25404762D01*
X126547620Y-25452381D01*
X126309524Y-25452381D01*
X126214286Y-25404762D01*
X126166667Y-25357143D01*
X127119048Y-25166667D02*
X127595239Y-25166667D01*
X127023810Y-25452381D02*
X127357143Y-24452381D01*
X127690477Y-25452381D01*
X73166667Y-87952381D02*
X73166667Y-88666667D01*
X73119047Y-88809524D01*
X73023809Y-88904762D01*
X72880952Y-88952381D01*
X72785714Y-88952381D01*
X74071429Y-88285714D02*
X74071429Y-88952381D01*
X73833333Y-87904762D02*
X73595238Y-88619048D01*
X74214286Y-88619048D01*
X74928572Y-88428571D02*
X75071429Y-88476190D01*
X75119048Y-88523810D01*
X75166667Y-88619048D01*
X75166667Y-88761905D01*
X75119048Y-88857143D01*
X75071429Y-88904762D01*
X74976191Y-88952381D01*
X74595238Y-88952381D01*
X74595238Y-87952381D01*
X74928572Y-87952381D01*
X75023810Y-88000000D01*
X75071429Y-88047619D01*
X75119048Y-88142857D01*
X75119048Y-88238095D01*
X75071429Y-88333333D01*
X75023810Y-88380952D01*
X74928572Y-88428571D01*
X74595238Y-88428571D01*
X125761905Y-84952381D02*
X125761905Y-85666667D01*
X125714285Y-85809524D01*
X125619047Y-85904762D01*
X125476190Y-85952381D01*
X125380952Y-85952381D01*
X126666667Y-85285714D02*
X126666667Y-85952381D01*
X126428571Y-84904762D02*
X126190476Y-85619048D01*
X126809524Y-85619048D01*
X127142857Y-85666667D02*
X127619048Y-85666667D01*
X127047619Y-85952381D02*
X127380952Y-84952381D01*
X127714286Y-85952381D01*
X128571429Y-85952381D02*
X128000000Y-85952381D01*
X128285714Y-85952381D02*
X128285714Y-84952381D01*
X128190476Y-85095238D01*
X128095238Y-85190476D01*
X128000000Y-85238095D01*
X143214286Y-58952381D02*
X143214286Y-59666667D01*
X143166666Y-59809524D01*
X143071428Y-59904762D01*
X142928571Y-59952381D01*
X142833333Y-59952381D01*
X144214286Y-59952381D02*
X143642857Y-59952381D01*
X143928571Y-59952381D02*
X143928571Y-58952381D01*
X143833333Y-59095238D01*
X143738095Y-59190476D01*
X143642857Y-59238095D01*
X145119048Y-58952381D02*
X144642857Y-58952381D01*
X144595238Y-59428571D01*
X144642857Y-59380952D01*
X144738095Y-59333333D01*
X144976191Y-59333333D01*
X145071429Y-59380952D01*
X145119048Y-59428571D01*
X145166667Y-59523810D01*
X145166667Y-59761905D01*
X145119048Y-59857143D01*
X145071429Y-59904762D01*
X144976191Y-59952381D01*
X144738095Y-59952381D01*
X144642857Y-59904762D01*
X144595238Y-59857143D01*
X145928572Y-59428571D02*
X146071429Y-59476190D01*
X146119048Y-59523810D01*
X146166667Y-59619048D01*
X146166667Y-59761905D01*
X146119048Y-59857143D01*
X146071429Y-59904762D01*
X145976191Y-59952381D01*
X145595238Y-59952381D01*
X145595238Y-58952381D01*
X145928572Y-58952381D01*
X146023810Y-59000000D01*
X146071429Y-59047619D01*
X146119048Y-59142857D01*
X146119048Y-59238095D01*
X146071429Y-59333333D01*
X146023810Y-59380952D01*
X145928572Y-59428571D01*
X145595238Y-59428571D01*
X147119048Y-59952381D02*
X146547619Y-59952381D01*
X146833333Y-59952381D02*
X146833333Y-58952381D01*
X146738095Y-59095238D01*
X146642857Y-59190476D01*
X146547619Y-59238095D01*
X152785715Y-58952381D02*
X152785715Y-59666667D01*
X152738095Y-59809524D01*
X152642857Y-59904762D01*
X152500000Y-59952381D01*
X152404762Y-59952381D01*
X153785715Y-59952381D02*
X153214286Y-59952381D01*
X153500000Y-59952381D02*
X153500000Y-58952381D01*
X153404762Y-59095238D01*
X153309524Y-59190476D01*
X153214286Y-59238095D01*
X154690477Y-58952381D02*
X154214286Y-58952381D01*
X154166667Y-59428571D01*
X154214286Y-59380952D01*
X154309524Y-59333333D01*
X154547620Y-59333333D01*
X154642858Y-59380952D01*
X154690477Y-59428571D01*
X154738096Y-59523810D01*
X154738096Y-59761905D01*
X154690477Y-59857143D01*
X154642858Y-59904762D01*
X154547620Y-59952381D01*
X154309524Y-59952381D01*
X154214286Y-59904762D01*
X154166667Y-59857143D01*
X155119048Y-59666667D02*
X155595239Y-59666667D01*
X155023810Y-59952381D02*
X155357143Y-58952381D01*
X155690477Y-59952381D01*
X156547620Y-59952381D02*
X155976191Y-59952381D01*
X156261905Y-59952381D02*
X156261905Y-58952381D01*
X156166667Y-59095238D01*
X156071429Y-59190476D01*
X155976191Y-59238095D01*
D13*
X130583334Y-54857143D02*
X130535715Y-54904762D01*
X130392858Y-54952381D01*
X130297620Y-54952381D01*
X130154762Y-54904762D01*
X130059524Y-54809524D01*
X130011905Y-54714286D01*
X129964286Y-54523810D01*
X129964286Y-54380952D01*
X130011905Y-54190476D01*
X130059524Y-54095238D01*
X130154762Y-54000000D01*
X130297620Y-53952381D01*
X130392858Y-53952381D01*
X130535715Y-54000000D01*
X130583334Y-54047619D01*
X131535715Y-54952381D02*
X130964286Y-54952381D01*
X131250000Y-54952381D02*
X131250000Y-53952381D01*
X131154762Y-54095238D01*
X131059524Y-54190476D01*
X130964286Y-54238095D01*
X119357143Y-33916666D02*
X119404762Y-33964285D01*
X119452381Y-34107142D01*
X119452381Y-34202380D01*
X119404762Y-34345238D01*
X119309524Y-34440476D01*
X119214286Y-34488095D01*
X119023810Y-34535714D01*
X118880952Y-34535714D01*
X118690476Y-34488095D01*
X118595238Y-34440476D01*
X118500000Y-34345238D01*
X118452381Y-34202380D01*
X118452381Y-34107142D01*
X118500000Y-33964285D01*
X118547619Y-33916666D01*
X118547619Y-33535714D02*
X118500000Y-33488095D01*
X118452381Y-33392857D01*
X118452381Y-33154761D01*
X118500000Y-33059523D01*
X118547619Y-33011904D01*
X118642857Y-32964285D01*
X118738095Y-32964285D01*
X118880952Y-33011904D01*
X119452381Y-33583333D01*
X119452381Y-32964285D01*
X176577143Y-88642381D02*
X176005714Y-88642381D01*
X176291428Y-88642381D02*
X176291428Y-87642381D01*
X176196190Y-87785238D01*
X176100952Y-87880476D01*
X176005714Y-87928095D01*
X177005714Y-88642381D02*
X177005714Y-87642381D01*
X177577143Y-88642381D01*
X177577143Y-87642381D01*
X178481905Y-87975714D02*
X178481905Y-88642381D01*
X178243809Y-87594762D02*
X178005714Y-88309048D01*
X178624762Y-88309048D01*
X179529524Y-88642381D02*
X178958095Y-88642381D01*
X179243809Y-88642381D02*
X179243809Y-87642381D01*
X179148571Y-87785238D01*
X179053333Y-87880476D01*
X178958095Y-87928095D01*
X180386667Y-87975714D02*
X180386667Y-88642381D01*
X180148571Y-87594762D02*
X179910476Y-88309048D01*
X180529524Y-88309048D01*
X181053333Y-88070952D02*
X180958095Y-88023333D01*
X180910476Y-87975714D01*
X180862857Y-87880476D01*
X180862857Y-87832857D01*
X180910476Y-87737619D01*
X180958095Y-87690000D01*
X181053333Y-87642381D01*
X181243810Y-87642381D01*
X181339048Y-87690000D01*
X181386667Y-87737619D01*
X181434286Y-87832857D01*
X181434286Y-87880476D01*
X181386667Y-87975714D01*
X181339048Y-88023333D01*
X181243810Y-88070952D01*
X181053333Y-88070952D01*
X180958095Y-88118571D01*
X180910476Y-88166190D01*
X180862857Y-88261429D01*
X180862857Y-88451905D01*
X180910476Y-88547143D01*
X180958095Y-88594762D01*
X181053333Y-88642381D01*
X181243810Y-88642381D01*
X181339048Y-88594762D01*
X181386667Y-88547143D01*
X181434286Y-88451905D01*
X181434286Y-88261429D01*
X181386667Y-88166190D01*
X181339048Y-88118571D01*
X181243810Y-88070952D01*
X176247143Y-58522381D02*
X175675714Y-58522381D01*
X175961428Y-58522381D02*
X175961428Y-57522381D01*
X175866190Y-57665238D01*
X175770952Y-57760476D01*
X175675714Y-57808095D01*
X176675714Y-58522381D02*
X176675714Y-57522381D01*
X177247143Y-58522381D01*
X177247143Y-57522381D01*
X178151905Y-57855714D02*
X178151905Y-58522381D01*
X177913809Y-57474762D02*
X177675714Y-58189048D01*
X178294762Y-58189048D01*
X179199524Y-58522381D02*
X178628095Y-58522381D01*
X178913809Y-58522381D02*
X178913809Y-57522381D01*
X178818571Y-57665238D01*
X178723333Y-57760476D01*
X178628095Y-57808095D01*
X180056667Y-57855714D02*
X180056667Y-58522381D01*
X179818571Y-57474762D02*
X179580476Y-58189048D01*
X180199524Y-58189048D01*
X180723333Y-57950952D02*
X180628095Y-57903333D01*
X180580476Y-57855714D01*
X180532857Y-57760476D01*
X180532857Y-57712857D01*
X180580476Y-57617619D01*
X180628095Y-57570000D01*
X180723333Y-57522381D01*
X180913810Y-57522381D01*
X181009048Y-57570000D01*
X181056667Y-57617619D01*
X181104286Y-57712857D01*
X181104286Y-57760476D01*
X181056667Y-57855714D01*
X181009048Y-57903333D01*
X180913810Y-57950952D01*
X180723333Y-57950952D01*
X180628095Y-57998571D01*
X180580476Y-58046190D01*
X180532857Y-58141429D01*
X180532857Y-58331905D01*
X180580476Y-58427143D01*
X180628095Y-58474762D01*
X180723333Y-58522381D01*
X180913810Y-58522381D01*
X181009048Y-58474762D01*
X181056667Y-58427143D01*
X181104286Y-58331905D01*
X181104286Y-58141429D01*
X181056667Y-58046190D01*
X181009048Y-57998571D01*
X180913810Y-57950952D01*
X173452381Y-79476190D02*
X172452381Y-79476190D01*
X173357143Y-78428571D02*
X173404762Y-78476190D01*
X173452381Y-78619047D01*
X173452381Y-78714285D01*
X173404762Y-78857143D01*
X173309524Y-78952381D01*
X173214286Y-79000000D01*
X173023810Y-79047619D01*
X172880952Y-79047619D01*
X172690476Y-79000000D01*
X172595238Y-78952381D01*
X172500000Y-78857143D01*
X172452381Y-78714285D01*
X172452381Y-78619047D01*
X172500000Y-78476190D01*
X172547619Y-78428571D01*
X173452381Y-77476190D02*
X173452381Y-78047619D01*
X173452381Y-77761905D02*
X172452381Y-77761905D01*
X172595238Y-77857143D01*
X172690476Y-77952381D01*
X172738095Y-78047619D01*
X175738096Y-77952381D02*
X175547619Y-77952381D01*
X175452381Y-78000000D01*
X175404762Y-78047619D01*
X175309524Y-78190476D01*
X175261905Y-78380952D01*
X175261905Y-78761905D01*
X175309524Y-78857143D01*
X175357143Y-78904762D01*
X175452381Y-78952381D01*
X175642858Y-78952381D01*
X175738096Y-78904762D01*
X175785715Y-78857143D01*
X175833334Y-78761905D01*
X175833334Y-78523810D01*
X175785715Y-78428571D01*
X175738096Y-78380952D01*
X175642858Y-78333333D01*
X175452381Y-78333333D01*
X175357143Y-78380952D01*
X175309524Y-78428571D01*
X175261905Y-78523810D01*
X176261905Y-78952381D02*
X176261905Y-77952381D01*
X176833334Y-78952381D01*
X176833334Y-77952381D01*
X177833334Y-78952381D02*
X177261905Y-78952381D01*
X177547619Y-78952381D02*
X177547619Y-77952381D01*
X177452381Y-78095238D01*
X177357143Y-78190476D01*
X177261905Y-78238095D01*
X178166667Y-77952381D02*
X178785715Y-77952381D01*
X178452381Y-78333333D01*
X178595239Y-78333333D01*
X178690477Y-78380952D01*
X178738096Y-78428571D01*
X178785715Y-78523810D01*
X178785715Y-78761905D01*
X178738096Y-78857143D01*
X178690477Y-78904762D01*
X178595239Y-78952381D01*
X178309524Y-78952381D01*
X178214286Y-78904762D01*
X178166667Y-78857143D01*
X179357143Y-78380952D02*
X179261905Y-78333333D01*
X179214286Y-78285714D01*
X179166667Y-78190476D01*
X179166667Y-78142857D01*
X179214286Y-78047619D01*
X179261905Y-78000000D01*
X179357143Y-77952381D01*
X179547620Y-77952381D01*
X179642858Y-78000000D01*
X179690477Y-78047619D01*
X179738096Y-78142857D01*
X179738096Y-78190476D01*
X179690477Y-78285714D01*
X179642858Y-78333333D01*
X179547620Y-78380952D01*
X179357143Y-78380952D01*
X179261905Y-78428571D01*
X179214286Y-78476190D01*
X179166667Y-78571429D01*
X179166667Y-78761905D01*
X179214286Y-78857143D01*
X179261905Y-78904762D01*
X179357143Y-78952381D01*
X179547620Y-78952381D01*
X179642858Y-78904762D01*
X179690477Y-78857143D01*
X179738096Y-78761905D01*
X179738096Y-78571429D01*
X179690477Y-78476190D01*
X179642858Y-78428571D01*
X179547620Y-78380952D01*
X173452381Y-48976190D02*
X172452381Y-48976190D01*
X173357143Y-47928571D02*
X173404762Y-47976190D01*
X173452381Y-48119047D01*
X173452381Y-48214285D01*
X173404762Y-48357143D01*
X173309524Y-48452381D01*
X173214286Y-48500000D01*
X173023810Y-48547619D01*
X172880952Y-48547619D01*
X172690476Y-48500000D01*
X172595238Y-48452381D01*
X172500000Y-48357143D01*
X172452381Y-48214285D01*
X172452381Y-48119047D01*
X172500000Y-47976190D01*
X172547619Y-47928571D01*
X172547619Y-47547619D02*
X172500000Y-47500000D01*
X172452381Y-47404762D01*
X172452381Y-47166666D01*
X172500000Y-47071428D01*
X172547619Y-47023809D01*
X172642857Y-46976190D01*
X172738095Y-46976190D01*
X172880952Y-47023809D01*
X173452381Y-47595238D01*
X173452381Y-46976190D01*
X175738096Y-47452381D02*
X175547619Y-47452381D01*
X175452381Y-47500000D01*
X175404762Y-47547619D01*
X175309524Y-47690476D01*
X175261905Y-47880952D01*
X175261905Y-48261905D01*
X175309524Y-48357143D01*
X175357143Y-48404762D01*
X175452381Y-48452381D01*
X175642858Y-48452381D01*
X175738096Y-48404762D01*
X175785715Y-48357143D01*
X175833334Y-48261905D01*
X175833334Y-48023810D01*
X175785715Y-47928571D01*
X175738096Y-47880952D01*
X175642858Y-47833333D01*
X175452381Y-47833333D01*
X175357143Y-47880952D01*
X175309524Y-47928571D01*
X175261905Y-48023810D01*
X176261905Y-48452381D02*
X176261905Y-47452381D01*
X176833334Y-48452381D01*
X176833334Y-47452381D01*
X177833334Y-48452381D02*
X177261905Y-48452381D01*
X177547619Y-48452381D02*
X177547619Y-47452381D01*
X177452381Y-47595238D01*
X177357143Y-47690476D01*
X177261905Y-47738095D01*
X178166667Y-47452381D02*
X178785715Y-47452381D01*
X178452381Y-47833333D01*
X178595239Y-47833333D01*
X178690477Y-47880952D01*
X178738096Y-47928571D01*
X178785715Y-48023810D01*
X178785715Y-48261905D01*
X178738096Y-48357143D01*
X178690477Y-48404762D01*
X178595239Y-48452381D01*
X178309524Y-48452381D01*
X178214286Y-48404762D01*
X178166667Y-48357143D01*
X179357143Y-47880952D02*
X179261905Y-47833333D01*
X179214286Y-47785714D01*
X179166667Y-47690476D01*
X179166667Y-47642857D01*
X179214286Y-47547619D01*
X179261905Y-47500000D01*
X179357143Y-47452381D01*
X179547620Y-47452381D01*
X179642858Y-47500000D01*
X179690477Y-47547619D01*
X179738096Y-47642857D01*
X179738096Y-47690476D01*
X179690477Y-47785714D01*
X179642858Y-47833333D01*
X179547620Y-47880952D01*
X179357143Y-47880952D01*
X179261905Y-47928571D01*
X179214286Y-47976190D01*
X179166667Y-48071429D01*
X179166667Y-48261905D01*
X179214286Y-48357143D01*
X179261905Y-48404762D01*
X179357143Y-48452381D01*
X179547620Y-48452381D01*
X179642858Y-48404762D01*
X179690477Y-48357143D01*
X179738096Y-48261905D01*
X179738096Y-48071429D01*
X179690477Y-47976190D01*
X179642858Y-47928571D01*
X179547620Y-47880952D01*
D16*
X196939429Y-97205142D02*
X195923429Y-97205142D01*
X196068571Y-97205142D02*
X195996000Y-97132570D01*
X195923429Y-96987428D01*
X195923429Y-96769713D01*
X195996000Y-96624570D01*
X196141143Y-96551999D01*
X196939429Y-96551999D01*
X196141143Y-96551999D02*
X195996000Y-96479428D01*
X195923429Y-96334285D01*
X195923429Y-96116570D01*
X195996000Y-95971428D01*
X196141143Y-95898856D01*
X196939429Y-95898856D01*
X196939429Y-95173142D02*
X195923429Y-95173142D01*
X195415429Y-95173142D02*
X195488000Y-95245713D01*
X195560571Y-95173142D01*
X195488000Y-95100570D01*
X195415429Y-95173142D01*
X195560571Y-95173142D01*
X196939429Y-93794285D02*
X195415429Y-93794285D01*
X196866857Y-93794285D02*
X196939429Y-93939428D01*
X196939429Y-94229714D01*
X196866857Y-94374856D01*
X196794286Y-94447428D01*
X196649143Y-94519999D01*
X196213714Y-94519999D01*
X196068571Y-94447428D01*
X195996000Y-94374856D01*
X195923429Y-94229714D01*
X195923429Y-93939428D01*
X195996000Y-93794285D01*
X196939429Y-93068571D02*
X195923429Y-93068571D01*
X195415429Y-93068571D02*
X195488000Y-93141142D01*
X195560571Y-93068571D01*
X195488000Y-92995999D01*
X195415429Y-93068571D01*
X195560571Y-93068571D01*
X196939429Y-92342857D02*
X195415429Y-92342857D01*
X196939429Y-91617143D02*
X195415429Y-91617143D01*
X196939429Y-90746286D01*
X195415429Y-90746286D01*
X196939429Y-89222286D02*
X196939429Y-90093143D01*
X196939429Y-89657715D02*
X195415429Y-89657715D01*
X195633143Y-89802858D01*
X195778286Y-89948000D01*
X195850857Y-90093143D01*
X195556989Y-53843882D02*
X194540989Y-53843882D01*
X194686131Y-53843882D02*
X194613560Y-53771310D01*
X194540989Y-53626168D01*
X194540989Y-53408453D01*
X194613560Y-53263310D01*
X194758703Y-53190739D01*
X195556989Y-53190739D01*
X194758703Y-53190739D02*
X194613560Y-53118168D01*
X194540989Y-52973025D01*
X194540989Y-52755310D01*
X194613560Y-52610168D01*
X194758703Y-52537596D01*
X195556989Y-52537596D01*
X195556989Y-51811882D02*
X194540989Y-51811882D01*
X194032989Y-51811882D02*
X194105560Y-51884453D01*
X194178131Y-51811882D01*
X194105560Y-51739310D01*
X194032989Y-51811882D01*
X194178131Y-51811882D01*
X195556989Y-50433025D02*
X194032989Y-50433025D01*
X195484417Y-50433025D02*
X195556989Y-50578168D01*
X195556989Y-50868454D01*
X195484417Y-51013596D01*
X195411846Y-51086168D01*
X195266703Y-51158739D01*
X194831274Y-51158739D01*
X194686131Y-51086168D01*
X194613560Y-51013596D01*
X194540989Y-50868454D01*
X194540989Y-50578168D01*
X194613560Y-50433025D01*
X195556989Y-49707311D02*
X194540989Y-49707311D01*
X194032989Y-49707311D02*
X194105560Y-49779882D01*
X194178131Y-49707311D01*
X194105560Y-49634739D01*
X194032989Y-49707311D01*
X194178131Y-49707311D01*
X195556989Y-48981597D02*
X194032989Y-48981597D01*
X195556989Y-48255883D02*
X194032989Y-48255883D01*
X195556989Y-47385026D01*
X194032989Y-47385026D01*
X194178131Y-46731883D02*
X194105560Y-46659312D01*
X194032989Y-46514169D01*
X194032989Y-46151312D01*
X194105560Y-46006169D01*
X194178131Y-45933598D01*
X194323274Y-45861026D01*
X194468417Y-45861026D01*
X194686131Y-45933598D01*
X195556989Y-46804455D01*
X195556989Y-45861026D01*
X196189429Y-76721142D02*
X195173429Y-76721142D01*
X195318571Y-76721142D02*
X195246000Y-76648570D01*
X195173429Y-76503428D01*
X195173429Y-76285713D01*
X195246000Y-76140570D01*
X195391143Y-76067999D01*
X196189429Y-76067999D01*
X195391143Y-76067999D02*
X195246000Y-75995428D01*
X195173429Y-75850285D01*
X195173429Y-75632570D01*
X195246000Y-75487428D01*
X195391143Y-75414856D01*
X196189429Y-75414856D01*
X196189429Y-74689142D02*
X195173429Y-74689142D01*
X194665429Y-74689142D02*
X194738000Y-74761713D01*
X194810571Y-74689142D01*
X194738000Y-74616570D01*
X194665429Y-74689142D01*
X194810571Y-74689142D01*
X196189429Y-73310285D02*
X194665429Y-73310285D01*
X196116857Y-73310285D02*
X196189429Y-73455428D01*
X196189429Y-73745714D01*
X196116857Y-73890856D01*
X196044286Y-73963428D01*
X195899143Y-74035999D01*
X195463714Y-74035999D01*
X195318571Y-73963428D01*
X195246000Y-73890856D01*
X195173429Y-73745714D01*
X195173429Y-73455428D01*
X195246000Y-73310285D01*
X196189429Y-72584571D02*
X195173429Y-72584571D01*
X194665429Y-72584571D02*
X194738000Y-72657142D01*
X194810571Y-72584571D01*
X194738000Y-72511999D01*
X194665429Y-72584571D01*
X194810571Y-72584571D01*
X194665429Y-71568571D02*
X194665429Y-71278285D01*
X194738000Y-71133143D01*
X194883143Y-70988000D01*
X195173429Y-70915428D01*
X195681429Y-70915428D01*
X195971714Y-70988000D01*
X196116857Y-71133143D01*
X196189429Y-71278285D01*
X196189429Y-71568571D01*
X196116857Y-71713714D01*
X195971714Y-71858857D01*
X195681429Y-71931428D01*
X195173429Y-71931428D01*
X194883143Y-71858857D01*
X194738000Y-71713714D01*
X194665429Y-71568571D01*
X194665429Y-70262286D02*
X195899143Y-70262286D01*
X196044286Y-70189714D01*
X196116857Y-70117143D01*
X196189429Y-69972000D01*
X196189429Y-69681714D01*
X196116857Y-69536572D01*
X196044286Y-69464000D01*
X195899143Y-69391429D01*
X194665429Y-69391429D01*
X194665429Y-68883429D02*
X194665429Y-68012572D01*
X196189429Y-68448001D02*
X194665429Y-68448001D01*
X196189429Y-66706286D02*
X196189429Y-67577143D01*
X196189429Y-67141715D02*
X194665429Y-67141715D01*
X194883143Y-67286858D01*
X195028286Y-67432000D01*
X195100857Y-67577143D01*
X195411729Y-33709882D02*
X194395729Y-33709882D01*
X194540871Y-33709882D02*
X194468300Y-33637310D01*
X194395729Y-33492168D01*
X194395729Y-33274453D01*
X194468300Y-33129310D01*
X194613443Y-33056739D01*
X195411729Y-33056739D01*
X194613443Y-33056739D02*
X194468300Y-32984168D01*
X194395729Y-32839025D01*
X194395729Y-32621310D01*
X194468300Y-32476168D01*
X194613443Y-32403596D01*
X195411729Y-32403596D01*
X195411729Y-31677882D02*
X194395729Y-31677882D01*
X193887729Y-31677882D02*
X193960300Y-31750453D01*
X194032871Y-31677882D01*
X193960300Y-31605310D01*
X193887729Y-31677882D01*
X194032871Y-31677882D01*
X195411729Y-30299025D02*
X193887729Y-30299025D01*
X195339157Y-30299025D02*
X195411729Y-30444168D01*
X195411729Y-30734454D01*
X195339157Y-30879596D01*
X195266586Y-30952168D01*
X195121443Y-31024739D01*
X194686014Y-31024739D01*
X194540871Y-30952168D01*
X194468300Y-30879596D01*
X194395729Y-30734454D01*
X194395729Y-30444168D01*
X194468300Y-30299025D01*
X195411729Y-29573311D02*
X194395729Y-29573311D01*
X193887729Y-29573311D02*
X193960300Y-29645882D01*
X194032871Y-29573311D01*
X193960300Y-29500739D01*
X193887729Y-29573311D01*
X194032871Y-29573311D01*
X193887729Y-28557311D02*
X193887729Y-28267025D01*
X193960300Y-28121883D01*
X194105443Y-27976740D01*
X194395729Y-27904168D01*
X194903729Y-27904168D01*
X195194014Y-27976740D01*
X195339157Y-28121883D01*
X195411729Y-28267025D01*
X195411729Y-28557311D01*
X195339157Y-28702454D01*
X195194014Y-28847597D01*
X194903729Y-28920168D01*
X194395729Y-28920168D01*
X194105443Y-28847597D01*
X193960300Y-28702454D01*
X193887729Y-28557311D01*
X193887729Y-27251026D02*
X195121443Y-27251026D01*
X195266586Y-27178454D01*
X195339157Y-27105883D01*
X195411729Y-26960740D01*
X195411729Y-26670454D01*
X195339157Y-26525312D01*
X195266586Y-26452740D01*
X195121443Y-26380169D01*
X193887729Y-26380169D01*
X193887729Y-25872169D02*
X193887729Y-25001312D01*
X195411729Y-25436741D02*
X193887729Y-25436741D01*
X194032871Y-24565883D02*
X193960300Y-24493312D01*
X193887729Y-24348169D01*
X193887729Y-23985312D01*
X193960300Y-23840169D01*
X194032871Y-23767598D01*
X194178014Y-23695026D01*
X194323157Y-23695026D01*
X194540871Y-23767598D01*
X195411729Y-24638455D01*
X195411729Y-23695026D01*
D18*
X172396667Y-100062381D02*
X172396667Y-100776667D01*
X172349047Y-100919524D01*
X172253809Y-101014762D01*
X172110952Y-101062381D01*
X172015714Y-101062381D01*
X173396667Y-101062381D02*
X172825238Y-101062381D01*
X173110952Y-101062381D02*
X173110952Y-100062381D01*
X173015714Y-100205238D01*
X172920476Y-100300476D01*
X172825238Y-100348095D01*
X172166667Y-20452381D02*
X172166667Y-21166667D01*
X172119047Y-21309524D01*
X172023809Y-21404762D01*
X171880952Y-21452381D01*
X171785714Y-21452381D01*
X172595238Y-20547619D02*
X172642857Y-20500000D01*
X172738095Y-20452381D01*
X172976191Y-20452381D01*
X173071429Y-20500000D01*
X173119048Y-20547619D01*
X173166667Y-20642857D01*
X173166667Y-20738095D01*
X173119048Y-20880952D01*
X172547619Y-21452381D01*
X173166667Y-21452381D01*
D13*
X178833334Y-61739381D02*
X178500000Y-61263190D01*
X178261905Y-61739381D02*
X178261905Y-60739381D01*
X178642858Y-60739381D01*
X178738096Y-60787000D01*
X178785715Y-60834619D01*
X178833334Y-60929857D01*
X178833334Y-61072714D01*
X178785715Y-61167952D01*
X178738096Y-61215571D01*
X178642858Y-61263190D01*
X178261905Y-61263190D01*
X179785715Y-61739381D02*
X179214286Y-61739381D01*
X179500000Y-61739381D02*
X179500000Y-60739381D01*
X179404762Y-60882238D01*
X179309524Y-60977476D01*
X179214286Y-61025095D01*
X174261905Y-60834619D02*
X174309524Y-60787000D01*
X174404762Y-60739381D01*
X174642858Y-60739381D01*
X174738096Y-60787000D01*
X174785715Y-60834619D01*
X174833334Y-60929857D01*
X174833334Y-61025095D01*
X174785715Y-61167952D01*
X174214286Y-61739381D01*
X174833334Y-61739381D01*
X175214286Y-60834619D02*
X175261905Y-60787000D01*
X175357143Y-60739381D01*
X175595239Y-60739381D01*
X175690477Y-60787000D01*
X175738096Y-60834619D01*
X175785715Y-60929857D01*
X175785715Y-61025095D01*
X175738096Y-61167952D01*
X175166667Y-61739381D01*
X175785715Y-61739381D01*
X176404762Y-60739381D02*
X176500001Y-60739381D01*
X176595239Y-60787000D01*
X176642858Y-60834619D01*
X176690477Y-60929857D01*
X176738096Y-61120333D01*
X176738096Y-61358429D01*
X176690477Y-61548905D01*
X176642858Y-61644143D01*
X176595239Y-61691762D01*
X176500001Y-61739381D01*
X176404762Y-61739381D01*
X176309524Y-61691762D01*
X176261905Y-61644143D01*
X176214286Y-61548905D01*
X176166667Y-61358429D01*
X176166667Y-61120333D01*
X176214286Y-60929857D01*
X176261905Y-60834619D01*
X176309524Y-60787000D01*
X176404762Y-60739381D01*
X180333334Y-71379381D02*
X180000000Y-70903190D01*
X179761905Y-71379381D02*
X179761905Y-70379381D01*
X180142858Y-70379381D01*
X180238096Y-70427000D01*
X180285715Y-70474619D01*
X180333334Y-70569857D01*
X180333334Y-70712714D01*
X180285715Y-70807952D01*
X180238096Y-70855571D01*
X180142858Y-70903190D01*
X179761905Y-70903190D01*
X180714286Y-70474619D02*
X180761905Y-70427000D01*
X180857143Y-70379381D01*
X181095239Y-70379381D01*
X181190477Y-70427000D01*
X181238096Y-70474619D01*
X181285715Y-70569857D01*
X181285715Y-70665095D01*
X181238096Y-70807952D01*
X180666667Y-71379381D01*
X181285715Y-71379381D01*
X176571429Y-70785714D02*
X176571429Y-71452381D01*
X176333333Y-70404762D02*
X176095238Y-71119048D01*
X176714286Y-71119048D01*
X177095238Y-71357143D02*
X177142857Y-71404762D01*
X177095238Y-71452381D01*
X177047619Y-71404762D01*
X177095238Y-71357143D01*
X177095238Y-71452381D01*
X177476190Y-70452381D02*
X178142857Y-70452381D01*
X177714285Y-71452381D01*
X178523809Y-71452381D02*
X178523809Y-70452381D01*
X178619047Y-71071429D02*
X178904762Y-71452381D01*
X178904762Y-70785714D02*
X178523809Y-71166667D01*
X192333334Y-18869381D02*
X192000000Y-18393190D01*
X191761905Y-18869381D02*
X191761905Y-17869381D01*
X192142858Y-17869381D01*
X192238096Y-17917000D01*
X192285715Y-17964619D01*
X192333334Y-18059857D01*
X192333334Y-18202714D01*
X192285715Y-18297952D01*
X192238096Y-18345571D01*
X192142858Y-18393190D01*
X191761905Y-18393190D01*
X192666667Y-17869381D02*
X193285715Y-17869381D01*
X192952381Y-18250333D01*
X193095239Y-18250333D01*
X193190477Y-18297952D01*
X193238096Y-18345571D01*
X193285715Y-18440810D01*
X193285715Y-18678905D01*
X193238096Y-18774143D01*
X193190477Y-18821762D01*
X193095239Y-18869381D01*
X192809524Y-18869381D01*
X192714286Y-18821762D01*
X192666667Y-18774143D01*
X188761905Y-17964619D02*
X188809524Y-17917000D01*
X188904762Y-17869381D01*
X189142858Y-17869381D01*
X189238096Y-17917000D01*
X189285715Y-17964619D01*
X189333334Y-18059857D01*
X189333334Y-18155095D01*
X189285715Y-18297952D01*
X188714286Y-18869381D01*
X189333334Y-18869381D01*
X189714286Y-17964619D02*
X189761905Y-17917000D01*
X189857143Y-17869381D01*
X190095239Y-17869381D01*
X190190477Y-17917000D01*
X190238096Y-17964619D01*
X190285715Y-18059857D01*
X190285715Y-18155095D01*
X190238096Y-18297952D01*
X189666667Y-18869381D01*
X190285715Y-18869381D01*
X190904762Y-17869381D02*
X191000001Y-17869381D01*
X191095239Y-17917000D01*
X191142858Y-17964619D01*
X191190477Y-18059857D01*
X191238096Y-18250333D01*
X191238096Y-18488429D01*
X191190477Y-18678905D01*
X191142858Y-18774143D01*
X191095239Y-18821762D01*
X191000001Y-18869381D01*
X190904762Y-18869381D01*
X190809524Y-18821762D01*
X190761905Y-18774143D01*
X190714286Y-18678905D01*
X190666667Y-18488429D01*
X190666667Y-18250333D01*
X190714286Y-18059857D01*
X190761905Y-17964619D01*
X190809524Y-17917000D01*
X190904762Y-17869381D01*
X180333334Y-41452381D02*
X180000000Y-40976190D01*
X179761905Y-41452381D02*
X179761905Y-40452381D01*
X180142858Y-40452381D01*
X180238096Y-40500000D01*
X180285715Y-40547619D01*
X180333334Y-40642857D01*
X180333334Y-40785714D01*
X180285715Y-40880952D01*
X180238096Y-40928571D01*
X180142858Y-40976190D01*
X179761905Y-40976190D01*
X181190477Y-40785714D02*
X181190477Y-41452381D01*
X180952381Y-40404762D02*
X180714286Y-41119048D01*
X181333334Y-41119048D01*
X176380953Y-41452381D02*
X175809524Y-41452381D01*
X176095238Y-41452381D02*
X176095238Y-40452381D01*
X176000000Y-40595238D01*
X175904762Y-40690476D01*
X175809524Y-40738095D01*
X176809524Y-41452381D02*
X176809524Y-40452381D01*
X176904762Y-41071429D02*
X177190477Y-41452381D01*
X177190477Y-40785714D02*
X176809524Y-41166667D01*
X180333334Y-85705381D02*
X180000000Y-85229190D01*
X179761905Y-85705381D02*
X179761905Y-84705381D01*
X180142858Y-84705381D01*
X180238096Y-84753000D01*
X180285715Y-84800619D01*
X180333334Y-84895857D01*
X180333334Y-85038714D01*
X180285715Y-85133952D01*
X180238096Y-85181571D01*
X180142858Y-85229190D01*
X179761905Y-85229190D01*
X181238096Y-84705381D02*
X180761905Y-84705381D01*
X180714286Y-85181571D01*
X180761905Y-85133952D01*
X180857143Y-85086333D01*
X181095239Y-85086333D01*
X181190477Y-85133952D01*
X181238096Y-85181571D01*
X181285715Y-85276810D01*
X181285715Y-85514905D01*
X181238096Y-85610143D01*
X181190477Y-85657762D01*
X181095239Y-85705381D01*
X180857143Y-85705381D01*
X180761905Y-85657762D01*
X180714286Y-85610143D01*
X176261905Y-84800619D02*
X176309524Y-84753000D01*
X176404762Y-84705381D01*
X176642858Y-84705381D01*
X176738096Y-84753000D01*
X176785715Y-84800619D01*
X176833334Y-84895857D01*
X176833334Y-84991095D01*
X176785715Y-85133952D01*
X176214286Y-85705381D01*
X176833334Y-85705381D01*
X177214286Y-84800619D02*
X177261905Y-84753000D01*
X177357143Y-84705381D01*
X177595239Y-84705381D01*
X177690477Y-84753000D01*
X177738096Y-84800619D01*
X177785715Y-84895857D01*
X177785715Y-84991095D01*
X177738096Y-85133952D01*
X177166667Y-85705381D01*
X177785715Y-85705381D01*
X178404762Y-84705381D02*
X178500001Y-84705381D01*
X178595239Y-84753000D01*
X178642858Y-84800619D01*
X178690477Y-84895857D01*
X178738096Y-85086333D01*
X178738096Y-85324429D01*
X178690477Y-85514905D01*
X178642858Y-85610143D01*
X178595239Y-85657762D01*
X178500001Y-85705381D01*
X178404762Y-85705381D01*
X178309524Y-85657762D01*
X178261905Y-85610143D01*
X178214286Y-85514905D01*
X178166667Y-85324429D01*
X178166667Y-85086333D01*
X178214286Y-84895857D01*
X178261905Y-84800619D01*
X178309524Y-84753000D01*
X178404762Y-84705381D01*
X176333334Y-67755381D02*
X176000000Y-67279190D01*
X175761905Y-67755381D02*
X175761905Y-66755381D01*
X176142858Y-66755381D01*
X176238096Y-66803000D01*
X176285715Y-66850619D01*
X176333334Y-66945857D01*
X176333334Y-67088714D01*
X176285715Y-67183952D01*
X176238096Y-67231571D01*
X176142858Y-67279190D01*
X175761905Y-67279190D01*
X177190477Y-66755381D02*
X177000000Y-66755381D01*
X176904762Y-66803000D01*
X176857143Y-66850619D01*
X176761905Y-66993476D01*
X176714286Y-67183952D01*
X176714286Y-67564905D01*
X176761905Y-67660143D01*
X176809524Y-67707762D01*
X176904762Y-67755381D01*
X177095239Y-67755381D01*
X177190477Y-67707762D01*
X177238096Y-67660143D01*
X177285715Y-67564905D01*
X177285715Y-67326810D01*
X177238096Y-67231571D01*
X177190477Y-67183952D01*
X177095239Y-67136333D01*
X176904762Y-67136333D01*
X176809524Y-67183952D01*
X176761905Y-67231571D01*
X176714286Y-67326810D01*
X172261905Y-67047619D02*
X172309524Y-67000000D01*
X172404762Y-66952381D01*
X172642858Y-66952381D01*
X172738096Y-67000000D01*
X172785715Y-67047619D01*
X172833334Y-67142857D01*
X172833334Y-67238095D01*
X172785715Y-67380952D01*
X172214286Y-67952381D01*
X172833334Y-67952381D01*
X173214286Y-67047619D02*
X173261905Y-67000000D01*
X173357143Y-66952381D01*
X173595239Y-66952381D01*
X173690477Y-67000000D01*
X173738096Y-67047619D01*
X173785715Y-67142857D01*
X173785715Y-67238095D01*
X173738096Y-67380952D01*
X173166667Y-67952381D01*
X173785715Y-67952381D01*
X174404762Y-66952381D02*
X174500001Y-66952381D01*
X174595239Y-67000000D01*
X174642858Y-67047619D01*
X174690477Y-67142857D01*
X174738096Y-67333333D01*
X174738096Y-67571429D01*
X174690477Y-67761905D01*
X174642858Y-67857143D01*
X174595239Y-67904762D01*
X174500001Y-67952381D01*
X174404762Y-67952381D01*
X174309524Y-67904762D01*
X174261905Y-67857143D01*
X174214286Y-67761905D01*
X174166667Y-67571429D01*
X174166667Y-67333333D01*
X174214286Y-67142857D01*
X174261905Y-67047619D01*
X174309524Y-67000000D01*
X174404762Y-66952381D01*
X179833334Y-65075381D02*
X179500000Y-64599190D01*
X179261905Y-65075381D02*
X179261905Y-64075381D01*
X179642858Y-64075381D01*
X179738096Y-64123000D01*
X179785715Y-64170619D01*
X179833334Y-64265857D01*
X179833334Y-64408714D01*
X179785715Y-64503952D01*
X179738096Y-64551571D01*
X179642858Y-64599190D01*
X179261905Y-64599190D01*
X180166667Y-64075381D02*
X180833334Y-64075381D01*
X180404762Y-65075381D01*
X176071429Y-64408714D02*
X176071429Y-65075381D01*
X175833333Y-64027762D02*
X175595238Y-64742048D01*
X176214286Y-64742048D01*
X176595238Y-64980143D02*
X176642857Y-65027762D01*
X176595238Y-65075381D01*
X176547619Y-65027762D01*
X176595238Y-64980143D01*
X176595238Y-65075381D01*
X176976190Y-64075381D02*
X177642857Y-64075381D01*
X177214285Y-65075381D01*
X178023809Y-65075381D02*
X178023809Y-64075381D01*
X178119047Y-64694429D02*
X178404762Y-65075381D01*
X178404762Y-64408714D02*
X178023809Y-64789667D01*
X179833334Y-55355381D02*
X179500000Y-54879190D01*
X179261905Y-55355381D02*
X179261905Y-54355381D01*
X179642858Y-54355381D01*
X179738096Y-54403000D01*
X179785715Y-54450619D01*
X179833334Y-54545857D01*
X179833334Y-54688714D01*
X179785715Y-54783952D01*
X179738096Y-54831571D01*
X179642858Y-54879190D01*
X179261905Y-54879190D01*
X180404762Y-54783952D02*
X180309524Y-54736333D01*
X180261905Y-54688714D01*
X180214286Y-54593476D01*
X180214286Y-54545857D01*
X180261905Y-54450619D01*
X180309524Y-54403000D01*
X180404762Y-54355381D01*
X180595239Y-54355381D01*
X180690477Y-54403000D01*
X180738096Y-54450619D01*
X180785715Y-54545857D01*
X180785715Y-54593476D01*
X180738096Y-54688714D01*
X180690477Y-54736333D01*
X180595239Y-54783952D01*
X180404762Y-54783952D01*
X180309524Y-54831571D01*
X180261905Y-54879190D01*
X180214286Y-54974429D01*
X180214286Y-55164905D01*
X180261905Y-55260143D01*
X180309524Y-55307762D01*
X180404762Y-55355381D01*
X180595239Y-55355381D01*
X180690477Y-55307762D01*
X180738096Y-55260143D01*
X180785715Y-55164905D01*
X180785715Y-54974429D01*
X180738096Y-54879190D01*
X180690477Y-54831571D01*
X180595239Y-54783952D01*
X175761905Y-54450619D02*
X175809524Y-54403000D01*
X175904762Y-54355381D01*
X176142858Y-54355381D01*
X176238096Y-54403000D01*
X176285715Y-54450619D01*
X176333334Y-54545857D01*
X176333334Y-54641095D01*
X176285715Y-54783952D01*
X175714286Y-55355381D01*
X176333334Y-55355381D01*
X176714286Y-54450619D02*
X176761905Y-54403000D01*
X176857143Y-54355381D01*
X177095239Y-54355381D01*
X177190477Y-54403000D01*
X177238096Y-54450619D01*
X177285715Y-54545857D01*
X177285715Y-54641095D01*
X177238096Y-54783952D01*
X176666667Y-55355381D01*
X177285715Y-55355381D01*
X177904762Y-54355381D02*
X178000001Y-54355381D01*
X178095239Y-54403000D01*
X178142858Y-54450619D01*
X178190477Y-54545857D01*
X178238096Y-54736333D01*
X178238096Y-54974429D01*
X178190477Y-55164905D01*
X178142858Y-55260143D01*
X178095239Y-55307762D01*
X178000001Y-55355381D01*
X177904762Y-55355381D01*
X177809524Y-55307762D01*
X177761905Y-55260143D01*
X177714286Y-55164905D01*
X177666667Y-54974429D01*
X177666667Y-54736333D01*
X177714286Y-54545857D01*
X177761905Y-54450619D01*
X177809524Y-54403000D01*
X177904762Y-54355381D01*
X171333334Y-38035381D02*
X171000000Y-37559190D01*
X170761905Y-38035381D02*
X170761905Y-37035381D01*
X171142858Y-37035381D01*
X171238096Y-37083000D01*
X171285715Y-37130619D01*
X171333334Y-37225857D01*
X171333334Y-37368714D01*
X171285715Y-37463952D01*
X171238096Y-37511571D01*
X171142858Y-37559190D01*
X170761905Y-37559190D01*
X171809524Y-38035381D02*
X172000000Y-38035381D01*
X172095239Y-37987762D01*
X172142858Y-37940143D01*
X172238096Y-37797286D01*
X172285715Y-37606810D01*
X172285715Y-37225857D01*
X172238096Y-37130619D01*
X172190477Y-37083000D01*
X172095239Y-37035381D01*
X171904762Y-37035381D01*
X171809524Y-37083000D01*
X171761905Y-37130619D01*
X171714286Y-37225857D01*
X171714286Y-37463952D01*
X171761905Y-37559190D01*
X171809524Y-37606810D01*
X171904762Y-37654429D01*
X172095239Y-37654429D01*
X172190477Y-37606810D01*
X172238096Y-37559190D01*
X172285715Y-37463952D01*
X168880953Y-37952381D02*
X168309524Y-37952381D01*
X168595238Y-37952381D02*
X168595238Y-36952381D01*
X168500000Y-37095238D01*
X168404762Y-37190476D01*
X168309524Y-37238095D01*
X169309524Y-37952381D02*
X169309524Y-36952381D01*
X169404762Y-37571429D02*
X169690477Y-37952381D01*
X169690477Y-37285714D02*
X169309524Y-37666667D01*
X179357143Y-34175381D02*
X179023809Y-33699190D01*
X178785714Y-34175381D02*
X178785714Y-33175381D01*
X179166667Y-33175381D01*
X179261905Y-33223000D01*
X179309524Y-33270619D01*
X179357143Y-33365857D01*
X179357143Y-33508714D01*
X179309524Y-33603952D01*
X179261905Y-33651571D01*
X179166667Y-33699190D01*
X178785714Y-33699190D01*
X180309524Y-34175381D02*
X179738095Y-34175381D01*
X180023809Y-34175381D02*
X180023809Y-33175381D01*
X179928571Y-33318238D01*
X179833333Y-33413476D01*
X179738095Y-33461095D01*
X180928571Y-33175381D02*
X181023810Y-33175381D01*
X181119048Y-33223000D01*
X181166667Y-33270619D01*
X181214286Y-33365857D01*
X181261905Y-33556333D01*
X181261905Y-33794429D01*
X181214286Y-33984905D01*
X181166667Y-34080143D01*
X181119048Y-34127762D01*
X181023810Y-34175381D01*
X180928571Y-34175381D01*
X180833333Y-34127762D01*
X180785714Y-34080143D01*
X180738095Y-33984905D01*
X180690476Y-33794429D01*
X180690476Y-33556333D01*
X180738095Y-33365857D01*
X180785714Y-33270619D01*
X180833333Y-33223000D01*
X180928571Y-33175381D01*
X175761905Y-33270619D02*
X175809524Y-33223000D01*
X175904762Y-33175381D01*
X176142858Y-33175381D01*
X176238096Y-33223000D01*
X176285715Y-33270619D01*
X176333334Y-33365857D01*
X176333334Y-33461095D01*
X176285715Y-33603952D01*
X175714286Y-34175381D01*
X176333334Y-34175381D01*
X176714286Y-33270619D02*
X176761905Y-33223000D01*
X176857143Y-33175381D01*
X177095239Y-33175381D01*
X177190477Y-33223000D01*
X177238096Y-33270619D01*
X177285715Y-33365857D01*
X177285715Y-33461095D01*
X177238096Y-33603952D01*
X176666667Y-34175381D01*
X177285715Y-34175381D01*
X177904762Y-33175381D02*
X178000001Y-33175381D01*
X178095239Y-33223000D01*
X178142858Y-33270619D01*
X178190477Y-33365857D01*
X178238096Y-33556333D01*
X178238096Y-33794429D01*
X178190477Y-33984905D01*
X178142858Y-34080143D01*
X178095239Y-34127762D01*
X178000001Y-34175381D01*
X177904762Y-34175381D01*
X177809524Y-34127762D01*
X177761905Y-34080143D01*
X177714286Y-33984905D01*
X177666667Y-33794429D01*
X177666667Y-33556333D01*
X177714286Y-33365857D01*
X177761905Y-33270619D01*
X177809524Y-33223000D01*
X177904762Y-33175381D01*
M02*
