M48
;DRILL file {KiCad 4.0.2-stable} date 18/08/2016 01:32:29
;FORMAT={-:-/ absolute / metric / decimal}
FMAT,2
METRIC,TZ
T1C0.701
T2C0.762
T3C0.800
T4C0.800
T5C0.813
T6C0.998
T7C1.000
T8C1.001
T9C1.016
T10C1.199
T11C1.397
T12C3.200
%
G90
G05
M71
T1
X111.001Y-84.997
X121.161Y-84.997
T2
X120.714Y-52.
X123.Y-52.
X125.286Y-52.
T3
X78.5Y-56.5
X81.5Y-45.
X85.Y-36.
X85.Y-36.
X85.Y-60.
X102.5Y-36.
X108.5Y-32.38
X108.5Y-34.92
X108.5Y-37.46
X108.5Y-40.
X108.5Y-42.54
X108.5Y-45.08
X108.5Y-47.62
X108.5Y-50.16
X108.5Y-52.7
X108.5Y-55.24
X116.12Y-32.38
X116.12Y-34.92
X116.12Y-37.46
X116.12Y-40.
X116.12Y-42.54
X116.12Y-45.08
X116.12Y-47.62
X116.12Y-50.16
X116.12Y-52.7
X116.12Y-55.24
X121.5Y-35.
X126.Y-56.5
X126.Y-59.04
X126.Y-61.58
X126.Y-64.12
X126.Y-66.66
X126.Y-69.2
X126.Y-71.74
X126.Y-74.28
X132.Y-52.
X133.62Y-56.5
X133.62Y-59.04
X133.62Y-61.58
X133.62Y-64.12
X133.62Y-66.66
X133.62Y-69.2
X133.62Y-71.74
X133.62Y-74.28
X162.98Y-72.65
X163.02Y-33.66
X164.29Y-70.64
X164.6Y-87.985
X169.06Y-33.795
X170.251Y-88.242
X170.7Y-72.503
X171.861Y-70.712
X172.17Y-44.15
X172.17Y-51.77
X172.25Y-74.67
X172.25Y-82.29
X174.71Y-44.15
X174.71Y-51.77
X174.79Y-74.67
X174.79Y-82.29
X177.25Y-44.15
X177.25Y-51.77
X177.33Y-74.67
X177.33Y-82.29
X179.79Y-44.15
X179.79Y-51.77
X179.87Y-74.67
X179.87Y-82.29
X183.63Y-60.24
X185.25Y-39.47
X186.24Y-82.07
X194.18Y-39.5
X195.903Y-81.987
X197.65Y-60.74
T4
X119.5Y-68.5
X119.5Y-71.04
X119.5Y-73.58
X119.5Y-76.12
X119.5Y-78.66
X121.5Y-32.5
X129.5Y-52.
T5
X166.66Y-37.71
X170.84Y-67.43
X172.82Y-61.16
X174.28Y-37.71
X174.39Y-64.75
X174.4Y-33.85
X174.58Y-58.07
X174.64Y-41.03
X174.86Y-55.03
X174.86Y-70.8
X174.91Y-88.19
X174.96Y-85.38
X178.46Y-67.43
X180.44Y-61.16
X182.01Y-64.75
X182.02Y-33.85
X182.2Y-58.07
X182.26Y-41.03
X182.48Y-55.03
X182.48Y-70.8
X182.53Y-88.19
X182.58Y-85.38
X187.04Y-18.29
X194.66Y-18.29
T6
X42.5Y-29.83
X42.5Y-80.63
X45.04Y-29.83
X45.04Y-80.63
X47.58Y-29.83
X47.58Y-80.63
X50.12Y-29.83
X50.12Y-80.63
X52.66Y-29.83
X52.66Y-80.63
X55.2Y-29.83
X55.2Y-80.63
X57.74Y-29.83
X57.74Y-80.63
X60.28Y-29.83
X60.28Y-80.63
X62.82Y-29.83
X62.82Y-80.63
X65.36Y-29.83
X65.36Y-80.63
X67.9Y-29.83
X67.9Y-80.63
X70.44Y-29.83
X70.44Y-80.63
X72.98Y-29.83
X72.98Y-80.63
X75.52Y-29.83
X75.52Y-80.63
X78.06Y-29.83
X78.06Y-80.63
X80.6Y-29.83
X80.6Y-80.63
X83.14Y-29.83
X83.14Y-80.63
X85.68Y-29.83
X85.68Y-80.63
X88.22Y-29.83
X88.22Y-80.63
X90.76Y-29.83
X90.76Y-80.63
X93.3Y-29.83
X93.3Y-80.63
X95.84Y-29.83
X95.84Y-80.63
X98.38Y-29.83
X98.38Y-80.63
X100.92Y-29.83
X100.92Y-80.63
T7
X53.38Y-93.96
X53.38Y-96.5
X55.34Y-16.96
X55.34Y-19.5
X55.92Y-93.96
X55.92Y-96.5
X56.712Y-45.7
X57.407Y-56.139
X57.88Y-16.96
X57.88Y-19.5
X58.46Y-93.96
X58.46Y-96.5
X58.512Y-45.7
X58.695Y-49.893
X59.204Y-56.036
X60.277Y-51.515
X60.42Y-16.96
X60.42Y-19.5
X60.976Y-45.498
X60.993Y-55.5
X60.994Y-55.5
X61.Y-93.96
X61.Y-96.5
X62.477Y-73.824
X62.68Y-71.424
X62.944Y-55.5
X62.96Y-16.96
X62.96Y-19.5
X63.197Y-69.7
X63.304Y-47.491
X63.54Y-93.96
X63.54Y-96.5
X65.087Y-47.243
X65.164Y-76.709
X65.387Y-55.8
X65.5Y-16.96
X65.5Y-19.5
X66.42Y-57.397
X66.878Y-47.423
X66.879Y-76.162
X67.002Y-70.516
X68.271Y-46.283
X68.663Y-51.714
X68.761Y-68.802
X70.463Y-51.712
X70.553Y-57.558
X71.161Y-69.091
X71.264Y-47.268
X72.257Y-52.068
X72.324Y-57.241
X72.7Y-70.025
X73.622Y-44.291
X74.139Y-57.467
X76.34Y-93.96
X76.34Y-96.5
X76.551Y-56.35
X77.34Y-17.
X77.34Y-19.54
X78.88Y-93.96
X78.88Y-96.5
X79.88Y-17.
X79.88Y-19.54
X81.42Y-93.96
X81.42Y-96.5
X81.7Y-22.
X82.42Y-17.
X82.42Y-19.54
X82.521Y-27.6
X83.96Y-93.96
X83.96Y-96.5
X83.998Y-21.999
X84.321Y-27.6
X84.96Y-17.
X84.96Y-19.54
X85.61Y-22.8
X86.121Y-27.6
X86.5Y-93.96
X86.5Y-96.5
X87.5Y-17.
X87.5Y-19.54
X96.Y-87.5
X96.746Y-51.123
X97.Y-91.
X97.955Y-54.854
X98.5Y-78.
X99.097Y-61.921
X99.34Y-93.96
X99.34Y-96.5
X99.5Y-16.96
X99.5Y-19.5
X99.728Y-48.935
X100.869Y-61.6
X101.504Y-49.227
X101.88Y-93.96
X101.88Y-96.5
X102.04Y-16.96
X102.04Y-19.5
X103.Y-91.
X104.198Y-88.774
X104.42Y-93.96
X104.42Y-96.5
X104.58Y-16.96
X104.58Y-19.5
X106.96Y-93.96
X106.96Y-96.5
X107.12Y-16.96
X107.12Y-19.5
X109.5Y-93.96
X109.5Y-96.5
X109.66Y-16.96
X109.66Y-19.5
X112.194Y-76.88
X112.199Y-78.685
X113.369Y-67.02
X113.812Y-68.765
X113.816Y-72.19
X114.369Y-70.477
X115.353Y-73.126
X115.413Y-78.779
X115.499Y-64.3
X116.1Y-62.603
X117.102Y-73.551
X121.84Y-93.96
X121.84Y-96.5
X121.96Y-17.
X121.96Y-19.54
X123.435Y-54.912
X124.38Y-93.96
X124.38Y-96.5
X124.5Y-17.
X124.5Y-19.54
X126.92Y-93.96
X126.92Y-96.5
X127.04Y-17.
X127.04Y-19.54
X128.5Y-72.
X129.46Y-93.96
X129.46Y-96.5
X129.58Y-17.
X129.58Y-19.54
X132.Y-93.96
X132.Y-96.5
X132.12Y-17.
X132.12Y-19.54
X136.812Y-52.017
X138.019Y-76.981
X138.672Y-64.626
X141.46Y-28.84
X141.46Y-31.38
X141.46Y-33.92
X141.46Y-36.46
X141.46Y-39.
X141.46Y-65.92
X141.46Y-68.46
X141.46Y-71.
X141.46Y-73.54
X141.46Y-76.08
X141.46Y-78.62
X141.46Y-81.16
X141.46Y-83.7
X144.Y-28.84
X144.Y-31.38
X144.Y-33.92
X144.Y-36.46
X144.Y-39.
X144.Y-65.92
X144.Y-68.46
X144.Y-71.
X144.Y-73.54
X144.Y-76.08
X144.Y-78.62
X144.Y-81.16
X144.Y-83.7
X151.46Y-28.84
X151.46Y-31.38
X151.46Y-33.92
X151.46Y-36.46
X151.46Y-39.
X151.46Y-66.
X151.46Y-68.54
X151.46Y-71.08
X151.46Y-73.62
X151.46Y-76.16
X151.46Y-78.7
X151.46Y-81.24
X151.46Y-83.78
X154.Y-28.84
X154.Y-31.38
X154.Y-33.92
X154.Y-36.46
X154.Y-39.
X154.Y-66.
X154.Y-68.54
X154.Y-71.08
X154.Y-73.62
X154.Y-76.16
X154.Y-78.7
X154.Y-81.24
X154.Y-83.78
X167.29Y-25.62
X167.29Y-28.16
X167.65Y-93.64
X167.65Y-96.18
X169.83Y-25.62
X169.83Y-28.16
X170.19Y-93.64
X170.19Y-96.18
X172.37Y-25.62
X172.37Y-28.16
X172.73Y-93.64
X172.73Y-96.18
X174.91Y-25.62
X174.91Y-28.16
X175.27Y-93.64
X175.27Y-96.18
X177.45Y-25.62
X177.45Y-28.16
X177.81Y-93.64
X177.81Y-96.18
T8
X42.5Y-32.37
X42.5Y-83.17
X45.04Y-32.37
X45.04Y-83.17
X47.58Y-32.37
X47.58Y-83.17
X50.12Y-32.37
X50.12Y-83.17
X52.66Y-32.37
X52.66Y-83.17
X55.2Y-32.37
X55.2Y-83.17
X57.74Y-32.37
X57.74Y-83.17
X60.28Y-32.37
X60.28Y-83.17
X62.82Y-32.37
X62.82Y-83.17
X65.36Y-32.37
X65.36Y-83.17
X67.9Y-32.37
X67.9Y-83.17
X70.44Y-32.37
X70.44Y-83.17
X72.98Y-32.37
X72.98Y-83.17
X75.52Y-32.37
X75.52Y-83.17
X78.06Y-32.37
X78.06Y-83.17
X80.6Y-32.37
X80.6Y-83.17
X83.14Y-32.37
X83.14Y-83.17
X85.68Y-32.37
X85.68Y-83.17
X88.22Y-32.37
X88.22Y-83.17
X90.76Y-32.37
X90.76Y-83.17
X93.3Y-32.37
X93.3Y-83.17
X95.84Y-32.37
X95.84Y-83.17
X98.38Y-32.37
X98.38Y-83.17
X100.92Y-32.37
X100.92Y-83.17
X103.46Y-29.83
X103.46Y-32.37
X103.46Y-80.63
X103.46Y-83.17
T9
X77.Y-86.5
X79.Y-89.
X88.43Y-86.5
X90.43Y-89.
X110.07Y-81.5
X114.785Y-88.
X121.5Y-81.5
X123.785Y-48.5
X126.215Y-88.
X126.285Y-45.5
X128.285Y-88.
X135.215Y-48.5
X137.715Y-45.5
X139.715Y-88.
X139.96Y-91.5
X140.46Y-96.
X141.5Y-16.
X141.96Y-20.5
X142.5Y-91.5
X143.Y-96.
X144.04Y-16.
X144.5Y-20.5
X145.04Y-91.5
T10
X140.001Y-50.001
X142.5Y-55.
X144.999Y-50.001
X150.001Y-50.001
X152.5Y-55.
X154.999Y-50.001
T11
X188.223Y-23.493
X188.223Y-33.485
X188.226Y-66.451
X188.226Y-76.443
X188.226Y-88.151
X188.226Y-98.143
X188.233Y-44.893
X188.233Y-54.885
X190.723Y-28.489
X190.725Y-71.447
X190.725Y-93.147
X190.725Y-20.991
X190.725Y-35.987
X190.728Y-63.949
X190.728Y-78.945
X190.728Y-85.649
X190.728Y-100.645
X190.733Y-49.889
X190.735Y-42.391
X190.735Y-57.387
T12
X44.Y-17.
X44.Y-96.
X154.Y-17.
X154.Y-96.
X164.Y-17.
X164.5Y-106.
X199.Y-16.5
X199.Y-106.5
T0
M30
