G04 #@! TF.GenerationSoftware,KiCad,Pcbnew,(7.0.0)*
G04 #@! TF.CreationDate,2023-05-19T01:57:06+02:00*
G04 #@! TF.ProjectId,Pad,5061642e-6b69-4636-9164-5f7063625858,rev?*
G04 #@! TF.SameCoordinates,Original*
G04 #@! TF.FileFunction,Profile,NP*
%FSLAX46Y46*%
G04 Gerber Fmt 4.6, Leading zero omitted, Abs format (unit mm)*
G04 Created by KiCad (PCBNEW (7.0.0)) date 2023-05-19 01:57:06*
%MOMM*%
%LPD*%
G01*
G04 APERTURE LIST*
G04 #@! TA.AperFunction,Profile*
%ADD10C,0.100000*%
G04 #@! TD*
G04 APERTURE END LIST*
D10*
X100166666Y-274494783D02*
G75*
G03*
X100166666Y-274494783I-1666666J0D01*
G01*
X96000000Y-274494783D02*
X101000000Y-274494783D01*
X98500000Y-271994783D02*
X98500000Y-276994783D01*
X125166666Y-274500000D02*
G75*
G03*
X125166666Y-274500000I-1666666J0D01*
G01*
X121000000Y-274500000D02*
X126000000Y-274500000D01*
X123500000Y-272000000D02*
X123500000Y-277000000D01*
X75166666Y-274500000D02*
G75*
G03*
X75166666Y-274500000I-1666666J0D01*
G01*
X71000000Y-274500000D02*
X76000000Y-274500000D01*
X73500000Y-272000000D02*
X73500000Y-277000000D01*
X150166666Y-274500000D02*
G75*
G03*
X150166666Y-274500000I-1666666J0D01*
G01*
X146000000Y-274500000D02*
X151000000Y-274500000D01*
X148500000Y-272000000D02*
X148500000Y-277000000D01*
X125166666Y-249500000D02*
G75*
G03*
X125166666Y-249500000I-1666666J0D01*
G01*
X121000000Y-249500000D02*
X126000000Y-249500000D01*
X123500000Y-247000000D02*
X123500000Y-252000000D01*
X100166666Y-249500000D02*
G75*
G03*
X100166666Y-249500000I-1666666J0D01*
G01*
X96000000Y-249500000D02*
X101000000Y-249500000D01*
X98500000Y-247000000D02*
X98500000Y-252000000D01*
X150166666Y-249500000D02*
G75*
G03*
X150166666Y-249500000I-1666666J0D01*
G01*
X146000000Y-249500000D02*
X151000000Y-249500000D01*
X148500000Y-247000000D02*
X148500000Y-252000000D01*
X75180262Y-249491413D02*
G75*
G03*
X75180262Y-249491413I-1666666J0D01*
G01*
X71013596Y-249491413D02*
X76013596Y-249491413D01*
X73513596Y-246991413D02*
X73513596Y-251991413D01*
X161000000Y-287000000D02*
X61000000Y-287000000D01*
X61000000Y-187000000D01*
X161000000Y-187000000D01*
X161000000Y-287000000D01*
M02*
