G04 #@! TF.FileFunction,Legend,Top*
%FSLAX46Y46*%
G04 Gerber Fmt 4.6, Leading zero omitted, Abs format (unit mm)*
G04 Created by KiCad (PCBNEW 4.0.2-stable) date 17/08/2016 20:10:52*
%MOMM*%
G01*
G04 APERTURE LIST*
%ADD10C,0.100000*%
%ADD11C,0.300000*%
%ADD12C,0.150000*%
%ADD13C,0.381000*%
%ADD14C,0.317500*%
%ADD15C,0.304800*%
%ADD16C,0.299720*%
%ADD17C,0.203200*%
G04 APERTURE END LIST*
D10*
D11*
X51750002Y-62478571D02*
X51750002Y-60978571D01*
X52250002Y-62050000D01*
X52750002Y-60978571D01*
X52750002Y-62478571D01*
X53964288Y-61692857D02*
X54178574Y-61764286D01*
X54250002Y-61835714D01*
X54321431Y-61978571D01*
X54321431Y-62192857D01*
X54250002Y-62335714D01*
X54178574Y-62407143D01*
X54035716Y-62478571D01*
X53464288Y-62478571D01*
X53464288Y-60978571D01*
X53964288Y-60978571D01*
X54107145Y-61050000D01*
X54178574Y-61121429D01*
X54250002Y-61264286D01*
X54250002Y-61407143D01*
X54178574Y-61550000D01*
X54107145Y-61621429D01*
X53964288Y-61692857D01*
X53464288Y-61692857D01*
X54964288Y-62478571D02*
X54964288Y-60978571D01*
X54964288Y-61692857D02*
X55821431Y-61692857D01*
X55821431Y-62478571D02*
X55821431Y-60978571D01*
X56535717Y-62478571D02*
X56535717Y-60978571D01*
X57107145Y-60978571D01*
X57250003Y-61050000D01*
X57321431Y-61121429D01*
X57392860Y-61264286D01*
X57392860Y-61478571D01*
X57321431Y-61621429D01*
X57250003Y-61692857D01*
X57107145Y-61764286D01*
X56535717Y-61764286D01*
X57678574Y-62621429D02*
X58821431Y-62621429D01*
X60035717Y-62335714D02*
X59964288Y-62407143D01*
X59750002Y-62478571D01*
X59607145Y-62478571D01*
X59392860Y-62407143D01*
X59250002Y-62264286D01*
X59178574Y-62121429D01*
X59107145Y-61835714D01*
X59107145Y-61621429D01*
X59178574Y-61335714D01*
X59250002Y-61192857D01*
X59392860Y-61050000D01*
X59607145Y-60978571D01*
X59750002Y-60978571D01*
X59964288Y-61050000D01*
X60035717Y-61121429D01*
X60892860Y-62478571D02*
X60750002Y-62407143D01*
X60678574Y-62335714D01*
X60607145Y-62192857D01*
X60607145Y-61764286D01*
X60678574Y-61621429D01*
X60750002Y-61550000D01*
X60892860Y-61478571D01*
X61107145Y-61478571D01*
X61250002Y-61550000D01*
X61321431Y-61621429D01*
X61392860Y-61764286D01*
X61392860Y-62192857D01*
X61321431Y-62335714D01*
X61250002Y-62407143D01*
X61107145Y-62478571D01*
X60892860Y-62478571D01*
X62035717Y-62478571D02*
X62035717Y-61478571D01*
X62035717Y-61764286D02*
X62107145Y-61621429D01*
X62178574Y-61550000D01*
X62321431Y-61478571D01*
X62464288Y-61478571D01*
X63535716Y-62407143D02*
X63392859Y-62478571D01*
X63107145Y-62478571D01*
X62964288Y-62407143D01*
X62892859Y-62264286D01*
X62892859Y-61692857D01*
X62964288Y-61550000D01*
X63107145Y-61478571D01*
X63392859Y-61478571D01*
X63535716Y-61550000D01*
X63607145Y-61692857D01*
X63607145Y-61835714D01*
X62892859Y-61978571D01*
X63892859Y-62621429D02*
X65035716Y-62621429D01*
X65321430Y-62407143D02*
X65535716Y-62478571D01*
X65892859Y-62478571D01*
X66035716Y-62407143D01*
X66107145Y-62335714D01*
X66178573Y-62192857D01*
X66178573Y-62050000D01*
X66107145Y-61907143D01*
X66035716Y-61835714D01*
X65892859Y-61764286D01*
X65607145Y-61692857D01*
X65464287Y-61621429D01*
X65392859Y-61550000D01*
X65321430Y-61407143D01*
X65321430Y-61264286D01*
X65392859Y-61121429D01*
X65464287Y-61050000D01*
X65607145Y-60978571D01*
X65964287Y-60978571D01*
X66178573Y-61050000D01*
X66607144Y-60978571D02*
X67464287Y-60978571D01*
X67035716Y-62478571D02*
X67035716Y-60978571D01*
X67964287Y-62478571D02*
X67964287Y-60978571D01*
X68464287Y-62050000D01*
X68964287Y-60978571D01*
X68964287Y-62478571D01*
X69535716Y-60978571D02*
X70464287Y-60978571D01*
X69964287Y-61550000D01*
X70178573Y-61550000D01*
X70321430Y-61621429D01*
X70392859Y-61692857D01*
X70464287Y-61835714D01*
X70464287Y-62192857D01*
X70392859Y-62335714D01*
X70321430Y-62407143D01*
X70178573Y-62478571D01*
X69750001Y-62478571D01*
X69607144Y-62407143D01*
X69535716Y-62335714D01*
X71035715Y-61121429D02*
X71107144Y-61050000D01*
X71250001Y-60978571D01*
X71607144Y-60978571D01*
X71750001Y-61050000D01*
X71821430Y-61121429D01*
X71892858Y-61264286D01*
X71892858Y-61407143D01*
X71821430Y-61621429D01*
X70964287Y-62478571D01*
X71892858Y-62478571D01*
X73035715Y-61692857D02*
X72535715Y-61692857D01*
X72535715Y-62478571D02*
X72535715Y-60978571D01*
X73250001Y-60978571D01*
X74464286Y-61478571D02*
X74464286Y-62478571D01*
X74107143Y-60907143D02*
X73750000Y-61978571D01*
X74678572Y-61978571D01*
X76392857Y-62478571D02*
X76392857Y-60978571D01*
X77250000Y-62478571D02*
X76607143Y-61621429D01*
X77250000Y-60978571D02*
X76392857Y-61835714D01*
X77821428Y-62407143D02*
X77964285Y-62478571D01*
X78250000Y-62478571D01*
X78392857Y-62407143D01*
X78464285Y-62264286D01*
X78464285Y-62192857D01*
X78392857Y-62050000D01*
X78250000Y-61978571D01*
X78035714Y-61978571D01*
X77892857Y-61907143D01*
X77821428Y-61764286D01*
X77821428Y-61692857D01*
X77892857Y-61550000D01*
X78035714Y-61478571D01*
X78250000Y-61478571D01*
X78392857Y-61550000D01*
X78750000Y-62621429D02*
X79892857Y-62621429D01*
X80035714Y-60978571D02*
X80535714Y-62478571D01*
X81035714Y-60978571D01*
X82321428Y-62478571D02*
X81464285Y-62478571D01*
X81892857Y-62478571D02*
X81892857Y-60978571D01*
X81750000Y-61192857D01*
X81607142Y-61335714D01*
X81464285Y-61407143D01*
X60964285Y-64878571D02*
X60964285Y-63378571D01*
X61464285Y-64450000D01*
X61964285Y-63378571D01*
X61964285Y-64878571D01*
X62678571Y-64878571D02*
X62678571Y-63878571D01*
X62678571Y-63378571D02*
X62607142Y-63450000D01*
X62678571Y-63521429D01*
X62749999Y-63450000D01*
X62678571Y-63378571D01*
X62678571Y-63521429D01*
X64035714Y-64878571D02*
X64035714Y-63378571D01*
X64035714Y-64807143D02*
X63892857Y-64878571D01*
X63607143Y-64878571D01*
X63464285Y-64807143D01*
X63392857Y-64735714D01*
X63321428Y-64592857D01*
X63321428Y-64164286D01*
X63392857Y-64021429D01*
X63464285Y-63950000D01*
X63607143Y-63878571D01*
X63892857Y-63878571D01*
X64035714Y-63950000D01*
X64750000Y-64878571D02*
X64750000Y-63878571D01*
X64750000Y-63378571D02*
X64678571Y-63450000D01*
X64750000Y-63521429D01*
X64821428Y-63450000D01*
X64750000Y-63378571D01*
X64750000Y-63521429D01*
X65464286Y-64878571D02*
X65464286Y-63378571D01*
X65464286Y-63950000D02*
X65607143Y-63878571D01*
X65892857Y-63878571D01*
X66035714Y-63950000D01*
X66107143Y-64021429D01*
X66178572Y-64164286D01*
X66178572Y-64592857D01*
X66107143Y-64735714D01*
X66035714Y-64807143D01*
X65892857Y-64878571D01*
X65607143Y-64878571D01*
X65464286Y-64807143D01*
X67035715Y-64878571D02*
X66892857Y-64807143D01*
X66821429Y-64735714D01*
X66750000Y-64592857D01*
X66750000Y-64164286D01*
X66821429Y-64021429D01*
X66892857Y-63950000D01*
X67035715Y-63878571D01*
X67250000Y-63878571D01*
X67392857Y-63950000D01*
X67464286Y-64021429D01*
X67535715Y-64164286D01*
X67535715Y-64592857D01*
X67464286Y-64735714D01*
X67392857Y-64807143D01*
X67250000Y-64878571D01*
X67035715Y-64878571D01*
X68035715Y-64878571D02*
X68821429Y-63878571D01*
X68035715Y-63878571D02*
X68821429Y-64878571D01*
X69392858Y-64735714D02*
X69464286Y-64807143D01*
X69392858Y-64878571D01*
X69321429Y-64807143D01*
X69392858Y-64735714D01*
X69392858Y-64878571D01*
X70321430Y-64878571D02*
X70178572Y-64807143D01*
X70107144Y-64735714D01*
X70035715Y-64592857D01*
X70035715Y-64164286D01*
X70107144Y-64021429D01*
X70178572Y-63950000D01*
X70321430Y-63878571D01*
X70535715Y-63878571D01*
X70678572Y-63950000D01*
X70750001Y-64021429D01*
X70821430Y-64164286D01*
X70821430Y-64592857D01*
X70750001Y-64735714D01*
X70678572Y-64807143D01*
X70535715Y-64878571D01*
X70321430Y-64878571D01*
X71464287Y-64878571D02*
X71464287Y-63878571D01*
X71464287Y-64164286D02*
X71535715Y-64021429D01*
X71607144Y-63950000D01*
X71750001Y-63878571D01*
X71892858Y-63878571D01*
X73035715Y-63878571D02*
X73035715Y-65092857D01*
X72964286Y-65235714D01*
X72892858Y-65307143D01*
X72750001Y-65378571D01*
X72535715Y-65378571D01*
X72392858Y-65307143D01*
X73035715Y-64807143D02*
X72892858Y-64878571D01*
X72607144Y-64878571D01*
X72464286Y-64807143D01*
X72392858Y-64735714D01*
X72321429Y-64592857D01*
X72321429Y-64164286D01*
X72392858Y-64021429D01*
X72464286Y-63950000D01*
X72607144Y-63878571D01*
X72892858Y-63878571D01*
X73035715Y-63950000D01*
D12*
X111040000Y-30094000D02*
G75*
G03X113580000Y-30094000I1270000J0D01*
G01*
X108635000Y-30085000D02*
X108635000Y-31355000D01*
X115985000Y-30085000D02*
X115985000Y-31355000D01*
X115985000Y-57535000D02*
X115985000Y-56265000D01*
X108635000Y-57535000D02*
X108635000Y-56265000D01*
X108635000Y-30085000D02*
X115985000Y-30085000D01*
X108635000Y-57535000D02*
X115985000Y-57535000D01*
X108635000Y-31355000D02*
X107700000Y-31355000D01*
X131460000Y-82786000D02*
G75*
G03X128920000Y-82786000I-1270000J0D01*
G01*
X133865000Y-82795000D02*
X133865000Y-81525000D01*
X126515000Y-82795000D02*
X126515000Y-81525000D01*
X126515000Y-60425000D02*
X126515000Y-61695000D01*
X133865000Y-60425000D02*
X133865000Y-61695000D01*
X133865000Y-82795000D02*
X126515000Y-82795000D01*
X133865000Y-60425000D02*
X126515000Y-60425000D01*
X133865000Y-81525000D02*
X134800000Y-81525000D01*
D13*
X41230000Y-79360000D02*
X104730000Y-79360000D01*
X104730000Y-79360000D02*
X104730000Y-84440000D01*
X41230000Y-79360000D02*
X41230000Y-84440000D01*
X41230000Y-84440000D02*
X104730000Y-84440000D01*
X102178500Y-79360000D02*
X102178500Y-84440000D01*
X102178500Y-28560000D02*
X102178500Y-33640000D01*
X41230000Y-33640000D02*
X104730000Y-33640000D01*
X137280000Y-23500000D02*
X40280000Y-23500000D01*
X40280000Y-89500000D02*
X137280000Y-89500000D01*
X137280000Y-89500000D02*
X137280000Y-23500000D01*
X40280000Y-89500000D02*
X40280000Y-23500000D01*
X41230000Y-28560000D02*
X41230000Y-33640000D01*
X104730000Y-28560000D02*
X104730000Y-33640000D01*
X41230000Y-28560000D02*
X104730000Y-28560000D01*
D12*
X118366520Y-84997460D02*
X119763520Y-84997460D01*
X113921520Y-84997460D02*
X112397520Y-84997460D01*
X114302520Y-84235460D02*
X114302520Y-85759460D01*
X114048520Y-84235460D02*
X114048520Y-85759460D01*
X113794520Y-84997460D02*
X113794520Y-85759460D01*
X113794520Y-85759460D02*
X118366520Y-85759460D01*
X118366520Y-85759460D02*
X118366520Y-84235460D01*
X118366520Y-84235460D02*
X113794520Y-84235460D01*
X113794520Y-84235460D02*
X113794520Y-84997460D01*
X142770000Y-14730000D02*
X145310000Y-14730000D01*
X139950000Y-14450000D02*
X141500000Y-14450000D01*
X142770000Y-14730000D02*
X142770000Y-17270000D01*
X141500000Y-17550000D02*
X139950000Y-17550000D01*
X139950000Y-17550000D02*
X139950000Y-14450000D01*
X142770000Y-17270000D02*
X145310000Y-17270000D01*
X145310000Y-17270000D02*
X145310000Y-14730000D01*
X141230000Y-92770000D02*
X146310000Y-92770000D01*
X146310000Y-92770000D02*
X146310000Y-90230000D01*
X146310000Y-90230000D02*
X141230000Y-90230000D01*
X138410000Y-89950000D02*
X139960000Y-89950000D01*
X141230000Y-90230000D02*
X141230000Y-92770000D01*
X139960000Y-93050000D02*
X138410000Y-93050000D01*
X138410000Y-93050000D02*
X138410000Y-89950000D01*
X143230000Y-19230000D02*
X145770000Y-19230000D01*
X140410000Y-18950000D02*
X141960000Y-18950000D01*
X143230000Y-19230000D02*
X143230000Y-21770000D01*
X141960000Y-22050000D02*
X140410000Y-22050000D01*
X140410000Y-22050000D02*
X140410000Y-18950000D01*
X143230000Y-21770000D02*
X145770000Y-21770000D01*
X145770000Y-21770000D02*
X145770000Y-19230000D01*
D14*
X118230000Y-79930000D02*
X118230000Y-67230000D01*
X120770000Y-67230000D02*
X120770000Y-79930000D01*
D15*
X118230000Y-77390000D02*
X120770000Y-77390000D01*
D14*
X118230000Y-67230000D02*
X120770000Y-67230000D01*
D15*
X120770000Y-79930000D02*
X118230000Y-79930000D01*
D12*
X111340000Y-80230000D02*
X111340000Y-82770000D01*
X111340000Y-82770000D02*
X120230000Y-82770000D01*
X120230000Y-82770000D02*
X120230000Y-80230000D01*
X120230000Y-80230000D02*
X111340000Y-80230000D01*
X111340000Y-80865000D02*
X111975000Y-80230000D01*
X111340000Y-81500000D02*
X110070000Y-81500000D01*
X120230000Y-81500000D02*
X121500000Y-81500000D01*
X129555000Y-86730000D02*
X129555000Y-89270000D01*
X129555000Y-89270000D02*
X138445000Y-89270000D01*
X138445000Y-89270000D02*
X138445000Y-86730000D01*
X138445000Y-86730000D02*
X129555000Y-86730000D01*
X129555000Y-87365000D02*
X130190000Y-86730000D01*
X129555000Y-88000000D02*
X128285000Y-88000000D01*
X138445000Y-88000000D02*
X139715000Y-88000000D01*
X80270000Y-87730000D02*
X80270000Y-90270000D01*
X80270000Y-90270000D02*
X89160000Y-90270000D01*
X89160000Y-90270000D02*
X89160000Y-87730000D01*
X89160000Y-87730000D02*
X80270000Y-87730000D01*
X80270000Y-88365000D02*
X80905000Y-87730000D01*
X80270000Y-89000000D02*
X79000000Y-89000000D01*
X89160000Y-89000000D02*
X90430000Y-89000000D01*
X135230000Y-53270000D02*
X135230000Y-50730000D01*
X135230000Y-50730000D02*
X126340000Y-50730000D01*
X126340000Y-50730000D02*
X126340000Y-53270000D01*
X126340000Y-53270000D02*
X135230000Y-53270000D01*
X135230000Y-52635000D02*
X134595000Y-53270000D01*
X135230000Y-52000000D02*
X136500000Y-52000000D01*
X126340000Y-52000000D02*
X125070000Y-52000000D01*
X87160000Y-87770000D02*
X87160000Y-85230000D01*
X87160000Y-85230000D02*
X78270000Y-85230000D01*
X78270000Y-85230000D02*
X78270000Y-87770000D01*
X78270000Y-87770000D02*
X87160000Y-87770000D01*
X87160000Y-87135000D02*
X86525000Y-87770000D01*
X87160000Y-86500000D02*
X88430000Y-86500000D01*
X78270000Y-86500000D02*
X77000000Y-86500000D01*
X116055000Y-86730000D02*
X116055000Y-89270000D01*
X116055000Y-89270000D02*
X124945000Y-89270000D01*
X124945000Y-89270000D02*
X124945000Y-86730000D01*
X124945000Y-86730000D02*
X116055000Y-86730000D01*
X116055000Y-87365000D02*
X116690000Y-86730000D01*
X116055000Y-88000000D02*
X114785000Y-88000000D01*
X124945000Y-88000000D02*
X126215000Y-88000000D01*
X126340000Y-47230000D02*
X126340000Y-49770000D01*
X126340000Y-49770000D02*
X135230000Y-49770000D01*
X135230000Y-49770000D02*
X135230000Y-47230000D01*
X135230000Y-47230000D02*
X126340000Y-47230000D01*
X126340000Y-47865000D02*
X126975000Y-47230000D01*
X126340000Y-48500000D02*
X125070000Y-48500000D01*
X135230000Y-48500000D02*
X136500000Y-48500000D01*
X143399160Y-49249440D02*
X141600840Y-49249440D01*
X142500000Y-51799600D02*
X142500000Y-53201680D01*
X143201040Y-52500640D02*
X141798960Y-52500640D01*
X140899800Y-55751840D02*
X139500260Y-54199900D01*
X139500260Y-54199900D02*
X139500260Y-51700540D01*
X144100200Y-55751840D02*
X145499740Y-54199900D01*
X145499740Y-54199900D02*
X145499740Y-51700540D01*
X153399160Y-49249440D02*
X151600840Y-49249440D01*
X152500000Y-51799600D02*
X152500000Y-53201680D01*
X153201040Y-52500640D02*
X151798960Y-52500640D01*
X150899800Y-55751840D02*
X149500260Y-54199900D01*
X149500260Y-54199900D02*
X149500260Y-51700540D01*
X154100200Y-55751840D02*
X155499740Y-54199900D01*
X155499740Y-54199900D02*
X155499740Y-51700540D01*
X138910000Y-96000000D02*
X138910000Y-94450000D01*
X140460000Y-94450000D02*
X138910000Y-94450000D01*
X139190000Y-97270000D02*
X141730000Y-97270000D01*
X144270000Y-94730000D02*
X141730000Y-94730000D01*
X141730000Y-94730000D02*
X141730000Y-97270000D01*
X141730000Y-97270000D02*
X144270000Y-97270000D01*
X144270000Y-97270000D02*
X144270000Y-94730000D01*
X121230000Y-54754000D02*
X121230000Y-58818000D01*
X124896231Y-56786000D02*
G75*
G03X124896231Y-56786000I-2396231J0D01*
G01*
D15*
X147430000Y-44320000D02*
X147430000Y-23520000D01*
X138030000Y-23520000D02*
X138030000Y-44320000D01*
X138030000Y-44320000D02*
X147430000Y-44320000D01*
X138030000Y-23520000D02*
X147430000Y-23520000D01*
D16*
X147430000Y-31620000D02*
X146030000Y-31620000D01*
X146030000Y-31620000D02*
X146030000Y-36220000D01*
X146030000Y-36220000D02*
X147430000Y-36220000D01*
D15*
X92820000Y-13570000D02*
X72020000Y-13570000D01*
X72020000Y-22970000D02*
X92820000Y-22970000D01*
X92820000Y-22970000D02*
X92820000Y-13570000D01*
X72020000Y-22970000D02*
X72020000Y-13570000D01*
D16*
X80120000Y-13570000D02*
X80120000Y-14970000D01*
X80120000Y-14970000D02*
X84720000Y-14970000D01*
X84720000Y-14970000D02*
X84720000Y-13570000D01*
D15*
X68860000Y-90530000D02*
X48060000Y-90530000D01*
X48060000Y-99930000D02*
X68860000Y-99930000D01*
X68860000Y-99930000D02*
X68860000Y-90530000D01*
X48060000Y-99930000D02*
X48060000Y-90530000D01*
D16*
X56160000Y-90530000D02*
X56160000Y-91930000D01*
X56160000Y-91930000D02*
X60760000Y-91930000D01*
X60760000Y-91930000D02*
X60760000Y-90530000D01*
D15*
X114820000Y-90530000D02*
X94020000Y-90530000D01*
X94020000Y-99930000D02*
X114820000Y-99930000D01*
X114820000Y-99930000D02*
X114820000Y-90530000D01*
X94020000Y-99930000D02*
X94020000Y-90530000D01*
D16*
X102120000Y-90530000D02*
X102120000Y-91930000D01*
X102120000Y-91930000D02*
X106720000Y-91930000D01*
X106720000Y-91930000D02*
X106720000Y-90530000D01*
D15*
X70820000Y-13530000D02*
X50020000Y-13530000D01*
X50020000Y-22930000D02*
X70820000Y-22930000D01*
X70820000Y-22930000D02*
X70820000Y-13530000D01*
X50020000Y-22930000D02*
X50020000Y-13530000D01*
D16*
X58120000Y-13530000D02*
X58120000Y-14930000D01*
X58120000Y-14930000D02*
X62720000Y-14930000D01*
X62720000Y-14930000D02*
X62720000Y-13530000D01*
D15*
X157430000Y-44320000D02*
X157430000Y-23520000D01*
X148030000Y-23520000D02*
X148030000Y-44320000D01*
X148030000Y-44320000D02*
X157430000Y-44320000D01*
X148030000Y-23520000D02*
X157430000Y-23520000D01*
D16*
X157430000Y-31620000D02*
X156030000Y-31620000D01*
X156030000Y-31620000D02*
X156030000Y-36220000D01*
X156030000Y-36220000D02*
X157430000Y-36220000D01*
D15*
X114980000Y-13530000D02*
X94180000Y-13530000D01*
X94180000Y-22930000D02*
X114980000Y-22930000D01*
X114980000Y-22930000D02*
X114980000Y-13530000D01*
X94180000Y-22930000D02*
X94180000Y-13530000D01*
D16*
X102280000Y-13530000D02*
X102280000Y-14930000D01*
X102280000Y-14930000D02*
X106880000Y-14930000D01*
X106880000Y-14930000D02*
X106880000Y-13530000D01*
D15*
X137440000Y-13570000D02*
X116640000Y-13570000D01*
X116640000Y-22970000D02*
X137440000Y-22970000D01*
X137440000Y-22970000D02*
X137440000Y-13570000D01*
X116640000Y-22970000D02*
X116640000Y-13570000D01*
D16*
X124740000Y-13570000D02*
X124740000Y-14970000D01*
X124740000Y-14970000D02*
X129340000Y-14970000D01*
X129340000Y-14970000D02*
X129340000Y-13570000D01*
D15*
X71020000Y-99930000D02*
X91820000Y-99930000D01*
X91820000Y-90530000D02*
X71020000Y-90530000D01*
X71020000Y-90530000D02*
X71020000Y-99930000D01*
X91820000Y-90530000D02*
X91820000Y-99930000D01*
D16*
X83720000Y-99930000D02*
X83720000Y-98530000D01*
X83720000Y-98530000D02*
X79120000Y-98530000D01*
X79120000Y-98530000D02*
X79120000Y-99930000D01*
D15*
X116520000Y-99930000D02*
X137320000Y-99930000D01*
X137320000Y-90530000D02*
X116520000Y-90530000D01*
X116520000Y-90530000D02*
X116520000Y-99930000D01*
X137320000Y-90530000D02*
X137320000Y-99930000D01*
D16*
X129220000Y-99930000D02*
X129220000Y-98530000D01*
X129220000Y-98530000D02*
X124620000Y-98530000D01*
X124620000Y-98530000D02*
X124620000Y-99930000D01*
D15*
X138030000Y-60610000D02*
X138030000Y-89010000D01*
X147430000Y-89010000D02*
X147430000Y-60610000D01*
X147430000Y-60610000D02*
X138030000Y-60610000D01*
X147430000Y-89010000D02*
X138030000Y-89010000D01*
D16*
X138030000Y-77110000D02*
X139430000Y-77110000D01*
X139430000Y-77110000D02*
X139430000Y-72510000D01*
X139430000Y-72510000D02*
X138030000Y-72510000D01*
D15*
X148030000Y-60690000D02*
X148030000Y-89090000D01*
X157430000Y-89090000D02*
X157430000Y-60690000D01*
X157430000Y-60690000D02*
X148030000Y-60690000D01*
X157430000Y-89090000D02*
X148030000Y-89090000D01*
D16*
X148030000Y-77190000D02*
X149430000Y-77190000D01*
X149430000Y-77190000D02*
X149430000Y-72590000D01*
X149430000Y-72590000D02*
X148030000Y-72590000D01*
D12*
X134250000Y-57750000D02*
X131250000Y-57750000D01*
X131250000Y-55250000D02*
X134250000Y-55250000D01*
X120250000Y-35250000D02*
X120250000Y-32250000D01*
X122750000Y-32250000D02*
X122750000Y-35250000D01*
X111872381Y-47211429D02*
X111205714Y-47211429D01*
X110872381Y-47211429D02*
X110920000Y-47259048D01*
X110967619Y-47211429D01*
X110920000Y-47163810D01*
X110872381Y-47211429D01*
X110967619Y-47211429D01*
X111824762Y-46306667D02*
X111872381Y-46401905D01*
X111872381Y-46592382D01*
X111824762Y-46687620D01*
X111777143Y-46735239D01*
X111681905Y-46782858D01*
X111396190Y-46782858D01*
X111300952Y-46735239D01*
X111253333Y-46687620D01*
X111205714Y-46592382D01*
X111205714Y-46401905D01*
X111253333Y-46306667D01*
X111872381Y-45354286D02*
X111872381Y-45925715D01*
X111872381Y-45640001D02*
X110872381Y-45640001D01*
X111015238Y-45735239D01*
X111110476Y-45830477D01*
X111158095Y-45925715D01*
X110872381Y-44259048D02*
X110872381Y-43592381D01*
X111872381Y-44020953D01*
X111205714Y-42782857D02*
X111872381Y-42782857D01*
X110824762Y-43020953D02*
X111539048Y-43259048D01*
X111539048Y-42640000D01*
X111872381Y-42259048D02*
X110872381Y-42259048D01*
X111348571Y-42259048D02*
X111348571Y-41687619D01*
X111872381Y-41687619D02*
X110872381Y-41687619D01*
X111777143Y-40640000D02*
X111824762Y-40687619D01*
X111872381Y-40830476D01*
X111872381Y-40925714D01*
X111824762Y-41068572D01*
X111729524Y-41163810D01*
X111634286Y-41211429D01*
X111443810Y-41259048D01*
X111300952Y-41259048D01*
X111110476Y-41211429D01*
X111015238Y-41163810D01*
X110920000Y-41068572D01*
X110872381Y-40925714D01*
X110872381Y-40830476D01*
X110920000Y-40687619D01*
X110967619Y-40640000D01*
X110872381Y-40354286D02*
X110872381Y-39782857D01*
X111872381Y-40068572D02*
X110872381Y-40068572D01*
X110872381Y-38973333D02*
X110872381Y-39449524D01*
X111348571Y-39497143D01*
X111300952Y-39449524D01*
X111253333Y-39354286D01*
X111253333Y-39116190D01*
X111300952Y-39020952D01*
X111348571Y-38973333D01*
X111443810Y-38925714D01*
X111681905Y-38925714D01*
X111777143Y-38973333D01*
X111824762Y-39020952D01*
X111872381Y-39116190D01*
X111872381Y-39354286D01*
X111824762Y-39449524D01*
X111777143Y-39497143D01*
X111205714Y-38068571D02*
X111872381Y-38068571D01*
X110824762Y-38306667D02*
X111539048Y-38544762D01*
X111539048Y-37925714D01*
X111872381Y-37020952D02*
X111872381Y-37592381D01*
X111872381Y-37306667D02*
X110872381Y-37306667D01*
X111015238Y-37401905D01*
X111110476Y-37497143D01*
X111158095Y-37592381D01*
X128952381Y-75619048D02*
X127952381Y-75619048D01*
X128857143Y-74571429D02*
X128904762Y-74619048D01*
X128952381Y-74761905D01*
X128952381Y-74857143D01*
X128904762Y-75000001D01*
X128809524Y-75095239D01*
X128714286Y-75142858D01*
X128523810Y-75190477D01*
X128380952Y-75190477D01*
X128190476Y-75142858D01*
X128095238Y-75095239D01*
X128000000Y-75000001D01*
X127952381Y-74857143D01*
X127952381Y-74761905D01*
X128000000Y-74619048D01*
X128047619Y-74571429D01*
X128047619Y-74190477D02*
X128000000Y-74142858D01*
X127952381Y-74047620D01*
X127952381Y-73809524D01*
X128000000Y-73714286D01*
X128047619Y-73666667D01*
X128142857Y-73619048D01*
X128238095Y-73619048D01*
X128380952Y-73666667D01*
X128952381Y-74238096D01*
X128952381Y-73619048D01*
X127952381Y-72523810D02*
X127952381Y-71857143D01*
X128952381Y-72285715D01*
X128285714Y-71047619D02*
X128952381Y-71047619D01*
X127904762Y-71285715D02*
X128619048Y-71523810D01*
X128619048Y-70904762D01*
X128952381Y-70523810D02*
X127952381Y-70523810D01*
X128952381Y-70095238D02*
X128428571Y-70095238D01*
X128333333Y-70142857D01*
X128285714Y-70238095D01*
X128285714Y-70380953D01*
X128333333Y-70476191D01*
X128380952Y-70523810D01*
X128904762Y-69190476D02*
X128952381Y-69285714D01*
X128952381Y-69476191D01*
X128904762Y-69571429D01*
X128857143Y-69619048D01*
X128761905Y-69666667D01*
X128476190Y-69666667D01*
X128380952Y-69619048D01*
X128333333Y-69571429D01*
X128285714Y-69476191D01*
X128285714Y-69285714D01*
X128333333Y-69190476D01*
X127952381Y-68285714D02*
X127952381Y-68761905D01*
X128428571Y-68809524D01*
X128380952Y-68761905D01*
X128333333Y-68666667D01*
X128333333Y-68428571D01*
X128380952Y-68333333D01*
X128428571Y-68285714D01*
X128523810Y-68238095D01*
X128761905Y-68238095D01*
X128857143Y-68285714D01*
X128904762Y-68333333D01*
X128952381Y-68428571D01*
X128952381Y-68666667D01*
X128904762Y-68761905D01*
X128857143Y-68809524D01*
X128952381Y-67761905D02*
X128952381Y-67571429D01*
X128904762Y-67476190D01*
X128857143Y-67428571D01*
X128714286Y-67333333D01*
X128523810Y-67285714D01*
X128142857Y-67285714D01*
X128047619Y-67333333D01*
X128000000Y-67380952D01*
X127952381Y-67476190D01*
X127952381Y-67666667D01*
X128000000Y-67761905D01*
X128047619Y-67809524D01*
X128142857Y-67857143D01*
X128380952Y-67857143D01*
X128476190Y-67809524D01*
X128523810Y-67761905D01*
X128571429Y-67666667D01*
X128571429Y-67476190D01*
X128523810Y-67380952D01*
X128476190Y-67333333D01*
X128380952Y-67285714D01*
X127952381Y-66380952D02*
X127952381Y-66857143D01*
X128428571Y-66904762D01*
X128380952Y-66857143D01*
X128333333Y-66761905D01*
X128333333Y-66523809D01*
X128380952Y-66428571D01*
X128428571Y-66380952D01*
X128523810Y-66333333D01*
X128761905Y-66333333D01*
X128857143Y-66380952D01*
X128904762Y-66428571D01*
X128952381Y-66523809D01*
X128952381Y-66761905D01*
X128904762Y-66857143D01*
X128857143Y-66904762D01*
D17*
X87788191Y-58229619D02*
X87788191Y-57213619D01*
X88852572Y-58132857D02*
X88804191Y-58181238D01*
X88659048Y-58229619D01*
X88562286Y-58229619D01*
X88417144Y-58181238D01*
X88320382Y-58084476D01*
X88272001Y-57987714D01*
X88223620Y-57794190D01*
X88223620Y-57649048D01*
X88272001Y-57455524D01*
X88320382Y-57358762D01*
X88417144Y-57262000D01*
X88562286Y-57213619D01*
X88659048Y-57213619D01*
X88804191Y-57262000D01*
X88852572Y-57310381D01*
X89723429Y-57552286D02*
X89723429Y-58229619D01*
X89481525Y-57165238D02*
X89239620Y-57890952D01*
X89868572Y-57890952D01*
D12*
X114762425Y-85449841D02*
X114762425Y-84449841D01*
X115000520Y-84449841D01*
X115143378Y-84497460D01*
X115238616Y-84592698D01*
X115286235Y-84687936D01*
X115333854Y-84878412D01*
X115333854Y-85021270D01*
X115286235Y-85211746D01*
X115238616Y-85306984D01*
X115143378Y-85402222D01*
X115000520Y-85449841D01*
X114762425Y-85449841D01*
X116286235Y-85449841D02*
X115714806Y-85449841D01*
X116000520Y-85449841D02*
X116000520Y-84449841D01*
X115905282Y-84592698D01*
X115810044Y-84687936D01*
X115714806Y-84735555D01*
X147166667Y-15452381D02*
X147166667Y-16166667D01*
X147119047Y-16309524D01*
X147023809Y-16404762D01*
X146880952Y-16452381D01*
X146785714Y-16452381D01*
X147595238Y-15547619D02*
X147642857Y-15500000D01*
X147738095Y-15452381D01*
X147976191Y-15452381D01*
X148071429Y-15500000D01*
X148119048Y-15547619D01*
X148166667Y-15642857D01*
X148166667Y-15738095D01*
X148119048Y-15880952D01*
X147547619Y-16452381D01*
X148166667Y-16452381D01*
X147238096Y-90952381D02*
X147238096Y-91666667D01*
X147190476Y-91809524D01*
X147095238Y-91904762D01*
X146952381Y-91952381D01*
X146857143Y-91952381D01*
X148238096Y-91952381D02*
X147666667Y-91952381D01*
X147952381Y-91952381D02*
X147952381Y-90952381D01*
X147857143Y-91095238D01*
X147761905Y-91190476D01*
X147666667Y-91238095D01*
X149142858Y-90952381D02*
X148666667Y-90952381D01*
X148619048Y-91428571D01*
X148666667Y-91380952D01*
X148761905Y-91333333D01*
X149000001Y-91333333D01*
X149095239Y-91380952D01*
X149142858Y-91428571D01*
X149190477Y-91523810D01*
X149190477Y-91761905D01*
X149142858Y-91857143D01*
X149095239Y-91904762D01*
X149000001Y-91952381D01*
X148761905Y-91952381D01*
X148666667Y-91904762D01*
X148619048Y-91857143D01*
X149571429Y-91904762D02*
X149714286Y-91952381D01*
X149952382Y-91952381D01*
X150047620Y-91904762D01*
X150095239Y-91857143D01*
X150142858Y-91761905D01*
X150142858Y-91666667D01*
X150095239Y-91571429D01*
X150047620Y-91523810D01*
X149952382Y-91476190D01*
X149761905Y-91428571D01*
X149666667Y-91380952D01*
X149619048Y-91333333D01*
X149571429Y-91238095D01*
X149571429Y-91142857D01*
X149619048Y-91047619D01*
X149666667Y-91000000D01*
X149761905Y-90952381D01*
X150000001Y-90952381D01*
X150142858Y-91000000D01*
X151095239Y-91952381D02*
X150523810Y-91952381D01*
X150809524Y-91952381D02*
X150809524Y-90952381D01*
X150714286Y-91095238D01*
X150619048Y-91190476D01*
X150523810Y-91238095D01*
X146400477Y-20202381D02*
X146400477Y-20916667D01*
X146352857Y-21059524D01*
X146257619Y-21154762D01*
X146114762Y-21202381D01*
X146019524Y-21202381D01*
X147400477Y-21202381D02*
X146829048Y-21202381D01*
X147114762Y-21202381D02*
X147114762Y-20202381D01*
X147019524Y-20345238D01*
X146924286Y-20440476D01*
X146829048Y-20488095D01*
X147733810Y-20202381D02*
X148400477Y-20202381D01*
X147971905Y-21202381D01*
D17*
X117800619Y-74233143D02*
X117316810Y-74571809D01*
X117800619Y-74813714D02*
X116784619Y-74813714D01*
X116784619Y-74426667D01*
X116833000Y-74329905D01*
X116881381Y-74281524D01*
X116978143Y-74233143D01*
X117123286Y-74233143D01*
X117220048Y-74281524D01*
X117268429Y-74329905D01*
X117316810Y-74426667D01*
X117316810Y-74813714D01*
X116784619Y-73894476D02*
X116784619Y-73265524D01*
X117171667Y-73604190D01*
X117171667Y-73459048D01*
X117220048Y-73362286D01*
X117268429Y-73313905D01*
X117365190Y-73265524D01*
X117607095Y-73265524D01*
X117703857Y-73313905D01*
X117752238Y-73362286D01*
X117800619Y-73459048D01*
X117800619Y-73749333D01*
X117752238Y-73846095D01*
X117703857Y-73894476D01*
X116784619Y-72926857D02*
X116784619Y-72297905D01*
X117171667Y-72636571D01*
X117171667Y-72491429D01*
X117220048Y-72394667D01*
X117268429Y-72346286D01*
X117365190Y-72297905D01*
X117607095Y-72297905D01*
X117703857Y-72346286D01*
X117752238Y-72394667D01*
X117800619Y-72491429D01*
X117800619Y-72781714D01*
X117752238Y-72878476D01*
X117703857Y-72926857D01*
D12*
X113099143Y-81952381D02*
X112765809Y-81476190D01*
X112527714Y-81952381D02*
X112527714Y-80952381D01*
X112908667Y-80952381D01*
X113003905Y-81000000D01*
X113051524Y-81047619D01*
X113099143Y-81142857D01*
X113099143Y-81285714D01*
X113051524Y-81380952D01*
X113003905Y-81428571D01*
X112908667Y-81476190D01*
X112527714Y-81476190D01*
X114051524Y-81952381D02*
X113480095Y-81952381D01*
X113765809Y-81952381D02*
X113765809Y-80952381D01*
X113670571Y-81095238D01*
X113575333Y-81190476D01*
X113480095Y-81238095D01*
X115003905Y-81952381D02*
X114432476Y-81952381D01*
X114718190Y-81952381D02*
X114718190Y-80952381D01*
X114622952Y-81095238D01*
X114527714Y-81190476D01*
X114432476Y-81238095D01*
X131380953Y-88452381D02*
X131047619Y-87976190D01*
X130809524Y-88452381D02*
X130809524Y-87452381D01*
X131190477Y-87452381D01*
X131285715Y-87500000D01*
X131333334Y-87547619D01*
X131380953Y-87642857D01*
X131380953Y-87785714D01*
X131333334Y-87880952D01*
X131285715Y-87928571D01*
X131190477Y-87976190D01*
X130809524Y-87976190D01*
X131952381Y-87880952D02*
X131857143Y-87833333D01*
X131809524Y-87785714D01*
X131761905Y-87690476D01*
X131761905Y-87642857D01*
X131809524Y-87547619D01*
X131857143Y-87500000D01*
X131952381Y-87452381D01*
X132142858Y-87452381D01*
X132238096Y-87500000D01*
X132285715Y-87547619D01*
X132333334Y-87642857D01*
X132333334Y-87690476D01*
X132285715Y-87785714D01*
X132238096Y-87833333D01*
X132142858Y-87880952D01*
X131952381Y-87880952D01*
X131857143Y-87928571D01*
X131809524Y-87976190D01*
X131761905Y-88071429D01*
X131761905Y-88261905D01*
X131809524Y-88357143D01*
X131857143Y-88404762D01*
X131952381Y-88452381D01*
X132142858Y-88452381D01*
X132238096Y-88404762D01*
X132285715Y-88357143D01*
X132333334Y-88261905D01*
X132333334Y-88071429D01*
X132285715Y-87976190D01*
X132238096Y-87928571D01*
X132142858Y-87880952D01*
X133190477Y-88452381D02*
X133190477Y-87928571D01*
X133142858Y-87833333D01*
X133047620Y-87785714D01*
X132857143Y-87785714D01*
X132761905Y-87833333D01*
X133190477Y-88404762D02*
X133095239Y-88452381D01*
X132857143Y-88452381D01*
X132761905Y-88404762D01*
X132714286Y-88309524D01*
X132714286Y-88214286D01*
X132761905Y-88119048D01*
X132857143Y-88071429D01*
X133095239Y-88071429D01*
X133190477Y-88023810D01*
X86310953Y-89452381D02*
X85977619Y-88976190D01*
X85739524Y-89452381D02*
X85739524Y-88452381D01*
X86120477Y-88452381D01*
X86215715Y-88500000D01*
X86263334Y-88547619D01*
X86310953Y-88642857D01*
X86310953Y-88785714D01*
X86263334Y-88880952D01*
X86215715Y-88928571D01*
X86120477Y-88976190D01*
X85739524Y-88976190D01*
X86882381Y-88880952D02*
X86787143Y-88833333D01*
X86739524Y-88785714D01*
X86691905Y-88690476D01*
X86691905Y-88642857D01*
X86739524Y-88547619D01*
X86787143Y-88500000D01*
X86882381Y-88452381D01*
X87072858Y-88452381D01*
X87168096Y-88500000D01*
X87215715Y-88547619D01*
X87263334Y-88642857D01*
X87263334Y-88690476D01*
X87215715Y-88785714D01*
X87168096Y-88833333D01*
X87072858Y-88880952D01*
X86882381Y-88880952D01*
X86787143Y-88928571D01*
X86739524Y-88976190D01*
X86691905Y-89071429D01*
X86691905Y-89261905D01*
X86739524Y-89357143D01*
X86787143Y-89404762D01*
X86882381Y-89452381D01*
X87072858Y-89452381D01*
X87168096Y-89404762D01*
X87215715Y-89357143D01*
X87263334Y-89261905D01*
X87263334Y-89071429D01*
X87215715Y-88976190D01*
X87168096Y-88928571D01*
X87072858Y-88880952D01*
X87691905Y-89452381D02*
X87691905Y-88452381D01*
X87691905Y-88833333D02*
X87787143Y-88785714D01*
X87977620Y-88785714D01*
X88072858Y-88833333D01*
X88120477Y-88880952D01*
X88168096Y-88976190D01*
X88168096Y-89261905D01*
X88120477Y-89357143D01*
X88072858Y-89404762D01*
X87977620Y-89452381D01*
X87787143Y-89452381D01*
X87691905Y-89404762D01*
X132135143Y-52452381D02*
X131801809Y-51976190D01*
X131563714Y-52452381D02*
X131563714Y-51452381D01*
X131944667Y-51452381D01*
X132039905Y-51500000D01*
X132087524Y-51547619D01*
X132135143Y-51642857D01*
X132135143Y-51785714D01*
X132087524Y-51880952D01*
X132039905Y-51928571D01*
X131944667Y-51976190D01*
X131563714Y-51976190D01*
X133087524Y-52452381D02*
X132516095Y-52452381D01*
X132801809Y-52452381D02*
X132801809Y-51452381D01*
X132706571Y-51595238D01*
X132611333Y-51690476D01*
X132516095Y-51738095D01*
X133420857Y-51452381D02*
X134039905Y-51452381D01*
X133706571Y-51833333D01*
X133849429Y-51833333D01*
X133944667Y-51880952D01*
X133992286Y-51928571D01*
X134039905Y-52023810D01*
X134039905Y-52261905D01*
X133992286Y-52357143D01*
X133944667Y-52404762D01*
X133849429Y-52452381D01*
X133563714Y-52452381D01*
X133468476Y-52404762D01*
X133420857Y-52357143D01*
X84138953Y-86952381D02*
X83805619Y-86476190D01*
X83567524Y-86952381D02*
X83567524Y-85952381D01*
X83948477Y-85952381D01*
X84043715Y-86000000D01*
X84091334Y-86047619D01*
X84138953Y-86142857D01*
X84138953Y-86285714D01*
X84091334Y-86380952D01*
X84043715Y-86428571D01*
X83948477Y-86476190D01*
X83567524Y-86476190D01*
X84472286Y-85952381D02*
X85138953Y-85952381D01*
X84710381Y-86952381D01*
X85519905Y-86952381D02*
X85519905Y-85952381D01*
X85519905Y-86333333D02*
X85615143Y-86285714D01*
X85805620Y-86285714D01*
X85900858Y-86333333D01*
X85948477Y-86380952D01*
X85996096Y-86476190D01*
X85996096Y-86761905D01*
X85948477Y-86857143D01*
X85900858Y-86904762D01*
X85805620Y-86952381D01*
X85615143Y-86952381D01*
X85519905Y-86904762D01*
X121873953Y-88452381D02*
X121540619Y-87976190D01*
X121302524Y-88452381D02*
X121302524Y-87452381D01*
X121683477Y-87452381D01*
X121778715Y-87500000D01*
X121826334Y-87547619D01*
X121873953Y-87642857D01*
X121873953Y-87785714D01*
X121826334Y-87880952D01*
X121778715Y-87928571D01*
X121683477Y-87976190D01*
X121302524Y-87976190D01*
X122207286Y-87452381D02*
X122873953Y-87452381D01*
X122445381Y-88452381D01*
X123683477Y-88452381D02*
X123683477Y-87928571D01*
X123635858Y-87833333D01*
X123540620Y-87785714D01*
X123350143Y-87785714D01*
X123254905Y-87833333D01*
X123683477Y-88404762D02*
X123588239Y-88452381D01*
X123350143Y-88452381D01*
X123254905Y-88404762D01*
X123207286Y-88309524D01*
X123207286Y-88214286D01*
X123254905Y-88119048D01*
X123350143Y-88071429D01*
X123588239Y-88071429D01*
X123683477Y-88023810D01*
X131685143Y-48952381D02*
X131351809Y-48476190D01*
X131113714Y-48952381D02*
X131113714Y-47952381D01*
X131494667Y-47952381D01*
X131589905Y-48000000D01*
X131637524Y-48047619D01*
X131685143Y-48142857D01*
X131685143Y-48285714D01*
X131637524Y-48380952D01*
X131589905Y-48428571D01*
X131494667Y-48476190D01*
X131113714Y-48476190D01*
X132637524Y-48952381D02*
X132066095Y-48952381D01*
X132351809Y-48952381D02*
X132351809Y-47952381D01*
X132256571Y-48095238D01*
X132161333Y-48190476D01*
X132066095Y-48238095D01*
X133018476Y-48047619D02*
X133066095Y-48000000D01*
X133161333Y-47952381D01*
X133399429Y-47952381D01*
X133494667Y-48000000D01*
X133542286Y-48047619D01*
X133589905Y-48142857D01*
X133589905Y-48238095D01*
X133542286Y-48380952D01*
X132970857Y-48952381D01*
X133589905Y-48952381D01*
X137999524Y-56096354D02*
X137999524Y-57096354D01*
X137999524Y-56143973D02*
X138094762Y-56096354D01*
X138285239Y-56096354D01*
X138380477Y-56143973D01*
X138428096Y-56191592D01*
X138475715Y-56286830D01*
X138475715Y-56572545D01*
X138428096Y-56667783D01*
X138380477Y-56715402D01*
X138285239Y-56763021D01*
X138094762Y-56763021D01*
X137999524Y-56715402D01*
X138856667Y-55858259D02*
X138904286Y-55810640D01*
X138999524Y-55763021D01*
X139237620Y-55763021D01*
X139332858Y-55810640D01*
X139380477Y-55858259D01*
X139428096Y-55953497D01*
X139428096Y-56048735D01*
X139380477Y-56191592D01*
X138809048Y-56763021D01*
X139428096Y-56763021D01*
X148309524Y-55285714D02*
X148309524Y-56285714D01*
X148309524Y-55333333D02*
X148404762Y-55285714D01*
X148595239Y-55285714D01*
X148690477Y-55333333D01*
X148738096Y-55380952D01*
X148785715Y-55476190D01*
X148785715Y-55761905D01*
X148738096Y-55857143D01*
X148690477Y-55904762D01*
X148595239Y-55952381D01*
X148404762Y-55952381D01*
X148309524Y-55904762D01*
X149738096Y-55952381D02*
X149166667Y-55952381D01*
X149452381Y-55952381D02*
X149452381Y-54952381D01*
X149357143Y-55095238D01*
X149261905Y-55190476D01*
X149166667Y-55238095D01*
X145690477Y-95452381D02*
X145690477Y-96166667D01*
X145642857Y-96309524D01*
X145547619Y-96404762D01*
X145404762Y-96452381D01*
X145309524Y-96452381D01*
X146690477Y-96452381D02*
X146119048Y-96452381D01*
X146404762Y-96452381D02*
X146404762Y-95452381D01*
X146309524Y-95595238D01*
X146214286Y-95690476D01*
X146119048Y-95738095D01*
X147261905Y-95880952D02*
X147166667Y-95833333D01*
X147119048Y-95785714D01*
X147071429Y-95690476D01*
X147071429Y-95642857D01*
X147119048Y-95547619D01*
X147166667Y-95500000D01*
X147261905Y-95452381D01*
X147452382Y-95452381D01*
X147547620Y-95500000D01*
X147595239Y-95547619D01*
X147642858Y-95642857D01*
X147642858Y-95690476D01*
X147595239Y-95785714D01*
X147547620Y-95833333D01*
X147452382Y-95880952D01*
X147261905Y-95880952D01*
X147166667Y-95928571D01*
X147119048Y-95976190D01*
X147071429Y-96071429D01*
X147071429Y-96261905D01*
X147119048Y-96357143D01*
X147166667Y-96404762D01*
X147261905Y-96452381D01*
X147452382Y-96452381D01*
X147547620Y-96404762D01*
X147595239Y-96357143D01*
X147642858Y-96261905D01*
X147642858Y-96071429D01*
X147595239Y-95976190D01*
X147547620Y-95928571D01*
X147452382Y-95880952D01*
X118396381Y-58055905D02*
X118396381Y-57484476D01*
X119396381Y-57770191D02*
X118396381Y-57770191D01*
X119396381Y-56627333D02*
X119396381Y-57198762D01*
X119396381Y-56913048D02*
X118396381Y-56913048D01*
X118539238Y-57008286D01*
X118634476Y-57103524D01*
X118682095Y-57198762D01*
D17*
X144690477Y-44952381D02*
X144690477Y-45666667D01*
X144642857Y-45809524D01*
X144547619Y-45904762D01*
X144404762Y-45952381D01*
X144309524Y-45952381D01*
X145690477Y-45952381D02*
X145119048Y-45952381D01*
X145404762Y-45952381D02*
X145404762Y-44952381D01*
X145309524Y-45095238D01*
X145214286Y-45190476D01*
X145119048Y-45238095D01*
X146166667Y-45952381D02*
X146357143Y-45952381D01*
X146452382Y-45904762D01*
X146500001Y-45857143D01*
X146595239Y-45714286D01*
X146642858Y-45523810D01*
X146642858Y-45142857D01*
X146595239Y-45047619D01*
X146547620Y-45000000D01*
X146452382Y-44952381D01*
X146261905Y-44952381D01*
X146166667Y-45000000D01*
X146119048Y-45047619D01*
X146071429Y-45142857D01*
X146071429Y-45380952D01*
X146119048Y-45476190D01*
X146166667Y-45523810D01*
X146261905Y-45571429D01*
X146452382Y-45571429D01*
X146547620Y-45523810D01*
X146595239Y-45476190D01*
X146642858Y-45380952D01*
X81610477Y-23952381D02*
X81610477Y-24666667D01*
X81562857Y-24809524D01*
X81467619Y-24904762D01*
X81324762Y-24952381D01*
X81229524Y-24952381D01*
X82610477Y-24952381D02*
X82039048Y-24952381D01*
X82324762Y-24952381D02*
X82324762Y-23952381D01*
X82229524Y-24095238D01*
X82134286Y-24190476D01*
X82039048Y-24238095D01*
X83467620Y-23952381D02*
X83277143Y-23952381D01*
X83181905Y-24000000D01*
X83134286Y-24047619D01*
X83039048Y-24190476D01*
X82991429Y-24380952D01*
X82991429Y-24761905D01*
X83039048Y-24857143D01*
X83086667Y-24904762D01*
X83181905Y-24952381D01*
X83372382Y-24952381D01*
X83467620Y-24904762D01*
X83515239Y-24857143D01*
X83562858Y-24761905D01*
X83562858Y-24523810D01*
X83515239Y-24428571D01*
X83467620Y-24380952D01*
X83372382Y-24333333D01*
X83181905Y-24333333D01*
X83086667Y-24380952D01*
X83039048Y-24428571D01*
X82991429Y-24523810D01*
X58238096Y-87952381D02*
X58238096Y-88666667D01*
X58190476Y-88809524D01*
X58095238Y-88904762D01*
X57952381Y-88952381D01*
X57857143Y-88952381D01*
X59238096Y-88952381D02*
X58666667Y-88952381D01*
X58952381Y-88952381D02*
X58952381Y-87952381D01*
X58857143Y-88095238D01*
X58761905Y-88190476D01*
X58666667Y-88238095D01*
X60190477Y-88952381D02*
X59619048Y-88952381D01*
X59904762Y-88952381D02*
X59904762Y-87952381D01*
X59809524Y-88095238D01*
X59714286Y-88190476D01*
X59619048Y-88238095D01*
X60619048Y-88428571D02*
X60952382Y-88428571D01*
X61095239Y-88952381D02*
X60619048Y-88952381D01*
X60619048Y-87952381D01*
X61095239Y-87952381D01*
X107190477Y-87952381D02*
X107190477Y-88666667D01*
X107142857Y-88809524D01*
X107047619Y-88904762D01*
X106904762Y-88952381D01*
X106809524Y-88952381D01*
X108190477Y-88952381D02*
X107619048Y-88952381D01*
X107904762Y-88952381D02*
X107904762Y-87952381D01*
X107809524Y-88095238D01*
X107714286Y-88190476D01*
X107619048Y-88238095D01*
X108809524Y-87952381D02*
X108904763Y-87952381D01*
X109000001Y-88000000D01*
X109047620Y-88047619D01*
X109095239Y-88142857D01*
X109142858Y-88333333D01*
X109142858Y-88571429D01*
X109095239Y-88761905D01*
X109047620Y-88857143D01*
X109000001Y-88904762D01*
X108904763Y-88952381D01*
X108809524Y-88952381D01*
X108714286Y-88904762D01*
X108666667Y-88857143D01*
X108619048Y-88761905D01*
X108571429Y-88571429D01*
X108571429Y-88333333D01*
X108619048Y-88142857D01*
X108666667Y-88047619D01*
X108714286Y-88000000D01*
X108809524Y-87952381D01*
X109904763Y-88428571D02*
X110047620Y-88476190D01*
X110095239Y-88523810D01*
X110142858Y-88619048D01*
X110142858Y-88761905D01*
X110095239Y-88857143D01*
X110047620Y-88904762D01*
X109952382Y-88952381D01*
X109571429Y-88952381D01*
X109571429Y-87952381D01*
X109904763Y-87952381D01*
X110000001Y-88000000D01*
X110047620Y-88047619D01*
X110095239Y-88142857D01*
X110095239Y-88238095D01*
X110047620Y-88333333D01*
X110000001Y-88380952D01*
X109904763Y-88428571D01*
X109571429Y-88428571D01*
X59181905Y-23952381D02*
X59181905Y-24666667D01*
X59134285Y-24809524D01*
X59039047Y-24904762D01*
X58896190Y-24952381D01*
X58800952Y-24952381D01*
X60181905Y-24952381D02*
X59610476Y-24952381D01*
X59896190Y-24952381D02*
X59896190Y-23952381D01*
X59800952Y-24095238D01*
X59705714Y-24190476D01*
X59610476Y-24238095D01*
X60800952Y-23952381D02*
X60896191Y-23952381D01*
X60991429Y-24000000D01*
X61039048Y-24047619D01*
X61086667Y-24142857D01*
X61134286Y-24333333D01*
X61134286Y-24571429D01*
X61086667Y-24761905D01*
X61039048Y-24857143D01*
X60991429Y-24904762D01*
X60896191Y-24952381D01*
X60800952Y-24952381D01*
X60705714Y-24904762D01*
X60658095Y-24857143D01*
X60610476Y-24761905D01*
X60562857Y-24571429D01*
X60562857Y-24333333D01*
X60610476Y-24142857D01*
X60658095Y-24047619D01*
X60705714Y-24000000D01*
X60800952Y-23952381D01*
X61515238Y-24666667D02*
X61991429Y-24666667D01*
X61420000Y-24952381D02*
X61753333Y-23952381D01*
X62086667Y-24952381D01*
X154309524Y-44952381D02*
X154309524Y-45666667D01*
X154261904Y-45809524D01*
X154166666Y-45904762D01*
X154023809Y-45952381D01*
X153928571Y-45952381D01*
X154928571Y-45380952D02*
X154833333Y-45333333D01*
X154785714Y-45285714D01*
X154738095Y-45190476D01*
X154738095Y-45142857D01*
X154785714Y-45047619D01*
X154833333Y-45000000D01*
X154928571Y-44952381D01*
X155119048Y-44952381D01*
X155214286Y-45000000D01*
X155261905Y-45047619D01*
X155309524Y-45142857D01*
X155309524Y-45190476D01*
X155261905Y-45285714D01*
X155214286Y-45333333D01*
X155119048Y-45380952D01*
X154928571Y-45380952D01*
X154833333Y-45428571D01*
X154785714Y-45476190D01*
X154738095Y-45571429D01*
X154738095Y-45761905D01*
X154785714Y-45857143D01*
X154833333Y-45904762D01*
X154928571Y-45952381D01*
X155119048Y-45952381D01*
X155214286Y-45904762D01*
X155261905Y-45857143D01*
X155309524Y-45761905D01*
X155309524Y-45571429D01*
X155261905Y-45476190D01*
X155214286Y-45428571D01*
X155119048Y-45380952D01*
X156023810Y-44952381D02*
X156023810Y-45666667D01*
X155976190Y-45809524D01*
X155880952Y-45904762D01*
X155738095Y-45952381D01*
X155642857Y-45952381D01*
X156547619Y-45952381D02*
X156738095Y-45952381D01*
X156833334Y-45904762D01*
X156880953Y-45857143D01*
X156976191Y-45714286D01*
X157023810Y-45523810D01*
X157023810Y-45142857D01*
X156976191Y-45047619D01*
X156928572Y-45000000D01*
X156833334Y-44952381D01*
X156642857Y-44952381D01*
X156547619Y-45000000D01*
X156500000Y-45047619D01*
X156452381Y-45142857D01*
X156452381Y-45380952D01*
X156500000Y-45476190D01*
X156547619Y-45523810D01*
X156642857Y-45571429D01*
X156833334Y-45571429D01*
X156928572Y-45523810D01*
X156976191Y-45476190D01*
X157023810Y-45380952D01*
X103166667Y-24452381D02*
X103166667Y-25166667D01*
X103119047Y-25309524D01*
X103023809Y-25404762D01*
X102880952Y-25452381D01*
X102785714Y-25452381D01*
X104119048Y-24452381D02*
X103642857Y-24452381D01*
X103595238Y-24928571D01*
X103642857Y-24880952D01*
X103738095Y-24833333D01*
X103976191Y-24833333D01*
X104071429Y-24880952D01*
X104119048Y-24928571D01*
X104166667Y-25023810D01*
X104166667Y-25261905D01*
X104119048Y-25357143D01*
X104071429Y-25404762D01*
X103976191Y-25452381D01*
X103738095Y-25452381D01*
X103642857Y-25404762D01*
X103595238Y-25357143D01*
X104928572Y-24928571D02*
X105071429Y-24976190D01*
X105119048Y-25023810D01*
X105166667Y-25119048D01*
X105166667Y-25261905D01*
X105119048Y-25357143D01*
X105071429Y-25404762D01*
X104976191Y-25452381D01*
X104595238Y-25452381D01*
X104595238Y-24452381D01*
X104928572Y-24452381D01*
X105023810Y-24500000D01*
X105071429Y-24547619D01*
X105119048Y-24642857D01*
X105119048Y-24738095D01*
X105071429Y-24833333D01*
X105023810Y-24880952D01*
X104928572Y-24928571D01*
X104595238Y-24928571D01*
X125738096Y-24452381D02*
X125738096Y-25166667D01*
X125690476Y-25309524D01*
X125595238Y-25404762D01*
X125452381Y-25452381D01*
X125357143Y-25452381D01*
X126690477Y-24452381D02*
X126214286Y-24452381D01*
X126166667Y-24928571D01*
X126214286Y-24880952D01*
X126309524Y-24833333D01*
X126547620Y-24833333D01*
X126642858Y-24880952D01*
X126690477Y-24928571D01*
X126738096Y-25023810D01*
X126738096Y-25261905D01*
X126690477Y-25357143D01*
X126642858Y-25404762D01*
X126547620Y-25452381D01*
X126309524Y-25452381D01*
X126214286Y-25404762D01*
X126166667Y-25357143D01*
X127119048Y-25166667D02*
X127595239Y-25166667D01*
X127023810Y-25452381D02*
X127357143Y-24452381D01*
X127690477Y-25452381D01*
X73166667Y-87952381D02*
X73166667Y-88666667D01*
X73119047Y-88809524D01*
X73023809Y-88904762D01*
X72880952Y-88952381D01*
X72785714Y-88952381D01*
X74071429Y-88285714D02*
X74071429Y-88952381D01*
X73833333Y-87904762D02*
X73595238Y-88619048D01*
X74214286Y-88619048D01*
X74928572Y-88428571D02*
X75071429Y-88476190D01*
X75119048Y-88523810D01*
X75166667Y-88619048D01*
X75166667Y-88761905D01*
X75119048Y-88857143D01*
X75071429Y-88904762D01*
X74976191Y-88952381D01*
X74595238Y-88952381D01*
X74595238Y-87952381D01*
X74928572Y-87952381D01*
X75023810Y-88000000D01*
X75071429Y-88047619D01*
X75119048Y-88142857D01*
X75119048Y-88238095D01*
X75071429Y-88333333D01*
X75023810Y-88380952D01*
X74928572Y-88428571D01*
X74595238Y-88428571D01*
X125761905Y-85952381D02*
X125761905Y-86666667D01*
X125714285Y-86809524D01*
X125619047Y-86904762D01*
X125476190Y-86952381D01*
X125380952Y-86952381D01*
X126666667Y-86285714D02*
X126666667Y-86952381D01*
X126428571Y-85904762D02*
X126190476Y-86619048D01*
X126809524Y-86619048D01*
X127142857Y-86666667D02*
X127619048Y-86666667D01*
X127047619Y-86952381D02*
X127380952Y-85952381D01*
X127714286Y-86952381D01*
X128571429Y-86952381D02*
X128000000Y-86952381D01*
X128285714Y-86952381D02*
X128285714Y-85952381D01*
X128190476Y-86095238D01*
X128095238Y-86190476D01*
X128000000Y-86238095D01*
X143214286Y-58952381D02*
X143214286Y-59666667D01*
X143166666Y-59809524D01*
X143071428Y-59904762D01*
X142928571Y-59952381D01*
X142833333Y-59952381D01*
X144214286Y-59952381D02*
X143642857Y-59952381D01*
X143928571Y-59952381D02*
X143928571Y-58952381D01*
X143833333Y-59095238D01*
X143738095Y-59190476D01*
X143642857Y-59238095D01*
X145119048Y-58952381D02*
X144642857Y-58952381D01*
X144595238Y-59428571D01*
X144642857Y-59380952D01*
X144738095Y-59333333D01*
X144976191Y-59333333D01*
X145071429Y-59380952D01*
X145119048Y-59428571D01*
X145166667Y-59523810D01*
X145166667Y-59761905D01*
X145119048Y-59857143D01*
X145071429Y-59904762D01*
X144976191Y-59952381D01*
X144738095Y-59952381D01*
X144642857Y-59904762D01*
X144595238Y-59857143D01*
X145928572Y-59428571D02*
X146071429Y-59476190D01*
X146119048Y-59523810D01*
X146166667Y-59619048D01*
X146166667Y-59761905D01*
X146119048Y-59857143D01*
X146071429Y-59904762D01*
X145976191Y-59952381D01*
X145595238Y-59952381D01*
X145595238Y-58952381D01*
X145928572Y-58952381D01*
X146023810Y-59000000D01*
X146071429Y-59047619D01*
X146119048Y-59142857D01*
X146119048Y-59238095D01*
X146071429Y-59333333D01*
X146023810Y-59380952D01*
X145928572Y-59428571D01*
X145595238Y-59428571D01*
X147119048Y-59952381D02*
X146547619Y-59952381D01*
X146833333Y-59952381D02*
X146833333Y-58952381D01*
X146738095Y-59095238D01*
X146642857Y-59190476D01*
X146547619Y-59238095D01*
X152785715Y-58952381D02*
X152785715Y-59666667D01*
X152738095Y-59809524D01*
X152642857Y-59904762D01*
X152500000Y-59952381D01*
X152404762Y-59952381D01*
X153785715Y-59952381D02*
X153214286Y-59952381D01*
X153500000Y-59952381D02*
X153500000Y-58952381D01*
X153404762Y-59095238D01*
X153309524Y-59190476D01*
X153214286Y-59238095D01*
X154690477Y-58952381D02*
X154214286Y-58952381D01*
X154166667Y-59428571D01*
X154214286Y-59380952D01*
X154309524Y-59333333D01*
X154547620Y-59333333D01*
X154642858Y-59380952D01*
X154690477Y-59428571D01*
X154738096Y-59523810D01*
X154738096Y-59761905D01*
X154690477Y-59857143D01*
X154642858Y-59904762D01*
X154547620Y-59952381D01*
X154309524Y-59952381D01*
X154214286Y-59904762D01*
X154166667Y-59857143D01*
X155119048Y-59666667D02*
X155595239Y-59666667D01*
X155023810Y-59952381D02*
X155357143Y-58952381D01*
X155690477Y-59952381D01*
X156547620Y-59952381D02*
X155976191Y-59952381D01*
X156261905Y-59952381D02*
X156261905Y-58952381D01*
X156166667Y-59095238D01*
X156071429Y-59190476D01*
X155976191Y-59238095D01*
D12*
X132583334Y-59357143D02*
X132535715Y-59404762D01*
X132392858Y-59452381D01*
X132297620Y-59452381D01*
X132154762Y-59404762D01*
X132059524Y-59309524D01*
X132011905Y-59214286D01*
X131964286Y-59023810D01*
X131964286Y-58880952D01*
X132011905Y-58690476D01*
X132059524Y-58595238D01*
X132154762Y-58500000D01*
X132297620Y-58452381D01*
X132392858Y-58452381D01*
X132535715Y-58500000D01*
X132583334Y-58547619D01*
X133535715Y-59452381D02*
X132964286Y-59452381D01*
X133250000Y-59452381D02*
X133250000Y-58452381D01*
X133154762Y-58595238D01*
X133059524Y-58690476D01*
X132964286Y-58738095D01*
X119357143Y-33916666D02*
X119404762Y-33964285D01*
X119452381Y-34107142D01*
X119452381Y-34202380D01*
X119404762Y-34345238D01*
X119309524Y-34440476D01*
X119214286Y-34488095D01*
X119023810Y-34535714D01*
X118880952Y-34535714D01*
X118690476Y-34488095D01*
X118595238Y-34440476D01*
X118500000Y-34345238D01*
X118452381Y-34202380D01*
X118452381Y-34107142D01*
X118500000Y-33964285D01*
X118547619Y-33916666D01*
X118547619Y-33535714D02*
X118500000Y-33488095D01*
X118452381Y-33392857D01*
X118452381Y-33154761D01*
X118500000Y-33059523D01*
X118547619Y-33011904D01*
X118642857Y-32964285D01*
X118738095Y-32964285D01*
X118880952Y-33011904D01*
X119452381Y-33583333D01*
X119452381Y-32964285D01*
M02*
