M48
;DRILL file {KiCad 4.0.2-stable} date 17/08/2016 20:10:55
;FORMAT={-:-/ absolute / metric / decimal}
FMAT,2
METRIC,TZ
T1C0.701
T2C0.762
T3C0.800
T4C0.800
T5C0.998
T6C1.000
T7C1.001
T8C1.016
T9C1.199
T10C3.200
%
G90
G05
M71
T1
X111.001Y-84.997
X121.161Y-84.997
T2
X122.5Y-54.5
X122.5Y-56.786
X122.5Y-59.072
T3
X108.5Y-32.38
X108.5Y-34.92
X108.5Y-37.46
X108.5Y-40.
X108.5Y-42.54
X108.5Y-45.08
X108.5Y-47.62
X108.5Y-50.16
X108.5Y-52.7
X108.5Y-55.24
X116.12Y-32.38
X116.12Y-34.92
X116.12Y-37.46
X116.12Y-40.
X116.12Y-42.54
X116.12Y-45.08
X116.12Y-47.62
X116.12Y-50.16
X116.12Y-52.7
X116.12Y-55.24
X121.5Y-35.
X126.38Y-62.72
X126.38Y-65.26
X126.38Y-67.8
X126.38Y-70.34
X126.38Y-72.88
X126.38Y-75.42
X126.38Y-77.96
X126.38Y-80.5
X134.Y-56.5
X134.Y-62.72
X134.Y-65.26
X134.Y-67.8
X134.Y-70.34
X134.Y-72.88
X134.Y-75.42
X134.Y-77.96
X134.Y-80.5
T4
X119.5Y-68.5
X119.5Y-71.04
X119.5Y-73.58
X119.5Y-76.12
X119.5Y-78.66
X121.5Y-32.5
X131.5Y-56.5
T5
X42.5Y-29.83
X42.5Y-80.63
X45.04Y-29.83
X45.04Y-80.63
X47.58Y-29.83
X47.58Y-80.63
X50.12Y-29.83
X50.12Y-80.63
X52.66Y-29.83
X52.66Y-80.63
X55.2Y-29.83
X55.2Y-80.63
X57.74Y-29.83
X57.74Y-80.63
X60.28Y-29.83
X60.28Y-80.63
X62.82Y-29.83
X62.82Y-80.63
X65.36Y-29.83
X65.36Y-80.63
X67.9Y-29.83
X67.9Y-80.63
X70.44Y-29.83
X70.44Y-80.63
X72.98Y-29.83
X72.98Y-80.63
X75.52Y-29.83
X75.52Y-80.63
X78.06Y-29.83
X78.06Y-80.63
X80.6Y-29.83
X80.6Y-80.63
X83.14Y-29.83
X83.14Y-80.63
X85.68Y-29.83
X85.68Y-80.63
X88.22Y-29.83
X88.22Y-80.63
X90.76Y-29.83
X90.76Y-80.63
X93.3Y-29.83
X93.3Y-80.63
X95.84Y-29.83
X95.84Y-80.63
X98.38Y-29.83
X98.38Y-80.63
X100.92Y-29.83
X100.92Y-80.63
T6
X53.38Y-93.96
X53.38Y-96.5
X55.34Y-16.96
X55.34Y-19.5
X55.92Y-93.96
X55.92Y-96.5
X56.712Y-45.7
X57.407Y-56.139
X57.88Y-16.96
X57.88Y-19.5
X58.46Y-93.96
X58.46Y-96.5
X58.512Y-45.7
X58.695Y-49.893
X59.204Y-56.036
X60.277Y-51.515
X60.42Y-16.96
X60.42Y-19.5
X60.976Y-45.498
X60.993Y-55.5
X60.994Y-55.5
X61.Y-93.96
X61.Y-96.5
X62.477Y-73.824
X62.68Y-71.424
X62.944Y-55.5
X62.96Y-16.96
X62.96Y-19.5
X63.197Y-69.7
X63.304Y-47.491
X63.54Y-93.96
X63.54Y-96.5
X65.087Y-47.243
X65.164Y-76.709
X65.387Y-55.8
X65.5Y-16.96
X65.5Y-19.5
X66.878Y-47.423
X66.879Y-76.162
X67.154Y-70.389
X68.22Y-56.585
X68.271Y-46.283
X68.663Y-51.714
X69.371Y-69.176
X70.463Y-51.712
X70.553Y-57.558
X71.264Y-47.268
X71.771Y-68.859
X72.257Y-52.068
X72.324Y-57.241
X73.04Y-70.136
X73.622Y-44.291
X74.139Y-57.467
X76.34Y-93.96
X76.34Y-96.5
X76.558Y-56.355
X77.34Y-17.
X77.34Y-19.54
X78.5Y-39.5
X78.88Y-93.96
X78.88Y-96.5
X79.88Y-17.
X79.88Y-19.54
X81.42Y-93.96
X81.42Y-96.5
X81.7Y-22.
X82.42Y-17.
X82.42Y-19.54
X82.521Y-27.6
X83.96Y-93.96
X83.96Y-96.5
X83.998Y-21.999
X84.321Y-27.6
X84.96Y-17.
X84.96Y-19.54
X85.61Y-22.8
X86.121Y-27.6
X86.5Y-93.96
X86.5Y-96.5
X87.5Y-17.
X87.5Y-19.54
X90.Y-62.5
X96.Y-87.5
X96.746Y-51.123
X97.Y-41.
X97.Y-91.
X97.955Y-54.854
X98.5Y-78.
X99.097Y-61.921
X99.34Y-93.96
X99.34Y-96.5
X99.5Y-16.96
X99.5Y-19.5
X99.728Y-48.935
X100.869Y-61.6
X101.504Y-49.227
X101.88Y-93.96
X101.88Y-96.5
X102.04Y-16.96
X102.04Y-19.5
X103.Y-91.
X104.198Y-88.774
X104.42Y-93.96
X104.42Y-96.5
X104.58Y-16.96
X104.58Y-19.5
X106.96Y-93.96
X106.96Y-96.5
X107.12Y-16.96
X107.12Y-19.5
X109.5Y-93.96
X109.5Y-96.5
X109.66Y-16.96
X109.66Y-19.5
X112.194Y-76.88
X112.199Y-78.685
X113.3Y-64.318
X113.3Y-66.666
X113.3Y-69.
X113.473Y-61.73
X113.923Y-72.566
X114.011Y-70.769
X114.099Y-74.358
X115.413Y-78.779
X116.5Y-73.5
X120.27Y-61.2
X121.84Y-93.96
X121.84Y-96.5
X121.96Y-17.
X121.96Y-19.54
X124.38Y-93.96
X124.38Y-96.5
X124.5Y-17.
X124.5Y-19.54
X126.92Y-93.96
X126.92Y-96.5
X127.04Y-17.
X127.04Y-19.54
X129.099Y-79.401
X129.46Y-93.96
X129.46Y-96.5
X129.58Y-17.
X129.58Y-19.54
X132.Y-93.96
X132.Y-96.5
X132.12Y-17.
X132.12Y-19.54
X137.18Y-54.844
X137.533Y-65.3
X138.Y-77.
X141.46Y-28.84
X141.46Y-31.38
X141.46Y-33.92
X141.46Y-36.46
X141.46Y-39.
X141.46Y-65.92
X141.46Y-68.46
X141.46Y-71.
X141.46Y-73.54
X141.46Y-76.08
X141.46Y-78.62
X141.46Y-81.16
X141.46Y-83.7
X144.Y-28.84
X144.Y-31.38
X144.Y-33.92
X144.Y-36.46
X144.Y-39.
X144.Y-65.92
X144.Y-68.46
X144.Y-71.
X144.Y-73.54
X144.Y-76.08
X144.Y-78.62
X144.Y-81.16
X144.Y-83.7
X151.46Y-28.84
X151.46Y-31.38
X151.46Y-33.92
X151.46Y-36.46
X151.46Y-39.
X151.46Y-66.
X151.46Y-68.54
X151.46Y-71.08
X151.46Y-73.62
X151.46Y-76.16
X151.46Y-78.7
X151.46Y-81.24
X151.46Y-83.78
X154.Y-28.84
X154.Y-31.38
X154.Y-33.92
X154.Y-36.46
X154.Y-39.
X154.Y-66.
X154.Y-68.54
X154.Y-71.08
X154.Y-73.62
X154.Y-76.16
X154.Y-78.7
X154.Y-81.24
X154.Y-83.78
T7
X42.5Y-32.37
X42.5Y-83.17
X45.04Y-32.37
X45.04Y-83.17
X47.58Y-32.37
X47.58Y-83.17
X50.12Y-32.37
X50.12Y-83.17
X52.66Y-32.37
X52.66Y-83.17
X55.2Y-32.37
X55.2Y-83.17
X57.74Y-32.37
X57.74Y-83.17
X60.28Y-32.37
X60.28Y-83.17
X62.82Y-32.37
X62.82Y-83.17
X65.36Y-32.37
X65.36Y-83.17
X67.9Y-32.37
X67.9Y-83.17
X70.44Y-32.37
X70.44Y-83.17
X72.98Y-32.37
X72.98Y-83.17
X75.52Y-32.37
X75.52Y-83.17
X78.06Y-32.37
X78.06Y-83.17
X80.6Y-32.37
X80.6Y-83.17
X83.14Y-32.37
X83.14Y-83.17
X85.68Y-32.37
X85.68Y-83.17
X88.22Y-32.37
X88.22Y-83.17
X90.76Y-32.37
X90.76Y-83.17
X93.3Y-32.37
X93.3Y-83.17
X95.84Y-32.37
X95.84Y-83.17
X98.38Y-32.37
X98.38Y-83.17
X100.92Y-32.37
X100.92Y-83.17
X103.46Y-29.83
X103.46Y-32.37
X103.46Y-80.63
X103.46Y-83.17
T8
X77.Y-86.5
X79.Y-89.
X88.43Y-86.5
X90.43Y-89.
X110.07Y-81.5
X114.785Y-88.
X121.5Y-81.5
X125.07Y-48.5
X125.07Y-52.
X126.215Y-88.
X128.285Y-88.
X136.5Y-48.5
X136.5Y-52.
X139.715Y-88.
X139.96Y-91.5
X140.46Y-96.
X141.5Y-16.
X141.96Y-20.5
X142.5Y-91.5
X143.Y-96.
X144.04Y-16.
X144.5Y-20.5
X145.04Y-91.5
T9
X140.001Y-50.001
X142.5Y-55.
X144.999Y-50.001
X150.001Y-50.001
X152.5Y-55.
X154.999Y-50.001
T10
X44.Y-17.
X44.Y-96.
X154.Y-17.
X154.Y-96.
T0
M30
