G04 #@! TF.FileFunction,Copper,L2,Bot,Signal*
%FSLAX46Y46*%
G04 Gerber Fmt 4.6, Leading zero omitted, Abs format (unit mm)*
G04 Created by KiCad (PCBNEW 4.0.2-stable) date 17/08/2016 20:10:52*
%MOMM*%
G01*
G04 APERTURE LIST*
%ADD10C,0.100000*%
%ADD11O,1.600000X1.600000*%
%ADD12O,1.500000X2.000000*%
%ADD13R,1.500000X2.000000*%
%ADD14C,5.700000*%
%ADD15C,1.699260*%
%ADD16R,1.699260X1.699260*%
%ADD17R,2.032000X2.032000*%
%ADD18O,2.032000X2.032000*%
%ADD19R,1.727200X2.032000*%
%ADD20O,1.727200X2.032000*%
%ADD21R,2.199640X1.524000*%
%ADD22O,2.199640X1.524000*%
%ADD23C,1.524000*%
%ADD24C,2.499360*%
%ADD25R,1.727200X1.727200*%
%ADD26O,1.727200X1.727200*%
%ADD27O,2.000000X1.500000*%
%ADD28R,2.000000X1.500000*%
%ADD29R,1.300000X1.300000*%
%ADD30C,1.300000*%
%ADD31C,1.500000*%
%ADD32C,0.300000*%
%ADD33C,0.254000*%
G04 APERTURE END LIST*
D10*
D11*
X108500000Y-32380000D03*
X108500000Y-34920000D03*
X108500000Y-37460000D03*
X108500000Y-40000000D03*
X108500000Y-42540000D03*
X108500000Y-45080000D03*
X108500000Y-47620000D03*
X108500000Y-50160000D03*
X108500000Y-52700000D03*
X108500000Y-55240000D03*
X116120000Y-55240000D03*
X116120000Y-52700000D03*
X116120000Y-50160000D03*
X116120000Y-47620000D03*
X116120000Y-45080000D03*
X116120000Y-42540000D03*
X116120000Y-40000000D03*
X116120000Y-37460000D03*
X116120000Y-34920000D03*
X116120000Y-32380000D03*
X134000000Y-80500000D03*
X134000000Y-77960000D03*
X134000000Y-75420000D03*
X134000000Y-72880000D03*
X134000000Y-70340000D03*
X134000000Y-67800000D03*
X134000000Y-65260000D03*
X134000000Y-62720000D03*
X126380000Y-62720000D03*
X126380000Y-65260000D03*
X126380000Y-67800000D03*
X126380000Y-70340000D03*
X126380000Y-72880000D03*
X126380000Y-75420000D03*
X126380000Y-77960000D03*
X126380000Y-80500000D03*
D12*
X42500000Y-80380000D03*
X45040000Y-80380000D03*
X47580000Y-80380000D03*
X50120000Y-80380000D03*
X52660000Y-80380000D03*
X55200000Y-80380000D03*
X57740000Y-80380000D03*
X60280000Y-80380000D03*
X62820000Y-80380000D03*
X65360000Y-80380000D03*
X67900000Y-80380000D03*
X70440000Y-80380000D03*
X72980000Y-80380000D03*
X75520000Y-80380000D03*
X78060000Y-80380000D03*
X80600000Y-80380000D03*
X83140000Y-80380000D03*
X85680000Y-80380000D03*
X88220000Y-80380000D03*
X90760000Y-80380000D03*
X93300000Y-80380000D03*
X95840000Y-80380000D03*
X98380000Y-80380000D03*
X100920000Y-80380000D03*
D13*
X103460000Y-80380000D03*
D12*
X103460000Y-83420000D03*
X100920000Y-83420000D03*
X98380000Y-83420000D03*
X95840000Y-83420000D03*
X93300000Y-83420000D03*
X90760000Y-83420000D03*
X88220000Y-83420000D03*
X85680000Y-83420000D03*
X83140000Y-83420000D03*
X80600000Y-83420000D03*
X78060000Y-83420000D03*
X75520000Y-83420000D03*
X72980000Y-83420000D03*
X70440000Y-83420000D03*
X67900000Y-83420000D03*
X65360000Y-83420000D03*
X62820000Y-83420000D03*
X60280000Y-83420000D03*
X57740000Y-83420000D03*
X55200000Y-83420000D03*
X52660000Y-83420000D03*
X50120000Y-83420000D03*
X47580000Y-83420000D03*
X45040000Y-83420000D03*
X42500000Y-83420000D03*
X42500000Y-32620000D03*
X45040000Y-32620000D03*
X47580000Y-32620000D03*
X50120000Y-32620000D03*
X52660000Y-32620000D03*
X55200000Y-32620000D03*
X57740000Y-32620000D03*
X60280000Y-32620000D03*
X62820000Y-32620000D03*
X65360000Y-32620000D03*
X67900000Y-32620000D03*
X70440000Y-32620000D03*
X72980000Y-32620000D03*
X75520000Y-32620000D03*
X78060000Y-32620000D03*
X80600000Y-32620000D03*
X83140000Y-32620000D03*
X85680000Y-32620000D03*
X88220000Y-32620000D03*
X90760000Y-32620000D03*
X93300000Y-32620000D03*
X95840000Y-32620000D03*
X98380000Y-32620000D03*
X100920000Y-32620000D03*
X103460000Y-32620000D03*
D13*
X103460000Y-29580000D03*
D12*
X100920000Y-29580000D03*
X98380000Y-29580000D03*
X95840000Y-29580000D03*
X93300000Y-29580000D03*
X90760000Y-29580000D03*
X88220000Y-29580000D03*
X85680000Y-29580000D03*
X83140000Y-29580000D03*
X80600000Y-29580000D03*
X78060000Y-29580000D03*
X75520000Y-29580000D03*
X72980000Y-29580000D03*
X70440000Y-29580000D03*
X67900000Y-29580000D03*
X65360000Y-29580000D03*
X62820000Y-29580000D03*
X60280000Y-29580000D03*
X57740000Y-29580000D03*
X55200000Y-29580000D03*
X52660000Y-29580000D03*
X50120000Y-29580000D03*
X47580000Y-29580000D03*
X45040000Y-29580000D03*
X42500000Y-29580000D03*
D14*
X44000000Y-96000000D03*
D15*
X121160520Y-84997460D03*
D16*
X111000520Y-84997460D03*
D17*
X141500000Y-16000000D03*
D18*
X144040000Y-16000000D03*
D19*
X139960000Y-91500000D03*
D20*
X142500000Y-91500000D03*
X145040000Y-91500000D03*
D17*
X141960000Y-20500000D03*
D18*
X144500000Y-20500000D03*
D21*
X119500000Y-78660000D03*
D22*
X119500000Y-76120000D03*
X119500000Y-73580000D03*
X119500000Y-71040000D03*
X119500000Y-68500000D03*
D23*
X110070000Y-81500000D03*
X121500000Y-81500000D03*
X128285000Y-88000000D03*
X139715000Y-88000000D03*
X79000000Y-89000000D03*
X90430000Y-89000000D03*
X136500000Y-52000000D03*
X125070000Y-52000000D03*
X88430000Y-86500000D03*
X77000000Y-86500000D03*
X114785000Y-88000000D03*
X126215000Y-88000000D03*
X125070000Y-48500000D03*
X136500000Y-48500000D03*
D24*
X142500000Y-55000000D03*
X140000640Y-50001280D03*
X144999360Y-50001280D03*
X152500000Y-55000000D03*
X150000640Y-50001280D03*
X154999360Y-50001280D03*
D25*
X140460000Y-96000000D03*
D26*
X143000000Y-96000000D03*
D23*
X122500000Y-56786000D03*
X122500000Y-59072000D03*
X122500000Y-54500000D03*
D27*
X144250000Y-28840000D03*
X141210000Y-28840000D03*
X141210000Y-31380000D03*
X144250000Y-31380000D03*
D28*
X144250000Y-39000000D03*
D27*
X141210000Y-39000000D03*
X144250000Y-36460000D03*
X141210000Y-36460000D03*
X144250000Y-33920000D03*
X141210000Y-33920000D03*
D12*
X77340000Y-16750000D03*
X77340000Y-19790000D03*
X79880000Y-19790000D03*
X79880000Y-16750000D03*
D13*
X87500000Y-16750000D03*
D12*
X87500000Y-19790000D03*
X84960000Y-16750000D03*
X84960000Y-19790000D03*
X82420000Y-16750000D03*
X82420000Y-19790000D03*
X53380000Y-93710000D03*
X53380000Y-96750000D03*
X55920000Y-96750000D03*
X55920000Y-93710000D03*
D13*
X63540000Y-93710000D03*
D12*
X63540000Y-96750000D03*
X61000000Y-93710000D03*
X61000000Y-96750000D03*
X58460000Y-93710000D03*
X58460000Y-96750000D03*
X99340000Y-93710000D03*
X99340000Y-96750000D03*
X101880000Y-96750000D03*
X101880000Y-93710000D03*
D13*
X109500000Y-93710000D03*
D12*
X109500000Y-96750000D03*
X106960000Y-93710000D03*
X106960000Y-96750000D03*
X104420000Y-93710000D03*
X104420000Y-96750000D03*
X55340000Y-16710000D03*
X55340000Y-19750000D03*
X57880000Y-19750000D03*
X57880000Y-16710000D03*
D13*
X65500000Y-16710000D03*
D12*
X65500000Y-19750000D03*
X62960000Y-16710000D03*
X62960000Y-19750000D03*
X60420000Y-16710000D03*
X60420000Y-19750000D03*
D27*
X154250000Y-28840000D03*
X151210000Y-28840000D03*
X151210000Y-31380000D03*
X154250000Y-31380000D03*
D28*
X154250000Y-39000000D03*
D27*
X151210000Y-39000000D03*
X154250000Y-36460000D03*
X151210000Y-36460000D03*
X154250000Y-33920000D03*
X151210000Y-33920000D03*
D12*
X99500000Y-16710000D03*
X99500000Y-19750000D03*
X102040000Y-19750000D03*
X102040000Y-16710000D03*
D13*
X109660000Y-16710000D03*
D12*
X109660000Y-19750000D03*
X107120000Y-16710000D03*
X107120000Y-19750000D03*
X104580000Y-16710000D03*
X104580000Y-19750000D03*
X121960000Y-16750000D03*
X121960000Y-19790000D03*
X124500000Y-19790000D03*
X124500000Y-16750000D03*
D13*
X132120000Y-16750000D03*
D12*
X132120000Y-19790000D03*
X129580000Y-16750000D03*
X129580000Y-19790000D03*
X127040000Y-16750000D03*
X127040000Y-19790000D03*
X86500000Y-96750000D03*
X86500000Y-93710000D03*
X83960000Y-93710000D03*
X83960000Y-96750000D03*
D13*
X76340000Y-96750000D03*
D12*
X76340000Y-93710000D03*
X78880000Y-96750000D03*
X78880000Y-93710000D03*
X81420000Y-96750000D03*
X81420000Y-93710000D03*
X132000000Y-96750000D03*
X132000000Y-93710000D03*
X129460000Y-93710000D03*
X129460000Y-96750000D03*
D13*
X121840000Y-96750000D03*
D12*
X121840000Y-93710000D03*
X124380000Y-96750000D03*
X124380000Y-93710000D03*
X126920000Y-96750000D03*
X126920000Y-93710000D03*
D27*
X144250000Y-83700000D03*
X141210000Y-83700000D03*
X141210000Y-81160000D03*
X144250000Y-81160000D03*
X144250000Y-78620000D03*
X141210000Y-78620000D03*
X141210000Y-76080000D03*
X144250000Y-76080000D03*
X144250000Y-73540000D03*
X141210000Y-73540000D03*
D28*
X141210000Y-65920000D03*
D27*
X144250000Y-65920000D03*
X141210000Y-68460000D03*
X144250000Y-68460000D03*
X141210000Y-71000000D03*
X144250000Y-71000000D03*
X154250000Y-83780000D03*
X151210000Y-83780000D03*
X151210000Y-81240000D03*
X154250000Y-81240000D03*
X154250000Y-78700000D03*
X151210000Y-78700000D03*
X151210000Y-76160000D03*
X154250000Y-76160000D03*
X154250000Y-73620000D03*
X151210000Y-73620000D03*
D28*
X151210000Y-66000000D03*
D27*
X154250000Y-66000000D03*
X151210000Y-68540000D03*
X154250000Y-68540000D03*
X151210000Y-71080000D03*
X154250000Y-71080000D03*
D14*
X154000000Y-17000000D03*
X44000000Y-17000000D03*
X154000000Y-96000000D03*
D29*
X134000000Y-56500000D03*
D30*
X131500000Y-56500000D03*
D29*
X121500000Y-35000000D03*
D30*
X121500000Y-32500000D03*
D31*
X78500000Y-39500000D03*
X97000000Y-41000000D03*
X90000000Y-62500000D03*
X98500000Y-78000000D03*
X115413165Y-78778574D03*
X65164280Y-76709311D03*
X112194030Y-76880242D03*
X66879094Y-76162085D03*
X112199263Y-78684947D03*
X71264324Y-47268185D03*
X74139205Y-57466626D03*
X59203954Y-56035604D03*
X63303889Y-47491423D03*
X68663282Y-51713926D03*
X68220284Y-56584960D03*
X70463293Y-51712056D03*
X70552601Y-57558340D03*
X60975931Y-45497750D03*
X60276531Y-51515157D03*
X58511866Y-45700021D03*
X58695276Y-49893393D03*
X97954577Y-54854263D03*
X96745977Y-51123210D03*
X73039756Y-70136212D03*
X113472817Y-61730204D03*
X71771085Y-68859296D03*
X113300031Y-64317976D03*
X69371063Y-69176134D03*
X113300031Y-66665580D03*
X67153753Y-70388632D03*
X113300031Y-69000000D03*
X62477430Y-73824363D03*
X114098542Y-74357765D03*
X129098542Y-79401458D03*
X138000000Y-77000000D03*
X99728179Y-48935239D03*
X99097425Y-61921124D03*
X101504367Y-49227127D03*
X100868577Y-61600088D03*
X72256665Y-52068250D03*
X72324340Y-57240560D03*
X104197881Y-88773687D03*
X96000000Y-87500000D03*
X97000000Y-91000000D03*
X103000000Y-91000000D03*
X76557926Y-56354989D03*
X73622490Y-44290594D03*
X68271298Y-46283192D03*
X65387311Y-55799980D03*
X57406898Y-56138728D03*
X56711855Y-45700002D03*
X62943694Y-55499947D03*
X66877758Y-47422529D03*
X137533304Y-65300031D03*
X120269972Y-61199969D03*
X137179559Y-54843555D03*
X62680259Y-71424341D03*
X113922620Y-72566370D03*
X116500000Y-73500000D03*
X63196746Y-69700020D03*
X114010974Y-70768528D03*
X83997999Y-21999006D03*
X84321144Y-27600067D03*
X82521133Y-27600051D03*
X81699987Y-22000000D03*
X85609980Y-22799980D03*
X86121155Y-27600064D03*
X60992642Y-55499947D03*
X60993534Y-55499947D03*
X65086702Y-47243189D03*
D32*
X131000000Y-74500000D02*
X129999999Y-74500000D01*
X131500000Y-71832913D02*
X131500000Y-74000000D01*
X131000000Y-74500000D02*
X131500000Y-74000000D01*
X134000000Y-60869998D02*
X135250001Y-62119999D01*
X133439997Y-63970001D02*
X132000000Y-65409998D01*
X128230012Y-66730012D02*
X127511370Y-66011370D01*
X135250001Y-62119999D02*
X135250001Y-63320001D01*
X135250001Y-63320001D02*
X134600001Y-63970001D01*
X134600001Y-63970001D02*
X133439997Y-63970001D01*
X132000000Y-65409998D02*
X132000000Y-71332913D01*
X132000000Y-71332913D02*
X131500000Y-71832913D01*
X127511370Y-65260000D02*
X126380000Y-65260000D01*
X129999999Y-74500000D02*
X128230012Y-72730013D01*
X127511370Y-66011370D02*
X127511370Y-65260000D01*
X128230012Y-72730013D02*
X128230012Y-66730012D01*
X131748532Y-61899989D02*
X132970009Y-61899989D01*
X131318542Y-61469999D02*
X131748532Y-61899989D01*
X117990605Y-78660000D02*
X115488401Y-76157796D01*
X119500000Y-78660000D02*
X117990605Y-78660000D01*
X115488401Y-76157796D02*
X113183990Y-76157796D01*
X111500000Y-61157395D02*
X113000000Y-59657395D01*
X113000000Y-59657395D02*
X114023797Y-59657395D01*
X132970009Y-61899989D02*
X133399999Y-61469999D01*
X133399999Y-61469999D02*
X134000000Y-60869998D01*
X111500000Y-74473806D02*
X111500000Y-61157395D01*
X114023797Y-59657395D02*
X116766391Y-62399989D01*
X124850009Y-62399989D02*
X125779999Y-61469999D01*
X116766391Y-62399989D02*
X124850009Y-62399989D01*
X113183990Y-76157796D02*
X111500000Y-74473806D01*
X125779999Y-61469999D02*
X131318542Y-61469999D01*
X138312012Y-49330293D02*
X136854306Y-50787999D01*
X138312012Y-49036530D02*
X138312012Y-49330293D01*
X139046943Y-48301599D02*
X138312012Y-49036530D01*
X144999360Y-50001280D02*
X143299679Y-48301599D01*
X143299679Y-48301599D02*
X139046943Y-48301599D01*
X136854306Y-50787999D02*
X135918239Y-50787999D01*
X134000000Y-55550000D02*
X134000000Y-56500000D01*
X135287999Y-54262001D02*
X134000000Y-55550000D01*
X135918239Y-50787999D02*
X135287999Y-51418239D01*
X135287999Y-51418239D02*
X135287999Y-54262001D01*
X134000000Y-56500000D02*
X134000000Y-60869998D01*
X125248630Y-80500000D02*
X126380000Y-80500000D01*
X124151458Y-80500000D02*
X125248630Y-80500000D01*
X119500000Y-78660000D02*
X122311458Y-78660000D01*
X122311458Y-78660000D02*
X124151458Y-80500000D01*
X142960000Y-86000000D02*
X142500000Y-86460000D01*
X142500000Y-86460000D02*
X142500000Y-91500000D01*
X132578940Y-86000000D02*
X142960000Y-86000000D01*
X131826019Y-85247078D02*
X132578940Y-86000000D01*
X131127078Y-85247078D02*
X131826019Y-85247078D01*
X126380000Y-80500000D02*
X131127078Y-85247078D01*
X142960000Y-84740000D02*
X142960000Y-86000000D01*
X144000000Y-83700000D02*
X142960000Y-84740000D01*
X148200000Y-83700000D02*
X149480010Y-84980010D01*
X149480010Y-84980010D02*
X152799990Y-84980010D01*
X152799990Y-84980010D02*
X154000000Y-83780000D01*
X144000000Y-83700000D02*
X148200000Y-83700000D01*
X51320010Y-25000000D02*
X51320010Y-30327060D01*
X51320010Y-18782920D02*
X51320010Y-25000000D01*
X131700000Y-83700000D02*
X127210001Y-79210001D01*
X124809998Y-63000000D02*
X125779999Y-63970001D01*
X141460000Y-83700000D02*
X131700000Y-83700000D01*
X116517859Y-63000000D02*
X124809998Y-63000000D01*
X121832010Y-77332010D02*
X117511158Y-77332010D01*
X127210001Y-79210001D02*
X123710001Y-79210001D01*
X113432521Y-75557785D02*
X112100011Y-74225275D01*
X123710001Y-79210001D02*
X121832010Y-77332010D01*
X112100011Y-61405926D02*
X113248531Y-60257406D01*
X112100011Y-74225275D02*
X112100011Y-61405926D01*
X113775265Y-60257406D02*
X116517859Y-63000000D01*
X125779999Y-63970001D02*
X126980001Y-63970001D01*
X128230002Y-62720000D02*
X132868630Y-62720000D01*
X115736933Y-75557785D02*
X113432521Y-75557785D01*
X126980001Y-63970001D02*
X128230002Y-62720000D01*
X132868630Y-62720000D02*
X134000000Y-62720000D01*
X113248531Y-60257406D02*
X113775265Y-60257406D01*
X117511158Y-77332010D02*
X115736933Y-75557785D01*
X114830001Y-31129999D02*
X113580000Y-32380000D01*
X132120000Y-17000000D02*
X133320010Y-18200010D01*
X133320010Y-18200010D02*
X133320010Y-20537060D01*
X133320010Y-20537060D02*
X122727071Y-31129999D01*
X122727071Y-31129999D02*
X114830001Y-31129999D01*
X108500000Y-32380000D02*
X113580000Y-32380000D01*
X113580000Y-32380000D02*
X116120000Y-34920000D01*
X103460000Y-32370000D02*
X103460000Y-29830000D01*
X105419999Y-31580001D02*
X104630000Y-32370000D01*
X104630000Y-32370000D02*
X103460000Y-32370000D01*
X108500000Y-32380000D02*
X107700001Y-31580001D01*
X107700001Y-31580001D02*
X105419999Y-31580001D01*
X116120000Y-34920000D02*
X121420000Y-34920000D01*
X121420000Y-34920000D02*
X121500000Y-35000000D01*
X134500000Y-17000000D02*
X136966001Y-14533999D01*
X136966001Y-14533999D02*
X144010839Y-14533999D01*
X144010839Y-14533999D02*
X144040000Y-14563160D01*
X144040000Y-14563160D02*
X144040000Y-16000000D01*
X132120000Y-17000000D02*
X134500000Y-17000000D01*
X87500000Y-17000000D02*
X89840021Y-14659979D01*
X89840021Y-14659979D02*
X100245592Y-14659979D01*
X100245592Y-14659979D02*
X100845602Y-15259990D01*
X100845602Y-15259990D02*
X107959990Y-15259990D01*
X107959990Y-15259990D02*
X109660000Y-16960000D01*
X78880000Y-93960000D02*
X76340000Y-93960000D01*
X76340000Y-96500000D02*
X76340000Y-93960000D01*
X83960000Y-96500000D02*
X86500000Y-96500000D01*
X81420000Y-96500000D02*
X83960000Y-96500000D01*
X78880000Y-96500000D02*
X81420000Y-96500000D01*
X76340000Y-96500000D02*
X78880000Y-96500000D01*
X150000640Y-50001280D02*
X147700948Y-47701588D01*
X147700948Y-47701588D02*
X138798412Y-47701588D01*
X131500000Y-55580762D02*
X131500000Y-56500000D01*
X147700948Y-47701588D02*
X138798411Y-47701588D01*
X138798411Y-47701588D02*
X137712001Y-48787998D01*
X137712001Y-48787998D02*
X137712001Y-49081761D01*
X137712001Y-49081761D02*
X136605774Y-50187988D01*
X136605774Y-50187988D02*
X135669707Y-50187988D01*
X135669707Y-50187988D02*
X131500000Y-54357695D01*
X131500000Y-54357695D02*
X131500000Y-55580762D01*
X150000640Y-50001280D02*
X148300959Y-51700961D01*
X148300959Y-51700961D02*
X141700321Y-51700961D01*
X141700321Y-51700961D02*
X141250319Y-51250959D01*
X141250319Y-51250959D02*
X140000640Y-50001280D01*
X144000000Y-39000000D02*
X141460000Y-39000000D01*
X151460000Y-39000000D02*
X154000000Y-39000000D01*
X103460000Y-80630000D02*
X103460000Y-83170000D01*
X109500000Y-93960000D02*
X109500000Y-89210000D01*
X109500000Y-89210000D02*
X103460000Y-83170000D01*
X121840000Y-93960000D02*
X109500000Y-93960000D01*
X124380000Y-93960000D02*
X121840000Y-93960000D01*
X124380000Y-93960000D02*
X124380000Y-96500000D01*
X129460000Y-96500000D02*
X132000000Y-96500000D01*
X126920000Y-96500000D02*
X129460000Y-96500000D01*
X124380000Y-96500000D02*
X126920000Y-96500000D01*
X121840000Y-96500000D02*
X124380000Y-96500000D01*
X65157070Y-16960000D02*
X63457060Y-15259990D01*
X65500000Y-16960000D02*
X65157070Y-16960000D01*
X63457060Y-15259990D02*
X54842940Y-15259990D01*
X54842940Y-15259990D02*
X51320010Y-18782920D01*
X51320010Y-30327060D02*
X50617060Y-31030010D01*
X50617060Y-31030010D02*
X43700010Y-31030010D01*
X43700010Y-31030010D02*
X42500000Y-29830000D01*
X79958390Y-24000002D02*
X79958390Y-24041610D01*
X79958390Y-24041610D02*
X75520000Y-28480000D01*
X75520000Y-28480000D02*
X75520000Y-29830000D01*
X75520000Y-29324387D02*
X75520000Y-29830000D01*
X87499999Y-24000001D02*
X79958390Y-24000002D01*
X88500000Y-23000000D02*
X87499999Y-24000001D01*
X88500000Y-21000000D02*
X88500000Y-23000000D01*
X87500000Y-20000000D02*
X88500000Y-21000000D01*
X87500000Y-19540000D02*
X87500000Y-20000000D01*
X131500000Y-56500000D02*
X125072000Y-56500000D01*
X125072000Y-56500000D02*
X122500000Y-59072000D01*
X121380000Y-34880000D02*
X121500000Y-35000000D01*
X135899989Y-64500000D02*
X135899989Y-65442720D01*
X136500000Y-64100011D02*
X136299978Y-64100011D01*
X136299978Y-64100011D02*
X135899989Y-64500000D01*
X135899989Y-59000000D02*
X135899989Y-63000000D01*
X135899989Y-63000000D02*
X135899989Y-63500000D01*
X136500000Y-64100011D02*
X144377081Y-64100011D01*
X135899989Y-63500000D02*
X136500000Y-64100011D01*
X140879967Y-66500033D02*
X141460000Y-65920000D01*
X135899989Y-65442720D02*
X136957302Y-66500033D01*
X149500000Y-66000000D02*
X151460000Y-66000000D01*
X145677070Y-65400001D02*
X148900001Y-65400001D01*
X136957302Y-66500033D02*
X140879967Y-66500033D01*
X148900001Y-65400001D02*
X149500000Y-66000000D01*
X144377081Y-64100011D02*
X145677070Y-65400001D01*
X135899989Y-54347123D02*
X135899989Y-59000000D01*
X151684152Y-56699681D02*
X148284790Y-53300319D01*
X153315848Y-56699681D02*
X151684152Y-56699681D01*
X154999360Y-55016169D02*
X153315848Y-56699681D01*
X136946793Y-53300319D02*
X135899989Y-54347123D01*
X148284790Y-53300319D02*
X136946793Y-53300319D01*
X154999360Y-50001280D02*
X154999360Y-55016169D01*
X151460000Y-66000000D02*
X151151458Y-66000000D01*
X151460000Y-66000000D02*
X151000000Y-66000000D01*
X146204174Y-43000000D02*
X126348542Y-43000000D01*
X116957610Y-57690020D02*
X118647630Y-56000000D01*
X118647630Y-56000000D02*
X125070000Y-49577630D01*
X151460000Y-36460000D02*
X149388542Y-36460000D01*
X149388542Y-36460000D02*
X148700065Y-37148477D01*
X148700065Y-37148477D02*
X148700065Y-40504109D01*
X148700065Y-40504109D02*
X146204174Y-43000000D01*
X126348542Y-43000000D02*
X119170034Y-50178508D01*
X119170034Y-50178508D02*
X119170034Y-55477596D01*
X119170034Y-55477596D02*
X118647630Y-56000000D01*
X86500000Y-93960000D02*
X84199979Y-91659979D01*
X84199979Y-91659979D02*
X82159979Y-91659979D01*
X80500000Y-85467070D02*
X81800010Y-84167060D01*
X82159979Y-91659979D02*
X80500000Y-90000000D01*
X80500000Y-90000000D02*
X80500000Y-85467070D01*
X81800010Y-84167060D02*
X81800010Y-84027080D01*
X141960000Y-24445844D02*
X141960000Y-21816000D01*
X141960000Y-21816000D02*
X141960000Y-20500000D01*
X133905844Y-32500000D02*
X141960000Y-24445844D01*
X121500000Y-32500000D02*
X133905844Y-32500000D01*
X77289459Y-55310520D02*
X77500000Y-55099979D01*
X77757927Y-55778988D02*
X77289459Y-55310520D01*
X74500000Y-64729086D02*
X74500000Y-60499999D01*
X77757927Y-57242072D02*
X77757927Y-55778988D01*
X77839824Y-68068910D02*
X74500000Y-64729086D01*
X77839824Y-72839824D02*
X77839824Y-68068910D01*
X83000000Y-78000000D02*
X77839824Y-72839824D01*
X98290000Y-78000000D02*
X83000000Y-78000000D01*
X84272930Y-86500000D02*
X87352370Y-86500000D01*
X75326107Y-56899174D02*
X75864923Y-57437993D01*
X87352370Y-86500000D02*
X88430000Y-86500000D01*
X81800010Y-84027080D02*
X84272930Y-86500000D01*
X77500000Y-55099979D02*
X76115853Y-55099979D01*
X76639802Y-68565973D02*
X76639802Y-74336888D01*
X73299978Y-60002936D02*
X73299978Y-65226149D01*
X75326107Y-55889724D02*
X75326107Y-56899174D01*
X100920000Y-80630000D02*
X98290000Y-78000000D01*
X74500000Y-60499999D02*
X77757927Y-57242072D01*
X76639802Y-74336888D02*
X81800010Y-79497096D01*
X81800010Y-79497096D02*
X81800010Y-84027080D01*
X73299978Y-65226149D02*
X76639802Y-68565973D01*
X76115853Y-55099979D02*
X75326107Y-55889724D01*
X75864923Y-57437993D02*
X73299978Y-60002936D01*
X83678897Y-55099979D02*
X94806125Y-55099979D01*
X97000000Y-57293854D02*
X107006768Y-57293854D01*
X94806125Y-55099979D02*
X97000000Y-57293854D01*
X83678897Y-55099979D02*
X77500000Y-55099979D01*
X107402935Y-57690020D02*
X116957610Y-57690020D01*
X107006768Y-57293854D02*
X107402935Y-57690020D01*
X125070000Y-49577630D02*
X125070000Y-48500000D01*
X100920000Y-80359998D02*
X102349999Y-78929999D01*
X100920000Y-80630000D02*
X100920000Y-80359998D01*
X104660001Y-82863289D02*
X109796712Y-88000000D01*
X113707370Y-88000000D02*
X114785000Y-88000000D01*
X114663166Y-79528573D02*
X115413165Y-78778574D01*
X113903740Y-80287999D02*
X114663166Y-79528573D01*
X109488239Y-80287999D02*
X113903740Y-80287999D01*
X104535828Y-78929999D02*
X104660001Y-79054173D01*
X109796712Y-88000000D02*
X113707370Y-88000000D01*
X104660001Y-79054173D02*
X104660001Y-82863289D01*
X102349999Y-78929999D02*
X104535828Y-78929999D01*
X100920000Y-80630000D02*
X98499947Y-78209947D01*
X116120000Y-32380000D02*
X121380000Y-32380000D01*
X121380000Y-32380000D02*
X121500000Y-32500000D01*
X134500000Y-96460000D02*
X132000000Y-93960000D01*
X139960000Y-91500000D02*
X139960000Y-91652400D01*
X139960000Y-91652400D02*
X141123600Y-92816000D01*
X141123600Y-92816000D02*
X141760130Y-92816000D01*
X141760130Y-92816000D02*
X144313601Y-95369471D01*
X144313601Y-95369471D02*
X144313601Y-96630529D01*
X144313601Y-96630529D02*
X143630529Y-97313601D01*
X143630529Y-97313601D02*
X135353601Y-97313601D01*
X135353601Y-97313601D02*
X134500000Y-96460000D01*
X86500000Y-93960000D02*
X86500000Y-92930000D01*
X88430000Y-86500000D02*
X90430000Y-88500000D01*
X90430000Y-88500000D02*
X90430000Y-89000000D01*
X147949480Y-47101577D02*
X148135902Y-47287999D01*
X152286079Y-47287999D02*
X152498080Y-47500000D01*
X126468423Y-47101577D02*
X147949480Y-47101577D01*
X125070000Y-48500000D02*
X126468423Y-47101577D01*
X148135902Y-47287999D02*
X152286079Y-47287999D01*
X152498080Y-47500000D02*
X153749681Y-48751601D01*
X153749681Y-48751601D02*
X154999360Y-50001280D01*
X130578762Y-92538762D02*
X132000000Y-93960000D01*
X130578762Y-88500000D02*
X130578762Y-92538762D01*
X120600011Y-80600011D02*
X110963773Y-80600011D01*
X117937434Y-83697829D02*
X121039583Y-86799978D01*
X124772718Y-86799978D02*
X125384707Y-86187989D01*
X110963773Y-80600011D02*
X110651761Y-80287999D01*
X121500000Y-81500000D02*
X120600011Y-80600011D01*
X121039583Y-86799978D02*
X124772718Y-86799978D01*
X110651761Y-80287999D02*
X109488239Y-80287999D01*
X109488239Y-80287999D02*
X108857999Y-80918239D01*
X125384707Y-86187989D02*
X128266753Y-86187991D01*
X108857999Y-80918239D02*
X108857999Y-82081761D01*
X128266753Y-86187991D02*
X130578762Y-88500000D01*
X108857999Y-82081761D02*
X110474067Y-83697829D01*
X110474067Y-83697829D02*
X117937434Y-83697829D01*
X100920000Y-83170000D02*
X100920000Y-80630000D01*
X139960000Y-91500000D02*
X139960000Y-88245000D01*
X139960000Y-88245000D02*
X139715000Y-88000000D01*
X154000000Y-36460000D02*
X155700010Y-34759990D01*
X155700010Y-34759990D02*
X155700010Y-28342940D01*
X155700010Y-28342940D02*
X147153389Y-19796319D01*
X147153389Y-19796319D02*
X145966001Y-19796319D01*
X141650001Y-17466001D02*
X141960000Y-17776000D01*
X141960000Y-17776000D02*
X141960000Y-20500000D01*
X145966001Y-21203681D02*
X145966001Y-19796319D01*
X145700010Y-21469672D02*
X145966001Y-21203681D01*
X144000000Y-36460000D02*
X145700010Y-34759990D01*
X145700010Y-34759990D02*
X145700010Y-21469672D01*
X145966001Y-19796319D02*
X143635683Y-17466001D01*
X143635683Y-17466001D02*
X141650001Y-17466001D01*
X141650001Y-17466001D02*
X141500000Y-17316000D01*
X141500000Y-17316000D02*
X141500000Y-16000000D01*
X151460000Y-36460000D02*
X154000000Y-36460000D01*
X144000000Y-36460000D02*
X141460000Y-36460000D01*
X121340000Y-32340000D02*
X121500000Y-32500000D01*
X61582920Y-79230011D02*
X64103620Y-76709311D01*
X64103620Y-76709311D02*
X65164280Y-76709311D01*
X60280000Y-83170000D02*
X61582920Y-81867080D01*
X61582920Y-81867080D02*
X61582920Y-79230011D01*
X113254690Y-76880242D02*
X112194030Y-76880242D01*
X115287769Y-76880242D02*
X113254690Y-76880242D01*
X116613167Y-78205640D02*
X115287769Y-76880242D01*
X116613167Y-78852726D02*
X116613167Y-78205640D01*
X117760441Y-80000000D02*
X116613167Y-78852726D01*
X121793762Y-80000000D02*
X117760441Y-80000000D01*
X121793762Y-80000000D02*
X126500000Y-84997460D01*
X128346003Y-84997460D02*
X126500000Y-84997460D01*
X126500000Y-84997460D02*
X122362078Y-84997460D01*
X126500000Y-84706238D02*
X121793762Y-80000000D01*
X126500000Y-84997460D02*
X126500000Y-84706238D01*
X122362078Y-84997460D02*
X121160520Y-84997460D01*
X139196399Y-93466001D02*
X131577487Y-85847089D01*
X121160520Y-84997460D02*
X117797950Y-81634890D01*
X143000000Y-96000000D02*
X140466001Y-93466001D01*
X140466001Y-93466001D02*
X139196399Y-93466001D01*
X117797950Y-81634890D02*
X110204890Y-81634890D01*
X131577487Y-85847089D02*
X129195632Y-85847089D01*
X129195632Y-85847089D02*
X128346003Y-84997460D01*
X65740281Y-77909312D02*
X66879094Y-76770499D01*
X65035075Y-77909312D02*
X65740281Y-77909312D01*
X62820000Y-80124387D02*
X65035075Y-77909312D01*
X66879094Y-76770499D02*
X66879094Y-76162085D01*
X62820000Y-80630000D02*
X62820000Y-80124387D01*
X111196221Y-79687989D02*
X111449264Y-79434946D01*
X109239706Y-79687990D02*
X111196221Y-79687989D01*
X108257989Y-82330293D02*
X108257990Y-80669706D01*
X110925156Y-84997460D02*
X108257989Y-82330293D01*
X111000520Y-84997460D02*
X110925156Y-84997460D01*
X111449264Y-79434946D02*
X112199263Y-78684947D01*
X108257990Y-80669706D02*
X109239706Y-79687990D01*
X73389206Y-58216625D02*
X74139205Y-57466626D01*
X75948738Y-71548863D02*
X76039791Y-71457810D01*
X80600000Y-80630000D02*
X75948738Y-75978738D01*
X72699967Y-58905864D02*
X73389206Y-58216625D01*
X76039791Y-71457810D02*
X76039791Y-68814517D01*
X75948738Y-75978738D02*
X75948738Y-71548863D01*
X72699967Y-65474693D02*
X72699967Y-58905864D01*
X76039791Y-68814517D02*
X72699967Y-65474693D01*
X87241614Y-47304015D02*
X72360814Y-47304015D01*
X88042575Y-46503054D02*
X87241614Y-47304015D01*
X106000000Y-42500000D02*
X101996946Y-46503054D01*
X101996946Y-46503054D02*
X88042575Y-46503054D01*
X108500000Y-34920000D02*
X106000000Y-37420000D01*
X106000000Y-37420000D02*
X106000000Y-42500000D01*
X72324984Y-47268185D02*
X71264324Y-47268185D01*
X72360814Y-47304015D02*
X72324984Y-47268185D01*
X65751467Y-73231824D02*
X65751467Y-68794162D01*
X57664365Y-75968564D02*
X63014727Y-75968564D01*
X65751467Y-68794162D02*
X68300033Y-66245596D01*
X59868317Y-56699967D02*
X59203954Y-56035604D01*
X63245596Y-56699967D02*
X59868317Y-56699967D01*
X63014727Y-75968564D02*
X65751467Y-73231824D01*
X53999990Y-81969990D02*
X53999990Y-79632939D01*
X68300033Y-66245596D02*
X68300033Y-61754404D01*
X68300033Y-61754404D02*
X63245596Y-56699967D01*
X53999990Y-79632939D02*
X57664365Y-75968564D01*
X55200000Y-83170000D02*
X53999990Y-81969990D01*
X70418990Y-48468205D02*
X70175174Y-48712021D01*
X64053888Y-48241422D02*
X63303889Y-47491423D01*
X65035008Y-49222542D02*
X64053888Y-48241422D01*
X72426947Y-47904026D02*
X71862768Y-48468205D01*
X71862768Y-48468205D02*
X70418990Y-48468205D01*
X88194170Y-47200001D02*
X87490146Y-47904026D01*
X108500000Y-37460000D02*
X106600011Y-39359989D01*
X87490146Y-47904026D02*
X72426947Y-47904026D01*
X68609037Y-49222542D02*
X65035008Y-49222542D01*
X102148542Y-47200001D02*
X88194170Y-47200001D01*
X106600011Y-42748532D02*
X102148542Y-47200001D01*
X106600011Y-39359989D02*
X106600011Y-42748532D01*
X69119558Y-48712021D02*
X68609037Y-49222542D01*
X70175174Y-48712021D02*
X69119558Y-48712021D01*
X68220284Y-58775171D02*
X68220284Y-57645620D01*
X74239758Y-70712214D02*
X74239758Y-69614222D01*
X68220284Y-57645620D02*
X68220284Y-56584960D01*
X70440000Y-83170000D02*
X71640010Y-81969990D01*
X70399936Y-60954823D02*
X68220284Y-58775171D01*
X70399936Y-65774400D02*
X70399936Y-60954823D01*
X71640010Y-73311962D02*
X74239758Y-70712214D01*
X74239758Y-69614222D02*
X70399936Y-65774400D01*
X71640010Y-81969990D02*
X71640010Y-73311962D01*
X69413281Y-50963927D02*
X68663282Y-51713926D01*
X97247346Y-49000034D02*
X88939766Y-49000034D01*
X69435419Y-50963927D02*
X69413281Y-50963927D01*
X69887292Y-50512054D02*
X69435419Y-50963927D01*
X70925233Y-50512054D02*
X69887292Y-50512054D01*
X71169049Y-50268238D02*
X70925233Y-50512054D01*
X72608364Y-50268238D02*
X71169049Y-50268238D01*
X73172543Y-49704059D02*
X72608364Y-50268238D01*
X88235741Y-49704059D02*
X73172543Y-49704059D01*
X88939766Y-49000034D02*
X88235741Y-49704059D01*
X103730419Y-51000033D02*
X99247345Y-51000033D01*
X105455650Y-49274802D02*
X103730419Y-51000033D01*
X107200022Y-42997064D02*
X105455650Y-44741436D01*
X108500000Y-40000000D02*
X107200022Y-41299978D01*
X99247345Y-51000033D02*
X97247346Y-49000034D01*
X105455650Y-44741436D02*
X105455650Y-49274802D01*
X107200022Y-41299978D02*
X107200022Y-42997064D01*
X74200019Y-81107051D02*
X74200019Y-77094191D01*
X71599958Y-65223227D02*
X71599958Y-58605697D01*
X71302600Y-58308339D02*
X70552601Y-57558340D01*
X71599958Y-58605697D02*
X71302600Y-58308339D01*
X74200019Y-77094191D02*
X73755217Y-76649389D01*
X75439780Y-69063049D02*
X71599958Y-65223227D01*
X75439780Y-71209278D02*
X75439780Y-69063049D01*
X73755217Y-76649389D02*
X73755217Y-72893841D01*
X72980000Y-83170000D02*
X72980000Y-82327070D01*
X72980000Y-82327070D02*
X74200019Y-81107051D01*
X73755217Y-72893841D02*
X75439780Y-71209278D01*
X106055661Y-45489968D02*
X106055661Y-49535832D01*
X103991449Y-51600044D02*
X98998813Y-51600044D01*
X88484274Y-50304070D02*
X73421075Y-50304070D01*
X89188298Y-49600045D02*
X88484274Y-50304070D01*
X107700001Y-43845628D02*
X106055661Y-45489968D01*
X108500000Y-42540000D02*
X107700001Y-43339999D01*
X96998814Y-49600045D02*
X89188298Y-49600045D01*
X98998813Y-51600044D02*
X96998814Y-49600045D01*
X106055661Y-49535832D02*
X103991449Y-51600044D01*
X107700001Y-43339999D02*
X107700001Y-43845628D01*
X72856896Y-50868249D02*
X71417582Y-50868249D01*
X73421075Y-50304070D02*
X72856896Y-50868249D01*
X70573775Y-51712056D02*
X70463293Y-51712056D01*
X71417582Y-50868249D02*
X70573775Y-51712056D01*
X72980000Y-83170000D02*
X72980000Y-83164388D01*
X63063839Y-52400077D02*
X58163795Y-47500033D01*
X54619430Y-46475330D02*
X54619430Y-45229112D01*
X54619430Y-45229112D02*
X56648520Y-43200022D01*
X58497064Y-36299978D02*
X55997063Y-36299978D01*
X103985797Y-52454239D02*
X96403100Y-52454239D01*
X96403100Y-52454239D02*
X96048785Y-52099924D01*
X106655672Y-49784364D02*
X103985797Y-52454239D01*
X52660000Y-32962914D02*
X52660000Y-32370000D01*
X96048785Y-52099924D02*
X74873193Y-52099924D01*
X60200022Y-40997064D02*
X60200022Y-38002936D01*
X60200022Y-38002936D02*
X58497064Y-36299978D01*
X56648520Y-43200022D02*
X57997064Y-43200022D01*
X55644133Y-47500033D02*
X54619430Y-46475330D01*
X67442813Y-54113968D02*
X65728922Y-52400077D01*
X65728922Y-52400077D02*
X63063839Y-52400077D01*
X72569075Y-53866580D02*
X72321687Y-54113968D01*
X73106537Y-53866580D02*
X72569075Y-53866580D01*
X74873193Y-52099924D02*
X73106537Y-53866580D01*
X106655672Y-46924328D02*
X106655672Y-49784364D01*
X108500000Y-45080000D02*
X106655672Y-46924328D01*
X72321687Y-54113968D02*
X67442813Y-54113968D01*
X57997064Y-43200022D02*
X60200022Y-40997064D01*
X58163795Y-47500033D02*
X55644133Y-47500033D01*
X55997063Y-36299978D02*
X52660000Y-32962914D01*
X107255683Y-48864317D02*
X107255683Y-50032896D01*
X65480390Y-53000088D02*
X62815307Y-53000088D01*
X67194281Y-54713979D02*
X65480390Y-53000088D01*
X72570219Y-54713979D02*
X67194281Y-54713979D01*
X75121725Y-52699935D02*
X73355069Y-54466591D01*
X62815307Y-53000088D02*
X61330376Y-51515157D01*
X72817607Y-54466591D02*
X72570219Y-54713979D01*
X73355069Y-54466591D02*
X72817607Y-54466591D01*
X96154568Y-53054250D02*
X95800253Y-52699935D01*
X104234329Y-53054250D02*
X96154568Y-53054250D01*
X107255683Y-50032896D02*
X104234329Y-53054250D01*
X108500000Y-47620000D02*
X107255683Y-48864317D01*
X61330376Y-51515157D02*
X60276531Y-51515157D01*
X95800253Y-52699935D02*
X75121725Y-52699935D01*
X60280000Y-33840200D02*
X63200077Y-36760276D01*
X63200077Y-43273604D02*
X61725930Y-44747751D01*
X61725930Y-44747751D02*
X60975931Y-45497750D01*
X63200077Y-36760276D02*
X63200077Y-43273604D01*
X60280000Y-32370000D02*
X60280000Y-33840200D01*
X60799998Y-32547068D02*
X60622930Y-32370000D01*
X60622930Y-32370000D02*
X60280000Y-32370000D01*
X66945749Y-55313990D02*
X65331693Y-53699934D01*
X95906036Y-53654261D02*
X95551721Y-53299946D01*
X58695276Y-51748907D02*
X58695276Y-50954053D01*
X59746349Y-52799980D02*
X58695276Y-51748907D01*
X61766656Y-52799980D02*
X59746349Y-52799980D01*
X62666610Y-53699934D02*
X61766656Y-52799980D01*
X72818751Y-55313990D02*
X66945749Y-55313990D01*
X73066139Y-55066602D02*
X72818751Y-55313990D01*
X75370257Y-53299946D02*
X73603602Y-55066602D01*
X95551721Y-53299946D02*
X75370257Y-53299946D01*
X105005739Y-53654261D02*
X95906036Y-53654261D01*
X108500000Y-50160000D02*
X105005739Y-53654261D01*
X73603602Y-55066602D02*
X73066139Y-55066602D01*
X65331693Y-53699934D02*
X62666610Y-53699934D01*
X58695276Y-50954053D02*
X58695276Y-49893393D01*
X62000055Y-41742660D02*
X58511866Y-45230849D01*
X62000055Y-37257340D02*
X62000055Y-41742660D01*
X59242660Y-34499945D02*
X62000055Y-37257340D01*
X56459114Y-33716399D02*
X57242660Y-34499945D01*
X56459114Y-31110886D02*
X56459114Y-33716399D01*
X57242660Y-34499945D02*
X59242660Y-34499945D01*
X58511866Y-45230849D02*
X58511866Y-45700021D01*
X57740000Y-29830000D02*
X56459114Y-31110886D01*
X55219441Y-45477644D02*
X55219441Y-46226798D01*
X55219441Y-46226798D02*
X55892665Y-46900022D01*
X53860010Y-32012920D02*
X53860010Y-33314381D01*
X58412327Y-46900022D02*
X63312371Y-51800066D01*
X63312371Y-51800066D02*
X65977454Y-51800066D01*
X60800033Y-41245596D02*
X58245596Y-43800033D01*
X72824721Y-53266569D02*
X74968080Y-51123210D01*
X72320543Y-53266569D02*
X72824721Y-53266569D01*
X67691345Y-53513957D02*
X72073155Y-53513957D01*
X65977454Y-51800066D02*
X67691345Y-53513957D01*
X56897052Y-43800033D02*
X55219441Y-45477644D01*
X60800033Y-37754404D02*
X60800033Y-41245596D01*
X58745596Y-35699967D02*
X60800033Y-37754404D01*
X53860010Y-33314381D02*
X56245595Y-35699967D01*
X55200000Y-30672930D02*
X53860010Y-32012920D01*
X55200000Y-29830000D02*
X55200000Y-30672930D01*
X72073155Y-53513957D02*
X72320543Y-53266569D01*
X55892665Y-46900022D02*
X58412327Y-46900022D01*
X74968080Y-51123210D02*
X95685317Y-51123210D01*
X56245595Y-35699967D02*
X58745596Y-35699967D01*
X95685317Y-51123210D02*
X96745977Y-51123210D01*
X58245596Y-43800033D02*
X56897052Y-43800033D01*
X106345737Y-54854263D02*
X99015237Y-54854263D01*
X108500000Y-52700000D02*
X106345737Y-54854263D01*
X99015237Y-54854263D02*
X97954577Y-54854263D01*
X141957060Y-77280010D02*
X143157070Y-76080000D01*
X143157070Y-76080000D02*
X144000000Y-76080000D01*
X134000000Y-80500000D02*
X135131370Y-80500000D01*
X140495994Y-77280010D02*
X141957060Y-77280010D01*
X139576002Y-78200002D02*
X140495994Y-77280010D01*
X137431368Y-78200002D02*
X139576002Y-78200002D01*
X135131370Y-80500000D02*
X137431368Y-78200002D01*
X152799990Y-77360010D02*
X154000000Y-76160000D01*
X150462940Y-77360010D02*
X152799990Y-77360010D01*
X149862941Y-76760011D02*
X150462940Y-77360010D01*
X144000000Y-76080000D02*
X144680011Y-76760011D01*
X144680011Y-76760011D02*
X149862941Y-76760011D01*
X134799999Y-77160001D02*
X134000000Y-77960000D01*
X136760013Y-75199987D02*
X134799999Y-77160001D01*
X137675465Y-75199987D02*
X136760013Y-75199987D01*
X139335453Y-73540000D02*
X137675465Y-75199987D01*
X141460000Y-73540000D02*
X139335453Y-73540000D01*
X149674378Y-72339990D02*
X150954388Y-73620000D01*
X142665622Y-72339990D02*
X149674378Y-72339990D01*
X141465612Y-73540000D02*
X142665622Y-72339990D01*
X141460000Y-73540000D02*
X141465612Y-73540000D01*
X150954388Y-73620000D02*
X151460000Y-73620000D01*
X138983986Y-74740010D02*
X141957060Y-74740010D01*
X141957060Y-74740010D02*
X143157070Y-73540000D01*
X137923998Y-75799998D02*
X138983986Y-74740010D01*
X136799998Y-76423998D02*
X137423998Y-75799998D01*
X137423998Y-75799998D02*
X137923998Y-75799998D01*
X136799998Y-77423998D02*
X136799998Y-76423998D01*
X132749999Y-78560001D02*
X133399999Y-79210001D01*
X133399999Y-79210001D02*
X135013995Y-79210001D01*
X132749999Y-76670001D02*
X132749999Y-78560001D01*
X134000000Y-75420000D02*
X132749999Y-76670001D01*
X143157070Y-73540000D02*
X144000000Y-73540000D01*
X135013995Y-79210001D02*
X136799998Y-77423998D01*
X144000000Y-73540000D02*
X149182930Y-73540000D01*
X149182930Y-73540000D02*
X150462940Y-74820010D01*
X150462940Y-74820010D02*
X151957060Y-74820010D01*
X151957060Y-74820010D02*
X153157070Y-73620000D01*
X153157070Y-73620000D02*
X154000000Y-73620000D01*
X141465612Y-71000000D02*
X141460000Y-71000000D01*
X142665622Y-69799990D02*
X141465612Y-71000000D01*
X145537091Y-70340021D02*
X144997060Y-69799990D01*
X150720021Y-70340021D02*
X145537091Y-70340021D01*
X144997060Y-69799990D02*
X142665622Y-69799990D01*
X151460000Y-71080000D02*
X150720021Y-70340021D01*
X141460000Y-71000000D02*
X135880000Y-71000000D01*
X135880000Y-71000000D02*
X134000000Y-72880000D01*
X141957060Y-72200010D02*
X143157070Y-71000000D01*
X139826900Y-72200010D02*
X141957060Y-72200010D01*
X137896909Y-74130001D02*
X139826900Y-72200010D01*
X133399999Y-74130001D02*
X137896909Y-74130001D01*
X132749999Y-73480001D02*
X133399999Y-74130001D01*
X143157070Y-71000000D02*
X144000000Y-71000000D01*
X132749999Y-72279999D02*
X132749999Y-73480001D01*
X134000000Y-70340000D02*
X134000000Y-71029998D01*
X134000000Y-71029998D02*
X132749999Y-72279999D01*
X144000000Y-71000000D02*
X149182930Y-71000000D01*
X149182930Y-71000000D02*
X150462940Y-72280010D01*
X150462940Y-72280010D02*
X152799990Y-72280010D01*
X152799990Y-72280010D02*
X154000000Y-71080000D01*
X134000000Y-67800000D02*
X140800000Y-67800000D01*
X140800000Y-67800000D02*
X141460000Y-68460000D01*
X142660010Y-67259990D02*
X141460000Y-68460000D01*
X149061446Y-67259990D02*
X142660010Y-67259990D01*
X151460000Y-68540000D02*
X150341456Y-68540000D01*
X150341456Y-68540000D02*
X149061446Y-67259990D01*
X114222816Y-62480203D02*
X113472817Y-61730204D01*
X127000000Y-66510001D02*
X125161459Y-66510001D01*
X127630001Y-72978544D02*
X127630001Y-67140002D01*
X129751468Y-75100011D02*
X127630001Y-72978544D01*
X115953475Y-64210862D02*
X114222816Y-62480203D01*
X122862320Y-64210862D02*
X115953475Y-64210862D01*
X132600011Y-71581445D02*
X132100011Y-72081444D01*
X125161459Y-66510001D02*
X122862320Y-64210862D01*
X131748532Y-75100011D02*
X129751468Y-75100011D01*
X132100011Y-74748532D02*
X131748532Y-75100011D01*
X132100011Y-72081444D02*
X132100011Y-74748532D01*
X132600011Y-69929985D02*
X132600011Y-71581445D01*
X133439997Y-69089999D02*
X132600011Y-69929985D01*
X127630001Y-67140002D02*
X127000000Y-66510001D01*
X72289757Y-70886211D02*
X73039756Y-70136212D01*
X70479139Y-72696829D02*
X72289757Y-70886211D01*
X70479139Y-80590861D02*
X70479139Y-72696829D01*
X70440000Y-80630000D02*
X70479139Y-80590861D01*
X144000000Y-68460000D02*
X143157070Y-68460000D01*
X143157070Y-68460000D02*
X141957060Y-69660010D01*
X141957060Y-69660010D02*
X135170012Y-69660010D01*
X135170012Y-69660010D02*
X134600001Y-69089999D01*
X134600001Y-69089999D02*
X133439997Y-69089999D01*
X133439997Y-69089999D02*
X132749999Y-68400001D01*
X132749999Y-68400001D02*
X132749999Y-66510001D01*
X134000000Y-65260000D02*
X132749999Y-66510001D01*
X152759990Y-69740010D02*
X145785622Y-69740010D01*
X153960000Y-68540000D02*
X152759990Y-69740010D01*
X145785622Y-69740010D02*
X145245592Y-69199979D01*
X145245592Y-69199979D02*
X144739979Y-69199979D01*
X144739979Y-69199979D02*
X144000000Y-68460000D01*
X154000000Y-68540000D02*
X153960000Y-68540000D01*
X67900000Y-83170000D02*
X67900000Y-82600000D01*
X71771085Y-69919956D02*
X71771085Y-68859296D01*
X69879128Y-71984888D02*
X71771085Y-70092931D01*
X67900000Y-82600000D02*
X69181097Y-81318903D01*
X69181097Y-78181712D02*
X69879128Y-77483682D01*
X69181097Y-81318903D02*
X69181097Y-78181712D01*
X71771085Y-70092931D02*
X71771085Y-69919956D01*
X69879128Y-77483682D02*
X69879128Y-71984888D01*
X125248630Y-67800000D02*
X122428455Y-64979825D01*
X115022540Y-64979825D02*
X114360691Y-64317976D01*
X114360691Y-64317976D02*
X113300031Y-64317976D01*
X126380000Y-67800000D02*
X125248630Y-67800000D01*
X122428455Y-64979825D02*
X115022540Y-64979825D01*
X65360000Y-80070613D02*
X67468516Y-77962097D01*
X69371063Y-70236794D02*
X69371063Y-69176134D01*
X67703627Y-77962097D02*
X68679106Y-76986618D01*
X69371063Y-70795867D02*
X69371063Y-70236794D01*
X68679106Y-76986618D02*
X68679106Y-71487824D01*
X67468516Y-77962097D02*
X67703627Y-77962097D01*
X65360000Y-80630000D02*
X65360000Y-80070613D01*
X68679106Y-71487824D02*
X69371063Y-70795867D01*
X114360691Y-66665580D02*
X113300031Y-66665580D01*
X122705580Y-66665580D02*
X114360691Y-66665580D01*
X126380000Y-70340000D02*
X122705580Y-66665580D01*
X137679899Y-78800013D02*
X141279987Y-78800013D01*
X134729911Y-81750001D02*
X137679899Y-78800013D01*
X132149993Y-80499996D02*
X133399998Y-81750001D01*
X126531457Y-72880000D02*
X132149993Y-78498536D01*
X141279987Y-78800013D02*
X141460000Y-78620000D01*
X132149993Y-78498536D02*
X132149993Y-80499996D01*
X133399998Y-81750001D02*
X134729911Y-81750001D01*
X126380000Y-72880000D02*
X126531457Y-72880000D01*
X67153753Y-71449292D02*
X67153753Y-70388632D01*
X63263259Y-76568575D02*
X67153753Y-72678081D01*
X67153753Y-72678081D02*
X67153753Y-71449292D01*
X59576917Y-76568575D02*
X63263259Y-76568575D01*
X56539990Y-81969990D02*
X56539990Y-79605502D01*
X56539990Y-79605502D02*
X59576917Y-76568575D01*
X57740000Y-83170000D02*
X56539990Y-81969990D01*
X119500000Y-68500000D02*
X113800031Y-68500000D01*
X113800031Y-68500000D02*
X113300031Y-69000000D01*
X119837820Y-68500000D02*
X124217820Y-72880000D01*
X125248630Y-72880000D02*
X126380000Y-72880000D01*
X119500000Y-68500000D02*
X119837820Y-68500000D01*
X124217820Y-72880000D02*
X125248630Y-72880000D01*
X142665622Y-77419990D02*
X141465612Y-78620000D01*
X149674378Y-77419990D02*
X142665622Y-77419990D01*
X150954388Y-78700000D02*
X149674378Y-77419990D01*
X151460000Y-78700000D02*
X150954388Y-78700000D01*
X141465612Y-78620000D02*
X141460000Y-78620000D01*
X135816987Y-82360010D02*
X141500000Y-82360010D01*
X130949971Y-78995598D02*
X130949971Y-80997060D01*
X128174372Y-76219999D02*
X130949971Y-78995598D01*
X127179999Y-76219999D02*
X128174372Y-76219999D01*
X126380000Y-75420000D02*
X127179999Y-76219999D01*
X135226975Y-82950023D02*
X135816987Y-82360010D01*
X132902934Y-82950023D02*
X135226975Y-82950023D01*
X130949971Y-80997060D02*
X132902934Y-82950023D01*
X61416770Y-73824363D02*
X62477430Y-73824363D01*
X53887278Y-78048566D02*
X58111481Y-73824363D01*
X50120000Y-80015938D02*
X52087372Y-78048566D01*
X52087372Y-78048566D02*
X53887278Y-78048566D01*
X50120000Y-80630000D02*
X50120000Y-80015938D01*
X58111481Y-73824363D02*
X61416770Y-73824363D01*
X119500000Y-76120000D02*
X118100180Y-76120000D01*
X118100180Y-76120000D02*
X116937954Y-74957774D01*
X115759211Y-74957774D02*
X115159202Y-74357765D01*
X115159202Y-74357765D02*
X114098542Y-74357765D01*
X116937954Y-74957774D02*
X115759211Y-74957774D01*
X141500000Y-82360010D02*
X141957060Y-82360010D01*
X144000000Y-81500000D02*
X143139990Y-82360010D01*
X143139990Y-82360010D02*
X141500000Y-82360010D01*
X144000000Y-81160000D02*
X144000000Y-81500000D01*
X143575736Y-80735736D02*
X144000000Y-81160000D01*
X119500000Y-76120000D02*
X125680000Y-76120000D01*
X125680000Y-76120000D02*
X126380000Y-75420000D01*
X144000000Y-81160000D02*
X145280010Y-82440010D01*
X145280010Y-82440010D02*
X152799990Y-82440010D01*
X152799990Y-82440010D02*
X154000000Y-81240000D01*
X128348543Y-78651459D02*
X129098542Y-79401458D01*
X126380000Y-77960000D02*
X127657084Y-77960000D01*
X127657084Y-77960000D02*
X128348543Y-78651459D01*
X141460000Y-76080000D02*
X138920000Y-76080000D01*
X138920000Y-76080000D02*
X138000000Y-77000000D01*
X144997060Y-74879990D02*
X142665622Y-74879990D01*
X146277070Y-76160000D02*
X144997060Y-74879990D01*
X141465612Y-76080000D02*
X141460000Y-76080000D01*
X142665622Y-74879990D02*
X141465612Y-76080000D01*
X151460000Y-76160000D02*
X146277070Y-76160000D01*
X69390228Y-49312032D02*
X70402927Y-49312032D01*
X68879707Y-49822553D02*
X69390228Y-49312032D01*
X64400099Y-36000000D02*
X64400099Y-44621861D01*
X70503897Y-49236305D02*
X70671986Y-49068216D01*
X98978180Y-48185240D02*
X99728179Y-48935239D01*
X64400099Y-44621861D02*
X62103887Y-46918073D01*
X98592952Y-47800012D02*
X98978180Y-48185240D01*
X88442702Y-47800012D02*
X98592952Y-47800012D01*
X62820000Y-34419901D02*
X64400099Y-36000000D01*
X87738677Y-48504037D02*
X88442702Y-47800012D01*
X72675479Y-48504037D02*
X87738677Y-48504037D01*
X72111300Y-49068216D02*
X72675479Y-48504037D01*
X70671986Y-49068216D02*
X72111300Y-49068216D01*
X62103887Y-48045952D02*
X63880488Y-49822553D01*
X62820000Y-32370000D02*
X62820000Y-34419901D01*
X62103887Y-46918073D02*
X62103887Y-48045952D01*
X70402927Y-49312032D02*
X70503897Y-49236305D01*
X63880488Y-49822553D02*
X68879707Y-49822553D01*
X99847424Y-62671123D02*
X99097425Y-61921124D01*
X100234073Y-63057772D02*
X99847424Y-62671123D01*
X114203239Y-86787999D02*
X114094136Y-86897102D01*
X107057972Y-68301406D02*
X101814338Y-63057772D01*
X115366761Y-86787999D02*
X114203239Y-86787999D01*
X114094136Y-86897102D02*
X109542357Y-86897102D01*
X101814338Y-63057772D02*
X100234073Y-63057772D01*
X116578762Y-88000000D02*
X115366761Y-86787999D01*
X107057972Y-84412717D02*
X107057972Y-68301406D01*
X126215000Y-88000000D02*
X116578762Y-88000000D01*
X109542357Y-86897102D02*
X107057972Y-84412717D01*
X126920000Y-93960000D02*
X126215000Y-93255000D01*
X126215000Y-93255000D02*
X126215000Y-88000000D01*
X63800088Y-36511744D02*
X63800088Y-44370677D01*
X100754368Y-49977126D02*
X101504367Y-49227127D01*
X97495878Y-48400023D02*
X99454414Y-50358559D01*
X88691234Y-48400023D02*
X97495878Y-48400023D01*
X87987210Y-49104048D02*
X88691234Y-48400023D01*
X61480010Y-34191667D02*
X63800088Y-36511744D01*
X61480010Y-31030010D02*
X61480010Y-34191667D01*
X100372935Y-50358559D02*
X100754368Y-49977126D01*
X99454414Y-50358559D02*
X100372935Y-50358559D01*
X70920518Y-49668227D02*
X72359832Y-49668227D01*
X70676702Y-49912043D02*
X70920518Y-49668227D01*
X69638760Y-49912043D02*
X70676702Y-49912043D01*
X63800088Y-44370677D02*
X61503876Y-46666889D01*
X63631956Y-50422564D02*
X69128239Y-50422564D01*
X61503876Y-46666889D02*
X61503876Y-48294484D01*
X60280000Y-29830000D02*
X61480010Y-31030010D01*
X69128239Y-50422564D02*
X69638760Y-49912043D01*
X72924011Y-49104048D02*
X87987210Y-49104048D01*
X72359832Y-49668227D02*
X72924011Y-49104048D01*
X61503876Y-48294484D02*
X63631956Y-50422564D01*
X101929237Y-61600088D02*
X100868577Y-61600088D01*
X128285000Y-88000000D02*
X127072999Y-86787999D01*
X107657980Y-84164182D02*
X107657980Y-67328831D01*
X109790889Y-86297091D02*
X107657980Y-84164182D01*
X113845604Y-86297091D02*
X109790889Y-86297091D01*
X113954707Y-86187988D02*
X113845604Y-86297091D01*
X125021250Y-87399988D02*
X116827293Y-87399988D01*
X115615293Y-86187988D02*
X113954707Y-86187988D01*
X116827293Y-87399988D02*
X115615293Y-86187988D01*
X127072999Y-86787999D02*
X125633239Y-86787999D01*
X125633239Y-86787999D02*
X125021250Y-87399988D01*
X107657980Y-67328831D02*
X101929237Y-61600088D01*
X129460000Y-93960000D02*
X129460000Y-89175000D01*
X129460000Y-89175000D02*
X128285000Y-88000000D01*
X129046999Y-93546999D02*
X129460000Y-93960000D01*
X78417080Y-81830010D02*
X76725622Y-81830010D01*
X77000000Y-86500000D02*
X79260010Y-84239990D01*
X79260010Y-84239990D02*
X79260010Y-82672940D01*
X79260010Y-82672940D02*
X78417080Y-81830010D01*
X76725622Y-81830010D02*
X75525612Y-80630000D01*
X75525612Y-80630000D02*
X75520000Y-80630000D01*
X77000000Y-86500000D02*
X77000000Y-89540000D01*
X77000000Y-89540000D02*
X81420000Y-93960000D01*
X80600000Y-83748543D02*
X80600000Y-83170000D01*
X79000000Y-85348543D02*
X80600000Y-83748543D01*
X79000000Y-89000000D02*
X79000000Y-85348543D01*
X79000000Y-90077630D02*
X79000000Y-89000000D01*
X81182360Y-92259990D02*
X79000000Y-90077630D01*
X82259990Y-92259990D02*
X81182360Y-92259990D01*
X83960000Y-93960000D02*
X82259990Y-92259990D01*
X80600000Y-83170000D02*
X80570000Y-83200000D01*
X76017060Y-81969990D02*
X77217070Y-83170000D01*
X75022940Y-81969990D02*
X76017060Y-81969990D01*
X74180010Y-82812920D02*
X75022940Y-81969990D01*
X74180010Y-84167060D02*
X74180010Y-82812920D01*
X72877049Y-85470021D02*
X74180010Y-84167060D01*
X63329958Y-86670043D02*
X64529980Y-85470021D01*
X61481414Y-86670043D02*
X63329958Y-86670043D01*
X60499999Y-87651458D02*
X61481414Y-86670043D01*
X60499999Y-90000001D02*
X60499999Y-87651458D01*
X64740001Y-92349999D02*
X64650001Y-92259999D01*
X64740001Y-95070001D02*
X64740001Y-92349999D01*
X63540000Y-96270002D02*
X64740001Y-95070001D01*
X63540000Y-96500000D02*
X63540000Y-96270002D01*
X77217070Y-83170000D02*
X78060000Y-83170000D01*
X64529980Y-85470021D02*
X72877049Y-85470021D01*
X62759998Y-92259999D02*
X60499999Y-90000001D01*
X64650001Y-92259999D02*
X62759998Y-92259999D01*
X108299999Y-95299999D02*
X109500000Y-96500000D01*
X108299999Y-91099803D02*
X108299999Y-95299999D01*
X104773882Y-87573686D02*
X108299999Y-91099803D01*
X103126616Y-87573686D02*
X104773882Y-87573686D01*
X99580010Y-81830010D02*
X99580010Y-84027080D01*
X98380000Y-80630000D02*
X99580010Y-81830010D01*
X99580010Y-84027080D02*
X103126616Y-87573686D01*
X84960000Y-17000000D02*
X86160001Y-18200001D01*
X86160001Y-18200001D02*
X89799999Y-18200001D01*
X89799999Y-18200001D02*
X92740010Y-15259990D01*
X84960000Y-16729998D02*
X84960000Y-17000000D01*
X101682920Y-18299990D02*
X100839990Y-17457060D01*
X108459990Y-18299990D02*
X101682920Y-18299990D01*
X109660000Y-19500000D02*
X108459990Y-18299990D01*
X100839990Y-17457060D02*
X100839990Y-16102920D01*
X100839990Y-16102920D02*
X99997060Y-15259990D01*
X99997060Y-15259990D02*
X92740010Y-15259990D01*
X132120000Y-19540000D02*
X131277070Y-19540000D01*
X131277070Y-19540000D02*
X130077060Y-18339990D01*
X130077060Y-18339990D02*
X111608572Y-18339990D01*
X111608572Y-18339990D02*
X111148543Y-18800019D01*
X111148543Y-18800019D02*
X110359981Y-18800019D01*
X110359981Y-18800019D02*
X109660000Y-19500000D01*
X84960000Y-19540000D02*
X84960000Y-17000000D01*
X111200010Y-98200010D02*
X133500000Y-98200010D01*
X145040000Y-91500000D02*
X145040000Y-96752673D01*
X133500000Y-98200010D02*
X135315734Y-98200010D01*
X145040000Y-96752673D02*
X143592663Y-98200010D01*
X143592663Y-98200010D02*
X133500000Y-98200010D01*
X111200010Y-98200010D02*
X109500000Y-96500000D01*
X65500000Y-19500000D02*
X66799990Y-18200010D01*
X66799990Y-18200010D02*
X77837060Y-18200010D01*
X77837060Y-18200010D02*
X78540010Y-17497060D01*
X78540010Y-17497060D02*
X78540010Y-16142920D01*
X78540010Y-16142920D02*
X79382940Y-15299990D01*
X79382940Y-15299990D02*
X83259990Y-15299990D01*
X83259990Y-15299990D02*
X84960000Y-17000000D01*
X100920000Y-29830000D02*
X100920000Y-27580000D01*
X100920000Y-27580000D02*
X102099958Y-26400042D01*
X102099958Y-26400042D02*
X124917028Y-26400042D01*
X124917028Y-26400042D02*
X131777070Y-19540000D01*
X131777070Y-19540000D02*
X132120000Y-19540000D01*
X95840000Y-29830000D02*
X95840000Y-26660000D01*
X95840000Y-26660000D02*
X96699969Y-25800031D01*
X96699969Y-25800031D02*
X123319969Y-25800031D01*
X123319969Y-25800031D02*
X129580000Y-19540000D01*
X129580000Y-19540000D02*
X129237070Y-19540000D01*
X126697070Y-19540000D02*
X127040000Y-19540000D01*
X96451437Y-25200020D02*
X121037050Y-25200020D01*
X94639990Y-27011467D02*
X96451437Y-25200020D01*
X94639990Y-31030010D02*
X94639990Y-27011467D01*
X93300000Y-32370000D02*
X94639990Y-31030010D01*
X121037050Y-25200020D02*
X126697070Y-19540000D01*
X90760000Y-26740000D02*
X92899989Y-24600011D01*
X90760000Y-29830000D02*
X90760000Y-26740000D01*
X92899989Y-24600011D02*
X119439989Y-24600011D01*
X119439989Y-24600011D02*
X121640013Y-22399987D01*
X121640013Y-22399987D02*
X124500000Y-19540000D01*
X121960000Y-19540000D02*
X117500000Y-24000000D01*
X86880010Y-28972920D02*
X86880010Y-31164378D01*
X117500000Y-24000000D02*
X91852930Y-24000000D01*
X86880010Y-31164378D02*
X85680000Y-32364388D01*
X91852930Y-24000000D02*
X86880010Y-28972920D01*
X85680000Y-32364388D02*
X85680000Y-32370000D01*
X103385602Y-21200010D02*
X102785592Y-21800020D01*
X81001463Y-27777465D02*
X81800010Y-28576012D01*
X81800010Y-28576012D02*
X81800010Y-31169990D01*
X93094151Y-21800020D02*
X88494128Y-26400044D01*
X105077060Y-21200010D02*
X103385602Y-21200010D01*
X106777070Y-19500000D02*
X105077060Y-21200010D01*
X107120000Y-19500000D02*
X106777070Y-19500000D01*
X102785592Y-21800020D02*
X93094151Y-21800020D01*
X88494128Y-26400044D02*
X81001463Y-26400044D01*
X81001463Y-26400044D02*
X81001463Y-27777465D01*
X81800010Y-31169990D02*
X80600000Y-32370000D01*
X80401452Y-29631452D02*
X80600000Y-29830000D01*
X80745595Y-25800033D02*
X80401452Y-26144174D01*
X80401452Y-26144174D02*
X80401452Y-29631452D01*
X92845619Y-21200009D02*
X88245596Y-25800033D01*
X102537060Y-21200009D02*
X92845619Y-21200009D01*
X104237070Y-19500000D02*
X102537060Y-21200009D01*
X104580000Y-19500000D02*
X104237070Y-19500000D01*
X88245596Y-25800033D02*
X80745595Y-25800033D01*
X92748534Y-18600009D02*
X89100011Y-22248532D01*
X89100011Y-23248532D02*
X87748532Y-24600011D01*
X89100011Y-22248532D02*
X89100011Y-23248532D01*
X93548552Y-18299990D02*
X93248533Y-18600009D01*
X93248533Y-18600009D02*
X92748534Y-18600009D01*
X76859990Y-31169990D02*
X78060000Y-32370000D01*
X102040000Y-19500000D02*
X102034388Y-19500000D01*
X77058403Y-28634527D02*
X76859990Y-28832940D01*
X77058403Y-27790139D02*
X77058403Y-28634527D01*
X80248531Y-24600011D02*
X77058403Y-27790139D01*
X76859990Y-28832940D02*
X76859990Y-31169990D01*
X100834378Y-18299990D02*
X93548552Y-18299990D01*
X87748532Y-24600011D02*
X80248531Y-24600011D01*
X102034388Y-19500000D02*
X100834378Y-18299990D01*
X87997064Y-25200022D02*
X80497062Y-25200022D01*
X99500000Y-19500000D02*
X93697085Y-19500000D01*
X80497062Y-25200022D02*
X78060000Y-27637084D01*
X78060000Y-27637084D02*
X78060000Y-29830000D01*
X93697085Y-19500000D02*
X87997064Y-25200022D01*
X149740010Y-35259990D02*
X152660010Y-35259990D01*
X109948543Y-56490001D02*
X116858541Y-56490001D01*
X146255519Y-42100110D02*
X148100054Y-40255575D01*
X74100665Y-56266624D02*
X75867321Y-54499968D01*
X116858541Y-56490001D02*
X118570023Y-54778520D01*
X118570023Y-49929976D02*
X126399890Y-42100110D01*
X152660010Y-35259990D02*
X154000000Y-33920000D01*
X148100054Y-36899945D02*
X149740010Y-35259990D01*
X148100054Y-40255575D02*
X148100054Y-36899945D01*
X126399890Y-42100110D02*
X146255519Y-42100110D01*
X118570023Y-54778520D02*
X118570023Y-49929976D01*
X75867321Y-54499968D02*
X95054657Y-54499968D01*
X107651467Y-57090012D02*
X109348533Y-57090012D01*
X107255298Y-56693842D02*
X107651467Y-57090012D01*
X95054657Y-54499968D02*
X97248529Y-56693842D01*
X72589267Y-57240560D02*
X73563203Y-56266624D01*
X73563203Y-56266624D02*
X74100665Y-56266624D01*
X97248529Y-56693842D02*
X107255298Y-56693842D01*
X109348533Y-57090012D02*
X109948543Y-56490001D01*
X72324340Y-57240560D02*
X72589267Y-57240560D01*
X59775929Y-44815329D02*
X59775929Y-47415081D01*
X62600066Y-37008808D02*
X62600066Y-41991192D01*
X68045093Y-52913946D02*
X71410969Y-52913946D01*
X71506666Y-52818249D02*
X72256665Y-52068250D01*
X59775929Y-47415081D02*
X63560903Y-51200055D01*
X62600066Y-41991192D02*
X59775929Y-44815329D01*
X57961258Y-32370000D02*
X62600066Y-37008808D01*
X57740000Y-32370000D02*
X57961258Y-32370000D01*
X63560903Y-51200055D02*
X66331202Y-51200055D01*
X66331202Y-51200055D02*
X68045093Y-52913946D01*
X71410969Y-52913946D02*
X71506666Y-52818249D01*
X71640010Y-31030010D02*
X72980000Y-32370000D01*
X71640010Y-28832940D02*
X71640010Y-31030010D01*
X65907081Y-23100011D02*
X71640010Y-28832940D01*
X65751468Y-23100011D02*
X65907081Y-23100011D01*
X64160010Y-21508553D02*
X65751468Y-23100011D01*
X64160010Y-18160010D02*
X64160010Y-21508553D01*
X62960000Y-16960000D02*
X64160010Y-18160010D01*
X70440000Y-29197267D02*
X70440000Y-29830000D01*
X62960000Y-21717267D02*
X70440000Y-29197267D01*
X62960000Y-19500000D02*
X62960000Y-21717267D01*
X69100010Y-28705820D02*
X69100010Y-31030010D01*
X61620010Y-21225820D02*
X69100010Y-28705820D01*
X60420000Y-16960000D02*
X61620010Y-18160010D01*
X61620010Y-18160010D02*
X61620010Y-21225820D01*
X69100010Y-31030010D02*
X70440000Y-32370000D01*
X67900000Y-29830000D02*
X67900000Y-28354353D01*
X67900000Y-28354353D02*
X60420000Y-20874353D01*
X60420000Y-20874353D02*
X60420000Y-19500000D01*
X66560010Y-31030010D02*
X67900000Y-32370000D01*
X66560010Y-27862906D02*
X66560010Y-31030010D01*
X59080010Y-20382906D02*
X66560010Y-27862906D01*
X57880000Y-16960000D02*
X59080010Y-18160010D01*
X59080010Y-18160010D02*
X59080010Y-20382906D01*
X57880000Y-20031439D02*
X65360000Y-27511439D01*
X65360000Y-27511439D02*
X65360000Y-29830000D01*
X57880000Y-19500000D02*
X57880000Y-20031439D01*
X64159990Y-27977060D02*
X56679990Y-20497060D01*
X64159990Y-31169990D02*
X64159990Y-27977060D01*
X65360000Y-32370000D02*
X64159990Y-31169990D01*
X56679990Y-20497060D02*
X56679990Y-18299990D01*
X56679990Y-18299990D02*
X55340000Y-16960000D01*
X62820000Y-29830000D02*
X62820000Y-27485613D01*
X62820000Y-27485613D02*
X55340000Y-20005613D01*
X55340000Y-20005613D02*
X55340000Y-19500000D01*
X104947880Y-89523686D02*
X104197881Y-88773687D01*
X106960000Y-93960000D02*
X106960000Y-91535806D01*
X106960000Y-91535806D02*
X104947880Y-89523686D01*
X91499979Y-84415592D02*
X92554408Y-85470021D01*
X91499979Y-83170000D02*
X91499979Y-84415592D01*
X90760000Y-83170000D02*
X91499979Y-83170000D01*
X92554408Y-85470021D02*
X93397325Y-85470021D01*
X93397325Y-85470021D02*
X95427304Y-87500000D01*
X95427304Y-87500000D02*
X96000000Y-87500000D01*
X105759990Y-95299990D02*
X105759990Y-91983986D01*
X96337060Y-81830010D02*
X95342940Y-81830010D01*
X97179990Y-82672940D02*
X96337060Y-81830010D01*
X94142930Y-80630000D02*
X93300000Y-80630000D01*
X95342940Y-81830010D02*
X94142930Y-80630000D01*
X97179990Y-84167060D02*
X97179990Y-82672940D01*
X103576002Y-89799998D02*
X102812928Y-89799998D01*
X105759990Y-91983986D02*
X103576002Y-89799998D01*
X106960000Y-96500000D02*
X105759990Y-95299990D01*
X102812928Y-89799998D02*
X97179990Y-84167060D01*
X104090000Y-93960000D02*
X97800013Y-87670013D01*
X93300000Y-83675613D02*
X93300000Y-83170000D01*
X95094408Y-85470021D02*
X93300000Y-83675613D01*
X96594567Y-85470021D02*
X95094408Y-85470021D01*
X97800013Y-86675466D02*
X96594567Y-85470021D01*
X97800013Y-87670013D02*
X97800013Y-86675466D01*
X104420000Y-93960000D02*
X104090000Y-93960000D01*
X94049999Y-86971237D02*
X93266750Y-86187988D01*
X86880010Y-81830010D02*
X85680000Y-80630000D01*
X101522920Y-95299990D02*
X100679990Y-94457060D01*
X93266750Y-86187988D02*
X91580918Y-86187988D01*
X100679990Y-94457060D02*
X100679990Y-92831448D01*
X94923998Y-89200002D02*
X94049999Y-88326003D01*
X89559990Y-84167060D02*
X89559990Y-82500000D01*
X104420000Y-96500000D02*
X103219990Y-95299990D01*
X89559990Y-82500000D02*
X88890000Y-81830010D01*
X88890000Y-81830010D02*
X86880010Y-81830010D01*
X103219990Y-95299990D02*
X101522920Y-95299990D01*
X97048544Y-89200002D02*
X94923998Y-89200002D01*
X100679990Y-92831448D02*
X97048544Y-89200002D01*
X91580918Y-86187988D02*
X89559990Y-84167060D01*
X94049999Y-88326003D02*
X94049999Y-86971237D01*
X92099990Y-84167060D02*
X92099990Y-82672940D01*
X89062930Y-80630000D02*
X88220000Y-80630000D01*
X92099990Y-82672940D02*
X91257060Y-81830010D01*
X93645857Y-84870010D02*
X92802940Y-84870010D01*
X92802940Y-84870010D02*
X92099990Y-84167060D01*
X94845874Y-86070028D02*
X93645857Y-84870010D01*
X101880000Y-92682915D02*
X97200002Y-88002917D01*
X96346035Y-86070031D02*
X94845874Y-86070028D01*
X97200002Y-88002917D02*
X97200002Y-86923998D01*
X101880000Y-93960000D02*
X101880000Y-92682915D01*
X90262940Y-81830010D02*
X89062930Y-80630000D01*
X91257060Y-81830010D02*
X90262940Y-81830010D01*
X97200002Y-86923998D02*
X96346035Y-86070031D01*
X101037070Y-96500000D02*
X101880000Y-96500000D01*
X99697080Y-95160010D02*
X101037070Y-96500000D01*
X98842939Y-95160010D02*
X99697080Y-95160010D01*
X93449988Y-89767059D02*
X98842939Y-95160010D01*
X93449988Y-87219768D02*
X93449988Y-89767059D01*
X93018219Y-86787999D02*
X93449988Y-87219768D01*
X91332386Y-86787999D02*
X93018219Y-86787999D01*
X88959979Y-84415592D02*
X88959979Y-84030191D01*
X88959979Y-84030191D02*
X88220000Y-83170000D01*
X91332386Y-86787999D02*
X88959979Y-84415592D01*
X88220000Y-83675613D02*
X91332386Y-86787999D01*
X88220000Y-83170000D02*
X88220000Y-83675613D01*
X97000000Y-91000000D02*
X99340000Y-93340000D01*
X99340000Y-93340000D02*
X99340000Y-93960000D01*
X94639990Y-84167060D02*
X95342940Y-84870010D01*
X94639990Y-82139990D02*
X94639990Y-84167060D01*
X92802940Y-81830010D02*
X94330010Y-81830010D01*
X94330010Y-81830010D02*
X94639990Y-82139990D01*
X91602930Y-80630000D02*
X92802940Y-81830010D01*
X90760000Y-80630000D02*
X91602930Y-80630000D01*
X95342940Y-84870010D02*
X96870010Y-84870010D01*
X96870010Y-84870010D02*
X103000000Y-91000000D01*
X72980000Y-29830000D02*
X72980000Y-30672930D01*
X72980000Y-30672930D02*
X74180010Y-31872940D01*
X74180010Y-31872940D02*
X74180010Y-34000000D01*
X74180010Y-34000000D02*
X73680010Y-34500000D01*
X66000000Y-43540595D02*
X72872491Y-43540595D01*
X72872491Y-43540595D02*
X73622490Y-44290594D01*
X73680010Y-34500000D02*
X67000000Y-34500000D01*
X67000000Y-34500000D02*
X65500000Y-36000000D01*
X65500000Y-36000000D02*
X65500000Y-43040595D01*
X65500000Y-43040595D02*
X66000000Y-43540595D01*
X76557926Y-57593531D02*
X76557926Y-57415649D01*
X76557926Y-57415649D02*
X76557926Y-56354989D01*
X91642001Y-87946160D02*
X88565851Y-84870010D01*
X73899989Y-64977618D02*
X73899989Y-60251468D01*
X77239813Y-68317442D02*
X73899989Y-64977618D01*
X98594408Y-95760021D02*
X91642001Y-88807614D01*
X91642001Y-88807614D02*
X91642001Y-87946160D01*
X77239813Y-74088356D02*
X77239813Y-68317442D01*
X81751468Y-78600011D02*
X77239813Y-74088356D01*
X73899989Y-60251468D02*
X76557926Y-57593531D01*
X84476746Y-79325288D02*
X83751469Y-78600011D01*
X85182940Y-84870010D02*
X84476746Y-84163816D01*
X88565851Y-84870010D02*
X85182940Y-84870010D01*
X99340000Y-96340000D02*
X98760020Y-95760021D01*
X83751469Y-78600011D02*
X81751468Y-78600011D01*
X98760020Y-95760021D02*
X98594408Y-95760021D01*
X84476746Y-84163816D02*
X84476746Y-79325288D01*
X99340000Y-96500000D02*
X99340000Y-96340000D01*
X58095266Y-51069385D02*
X54019424Y-46993543D01*
X64020010Y-84167060D02*
X64020010Y-79772920D01*
X56399989Y-42600012D02*
X57748532Y-42600011D01*
X58248532Y-36899989D02*
X55748532Y-36899989D01*
X55748532Y-36899989D02*
X53248532Y-34399989D01*
X53248532Y-34399989D02*
X52248531Y-34399989D01*
X52248531Y-34399989D02*
X51320010Y-33471468D01*
X51320010Y-33471468D02*
X51320010Y-31175602D01*
X51320010Y-31175602D02*
X52660000Y-29835612D01*
X60984350Y-85470021D02*
X62717049Y-85470021D01*
X68353754Y-69812631D02*
X68016746Y-69475623D01*
X59600011Y-40748532D02*
X59600011Y-38251468D01*
X59600011Y-38251468D02*
X58248532Y-36899989D01*
X54019424Y-46993543D02*
X54019422Y-44980579D01*
X54019422Y-44980579D02*
X56399989Y-42600012D01*
X68079095Y-76738086D02*
X68079095Y-71239292D01*
X59497818Y-53399991D02*
X58095267Y-51997440D01*
X58095267Y-51997440D02*
X58095266Y-51069385D01*
X63451450Y-54299945D02*
X62418079Y-54299945D01*
X61518125Y-53399991D02*
X59497818Y-53399991D01*
X64154109Y-56759937D02*
X64154109Y-55002604D01*
X68900040Y-61505868D02*
X64154109Y-56759937D01*
X68900040Y-66991191D02*
X68900040Y-61505868D01*
X68016746Y-67874485D02*
X68900040Y-66991191D01*
X68016746Y-69475623D02*
X68016746Y-67874485D01*
X68353754Y-70964633D02*
X68353754Y-69812631D01*
X68079095Y-71239292D02*
X68353754Y-70964633D01*
X52660000Y-29835612D02*
X52660000Y-29830000D01*
X67455095Y-77362086D02*
X68079095Y-76738086D01*
X67219984Y-77362086D02*
X67455095Y-77362086D01*
X64862940Y-78929990D02*
X65652080Y-78929990D01*
X62717049Y-85470021D02*
X64020010Y-84167060D01*
X59299977Y-92259977D02*
X59299977Y-87154394D01*
X64154109Y-55002604D02*
X63451450Y-54299945D01*
X61000000Y-93960000D02*
X59299977Y-92259977D01*
X59299977Y-87154394D02*
X60984350Y-85470021D01*
X65652080Y-78929990D02*
X67219984Y-77362086D01*
X62418079Y-54299945D02*
X61518125Y-53399991D01*
X57748532Y-42600011D02*
X59600011Y-40748532D01*
X64020010Y-79772920D02*
X64862940Y-78929990D01*
X59899988Y-87402926D02*
X61232882Y-86070032D01*
X69500051Y-60973380D02*
X65387311Y-56860640D01*
X66560010Y-84591447D02*
X66560010Y-79719146D01*
X66560010Y-79719146D02*
X67717048Y-78562108D01*
X69279117Y-77235150D02*
X69279117Y-71736356D01*
X65387311Y-56860640D02*
X65387311Y-55799980D01*
X69500051Y-66742659D02*
X69500051Y-60973380D01*
X70571065Y-67813673D02*
X69500051Y-66742659D01*
X70571065Y-70444408D02*
X70571065Y-67813673D01*
X67717048Y-78562108D02*
X67952159Y-78562108D01*
X61232882Y-86070032D02*
X63081426Y-86070032D01*
X62251468Y-92600012D02*
X59899988Y-90248533D01*
X62251468Y-95248532D02*
X62251468Y-92600012D01*
X61000000Y-96500000D02*
X62251468Y-95248532D01*
X59899988Y-90248533D02*
X59899988Y-87402926D01*
X63081426Y-86070032D02*
X64281448Y-84870010D01*
X66281447Y-84870010D02*
X66560010Y-84591447D01*
X64281448Y-84870010D02*
X66281447Y-84870010D01*
X67952159Y-78562108D02*
X69279117Y-77235150D01*
X69279117Y-71736356D02*
X70571065Y-70444408D01*
X73138793Y-45503982D02*
X86496018Y-45503982D01*
X87500000Y-33980010D02*
X87019990Y-33500000D01*
X87500000Y-44500000D02*
X87500000Y-33980010D01*
X86496018Y-45503982D02*
X87500000Y-44500000D01*
X87019990Y-33500000D02*
X87019990Y-31872940D01*
X72502973Y-44868162D02*
X73138793Y-45503982D01*
X69686328Y-44868162D02*
X72502973Y-44868162D01*
X68271298Y-46283192D02*
X69686328Y-44868162D01*
X88220000Y-30672930D02*
X88220000Y-29830000D01*
X87019990Y-31872940D02*
X88220000Y-30672930D01*
X60735818Y-84870010D02*
X61119990Y-84870010D01*
X61119990Y-84870010D02*
X62820000Y-83170000D01*
X58699966Y-86905862D02*
X60735818Y-84870010D01*
X58460000Y-93960000D02*
X58699966Y-93720034D01*
X58699966Y-93720034D02*
X58699966Y-86905862D01*
X64929969Y-86070031D02*
X73125584Y-86070029D01*
X73125584Y-86070029D02*
X75520000Y-83675613D01*
X75520000Y-83675613D02*
X75520000Y-83170000D01*
X63729946Y-87270054D02*
X64929969Y-86070031D01*
X61729946Y-87270054D02*
X63729946Y-87270054D01*
X61100010Y-87899990D02*
X61729946Y-87270054D01*
X61100010Y-89751469D02*
X61100010Y-87899990D01*
X65148532Y-98200010D02*
X65148532Y-95510012D01*
X65148532Y-95510012D02*
X65340011Y-95318533D01*
X65340011Y-95318533D02*
X65340010Y-92101466D01*
X65340010Y-92101466D02*
X64898533Y-91659989D01*
X64898533Y-91659989D02*
X63008530Y-91659989D01*
X63008530Y-91659989D02*
X61100010Y-89751469D01*
X60160010Y-98200010D02*
X65148532Y-98200010D01*
X58460000Y-96500000D02*
X60160010Y-98200010D01*
X58568148Y-57299978D02*
X58156897Y-56888727D01*
X54719990Y-95160010D02*
X52882940Y-95160010D01*
X51459990Y-79563681D02*
X52375094Y-78648577D01*
X52375094Y-78648577D02*
X54135810Y-78648577D01*
X62997064Y-57299978D02*
X58568148Y-57299978D01*
X62766195Y-75368553D02*
X64996758Y-73137990D01*
X64996758Y-73137990D02*
X64996758Y-68700327D01*
X58156897Y-56888727D02*
X57406898Y-56138728D01*
X67700022Y-62002936D02*
X62997064Y-57299978D01*
X67700022Y-65997064D02*
X67700022Y-62002936D01*
X52200022Y-86002936D02*
X51459990Y-85262904D01*
X64996758Y-68700327D02*
X67700022Y-65997064D01*
X54135810Y-78648577D02*
X57415833Y-75368553D01*
X57415833Y-75368553D02*
X62766195Y-75368553D01*
X52179990Y-89517096D02*
X52200022Y-89497064D01*
X55920000Y-93960000D02*
X54719990Y-95160010D01*
X51459990Y-85262904D02*
X51459990Y-79563681D01*
X52882940Y-95160010D02*
X52179990Y-94457060D01*
X52200022Y-89497064D02*
X52200022Y-86002936D01*
X52179990Y-94457060D02*
X52179990Y-89517096D01*
X58011813Y-44400044D02*
X57461854Y-44950003D01*
X57461854Y-44950003D02*
X56711855Y-45700002D01*
X58494128Y-44400044D02*
X58011813Y-44400044D01*
X61400044Y-41494128D02*
X58494128Y-44400044D01*
X61400044Y-37505872D02*
X61400044Y-41494128D01*
X58994128Y-35099956D02*
X61400044Y-37505872D01*
X55200000Y-32370000D02*
X55200000Y-33305828D01*
X56994128Y-35099956D02*
X58994128Y-35099956D01*
X55200000Y-33305828D02*
X56994128Y-35099956D01*
X52882940Y-98200010D02*
X54219990Y-98200010D01*
X54219990Y-98200010D02*
X55920000Y-96500000D01*
X43839990Y-79500000D02*
X48839990Y-74500000D01*
X51500000Y-96817070D02*
X51500000Y-95474155D01*
X52882940Y-98200010D02*
X51500000Y-96817070D01*
X51500000Y-95474155D02*
X50979968Y-94954124D01*
X50979968Y-94954124D02*
X50979968Y-89020032D01*
X51000000Y-86500000D02*
X50000000Y-85500000D01*
X50979968Y-89020032D02*
X51000000Y-89000000D01*
X51000000Y-89000000D02*
X51000000Y-86500000D01*
X45172930Y-85500000D02*
X43839990Y-84167060D01*
X50000000Y-85500000D02*
X45172930Y-85500000D01*
X43839990Y-84167060D02*
X43839990Y-79500000D01*
X60000000Y-68500000D02*
X63500000Y-68500000D01*
X54000000Y-74500000D02*
X60000000Y-68500000D01*
X61227389Y-54299945D02*
X61569536Y-54299945D01*
X48839990Y-74500000D02*
X54000000Y-74500000D01*
X63500000Y-68500000D02*
X66500000Y-65500000D01*
X66500000Y-65500000D02*
X66500000Y-62500000D01*
X55499999Y-56999998D02*
X55499999Y-55500001D01*
X66500000Y-62500000D02*
X62499999Y-58499999D01*
X62499999Y-58499999D02*
X56999999Y-58499998D01*
X56999999Y-58499998D02*
X55499999Y-56999998D01*
X55499999Y-55500001D02*
X56997816Y-54002184D01*
X56997816Y-54002184D02*
X60929628Y-54002184D01*
X60929628Y-54002184D02*
X61227389Y-54299945D01*
X61569536Y-54299945D02*
X62769538Y-55499947D01*
X62769538Y-55499947D02*
X62943694Y-55499947D01*
X61227387Y-54299945D02*
X60927442Y-54000000D01*
X61569536Y-54299945D02*
X61227387Y-54299945D01*
X60927442Y-54000000D02*
X60500000Y-54000000D01*
X72890262Y-46103993D02*
X72254442Y-45468173D01*
X70439791Y-45468173D02*
X69464312Y-46443652D01*
X69464312Y-46443652D02*
X69464312Y-46787262D01*
X72254442Y-45468173D02*
X70439791Y-45468173D01*
X88220000Y-44628543D02*
X86744550Y-46103993D01*
X88220000Y-32370000D02*
X88220000Y-44628543D01*
X68739574Y-47511999D02*
X66967228Y-47511999D01*
X86744550Y-46103993D02*
X72890262Y-46103993D01*
X66967228Y-47511999D02*
X66877758Y-47422529D01*
X69464312Y-46787262D02*
X68739574Y-47511999D01*
X55920000Y-96500000D02*
X55577070Y-96500000D01*
X53380000Y-93960000D02*
X53540000Y-93960000D01*
X53540000Y-93960000D02*
X55500000Y-92000000D01*
X55500000Y-92000000D02*
X57000000Y-92000000D01*
X59079990Y-84027080D02*
X59079990Y-82672940D01*
X57000000Y-92000000D02*
X58000000Y-91000000D01*
X58000000Y-91000000D02*
X58000000Y-85107070D01*
X58000000Y-85107070D02*
X59079990Y-84027080D01*
X59079990Y-82672940D02*
X60280000Y-81472930D01*
X60280000Y-81472930D02*
X60280000Y-80630000D01*
X53374387Y-96500000D02*
X53380000Y-96500000D01*
X51579979Y-94705591D02*
X53374387Y-96500000D01*
X51579979Y-89268564D02*
X51579979Y-94705591D01*
X51600011Y-89248532D02*
X51579979Y-89268564D01*
X51600011Y-86251468D02*
X51600011Y-89248532D01*
X46379990Y-84528511D02*
X46751468Y-84899989D01*
X46379990Y-82812920D02*
X46379990Y-84528511D01*
X45040000Y-81472930D02*
X46379990Y-82812920D01*
X46751468Y-84899989D02*
X50248532Y-84899989D01*
X45040000Y-80630000D02*
X45040000Y-81472930D01*
X50248532Y-84899989D02*
X51600011Y-86251468D01*
X138593964Y-65300031D02*
X137533304Y-65300031D01*
X139193973Y-64700022D02*
X138593964Y-65300031D01*
X144000000Y-65920000D02*
X142780022Y-64700022D01*
X142780022Y-64700022D02*
X139193973Y-64700022D01*
X149849999Y-67200001D02*
X152799999Y-67200001D01*
X144180011Y-66100011D02*
X148750009Y-66100011D01*
X144000000Y-65920000D02*
X144180011Y-66100011D01*
X152799999Y-67200001D02*
X154000000Y-66000000D01*
X148750009Y-66100011D02*
X149849999Y-67200001D01*
X120269972Y-60139309D02*
X120269972Y-61199969D01*
X122500000Y-56786000D02*
X120269972Y-59016028D01*
X120269972Y-59016028D02*
X120269972Y-60139309D01*
X130848542Y-48500000D02*
X123324541Y-56024001D01*
X123324541Y-56024001D02*
X123261999Y-56024001D01*
X123261999Y-56024001D02*
X122500000Y-56786000D01*
X136500000Y-48500000D02*
X130848542Y-48500000D01*
X154000000Y-78700000D02*
X155700010Y-76999990D01*
X137000000Y-63500000D02*
X136500000Y-63000000D01*
X136500000Y-63000000D02*
X136500000Y-56583774D01*
X155700010Y-76999990D02*
X155700010Y-65502940D01*
X155700010Y-65502940D02*
X154997060Y-64799990D01*
X154997060Y-64799990D02*
X145925602Y-64799990D01*
X145925602Y-64799990D02*
X144625612Y-63500000D01*
X144625612Y-63500000D02*
X137000000Y-63500000D01*
X136500000Y-56583774D02*
X137179559Y-55904215D01*
X137179559Y-55904215D02*
X137179559Y-54843555D01*
X137179559Y-54843555D02*
X142343555Y-54843555D01*
X142343555Y-54843555D02*
X142500000Y-55000000D01*
X50499998Y-76848544D02*
X53390214Y-76848544D01*
X47580000Y-79768542D02*
X50499998Y-76848544D01*
X47580000Y-80630000D02*
X47580000Y-79768542D01*
X61619599Y-71424341D02*
X62680259Y-71424341D01*
X58814417Y-71424341D02*
X61619599Y-71424341D01*
X53390214Y-76848544D02*
X58814417Y-71424341D01*
X116500000Y-73500000D02*
X115566370Y-72566370D01*
X114983280Y-72566370D02*
X113922620Y-72566370D01*
X115566370Y-72566370D02*
X114983280Y-72566370D01*
X119500000Y-73580000D02*
X116500000Y-73500000D01*
X142302930Y-81160000D02*
X141460000Y-81160000D01*
X150179990Y-79959990D02*
X143502940Y-79959990D01*
X151460000Y-81240000D02*
X150179990Y-79959990D01*
X143502940Y-79959990D02*
X142302930Y-81160000D01*
X131549982Y-80748528D02*
X133151466Y-82350012D01*
X119837820Y-71040000D02*
X122967819Y-74169999D01*
X122967819Y-74169999D02*
X126972914Y-74169999D01*
X131549982Y-78747067D02*
X131549982Y-80748528D01*
X137508445Y-79820010D02*
X142060011Y-79820010D01*
X143260021Y-78620000D02*
X144000000Y-78620000D01*
X133151466Y-82350012D02*
X134978443Y-82350012D01*
X134978443Y-82350012D02*
X137508445Y-79820010D01*
X126972914Y-74169999D02*
X131549982Y-78747067D01*
X119500000Y-71040000D02*
X119837820Y-71040000D01*
X142060011Y-79820010D02*
X143260021Y-78620000D01*
X59690195Y-69700020D02*
X62136086Y-69700020D01*
X62136086Y-69700020D02*
X63196746Y-69700020D01*
X53141682Y-76248533D02*
X59690195Y-69700020D01*
X49600009Y-76248533D02*
X53141682Y-76248533D01*
X46250001Y-79598541D02*
X49600009Y-76248533D01*
X47580000Y-83164388D02*
X46250001Y-81834389D01*
X47580000Y-83170000D02*
X47580000Y-83164388D01*
X46250001Y-81834389D02*
X46250001Y-79598541D01*
X119500000Y-71040000D02*
X114282446Y-71040000D01*
X114282446Y-71040000D02*
X114010974Y-70768528D01*
X83140000Y-32370000D02*
X84340010Y-31169990D01*
X84340010Y-31169990D02*
X84340010Y-28679593D01*
X83759990Y-18339990D02*
X83759990Y-20700337D01*
X83997999Y-20938346D02*
X83997999Y-21999006D01*
X82420000Y-17000000D02*
X83759990Y-18339990D01*
X83759990Y-20700337D02*
X83997999Y-20938346D01*
X84321144Y-28660727D02*
X84321144Y-27600067D01*
X84340010Y-28679593D02*
X84321144Y-28660727D01*
X83140000Y-29830000D02*
X82521133Y-29211133D01*
X82521133Y-28660711D02*
X82521133Y-27600051D01*
X82521133Y-29211133D02*
X82521133Y-28660711D01*
X81699987Y-20260013D02*
X81699987Y-20939340D01*
X82420000Y-19540000D02*
X81699987Y-20260013D01*
X81699987Y-20939340D02*
X81699987Y-22000000D01*
X82302516Y-19657484D02*
X82302516Y-20239320D01*
X82420000Y-19540000D02*
X82302516Y-19657484D01*
X83000019Y-29690019D02*
X83000019Y-28760715D01*
X83140000Y-29830000D02*
X83000019Y-29690019D01*
X79880000Y-21956015D02*
X81173984Y-23249999D01*
X79880000Y-19540000D02*
X79880000Y-21956015D01*
X85159961Y-23249999D02*
X85609980Y-22799980D01*
X81173984Y-23249999D02*
X85159961Y-23249999D01*
X86121155Y-28660724D02*
X86121155Y-27600064D01*
X86121155Y-29388845D02*
X86121155Y-28660724D01*
X85680000Y-29830000D02*
X86121155Y-29388845D01*
X79880000Y-17000000D02*
X79880000Y-19540000D01*
X77340000Y-17000000D02*
X75599990Y-15259990D01*
X64305602Y-15259990D02*
X63705592Y-14659979D01*
X75599990Y-15259990D02*
X64305602Y-15259990D01*
X50120000Y-19031457D02*
X50120000Y-29830000D01*
X63705592Y-14659979D02*
X54491478Y-14659979D01*
X54491478Y-14659979D02*
X50120000Y-19031457D01*
X74180010Y-28000000D02*
X74180010Y-31024398D01*
X71500000Y-27500000D02*
X73680010Y-27500000D01*
X73680010Y-27500000D02*
X74180010Y-28000000D01*
X66000000Y-22000000D02*
X71500000Y-27500000D01*
X67460000Y-20540000D02*
X66000000Y-22000000D01*
X67460000Y-19540000D02*
X67460000Y-20540000D01*
X77340000Y-19540000D02*
X67460000Y-19540000D01*
X75520000Y-32364388D02*
X75520000Y-32370000D01*
X74180010Y-31024398D02*
X75520000Y-32364388D01*
X65405384Y-48622531D02*
X65086702Y-48303849D01*
X67964281Y-48112010D02*
X67453760Y-48622531D01*
X89000000Y-35000000D02*
X89000000Y-44697086D01*
X67453760Y-48622531D02*
X65405384Y-48622531D01*
X70688323Y-46068184D02*
X70064323Y-46692184D01*
X70064323Y-47035794D02*
X68988106Y-48112010D01*
X68988106Y-48112010D02*
X67964281Y-48112010D01*
X70064323Y-46692184D02*
X70064323Y-47035794D01*
X131848651Y-35999892D02*
X124014679Y-35999892D01*
X72005910Y-46068184D02*
X70688323Y-46068184D01*
X65086702Y-48303849D02*
X65086702Y-47243189D01*
X139159979Y-28094408D02*
X139159979Y-28688564D01*
X115519999Y-36170001D02*
X112979999Y-33630001D01*
X72641730Y-46704004D02*
X72005910Y-46068184D01*
X89000000Y-44697086D02*
X86993082Y-46704004D01*
X86993082Y-46704004D02*
X72641730Y-46704004D01*
X89929990Y-34070010D02*
X89000000Y-35000000D01*
X103957060Y-34070010D02*
X89929990Y-34070010D01*
X112979999Y-33630001D02*
X104397069Y-33630001D01*
X124014679Y-35999892D02*
X123844570Y-36170001D01*
X144500000Y-22754387D02*
X139159979Y-28094408D01*
X144500000Y-20500000D02*
X144500000Y-22754387D01*
X139159979Y-28688564D02*
X131848651Y-35999892D01*
X123844570Y-36170001D02*
X115519999Y-36170001D01*
X104397069Y-33630001D02*
X103957060Y-34070010D01*
X62748532Y-57899989D02*
X57248532Y-57899989D01*
X63470575Y-72624343D02*
X64396747Y-71698171D01*
X57098594Y-54749948D02*
X60243535Y-54749948D01*
X56100009Y-55748533D02*
X57098594Y-54749948D01*
X67100011Y-62251468D02*
X62748532Y-57899989D01*
X67100011Y-65748532D02*
X67100011Y-62251468D01*
X64396747Y-68451795D02*
X67100011Y-65748532D01*
X64396747Y-71698171D02*
X64396747Y-68451795D01*
X62104257Y-72624343D02*
X63470575Y-72624343D01*
X62060259Y-72580345D02*
X62104257Y-72624343D01*
X58506956Y-72580345D02*
X62060259Y-72580345D01*
X53638746Y-77448555D02*
X58506956Y-72580345D01*
X48919990Y-81969990D02*
X48919990Y-79277095D01*
X50120000Y-83170000D02*
X48919990Y-81969990D01*
X50748530Y-77448555D02*
X53638746Y-77448555D01*
X57248532Y-57899989D02*
X56100009Y-56751466D01*
X56100009Y-56751466D02*
X56100009Y-55748533D01*
X60243535Y-54749948D02*
X60993534Y-55499947D01*
X48919990Y-79277095D02*
X50748530Y-77448555D01*
X117927285Y-46330001D02*
X125257339Y-38999947D01*
X109100000Y-56490001D02*
X112499999Y-53090003D01*
X115399997Y-46330001D02*
X117927285Y-46330001D01*
X125257339Y-38999947D02*
X133591311Y-38999947D01*
X133591311Y-38999947D02*
X137331268Y-35259990D01*
X112499999Y-53090003D02*
X112500000Y-49229998D01*
X97497061Y-56093831D02*
X107503830Y-56093831D01*
X95303189Y-53899957D02*
X97497061Y-56093831D01*
X75618789Y-53899957D02*
X95303189Y-53899957D01*
X73314671Y-55666613D02*
X73852133Y-55666613D01*
X70391704Y-55943235D02*
X73038049Y-55943235D01*
X69352600Y-58378852D02*
X69352600Y-56982339D01*
X74839769Y-70960746D02*
X74839769Y-69311581D01*
X107503830Y-56093831D02*
X107899999Y-56490001D01*
X73155206Y-72645309D02*
X74839769Y-70960746D01*
X73155206Y-80454794D02*
X73155206Y-72645309D01*
X72980000Y-80630000D02*
X73155206Y-80454794D01*
X112500000Y-49229998D02*
X115399997Y-46330001D01*
X74839769Y-69311581D02*
X70999947Y-65471759D01*
X73038049Y-55943235D02*
X73314671Y-55666613D01*
X73852133Y-55666613D02*
X75618789Y-53899957D01*
X70999947Y-60026199D02*
X69352600Y-58378852D01*
X142660010Y-35259990D02*
X144000000Y-33920000D01*
X107899999Y-56490001D02*
X109100000Y-56490001D01*
X70999947Y-65471759D02*
X70999947Y-60026199D01*
X69352600Y-56982339D02*
X70391704Y-55943235D01*
X137331268Y-35259990D02*
X142660010Y-35259990D01*
X149800972Y-52300972D02*
X151250321Y-53750321D01*
X141451789Y-52300972D02*
X149800972Y-52300972D01*
X141150817Y-52000000D02*
X141451789Y-52300972D01*
X136500000Y-52000000D02*
X141150817Y-52000000D01*
X151250321Y-53750321D02*
X152500000Y-55000000D01*
X122500000Y-54500000D02*
X125000000Y-52000000D01*
X125000000Y-52000000D02*
X125070000Y-52000000D01*
X117970012Y-49681444D02*
X126151358Y-41500099D01*
X126151358Y-41500099D02*
X146006984Y-41500099D01*
X150231457Y-33920000D02*
X151460000Y-33920000D01*
X117970012Y-53389988D02*
X117970012Y-49681444D01*
X147500043Y-36651413D02*
X150231457Y-33920000D01*
X147500043Y-40007040D02*
X147500043Y-36651413D01*
X146006984Y-41500099D02*
X147500043Y-40007040D01*
X116120000Y-55240000D02*
X117970012Y-53389988D01*
X149600011Y-33702903D02*
X149600011Y-33239989D01*
X146900032Y-39758508D02*
X146900032Y-36402881D01*
X145758452Y-40900088D02*
X146900032Y-39758508D01*
X125902826Y-40900088D02*
X145758452Y-40900088D01*
X117370001Y-51449999D02*
X117370001Y-49432912D01*
X116120000Y-52700000D02*
X117370001Y-51449999D01*
X117370001Y-49432912D02*
X125902826Y-40900088D01*
X146900032Y-36402881D02*
X149600011Y-33702903D01*
X149600011Y-33239989D02*
X151460000Y-31380000D01*
X151460000Y-31380000D02*
X154000000Y-31380000D01*
X116120000Y-49834371D02*
X116120000Y-50160000D01*
X146300021Y-36154349D02*
X146300021Y-38805811D01*
X149000000Y-31300000D02*
X149000000Y-33454371D01*
X125654294Y-40300077D02*
X116120000Y-49834371D01*
X145509921Y-40300077D02*
X125654294Y-40300077D01*
X146099958Y-39710040D02*
X145509921Y-40300077D01*
X146099958Y-39005871D02*
X146099958Y-39710040D01*
X149000000Y-33454371D02*
X146300021Y-36154349D01*
X151460000Y-28840000D02*
X149000000Y-31300000D01*
X146300021Y-38805811D02*
X146099958Y-39005871D01*
X152799990Y-27639990D02*
X154000000Y-28840000D01*
X148399989Y-33205839D02*
X148399989Y-29251468D01*
X148399989Y-29251468D02*
X150011467Y-27639990D01*
X150011467Y-27639990D02*
X152799990Y-27639990D01*
X133839843Y-39599958D02*
X135779791Y-37660010D01*
X145700010Y-35905817D02*
X148399989Y-33205839D01*
X145700010Y-36957062D02*
X145700010Y-35905817D01*
X145099986Y-37557083D02*
X145700010Y-36957062D01*
X144997060Y-37660010D02*
X145099986Y-37557083D01*
X135779791Y-37660010D02*
X144997060Y-37660010D01*
X117485829Y-47620000D02*
X125505871Y-39599958D01*
X116120000Y-47620000D02*
X117485829Y-47620000D01*
X125505871Y-39599958D02*
X133839843Y-39599958D01*
X125008807Y-38399936D02*
X133342779Y-38399936D01*
X137822715Y-33920000D02*
X141460000Y-33920000D01*
X133342779Y-38399936D02*
X137822715Y-33920000D01*
X116120000Y-45080000D02*
X118328743Y-45080000D01*
X118328743Y-45080000D02*
X125008807Y-38399936D01*
X120020200Y-42540000D02*
X117251370Y-42540000D01*
X139514172Y-31380000D02*
X133094247Y-37799925D01*
X141460000Y-31380000D02*
X139514172Y-31380000D01*
X117251370Y-42540000D02*
X116120000Y-42540000D01*
X124760275Y-37799925D02*
X120020200Y-42540000D01*
X133094247Y-37799925D02*
X124760275Y-37799925D01*
X144000000Y-31380000D02*
X141460000Y-31380000D01*
X116120000Y-40000000D02*
X121711657Y-40000000D01*
X124511743Y-37199914D02*
X132845715Y-37199914D01*
X121711657Y-40000000D02*
X124511743Y-37199914D01*
X141205629Y-28840000D02*
X141460000Y-28840000D01*
X132845715Y-37199914D02*
X141205629Y-28840000D01*
X139759990Y-29140051D02*
X139759990Y-28342940D01*
X124263211Y-36599903D02*
X132300138Y-36599903D01*
X139759990Y-28342940D02*
X140462940Y-27639990D01*
X116120000Y-37460000D02*
X123403114Y-37460000D01*
X142799990Y-27639990D02*
X144000000Y-28840000D01*
X140462940Y-27639990D02*
X142799990Y-27639990D01*
X123403114Y-37460000D02*
X124263211Y-36599903D01*
X132300138Y-36599903D02*
X139759990Y-29140051D01*
D33*
G36*
X152028485Y-14043838D02*
X151047284Y-15023329D01*
X150515606Y-16303749D01*
X150514397Y-17690168D01*
X151043838Y-18971515D01*
X152023329Y-19952716D01*
X153303749Y-20484394D01*
X154690168Y-20485603D01*
X155971515Y-19956162D01*
X156952716Y-18976671D01*
X157315000Y-18104196D01*
X157315000Y-94896941D01*
X156956162Y-94028485D01*
X155976671Y-93047284D01*
X154696251Y-92515606D01*
X153309832Y-92514397D01*
X152028485Y-93043838D01*
X151047284Y-94023329D01*
X150515606Y-95303749D01*
X150514397Y-96690168D01*
X151043838Y-97971515D01*
X152023329Y-98952716D01*
X152895804Y-99315000D01*
X45103059Y-99315000D01*
X45971515Y-98956162D01*
X46952716Y-97976671D01*
X47484394Y-96696251D01*
X47485603Y-95309832D01*
X46956162Y-94028485D01*
X45976671Y-93047284D01*
X44696251Y-92515606D01*
X43309832Y-92514397D01*
X42028485Y-93043838D01*
X41047284Y-94023329D01*
X40685000Y-94895804D01*
X40685000Y-83766055D01*
X41107261Y-83766055D01*
X41250036Y-84291721D01*
X41583106Y-84722736D01*
X42055765Y-84993481D01*
X42158815Y-85012318D01*
X42373000Y-84889656D01*
X42373000Y-83547000D01*
X41268132Y-83547000D01*
X41107261Y-83766055D01*
X40685000Y-83766055D01*
X40685000Y-80726055D01*
X41107261Y-80726055D01*
X41250036Y-81251721D01*
X41583106Y-81682736D01*
X41962399Y-81900000D01*
X41583106Y-82117264D01*
X41250036Y-82548279D01*
X41107261Y-83073945D01*
X41268132Y-83293000D01*
X42373000Y-83293000D01*
X42373000Y-81950344D01*
X42285092Y-81900000D01*
X42373000Y-81849656D01*
X42373000Y-80507000D01*
X41268132Y-80507000D01*
X41107261Y-80726055D01*
X40685000Y-80726055D01*
X40685000Y-80033945D01*
X41107261Y-80033945D01*
X41268132Y-80253000D01*
X42373000Y-80253000D01*
X42373000Y-78910344D01*
X42158815Y-78787682D01*
X42055765Y-78806519D01*
X41583106Y-79077264D01*
X41250036Y-79508279D01*
X41107261Y-80033945D01*
X40685000Y-80033945D01*
X40685000Y-32966055D01*
X41107261Y-32966055D01*
X41250036Y-33491721D01*
X41583106Y-33922736D01*
X42055765Y-34193481D01*
X42158815Y-34212318D01*
X42373000Y-34089656D01*
X42373000Y-32747000D01*
X41268132Y-32747000D01*
X41107261Y-32966055D01*
X40685000Y-32966055D01*
X40685000Y-29926055D01*
X41107261Y-29926055D01*
X41250036Y-30451721D01*
X41583106Y-30882736D01*
X41962399Y-31100000D01*
X41583106Y-31317264D01*
X41250036Y-31748279D01*
X41107261Y-32273945D01*
X41268132Y-32493000D01*
X42373000Y-32493000D01*
X42373000Y-31150344D01*
X42285092Y-31100000D01*
X42373000Y-31049656D01*
X42373000Y-29707000D01*
X41268132Y-29707000D01*
X41107261Y-29926055D01*
X40685000Y-29926055D01*
X40685000Y-29233945D01*
X41107261Y-29233945D01*
X41268132Y-29453000D01*
X42373000Y-29453000D01*
X42373000Y-28110344D01*
X42627000Y-28110344D01*
X42627000Y-29453000D01*
X42647000Y-29453000D01*
X42647000Y-29707000D01*
X42627000Y-29707000D01*
X42627000Y-31049656D01*
X42714908Y-31100000D01*
X42627000Y-31150344D01*
X42627000Y-32493000D01*
X42647000Y-32493000D01*
X42647000Y-32747000D01*
X42627000Y-32747000D01*
X42627000Y-34089656D01*
X42841185Y-34212318D01*
X42944235Y-34193481D01*
X43416894Y-33922736D01*
X43749964Y-33491721D01*
X43764511Y-33438161D01*
X44060657Y-33881375D01*
X44509983Y-34181605D01*
X45040000Y-34287032D01*
X45570017Y-34181605D01*
X46019343Y-33881375D01*
X46310000Y-33446376D01*
X46600657Y-33881375D01*
X47049983Y-34181605D01*
X47580000Y-34287032D01*
X48110017Y-34181605D01*
X48559343Y-33881375D01*
X48850000Y-33446376D01*
X49140657Y-33881375D01*
X49589983Y-34181605D01*
X50120000Y-34287032D01*
X50650017Y-34181605D01*
X50811853Y-34073469D01*
X51693452Y-34955068D01*
X51948124Y-35125234D01*
X52248531Y-35184989D01*
X52923374Y-35184989D01*
X55193453Y-37455068D01*
X55448126Y-37625234D01*
X55748532Y-37684989D01*
X57923374Y-37684989D01*
X58815011Y-38576626D01*
X58815011Y-40423374D01*
X57423374Y-41815011D01*
X56399988Y-41815012D01*
X56198670Y-41855057D01*
X56099582Y-41874767D01*
X55844910Y-42044933D01*
X53464343Y-44425500D01*
X53294177Y-44680172D01*
X53240723Y-44948903D01*
X53234422Y-44980580D01*
X53234424Y-46993544D01*
X53258584Y-47115001D01*
X53294179Y-47293950D01*
X53464345Y-47548622D01*
X57310266Y-51394543D01*
X57310267Y-51997441D01*
X57310889Y-52000566D01*
X57370022Y-52297847D01*
X57540188Y-52552519D01*
X58204853Y-53217184D01*
X56997816Y-53217184D01*
X56697409Y-53276939D01*
X56442737Y-53447105D01*
X54944920Y-54944922D01*
X54774754Y-55199594D01*
X54737127Y-55388758D01*
X54714999Y-55500001D01*
X54714999Y-56999998D01*
X54774754Y-57300405D01*
X54944920Y-57555077D01*
X56444920Y-59055077D01*
X56699592Y-59225243D01*
X56999999Y-59284998D01*
X62174841Y-59284999D01*
X65715000Y-62825158D01*
X65715000Y-65174842D01*
X63174842Y-67715000D01*
X60000000Y-67715000D01*
X59699593Y-67774755D01*
X59444921Y-67944921D01*
X53674842Y-73715000D01*
X48839990Y-73715000D01*
X48539584Y-73774755D01*
X48284911Y-73944921D01*
X43284911Y-78944921D01*
X43257492Y-78985957D01*
X42944235Y-78806519D01*
X42841185Y-78787682D01*
X42627000Y-78910344D01*
X42627000Y-80253000D01*
X42647000Y-80253000D01*
X42647000Y-80507000D01*
X42627000Y-80507000D01*
X42627000Y-81849656D01*
X42714908Y-81900000D01*
X42627000Y-81950344D01*
X42627000Y-83293000D01*
X42647000Y-83293000D01*
X42647000Y-83547000D01*
X42627000Y-83547000D01*
X42627000Y-84889656D01*
X42841185Y-85012318D01*
X42944235Y-84993481D01*
X43333358Y-84770586D01*
X44617851Y-86055079D01*
X44872524Y-86225245D01*
X45172930Y-86285000D01*
X49674842Y-86285000D01*
X50215000Y-86825158D01*
X50215000Y-88919325D01*
X50194968Y-89020032D01*
X50194968Y-94954124D01*
X50254723Y-95254530D01*
X50424889Y-95509203D01*
X50424892Y-95509205D01*
X50715000Y-95799313D01*
X50715000Y-96817070D01*
X50774755Y-97117477D01*
X50944921Y-97372149D01*
X52327859Y-98755086D01*
X52327861Y-98755089D01*
X52582534Y-98925255D01*
X52882940Y-98985011D01*
X52882945Y-98985010D01*
X54219990Y-98985010D01*
X54520397Y-98925255D01*
X54775069Y-98755089D01*
X55287218Y-98242940D01*
X55389983Y-98311605D01*
X55920000Y-98417032D01*
X56450017Y-98311605D01*
X56899343Y-98011375D01*
X57190000Y-97576376D01*
X57480657Y-98011375D01*
X57929983Y-98311605D01*
X58460000Y-98417032D01*
X58990017Y-98311605D01*
X59092782Y-98242940D01*
X59604931Y-98755089D01*
X59859603Y-98925255D01*
X60160010Y-98985010D01*
X65148532Y-98985010D01*
X65448938Y-98925255D01*
X65703611Y-98755089D01*
X65873777Y-98500416D01*
X65933532Y-98200010D01*
X65933532Y-97035750D01*
X74955000Y-97035750D01*
X74955000Y-97876310D01*
X75051673Y-98109699D01*
X75230302Y-98288327D01*
X75463691Y-98385000D01*
X76054250Y-98385000D01*
X76213000Y-98226250D01*
X76213000Y-96877000D01*
X76467000Y-96877000D01*
X76467000Y-98226250D01*
X76625750Y-98385000D01*
X77216309Y-98385000D01*
X77449698Y-98288327D01*
X77628327Y-98109699D01*
X77725000Y-97876310D01*
X77725000Y-97744611D01*
X77963106Y-98052736D01*
X78435765Y-98323481D01*
X78538815Y-98342318D01*
X78753000Y-98219656D01*
X78753000Y-96877000D01*
X79007000Y-96877000D01*
X79007000Y-98219656D01*
X79221185Y-98342318D01*
X79324235Y-98323481D01*
X79796894Y-98052736D01*
X80129964Y-97621721D01*
X80150000Y-97547953D01*
X80170036Y-97621721D01*
X80503106Y-98052736D01*
X80975765Y-98323481D01*
X81078815Y-98342318D01*
X81293000Y-98219656D01*
X81293000Y-96877000D01*
X81547000Y-96877000D01*
X81547000Y-98219656D01*
X81761185Y-98342318D01*
X81864235Y-98323481D01*
X82336894Y-98052736D01*
X82669964Y-97621721D01*
X82690000Y-97547953D01*
X82710036Y-97621721D01*
X83043106Y-98052736D01*
X83515765Y-98323481D01*
X83618815Y-98342318D01*
X83833000Y-98219656D01*
X83833000Y-96877000D01*
X84087000Y-96877000D01*
X84087000Y-98219656D01*
X84301185Y-98342318D01*
X84404235Y-98323481D01*
X84876894Y-98052736D01*
X85209964Y-97621721D01*
X85230000Y-97547953D01*
X85250036Y-97621721D01*
X85583106Y-98052736D01*
X86055765Y-98323481D01*
X86158815Y-98342318D01*
X86373000Y-98219656D01*
X86373000Y-96877000D01*
X86627000Y-96877000D01*
X86627000Y-98219656D01*
X86841185Y-98342318D01*
X86944235Y-98323481D01*
X87416894Y-98052736D01*
X87749964Y-97621721D01*
X87892739Y-97096055D01*
X87731868Y-96877000D01*
X86627000Y-96877000D01*
X86373000Y-96877000D01*
X85268132Y-96877000D01*
X85230000Y-96928924D01*
X85191868Y-96877000D01*
X84087000Y-96877000D01*
X83833000Y-96877000D01*
X82728132Y-96877000D01*
X82690000Y-96928924D01*
X82651868Y-96877000D01*
X81547000Y-96877000D01*
X81293000Y-96877000D01*
X80188132Y-96877000D01*
X80150000Y-96928924D01*
X80111868Y-96877000D01*
X79007000Y-96877000D01*
X78753000Y-96877000D01*
X77648132Y-96877000D01*
X77613461Y-96924211D01*
X77566250Y-96877000D01*
X76467000Y-96877000D01*
X76213000Y-96877000D01*
X75113750Y-96877000D01*
X74955000Y-97035750D01*
X65933532Y-97035750D01*
X65933532Y-95816079D01*
X66065256Y-95618940D01*
X66125011Y-95318533D01*
X66125011Y-94056055D01*
X74947261Y-94056055D01*
X75090036Y-94581721D01*
X75423106Y-95012736D01*
X75601636Y-95115000D01*
X75463691Y-95115000D01*
X75230302Y-95211673D01*
X75051673Y-95390301D01*
X74955000Y-95623690D01*
X74955000Y-96464250D01*
X75113750Y-96623000D01*
X76213000Y-96623000D01*
X76213000Y-95273750D01*
X76153170Y-95213920D01*
X76213000Y-95179656D01*
X76213000Y-93837000D01*
X76467000Y-93837000D01*
X76467000Y-95179656D01*
X76526830Y-95213920D01*
X76467000Y-95273750D01*
X76467000Y-96623000D01*
X77566250Y-96623000D01*
X77613461Y-96575789D01*
X77648132Y-96623000D01*
X78753000Y-96623000D01*
X78753000Y-95280344D01*
X78665092Y-95230000D01*
X78753000Y-95179656D01*
X78753000Y-93837000D01*
X77648132Y-93837000D01*
X77610000Y-93888924D01*
X77571868Y-93837000D01*
X76467000Y-93837000D01*
X76213000Y-93837000D01*
X75108132Y-93837000D01*
X74947261Y-94056055D01*
X66125011Y-94056055D01*
X66125011Y-93363945D01*
X74947261Y-93363945D01*
X75108132Y-93583000D01*
X76213000Y-93583000D01*
X76213000Y-92240344D01*
X75998815Y-92117682D01*
X75895765Y-92136519D01*
X75423106Y-92407264D01*
X75090036Y-92838279D01*
X74947261Y-93363945D01*
X66125011Y-93363945D01*
X66125010Y-92101466D01*
X66065255Y-91801060D01*
X65895089Y-91546387D01*
X65453612Y-91104910D01*
X65198940Y-90934744D01*
X64898533Y-90874989D01*
X63333688Y-90874989D01*
X61885010Y-89426311D01*
X61885010Y-88225148D01*
X62055104Y-88055054D01*
X63729946Y-88055054D01*
X64030353Y-87995299D01*
X64285025Y-87825133D01*
X65255127Y-86855031D01*
X73125584Y-86855029D01*
X73425991Y-86795274D01*
X73680663Y-86625108D01*
X75268721Y-85037050D01*
X75520000Y-85087032D01*
X76050017Y-84981605D01*
X76499343Y-84681375D01*
X76790000Y-84246376D01*
X77080657Y-84681375D01*
X77457002Y-84932840D01*
X77284399Y-85105443D01*
X77279100Y-85103243D01*
X76723339Y-85102758D01*
X76209697Y-85314990D01*
X75816371Y-85707630D01*
X75603243Y-86220900D01*
X75602758Y-86776661D01*
X75814990Y-87290303D01*
X76207630Y-87683629D01*
X76215000Y-87686689D01*
X76215000Y-89540000D01*
X76274755Y-89840407D01*
X76444921Y-90095079D01*
X78478542Y-92128700D01*
X78435765Y-92136519D01*
X77963106Y-92407264D01*
X77630036Y-92838279D01*
X77610000Y-92912047D01*
X77589964Y-92838279D01*
X77256894Y-92407264D01*
X76784235Y-92136519D01*
X76681185Y-92117682D01*
X76467000Y-92240344D01*
X76467000Y-93583000D01*
X77571868Y-93583000D01*
X77610000Y-93531076D01*
X77648132Y-93583000D01*
X78753000Y-93583000D01*
X78753000Y-93563000D01*
X79007000Y-93563000D01*
X79007000Y-93583000D01*
X79027000Y-93583000D01*
X79027000Y-93837000D01*
X79007000Y-93837000D01*
X79007000Y-95179656D01*
X79094908Y-95230000D01*
X79007000Y-95280344D01*
X79007000Y-96623000D01*
X80111868Y-96623000D01*
X80150000Y-96571076D01*
X80188132Y-96623000D01*
X81293000Y-96623000D01*
X81293000Y-96603000D01*
X81547000Y-96603000D01*
X81547000Y-96623000D01*
X82651868Y-96623000D01*
X82690000Y-96571076D01*
X82728132Y-96623000D01*
X83833000Y-96623000D01*
X83833000Y-96603000D01*
X84087000Y-96603000D01*
X84087000Y-96623000D01*
X85191868Y-96623000D01*
X85230000Y-96571076D01*
X85268132Y-96623000D01*
X86373000Y-96623000D01*
X86373000Y-96603000D01*
X86627000Y-96603000D01*
X86627000Y-96623000D01*
X87731868Y-96623000D01*
X87892739Y-96403945D01*
X87749964Y-95878279D01*
X87416894Y-95447264D01*
X87067043Y-95246865D01*
X87479343Y-94971375D01*
X87779573Y-94522049D01*
X87885000Y-93992032D01*
X87885000Y-93427968D01*
X87779573Y-92897951D01*
X87479343Y-92448625D01*
X87030017Y-92148395D01*
X86500000Y-92042968D01*
X85969983Y-92148395D01*
X85867218Y-92217060D01*
X84755058Y-91104900D01*
X84500386Y-90934734D01*
X84199979Y-90874979D01*
X82485137Y-90874979D01*
X81285000Y-89674842D01*
X81285000Y-85792228D01*
X81870000Y-85207228D01*
X83717851Y-87055079D01*
X83972523Y-87225245D01*
X84272930Y-87285000D01*
X87242799Y-87285000D01*
X87244990Y-87290303D01*
X87637630Y-87683629D01*
X88150900Y-87896757D01*
X88706661Y-87897242D01*
X88714037Y-87894195D01*
X89182145Y-88362303D01*
X89033243Y-88720900D01*
X89032758Y-89276661D01*
X89244990Y-89790303D01*
X89637630Y-90183629D01*
X90150900Y-90396757D01*
X90706661Y-90397242D01*
X91220303Y-90185010D01*
X91565072Y-89840843D01*
X97994354Y-96270125D01*
X97955000Y-96467968D01*
X97955000Y-97032032D01*
X98060427Y-97562049D01*
X98360657Y-98011375D01*
X98809983Y-98311605D01*
X99340000Y-98417032D01*
X99870017Y-98311605D01*
X100319343Y-98011375D01*
X100610000Y-97576376D01*
X100900657Y-98011375D01*
X101349983Y-98311605D01*
X101880000Y-98417032D01*
X102410017Y-98311605D01*
X102859343Y-98011375D01*
X103150000Y-97576376D01*
X103440657Y-98011375D01*
X103889983Y-98311605D01*
X104420000Y-98417032D01*
X104950017Y-98311605D01*
X105399343Y-98011375D01*
X105690000Y-97576376D01*
X105980657Y-98011375D01*
X106429983Y-98311605D01*
X106960000Y-98417032D01*
X107490017Y-98311605D01*
X107939343Y-98011375D01*
X108230000Y-97576376D01*
X108520657Y-98011375D01*
X108969983Y-98311605D01*
X109500000Y-98417032D01*
X110030017Y-98311605D01*
X110132782Y-98242940D01*
X110644931Y-98755089D01*
X110899603Y-98925255D01*
X111200010Y-98985010D01*
X143592663Y-98985010D01*
X143893070Y-98925255D01*
X144147742Y-98755089D01*
X145595079Y-97307752D01*
X145765245Y-97053079D01*
X145825001Y-96752673D01*
X145825000Y-96752668D01*
X145825000Y-92927944D01*
X146099670Y-92744415D01*
X146424526Y-92258234D01*
X146538600Y-91684745D01*
X146538600Y-91315255D01*
X146424526Y-90741766D01*
X146099670Y-90255585D01*
X145613489Y-89930729D01*
X145040000Y-89816655D01*
X144466511Y-89930729D01*
X143980330Y-90255585D01*
X143770000Y-90570366D01*
X143559670Y-90255585D01*
X143285000Y-90072056D01*
X143285000Y-86785158D01*
X143515079Y-86555079D01*
X143685245Y-86300407D01*
X143745000Y-86000000D01*
X143745000Y-85065158D01*
X143765443Y-85044715D01*
X143967968Y-85085000D01*
X144532032Y-85085000D01*
X145062049Y-84979573D01*
X145511375Y-84679343D01*
X145641231Y-84485000D01*
X147874842Y-84485000D01*
X148924929Y-85535086D01*
X148924931Y-85535089D01*
X149095337Y-85648950D01*
X149179604Y-85705255D01*
X149480010Y-85765011D01*
X149480015Y-85765010D01*
X152799990Y-85765010D01*
X153100397Y-85705255D01*
X153355069Y-85535089D01*
X153765443Y-85124715D01*
X153967968Y-85165000D01*
X154532032Y-85165000D01*
X155062049Y-85059573D01*
X155511375Y-84759343D01*
X155811605Y-84310017D01*
X155917032Y-83780000D01*
X155811605Y-83249983D01*
X155511375Y-82800657D01*
X155076376Y-82510000D01*
X155511375Y-82219343D01*
X155811605Y-81770017D01*
X155917032Y-81240000D01*
X155811605Y-80709983D01*
X155511375Y-80260657D01*
X155076376Y-79970000D01*
X155511375Y-79679343D01*
X155811605Y-79230017D01*
X155917032Y-78700000D01*
X155811605Y-78169983D01*
X155742940Y-78067218D01*
X156255089Y-77555069D01*
X156425255Y-77300397D01*
X156485010Y-76999990D01*
X156485010Y-65502940D01*
X156425255Y-65202534D01*
X156255089Y-64947861D01*
X155552139Y-64244911D01*
X155297467Y-64074745D01*
X154997060Y-64014990D01*
X146250759Y-64014990D01*
X145180691Y-62944921D01*
X144926019Y-62774755D01*
X144625612Y-62715000D01*
X137325158Y-62715000D01*
X137285000Y-62674842D01*
X137285000Y-56908932D01*
X137734638Y-56459294D01*
X137904804Y-56204621D01*
X137939949Y-56027941D01*
X137963074Y-56018386D01*
X138353020Y-55629119D01*
X138353254Y-55628555D01*
X140720487Y-55628555D01*
X140901314Y-56066191D01*
X141431021Y-56596822D01*
X142123469Y-56884352D01*
X142873241Y-56885006D01*
X143566191Y-56598686D01*
X144096822Y-56068979D01*
X144384352Y-55376531D01*
X144385006Y-54626759D01*
X144161288Y-54085319D01*
X147959632Y-54085319D01*
X151129073Y-57254760D01*
X151383746Y-57424926D01*
X151684152Y-57484681D01*
X153315848Y-57484681D01*
X153616255Y-57424926D01*
X153870927Y-57254760D01*
X155554436Y-55571250D01*
X155554439Y-55571248D01*
X155724605Y-55316575D01*
X155727821Y-55300407D01*
X155784361Y-55016169D01*
X155784360Y-55016164D01*
X155784360Y-51716151D01*
X156065551Y-51599966D01*
X156596182Y-51070259D01*
X156883712Y-50377811D01*
X156884366Y-49628039D01*
X156598046Y-48935089D01*
X156068339Y-48404458D01*
X155375891Y-48116928D01*
X154626119Y-48116274D01*
X154341934Y-48233696D01*
X152841158Y-46732920D01*
X152586486Y-46562754D01*
X152286079Y-46502999D01*
X148439458Y-46502999D01*
X148249887Y-46376332D01*
X147949480Y-46316577D01*
X126468423Y-46316577D01*
X126168017Y-46376332D01*
X125913344Y-46546498D01*
X125354399Y-47105443D01*
X125349100Y-47103243D01*
X124793339Y-47102758D01*
X124279697Y-47314990D01*
X123886371Y-47707630D01*
X123673243Y-48220900D01*
X123672758Y-48776661D01*
X123884990Y-49290303D01*
X124065921Y-49471551D01*
X119955034Y-53582438D01*
X119955034Y-50503666D01*
X126673700Y-43785000D01*
X146204174Y-43785000D01*
X146504581Y-43725245D01*
X146759253Y-43555079D01*
X149255144Y-41059188D01*
X149425310Y-40804515D01*
X149485065Y-40504109D01*
X149485065Y-39341185D01*
X149617682Y-39341185D01*
X149636519Y-39444235D01*
X149907264Y-39916894D01*
X150338279Y-40249964D01*
X150863945Y-40392739D01*
X151083000Y-40231868D01*
X151083000Y-39127000D01*
X151337000Y-39127000D01*
X151337000Y-40231868D01*
X151556055Y-40392739D01*
X152081721Y-40249964D01*
X152512736Y-39916894D01*
X152615000Y-39738364D01*
X152615000Y-39876309D01*
X152711673Y-40109698D01*
X152890301Y-40288327D01*
X153123690Y-40385000D01*
X153964250Y-40385000D01*
X154123000Y-40226250D01*
X154123000Y-39127000D01*
X154377000Y-39127000D01*
X154377000Y-40226250D01*
X154535750Y-40385000D01*
X155376310Y-40385000D01*
X155609699Y-40288327D01*
X155788327Y-40109698D01*
X155885000Y-39876309D01*
X155885000Y-39285750D01*
X155726250Y-39127000D01*
X154377000Y-39127000D01*
X154123000Y-39127000D01*
X152773750Y-39127000D01*
X152713920Y-39186830D01*
X152679656Y-39127000D01*
X151337000Y-39127000D01*
X151083000Y-39127000D01*
X149740344Y-39127000D01*
X149617682Y-39341185D01*
X149485065Y-39341185D01*
X149485065Y-37473635D01*
X149713699Y-37245000D01*
X149818769Y-37245000D01*
X149948625Y-37439343D01*
X150391839Y-37735489D01*
X150338279Y-37750036D01*
X149907264Y-38083106D01*
X149636519Y-38555765D01*
X149617682Y-38658815D01*
X149740344Y-38873000D01*
X151083000Y-38873000D01*
X151083000Y-38853000D01*
X151337000Y-38853000D01*
X151337000Y-38873000D01*
X152679656Y-38873000D01*
X152713920Y-38813170D01*
X152773750Y-38873000D01*
X154123000Y-38873000D01*
X154123000Y-38853000D01*
X154377000Y-38853000D01*
X154377000Y-38873000D01*
X155726250Y-38873000D01*
X155885000Y-38714250D01*
X155885000Y-38123691D01*
X155788327Y-37890302D01*
X155609699Y-37711673D01*
X155376310Y-37615000D01*
X155248486Y-37615000D01*
X155511375Y-37439343D01*
X155811605Y-36990017D01*
X155917032Y-36460000D01*
X155811605Y-35929983D01*
X155742940Y-35827218D01*
X156255089Y-35315069D01*
X156425255Y-35060397D01*
X156485010Y-34759990D01*
X156485010Y-28342940D01*
X156470623Y-28270613D01*
X156425255Y-28042533D01*
X156255089Y-27787861D01*
X147708468Y-19241240D01*
X147453796Y-19071074D01*
X147153389Y-19011319D01*
X146291159Y-19011319D01*
X144750247Y-17470407D01*
X144904818Y-17406385D01*
X145377188Y-16968379D01*
X145645983Y-16382946D01*
X145527367Y-16127000D01*
X144167000Y-16127000D01*
X144167000Y-16147000D01*
X143913000Y-16147000D01*
X143913000Y-16127000D01*
X143893000Y-16127000D01*
X143893000Y-15873000D01*
X143913000Y-15873000D01*
X143913000Y-14513164D01*
X144167000Y-14513164D01*
X144167000Y-15873000D01*
X145527367Y-15873000D01*
X145645983Y-15617054D01*
X145377188Y-15031621D01*
X144904818Y-14593615D01*
X144422944Y-14394025D01*
X144167000Y-14513164D01*
X143913000Y-14513164D01*
X143657056Y-14394025D01*
X143175182Y-14593615D01*
X143077602Y-14684097D01*
X142980090Y-14532559D01*
X142767890Y-14387569D01*
X142516000Y-14336560D01*
X140484000Y-14336560D01*
X140248683Y-14380838D01*
X140032559Y-14519910D01*
X139887569Y-14732110D01*
X139836560Y-14984000D01*
X139836560Y-17016000D01*
X139880838Y-17251317D01*
X140019910Y-17467441D01*
X140232110Y-17612431D01*
X140484000Y-17663440D01*
X140806181Y-17663440D01*
X140944921Y-17871079D01*
X141175000Y-18101158D01*
X141175000Y-18836560D01*
X140944000Y-18836560D01*
X140708683Y-18880838D01*
X140492559Y-19019910D01*
X140347569Y-19232110D01*
X140296560Y-19484000D01*
X140296560Y-21516000D01*
X140340838Y-21751317D01*
X140479910Y-21967441D01*
X140692110Y-22112431D01*
X140944000Y-22163440D01*
X141175000Y-22163440D01*
X141175000Y-24120686D01*
X133580686Y-31715000D01*
X122532049Y-31715000D01*
X122228845Y-31411265D01*
X121756724Y-31215223D01*
X121245519Y-31214777D01*
X120773057Y-31409995D01*
X120587728Y-31595000D01*
X117316291Y-31595000D01*
X117162811Y-31365302D01*
X116697264Y-31054233D01*
X116148113Y-30945000D01*
X116091887Y-30945000D01*
X115542736Y-31054233D01*
X115077189Y-31365302D01*
X114766120Y-31830849D01*
X114656887Y-32380000D01*
X114766120Y-32929151D01*
X115077189Y-33394698D01*
X115481703Y-33664986D01*
X115264866Y-33767611D01*
X114888959Y-34182577D01*
X114816845Y-34356689D01*
X113535078Y-33074922D01*
X113280406Y-32904756D01*
X112979999Y-32845001D01*
X109843874Y-32845001D01*
X109891904Y-32729039D01*
X109769915Y-32507000D01*
X108627000Y-32507000D01*
X108627000Y-32527000D01*
X108373000Y-32527000D01*
X108373000Y-32507000D01*
X107230085Y-32507000D01*
X107108096Y-32729039D01*
X107156126Y-32845001D01*
X104763839Y-32845001D01*
X104691868Y-32747000D01*
X103587000Y-32747000D01*
X103587000Y-32767000D01*
X103333000Y-32767000D01*
X103333000Y-32747000D01*
X103313000Y-32747000D01*
X103313000Y-32493000D01*
X103333000Y-32493000D01*
X103333000Y-31150344D01*
X103273170Y-31116080D01*
X103333000Y-31056250D01*
X103333000Y-29707000D01*
X103587000Y-29707000D01*
X103587000Y-31056250D01*
X103646830Y-31116080D01*
X103587000Y-31150344D01*
X103587000Y-32493000D01*
X104691868Y-32493000D01*
X104852739Y-32273945D01*
X104786743Y-32030961D01*
X107108096Y-32030961D01*
X107230085Y-32253000D01*
X108373000Y-32253000D01*
X108373000Y-31109371D01*
X108627000Y-31109371D01*
X108627000Y-32253000D01*
X109769915Y-32253000D01*
X109891904Y-32030961D01*
X109731041Y-31642577D01*
X109355134Y-31227611D01*
X108849041Y-30988086D01*
X108627000Y-31109371D01*
X108373000Y-31109371D01*
X108150959Y-30988086D01*
X107644866Y-31227611D01*
X107268959Y-31642577D01*
X107108096Y-32030961D01*
X104786743Y-32030961D01*
X104709964Y-31748279D01*
X104376894Y-31317264D01*
X104198364Y-31215000D01*
X104336309Y-31215000D01*
X104569698Y-31118327D01*
X104748327Y-30939699D01*
X104845000Y-30706310D01*
X104845000Y-29865750D01*
X104686250Y-29707000D01*
X103587000Y-29707000D01*
X103333000Y-29707000D01*
X103313000Y-29707000D01*
X103313000Y-29453000D01*
X103333000Y-29453000D01*
X103333000Y-28103750D01*
X103587000Y-28103750D01*
X103587000Y-29453000D01*
X104686250Y-29453000D01*
X104845000Y-29294250D01*
X104845000Y-28453690D01*
X104748327Y-28220301D01*
X104569698Y-28041673D01*
X104336309Y-27945000D01*
X103745750Y-27945000D01*
X103587000Y-28103750D01*
X103333000Y-28103750D01*
X103174250Y-27945000D01*
X102583691Y-27945000D01*
X102350302Y-28041673D01*
X102171673Y-28220301D01*
X102075000Y-28453690D01*
X102075000Y-28581514D01*
X101899343Y-28318625D01*
X101705000Y-28188769D01*
X101705000Y-27905158D01*
X102425116Y-27185042D01*
X124917028Y-27185042D01*
X125217435Y-27125287D01*
X125472107Y-26955121D01*
X131281647Y-21145581D01*
X131589983Y-21351605D01*
X132120000Y-21457032D01*
X132650017Y-21351605D01*
X133099343Y-21051375D01*
X133399573Y-20602049D01*
X133505000Y-20072032D01*
X133505000Y-19507968D01*
X133399573Y-18977951D01*
X133099343Y-18528625D01*
X132884393Y-18385000D01*
X132996309Y-18385000D01*
X133229698Y-18288327D01*
X133408327Y-18109699D01*
X133505000Y-17876310D01*
X133505000Y-17035750D01*
X133346250Y-16877000D01*
X132247000Y-16877000D01*
X132247000Y-16897000D01*
X131993000Y-16897000D01*
X131993000Y-16877000D01*
X131973000Y-16877000D01*
X131973000Y-16623000D01*
X131993000Y-16623000D01*
X131993000Y-15273750D01*
X132247000Y-15273750D01*
X132247000Y-16623000D01*
X133346250Y-16623000D01*
X133505000Y-16464250D01*
X133505000Y-15623690D01*
X133408327Y-15390301D01*
X133229698Y-15211673D01*
X132996309Y-15115000D01*
X132405750Y-15115000D01*
X132247000Y-15273750D01*
X131993000Y-15273750D01*
X131834250Y-15115000D01*
X131243691Y-15115000D01*
X131010302Y-15211673D01*
X130831673Y-15390301D01*
X130735000Y-15623690D01*
X130735000Y-15751514D01*
X130559343Y-15488625D01*
X130110017Y-15188395D01*
X129580000Y-15082968D01*
X129049983Y-15188395D01*
X128600657Y-15488625D01*
X128310000Y-15923624D01*
X128019343Y-15488625D01*
X127570017Y-15188395D01*
X127040000Y-15082968D01*
X126509983Y-15188395D01*
X126060657Y-15488625D01*
X125770000Y-15923624D01*
X125479343Y-15488625D01*
X125030017Y-15188395D01*
X124500000Y-15082968D01*
X123969983Y-15188395D01*
X123520657Y-15488625D01*
X123230000Y-15923624D01*
X122939343Y-15488625D01*
X122490017Y-15188395D01*
X121960000Y-15082968D01*
X121429983Y-15188395D01*
X120980657Y-15488625D01*
X120680427Y-15937951D01*
X120575000Y-16467968D01*
X120575000Y-17032032D01*
X120679023Y-17554990D01*
X111608572Y-17554990D01*
X111308165Y-17614745D01*
X111053493Y-17784911D01*
X111045000Y-17793404D01*
X111045000Y-16995750D01*
X110886250Y-16837000D01*
X109787000Y-16837000D01*
X109787000Y-16857000D01*
X109533000Y-16857000D01*
X109533000Y-16837000D01*
X109513000Y-16837000D01*
X109513000Y-16583000D01*
X109533000Y-16583000D01*
X109533000Y-15233750D01*
X109787000Y-15233750D01*
X109787000Y-16583000D01*
X110886250Y-16583000D01*
X111045000Y-16424250D01*
X111045000Y-15583690D01*
X110948327Y-15350301D01*
X110769698Y-15171673D01*
X110536309Y-15075000D01*
X109945750Y-15075000D01*
X109787000Y-15233750D01*
X109533000Y-15233750D01*
X109374250Y-15075000D01*
X108783691Y-15075000D01*
X108550302Y-15171673D01*
X108371673Y-15350301D01*
X108275000Y-15583690D01*
X108275000Y-15711514D01*
X108099343Y-15448625D01*
X107650017Y-15148395D01*
X107120000Y-15042968D01*
X106589983Y-15148395D01*
X106140657Y-15448625D01*
X105850000Y-15883624D01*
X105559343Y-15448625D01*
X105110017Y-15148395D01*
X104580000Y-15042968D01*
X104049983Y-15148395D01*
X103600657Y-15448625D01*
X103310000Y-15883624D01*
X103019343Y-15448625D01*
X102570017Y-15148395D01*
X102040000Y-15042968D01*
X101509983Y-15148395D01*
X101201647Y-15354419D01*
X100552139Y-14704911D01*
X100297467Y-14534745D01*
X99997060Y-14474990D01*
X92740010Y-14474990D01*
X92439604Y-14534745D01*
X92252177Y-14659979D01*
X92184931Y-14704911D01*
X89474841Y-17415001D01*
X88885000Y-17415001D01*
X88885000Y-17035750D01*
X88726250Y-16877000D01*
X87627000Y-16877000D01*
X87627000Y-16897000D01*
X87373000Y-16897000D01*
X87373000Y-16877000D01*
X87353000Y-16877000D01*
X87353000Y-16623000D01*
X87373000Y-16623000D01*
X87373000Y-15273750D01*
X87627000Y-15273750D01*
X87627000Y-16623000D01*
X88726250Y-16623000D01*
X88885000Y-16464250D01*
X88885000Y-15623690D01*
X88788327Y-15390301D01*
X88609698Y-15211673D01*
X88376309Y-15115000D01*
X87785750Y-15115000D01*
X87627000Y-15273750D01*
X87373000Y-15273750D01*
X87214250Y-15115000D01*
X86623691Y-15115000D01*
X86390302Y-15211673D01*
X86211673Y-15390301D01*
X86115000Y-15623690D01*
X86115000Y-15751514D01*
X85939343Y-15488625D01*
X85490017Y-15188395D01*
X84960000Y-15082968D01*
X84429983Y-15188395D01*
X84327218Y-15257060D01*
X83815069Y-14744911D01*
X83560397Y-14574745D01*
X83259990Y-14514990D01*
X79382940Y-14514990D01*
X79082533Y-14574745D01*
X78827861Y-14744911D01*
X78178353Y-15394419D01*
X77870017Y-15188395D01*
X77340000Y-15082968D01*
X76809983Y-15188395D01*
X76707218Y-15257060D01*
X76155069Y-14704911D01*
X75900397Y-14534745D01*
X75599990Y-14474990D01*
X64630759Y-14474990D01*
X64260673Y-14104903D01*
X64260671Y-14104900D01*
X64108006Y-14002893D01*
X64005999Y-13934734D01*
X63705593Y-13874979D01*
X54491478Y-13874979D01*
X54191072Y-13934734D01*
X53936399Y-14104900D01*
X53936397Y-14104903D01*
X49564921Y-18476378D01*
X49394755Y-18731050D01*
X49346923Y-18971515D01*
X49335000Y-19031457D01*
X49335000Y-28188769D01*
X49140657Y-28318625D01*
X48850000Y-28753624D01*
X48559343Y-28318625D01*
X48110017Y-28018395D01*
X47580000Y-27912968D01*
X47049983Y-28018395D01*
X46600657Y-28318625D01*
X46310000Y-28753624D01*
X46019343Y-28318625D01*
X45570017Y-28018395D01*
X45040000Y-27912968D01*
X44509983Y-28018395D01*
X44060657Y-28318625D01*
X43764511Y-28761839D01*
X43749964Y-28708279D01*
X43416894Y-28277264D01*
X42944235Y-28006519D01*
X42841185Y-27987682D01*
X42627000Y-28110344D01*
X42373000Y-28110344D01*
X42158815Y-27987682D01*
X42055765Y-28006519D01*
X41583106Y-28277264D01*
X41250036Y-28708279D01*
X41107261Y-29233945D01*
X40685000Y-29233945D01*
X40685000Y-18103059D01*
X41043838Y-18971515D01*
X42023329Y-19952716D01*
X43303749Y-20484394D01*
X44690168Y-20485603D01*
X45971515Y-19956162D01*
X46952716Y-18976671D01*
X47484394Y-17696251D01*
X47485603Y-16309832D01*
X46956162Y-15028485D01*
X45976671Y-14047284D01*
X45104196Y-13685000D01*
X152896941Y-13685000D01*
X152028485Y-14043838D01*
X152028485Y-14043838D01*
G37*
X152028485Y-14043838D02*
X151047284Y-15023329D01*
X150515606Y-16303749D01*
X150514397Y-17690168D01*
X151043838Y-18971515D01*
X152023329Y-19952716D01*
X153303749Y-20484394D01*
X154690168Y-20485603D01*
X155971515Y-19956162D01*
X156952716Y-18976671D01*
X157315000Y-18104196D01*
X157315000Y-94896941D01*
X156956162Y-94028485D01*
X155976671Y-93047284D01*
X154696251Y-92515606D01*
X153309832Y-92514397D01*
X152028485Y-93043838D01*
X151047284Y-94023329D01*
X150515606Y-95303749D01*
X150514397Y-96690168D01*
X151043838Y-97971515D01*
X152023329Y-98952716D01*
X152895804Y-99315000D01*
X45103059Y-99315000D01*
X45971515Y-98956162D01*
X46952716Y-97976671D01*
X47484394Y-96696251D01*
X47485603Y-95309832D01*
X46956162Y-94028485D01*
X45976671Y-93047284D01*
X44696251Y-92515606D01*
X43309832Y-92514397D01*
X42028485Y-93043838D01*
X41047284Y-94023329D01*
X40685000Y-94895804D01*
X40685000Y-83766055D01*
X41107261Y-83766055D01*
X41250036Y-84291721D01*
X41583106Y-84722736D01*
X42055765Y-84993481D01*
X42158815Y-85012318D01*
X42373000Y-84889656D01*
X42373000Y-83547000D01*
X41268132Y-83547000D01*
X41107261Y-83766055D01*
X40685000Y-83766055D01*
X40685000Y-80726055D01*
X41107261Y-80726055D01*
X41250036Y-81251721D01*
X41583106Y-81682736D01*
X41962399Y-81900000D01*
X41583106Y-82117264D01*
X41250036Y-82548279D01*
X41107261Y-83073945D01*
X41268132Y-83293000D01*
X42373000Y-83293000D01*
X42373000Y-81950344D01*
X42285092Y-81900000D01*
X42373000Y-81849656D01*
X42373000Y-80507000D01*
X41268132Y-80507000D01*
X41107261Y-80726055D01*
X40685000Y-80726055D01*
X40685000Y-80033945D01*
X41107261Y-80033945D01*
X41268132Y-80253000D01*
X42373000Y-80253000D01*
X42373000Y-78910344D01*
X42158815Y-78787682D01*
X42055765Y-78806519D01*
X41583106Y-79077264D01*
X41250036Y-79508279D01*
X41107261Y-80033945D01*
X40685000Y-80033945D01*
X40685000Y-32966055D01*
X41107261Y-32966055D01*
X41250036Y-33491721D01*
X41583106Y-33922736D01*
X42055765Y-34193481D01*
X42158815Y-34212318D01*
X42373000Y-34089656D01*
X42373000Y-32747000D01*
X41268132Y-32747000D01*
X41107261Y-32966055D01*
X40685000Y-32966055D01*
X40685000Y-29926055D01*
X41107261Y-29926055D01*
X41250036Y-30451721D01*
X41583106Y-30882736D01*
X41962399Y-31100000D01*
X41583106Y-31317264D01*
X41250036Y-31748279D01*
X41107261Y-32273945D01*
X41268132Y-32493000D01*
X42373000Y-32493000D01*
X42373000Y-31150344D01*
X42285092Y-31100000D01*
X42373000Y-31049656D01*
X42373000Y-29707000D01*
X41268132Y-29707000D01*
X41107261Y-29926055D01*
X40685000Y-29926055D01*
X40685000Y-29233945D01*
X41107261Y-29233945D01*
X41268132Y-29453000D01*
X42373000Y-29453000D01*
X42373000Y-28110344D01*
X42627000Y-28110344D01*
X42627000Y-29453000D01*
X42647000Y-29453000D01*
X42647000Y-29707000D01*
X42627000Y-29707000D01*
X42627000Y-31049656D01*
X42714908Y-31100000D01*
X42627000Y-31150344D01*
X42627000Y-32493000D01*
X42647000Y-32493000D01*
X42647000Y-32747000D01*
X42627000Y-32747000D01*
X42627000Y-34089656D01*
X42841185Y-34212318D01*
X42944235Y-34193481D01*
X43416894Y-33922736D01*
X43749964Y-33491721D01*
X43764511Y-33438161D01*
X44060657Y-33881375D01*
X44509983Y-34181605D01*
X45040000Y-34287032D01*
X45570017Y-34181605D01*
X46019343Y-33881375D01*
X46310000Y-33446376D01*
X46600657Y-33881375D01*
X47049983Y-34181605D01*
X47580000Y-34287032D01*
X48110017Y-34181605D01*
X48559343Y-33881375D01*
X48850000Y-33446376D01*
X49140657Y-33881375D01*
X49589983Y-34181605D01*
X50120000Y-34287032D01*
X50650017Y-34181605D01*
X50811853Y-34073469D01*
X51693452Y-34955068D01*
X51948124Y-35125234D01*
X52248531Y-35184989D01*
X52923374Y-35184989D01*
X55193453Y-37455068D01*
X55448126Y-37625234D01*
X55748532Y-37684989D01*
X57923374Y-37684989D01*
X58815011Y-38576626D01*
X58815011Y-40423374D01*
X57423374Y-41815011D01*
X56399988Y-41815012D01*
X56198670Y-41855057D01*
X56099582Y-41874767D01*
X55844910Y-42044933D01*
X53464343Y-44425500D01*
X53294177Y-44680172D01*
X53240723Y-44948903D01*
X53234422Y-44980580D01*
X53234424Y-46993544D01*
X53258584Y-47115001D01*
X53294179Y-47293950D01*
X53464345Y-47548622D01*
X57310266Y-51394543D01*
X57310267Y-51997441D01*
X57310889Y-52000566D01*
X57370022Y-52297847D01*
X57540188Y-52552519D01*
X58204853Y-53217184D01*
X56997816Y-53217184D01*
X56697409Y-53276939D01*
X56442737Y-53447105D01*
X54944920Y-54944922D01*
X54774754Y-55199594D01*
X54737127Y-55388758D01*
X54714999Y-55500001D01*
X54714999Y-56999998D01*
X54774754Y-57300405D01*
X54944920Y-57555077D01*
X56444920Y-59055077D01*
X56699592Y-59225243D01*
X56999999Y-59284998D01*
X62174841Y-59284999D01*
X65715000Y-62825158D01*
X65715000Y-65174842D01*
X63174842Y-67715000D01*
X60000000Y-67715000D01*
X59699593Y-67774755D01*
X59444921Y-67944921D01*
X53674842Y-73715000D01*
X48839990Y-73715000D01*
X48539584Y-73774755D01*
X48284911Y-73944921D01*
X43284911Y-78944921D01*
X43257492Y-78985957D01*
X42944235Y-78806519D01*
X42841185Y-78787682D01*
X42627000Y-78910344D01*
X42627000Y-80253000D01*
X42647000Y-80253000D01*
X42647000Y-80507000D01*
X42627000Y-80507000D01*
X42627000Y-81849656D01*
X42714908Y-81900000D01*
X42627000Y-81950344D01*
X42627000Y-83293000D01*
X42647000Y-83293000D01*
X42647000Y-83547000D01*
X42627000Y-83547000D01*
X42627000Y-84889656D01*
X42841185Y-85012318D01*
X42944235Y-84993481D01*
X43333358Y-84770586D01*
X44617851Y-86055079D01*
X44872524Y-86225245D01*
X45172930Y-86285000D01*
X49674842Y-86285000D01*
X50215000Y-86825158D01*
X50215000Y-88919325D01*
X50194968Y-89020032D01*
X50194968Y-94954124D01*
X50254723Y-95254530D01*
X50424889Y-95509203D01*
X50424892Y-95509205D01*
X50715000Y-95799313D01*
X50715000Y-96817070D01*
X50774755Y-97117477D01*
X50944921Y-97372149D01*
X52327859Y-98755086D01*
X52327861Y-98755089D01*
X52582534Y-98925255D01*
X52882940Y-98985011D01*
X52882945Y-98985010D01*
X54219990Y-98985010D01*
X54520397Y-98925255D01*
X54775069Y-98755089D01*
X55287218Y-98242940D01*
X55389983Y-98311605D01*
X55920000Y-98417032D01*
X56450017Y-98311605D01*
X56899343Y-98011375D01*
X57190000Y-97576376D01*
X57480657Y-98011375D01*
X57929983Y-98311605D01*
X58460000Y-98417032D01*
X58990017Y-98311605D01*
X59092782Y-98242940D01*
X59604931Y-98755089D01*
X59859603Y-98925255D01*
X60160010Y-98985010D01*
X65148532Y-98985010D01*
X65448938Y-98925255D01*
X65703611Y-98755089D01*
X65873777Y-98500416D01*
X65933532Y-98200010D01*
X65933532Y-97035750D01*
X74955000Y-97035750D01*
X74955000Y-97876310D01*
X75051673Y-98109699D01*
X75230302Y-98288327D01*
X75463691Y-98385000D01*
X76054250Y-98385000D01*
X76213000Y-98226250D01*
X76213000Y-96877000D01*
X76467000Y-96877000D01*
X76467000Y-98226250D01*
X76625750Y-98385000D01*
X77216309Y-98385000D01*
X77449698Y-98288327D01*
X77628327Y-98109699D01*
X77725000Y-97876310D01*
X77725000Y-97744611D01*
X77963106Y-98052736D01*
X78435765Y-98323481D01*
X78538815Y-98342318D01*
X78753000Y-98219656D01*
X78753000Y-96877000D01*
X79007000Y-96877000D01*
X79007000Y-98219656D01*
X79221185Y-98342318D01*
X79324235Y-98323481D01*
X79796894Y-98052736D01*
X80129964Y-97621721D01*
X80150000Y-97547953D01*
X80170036Y-97621721D01*
X80503106Y-98052736D01*
X80975765Y-98323481D01*
X81078815Y-98342318D01*
X81293000Y-98219656D01*
X81293000Y-96877000D01*
X81547000Y-96877000D01*
X81547000Y-98219656D01*
X81761185Y-98342318D01*
X81864235Y-98323481D01*
X82336894Y-98052736D01*
X82669964Y-97621721D01*
X82690000Y-97547953D01*
X82710036Y-97621721D01*
X83043106Y-98052736D01*
X83515765Y-98323481D01*
X83618815Y-98342318D01*
X83833000Y-98219656D01*
X83833000Y-96877000D01*
X84087000Y-96877000D01*
X84087000Y-98219656D01*
X84301185Y-98342318D01*
X84404235Y-98323481D01*
X84876894Y-98052736D01*
X85209964Y-97621721D01*
X85230000Y-97547953D01*
X85250036Y-97621721D01*
X85583106Y-98052736D01*
X86055765Y-98323481D01*
X86158815Y-98342318D01*
X86373000Y-98219656D01*
X86373000Y-96877000D01*
X86627000Y-96877000D01*
X86627000Y-98219656D01*
X86841185Y-98342318D01*
X86944235Y-98323481D01*
X87416894Y-98052736D01*
X87749964Y-97621721D01*
X87892739Y-97096055D01*
X87731868Y-96877000D01*
X86627000Y-96877000D01*
X86373000Y-96877000D01*
X85268132Y-96877000D01*
X85230000Y-96928924D01*
X85191868Y-96877000D01*
X84087000Y-96877000D01*
X83833000Y-96877000D01*
X82728132Y-96877000D01*
X82690000Y-96928924D01*
X82651868Y-96877000D01*
X81547000Y-96877000D01*
X81293000Y-96877000D01*
X80188132Y-96877000D01*
X80150000Y-96928924D01*
X80111868Y-96877000D01*
X79007000Y-96877000D01*
X78753000Y-96877000D01*
X77648132Y-96877000D01*
X77613461Y-96924211D01*
X77566250Y-96877000D01*
X76467000Y-96877000D01*
X76213000Y-96877000D01*
X75113750Y-96877000D01*
X74955000Y-97035750D01*
X65933532Y-97035750D01*
X65933532Y-95816079D01*
X66065256Y-95618940D01*
X66125011Y-95318533D01*
X66125011Y-94056055D01*
X74947261Y-94056055D01*
X75090036Y-94581721D01*
X75423106Y-95012736D01*
X75601636Y-95115000D01*
X75463691Y-95115000D01*
X75230302Y-95211673D01*
X75051673Y-95390301D01*
X74955000Y-95623690D01*
X74955000Y-96464250D01*
X75113750Y-96623000D01*
X76213000Y-96623000D01*
X76213000Y-95273750D01*
X76153170Y-95213920D01*
X76213000Y-95179656D01*
X76213000Y-93837000D01*
X76467000Y-93837000D01*
X76467000Y-95179656D01*
X76526830Y-95213920D01*
X76467000Y-95273750D01*
X76467000Y-96623000D01*
X77566250Y-96623000D01*
X77613461Y-96575789D01*
X77648132Y-96623000D01*
X78753000Y-96623000D01*
X78753000Y-95280344D01*
X78665092Y-95230000D01*
X78753000Y-95179656D01*
X78753000Y-93837000D01*
X77648132Y-93837000D01*
X77610000Y-93888924D01*
X77571868Y-93837000D01*
X76467000Y-93837000D01*
X76213000Y-93837000D01*
X75108132Y-93837000D01*
X74947261Y-94056055D01*
X66125011Y-94056055D01*
X66125011Y-93363945D01*
X74947261Y-93363945D01*
X75108132Y-93583000D01*
X76213000Y-93583000D01*
X76213000Y-92240344D01*
X75998815Y-92117682D01*
X75895765Y-92136519D01*
X75423106Y-92407264D01*
X75090036Y-92838279D01*
X74947261Y-93363945D01*
X66125011Y-93363945D01*
X66125010Y-92101466D01*
X66065255Y-91801060D01*
X65895089Y-91546387D01*
X65453612Y-91104910D01*
X65198940Y-90934744D01*
X64898533Y-90874989D01*
X63333688Y-90874989D01*
X61885010Y-89426311D01*
X61885010Y-88225148D01*
X62055104Y-88055054D01*
X63729946Y-88055054D01*
X64030353Y-87995299D01*
X64285025Y-87825133D01*
X65255127Y-86855031D01*
X73125584Y-86855029D01*
X73425991Y-86795274D01*
X73680663Y-86625108D01*
X75268721Y-85037050D01*
X75520000Y-85087032D01*
X76050017Y-84981605D01*
X76499343Y-84681375D01*
X76790000Y-84246376D01*
X77080657Y-84681375D01*
X77457002Y-84932840D01*
X77284399Y-85105443D01*
X77279100Y-85103243D01*
X76723339Y-85102758D01*
X76209697Y-85314990D01*
X75816371Y-85707630D01*
X75603243Y-86220900D01*
X75602758Y-86776661D01*
X75814990Y-87290303D01*
X76207630Y-87683629D01*
X76215000Y-87686689D01*
X76215000Y-89540000D01*
X76274755Y-89840407D01*
X76444921Y-90095079D01*
X78478542Y-92128700D01*
X78435765Y-92136519D01*
X77963106Y-92407264D01*
X77630036Y-92838279D01*
X77610000Y-92912047D01*
X77589964Y-92838279D01*
X77256894Y-92407264D01*
X76784235Y-92136519D01*
X76681185Y-92117682D01*
X76467000Y-92240344D01*
X76467000Y-93583000D01*
X77571868Y-93583000D01*
X77610000Y-93531076D01*
X77648132Y-93583000D01*
X78753000Y-93583000D01*
X78753000Y-93563000D01*
X79007000Y-93563000D01*
X79007000Y-93583000D01*
X79027000Y-93583000D01*
X79027000Y-93837000D01*
X79007000Y-93837000D01*
X79007000Y-95179656D01*
X79094908Y-95230000D01*
X79007000Y-95280344D01*
X79007000Y-96623000D01*
X80111868Y-96623000D01*
X80150000Y-96571076D01*
X80188132Y-96623000D01*
X81293000Y-96623000D01*
X81293000Y-96603000D01*
X81547000Y-96603000D01*
X81547000Y-96623000D01*
X82651868Y-96623000D01*
X82690000Y-96571076D01*
X82728132Y-96623000D01*
X83833000Y-96623000D01*
X83833000Y-96603000D01*
X84087000Y-96603000D01*
X84087000Y-96623000D01*
X85191868Y-96623000D01*
X85230000Y-96571076D01*
X85268132Y-96623000D01*
X86373000Y-96623000D01*
X86373000Y-96603000D01*
X86627000Y-96603000D01*
X86627000Y-96623000D01*
X87731868Y-96623000D01*
X87892739Y-96403945D01*
X87749964Y-95878279D01*
X87416894Y-95447264D01*
X87067043Y-95246865D01*
X87479343Y-94971375D01*
X87779573Y-94522049D01*
X87885000Y-93992032D01*
X87885000Y-93427968D01*
X87779573Y-92897951D01*
X87479343Y-92448625D01*
X87030017Y-92148395D01*
X86500000Y-92042968D01*
X85969983Y-92148395D01*
X85867218Y-92217060D01*
X84755058Y-91104900D01*
X84500386Y-90934734D01*
X84199979Y-90874979D01*
X82485137Y-90874979D01*
X81285000Y-89674842D01*
X81285000Y-85792228D01*
X81870000Y-85207228D01*
X83717851Y-87055079D01*
X83972523Y-87225245D01*
X84272930Y-87285000D01*
X87242799Y-87285000D01*
X87244990Y-87290303D01*
X87637630Y-87683629D01*
X88150900Y-87896757D01*
X88706661Y-87897242D01*
X88714037Y-87894195D01*
X89182145Y-88362303D01*
X89033243Y-88720900D01*
X89032758Y-89276661D01*
X89244990Y-89790303D01*
X89637630Y-90183629D01*
X90150900Y-90396757D01*
X90706661Y-90397242D01*
X91220303Y-90185010D01*
X91565072Y-89840843D01*
X97994354Y-96270125D01*
X97955000Y-96467968D01*
X97955000Y-97032032D01*
X98060427Y-97562049D01*
X98360657Y-98011375D01*
X98809983Y-98311605D01*
X99340000Y-98417032D01*
X99870017Y-98311605D01*
X100319343Y-98011375D01*
X100610000Y-97576376D01*
X100900657Y-98011375D01*
X101349983Y-98311605D01*
X101880000Y-98417032D01*
X102410017Y-98311605D01*
X102859343Y-98011375D01*
X103150000Y-97576376D01*
X103440657Y-98011375D01*
X103889983Y-98311605D01*
X104420000Y-98417032D01*
X104950017Y-98311605D01*
X105399343Y-98011375D01*
X105690000Y-97576376D01*
X105980657Y-98011375D01*
X106429983Y-98311605D01*
X106960000Y-98417032D01*
X107490017Y-98311605D01*
X107939343Y-98011375D01*
X108230000Y-97576376D01*
X108520657Y-98011375D01*
X108969983Y-98311605D01*
X109500000Y-98417032D01*
X110030017Y-98311605D01*
X110132782Y-98242940D01*
X110644931Y-98755089D01*
X110899603Y-98925255D01*
X111200010Y-98985010D01*
X143592663Y-98985010D01*
X143893070Y-98925255D01*
X144147742Y-98755089D01*
X145595079Y-97307752D01*
X145765245Y-97053079D01*
X145825001Y-96752673D01*
X145825000Y-96752668D01*
X145825000Y-92927944D01*
X146099670Y-92744415D01*
X146424526Y-92258234D01*
X146538600Y-91684745D01*
X146538600Y-91315255D01*
X146424526Y-90741766D01*
X146099670Y-90255585D01*
X145613489Y-89930729D01*
X145040000Y-89816655D01*
X144466511Y-89930729D01*
X143980330Y-90255585D01*
X143770000Y-90570366D01*
X143559670Y-90255585D01*
X143285000Y-90072056D01*
X143285000Y-86785158D01*
X143515079Y-86555079D01*
X143685245Y-86300407D01*
X143745000Y-86000000D01*
X143745000Y-85065158D01*
X143765443Y-85044715D01*
X143967968Y-85085000D01*
X144532032Y-85085000D01*
X145062049Y-84979573D01*
X145511375Y-84679343D01*
X145641231Y-84485000D01*
X147874842Y-84485000D01*
X148924929Y-85535086D01*
X148924931Y-85535089D01*
X149095337Y-85648950D01*
X149179604Y-85705255D01*
X149480010Y-85765011D01*
X149480015Y-85765010D01*
X152799990Y-85765010D01*
X153100397Y-85705255D01*
X153355069Y-85535089D01*
X153765443Y-85124715D01*
X153967968Y-85165000D01*
X154532032Y-85165000D01*
X155062049Y-85059573D01*
X155511375Y-84759343D01*
X155811605Y-84310017D01*
X155917032Y-83780000D01*
X155811605Y-83249983D01*
X155511375Y-82800657D01*
X155076376Y-82510000D01*
X155511375Y-82219343D01*
X155811605Y-81770017D01*
X155917032Y-81240000D01*
X155811605Y-80709983D01*
X155511375Y-80260657D01*
X155076376Y-79970000D01*
X155511375Y-79679343D01*
X155811605Y-79230017D01*
X155917032Y-78700000D01*
X155811605Y-78169983D01*
X155742940Y-78067218D01*
X156255089Y-77555069D01*
X156425255Y-77300397D01*
X156485010Y-76999990D01*
X156485010Y-65502940D01*
X156425255Y-65202534D01*
X156255089Y-64947861D01*
X155552139Y-64244911D01*
X155297467Y-64074745D01*
X154997060Y-64014990D01*
X146250759Y-64014990D01*
X145180691Y-62944921D01*
X144926019Y-62774755D01*
X144625612Y-62715000D01*
X137325158Y-62715000D01*
X137285000Y-62674842D01*
X137285000Y-56908932D01*
X137734638Y-56459294D01*
X137904804Y-56204621D01*
X137939949Y-56027941D01*
X137963074Y-56018386D01*
X138353020Y-55629119D01*
X138353254Y-55628555D01*
X140720487Y-55628555D01*
X140901314Y-56066191D01*
X141431021Y-56596822D01*
X142123469Y-56884352D01*
X142873241Y-56885006D01*
X143566191Y-56598686D01*
X144096822Y-56068979D01*
X144384352Y-55376531D01*
X144385006Y-54626759D01*
X144161288Y-54085319D01*
X147959632Y-54085319D01*
X151129073Y-57254760D01*
X151383746Y-57424926D01*
X151684152Y-57484681D01*
X153315848Y-57484681D01*
X153616255Y-57424926D01*
X153870927Y-57254760D01*
X155554436Y-55571250D01*
X155554439Y-55571248D01*
X155724605Y-55316575D01*
X155727821Y-55300407D01*
X155784361Y-55016169D01*
X155784360Y-55016164D01*
X155784360Y-51716151D01*
X156065551Y-51599966D01*
X156596182Y-51070259D01*
X156883712Y-50377811D01*
X156884366Y-49628039D01*
X156598046Y-48935089D01*
X156068339Y-48404458D01*
X155375891Y-48116928D01*
X154626119Y-48116274D01*
X154341934Y-48233696D01*
X152841158Y-46732920D01*
X152586486Y-46562754D01*
X152286079Y-46502999D01*
X148439458Y-46502999D01*
X148249887Y-46376332D01*
X147949480Y-46316577D01*
X126468423Y-46316577D01*
X126168017Y-46376332D01*
X125913344Y-46546498D01*
X125354399Y-47105443D01*
X125349100Y-47103243D01*
X124793339Y-47102758D01*
X124279697Y-47314990D01*
X123886371Y-47707630D01*
X123673243Y-48220900D01*
X123672758Y-48776661D01*
X123884990Y-49290303D01*
X124065921Y-49471551D01*
X119955034Y-53582438D01*
X119955034Y-50503666D01*
X126673700Y-43785000D01*
X146204174Y-43785000D01*
X146504581Y-43725245D01*
X146759253Y-43555079D01*
X149255144Y-41059188D01*
X149425310Y-40804515D01*
X149485065Y-40504109D01*
X149485065Y-39341185D01*
X149617682Y-39341185D01*
X149636519Y-39444235D01*
X149907264Y-39916894D01*
X150338279Y-40249964D01*
X150863945Y-40392739D01*
X151083000Y-40231868D01*
X151083000Y-39127000D01*
X151337000Y-39127000D01*
X151337000Y-40231868D01*
X151556055Y-40392739D01*
X152081721Y-40249964D01*
X152512736Y-39916894D01*
X152615000Y-39738364D01*
X152615000Y-39876309D01*
X152711673Y-40109698D01*
X152890301Y-40288327D01*
X153123690Y-40385000D01*
X153964250Y-40385000D01*
X154123000Y-40226250D01*
X154123000Y-39127000D01*
X154377000Y-39127000D01*
X154377000Y-40226250D01*
X154535750Y-40385000D01*
X155376310Y-40385000D01*
X155609699Y-40288327D01*
X155788327Y-40109698D01*
X155885000Y-39876309D01*
X155885000Y-39285750D01*
X155726250Y-39127000D01*
X154377000Y-39127000D01*
X154123000Y-39127000D01*
X152773750Y-39127000D01*
X152713920Y-39186830D01*
X152679656Y-39127000D01*
X151337000Y-39127000D01*
X151083000Y-39127000D01*
X149740344Y-39127000D01*
X149617682Y-39341185D01*
X149485065Y-39341185D01*
X149485065Y-37473635D01*
X149713699Y-37245000D01*
X149818769Y-37245000D01*
X149948625Y-37439343D01*
X150391839Y-37735489D01*
X150338279Y-37750036D01*
X149907264Y-38083106D01*
X149636519Y-38555765D01*
X149617682Y-38658815D01*
X149740344Y-38873000D01*
X151083000Y-38873000D01*
X151083000Y-38853000D01*
X151337000Y-38853000D01*
X151337000Y-38873000D01*
X152679656Y-38873000D01*
X152713920Y-38813170D01*
X152773750Y-38873000D01*
X154123000Y-38873000D01*
X154123000Y-38853000D01*
X154377000Y-38853000D01*
X154377000Y-38873000D01*
X155726250Y-38873000D01*
X155885000Y-38714250D01*
X155885000Y-38123691D01*
X155788327Y-37890302D01*
X155609699Y-37711673D01*
X155376310Y-37615000D01*
X155248486Y-37615000D01*
X155511375Y-37439343D01*
X155811605Y-36990017D01*
X155917032Y-36460000D01*
X155811605Y-35929983D01*
X155742940Y-35827218D01*
X156255089Y-35315069D01*
X156425255Y-35060397D01*
X156485010Y-34759990D01*
X156485010Y-28342940D01*
X156470623Y-28270613D01*
X156425255Y-28042533D01*
X156255089Y-27787861D01*
X147708468Y-19241240D01*
X147453796Y-19071074D01*
X147153389Y-19011319D01*
X146291159Y-19011319D01*
X144750247Y-17470407D01*
X144904818Y-17406385D01*
X145377188Y-16968379D01*
X145645983Y-16382946D01*
X145527367Y-16127000D01*
X144167000Y-16127000D01*
X144167000Y-16147000D01*
X143913000Y-16147000D01*
X143913000Y-16127000D01*
X143893000Y-16127000D01*
X143893000Y-15873000D01*
X143913000Y-15873000D01*
X143913000Y-14513164D01*
X144167000Y-14513164D01*
X144167000Y-15873000D01*
X145527367Y-15873000D01*
X145645983Y-15617054D01*
X145377188Y-15031621D01*
X144904818Y-14593615D01*
X144422944Y-14394025D01*
X144167000Y-14513164D01*
X143913000Y-14513164D01*
X143657056Y-14394025D01*
X143175182Y-14593615D01*
X143077602Y-14684097D01*
X142980090Y-14532559D01*
X142767890Y-14387569D01*
X142516000Y-14336560D01*
X140484000Y-14336560D01*
X140248683Y-14380838D01*
X140032559Y-14519910D01*
X139887569Y-14732110D01*
X139836560Y-14984000D01*
X139836560Y-17016000D01*
X139880838Y-17251317D01*
X140019910Y-17467441D01*
X140232110Y-17612431D01*
X140484000Y-17663440D01*
X140806181Y-17663440D01*
X140944921Y-17871079D01*
X141175000Y-18101158D01*
X141175000Y-18836560D01*
X140944000Y-18836560D01*
X140708683Y-18880838D01*
X140492559Y-19019910D01*
X140347569Y-19232110D01*
X140296560Y-19484000D01*
X140296560Y-21516000D01*
X140340838Y-21751317D01*
X140479910Y-21967441D01*
X140692110Y-22112431D01*
X140944000Y-22163440D01*
X141175000Y-22163440D01*
X141175000Y-24120686D01*
X133580686Y-31715000D01*
X122532049Y-31715000D01*
X122228845Y-31411265D01*
X121756724Y-31215223D01*
X121245519Y-31214777D01*
X120773057Y-31409995D01*
X120587728Y-31595000D01*
X117316291Y-31595000D01*
X117162811Y-31365302D01*
X116697264Y-31054233D01*
X116148113Y-30945000D01*
X116091887Y-30945000D01*
X115542736Y-31054233D01*
X115077189Y-31365302D01*
X114766120Y-31830849D01*
X114656887Y-32380000D01*
X114766120Y-32929151D01*
X115077189Y-33394698D01*
X115481703Y-33664986D01*
X115264866Y-33767611D01*
X114888959Y-34182577D01*
X114816845Y-34356689D01*
X113535078Y-33074922D01*
X113280406Y-32904756D01*
X112979999Y-32845001D01*
X109843874Y-32845001D01*
X109891904Y-32729039D01*
X109769915Y-32507000D01*
X108627000Y-32507000D01*
X108627000Y-32527000D01*
X108373000Y-32527000D01*
X108373000Y-32507000D01*
X107230085Y-32507000D01*
X107108096Y-32729039D01*
X107156126Y-32845001D01*
X104763839Y-32845001D01*
X104691868Y-32747000D01*
X103587000Y-32747000D01*
X103587000Y-32767000D01*
X103333000Y-32767000D01*
X103333000Y-32747000D01*
X103313000Y-32747000D01*
X103313000Y-32493000D01*
X103333000Y-32493000D01*
X103333000Y-31150344D01*
X103273170Y-31116080D01*
X103333000Y-31056250D01*
X103333000Y-29707000D01*
X103587000Y-29707000D01*
X103587000Y-31056250D01*
X103646830Y-31116080D01*
X103587000Y-31150344D01*
X103587000Y-32493000D01*
X104691868Y-32493000D01*
X104852739Y-32273945D01*
X104786743Y-32030961D01*
X107108096Y-32030961D01*
X107230085Y-32253000D01*
X108373000Y-32253000D01*
X108373000Y-31109371D01*
X108627000Y-31109371D01*
X108627000Y-32253000D01*
X109769915Y-32253000D01*
X109891904Y-32030961D01*
X109731041Y-31642577D01*
X109355134Y-31227611D01*
X108849041Y-30988086D01*
X108627000Y-31109371D01*
X108373000Y-31109371D01*
X108150959Y-30988086D01*
X107644866Y-31227611D01*
X107268959Y-31642577D01*
X107108096Y-32030961D01*
X104786743Y-32030961D01*
X104709964Y-31748279D01*
X104376894Y-31317264D01*
X104198364Y-31215000D01*
X104336309Y-31215000D01*
X104569698Y-31118327D01*
X104748327Y-30939699D01*
X104845000Y-30706310D01*
X104845000Y-29865750D01*
X104686250Y-29707000D01*
X103587000Y-29707000D01*
X103333000Y-29707000D01*
X103313000Y-29707000D01*
X103313000Y-29453000D01*
X103333000Y-29453000D01*
X103333000Y-28103750D01*
X103587000Y-28103750D01*
X103587000Y-29453000D01*
X104686250Y-29453000D01*
X104845000Y-29294250D01*
X104845000Y-28453690D01*
X104748327Y-28220301D01*
X104569698Y-28041673D01*
X104336309Y-27945000D01*
X103745750Y-27945000D01*
X103587000Y-28103750D01*
X103333000Y-28103750D01*
X103174250Y-27945000D01*
X102583691Y-27945000D01*
X102350302Y-28041673D01*
X102171673Y-28220301D01*
X102075000Y-28453690D01*
X102075000Y-28581514D01*
X101899343Y-28318625D01*
X101705000Y-28188769D01*
X101705000Y-27905158D01*
X102425116Y-27185042D01*
X124917028Y-27185042D01*
X125217435Y-27125287D01*
X125472107Y-26955121D01*
X131281647Y-21145581D01*
X131589983Y-21351605D01*
X132120000Y-21457032D01*
X132650017Y-21351605D01*
X133099343Y-21051375D01*
X133399573Y-20602049D01*
X133505000Y-20072032D01*
X133505000Y-19507968D01*
X133399573Y-18977951D01*
X133099343Y-18528625D01*
X132884393Y-18385000D01*
X132996309Y-18385000D01*
X133229698Y-18288327D01*
X133408327Y-18109699D01*
X133505000Y-17876310D01*
X133505000Y-17035750D01*
X133346250Y-16877000D01*
X132247000Y-16877000D01*
X132247000Y-16897000D01*
X131993000Y-16897000D01*
X131993000Y-16877000D01*
X131973000Y-16877000D01*
X131973000Y-16623000D01*
X131993000Y-16623000D01*
X131993000Y-15273750D01*
X132247000Y-15273750D01*
X132247000Y-16623000D01*
X133346250Y-16623000D01*
X133505000Y-16464250D01*
X133505000Y-15623690D01*
X133408327Y-15390301D01*
X133229698Y-15211673D01*
X132996309Y-15115000D01*
X132405750Y-15115000D01*
X132247000Y-15273750D01*
X131993000Y-15273750D01*
X131834250Y-15115000D01*
X131243691Y-15115000D01*
X131010302Y-15211673D01*
X130831673Y-15390301D01*
X130735000Y-15623690D01*
X130735000Y-15751514D01*
X130559343Y-15488625D01*
X130110017Y-15188395D01*
X129580000Y-15082968D01*
X129049983Y-15188395D01*
X128600657Y-15488625D01*
X128310000Y-15923624D01*
X128019343Y-15488625D01*
X127570017Y-15188395D01*
X127040000Y-15082968D01*
X126509983Y-15188395D01*
X126060657Y-15488625D01*
X125770000Y-15923624D01*
X125479343Y-15488625D01*
X125030017Y-15188395D01*
X124500000Y-15082968D01*
X123969983Y-15188395D01*
X123520657Y-15488625D01*
X123230000Y-15923624D01*
X122939343Y-15488625D01*
X122490017Y-15188395D01*
X121960000Y-15082968D01*
X121429983Y-15188395D01*
X120980657Y-15488625D01*
X120680427Y-15937951D01*
X120575000Y-16467968D01*
X120575000Y-17032032D01*
X120679023Y-17554990D01*
X111608572Y-17554990D01*
X111308165Y-17614745D01*
X111053493Y-17784911D01*
X111045000Y-17793404D01*
X111045000Y-16995750D01*
X110886250Y-16837000D01*
X109787000Y-16837000D01*
X109787000Y-16857000D01*
X109533000Y-16857000D01*
X109533000Y-16837000D01*
X109513000Y-16837000D01*
X109513000Y-16583000D01*
X109533000Y-16583000D01*
X109533000Y-15233750D01*
X109787000Y-15233750D01*
X109787000Y-16583000D01*
X110886250Y-16583000D01*
X111045000Y-16424250D01*
X111045000Y-15583690D01*
X110948327Y-15350301D01*
X110769698Y-15171673D01*
X110536309Y-15075000D01*
X109945750Y-15075000D01*
X109787000Y-15233750D01*
X109533000Y-15233750D01*
X109374250Y-15075000D01*
X108783691Y-15075000D01*
X108550302Y-15171673D01*
X108371673Y-15350301D01*
X108275000Y-15583690D01*
X108275000Y-15711514D01*
X108099343Y-15448625D01*
X107650017Y-15148395D01*
X107120000Y-15042968D01*
X106589983Y-15148395D01*
X106140657Y-15448625D01*
X105850000Y-15883624D01*
X105559343Y-15448625D01*
X105110017Y-15148395D01*
X104580000Y-15042968D01*
X104049983Y-15148395D01*
X103600657Y-15448625D01*
X103310000Y-15883624D01*
X103019343Y-15448625D01*
X102570017Y-15148395D01*
X102040000Y-15042968D01*
X101509983Y-15148395D01*
X101201647Y-15354419D01*
X100552139Y-14704911D01*
X100297467Y-14534745D01*
X99997060Y-14474990D01*
X92740010Y-14474990D01*
X92439604Y-14534745D01*
X92252177Y-14659979D01*
X92184931Y-14704911D01*
X89474841Y-17415001D01*
X88885000Y-17415001D01*
X88885000Y-17035750D01*
X88726250Y-16877000D01*
X87627000Y-16877000D01*
X87627000Y-16897000D01*
X87373000Y-16897000D01*
X87373000Y-16877000D01*
X87353000Y-16877000D01*
X87353000Y-16623000D01*
X87373000Y-16623000D01*
X87373000Y-15273750D01*
X87627000Y-15273750D01*
X87627000Y-16623000D01*
X88726250Y-16623000D01*
X88885000Y-16464250D01*
X88885000Y-15623690D01*
X88788327Y-15390301D01*
X88609698Y-15211673D01*
X88376309Y-15115000D01*
X87785750Y-15115000D01*
X87627000Y-15273750D01*
X87373000Y-15273750D01*
X87214250Y-15115000D01*
X86623691Y-15115000D01*
X86390302Y-15211673D01*
X86211673Y-15390301D01*
X86115000Y-15623690D01*
X86115000Y-15751514D01*
X85939343Y-15488625D01*
X85490017Y-15188395D01*
X84960000Y-15082968D01*
X84429983Y-15188395D01*
X84327218Y-15257060D01*
X83815069Y-14744911D01*
X83560397Y-14574745D01*
X83259990Y-14514990D01*
X79382940Y-14514990D01*
X79082533Y-14574745D01*
X78827861Y-14744911D01*
X78178353Y-15394419D01*
X77870017Y-15188395D01*
X77340000Y-15082968D01*
X76809983Y-15188395D01*
X76707218Y-15257060D01*
X76155069Y-14704911D01*
X75900397Y-14534745D01*
X75599990Y-14474990D01*
X64630759Y-14474990D01*
X64260673Y-14104903D01*
X64260671Y-14104900D01*
X64108006Y-14002893D01*
X64005999Y-13934734D01*
X63705593Y-13874979D01*
X54491478Y-13874979D01*
X54191072Y-13934734D01*
X53936399Y-14104900D01*
X53936397Y-14104903D01*
X49564921Y-18476378D01*
X49394755Y-18731050D01*
X49346923Y-18971515D01*
X49335000Y-19031457D01*
X49335000Y-28188769D01*
X49140657Y-28318625D01*
X48850000Y-28753624D01*
X48559343Y-28318625D01*
X48110017Y-28018395D01*
X47580000Y-27912968D01*
X47049983Y-28018395D01*
X46600657Y-28318625D01*
X46310000Y-28753624D01*
X46019343Y-28318625D01*
X45570017Y-28018395D01*
X45040000Y-27912968D01*
X44509983Y-28018395D01*
X44060657Y-28318625D01*
X43764511Y-28761839D01*
X43749964Y-28708279D01*
X43416894Y-28277264D01*
X42944235Y-28006519D01*
X42841185Y-27987682D01*
X42627000Y-28110344D01*
X42373000Y-28110344D01*
X42158815Y-27987682D01*
X42055765Y-28006519D01*
X41583106Y-28277264D01*
X41250036Y-28708279D01*
X41107261Y-29233945D01*
X40685000Y-29233945D01*
X40685000Y-18103059D01*
X41043838Y-18971515D01*
X42023329Y-19952716D01*
X43303749Y-20484394D01*
X44690168Y-20485603D01*
X45971515Y-19956162D01*
X46952716Y-18976671D01*
X47484394Y-17696251D01*
X47485603Y-16309832D01*
X46956162Y-15028485D01*
X45976671Y-14047284D01*
X45104196Y-13685000D01*
X152896941Y-13685000D01*
X152028485Y-14043838D01*
G36*
X103587000Y-80253000D02*
X103607000Y-80253000D01*
X103607000Y-80507000D01*
X103587000Y-80507000D01*
X103587000Y-81856250D01*
X103646830Y-81916080D01*
X103587000Y-81950344D01*
X103587000Y-83293000D01*
X103607000Y-83293000D01*
X103607000Y-83547000D01*
X103587000Y-83547000D01*
X103587000Y-84889656D01*
X103801185Y-85012318D01*
X103904235Y-84993481D01*
X104376894Y-84722736D01*
X104709964Y-84291721D01*
X104767274Y-84080720D01*
X109241633Y-88555079D01*
X109496305Y-88725245D01*
X109796712Y-88785000D01*
X113597799Y-88785000D01*
X113599990Y-88790303D01*
X113992630Y-89183629D01*
X114505900Y-89396757D01*
X115061661Y-89397242D01*
X115575303Y-89185010D01*
X115968629Y-88792370D01*
X116057718Y-88577820D01*
X116278355Y-88725245D01*
X116578762Y-88785000D01*
X125027799Y-88785000D01*
X125029990Y-88790303D01*
X125422630Y-89183629D01*
X125430000Y-89186689D01*
X125430000Y-92579512D01*
X125296894Y-92407264D01*
X124824235Y-92136519D01*
X124721185Y-92117682D01*
X124507000Y-92240344D01*
X124507000Y-93583000D01*
X124527000Y-93583000D01*
X124527000Y-93837000D01*
X124507000Y-93837000D01*
X124507000Y-95179656D01*
X124594908Y-95230000D01*
X124507000Y-95280344D01*
X124507000Y-96623000D01*
X125611868Y-96623000D01*
X125650000Y-96571076D01*
X125688132Y-96623000D01*
X126793000Y-96623000D01*
X126793000Y-96603000D01*
X127047000Y-96603000D01*
X127047000Y-96623000D01*
X128151868Y-96623000D01*
X128190000Y-96571076D01*
X128228132Y-96623000D01*
X129333000Y-96623000D01*
X129333000Y-96603000D01*
X129587000Y-96603000D01*
X129587000Y-96623000D01*
X130691868Y-96623000D01*
X130730000Y-96571076D01*
X130768132Y-96623000D01*
X131873000Y-96623000D01*
X131873000Y-96603000D01*
X132127000Y-96603000D01*
X132127000Y-96623000D01*
X133231868Y-96623000D01*
X133367777Y-96437935D01*
X134344852Y-97415010D01*
X133306108Y-97415010D01*
X133392739Y-97096055D01*
X133231868Y-96877000D01*
X132127000Y-96877000D01*
X132127000Y-96897000D01*
X131873000Y-96897000D01*
X131873000Y-96877000D01*
X130768132Y-96877000D01*
X130730000Y-96928924D01*
X130691868Y-96877000D01*
X129587000Y-96877000D01*
X129587000Y-96897000D01*
X129333000Y-96897000D01*
X129333000Y-96877000D01*
X128228132Y-96877000D01*
X128190000Y-96928924D01*
X128151868Y-96877000D01*
X127047000Y-96877000D01*
X127047000Y-96897000D01*
X126793000Y-96897000D01*
X126793000Y-96877000D01*
X125688132Y-96877000D01*
X125650000Y-96928924D01*
X125611868Y-96877000D01*
X124507000Y-96877000D01*
X124507000Y-96897000D01*
X124253000Y-96897000D01*
X124253000Y-96877000D01*
X123148132Y-96877000D01*
X123113461Y-96924211D01*
X123066250Y-96877000D01*
X121967000Y-96877000D01*
X121967000Y-96897000D01*
X121713000Y-96897000D01*
X121713000Y-96877000D01*
X120613750Y-96877000D01*
X120455000Y-97035750D01*
X120455000Y-97415010D01*
X111525168Y-97415010D01*
X110885000Y-96774842D01*
X110885000Y-96467968D01*
X110779573Y-95937951D01*
X110479343Y-95488625D01*
X110264393Y-95345000D01*
X110376309Y-95345000D01*
X110609698Y-95248327D01*
X110788327Y-95069699D01*
X110885000Y-94836310D01*
X110885000Y-94056055D01*
X120447261Y-94056055D01*
X120590036Y-94581721D01*
X120923106Y-95012736D01*
X121101636Y-95115000D01*
X120963691Y-95115000D01*
X120730302Y-95211673D01*
X120551673Y-95390301D01*
X120455000Y-95623690D01*
X120455000Y-96464250D01*
X120613750Y-96623000D01*
X121713000Y-96623000D01*
X121713000Y-95273750D01*
X121653170Y-95213920D01*
X121713000Y-95179656D01*
X121713000Y-93837000D01*
X121967000Y-93837000D01*
X121967000Y-95179656D01*
X122026830Y-95213920D01*
X121967000Y-95273750D01*
X121967000Y-96623000D01*
X123066250Y-96623000D01*
X123113461Y-96575789D01*
X123148132Y-96623000D01*
X124253000Y-96623000D01*
X124253000Y-95280344D01*
X124165092Y-95230000D01*
X124253000Y-95179656D01*
X124253000Y-93837000D01*
X123148132Y-93837000D01*
X123110000Y-93888924D01*
X123071868Y-93837000D01*
X121967000Y-93837000D01*
X121713000Y-93837000D01*
X120608132Y-93837000D01*
X120447261Y-94056055D01*
X110885000Y-94056055D01*
X110885000Y-93995750D01*
X110726250Y-93837000D01*
X109627000Y-93837000D01*
X109627000Y-93857000D01*
X109373000Y-93857000D01*
X109373000Y-93837000D01*
X109353000Y-93837000D01*
X109353000Y-93583000D01*
X109373000Y-93583000D01*
X109373000Y-92233750D01*
X109627000Y-92233750D01*
X109627000Y-93583000D01*
X110726250Y-93583000D01*
X110885000Y-93424250D01*
X110885000Y-93363945D01*
X120447261Y-93363945D01*
X120608132Y-93583000D01*
X121713000Y-93583000D01*
X121713000Y-92240344D01*
X121967000Y-92240344D01*
X121967000Y-93583000D01*
X123071868Y-93583000D01*
X123110000Y-93531076D01*
X123148132Y-93583000D01*
X124253000Y-93583000D01*
X124253000Y-92240344D01*
X124038815Y-92117682D01*
X123935765Y-92136519D01*
X123463106Y-92407264D01*
X123130036Y-92838279D01*
X123110000Y-92912047D01*
X123089964Y-92838279D01*
X122756894Y-92407264D01*
X122284235Y-92136519D01*
X122181185Y-92117682D01*
X121967000Y-92240344D01*
X121713000Y-92240344D01*
X121498815Y-92117682D01*
X121395765Y-92136519D01*
X120923106Y-92407264D01*
X120590036Y-92838279D01*
X120447261Y-93363945D01*
X110885000Y-93363945D01*
X110885000Y-92583690D01*
X110788327Y-92350301D01*
X110609698Y-92171673D01*
X110376309Y-92075000D01*
X109785750Y-92075000D01*
X109627000Y-92233750D01*
X109373000Y-92233750D01*
X109214250Y-92075000D01*
X109084999Y-92075000D01*
X109084999Y-91099803D01*
X109025244Y-90799397D01*
X108855078Y-90544724D01*
X108855075Y-90544722D01*
X105328961Y-87018607D01*
X105074289Y-86848441D01*
X104773882Y-86788686D01*
X103451774Y-86788686D01*
X101566717Y-84903629D01*
X101899343Y-84681375D01*
X102195489Y-84238161D01*
X102210036Y-84291721D01*
X102543106Y-84722736D01*
X103015765Y-84993481D01*
X103118815Y-85012318D01*
X103333000Y-84889656D01*
X103333000Y-83547000D01*
X103313000Y-83547000D01*
X103313000Y-83293000D01*
X103333000Y-83293000D01*
X103333000Y-81950344D01*
X103273170Y-81916080D01*
X103333000Y-81856250D01*
X103333000Y-80507000D01*
X103313000Y-80507000D01*
X103313000Y-80253000D01*
X103333000Y-80253000D01*
X103333000Y-80233000D01*
X103587000Y-80233000D01*
X103587000Y-80253000D01*
X103587000Y-80253000D01*
G37*
X103587000Y-80253000D02*
X103607000Y-80253000D01*
X103607000Y-80507000D01*
X103587000Y-80507000D01*
X103587000Y-81856250D01*
X103646830Y-81916080D01*
X103587000Y-81950344D01*
X103587000Y-83293000D01*
X103607000Y-83293000D01*
X103607000Y-83547000D01*
X103587000Y-83547000D01*
X103587000Y-84889656D01*
X103801185Y-85012318D01*
X103904235Y-84993481D01*
X104376894Y-84722736D01*
X104709964Y-84291721D01*
X104767274Y-84080720D01*
X109241633Y-88555079D01*
X109496305Y-88725245D01*
X109796712Y-88785000D01*
X113597799Y-88785000D01*
X113599990Y-88790303D01*
X113992630Y-89183629D01*
X114505900Y-89396757D01*
X115061661Y-89397242D01*
X115575303Y-89185010D01*
X115968629Y-88792370D01*
X116057718Y-88577820D01*
X116278355Y-88725245D01*
X116578762Y-88785000D01*
X125027799Y-88785000D01*
X125029990Y-88790303D01*
X125422630Y-89183629D01*
X125430000Y-89186689D01*
X125430000Y-92579512D01*
X125296894Y-92407264D01*
X124824235Y-92136519D01*
X124721185Y-92117682D01*
X124507000Y-92240344D01*
X124507000Y-93583000D01*
X124527000Y-93583000D01*
X124527000Y-93837000D01*
X124507000Y-93837000D01*
X124507000Y-95179656D01*
X124594908Y-95230000D01*
X124507000Y-95280344D01*
X124507000Y-96623000D01*
X125611868Y-96623000D01*
X125650000Y-96571076D01*
X125688132Y-96623000D01*
X126793000Y-96623000D01*
X126793000Y-96603000D01*
X127047000Y-96603000D01*
X127047000Y-96623000D01*
X128151868Y-96623000D01*
X128190000Y-96571076D01*
X128228132Y-96623000D01*
X129333000Y-96623000D01*
X129333000Y-96603000D01*
X129587000Y-96603000D01*
X129587000Y-96623000D01*
X130691868Y-96623000D01*
X130730000Y-96571076D01*
X130768132Y-96623000D01*
X131873000Y-96623000D01*
X131873000Y-96603000D01*
X132127000Y-96603000D01*
X132127000Y-96623000D01*
X133231868Y-96623000D01*
X133367777Y-96437935D01*
X134344852Y-97415010D01*
X133306108Y-97415010D01*
X133392739Y-97096055D01*
X133231868Y-96877000D01*
X132127000Y-96877000D01*
X132127000Y-96897000D01*
X131873000Y-96897000D01*
X131873000Y-96877000D01*
X130768132Y-96877000D01*
X130730000Y-96928924D01*
X130691868Y-96877000D01*
X129587000Y-96877000D01*
X129587000Y-96897000D01*
X129333000Y-96897000D01*
X129333000Y-96877000D01*
X128228132Y-96877000D01*
X128190000Y-96928924D01*
X128151868Y-96877000D01*
X127047000Y-96877000D01*
X127047000Y-96897000D01*
X126793000Y-96897000D01*
X126793000Y-96877000D01*
X125688132Y-96877000D01*
X125650000Y-96928924D01*
X125611868Y-96877000D01*
X124507000Y-96877000D01*
X124507000Y-96897000D01*
X124253000Y-96897000D01*
X124253000Y-96877000D01*
X123148132Y-96877000D01*
X123113461Y-96924211D01*
X123066250Y-96877000D01*
X121967000Y-96877000D01*
X121967000Y-96897000D01*
X121713000Y-96897000D01*
X121713000Y-96877000D01*
X120613750Y-96877000D01*
X120455000Y-97035750D01*
X120455000Y-97415010D01*
X111525168Y-97415010D01*
X110885000Y-96774842D01*
X110885000Y-96467968D01*
X110779573Y-95937951D01*
X110479343Y-95488625D01*
X110264393Y-95345000D01*
X110376309Y-95345000D01*
X110609698Y-95248327D01*
X110788327Y-95069699D01*
X110885000Y-94836310D01*
X110885000Y-94056055D01*
X120447261Y-94056055D01*
X120590036Y-94581721D01*
X120923106Y-95012736D01*
X121101636Y-95115000D01*
X120963691Y-95115000D01*
X120730302Y-95211673D01*
X120551673Y-95390301D01*
X120455000Y-95623690D01*
X120455000Y-96464250D01*
X120613750Y-96623000D01*
X121713000Y-96623000D01*
X121713000Y-95273750D01*
X121653170Y-95213920D01*
X121713000Y-95179656D01*
X121713000Y-93837000D01*
X121967000Y-93837000D01*
X121967000Y-95179656D01*
X122026830Y-95213920D01*
X121967000Y-95273750D01*
X121967000Y-96623000D01*
X123066250Y-96623000D01*
X123113461Y-96575789D01*
X123148132Y-96623000D01*
X124253000Y-96623000D01*
X124253000Y-95280344D01*
X124165092Y-95230000D01*
X124253000Y-95179656D01*
X124253000Y-93837000D01*
X123148132Y-93837000D01*
X123110000Y-93888924D01*
X123071868Y-93837000D01*
X121967000Y-93837000D01*
X121713000Y-93837000D01*
X120608132Y-93837000D01*
X120447261Y-94056055D01*
X110885000Y-94056055D01*
X110885000Y-93995750D01*
X110726250Y-93837000D01*
X109627000Y-93837000D01*
X109627000Y-93857000D01*
X109373000Y-93857000D01*
X109373000Y-93837000D01*
X109353000Y-93837000D01*
X109353000Y-93583000D01*
X109373000Y-93583000D01*
X109373000Y-92233750D01*
X109627000Y-92233750D01*
X109627000Y-93583000D01*
X110726250Y-93583000D01*
X110885000Y-93424250D01*
X110885000Y-93363945D01*
X120447261Y-93363945D01*
X120608132Y-93583000D01*
X121713000Y-93583000D01*
X121713000Y-92240344D01*
X121967000Y-92240344D01*
X121967000Y-93583000D01*
X123071868Y-93583000D01*
X123110000Y-93531076D01*
X123148132Y-93583000D01*
X124253000Y-93583000D01*
X124253000Y-92240344D01*
X124038815Y-92117682D01*
X123935765Y-92136519D01*
X123463106Y-92407264D01*
X123130036Y-92838279D01*
X123110000Y-92912047D01*
X123089964Y-92838279D01*
X122756894Y-92407264D01*
X122284235Y-92136519D01*
X122181185Y-92117682D01*
X121967000Y-92240344D01*
X121713000Y-92240344D01*
X121498815Y-92117682D01*
X121395765Y-92136519D01*
X120923106Y-92407264D01*
X120590036Y-92838279D01*
X120447261Y-93363945D01*
X110885000Y-93363945D01*
X110885000Y-92583690D01*
X110788327Y-92350301D01*
X110609698Y-92171673D01*
X110376309Y-92075000D01*
X109785750Y-92075000D01*
X109627000Y-92233750D01*
X109373000Y-92233750D01*
X109214250Y-92075000D01*
X109084999Y-92075000D01*
X109084999Y-91099803D01*
X109025244Y-90799397D01*
X108855078Y-90544724D01*
X108855075Y-90544722D01*
X105328961Y-87018607D01*
X105074289Y-86848441D01*
X104773882Y-86788686D01*
X103451774Y-86788686D01*
X101566717Y-84903629D01*
X101899343Y-84681375D01*
X102195489Y-84238161D01*
X102210036Y-84291721D01*
X102543106Y-84722736D01*
X103015765Y-84993481D01*
X103118815Y-85012318D01*
X103333000Y-84889656D01*
X103333000Y-83547000D01*
X103313000Y-83547000D01*
X103313000Y-83293000D01*
X103333000Y-83293000D01*
X103333000Y-81950344D01*
X103273170Y-81916080D01*
X103333000Y-81856250D01*
X103333000Y-80507000D01*
X103313000Y-80507000D01*
X103313000Y-80253000D01*
X103333000Y-80253000D01*
X103333000Y-80233000D01*
X103587000Y-80233000D01*
X103587000Y-80253000D01*
G36*
X138641320Y-94021080D02*
X138895993Y-94191246D01*
X139196399Y-94251001D01*
X140140843Y-94251001D01*
X140391242Y-94501400D01*
X140332998Y-94501400D01*
X140332998Y-94660148D01*
X140174250Y-94501400D01*
X139470091Y-94501400D01*
X139236702Y-94598073D01*
X139058073Y-94776701D01*
X138961400Y-95010090D01*
X138961400Y-95714250D01*
X139120150Y-95873000D01*
X140333000Y-95873000D01*
X140333000Y-95853000D01*
X140587000Y-95853000D01*
X140587000Y-95873000D01*
X140607000Y-95873000D01*
X140607000Y-96127000D01*
X140587000Y-96127000D01*
X140587000Y-96147000D01*
X140333000Y-96147000D01*
X140333000Y-96127000D01*
X139120150Y-96127000D01*
X138961400Y-96285750D01*
X138961400Y-96528601D01*
X135678759Y-96528601D01*
X133344715Y-94194557D01*
X133385000Y-93992032D01*
X133385000Y-93427968D01*
X133279573Y-92897951D01*
X132979343Y-92448625D01*
X132530017Y-92148395D01*
X132000000Y-92042968D01*
X131469983Y-92148395D01*
X131367218Y-92217060D01*
X131363762Y-92213604D01*
X131363762Y-88500000D01*
X131304007Y-88199594D01*
X131133841Y-87944921D01*
X131133838Y-87944919D01*
X129821009Y-86632089D01*
X131252329Y-86632089D01*
X138641320Y-94021080D01*
X138641320Y-94021080D01*
G37*
X138641320Y-94021080D02*
X138895993Y-94191246D01*
X139196399Y-94251001D01*
X140140843Y-94251001D01*
X140391242Y-94501400D01*
X140332998Y-94501400D01*
X140332998Y-94660148D01*
X140174250Y-94501400D01*
X139470091Y-94501400D01*
X139236702Y-94598073D01*
X139058073Y-94776701D01*
X138961400Y-95010090D01*
X138961400Y-95714250D01*
X139120150Y-95873000D01*
X140333000Y-95873000D01*
X140333000Y-95853000D01*
X140587000Y-95853000D01*
X140587000Y-95873000D01*
X140607000Y-95873000D01*
X140607000Y-96127000D01*
X140587000Y-96127000D01*
X140587000Y-96147000D01*
X140333000Y-96147000D01*
X140333000Y-96127000D01*
X139120150Y-96127000D01*
X138961400Y-96285750D01*
X138961400Y-96528601D01*
X135678759Y-96528601D01*
X133344715Y-94194557D01*
X133385000Y-93992032D01*
X133385000Y-93427968D01*
X133279573Y-92897951D01*
X132979343Y-92448625D01*
X132530017Y-92148395D01*
X132000000Y-92042968D01*
X131469983Y-92148395D01*
X131367218Y-92217060D01*
X131363762Y-92213604D01*
X131363762Y-88500000D01*
X131304007Y-88199594D01*
X131133841Y-87944921D01*
X131133838Y-87944919D01*
X129821009Y-86632089D01*
X131252329Y-86632089D01*
X138641320Y-94021080D01*
G36*
X127713781Y-79126855D02*
X127713302Y-79675743D01*
X127923711Y-80184973D01*
X128312978Y-80574919D01*
X128821840Y-80786217D01*
X129372827Y-80786698D01*
X129882057Y-80576289D01*
X130164971Y-80293868D01*
X130164971Y-80997060D01*
X130224726Y-81297467D01*
X130394892Y-81552139D01*
X132347855Y-83505102D01*
X132602528Y-83675268D01*
X132902934Y-83735023D01*
X135226976Y-83735023D01*
X135527382Y-83675268D01*
X135657188Y-83588534D01*
X135782054Y-83505102D01*
X135782056Y-83505099D01*
X136142145Y-83145010D01*
X139699961Y-83145010D01*
X139636519Y-83255765D01*
X139617682Y-83358815D01*
X139740344Y-83573000D01*
X141083000Y-83573000D01*
X141083000Y-83553000D01*
X141337000Y-83553000D01*
X141337000Y-83573000D01*
X141357000Y-83573000D01*
X141357000Y-83827000D01*
X141337000Y-83827000D01*
X141337000Y-84931868D01*
X141556055Y-85092739D01*
X142081721Y-84949964D01*
X142175000Y-84877882D01*
X142175000Y-85215000D01*
X132904097Y-85215000D01*
X132381100Y-84692002D01*
X132381098Y-84691999D01*
X132197920Y-84569604D01*
X132126426Y-84521833D01*
X131826020Y-84462078D01*
X131452236Y-84462078D01*
X131031343Y-84041185D01*
X139617682Y-84041185D01*
X139636519Y-84144235D01*
X139907264Y-84616894D01*
X140338279Y-84949964D01*
X140863945Y-85092739D01*
X141083000Y-84931868D01*
X141083000Y-83827000D01*
X139740344Y-83827000D01*
X139617682Y-84041185D01*
X131031343Y-84041185D01*
X127784554Y-80794396D01*
X127843113Y-80500000D01*
X127733880Y-79950849D01*
X127422811Y-79485302D01*
X127040725Y-79230000D01*
X127422811Y-78974698D01*
X127478412Y-78891486D01*
X127713781Y-79126855D01*
X127713781Y-79126855D01*
G37*
X127713781Y-79126855D02*
X127713302Y-79675743D01*
X127923711Y-80184973D01*
X128312978Y-80574919D01*
X128821840Y-80786217D01*
X129372827Y-80786698D01*
X129882057Y-80576289D01*
X130164971Y-80293868D01*
X130164971Y-80997060D01*
X130224726Y-81297467D01*
X130394892Y-81552139D01*
X132347855Y-83505102D01*
X132602528Y-83675268D01*
X132902934Y-83735023D01*
X135226976Y-83735023D01*
X135527382Y-83675268D01*
X135657188Y-83588534D01*
X135782054Y-83505102D01*
X135782056Y-83505099D01*
X136142145Y-83145010D01*
X139699961Y-83145010D01*
X139636519Y-83255765D01*
X139617682Y-83358815D01*
X139740344Y-83573000D01*
X141083000Y-83573000D01*
X141083000Y-83553000D01*
X141337000Y-83553000D01*
X141337000Y-83573000D01*
X141357000Y-83573000D01*
X141357000Y-83827000D01*
X141337000Y-83827000D01*
X141337000Y-84931868D01*
X141556055Y-85092739D01*
X142081721Y-84949964D01*
X142175000Y-84877882D01*
X142175000Y-85215000D01*
X132904097Y-85215000D01*
X132381100Y-84692002D01*
X132381098Y-84691999D01*
X132197920Y-84569604D01*
X132126426Y-84521833D01*
X131826020Y-84462078D01*
X131452236Y-84462078D01*
X131031343Y-84041185D01*
X139617682Y-84041185D01*
X139636519Y-84144235D01*
X139907264Y-84616894D01*
X140338279Y-84949964D01*
X140863945Y-85092739D01*
X141083000Y-84931868D01*
X141083000Y-83827000D01*
X139740344Y-83827000D01*
X139617682Y-84041185D01*
X131031343Y-84041185D01*
X127784554Y-80794396D01*
X127843113Y-80500000D01*
X127733880Y-79950849D01*
X127422811Y-79485302D01*
X127040725Y-79230000D01*
X127422811Y-78974698D01*
X127478412Y-78891486D01*
X127713781Y-79126855D01*
G36*
X121102758Y-54776661D02*
X121314990Y-55290303D01*
X121667342Y-55643271D01*
X121316371Y-55993630D01*
X121103243Y-56506900D01*
X121102758Y-57062661D01*
X121105805Y-57070037D01*
X119714893Y-58460949D01*
X119544727Y-58715621D01*
X119501302Y-58933931D01*
X119484972Y-59016028D01*
X119484972Y-60026620D01*
X119096511Y-60414405D01*
X118885213Y-60923267D01*
X118884732Y-61474254D01*
X118942882Y-61614989D01*
X117091549Y-61614989D01*
X114578876Y-59102316D01*
X114324204Y-58932150D01*
X114023797Y-58872395D01*
X113000000Y-58872395D01*
X112699593Y-58932150D01*
X112444921Y-59102316D01*
X110944921Y-60602316D01*
X110774755Y-60856988D01*
X110757320Y-60944640D01*
X110715000Y-61157395D01*
X110715000Y-74473806D01*
X110774755Y-74774213D01*
X110944921Y-75028885D01*
X111559775Y-75643738D01*
X111410515Y-75705411D01*
X111020569Y-76094678D01*
X110809271Y-76603540D01*
X110808790Y-77154527D01*
X111019199Y-77663757D01*
X111140308Y-77785077D01*
X111025802Y-77899383D01*
X110814504Y-78408245D01*
X110814072Y-78902989D01*
X109239706Y-78902990D01*
X108939299Y-78962745D01*
X108684627Y-79132911D01*
X108442980Y-79374558D01*
X108442980Y-67328831D01*
X108435574Y-67291597D01*
X108383225Y-67028424D01*
X108213059Y-66773752D01*
X102484316Y-61045009D01*
X102229644Y-60874843D01*
X102052963Y-60839699D01*
X102043408Y-60816573D01*
X101654141Y-60426627D01*
X101145279Y-60215329D01*
X100594292Y-60214848D01*
X100085062Y-60425257D01*
X99797609Y-60712210D01*
X99374127Y-60536365D01*
X98823140Y-60535884D01*
X98313910Y-60746293D01*
X97923964Y-61135560D01*
X97712666Y-61644422D01*
X97712185Y-62195409D01*
X97922594Y-62704639D01*
X98311861Y-63094585D01*
X98820723Y-63305883D01*
X99371710Y-63306364D01*
X99372274Y-63306131D01*
X99678994Y-63612851D01*
X99933666Y-63783017D01*
X100234073Y-63842772D01*
X101489180Y-63842772D01*
X106272972Y-68626564D01*
X106272972Y-83366102D01*
X105445001Y-82538131D01*
X105445001Y-79054173D01*
X105406877Y-78862514D01*
X105385247Y-78753769D01*
X105364031Y-78722016D01*
X105215080Y-78499094D01*
X105215077Y-78499092D01*
X105090909Y-78374922D01*
X105090907Y-78374920D01*
X104979388Y-78300406D01*
X104836237Y-78204755D01*
X104836235Y-78204755D01*
X104836234Y-78204754D01*
X104715096Y-78180658D01*
X104535831Y-78144999D01*
X102349999Y-78144999D01*
X102049592Y-78204754D01*
X101794920Y-78374920D01*
X101367799Y-78802041D01*
X100920000Y-78712968D01*
X100389983Y-78818395D01*
X100287218Y-78887060D01*
X99823761Y-78423603D01*
X99884759Y-78276702D01*
X99885240Y-77725715D01*
X99674831Y-77216485D01*
X99285564Y-76826539D01*
X98776702Y-76615241D01*
X98225715Y-76614760D01*
X97716485Y-76825169D01*
X97326539Y-77214436D01*
X97326305Y-77215000D01*
X83325158Y-77215000D01*
X78624824Y-72514666D01*
X78624824Y-68068910D01*
X78565069Y-67768504D01*
X78394903Y-67513831D01*
X75285000Y-64403928D01*
X75285000Y-60825157D01*
X78313006Y-57797151D01*
X78483172Y-57542478D01*
X78542928Y-57242072D01*
X78542927Y-57242067D01*
X78542927Y-55884979D01*
X94480967Y-55884979D01*
X96444921Y-57848933D01*
X96699594Y-58019099D01*
X97000000Y-58078854D01*
X106681611Y-58078854D01*
X106847854Y-58245096D01*
X106847856Y-58245099D01*
X107102529Y-58415265D01*
X107402935Y-58475020D01*
X116957610Y-58475020D01*
X117258017Y-58415265D01*
X117512689Y-58245099D01*
X121102864Y-54654924D01*
X121102758Y-54776661D01*
X121102758Y-54776661D01*
G37*
X121102758Y-54776661D02*
X121314990Y-55290303D01*
X121667342Y-55643271D01*
X121316371Y-55993630D01*
X121103243Y-56506900D01*
X121102758Y-57062661D01*
X121105805Y-57070037D01*
X119714893Y-58460949D01*
X119544727Y-58715621D01*
X119501302Y-58933931D01*
X119484972Y-59016028D01*
X119484972Y-60026620D01*
X119096511Y-60414405D01*
X118885213Y-60923267D01*
X118884732Y-61474254D01*
X118942882Y-61614989D01*
X117091549Y-61614989D01*
X114578876Y-59102316D01*
X114324204Y-58932150D01*
X114023797Y-58872395D01*
X113000000Y-58872395D01*
X112699593Y-58932150D01*
X112444921Y-59102316D01*
X110944921Y-60602316D01*
X110774755Y-60856988D01*
X110757320Y-60944640D01*
X110715000Y-61157395D01*
X110715000Y-74473806D01*
X110774755Y-74774213D01*
X110944921Y-75028885D01*
X111559775Y-75643738D01*
X111410515Y-75705411D01*
X111020569Y-76094678D01*
X110809271Y-76603540D01*
X110808790Y-77154527D01*
X111019199Y-77663757D01*
X111140308Y-77785077D01*
X111025802Y-77899383D01*
X110814504Y-78408245D01*
X110814072Y-78902989D01*
X109239706Y-78902990D01*
X108939299Y-78962745D01*
X108684627Y-79132911D01*
X108442980Y-79374558D01*
X108442980Y-67328831D01*
X108435574Y-67291597D01*
X108383225Y-67028424D01*
X108213059Y-66773752D01*
X102484316Y-61045009D01*
X102229644Y-60874843D01*
X102052963Y-60839699D01*
X102043408Y-60816573D01*
X101654141Y-60426627D01*
X101145279Y-60215329D01*
X100594292Y-60214848D01*
X100085062Y-60425257D01*
X99797609Y-60712210D01*
X99374127Y-60536365D01*
X98823140Y-60535884D01*
X98313910Y-60746293D01*
X97923964Y-61135560D01*
X97712666Y-61644422D01*
X97712185Y-62195409D01*
X97922594Y-62704639D01*
X98311861Y-63094585D01*
X98820723Y-63305883D01*
X99371710Y-63306364D01*
X99372274Y-63306131D01*
X99678994Y-63612851D01*
X99933666Y-63783017D01*
X100234073Y-63842772D01*
X101489180Y-63842772D01*
X106272972Y-68626564D01*
X106272972Y-83366102D01*
X105445001Y-82538131D01*
X105445001Y-79054173D01*
X105406877Y-78862514D01*
X105385247Y-78753769D01*
X105364031Y-78722016D01*
X105215080Y-78499094D01*
X105215077Y-78499092D01*
X105090909Y-78374922D01*
X105090907Y-78374920D01*
X104979388Y-78300406D01*
X104836237Y-78204755D01*
X104836235Y-78204755D01*
X104836234Y-78204754D01*
X104715096Y-78180658D01*
X104535831Y-78144999D01*
X102349999Y-78144999D01*
X102049592Y-78204754D01*
X101794920Y-78374920D01*
X101367799Y-78802041D01*
X100920000Y-78712968D01*
X100389983Y-78818395D01*
X100287218Y-78887060D01*
X99823761Y-78423603D01*
X99884759Y-78276702D01*
X99885240Y-77725715D01*
X99674831Y-77216485D01*
X99285564Y-76826539D01*
X98776702Y-76615241D01*
X98225715Y-76614760D01*
X97716485Y-76825169D01*
X97326539Y-77214436D01*
X97326305Y-77215000D01*
X83325158Y-77215000D01*
X78624824Y-72514666D01*
X78624824Y-68068910D01*
X78565069Y-67768504D01*
X78394903Y-67513831D01*
X75285000Y-64403928D01*
X75285000Y-60825157D01*
X78313006Y-57797151D01*
X78483172Y-57542478D01*
X78542928Y-57242072D01*
X78542927Y-57242067D01*
X78542927Y-55884979D01*
X94480967Y-55884979D01*
X96444921Y-57848933D01*
X96699594Y-58019099D01*
X97000000Y-58078854D01*
X106681611Y-58078854D01*
X106847854Y-58245096D01*
X106847856Y-58245099D01*
X107102529Y-58415265D01*
X107402935Y-58475020D01*
X116957610Y-58475020D01*
X117258017Y-58415265D01*
X117512689Y-58245099D01*
X121102864Y-54654924D01*
X121102758Y-54776661D01*
G36*
X125337189Y-76945302D02*
X125026120Y-77410849D01*
X124916887Y-77960000D01*
X125026120Y-78509151D01*
X125337189Y-78974698D01*
X125719275Y-79230000D01*
X125337189Y-79485302D01*
X125183709Y-79715000D01*
X124476616Y-79715000D01*
X122866537Y-78104921D01*
X122611865Y-77934755D01*
X122311458Y-77875000D01*
X121242932Y-77875000D01*
X121202982Y-77662683D01*
X121063910Y-77446559D01*
X120851710Y-77301569D01*
X120635276Y-77257740D01*
X120859635Y-77107828D01*
X120995161Y-76905000D01*
X125397505Y-76905000D01*
X125337189Y-76945302D01*
X125337189Y-76945302D01*
G37*
X125337189Y-76945302D02*
X125026120Y-77410849D01*
X124916887Y-77960000D01*
X125026120Y-78509151D01*
X125337189Y-78974698D01*
X125719275Y-79230000D01*
X125337189Y-79485302D01*
X125183709Y-79715000D01*
X124476616Y-79715000D01*
X122866537Y-78104921D01*
X122611865Y-77934755D01*
X122311458Y-77875000D01*
X121242932Y-77875000D01*
X121202982Y-77662683D01*
X121063910Y-77446559D01*
X120851710Y-77301569D01*
X120635276Y-77257740D01*
X120859635Y-77107828D01*
X120995161Y-76905000D01*
X125397505Y-76905000D01*
X125337189Y-76945302D01*
G36*
X131193453Y-62455068D02*
X131448126Y-62625234D01*
X131748532Y-62684989D01*
X132970009Y-62684989D01*
X133270416Y-62625234D01*
X133318658Y-62593000D01*
X133873000Y-62593000D01*
X133873000Y-62573000D01*
X134127000Y-62573000D01*
X134127000Y-62593000D01*
X134147000Y-62593000D01*
X134147000Y-62847000D01*
X134127000Y-62847000D01*
X134127000Y-62867000D01*
X133873000Y-62867000D01*
X133873000Y-62847000D01*
X132730085Y-62847000D01*
X132608096Y-63069039D01*
X132768959Y-63457423D01*
X132803874Y-63495966D01*
X131444921Y-64854919D01*
X131274755Y-65109591D01*
X131254372Y-65212064D01*
X131215000Y-65409998D01*
X131215000Y-71007755D01*
X130944921Y-71277834D01*
X130774755Y-71532506D01*
X130732339Y-71745746D01*
X130715000Y-71832913D01*
X130715000Y-73674842D01*
X130674842Y-73715000D01*
X130325157Y-73715000D01*
X129015012Y-72404855D01*
X129015012Y-66730012D01*
X129000109Y-66655090D01*
X128955257Y-66429605D01*
X128785091Y-66174933D01*
X128296370Y-65686212D01*
X128296370Y-65260000D01*
X128236615Y-64959594D01*
X128066449Y-64704921D01*
X127811776Y-64534755D01*
X127586242Y-64489893D01*
X127422811Y-64245302D01*
X127040725Y-63990000D01*
X127422811Y-63734698D01*
X127733880Y-63269151D01*
X127843113Y-62720000D01*
X127750618Y-62254999D01*
X130993384Y-62254999D01*
X131193453Y-62455068D01*
X131193453Y-62455068D01*
G37*
X131193453Y-62455068D02*
X131448126Y-62625234D01*
X131748532Y-62684989D01*
X132970009Y-62684989D01*
X133270416Y-62625234D01*
X133318658Y-62593000D01*
X133873000Y-62593000D01*
X133873000Y-62573000D01*
X134127000Y-62573000D01*
X134127000Y-62593000D01*
X134147000Y-62593000D01*
X134147000Y-62847000D01*
X134127000Y-62847000D01*
X134127000Y-62867000D01*
X133873000Y-62867000D01*
X133873000Y-62847000D01*
X132730085Y-62847000D01*
X132608096Y-63069039D01*
X132768959Y-63457423D01*
X132803874Y-63495966D01*
X131444921Y-64854919D01*
X131274755Y-65109591D01*
X131254372Y-65212064D01*
X131215000Y-65409998D01*
X131215000Y-71007755D01*
X130944921Y-71277834D01*
X130774755Y-71532506D01*
X130732339Y-71745746D01*
X130715000Y-71832913D01*
X130715000Y-73674842D01*
X130674842Y-73715000D01*
X130325157Y-73715000D01*
X129015012Y-72404855D01*
X129015012Y-66730012D01*
X129000109Y-66655090D01*
X128955257Y-66429605D01*
X128785091Y-66174933D01*
X128296370Y-65686212D01*
X128296370Y-65260000D01*
X128236615Y-64959594D01*
X128066449Y-64704921D01*
X127811776Y-64534755D01*
X127586242Y-64489893D01*
X127422811Y-64245302D01*
X127040725Y-63990000D01*
X127422811Y-63734698D01*
X127733880Y-63269151D01*
X127843113Y-62720000D01*
X127750618Y-62254999D01*
X130993384Y-62254999D01*
X131193453Y-62455068D01*
G36*
X135314990Y-49290303D02*
X135707630Y-49683629D01*
X136220900Y-49896757D01*
X136635029Y-49897118D01*
X136529148Y-50002999D01*
X135918239Y-50002999D01*
X135617832Y-50062754D01*
X135363160Y-50232920D01*
X134732920Y-50863160D01*
X134562754Y-51117832D01*
X134538280Y-51240872D01*
X134502999Y-51418239D01*
X134502999Y-53936843D01*
X133444921Y-54994921D01*
X133299880Y-55211991D01*
X133114683Y-55246838D01*
X132898559Y-55385910D01*
X132753569Y-55598110D01*
X132702560Y-55850000D01*
X132702560Y-56012385D01*
X132629611Y-55836271D01*
X132399016Y-55780590D01*
X131679605Y-56500000D01*
X132399016Y-57219410D01*
X132629611Y-57163729D01*
X132702560Y-56954098D01*
X132702560Y-57150000D01*
X132746838Y-57385317D01*
X132885910Y-57601441D01*
X133098110Y-57746431D01*
X133215000Y-57770102D01*
X133215000Y-60544840D01*
X132644851Y-61114989D01*
X132073690Y-61114989D01*
X131873621Y-60914920D01*
X131618949Y-60744754D01*
X131318542Y-60684999D01*
X125779999Y-60684999D01*
X125479593Y-60744754D01*
X125224920Y-60914920D01*
X125224918Y-60914923D01*
X124524851Y-61614989D01*
X121597296Y-61614989D01*
X121654731Y-61476671D01*
X121655212Y-60925684D01*
X121444803Y-60416454D01*
X121081197Y-60052213D01*
X121699392Y-60052213D01*
X121768857Y-60294397D01*
X122292302Y-60481144D01*
X122847368Y-60453362D01*
X123231143Y-60294397D01*
X123300608Y-60052213D01*
X122500000Y-59251605D01*
X121699392Y-60052213D01*
X121081197Y-60052213D01*
X121055536Y-60026508D01*
X121054972Y-60026274D01*
X121054972Y-59341186D01*
X121111877Y-59284281D01*
X121118638Y-59419368D01*
X121277603Y-59803143D01*
X121519787Y-59872608D01*
X122320395Y-59072000D01*
X122679605Y-59072000D01*
X123480213Y-59872608D01*
X123722397Y-59803143D01*
X123909144Y-59279698D01*
X123881362Y-58724632D01*
X123722397Y-58340857D01*
X123480213Y-58271392D01*
X122679605Y-59072000D01*
X122320395Y-59072000D01*
X122306253Y-59057858D01*
X122485858Y-58878253D01*
X122500000Y-58892395D01*
X123300608Y-58091787D01*
X123268545Y-57980000D01*
X123290303Y-57971010D01*
X123683629Y-57578370D01*
X123758103Y-57399016D01*
X130780590Y-57399016D01*
X130836271Y-57629611D01*
X131319078Y-57797622D01*
X131829428Y-57768083D01*
X132163729Y-57629611D01*
X132219410Y-57399016D01*
X131500000Y-56679605D01*
X130780590Y-57399016D01*
X123758103Y-57399016D01*
X123896757Y-57065100D01*
X123897196Y-56561504D01*
X124139622Y-56319078D01*
X130202378Y-56319078D01*
X130231917Y-56829428D01*
X130370389Y-57163729D01*
X130600984Y-57219410D01*
X131320395Y-56500000D01*
X130600984Y-55780590D01*
X130370389Y-55836271D01*
X130202378Y-56319078D01*
X124139622Y-56319078D01*
X124857716Y-55600984D01*
X130780590Y-55600984D01*
X131500000Y-56320395D01*
X132219410Y-55600984D01*
X132163729Y-55370389D01*
X131680922Y-55202378D01*
X131170572Y-55231917D01*
X130836271Y-55370389D01*
X130780590Y-55600984D01*
X124857716Y-55600984D01*
X131173700Y-49285000D01*
X135312799Y-49285000D01*
X135314990Y-49290303D01*
X135314990Y-49290303D01*
G37*
X135314990Y-49290303D02*
X135707630Y-49683629D01*
X136220900Y-49896757D01*
X136635029Y-49897118D01*
X136529148Y-50002999D01*
X135918239Y-50002999D01*
X135617832Y-50062754D01*
X135363160Y-50232920D01*
X134732920Y-50863160D01*
X134562754Y-51117832D01*
X134538280Y-51240872D01*
X134502999Y-51418239D01*
X134502999Y-53936843D01*
X133444921Y-54994921D01*
X133299880Y-55211991D01*
X133114683Y-55246838D01*
X132898559Y-55385910D01*
X132753569Y-55598110D01*
X132702560Y-55850000D01*
X132702560Y-56012385D01*
X132629611Y-55836271D01*
X132399016Y-55780590D01*
X131679605Y-56500000D01*
X132399016Y-57219410D01*
X132629611Y-57163729D01*
X132702560Y-56954098D01*
X132702560Y-57150000D01*
X132746838Y-57385317D01*
X132885910Y-57601441D01*
X133098110Y-57746431D01*
X133215000Y-57770102D01*
X133215000Y-60544840D01*
X132644851Y-61114989D01*
X132073690Y-61114989D01*
X131873621Y-60914920D01*
X131618949Y-60744754D01*
X131318542Y-60684999D01*
X125779999Y-60684999D01*
X125479593Y-60744754D01*
X125224920Y-60914920D01*
X125224918Y-60914923D01*
X124524851Y-61614989D01*
X121597296Y-61614989D01*
X121654731Y-61476671D01*
X121655212Y-60925684D01*
X121444803Y-60416454D01*
X121081197Y-60052213D01*
X121699392Y-60052213D01*
X121768857Y-60294397D01*
X122292302Y-60481144D01*
X122847368Y-60453362D01*
X123231143Y-60294397D01*
X123300608Y-60052213D01*
X122500000Y-59251605D01*
X121699392Y-60052213D01*
X121081197Y-60052213D01*
X121055536Y-60026508D01*
X121054972Y-60026274D01*
X121054972Y-59341186D01*
X121111877Y-59284281D01*
X121118638Y-59419368D01*
X121277603Y-59803143D01*
X121519787Y-59872608D01*
X122320395Y-59072000D01*
X122679605Y-59072000D01*
X123480213Y-59872608D01*
X123722397Y-59803143D01*
X123909144Y-59279698D01*
X123881362Y-58724632D01*
X123722397Y-58340857D01*
X123480213Y-58271392D01*
X122679605Y-59072000D01*
X122320395Y-59072000D01*
X122306253Y-59057858D01*
X122485858Y-58878253D01*
X122500000Y-58892395D01*
X123300608Y-58091787D01*
X123268545Y-57980000D01*
X123290303Y-57971010D01*
X123683629Y-57578370D01*
X123758103Y-57399016D01*
X130780590Y-57399016D01*
X130836271Y-57629611D01*
X131319078Y-57797622D01*
X131829428Y-57768083D01*
X132163729Y-57629611D01*
X132219410Y-57399016D01*
X131500000Y-56679605D01*
X130780590Y-57399016D01*
X123758103Y-57399016D01*
X123896757Y-57065100D01*
X123897196Y-56561504D01*
X124139622Y-56319078D01*
X130202378Y-56319078D01*
X130231917Y-56829428D01*
X130370389Y-57163729D01*
X130600984Y-57219410D01*
X131320395Y-56500000D01*
X130600984Y-55780590D01*
X130370389Y-55836271D01*
X130202378Y-56319078D01*
X124139622Y-56319078D01*
X124857716Y-55600984D01*
X130780590Y-55600984D01*
X131500000Y-56320395D01*
X132219410Y-55600984D01*
X132163729Y-55370389D01*
X131680922Y-55202378D01*
X131170572Y-55231917D01*
X130836271Y-55370389D01*
X130780590Y-55600984D01*
X124857716Y-55600984D01*
X131173700Y-49285000D01*
X135312799Y-49285000D01*
X135314990Y-49290303D01*
G36*
X108627000Y-55113000D02*
X108647000Y-55113000D01*
X108647000Y-55367000D01*
X108627000Y-55367000D01*
X108627000Y-55387000D01*
X108373000Y-55387000D01*
X108373000Y-55367000D01*
X108353000Y-55367000D01*
X108353000Y-55113000D01*
X108373000Y-55113000D01*
X108373000Y-55093000D01*
X108627000Y-55093000D01*
X108627000Y-55113000D01*
X108627000Y-55113000D01*
G37*
X108627000Y-55113000D02*
X108647000Y-55113000D01*
X108647000Y-55367000D01*
X108627000Y-55367000D01*
X108627000Y-55387000D01*
X108373000Y-55387000D01*
X108373000Y-55367000D01*
X108353000Y-55367000D01*
X108353000Y-55113000D01*
X108373000Y-55113000D01*
X108373000Y-55093000D01*
X108627000Y-55093000D01*
X108627000Y-55113000D01*
G36*
X147771016Y-47970160D02*
X147835496Y-48013244D01*
X148135902Y-48073000D01*
X148135907Y-48072999D01*
X151960921Y-48072999D01*
X153231684Y-49343762D01*
X153115008Y-49624749D01*
X153114354Y-50374521D01*
X153400674Y-51067471D01*
X153930381Y-51598102D01*
X154214360Y-51716021D01*
X154214360Y-54213763D01*
X154098686Y-53933809D01*
X153568979Y-53403178D01*
X152876531Y-53115648D01*
X152126759Y-53114994D01*
X151842574Y-53232416D01*
X150467985Y-51857827D01*
X151024915Y-51627139D01*
X151154123Y-51334369D01*
X150000640Y-50180885D01*
X148847157Y-51334369D01*
X148927304Y-51515972D01*
X146149692Y-51515972D01*
X146596182Y-51070259D01*
X146883712Y-50377811D01*
X146884323Y-49677163D01*
X148106569Y-49677163D01*
X148126712Y-50426664D01*
X148374781Y-51025555D01*
X148667551Y-51154763D01*
X149821035Y-50001280D01*
X150180245Y-50001280D01*
X151333729Y-51154763D01*
X151626499Y-51025555D01*
X151894711Y-50325397D01*
X151874568Y-49575896D01*
X151626499Y-48977005D01*
X151333729Y-48847797D01*
X150180245Y-50001280D01*
X149821035Y-50001280D01*
X148667551Y-48847797D01*
X148374781Y-48977005D01*
X148106569Y-49677163D01*
X146884323Y-49677163D01*
X146884366Y-49628039D01*
X146598046Y-48935089D01*
X146331613Y-48668191D01*
X148847157Y-48668191D01*
X150000640Y-49821675D01*
X151154123Y-48668191D01*
X151024915Y-48375421D01*
X150324757Y-48107209D01*
X149575256Y-48127352D01*
X148976365Y-48375421D01*
X148847157Y-48668191D01*
X146331613Y-48668191D01*
X146068339Y-48404458D01*
X145375891Y-48116928D01*
X144626119Y-48116274D01*
X144341934Y-48233696D01*
X143994815Y-47886577D01*
X147645924Y-47886577D01*
X147771016Y-47970160D01*
X147771016Y-47970160D01*
G37*
X147771016Y-47970160D02*
X147835496Y-48013244D01*
X148135902Y-48073000D01*
X148135907Y-48072999D01*
X151960921Y-48072999D01*
X153231684Y-49343762D01*
X153115008Y-49624749D01*
X153114354Y-50374521D01*
X153400674Y-51067471D01*
X153930381Y-51598102D01*
X154214360Y-51716021D01*
X154214360Y-54213763D01*
X154098686Y-53933809D01*
X153568979Y-53403178D01*
X152876531Y-53115648D01*
X152126759Y-53114994D01*
X151842574Y-53232416D01*
X150467985Y-51857827D01*
X151024915Y-51627139D01*
X151154123Y-51334369D01*
X150000640Y-50180885D01*
X148847157Y-51334369D01*
X148927304Y-51515972D01*
X146149692Y-51515972D01*
X146596182Y-51070259D01*
X146883712Y-50377811D01*
X146884323Y-49677163D01*
X148106569Y-49677163D01*
X148126712Y-50426664D01*
X148374781Y-51025555D01*
X148667551Y-51154763D01*
X149821035Y-50001280D01*
X150180245Y-50001280D01*
X151333729Y-51154763D01*
X151626499Y-51025555D01*
X151894711Y-50325397D01*
X151874568Y-49575896D01*
X151626499Y-48977005D01*
X151333729Y-48847797D01*
X150180245Y-50001280D01*
X149821035Y-50001280D01*
X148667551Y-48847797D01*
X148374781Y-48977005D01*
X148106569Y-49677163D01*
X146884323Y-49677163D01*
X146884366Y-49628039D01*
X146598046Y-48935089D01*
X146331613Y-48668191D01*
X148847157Y-48668191D01*
X150000640Y-49821675D01*
X151154123Y-48668191D01*
X151024915Y-48375421D01*
X150324757Y-48107209D01*
X149575256Y-48127352D01*
X148976365Y-48375421D01*
X148847157Y-48668191D01*
X146331613Y-48668191D01*
X146068339Y-48404458D01*
X145375891Y-48116928D01*
X144626119Y-48116274D01*
X144341934Y-48233696D01*
X143994815Y-47886577D01*
X147645924Y-47886577D01*
X147771016Y-47970160D01*
G36*
X140194388Y-49987138D02*
X140180245Y-50001280D01*
X140194388Y-50015422D01*
X140014782Y-50195028D01*
X140000640Y-50180885D01*
X139986498Y-50195028D01*
X139806892Y-50015422D01*
X139821035Y-50001280D01*
X139806892Y-49987138D01*
X139986498Y-49807532D01*
X140000640Y-49821675D01*
X140014782Y-49807532D01*
X140194388Y-49987138D01*
X140194388Y-49987138D01*
G37*
X140194388Y-49987138D02*
X140180245Y-50001280D01*
X140194388Y-50015422D01*
X140014782Y-50195028D01*
X140000640Y-50180885D01*
X139986498Y-50195028D01*
X139806892Y-50015422D01*
X139821035Y-50001280D01*
X139806892Y-49987138D01*
X139986498Y-49807532D01*
X140000640Y-49821675D01*
X140014782Y-49807532D01*
X140194388Y-49987138D01*
G36*
X107036887Y-34920000D02*
X107095446Y-35214396D01*
X105444921Y-36864921D01*
X105274755Y-37119593D01*
X105243307Y-37277691D01*
X105215000Y-37420000D01*
X105215000Y-42174842D01*
X101671788Y-45718054D01*
X89089190Y-45718054D01*
X89555079Y-45252165D01*
X89725245Y-44997492D01*
X89785000Y-44697086D01*
X89785000Y-35325158D01*
X90255147Y-34855010D01*
X103957060Y-34855010D01*
X104257467Y-34795255D01*
X104512139Y-34625089D01*
X104722227Y-34415001D01*
X107137338Y-34415001D01*
X107036887Y-34920000D01*
X107036887Y-34920000D01*
G37*
X107036887Y-34920000D02*
X107095446Y-35214396D01*
X105444921Y-36864921D01*
X105274755Y-37119593D01*
X105243307Y-37277691D01*
X105215000Y-37420000D01*
X105215000Y-42174842D01*
X101671788Y-45718054D01*
X89089190Y-45718054D01*
X89555079Y-45252165D01*
X89725245Y-44997492D01*
X89785000Y-44697086D01*
X89785000Y-35325158D01*
X90255147Y-34855010D01*
X103957060Y-34855010D01*
X104257467Y-34795255D01*
X104512139Y-34625089D01*
X104722227Y-34415001D01*
X107137338Y-34415001D01*
X107036887Y-34920000D01*
G36*
X84700657Y-33881375D02*
X85149983Y-34181605D01*
X85680000Y-34287032D01*
X86210017Y-34181605D01*
X86444683Y-34024806D01*
X86464911Y-34055079D01*
X86715000Y-34305168D01*
X86715000Y-44174842D01*
X86170860Y-44718982D01*
X74944263Y-44718982D01*
X75007249Y-44567296D01*
X75007730Y-44016309D01*
X74797321Y-43507079D01*
X74408054Y-43117133D01*
X73899192Y-42905835D01*
X73348205Y-42905354D01*
X73323114Y-42915721D01*
X73172898Y-42815350D01*
X72872491Y-42755595D01*
X66325158Y-42755595D01*
X66285000Y-42715437D01*
X66285000Y-36325158D01*
X67325158Y-35285000D01*
X73680010Y-35285000D01*
X73980417Y-35225245D01*
X74235089Y-35055079D01*
X74735089Y-34555079D01*
X74905255Y-34300406D01*
X74936054Y-34145571D01*
X74989983Y-34181605D01*
X75520000Y-34287032D01*
X76050017Y-34181605D01*
X76499343Y-33881375D01*
X76790000Y-33446376D01*
X77080657Y-33881375D01*
X77529983Y-34181605D01*
X78060000Y-34287032D01*
X78590017Y-34181605D01*
X79039343Y-33881375D01*
X79330000Y-33446376D01*
X79620657Y-33881375D01*
X80069983Y-34181605D01*
X80600000Y-34287032D01*
X81130017Y-34181605D01*
X81579343Y-33881375D01*
X81870000Y-33446376D01*
X82160657Y-33881375D01*
X82609983Y-34181605D01*
X83140000Y-34287032D01*
X83670017Y-34181605D01*
X84119343Y-33881375D01*
X84410000Y-33446376D01*
X84700657Y-33881375D01*
X84700657Y-33881375D01*
G37*
X84700657Y-33881375D02*
X85149983Y-34181605D01*
X85680000Y-34287032D01*
X86210017Y-34181605D01*
X86444683Y-34024806D01*
X86464911Y-34055079D01*
X86715000Y-34305168D01*
X86715000Y-44174842D01*
X86170860Y-44718982D01*
X74944263Y-44718982D01*
X75007249Y-44567296D01*
X75007730Y-44016309D01*
X74797321Y-43507079D01*
X74408054Y-43117133D01*
X73899192Y-42905835D01*
X73348205Y-42905354D01*
X73323114Y-42915721D01*
X73172898Y-42815350D01*
X72872491Y-42755595D01*
X66325158Y-42755595D01*
X66285000Y-42715437D01*
X66285000Y-36325158D01*
X67325158Y-35285000D01*
X73680010Y-35285000D01*
X73980417Y-35225245D01*
X74235089Y-35055079D01*
X74735089Y-34555079D01*
X74905255Y-34300406D01*
X74936054Y-34145571D01*
X74989983Y-34181605D01*
X75520000Y-34287032D01*
X76050017Y-34181605D01*
X76499343Y-33881375D01*
X76790000Y-33446376D01*
X77080657Y-33881375D01*
X77529983Y-34181605D01*
X78060000Y-34287032D01*
X78590017Y-34181605D01*
X79039343Y-33881375D01*
X79330000Y-33446376D01*
X79620657Y-33881375D01*
X80069983Y-34181605D01*
X80600000Y-34287032D01*
X81130017Y-34181605D01*
X81579343Y-33881375D01*
X81870000Y-33446376D01*
X82160657Y-33881375D01*
X82609983Y-34181605D01*
X83140000Y-34287032D01*
X83670017Y-34181605D01*
X84119343Y-33881375D01*
X84410000Y-33446376D01*
X84700657Y-33881375D01*
G36*
X139636519Y-38555765D02*
X139617682Y-38658815D01*
X139740344Y-38873000D01*
X141083000Y-38873000D01*
X141083000Y-38853000D01*
X141337000Y-38853000D01*
X141337000Y-38873000D01*
X142679656Y-38873000D01*
X142713920Y-38813170D01*
X142773750Y-38873000D01*
X144123000Y-38873000D01*
X144123000Y-38853000D01*
X144377000Y-38853000D01*
X144377000Y-38873000D01*
X144397000Y-38873000D01*
X144397000Y-39127000D01*
X144377000Y-39127000D01*
X144377000Y-39147000D01*
X144123000Y-39147000D01*
X144123000Y-39127000D01*
X142773750Y-39127000D01*
X142713920Y-39186830D01*
X142679656Y-39127000D01*
X141337000Y-39127000D01*
X141337000Y-39147000D01*
X141083000Y-39147000D01*
X141083000Y-39127000D01*
X139740344Y-39127000D01*
X139617682Y-39341185D01*
X139636519Y-39444235D01*
X139677098Y-39515077D01*
X135034882Y-39515077D01*
X136104949Y-38445010D01*
X139699961Y-38445010D01*
X139636519Y-38555765D01*
X139636519Y-38555765D01*
G37*
X139636519Y-38555765D02*
X139617682Y-38658815D01*
X139740344Y-38873000D01*
X141083000Y-38873000D01*
X141083000Y-38853000D01*
X141337000Y-38853000D01*
X141337000Y-38873000D01*
X142679656Y-38873000D01*
X142713920Y-38813170D01*
X142773750Y-38873000D01*
X144123000Y-38873000D01*
X144123000Y-38853000D01*
X144377000Y-38853000D01*
X144377000Y-38873000D01*
X144397000Y-38873000D01*
X144397000Y-39127000D01*
X144377000Y-39127000D01*
X144377000Y-39147000D01*
X144123000Y-39147000D01*
X144123000Y-39127000D01*
X142773750Y-39127000D01*
X142713920Y-39186830D01*
X142679656Y-39127000D01*
X141337000Y-39127000D01*
X141337000Y-39147000D01*
X141083000Y-39147000D01*
X141083000Y-39127000D01*
X139740344Y-39127000D01*
X139617682Y-39341185D01*
X139636519Y-39444235D01*
X139677098Y-39515077D01*
X135034882Y-39515077D01*
X136104949Y-38445010D01*
X139699961Y-38445010D01*
X139636519Y-38555765D01*
G36*
X120409995Y-33226943D02*
X120771155Y-33588735D01*
X121075235Y-33715000D01*
X120723690Y-33715000D01*
X120490301Y-33811673D01*
X120311673Y-33990302D01*
X120215000Y-34223691D01*
X120215000Y-34714250D01*
X120373750Y-34873000D01*
X121373000Y-34873000D01*
X121373000Y-34853000D01*
X121627000Y-34853000D01*
X121627000Y-34873000D01*
X122626250Y-34873000D01*
X122785000Y-34714250D01*
X122785000Y-34223691D01*
X122688327Y-33990302D01*
X122509699Y-33811673D01*
X122276310Y-33715000D01*
X121924433Y-33715000D01*
X122226943Y-33590005D01*
X122532482Y-33285000D01*
X133453385Y-33285000D01*
X131523493Y-35214892D01*
X124014679Y-35214892D01*
X123714273Y-35274647D01*
X123653777Y-35315069D01*
X123549116Y-35385001D01*
X122785000Y-35385001D01*
X122785000Y-35285750D01*
X122626250Y-35127000D01*
X121627000Y-35127000D01*
X121627000Y-35147000D01*
X121373000Y-35147000D01*
X121373000Y-35127000D01*
X120373750Y-35127000D01*
X120215000Y-35285750D01*
X120215000Y-35385001D01*
X117463874Y-35385001D01*
X117511904Y-35269039D01*
X117389915Y-35047000D01*
X116247000Y-35047000D01*
X116247000Y-35067000D01*
X115993000Y-35067000D01*
X115993000Y-35047000D01*
X115973000Y-35047000D01*
X115973000Y-34793000D01*
X115993000Y-34793000D01*
X115993000Y-34773000D01*
X116247000Y-34773000D01*
X116247000Y-34793000D01*
X117389915Y-34793000D01*
X117511904Y-34570961D01*
X117351041Y-34182577D01*
X116975134Y-33767611D01*
X116758297Y-33664986D01*
X117162811Y-33394698D01*
X117316291Y-33165000D01*
X120384401Y-33165000D01*
X120409995Y-33226943D01*
X120409995Y-33226943D01*
G37*
X120409995Y-33226943D02*
X120771155Y-33588735D01*
X121075235Y-33715000D01*
X120723690Y-33715000D01*
X120490301Y-33811673D01*
X120311673Y-33990302D01*
X120215000Y-34223691D01*
X120215000Y-34714250D01*
X120373750Y-34873000D01*
X121373000Y-34873000D01*
X121373000Y-34853000D01*
X121627000Y-34853000D01*
X121627000Y-34873000D01*
X122626250Y-34873000D01*
X122785000Y-34714250D01*
X122785000Y-34223691D01*
X122688327Y-33990302D01*
X122509699Y-33811673D01*
X122276310Y-33715000D01*
X121924433Y-33715000D01*
X122226943Y-33590005D01*
X122532482Y-33285000D01*
X133453385Y-33285000D01*
X131523493Y-35214892D01*
X124014679Y-35214892D01*
X123714273Y-35274647D01*
X123653777Y-35315069D01*
X123549116Y-35385001D01*
X122785000Y-35385001D01*
X122785000Y-35285750D01*
X122626250Y-35127000D01*
X121627000Y-35127000D01*
X121627000Y-35147000D01*
X121373000Y-35147000D01*
X121373000Y-35127000D01*
X120373750Y-35127000D01*
X120215000Y-35285750D01*
X120215000Y-35385001D01*
X117463874Y-35385001D01*
X117511904Y-35269039D01*
X117389915Y-35047000D01*
X116247000Y-35047000D01*
X116247000Y-35067000D01*
X115993000Y-35067000D01*
X115993000Y-35047000D01*
X115973000Y-35047000D01*
X115973000Y-34793000D01*
X115993000Y-34793000D01*
X115993000Y-34773000D01*
X116247000Y-34773000D01*
X116247000Y-34793000D01*
X117389915Y-34793000D01*
X117511904Y-34570961D01*
X117351041Y-34182577D01*
X116975134Y-33767611D01*
X116758297Y-33664986D01*
X117162811Y-33394698D01*
X117316291Y-33165000D01*
X120384401Y-33165000D01*
X120409995Y-33226943D01*
G36*
X44060657Y-30841375D02*
X44447717Y-31100000D01*
X44060657Y-31358625D01*
X43764511Y-31801839D01*
X43749964Y-31748279D01*
X43416894Y-31317264D01*
X43037601Y-31100000D01*
X43416894Y-30882736D01*
X43749964Y-30451721D01*
X43764511Y-30398161D01*
X44060657Y-30841375D01*
X44060657Y-30841375D01*
G37*
X44060657Y-30841375D02*
X44447717Y-31100000D01*
X44060657Y-31358625D01*
X43764511Y-31801839D01*
X43749964Y-31748279D01*
X43416894Y-31317264D01*
X43037601Y-31100000D01*
X43416894Y-30882736D01*
X43749964Y-30451721D01*
X43764511Y-30398161D01*
X44060657Y-30841375D01*
G36*
X76060427Y-20602049D02*
X76360657Y-21051375D01*
X76809983Y-21351605D01*
X77340000Y-21457032D01*
X77870017Y-21351605D01*
X78319343Y-21051375D01*
X78610000Y-20616376D01*
X78900657Y-21051375D01*
X79095000Y-21181231D01*
X79095000Y-21956015D01*
X79154755Y-22256422D01*
X79324921Y-22511094D01*
X80618905Y-23805078D01*
X80633771Y-23815011D01*
X80248531Y-23815011D01*
X79948124Y-23874766D01*
X79693452Y-24044932D01*
X76503324Y-27235060D01*
X76333158Y-27489732D01*
X76305434Y-27629108D01*
X76273403Y-27790139D01*
X76273403Y-28183614D01*
X75964235Y-28006519D01*
X75861185Y-27987682D01*
X75647000Y-28110344D01*
X75647000Y-29453000D01*
X75667000Y-29453000D01*
X75667000Y-29707000D01*
X75647000Y-29707000D01*
X75647000Y-29727000D01*
X75393000Y-29727000D01*
X75393000Y-29707000D01*
X75373000Y-29707000D01*
X75373000Y-29453000D01*
X75393000Y-29453000D01*
X75393000Y-28110344D01*
X75178815Y-27987682D01*
X75075765Y-28006519D01*
X74965010Y-28069961D01*
X74965010Y-28000000D01*
X74905255Y-27699594D01*
X74735089Y-27444921D01*
X74235089Y-26944921D01*
X73980417Y-26774755D01*
X73680010Y-26715000D01*
X71825158Y-26715000D01*
X67110158Y-22000000D01*
X68015079Y-21095079D01*
X68185245Y-20840406D01*
X68245000Y-20540000D01*
X68245000Y-20325000D01*
X76005318Y-20325000D01*
X76060427Y-20602049D01*
X76060427Y-20602049D01*
G37*
X76060427Y-20602049D02*
X76360657Y-21051375D01*
X76809983Y-21351605D01*
X77340000Y-21457032D01*
X77870017Y-21351605D01*
X78319343Y-21051375D01*
X78610000Y-20616376D01*
X78900657Y-21051375D01*
X79095000Y-21181231D01*
X79095000Y-21956015D01*
X79154755Y-22256422D01*
X79324921Y-22511094D01*
X80618905Y-23805078D01*
X80633771Y-23815011D01*
X80248531Y-23815011D01*
X79948124Y-23874766D01*
X79693452Y-24044932D01*
X76503324Y-27235060D01*
X76333158Y-27489732D01*
X76305434Y-27629108D01*
X76273403Y-27790139D01*
X76273403Y-28183614D01*
X75964235Y-28006519D01*
X75861185Y-27987682D01*
X75647000Y-28110344D01*
X75647000Y-29453000D01*
X75667000Y-29453000D01*
X75667000Y-29707000D01*
X75647000Y-29707000D01*
X75647000Y-29727000D01*
X75393000Y-29727000D01*
X75393000Y-29707000D01*
X75373000Y-29707000D01*
X75373000Y-29453000D01*
X75393000Y-29453000D01*
X75393000Y-28110344D01*
X75178815Y-27987682D01*
X75075765Y-28006519D01*
X74965010Y-28069961D01*
X74965010Y-28000000D01*
X74905255Y-27699594D01*
X74735089Y-27444921D01*
X74235089Y-26944921D01*
X73980417Y-26774755D01*
X73680010Y-26715000D01*
X71825158Y-26715000D01*
X67110158Y-22000000D01*
X68015079Y-21095079D01*
X68185245Y-20840406D01*
X68245000Y-20540000D01*
X68245000Y-20325000D01*
X76005318Y-20325000D01*
X76060427Y-20602049D01*
G36*
X53955000Y-16427968D02*
X53955000Y-16992032D01*
X54060427Y-17522049D01*
X54360657Y-17971375D01*
X54747717Y-18230000D01*
X54360657Y-18488625D01*
X54060427Y-18937951D01*
X53955000Y-19467968D01*
X53955000Y-20032032D01*
X54060427Y-20562049D01*
X54360657Y-21011375D01*
X54809983Y-21311605D01*
X55340000Y-21417032D01*
X55591279Y-21367050D01*
X62035000Y-27810771D01*
X62035000Y-28188769D01*
X61840657Y-28318625D01*
X61550000Y-28753624D01*
X61259343Y-28318625D01*
X60810017Y-28018395D01*
X60280000Y-27912968D01*
X59749983Y-28018395D01*
X59300657Y-28318625D01*
X59010000Y-28753624D01*
X58719343Y-28318625D01*
X58270017Y-28018395D01*
X57740000Y-27912968D01*
X57209983Y-28018395D01*
X56760657Y-28318625D01*
X56470000Y-28753624D01*
X56179343Y-28318625D01*
X55730017Y-28018395D01*
X55200000Y-27912968D01*
X54669983Y-28018395D01*
X54220657Y-28318625D01*
X53930000Y-28753624D01*
X53639343Y-28318625D01*
X53190017Y-28018395D01*
X52660000Y-27912968D01*
X52129983Y-28018395D01*
X51680657Y-28318625D01*
X51390000Y-28753624D01*
X51099343Y-28318625D01*
X50905000Y-28188769D01*
X50905000Y-19356615D01*
X53985133Y-16276482D01*
X53955000Y-16427968D01*
X53955000Y-16427968D01*
G37*
X53955000Y-16427968D02*
X53955000Y-16992032D01*
X54060427Y-17522049D01*
X54360657Y-17971375D01*
X54747717Y-18230000D01*
X54360657Y-18488625D01*
X54060427Y-18937951D01*
X53955000Y-19467968D01*
X53955000Y-20032032D01*
X54060427Y-20562049D01*
X54360657Y-21011375D01*
X54809983Y-21311605D01*
X55340000Y-21417032D01*
X55591279Y-21367050D01*
X62035000Y-27810771D01*
X62035000Y-28188769D01*
X61840657Y-28318625D01*
X61550000Y-28753624D01*
X61259343Y-28318625D01*
X60810017Y-28018395D01*
X60280000Y-27912968D01*
X59749983Y-28018395D01*
X59300657Y-28318625D01*
X59010000Y-28753624D01*
X58719343Y-28318625D01*
X58270017Y-28018395D01*
X57740000Y-27912968D01*
X57209983Y-28018395D01*
X56760657Y-28318625D01*
X56470000Y-28753624D01*
X56179343Y-28318625D01*
X55730017Y-28018395D01*
X55200000Y-27912968D01*
X54669983Y-28018395D01*
X54220657Y-28318625D01*
X53930000Y-28753624D01*
X53639343Y-28318625D01*
X53190017Y-28018395D01*
X52660000Y-27912968D01*
X52129983Y-28018395D01*
X51680657Y-28318625D01*
X51390000Y-28753624D01*
X51099343Y-28318625D01*
X50905000Y-28188769D01*
X50905000Y-19356615D01*
X53985133Y-16276482D01*
X53955000Y-16427968D01*
G36*
X98115000Y-16427968D02*
X98115000Y-16992032D01*
X98219023Y-17514990D01*
X93548552Y-17514990D01*
X93248146Y-17574745D01*
X92993473Y-17744911D01*
X92923375Y-17815009D01*
X92748534Y-17815009D01*
X92448128Y-17874764D01*
X92193455Y-18044930D01*
X88544932Y-21693453D01*
X88374766Y-21948125D01*
X88331937Y-22163440D01*
X88315011Y-22248532D01*
X88315011Y-22923374D01*
X87423374Y-23815011D01*
X86553574Y-23815011D01*
X86783441Y-23585544D01*
X86994739Y-23076682D01*
X86995220Y-22525695D01*
X86784811Y-22016465D01*
X86395544Y-21626519D01*
X85886682Y-21415221D01*
X85335695Y-21414740D01*
X85266902Y-21443164D01*
X85248889Y-21399568D01*
X85490017Y-21351605D01*
X85939343Y-21051375D01*
X86235489Y-20608161D01*
X86250036Y-20661721D01*
X86583106Y-21092736D01*
X87055765Y-21363481D01*
X87158815Y-21382318D01*
X87373000Y-21259656D01*
X87373000Y-19917000D01*
X87627000Y-19917000D01*
X87627000Y-21259656D01*
X87841185Y-21382318D01*
X87944235Y-21363481D01*
X88416894Y-21092736D01*
X88749964Y-20661721D01*
X88892739Y-20136055D01*
X88731868Y-19917000D01*
X87627000Y-19917000D01*
X87373000Y-19917000D01*
X87353000Y-19917000D01*
X87353000Y-19663000D01*
X87373000Y-19663000D01*
X87373000Y-19643000D01*
X87627000Y-19643000D01*
X87627000Y-19663000D01*
X88731868Y-19663000D01*
X88892739Y-19443945D01*
X88768086Y-18985001D01*
X89799999Y-18985001D01*
X90100406Y-18925246D01*
X90355078Y-18755080D01*
X93065168Y-16044990D01*
X98191179Y-16044990D01*
X98115000Y-16427968D01*
X98115000Y-16427968D01*
G37*
X98115000Y-16427968D02*
X98115000Y-16992032D01*
X98219023Y-17514990D01*
X93548552Y-17514990D01*
X93248146Y-17574745D01*
X92993473Y-17744911D01*
X92923375Y-17815009D01*
X92748534Y-17815009D01*
X92448128Y-17874764D01*
X92193455Y-18044930D01*
X88544932Y-21693453D01*
X88374766Y-21948125D01*
X88331937Y-22163440D01*
X88315011Y-22248532D01*
X88315011Y-22923374D01*
X87423374Y-23815011D01*
X86553574Y-23815011D01*
X86783441Y-23585544D01*
X86994739Y-23076682D01*
X86995220Y-22525695D01*
X86784811Y-22016465D01*
X86395544Y-21626519D01*
X85886682Y-21415221D01*
X85335695Y-21414740D01*
X85266902Y-21443164D01*
X85248889Y-21399568D01*
X85490017Y-21351605D01*
X85939343Y-21051375D01*
X86235489Y-20608161D01*
X86250036Y-20661721D01*
X86583106Y-21092736D01*
X87055765Y-21363481D01*
X87158815Y-21382318D01*
X87373000Y-21259656D01*
X87373000Y-19917000D01*
X87627000Y-19917000D01*
X87627000Y-21259656D01*
X87841185Y-21382318D01*
X87944235Y-21363481D01*
X88416894Y-21092736D01*
X88749964Y-20661721D01*
X88892739Y-20136055D01*
X88731868Y-19917000D01*
X87627000Y-19917000D01*
X87373000Y-19917000D01*
X87353000Y-19917000D01*
X87353000Y-19663000D01*
X87373000Y-19663000D01*
X87373000Y-19643000D01*
X87627000Y-19643000D01*
X87627000Y-19663000D01*
X88731868Y-19663000D01*
X88892739Y-19443945D01*
X88768086Y-18985001D01*
X89799999Y-18985001D01*
X90100406Y-18925246D01*
X90355078Y-18755080D01*
X93065168Y-16044990D01*
X98191179Y-16044990D01*
X98115000Y-16427968D01*
M02*
