G04 #@! TF.FileFunction,Copper,L2,Bot,Signal*
%FSLAX46Y46*%
G04 Gerber Fmt 4.6, Leading zero omitted, Abs format (unit mm)*
G04 Created by KiCad (PCBNEW 4.0.2-stable) date 15/08/2016 17:49:35*
%MOMM*%
G01*
G04 APERTURE LIST*
%ADD10C,0.100000*%
%ADD11C,5.700000*%
%ADD12O,1.600000X1.600000*%
%ADD13R,1.500000X2.200000*%
%ADD14O,1.500000X2.200000*%
%ADD15O,1.500000X2.000000*%
%ADD16R,1.500000X2.000000*%
%ADD17C,1.699260*%
%ADD18R,1.699260X1.699260*%
%ADD19R,2.032000X2.032000*%
%ADD20O,2.032000X2.032000*%
%ADD21R,2.032000X1.727200*%
%ADD22O,2.032000X1.727200*%
%ADD23R,2.199640X1.524000*%
%ADD24O,2.199640X1.524000*%
%ADD25C,1.524000*%
%ADD26C,2.499360*%
%ADD27R,1.727200X1.727200*%
%ADD28O,1.727200X1.727200*%
%ADD29O,2.000000X1.500000*%
%ADD30R,2.000000X1.500000*%
%ADD31R,1.300000X1.300000*%
%ADD32C,1.300000*%
%ADD33C,1.500000*%
%ADD34C,0.300000*%
%ADD35C,1.000000*%
%ADD36C,0.500000*%
%ADD37C,0.400000*%
%ADD38C,0.254000*%
G04 APERTURE END LIST*
D10*
D11*
X158050000Y-18650000D03*
D12*
X129050000Y-59950000D03*
X129050000Y-62490000D03*
X129050000Y-65030000D03*
X129050000Y-67570000D03*
X129050000Y-70110000D03*
X129050000Y-72650000D03*
X129050000Y-75190000D03*
X129050000Y-77730000D03*
X136670000Y-77730000D03*
X136670000Y-75190000D03*
X136670000Y-72650000D03*
X136670000Y-70110000D03*
X136670000Y-67570000D03*
X136670000Y-65030000D03*
X136670000Y-62490000D03*
X136670000Y-59950000D03*
X115730000Y-33190000D03*
X115730000Y-35730000D03*
X115730000Y-38270000D03*
X115730000Y-40810000D03*
X115730000Y-43350000D03*
X115730000Y-45890000D03*
X115730000Y-48430000D03*
X115730000Y-50970000D03*
X115730000Y-53510000D03*
X115730000Y-56050000D03*
X123350000Y-56050000D03*
X123350000Y-53510000D03*
X123350000Y-50970000D03*
X123350000Y-48430000D03*
X123350000Y-45890000D03*
X123350000Y-43350000D03*
X123350000Y-40810000D03*
X123350000Y-38270000D03*
X123350000Y-35730000D03*
X123350000Y-33190000D03*
D13*
X138350000Y-84200000D03*
D14*
X135810000Y-84200000D03*
D15*
X46910000Y-81410000D03*
X49450000Y-81410000D03*
X51990000Y-81410000D03*
X54530000Y-81410000D03*
X57070000Y-81410000D03*
X59610000Y-81410000D03*
X62150000Y-81410000D03*
X64690000Y-81410000D03*
X67230000Y-81410000D03*
X69770000Y-81410000D03*
X72310000Y-81410000D03*
X74850000Y-81410000D03*
X77390000Y-81410000D03*
X79930000Y-81410000D03*
X82470000Y-81410000D03*
X85010000Y-81410000D03*
X87550000Y-81410000D03*
X90090000Y-81410000D03*
X92630000Y-81410000D03*
X95170000Y-81410000D03*
X97710000Y-81410000D03*
X100250000Y-81410000D03*
X102790000Y-81410000D03*
X105330000Y-81410000D03*
D16*
X107870000Y-81410000D03*
D15*
X107870000Y-84450000D03*
X105330000Y-84450000D03*
X102790000Y-84450000D03*
X100250000Y-84450000D03*
X97710000Y-84450000D03*
X95170000Y-84450000D03*
X92630000Y-84450000D03*
X90090000Y-84450000D03*
X87550000Y-84450000D03*
X85010000Y-84450000D03*
X82470000Y-84450000D03*
X79930000Y-84450000D03*
X77390000Y-84450000D03*
X74850000Y-84450000D03*
X72310000Y-84450000D03*
X69770000Y-84450000D03*
X67230000Y-84450000D03*
X64690000Y-84450000D03*
X62150000Y-84450000D03*
X59610000Y-84450000D03*
X57070000Y-84450000D03*
X54530000Y-84450000D03*
X51990000Y-84450000D03*
X49450000Y-84450000D03*
X46910000Y-84450000D03*
X46910000Y-33650000D03*
X49450000Y-33650000D03*
X51990000Y-33650000D03*
X54530000Y-33650000D03*
X57070000Y-33650000D03*
X59610000Y-33650000D03*
X62150000Y-33650000D03*
X64690000Y-33650000D03*
X67230000Y-33650000D03*
X69770000Y-33650000D03*
X72310000Y-33650000D03*
X74850000Y-33650000D03*
X77390000Y-33650000D03*
X79930000Y-33650000D03*
X82470000Y-33650000D03*
X85010000Y-33650000D03*
X87550000Y-33650000D03*
X90090000Y-33650000D03*
X92630000Y-33650000D03*
X95170000Y-33650000D03*
X97710000Y-33650000D03*
X100250000Y-33650000D03*
X102790000Y-33650000D03*
X105330000Y-33650000D03*
X107870000Y-33650000D03*
D16*
X107870000Y-30610000D03*
D15*
X105330000Y-30610000D03*
X102790000Y-30610000D03*
X100250000Y-30610000D03*
X97710000Y-30610000D03*
X95170000Y-30610000D03*
X92630000Y-30610000D03*
X90090000Y-30610000D03*
X87550000Y-30610000D03*
X85010000Y-30610000D03*
X82470000Y-30610000D03*
X79930000Y-30610000D03*
X77390000Y-30610000D03*
X74850000Y-30610000D03*
X72310000Y-30610000D03*
X69770000Y-30610000D03*
X67230000Y-30610000D03*
X64690000Y-30610000D03*
X62150000Y-30610000D03*
X59610000Y-30610000D03*
X57070000Y-30610000D03*
X54530000Y-30610000D03*
X51990000Y-30610000D03*
X49450000Y-30610000D03*
X46910000Y-30610000D03*
D14*
X135810000Y-30860000D03*
D13*
X138350000Y-30860000D03*
D17*
X61500000Y-77500000D03*
D18*
X71660000Y-77500000D03*
D19*
X143250000Y-20000000D03*
D20*
X143250000Y-17460000D03*
D21*
X144000000Y-83870000D03*
D22*
X144000000Y-86410000D03*
X144000000Y-88950000D03*
D19*
X59000000Y-92750000D03*
D20*
X56460000Y-92750000D03*
D23*
X119650000Y-73250000D03*
D24*
X119650000Y-75790000D03*
X119650000Y-78330000D03*
X119650000Y-80870000D03*
X119650000Y-83410000D03*
D25*
X68215000Y-88500000D03*
X56785000Y-88500000D03*
X138275000Y-89280000D03*
X126845000Y-89280000D03*
X95785000Y-89000000D03*
X107215000Y-89000000D03*
X139545000Y-54990000D03*
X128115000Y-54990000D03*
X95965000Y-77750000D03*
X84535000Y-77750000D03*
X111605000Y-89280000D03*
X123035000Y-89280000D03*
X128115000Y-51180000D03*
X139545000Y-51180000D03*
D26*
X156750000Y-51650000D03*
X154250640Y-46651280D03*
X159249360Y-46651280D03*
X146850640Y-51848720D03*
X144351280Y-46850000D03*
X149350000Y-46850000D03*
D27*
X56460000Y-97500000D03*
D28*
X59000000Y-97500000D03*
D25*
X122050000Y-65864000D03*
X122050000Y-63578000D03*
X122050000Y-68150000D03*
D29*
X158270000Y-29670000D03*
X155230000Y-29670000D03*
X155230000Y-32210000D03*
X158270000Y-32210000D03*
D30*
X158270000Y-39830000D03*
D29*
X155230000Y-39830000D03*
X158270000Y-37290000D03*
X155230000Y-37290000D03*
X158270000Y-34750000D03*
X155230000Y-34750000D03*
D15*
X82670000Y-17730000D03*
X82670000Y-20770000D03*
X85210000Y-20770000D03*
X85210000Y-17730000D03*
D16*
X92830000Y-17730000D03*
D15*
X92830000Y-20770000D03*
X90290000Y-17730000D03*
X90290000Y-20770000D03*
X87750000Y-17730000D03*
X87750000Y-20770000D03*
X66420000Y-94480000D03*
X66420000Y-97520000D03*
X68960000Y-97520000D03*
X68960000Y-94480000D03*
D16*
X76580000Y-94480000D03*
D15*
X76580000Y-97520000D03*
X74040000Y-94480000D03*
X74040000Y-97520000D03*
X71500000Y-94480000D03*
X71500000Y-97520000D03*
X109420000Y-94480000D03*
X109420000Y-97520000D03*
X111960000Y-97520000D03*
X111960000Y-94480000D03*
D16*
X119580000Y-94480000D03*
D15*
X119580000Y-97520000D03*
X117040000Y-94480000D03*
X117040000Y-97520000D03*
X114500000Y-94480000D03*
X114500000Y-97520000D03*
X61420000Y-17730000D03*
X61420000Y-20770000D03*
X63960000Y-20770000D03*
X63960000Y-17730000D03*
D16*
X71580000Y-17730000D03*
D15*
X71580000Y-20770000D03*
X69040000Y-17730000D03*
X69040000Y-20770000D03*
X66500000Y-17730000D03*
X66500000Y-20770000D03*
D29*
X148440000Y-29690000D03*
X145400000Y-29690000D03*
X145400000Y-32230000D03*
X148440000Y-32230000D03*
D30*
X148440000Y-39850000D03*
D29*
X145400000Y-39850000D03*
X148440000Y-37310000D03*
X145400000Y-37310000D03*
X148440000Y-34770000D03*
X145400000Y-34770000D03*
D15*
X103920000Y-17730000D03*
X103920000Y-20770000D03*
X106460000Y-20770000D03*
X106460000Y-17730000D03*
D16*
X114080000Y-17730000D03*
D15*
X114080000Y-20770000D03*
X111540000Y-17730000D03*
X111540000Y-20770000D03*
X109000000Y-17730000D03*
X109000000Y-20770000D03*
X125170000Y-17730000D03*
X125170000Y-20770000D03*
X127710000Y-20770000D03*
X127710000Y-17730000D03*
D16*
X135330000Y-17730000D03*
D15*
X135330000Y-20770000D03*
X132790000Y-17730000D03*
X132790000Y-20770000D03*
X130250000Y-17730000D03*
X130250000Y-20770000D03*
X87920000Y-94480000D03*
X87920000Y-97520000D03*
X90460000Y-97520000D03*
X90460000Y-94480000D03*
D16*
X98080000Y-94480000D03*
D15*
X98080000Y-97520000D03*
X95540000Y-94480000D03*
X95540000Y-97520000D03*
X93000000Y-94480000D03*
X93000000Y-97520000D03*
X130920000Y-94480000D03*
X130920000Y-97520000D03*
X133460000Y-97520000D03*
X133460000Y-94480000D03*
D16*
X141080000Y-94480000D03*
D15*
X141080000Y-97520000D03*
X138540000Y-94480000D03*
X138540000Y-97520000D03*
X136000000Y-94480000D03*
X136000000Y-97520000D03*
D29*
X145530000Y-58660000D03*
X148570000Y-58660000D03*
X148570000Y-61200000D03*
X145530000Y-61200000D03*
X145530000Y-63740000D03*
X148570000Y-63740000D03*
X148570000Y-66280000D03*
X145530000Y-66280000D03*
X145530000Y-68820000D03*
X148570000Y-68820000D03*
D30*
X148570000Y-76440000D03*
D29*
X145530000Y-76440000D03*
X148570000Y-73900000D03*
X145530000Y-73900000D03*
X148570000Y-71360000D03*
X145530000Y-71360000D03*
X155530000Y-58660000D03*
X158570000Y-58660000D03*
X158570000Y-61200000D03*
X155530000Y-61200000D03*
X155530000Y-63740000D03*
X158570000Y-63740000D03*
X158570000Y-66280000D03*
X155530000Y-66280000D03*
X155530000Y-68820000D03*
X158570000Y-68820000D03*
D30*
X158570000Y-76440000D03*
D29*
X155530000Y-76440000D03*
X158570000Y-73900000D03*
X155530000Y-73900000D03*
X158570000Y-71360000D03*
X155530000Y-71360000D03*
D11*
X49000000Y-96000000D03*
X158000000Y-97250000D03*
X49000000Y-18750000D03*
D31*
X151750000Y-51250000D03*
D32*
X151750000Y-48750000D03*
D31*
X150250000Y-18750000D03*
D32*
X147750000Y-18750000D03*
D33*
X125750000Y-62156002D03*
X124847505Y-73939999D03*
X63249991Y-89103556D03*
X82799255Y-87039251D03*
X90416667Y-88000010D03*
X134050020Y-85700962D03*
X120252086Y-86422041D03*
X114397638Y-86450201D03*
X131296857Y-88582450D03*
X77270531Y-88270549D03*
X117176783Y-59573217D03*
X118474541Y-65778270D03*
X109249999Y-87250001D03*
X149019880Y-82792795D03*
X147024388Y-84637467D03*
X67000000Y-90500000D03*
X114300490Y-89850828D03*
X130232210Y-85121356D03*
X119823217Y-89426783D03*
X82500000Y-89750000D03*
X134500000Y-47750000D03*
X147250000Y-92250000D03*
X72950020Y-88598542D03*
X70251437Y-88714787D03*
X68215000Y-88500000D03*
X88290000Y-46410000D03*
X88250000Y-62500000D03*
X79798779Y-48880020D03*
X79833879Y-57768549D03*
X94852627Y-57350123D03*
X94530000Y-48870000D03*
X96770306Y-48856189D03*
X96700020Y-59999947D03*
X66029980Y-38477115D03*
X56850000Y-38350000D03*
X141200020Y-65578861D03*
X140237060Y-58602052D03*
X141064543Y-88685457D03*
X141000000Y-86067968D03*
X127044998Y-75250000D03*
X127000000Y-72250000D03*
X98876097Y-54221407D03*
X98843154Y-57821450D03*
X140000000Y-61750000D03*
X140750000Y-71750000D03*
X122500000Y-76250000D03*
X124250000Y-71250000D03*
X138668211Y-66021116D03*
X138500000Y-60500000D03*
X109250000Y-64500000D03*
X112750000Y-66250000D03*
X93500000Y-61500000D03*
X92450020Y-48935494D03*
X84000000Y-62250000D03*
X84082197Y-49529282D03*
X122851042Y-87398958D03*
X116677712Y-87741988D03*
X106901458Y-75098542D03*
X73500000Y-25049980D03*
X95250000Y-24799904D03*
X101450002Y-28736808D03*
X111550020Y-29880782D03*
X111707030Y-25680709D03*
X106749990Y-45000000D03*
X90040000Y-47660000D03*
X90500000Y-62500000D03*
X85260000Y-46430000D03*
X85750000Y-63000000D03*
X75700000Y-45610000D03*
X75633825Y-57418197D03*
X140810000Y-76440000D03*
X141500000Y-55000000D03*
X149750000Y-52500000D03*
X154750000Y-52750000D03*
X102193970Y-53151358D03*
X102000000Y-59000000D03*
X115750000Y-67500000D03*
X115288974Y-74882505D03*
X85000000Y-25750000D03*
X90114489Y-26628224D03*
X83669336Y-27120027D03*
X88649497Y-28093215D03*
X82227119Y-28272061D03*
X91250000Y-28250000D03*
X79500000Y-26300020D03*
X62000000Y-26000000D03*
X104102187Y-67647813D03*
X104102187Y-67647813D03*
X104250000Y-53500000D03*
D34*
X142186004Y-58660000D02*
X140992607Y-59853397D01*
X140992607Y-59853397D02*
X139743450Y-59853397D01*
X139743450Y-59853397D02*
X139040054Y-59150001D01*
X139040054Y-59150001D02*
X137469999Y-59150001D01*
X137469999Y-59150001D02*
X136670000Y-59950000D01*
X136670000Y-59950000D02*
X136670000Y-59830000D01*
X127799999Y-60106003D02*
X126499999Y-61406003D01*
X128449999Y-58699999D02*
X127799999Y-59349999D01*
X127799999Y-59349999D02*
X127799999Y-60106003D01*
X140928027Y-57402023D02*
X130696519Y-57402023D01*
X130696519Y-57402023D02*
X129398543Y-58699999D01*
X142186004Y-58660000D02*
X140928027Y-57402023D01*
X145780000Y-58660000D02*
X142186004Y-58660000D01*
X129398543Y-58699999D02*
X128449999Y-58699999D01*
X126499999Y-61406003D02*
X125750000Y-62156002D01*
X157211198Y-46651280D02*
X152612478Y-51250000D01*
X159249360Y-46651280D02*
X157211198Y-46651280D01*
X152612478Y-51250000D02*
X151750000Y-51250000D01*
X151750000Y-51250000D02*
X151750000Y-52200000D01*
X151750000Y-52200000D02*
X145780000Y-58170000D01*
X145780000Y-58170000D02*
X145780000Y-58660000D01*
X124847505Y-73939999D02*
X120339999Y-73939999D01*
X120339999Y-73939999D02*
X119650000Y-73250000D01*
X136670000Y-75190000D02*
X130900002Y-75190000D01*
X130900002Y-75190000D02*
X129650001Y-73939999D01*
X129650001Y-73939999D02*
X124847505Y-73939999D01*
X155780000Y-58660000D02*
X155785612Y-58660000D01*
X145137955Y-59302045D02*
X145780000Y-58660000D01*
X136670000Y-75190000D02*
X142533999Y-81053999D01*
X142533999Y-81053999D02*
X142533999Y-84943999D01*
X142533999Y-84943999D02*
X144000000Y-86410000D01*
X155274388Y-58660000D02*
X155780000Y-58660000D01*
X154074378Y-59860010D02*
X155274388Y-58660000D01*
X146980010Y-59860010D02*
X154074378Y-59860010D01*
X145780000Y-58660000D02*
X146980010Y-59860010D01*
D35*
X63249991Y-90164216D02*
X63249991Y-89103556D01*
X63249991Y-93534072D02*
X63249991Y-90164216D01*
X58123601Y-95836399D02*
X60947664Y-95836399D01*
X56460000Y-97500000D02*
X58123601Y-95836399D01*
X60947664Y-95836399D02*
X63249991Y-93534072D01*
X83549254Y-87789250D02*
X82799255Y-87039251D01*
X87920000Y-92170000D02*
X87920000Y-92159996D01*
X87920000Y-92159996D02*
X83549254Y-87789250D01*
X87920000Y-90496677D02*
X89666668Y-88750009D01*
X87920000Y-92170000D02*
X87920000Y-90496677D01*
X89666668Y-88750009D02*
X90416667Y-88000010D01*
X156205996Y-49000000D02*
X153199998Y-52005998D01*
X153199998Y-54800002D02*
X152000000Y-56000000D01*
X159934169Y-49000000D02*
X156205996Y-49000000D01*
X161500000Y-47434169D02*
X159934169Y-49000000D01*
X158020000Y-39830000D02*
X161500000Y-43310000D01*
X161500000Y-43310000D02*
X161500000Y-47434169D01*
X153199998Y-52005998D02*
X153199998Y-54800002D01*
X134050020Y-84209980D02*
X134050020Y-84640302D01*
X115933711Y-89788185D02*
X115933711Y-89291989D01*
X135810000Y-84200000D02*
X134060000Y-84200000D01*
X134050020Y-84640302D02*
X134050020Y-85700962D01*
X119580000Y-93434474D02*
X115933711Y-89788185D01*
X114597839Y-87956117D02*
X114597839Y-86332791D01*
X119580000Y-94730000D02*
X119580000Y-93434474D01*
X115933711Y-89291989D02*
X114597839Y-87956117D01*
X121312746Y-86422041D02*
X120252086Y-86422041D01*
X121489329Y-86422041D02*
X121312746Y-86422041D01*
X129050000Y-78861370D02*
X121489329Y-86422041D01*
X134060000Y-84200000D02*
X134050020Y-84209980D01*
X129050000Y-77730000D02*
X129050000Y-78861370D01*
X131296857Y-94353143D02*
X131296857Y-89643110D01*
X130920000Y-94730000D02*
X131296857Y-94353143D01*
X131296857Y-89643110D02*
X131296857Y-88582450D01*
X76520532Y-89020548D02*
X77270531Y-88270549D01*
X76580000Y-94730000D02*
X76520532Y-94670532D01*
X76520532Y-94670532D02*
X76520532Y-89020548D01*
X117926782Y-58823218D02*
X117176783Y-59573217D01*
X120000000Y-56750000D02*
X117926782Y-58823218D01*
X120000000Y-52433520D02*
X120000000Y-56750000D01*
X122050000Y-63578000D02*
X120674811Y-63578000D01*
X120674811Y-63578000D02*
X119224540Y-65028271D01*
X119224540Y-65028271D02*
X118474541Y-65778270D01*
X128292045Y-30250000D02*
X118670000Y-30250000D01*
X118670000Y-30250000D02*
X115730000Y-33190000D01*
X143250000Y-17460000D02*
X139500000Y-17460000D01*
X139500000Y-17460000D02*
X135850000Y-17460000D01*
X139500000Y-19042045D02*
X128292045Y-30250000D01*
X139500000Y-17460000D02*
X139500000Y-19042045D01*
X138540000Y-94730000D02*
X141080000Y-94730000D01*
X136000000Y-94730000D02*
X138540000Y-94730000D01*
X133460000Y-94730000D02*
X136000000Y-94730000D01*
X130920000Y-94730000D02*
X133460000Y-94730000D01*
X112250000Y-85500000D02*
X113801005Y-85500000D01*
X113801005Y-85500000D02*
X114574422Y-86273417D01*
D36*
X142932504Y-49949691D02*
X148250000Y-49949689D01*
X151750000Y-48750000D02*
X150830762Y-48750000D01*
X150830762Y-48750000D02*
X149631073Y-49949689D01*
X149631073Y-49949689D02*
X148250000Y-49949689D01*
X154250640Y-46651280D02*
X153848720Y-46651280D01*
X153848720Y-46651280D02*
X151750000Y-48750000D01*
X124004045Y-59849988D02*
X124254045Y-59849988D01*
X127802032Y-56302001D02*
X128744761Y-56302001D01*
X122050000Y-63578000D02*
X122050000Y-61804033D01*
X136162904Y-48883858D02*
X141866671Y-48883858D01*
X128744761Y-56302001D02*
X136162904Y-48883858D01*
X124254045Y-59849988D02*
X127802032Y-56302001D01*
X122050000Y-61804033D02*
X124004045Y-59849988D01*
X141866671Y-48883858D02*
X142932504Y-49949691D01*
D35*
X152000000Y-56000000D02*
X155660000Y-56000000D01*
X155660000Y-56000000D02*
X158320000Y-58660000D01*
X149340000Y-58660000D02*
X152000000Y-56000000D01*
X148320000Y-58660000D02*
X149340000Y-58660000D01*
X109249999Y-87250001D02*
X110499999Y-87250001D01*
X110499999Y-87250001D02*
X112250000Y-85500000D01*
X87920000Y-92170000D02*
X87920000Y-94730000D01*
X107870000Y-84200000D02*
X110950000Y-84200000D01*
X110950000Y-84200000D02*
X112250000Y-85500000D01*
X46910000Y-30860000D02*
X46910000Y-26242002D01*
X46910000Y-26242002D02*
X57222012Y-15929990D01*
X57222012Y-15929990D02*
X69682035Y-15929990D01*
X69682035Y-15929990D02*
X71580000Y-17827955D01*
X71580000Y-17827955D02*
X71580000Y-17980000D01*
X71580000Y-17980000D02*
X73630010Y-15929990D01*
X73630010Y-15929990D02*
X90932035Y-15929990D01*
X90932035Y-15929990D02*
X92830000Y-17827955D01*
X92830000Y-17827955D02*
X92830000Y-17980000D01*
X79930000Y-30860000D02*
X79930000Y-30707955D01*
X79930000Y-30707955D02*
X75846258Y-26624213D01*
X75846258Y-26624213D02*
X75846258Y-22246258D01*
X75846258Y-22246258D02*
X71580000Y-17980000D01*
X46910000Y-33400000D02*
X46910000Y-30860000D01*
X120000000Y-39080000D02*
X120000000Y-52433520D01*
X120000000Y-52433520D02*
X116383520Y-56050000D01*
X116383520Y-56050000D02*
X115730000Y-56050000D01*
X123350000Y-35730000D02*
X120000000Y-39080000D01*
X95540000Y-94730000D02*
X95540000Y-97270000D01*
X98080000Y-97270000D02*
X95540000Y-97270000D01*
X98080000Y-94730000D02*
X98080000Y-97270000D01*
X87920000Y-94730000D02*
X98080000Y-94730000D01*
X115730000Y-33190000D02*
X108080000Y-33190000D01*
X108080000Y-33190000D02*
X107870000Y-33400000D01*
X121020000Y-33400000D02*
X120810000Y-33190000D01*
X120810000Y-33190000D02*
X115730000Y-33190000D01*
X121020000Y-33400000D02*
X123350000Y-35730000D01*
X107870000Y-30860000D02*
X107870000Y-30707955D01*
X102790000Y-30707955D02*
X102790000Y-30860000D01*
X107870000Y-30860000D02*
X107870000Y-33400000D01*
X92830000Y-17980000D02*
X94880010Y-15929990D01*
X94880010Y-15929990D02*
X112182035Y-15929990D01*
X112182035Y-15929990D02*
X114080000Y-17827955D01*
X114080000Y-17827955D02*
X114080000Y-17980000D01*
X114080000Y-17980000D02*
X116130010Y-15929990D01*
X116130010Y-15929990D02*
X133432035Y-15929990D01*
X133432035Y-15929990D02*
X135330000Y-17827955D01*
X135330000Y-17827955D02*
X135330000Y-17980000D01*
X92830000Y-20520000D02*
X92830000Y-17980000D01*
X150250000Y-18750000D02*
X151900000Y-18750000D01*
X151900000Y-18750000D02*
X161370021Y-28220021D01*
X161370021Y-28220021D02*
X161370021Y-36632024D01*
X161370021Y-36632024D02*
X158172045Y-39830000D01*
X158172045Y-39830000D02*
X158020000Y-39830000D01*
X135850000Y-17460000D02*
X135330000Y-17980000D01*
X143250000Y-17460000D02*
X144686840Y-17460000D01*
X144686840Y-17460000D02*
X144846841Y-17299999D01*
X144846841Y-17299999D02*
X148946001Y-17299999D01*
X148946001Y-17299999D02*
X150250000Y-18603998D01*
X150250000Y-18603998D02*
X150250000Y-18750000D01*
X154250640Y-46651280D02*
X154250640Y-41059360D01*
X154250640Y-41059360D02*
X155480000Y-39830000D01*
X145650000Y-39850000D02*
X145650000Y-45551280D01*
X145650000Y-45551280D02*
X144351280Y-46850000D01*
X145650000Y-39850000D02*
X158000000Y-39850000D01*
X158000000Y-39850000D02*
X158020000Y-39830000D01*
X107870000Y-84200000D02*
X107870000Y-81660000D01*
X138350000Y-84200000D02*
X135520000Y-84200000D01*
X135520000Y-84200000D02*
X129050000Y-77730000D01*
X138540000Y-97270000D02*
X138540000Y-94730000D01*
X141080000Y-97270000D02*
X138540000Y-97270000D01*
X141080000Y-94730000D02*
X141080000Y-97270000D01*
D34*
X46962000Y-87118768D02*
X46962000Y-84200000D01*
X56000000Y-96156768D02*
X46962000Y-87118768D01*
X56000000Y-97750000D02*
X56000000Y-96156768D01*
X92809000Y-20573000D02*
X92830000Y-20520000D01*
X135810000Y-84200000D02*
X136243000Y-84200000D01*
X102790000Y-30860000D02*
X102842000Y-30860000D01*
X46962000Y-84200000D02*
X46910000Y-84200000D01*
X129050000Y-77730000D02*
X129004000Y-77723000D01*
X129004000Y-77723000D02*
X135481000Y-84200000D01*
X135481000Y-84200000D02*
X135810000Y-84200000D01*
X115730000Y-33190000D02*
X115669000Y-33146000D01*
X115669000Y-33146000D02*
X115415000Y-33400000D01*
X107870000Y-30860000D02*
X107922000Y-30860000D01*
X107922000Y-30860000D02*
X107922000Y-30479000D01*
X102842000Y-30860000D02*
X102790000Y-30860000D01*
X46910000Y-84200000D02*
X46962000Y-84200000D01*
X46962000Y-84200000D02*
X46962000Y-81660000D01*
X46962000Y-81660000D02*
X46910000Y-81660000D01*
X135810000Y-30860000D02*
X138350000Y-30860000D01*
X135810000Y-84200000D02*
X138350000Y-84200000D01*
X107870000Y-33400000D02*
X107922000Y-33400000D01*
X107922000Y-33400000D02*
X107922000Y-30860000D01*
X107922000Y-30860000D02*
X107870000Y-30860000D01*
X158020000Y-39830000D02*
X145730000Y-39830000D01*
X131461152Y-47833848D02*
X131545000Y-47750000D01*
X131545000Y-47750000D02*
X134500000Y-47750000D01*
D35*
X155480000Y-37290000D02*
X158020000Y-37290000D01*
X149019880Y-81732135D02*
X149019880Y-82792795D01*
X158320000Y-77963713D02*
X150896247Y-85387466D01*
X148320000Y-76440000D02*
X149019880Y-77139880D01*
X149019880Y-77139880D02*
X149019880Y-81732135D01*
X150896247Y-85387466D02*
X147774387Y-85387466D01*
X147774387Y-85387466D02*
X147024388Y-84637467D01*
X146274389Y-83887468D02*
X147024388Y-84637467D01*
X146256921Y-83870000D02*
X146274389Y-83887468D01*
X158320000Y-76440000D02*
X158320000Y-77963713D01*
X144000000Y-83870000D02*
X146256921Y-83870000D01*
X59000000Y-92750000D02*
X59000000Y-89464421D01*
X66250001Y-89750001D02*
X67000000Y-90500000D01*
X66176807Y-89676807D02*
X66250001Y-89750001D01*
X64285590Y-86250010D02*
X66176807Y-88141226D01*
X62214411Y-86250010D02*
X64285590Y-86250010D01*
X59000000Y-89464421D02*
X62214411Y-86250010D01*
X66176807Y-88141226D02*
X66176807Y-89676807D01*
X111605000Y-89280000D02*
X113729662Y-89280000D01*
X113729662Y-89280000D02*
X114300490Y-89850828D01*
X130232210Y-85892790D02*
X130232210Y-85121356D01*
X126845000Y-94845000D02*
X125241434Y-94845000D01*
X125241434Y-94845000D02*
X120573216Y-90176782D01*
X120573216Y-90176782D02*
X119823217Y-89426783D01*
X126845000Y-89280000D02*
X130232210Y-85892790D01*
X123350000Y-33190000D02*
X127190538Y-33190000D01*
X127190538Y-33190000D02*
X140380538Y-20000000D01*
X141234000Y-20000000D02*
X143250000Y-20000000D01*
X140380538Y-20000000D02*
X141234000Y-20000000D01*
X145335128Y-48899681D02*
X143367432Y-48899681D01*
X147384809Y-46850000D02*
X145335128Y-48899681D01*
X143367432Y-48899681D02*
X142301599Y-47833848D01*
X149350000Y-46850000D02*
X147384809Y-46850000D01*
X82750000Y-92100000D02*
X82750000Y-90000000D01*
X82750000Y-90000000D02*
X82500000Y-89750000D01*
X87920000Y-97270000D02*
X82750000Y-92100000D01*
X145670899Y-92250000D02*
X147250000Y-92250000D01*
X143830030Y-98909098D02*
X143830031Y-94090868D01*
X142219101Y-100520029D02*
X143830030Y-98909098D01*
X137400904Y-100520031D02*
X142219101Y-100520029D01*
X137400885Y-100520015D02*
X137400904Y-100520031D01*
X127669985Y-100520015D02*
X137400885Y-100520015D01*
X143830031Y-94090868D02*
X145670899Y-92250000D01*
X142301599Y-47833848D02*
X131461152Y-47833848D01*
X131461152Y-47833848D02*
X128115000Y-51180000D01*
X56785000Y-88500000D02*
X59000000Y-90715000D01*
X59000000Y-90715000D02*
X59000000Y-92750000D01*
X156100741Y-27519979D02*
X158562024Y-27519979D01*
X148250000Y-18750000D02*
X148250000Y-19669238D01*
X148250000Y-19669238D02*
X156100741Y-27519979D01*
X158562024Y-27519979D02*
X160070010Y-29027965D01*
X160070010Y-29027965D02*
X160070010Y-35392035D01*
X160070010Y-35392035D02*
X158172045Y-37290000D01*
X158172045Y-37290000D02*
X158020000Y-37290000D01*
X142301599Y-41541919D02*
X143599990Y-40243528D01*
X143599990Y-39207965D02*
X145497955Y-37310000D01*
X142301599Y-47833848D02*
X142301599Y-41541919D01*
X143599990Y-40243528D02*
X143599990Y-39207965D01*
X145497955Y-37310000D02*
X145650000Y-37310000D01*
X148250000Y-18750000D02*
X147000000Y-20000000D01*
X147000000Y-20000000D02*
X143250000Y-20000000D01*
X145650000Y-37310000D02*
X158000000Y-37310000D01*
X158000000Y-37310000D02*
X158020000Y-37290000D01*
X87920000Y-97270000D02*
X87920000Y-97422045D01*
X87920000Y-97422045D02*
X91017987Y-100520031D01*
X91017987Y-100520031D02*
X127669985Y-100520015D01*
X127669985Y-100520015D02*
X130920000Y-97270000D01*
X129270000Y-97270000D02*
X126845000Y-94845000D01*
X126845000Y-94845000D02*
X126845000Y-89280000D01*
X130920000Y-97270000D02*
X129270000Y-97270000D01*
X107215000Y-89000000D02*
X111325000Y-89000000D01*
X111325000Y-89000000D02*
X111605000Y-89280000D01*
X105330000Y-84200000D02*
X105330000Y-87115000D01*
X105330000Y-87115000D02*
X107215000Y-89000000D01*
X95965000Y-77750000D02*
X101572045Y-77750000D01*
X101572045Y-77750000D02*
X105330000Y-81507955D01*
X105330000Y-81507955D02*
X105330000Y-84200000D01*
D34*
X105330000Y-81660000D02*
X105382000Y-81660000D01*
X105382000Y-81660000D02*
X105382000Y-81152000D01*
X105382000Y-81152000D02*
X101953000Y-77723000D01*
X101953000Y-77723000D02*
X95984000Y-77723000D01*
X95984000Y-77723000D02*
X95965000Y-77750000D01*
X107215000Y-89000000D02*
X107160000Y-89026000D01*
X105382000Y-84200000D02*
X105330000Y-84200000D01*
X105330000Y-84200000D02*
X105382000Y-84200000D01*
X105382000Y-84200000D02*
X105382000Y-81660000D01*
X105382000Y-81660000D02*
X105330000Y-81660000D01*
X145730000Y-37290000D02*
X158020000Y-37290000D01*
X68215000Y-88500000D02*
X70036650Y-88500000D01*
X70036650Y-88500000D02*
X70251437Y-88714787D01*
X67759990Y-96772940D02*
X68602920Y-95930010D01*
X72950020Y-90049980D02*
X72950020Y-89659202D01*
X68602920Y-95930010D02*
X69457060Y-95930010D01*
X69457060Y-95930010D02*
X70299990Y-95087080D01*
X72950020Y-89659202D02*
X72950020Y-88598542D01*
X67759990Y-98127080D02*
X67759990Y-96772940D01*
X66917060Y-98970010D02*
X67759990Y-98127080D01*
X70299990Y-92700010D02*
X72950020Y-90049980D01*
X70299990Y-95087080D02*
X70299990Y-92700010D01*
X60470010Y-98970010D02*
X66917060Y-98970010D01*
X59000000Y-97500000D02*
X60470010Y-98970010D01*
X64690000Y-84200000D02*
X64690000Y-85310903D01*
X64690000Y-85310903D02*
X67879097Y-88500000D01*
X67879097Y-88500000D02*
X68215000Y-88500000D01*
X64690000Y-84200000D02*
X63350010Y-82860010D01*
X63350010Y-82860010D02*
X63350010Y-79350010D01*
X63350010Y-79350010D02*
X62349629Y-78349629D01*
X62349629Y-78349629D02*
X61500000Y-77500000D01*
X67230000Y-81660000D02*
X67230000Y-80780370D01*
X67230000Y-80780370D02*
X70510370Y-77500000D01*
X70510370Y-77500000D02*
X71660000Y-77500000D01*
X88290000Y-46410000D02*
X89350660Y-46410000D01*
X89350660Y-46410000D02*
X89560650Y-46200010D01*
X89560650Y-46200010D02*
X107539954Y-46200010D01*
X107539954Y-46200010D02*
X107950010Y-45789954D01*
X107950010Y-43509990D02*
X115730000Y-35730000D01*
X107950010Y-45789954D02*
X107950010Y-43509990D01*
X85747001Y-77168239D02*
X80250000Y-71671238D01*
X88250000Y-62500000D02*
X80250000Y-70500000D01*
X80250000Y-70500000D02*
X80250000Y-71671238D01*
X85747001Y-80922999D02*
X85747001Y-77168239D01*
X85010000Y-81660000D02*
X85747001Y-80922999D01*
X81410178Y-48329281D02*
X80859439Y-48880020D01*
X84658198Y-48329281D02*
X81410178Y-48329281D01*
X90495552Y-48983524D02*
X85312441Y-48983524D01*
X92679055Y-46800021D02*
X90495552Y-48983524D01*
X107788486Y-46800021D02*
X92679055Y-46800021D01*
X108550021Y-46038486D02*
X107788486Y-46800021D01*
X108550021Y-45449979D02*
X108550021Y-46038486D01*
X85312441Y-48983524D02*
X84658198Y-48329281D01*
X80859439Y-48880020D02*
X79798779Y-48880020D01*
X115730000Y-38270000D02*
X108550021Y-45449979D01*
X58409990Y-82999990D02*
X58409990Y-78931268D01*
X79833879Y-58524344D02*
X79833879Y-57768549D01*
X62757865Y-75600358D02*
X79833879Y-58524344D01*
X60631187Y-75600358D02*
X62757865Y-75600358D01*
X59600358Y-76631187D02*
X60631187Y-75600358D01*
X59600358Y-77740900D02*
X59600358Y-76631187D01*
X58409990Y-78931268D02*
X59600358Y-77740900D01*
X59610000Y-84200000D02*
X58409990Y-82999990D01*
X81650097Y-60236789D02*
X81650097Y-60195044D01*
X83895009Y-57950132D02*
X94252618Y-57950132D01*
X74950009Y-78416339D02*
X74950009Y-66936877D01*
X73649990Y-79716358D02*
X74950009Y-78416339D01*
X73649990Y-82999990D02*
X73649990Y-79716358D01*
X81650097Y-60195044D02*
X83895009Y-57950132D01*
X94252618Y-57950132D02*
X94852627Y-57350123D01*
X74850000Y-84200000D02*
X73649990Y-82999990D01*
X74950009Y-66936877D02*
X81650097Y-60236789D01*
X115730000Y-40810000D02*
X109139968Y-47400032D01*
X109139968Y-47400032D02*
X96210649Y-47400032D01*
X96210649Y-47400032D02*
X95610640Y-48000041D01*
X95610640Y-48000041D02*
X94530000Y-48870000D01*
X82850119Y-60733853D02*
X82850119Y-60692108D01*
X97626452Y-48000043D02*
X97520305Y-48106190D01*
X111079957Y-48000043D02*
X97626452Y-48000043D01*
X115730000Y-43350000D02*
X111079957Y-48000043D01*
X82850119Y-60692108D02*
X84392073Y-59150154D01*
X76189990Y-82999990D02*
X76189990Y-67393982D01*
X95850227Y-59150154D02*
X95950021Y-59249948D01*
X76189990Y-67393982D02*
X82850119Y-60733853D01*
X77390000Y-84200000D02*
X76189990Y-82999990D01*
X95950021Y-59249948D02*
X96700020Y-59999947D01*
X97520305Y-48106190D02*
X96770306Y-48856189D01*
X84392073Y-59150154D02*
X95850227Y-59150154D01*
X75941263Y-51350011D02*
X66029980Y-41438728D01*
X66029980Y-41438728D02*
X66029980Y-39537775D01*
X115730000Y-45890000D02*
X113019946Y-48600054D01*
X90591305Y-51350011D02*
X75941263Y-51350011D01*
X91791305Y-50150011D02*
X90591305Y-51350011D01*
X66029980Y-39537775D02*
X66029980Y-38477115D01*
X98975285Y-48629988D02*
X97583922Y-50021351D01*
X99005220Y-48600054D02*
X98975285Y-48629988D01*
X96928776Y-50150011D02*
X91791305Y-50150011D01*
X113019946Y-48600054D02*
X99005220Y-48600054D01*
X97583922Y-50021351D02*
X97057436Y-50021351D01*
X97057436Y-50021351D02*
X96928776Y-50150011D01*
X56850000Y-38350000D02*
X56850000Y-37642894D01*
X56850000Y-37642894D02*
X57070000Y-37422894D01*
X57070000Y-37422894D02*
X57070000Y-33400000D01*
X114930001Y-49229999D02*
X115730000Y-48430000D01*
X97832453Y-50621362D02*
X99223817Y-49229999D01*
X97305968Y-50621362D02*
X97832453Y-50621362D01*
X64690000Y-40947290D02*
X75692732Y-51950022D01*
X99223817Y-49229999D02*
X114930001Y-49229999D01*
X97177308Y-50750022D02*
X97305968Y-50621362D01*
X92039837Y-50750022D02*
X97177308Y-50750022D01*
X64690000Y-33400000D02*
X64690000Y-40947290D01*
X75692732Y-51950022D02*
X90839838Y-51950022D01*
X90839838Y-51950022D02*
X92039837Y-50750022D01*
X97425840Y-51350033D02*
X97554500Y-51221373D01*
X62150000Y-30860000D02*
X63489990Y-32199990D01*
X75444201Y-52550033D02*
X91088369Y-52550033D01*
X63489990Y-40595822D02*
X75444201Y-52550033D01*
X99132358Y-50170001D02*
X114930001Y-50170001D01*
X92288369Y-51350033D02*
X97425840Y-51350033D01*
X91088369Y-52550033D02*
X92288369Y-51350033D01*
X63489990Y-32199990D02*
X63489990Y-40595822D01*
X114930001Y-50170001D02*
X115730000Y-50970000D01*
X97554500Y-51221373D02*
X98080985Y-51221373D01*
X98080985Y-51221373D02*
X99132358Y-50170001D01*
X92785433Y-52550055D02*
X91585433Y-53750055D01*
X115730000Y-53510000D02*
X106608542Y-53510000D01*
X98051564Y-52421395D02*
X97922904Y-52550055D01*
X60810010Y-32060010D02*
X59610000Y-30860000D01*
X60810010Y-39612926D02*
X60810010Y-32060010D01*
X106608542Y-53510000D02*
X105049898Y-51951356D01*
X91585433Y-53750055D02*
X74947139Y-53750055D01*
X74947139Y-53750055D02*
X60810010Y-39612926D01*
X105049898Y-51951356D02*
X99048090Y-51951356D01*
X98578051Y-52421395D02*
X98051564Y-52421395D01*
X97922904Y-52550055D02*
X92785433Y-52550055D01*
X99048090Y-51951356D02*
X98578051Y-52421395D01*
X124888594Y-55360011D02*
X124039989Y-55360011D01*
X142151457Y-34750000D02*
X127533469Y-49367988D01*
X126149987Y-54098618D02*
X124888594Y-55360011D01*
X127284707Y-49367988D02*
X126149989Y-50502706D01*
X124039989Y-55360011D02*
X123350000Y-56050000D01*
X126149989Y-50502706D02*
X126149987Y-54098618D01*
X127533469Y-49367988D02*
X127284707Y-49367988D01*
X145730000Y-34750000D02*
X142151457Y-34750000D01*
X148190000Y-32230000D02*
X145650000Y-32230000D01*
X124949967Y-50005642D02*
X124949967Y-51910033D01*
X126787643Y-48167966D02*
X124949967Y-50005642D01*
X127036405Y-48167966D02*
X126787643Y-48167966D01*
X142994371Y-32210000D02*
X127036405Y-48167966D01*
X148270000Y-32210000D02*
X142994371Y-32210000D01*
X124949967Y-51910033D02*
X124149999Y-52710001D01*
X124149999Y-52710001D02*
X123350000Y-53510000D01*
X124149999Y-50170001D02*
X124149999Y-49957067D01*
X126752045Y-47567955D02*
X144650000Y-29670000D01*
X126539111Y-47567955D02*
X126752045Y-47567955D01*
X123350000Y-50970000D02*
X124149999Y-50170001D01*
X144650000Y-29670000D02*
X145730000Y-29670000D01*
X124149999Y-49957067D02*
X126539111Y-47567955D01*
X143379934Y-28400066D02*
X147000066Y-28400066D01*
X147000066Y-28400066D02*
X148270000Y-29670000D01*
X123350000Y-48430000D02*
X143379934Y-28400066D01*
X127250000Y-37019685D02*
X127250000Y-41990000D01*
X124149999Y-45090001D02*
X123350000Y-45890000D01*
X127250000Y-41990000D02*
X124149999Y-45090001D01*
X155480000Y-34750000D02*
X148530055Y-27800055D01*
X148530055Y-27800055D02*
X136469630Y-27800055D01*
X136469630Y-27800055D02*
X127250000Y-37019685D01*
X123350000Y-43350000D02*
X126649989Y-40050011D01*
X126649989Y-40050011D02*
X126649989Y-36771153D01*
X126649989Y-36771153D02*
X136221098Y-27200044D01*
X136221098Y-27200044D02*
X150470044Y-27200044D01*
X150470044Y-27200044D02*
X155480000Y-32210000D01*
X155480000Y-32210000D02*
X158020000Y-32210000D01*
X126049978Y-38110022D02*
X126049978Y-36522621D01*
X126049978Y-36522621D02*
X135972566Y-26600033D01*
X152410033Y-26600033D02*
X155480000Y-29670000D01*
X135972566Y-26600033D02*
X152410033Y-26600033D01*
X123350000Y-40810000D02*
X126049978Y-38110022D01*
X153237265Y-26000022D02*
X135724034Y-26000022D01*
X158020000Y-29670000D02*
X156819990Y-28469990D01*
X135724034Y-26000022D02*
X124254055Y-37470001D01*
X124254055Y-37470001D02*
X124149999Y-37470001D01*
X124149999Y-37470001D02*
X123350000Y-38270000D01*
X156819990Y-28469990D02*
X155707233Y-28469990D01*
X155707233Y-28469990D02*
X153237265Y-26000022D01*
X141950019Y-66328860D02*
X141200020Y-65578861D01*
X145780000Y-66280000D02*
X145731140Y-66328860D01*
X145731140Y-66328860D02*
X141950019Y-66328860D01*
X139760387Y-58352043D02*
X139987051Y-58352043D01*
X139987051Y-58352043D02*
X140237060Y-58602052D01*
X129050000Y-59950000D02*
X130647957Y-58352043D01*
X130647957Y-58352043D02*
X139760387Y-58352043D01*
X149317060Y-67480010D02*
X147822940Y-67480010D01*
X146622930Y-66280000D02*
X145780000Y-66280000D01*
X147822940Y-67480010D02*
X146622930Y-66280000D01*
X150517070Y-66280000D02*
X149317060Y-67480010D01*
X155780000Y-66280000D02*
X150517070Y-66280000D01*
X140970013Y-67480010D02*
X139868212Y-66378209D01*
X139868212Y-66378209D02*
X139868212Y-65445124D01*
X148320000Y-68820000D02*
X147477070Y-68820000D01*
X147477070Y-68820000D02*
X146137080Y-67480010D01*
X146137080Y-67480010D02*
X140970013Y-67480010D01*
X139868212Y-65445124D02*
X138173088Y-63750000D01*
X138173088Y-63750000D02*
X131441370Y-63750000D01*
X131441370Y-63750000D02*
X130181370Y-62490000D01*
X130181370Y-62490000D02*
X129050000Y-62490000D01*
X150025622Y-67619990D02*
X157114378Y-67619990D01*
X148320000Y-68820000D02*
X148825612Y-68820000D01*
X158314388Y-68820000D02*
X158320000Y-68820000D01*
X157114378Y-67619990D02*
X158314388Y-68820000D01*
X148825612Y-68820000D02*
X150025622Y-67619990D01*
X129699990Y-65679990D02*
X129050000Y-65030000D01*
X134497163Y-65679990D02*
X129699990Y-65679990D01*
X135118560Y-66301387D02*
X134497163Y-65679990D01*
X140450002Y-69500000D02*
X137251389Y-66301387D01*
X144680000Y-68820000D02*
X144000000Y-69500000D01*
X144000000Y-69500000D02*
X140450002Y-69500000D01*
X137251389Y-66301387D02*
X135118560Y-66301387D01*
X145780000Y-68820000D02*
X144680000Y-68820000D01*
X145785612Y-68820000D02*
X145780000Y-68820000D01*
X146985622Y-70020010D02*
X145785612Y-68820000D01*
X149317060Y-70020010D02*
X146985622Y-70020010D01*
X150517070Y-68820000D02*
X149317060Y-70020010D01*
X155780000Y-68820000D02*
X150517070Y-68820000D01*
X137920001Y-70671543D02*
X137920001Y-69509999D01*
X130181370Y-67570000D02*
X129050000Y-67570000D01*
X132471457Y-67570000D02*
X130181370Y-67570000D01*
X147477070Y-71360000D02*
X146277060Y-70159990D01*
X133721458Y-68820001D02*
X132471457Y-67570000D01*
X137920001Y-69509999D02*
X137230003Y-68820001D01*
X140198460Y-72950002D02*
X137920001Y-70671543D01*
X141326002Y-72950002D02*
X140198460Y-72950002D01*
X144116014Y-70159990D02*
X141326002Y-72950002D01*
X137230003Y-68820001D02*
X133721458Y-68820001D01*
X146277060Y-70159990D02*
X144116014Y-70159990D01*
X148320000Y-71360000D02*
X147477070Y-71360000D01*
X148825612Y-71360000D02*
X150025622Y-70159990D01*
X148320000Y-71360000D02*
X148825612Y-71360000D01*
X150025622Y-70159990D02*
X157119990Y-70159990D01*
X157119990Y-70159990D02*
X158320000Y-71360000D01*
X139925466Y-73550013D02*
X137735454Y-71360001D01*
X137735454Y-71360001D02*
X131431371Y-71360001D01*
X143764547Y-71360000D02*
X141574534Y-73550013D01*
X141574534Y-73550013D02*
X139925466Y-73550013D01*
X145780000Y-71360000D02*
X143764547Y-71360000D01*
X130181370Y-70110000D02*
X129050000Y-70110000D01*
X131431371Y-71360001D02*
X130181370Y-70110000D01*
X146308542Y-71360000D02*
X145780000Y-71360000D01*
X147508552Y-72560010D02*
X146308542Y-71360000D01*
X149317060Y-72560010D02*
X147508552Y-72560010D01*
X155780000Y-71360000D02*
X150517070Y-71360000D01*
X150517070Y-71360000D02*
X149317060Y-72560010D01*
X148000000Y-73900000D02*
X148320000Y-73900000D01*
X144797094Y-72649991D02*
X146749991Y-72649991D01*
X146749991Y-72649991D02*
X148000000Y-73900000D01*
X143297061Y-74150024D02*
X144797094Y-72649991D01*
X139426911Y-73900001D02*
X139676934Y-74150024D01*
X131301461Y-73900001D02*
X139426911Y-73900001D01*
X129050000Y-72650000D02*
X130051460Y-72650000D01*
X139676934Y-74150024D02*
X143297061Y-74150024D01*
X130051460Y-72650000D02*
X131301461Y-73900001D01*
X157119990Y-72699990D02*
X158320000Y-73900000D01*
X150025622Y-72699990D02*
X157119990Y-72699990D01*
X148825612Y-73900000D02*
X150025622Y-72699990D01*
X148320000Y-73900000D02*
X148825612Y-73900000D01*
X141814542Y-89435456D02*
X141064543Y-88685457D01*
X160020001Y-77607230D02*
X147363621Y-90263610D01*
X147363621Y-90263610D02*
X142642696Y-90263610D01*
X155780000Y-73900000D02*
X156980010Y-75100010D01*
X156980010Y-75100010D02*
X159790012Y-75100010D01*
X159790012Y-75100010D02*
X160020001Y-75329999D01*
X160020001Y-75329999D02*
X160020001Y-77607230D01*
X142642696Y-90263610D02*
X141814542Y-89435456D01*
X141000000Y-84189999D02*
X141000000Y-85007308D01*
X130110000Y-76250000D02*
X133060001Y-76250000D01*
X133060001Y-76250000D02*
X141000000Y-84189999D01*
X111449989Y-73298531D02*
X97900022Y-59748564D01*
X123750011Y-80489989D02*
X123750011Y-82210392D01*
X115600023Y-79554394D02*
X111449989Y-75404361D01*
X75550020Y-67185409D02*
X75550020Y-80959980D01*
X82250108Y-60443576D02*
X82250108Y-60485321D01*
X129050000Y-75190000D02*
X123750011Y-80489989D01*
X123750011Y-82210392D02*
X120738382Y-85222021D01*
X118561615Y-85222021D02*
X115600023Y-82260429D01*
X75550020Y-80959980D02*
X74850000Y-81660000D01*
X111449989Y-75404361D02*
X111449989Y-73298531D01*
X115600023Y-82260429D02*
X115600023Y-79554394D01*
X97026220Y-58550143D02*
X84143541Y-58550143D01*
X82250108Y-60485321D02*
X75550020Y-67185409D01*
X141000000Y-85007308D02*
X141000000Y-86067968D01*
X120738382Y-85222021D02*
X118561615Y-85222021D01*
X97900022Y-59748564D02*
X97900022Y-59423945D01*
X84143541Y-58550143D02*
X82250108Y-60443576D01*
X97900022Y-59423945D02*
X97026220Y-58550143D01*
X130110000Y-76250000D02*
X130300001Y-76440001D01*
X129050000Y-75190000D02*
X130110000Y-76250000D01*
X154579990Y-75100010D02*
X155000000Y-74680000D01*
X155000000Y-74680000D02*
X155780000Y-73900000D01*
X145780000Y-73900000D02*
X146980010Y-75100010D01*
X146980010Y-75100010D02*
X154579990Y-75100010D01*
X71109990Y-80662940D02*
X72373288Y-79399642D01*
X93076625Y-57350121D02*
X94276625Y-56150121D01*
X118810150Y-84622010D02*
X120489850Y-84622010D01*
X123070568Y-82041292D02*
X123070568Y-79497262D01*
X94276625Y-56150121D02*
X95474741Y-56150121D01*
X98500033Y-59500033D02*
X112250000Y-73250000D01*
X73559642Y-78958163D02*
X73559642Y-67478701D01*
X72310000Y-84200000D02*
X71109990Y-82999990D01*
X98500033Y-59175413D02*
X98500033Y-59500033D01*
X116200034Y-82011894D02*
X118810150Y-84622010D01*
X116200034Y-79305862D02*
X116200034Y-82011894D01*
X81050086Y-59946512D02*
X83646477Y-57350121D01*
X81050086Y-59988257D02*
X81050086Y-59946512D01*
X73559642Y-67478701D02*
X81050086Y-59988257D01*
X71109990Y-82999990D02*
X71109990Y-80662940D01*
X120489850Y-84622010D02*
X123070568Y-82041292D01*
X112250000Y-73250000D02*
X112250000Y-75355829D01*
X73118163Y-79399642D02*
X73559642Y-78958163D01*
X126681415Y-75886415D02*
X127181414Y-75386416D01*
X83646477Y-57350121D02*
X93076625Y-57350121D01*
X112250000Y-75355829D02*
X116200034Y-79305862D01*
X123070568Y-79497262D02*
X126681415Y-75886415D01*
X95474741Y-56150121D02*
X98500033Y-59175413D01*
X72373288Y-79399642D02*
X73118163Y-79399642D01*
X127850001Y-71399999D02*
X127000000Y-72250000D01*
X127982580Y-71399999D02*
X127850001Y-71399999D01*
X129650001Y-71399999D02*
X127982580Y-71399999D01*
X130900002Y-72650000D02*
X129650001Y-71399999D01*
X136670000Y-72650000D02*
X130900002Y-72650000D01*
X136470000Y-72850000D02*
X136670000Y-72650000D01*
X69770000Y-81660000D02*
X69770000Y-81154387D01*
X94028093Y-55550110D02*
X95723273Y-55550110D01*
X80450075Y-59739725D02*
X80450075Y-59697980D01*
X95723273Y-55550110D02*
X97994613Y-57821450D01*
X72959631Y-67230169D02*
X80450075Y-59739725D01*
X110949999Y-66578001D02*
X110949999Y-64404370D01*
X120933855Y-71862033D02*
X116234031Y-71862033D01*
X124500000Y-72750000D02*
X121821822Y-72750000D01*
X128390001Y-68859999D02*
X124500000Y-72750000D01*
X121821822Y-72750000D02*
X120933855Y-71862033D01*
X83397945Y-56750110D02*
X92828093Y-56750110D01*
X110949999Y-64404370D02*
X100767036Y-54221407D01*
X69770000Y-81154387D02*
X72124756Y-78799631D01*
X92828093Y-56750110D02*
X94028093Y-55550110D01*
X72959631Y-78709631D02*
X72959631Y-67230169D01*
X132912913Y-68859999D02*
X128390001Y-68859999D01*
X72124756Y-78799631D02*
X72869631Y-78799631D01*
X99936757Y-54221407D02*
X98876097Y-54221407D01*
X136670000Y-70110000D02*
X134162914Y-70110000D01*
X116234031Y-71862033D02*
X110949999Y-66578001D01*
X80450075Y-59697980D02*
X83397945Y-56750110D01*
X97994613Y-57821450D02*
X98843154Y-57821450D01*
X100767036Y-54221407D02*
X99936757Y-54221407D01*
X72869631Y-78799631D02*
X72959631Y-78709631D01*
X134162914Y-70110000D02*
X132912913Y-68859999D01*
X141850000Y-62539990D02*
X140789990Y-62539990D01*
X140789990Y-62539990D02*
X140000000Y-61750000D01*
X139120002Y-69246997D02*
X139120002Y-70120002D01*
X139120002Y-70120002D02*
X140750000Y-71750000D01*
X137443005Y-67570000D02*
X139120002Y-69246997D01*
X136670000Y-67570000D02*
X137443005Y-67570000D01*
X113750000Y-73697084D02*
X100043155Y-59990239D01*
X116800045Y-79057330D02*
X113750000Y-76007286D01*
X63099143Y-76200369D02*
X60879718Y-76200369D01*
X60200369Y-76879718D02*
X60200369Y-78123824D01*
X60810010Y-78733465D02*
X60810010Y-82860010D01*
X60200369Y-78123824D02*
X60810010Y-78733465D01*
X99419155Y-56621449D02*
X97824603Y-56621449D01*
X100043155Y-57245449D02*
X99419155Y-56621449D01*
X100043155Y-59990239D02*
X100043155Y-57245449D01*
X119312180Y-83410000D02*
X116800045Y-80897865D01*
X119650000Y-83410000D02*
X119312180Y-83410000D01*
X83149413Y-56150099D02*
X63099143Y-76200369D01*
X93779561Y-54950099D02*
X92579561Y-56150099D01*
X96153253Y-54950099D02*
X93779561Y-54950099D01*
X92579561Y-56150099D02*
X83149413Y-56150099D01*
X60810010Y-82860010D02*
X62150000Y-84200000D01*
X60879718Y-76200369D02*
X60200369Y-76879718D01*
X113750000Y-76007286D02*
X113750000Y-73697084D01*
X97824603Y-56621449D02*
X96153253Y-54950099D01*
X116800045Y-80897865D02*
X116800045Y-79057330D01*
X122500000Y-76250000D02*
X121750001Y-76999999D01*
X121750001Y-76999999D02*
X121750001Y-81647819D01*
X121750001Y-81647819D02*
X119987820Y-83410000D01*
X119987820Y-83410000D02*
X119650000Y-83410000D01*
X128568541Y-66280001D02*
X124250000Y-70598542D01*
X124250000Y-70598542D02*
X124250000Y-71250000D01*
X135538630Y-67570000D02*
X134248631Y-66280001D01*
X128568541Y-66280001D02*
X125950020Y-68898522D01*
X134248631Y-66280001D02*
X128568541Y-66280001D01*
X136670000Y-67570000D02*
X135538630Y-67570000D01*
X146639990Y-62539990D02*
X141850000Y-62539990D01*
X141850000Y-62539990D02*
X141700010Y-62539990D01*
X147840000Y-63740000D02*
X146639990Y-62539990D01*
X148320000Y-63740000D02*
X147840000Y-63740000D01*
X148320000Y-63740000D02*
X153582930Y-63740000D01*
X153582930Y-63740000D02*
X154782940Y-62539990D01*
X154782940Y-62539990D02*
X157119990Y-62539990D01*
X157119990Y-62539990D02*
X158320000Y-63740000D01*
X138668211Y-66021116D02*
X137677095Y-65030000D01*
X137677095Y-65030000D02*
X136670000Y-65030000D01*
X141645135Y-60453408D02*
X138546592Y-60453408D01*
X138546592Y-60453408D02*
X138500000Y-60500000D01*
X145033408Y-60453408D02*
X141645135Y-60453408D01*
X145780000Y-61200000D02*
X145033408Y-60453408D01*
X100269970Y-55421427D02*
X109350011Y-64501468D01*
X93282497Y-53750077D02*
X96650317Y-53750077D01*
X58400336Y-76243836D02*
X58400336Y-76134124D01*
X119312180Y-75790000D02*
X119650000Y-75790000D01*
X118250180Y-74728000D02*
X119312180Y-75790000D01*
X109350011Y-64501468D02*
X109350011Y-65826557D01*
X96650317Y-53750077D02*
X98321667Y-55421427D01*
X92082497Y-54950077D02*
X93282497Y-53750077D01*
X109350011Y-65826557D02*
X118250180Y-74726726D01*
X80027806Y-54950077D02*
X92082497Y-54950077D01*
X60134124Y-74400336D02*
X62260801Y-74400336D01*
X54530000Y-80114171D02*
X58400336Y-76243836D01*
X78033867Y-58627270D02*
X78033867Y-56944016D01*
X78033867Y-56944016D02*
X80027806Y-54950077D01*
X98321667Y-55421427D02*
X100269970Y-55421427D01*
X58400336Y-76134124D02*
X60134124Y-74400336D01*
X62260801Y-74400336D02*
X78033867Y-58627270D01*
X118250180Y-74726726D02*
X118250180Y-74728000D01*
X54530000Y-81660000D02*
X54530000Y-80114171D01*
X117215536Y-70715536D02*
X112750000Y-66250000D01*
X118034464Y-70715536D02*
X117215536Y-70715536D01*
X127401720Y-66393909D02*
X127401719Y-66393909D01*
X127401719Y-66393909D02*
X123080092Y-70715536D01*
X123080092Y-70715536D02*
X118034464Y-70715536D01*
X130900002Y-65030000D02*
X129650001Y-63779999D01*
X129650001Y-63779999D02*
X127401720Y-63779999D01*
X136670000Y-65030000D02*
X130900002Y-65030000D01*
X127401720Y-63779999D02*
X127401720Y-66393909D01*
X154074378Y-62400010D02*
X155274388Y-61200000D01*
X147348552Y-62400010D02*
X154074378Y-62400010D01*
X146148542Y-61200000D02*
X147348552Y-62400010D01*
X155274388Y-61200000D02*
X155780000Y-61200000D01*
X145780000Y-61200000D02*
X146148542Y-61200000D01*
X141660042Y-64340011D02*
X142400021Y-65079990D01*
X142400021Y-65079990D02*
X147119990Y-65079990D01*
X147119990Y-65079990D02*
X148320000Y-66280000D01*
X136670000Y-62490000D02*
X137761630Y-62490000D01*
X137761630Y-62490000D02*
X139611641Y-64340011D01*
X139611641Y-64340011D02*
X141660042Y-64340011D01*
X158314388Y-66280000D02*
X158320000Y-66280000D01*
X149520010Y-65079990D02*
X157114378Y-65079990D01*
X148320000Y-66280000D02*
X149520010Y-65079990D01*
X157114378Y-65079990D02*
X158314388Y-66280000D01*
X142880021Y-92077107D02*
X142759108Y-92077107D01*
X142759108Y-92077107D02*
X139487001Y-88805000D01*
X139487001Y-88805000D02*
X139487001Y-88684087D01*
X139487001Y-88684087D02*
X138870913Y-88067999D01*
X123035000Y-89280000D02*
X121377043Y-87622043D01*
X92450020Y-48935494D02*
X92157280Y-48935494D01*
X100847814Y-68847814D02*
X94249999Y-62249999D01*
X119052084Y-86561033D02*
X115000012Y-82508961D01*
X121377043Y-87622043D02*
X119676084Y-87622043D01*
X76189794Y-50750000D02*
X67230000Y-41790206D01*
X92157280Y-48935494D02*
X90342774Y-50750000D01*
X67230000Y-41790206D02*
X67230000Y-33400000D01*
X115000012Y-79802926D02*
X104044900Y-68847814D01*
X94249999Y-62249999D02*
X93500000Y-61500000D01*
X119676084Y-87622043D02*
X119052084Y-86998043D01*
X104044900Y-68847814D02*
X100847814Y-68847814D01*
X115000012Y-82508961D02*
X115000012Y-79802926D01*
X119052084Y-86998043D02*
X119052084Y-86561033D01*
X90342774Y-50750000D02*
X76189794Y-50750000D01*
X130856461Y-83199979D02*
X129115021Y-83199979D01*
X133328034Y-88067999D02*
X132049989Y-86789954D01*
X132049989Y-86789954D02*
X132049989Y-84393507D01*
X138870913Y-88067999D02*
X133328034Y-88067999D01*
X142880020Y-98515592D02*
X142880021Y-92077107D01*
X141825593Y-99570019D02*
X142880020Y-98515592D01*
X140334408Y-99570020D02*
X141825593Y-99570019D01*
X139810000Y-99045612D02*
X140334408Y-99570020D01*
X129115021Y-83199979D02*
X123035000Y-89280000D01*
X137794408Y-99570020D02*
X139285593Y-99570019D01*
X139285593Y-99570019D02*
X139810000Y-99045612D01*
X136000000Y-97775613D02*
X137794408Y-99570020D01*
X132049989Y-84393507D02*
X130856461Y-83199979D01*
X136000000Y-97270000D02*
X136000000Y-97775613D01*
X67230000Y-33475000D02*
X67230000Y-33400000D01*
X83021537Y-49529282D02*
X84082197Y-49529282D01*
X82450778Y-50100041D02*
X83021537Y-49529282D01*
X75050000Y-48750000D02*
X76400041Y-50100041D01*
X76400041Y-50100041D02*
X82450778Y-50100041D01*
X68569990Y-42269990D02*
X75050000Y-48750000D01*
X67727060Y-32199990D02*
X68569990Y-33042920D01*
X64690000Y-30860000D02*
X66029990Y-32199990D01*
X68569990Y-33042920D02*
X68569990Y-42269990D01*
X66029990Y-32199990D02*
X67727060Y-32199990D01*
X114400001Y-80051458D02*
X103796368Y-69447825D01*
X123664481Y-90492001D02*
X122490021Y-90492001D01*
X120315572Y-88222054D02*
X119427552Y-88222054D01*
X121950010Y-89856492D02*
X120315572Y-88222054D01*
X84749999Y-61500001D02*
X84000000Y-62250000D01*
X103796368Y-69447825D02*
X99671821Y-69447825D01*
X114400001Y-82757493D02*
X114400001Y-80051458D01*
X118452073Y-87246575D02*
X118452073Y-86809565D01*
X131449978Y-87038486D02*
X131449978Y-84642040D01*
X122490021Y-90492001D02*
X121950010Y-89951990D01*
X125894989Y-88261493D02*
X123664481Y-90492001D01*
X91181848Y-60957852D02*
X85292148Y-60957852D01*
X99671821Y-69447825D02*
X91181848Y-60957852D01*
X85292148Y-60957852D02*
X84749999Y-61500001D01*
X131449978Y-84642040D02*
X130607929Y-83799990D01*
X118452073Y-86809565D02*
X114400001Y-82757493D01*
X119427552Y-88222054D02*
X118452073Y-87246575D01*
X130607929Y-83799990D02*
X129856492Y-83799990D01*
X129856492Y-83799990D02*
X125894990Y-87761492D01*
X121950010Y-89951990D02*
X121950010Y-89856492D01*
X138275000Y-89280000D02*
X133691492Y-89280000D01*
X125894990Y-87761492D02*
X125894989Y-88261493D01*
X133691492Y-89280000D02*
X131449978Y-87038486D01*
X136497060Y-96069990D02*
X137339990Y-96912920D01*
X142280010Y-93285010D02*
X139036999Y-90041999D01*
X134660010Y-96069990D02*
X136497060Y-96069990D01*
X142280010Y-98267060D02*
X142280010Y-93285010D01*
X139036999Y-90041999D02*
X138275000Y-89280000D01*
X141577060Y-98970010D02*
X142280010Y-98267060D01*
X137339990Y-98267060D02*
X138042940Y-98970010D01*
X139879990Y-98267060D02*
X140582940Y-98970010D01*
X137339990Y-96912920D02*
X137339990Y-98267060D01*
X133460000Y-97270000D02*
X134660010Y-96069990D01*
X140582940Y-98970010D02*
X141577060Y-98970010D01*
X138042940Y-98970010D02*
X139037060Y-98970010D01*
X139037060Y-98970010D02*
X139740010Y-98267060D01*
X139740010Y-98267060D02*
X139879990Y-98267060D01*
X75050000Y-48750000D02*
X75550000Y-49250000D01*
X99750000Y-93589998D02*
X99750000Y-97797070D01*
X82500000Y-78707370D02*
X79930000Y-81277370D01*
X96557092Y-98449978D02*
X96037060Y-98970010D01*
X83457370Y-77750000D02*
X82500000Y-78707370D01*
X82500000Y-78707370D02*
X83670010Y-79877380D01*
X83670010Y-79877380D02*
X83670010Y-85057080D01*
X83670010Y-85057080D02*
X85412920Y-86799990D01*
X85412920Y-86799990D02*
X91335834Y-86799990D01*
X96372003Y-90212001D02*
X99750000Y-93589998D01*
X91335834Y-86799990D02*
X94747845Y-90212001D01*
X94747845Y-90212001D02*
X96372003Y-90212001D01*
X99750000Y-97797070D02*
X98577060Y-98970010D01*
X98577060Y-98970010D02*
X97582940Y-98970010D01*
X96037060Y-98970010D02*
X95042940Y-98970010D01*
X97062908Y-98449978D02*
X96557092Y-98449978D01*
X97582940Y-98970010D02*
X97062908Y-98449978D01*
X95042940Y-98970010D02*
X93342930Y-97270000D01*
X93342930Y-97270000D02*
X93000000Y-97270000D01*
X79930000Y-81660000D02*
X79935612Y-81660000D01*
X84535000Y-77750000D02*
X83457370Y-77750000D01*
X79930000Y-81277370D02*
X79930000Y-81660000D01*
X91582172Y-86197786D02*
X87007786Y-86197786D01*
X94384386Y-89000000D02*
X91582172Y-86197786D01*
X95785000Y-89000000D02*
X94384386Y-89000000D01*
X87007786Y-86197786D02*
X85010000Y-84200000D01*
X96008545Y-89000000D02*
X95785000Y-89000000D01*
X98825593Y-99570019D02*
X100350010Y-98045602D01*
X96814376Y-99049988D02*
X97334408Y-99570020D01*
X96805624Y-99049988D02*
X96814376Y-99049988D01*
X97334408Y-99570020D02*
X98825593Y-99570019D01*
X90802930Y-97270000D02*
X92502940Y-98970010D01*
X100350010Y-98045602D02*
X100350011Y-93341466D01*
X94194398Y-98970010D02*
X94794408Y-99570020D01*
X94794408Y-99570020D02*
X96285593Y-99570019D01*
X96285593Y-99570019D02*
X96805624Y-99049988D01*
X90460000Y-97270000D02*
X90802930Y-97270000D01*
X100350011Y-93341466D02*
X96008545Y-89000000D01*
X92502940Y-98970010D02*
X94194398Y-98970010D01*
D36*
X77965062Y-90034938D02*
X82470000Y-85530000D01*
X82470000Y-85530000D02*
X82470000Y-84200000D01*
X77919062Y-90034938D02*
X77965062Y-90034938D01*
X130500000Y-81750000D02*
X128500000Y-81750000D01*
X123601041Y-86648959D02*
X122851042Y-87398958D01*
X132750000Y-86500000D02*
X132750000Y-84000000D01*
X115927713Y-86991989D02*
X116677712Y-87741988D01*
X117923204Y-88987480D02*
X117427711Y-88491987D01*
X120880001Y-93249536D02*
X117923204Y-90292739D01*
X120880001Y-95969999D02*
X120880001Y-93249536D01*
X115927713Y-86141770D02*
X115927713Y-86991989D01*
X106901458Y-75098542D02*
X106901458Y-77115515D01*
X133617988Y-87367988D02*
X132750000Y-86500000D01*
X117427711Y-88491987D02*
X116677712Y-87741988D01*
X132750000Y-84000000D02*
X130500000Y-81750000D01*
X119580000Y-97270000D02*
X120880001Y-95969999D01*
X142265588Y-87367988D02*
X133617988Y-87367988D01*
X117923204Y-90292739D02*
X117923204Y-88987480D01*
X128500000Y-81750000D02*
X123601041Y-86648959D01*
X106901458Y-77115515D02*
X115927713Y-86141770D01*
X143847600Y-88950000D02*
X142265588Y-87367988D01*
X144000000Y-88950000D02*
X143847600Y-88950000D01*
X93500000Y-77250000D02*
X95651458Y-75098542D01*
X102790000Y-81660000D02*
X100192001Y-79062001D01*
X100192001Y-79062001D02*
X94062001Y-79062001D01*
X94062001Y-79062001D02*
X93500000Y-78500000D01*
X93500000Y-78500000D02*
X93500000Y-77250000D01*
X95651458Y-75098542D02*
X105840798Y-75098542D01*
X105840798Y-75098542D02*
X106901458Y-75098542D01*
X114634279Y-29880782D02*
X112610680Y-29880782D01*
X126650011Y-29199989D02*
X115315072Y-29199989D01*
X135330000Y-20520000D02*
X126650011Y-29199989D01*
X112610680Y-29880782D02*
X111550020Y-29880782D01*
X115315072Y-29199989D02*
X114634279Y-29880782D01*
X71580000Y-23129980D02*
X72750001Y-24299981D01*
X71580000Y-20520000D02*
X71580000Y-23129980D01*
X94500001Y-24049905D02*
X95250000Y-24799904D01*
X90290000Y-20520000D02*
X93819905Y-24049905D01*
X72750001Y-24299981D02*
X73500000Y-25049980D01*
X93819905Y-24049905D02*
X94500001Y-24049905D01*
X108932479Y-28970328D02*
X109842933Y-29880782D01*
X102510662Y-28736808D02*
X101450002Y-28736808D01*
X105529672Y-28970328D02*
X105296152Y-28736808D01*
X105296152Y-28736808D02*
X102510662Y-28736808D01*
X109842933Y-29880782D02*
X110489360Y-29880782D01*
X110489360Y-29880782D02*
X111550020Y-29880782D01*
X105529672Y-28970328D02*
X108932479Y-28970328D01*
X112457029Y-24930710D02*
X111707030Y-25680709D01*
X114080000Y-23307739D02*
X112457029Y-24930710D01*
X114080000Y-20520000D02*
X114080000Y-23307739D01*
X105330000Y-43580010D02*
X105999991Y-44250001D01*
X105330000Y-33400000D02*
X105330000Y-43580010D01*
X105999991Y-44250001D02*
X106749990Y-45000000D01*
X105330000Y-30860000D02*
X105330000Y-33400000D01*
X90632930Y-20520000D02*
X90632930Y-20661421D01*
X90290000Y-17980000D02*
X90290000Y-20520000D01*
D34*
X90290000Y-20520000D02*
X90632930Y-20520000D01*
D36*
X105330000Y-29170000D02*
X105529672Y-28970328D01*
X105330000Y-30860000D02*
X105330000Y-29170000D01*
X77919062Y-90034938D02*
X77919062Y-95930938D01*
X77919062Y-95930938D02*
X76580000Y-97270000D01*
D34*
X114080000Y-20520000D02*
X114018000Y-20573000D01*
X102790000Y-81660000D02*
X102842000Y-81660000D01*
X102842000Y-81660000D02*
X102842000Y-81152000D01*
X82522000Y-84200000D02*
X82470000Y-84200000D01*
X105330000Y-30860000D02*
X105382000Y-30860000D01*
D35*
X125170000Y-17980000D02*
X132790000Y-17980000D01*
D34*
X100250000Y-30860000D02*
X100250000Y-27939800D01*
X100250000Y-27939800D02*
X100889802Y-27299998D01*
X108883168Y-27299998D02*
X110263932Y-28680762D01*
X110263932Y-28680762D02*
X113128591Y-28680762D01*
X125750000Y-27560000D02*
X132790000Y-20520000D01*
X113128591Y-28680762D02*
X114249353Y-27560000D01*
X114249353Y-27560000D02*
X125750000Y-27560000D01*
X100889802Y-27299998D02*
X108883168Y-27299998D01*
X110512464Y-28080751D02*
X109131700Y-26699987D01*
X130250000Y-20520000D02*
X124520011Y-26249989D01*
X109131700Y-26699987D02*
X100641269Y-26699987D01*
X98910010Y-28431246D02*
X98910010Y-32199990D01*
X98910010Y-32199990D02*
X97710000Y-33400000D01*
X114710821Y-26249989D02*
X112880059Y-28080751D01*
X124520011Y-26249989D02*
X114710821Y-26249989D01*
X100641269Y-26699987D02*
X98910010Y-28431246D01*
X112880059Y-28080751D02*
X110512464Y-28080751D01*
X100142738Y-26099976D02*
X95382714Y-30860000D01*
X109380232Y-26099976D02*
X100142738Y-26099976D01*
X110760996Y-27480740D02*
X109380232Y-26099976D01*
X112631527Y-27480740D02*
X110760996Y-27480740D01*
X114562289Y-25549978D02*
X112631527Y-27480740D01*
X127710000Y-20520000D02*
X122680022Y-25549978D01*
X122680022Y-25549978D02*
X114562289Y-25549978D01*
X95382714Y-30860000D02*
X95170000Y-30860000D01*
X91290010Y-30002920D02*
X91290010Y-31357060D01*
X111009528Y-26880729D02*
X108978799Y-24850000D01*
X108978799Y-24850000D02*
X100544171Y-24850000D01*
X100544171Y-24850000D02*
X96494129Y-28900042D01*
X90090000Y-32557070D02*
X90090000Y-33400000D01*
X120840000Y-24850000D02*
X114413724Y-24850000D01*
X92392888Y-28900042D02*
X91290010Y-30002920D01*
X96494129Y-28900042D02*
X92392888Y-28900042D01*
X114413724Y-24850000D02*
X112382995Y-26880729D01*
X125170000Y-20520000D02*
X120840000Y-24850000D01*
X112382995Y-26880729D02*
X111009528Y-26880729D01*
X91290010Y-31357060D02*
X90090000Y-32557070D01*
X111540000Y-17980000D02*
X109000000Y-17980000D01*
X106460000Y-17980000D02*
X103920000Y-17980000D01*
X109000000Y-17980000D02*
X106460000Y-17980000D01*
X103920000Y-17980000D02*
X111540000Y-17980000D01*
X86349989Y-32060011D02*
X85010000Y-33400000D01*
X86349989Y-28695638D02*
X86349989Y-32060011D01*
X89689148Y-25356482D02*
X86349989Y-28695638D01*
X100295639Y-24249989D02*
X96245597Y-28300031D01*
X90642107Y-25356482D02*
X89689148Y-25356482D01*
X96245597Y-28300031D02*
X93585656Y-28300031D01*
X111540000Y-20520000D02*
X107810011Y-24249989D01*
X93585656Y-28300031D02*
X90642107Y-25356482D01*
X107810011Y-24249989D02*
X100295639Y-24249989D01*
X87903920Y-26293165D02*
X85010000Y-29187085D01*
X85010000Y-29187085D02*
X85010000Y-30860000D01*
X94427031Y-27450022D02*
X91733480Y-24756471D01*
X100197085Y-23500000D02*
X96247064Y-27450022D01*
X89440616Y-24756471D02*
X87903920Y-26293165D01*
X96247064Y-27450022D02*
X94427031Y-27450022D01*
X109000000Y-20520000D02*
X106020000Y-23500000D01*
X91733480Y-24756471D02*
X89440616Y-24756471D01*
X106020000Y-23500000D02*
X100197085Y-23500000D01*
X83809990Y-32060010D02*
X82470000Y-33400000D01*
X83809990Y-29538553D02*
X83809990Y-32060010D01*
X91245584Y-23420032D02*
X89928511Y-23420032D01*
X94675563Y-26850011D02*
X91245584Y-23420032D01*
X100028522Y-22820020D02*
X95998532Y-26850011D01*
X104159980Y-22820020D02*
X100028522Y-22820020D01*
X106460000Y-20520000D02*
X104159980Y-22820020D01*
X95998532Y-26850011D02*
X94675563Y-26850011D01*
X89928511Y-23420032D02*
X83809990Y-29538553D01*
X99435995Y-22564005D02*
X96000076Y-25999924D01*
X94673999Y-25999905D02*
X91494115Y-22820021D01*
X89679980Y-22820021D02*
X82470000Y-30030001D01*
X91494115Y-22820021D02*
X89679980Y-22820021D01*
X95826001Y-25999905D02*
X94673999Y-25999905D01*
X99435995Y-22389911D02*
X95826001Y-25999905D01*
X99435995Y-22220009D02*
X99435995Y-22389911D01*
X82470000Y-30030001D02*
X82470000Y-30860000D01*
X96000076Y-25999924D02*
X95000000Y-25999924D01*
X99435995Y-22220009D02*
X99435995Y-22564005D01*
X102219991Y-22220009D02*
X99435995Y-22220009D01*
X103920000Y-20520000D02*
X102219991Y-22220009D01*
X105298431Y-51351345D02*
X106167087Y-52220001D01*
X97674372Y-51950044D02*
X97803032Y-51821384D01*
X97803032Y-51821384D02*
X98329519Y-51821384D01*
X125549978Y-53160024D02*
X125549978Y-50254174D01*
X127036175Y-48767977D02*
X127284937Y-48767977D01*
X117000000Y-52970001D02*
X117000000Y-54090004D01*
X147069990Y-33549990D02*
X148270000Y-34750000D01*
X125549978Y-50254174D02*
X127036175Y-48767977D01*
X122833517Y-54760001D02*
X123950001Y-54760001D01*
X120950011Y-57893507D02*
X120950011Y-56643507D01*
X116250000Y-52220001D02*
X117000000Y-52970001D01*
X106167087Y-52220001D02*
X116250000Y-52220001D01*
X98799558Y-51351345D02*
X105298431Y-51351345D01*
X116856492Y-60950010D02*
X117893508Y-60950010D01*
X75195670Y-53150044D02*
X91336902Y-53150044D01*
X62150000Y-40104374D02*
X75195670Y-53150044D01*
X114479999Y-55449999D02*
X114479999Y-58573517D01*
X98329519Y-51821384D02*
X98799558Y-51351345D01*
X62150000Y-33400000D02*
X62150000Y-40104374D01*
X91336902Y-53150044D02*
X92536901Y-51950044D01*
X142502924Y-33549990D02*
X147069990Y-33549990D01*
X123950001Y-54760001D02*
X125549978Y-53160024D01*
X92536901Y-51950044D02*
X97674372Y-51950044D01*
X117893508Y-60950010D02*
X120950011Y-57893507D01*
X116290005Y-54799999D02*
X115129999Y-54799999D01*
X117000000Y-54090004D02*
X116290005Y-54799999D01*
X127284937Y-48767977D02*
X142502924Y-33549990D01*
X114479999Y-58573517D02*
X116856492Y-60950010D01*
X115129999Y-54799999D02*
X114479999Y-55449999D01*
X120950011Y-56643507D02*
X122833517Y-54760001D01*
X69040000Y-17980000D02*
X70240010Y-19180010D01*
X70240010Y-19180010D02*
X70240010Y-24052940D01*
X70240010Y-24052940D02*
X76189990Y-30002920D01*
X76189990Y-30002920D02*
X76189990Y-32199990D01*
X76189990Y-32199990D02*
X77390000Y-33400000D01*
X69040000Y-20520000D02*
X69040000Y-24544387D01*
X74850000Y-30354387D02*
X74850000Y-30860000D01*
X69040000Y-24544387D02*
X74850000Y-30354387D01*
X66500000Y-17980000D02*
X67700010Y-19180010D01*
X67700010Y-19180010D02*
X67700010Y-24052940D01*
X67700010Y-24052940D02*
X73649990Y-30002920D01*
X73649990Y-30002920D02*
X73649990Y-32199990D01*
X73649990Y-32199990D02*
X74850000Y-33400000D01*
X72310000Y-29645829D02*
X72310000Y-30860000D01*
X66500000Y-23835829D02*
X72310000Y-29645829D01*
X66500000Y-20520000D02*
X66500000Y-23835829D01*
X70970010Y-32060010D02*
X72310000Y-33400000D01*
X70970010Y-29154382D02*
X70970010Y-32060010D01*
X65160010Y-23344382D02*
X70970010Y-29154382D01*
X65160010Y-19180010D02*
X65160010Y-23344382D01*
X63960000Y-17980000D02*
X65160010Y-19180010D01*
X69770000Y-28802915D02*
X69770000Y-30860000D01*
X63960000Y-22992915D02*
X69770000Y-28802915D01*
X63960000Y-20520000D02*
X63960000Y-22992915D01*
X69770000Y-33394388D02*
X69770000Y-33400000D01*
X68430010Y-32054398D02*
X69770000Y-33394388D01*
X68430010Y-28311468D02*
X68430010Y-32054398D01*
X61420000Y-17980000D02*
X62759990Y-19319990D01*
X62759990Y-22641448D02*
X68430010Y-28311468D01*
X62759990Y-19319990D02*
X62759990Y-22641448D01*
D37*
X61420000Y-17980000D02*
X61420000Y-18520000D01*
X61420000Y-17980000D02*
X61420000Y-18320000D01*
D34*
X61420000Y-20520000D02*
X61420000Y-22150000D01*
X67230000Y-30860000D02*
X67230000Y-27960000D01*
X67230000Y-27960000D02*
X61420000Y-22150000D01*
X100607080Y-82860010D02*
X99752940Y-82860010D01*
X117040000Y-94224387D02*
X113866443Y-91050830D01*
X101450010Y-85057080D02*
X101450010Y-83702940D01*
X117040000Y-94730000D02*
X117040000Y-94224387D01*
X98207060Y-79959990D02*
X94672940Y-79959990D01*
X93969990Y-82157060D02*
X95170000Y-83357070D01*
X98910010Y-82017080D02*
X98910010Y-80662940D01*
X95170000Y-83357070D02*
X95170000Y-84200000D01*
X98910010Y-80662940D02*
X98207060Y-79959990D01*
X101450010Y-83702940D02*
X100607080Y-82860010D01*
X99752940Y-82860010D02*
X98910010Y-82017080D01*
X113866443Y-91050830D02*
X107443760Y-91050830D01*
X94672940Y-79959990D02*
X93969990Y-80662940D01*
X93969990Y-80662940D02*
X93969990Y-82157060D01*
X107443760Y-91050830D02*
X101450010Y-85057080D01*
X97710000Y-81665612D02*
X97710000Y-81660000D01*
X117040000Y-97264388D02*
X115700010Y-95924398D01*
X100800010Y-85900010D02*
X99752940Y-85900010D01*
X113617911Y-91650841D02*
X106550841Y-91650841D01*
X115700010Y-93732940D02*
X113617911Y-91650841D01*
X115700010Y-95924398D02*
X115700010Y-93732940D01*
X99752940Y-85900010D02*
X98910010Y-85057080D01*
X117040000Y-97270000D02*
X117040000Y-97264388D01*
X98910010Y-82865622D02*
X97710000Y-81665612D01*
X98910010Y-85057080D02*
X98910010Y-82865622D01*
X106550841Y-91650841D02*
X100800010Y-85900010D01*
X97710000Y-84705613D02*
X97710000Y-84200000D01*
X99504408Y-86500021D02*
X97710000Y-84705613D01*
X112799990Y-93029990D02*
X106539990Y-93029990D01*
X100010021Y-86500021D02*
X99504408Y-86500021D01*
X106539990Y-93029990D02*
X100010021Y-86500021D01*
X114500000Y-94730000D02*
X112799990Y-93029990D01*
X110765602Y-98970010D02*
X110165592Y-99570020D01*
X107628749Y-99049987D02*
X95678792Y-87100030D01*
X108674407Y-99570019D02*
X108154376Y-99049988D01*
X108154376Y-99049988D02*
X107628749Y-99049987D01*
X110165592Y-99570020D02*
X108674407Y-99570019D01*
X112457060Y-98970010D02*
X110765602Y-98970010D01*
X95678792Y-87100030D02*
X93332956Y-87100026D01*
X114157070Y-97270000D02*
X112457060Y-98970010D01*
X91429990Y-85197060D02*
X91429990Y-82999990D01*
X93332956Y-87100026D02*
X91429990Y-85197060D01*
X91429990Y-82999990D02*
X90090000Y-81660000D01*
X114500000Y-97270000D02*
X114157070Y-97270000D01*
X93969990Y-83005602D02*
X92630000Y-81665612D01*
X93969990Y-85197060D02*
X93969990Y-83005602D01*
X94672940Y-85900010D02*
X93969990Y-85197060D01*
X96175858Y-85900011D02*
X94672940Y-85900010D01*
X106205856Y-95930010D02*
X96175858Y-85900011D01*
X110754378Y-95930010D02*
X106205856Y-95930010D01*
X111954388Y-94730000D02*
X110754378Y-95930010D01*
X111960000Y-94730000D02*
X111954388Y-94730000D01*
X92630000Y-81665612D02*
X92630000Y-81660000D01*
X108402908Y-98449978D02*
X107877282Y-98449978D01*
X107877282Y-98449978D02*
X95927324Y-86500020D01*
X95927324Y-86500020D02*
X94424404Y-86500017D01*
X111960000Y-97270000D02*
X111617070Y-97270000D01*
X111617070Y-97270000D02*
X109917060Y-98970010D01*
X109917060Y-98970010D02*
X108922940Y-98970010D01*
X94424404Y-86500017D02*
X92630000Y-84705613D01*
X92630000Y-84705613D02*
X92630000Y-84200000D01*
X108922940Y-98970010D02*
X108402908Y-98449978D01*
X109420000Y-94730000D02*
X106030000Y-94730000D01*
X106030000Y-94730000D02*
X96370010Y-85070010D01*
X96370010Y-85070010D02*
X96370010Y-82860010D01*
X96370010Y-82860010D02*
X95170000Y-81660000D01*
X90040000Y-47660000D02*
X88979340Y-47660000D01*
X88979340Y-47660000D02*
X88959340Y-47680000D01*
X88959340Y-47680000D02*
X75122914Y-47680000D01*
X75122914Y-47680000D02*
X69189978Y-41747064D01*
X71062936Y-35519978D02*
X77820032Y-35519978D01*
X69189978Y-41747064D02*
X69189978Y-37392936D01*
X69189978Y-37392936D02*
X71062936Y-35519978D01*
X77820032Y-35519978D02*
X78590010Y-34750000D01*
X78590010Y-34750000D02*
X78590010Y-32060010D01*
X78590010Y-32060010D02*
X77390000Y-30860000D01*
X118623215Y-90002785D02*
X118623215Y-88266259D01*
X113759180Y-82965213D02*
X113759180Y-80259180D01*
X111462940Y-96069990D02*
X114997060Y-96069990D01*
X114997060Y-96069990D02*
X115839990Y-96912920D01*
X113759180Y-80259180D02*
X103547836Y-70047836D01*
X120077060Y-98970010D02*
X121580012Y-97467058D01*
X115839990Y-98267060D02*
X116542940Y-98970010D01*
X91249999Y-63249999D02*
X90500000Y-62500000D01*
X98047836Y-70047836D02*
X91249999Y-63249999D01*
X117852062Y-87058096D02*
X113759180Y-82965213D01*
X117852062Y-87495107D02*
X117852062Y-87058096D01*
X121580012Y-92959582D02*
X118623215Y-90002785D01*
X121580012Y-97467058D02*
X121580012Y-92959582D01*
X110262930Y-97270000D02*
X111462940Y-96069990D01*
X116542940Y-98970010D02*
X120077060Y-98970010D01*
X109420000Y-97270000D02*
X110262930Y-97270000D01*
X115839990Y-96912920D02*
X115839990Y-98267060D01*
X118623215Y-88266259D02*
X117852062Y-87495107D01*
X103547836Y-70047836D02*
X98047836Y-70047836D01*
X58270010Y-38770010D02*
X74750000Y-55250000D01*
X58270010Y-32060010D02*
X58270010Y-38770010D01*
X74750000Y-55250000D02*
X74750000Y-56390293D01*
X74750000Y-56390293D02*
X52500000Y-78640293D01*
X57070000Y-30860000D02*
X58270010Y-32060010D01*
X56000292Y-75249708D02*
X52500000Y-78640293D01*
X52500000Y-78640293D02*
X52386744Y-78750000D01*
X56000292Y-75136452D02*
X59136452Y-72000292D01*
X52500000Y-78750000D02*
X56000292Y-75249708D01*
X52386744Y-78750000D02*
X52500000Y-78750000D01*
X56000292Y-75249708D02*
X56000292Y-75136452D01*
X45109979Y-80414408D02*
X45109979Y-86963833D01*
X68584155Y-99000000D02*
X71967070Y-99000000D01*
X45109979Y-86963833D02*
X54546388Y-96400242D01*
X52386744Y-78750000D02*
X46774387Y-78750000D01*
X46774387Y-78750000D02*
X45109979Y-80414408D01*
X54546388Y-96400242D02*
X54546388Y-98972134D01*
X54546388Y-98972134D02*
X55744286Y-100170032D01*
X67414124Y-100170032D02*
X68584155Y-99000000D01*
X55744286Y-100170032D02*
X67414124Y-100170032D01*
X71967070Y-99000000D02*
X72700010Y-98267060D01*
X72700010Y-98267060D02*
X72700010Y-96912920D01*
X72700010Y-96912920D02*
X74040000Y-95572930D01*
X74040000Y-95572930D02*
X74040000Y-94730000D01*
X85260000Y-46430000D02*
X84199340Y-46430000D01*
X84199340Y-46430000D02*
X83759340Y-46870000D01*
X83759340Y-46870000D02*
X75161457Y-46870000D01*
X75161457Y-46870000D02*
X69789989Y-41498532D01*
X69789989Y-41498532D02*
X69789989Y-37641468D01*
X69789989Y-37641468D02*
X71311468Y-36119989D01*
X71311468Y-36119989D02*
X90170021Y-36119989D01*
X90170021Y-36119989D02*
X91290010Y-35000000D01*
X91290010Y-35000000D02*
X91290010Y-32205602D01*
X91290010Y-32205602D02*
X91890021Y-31605592D01*
X91890021Y-31605592D02*
X91890021Y-31599979D01*
X91890021Y-31599979D02*
X92630000Y-30860000D01*
X85750000Y-63000000D02*
X78729990Y-70020010D01*
X78729990Y-70020010D02*
X78729990Y-82157060D01*
X79432940Y-82860010D02*
X80287080Y-82860010D01*
X81130010Y-85197060D02*
X79277072Y-87049998D01*
X80287080Y-82860010D02*
X81130010Y-83702940D01*
X79277072Y-87049998D02*
X76793998Y-87049998D01*
X75450022Y-92477064D02*
X75379999Y-92547087D01*
X75450022Y-88393974D02*
X75450022Y-92477064D01*
X81130010Y-83702940D02*
X81130010Y-85197060D01*
X75379999Y-95930001D02*
X74040000Y-97270000D01*
X75379999Y-92547087D02*
X75379999Y-95930001D01*
X76793998Y-87049998D02*
X75450022Y-88393974D01*
X78729990Y-82157060D02*
X79432940Y-82860010D01*
X72815468Y-86687988D02*
X67937988Y-86687988D01*
X74150021Y-91574366D02*
X74150021Y-88022541D01*
X72239979Y-93484408D02*
X74150021Y-91574366D01*
X72239979Y-93990021D02*
X72239979Y-93484408D01*
X71500000Y-94730000D02*
X72239979Y-93990021D01*
X74150021Y-88022541D02*
X72815468Y-86687988D01*
X67230000Y-85980000D02*
X67230000Y-84200000D01*
X67937988Y-86687988D02*
X67230000Y-85980000D01*
X77680013Y-86449987D02*
X79930000Y-84200000D01*
X74850011Y-88145442D02*
X76545466Y-86449987D01*
X74048552Y-93029990D02*
X74850011Y-92228532D01*
X74850011Y-92228532D02*
X74850011Y-88145442D01*
X72839990Y-93732940D02*
X73542940Y-93029990D01*
X72839990Y-95924398D02*
X72839990Y-93732940D01*
X71500000Y-97264388D02*
X72839990Y-95924398D01*
X71500000Y-97270000D02*
X71500000Y-97264388D01*
X76545466Y-86449987D02*
X77680013Y-86449987D01*
X73542940Y-93029990D02*
X74048552Y-93029990D01*
X59610000Y-33400000D02*
X59662000Y-33400000D01*
X61449978Y-88357961D02*
X62607918Y-87200021D01*
X59662000Y-39313458D02*
X76833845Y-56485303D01*
X59662000Y-33400000D02*
X59662000Y-39313458D01*
X76833845Y-56485303D02*
X76833845Y-58130207D01*
X76833845Y-58130207D02*
X74364040Y-60600011D01*
X74364040Y-60600011D02*
X72237363Y-60600011D01*
X57200314Y-75637060D02*
X57200314Y-75746772D01*
X72237363Y-60600011D02*
X57200314Y-75637060D01*
X57200314Y-75746772D02*
X52987096Y-79959990D01*
X50789990Y-89249672D02*
X55826696Y-94286378D01*
X50789990Y-80662940D02*
X50789990Y-89249672D01*
X51492940Y-79959990D02*
X50789990Y-80662940D01*
X52987096Y-79959990D02*
X51492940Y-79959990D01*
X55826696Y-94286378D02*
X60271562Y-94286378D01*
X60271562Y-94286378D02*
X61449978Y-93107962D01*
X61449978Y-93107962D02*
X61449978Y-88357961D01*
X62607918Y-87200021D02*
X63892084Y-87200021D01*
X63892084Y-87200021D02*
X65050021Y-88357958D01*
X65050021Y-88357958D02*
X65050021Y-95107960D01*
X65050021Y-95107960D02*
X65872071Y-95930010D01*
X65872071Y-95930010D02*
X67754378Y-95930010D01*
X67754378Y-95930010D02*
X68954388Y-94730000D01*
X68954388Y-94730000D02*
X68960000Y-94730000D01*
X75700000Y-45610000D02*
X74950001Y-44860001D01*
X74950001Y-44860001D02*
X74000001Y-44860001D01*
X74000001Y-44860001D02*
X70390000Y-41250000D01*
X70390000Y-41250000D02*
X70390000Y-37890000D01*
X71560000Y-36720000D02*
X90850000Y-36720000D01*
X70390000Y-37890000D02*
X71560000Y-36720000D01*
X90850000Y-36720000D02*
X92630000Y-34940000D01*
X92630000Y-34940000D02*
X92630000Y-33400000D01*
X55992818Y-99570021D02*
X55146399Y-98723602D01*
X55146399Y-96151710D02*
X45709990Y-86715301D01*
X56600304Y-75388531D02*
X74570638Y-57418197D01*
X56600304Y-75498240D02*
X56600304Y-75388531D01*
X74573165Y-57418197D02*
X75633825Y-57418197D01*
X47022919Y-79350011D02*
X52748532Y-79350011D01*
X68960000Y-97270000D02*
X68960000Y-97775613D01*
X67165592Y-99570021D02*
X55992818Y-99570021D01*
X68960000Y-97775613D02*
X67165592Y-99570021D01*
X52748532Y-79350011D02*
X56600304Y-75498240D01*
X45709990Y-86715301D02*
X45709990Y-80662940D01*
X55146399Y-98723602D02*
X55146399Y-96151710D01*
X74570638Y-57418197D02*
X74573165Y-57418197D01*
X45709990Y-80662940D02*
X47022919Y-79350011D01*
X66420000Y-94730000D02*
X71750000Y-89400000D01*
X71750000Y-89400000D02*
X71750000Y-88321084D01*
X71750000Y-88321084D02*
X70716915Y-87287999D01*
X70716915Y-87287999D02*
X67689456Y-87287999D01*
X67689456Y-87287999D02*
X65890010Y-85488552D01*
X65890010Y-85488552D02*
X65890010Y-82860010D01*
X65890010Y-82860010D02*
X64690000Y-81660000D01*
X64450010Y-95356492D02*
X66363518Y-97270000D01*
X49450000Y-81660000D02*
X48249990Y-82860010D01*
X64450010Y-88606490D02*
X64450010Y-95356492D01*
X63643552Y-87800032D02*
X64450010Y-88606490D01*
X66363518Y-97270000D02*
X66420000Y-97270000D01*
X62856450Y-87800032D02*
X63643552Y-87800032D01*
X62049989Y-88606493D02*
X62856450Y-87800032D01*
X62049989Y-93356493D02*
X62049989Y-88606493D01*
X60520094Y-94886388D02*
X62049989Y-93356493D01*
X55578164Y-94886389D02*
X60520094Y-94886388D01*
X48249990Y-87558215D02*
X55578164Y-94886389D01*
X48249990Y-82860010D02*
X48249990Y-87558215D01*
X145780000Y-76440000D02*
X145780000Y-81250000D01*
X150000000Y-84140073D02*
X148670073Y-84140073D01*
X148670073Y-84140073D02*
X145780000Y-81250000D01*
X155780000Y-76440000D02*
X155780000Y-78360073D01*
X155780000Y-78360073D02*
X150000000Y-84140073D01*
X145780000Y-76440000D02*
X140810000Y-76440000D01*
X140750001Y-55749999D02*
X141500000Y-55000000D01*
X140297999Y-56202001D02*
X140750001Y-55749999D01*
X138963239Y-56202001D02*
X140297999Y-56202001D01*
X138332999Y-55571761D02*
X138963239Y-56202001D01*
X138332999Y-52392001D02*
X138332999Y-55571761D01*
X139545000Y-51180000D02*
X138332999Y-52392001D01*
X138467370Y-51180000D02*
X139545000Y-51180000D01*
X122050000Y-65864000D02*
X123299999Y-64614001D01*
X128886735Y-57149991D02*
X134856726Y-51180000D01*
X123299999Y-61793999D02*
X127944007Y-57149991D01*
X127944007Y-57149991D02*
X128886735Y-57149991D01*
X134856726Y-51180000D02*
X138467370Y-51180000D01*
X123299999Y-64614001D02*
X123299999Y-61793999D01*
X115175995Y-65149991D02*
X114192603Y-65149991D01*
X102943969Y-53901357D02*
X102193970Y-53151358D01*
X122631761Y-69362001D02*
X119388005Y-69362001D01*
X127942906Y-58099988D02*
X124250000Y-61792894D01*
X124250000Y-61792894D02*
X124250000Y-67743762D01*
X124250000Y-67743762D02*
X122631761Y-69362001D01*
X130083257Y-56802012D02*
X128785281Y-58099988D01*
X128785281Y-58099988D02*
X127942906Y-58099988D01*
X114192603Y-65149991D02*
X102943969Y-53901357D01*
X144500000Y-56802012D02*
X130083257Y-56802012D01*
X119388005Y-69362001D02*
X115175995Y-65149991D01*
X144500000Y-56802012D02*
X144750000Y-56802012D01*
X144750000Y-56802012D02*
X145197988Y-56802012D01*
X149750000Y-52500000D02*
X145447988Y-56802012D01*
X145447988Y-56802012D02*
X144750000Y-56802012D01*
X156750000Y-51650000D02*
X155850000Y-51650000D01*
X155850000Y-51650000D02*
X154750000Y-52750000D01*
X72485895Y-61200022D02*
X74612572Y-61200022D01*
X98300096Y-53021406D02*
X101003358Y-53021406D01*
X93033965Y-53150066D02*
X98171436Y-53150066D01*
X79779274Y-54350066D02*
X91833966Y-54350066D01*
X77433856Y-56695484D02*
X79779274Y-54350066D01*
X77433856Y-58378738D02*
X77433856Y-56695484D01*
X74612572Y-61200022D02*
X77433856Y-58378738D01*
X98171436Y-53150066D02*
X98300096Y-53021406D01*
X101003358Y-53021406D02*
X101133310Y-53151358D01*
X51990000Y-81660000D02*
X52135629Y-81660000D01*
X91833966Y-54350066D02*
X93033965Y-53150066D01*
X101133310Y-53151358D02*
X102193970Y-53151358D01*
X52135629Y-81660000D02*
X57800325Y-75995304D01*
X57800325Y-75885592D02*
X72485895Y-61200022D01*
X57800325Y-75995304D02*
X57800325Y-75885592D01*
X144697988Y-56802012D02*
X144500000Y-56802012D01*
X102000000Y-59325088D02*
X102000000Y-59000000D01*
X117250000Y-74575088D02*
X102000000Y-59325088D01*
X117250000Y-76267820D02*
X117250000Y-74575088D01*
X119650000Y-78330000D02*
X119312180Y-78330000D01*
X119312180Y-78330000D02*
X117250000Y-76267820D01*
X159317060Y-64940010D02*
X160020010Y-64237060D01*
X160020010Y-64237060D02*
X160020010Y-54920010D01*
X160020010Y-54920010D02*
X157999679Y-52899679D01*
X157999679Y-52899679D02*
X156750000Y-51650000D01*
X156622930Y-63740000D02*
X157822940Y-64940010D01*
X155780000Y-63740000D02*
X156622930Y-63740000D01*
X157822940Y-64940010D02*
X159317060Y-64940010D01*
X157477070Y-61200000D02*
X158320000Y-61200000D01*
X156277060Y-59999990D02*
X157477070Y-61200000D01*
X154782940Y-59999990D02*
X156277060Y-59999990D01*
X153582930Y-61200000D02*
X154782940Y-59999990D01*
X148320000Y-61200000D02*
X153582930Y-61200000D01*
X122726779Y-70115526D02*
X126245230Y-66597075D01*
X118365526Y-70115526D02*
X122726779Y-70115526D01*
X126245230Y-66597075D02*
X126350011Y-66597075D01*
X128449999Y-61239999D02*
X137360172Y-61239999D01*
X142500000Y-63740000D02*
X145780000Y-63740000D01*
X126350011Y-63339987D02*
X128449999Y-61239999D01*
X115750000Y-67500000D02*
X118365526Y-70115526D01*
X137360172Y-61239999D02*
X139860173Y-63740000D01*
X126350011Y-66597075D02*
X126350011Y-63339987D01*
X139860173Y-63740000D02*
X142500000Y-63740000D01*
X78633878Y-57192548D02*
X80276338Y-55550088D01*
X55730010Y-82157060D02*
X55730010Y-79762703D01*
X115421479Y-76641479D02*
X118250180Y-79470180D01*
X118250180Y-79470180D02*
X118250180Y-79808000D01*
X99667687Y-56021438D02*
X100643166Y-56996917D01*
X96401785Y-54350088D02*
X98073135Y-56021438D01*
X92331030Y-55550088D02*
X93531029Y-54350088D01*
X59000347Y-76382656D02*
X60382656Y-75000347D01*
X119312180Y-80870000D02*
X119650000Y-80870000D01*
X93531029Y-54350088D02*
X96401785Y-54350088D01*
X59000347Y-76492368D02*
X59000347Y-76382656D01*
X78633878Y-58875802D02*
X78633878Y-57192548D01*
X55730010Y-79762703D02*
X59000347Y-76492368D01*
X118250180Y-79808000D02*
X119312180Y-80870000D01*
X54887080Y-82999990D02*
X55730010Y-82157060D01*
X53190010Y-82999990D02*
X54887080Y-82999990D01*
X100643166Y-56996917D02*
X100643166Y-59665340D01*
X100643166Y-59665340D02*
X115421479Y-74443653D01*
X51990000Y-84200000D02*
X53190010Y-82999990D01*
X62509333Y-75000347D02*
X78633878Y-58875802D01*
X60382656Y-75000347D02*
X62509333Y-75000347D01*
X80276338Y-55550088D02*
X92331030Y-55550088D01*
X98073135Y-56021438D02*
X99667687Y-56021438D01*
X115421479Y-74443653D02*
X115421479Y-76641479D01*
X85000000Y-25750000D02*
X88950010Y-21799990D01*
X88950010Y-21799990D02*
X88950010Y-19180010D01*
X88950010Y-19180010D02*
X87750000Y-17980000D01*
X90114489Y-27688884D02*
X90114489Y-26628224D01*
X89849499Y-28669217D02*
X89849499Y-27953874D01*
X88750011Y-32199990D02*
X88750015Y-29768701D01*
X88750015Y-29768701D02*
X89849499Y-28669217D01*
X89849499Y-27953874D02*
X90114489Y-27688884D01*
X87550000Y-33400000D02*
X88750011Y-32199990D01*
X87750000Y-20520000D02*
X83669336Y-24600664D01*
X83669336Y-24600664D02*
X83669336Y-26059367D01*
X83669336Y-26059367D02*
X83669336Y-27120027D01*
X87550000Y-29192712D02*
X87899498Y-28843214D01*
X87899498Y-28843214D02*
X88649497Y-28093215D01*
X87550000Y-30860000D02*
X87550000Y-29192712D01*
X87550000Y-30860000D02*
X87602000Y-30860000D01*
X87729000Y-20573000D02*
X87750000Y-20520000D01*
X82670012Y-23059988D02*
X82670012Y-26455648D01*
X82670012Y-26455648D02*
X82227119Y-26898540D01*
X82227119Y-27211401D02*
X82227119Y-28272061D01*
X82227119Y-26898540D02*
X82227119Y-27211401D01*
X85210000Y-20520000D02*
X82670012Y-23059988D01*
X90090000Y-30860000D02*
X90090000Y-29410000D01*
X90090000Y-29410000D02*
X91250000Y-28250000D01*
X85210000Y-20520000D02*
X85210000Y-17980000D01*
X79500000Y-21150000D02*
X79500000Y-25239360D01*
X79500000Y-25239360D02*
X79500000Y-26300020D01*
X82670000Y-17980000D02*
X79500000Y-21150000D01*
X56250000Y-26000000D02*
X54530000Y-27720000D01*
X54530000Y-27720000D02*
X54530000Y-30860000D01*
X62000000Y-26000000D02*
X56250000Y-26000000D01*
X82670000Y-17980000D02*
X82649000Y-18033000D01*
X54582000Y-30860000D02*
X54530000Y-30860000D01*
X81027117Y-28848063D02*
X81130010Y-28950956D01*
X81027117Y-27250000D02*
X81027117Y-28848063D01*
X81130010Y-28950956D02*
X81130010Y-32199990D01*
X81130010Y-32199990D02*
X79930000Y-33400000D01*
X82670000Y-20520000D02*
X82070001Y-21119999D01*
X82070001Y-21119999D02*
X82070001Y-26207116D01*
X82070001Y-26207116D02*
X81027117Y-27250000D01*
X54530000Y-84200000D02*
X54530000Y-90820000D01*
X54530000Y-90820000D02*
X56460000Y-92750000D01*
X103352188Y-66897814D02*
X104102187Y-67647813D01*
X97654341Y-61199967D02*
X103352188Y-66897814D01*
X94902480Y-61199967D02*
X97654341Y-61199967D01*
X141660010Y-36089990D02*
X127782001Y-49967999D01*
X126749995Y-54500007D02*
X119699981Y-61550021D01*
X156680010Y-36089990D02*
X141660010Y-36089990D01*
X127782001Y-49967999D02*
X127533239Y-49967999D01*
X127533239Y-49967999D02*
X126749995Y-50751243D01*
X126749995Y-50751243D02*
X126749995Y-54500007D01*
X112300021Y-61550021D02*
X104749999Y-53999999D01*
X158020000Y-34750000D02*
X156680010Y-36089990D01*
X119699981Y-61550021D02*
X112300021Y-61550021D01*
X104749999Y-53999999D02*
X104250000Y-53500000D01*
X77390000Y-67042515D02*
X77390000Y-81660000D01*
X84640605Y-59750165D02*
X83450130Y-60940640D01*
X83450130Y-60940640D02*
X83450130Y-60982385D01*
X83450130Y-60982385D02*
X77390000Y-67042515D01*
X94902480Y-61199967D02*
X93452678Y-59750165D01*
X93452678Y-59750165D02*
X84640605Y-59750165D01*
X145083326Y-51848720D02*
X146850640Y-51848720D01*
X142686280Y-51848720D02*
X145083326Y-51848720D01*
X139545000Y-54990000D02*
X142686280Y-51848720D01*
X128115000Y-54990000D02*
X127284521Y-54990000D01*
X127284521Y-54990000D02*
X117274521Y-65000000D01*
X117274521Y-65000000D02*
X117274521Y-66399974D01*
X117274521Y-66399974D02*
X119024547Y-68150000D01*
X119024547Y-68150000D02*
X122050000Y-68150000D01*
D38*
G36*
X161565000Y-100815000D02*
X143529262Y-100815000D01*
X144632597Y-99711664D01*
X144878634Y-99343443D01*
X144965030Y-98909097D01*
X144965030Y-97940168D01*
X154514397Y-97940168D01*
X155043838Y-99221515D01*
X156023329Y-100202716D01*
X157303749Y-100734394D01*
X158690168Y-100735603D01*
X159971515Y-100206162D01*
X160952716Y-99226671D01*
X161484394Y-97946251D01*
X161485603Y-96559832D01*
X160956162Y-95278485D01*
X159976671Y-94297284D01*
X158696251Y-93765606D01*
X157309832Y-93764397D01*
X156028485Y-94293838D01*
X155047284Y-95273329D01*
X154515606Y-96553749D01*
X154514397Y-97940168D01*
X144965030Y-97940168D01*
X144965031Y-94561000D01*
X146141032Y-93385000D01*
X146426042Y-93385000D01*
X146464436Y-93423461D01*
X146973298Y-93634759D01*
X147524285Y-93635240D01*
X148033515Y-93424831D01*
X148423461Y-93035564D01*
X148634759Y-92526702D01*
X148635240Y-91975715D01*
X148424831Y-91466485D01*
X148035564Y-91076539D01*
X147725492Y-90947786D01*
X147918700Y-90818689D01*
X160575080Y-78162309D01*
X160745246Y-77907637D01*
X160805001Y-77607230D01*
X160805001Y-75330004D01*
X160805002Y-75329999D01*
X160745246Y-75029593D01*
X160575080Y-74774920D01*
X160345091Y-74544931D01*
X160136474Y-74405538D01*
X160237032Y-73900000D01*
X160131605Y-73369983D01*
X159831375Y-72920657D01*
X159396376Y-72630000D01*
X159831375Y-72339343D01*
X160131605Y-71890017D01*
X160237032Y-71360000D01*
X160131605Y-70829983D01*
X159831375Y-70380657D01*
X159396376Y-70090000D01*
X159831375Y-69799343D01*
X160131605Y-69350017D01*
X160237032Y-68820000D01*
X160131605Y-68289983D01*
X159831375Y-67840657D01*
X159396376Y-67550000D01*
X159831375Y-67259343D01*
X160131605Y-66810017D01*
X160237032Y-66280000D01*
X160131605Y-65749983D01*
X159925581Y-65441647D01*
X160575089Y-64792139D01*
X160636926Y-64699593D01*
X160745255Y-64537466D01*
X160805010Y-64237060D01*
X160805010Y-54920015D01*
X160805011Y-54920010D01*
X160745255Y-54619604D01*
X160702140Y-54555078D01*
X160575089Y-54364931D01*
X160575086Y-54364929D01*
X158554758Y-52344600D01*
X158517676Y-52307518D01*
X158634352Y-52026531D01*
X158635006Y-51276759D01*
X158348686Y-50583809D01*
X157818979Y-50053178D01*
X157126531Y-49765648D01*
X156376759Y-49764994D01*
X155683809Y-50051314D01*
X155153178Y-50581021D01*
X154865648Y-51273469D01*
X154865568Y-51365100D01*
X154475715Y-51364760D01*
X153966485Y-51575169D01*
X153576539Y-51964436D01*
X153365241Y-52473298D01*
X153364760Y-53024285D01*
X153575169Y-53533515D01*
X153964436Y-53923461D01*
X154473298Y-54134759D01*
X155024285Y-54135240D01*
X155533515Y-53924831D01*
X155923461Y-53535564D01*
X155990070Y-53375151D01*
X156373469Y-53534352D01*
X157123241Y-53535006D01*
X157407426Y-53417584D01*
X157444600Y-53454758D01*
X159235010Y-55245167D01*
X159235010Y-57353892D01*
X158916055Y-57267261D01*
X158697000Y-57428132D01*
X158697000Y-58533000D01*
X158717000Y-58533000D01*
X158717000Y-58787000D01*
X158697000Y-58787000D01*
X158697000Y-58807000D01*
X158443000Y-58807000D01*
X158443000Y-58787000D01*
X158423000Y-58787000D01*
X158423000Y-58533000D01*
X158443000Y-58533000D01*
X158443000Y-57428132D01*
X158223945Y-57267261D01*
X157698279Y-57410036D01*
X157267264Y-57743106D01*
X157066865Y-58092957D01*
X156791375Y-57680657D01*
X156342049Y-57380427D01*
X155812032Y-57275000D01*
X155247968Y-57275000D01*
X154717951Y-57380427D01*
X154268625Y-57680657D01*
X153968395Y-58129983D01*
X153862968Y-58660000D01*
X153912951Y-58911279D01*
X153749220Y-59075010D01*
X150148823Y-59075010D01*
X150162318Y-59001185D01*
X150039656Y-58787000D01*
X148697000Y-58787000D01*
X148697000Y-58807000D01*
X148443000Y-58807000D01*
X148443000Y-58787000D01*
X148423000Y-58787000D01*
X148423000Y-58533000D01*
X148443000Y-58533000D01*
X148443000Y-57428132D01*
X148697000Y-57428132D01*
X148697000Y-58533000D01*
X150039656Y-58533000D01*
X150162318Y-58318815D01*
X150143481Y-58215765D01*
X149872736Y-57743106D01*
X149441721Y-57410036D01*
X148916055Y-57267261D01*
X148697000Y-57428132D01*
X148443000Y-57428132D01*
X148223945Y-57267261D01*
X147698279Y-57410036D01*
X147486360Y-57573798D01*
X152305079Y-52755079D01*
X152450120Y-52538009D01*
X152635317Y-52503162D01*
X152851441Y-52364090D01*
X152996431Y-52151890D01*
X153047440Y-51900000D01*
X153047440Y-51885338D01*
X153167557Y-51805079D01*
X157535035Y-47437601D01*
X157650674Y-47717471D01*
X158180381Y-48248102D01*
X158872829Y-48535632D01*
X159622601Y-48536286D01*
X160315551Y-48249966D01*
X160846182Y-47720259D01*
X161133712Y-47027811D01*
X161134366Y-46278039D01*
X160848046Y-45585089D01*
X160318339Y-45054458D01*
X159625891Y-44766928D01*
X158876119Y-44766274D01*
X158183169Y-45052594D01*
X157652538Y-45582301D01*
X157534619Y-45866280D01*
X157211198Y-45866280D01*
X156910791Y-45926035D01*
X156656119Y-46096201D01*
X156135085Y-46617235D01*
X156124568Y-46225896D01*
X155876499Y-45627005D01*
X155583729Y-45497797D01*
X154430245Y-46651280D01*
X154444388Y-46665422D01*
X154264782Y-46845028D01*
X154250640Y-46830885D01*
X153097157Y-47984369D01*
X153226365Y-48277139D01*
X153926523Y-48545351D01*
X154214714Y-48537606D01*
X152709433Y-50042887D01*
X152651890Y-50003569D01*
X152400000Y-49952560D01*
X152237615Y-49952560D01*
X152413729Y-49879611D01*
X152469410Y-49649016D01*
X151750000Y-48929605D01*
X151030590Y-49649016D01*
X151086271Y-49879611D01*
X151295902Y-49952560D01*
X151100000Y-49952560D01*
X150864683Y-49996838D01*
X150648559Y-50135910D01*
X150503569Y-50348110D01*
X150452560Y-50600000D01*
X150452560Y-51292073D01*
X150026702Y-51115241D01*
X149475715Y-51114760D01*
X148966485Y-51325169D01*
X148735576Y-51555676D01*
X148735646Y-51475479D01*
X148449326Y-50782529D01*
X147919619Y-50251898D01*
X147227171Y-49964368D01*
X146477399Y-49963714D01*
X145784449Y-50250034D01*
X145253818Y-50779741D01*
X145135899Y-51063720D01*
X142686280Y-51063720D01*
X142385874Y-51123475D01*
X142131201Y-51293641D01*
X139829399Y-53595443D01*
X139824100Y-53593243D01*
X139268339Y-53592758D01*
X139117999Y-53654877D01*
X139117999Y-52717159D01*
X139260601Y-52574557D01*
X139265900Y-52576757D01*
X139821661Y-52577242D01*
X140335303Y-52365010D01*
X140728629Y-51972370D01*
X140941757Y-51459100D01*
X140942242Y-50903339D01*
X140730010Y-50389697D01*
X140337370Y-49996371D01*
X139824100Y-49783243D01*
X139268339Y-49782758D01*
X138754697Y-49994990D01*
X138361371Y-50387630D01*
X138358311Y-50395000D01*
X134856726Y-50395000D01*
X134556319Y-50454755D01*
X134301647Y-50624921D01*
X129408289Y-55518279D01*
X129511757Y-55269100D01*
X129512242Y-54713339D01*
X129300010Y-54199697D01*
X128907370Y-53806371D01*
X128394100Y-53593243D01*
X127838339Y-53592758D01*
X127534995Y-53718097D01*
X127534995Y-52451811D01*
X127835900Y-52576757D01*
X128391661Y-52577242D01*
X128905303Y-52365010D01*
X129298629Y-51972370D01*
X129511757Y-51459100D01*
X129511819Y-51388313D01*
X131931285Y-48968848D01*
X133823740Y-48968848D01*
X134223298Y-49134759D01*
X134774285Y-49135240D01*
X135176985Y-48968848D01*
X141831467Y-48968848D01*
X142564865Y-49702247D01*
X142895346Y-49923067D01*
X142933086Y-49948284D01*
X143367432Y-50034681D01*
X145335128Y-50034681D01*
X145769474Y-49948284D01*
X146137694Y-49702247D01*
X147837457Y-48002484D01*
X148281021Y-48446822D01*
X148973469Y-48734352D01*
X149723241Y-48735006D01*
X150416191Y-48448686D01*
X150535835Y-48329250D01*
X150452378Y-48569078D01*
X150481917Y-49079428D01*
X150620389Y-49413729D01*
X150850984Y-49469410D01*
X151570395Y-48750000D01*
X151929605Y-48750000D01*
X152649016Y-49469410D01*
X152879611Y-49413729D01*
X153047622Y-48930922D01*
X153018083Y-48420572D01*
X152879611Y-48086271D01*
X152649016Y-48030590D01*
X151929605Y-48750000D01*
X151570395Y-48750000D01*
X151556252Y-48735858D01*
X151735858Y-48556252D01*
X151750000Y-48570395D01*
X152469410Y-47850984D01*
X152413729Y-47620389D01*
X151930922Y-47452378D01*
X151420572Y-47481917D01*
X151086271Y-47620389D01*
X151030590Y-47850982D01*
X150991351Y-47811743D01*
X151234352Y-47226531D01*
X151235006Y-46476759D01*
X151173195Y-46327163D01*
X152356569Y-46327163D01*
X152376712Y-47076664D01*
X152624781Y-47675555D01*
X152917551Y-47804763D01*
X154071035Y-46651280D01*
X152917551Y-45497797D01*
X152624781Y-45627005D01*
X152356569Y-46327163D01*
X151173195Y-46327163D01*
X150948686Y-45783809D01*
X150483879Y-45318191D01*
X153097157Y-45318191D01*
X154250640Y-46471675D01*
X155404123Y-45318191D01*
X155274915Y-45025421D01*
X154574757Y-44757209D01*
X153825256Y-44777352D01*
X153226365Y-45025421D01*
X153097157Y-45318191D01*
X150483879Y-45318191D01*
X150418979Y-45253178D01*
X149726531Y-44965648D01*
X148976759Y-44964994D01*
X148283809Y-45251314D01*
X147819314Y-45715000D01*
X147384809Y-45715000D01*
X146950464Y-45801396D01*
X146582243Y-46047434D01*
X146219307Y-46410370D01*
X145977139Y-45825725D01*
X145684369Y-45696517D01*
X144530885Y-46850000D01*
X144545028Y-46864143D01*
X144365423Y-47043748D01*
X144351280Y-47029605D01*
X144337138Y-47043748D01*
X144157533Y-46864143D01*
X144171675Y-46850000D01*
X144157532Y-46835858D01*
X144337138Y-46656252D01*
X144351280Y-46670395D01*
X145504763Y-45516911D01*
X145375555Y-45224141D01*
X144675397Y-44955929D01*
X143925896Y-44976072D01*
X143436599Y-45178746D01*
X143436599Y-42012051D01*
X144402556Y-41046094D01*
X144418776Y-41021819D01*
X144421629Y-41017549D01*
X144528279Y-41099964D01*
X145053945Y-41242739D01*
X145273000Y-41081868D01*
X145273000Y-39977000D01*
X145527000Y-39977000D01*
X145527000Y-41081868D01*
X145746055Y-41242739D01*
X146271721Y-41099964D01*
X146702736Y-40766894D01*
X146805000Y-40588364D01*
X146805000Y-40726309D01*
X146901673Y-40959698D01*
X147080301Y-41138327D01*
X147313690Y-41235000D01*
X148154250Y-41235000D01*
X148313000Y-41076250D01*
X148313000Y-39977000D01*
X148567000Y-39977000D01*
X148567000Y-41076250D01*
X148725750Y-41235000D01*
X149566310Y-41235000D01*
X149799699Y-41138327D01*
X149978327Y-40959698D01*
X150075000Y-40726309D01*
X150075000Y-40171185D01*
X153637682Y-40171185D01*
X153656519Y-40274235D01*
X153927264Y-40746894D01*
X154358279Y-41079964D01*
X154883945Y-41222739D01*
X155103000Y-41061868D01*
X155103000Y-39957000D01*
X155357000Y-39957000D01*
X155357000Y-41061868D01*
X155576055Y-41222739D01*
X156101721Y-41079964D01*
X156532736Y-40746894D01*
X156635000Y-40568364D01*
X156635000Y-40706309D01*
X156731673Y-40939698D01*
X156910301Y-41118327D01*
X157143690Y-41215000D01*
X157984250Y-41215000D01*
X158143000Y-41056250D01*
X158143000Y-39957000D01*
X158397000Y-39957000D01*
X158397000Y-41056250D01*
X158555750Y-41215000D01*
X159396310Y-41215000D01*
X159629699Y-41118327D01*
X159808327Y-40939698D01*
X159905000Y-40706309D01*
X159905000Y-40115750D01*
X159746250Y-39957000D01*
X158397000Y-39957000D01*
X158143000Y-39957000D01*
X156793750Y-39957000D01*
X156733920Y-40016830D01*
X156699656Y-39957000D01*
X155357000Y-39957000D01*
X155103000Y-39957000D01*
X153760344Y-39957000D01*
X153637682Y-40171185D01*
X150075000Y-40171185D01*
X150075000Y-40135750D01*
X149916250Y-39977000D01*
X148567000Y-39977000D01*
X148313000Y-39977000D01*
X146963750Y-39977000D01*
X146903920Y-40036830D01*
X146869656Y-39977000D01*
X145527000Y-39977000D01*
X145273000Y-39977000D01*
X145253000Y-39977000D01*
X145253000Y-39723000D01*
X145273000Y-39723000D01*
X145273000Y-39703000D01*
X145527000Y-39703000D01*
X145527000Y-39723000D01*
X146869656Y-39723000D01*
X146903920Y-39663170D01*
X146963750Y-39723000D01*
X148313000Y-39723000D01*
X148313000Y-39703000D01*
X148567000Y-39703000D01*
X148567000Y-39723000D01*
X149916250Y-39723000D01*
X150075000Y-39564250D01*
X150075000Y-38973691D01*
X149978327Y-38740302D01*
X149799699Y-38561673D01*
X149566310Y-38465000D01*
X149438486Y-38465000D01*
X149468418Y-38445000D01*
X154231514Y-38445000D01*
X154411839Y-38565489D01*
X154358279Y-38580036D01*
X153927264Y-38913106D01*
X153656519Y-39385765D01*
X153637682Y-39488815D01*
X153760344Y-39703000D01*
X155103000Y-39703000D01*
X155103000Y-39683000D01*
X155357000Y-39683000D01*
X155357000Y-39703000D01*
X156699656Y-39703000D01*
X156733920Y-39643170D01*
X156793750Y-39703000D01*
X158143000Y-39703000D01*
X158143000Y-39683000D01*
X158397000Y-39683000D01*
X158397000Y-39703000D01*
X159746250Y-39703000D01*
X159905000Y-39544250D01*
X159905000Y-38953691D01*
X159808327Y-38720302D01*
X159629699Y-38541673D01*
X159396310Y-38445000D01*
X159268486Y-38445000D01*
X159531375Y-38269343D01*
X159831605Y-37820017D01*
X159937032Y-37290000D01*
X159910510Y-37156667D01*
X160872576Y-36194601D01*
X160892408Y-36164921D01*
X161118613Y-35826381D01*
X161205010Y-35392035D01*
X161205010Y-29027965D01*
X161118613Y-28593619D01*
X160872576Y-28225399D01*
X159364590Y-26717413D01*
X159210489Y-26614446D01*
X158996370Y-26471376D01*
X158562024Y-26384979D01*
X156570873Y-26384979D01*
X150092572Y-19906678D01*
X150123000Y-19876250D01*
X150123000Y-18877000D01*
X150377000Y-18877000D01*
X150377000Y-19876250D01*
X150535750Y-20035000D01*
X151026309Y-20035000D01*
X151259698Y-19938327D01*
X151438327Y-19759699D01*
X151535000Y-19526310D01*
X151535000Y-19340168D01*
X154564397Y-19340168D01*
X155093838Y-20621515D01*
X156073329Y-21602716D01*
X157353749Y-22134394D01*
X158740168Y-22135603D01*
X160021515Y-21606162D01*
X161002716Y-20626671D01*
X161534394Y-19346251D01*
X161535603Y-17959832D01*
X161006162Y-16678485D01*
X160026671Y-15697284D01*
X158746251Y-15165606D01*
X157359832Y-15164397D01*
X156078485Y-15693838D01*
X155097284Y-16673329D01*
X154565606Y-17953749D01*
X154564397Y-19340168D01*
X151535000Y-19340168D01*
X151535000Y-19035750D01*
X151376250Y-18877000D01*
X150377000Y-18877000D01*
X150123000Y-18877000D01*
X150103000Y-18877000D01*
X150103000Y-18623000D01*
X150123000Y-18623000D01*
X150123000Y-17623750D01*
X150377000Y-17623750D01*
X150377000Y-18623000D01*
X151376250Y-18623000D01*
X151535000Y-18464250D01*
X151535000Y-17973690D01*
X151438327Y-17740301D01*
X151259698Y-17561673D01*
X151026309Y-17465000D01*
X150535750Y-17465000D01*
X150377000Y-17623750D01*
X150123000Y-17623750D01*
X149964250Y-17465000D01*
X149473691Y-17465000D01*
X149240302Y-17561673D01*
X149061673Y-17740301D01*
X148992500Y-17907299D01*
X148684346Y-17701397D01*
X148475402Y-17659835D01*
X148006724Y-17465223D01*
X147495519Y-17464777D01*
X147023057Y-17659995D01*
X146661265Y-18021155D01*
X146465223Y-18493276D01*
X146464899Y-18865000D01*
X144891049Y-18865000D01*
X144869162Y-18748683D01*
X144730090Y-18532559D01*
X144567052Y-18421160D01*
X144656385Y-18324818D01*
X144855975Y-17842944D01*
X144736836Y-17587000D01*
X143377000Y-17587000D01*
X143377000Y-17607000D01*
X143123000Y-17607000D01*
X143123000Y-17587000D01*
X141763164Y-17587000D01*
X141644025Y-17842944D01*
X141843615Y-18324818D01*
X141934097Y-18422398D01*
X141782559Y-18519910D01*
X141637569Y-18732110D01*
X141610658Y-18865000D01*
X140380538Y-18865000D01*
X139946192Y-18951397D01*
X139708177Y-19110434D01*
X139577972Y-19197434D01*
X126720406Y-32055000D01*
X124212767Y-32055000D01*
X123927264Y-31864233D01*
X123378113Y-31755000D01*
X123321887Y-31755000D01*
X122772736Y-31864233D01*
X122307189Y-32175302D01*
X121996120Y-32640849D01*
X121886887Y-33190000D01*
X121996120Y-33739151D01*
X122307189Y-34204698D01*
X122711703Y-34474986D01*
X122494866Y-34577611D01*
X122118959Y-34992577D01*
X121958096Y-35380961D01*
X122080085Y-35603000D01*
X123223000Y-35603000D01*
X123223000Y-35583000D01*
X123477000Y-35583000D01*
X123477000Y-35603000D01*
X124619915Y-35603000D01*
X124741904Y-35380961D01*
X124581041Y-34992577D01*
X124205134Y-34577611D01*
X123988297Y-34474986D01*
X124212767Y-34325000D01*
X126288898Y-34325000D01*
X124668488Y-35945410D01*
X124619915Y-35857000D01*
X123477000Y-35857000D01*
X123477000Y-35877000D01*
X123223000Y-35877000D01*
X123223000Y-35857000D01*
X122080085Y-35857000D01*
X121958096Y-36079039D01*
X122118959Y-36467423D01*
X122494866Y-36882389D01*
X122711703Y-36985014D01*
X122307189Y-37255302D01*
X121996120Y-37720849D01*
X121886887Y-38270000D01*
X121996120Y-38819151D01*
X122307189Y-39284698D01*
X122689275Y-39540000D01*
X122307189Y-39795302D01*
X121996120Y-40260849D01*
X121886887Y-40810000D01*
X121996120Y-41359151D01*
X122307189Y-41824698D01*
X122689275Y-42080000D01*
X122307189Y-42335302D01*
X121996120Y-42800849D01*
X121886887Y-43350000D01*
X121996120Y-43899151D01*
X122307189Y-44364698D01*
X122689275Y-44620000D01*
X122307189Y-44875302D01*
X121996120Y-45340849D01*
X121886887Y-45890000D01*
X121996120Y-46439151D01*
X122307189Y-46904698D01*
X122689275Y-47160000D01*
X122307189Y-47415302D01*
X121996120Y-47880849D01*
X121886887Y-48430000D01*
X121996120Y-48979151D01*
X122307189Y-49444698D01*
X122689275Y-49700000D01*
X122307189Y-49955302D01*
X121996120Y-50420849D01*
X121886887Y-50970000D01*
X121996120Y-51519151D01*
X122307189Y-51984698D01*
X122689275Y-52240000D01*
X122307189Y-52495302D01*
X121996120Y-52960849D01*
X121886887Y-53510000D01*
X121996120Y-54059151D01*
X122167589Y-54315771D01*
X120394932Y-56088428D01*
X120224766Y-56343100D01*
X120189538Y-56520204D01*
X120165011Y-56643507D01*
X120165011Y-57568349D01*
X117568350Y-60165010D01*
X117181650Y-60165010D01*
X115264999Y-58248359D01*
X115264999Y-57387032D01*
X115380959Y-57441914D01*
X115603000Y-57320629D01*
X115603000Y-56177000D01*
X115857000Y-56177000D01*
X115857000Y-57320629D01*
X116079041Y-57441914D01*
X116585134Y-57202389D01*
X116961041Y-56787423D01*
X117121904Y-56399039D01*
X116999915Y-56177000D01*
X115857000Y-56177000D01*
X115603000Y-56177000D01*
X115583000Y-56177000D01*
X115583000Y-55923000D01*
X115603000Y-55923000D01*
X115603000Y-55903000D01*
X115857000Y-55903000D01*
X115857000Y-55923000D01*
X116999915Y-55923000D01*
X117121904Y-55700961D01*
X116961041Y-55312577D01*
X116926127Y-55274035D01*
X117555079Y-54645083D01*
X117725245Y-54390410D01*
X117785001Y-54090004D01*
X117785000Y-54089999D01*
X117785000Y-52970001D01*
X117763043Y-52859618D01*
X117725245Y-52669594D01*
X117555079Y-52414922D01*
X116913820Y-51773663D01*
X117083880Y-51519151D01*
X117193113Y-50970000D01*
X117083880Y-50420849D01*
X116772811Y-49955302D01*
X116390725Y-49700000D01*
X116772811Y-49444698D01*
X117083880Y-48979151D01*
X117193113Y-48430000D01*
X117083880Y-47880849D01*
X116772811Y-47415302D01*
X116390725Y-47160000D01*
X116772811Y-46904698D01*
X117083880Y-46439151D01*
X117193113Y-45890000D01*
X117083880Y-45340849D01*
X116772811Y-44875302D01*
X116390725Y-44620000D01*
X116772811Y-44364698D01*
X117083880Y-43899151D01*
X117193113Y-43350000D01*
X117083880Y-42800849D01*
X116772811Y-42335302D01*
X116390725Y-42080000D01*
X116772811Y-41824698D01*
X117083880Y-41359151D01*
X117193113Y-40810000D01*
X117083880Y-40260849D01*
X116772811Y-39795302D01*
X116390725Y-39540000D01*
X116772811Y-39284698D01*
X117083880Y-38819151D01*
X117193113Y-38270000D01*
X117083880Y-37720849D01*
X116772811Y-37255302D01*
X116390725Y-37000000D01*
X116772811Y-36744698D01*
X117083880Y-36279151D01*
X117193113Y-35730000D01*
X117083880Y-35180849D01*
X116772811Y-34715302D01*
X116368297Y-34445014D01*
X116585134Y-34342389D01*
X116961041Y-33927423D01*
X117121904Y-33539039D01*
X116999915Y-33317000D01*
X115857000Y-33317000D01*
X115857000Y-33337000D01*
X115603000Y-33337000D01*
X115603000Y-33317000D01*
X114460085Y-33317000D01*
X114338096Y-33539039D01*
X114498959Y-33927423D01*
X114874866Y-34342389D01*
X115091703Y-34445014D01*
X114687189Y-34715302D01*
X114376120Y-35180849D01*
X114266887Y-35730000D01*
X114325446Y-36024396D01*
X107394931Y-42954911D01*
X107224765Y-43209583D01*
X107180450Y-43432368D01*
X107165010Y-43509990D01*
X107165010Y-43672676D01*
X107026692Y-43615241D01*
X106616452Y-43614883D01*
X106215000Y-43213430D01*
X106215000Y-34974413D01*
X106309343Y-34911375D01*
X106605489Y-34468161D01*
X106620036Y-34521721D01*
X106953106Y-34952736D01*
X107425765Y-35223481D01*
X107528815Y-35242318D01*
X107743000Y-35119656D01*
X107743000Y-33777000D01*
X107997000Y-33777000D01*
X107997000Y-35119656D01*
X108211185Y-35242318D01*
X108314235Y-35223481D01*
X108786894Y-34952736D01*
X109119964Y-34521721D01*
X109262739Y-33996055D01*
X109101868Y-33777000D01*
X107997000Y-33777000D01*
X107743000Y-33777000D01*
X107723000Y-33777000D01*
X107723000Y-33523000D01*
X107743000Y-33523000D01*
X107743000Y-32180344D01*
X107683170Y-32146080D01*
X107743000Y-32086250D01*
X107743000Y-30737000D01*
X107997000Y-30737000D01*
X107997000Y-32086250D01*
X108056830Y-32146080D01*
X107997000Y-32180344D01*
X107997000Y-33523000D01*
X109101868Y-33523000D01*
X109262739Y-33303945D01*
X109136989Y-32840961D01*
X114338096Y-32840961D01*
X114460085Y-33063000D01*
X115603000Y-33063000D01*
X115603000Y-31919371D01*
X115857000Y-31919371D01*
X115857000Y-33063000D01*
X116999915Y-33063000D01*
X117121904Y-32840961D01*
X116961041Y-32452577D01*
X116585134Y-32037611D01*
X116079041Y-31798086D01*
X115857000Y-31919371D01*
X115603000Y-31919371D01*
X115380959Y-31798086D01*
X114874866Y-32037611D01*
X114498959Y-32452577D01*
X114338096Y-32840961D01*
X109136989Y-32840961D01*
X109119964Y-32778279D01*
X108786894Y-32347264D01*
X108608364Y-32245000D01*
X108746309Y-32245000D01*
X108979698Y-32148327D01*
X109158327Y-31969699D01*
X109255000Y-31736310D01*
X109255000Y-30895750D01*
X109096250Y-30737000D01*
X107997000Y-30737000D01*
X107743000Y-30737000D01*
X107723000Y-30737000D01*
X107723000Y-30483000D01*
X107743000Y-30483000D01*
X107743000Y-30463000D01*
X107997000Y-30463000D01*
X107997000Y-30483000D01*
X109096250Y-30483000D01*
X109144911Y-30434339D01*
X109217141Y-30506569D01*
X109217143Y-30506572D01*
X109504258Y-30698415D01*
X109842933Y-30765782D01*
X110476497Y-30765782D01*
X110764456Y-31054243D01*
X111273318Y-31265541D01*
X111824305Y-31266022D01*
X112333535Y-31055613D01*
X112623872Y-30765782D01*
X114634274Y-30765782D01*
X114634279Y-30765783D01*
X114916763Y-30709592D01*
X114972954Y-30698415D01*
X115260069Y-30506572D01*
X115260070Y-30506571D01*
X115681651Y-30084989D01*
X126650006Y-30084989D01*
X126650011Y-30084990D01*
X126932495Y-30028799D01*
X126988686Y-30017622D01*
X127275801Y-29825779D01*
X127275802Y-29825778D01*
X134781994Y-22319585D01*
X134799983Y-22331605D01*
X135330000Y-22437032D01*
X135860017Y-22331605D01*
X136309343Y-22031375D01*
X136609573Y-21582049D01*
X136715000Y-21052032D01*
X136715000Y-20487968D01*
X136609573Y-19957951D01*
X136309343Y-19508625D01*
X136094393Y-19365000D01*
X136206309Y-19365000D01*
X136439698Y-19268327D01*
X136618327Y-19089699D01*
X136715000Y-18856310D01*
X136715000Y-18015750D01*
X136556250Y-17857000D01*
X135457000Y-17857000D01*
X135457000Y-17877000D01*
X135203000Y-17877000D01*
X135203000Y-17857000D01*
X135183000Y-17857000D01*
X135183000Y-17603000D01*
X135203000Y-17603000D01*
X135203000Y-16253750D01*
X135457000Y-16253750D01*
X135457000Y-17603000D01*
X136556250Y-17603000D01*
X136715000Y-17444250D01*
X136715000Y-17077056D01*
X141644025Y-17077056D01*
X141763164Y-17333000D01*
X143123000Y-17333000D01*
X143123000Y-15972633D01*
X143377000Y-15972633D01*
X143377000Y-17333000D01*
X144736836Y-17333000D01*
X144855975Y-17077056D01*
X144656385Y-16595182D01*
X144218379Y-16122812D01*
X143632946Y-15854017D01*
X143377000Y-15972633D01*
X143123000Y-15972633D01*
X142867054Y-15854017D01*
X142281621Y-16122812D01*
X141843615Y-16595182D01*
X141644025Y-17077056D01*
X136715000Y-17077056D01*
X136715000Y-16603690D01*
X136618327Y-16370301D01*
X136439698Y-16191673D01*
X136206309Y-16095000D01*
X135615750Y-16095000D01*
X135457000Y-16253750D01*
X135203000Y-16253750D01*
X135044250Y-16095000D01*
X134453691Y-16095000D01*
X134220302Y-16191673D01*
X134041673Y-16370301D01*
X133945000Y-16603690D01*
X133945000Y-16731514D01*
X133769343Y-16468625D01*
X133320017Y-16168395D01*
X132790000Y-16062968D01*
X132259983Y-16168395D01*
X131810657Y-16468625D01*
X131559171Y-16845000D01*
X131480829Y-16845000D01*
X131229343Y-16468625D01*
X130780017Y-16168395D01*
X130250000Y-16062968D01*
X129719983Y-16168395D01*
X129270657Y-16468625D01*
X129019171Y-16845000D01*
X128940829Y-16845000D01*
X128689343Y-16468625D01*
X128240017Y-16168395D01*
X127710000Y-16062968D01*
X127179983Y-16168395D01*
X126730657Y-16468625D01*
X126479171Y-16845000D01*
X126400829Y-16845000D01*
X126149343Y-16468625D01*
X125700017Y-16168395D01*
X125170000Y-16062968D01*
X124639983Y-16168395D01*
X124190657Y-16468625D01*
X123890427Y-16917951D01*
X123785000Y-17447968D01*
X123785000Y-18012032D01*
X123890427Y-18542049D01*
X124190657Y-18991375D01*
X124577717Y-19250000D01*
X124190657Y-19508625D01*
X123890427Y-19957951D01*
X123785000Y-20487968D01*
X123785000Y-20794842D01*
X120514842Y-24065000D01*
X114574318Y-24065000D01*
X114705787Y-23933531D01*
X114705790Y-23933529D01*
X114897633Y-23646414D01*
X114897634Y-23646413D01*
X114965001Y-23307739D01*
X114965000Y-23307734D01*
X114965000Y-22094413D01*
X115059343Y-22031375D01*
X115359573Y-21582049D01*
X115465000Y-21052032D01*
X115465000Y-20487968D01*
X115359573Y-19957951D01*
X115059343Y-19508625D01*
X114844393Y-19365000D01*
X114956309Y-19365000D01*
X115189698Y-19268327D01*
X115368327Y-19089699D01*
X115465000Y-18856310D01*
X115465000Y-18015750D01*
X115306250Y-17857000D01*
X114207000Y-17857000D01*
X114207000Y-17877000D01*
X113953000Y-17877000D01*
X113953000Y-17857000D01*
X113933000Y-17857000D01*
X113933000Y-17603000D01*
X113953000Y-17603000D01*
X113953000Y-16253750D01*
X114207000Y-16253750D01*
X114207000Y-17603000D01*
X115306250Y-17603000D01*
X115465000Y-17444250D01*
X115465000Y-16603690D01*
X115368327Y-16370301D01*
X115189698Y-16191673D01*
X114956309Y-16095000D01*
X114365750Y-16095000D01*
X114207000Y-16253750D01*
X113953000Y-16253750D01*
X113794250Y-16095000D01*
X113203691Y-16095000D01*
X112970302Y-16191673D01*
X112791673Y-16370301D01*
X112695000Y-16603690D01*
X112695000Y-16731514D01*
X112519343Y-16468625D01*
X112070017Y-16168395D01*
X111540000Y-16062968D01*
X111009983Y-16168395D01*
X110560657Y-16468625D01*
X110270000Y-16903624D01*
X109979343Y-16468625D01*
X109530017Y-16168395D01*
X109000000Y-16062968D01*
X108469983Y-16168395D01*
X108020657Y-16468625D01*
X107730000Y-16903624D01*
X107439343Y-16468625D01*
X106990017Y-16168395D01*
X106460000Y-16062968D01*
X105929983Y-16168395D01*
X105480657Y-16468625D01*
X105190000Y-16903624D01*
X104899343Y-16468625D01*
X104450017Y-16168395D01*
X103920000Y-16062968D01*
X103389983Y-16168395D01*
X102940657Y-16468625D01*
X102640427Y-16917951D01*
X102535000Y-17447968D01*
X102535000Y-18012032D01*
X102640427Y-18542049D01*
X102940657Y-18991375D01*
X103327717Y-19250000D01*
X102940657Y-19508625D01*
X102640427Y-19957951D01*
X102535000Y-20487968D01*
X102535000Y-20794842D01*
X101894833Y-21435009D01*
X99435995Y-21435009D01*
X99135589Y-21494764D01*
X98880916Y-21664930D01*
X98710750Y-21919603D01*
X98689546Y-22026203D01*
X96505098Y-24210650D01*
X96424831Y-24016389D01*
X96035564Y-23626443D01*
X95526702Y-23415145D01*
X95111824Y-23414783D01*
X95039852Y-23366693D01*
X94838676Y-23232272D01*
X94782485Y-23221095D01*
X94500001Y-23164904D01*
X94499996Y-23164905D01*
X94186484Y-23164905D01*
X93331982Y-22310403D01*
X93746894Y-22072736D01*
X94079964Y-21641721D01*
X94222739Y-21116055D01*
X94061868Y-20897000D01*
X92957000Y-20897000D01*
X92957000Y-20917000D01*
X92703000Y-20917000D01*
X92703000Y-20897000D01*
X92683000Y-20897000D01*
X92683000Y-20643000D01*
X92703000Y-20643000D01*
X92703000Y-19300344D01*
X92643170Y-19266080D01*
X92703000Y-19206250D01*
X92703000Y-17857000D01*
X92957000Y-17857000D01*
X92957000Y-19206250D01*
X93016830Y-19266080D01*
X92957000Y-19300344D01*
X92957000Y-20643000D01*
X94061868Y-20643000D01*
X94222739Y-20423945D01*
X94079964Y-19898279D01*
X93746894Y-19467264D01*
X93568364Y-19365000D01*
X93706309Y-19365000D01*
X93939698Y-19268327D01*
X94118327Y-19089699D01*
X94215000Y-18856310D01*
X94215000Y-18015750D01*
X94056250Y-17857000D01*
X92957000Y-17857000D01*
X92703000Y-17857000D01*
X92683000Y-17857000D01*
X92683000Y-17603000D01*
X92703000Y-17603000D01*
X92703000Y-16253750D01*
X92957000Y-16253750D01*
X92957000Y-17603000D01*
X94056250Y-17603000D01*
X94215000Y-17444250D01*
X94215000Y-16603690D01*
X94118327Y-16370301D01*
X93939698Y-16191673D01*
X93706309Y-16095000D01*
X93115750Y-16095000D01*
X92957000Y-16253750D01*
X92703000Y-16253750D01*
X92544250Y-16095000D01*
X91953691Y-16095000D01*
X91720302Y-16191673D01*
X91541673Y-16370301D01*
X91445000Y-16603690D01*
X91445000Y-16731514D01*
X91269343Y-16468625D01*
X90820017Y-16168395D01*
X90290000Y-16062968D01*
X89759983Y-16168395D01*
X89310657Y-16468625D01*
X89020000Y-16903624D01*
X88729343Y-16468625D01*
X88280017Y-16168395D01*
X87750000Y-16062968D01*
X87219983Y-16168395D01*
X86770657Y-16468625D01*
X86480000Y-16903624D01*
X86189343Y-16468625D01*
X85740017Y-16168395D01*
X85210000Y-16062968D01*
X84679983Y-16168395D01*
X84230657Y-16468625D01*
X83940000Y-16903624D01*
X83649343Y-16468625D01*
X83200017Y-16168395D01*
X82670000Y-16062968D01*
X82139983Y-16168395D01*
X81690657Y-16468625D01*
X81390427Y-16917951D01*
X81285000Y-17447968D01*
X81285000Y-18012032D01*
X81325285Y-18214557D01*
X78944921Y-20594921D01*
X78774755Y-20849593D01*
X78772254Y-20862166D01*
X78715000Y-21150000D01*
X78715000Y-25126671D01*
X78326539Y-25514456D01*
X78115241Y-26023318D01*
X78114760Y-26574305D01*
X78325169Y-27083535D01*
X78714436Y-27473481D01*
X79223298Y-27684779D01*
X79774285Y-27685260D01*
X80242117Y-27491956D01*
X80242117Y-28848063D01*
X80276033Y-29018568D01*
X80271185Y-29017682D01*
X80057000Y-29140344D01*
X80057000Y-30483000D01*
X80077000Y-30483000D01*
X80077000Y-30737000D01*
X80057000Y-30737000D01*
X80057000Y-30757000D01*
X79803000Y-30757000D01*
X79803000Y-30737000D01*
X79783000Y-30737000D01*
X79783000Y-30483000D01*
X79803000Y-30483000D01*
X79803000Y-29140344D01*
X79588815Y-29017682D01*
X79485765Y-29036519D01*
X79013106Y-29307264D01*
X78680036Y-29738279D01*
X78665489Y-29791839D01*
X78369343Y-29348625D01*
X77920017Y-29048395D01*
X77390000Y-28942968D01*
X76859983Y-29048395D01*
X76551647Y-29254419D01*
X73732411Y-26435183D01*
X73774285Y-26435220D01*
X74283515Y-26224811D01*
X74673461Y-25835544D01*
X74884759Y-25326682D01*
X74885240Y-24775695D01*
X74674831Y-24266465D01*
X74285564Y-23876519D01*
X73776702Y-23665221D01*
X73366462Y-23664863D01*
X72465000Y-22763400D01*
X72465000Y-22094413D01*
X72559343Y-22031375D01*
X72859573Y-21582049D01*
X72965000Y-21052032D01*
X72965000Y-20487968D01*
X72859573Y-19957951D01*
X72559343Y-19508625D01*
X72344393Y-19365000D01*
X72456309Y-19365000D01*
X72689698Y-19268327D01*
X72868327Y-19089699D01*
X72965000Y-18856310D01*
X72965000Y-18015750D01*
X72806250Y-17857000D01*
X71707000Y-17857000D01*
X71707000Y-17877000D01*
X71453000Y-17877000D01*
X71453000Y-17857000D01*
X71433000Y-17857000D01*
X71433000Y-17603000D01*
X71453000Y-17603000D01*
X71453000Y-16253750D01*
X71707000Y-16253750D01*
X71707000Y-17603000D01*
X72806250Y-17603000D01*
X72965000Y-17444250D01*
X72965000Y-16603690D01*
X72868327Y-16370301D01*
X72689698Y-16191673D01*
X72456309Y-16095000D01*
X71865750Y-16095000D01*
X71707000Y-16253750D01*
X71453000Y-16253750D01*
X71294250Y-16095000D01*
X70703691Y-16095000D01*
X70470302Y-16191673D01*
X70291673Y-16370301D01*
X70195000Y-16603690D01*
X70195000Y-16731514D01*
X70019343Y-16468625D01*
X69570017Y-16168395D01*
X69040000Y-16062968D01*
X68509983Y-16168395D01*
X68060657Y-16468625D01*
X67770000Y-16903624D01*
X67479343Y-16468625D01*
X67030017Y-16168395D01*
X66500000Y-16062968D01*
X65969983Y-16168395D01*
X65520657Y-16468625D01*
X65230000Y-16903624D01*
X64939343Y-16468625D01*
X64490017Y-16168395D01*
X63960000Y-16062968D01*
X63429983Y-16168395D01*
X62980657Y-16468625D01*
X62690000Y-16903624D01*
X62399343Y-16468625D01*
X61950017Y-16168395D01*
X61420000Y-16062968D01*
X60889983Y-16168395D01*
X60440657Y-16468625D01*
X60140427Y-16917951D01*
X60035000Y-17447968D01*
X60035000Y-18012032D01*
X60140427Y-18542049D01*
X60440657Y-18991375D01*
X60827717Y-19250000D01*
X60440657Y-19508625D01*
X60140427Y-19957951D01*
X60035000Y-20487968D01*
X60035000Y-21052032D01*
X60140427Y-21582049D01*
X60440657Y-22031375D01*
X60637576Y-22162952D01*
X60694755Y-22450407D01*
X60864921Y-22705079D01*
X66445000Y-28285158D01*
X66445000Y-29218769D01*
X66250657Y-29348625D01*
X65960000Y-29783624D01*
X65669343Y-29348625D01*
X65220017Y-29048395D01*
X64690000Y-28942968D01*
X64159983Y-29048395D01*
X63710657Y-29348625D01*
X63420000Y-29783624D01*
X63129343Y-29348625D01*
X62680017Y-29048395D01*
X62150000Y-28942968D01*
X61619983Y-29048395D01*
X61170657Y-29348625D01*
X60880000Y-29783624D01*
X60589343Y-29348625D01*
X60140017Y-29048395D01*
X59610000Y-28942968D01*
X59079983Y-29048395D01*
X58630657Y-29348625D01*
X58340000Y-29783624D01*
X58049343Y-29348625D01*
X57600017Y-29048395D01*
X57070000Y-28942968D01*
X56539983Y-29048395D01*
X56090657Y-29348625D01*
X55800000Y-29783624D01*
X55509343Y-29348625D01*
X55315000Y-29218769D01*
X55315000Y-28045158D01*
X56575158Y-26785000D01*
X60826651Y-26785000D01*
X61214436Y-27173461D01*
X61723298Y-27384759D01*
X62274285Y-27385240D01*
X62783515Y-27174831D01*
X63173461Y-26785564D01*
X63384759Y-26276702D01*
X63385240Y-25725715D01*
X63174831Y-25216485D01*
X62785564Y-24826539D01*
X62276702Y-24615241D01*
X61725715Y-24614760D01*
X61216485Y-24825169D01*
X60826539Y-25214436D01*
X60826305Y-25215000D01*
X56250000Y-25215000D01*
X55949593Y-25274755D01*
X55694921Y-25444921D01*
X53974921Y-27164921D01*
X53804755Y-27419593D01*
X53761034Y-27639393D01*
X53745000Y-27720000D01*
X53745000Y-29218769D01*
X53550657Y-29348625D01*
X53260000Y-29783624D01*
X52969343Y-29348625D01*
X52520017Y-29048395D01*
X51990000Y-28942968D01*
X51459983Y-29048395D01*
X51010657Y-29348625D01*
X50720000Y-29783624D01*
X50429343Y-29348625D01*
X49980017Y-29048395D01*
X49450000Y-28942968D01*
X48919983Y-29048395D01*
X48470657Y-29348625D01*
X48174511Y-29791839D01*
X48159964Y-29738279D01*
X47826894Y-29307264D01*
X47354235Y-29036519D01*
X47251185Y-29017682D01*
X47037000Y-29140344D01*
X47037000Y-30483000D01*
X47057000Y-30483000D01*
X47057000Y-30737000D01*
X47037000Y-30737000D01*
X47037000Y-32079656D01*
X47124908Y-32130000D01*
X47037000Y-32180344D01*
X47037000Y-33523000D01*
X47057000Y-33523000D01*
X47057000Y-33777000D01*
X47037000Y-33777000D01*
X47037000Y-35119656D01*
X47251185Y-35242318D01*
X47354235Y-35223481D01*
X47826894Y-34952736D01*
X48159964Y-34521721D01*
X48174511Y-34468161D01*
X48470657Y-34911375D01*
X48919983Y-35211605D01*
X49450000Y-35317032D01*
X49980017Y-35211605D01*
X50429343Y-34911375D01*
X50720000Y-34476376D01*
X51010657Y-34911375D01*
X51459983Y-35211605D01*
X51990000Y-35317032D01*
X52520017Y-35211605D01*
X52969343Y-34911375D01*
X53260000Y-34476376D01*
X53550657Y-34911375D01*
X53999983Y-35211605D01*
X54530000Y-35317032D01*
X55060017Y-35211605D01*
X55509343Y-34911375D01*
X55800000Y-34476376D01*
X56090657Y-34911375D01*
X56285000Y-35041231D01*
X56285000Y-37084881D01*
X56066485Y-37175169D01*
X55676539Y-37564436D01*
X55465241Y-38073298D01*
X55464760Y-38624285D01*
X55675169Y-39133515D01*
X56064436Y-39523461D01*
X56573298Y-39734759D01*
X57124285Y-39735240D01*
X57633515Y-39524831D01*
X57774216Y-39384374D01*
X73965000Y-55575158D01*
X73965000Y-56065135D01*
X58592068Y-71438067D01*
X58581373Y-71445213D01*
X55445213Y-74581373D01*
X55438067Y-74592068D01*
X52065135Y-77965000D01*
X46774387Y-77965000D01*
X46473980Y-78024755D01*
X46219308Y-78194921D01*
X45185000Y-79229229D01*
X45185000Y-33996055D01*
X45517261Y-33996055D01*
X45660036Y-34521721D01*
X45993106Y-34952736D01*
X46465765Y-35223481D01*
X46568815Y-35242318D01*
X46783000Y-35119656D01*
X46783000Y-33777000D01*
X45678132Y-33777000D01*
X45517261Y-33996055D01*
X45185000Y-33996055D01*
X45185000Y-30956055D01*
X45517261Y-30956055D01*
X45660036Y-31481721D01*
X45993106Y-31912736D01*
X46372399Y-32130000D01*
X45993106Y-32347264D01*
X45660036Y-32778279D01*
X45517261Y-33303945D01*
X45678132Y-33523000D01*
X46783000Y-33523000D01*
X46783000Y-32180344D01*
X46695092Y-32130000D01*
X46783000Y-32079656D01*
X46783000Y-30737000D01*
X45678132Y-30737000D01*
X45517261Y-30956055D01*
X45185000Y-30956055D01*
X45185000Y-30263945D01*
X45517261Y-30263945D01*
X45678132Y-30483000D01*
X46783000Y-30483000D01*
X46783000Y-29140344D01*
X46568815Y-29017682D01*
X46465765Y-29036519D01*
X45993106Y-29307264D01*
X45660036Y-29738279D01*
X45517261Y-30263945D01*
X45185000Y-30263945D01*
X45185000Y-19440168D01*
X45514397Y-19440168D01*
X46043838Y-20721515D01*
X47023329Y-21702716D01*
X48303749Y-22234394D01*
X49690168Y-22235603D01*
X50971515Y-21706162D01*
X51952716Y-20726671D01*
X52484394Y-19446251D01*
X52485603Y-18059832D01*
X51956162Y-16778485D01*
X50976671Y-15797284D01*
X49696251Y-15265606D01*
X48309832Y-15264397D01*
X47028485Y-15793838D01*
X46047284Y-16773329D01*
X45515606Y-18053749D01*
X45514397Y-19440168D01*
X45185000Y-19440168D01*
X45185000Y-14935000D01*
X161565000Y-14935000D01*
X161565000Y-100815000D01*
X161565000Y-100815000D01*
G37*
X161565000Y-100815000D02*
X143529262Y-100815000D01*
X144632597Y-99711664D01*
X144878634Y-99343443D01*
X144965030Y-98909097D01*
X144965030Y-97940168D01*
X154514397Y-97940168D01*
X155043838Y-99221515D01*
X156023329Y-100202716D01*
X157303749Y-100734394D01*
X158690168Y-100735603D01*
X159971515Y-100206162D01*
X160952716Y-99226671D01*
X161484394Y-97946251D01*
X161485603Y-96559832D01*
X160956162Y-95278485D01*
X159976671Y-94297284D01*
X158696251Y-93765606D01*
X157309832Y-93764397D01*
X156028485Y-94293838D01*
X155047284Y-95273329D01*
X154515606Y-96553749D01*
X154514397Y-97940168D01*
X144965030Y-97940168D01*
X144965031Y-94561000D01*
X146141032Y-93385000D01*
X146426042Y-93385000D01*
X146464436Y-93423461D01*
X146973298Y-93634759D01*
X147524285Y-93635240D01*
X148033515Y-93424831D01*
X148423461Y-93035564D01*
X148634759Y-92526702D01*
X148635240Y-91975715D01*
X148424831Y-91466485D01*
X148035564Y-91076539D01*
X147725492Y-90947786D01*
X147918700Y-90818689D01*
X160575080Y-78162309D01*
X160745246Y-77907637D01*
X160805001Y-77607230D01*
X160805001Y-75330004D01*
X160805002Y-75329999D01*
X160745246Y-75029593D01*
X160575080Y-74774920D01*
X160345091Y-74544931D01*
X160136474Y-74405538D01*
X160237032Y-73900000D01*
X160131605Y-73369983D01*
X159831375Y-72920657D01*
X159396376Y-72630000D01*
X159831375Y-72339343D01*
X160131605Y-71890017D01*
X160237032Y-71360000D01*
X160131605Y-70829983D01*
X159831375Y-70380657D01*
X159396376Y-70090000D01*
X159831375Y-69799343D01*
X160131605Y-69350017D01*
X160237032Y-68820000D01*
X160131605Y-68289983D01*
X159831375Y-67840657D01*
X159396376Y-67550000D01*
X159831375Y-67259343D01*
X160131605Y-66810017D01*
X160237032Y-66280000D01*
X160131605Y-65749983D01*
X159925581Y-65441647D01*
X160575089Y-64792139D01*
X160636926Y-64699593D01*
X160745255Y-64537466D01*
X160805010Y-64237060D01*
X160805010Y-54920015D01*
X160805011Y-54920010D01*
X160745255Y-54619604D01*
X160702140Y-54555078D01*
X160575089Y-54364931D01*
X160575086Y-54364929D01*
X158554758Y-52344600D01*
X158517676Y-52307518D01*
X158634352Y-52026531D01*
X158635006Y-51276759D01*
X158348686Y-50583809D01*
X157818979Y-50053178D01*
X157126531Y-49765648D01*
X156376759Y-49764994D01*
X155683809Y-50051314D01*
X155153178Y-50581021D01*
X154865648Y-51273469D01*
X154865568Y-51365100D01*
X154475715Y-51364760D01*
X153966485Y-51575169D01*
X153576539Y-51964436D01*
X153365241Y-52473298D01*
X153364760Y-53024285D01*
X153575169Y-53533515D01*
X153964436Y-53923461D01*
X154473298Y-54134759D01*
X155024285Y-54135240D01*
X155533515Y-53924831D01*
X155923461Y-53535564D01*
X155990070Y-53375151D01*
X156373469Y-53534352D01*
X157123241Y-53535006D01*
X157407426Y-53417584D01*
X157444600Y-53454758D01*
X159235010Y-55245167D01*
X159235010Y-57353892D01*
X158916055Y-57267261D01*
X158697000Y-57428132D01*
X158697000Y-58533000D01*
X158717000Y-58533000D01*
X158717000Y-58787000D01*
X158697000Y-58787000D01*
X158697000Y-58807000D01*
X158443000Y-58807000D01*
X158443000Y-58787000D01*
X158423000Y-58787000D01*
X158423000Y-58533000D01*
X158443000Y-58533000D01*
X158443000Y-57428132D01*
X158223945Y-57267261D01*
X157698279Y-57410036D01*
X157267264Y-57743106D01*
X157066865Y-58092957D01*
X156791375Y-57680657D01*
X156342049Y-57380427D01*
X155812032Y-57275000D01*
X155247968Y-57275000D01*
X154717951Y-57380427D01*
X154268625Y-57680657D01*
X153968395Y-58129983D01*
X153862968Y-58660000D01*
X153912951Y-58911279D01*
X153749220Y-59075010D01*
X150148823Y-59075010D01*
X150162318Y-59001185D01*
X150039656Y-58787000D01*
X148697000Y-58787000D01*
X148697000Y-58807000D01*
X148443000Y-58807000D01*
X148443000Y-58787000D01*
X148423000Y-58787000D01*
X148423000Y-58533000D01*
X148443000Y-58533000D01*
X148443000Y-57428132D01*
X148697000Y-57428132D01*
X148697000Y-58533000D01*
X150039656Y-58533000D01*
X150162318Y-58318815D01*
X150143481Y-58215765D01*
X149872736Y-57743106D01*
X149441721Y-57410036D01*
X148916055Y-57267261D01*
X148697000Y-57428132D01*
X148443000Y-57428132D01*
X148223945Y-57267261D01*
X147698279Y-57410036D01*
X147486360Y-57573798D01*
X152305079Y-52755079D01*
X152450120Y-52538009D01*
X152635317Y-52503162D01*
X152851441Y-52364090D01*
X152996431Y-52151890D01*
X153047440Y-51900000D01*
X153047440Y-51885338D01*
X153167557Y-51805079D01*
X157535035Y-47437601D01*
X157650674Y-47717471D01*
X158180381Y-48248102D01*
X158872829Y-48535632D01*
X159622601Y-48536286D01*
X160315551Y-48249966D01*
X160846182Y-47720259D01*
X161133712Y-47027811D01*
X161134366Y-46278039D01*
X160848046Y-45585089D01*
X160318339Y-45054458D01*
X159625891Y-44766928D01*
X158876119Y-44766274D01*
X158183169Y-45052594D01*
X157652538Y-45582301D01*
X157534619Y-45866280D01*
X157211198Y-45866280D01*
X156910791Y-45926035D01*
X156656119Y-46096201D01*
X156135085Y-46617235D01*
X156124568Y-46225896D01*
X155876499Y-45627005D01*
X155583729Y-45497797D01*
X154430245Y-46651280D01*
X154444388Y-46665422D01*
X154264782Y-46845028D01*
X154250640Y-46830885D01*
X153097157Y-47984369D01*
X153226365Y-48277139D01*
X153926523Y-48545351D01*
X154214714Y-48537606D01*
X152709433Y-50042887D01*
X152651890Y-50003569D01*
X152400000Y-49952560D01*
X152237615Y-49952560D01*
X152413729Y-49879611D01*
X152469410Y-49649016D01*
X151750000Y-48929605D01*
X151030590Y-49649016D01*
X151086271Y-49879611D01*
X151295902Y-49952560D01*
X151100000Y-49952560D01*
X150864683Y-49996838D01*
X150648559Y-50135910D01*
X150503569Y-50348110D01*
X150452560Y-50600000D01*
X150452560Y-51292073D01*
X150026702Y-51115241D01*
X149475715Y-51114760D01*
X148966485Y-51325169D01*
X148735576Y-51555676D01*
X148735646Y-51475479D01*
X148449326Y-50782529D01*
X147919619Y-50251898D01*
X147227171Y-49964368D01*
X146477399Y-49963714D01*
X145784449Y-50250034D01*
X145253818Y-50779741D01*
X145135899Y-51063720D01*
X142686280Y-51063720D01*
X142385874Y-51123475D01*
X142131201Y-51293641D01*
X139829399Y-53595443D01*
X139824100Y-53593243D01*
X139268339Y-53592758D01*
X139117999Y-53654877D01*
X139117999Y-52717159D01*
X139260601Y-52574557D01*
X139265900Y-52576757D01*
X139821661Y-52577242D01*
X140335303Y-52365010D01*
X140728629Y-51972370D01*
X140941757Y-51459100D01*
X140942242Y-50903339D01*
X140730010Y-50389697D01*
X140337370Y-49996371D01*
X139824100Y-49783243D01*
X139268339Y-49782758D01*
X138754697Y-49994990D01*
X138361371Y-50387630D01*
X138358311Y-50395000D01*
X134856726Y-50395000D01*
X134556319Y-50454755D01*
X134301647Y-50624921D01*
X129408289Y-55518279D01*
X129511757Y-55269100D01*
X129512242Y-54713339D01*
X129300010Y-54199697D01*
X128907370Y-53806371D01*
X128394100Y-53593243D01*
X127838339Y-53592758D01*
X127534995Y-53718097D01*
X127534995Y-52451811D01*
X127835900Y-52576757D01*
X128391661Y-52577242D01*
X128905303Y-52365010D01*
X129298629Y-51972370D01*
X129511757Y-51459100D01*
X129511819Y-51388313D01*
X131931285Y-48968848D01*
X133823740Y-48968848D01*
X134223298Y-49134759D01*
X134774285Y-49135240D01*
X135176985Y-48968848D01*
X141831467Y-48968848D01*
X142564865Y-49702247D01*
X142895346Y-49923067D01*
X142933086Y-49948284D01*
X143367432Y-50034681D01*
X145335128Y-50034681D01*
X145769474Y-49948284D01*
X146137694Y-49702247D01*
X147837457Y-48002484D01*
X148281021Y-48446822D01*
X148973469Y-48734352D01*
X149723241Y-48735006D01*
X150416191Y-48448686D01*
X150535835Y-48329250D01*
X150452378Y-48569078D01*
X150481917Y-49079428D01*
X150620389Y-49413729D01*
X150850984Y-49469410D01*
X151570395Y-48750000D01*
X151929605Y-48750000D01*
X152649016Y-49469410D01*
X152879611Y-49413729D01*
X153047622Y-48930922D01*
X153018083Y-48420572D01*
X152879611Y-48086271D01*
X152649016Y-48030590D01*
X151929605Y-48750000D01*
X151570395Y-48750000D01*
X151556252Y-48735858D01*
X151735858Y-48556252D01*
X151750000Y-48570395D01*
X152469410Y-47850984D01*
X152413729Y-47620389D01*
X151930922Y-47452378D01*
X151420572Y-47481917D01*
X151086271Y-47620389D01*
X151030590Y-47850982D01*
X150991351Y-47811743D01*
X151234352Y-47226531D01*
X151235006Y-46476759D01*
X151173195Y-46327163D01*
X152356569Y-46327163D01*
X152376712Y-47076664D01*
X152624781Y-47675555D01*
X152917551Y-47804763D01*
X154071035Y-46651280D01*
X152917551Y-45497797D01*
X152624781Y-45627005D01*
X152356569Y-46327163D01*
X151173195Y-46327163D01*
X150948686Y-45783809D01*
X150483879Y-45318191D01*
X153097157Y-45318191D01*
X154250640Y-46471675D01*
X155404123Y-45318191D01*
X155274915Y-45025421D01*
X154574757Y-44757209D01*
X153825256Y-44777352D01*
X153226365Y-45025421D01*
X153097157Y-45318191D01*
X150483879Y-45318191D01*
X150418979Y-45253178D01*
X149726531Y-44965648D01*
X148976759Y-44964994D01*
X148283809Y-45251314D01*
X147819314Y-45715000D01*
X147384809Y-45715000D01*
X146950464Y-45801396D01*
X146582243Y-46047434D01*
X146219307Y-46410370D01*
X145977139Y-45825725D01*
X145684369Y-45696517D01*
X144530885Y-46850000D01*
X144545028Y-46864143D01*
X144365423Y-47043748D01*
X144351280Y-47029605D01*
X144337138Y-47043748D01*
X144157533Y-46864143D01*
X144171675Y-46850000D01*
X144157532Y-46835858D01*
X144337138Y-46656252D01*
X144351280Y-46670395D01*
X145504763Y-45516911D01*
X145375555Y-45224141D01*
X144675397Y-44955929D01*
X143925896Y-44976072D01*
X143436599Y-45178746D01*
X143436599Y-42012051D01*
X144402556Y-41046094D01*
X144418776Y-41021819D01*
X144421629Y-41017549D01*
X144528279Y-41099964D01*
X145053945Y-41242739D01*
X145273000Y-41081868D01*
X145273000Y-39977000D01*
X145527000Y-39977000D01*
X145527000Y-41081868D01*
X145746055Y-41242739D01*
X146271721Y-41099964D01*
X146702736Y-40766894D01*
X146805000Y-40588364D01*
X146805000Y-40726309D01*
X146901673Y-40959698D01*
X147080301Y-41138327D01*
X147313690Y-41235000D01*
X148154250Y-41235000D01*
X148313000Y-41076250D01*
X148313000Y-39977000D01*
X148567000Y-39977000D01*
X148567000Y-41076250D01*
X148725750Y-41235000D01*
X149566310Y-41235000D01*
X149799699Y-41138327D01*
X149978327Y-40959698D01*
X150075000Y-40726309D01*
X150075000Y-40171185D01*
X153637682Y-40171185D01*
X153656519Y-40274235D01*
X153927264Y-40746894D01*
X154358279Y-41079964D01*
X154883945Y-41222739D01*
X155103000Y-41061868D01*
X155103000Y-39957000D01*
X155357000Y-39957000D01*
X155357000Y-41061868D01*
X155576055Y-41222739D01*
X156101721Y-41079964D01*
X156532736Y-40746894D01*
X156635000Y-40568364D01*
X156635000Y-40706309D01*
X156731673Y-40939698D01*
X156910301Y-41118327D01*
X157143690Y-41215000D01*
X157984250Y-41215000D01*
X158143000Y-41056250D01*
X158143000Y-39957000D01*
X158397000Y-39957000D01*
X158397000Y-41056250D01*
X158555750Y-41215000D01*
X159396310Y-41215000D01*
X159629699Y-41118327D01*
X159808327Y-40939698D01*
X159905000Y-40706309D01*
X159905000Y-40115750D01*
X159746250Y-39957000D01*
X158397000Y-39957000D01*
X158143000Y-39957000D01*
X156793750Y-39957000D01*
X156733920Y-40016830D01*
X156699656Y-39957000D01*
X155357000Y-39957000D01*
X155103000Y-39957000D01*
X153760344Y-39957000D01*
X153637682Y-40171185D01*
X150075000Y-40171185D01*
X150075000Y-40135750D01*
X149916250Y-39977000D01*
X148567000Y-39977000D01*
X148313000Y-39977000D01*
X146963750Y-39977000D01*
X146903920Y-40036830D01*
X146869656Y-39977000D01*
X145527000Y-39977000D01*
X145273000Y-39977000D01*
X145253000Y-39977000D01*
X145253000Y-39723000D01*
X145273000Y-39723000D01*
X145273000Y-39703000D01*
X145527000Y-39703000D01*
X145527000Y-39723000D01*
X146869656Y-39723000D01*
X146903920Y-39663170D01*
X146963750Y-39723000D01*
X148313000Y-39723000D01*
X148313000Y-39703000D01*
X148567000Y-39703000D01*
X148567000Y-39723000D01*
X149916250Y-39723000D01*
X150075000Y-39564250D01*
X150075000Y-38973691D01*
X149978327Y-38740302D01*
X149799699Y-38561673D01*
X149566310Y-38465000D01*
X149438486Y-38465000D01*
X149468418Y-38445000D01*
X154231514Y-38445000D01*
X154411839Y-38565489D01*
X154358279Y-38580036D01*
X153927264Y-38913106D01*
X153656519Y-39385765D01*
X153637682Y-39488815D01*
X153760344Y-39703000D01*
X155103000Y-39703000D01*
X155103000Y-39683000D01*
X155357000Y-39683000D01*
X155357000Y-39703000D01*
X156699656Y-39703000D01*
X156733920Y-39643170D01*
X156793750Y-39703000D01*
X158143000Y-39703000D01*
X158143000Y-39683000D01*
X158397000Y-39683000D01*
X158397000Y-39703000D01*
X159746250Y-39703000D01*
X159905000Y-39544250D01*
X159905000Y-38953691D01*
X159808327Y-38720302D01*
X159629699Y-38541673D01*
X159396310Y-38445000D01*
X159268486Y-38445000D01*
X159531375Y-38269343D01*
X159831605Y-37820017D01*
X159937032Y-37290000D01*
X159910510Y-37156667D01*
X160872576Y-36194601D01*
X160892408Y-36164921D01*
X161118613Y-35826381D01*
X161205010Y-35392035D01*
X161205010Y-29027965D01*
X161118613Y-28593619D01*
X160872576Y-28225399D01*
X159364590Y-26717413D01*
X159210489Y-26614446D01*
X158996370Y-26471376D01*
X158562024Y-26384979D01*
X156570873Y-26384979D01*
X150092572Y-19906678D01*
X150123000Y-19876250D01*
X150123000Y-18877000D01*
X150377000Y-18877000D01*
X150377000Y-19876250D01*
X150535750Y-20035000D01*
X151026309Y-20035000D01*
X151259698Y-19938327D01*
X151438327Y-19759699D01*
X151535000Y-19526310D01*
X151535000Y-19340168D01*
X154564397Y-19340168D01*
X155093838Y-20621515D01*
X156073329Y-21602716D01*
X157353749Y-22134394D01*
X158740168Y-22135603D01*
X160021515Y-21606162D01*
X161002716Y-20626671D01*
X161534394Y-19346251D01*
X161535603Y-17959832D01*
X161006162Y-16678485D01*
X160026671Y-15697284D01*
X158746251Y-15165606D01*
X157359832Y-15164397D01*
X156078485Y-15693838D01*
X155097284Y-16673329D01*
X154565606Y-17953749D01*
X154564397Y-19340168D01*
X151535000Y-19340168D01*
X151535000Y-19035750D01*
X151376250Y-18877000D01*
X150377000Y-18877000D01*
X150123000Y-18877000D01*
X150103000Y-18877000D01*
X150103000Y-18623000D01*
X150123000Y-18623000D01*
X150123000Y-17623750D01*
X150377000Y-17623750D01*
X150377000Y-18623000D01*
X151376250Y-18623000D01*
X151535000Y-18464250D01*
X151535000Y-17973690D01*
X151438327Y-17740301D01*
X151259698Y-17561673D01*
X151026309Y-17465000D01*
X150535750Y-17465000D01*
X150377000Y-17623750D01*
X150123000Y-17623750D01*
X149964250Y-17465000D01*
X149473691Y-17465000D01*
X149240302Y-17561673D01*
X149061673Y-17740301D01*
X148992500Y-17907299D01*
X148684346Y-17701397D01*
X148475402Y-17659835D01*
X148006724Y-17465223D01*
X147495519Y-17464777D01*
X147023057Y-17659995D01*
X146661265Y-18021155D01*
X146465223Y-18493276D01*
X146464899Y-18865000D01*
X144891049Y-18865000D01*
X144869162Y-18748683D01*
X144730090Y-18532559D01*
X144567052Y-18421160D01*
X144656385Y-18324818D01*
X144855975Y-17842944D01*
X144736836Y-17587000D01*
X143377000Y-17587000D01*
X143377000Y-17607000D01*
X143123000Y-17607000D01*
X143123000Y-17587000D01*
X141763164Y-17587000D01*
X141644025Y-17842944D01*
X141843615Y-18324818D01*
X141934097Y-18422398D01*
X141782559Y-18519910D01*
X141637569Y-18732110D01*
X141610658Y-18865000D01*
X140380538Y-18865000D01*
X139946192Y-18951397D01*
X139708177Y-19110434D01*
X139577972Y-19197434D01*
X126720406Y-32055000D01*
X124212767Y-32055000D01*
X123927264Y-31864233D01*
X123378113Y-31755000D01*
X123321887Y-31755000D01*
X122772736Y-31864233D01*
X122307189Y-32175302D01*
X121996120Y-32640849D01*
X121886887Y-33190000D01*
X121996120Y-33739151D01*
X122307189Y-34204698D01*
X122711703Y-34474986D01*
X122494866Y-34577611D01*
X122118959Y-34992577D01*
X121958096Y-35380961D01*
X122080085Y-35603000D01*
X123223000Y-35603000D01*
X123223000Y-35583000D01*
X123477000Y-35583000D01*
X123477000Y-35603000D01*
X124619915Y-35603000D01*
X124741904Y-35380961D01*
X124581041Y-34992577D01*
X124205134Y-34577611D01*
X123988297Y-34474986D01*
X124212767Y-34325000D01*
X126288898Y-34325000D01*
X124668488Y-35945410D01*
X124619915Y-35857000D01*
X123477000Y-35857000D01*
X123477000Y-35877000D01*
X123223000Y-35877000D01*
X123223000Y-35857000D01*
X122080085Y-35857000D01*
X121958096Y-36079039D01*
X122118959Y-36467423D01*
X122494866Y-36882389D01*
X122711703Y-36985014D01*
X122307189Y-37255302D01*
X121996120Y-37720849D01*
X121886887Y-38270000D01*
X121996120Y-38819151D01*
X122307189Y-39284698D01*
X122689275Y-39540000D01*
X122307189Y-39795302D01*
X121996120Y-40260849D01*
X121886887Y-40810000D01*
X121996120Y-41359151D01*
X122307189Y-41824698D01*
X122689275Y-42080000D01*
X122307189Y-42335302D01*
X121996120Y-42800849D01*
X121886887Y-43350000D01*
X121996120Y-43899151D01*
X122307189Y-44364698D01*
X122689275Y-44620000D01*
X122307189Y-44875302D01*
X121996120Y-45340849D01*
X121886887Y-45890000D01*
X121996120Y-46439151D01*
X122307189Y-46904698D01*
X122689275Y-47160000D01*
X122307189Y-47415302D01*
X121996120Y-47880849D01*
X121886887Y-48430000D01*
X121996120Y-48979151D01*
X122307189Y-49444698D01*
X122689275Y-49700000D01*
X122307189Y-49955302D01*
X121996120Y-50420849D01*
X121886887Y-50970000D01*
X121996120Y-51519151D01*
X122307189Y-51984698D01*
X122689275Y-52240000D01*
X122307189Y-52495302D01*
X121996120Y-52960849D01*
X121886887Y-53510000D01*
X121996120Y-54059151D01*
X122167589Y-54315771D01*
X120394932Y-56088428D01*
X120224766Y-56343100D01*
X120189538Y-56520204D01*
X120165011Y-56643507D01*
X120165011Y-57568349D01*
X117568350Y-60165010D01*
X117181650Y-60165010D01*
X115264999Y-58248359D01*
X115264999Y-57387032D01*
X115380959Y-57441914D01*
X115603000Y-57320629D01*
X115603000Y-56177000D01*
X115857000Y-56177000D01*
X115857000Y-57320629D01*
X116079041Y-57441914D01*
X116585134Y-57202389D01*
X116961041Y-56787423D01*
X117121904Y-56399039D01*
X116999915Y-56177000D01*
X115857000Y-56177000D01*
X115603000Y-56177000D01*
X115583000Y-56177000D01*
X115583000Y-55923000D01*
X115603000Y-55923000D01*
X115603000Y-55903000D01*
X115857000Y-55903000D01*
X115857000Y-55923000D01*
X116999915Y-55923000D01*
X117121904Y-55700961D01*
X116961041Y-55312577D01*
X116926127Y-55274035D01*
X117555079Y-54645083D01*
X117725245Y-54390410D01*
X117785001Y-54090004D01*
X117785000Y-54089999D01*
X117785000Y-52970001D01*
X117763043Y-52859618D01*
X117725245Y-52669594D01*
X117555079Y-52414922D01*
X116913820Y-51773663D01*
X117083880Y-51519151D01*
X117193113Y-50970000D01*
X117083880Y-50420849D01*
X116772811Y-49955302D01*
X116390725Y-49700000D01*
X116772811Y-49444698D01*
X117083880Y-48979151D01*
X117193113Y-48430000D01*
X117083880Y-47880849D01*
X116772811Y-47415302D01*
X116390725Y-47160000D01*
X116772811Y-46904698D01*
X117083880Y-46439151D01*
X117193113Y-45890000D01*
X117083880Y-45340849D01*
X116772811Y-44875302D01*
X116390725Y-44620000D01*
X116772811Y-44364698D01*
X117083880Y-43899151D01*
X117193113Y-43350000D01*
X117083880Y-42800849D01*
X116772811Y-42335302D01*
X116390725Y-42080000D01*
X116772811Y-41824698D01*
X117083880Y-41359151D01*
X117193113Y-40810000D01*
X117083880Y-40260849D01*
X116772811Y-39795302D01*
X116390725Y-39540000D01*
X116772811Y-39284698D01*
X117083880Y-38819151D01*
X117193113Y-38270000D01*
X117083880Y-37720849D01*
X116772811Y-37255302D01*
X116390725Y-37000000D01*
X116772811Y-36744698D01*
X117083880Y-36279151D01*
X117193113Y-35730000D01*
X117083880Y-35180849D01*
X116772811Y-34715302D01*
X116368297Y-34445014D01*
X116585134Y-34342389D01*
X116961041Y-33927423D01*
X117121904Y-33539039D01*
X116999915Y-33317000D01*
X115857000Y-33317000D01*
X115857000Y-33337000D01*
X115603000Y-33337000D01*
X115603000Y-33317000D01*
X114460085Y-33317000D01*
X114338096Y-33539039D01*
X114498959Y-33927423D01*
X114874866Y-34342389D01*
X115091703Y-34445014D01*
X114687189Y-34715302D01*
X114376120Y-35180849D01*
X114266887Y-35730000D01*
X114325446Y-36024396D01*
X107394931Y-42954911D01*
X107224765Y-43209583D01*
X107180450Y-43432368D01*
X107165010Y-43509990D01*
X107165010Y-43672676D01*
X107026692Y-43615241D01*
X106616452Y-43614883D01*
X106215000Y-43213430D01*
X106215000Y-34974413D01*
X106309343Y-34911375D01*
X106605489Y-34468161D01*
X106620036Y-34521721D01*
X106953106Y-34952736D01*
X107425765Y-35223481D01*
X107528815Y-35242318D01*
X107743000Y-35119656D01*
X107743000Y-33777000D01*
X107997000Y-33777000D01*
X107997000Y-35119656D01*
X108211185Y-35242318D01*
X108314235Y-35223481D01*
X108786894Y-34952736D01*
X109119964Y-34521721D01*
X109262739Y-33996055D01*
X109101868Y-33777000D01*
X107997000Y-33777000D01*
X107743000Y-33777000D01*
X107723000Y-33777000D01*
X107723000Y-33523000D01*
X107743000Y-33523000D01*
X107743000Y-32180344D01*
X107683170Y-32146080D01*
X107743000Y-32086250D01*
X107743000Y-30737000D01*
X107997000Y-30737000D01*
X107997000Y-32086250D01*
X108056830Y-32146080D01*
X107997000Y-32180344D01*
X107997000Y-33523000D01*
X109101868Y-33523000D01*
X109262739Y-33303945D01*
X109136989Y-32840961D01*
X114338096Y-32840961D01*
X114460085Y-33063000D01*
X115603000Y-33063000D01*
X115603000Y-31919371D01*
X115857000Y-31919371D01*
X115857000Y-33063000D01*
X116999915Y-33063000D01*
X117121904Y-32840961D01*
X116961041Y-32452577D01*
X116585134Y-32037611D01*
X116079041Y-31798086D01*
X115857000Y-31919371D01*
X115603000Y-31919371D01*
X115380959Y-31798086D01*
X114874866Y-32037611D01*
X114498959Y-32452577D01*
X114338096Y-32840961D01*
X109136989Y-32840961D01*
X109119964Y-32778279D01*
X108786894Y-32347264D01*
X108608364Y-32245000D01*
X108746309Y-32245000D01*
X108979698Y-32148327D01*
X109158327Y-31969699D01*
X109255000Y-31736310D01*
X109255000Y-30895750D01*
X109096250Y-30737000D01*
X107997000Y-30737000D01*
X107743000Y-30737000D01*
X107723000Y-30737000D01*
X107723000Y-30483000D01*
X107743000Y-30483000D01*
X107743000Y-30463000D01*
X107997000Y-30463000D01*
X107997000Y-30483000D01*
X109096250Y-30483000D01*
X109144911Y-30434339D01*
X109217141Y-30506569D01*
X109217143Y-30506572D01*
X109504258Y-30698415D01*
X109842933Y-30765782D01*
X110476497Y-30765782D01*
X110764456Y-31054243D01*
X111273318Y-31265541D01*
X111824305Y-31266022D01*
X112333535Y-31055613D01*
X112623872Y-30765782D01*
X114634274Y-30765782D01*
X114634279Y-30765783D01*
X114916763Y-30709592D01*
X114972954Y-30698415D01*
X115260069Y-30506572D01*
X115260070Y-30506571D01*
X115681651Y-30084989D01*
X126650006Y-30084989D01*
X126650011Y-30084990D01*
X126932495Y-30028799D01*
X126988686Y-30017622D01*
X127275801Y-29825779D01*
X127275802Y-29825778D01*
X134781994Y-22319585D01*
X134799983Y-22331605D01*
X135330000Y-22437032D01*
X135860017Y-22331605D01*
X136309343Y-22031375D01*
X136609573Y-21582049D01*
X136715000Y-21052032D01*
X136715000Y-20487968D01*
X136609573Y-19957951D01*
X136309343Y-19508625D01*
X136094393Y-19365000D01*
X136206309Y-19365000D01*
X136439698Y-19268327D01*
X136618327Y-19089699D01*
X136715000Y-18856310D01*
X136715000Y-18015750D01*
X136556250Y-17857000D01*
X135457000Y-17857000D01*
X135457000Y-17877000D01*
X135203000Y-17877000D01*
X135203000Y-17857000D01*
X135183000Y-17857000D01*
X135183000Y-17603000D01*
X135203000Y-17603000D01*
X135203000Y-16253750D01*
X135457000Y-16253750D01*
X135457000Y-17603000D01*
X136556250Y-17603000D01*
X136715000Y-17444250D01*
X136715000Y-17077056D01*
X141644025Y-17077056D01*
X141763164Y-17333000D01*
X143123000Y-17333000D01*
X143123000Y-15972633D01*
X143377000Y-15972633D01*
X143377000Y-17333000D01*
X144736836Y-17333000D01*
X144855975Y-17077056D01*
X144656385Y-16595182D01*
X144218379Y-16122812D01*
X143632946Y-15854017D01*
X143377000Y-15972633D01*
X143123000Y-15972633D01*
X142867054Y-15854017D01*
X142281621Y-16122812D01*
X141843615Y-16595182D01*
X141644025Y-17077056D01*
X136715000Y-17077056D01*
X136715000Y-16603690D01*
X136618327Y-16370301D01*
X136439698Y-16191673D01*
X136206309Y-16095000D01*
X135615750Y-16095000D01*
X135457000Y-16253750D01*
X135203000Y-16253750D01*
X135044250Y-16095000D01*
X134453691Y-16095000D01*
X134220302Y-16191673D01*
X134041673Y-16370301D01*
X133945000Y-16603690D01*
X133945000Y-16731514D01*
X133769343Y-16468625D01*
X133320017Y-16168395D01*
X132790000Y-16062968D01*
X132259983Y-16168395D01*
X131810657Y-16468625D01*
X131559171Y-16845000D01*
X131480829Y-16845000D01*
X131229343Y-16468625D01*
X130780017Y-16168395D01*
X130250000Y-16062968D01*
X129719983Y-16168395D01*
X129270657Y-16468625D01*
X129019171Y-16845000D01*
X128940829Y-16845000D01*
X128689343Y-16468625D01*
X128240017Y-16168395D01*
X127710000Y-16062968D01*
X127179983Y-16168395D01*
X126730657Y-16468625D01*
X126479171Y-16845000D01*
X126400829Y-16845000D01*
X126149343Y-16468625D01*
X125700017Y-16168395D01*
X125170000Y-16062968D01*
X124639983Y-16168395D01*
X124190657Y-16468625D01*
X123890427Y-16917951D01*
X123785000Y-17447968D01*
X123785000Y-18012032D01*
X123890427Y-18542049D01*
X124190657Y-18991375D01*
X124577717Y-19250000D01*
X124190657Y-19508625D01*
X123890427Y-19957951D01*
X123785000Y-20487968D01*
X123785000Y-20794842D01*
X120514842Y-24065000D01*
X114574318Y-24065000D01*
X114705787Y-23933531D01*
X114705790Y-23933529D01*
X114897633Y-23646414D01*
X114897634Y-23646413D01*
X114965001Y-23307739D01*
X114965000Y-23307734D01*
X114965000Y-22094413D01*
X115059343Y-22031375D01*
X115359573Y-21582049D01*
X115465000Y-21052032D01*
X115465000Y-20487968D01*
X115359573Y-19957951D01*
X115059343Y-19508625D01*
X114844393Y-19365000D01*
X114956309Y-19365000D01*
X115189698Y-19268327D01*
X115368327Y-19089699D01*
X115465000Y-18856310D01*
X115465000Y-18015750D01*
X115306250Y-17857000D01*
X114207000Y-17857000D01*
X114207000Y-17877000D01*
X113953000Y-17877000D01*
X113953000Y-17857000D01*
X113933000Y-17857000D01*
X113933000Y-17603000D01*
X113953000Y-17603000D01*
X113953000Y-16253750D01*
X114207000Y-16253750D01*
X114207000Y-17603000D01*
X115306250Y-17603000D01*
X115465000Y-17444250D01*
X115465000Y-16603690D01*
X115368327Y-16370301D01*
X115189698Y-16191673D01*
X114956309Y-16095000D01*
X114365750Y-16095000D01*
X114207000Y-16253750D01*
X113953000Y-16253750D01*
X113794250Y-16095000D01*
X113203691Y-16095000D01*
X112970302Y-16191673D01*
X112791673Y-16370301D01*
X112695000Y-16603690D01*
X112695000Y-16731514D01*
X112519343Y-16468625D01*
X112070017Y-16168395D01*
X111540000Y-16062968D01*
X111009983Y-16168395D01*
X110560657Y-16468625D01*
X110270000Y-16903624D01*
X109979343Y-16468625D01*
X109530017Y-16168395D01*
X109000000Y-16062968D01*
X108469983Y-16168395D01*
X108020657Y-16468625D01*
X107730000Y-16903624D01*
X107439343Y-16468625D01*
X106990017Y-16168395D01*
X106460000Y-16062968D01*
X105929983Y-16168395D01*
X105480657Y-16468625D01*
X105190000Y-16903624D01*
X104899343Y-16468625D01*
X104450017Y-16168395D01*
X103920000Y-16062968D01*
X103389983Y-16168395D01*
X102940657Y-16468625D01*
X102640427Y-16917951D01*
X102535000Y-17447968D01*
X102535000Y-18012032D01*
X102640427Y-18542049D01*
X102940657Y-18991375D01*
X103327717Y-19250000D01*
X102940657Y-19508625D01*
X102640427Y-19957951D01*
X102535000Y-20487968D01*
X102535000Y-20794842D01*
X101894833Y-21435009D01*
X99435995Y-21435009D01*
X99135589Y-21494764D01*
X98880916Y-21664930D01*
X98710750Y-21919603D01*
X98689546Y-22026203D01*
X96505098Y-24210650D01*
X96424831Y-24016389D01*
X96035564Y-23626443D01*
X95526702Y-23415145D01*
X95111824Y-23414783D01*
X95039852Y-23366693D01*
X94838676Y-23232272D01*
X94782485Y-23221095D01*
X94500001Y-23164904D01*
X94499996Y-23164905D01*
X94186484Y-23164905D01*
X93331982Y-22310403D01*
X93746894Y-22072736D01*
X94079964Y-21641721D01*
X94222739Y-21116055D01*
X94061868Y-20897000D01*
X92957000Y-20897000D01*
X92957000Y-20917000D01*
X92703000Y-20917000D01*
X92703000Y-20897000D01*
X92683000Y-20897000D01*
X92683000Y-20643000D01*
X92703000Y-20643000D01*
X92703000Y-19300344D01*
X92643170Y-19266080D01*
X92703000Y-19206250D01*
X92703000Y-17857000D01*
X92957000Y-17857000D01*
X92957000Y-19206250D01*
X93016830Y-19266080D01*
X92957000Y-19300344D01*
X92957000Y-20643000D01*
X94061868Y-20643000D01*
X94222739Y-20423945D01*
X94079964Y-19898279D01*
X93746894Y-19467264D01*
X93568364Y-19365000D01*
X93706309Y-19365000D01*
X93939698Y-19268327D01*
X94118327Y-19089699D01*
X94215000Y-18856310D01*
X94215000Y-18015750D01*
X94056250Y-17857000D01*
X92957000Y-17857000D01*
X92703000Y-17857000D01*
X92683000Y-17857000D01*
X92683000Y-17603000D01*
X92703000Y-17603000D01*
X92703000Y-16253750D01*
X92957000Y-16253750D01*
X92957000Y-17603000D01*
X94056250Y-17603000D01*
X94215000Y-17444250D01*
X94215000Y-16603690D01*
X94118327Y-16370301D01*
X93939698Y-16191673D01*
X93706309Y-16095000D01*
X93115750Y-16095000D01*
X92957000Y-16253750D01*
X92703000Y-16253750D01*
X92544250Y-16095000D01*
X91953691Y-16095000D01*
X91720302Y-16191673D01*
X91541673Y-16370301D01*
X91445000Y-16603690D01*
X91445000Y-16731514D01*
X91269343Y-16468625D01*
X90820017Y-16168395D01*
X90290000Y-16062968D01*
X89759983Y-16168395D01*
X89310657Y-16468625D01*
X89020000Y-16903624D01*
X88729343Y-16468625D01*
X88280017Y-16168395D01*
X87750000Y-16062968D01*
X87219983Y-16168395D01*
X86770657Y-16468625D01*
X86480000Y-16903624D01*
X86189343Y-16468625D01*
X85740017Y-16168395D01*
X85210000Y-16062968D01*
X84679983Y-16168395D01*
X84230657Y-16468625D01*
X83940000Y-16903624D01*
X83649343Y-16468625D01*
X83200017Y-16168395D01*
X82670000Y-16062968D01*
X82139983Y-16168395D01*
X81690657Y-16468625D01*
X81390427Y-16917951D01*
X81285000Y-17447968D01*
X81285000Y-18012032D01*
X81325285Y-18214557D01*
X78944921Y-20594921D01*
X78774755Y-20849593D01*
X78772254Y-20862166D01*
X78715000Y-21150000D01*
X78715000Y-25126671D01*
X78326539Y-25514456D01*
X78115241Y-26023318D01*
X78114760Y-26574305D01*
X78325169Y-27083535D01*
X78714436Y-27473481D01*
X79223298Y-27684779D01*
X79774285Y-27685260D01*
X80242117Y-27491956D01*
X80242117Y-28848063D01*
X80276033Y-29018568D01*
X80271185Y-29017682D01*
X80057000Y-29140344D01*
X80057000Y-30483000D01*
X80077000Y-30483000D01*
X80077000Y-30737000D01*
X80057000Y-30737000D01*
X80057000Y-30757000D01*
X79803000Y-30757000D01*
X79803000Y-30737000D01*
X79783000Y-30737000D01*
X79783000Y-30483000D01*
X79803000Y-30483000D01*
X79803000Y-29140344D01*
X79588815Y-29017682D01*
X79485765Y-29036519D01*
X79013106Y-29307264D01*
X78680036Y-29738279D01*
X78665489Y-29791839D01*
X78369343Y-29348625D01*
X77920017Y-29048395D01*
X77390000Y-28942968D01*
X76859983Y-29048395D01*
X76551647Y-29254419D01*
X73732411Y-26435183D01*
X73774285Y-26435220D01*
X74283515Y-26224811D01*
X74673461Y-25835544D01*
X74884759Y-25326682D01*
X74885240Y-24775695D01*
X74674831Y-24266465D01*
X74285564Y-23876519D01*
X73776702Y-23665221D01*
X73366462Y-23664863D01*
X72465000Y-22763400D01*
X72465000Y-22094413D01*
X72559343Y-22031375D01*
X72859573Y-21582049D01*
X72965000Y-21052032D01*
X72965000Y-20487968D01*
X72859573Y-19957951D01*
X72559343Y-19508625D01*
X72344393Y-19365000D01*
X72456309Y-19365000D01*
X72689698Y-19268327D01*
X72868327Y-19089699D01*
X72965000Y-18856310D01*
X72965000Y-18015750D01*
X72806250Y-17857000D01*
X71707000Y-17857000D01*
X71707000Y-17877000D01*
X71453000Y-17877000D01*
X71453000Y-17857000D01*
X71433000Y-17857000D01*
X71433000Y-17603000D01*
X71453000Y-17603000D01*
X71453000Y-16253750D01*
X71707000Y-16253750D01*
X71707000Y-17603000D01*
X72806250Y-17603000D01*
X72965000Y-17444250D01*
X72965000Y-16603690D01*
X72868327Y-16370301D01*
X72689698Y-16191673D01*
X72456309Y-16095000D01*
X71865750Y-16095000D01*
X71707000Y-16253750D01*
X71453000Y-16253750D01*
X71294250Y-16095000D01*
X70703691Y-16095000D01*
X70470302Y-16191673D01*
X70291673Y-16370301D01*
X70195000Y-16603690D01*
X70195000Y-16731514D01*
X70019343Y-16468625D01*
X69570017Y-16168395D01*
X69040000Y-16062968D01*
X68509983Y-16168395D01*
X68060657Y-16468625D01*
X67770000Y-16903624D01*
X67479343Y-16468625D01*
X67030017Y-16168395D01*
X66500000Y-16062968D01*
X65969983Y-16168395D01*
X65520657Y-16468625D01*
X65230000Y-16903624D01*
X64939343Y-16468625D01*
X64490017Y-16168395D01*
X63960000Y-16062968D01*
X63429983Y-16168395D01*
X62980657Y-16468625D01*
X62690000Y-16903624D01*
X62399343Y-16468625D01*
X61950017Y-16168395D01*
X61420000Y-16062968D01*
X60889983Y-16168395D01*
X60440657Y-16468625D01*
X60140427Y-16917951D01*
X60035000Y-17447968D01*
X60035000Y-18012032D01*
X60140427Y-18542049D01*
X60440657Y-18991375D01*
X60827717Y-19250000D01*
X60440657Y-19508625D01*
X60140427Y-19957951D01*
X60035000Y-20487968D01*
X60035000Y-21052032D01*
X60140427Y-21582049D01*
X60440657Y-22031375D01*
X60637576Y-22162952D01*
X60694755Y-22450407D01*
X60864921Y-22705079D01*
X66445000Y-28285158D01*
X66445000Y-29218769D01*
X66250657Y-29348625D01*
X65960000Y-29783624D01*
X65669343Y-29348625D01*
X65220017Y-29048395D01*
X64690000Y-28942968D01*
X64159983Y-29048395D01*
X63710657Y-29348625D01*
X63420000Y-29783624D01*
X63129343Y-29348625D01*
X62680017Y-29048395D01*
X62150000Y-28942968D01*
X61619983Y-29048395D01*
X61170657Y-29348625D01*
X60880000Y-29783624D01*
X60589343Y-29348625D01*
X60140017Y-29048395D01*
X59610000Y-28942968D01*
X59079983Y-29048395D01*
X58630657Y-29348625D01*
X58340000Y-29783624D01*
X58049343Y-29348625D01*
X57600017Y-29048395D01*
X57070000Y-28942968D01*
X56539983Y-29048395D01*
X56090657Y-29348625D01*
X55800000Y-29783624D01*
X55509343Y-29348625D01*
X55315000Y-29218769D01*
X55315000Y-28045158D01*
X56575158Y-26785000D01*
X60826651Y-26785000D01*
X61214436Y-27173461D01*
X61723298Y-27384759D01*
X62274285Y-27385240D01*
X62783515Y-27174831D01*
X63173461Y-26785564D01*
X63384759Y-26276702D01*
X63385240Y-25725715D01*
X63174831Y-25216485D01*
X62785564Y-24826539D01*
X62276702Y-24615241D01*
X61725715Y-24614760D01*
X61216485Y-24825169D01*
X60826539Y-25214436D01*
X60826305Y-25215000D01*
X56250000Y-25215000D01*
X55949593Y-25274755D01*
X55694921Y-25444921D01*
X53974921Y-27164921D01*
X53804755Y-27419593D01*
X53761034Y-27639393D01*
X53745000Y-27720000D01*
X53745000Y-29218769D01*
X53550657Y-29348625D01*
X53260000Y-29783624D01*
X52969343Y-29348625D01*
X52520017Y-29048395D01*
X51990000Y-28942968D01*
X51459983Y-29048395D01*
X51010657Y-29348625D01*
X50720000Y-29783624D01*
X50429343Y-29348625D01*
X49980017Y-29048395D01*
X49450000Y-28942968D01*
X48919983Y-29048395D01*
X48470657Y-29348625D01*
X48174511Y-29791839D01*
X48159964Y-29738279D01*
X47826894Y-29307264D01*
X47354235Y-29036519D01*
X47251185Y-29017682D01*
X47037000Y-29140344D01*
X47037000Y-30483000D01*
X47057000Y-30483000D01*
X47057000Y-30737000D01*
X47037000Y-30737000D01*
X47037000Y-32079656D01*
X47124908Y-32130000D01*
X47037000Y-32180344D01*
X47037000Y-33523000D01*
X47057000Y-33523000D01*
X47057000Y-33777000D01*
X47037000Y-33777000D01*
X47037000Y-35119656D01*
X47251185Y-35242318D01*
X47354235Y-35223481D01*
X47826894Y-34952736D01*
X48159964Y-34521721D01*
X48174511Y-34468161D01*
X48470657Y-34911375D01*
X48919983Y-35211605D01*
X49450000Y-35317032D01*
X49980017Y-35211605D01*
X50429343Y-34911375D01*
X50720000Y-34476376D01*
X51010657Y-34911375D01*
X51459983Y-35211605D01*
X51990000Y-35317032D01*
X52520017Y-35211605D01*
X52969343Y-34911375D01*
X53260000Y-34476376D01*
X53550657Y-34911375D01*
X53999983Y-35211605D01*
X54530000Y-35317032D01*
X55060017Y-35211605D01*
X55509343Y-34911375D01*
X55800000Y-34476376D01*
X56090657Y-34911375D01*
X56285000Y-35041231D01*
X56285000Y-37084881D01*
X56066485Y-37175169D01*
X55676539Y-37564436D01*
X55465241Y-38073298D01*
X55464760Y-38624285D01*
X55675169Y-39133515D01*
X56064436Y-39523461D01*
X56573298Y-39734759D01*
X57124285Y-39735240D01*
X57633515Y-39524831D01*
X57774216Y-39384374D01*
X73965000Y-55575158D01*
X73965000Y-56065135D01*
X58592068Y-71438067D01*
X58581373Y-71445213D01*
X55445213Y-74581373D01*
X55438067Y-74592068D01*
X52065135Y-77965000D01*
X46774387Y-77965000D01*
X46473980Y-78024755D01*
X46219308Y-78194921D01*
X45185000Y-79229229D01*
X45185000Y-33996055D01*
X45517261Y-33996055D01*
X45660036Y-34521721D01*
X45993106Y-34952736D01*
X46465765Y-35223481D01*
X46568815Y-35242318D01*
X46783000Y-35119656D01*
X46783000Y-33777000D01*
X45678132Y-33777000D01*
X45517261Y-33996055D01*
X45185000Y-33996055D01*
X45185000Y-30956055D01*
X45517261Y-30956055D01*
X45660036Y-31481721D01*
X45993106Y-31912736D01*
X46372399Y-32130000D01*
X45993106Y-32347264D01*
X45660036Y-32778279D01*
X45517261Y-33303945D01*
X45678132Y-33523000D01*
X46783000Y-33523000D01*
X46783000Y-32180344D01*
X46695092Y-32130000D01*
X46783000Y-32079656D01*
X46783000Y-30737000D01*
X45678132Y-30737000D01*
X45517261Y-30956055D01*
X45185000Y-30956055D01*
X45185000Y-30263945D01*
X45517261Y-30263945D01*
X45678132Y-30483000D01*
X46783000Y-30483000D01*
X46783000Y-29140344D01*
X46568815Y-29017682D01*
X46465765Y-29036519D01*
X45993106Y-29307264D01*
X45660036Y-29738279D01*
X45517261Y-30263945D01*
X45185000Y-30263945D01*
X45185000Y-19440168D01*
X45514397Y-19440168D01*
X46043838Y-20721515D01*
X47023329Y-21702716D01*
X48303749Y-22234394D01*
X49690168Y-22235603D01*
X50971515Y-21706162D01*
X51952716Y-20726671D01*
X52484394Y-19446251D01*
X52485603Y-18059832D01*
X51956162Y-16778485D01*
X50976671Y-15797284D01*
X49696251Y-15265606D01*
X48309832Y-15264397D01*
X47028485Y-15793838D01*
X46047284Y-16773329D01*
X45515606Y-18053749D01*
X45514397Y-19440168D01*
X45185000Y-19440168D01*
X45185000Y-14935000D01*
X161565000Y-14935000D01*
X161565000Y-100815000D01*
G36*
X84857841Y-87355069D02*
X85112513Y-87525235D01*
X85412920Y-87584990D01*
X91010676Y-87584990D01*
X94192766Y-90767080D01*
X94447438Y-90937246D01*
X94747845Y-90997001D01*
X96046845Y-90997001D01*
X97952998Y-92903154D01*
X97952998Y-93003748D01*
X97794250Y-92845000D01*
X97203691Y-92845000D01*
X96970302Y-92941673D01*
X96791673Y-93120301D01*
X96695000Y-93353690D01*
X96695000Y-93485389D01*
X96456894Y-93177264D01*
X95984235Y-92906519D01*
X95881185Y-92887682D01*
X95667000Y-93010344D01*
X95667000Y-94353000D01*
X96771868Y-94353000D01*
X96806539Y-94305789D01*
X96853750Y-94353000D01*
X97953000Y-94353000D01*
X97953000Y-94333000D01*
X98207000Y-94333000D01*
X98207000Y-94353000D01*
X98227000Y-94353000D01*
X98227000Y-94607000D01*
X98207000Y-94607000D01*
X98207000Y-95956250D01*
X98266830Y-96016080D01*
X98207000Y-96050344D01*
X98207000Y-97393000D01*
X98227000Y-97393000D01*
X98227000Y-97647000D01*
X98207000Y-97647000D01*
X98207000Y-97667000D01*
X97953000Y-97667000D01*
X97953000Y-97647000D01*
X96848132Y-97647000D01*
X96834929Y-97664978D01*
X96785071Y-97664978D01*
X96771868Y-97647000D01*
X95667000Y-97647000D01*
X95667000Y-97667000D01*
X95413000Y-97667000D01*
X95413000Y-97647000D01*
X95393000Y-97647000D01*
X95393000Y-97393000D01*
X95413000Y-97393000D01*
X95413000Y-96050344D01*
X95325092Y-96000000D01*
X95413000Y-95949656D01*
X95413000Y-94607000D01*
X95667000Y-94607000D01*
X95667000Y-95949656D01*
X95754908Y-96000000D01*
X95667000Y-96050344D01*
X95667000Y-97393000D01*
X96771868Y-97393000D01*
X96810000Y-97341076D01*
X96848132Y-97393000D01*
X97953000Y-97393000D01*
X97953000Y-96050344D01*
X97893170Y-96016080D01*
X97953000Y-95956250D01*
X97953000Y-94607000D01*
X96853750Y-94607000D01*
X96806539Y-94654211D01*
X96771868Y-94607000D01*
X95667000Y-94607000D01*
X95413000Y-94607000D01*
X94308132Y-94607000D01*
X94270000Y-94658924D01*
X94231868Y-94607000D01*
X93127000Y-94607000D01*
X93127000Y-94627000D01*
X92873000Y-94627000D01*
X92873000Y-94607000D01*
X91768132Y-94607000D01*
X91730000Y-94658924D01*
X91691868Y-94607000D01*
X90587000Y-94607000D01*
X90587000Y-94627000D01*
X90333000Y-94627000D01*
X90333000Y-94607000D01*
X89228132Y-94607000D01*
X89190000Y-94658924D01*
X89151868Y-94607000D01*
X88047000Y-94607000D01*
X88047000Y-94627000D01*
X87793000Y-94627000D01*
X87793000Y-94607000D01*
X87773000Y-94607000D01*
X87773000Y-94353000D01*
X87793000Y-94353000D01*
X87793000Y-93010344D01*
X88047000Y-93010344D01*
X88047000Y-94353000D01*
X89151868Y-94353000D01*
X89190000Y-94301076D01*
X89228132Y-94353000D01*
X90333000Y-94353000D01*
X90333000Y-93010344D01*
X90587000Y-93010344D01*
X90587000Y-94353000D01*
X91691868Y-94353000D01*
X91730000Y-94301076D01*
X91768132Y-94353000D01*
X92873000Y-94353000D01*
X92873000Y-93010344D01*
X93127000Y-93010344D01*
X93127000Y-94353000D01*
X94231868Y-94353000D01*
X94270000Y-94301076D01*
X94308132Y-94353000D01*
X95413000Y-94353000D01*
X95413000Y-93010344D01*
X95198815Y-92887682D01*
X95095765Y-92906519D01*
X94623106Y-93177264D01*
X94290036Y-93608279D01*
X94270000Y-93682047D01*
X94249964Y-93608279D01*
X93916894Y-93177264D01*
X93444235Y-92906519D01*
X93341185Y-92887682D01*
X93127000Y-93010344D01*
X92873000Y-93010344D01*
X92658815Y-92887682D01*
X92555765Y-92906519D01*
X92083106Y-93177264D01*
X91750036Y-93608279D01*
X91730000Y-93682047D01*
X91709964Y-93608279D01*
X91376894Y-93177264D01*
X90904235Y-92906519D01*
X90801185Y-92887682D01*
X90587000Y-93010344D01*
X90333000Y-93010344D01*
X90118815Y-92887682D01*
X90015765Y-92906519D01*
X89543106Y-93177264D01*
X89210036Y-93608279D01*
X89190000Y-93682047D01*
X89169964Y-93608279D01*
X88836894Y-93177264D01*
X88364235Y-92906519D01*
X88261185Y-92887682D01*
X88047000Y-93010344D01*
X87793000Y-93010344D01*
X87578815Y-92887682D01*
X87475765Y-92906519D01*
X87003106Y-93177264D01*
X86670036Y-93608279D01*
X86527261Y-94133945D01*
X86688131Y-94352998D01*
X86608130Y-94352998D01*
X83885000Y-91629868D01*
X83885000Y-90000000D01*
X83884783Y-89998910D01*
X83885240Y-89475715D01*
X83674831Y-88966485D01*
X83285564Y-88576539D01*
X82776702Y-88365241D01*
X82225715Y-88364760D01*
X81716485Y-88575169D01*
X81326539Y-88964436D01*
X81115241Y-89473298D01*
X81114760Y-90024285D01*
X81325169Y-90533515D01*
X81615000Y-90823852D01*
X81615000Y-92100000D01*
X81701397Y-92534346D01*
X81908970Y-92845000D01*
X81947434Y-92902566D01*
X86535000Y-97490132D01*
X86535000Y-97802032D01*
X86640427Y-98332049D01*
X86940657Y-98781375D01*
X87389983Y-99081605D01*
X87920000Y-99187032D01*
X88053333Y-99160510D01*
X89707823Y-100815000D01*
X67834674Y-100815000D01*
X67969203Y-100725111D01*
X68909313Y-99785000D01*
X71967070Y-99785000D01*
X72267477Y-99725245D01*
X72522149Y-99555079D01*
X73201647Y-98875581D01*
X73509983Y-99081605D01*
X74040000Y-99187032D01*
X74570017Y-99081605D01*
X75019343Y-98781375D01*
X75310000Y-98346376D01*
X75600657Y-98781375D01*
X76049983Y-99081605D01*
X76580000Y-99187032D01*
X77110017Y-99081605D01*
X77559343Y-98781375D01*
X77859573Y-98332049D01*
X77965000Y-97802032D01*
X77965000Y-97237968D01*
X77948179Y-97153401D01*
X78544849Y-96556730D01*
X78544852Y-96556728D01*
X78736695Y-96269613D01*
X78758469Y-96160150D01*
X78804063Y-95930938D01*
X78804062Y-95930933D01*
X78804062Y-90447518D01*
X83095787Y-86155792D01*
X83095790Y-86155790D01*
X83287633Y-85868675D01*
X83298931Y-85811877D01*
X83308353Y-85805581D01*
X84857841Y-87355069D01*
X84857841Y-87355069D01*
G37*
X84857841Y-87355069D02*
X85112513Y-87525235D01*
X85412920Y-87584990D01*
X91010676Y-87584990D01*
X94192766Y-90767080D01*
X94447438Y-90937246D01*
X94747845Y-90997001D01*
X96046845Y-90997001D01*
X97952998Y-92903154D01*
X97952998Y-93003748D01*
X97794250Y-92845000D01*
X97203691Y-92845000D01*
X96970302Y-92941673D01*
X96791673Y-93120301D01*
X96695000Y-93353690D01*
X96695000Y-93485389D01*
X96456894Y-93177264D01*
X95984235Y-92906519D01*
X95881185Y-92887682D01*
X95667000Y-93010344D01*
X95667000Y-94353000D01*
X96771868Y-94353000D01*
X96806539Y-94305789D01*
X96853750Y-94353000D01*
X97953000Y-94353000D01*
X97953000Y-94333000D01*
X98207000Y-94333000D01*
X98207000Y-94353000D01*
X98227000Y-94353000D01*
X98227000Y-94607000D01*
X98207000Y-94607000D01*
X98207000Y-95956250D01*
X98266830Y-96016080D01*
X98207000Y-96050344D01*
X98207000Y-97393000D01*
X98227000Y-97393000D01*
X98227000Y-97647000D01*
X98207000Y-97647000D01*
X98207000Y-97667000D01*
X97953000Y-97667000D01*
X97953000Y-97647000D01*
X96848132Y-97647000D01*
X96834929Y-97664978D01*
X96785071Y-97664978D01*
X96771868Y-97647000D01*
X95667000Y-97647000D01*
X95667000Y-97667000D01*
X95413000Y-97667000D01*
X95413000Y-97647000D01*
X95393000Y-97647000D01*
X95393000Y-97393000D01*
X95413000Y-97393000D01*
X95413000Y-96050344D01*
X95325092Y-96000000D01*
X95413000Y-95949656D01*
X95413000Y-94607000D01*
X95667000Y-94607000D01*
X95667000Y-95949656D01*
X95754908Y-96000000D01*
X95667000Y-96050344D01*
X95667000Y-97393000D01*
X96771868Y-97393000D01*
X96810000Y-97341076D01*
X96848132Y-97393000D01*
X97953000Y-97393000D01*
X97953000Y-96050344D01*
X97893170Y-96016080D01*
X97953000Y-95956250D01*
X97953000Y-94607000D01*
X96853750Y-94607000D01*
X96806539Y-94654211D01*
X96771868Y-94607000D01*
X95667000Y-94607000D01*
X95413000Y-94607000D01*
X94308132Y-94607000D01*
X94270000Y-94658924D01*
X94231868Y-94607000D01*
X93127000Y-94607000D01*
X93127000Y-94627000D01*
X92873000Y-94627000D01*
X92873000Y-94607000D01*
X91768132Y-94607000D01*
X91730000Y-94658924D01*
X91691868Y-94607000D01*
X90587000Y-94607000D01*
X90587000Y-94627000D01*
X90333000Y-94627000D01*
X90333000Y-94607000D01*
X89228132Y-94607000D01*
X89190000Y-94658924D01*
X89151868Y-94607000D01*
X88047000Y-94607000D01*
X88047000Y-94627000D01*
X87793000Y-94627000D01*
X87793000Y-94607000D01*
X87773000Y-94607000D01*
X87773000Y-94353000D01*
X87793000Y-94353000D01*
X87793000Y-93010344D01*
X88047000Y-93010344D01*
X88047000Y-94353000D01*
X89151868Y-94353000D01*
X89190000Y-94301076D01*
X89228132Y-94353000D01*
X90333000Y-94353000D01*
X90333000Y-93010344D01*
X90587000Y-93010344D01*
X90587000Y-94353000D01*
X91691868Y-94353000D01*
X91730000Y-94301076D01*
X91768132Y-94353000D01*
X92873000Y-94353000D01*
X92873000Y-93010344D01*
X93127000Y-93010344D01*
X93127000Y-94353000D01*
X94231868Y-94353000D01*
X94270000Y-94301076D01*
X94308132Y-94353000D01*
X95413000Y-94353000D01*
X95413000Y-93010344D01*
X95198815Y-92887682D01*
X95095765Y-92906519D01*
X94623106Y-93177264D01*
X94290036Y-93608279D01*
X94270000Y-93682047D01*
X94249964Y-93608279D01*
X93916894Y-93177264D01*
X93444235Y-92906519D01*
X93341185Y-92887682D01*
X93127000Y-93010344D01*
X92873000Y-93010344D01*
X92658815Y-92887682D01*
X92555765Y-92906519D01*
X92083106Y-93177264D01*
X91750036Y-93608279D01*
X91730000Y-93682047D01*
X91709964Y-93608279D01*
X91376894Y-93177264D01*
X90904235Y-92906519D01*
X90801185Y-92887682D01*
X90587000Y-93010344D01*
X90333000Y-93010344D01*
X90118815Y-92887682D01*
X90015765Y-92906519D01*
X89543106Y-93177264D01*
X89210036Y-93608279D01*
X89190000Y-93682047D01*
X89169964Y-93608279D01*
X88836894Y-93177264D01*
X88364235Y-92906519D01*
X88261185Y-92887682D01*
X88047000Y-93010344D01*
X87793000Y-93010344D01*
X87578815Y-92887682D01*
X87475765Y-92906519D01*
X87003106Y-93177264D01*
X86670036Y-93608279D01*
X86527261Y-94133945D01*
X86688131Y-94352998D01*
X86608130Y-94352998D01*
X83885000Y-91629868D01*
X83885000Y-90000000D01*
X83884783Y-89998910D01*
X83885240Y-89475715D01*
X83674831Y-88966485D01*
X83285564Y-88576539D01*
X82776702Y-88365241D01*
X82225715Y-88364760D01*
X81716485Y-88575169D01*
X81326539Y-88964436D01*
X81115241Y-89473298D01*
X81114760Y-90024285D01*
X81325169Y-90533515D01*
X81615000Y-90823852D01*
X81615000Y-92100000D01*
X81701397Y-92534346D01*
X81908970Y-92845000D01*
X81947434Y-92902566D01*
X86535000Y-97490132D01*
X86535000Y-97802032D01*
X86640427Y-98332049D01*
X86940657Y-98781375D01*
X87389983Y-99081605D01*
X87920000Y-99187032D01*
X88053333Y-99160510D01*
X89707823Y-100815000D01*
X67834674Y-100815000D01*
X67969203Y-100725111D01*
X68909313Y-99785000D01*
X71967070Y-99785000D01*
X72267477Y-99725245D01*
X72522149Y-99555079D01*
X73201647Y-98875581D01*
X73509983Y-99081605D01*
X74040000Y-99187032D01*
X74570017Y-99081605D01*
X75019343Y-98781375D01*
X75310000Y-98346376D01*
X75600657Y-98781375D01*
X76049983Y-99081605D01*
X76580000Y-99187032D01*
X77110017Y-99081605D01*
X77559343Y-98781375D01*
X77859573Y-98332049D01*
X77965000Y-97802032D01*
X77965000Y-97237968D01*
X77948179Y-97153401D01*
X78544849Y-96556730D01*
X78544852Y-96556728D01*
X78736695Y-96269613D01*
X78758469Y-96160150D01*
X78804063Y-95930938D01*
X78804062Y-95930933D01*
X78804062Y-90447518D01*
X83095787Y-86155792D01*
X83095790Y-86155790D01*
X83287633Y-85868675D01*
X83298931Y-85811877D01*
X83308353Y-85805581D01*
X84857841Y-87355069D01*
G36*
X63665010Y-88931648D02*
X63665010Y-95356492D01*
X63724765Y-95656899D01*
X63894931Y-95911571D01*
X65065914Y-97082554D01*
X65035000Y-97237968D01*
X65035000Y-97802032D01*
X65111179Y-98185010D01*
X60795168Y-98185010D01*
X60458641Y-97848483D01*
X60527959Y-97500000D01*
X60413885Y-96926511D01*
X60089029Y-96440330D01*
X59602848Y-96115474D01*
X59029359Y-96001400D01*
X58970641Y-96001400D01*
X58397152Y-96115474D01*
X57925644Y-96430526D01*
X57861927Y-96276701D01*
X57683298Y-96098073D01*
X57449909Y-96001400D01*
X56745750Y-96001400D01*
X56587000Y-96160150D01*
X56587000Y-97373000D01*
X56607000Y-97373000D01*
X56607000Y-97627000D01*
X56587000Y-97627000D01*
X56587000Y-97647000D01*
X56333000Y-97647000D01*
X56333000Y-97627000D01*
X56313000Y-97627000D01*
X56313000Y-97373000D01*
X56333000Y-97373000D01*
X56333000Y-96160150D01*
X56174250Y-96001400D01*
X55901501Y-96001400D01*
X55871644Y-95851304D01*
X55751429Y-95671389D01*
X60520094Y-95671388D01*
X60820501Y-95611633D01*
X61075173Y-95441467D01*
X62605068Y-93911572D01*
X62775234Y-93656900D01*
X62834989Y-93356493D01*
X62834989Y-88931651D01*
X63181608Y-88585032D01*
X63318394Y-88585032D01*
X63665010Y-88931648D01*
X63665010Y-88931648D01*
G37*
X63665010Y-88931648D02*
X63665010Y-95356492D01*
X63724765Y-95656899D01*
X63894931Y-95911571D01*
X65065914Y-97082554D01*
X65035000Y-97237968D01*
X65035000Y-97802032D01*
X65111179Y-98185010D01*
X60795168Y-98185010D01*
X60458641Y-97848483D01*
X60527959Y-97500000D01*
X60413885Y-96926511D01*
X60089029Y-96440330D01*
X59602848Y-96115474D01*
X59029359Y-96001400D01*
X58970641Y-96001400D01*
X58397152Y-96115474D01*
X57925644Y-96430526D01*
X57861927Y-96276701D01*
X57683298Y-96098073D01*
X57449909Y-96001400D01*
X56745750Y-96001400D01*
X56587000Y-96160150D01*
X56587000Y-97373000D01*
X56607000Y-97373000D01*
X56607000Y-97627000D01*
X56587000Y-97627000D01*
X56587000Y-97647000D01*
X56333000Y-97647000D01*
X56333000Y-97627000D01*
X56313000Y-97627000D01*
X56313000Y-97373000D01*
X56333000Y-97373000D01*
X56333000Y-96160150D01*
X56174250Y-96001400D01*
X55901501Y-96001400D01*
X55871644Y-95851304D01*
X55751429Y-95671389D01*
X60520094Y-95671388D01*
X60820501Y-95611633D01*
X61075173Y-95441467D01*
X62605068Y-93911572D01*
X62775234Y-93656900D01*
X62834989Y-93356493D01*
X62834989Y-88931651D01*
X63181608Y-88585032D01*
X63318394Y-88585032D01*
X63665010Y-88931648D01*
G36*
X130724733Y-87338893D02*
X130894899Y-87593565D01*
X133136411Y-89835076D01*
X133136413Y-89835079D01*
X133391086Y-90005245D01*
X133691492Y-90065000D01*
X137087799Y-90065000D01*
X137089990Y-90070303D01*
X137482630Y-90463629D01*
X137995900Y-90676757D01*
X138551661Y-90677242D01*
X138559037Y-90674195D01*
X140729842Y-92845000D01*
X140203691Y-92845000D01*
X139970302Y-92941673D01*
X139791673Y-93120301D01*
X139695000Y-93353690D01*
X139695000Y-93485389D01*
X139456894Y-93177264D01*
X138984235Y-92906519D01*
X138881185Y-92887682D01*
X138667000Y-93010344D01*
X138667000Y-94353000D01*
X139771868Y-94353000D01*
X139806539Y-94305789D01*
X139853750Y-94353000D01*
X140953000Y-94353000D01*
X140953000Y-94333000D01*
X141207000Y-94333000D01*
X141207000Y-94353000D01*
X141227000Y-94353000D01*
X141227000Y-94607000D01*
X141207000Y-94607000D01*
X141207000Y-95956250D01*
X141266830Y-96016080D01*
X141207000Y-96050344D01*
X141207000Y-97393000D01*
X141227000Y-97393000D01*
X141227000Y-97647000D01*
X141207000Y-97647000D01*
X141207000Y-97667000D01*
X140953000Y-97667000D01*
X140953000Y-97647000D01*
X140933000Y-97647000D01*
X140933000Y-97393000D01*
X140953000Y-97393000D01*
X140953000Y-96050344D01*
X140893170Y-96016080D01*
X140953000Y-95956250D01*
X140953000Y-94607000D01*
X139853750Y-94607000D01*
X139806539Y-94654211D01*
X139771868Y-94607000D01*
X138667000Y-94607000D01*
X138667000Y-95949656D01*
X138754908Y-96000000D01*
X138667000Y-96050344D01*
X138667000Y-97393000D01*
X138687000Y-97393000D01*
X138687000Y-97647000D01*
X138667000Y-97647000D01*
X138667000Y-97667000D01*
X138413000Y-97667000D01*
X138413000Y-97647000D01*
X138393000Y-97647000D01*
X138393000Y-97393000D01*
X138413000Y-97393000D01*
X138413000Y-96050344D01*
X138325092Y-96000000D01*
X138413000Y-95949656D01*
X138413000Y-94607000D01*
X137308132Y-94607000D01*
X137270000Y-94658924D01*
X137231868Y-94607000D01*
X136127000Y-94607000D01*
X136127000Y-94627000D01*
X135873000Y-94627000D01*
X135873000Y-94607000D01*
X134768132Y-94607000D01*
X134730000Y-94658924D01*
X134691868Y-94607000D01*
X133587000Y-94607000D01*
X133587000Y-94627000D01*
X133333000Y-94627000D01*
X133333000Y-94607000D01*
X132228132Y-94607000D01*
X132190000Y-94658924D01*
X132151868Y-94607000D01*
X131047000Y-94607000D01*
X131047000Y-94627000D01*
X130793000Y-94627000D01*
X130793000Y-94607000D01*
X129688132Y-94607000D01*
X129527261Y-94826055D01*
X129670036Y-95351721D01*
X130003106Y-95782736D01*
X130352957Y-95983135D01*
X130125675Y-96135000D01*
X129740132Y-96135000D01*
X127980000Y-94374868D01*
X127980000Y-94133945D01*
X129527261Y-94133945D01*
X129688132Y-94353000D01*
X130793000Y-94353000D01*
X130793000Y-93010344D01*
X131047000Y-93010344D01*
X131047000Y-94353000D01*
X132151868Y-94353000D01*
X132190000Y-94301076D01*
X132228132Y-94353000D01*
X133333000Y-94353000D01*
X133333000Y-93010344D01*
X133587000Y-93010344D01*
X133587000Y-94353000D01*
X134691868Y-94353000D01*
X134730000Y-94301076D01*
X134768132Y-94353000D01*
X135873000Y-94353000D01*
X135873000Y-93010344D01*
X136127000Y-93010344D01*
X136127000Y-94353000D01*
X137231868Y-94353000D01*
X137270000Y-94301076D01*
X137308132Y-94353000D01*
X138413000Y-94353000D01*
X138413000Y-93010344D01*
X138198815Y-92887682D01*
X138095765Y-92906519D01*
X137623106Y-93177264D01*
X137290036Y-93608279D01*
X137270000Y-93682047D01*
X137249964Y-93608279D01*
X136916894Y-93177264D01*
X136444235Y-92906519D01*
X136341185Y-92887682D01*
X136127000Y-93010344D01*
X135873000Y-93010344D01*
X135658815Y-92887682D01*
X135555765Y-92906519D01*
X135083106Y-93177264D01*
X134750036Y-93608279D01*
X134730000Y-93682047D01*
X134709964Y-93608279D01*
X134376894Y-93177264D01*
X133904235Y-92906519D01*
X133801185Y-92887682D01*
X133587000Y-93010344D01*
X133333000Y-93010344D01*
X133118815Y-92887682D01*
X133015765Y-92906519D01*
X132543106Y-93177264D01*
X132210036Y-93608279D01*
X132190000Y-93682047D01*
X132169964Y-93608279D01*
X131836894Y-93177264D01*
X131364235Y-92906519D01*
X131261185Y-92887682D01*
X131047000Y-93010344D01*
X130793000Y-93010344D01*
X130578815Y-92887682D01*
X130475765Y-92906519D01*
X130003106Y-93177264D01*
X129670036Y-93608279D01*
X129527261Y-94133945D01*
X127980000Y-94133945D01*
X127980000Y-90120914D01*
X128028629Y-90072370D01*
X128241757Y-89559100D01*
X128241819Y-89488313D01*
X130669403Y-87060729D01*
X130724733Y-87338893D01*
X130724733Y-87338893D01*
G37*
X130724733Y-87338893D02*
X130894899Y-87593565D01*
X133136411Y-89835076D01*
X133136413Y-89835079D01*
X133391086Y-90005245D01*
X133691492Y-90065000D01*
X137087799Y-90065000D01*
X137089990Y-90070303D01*
X137482630Y-90463629D01*
X137995900Y-90676757D01*
X138551661Y-90677242D01*
X138559037Y-90674195D01*
X140729842Y-92845000D01*
X140203691Y-92845000D01*
X139970302Y-92941673D01*
X139791673Y-93120301D01*
X139695000Y-93353690D01*
X139695000Y-93485389D01*
X139456894Y-93177264D01*
X138984235Y-92906519D01*
X138881185Y-92887682D01*
X138667000Y-93010344D01*
X138667000Y-94353000D01*
X139771868Y-94353000D01*
X139806539Y-94305789D01*
X139853750Y-94353000D01*
X140953000Y-94353000D01*
X140953000Y-94333000D01*
X141207000Y-94333000D01*
X141207000Y-94353000D01*
X141227000Y-94353000D01*
X141227000Y-94607000D01*
X141207000Y-94607000D01*
X141207000Y-95956250D01*
X141266830Y-96016080D01*
X141207000Y-96050344D01*
X141207000Y-97393000D01*
X141227000Y-97393000D01*
X141227000Y-97647000D01*
X141207000Y-97647000D01*
X141207000Y-97667000D01*
X140953000Y-97667000D01*
X140953000Y-97647000D01*
X140933000Y-97647000D01*
X140933000Y-97393000D01*
X140953000Y-97393000D01*
X140953000Y-96050344D01*
X140893170Y-96016080D01*
X140953000Y-95956250D01*
X140953000Y-94607000D01*
X139853750Y-94607000D01*
X139806539Y-94654211D01*
X139771868Y-94607000D01*
X138667000Y-94607000D01*
X138667000Y-95949656D01*
X138754908Y-96000000D01*
X138667000Y-96050344D01*
X138667000Y-97393000D01*
X138687000Y-97393000D01*
X138687000Y-97647000D01*
X138667000Y-97647000D01*
X138667000Y-97667000D01*
X138413000Y-97667000D01*
X138413000Y-97647000D01*
X138393000Y-97647000D01*
X138393000Y-97393000D01*
X138413000Y-97393000D01*
X138413000Y-96050344D01*
X138325092Y-96000000D01*
X138413000Y-95949656D01*
X138413000Y-94607000D01*
X137308132Y-94607000D01*
X137270000Y-94658924D01*
X137231868Y-94607000D01*
X136127000Y-94607000D01*
X136127000Y-94627000D01*
X135873000Y-94627000D01*
X135873000Y-94607000D01*
X134768132Y-94607000D01*
X134730000Y-94658924D01*
X134691868Y-94607000D01*
X133587000Y-94607000D01*
X133587000Y-94627000D01*
X133333000Y-94627000D01*
X133333000Y-94607000D01*
X132228132Y-94607000D01*
X132190000Y-94658924D01*
X132151868Y-94607000D01*
X131047000Y-94607000D01*
X131047000Y-94627000D01*
X130793000Y-94627000D01*
X130793000Y-94607000D01*
X129688132Y-94607000D01*
X129527261Y-94826055D01*
X129670036Y-95351721D01*
X130003106Y-95782736D01*
X130352957Y-95983135D01*
X130125675Y-96135000D01*
X129740132Y-96135000D01*
X127980000Y-94374868D01*
X127980000Y-94133945D01*
X129527261Y-94133945D01*
X129688132Y-94353000D01*
X130793000Y-94353000D01*
X130793000Y-93010344D01*
X131047000Y-93010344D01*
X131047000Y-94353000D01*
X132151868Y-94353000D01*
X132190000Y-94301076D01*
X132228132Y-94353000D01*
X133333000Y-94353000D01*
X133333000Y-93010344D01*
X133587000Y-93010344D01*
X133587000Y-94353000D01*
X134691868Y-94353000D01*
X134730000Y-94301076D01*
X134768132Y-94353000D01*
X135873000Y-94353000D01*
X135873000Y-93010344D01*
X136127000Y-93010344D01*
X136127000Y-94353000D01*
X137231868Y-94353000D01*
X137270000Y-94301076D01*
X137308132Y-94353000D01*
X138413000Y-94353000D01*
X138413000Y-93010344D01*
X138198815Y-92887682D01*
X138095765Y-92906519D01*
X137623106Y-93177264D01*
X137290036Y-93608279D01*
X137270000Y-93682047D01*
X137249964Y-93608279D01*
X136916894Y-93177264D01*
X136444235Y-92906519D01*
X136341185Y-92887682D01*
X136127000Y-93010344D01*
X135873000Y-93010344D01*
X135658815Y-92887682D01*
X135555765Y-92906519D01*
X135083106Y-93177264D01*
X134750036Y-93608279D01*
X134730000Y-93682047D01*
X134709964Y-93608279D01*
X134376894Y-93177264D01*
X133904235Y-92906519D01*
X133801185Y-92887682D01*
X133587000Y-93010344D01*
X133333000Y-93010344D01*
X133118815Y-92887682D01*
X133015765Y-92906519D01*
X132543106Y-93177264D01*
X132210036Y-93608279D01*
X132190000Y-93682047D01*
X132169964Y-93608279D01*
X131836894Y-93177264D01*
X131364235Y-92906519D01*
X131261185Y-92887682D01*
X131047000Y-93010344D01*
X130793000Y-93010344D01*
X130578815Y-92887682D01*
X130475765Y-92906519D01*
X130003106Y-93177264D01*
X129670036Y-93608279D01*
X129527261Y-94133945D01*
X127980000Y-94133945D01*
X127980000Y-90120914D01*
X128028629Y-90072370D01*
X128241757Y-89559100D01*
X128241819Y-89488313D01*
X130669403Y-87060729D01*
X130724733Y-87338893D01*
G36*
X77431899Y-89316521D02*
X77293272Y-89409148D01*
X77101429Y-89696263D01*
X77034062Y-90034938D01*
X77034062Y-92845000D01*
X76865750Y-92845000D01*
X76707000Y-93003750D01*
X76707000Y-94353000D01*
X76727000Y-94353000D01*
X76727000Y-94607000D01*
X76707000Y-94607000D01*
X76707000Y-94627000D01*
X76453000Y-94627000D01*
X76453000Y-94607000D01*
X76433000Y-94607000D01*
X76433000Y-94353000D01*
X76453000Y-94353000D01*
X76453000Y-93003750D01*
X76294250Y-92845000D01*
X76164999Y-92845000D01*
X76164999Y-92792837D01*
X76175267Y-92777470D01*
X76235022Y-92477064D01*
X76235022Y-88719132D01*
X77119156Y-87834998D01*
X78913422Y-87834998D01*
X77431899Y-89316521D01*
X77431899Y-89316521D01*
G37*
X77431899Y-89316521D02*
X77293272Y-89409148D01*
X77101429Y-89696263D01*
X77034062Y-90034938D01*
X77034062Y-92845000D01*
X76865750Y-92845000D01*
X76707000Y-93003750D01*
X76707000Y-94353000D01*
X76727000Y-94353000D01*
X76727000Y-94607000D01*
X76707000Y-94607000D01*
X76707000Y-94627000D01*
X76453000Y-94627000D01*
X76453000Y-94607000D01*
X76433000Y-94607000D01*
X76433000Y-94353000D01*
X76453000Y-94353000D01*
X76453000Y-93003750D01*
X76294250Y-92845000D01*
X76164999Y-92845000D01*
X76164999Y-92792837D01*
X76175267Y-92777470D01*
X76235022Y-92477064D01*
X76235022Y-88719132D01*
X77119156Y-87834998D01*
X78913422Y-87834998D01*
X77431899Y-89316521D01*
G36*
X106016458Y-76172394D02*
X106016458Y-77115510D01*
X106016457Y-77115515D01*
X106066427Y-77366724D01*
X106083825Y-77454190D01*
X106236287Y-77682367D01*
X106275668Y-77741305D01*
X108309363Y-79775000D01*
X108155750Y-79775000D01*
X107997000Y-79933750D01*
X107997000Y-81283000D01*
X109096250Y-81283000D01*
X109255000Y-81124250D01*
X109255000Y-80720637D01*
X115042713Y-86508349D01*
X115042713Y-86991984D01*
X115042712Y-86991989D01*
X115095588Y-87257808D01*
X115110080Y-87330664D01*
X115280014Y-87584990D01*
X115292832Y-87604173D01*
X115292472Y-88016273D01*
X115502881Y-88525503D01*
X115892148Y-88915449D01*
X116401010Y-89126747D01*
X116811249Y-89127105D01*
X117038204Y-89354060D01*
X117038204Y-90292734D01*
X117038203Y-90292739D01*
X117086505Y-90535564D01*
X117105571Y-90631414D01*
X117284654Y-90899432D01*
X117297414Y-90918529D01*
X119223886Y-92845000D01*
X118703691Y-92845000D01*
X118470302Y-92941673D01*
X118291673Y-93120301D01*
X118195000Y-93353690D01*
X118195000Y-93481514D01*
X118019343Y-93218625D01*
X117570017Y-92918395D01*
X117040000Y-92812968D01*
X116788721Y-92862950D01*
X114990192Y-91064421D01*
X115084005Y-91025659D01*
X115473951Y-90636392D01*
X115685249Y-90127530D01*
X115685730Y-89576543D01*
X115475321Y-89067313D01*
X115086054Y-88677367D01*
X114577192Y-88466069D01*
X114515138Y-88466015D01*
X114440013Y-88415818D01*
X114164008Y-88231397D01*
X113729662Y-88145000D01*
X112445914Y-88145000D01*
X112397370Y-88096371D01*
X111884100Y-87883243D01*
X111414654Y-87882833D01*
X111325000Y-87865000D01*
X108055914Y-87865000D01*
X108007370Y-87816371D01*
X107494100Y-87603243D01*
X107423314Y-87603181D01*
X106465000Y-86644868D01*
X106465000Y-85478418D01*
X106605489Y-85268161D01*
X106620036Y-85321721D01*
X106953106Y-85752736D01*
X107425765Y-86023481D01*
X107528815Y-86042318D01*
X107743000Y-85919656D01*
X107743000Y-84577000D01*
X107997000Y-84577000D01*
X107997000Y-85919656D01*
X108211185Y-86042318D01*
X108314235Y-86023481D01*
X108786894Y-85752736D01*
X109119964Y-85321721D01*
X109262739Y-84796055D01*
X109101868Y-84577000D01*
X107997000Y-84577000D01*
X107743000Y-84577000D01*
X107723000Y-84577000D01*
X107723000Y-84323000D01*
X107743000Y-84323000D01*
X107743000Y-82980344D01*
X107683170Y-82946080D01*
X107743000Y-82886250D01*
X107743000Y-81537000D01*
X107997000Y-81537000D01*
X107997000Y-82886250D01*
X108056830Y-82946080D01*
X107997000Y-82980344D01*
X107997000Y-84323000D01*
X109101868Y-84323000D01*
X109262739Y-84103945D01*
X109119964Y-83578279D01*
X108786894Y-83147264D01*
X108608364Y-83045000D01*
X108746309Y-83045000D01*
X108979698Y-82948327D01*
X109158327Y-82769699D01*
X109255000Y-82536310D01*
X109255000Y-81695750D01*
X109096250Y-81537000D01*
X107997000Y-81537000D01*
X107743000Y-81537000D01*
X107723000Y-81537000D01*
X107723000Y-81283000D01*
X107743000Y-81283000D01*
X107743000Y-79933750D01*
X107584250Y-79775000D01*
X106993691Y-79775000D01*
X106760302Y-79871673D01*
X106581673Y-80050301D01*
X106485000Y-80283690D01*
X106485000Y-80411514D01*
X106309343Y-80148625D01*
X105860017Y-79848395D01*
X105330000Y-79742968D01*
X105196667Y-79769490D01*
X102374611Y-76947434D01*
X102326235Y-76915110D01*
X102006391Y-76701397D01*
X101572045Y-76615000D01*
X96805914Y-76615000D01*
X96757370Y-76566371D01*
X96244100Y-76353243D01*
X95688339Y-76352758D01*
X95620996Y-76380584D01*
X96018037Y-75983542D01*
X105827935Y-75983542D01*
X106016458Y-76172394D01*
X106016458Y-76172394D01*
G37*
X106016458Y-76172394D02*
X106016458Y-77115510D01*
X106016457Y-77115515D01*
X106066427Y-77366724D01*
X106083825Y-77454190D01*
X106236287Y-77682367D01*
X106275668Y-77741305D01*
X108309363Y-79775000D01*
X108155750Y-79775000D01*
X107997000Y-79933750D01*
X107997000Y-81283000D01*
X109096250Y-81283000D01*
X109255000Y-81124250D01*
X109255000Y-80720637D01*
X115042713Y-86508349D01*
X115042713Y-86991984D01*
X115042712Y-86991989D01*
X115095588Y-87257808D01*
X115110080Y-87330664D01*
X115280014Y-87584990D01*
X115292832Y-87604173D01*
X115292472Y-88016273D01*
X115502881Y-88525503D01*
X115892148Y-88915449D01*
X116401010Y-89126747D01*
X116811249Y-89127105D01*
X117038204Y-89354060D01*
X117038204Y-90292734D01*
X117038203Y-90292739D01*
X117086505Y-90535564D01*
X117105571Y-90631414D01*
X117284654Y-90899432D01*
X117297414Y-90918529D01*
X119223886Y-92845000D01*
X118703691Y-92845000D01*
X118470302Y-92941673D01*
X118291673Y-93120301D01*
X118195000Y-93353690D01*
X118195000Y-93481514D01*
X118019343Y-93218625D01*
X117570017Y-92918395D01*
X117040000Y-92812968D01*
X116788721Y-92862950D01*
X114990192Y-91064421D01*
X115084005Y-91025659D01*
X115473951Y-90636392D01*
X115685249Y-90127530D01*
X115685730Y-89576543D01*
X115475321Y-89067313D01*
X115086054Y-88677367D01*
X114577192Y-88466069D01*
X114515138Y-88466015D01*
X114440013Y-88415818D01*
X114164008Y-88231397D01*
X113729662Y-88145000D01*
X112445914Y-88145000D01*
X112397370Y-88096371D01*
X111884100Y-87883243D01*
X111414654Y-87882833D01*
X111325000Y-87865000D01*
X108055914Y-87865000D01*
X108007370Y-87816371D01*
X107494100Y-87603243D01*
X107423314Y-87603181D01*
X106465000Y-86644868D01*
X106465000Y-85478418D01*
X106605489Y-85268161D01*
X106620036Y-85321721D01*
X106953106Y-85752736D01*
X107425765Y-86023481D01*
X107528815Y-86042318D01*
X107743000Y-85919656D01*
X107743000Y-84577000D01*
X107997000Y-84577000D01*
X107997000Y-85919656D01*
X108211185Y-86042318D01*
X108314235Y-86023481D01*
X108786894Y-85752736D01*
X109119964Y-85321721D01*
X109262739Y-84796055D01*
X109101868Y-84577000D01*
X107997000Y-84577000D01*
X107743000Y-84577000D01*
X107723000Y-84577000D01*
X107723000Y-84323000D01*
X107743000Y-84323000D01*
X107743000Y-82980344D01*
X107683170Y-82946080D01*
X107743000Y-82886250D01*
X107743000Y-81537000D01*
X107997000Y-81537000D01*
X107997000Y-82886250D01*
X108056830Y-82946080D01*
X107997000Y-82980344D01*
X107997000Y-84323000D01*
X109101868Y-84323000D01*
X109262739Y-84103945D01*
X109119964Y-83578279D01*
X108786894Y-83147264D01*
X108608364Y-83045000D01*
X108746309Y-83045000D01*
X108979698Y-82948327D01*
X109158327Y-82769699D01*
X109255000Y-82536310D01*
X109255000Y-81695750D01*
X109096250Y-81537000D01*
X107997000Y-81537000D01*
X107743000Y-81537000D01*
X107723000Y-81537000D01*
X107723000Y-81283000D01*
X107743000Y-81283000D01*
X107743000Y-79933750D01*
X107584250Y-79775000D01*
X106993691Y-79775000D01*
X106760302Y-79871673D01*
X106581673Y-80050301D01*
X106485000Y-80283690D01*
X106485000Y-80411514D01*
X106309343Y-80148625D01*
X105860017Y-79848395D01*
X105330000Y-79742968D01*
X105196667Y-79769490D01*
X102374611Y-76947434D01*
X102326235Y-76915110D01*
X102006391Y-76701397D01*
X101572045Y-76615000D01*
X96805914Y-76615000D01*
X96757370Y-76566371D01*
X96244100Y-76353243D01*
X95688339Y-76352758D01*
X95620996Y-76380584D01*
X96018037Y-75983542D01*
X105827935Y-75983542D01*
X106016458Y-76172394D01*
G36*
X47037000Y-81283000D02*
X47057000Y-81283000D01*
X47057000Y-81537000D01*
X47037000Y-81537000D01*
X47037000Y-82879656D01*
X47124908Y-82930000D01*
X47037000Y-82980344D01*
X47037000Y-84323000D01*
X47057000Y-84323000D01*
X47057000Y-84577000D01*
X47037000Y-84577000D01*
X47037000Y-85919656D01*
X47251185Y-86042318D01*
X47354235Y-86023481D01*
X47464990Y-85960039D01*
X47464990Y-87360143D01*
X46494990Y-86390143D01*
X46494990Y-86028823D01*
X46568815Y-86042318D01*
X46783000Y-85919656D01*
X46783000Y-84577000D01*
X46763000Y-84577000D01*
X46763000Y-84323000D01*
X46783000Y-84323000D01*
X46783000Y-82980344D01*
X46695092Y-82930000D01*
X46783000Y-82879656D01*
X46783000Y-81537000D01*
X46763000Y-81537000D01*
X46763000Y-81283000D01*
X46783000Y-81283000D01*
X46783000Y-81263000D01*
X47037000Y-81263000D01*
X47037000Y-81283000D01*
X47037000Y-81283000D01*
G37*
X47037000Y-81283000D02*
X47057000Y-81283000D01*
X47057000Y-81537000D01*
X47037000Y-81537000D01*
X47037000Y-82879656D01*
X47124908Y-82930000D01*
X47037000Y-82980344D01*
X47037000Y-84323000D01*
X47057000Y-84323000D01*
X47057000Y-84577000D01*
X47037000Y-84577000D01*
X47037000Y-85919656D01*
X47251185Y-86042318D01*
X47354235Y-86023481D01*
X47464990Y-85960039D01*
X47464990Y-87360143D01*
X46494990Y-86390143D01*
X46494990Y-86028823D01*
X46568815Y-86042318D01*
X46783000Y-85919656D01*
X46783000Y-84577000D01*
X46763000Y-84577000D01*
X46763000Y-84323000D01*
X46783000Y-84323000D01*
X46783000Y-82980344D01*
X46695092Y-82930000D01*
X46783000Y-82879656D01*
X46783000Y-81537000D01*
X46763000Y-81537000D01*
X46763000Y-81283000D01*
X46783000Y-81283000D01*
X46783000Y-81263000D01*
X47037000Y-81263000D01*
X47037000Y-81283000D01*
G36*
X138222998Y-82523155D02*
X138222998Y-82623748D01*
X138064250Y-82465000D01*
X137473691Y-82465000D01*
X137240302Y-82561673D01*
X137061673Y-82740301D01*
X136965000Y-82973690D01*
X136965000Y-83108797D01*
X136699540Y-82780855D01*
X136222684Y-82521827D01*
X136151185Y-82507682D01*
X135937000Y-82630344D01*
X135937000Y-84073000D01*
X138223000Y-84073000D01*
X138223000Y-84053000D01*
X138477000Y-84053000D01*
X138477000Y-84073000D01*
X139576250Y-84073000D01*
X139674547Y-83974704D01*
X140215000Y-84515157D01*
X140215000Y-84894619D01*
X139826539Y-85282404D01*
X139615241Y-85791266D01*
X139614760Y-86342253D01*
X139672910Y-86482988D01*
X133984567Y-86482988D01*
X133635000Y-86133420D01*
X133635000Y-84327000D01*
X134425000Y-84327000D01*
X134425000Y-84677000D01*
X134579028Y-85197349D01*
X134920460Y-85619145D01*
X135397316Y-85878173D01*
X135468815Y-85892318D01*
X135683000Y-85769656D01*
X135683000Y-84327000D01*
X135937000Y-84327000D01*
X135937000Y-85769656D01*
X136151185Y-85892318D01*
X136222684Y-85878173D01*
X136699540Y-85619145D01*
X136965000Y-85291203D01*
X136965000Y-85426310D01*
X137061673Y-85659699D01*
X137240302Y-85838327D01*
X137473691Y-85935000D01*
X138064250Y-85935000D01*
X138223000Y-85776250D01*
X138223000Y-84327000D01*
X138477000Y-84327000D01*
X138477000Y-85776250D01*
X138635750Y-85935000D01*
X139226309Y-85935000D01*
X139459698Y-85838327D01*
X139638327Y-85659699D01*
X139735000Y-85426310D01*
X139735000Y-84485750D01*
X139576250Y-84327000D01*
X138477000Y-84327000D01*
X138223000Y-84327000D01*
X135937000Y-84327000D01*
X135683000Y-84327000D01*
X134425000Y-84327000D01*
X133635000Y-84327000D01*
X133635000Y-84000005D01*
X133635001Y-84000000D01*
X133579902Y-83723000D01*
X134425000Y-83723000D01*
X134425000Y-84073000D01*
X135683000Y-84073000D01*
X135683000Y-82630344D01*
X135468815Y-82507682D01*
X135397316Y-82521827D01*
X134920460Y-82780855D01*
X134579028Y-83202651D01*
X134425000Y-83723000D01*
X133579902Y-83723000D01*
X133567634Y-83661326D01*
X133461488Y-83502467D01*
X133375790Y-83374210D01*
X133375787Y-83374208D01*
X131125790Y-81124210D01*
X131096922Y-81104921D01*
X130838675Y-80932367D01*
X130782484Y-80921190D01*
X130500000Y-80864999D01*
X130499995Y-80865000D01*
X128500005Y-80865000D01*
X128500000Y-80864999D01*
X128175391Y-80929569D01*
X128161325Y-80932367D01*
X127874210Y-81124210D01*
X127874208Y-81124213D01*
X122984346Y-86014074D01*
X122576757Y-86013718D01*
X122067527Y-86224127D01*
X121677581Y-86613394D01*
X121568870Y-86875200D01*
X121377043Y-86837043D01*
X120001242Y-86837043D01*
X119837084Y-86672885D01*
X119837084Y-86561033D01*
X119831921Y-86535079D01*
X119777329Y-86260626D01*
X119607876Y-86007021D01*
X120738382Y-86007021D01*
X121038789Y-85947266D01*
X121293461Y-85777100D01*
X124305090Y-82765471D01*
X124475256Y-82510798D01*
X124535012Y-82210392D01*
X124535011Y-82210387D01*
X124535011Y-80815147D01*
X127615000Y-77735158D01*
X127615000Y-77857002D01*
X127780084Y-77857002D01*
X127658096Y-78079039D01*
X127818959Y-78467423D01*
X128194866Y-78882389D01*
X128700959Y-79121914D01*
X128923000Y-79000629D01*
X128923000Y-77857000D01*
X129177000Y-77857000D01*
X129177000Y-79000629D01*
X129399041Y-79121914D01*
X129905134Y-78882389D01*
X130281041Y-78467423D01*
X130441904Y-78079039D01*
X130319915Y-77857000D01*
X129177000Y-77857000D01*
X128923000Y-77857000D01*
X128903000Y-77857000D01*
X128903000Y-77603000D01*
X128923000Y-77603000D01*
X128923000Y-77583000D01*
X129177000Y-77583000D01*
X129177000Y-77603000D01*
X130319915Y-77603000D01*
X130441904Y-77380961D01*
X130371423Y-77210794D01*
X130600408Y-77165246D01*
X130795335Y-77035000D01*
X132734843Y-77035000D01*
X138222998Y-82523155D01*
X138222998Y-82523155D01*
G37*
X138222998Y-82523155D02*
X138222998Y-82623748D01*
X138064250Y-82465000D01*
X137473691Y-82465000D01*
X137240302Y-82561673D01*
X137061673Y-82740301D01*
X136965000Y-82973690D01*
X136965000Y-83108797D01*
X136699540Y-82780855D01*
X136222684Y-82521827D01*
X136151185Y-82507682D01*
X135937000Y-82630344D01*
X135937000Y-84073000D01*
X138223000Y-84073000D01*
X138223000Y-84053000D01*
X138477000Y-84053000D01*
X138477000Y-84073000D01*
X139576250Y-84073000D01*
X139674547Y-83974704D01*
X140215000Y-84515157D01*
X140215000Y-84894619D01*
X139826539Y-85282404D01*
X139615241Y-85791266D01*
X139614760Y-86342253D01*
X139672910Y-86482988D01*
X133984567Y-86482988D01*
X133635000Y-86133420D01*
X133635000Y-84327000D01*
X134425000Y-84327000D01*
X134425000Y-84677000D01*
X134579028Y-85197349D01*
X134920460Y-85619145D01*
X135397316Y-85878173D01*
X135468815Y-85892318D01*
X135683000Y-85769656D01*
X135683000Y-84327000D01*
X135937000Y-84327000D01*
X135937000Y-85769656D01*
X136151185Y-85892318D01*
X136222684Y-85878173D01*
X136699540Y-85619145D01*
X136965000Y-85291203D01*
X136965000Y-85426310D01*
X137061673Y-85659699D01*
X137240302Y-85838327D01*
X137473691Y-85935000D01*
X138064250Y-85935000D01*
X138223000Y-85776250D01*
X138223000Y-84327000D01*
X138477000Y-84327000D01*
X138477000Y-85776250D01*
X138635750Y-85935000D01*
X139226309Y-85935000D01*
X139459698Y-85838327D01*
X139638327Y-85659699D01*
X139735000Y-85426310D01*
X139735000Y-84485750D01*
X139576250Y-84327000D01*
X138477000Y-84327000D01*
X138223000Y-84327000D01*
X135937000Y-84327000D01*
X135683000Y-84327000D01*
X134425000Y-84327000D01*
X133635000Y-84327000D01*
X133635000Y-84000005D01*
X133635001Y-84000000D01*
X133579902Y-83723000D01*
X134425000Y-83723000D01*
X134425000Y-84073000D01*
X135683000Y-84073000D01*
X135683000Y-82630344D01*
X135468815Y-82507682D01*
X135397316Y-82521827D01*
X134920460Y-82780855D01*
X134579028Y-83202651D01*
X134425000Y-83723000D01*
X133579902Y-83723000D01*
X133567634Y-83661326D01*
X133461488Y-83502467D01*
X133375790Y-83374210D01*
X133375787Y-83374208D01*
X131125790Y-81124210D01*
X131096922Y-81104921D01*
X130838675Y-80932367D01*
X130782484Y-80921190D01*
X130500000Y-80864999D01*
X130499995Y-80865000D01*
X128500005Y-80865000D01*
X128500000Y-80864999D01*
X128175391Y-80929569D01*
X128161325Y-80932367D01*
X127874210Y-81124210D01*
X127874208Y-81124213D01*
X122984346Y-86014074D01*
X122576757Y-86013718D01*
X122067527Y-86224127D01*
X121677581Y-86613394D01*
X121568870Y-86875200D01*
X121377043Y-86837043D01*
X120001242Y-86837043D01*
X119837084Y-86672885D01*
X119837084Y-86561033D01*
X119831921Y-86535079D01*
X119777329Y-86260626D01*
X119607876Y-86007021D01*
X120738382Y-86007021D01*
X121038789Y-85947266D01*
X121293461Y-85777100D01*
X124305090Y-82765471D01*
X124475256Y-82510798D01*
X124535012Y-82210392D01*
X124535011Y-82210387D01*
X124535011Y-80815147D01*
X127615000Y-77735158D01*
X127615000Y-77857002D01*
X127780084Y-77857002D01*
X127658096Y-78079039D01*
X127818959Y-78467423D01*
X128194866Y-78882389D01*
X128700959Y-79121914D01*
X128923000Y-79000629D01*
X128923000Y-77857000D01*
X129177000Y-77857000D01*
X129177000Y-79000629D01*
X129399041Y-79121914D01*
X129905134Y-78882389D01*
X130281041Y-78467423D01*
X130441904Y-78079039D01*
X130319915Y-77857000D01*
X129177000Y-77857000D01*
X128923000Y-77857000D01*
X128903000Y-77857000D01*
X128903000Y-77603000D01*
X128923000Y-77603000D01*
X128923000Y-77583000D01*
X129177000Y-77583000D01*
X129177000Y-77603000D01*
X130319915Y-77603000D01*
X130441904Y-77380961D01*
X130371423Y-77210794D01*
X130600408Y-77165246D01*
X130795335Y-77035000D01*
X132734843Y-77035000D01*
X138222998Y-82523155D01*
G36*
X127322630Y-56173629D02*
X127835473Y-56386580D01*
X127643600Y-56424746D01*
X127388928Y-56594912D01*
X122744920Y-61238920D01*
X122574754Y-61493592D01*
X122550652Y-61614760D01*
X122514999Y-61793999D01*
X122514999Y-62260652D01*
X122257698Y-62168856D01*
X121702632Y-62196638D01*
X121318857Y-62355603D01*
X121249392Y-62597787D01*
X122050000Y-63398395D01*
X122064143Y-63384253D01*
X122243748Y-63563858D01*
X122229605Y-63578000D01*
X122243748Y-63592143D01*
X122064143Y-63771748D01*
X122050000Y-63757605D01*
X121249392Y-64558213D01*
X121281455Y-64670000D01*
X121259697Y-64678990D01*
X120866371Y-65071630D01*
X120653243Y-65584900D01*
X120652758Y-66140661D01*
X120864990Y-66654303D01*
X121217342Y-67007271D01*
X120866371Y-67357630D01*
X120863311Y-67365000D01*
X119349704Y-67365000D01*
X118059521Y-66074816D01*
X118059521Y-65325158D01*
X120014377Y-63370302D01*
X120640856Y-63370302D01*
X120668638Y-63925368D01*
X120827603Y-64309143D01*
X121069787Y-64378608D01*
X121870395Y-63578000D01*
X121069787Y-62777392D01*
X120827603Y-62846857D01*
X120640856Y-63370302D01*
X120014377Y-63370302D01*
X127266889Y-56117790D01*
X127322630Y-56173629D01*
X127322630Y-56173629D01*
G37*
X127322630Y-56173629D02*
X127835473Y-56386580D01*
X127643600Y-56424746D01*
X127388928Y-56594912D01*
X122744920Y-61238920D01*
X122574754Y-61493592D01*
X122550652Y-61614760D01*
X122514999Y-61793999D01*
X122514999Y-62260652D01*
X122257698Y-62168856D01*
X121702632Y-62196638D01*
X121318857Y-62355603D01*
X121249392Y-62597787D01*
X122050000Y-63398395D01*
X122064143Y-63384253D01*
X122243748Y-63563858D01*
X122229605Y-63578000D01*
X122243748Y-63592143D01*
X122064143Y-63771748D01*
X122050000Y-63757605D01*
X121249392Y-64558213D01*
X121281455Y-64670000D01*
X121259697Y-64678990D01*
X120866371Y-65071630D01*
X120653243Y-65584900D01*
X120652758Y-66140661D01*
X120864990Y-66654303D01*
X121217342Y-67007271D01*
X120866371Y-67357630D01*
X120863311Y-67365000D01*
X119349704Y-67365000D01*
X118059521Y-66074816D01*
X118059521Y-65325158D01*
X120014377Y-63370302D01*
X120640856Y-63370302D01*
X120668638Y-63925368D01*
X120827603Y-64309143D01*
X121069787Y-64378608D01*
X121870395Y-63578000D01*
X121069787Y-62777392D01*
X120827603Y-62846857D01*
X120640856Y-63370302D01*
X120014377Y-63370302D01*
X127266889Y-56117790D01*
X127322630Y-56173629D01*
G36*
X139629546Y-31040296D02*
X139576250Y-30987000D01*
X138477000Y-30987000D01*
X138477000Y-31007000D01*
X138223000Y-31007000D01*
X138223000Y-30987000D01*
X135937000Y-30987000D01*
X135937000Y-32429656D01*
X136151185Y-32552318D01*
X136222684Y-32538173D01*
X136699540Y-32279145D01*
X136965000Y-31951203D01*
X136965000Y-32086310D01*
X137061673Y-32319699D01*
X137240302Y-32498327D01*
X137473691Y-32595000D01*
X138064250Y-32595000D01*
X138222998Y-32436252D01*
X138222998Y-32446844D01*
X124807593Y-45862249D01*
X124754554Y-45595604D01*
X127805076Y-42545081D01*
X127805079Y-42545079D01*
X127975245Y-42290406D01*
X128035000Y-41990000D01*
X128035000Y-37344843D01*
X134425000Y-30954843D01*
X134425000Y-31337000D01*
X134579028Y-31857349D01*
X134920460Y-32279145D01*
X135397316Y-32538173D01*
X135468815Y-32552318D01*
X135683000Y-32429656D01*
X135683000Y-30987000D01*
X135663000Y-30987000D01*
X135663000Y-30733000D01*
X135683000Y-30733000D01*
X135683000Y-30713000D01*
X135937000Y-30713000D01*
X135937000Y-30733000D01*
X138223000Y-30733000D01*
X138223000Y-29283750D01*
X138477000Y-29283750D01*
X138477000Y-30733000D01*
X139576250Y-30733000D01*
X139735000Y-30574250D01*
X139735000Y-29633690D01*
X139638327Y-29400301D01*
X139459698Y-29221673D01*
X139226309Y-29125000D01*
X138635750Y-29125000D01*
X138477000Y-29283750D01*
X138223000Y-29283750D01*
X138064250Y-29125000D01*
X137473691Y-29125000D01*
X137240302Y-29221673D01*
X137061673Y-29400301D01*
X136965000Y-29633690D01*
X136965000Y-29768797D01*
X136699540Y-29440855D01*
X136222684Y-29181827D01*
X136202090Y-29177753D01*
X136794788Y-28585055D01*
X142084787Y-28585055D01*
X139629546Y-31040296D01*
X139629546Y-31040296D01*
G37*
X139629546Y-31040296D02*
X139576250Y-30987000D01*
X138477000Y-30987000D01*
X138477000Y-31007000D01*
X138223000Y-31007000D01*
X138223000Y-30987000D01*
X135937000Y-30987000D01*
X135937000Y-32429656D01*
X136151185Y-32552318D01*
X136222684Y-32538173D01*
X136699540Y-32279145D01*
X136965000Y-31951203D01*
X136965000Y-32086310D01*
X137061673Y-32319699D01*
X137240302Y-32498327D01*
X137473691Y-32595000D01*
X138064250Y-32595000D01*
X138222998Y-32436252D01*
X138222998Y-32446844D01*
X124807593Y-45862249D01*
X124754554Y-45595604D01*
X127805076Y-42545081D01*
X127805079Y-42545079D01*
X127975245Y-42290406D01*
X128035000Y-41990000D01*
X128035000Y-37344843D01*
X134425000Y-30954843D01*
X134425000Y-31337000D01*
X134579028Y-31857349D01*
X134920460Y-32279145D01*
X135397316Y-32538173D01*
X135468815Y-32552318D01*
X135683000Y-32429656D01*
X135683000Y-30987000D01*
X135663000Y-30987000D01*
X135663000Y-30733000D01*
X135683000Y-30733000D01*
X135683000Y-30713000D01*
X135937000Y-30713000D01*
X135937000Y-30733000D01*
X138223000Y-30733000D01*
X138223000Y-29283750D01*
X138477000Y-29283750D01*
X138477000Y-30733000D01*
X139576250Y-30733000D01*
X139735000Y-30574250D01*
X139735000Y-29633690D01*
X139638327Y-29400301D01*
X139459698Y-29221673D01*
X139226309Y-29125000D01*
X138635750Y-29125000D01*
X138477000Y-29283750D01*
X138223000Y-29283750D01*
X138064250Y-29125000D01*
X137473691Y-29125000D01*
X137240302Y-29221673D01*
X137061673Y-29400301D01*
X136965000Y-29633690D01*
X136965000Y-29768797D01*
X136699540Y-29440855D01*
X136222684Y-29181827D01*
X136202090Y-29177753D01*
X136794788Y-28585055D01*
X142084787Y-28585055D01*
X139629546Y-31040296D01*
G36*
X102917000Y-30483000D02*
X102937000Y-30483000D01*
X102937000Y-30737000D01*
X102917000Y-30737000D01*
X102917000Y-30757000D01*
X102663000Y-30757000D01*
X102663000Y-30737000D01*
X102643000Y-30737000D01*
X102643000Y-30483000D01*
X102663000Y-30483000D01*
X102663000Y-30463000D01*
X102917000Y-30463000D01*
X102917000Y-30483000D01*
X102917000Y-30483000D01*
G37*
X102917000Y-30483000D02*
X102937000Y-30483000D01*
X102937000Y-30737000D01*
X102917000Y-30737000D01*
X102917000Y-30757000D01*
X102663000Y-30757000D01*
X102663000Y-30737000D01*
X102643000Y-30737000D01*
X102643000Y-30483000D01*
X102663000Y-30483000D01*
X102663000Y-30463000D01*
X102917000Y-30463000D01*
X102917000Y-30483000D01*
M02*
