%FSLAX45Y45*%
G04 Gerber Fmt 4.5, Leading zero omitted, Abs format (unit mm)*
G04 Created by KiCad (PCBNEW 4.0.2-stable) date 15/08/2016 17:49:43*
%MOMM*%
G01*
G04 APERTURE LIST*
%ADD10C,0.127000*%
%ADD11C,0.100000*%
%ADD12C,0.200000*%
%ADD13C,0.300000*%
G04 APERTURE END LIST*
D10*
D11*
X16225000Y-10150000D02*
X15825000Y-10150000D01*
X16225000Y-1425000D02*
X16225000Y-10150000D01*
X15825000Y-1425000D02*
X16225000Y-1425000D01*
X15825000Y-1425000D02*
X15800000Y-1425000D01*
X15800000Y-10150000D02*
X15825000Y-10150000D01*
X15800000Y-1425000D02*
X4450000Y-1425000D01*
X15775000Y-10150000D02*
X15800000Y-10150000D01*
X4450000Y-10150000D02*
X15775000Y-10150000D01*
X4450000Y-1425000D02*
X4450000Y-10150000D01*
D12*
X6114948Y-7714948D02*
X6185052Y-7785052D01*
X6185052Y-7714948D02*
X6114948Y-7785052D01*
X7130948Y-7714948D02*
X7201052Y-7785052D01*
X7201052Y-7714948D02*
X7130948Y-7785052D01*
X12243100Y-6357800D02*
G75*
G03X12243100Y-6357800I-38100J0D01*
G01*
X12243100Y-6586400D02*
G75*
G03X12243100Y-6586400I-38100J0D01*
G01*
X12243100Y-6815000D02*
G75*
G03X12243100Y-6815000I-38100J0D01*
G01*
X11573000Y-3279000D02*
X11573000Y-3359000D01*
X11533000Y-3319000D02*
X11613000Y-3319000D01*
X11573000Y-3533000D02*
X11573000Y-3613000D01*
X11533000Y-3573000D02*
X11613000Y-3573000D01*
X11573000Y-3787000D02*
X11573000Y-3867000D01*
X11533000Y-3827000D02*
X11613000Y-3827000D01*
X11573000Y-4041000D02*
X11573000Y-4121000D01*
X11533000Y-4081000D02*
X11613000Y-4081000D01*
X11573000Y-4295000D02*
X11573000Y-4375000D01*
X11533000Y-4335000D02*
X11613000Y-4335000D01*
X11573000Y-4549000D02*
X11573000Y-4629000D01*
X11533000Y-4589000D02*
X11613000Y-4589000D01*
X11573000Y-4803000D02*
X11573000Y-4883000D01*
X11533000Y-4843000D02*
X11613000Y-4843000D01*
X11573000Y-5057000D02*
X11573000Y-5137000D01*
X11533000Y-5097000D02*
X11613000Y-5097000D01*
X11573000Y-5311000D02*
X11573000Y-5391000D01*
X11533000Y-5351000D02*
X11613000Y-5351000D01*
X11573000Y-5565000D02*
X11573000Y-5645000D01*
X11533000Y-5605000D02*
X11613000Y-5605000D01*
X12335000Y-3279000D02*
X12335000Y-3359000D01*
X12295000Y-3319000D02*
X12375000Y-3319000D01*
X12335000Y-3533000D02*
X12335000Y-3613000D01*
X12295000Y-3573000D02*
X12375000Y-3573000D01*
X12335000Y-3787000D02*
X12335000Y-3867000D01*
X12295000Y-3827000D02*
X12375000Y-3827000D01*
X12335000Y-4041000D02*
X12335000Y-4121000D01*
X12295000Y-4081000D02*
X12375000Y-4081000D01*
X12335000Y-4295000D02*
X12335000Y-4375000D01*
X12295000Y-4335000D02*
X12375000Y-4335000D01*
X12335000Y-4549000D02*
X12335000Y-4629000D01*
X12295000Y-4589000D02*
X12375000Y-4589000D01*
X12335000Y-4803000D02*
X12335000Y-4883000D01*
X12295000Y-4843000D02*
X12375000Y-4843000D01*
X12335000Y-5057000D02*
X12335000Y-5137000D01*
X12295000Y-5097000D02*
X12375000Y-5097000D01*
X12335000Y-5311000D02*
X12335000Y-5391000D01*
X12295000Y-5351000D02*
X12375000Y-5351000D01*
X12335000Y-5565000D02*
X12335000Y-5645000D01*
X12295000Y-5605000D02*
X12375000Y-5605000D01*
X12905000Y-5955000D02*
X12905000Y-6035000D01*
X12865000Y-5995000D02*
X12945000Y-5995000D01*
X12905000Y-6209000D02*
X12905000Y-6289000D01*
X12865000Y-6249000D02*
X12945000Y-6249000D01*
X12905000Y-6463000D02*
X12905000Y-6543000D01*
X12865000Y-6503000D02*
X12945000Y-6503000D01*
X12905000Y-6717000D02*
X12905000Y-6797000D01*
X12865000Y-6757000D02*
X12945000Y-6757000D01*
X12905000Y-6971000D02*
X12905000Y-7051000D01*
X12865000Y-7011000D02*
X12945000Y-7011000D01*
X12905000Y-7225000D02*
X12905000Y-7305000D01*
X12865000Y-7265000D02*
X12945000Y-7265000D01*
X12905000Y-7479000D02*
X12905000Y-7559000D01*
X12865000Y-7519000D02*
X12945000Y-7519000D01*
X12905000Y-7733000D02*
X12905000Y-7813000D01*
X12865000Y-7773000D02*
X12945000Y-7773000D01*
X13667000Y-5955000D02*
X13667000Y-6035000D01*
X13627000Y-5995000D02*
X13707000Y-5995000D01*
X13667000Y-6209000D02*
X13667000Y-6289000D01*
X13627000Y-6249000D02*
X13707000Y-6249000D01*
X13667000Y-6463000D02*
X13667000Y-6543000D01*
X13627000Y-6503000D02*
X13707000Y-6503000D01*
X13667000Y-6717000D02*
X13667000Y-6797000D01*
X13627000Y-6757000D02*
X13707000Y-6757000D01*
X13667000Y-6971000D02*
X13667000Y-7051000D01*
X13627000Y-7011000D02*
X13707000Y-7011000D01*
X13667000Y-7225000D02*
X13667000Y-7305000D01*
X13627000Y-7265000D02*
X13707000Y-7265000D01*
X13667000Y-7479000D02*
X13667000Y-7559000D01*
X13627000Y-7519000D02*
X13707000Y-7519000D01*
X13667000Y-7733000D02*
X13667000Y-7813000D01*
X13627000Y-7773000D02*
X13707000Y-7773000D01*
X15025000Y-1835000D02*
X15025000Y-1915000D01*
X14985000Y-1875000D02*
X15065000Y-1875000D01*
X15175000Y-5085000D02*
X15175000Y-5165000D01*
X15135000Y-5125000D02*
X15215000Y-5125000D01*
X11993288Y-7353288D02*
X11993288Y-7296712D01*
X11936712Y-7296712D01*
X11936712Y-7353288D01*
X11993288Y-7353288D01*
X11993288Y-7607288D02*
X11993288Y-7550712D01*
X11936712Y-7550712D01*
X11936712Y-7607288D01*
X11993288Y-7607288D01*
X11993288Y-7861288D02*
X11993288Y-7804712D01*
X11936712Y-7804712D01*
X11936712Y-7861288D01*
X11993288Y-7861288D01*
X11993288Y-8115288D02*
X11993288Y-8058712D01*
X11936712Y-8058712D01*
X11936712Y-8115288D01*
X11993288Y-8115288D01*
X11993288Y-8369288D02*
X11993288Y-8312712D01*
X11936712Y-8312712D01*
X11936712Y-8369288D01*
X11993288Y-8369288D01*
X14803288Y-1903288D02*
X14803288Y-1846712D01*
X14746712Y-1846712D01*
X14746712Y-1903288D01*
X14803288Y-1903288D01*
X15203288Y-4903288D02*
X15203288Y-4846712D01*
X15146712Y-4846712D01*
X15146712Y-4903288D01*
X15203288Y-4903288D01*
X4691000Y-3135911D02*
X4740911Y-3086000D01*
X4691000Y-3036089D01*
X4641089Y-3086000D01*
X4691000Y-3135911D01*
X4691000Y-8215911D02*
X4740911Y-8166000D01*
X4691000Y-8116089D01*
X4641089Y-8166000D01*
X4691000Y-8215911D01*
X4945000Y-3135911D02*
X4994911Y-3086000D01*
X4945000Y-3036089D01*
X4895089Y-3086000D01*
X4945000Y-3135911D01*
X4945000Y-8215911D02*
X4994911Y-8166000D01*
X4945000Y-8116089D01*
X4895089Y-8166000D01*
X4945000Y-8215911D01*
X5199000Y-3135911D02*
X5248911Y-3086000D01*
X5199000Y-3036089D01*
X5149089Y-3086000D01*
X5199000Y-3135911D01*
X5199000Y-8215911D02*
X5248911Y-8166000D01*
X5199000Y-8116089D01*
X5149089Y-8166000D01*
X5199000Y-8215911D01*
X5453000Y-3135911D02*
X5502911Y-3086000D01*
X5453000Y-3036089D01*
X5403089Y-3086000D01*
X5453000Y-3135911D01*
X5453000Y-8215911D02*
X5502911Y-8166000D01*
X5453000Y-8116089D01*
X5403089Y-8166000D01*
X5453000Y-8215911D01*
X5707000Y-3135911D02*
X5756911Y-3086000D01*
X5707000Y-3036089D01*
X5657089Y-3086000D01*
X5707000Y-3135911D01*
X5707000Y-8215911D02*
X5756911Y-8166000D01*
X5707000Y-8116089D01*
X5657089Y-8166000D01*
X5707000Y-8215911D01*
X5961000Y-3135911D02*
X6010911Y-3086000D01*
X5961000Y-3036089D01*
X5911089Y-3086000D01*
X5961000Y-3135911D01*
X5961000Y-8215911D02*
X6010911Y-8166000D01*
X5961000Y-8116089D01*
X5911089Y-8166000D01*
X5961000Y-8215911D01*
X6215000Y-3135911D02*
X6264911Y-3086000D01*
X6215000Y-3036089D01*
X6165089Y-3086000D01*
X6215000Y-3135911D01*
X6215000Y-8215911D02*
X6264911Y-8166000D01*
X6215000Y-8116089D01*
X6165089Y-8166000D01*
X6215000Y-8215911D01*
X6469000Y-3135911D02*
X6518911Y-3086000D01*
X6469000Y-3036089D01*
X6419089Y-3086000D01*
X6469000Y-3135911D01*
X6469000Y-8215911D02*
X6518911Y-8166000D01*
X6469000Y-8116089D01*
X6419089Y-8166000D01*
X6469000Y-8215911D01*
X6723000Y-3135911D02*
X6772911Y-3086000D01*
X6723000Y-3036089D01*
X6673089Y-3086000D01*
X6723000Y-3135911D01*
X6723000Y-8215911D02*
X6772911Y-8166000D01*
X6723000Y-8116089D01*
X6673089Y-8166000D01*
X6723000Y-8215911D01*
X6977000Y-3135911D02*
X7026911Y-3086000D01*
X6977000Y-3036089D01*
X6927089Y-3086000D01*
X6977000Y-3135911D01*
X6977000Y-8215911D02*
X7026911Y-8166000D01*
X6977000Y-8116089D01*
X6927089Y-8166000D01*
X6977000Y-8215911D01*
X7231000Y-3135911D02*
X7280911Y-3086000D01*
X7231000Y-3036089D01*
X7181089Y-3086000D01*
X7231000Y-3135911D01*
X7231000Y-8215911D02*
X7280911Y-8166000D01*
X7231000Y-8116089D01*
X7181089Y-8166000D01*
X7231000Y-8215911D01*
X7485000Y-3135911D02*
X7534911Y-3086000D01*
X7485000Y-3036089D01*
X7435089Y-3086000D01*
X7485000Y-3135911D01*
X7485000Y-8215911D02*
X7534911Y-8166000D01*
X7485000Y-8116089D01*
X7435089Y-8166000D01*
X7485000Y-8215911D01*
X7739000Y-3135911D02*
X7788911Y-3086000D01*
X7739000Y-3036089D01*
X7689089Y-3086000D01*
X7739000Y-3135911D01*
X7739000Y-8215911D02*
X7788911Y-8166000D01*
X7739000Y-8116089D01*
X7689089Y-8166000D01*
X7739000Y-8215911D01*
X7993000Y-3135911D02*
X8042911Y-3086000D01*
X7993000Y-3036089D01*
X7943089Y-3086000D01*
X7993000Y-3135911D01*
X7993000Y-8215911D02*
X8042911Y-8166000D01*
X7993000Y-8116089D01*
X7943089Y-8166000D01*
X7993000Y-8215911D01*
X8247000Y-3135911D02*
X8296911Y-3086000D01*
X8247000Y-3036089D01*
X8197089Y-3086000D01*
X8247000Y-3135911D01*
X8247000Y-8215911D02*
X8296911Y-8166000D01*
X8247000Y-8116089D01*
X8197089Y-8166000D01*
X8247000Y-8215911D01*
X8501000Y-3135911D02*
X8550911Y-3086000D01*
X8501000Y-3036089D01*
X8451089Y-3086000D01*
X8501000Y-3135911D01*
X8501000Y-8215911D02*
X8550911Y-8166000D01*
X8501000Y-8116089D01*
X8451089Y-8166000D01*
X8501000Y-8215911D01*
X8755000Y-3135911D02*
X8804911Y-3086000D01*
X8755000Y-3036089D01*
X8705089Y-3086000D01*
X8755000Y-3135911D01*
X8755000Y-8215911D02*
X8804911Y-8166000D01*
X8755000Y-8116089D01*
X8705089Y-8166000D01*
X8755000Y-8215911D01*
X9009000Y-3135911D02*
X9058911Y-3086000D01*
X9009000Y-3036089D01*
X8959089Y-3086000D01*
X9009000Y-3135911D01*
X9009000Y-8215911D02*
X9058911Y-8166000D01*
X9009000Y-8116089D01*
X8959089Y-8166000D01*
X9009000Y-8215911D01*
X9263000Y-3135911D02*
X9312911Y-3086000D01*
X9263000Y-3036089D01*
X9213089Y-3086000D01*
X9263000Y-3135911D01*
X9263000Y-8215911D02*
X9312911Y-8166000D01*
X9263000Y-8116089D01*
X9213089Y-8166000D01*
X9263000Y-8215911D01*
X9517000Y-3135911D02*
X9566911Y-3086000D01*
X9517000Y-3036089D01*
X9467089Y-3086000D01*
X9517000Y-3135911D01*
X9517000Y-8215911D02*
X9566911Y-8166000D01*
X9517000Y-8116089D01*
X9467089Y-8166000D01*
X9517000Y-8215911D01*
X9771000Y-3135911D02*
X9820911Y-3086000D01*
X9771000Y-3036089D01*
X9721089Y-3086000D01*
X9771000Y-3135911D01*
X9771000Y-8215911D02*
X9820911Y-8166000D01*
X9771000Y-8116089D01*
X9721089Y-8166000D01*
X9771000Y-8215911D01*
X10025000Y-3135911D02*
X10074911Y-3086000D01*
X10025000Y-3036089D01*
X9975089Y-3086000D01*
X10025000Y-3135911D01*
X10025000Y-8215911D02*
X10074911Y-8166000D01*
X10025000Y-8116089D01*
X9975089Y-8166000D01*
X10025000Y-8215911D01*
X10279000Y-3135911D02*
X10328911Y-3086000D01*
X10279000Y-3036089D01*
X10229089Y-3086000D01*
X10279000Y-3135911D01*
X10279000Y-8215911D02*
X10328911Y-8166000D01*
X10279000Y-8116089D01*
X10229089Y-8166000D01*
X10279000Y-8215911D01*
X10533000Y-3135911D02*
X10582911Y-3086000D01*
X10533000Y-3036089D01*
X10483089Y-3086000D01*
X10533000Y-3135911D01*
X10533000Y-8215911D02*
X10582911Y-8166000D01*
X10533000Y-8116089D01*
X10483089Y-8166000D01*
X10533000Y-8215911D01*
X5635000Y-3785000D02*
X5735000Y-3885000D01*
X5735000Y-3785000D02*
X5635000Y-3885000D01*
X5735000Y-3835000D02*
G75*
G03X5735000Y-3835000I-50000J0D01*
G01*
X6092000Y-1748000D02*
X6192000Y-1848000D01*
X6192000Y-1748000D02*
X6092000Y-1848000D01*
X6192000Y-1798000D02*
G75*
G03X6192000Y-1798000I-50000J0D01*
G01*
X6092000Y-2002000D02*
X6192000Y-2102000D01*
X6192000Y-2002000D02*
X6092000Y-2102000D01*
X6192000Y-2052000D02*
G75*
G03X6192000Y-2052000I-50000J0D01*
G01*
X6150000Y-2550000D02*
X6250000Y-2650000D01*
X6250000Y-2550000D02*
X6150000Y-2650000D01*
X6250000Y-2600000D02*
G75*
G03X6250000Y-2600000I-50000J0D01*
G01*
X6274999Y-8860356D02*
X6374999Y-8960356D01*
X6374999Y-8860356D02*
X6274999Y-8960356D01*
X6374999Y-8910356D02*
G75*
G03X6374999Y-8910356I-50000J0D01*
G01*
X6346000Y-1748000D02*
X6446000Y-1848000D01*
X6446000Y-1748000D02*
X6346000Y-1848000D01*
X6446000Y-1798000D02*
G75*
G03X6446000Y-1798000I-50000J0D01*
G01*
X6346000Y-2002000D02*
X6446000Y-2102000D01*
X6446000Y-2002000D02*
X6346000Y-2102000D01*
X6446000Y-2052000D02*
G75*
G03X6446000Y-2052000I-50000J0D01*
G01*
X6552998Y-3797711D02*
X6652998Y-3897711D01*
X6652998Y-3797711D02*
X6552998Y-3897711D01*
X6652998Y-3847711D02*
G75*
G03X6652998Y-3847711I-50000J0D01*
G01*
X6592000Y-9423000D02*
X6692000Y-9523000D01*
X6692000Y-9423000D02*
X6592000Y-9523000D01*
X6692000Y-9473000D02*
G75*
G03X6692000Y-9473000I-50000J0D01*
G01*
X6592000Y-9677000D02*
X6692000Y-9777000D01*
X6692000Y-9677000D02*
X6592000Y-9777000D01*
X6692000Y-9727000D02*
G75*
G03X6692000Y-9727000I-50000J0D01*
G01*
X6600000Y-1748000D02*
X6700000Y-1848000D01*
X6700000Y-1748000D02*
X6600000Y-1848000D01*
X6700000Y-1798000D02*
G75*
G03X6700000Y-1798000I-50000J0D01*
G01*
X6600000Y-2002000D02*
X6700000Y-2102000D01*
X6700000Y-2002000D02*
X6600000Y-2102000D01*
X6700000Y-2052000D02*
G75*
G03X6700000Y-2052000I-50000J0D01*
G01*
X6650000Y-9000000D02*
X6750000Y-9100000D01*
X6750000Y-9000000D02*
X6650000Y-9100000D01*
X6750000Y-9050000D02*
G75*
G03X6750000Y-9050000I-50000J0D01*
G01*
X6771500Y-8800000D02*
X6871500Y-8900000D01*
X6871500Y-8800000D02*
X6771500Y-8900000D01*
X6871500Y-8850000D02*
G75*
G03X6871500Y-8850000I-50000J0D01*
G01*
X6846000Y-9423000D02*
X6946000Y-9523000D01*
X6946000Y-9423000D02*
X6846000Y-9523000D01*
X6946000Y-9473000D02*
G75*
G03X6946000Y-9473000I-50000J0D01*
G01*
X6846000Y-9677000D02*
X6946000Y-9777000D01*
X6946000Y-9677000D02*
X6846000Y-9777000D01*
X6946000Y-9727000D02*
G75*
G03X6946000Y-9727000I-50000J0D01*
G01*
X6854000Y-1748000D02*
X6954000Y-1848000D01*
X6954000Y-1748000D02*
X6854000Y-1848000D01*
X6954000Y-1798000D02*
G75*
G03X6954000Y-1798000I-50000J0D01*
G01*
X6854000Y-2002000D02*
X6954000Y-2102000D01*
X6954000Y-2002000D02*
X6854000Y-2102000D01*
X6954000Y-2052000D02*
G75*
G03X6954000Y-2052000I-50000J0D01*
G01*
X6975144Y-8821479D02*
X7075144Y-8921479D01*
X7075144Y-8821479D02*
X6975144Y-8921479D01*
X7075144Y-8871479D02*
G75*
G03X7075144Y-8871479I-50000J0D01*
G01*
X7100000Y-9423000D02*
X7200000Y-9523000D01*
X7200000Y-9423000D02*
X7100000Y-9523000D01*
X7200000Y-9473000D02*
G75*
G03X7200000Y-9473000I-50000J0D01*
G01*
X7100000Y-9677000D02*
X7200000Y-9777000D01*
X7200000Y-9677000D02*
X7100000Y-9777000D01*
X7200000Y-9727000D02*
G75*
G03X7200000Y-9727000I-50000J0D01*
G01*
X7108000Y-1748000D02*
X7208000Y-1848000D01*
X7208000Y-1748000D02*
X7108000Y-1848000D01*
X7208000Y-1798000D02*
G75*
G03X7208000Y-1798000I-50000J0D01*
G01*
X7108000Y-2002000D02*
X7208000Y-2102000D01*
X7208000Y-2002000D02*
X7108000Y-2102000D01*
X7208000Y-2052000D02*
G75*
G03X7208000Y-2052000I-50000J0D01*
G01*
X7245002Y-8809854D02*
X7345002Y-8909854D01*
X7345002Y-8809854D02*
X7245002Y-8909854D01*
X7345002Y-8859854D02*
G75*
G03X7345002Y-8859854I-50000J0D01*
G01*
X7300000Y-2454998D02*
X7400000Y-2554998D01*
X7400000Y-2454998D02*
X7300000Y-2554998D01*
X7400000Y-2504998D02*
G75*
G03X7400000Y-2504998I-50000J0D01*
G01*
X7354000Y-9423000D02*
X7454000Y-9523000D01*
X7454000Y-9423000D02*
X7354000Y-9523000D01*
X7454000Y-9473000D02*
G75*
G03X7454000Y-9473000I-50000J0D01*
G01*
X7354000Y-9677000D02*
X7454000Y-9777000D01*
X7454000Y-9677000D02*
X7354000Y-9777000D01*
X7454000Y-9727000D02*
G75*
G03X7454000Y-9727000I-50000J0D01*
G01*
X7513382Y-5691820D02*
X7613382Y-5791820D01*
X7613382Y-5691820D02*
X7513382Y-5791820D01*
X7613382Y-5741820D02*
G75*
G03X7613382Y-5741820I-50000J0D01*
G01*
X7520000Y-4511000D02*
X7620000Y-4611000D01*
X7620000Y-4511000D02*
X7520000Y-4611000D01*
X7620000Y-4561000D02*
G75*
G03X7620000Y-4561000I-50000J0D01*
G01*
X7608000Y-9423000D02*
X7708000Y-9523000D01*
X7708000Y-9423000D02*
X7608000Y-9523000D01*
X7708000Y-9473000D02*
G75*
G03X7708000Y-9473000I-50000J0D01*
G01*
X7608000Y-9677000D02*
X7708000Y-9777000D01*
X7708000Y-9677000D02*
X7608000Y-9777000D01*
X7708000Y-9727000D02*
G75*
G03X7708000Y-9727000I-50000J0D01*
G01*
X7677053Y-8777055D02*
X7777053Y-8877055D01*
X7777053Y-8777055D02*
X7677053Y-8877055D01*
X7777053Y-8827055D02*
G75*
G03X7777053Y-8827055I-50000J0D01*
G01*
X7900000Y-2580002D02*
X8000000Y-2680002D01*
X8000000Y-2580002D02*
X7900000Y-2680002D01*
X8000000Y-2630002D02*
G75*
G03X8000000Y-2630002I-50000J0D01*
G01*
X7929878Y-4838002D02*
X8029878Y-4938002D01*
X8029878Y-4838002D02*
X7929878Y-4938002D01*
X8029878Y-4888002D02*
G75*
G03X8029878Y-4888002I-50000J0D01*
G01*
X7933388Y-5726855D02*
X8033388Y-5826855D01*
X8033388Y-5726855D02*
X7933388Y-5826855D01*
X8033388Y-5776855D02*
G75*
G03X8033388Y-5776855I-50000J0D01*
G01*
X8172712Y-2777206D02*
X8272712Y-2877206D01*
X8272712Y-2777206D02*
X8172712Y-2877206D01*
X8272712Y-2827206D02*
G75*
G03X8272712Y-2827206I-50000J0D01*
G01*
X8200000Y-8925000D02*
X8300000Y-9025000D01*
X8300000Y-8925000D02*
X8200000Y-9025000D01*
X8300000Y-8975000D02*
G75*
G03X8300000Y-8975000I-50000J0D01*
G01*
X8217000Y-1748000D02*
X8317000Y-1848000D01*
X8317000Y-1748000D02*
X8217000Y-1848000D01*
X8317000Y-1798000D02*
G75*
G03X8317000Y-1798000I-50000J0D01*
G01*
X8217000Y-2002000D02*
X8317000Y-2102000D01*
X8317000Y-2002000D02*
X8217000Y-2102000D01*
X8317000Y-2052000D02*
G75*
G03X8317000Y-2052000I-50000J0D01*
G01*
X8229925Y-8653925D02*
X8329925Y-8753925D01*
X8329925Y-8653925D02*
X8229925Y-8753925D01*
X8329925Y-8703925D02*
G75*
G03X8329925Y-8703925I-50000J0D01*
G01*
X8316934Y-2662003D02*
X8416934Y-2762003D01*
X8416934Y-2662003D02*
X8316934Y-2762003D01*
X8416934Y-2712003D02*
G75*
G03X8416934Y-2712003I-50000J0D01*
G01*
X8350000Y-6175000D02*
X8450000Y-6275000D01*
X8450000Y-6175000D02*
X8350000Y-6275000D01*
X8450000Y-6225000D02*
G75*
G03X8450000Y-6225000I-50000J0D01*
G01*
X8358220Y-4902928D02*
X8458220Y-5002928D01*
X8458220Y-4902928D02*
X8358220Y-5002928D01*
X8458220Y-4952928D02*
G75*
G03X8458220Y-4952928I-50000J0D01*
G01*
X8450000Y-2525000D02*
X8550000Y-2625000D01*
X8550000Y-2525000D02*
X8450000Y-2625000D01*
X8550000Y-2575000D02*
G75*
G03X8550000Y-2575000I-50000J0D01*
G01*
X8471000Y-1748000D02*
X8571000Y-1848000D01*
X8571000Y-1748000D02*
X8471000Y-1848000D01*
X8571000Y-1798000D02*
G75*
G03X8571000Y-1798000I-50000J0D01*
G01*
X8471000Y-2002000D02*
X8571000Y-2102000D01*
X8571000Y-2002000D02*
X8471000Y-2102000D01*
X8571000Y-2052000D02*
G75*
G03X8571000Y-2052000I-50000J0D01*
G01*
X8476000Y-4593000D02*
X8576000Y-4693000D01*
X8576000Y-4593000D02*
X8476000Y-4693000D01*
X8576000Y-4643000D02*
G75*
G03X8576000Y-4643000I-50000J0D01*
G01*
X8525000Y-6250000D02*
X8625000Y-6350000D01*
X8625000Y-6250000D02*
X8525000Y-6350000D01*
X8625000Y-6300000D02*
G75*
G03X8625000Y-6300000I-50000J0D01*
G01*
X8725000Y-1748000D02*
X8825000Y-1848000D01*
X8825000Y-1748000D02*
X8725000Y-1848000D01*
X8825000Y-1798000D02*
G75*
G03X8825000Y-1798000I-50000J0D01*
G01*
X8725000Y-2002000D02*
X8825000Y-2102000D01*
X8825000Y-2002000D02*
X8725000Y-2102000D01*
X8825000Y-2052000D02*
G75*
G03X8825000Y-2052000I-50000J0D01*
G01*
X8742000Y-9423000D02*
X8842000Y-9523000D01*
X8842000Y-9423000D02*
X8742000Y-9523000D01*
X8842000Y-9473000D02*
G75*
G03X8842000Y-9473000I-50000J0D01*
G01*
X8742000Y-9677000D02*
X8842000Y-9777000D01*
X8842000Y-9677000D02*
X8742000Y-9777000D01*
X8842000Y-9727000D02*
G75*
G03X8842000Y-9727000I-50000J0D01*
G01*
X8775000Y-6200000D02*
X8875000Y-6300000D01*
X8875000Y-6200000D02*
X8775000Y-6300000D01*
X8875000Y-6250000D02*
G75*
G03X8875000Y-6250000I-50000J0D01*
G01*
X8779000Y-4591000D02*
X8879000Y-4691000D01*
X8879000Y-4591000D02*
X8779000Y-4691000D01*
X8879000Y-4641000D02*
G75*
G03X8879000Y-4641000I-50000J0D01*
G01*
X8814950Y-2759322D02*
X8914950Y-2859321D01*
X8914950Y-2759322D02*
X8814950Y-2859321D01*
X8914950Y-2809321D02*
G75*
G03X8914950Y-2809321I-50000J0D01*
G01*
X8954000Y-4716000D02*
X9054000Y-4816000D01*
X9054000Y-4716000D02*
X8954000Y-4816000D01*
X9054000Y-4766000D02*
G75*
G03X9054000Y-4766000I-50000J0D01*
G01*
X8961449Y-2612822D02*
X9061449Y-2712822D01*
X9061449Y-2612822D02*
X8961449Y-2712822D01*
X9061449Y-2662822D02*
G75*
G03X9061449Y-2662822I-50000J0D01*
G01*
X8979000Y-1748000D02*
X9079000Y-1848000D01*
X9079000Y-1748000D02*
X8979000Y-1848000D01*
X9079000Y-1798000D02*
G75*
G03X9079000Y-1798000I-50000J0D01*
G01*
X8979000Y-2002000D02*
X9079000Y-2102000D01*
X9079000Y-2002000D02*
X8979000Y-2102000D01*
X9079000Y-2052000D02*
G75*
G03X9079000Y-2052000I-50000J0D01*
G01*
X8991667Y-8750001D02*
X9091667Y-8850001D01*
X9091667Y-8750001D02*
X8991667Y-8850001D01*
X9091667Y-8800001D02*
G75*
G03X9091667Y-8800001I-50000J0D01*
G01*
X8996000Y-9423000D02*
X9096000Y-9523000D01*
X9096000Y-9423000D02*
X8996000Y-9523000D01*
X9096000Y-9473000D02*
G75*
G03X9096000Y-9473000I-50000J0D01*
G01*
X8996000Y-9677000D02*
X9096000Y-9777000D01*
X9096000Y-9677000D02*
X8996000Y-9777000D01*
X9096000Y-9727000D02*
G75*
G03X9096000Y-9727000I-50000J0D01*
G01*
X9000000Y-6200000D02*
X9100000Y-6300000D01*
X9100000Y-6200000D02*
X9000000Y-6300000D01*
X9100000Y-6250000D02*
G75*
G03X9100000Y-6250000I-50000J0D01*
G01*
X9075000Y-2775000D02*
X9175000Y-2875000D01*
X9175000Y-2775000D02*
X9075000Y-2875000D01*
X9175000Y-2825000D02*
G75*
G03X9175000Y-2825000I-50000J0D01*
G01*
X9195002Y-4843549D02*
X9295002Y-4943549D01*
X9295002Y-4843549D02*
X9195002Y-4943549D01*
X9295002Y-4893549D02*
G75*
G03X9295002Y-4893549I-50000J0D01*
G01*
X9233000Y-1748000D02*
X9333000Y-1848000D01*
X9333000Y-1748000D02*
X9233000Y-1848000D01*
X9333000Y-1798000D02*
G75*
G03X9333000Y-1798000I-50000J0D01*
G01*
X9233000Y-2002000D02*
X9333000Y-2102000D01*
X9333000Y-2002000D02*
X9233000Y-2102000D01*
X9333000Y-2052000D02*
G75*
G03X9333000Y-2052000I-50000J0D01*
G01*
X9250000Y-9423000D02*
X9350000Y-9523000D01*
X9350000Y-9423000D02*
X9250000Y-9523000D01*
X9350000Y-9473000D02*
G75*
G03X9350000Y-9473000I-50000J0D01*
G01*
X9250000Y-9677000D02*
X9350000Y-9777000D01*
X9350000Y-9677000D02*
X9250000Y-9777000D01*
X9350000Y-9727000D02*
G75*
G03X9350000Y-9727000I-50000J0D01*
G01*
X9300000Y-6100000D02*
X9400000Y-6200000D01*
X9400000Y-6100000D02*
X9300000Y-6200000D01*
X9400000Y-6150000D02*
G75*
G03X9400000Y-6150000I-50000J0D01*
G01*
X9403000Y-4837000D02*
X9503000Y-4937000D01*
X9503000Y-4837000D02*
X9403000Y-4937000D01*
X9503000Y-4887000D02*
G75*
G03X9503000Y-4887000I-50000J0D01*
G01*
X9435263Y-5685012D02*
X9535263Y-5785012D01*
X9535263Y-5685012D02*
X9435263Y-5785012D01*
X9535263Y-5735012D02*
G75*
G03X9535263Y-5735012I-50000J0D01*
G01*
X9475000Y-2429990D02*
X9575000Y-2529990D01*
X9575000Y-2429990D02*
X9475000Y-2529990D01*
X9575000Y-2479990D02*
G75*
G03X9575000Y-2479990I-50000J0D01*
G01*
X9504000Y-9423000D02*
X9604000Y-9523000D01*
X9604000Y-9423000D02*
X9504000Y-9523000D01*
X9604000Y-9473000D02*
G75*
G03X9604000Y-9473000I-50000J0D01*
G01*
X9504000Y-9677000D02*
X9604000Y-9777000D01*
X9604000Y-9677000D02*
X9504000Y-9777000D01*
X9604000Y-9727000D02*
G75*
G03X9604000Y-9727000I-50000J0D01*
G01*
X9620002Y-5949995D02*
X9720002Y-6049995D01*
X9720002Y-5949995D02*
X9620002Y-6049995D01*
X9720002Y-5999995D02*
G75*
G03X9720002Y-5999995I-50000J0D01*
G01*
X9627031Y-4835619D02*
X9727031Y-4935619D01*
X9727031Y-4835619D02*
X9627031Y-4935619D01*
X9727031Y-4885619D02*
G75*
G03X9727031Y-4885619I-50000J0D01*
G01*
X9758000Y-9423000D02*
X9858000Y-9523000D01*
X9858000Y-9423000D02*
X9758000Y-9523000D01*
X9858000Y-9473000D02*
G75*
G03X9858000Y-9473000I-50000J0D01*
G01*
X9758000Y-9677000D02*
X9858000Y-9777000D01*
X9858000Y-9677000D02*
X9758000Y-9777000D01*
X9858000Y-9727000D02*
G75*
G03X9858000Y-9727000I-50000J0D01*
G01*
X9834315Y-5732145D02*
X9934315Y-5832145D01*
X9934315Y-5732145D02*
X9834315Y-5832145D01*
X9934315Y-5782145D02*
G75*
G03X9934315Y-5782145I-50000J0D01*
G01*
X9837610Y-5372141D02*
X9937610Y-5472141D01*
X9937610Y-5372141D02*
X9837610Y-5472141D01*
X9937610Y-5422141D02*
G75*
G03X9937610Y-5422141I-50000J0D01*
G01*
X10095000Y-2823681D02*
X10195000Y-2923681D01*
X10195000Y-2823681D02*
X10095000Y-2923681D01*
X10195000Y-2873681D02*
G75*
G03X10195000Y-2873681I-50000J0D01*
G01*
X10150000Y-5850000D02*
X10250000Y-5950000D01*
X10250000Y-5850000D02*
X10150000Y-5950000D01*
X10250000Y-5900000D02*
G75*
G03X10250000Y-5900000I-50000J0D01*
G01*
X10169397Y-5265136D02*
X10269397Y-5365136D01*
X10269397Y-5265136D02*
X10169397Y-5365136D01*
X10269397Y-5315136D02*
G75*
G03X10269397Y-5315136I-50000J0D01*
G01*
X10342000Y-1748000D02*
X10442000Y-1848000D01*
X10442000Y-1748000D02*
X10342000Y-1848000D01*
X10442000Y-1798000D02*
G75*
G03X10442000Y-1798000I-50000J0D01*
G01*
X10342000Y-2002000D02*
X10442000Y-2102000D01*
X10442000Y-2002000D02*
X10342000Y-2102000D01*
X10442000Y-2052000D02*
G75*
G03X10442000Y-2052000I-50000J0D01*
G01*
X10360219Y-6714781D02*
X10460219Y-6814781D01*
X10460219Y-6714781D02*
X10360219Y-6814781D01*
X10460219Y-6764781D02*
G75*
G03X10460219Y-6764781I-50000J0D01*
G01*
X10360219Y-6714781D02*
X10460219Y-6814781D01*
X10460219Y-6714781D02*
X10360219Y-6814781D01*
X10460219Y-6764781D02*
G75*
G03X10460219Y-6764781I-50000J0D01*
G01*
X10375000Y-5300000D02*
X10475000Y-5400000D01*
X10475000Y-5300000D02*
X10375000Y-5400000D01*
X10475000Y-5350000D02*
G75*
G03X10475000Y-5350000I-50000J0D01*
G01*
X10596000Y-1748000D02*
X10696000Y-1848000D01*
X10696000Y-1748000D02*
X10596000Y-1848000D01*
X10696000Y-1798000D02*
G75*
G03X10696000Y-1798000I-50000J0D01*
G01*
X10596000Y-2002000D02*
X10696000Y-2102000D01*
X10696000Y-2002000D02*
X10596000Y-2102000D01*
X10696000Y-2052000D02*
G75*
G03X10696000Y-2052000I-50000J0D01*
G01*
X10624999Y-4450000D02*
X10724999Y-4550000D01*
X10724999Y-4450000D02*
X10624999Y-4550000D01*
X10724999Y-4500000D02*
G75*
G03X10724999Y-4500000I-50000J0D01*
G01*
X10640146Y-7459854D02*
X10740146Y-7559854D01*
X10740146Y-7459854D02*
X10640146Y-7559854D01*
X10740146Y-7509854D02*
G75*
G03X10740146Y-7509854I-50000J0D01*
G01*
X10850000Y-1748000D02*
X10950000Y-1848000D01*
X10950000Y-1748000D02*
X10850000Y-1848000D01*
X10950000Y-1798000D02*
G75*
G03X10950000Y-1798000I-50000J0D01*
G01*
X10850000Y-2002000D02*
X10950000Y-2102000D01*
X10950000Y-2002000D02*
X10850000Y-2102000D01*
X10950000Y-2052000D02*
G75*
G03X10950000Y-2052000I-50000J0D01*
G01*
X10875000Y-8675000D02*
X10975000Y-8775000D01*
X10975000Y-8675000D02*
X10875000Y-8775000D01*
X10975000Y-8725000D02*
G75*
G03X10975000Y-8725000I-50000J0D01*
G01*
X10875000Y-6400000D02*
X10975000Y-6500000D01*
X10975000Y-6400000D02*
X10875000Y-6500000D01*
X10975000Y-6450000D02*
G75*
G03X10975000Y-6450000I-50000J0D01*
G01*
X10892000Y-9423000D02*
X10992000Y-9523000D01*
X10992000Y-9423000D02*
X10892000Y-9523000D01*
X10992000Y-9473000D02*
G75*
G03X10992000Y-9473000I-50000J0D01*
G01*
X10892000Y-9677000D02*
X10992000Y-9777000D01*
X10992000Y-9677000D02*
X10892000Y-9777000D01*
X10992000Y-9727000D02*
G75*
G03X10992000Y-9727000I-50000J0D01*
G01*
X11104000Y-1748000D02*
X11204000Y-1848000D01*
X11204000Y-1748000D02*
X11104000Y-1848000D01*
X11204000Y-1798000D02*
G75*
G03X11204000Y-1798000I-50000J0D01*
G01*
X11104000Y-2002000D02*
X11204000Y-2102000D01*
X11204000Y-2002000D02*
X11104000Y-2102000D01*
X11204000Y-2052000D02*
G75*
G03X11204000Y-2052000I-50000J0D01*
G01*
X11105002Y-2938078D02*
X11205002Y-3038078D01*
X11205002Y-2938078D02*
X11105002Y-3038078D01*
X11205002Y-2988078D02*
G75*
G03X11205002Y-2988078I-50000J0D01*
G01*
X11120703Y-2518071D02*
X11220703Y-2618071D01*
X11220703Y-2518071D02*
X11120703Y-2618071D01*
X11220703Y-2568071D02*
G75*
G03X11220703Y-2568071I-50000J0D01*
G01*
X11146000Y-9423000D02*
X11246000Y-9523000D01*
X11246000Y-9423000D02*
X11146000Y-9523000D01*
X11246000Y-9473000D02*
G75*
G03X11246000Y-9473000I-50000J0D01*
G01*
X11146000Y-9677000D02*
X11246000Y-9777000D01*
X11246000Y-9677000D02*
X11146000Y-9777000D01*
X11246000Y-9727000D02*
G75*
G03X11246000Y-9727000I-50000J0D01*
G01*
X11225000Y-6575000D02*
X11325000Y-6675000D01*
X11325000Y-6575000D02*
X11225000Y-6675000D01*
X11325000Y-6625000D02*
G75*
G03X11325000Y-6625000I-50000J0D01*
G01*
X11358000Y-1748000D02*
X11458000Y-1848000D01*
X11458000Y-1748000D02*
X11358000Y-1848000D01*
X11458000Y-1798000D02*
G75*
G03X11458000Y-1798000I-50000J0D01*
G01*
X11358000Y-2002000D02*
X11458000Y-2102000D01*
X11458000Y-2002000D02*
X11358000Y-2102000D01*
X11458000Y-2052000D02*
G75*
G03X11458000Y-2052000I-50000J0D01*
G01*
X11380049Y-8935083D02*
X11480049Y-9035083D01*
X11480049Y-8935083D02*
X11380049Y-9035083D01*
X11480049Y-8985083D02*
G75*
G03X11480049Y-8985083I-50000J0D01*
G01*
X11389764Y-8595020D02*
X11489764Y-8695020D01*
X11489764Y-8595020D02*
X11389764Y-8695020D01*
X11489764Y-8645020D02*
G75*
G03X11489764Y-8645020I-50000J0D01*
G01*
X11400000Y-9423000D02*
X11500000Y-9523000D01*
X11500000Y-9423000D02*
X11400000Y-9523000D01*
X11500000Y-9473000D02*
G75*
G03X11500000Y-9473000I-50000J0D01*
G01*
X11400000Y-9677000D02*
X11500000Y-9777000D01*
X11500000Y-9677000D02*
X11400000Y-9777000D01*
X11500000Y-9727000D02*
G75*
G03X11500000Y-9727000I-50000J0D01*
G01*
X11478897Y-7438250D02*
X11578897Y-7538250D01*
X11578897Y-7438250D02*
X11478897Y-7538250D01*
X11578897Y-7488250D02*
G75*
G03X11578897Y-7488250I-50000J0D01*
G01*
X11525000Y-6700000D02*
X11625000Y-6800000D01*
X11625000Y-6700000D02*
X11525000Y-6800000D01*
X11625000Y-6750000D02*
G75*
G03X11625000Y-6750000I-50000J0D01*
G01*
X11617771Y-8724199D02*
X11717771Y-8824199D01*
X11717771Y-8724199D02*
X11617771Y-8824199D01*
X11717771Y-8774199D02*
G75*
G03X11717771Y-8774199I-50000J0D01*
G01*
X11654000Y-9423000D02*
X11754000Y-9523000D01*
X11754000Y-9423000D02*
X11654000Y-9523000D01*
X11754000Y-9473000D02*
G75*
G03X11754000Y-9473000I-50000J0D01*
G01*
X11654000Y-9677000D02*
X11754000Y-9777000D01*
X11754000Y-9677000D02*
X11654000Y-9777000D01*
X11754000Y-9727000D02*
G75*
G03X11754000Y-9727000I-50000J0D01*
G01*
X11667678Y-5907322D02*
X11767678Y-6007322D01*
X11767678Y-5907322D02*
X11667678Y-6007322D01*
X11767678Y-5957322D02*
G75*
G03X11767678Y-5957322I-50000J0D01*
G01*
X11797454Y-6527827D02*
X11897454Y-6627827D01*
X11897454Y-6527827D02*
X11797454Y-6627827D01*
X11897454Y-6577827D02*
G75*
G03X11897454Y-6577827I-50000J0D01*
G01*
X11908000Y-9423000D02*
X12008000Y-9523000D01*
X12008000Y-9423000D02*
X11908000Y-9523000D01*
X12008000Y-9473000D02*
G75*
G03X12008000Y-9473000I-50000J0D01*
G01*
X11908000Y-9677000D02*
X12008000Y-9777000D01*
X12008000Y-9677000D02*
X11908000Y-9777000D01*
X12008000Y-9727000D02*
G75*
G03X12008000Y-9727000I-50000J0D01*
G01*
X11932322Y-8892678D02*
X12032322Y-8992678D01*
X12032322Y-8892678D02*
X11932322Y-8992678D01*
X12032322Y-8942678D02*
G75*
G03X12032322Y-8942678I-50000J0D01*
G01*
X11975209Y-8592204D02*
X12075209Y-8692204D01*
X12075209Y-8592204D02*
X11975209Y-8692204D01*
X12075209Y-8642204D02*
G75*
G03X12075209Y-8642204I-50000J0D01*
G01*
X12200000Y-7575000D02*
X12300000Y-7675000D01*
X12300000Y-7575000D02*
X12200000Y-7675000D01*
X12300000Y-7625000D02*
G75*
G03X12300000Y-7625000I-50000J0D01*
G01*
X12235104Y-8689896D02*
X12335104Y-8789896D01*
X12335104Y-8689896D02*
X12235104Y-8789896D01*
X12335104Y-8739896D02*
G75*
G03X12335104Y-8739896I-50000J0D01*
G01*
X12375000Y-7075000D02*
X12475000Y-7175000D01*
X12475000Y-7075000D02*
X12375000Y-7175000D01*
X12475000Y-7125000D02*
G75*
G03X12475000Y-7125000I-50000J0D01*
G01*
X12434750Y-7344000D02*
X12534750Y-7444000D01*
X12534750Y-7344000D02*
X12434750Y-7444000D01*
X12534750Y-7394000D02*
G75*
G03X12534750Y-7394000I-50000J0D01*
G01*
X12467000Y-1748000D02*
X12567000Y-1848000D01*
X12567000Y-1748000D02*
X12467000Y-1848000D01*
X12567000Y-1798000D02*
G75*
G03X12567000Y-1798000I-50000J0D01*
G01*
X12467000Y-2002000D02*
X12567000Y-2102000D01*
X12567000Y-2002000D02*
X12467000Y-2102000D01*
X12567000Y-2052000D02*
G75*
G03X12567000Y-2052000I-50000J0D01*
G01*
X12525000Y-6165600D02*
X12625000Y-6265600D01*
X12625000Y-6165600D02*
X12525000Y-6265600D01*
X12625000Y-6215600D02*
G75*
G03X12625000Y-6215600I-50000J0D01*
G01*
X12650000Y-7175000D02*
X12750000Y-7275000D01*
X12750000Y-7175000D02*
X12650000Y-7275000D01*
X12750000Y-7225000D02*
G75*
G03X12750000Y-7225000I-50000J0D01*
G01*
X12654500Y-7475000D02*
X12754500Y-7575000D01*
X12754500Y-7475000D02*
X12654500Y-7575000D01*
X12754500Y-7525000D02*
G75*
G03X12754500Y-7525000I-50000J0D01*
G01*
X12721000Y-1748000D02*
X12821000Y-1848000D01*
X12821000Y-1748000D02*
X12721000Y-1848000D01*
X12821000Y-1798000D02*
G75*
G03X12821000Y-1798000I-50000J0D01*
G01*
X12721000Y-2002000D02*
X12821000Y-2102000D01*
X12821000Y-2002000D02*
X12721000Y-2102000D01*
X12821000Y-2052000D02*
G75*
G03X12821000Y-2052000I-50000J0D01*
G01*
X12973221Y-8462136D02*
X13073221Y-8562136D01*
X13073221Y-8462136D02*
X12973221Y-8562136D01*
X13073221Y-8512136D02*
G75*
G03X13073221Y-8512136I-50000J0D01*
G01*
X12975000Y-1748000D02*
X13075000Y-1848000D01*
X13075000Y-1748000D02*
X12975000Y-1848000D01*
X13075000Y-1798000D02*
G75*
G03X13075000Y-1798000I-50000J0D01*
G01*
X12975000Y-2002000D02*
X13075000Y-2102000D01*
X13075000Y-2002000D02*
X12975000Y-2102000D01*
X13075000Y-2052000D02*
G75*
G03X13075000Y-2052000I-50000J0D01*
G01*
X13042000Y-9423000D02*
X13142000Y-9523000D01*
X13142000Y-9423000D02*
X13042000Y-9523000D01*
X13142000Y-9473000D02*
G75*
G03X13142000Y-9473000I-50000J0D01*
G01*
X13042000Y-9677000D02*
X13142000Y-9777000D01*
X13142000Y-9677000D02*
X13042000Y-9777000D01*
X13142000Y-9727000D02*
G75*
G03X13142000Y-9727000I-50000J0D01*
G01*
X13079686Y-8808245D02*
X13179686Y-8908245D01*
X13179686Y-8808245D02*
X13079686Y-8908245D01*
X13179686Y-8858245D02*
G75*
G03X13179686Y-8858245I-50000J0D01*
G01*
X13229000Y-1748000D02*
X13329000Y-1848000D01*
X13329000Y-1748000D02*
X13229000Y-1848000D01*
X13329000Y-1798000D02*
G75*
G03X13329000Y-1798000I-50000J0D01*
G01*
X13229000Y-2002000D02*
X13329000Y-2102000D01*
X13329000Y-2002000D02*
X13229000Y-2102000D01*
X13329000Y-2052000D02*
G75*
G03X13329000Y-2052000I-50000J0D01*
G01*
X13296000Y-9423000D02*
X13396000Y-9523000D01*
X13396000Y-9423000D02*
X13296000Y-9523000D01*
X13396000Y-9473000D02*
G75*
G03X13396000Y-9473000I-50000J0D01*
G01*
X13296000Y-9677000D02*
X13396000Y-9777000D01*
X13396000Y-9677000D02*
X13296000Y-9777000D01*
X13396000Y-9727000D02*
G75*
G03X13396000Y-9727000I-50000J0D01*
G01*
X13355002Y-8520096D02*
X13455002Y-8620096D01*
X13455002Y-8520096D02*
X13355002Y-8620096D01*
X13455002Y-8570096D02*
G75*
G03X13455002Y-8570096I-50000J0D01*
G01*
X13400000Y-4725000D02*
X13500000Y-4825000D01*
X13500000Y-4725000D02*
X13400000Y-4825000D01*
X13500000Y-4775000D02*
G75*
G03X13500000Y-4775000I-50000J0D01*
G01*
X13483000Y-1748000D02*
X13583000Y-1848000D01*
X13583000Y-1748000D02*
X13483000Y-1848000D01*
X13583000Y-1798000D02*
G75*
G03X13583000Y-1798000I-50000J0D01*
G01*
X13483000Y-2002000D02*
X13583000Y-2102000D01*
X13583000Y-2002000D02*
X13483000Y-2102000D01*
X13583000Y-2052000D02*
G75*
G03X13583000Y-2052000I-50000J0D01*
G01*
X13550000Y-9423000D02*
X13650000Y-9523000D01*
X13650000Y-9423000D02*
X13550000Y-9523000D01*
X13650000Y-9473000D02*
G75*
G03X13650000Y-9473000I-50000J0D01*
G01*
X13550000Y-9677000D02*
X13650000Y-9777000D01*
X13650000Y-9677000D02*
X13550000Y-9777000D01*
X13650000Y-9727000D02*
G75*
G03X13650000Y-9727000I-50000J0D01*
G01*
X13800000Y-6000000D02*
X13900000Y-6100000D01*
X13900000Y-6000000D02*
X13800000Y-6100000D01*
X13900000Y-6050000D02*
G75*
G03X13900000Y-6050000I-50000J0D01*
G01*
X13804000Y-9423000D02*
X13904000Y-9523000D01*
X13904000Y-9423000D02*
X13804000Y-9523000D01*
X13904000Y-9473000D02*
G75*
G03X13904000Y-9473000I-50000J0D01*
G01*
X13804000Y-9677000D02*
X13904000Y-9777000D01*
X13904000Y-9677000D02*
X13804000Y-9777000D01*
X13904000Y-9727000D02*
G75*
G03X13904000Y-9727000I-50000J0D01*
G01*
X13816821Y-6552112D02*
X13916821Y-6652112D01*
X13916821Y-6552112D02*
X13816821Y-6652112D01*
X13916821Y-6602112D02*
G75*
G03X13916821Y-6602112I-50000J0D01*
G01*
X13950000Y-6125000D02*
X14050000Y-6225000D01*
X14050000Y-6125000D02*
X13950000Y-6225000D01*
X14050000Y-6175000D02*
G75*
G03X14050000Y-6175000I-50000J0D01*
G01*
X13973706Y-5810205D02*
X14073706Y-5910205D01*
X14073706Y-5810205D02*
X13973706Y-5910205D01*
X14073706Y-5860205D02*
G75*
G03X14073706Y-5860205I-50000J0D01*
G01*
X14025000Y-7125000D02*
X14125000Y-7225000D01*
X14125000Y-7125000D02*
X14025000Y-7225000D01*
X14125000Y-7175000D02*
G75*
G03X14125000Y-7175000I-50000J0D01*
G01*
X14031000Y-7594000D02*
X14131000Y-7694000D01*
X14131000Y-7594000D02*
X14031000Y-7694000D01*
X14131000Y-7644000D02*
G75*
G03X14131000Y-7644000I-50000J0D01*
G01*
X14050000Y-8556797D02*
X14150000Y-8656797D01*
X14150000Y-8556797D02*
X14050000Y-8656797D01*
X14150000Y-8606797D02*
G75*
G03X14150000Y-8606797I-50000J0D01*
G01*
X14056454Y-8818546D02*
X14156454Y-8918546D01*
X14156454Y-8818546D02*
X14056454Y-8918546D01*
X14156454Y-8868546D02*
G75*
G03X14156454Y-8868546I-50000J0D01*
G01*
X14058000Y-9423000D02*
X14158000Y-9523000D01*
X14158000Y-9423000D02*
X14058000Y-9523000D01*
X14158000Y-9473000D02*
G75*
G03X14158000Y-9473000I-50000J0D01*
G01*
X14058000Y-9677000D02*
X14158000Y-9777000D01*
X14158000Y-9677000D02*
X14058000Y-9777000D01*
X14158000Y-9727000D02*
G75*
G03X14158000Y-9727000I-50000J0D01*
G01*
X14070002Y-6507886D02*
X14170002Y-6607886D01*
X14170002Y-6507886D02*
X14070002Y-6607886D01*
X14170002Y-6557886D02*
G75*
G03X14170002Y-6557886I-50000J0D01*
G01*
X14100000Y-5450000D02*
X14200000Y-5550000D01*
X14200000Y-5450000D02*
X14100000Y-5550000D01*
X14200000Y-5500000D02*
G75*
G03X14200000Y-5500000I-50000J0D01*
G01*
X14515000Y-2919000D02*
X14615000Y-3019000D01*
X14615000Y-2919000D02*
X14515000Y-3019000D01*
X14615000Y-2969000D02*
G75*
G03X14615000Y-2969000I-50000J0D01*
G01*
X14515000Y-3173000D02*
X14615000Y-3273000D01*
X14615000Y-3173000D02*
X14515000Y-3273000D01*
X14615000Y-3223000D02*
G75*
G03X14615000Y-3223000I-50000J0D01*
G01*
X14515000Y-3427000D02*
X14615000Y-3527000D01*
X14615000Y-3427000D02*
X14515000Y-3527000D01*
X14615000Y-3477000D02*
G75*
G03X14615000Y-3477000I-50000J0D01*
G01*
X14515000Y-3681000D02*
X14615000Y-3781000D01*
X14615000Y-3681000D02*
X14515000Y-3781000D01*
X14615000Y-3731000D02*
G75*
G03X14615000Y-3731000I-50000J0D01*
G01*
X14515000Y-3935000D02*
X14615000Y-4035000D01*
X14615000Y-3935000D02*
X14515000Y-4035000D01*
X14615000Y-3985000D02*
G75*
G03X14615000Y-3985000I-50000J0D01*
G01*
X14528000Y-5816000D02*
X14628000Y-5916000D01*
X14628000Y-5816000D02*
X14528000Y-5916000D01*
X14628000Y-5866000D02*
G75*
G03X14628000Y-5866000I-50000J0D01*
G01*
X14528000Y-6070000D02*
X14628000Y-6170000D01*
X14628000Y-6070000D02*
X14528000Y-6170000D01*
X14628000Y-6120000D02*
G75*
G03X14628000Y-6120000I-50000J0D01*
G01*
X14528000Y-6324000D02*
X14628000Y-6424000D01*
X14628000Y-6324000D02*
X14528000Y-6424000D01*
X14628000Y-6374000D02*
G75*
G03X14628000Y-6374000I-50000J0D01*
G01*
X14528000Y-6578000D02*
X14628000Y-6678000D01*
X14628000Y-6578000D02*
X14528000Y-6678000D01*
X14628000Y-6628000D02*
G75*
G03X14628000Y-6628000I-50000J0D01*
G01*
X14528000Y-6832000D02*
X14628000Y-6932000D01*
X14628000Y-6832000D02*
X14528000Y-6932000D01*
X14628000Y-6882000D02*
G75*
G03X14628000Y-6882000I-50000J0D01*
G01*
X14528000Y-7086000D02*
X14628000Y-7186000D01*
X14628000Y-7086000D02*
X14528000Y-7186000D01*
X14628000Y-7136000D02*
G75*
G03X14628000Y-7136000I-50000J0D01*
G01*
X14528000Y-7340000D02*
X14628000Y-7440000D01*
X14628000Y-7340000D02*
X14528000Y-7440000D01*
X14628000Y-7390000D02*
G75*
G03X14628000Y-7390000I-50000J0D01*
G01*
X14528000Y-7594000D02*
X14628000Y-7694000D01*
X14628000Y-7594000D02*
X14528000Y-7694000D01*
X14628000Y-7644000D02*
G75*
G03X14628000Y-7644000I-50000J0D01*
G01*
X14652439Y-8413747D02*
X14752439Y-8513747D01*
X14752439Y-8413747D02*
X14652439Y-8513747D01*
X14752439Y-8463747D02*
G75*
G03X14752439Y-8463747I-50000J0D01*
G01*
X14675000Y-9175000D02*
X14775000Y-9275000D01*
X14775000Y-9175000D02*
X14675000Y-9275000D01*
X14775000Y-9225000D02*
G75*
G03X14775000Y-9225000I-50000J0D01*
G01*
X14769000Y-2919000D02*
X14869000Y-3019000D01*
X14869000Y-2919000D02*
X14769000Y-3019000D01*
X14869000Y-2969000D02*
G75*
G03X14869000Y-2969000I-50000J0D01*
G01*
X14769000Y-3173000D02*
X14869000Y-3273000D01*
X14869000Y-3173000D02*
X14769000Y-3273000D01*
X14869000Y-3223000D02*
G75*
G03X14869000Y-3223000I-50000J0D01*
G01*
X14769000Y-3427000D02*
X14869000Y-3527000D01*
X14869000Y-3427000D02*
X14769000Y-3527000D01*
X14869000Y-3477000D02*
G75*
G03X14869000Y-3477000I-50000J0D01*
G01*
X14769000Y-3681000D02*
X14869000Y-3781000D01*
X14869000Y-3681000D02*
X14769000Y-3781000D01*
X14869000Y-3731000D02*
G75*
G03X14869000Y-3731000I-50000J0D01*
G01*
X14769000Y-3935000D02*
X14869000Y-4035000D01*
X14869000Y-3935000D02*
X14769000Y-4035000D01*
X14869000Y-3985000D02*
G75*
G03X14869000Y-3985000I-50000J0D01*
G01*
X14782000Y-5816000D02*
X14882000Y-5916000D01*
X14882000Y-5816000D02*
X14782000Y-5916000D01*
X14882000Y-5866000D02*
G75*
G03X14882000Y-5866000I-50000J0D01*
G01*
X14782000Y-6070000D02*
X14882000Y-6170000D01*
X14882000Y-6070000D02*
X14782000Y-6170000D01*
X14882000Y-6120000D02*
G75*
G03X14882000Y-6120000I-50000J0D01*
G01*
X14782000Y-6324000D02*
X14882000Y-6424000D01*
X14882000Y-6324000D02*
X14782000Y-6424000D01*
X14882000Y-6374000D02*
G75*
G03X14882000Y-6374000I-50000J0D01*
G01*
X14782000Y-6578000D02*
X14882000Y-6678000D01*
X14882000Y-6578000D02*
X14782000Y-6678000D01*
X14882000Y-6628000D02*
G75*
G03X14882000Y-6628000I-50000J0D01*
G01*
X14782000Y-6832000D02*
X14882000Y-6932000D01*
X14882000Y-6832000D02*
X14782000Y-6932000D01*
X14882000Y-6882000D02*
G75*
G03X14882000Y-6882000I-50000J0D01*
G01*
X14782000Y-7086000D02*
X14882000Y-7186000D01*
X14882000Y-7086000D02*
X14782000Y-7186000D01*
X14882000Y-7136000D02*
G75*
G03X14882000Y-7136000I-50000J0D01*
G01*
X14782000Y-7340000D02*
X14882000Y-7440000D01*
X14882000Y-7340000D02*
X14782000Y-7440000D01*
X14882000Y-7390000D02*
G75*
G03X14882000Y-7390000I-50000J0D01*
G01*
X14782000Y-7594000D02*
X14882000Y-7694000D01*
X14882000Y-7594000D02*
X14782000Y-7694000D01*
X14882000Y-7644000D02*
G75*
G03X14882000Y-7644000I-50000J0D01*
G01*
X14851988Y-8229279D02*
X14951988Y-8329279D01*
X14951988Y-8229279D02*
X14851988Y-8329279D01*
X14951988Y-8279279D02*
G75*
G03X14951988Y-8279279I-50000J0D01*
G01*
X14925000Y-5200000D02*
X15025000Y-5300000D01*
X15025000Y-5200000D02*
X14925000Y-5300000D01*
X15025000Y-5250000D02*
G75*
G03X15025000Y-5250000I-50000J0D01*
G01*
X15425000Y-5225000D02*
X15525000Y-5325000D01*
X15525000Y-5225000D02*
X15425000Y-5325000D01*
X15525000Y-5275000D02*
G75*
G03X15525000Y-5275000I-50000J0D01*
G01*
X15498000Y-2917000D02*
X15598000Y-3017000D01*
X15598000Y-2917000D02*
X15498000Y-3017000D01*
X15598000Y-2967000D02*
G75*
G03X15598000Y-2967000I-50000J0D01*
G01*
X15498000Y-3171000D02*
X15598000Y-3271000D01*
X15598000Y-3171000D02*
X15498000Y-3271000D01*
X15598000Y-3221000D02*
G75*
G03X15598000Y-3221000I-50000J0D01*
G01*
X15498000Y-3425000D02*
X15598000Y-3525000D01*
X15598000Y-3425000D02*
X15498000Y-3525000D01*
X15598000Y-3475000D02*
G75*
G03X15598000Y-3475000I-50000J0D01*
G01*
X15498000Y-3679000D02*
X15598000Y-3779000D01*
X15598000Y-3679000D02*
X15498000Y-3779000D01*
X15598000Y-3729000D02*
G75*
G03X15598000Y-3729000I-50000J0D01*
G01*
X15498000Y-3933000D02*
X15598000Y-4033000D01*
X15598000Y-3933000D02*
X15498000Y-4033000D01*
X15598000Y-3983000D02*
G75*
G03X15598000Y-3983000I-50000J0D01*
G01*
X15528000Y-5816000D02*
X15628000Y-5916000D01*
X15628000Y-5816000D02*
X15528000Y-5916000D01*
X15628000Y-5866000D02*
G75*
G03X15628000Y-5866000I-50000J0D01*
G01*
X15528000Y-6070000D02*
X15628000Y-6170000D01*
X15628000Y-6070000D02*
X15528000Y-6170000D01*
X15628000Y-6120000D02*
G75*
G03X15628000Y-6120000I-50000J0D01*
G01*
X15528000Y-6324000D02*
X15628000Y-6424000D01*
X15628000Y-6324000D02*
X15528000Y-6424000D01*
X15628000Y-6374000D02*
G75*
G03X15628000Y-6374000I-50000J0D01*
G01*
X15528000Y-6578000D02*
X15628000Y-6678000D01*
X15628000Y-6578000D02*
X15528000Y-6678000D01*
X15628000Y-6628000D02*
G75*
G03X15628000Y-6628000I-50000J0D01*
G01*
X15528000Y-6832000D02*
X15628000Y-6932000D01*
X15628000Y-6832000D02*
X15528000Y-6932000D01*
X15628000Y-6882000D02*
G75*
G03X15628000Y-6882000I-50000J0D01*
G01*
X15528000Y-7086000D02*
X15628000Y-7186000D01*
X15628000Y-7086000D02*
X15528000Y-7186000D01*
X15628000Y-7136000D02*
G75*
G03X15628000Y-7136000I-50000J0D01*
G01*
X15528000Y-7340000D02*
X15628000Y-7440000D01*
X15628000Y-7340000D02*
X15528000Y-7440000D01*
X15628000Y-7390000D02*
G75*
G03X15628000Y-7390000I-50000J0D01*
G01*
X15528000Y-7594000D02*
X15628000Y-7694000D01*
X15628000Y-7594000D02*
X15528000Y-7694000D01*
X15628000Y-7644000D02*
G75*
G03X15628000Y-7644000I-50000J0D01*
G01*
X15752000Y-2917000D02*
X15852000Y-3017000D01*
X15852000Y-2917000D02*
X15752000Y-3017000D01*
X15852000Y-2967000D02*
G75*
G03X15852000Y-2967000I-50000J0D01*
G01*
X15752000Y-3171000D02*
X15852000Y-3271000D01*
X15852000Y-3171000D02*
X15752000Y-3271000D01*
X15852000Y-3221000D02*
G75*
G03X15852000Y-3221000I-50000J0D01*
G01*
X15752000Y-3425000D02*
X15852000Y-3525000D01*
X15852000Y-3425000D02*
X15752000Y-3525000D01*
X15852000Y-3475000D02*
G75*
G03X15852000Y-3475000I-50000J0D01*
G01*
X15752000Y-3679000D02*
X15852000Y-3779000D01*
X15852000Y-3679000D02*
X15752000Y-3779000D01*
X15852000Y-3729000D02*
G75*
G03X15852000Y-3729000I-50000J0D01*
G01*
X15752000Y-3933000D02*
X15852000Y-4033000D01*
X15852000Y-3933000D02*
X15752000Y-4033000D01*
X15852000Y-3983000D02*
G75*
G03X15852000Y-3983000I-50000J0D01*
G01*
X15782000Y-5816000D02*
X15882000Y-5916000D01*
X15882000Y-5816000D02*
X15782000Y-5916000D01*
X15882000Y-5866000D02*
G75*
G03X15882000Y-5866000I-50000J0D01*
G01*
X15782000Y-6070000D02*
X15882000Y-6170000D01*
X15882000Y-6070000D02*
X15782000Y-6170000D01*
X15882000Y-6120000D02*
G75*
G03X15882000Y-6120000I-50000J0D01*
G01*
X15782000Y-6324000D02*
X15882000Y-6424000D01*
X15882000Y-6324000D02*
X15782000Y-6424000D01*
X15882000Y-6374000D02*
G75*
G03X15882000Y-6374000I-50000J0D01*
G01*
X15782000Y-6578000D02*
X15882000Y-6678000D01*
X15882000Y-6578000D02*
X15782000Y-6678000D01*
X15882000Y-6628000D02*
G75*
G03X15882000Y-6628000I-50000J0D01*
G01*
X15782000Y-6832000D02*
X15882000Y-6932000D01*
X15882000Y-6832000D02*
X15782000Y-6932000D01*
X15882000Y-6882000D02*
G75*
G03X15882000Y-6882000I-50000J0D01*
G01*
X15782000Y-7086000D02*
X15882000Y-7186000D01*
X15882000Y-7086000D02*
X15782000Y-7186000D01*
X15882000Y-7136000D02*
G75*
G03X15882000Y-7136000I-50000J0D01*
G01*
X15782000Y-7340000D02*
X15882000Y-7440000D01*
X15882000Y-7340000D02*
X15782000Y-7440000D01*
X15882000Y-7390000D02*
G75*
G03X15882000Y-7390000I-50000J0D01*
G01*
X15782000Y-7594000D02*
X15882000Y-7694000D01*
X15882000Y-7594000D02*
X15782000Y-7694000D01*
X15882000Y-7644000D02*
G75*
G03X15882000Y-7644000I-50000J0D01*
G01*
X4640962Y-3289962D02*
X4741038Y-3390038D01*
X4741038Y-3289962D02*
X4640962Y-3390038D01*
X4691000Y-3289962D02*
X4691000Y-3390038D01*
X4640962Y-3340000D02*
X4741038Y-3340000D01*
X4640962Y-8369962D02*
X4741038Y-8470038D01*
X4741038Y-8369962D02*
X4640962Y-8470038D01*
X4691000Y-8369962D02*
X4691000Y-8470038D01*
X4640962Y-8420000D02*
X4741038Y-8420000D01*
X4894962Y-3289962D02*
X4995038Y-3390038D01*
X4995038Y-3289962D02*
X4894962Y-3390038D01*
X4945000Y-3289962D02*
X4945000Y-3390038D01*
X4894962Y-3340000D02*
X4995038Y-3340000D01*
X4894962Y-8369962D02*
X4995038Y-8470038D01*
X4995038Y-8369962D02*
X4894962Y-8470038D01*
X4945000Y-8369962D02*
X4945000Y-8470038D01*
X4894962Y-8420000D02*
X4995038Y-8420000D01*
X5148962Y-3289962D02*
X5249038Y-3390038D01*
X5249038Y-3289962D02*
X5148962Y-3390038D01*
X5199000Y-3289962D02*
X5199000Y-3390038D01*
X5148962Y-3340000D02*
X5249038Y-3340000D01*
X5148962Y-8369962D02*
X5249038Y-8470038D01*
X5249038Y-8369962D02*
X5148962Y-8470038D01*
X5199000Y-8369962D02*
X5199000Y-8470038D01*
X5148962Y-8420000D02*
X5249038Y-8420000D01*
X5402962Y-3289962D02*
X5503038Y-3390038D01*
X5503038Y-3289962D02*
X5402962Y-3390038D01*
X5453000Y-3289962D02*
X5453000Y-3390038D01*
X5402962Y-3340000D02*
X5503038Y-3340000D01*
X5402962Y-8369962D02*
X5503038Y-8470038D01*
X5503038Y-8369962D02*
X5402962Y-8470038D01*
X5453000Y-8369962D02*
X5453000Y-8470038D01*
X5402962Y-8420000D02*
X5503038Y-8420000D01*
X5656962Y-3289962D02*
X5757038Y-3390038D01*
X5757038Y-3289962D02*
X5656962Y-3390038D01*
X5707000Y-3289962D02*
X5707000Y-3390038D01*
X5656962Y-3340000D02*
X5757038Y-3340000D01*
X5656962Y-8369962D02*
X5757038Y-8470038D01*
X5757038Y-8369962D02*
X5656962Y-8470038D01*
X5707000Y-8369962D02*
X5707000Y-8470038D01*
X5656962Y-8420000D02*
X5757038Y-8420000D01*
X5910962Y-3289962D02*
X6011038Y-3390038D01*
X6011038Y-3289962D02*
X5910962Y-3390038D01*
X5961000Y-3289962D02*
X5961000Y-3390038D01*
X5910962Y-3340000D02*
X6011038Y-3340000D01*
X5910962Y-8369962D02*
X6011038Y-8470038D01*
X6011038Y-8369962D02*
X5910962Y-8470038D01*
X5961000Y-8369962D02*
X5961000Y-8470038D01*
X5910962Y-8420000D02*
X6011038Y-8420000D01*
X6164962Y-3289962D02*
X6265038Y-3390038D01*
X6265038Y-3289962D02*
X6164962Y-3390038D01*
X6215000Y-3289962D02*
X6215000Y-3390038D01*
X6164962Y-3340000D02*
X6265038Y-3340000D01*
X6164962Y-8369962D02*
X6265038Y-8470038D01*
X6265038Y-8369962D02*
X6164962Y-8470038D01*
X6215000Y-8369962D02*
X6215000Y-8470038D01*
X6164962Y-8420000D02*
X6265038Y-8420000D01*
X6418962Y-3289962D02*
X6519038Y-3390038D01*
X6519038Y-3289962D02*
X6418962Y-3390038D01*
X6469000Y-3289962D02*
X6469000Y-3390038D01*
X6418962Y-3340000D02*
X6519038Y-3340000D01*
X6418962Y-8369962D02*
X6519038Y-8470038D01*
X6519038Y-8369962D02*
X6418962Y-8470038D01*
X6469000Y-8369962D02*
X6469000Y-8470038D01*
X6418962Y-8420000D02*
X6519038Y-8420000D01*
X6672962Y-3289962D02*
X6773038Y-3390038D01*
X6773038Y-3289962D02*
X6672962Y-3390038D01*
X6723000Y-3289962D02*
X6723000Y-3390038D01*
X6672962Y-3340000D02*
X6773038Y-3340000D01*
X6672962Y-8369962D02*
X6773038Y-8470038D01*
X6773038Y-8369962D02*
X6672962Y-8470038D01*
X6723000Y-8369962D02*
X6723000Y-8470038D01*
X6672962Y-8420000D02*
X6773038Y-8420000D01*
X6926962Y-3289962D02*
X7027038Y-3390038D01*
X7027038Y-3289962D02*
X6926962Y-3390038D01*
X6977000Y-3289962D02*
X6977000Y-3390038D01*
X6926962Y-3340000D02*
X7027038Y-3340000D01*
X6926962Y-8369962D02*
X7027038Y-8470038D01*
X7027038Y-8369962D02*
X6926962Y-8470038D01*
X6977000Y-8369962D02*
X6977000Y-8470038D01*
X6926962Y-8420000D02*
X7027038Y-8420000D01*
X7180962Y-3289962D02*
X7281038Y-3390038D01*
X7281038Y-3289962D02*
X7180962Y-3390038D01*
X7231000Y-3289962D02*
X7231000Y-3390038D01*
X7180962Y-3340000D02*
X7281038Y-3340000D01*
X7180962Y-8369962D02*
X7281038Y-8470038D01*
X7281038Y-8369962D02*
X7180962Y-8470038D01*
X7231000Y-8369962D02*
X7231000Y-8470038D01*
X7180962Y-8420000D02*
X7281038Y-8420000D01*
X7434962Y-3289962D02*
X7535038Y-3390038D01*
X7535038Y-3289962D02*
X7434962Y-3390038D01*
X7485000Y-3289962D02*
X7485000Y-3390038D01*
X7434962Y-3340000D02*
X7535038Y-3340000D01*
X7434962Y-8369962D02*
X7535038Y-8470038D01*
X7535038Y-8369962D02*
X7434962Y-8470038D01*
X7485000Y-8369962D02*
X7485000Y-8470038D01*
X7434962Y-8420000D02*
X7535038Y-8420000D01*
X7688962Y-3289962D02*
X7789038Y-3390038D01*
X7789038Y-3289962D02*
X7688962Y-3390038D01*
X7739000Y-3289962D02*
X7739000Y-3390038D01*
X7688962Y-3340000D02*
X7789038Y-3340000D01*
X7688962Y-8369962D02*
X7789038Y-8470038D01*
X7789038Y-8369962D02*
X7688962Y-8470038D01*
X7739000Y-8369962D02*
X7739000Y-8470038D01*
X7688962Y-8420000D02*
X7789038Y-8420000D01*
X7942962Y-3289962D02*
X8043038Y-3390038D01*
X8043038Y-3289962D02*
X7942962Y-3390038D01*
X7993000Y-3289962D02*
X7993000Y-3390038D01*
X7942962Y-3340000D02*
X8043038Y-3340000D01*
X7942962Y-8369962D02*
X8043038Y-8470038D01*
X8043038Y-8369962D02*
X7942962Y-8470038D01*
X7993000Y-8369962D02*
X7993000Y-8470038D01*
X7942962Y-8420000D02*
X8043038Y-8420000D01*
X8196962Y-3289962D02*
X8297038Y-3390038D01*
X8297038Y-3289962D02*
X8196962Y-3390038D01*
X8247000Y-3289962D02*
X8247000Y-3390038D01*
X8196962Y-3340000D02*
X8297038Y-3340000D01*
X8196962Y-8369962D02*
X8297038Y-8470038D01*
X8297038Y-8369962D02*
X8196962Y-8470038D01*
X8247000Y-8369962D02*
X8247000Y-8470038D01*
X8196962Y-8420000D02*
X8297038Y-8420000D01*
X8450962Y-3289962D02*
X8551038Y-3390038D01*
X8551038Y-3289962D02*
X8450962Y-3390038D01*
X8501000Y-3289962D02*
X8501000Y-3390038D01*
X8450962Y-3340000D02*
X8551038Y-3340000D01*
X8450962Y-8369962D02*
X8551038Y-8470038D01*
X8551038Y-8369962D02*
X8450962Y-8470038D01*
X8501000Y-8369962D02*
X8501000Y-8470038D01*
X8450962Y-8420000D02*
X8551038Y-8420000D01*
X8704962Y-3289962D02*
X8805038Y-3390038D01*
X8805038Y-3289962D02*
X8704962Y-3390038D01*
X8755000Y-3289962D02*
X8755000Y-3390038D01*
X8704962Y-3340000D02*
X8805038Y-3340000D01*
X8704962Y-8369962D02*
X8805038Y-8470038D01*
X8805038Y-8369962D02*
X8704962Y-8470038D01*
X8755000Y-8369962D02*
X8755000Y-8470038D01*
X8704962Y-8420000D02*
X8805038Y-8420000D01*
X8958962Y-3289962D02*
X9059038Y-3390038D01*
X9059038Y-3289962D02*
X8958962Y-3390038D01*
X9009000Y-3289962D02*
X9009000Y-3390038D01*
X8958962Y-3340000D02*
X9059038Y-3340000D01*
X8958962Y-8369962D02*
X9059038Y-8470038D01*
X9059038Y-8369962D02*
X8958962Y-8470038D01*
X9009000Y-8369962D02*
X9009000Y-8470038D01*
X8958962Y-8420000D02*
X9059038Y-8420000D01*
X9212962Y-3289962D02*
X9313038Y-3390038D01*
X9313038Y-3289962D02*
X9212962Y-3390038D01*
X9263000Y-3289962D02*
X9263000Y-3390038D01*
X9212962Y-3340000D02*
X9313038Y-3340000D01*
X9212962Y-8369962D02*
X9313038Y-8470038D01*
X9313038Y-8369962D02*
X9212962Y-8470038D01*
X9263000Y-8369962D02*
X9263000Y-8470038D01*
X9212962Y-8420000D02*
X9313038Y-8420000D01*
X9466962Y-3289962D02*
X9567038Y-3390038D01*
X9567038Y-3289962D02*
X9466962Y-3390038D01*
X9517000Y-3289962D02*
X9517000Y-3390038D01*
X9466962Y-3340000D02*
X9567038Y-3340000D01*
X9466962Y-8369962D02*
X9567038Y-8470038D01*
X9567038Y-8369962D02*
X9466962Y-8470038D01*
X9517000Y-8369962D02*
X9517000Y-8470038D01*
X9466962Y-8420000D02*
X9567038Y-8420000D01*
X9720962Y-3289962D02*
X9821038Y-3390038D01*
X9821038Y-3289962D02*
X9720962Y-3390038D01*
X9771000Y-3289962D02*
X9771000Y-3390038D01*
X9720962Y-3340000D02*
X9821038Y-3340000D01*
X9720962Y-8369962D02*
X9821038Y-8470038D01*
X9821038Y-8369962D02*
X9720962Y-8470038D01*
X9771000Y-8369962D02*
X9771000Y-8470038D01*
X9720962Y-8420000D02*
X9821038Y-8420000D01*
X9974962Y-3289962D02*
X10075038Y-3390038D01*
X10075038Y-3289962D02*
X9974962Y-3390038D01*
X10025000Y-3289962D02*
X10025000Y-3390038D01*
X9974962Y-3340000D02*
X10075038Y-3340000D01*
X9974962Y-8369962D02*
X10075038Y-8470038D01*
X10075038Y-8369962D02*
X9974962Y-8470038D01*
X10025000Y-8369962D02*
X10025000Y-8470038D01*
X9974962Y-8420000D02*
X10075038Y-8420000D01*
X10228962Y-3289962D02*
X10329038Y-3390038D01*
X10329038Y-3289962D02*
X10228962Y-3390038D01*
X10279000Y-3289962D02*
X10279000Y-3390038D01*
X10228962Y-3340000D02*
X10329038Y-3340000D01*
X10228962Y-8369962D02*
X10329038Y-8470038D01*
X10329038Y-8369962D02*
X10228962Y-8470038D01*
X10279000Y-8369962D02*
X10279000Y-8470038D01*
X10228962Y-8420000D02*
X10329038Y-8420000D01*
X10482962Y-3289962D02*
X10583038Y-3390038D01*
X10583038Y-3289962D02*
X10482962Y-3390038D01*
X10533000Y-3289962D02*
X10533000Y-3390038D01*
X10482962Y-3340000D02*
X10583038Y-3340000D01*
X10482962Y-8369962D02*
X10583038Y-8470038D01*
X10583038Y-8369962D02*
X10482962Y-8470038D01*
X10533000Y-8369962D02*
X10533000Y-8470038D01*
X10482962Y-8420000D02*
X10583038Y-8420000D01*
X10736962Y-3035962D02*
X10837038Y-3136038D01*
X10837038Y-3035962D02*
X10736962Y-3136038D01*
X10787000Y-3035962D02*
X10787000Y-3136038D01*
X10736962Y-3086000D02*
X10837038Y-3086000D01*
X10736962Y-3289962D02*
X10837038Y-3390038D01*
X10837038Y-3289962D02*
X10736962Y-3390038D01*
X10787000Y-3289962D02*
X10787000Y-3390038D01*
X10736962Y-3340000D02*
X10837038Y-3340000D01*
X10736962Y-8115962D02*
X10837038Y-8216038D01*
X10837038Y-8115962D02*
X10736962Y-8216038D01*
X10787000Y-8115962D02*
X10787000Y-8216038D01*
X10736962Y-8166000D02*
X10837038Y-8166000D01*
X10736962Y-8369962D02*
X10837038Y-8470038D01*
X10837038Y-8369962D02*
X10736962Y-8470038D01*
X10787000Y-8369962D02*
X10787000Y-8470038D01*
X10736962Y-8420000D02*
X10837038Y-8420000D01*
X13530962Y-3035962D02*
X13631038Y-3136038D01*
X13631038Y-3035962D02*
X13530962Y-3136038D01*
X13581000Y-3035962D02*
X13581000Y-3136038D01*
X13530962Y-3086000D02*
X13631038Y-3086000D01*
X13530962Y-8369962D02*
X13631038Y-8470038D01*
X13631038Y-8369962D02*
X13530962Y-8470038D01*
X13581000Y-8369962D02*
X13581000Y-8470038D01*
X13530962Y-8420000D02*
X13631038Y-8420000D01*
X13784962Y-3035962D02*
X13885038Y-3136038D01*
X13885038Y-3035962D02*
X13784962Y-3136038D01*
X13835000Y-3035962D02*
X13835000Y-3136038D01*
X13784962Y-3086000D02*
X13885038Y-3086000D01*
X13784962Y-8369962D02*
X13885038Y-8470038D01*
X13885038Y-8369962D02*
X13784962Y-8470038D01*
X13835000Y-8369962D02*
X13835000Y-8470038D01*
X13784962Y-8420000D02*
X13885038Y-8420000D01*
X5595200Y-9224200D02*
X5696800Y-9325800D01*
X5696800Y-9224200D02*
X5595200Y-9325800D01*
X5681921Y-9310921D02*
X5681921Y-9239079D01*
X5610079Y-9239079D01*
X5610079Y-9310921D01*
X5681921Y-9310921D01*
X5595200Y-9699200D02*
X5696800Y-9800800D01*
X5696800Y-9699200D02*
X5595200Y-9800800D01*
X5681921Y-9785921D02*
X5681921Y-9714079D01*
X5610079Y-9714079D01*
X5610079Y-9785921D01*
X5681921Y-9785921D01*
X5627700Y-8799200D02*
X5729300Y-8900800D01*
X5729300Y-8799200D02*
X5627700Y-8900800D01*
X5714421Y-8885921D02*
X5714421Y-8814079D01*
X5642579Y-8814079D01*
X5642579Y-8885921D01*
X5714421Y-8885921D01*
X5849200Y-9224200D02*
X5950800Y-9325800D01*
X5950800Y-9224200D02*
X5849200Y-9325800D01*
X5935921Y-9310921D02*
X5935921Y-9239079D01*
X5864079Y-9239079D01*
X5864079Y-9310921D01*
X5935921Y-9310921D01*
X5849200Y-9699200D02*
X5950800Y-9800800D01*
X5950800Y-9699200D02*
X5849200Y-9800800D01*
X5935921Y-9785921D02*
X5935921Y-9714079D01*
X5864079Y-9714079D01*
X5864079Y-9785921D01*
X5935921Y-9785921D01*
X6770700Y-8799200D02*
X6872300Y-8900800D01*
X6872300Y-8799200D02*
X6770700Y-8900800D01*
X6857421Y-8885921D02*
X6857421Y-8814079D01*
X6785579Y-8814079D01*
X6785579Y-8885921D01*
X6857421Y-8885921D01*
X8402700Y-7724200D02*
X8504300Y-7825800D01*
X8504300Y-7724200D02*
X8402700Y-7825800D01*
X8489421Y-7810921D02*
X8489421Y-7739079D01*
X8417579Y-7739079D01*
X8417579Y-7810921D01*
X8489421Y-7810921D01*
X9527700Y-8849200D02*
X9629300Y-8950800D01*
X9629300Y-8849200D02*
X9527700Y-8950800D01*
X9614421Y-8935921D02*
X9614421Y-8864079D01*
X9542579Y-8864079D01*
X9542579Y-8935921D01*
X9614421Y-8935921D01*
X9545700Y-7724200D02*
X9647300Y-7825800D01*
X9647300Y-7724200D02*
X9545700Y-7825800D01*
X9632421Y-7810921D02*
X9632421Y-7739079D01*
X9560579Y-7739079D01*
X9560579Y-7810921D01*
X9632421Y-7810921D01*
X10670700Y-8849200D02*
X10772300Y-8950800D01*
X10772300Y-8849200D02*
X10670700Y-8950800D01*
X10757421Y-8935921D02*
X10757421Y-8864079D01*
X10685579Y-8864079D01*
X10685579Y-8935921D01*
X10757421Y-8935921D01*
X11109700Y-8877200D02*
X11211300Y-8978800D01*
X11211300Y-8877200D02*
X11109700Y-8978800D01*
X11196421Y-8963921D02*
X11196421Y-8892079D01*
X11124579Y-8892079D01*
X11124579Y-8963921D01*
X11196421Y-8963921D01*
X12252700Y-8877200D02*
X12354300Y-8978800D01*
X12354300Y-8877200D02*
X12252700Y-8978800D01*
X12339421Y-8963921D02*
X12339421Y-8892079D01*
X12267579Y-8892079D01*
X12267579Y-8963921D01*
X12339421Y-8963921D01*
X12633700Y-8877200D02*
X12735300Y-8978800D01*
X12735300Y-8877200D02*
X12633700Y-8978800D01*
X12720421Y-8963921D02*
X12720421Y-8892079D01*
X12648579Y-8892079D01*
X12648579Y-8963921D01*
X12720421Y-8963921D01*
X12760700Y-5067200D02*
X12862300Y-5168800D01*
X12862300Y-5067200D02*
X12760700Y-5168800D01*
X12847421Y-5153921D02*
X12847421Y-5082079D01*
X12775579Y-5082079D01*
X12775579Y-5153921D01*
X12847421Y-5153921D01*
X12760700Y-5448200D02*
X12862300Y-5549800D01*
X12862300Y-5448200D02*
X12760700Y-5549800D01*
X12847421Y-5534921D02*
X12847421Y-5463079D01*
X12775579Y-5463079D01*
X12775579Y-5534921D01*
X12847421Y-5534921D01*
X13776700Y-8877200D02*
X13878300Y-8978800D01*
X13878300Y-8877200D02*
X13776700Y-8978800D01*
X13863421Y-8963921D02*
X13863421Y-8892079D01*
X13791579Y-8892079D01*
X13791579Y-8963921D01*
X13863421Y-8963921D01*
X13903700Y-5067200D02*
X14005300Y-5168800D01*
X14005300Y-5067200D02*
X13903700Y-5168800D01*
X13990421Y-5153921D02*
X13990421Y-5082079D01*
X13918579Y-5082079D01*
X13918579Y-5153921D01*
X13990421Y-5153921D01*
X13903700Y-5448200D02*
X14005300Y-5549800D01*
X14005300Y-5448200D02*
X13903700Y-5549800D01*
X13990421Y-5534921D02*
X13990421Y-5463079D01*
X13918579Y-5463079D01*
X13918579Y-5534921D01*
X13990421Y-5534921D01*
X14274200Y-1695200D02*
X14375800Y-1796800D01*
X14375800Y-1695200D02*
X14274200Y-1796800D01*
X14360921Y-1781921D02*
X14360921Y-1710079D01*
X14289079Y-1710079D01*
X14289079Y-1781921D01*
X14360921Y-1781921D01*
X14274200Y-1949200D02*
X14375800Y-2050800D01*
X14375800Y-1949200D02*
X14274200Y-2050800D01*
X14360921Y-2035921D02*
X14360921Y-1964079D01*
X14289079Y-1964079D01*
X14289079Y-2035921D01*
X14360921Y-2035921D01*
X14349200Y-8336200D02*
X14450800Y-8437800D01*
X14450800Y-8336200D02*
X14349200Y-8437800D01*
X14435921Y-8422921D02*
X14435921Y-8351079D01*
X14364079Y-8351079D01*
X14364079Y-8422921D01*
X14435921Y-8422921D01*
X14349200Y-8590200D02*
X14450800Y-8691800D01*
X14450800Y-8590200D02*
X14349200Y-8691800D01*
X14435921Y-8676921D02*
X14435921Y-8605079D01*
X14364079Y-8605079D01*
X14364079Y-8676921D01*
X14435921Y-8676921D01*
X14349200Y-8844200D02*
X14450800Y-8945800D01*
X14450800Y-8844200D02*
X14349200Y-8945800D01*
X14435921Y-8930921D02*
X14435921Y-8859079D01*
X14364079Y-8859079D01*
X14364079Y-8930921D01*
X14435921Y-8930921D01*
X14375184Y-4625056D02*
X14495072Y-4744944D01*
X14495072Y-4625056D02*
X14375184Y-4744944D01*
X14435128Y-4744944D02*
X14495072Y-4685000D01*
X14435128Y-4625056D01*
X14375184Y-4685000D01*
X14435128Y-4744944D01*
X14625120Y-5124928D02*
X14745008Y-5244816D01*
X14745008Y-5124928D02*
X14625120Y-5244816D01*
X14685064Y-5244816D02*
X14745008Y-5184872D01*
X14685064Y-5124928D01*
X14625120Y-5184872D01*
X14685064Y-5244816D01*
X14875056Y-4625056D02*
X14994944Y-4744944D01*
X14994944Y-4625056D02*
X14875056Y-4744944D01*
X14935000Y-4744944D02*
X14994944Y-4685000D01*
X14935000Y-4625056D01*
X14875056Y-4685000D01*
X14935000Y-4744944D01*
X15365120Y-4605184D02*
X15485008Y-4725072D01*
X15485008Y-4605184D02*
X15365120Y-4725072D01*
X15425064Y-4725072D02*
X15485008Y-4665128D01*
X15425064Y-4605184D01*
X15365120Y-4665128D01*
X15425064Y-4725072D01*
X15615056Y-5105056D02*
X15734944Y-5224944D01*
X15734944Y-5105056D02*
X15615056Y-5224944D01*
X15675000Y-5224944D02*
X15734944Y-5165000D01*
X15675000Y-5105056D01*
X15615056Y-5165000D01*
X15675000Y-5224944D01*
X15864992Y-4605184D02*
X15984880Y-4725072D01*
X15984880Y-4605184D02*
X15864992Y-4725072D01*
X15924936Y-4725072D02*
X15984880Y-4665128D01*
X15924936Y-4605184D01*
X15864992Y-4665128D01*
X15924936Y-4725072D01*
X4900000Y-1715000D02*
X4900000Y-2035000D01*
X4740000Y-1875000D02*
X5060000Y-1875000D01*
X5060000Y-1875000D02*
G75*
G03X5060000Y-1875000I-160000J0D01*
G01*
X4900000Y-9440000D02*
X4900000Y-9760000D01*
X4740000Y-9600000D02*
X5060000Y-9600000D01*
X5060000Y-9600000D02*
G75*
G03X5060000Y-9600000I-160000J0D01*
G01*
X15800000Y-9565000D02*
X15800000Y-9885000D01*
X15640000Y-9725000D02*
X15960000Y-9725000D01*
X15960000Y-9725000D02*
G75*
G03X15960000Y-9725000I-160000J0D01*
G01*
X15805000Y-1705000D02*
X15805000Y-2025000D01*
X15645000Y-1865000D02*
X15965000Y-1865000D01*
X15965000Y-1865000D02*
G75*
G03X15965000Y-1865000I-160000J0D01*
G01*
D13*
X4716429Y-10620714D02*
X4716429Y-10320714D01*
X4787857Y-10320714D01*
X4830714Y-10335000D01*
X4859286Y-10363572D01*
X4873571Y-10392143D01*
X4887857Y-10449286D01*
X4887857Y-10492143D01*
X4873571Y-10549286D01*
X4859286Y-10577857D01*
X4830714Y-10606429D01*
X4787857Y-10620714D01*
X4716429Y-10620714D01*
X5016429Y-10620714D02*
X5016429Y-10420714D01*
X5016429Y-10477857D02*
X5030714Y-10449286D01*
X5045000Y-10435000D01*
X5073571Y-10420714D01*
X5102143Y-10420714D01*
X5202143Y-10620714D02*
X5202143Y-10420714D01*
X5202143Y-10320714D02*
X5187857Y-10335000D01*
X5202143Y-10349286D01*
X5216429Y-10335000D01*
X5202143Y-10320714D01*
X5202143Y-10349286D01*
X5387857Y-10620714D02*
X5359286Y-10606429D01*
X5345000Y-10577857D01*
X5345000Y-10320714D01*
X5545000Y-10620714D02*
X5516429Y-10606429D01*
X5502143Y-10577857D01*
X5502143Y-10320714D01*
X5887857Y-10620714D02*
X5887857Y-10320714D01*
X5987857Y-10535000D01*
X6087857Y-10320714D01*
X6087857Y-10620714D01*
X6359286Y-10620714D02*
X6359286Y-10463572D01*
X6345000Y-10435000D01*
X6316428Y-10420714D01*
X6259286Y-10420714D01*
X6230714Y-10435000D01*
X6359286Y-10606429D02*
X6330714Y-10620714D01*
X6259286Y-10620714D01*
X6230714Y-10606429D01*
X6216428Y-10577857D01*
X6216428Y-10549286D01*
X6230714Y-10520714D01*
X6259286Y-10506429D01*
X6330714Y-10506429D01*
X6359286Y-10492143D01*
X6502143Y-10420714D02*
X6502143Y-10720714D01*
X6502143Y-10435000D02*
X6530714Y-10420714D01*
X6587857Y-10420714D01*
X6616428Y-10435000D01*
X6630714Y-10449286D01*
X6645000Y-10477857D01*
X6645000Y-10563572D01*
X6630714Y-10592143D01*
X6616428Y-10606429D01*
X6587857Y-10620714D01*
X6530714Y-10620714D01*
X6502143Y-10606429D01*
X6773571Y-10592143D02*
X6787857Y-10606429D01*
X6773571Y-10620714D01*
X6759286Y-10606429D01*
X6773571Y-10592143D01*
X6773571Y-10620714D01*
X6773571Y-10435000D02*
X6787857Y-10449286D01*
X6773571Y-10463572D01*
X6759286Y-10449286D01*
X6773571Y-10435000D01*
X6773571Y-10463572D01*
X4374896Y-11079948D02*
X4445000Y-11150052D01*
X4445000Y-11079948D02*
X4374896Y-11150052D01*
X4773571Y-10950714D02*
X4802143Y-10950714D01*
X4830714Y-10965000D01*
X4845000Y-10979286D01*
X4859286Y-11007857D01*
X4873571Y-11065000D01*
X4873571Y-11136429D01*
X4859286Y-11193571D01*
X4845000Y-11222143D01*
X4830714Y-11236429D01*
X4802143Y-11250714D01*
X4773571Y-11250714D01*
X4745000Y-11236429D01*
X4730714Y-11222143D01*
X4716429Y-11193571D01*
X4702143Y-11136429D01*
X4702143Y-11065000D01*
X4716429Y-11007857D01*
X4730714Y-10979286D01*
X4745000Y-10965000D01*
X4773571Y-10950714D01*
X5002143Y-11222143D02*
X5016429Y-11236429D01*
X5002143Y-11250714D01*
X4987857Y-11236429D01*
X5002143Y-11222143D01*
X5002143Y-11250714D01*
X5116428Y-10950714D02*
X5316428Y-10950714D01*
X5187857Y-11250714D01*
X5487857Y-10950714D02*
X5516429Y-10950714D01*
X5545000Y-10965000D01*
X5559286Y-10979286D01*
X5573571Y-11007857D01*
X5587857Y-11065000D01*
X5587857Y-11136429D01*
X5573571Y-11193571D01*
X5559286Y-11222143D01*
X5545000Y-11236429D01*
X5516429Y-11250714D01*
X5487857Y-11250714D01*
X5459286Y-11236429D01*
X5445000Y-11222143D01*
X5430714Y-11193571D01*
X5416429Y-11136429D01*
X5416429Y-11065000D01*
X5430714Y-11007857D01*
X5445000Y-10979286D01*
X5459286Y-10965000D01*
X5487857Y-10950714D01*
X5716428Y-11250714D02*
X5716428Y-11050714D01*
X5716428Y-11079286D02*
X5730714Y-11065000D01*
X5759286Y-11050714D01*
X5802143Y-11050714D01*
X5830714Y-11065000D01*
X5845000Y-11093572D01*
X5845000Y-11250714D01*
X5845000Y-11093572D02*
X5859286Y-11065000D01*
X5887857Y-11050714D01*
X5930714Y-11050714D01*
X5959286Y-11065000D01*
X5973571Y-11093572D01*
X5973571Y-11250714D01*
X6116428Y-11250714D02*
X6116428Y-11050714D01*
X6116428Y-11079286D02*
X6130714Y-11065000D01*
X6159286Y-11050714D01*
X6202143Y-11050714D01*
X6230714Y-11065000D01*
X6245000Y-11093572D01*
X6245000Y-11250714D01*
X6245000Y-11093572D02*
X6259286Y-11065000D01*
X6287857Y-11050714D01*
X6330714Y-11050714D01*
X6359286Y-11065000D01*
X6373571Y-11093572D01*
X6373571Y-11250714D01*
X6959286Y-10936429D02*
X6702143Y-11322143D01*
X7345000Y-10950714D02*
X7373571Y-10950714D01*
X7402143Y-10965000D01*
X7416428Y-10979286D01*
X7430714Y-11007857D01*
X7445000Y-11065000D01*
X7445000Y-11136429D01*
X7430714Y-11193571D01*
X7416428Y-11222143D01*
X7402143Y-11236429D01*
X7373571Y-11250714D01*
X7345000Y-11250714D01*
X7316428Y-11236429D01*
X7302143Y-11222143D01*
X7287857Y-11193571D01*
X7273571Y-11136429D01*
X7273571Y-11065000D01*
X7287857Y-11007857D01*
X7302143Y-10979286D01*
X7316428Y-10965000D01*
X7345000Y-10950714D01*
X7573571Y-11222143D02*
X7587857Y-11236429D01*
X7573571Y-11250714D01*
X7559286Y-11236429D01*
X7573571Y-11222143D01*
X7573571Y-11250714D01*
X7773571Y-10950714D02*
X7802143Y-10950714D01*
X7830714Y-10965000D01*
X7845000Y-10979286D01*
X7859285Y-11007857D01*
X7873571Y-11065000D01*
X7873571Y-11136429D01*
X7859285Y-11193571D01*
X7845000Y-11222143D01*
X7830714Y-11236429D01*
X7802143Y-11250714D01*
X7773571Y-11250714D01*
X7745000Y-11236429D01*
X7730714Y-11222143D01*
X7716428Y-11193571D01*
X7702143Y-11136429D01*
X7702143Y-11065000D01*
X7716428Y-11007857D01*
X7730714Y-10979286D01*
X7745000Y-10965000D01*
X7773571Y-10950714D01*
X7987857Y-10979286D02*
X8002143Y-10965000D01*
X8030714Y-10950714D01*
X8102143Y-10950714D01*
X8130714Y-10965000D01*
X8145000Y-10979286D01*
X8159285Y-11007857D01*
X8159285Y-11036429D01*
X8145000Y-11079286D01*
X7973571Y-11250714D01*
X8159285Y-11250714D01*
X8330714Y-11079286D02*
X8302143Y-11065000D01*
X8287857Y-11050714D01*
X8273571Y-11022143D01*
X8273571Y-11007857D01*
X8287857Y-10979286D01*
X8302143Y-10965000D01*
X8330714Y-10950714D01*
X8387857Y-10950714D01*
X8416428Y-10965000D01*
X8430714Y-10979286D01*
X8445000Y-11007857D01*
X8445000Y-11022143D01*
X8430714Y-11050714D01*
X8416428Y-11065000D01*
X8387857Y-11079286D01*
X8330714Y-11079286D01*
X8302143Y-11093572D01*
X8287857Y-11107857D01*
X8273571Y-11136429D01*
X8273571Y-11193571D01*
X8287857Y-11222143D01*
X8302143Y-11236429D01*
X8330714Y-11250714D01*
X8387857Y-11250714D01*
X8416428Y-11236429D01*
X8430714Y-11222143D01*
X8445000Y-11193571D01*
X8445000Y-11136429D01*
X8430714Y-11107857D01*
X8416428Y-11093572D01*
X8387857Y-11079286D01*
X8559286Y-10950714D02*
X8559286Y-11007857D01*
X8673571Y-10950714D02*
X8673571Y-11007857D01*
X9116428Y-11365000D02*
X9102143Y-11350714D01*
X9073571Y-11307857D01*
X9059286Y-11279286D01*
X9045000Y-11236429D01*
X9030714Y-11165000D01*
X9030714Y-11107857D01*
X9045000Y-11036429D01*
X9059286Y-10993572D01*
X9073571Y-10965000D01*
X9102143Y-10922143D01*
X9116428Y-10907857D01*
X9216428Y-10979286D02*
X9230714Y-10965000D01*
X9259286Y-10950714D01*
X9330714Y-10950714D01*
X9359286Y-10965000D01*
X9373571Y-10979286D01*
X9387857Y-11007857D01*
X9387857Y-11036429D01*
X9373571Y-11079286D01*
X9202143Y-11250714D01*
X9387857Y-11250714D01*
X9745000Y-11250714D02*
X9745000Y-10950714D01*
X9873571Y-11250714D02*
X9873571Y-11093572D01*
X9859286Y-11065000D01*
X9830714Y-11050714D01*
X9787857Y-11050714D01*
X9759286Y-11065000D01*
X9745000Y-11079286D01*
X10059286Y-11250714D02*
X10030714Y-11236429D01*
X10016428Y-11222143D01*
X10002143Y-11193571D01*
X10002143Y-11107857D01*
X10016428Y-11079286D01*
X10030714Y-11065000D01*
X10059286Y-11050714D01*
X10102143Y-11050714D01*
X10130714Y-11065000D01*
X10145000Y-11079286D01*
X10159286Y-11107857D01*
X10159286Y-11193571D01*
X10145000Y-11222143D01*
X10130714Y-11236429D01*
X10102143Y-11250714D01*
X10059286Y-11250714D01*
X10330714Y-11250714D02*
X10302143Y-11236429D01*
X10287857Y-11207857D01*
X10287857Y-10950714D01*
X10559286Y-11236429D02*
X10530714Y-11250714D01*
X10473571Y-11250714D01*
X10445000Y-11236429D01*
X10430714Y-11207857D01*
X10430714Y-11093572D01*
X10445000Y-11065000D01*
X10473571Y-11050714D01*
X10530714Y-11050714D01*
X10559286Y-11065000D01*
X10573571Y-11093572D01*
X10573571Y-11122143D01*
X10430714Y-11150714D01*
X10687857Y-11236429D02*
X10716429Y-11250714D01*
X10773571Y-11250714D01*
X10802143Y-11236429D01*
X10816429Y-11207857D01*
X10816429Y-11193571D01*
X10802143Y-11165000D01*
X10773571Y-11150714D01*
X10730714Y-11150714D01*
X10702143Y-11136429D01*
X10687857Y-11107857D01*
X10687857Y-11093572D01*
X10702143Y-11065000D01*
X10730714Y-11050714D01*
X10773571Y-11050714D01*
X10802143Y-11065000D01*
X10916428Y-11365000D02*
X10930714Y-11350714D01*
X10959286Y-11307857D01*
X10973571Y-11279286D01*
X10987857Y-11236429D01*
X11002143Y-11165000D01*
X11002143Y-11107857D01*
X10987857Y-11036429D01*
X10973571Y-10993572D01*
X10959286Y-10965000D01*
X10930714Y-10922143D01*
X10916428Y-10907857D01*
X4445000Y-11511000D02*
G75*
G03X4445000Y-11511000I-38100J0D01*
G01*
X4773571Y-11346714D02*
X4802143Y-11346714D01*
X4830714Y-11361000D01*
X4845000Y-11375286D01*
X4859286Y-11403857D01*
X4873571Y-11461000D01*
X4873571Y-11532429D01*
X4859286Y-11589571D01*
X4845000Y-11618143D01*
X4830714Y-11632429D01*
X4802143Y-11646714D01*
X4773571Y-11646714D01*
X4745000Y-11632429D01*
X4730714Y-11618143D01*
X4716429Y-11589571D01*
X4702143Y-11532429D01*
X4702143Y-11461000D01*
X4716429Y-11403857D01*
X4730714Y-11375286D01*
X4745000Y-11361000D01*
X4773571Y-11346714D01*
X5002143Y-11618143D02*
X5016429Y-11632429D01*
X5002143Y-11646714D01*
X4987857Y-11632429D01*
X5002143Y-11618143D01*
X5002143Y-11646714D01*
X5116428Y-11346714D02*
X5316428Y-11346714D01*
X5187857Y-11646714D01*
X5559286Y-11346714D02*
X5502143Y-11346714D01*
X5473571Y-11361000D01*
X5459286Y-11375286D01*
X5430714Y-11418143D01*
X5416429Y-11475286D01*
X5416429Y-11589571D01*
X5430714Y-11618143D01*
X5445000Y-11632429D01*
X5473571Y-11646714D01*
X5530714Y-11646714D01*
X5559286Y-11632429D01*
X5573571Y-11618143D01*
X5587857Y-11589571D01*
X5587857Y-11518143D01*
X5573571Y-11489571D01*
X5559286Y-11475286D01*
X5530714Y-11461000D01*
X5473571Y-11461000D01*
X5445000Y-11475286D01*
X5430714Y-11489571D01*
X5416429Y-11518143D01*
X5716428Y-11646714D02*
X5716428Y-11446714D01*
X5716428Y-11475286D02*
X5730714Y-11461000D01*
X5759286Y-11446714D01*
X5802143Y-11446714D01*
X5830714Y-11461000D01*
X5845000Y-11489571D01*
X5845000Y-11646714D01*
X5845000Y-11489571D02*
X5859286Y-11461000D01*
X5887857Y-11446714D01*
X5930714Y-11446714D01*
X5959286Y-11461000D01*
X5973571Y-11489571D01*
X5973571Y-11646714D01*
X6116428Y-11646714D02*
X6116428Y-11446714D01*
X6116428Y-11475286D02*
X6130714Y-11461000D01*
X6159286Y-11446714D01*
X6202143Y-11446714D01*
X6230714Y-11461000D01*
X6245000Y-11489571D01*
X6245000Y-11646714D01*
X6245000Y-11489571D02*
X6259286Y-11461000D01*
X6287857Y-11446714D01*
X6330714Y-11446714D01*
X6359286Y-11461000D01*
X6373571Y-11489571D01*
X6373571Y-11646714D01*
X6959286Y-11332429D02*
X6702143Y-11718143D01*
X7345000Y-11346714D02*
X7373571Y-11346714D01*
X7402143Y-11361000D01*
X7416428Y-11375286D01*
X7430714Y-11403857D01*
X7445000Y-11461000D01*
X7445000Y-11532429D01*
X7430714Y-11589571D01*
X7416428Y-11618143D01*
X7402143Y-11632429D01*
X7373571Y-11646714D01*
X7345000Y-11646714D01*
X7316428Y-11632429D01*
X7302143Y-11618143D01*
X7287857Y-11589571D01*
X7273571Y-11532429D01*
X7273571Y-11461000D01*
X7287857Y-11403857D01*
X7302143Y-11375286D01*
X7316428Y-11361000D01*
X7345000Y-11346714D01*
X7573571Y-11618143D02*
X7587857Y-11632429D01*
X7573571Y-11646714D01*
X7559286Y-11632429D01*
X7573571Y-11618143D01*
X7573571Y-11646714D01*
X7773571Y-11346714D02*
X7802143Y-11346714D01*
X7830714Y-11361000D01*
X7845000Y-11375286D01*
X7859285Y-11403857D01*
X7873571Y-11461000D01*
X7873571Y-11532429D01*
X7859285Y-11589571D01*
X7845000Y-11618143D01*
X7830714Y-11632429D01*
X7802143Y-11646714D01*
X7773571Y-11646714D01*
X7745000Y-11632429D01*
X7730714Y-11618143D01*
X7716428Y-11589571D01*
X7702143Y-11532429D01*
X7702143Y-11461000D01*
X7716428Y-11403857D01*
X7730714Y-11375286D01*
X7745000Y-11361000D01*
X7773571Y-11346714D01*
X7973571Y-11346714D02*
X8159285Y-11346714D01*
X8059285Y-11461000D01*
X8102143Y-11461000D01*
X8130714Y-11475286D01*
X8145000Y-11489571D01*
X8159285Y-11518143D01*
X8159285Y-11589571D01*
X8145000Y-11618143D01*
X8130714Y-11632429D01*
X8102143Y-11646714D01*
X8016428Y-11646714D01*
X7987857Y-11632429D01*
X7973571Y-11618143D01*
X8345000Y-11346714D02*
X8373571Y-11346714D01*
X8402143Y-11361000D01*
X8416428Y-11375286D01*
X8430714Y-11403857D01*
X8445000Y-11461000D01*
X8445000Y-11532429D01*
X8430714Y-11589571D01*
X8416428Y-11618143D01*
X8402143Y-11632429D01*
X8373571Y-11646714D01*
X8345000Y-11646714D01*
X8316428Y-11632429D01*
X8302143Y-11618143D01*
X8287857Y-11589571D01*
X8273571Y-11532429D01*
X8273571Y-11461000D01*
X8287857Y-11403857D01*
X8302143Y-11375286D01*
X8316428Y-11361000D01*
X8345000Y-11346714D01*
X8559286Y-11346714D02*
X8559286Y-11403857D01*
X8673571Y-11346714D02*
X8673571Y-11403857D01*
X9116428Y-11761000D02*
X9102143Y-11746714D01*
X9073571Y-11703857D01*
X9059286Y-11675286D01*
X9045000Y-11632429D01*
X9030714Y-11561000D01*
X9030714Y-11503857D01*
X9045000Y-11432429D01*
X9059286Y-11389571D01*
X9073571Y-11361000D01*
X9102143Y-11318143D01*
X9116428Y-11303857D01*
X9202143Y-11346714D02*
X9387857Y-11346714D01*
X9287857Y-11461000D01*
X9330714Y-11461000D01*
X9359286Y-11475286D01*
X9373571Y-11489571D01*
X9387857Y-11518143D01*
X9387857Y-11589571D01*
X9373571Y-11618143D01*
X9359286Y-11632429D01*
X9330714Y-11646714D01*
X9245000Y-11646714D01*
X9216428Y-11632429D01*
X9202143Y-11618143D01*
X9745000Y-11646714D02*
X9745000Y-11346714D01*
X9873571Y-11646714D02*
X9873571Y-11489571D01*
X9859286Y-11461000D01*
X9830714Y-11446714D01*
X9787857Y-11446714D01*
X9759286Y-11461000D01*
X9745000Y-11475286D01*
X10059286Y-11646714D02*
X10030714Y-11632429D01*
X10016428Y-11618143D01*
X10002143Y-11589571D01*
X10002143Y-11503857D01*
X10016428Y-11475286D01*
X10030714Y-11461000D01*
X10059286Y-11446714D01*
X10102143Y-11446714D01*
X10130714Y-11461000D01*
X10145000Y-11475286D01*
X10159286Y-11503857D01*
X10159286Y-11589571D01*
X10145000Y-11618143D01*
X10130714Y-11632429D01*
X10102143Y-11646714D01*
X10059286Y-11646714D01*
X10330714Y-11646714D02*
X10302143Y-11632429D01*
X10287857Y-11603857D01*
X10287857Y-11346714D01*
X10559286Y-11632429D02*
X10530714Y-11646714D01*
X10473571Y-11646714D01*
X10445000Y-11632429D01*
X10430714Y-11603857D01*
X10430714Y-11489571D01*
X10445000Y-11461000D01*
X10473571Y-11446714D01*
X10530714Y-11446714D01*
X10559286Y-11461000D01*
X10573571Y-11489571D01*
X10573571Y-11518143D01*
X10430714Y-11546714D01*
X10687857Y-11632429D02*
X10716429Y-11646714D01*
X10773571Y-11646714D01*
X10802143Y-11632429D01*
X10816429Y-11603857D01*
X10816429Y-11589571D01*
X10802143Y-11561000D01*
X10773571Y-11546714D01*
X10730714Y-11546714D01*
X10702143Y-11532429D01*
X10687857Y-11503857D01*
X10687857Y-11489571D01*
X10702143Y-11461000D01*
X10730714Y-11446714D01*
X10773571Y-11446714D01*
X10802143Y-11461000D01*
X10916428Y-11761000D02*
X10930714Y-11746714D01*
X10959286Y-11703857D01*
X10973571Y-11675286D01*
X10987857Y-11632429D01*
X11002143Y-11561000D01*
X11002143Y-11503857D01*
X10987857Y-11432429D01*
X10973571Y-11389571D01*
X10959286Y-11361000D01*
X10930714Y-11318143D01*
X10916428Y-11303857D01*
X4405000Y-11867000D02*
X4405000Y-11947000D01*
X4365000Y-11907000D02*
X4445000Y-11907000D01*
X4773571Y-11742714D02*
X4802143Y-11742714D01*
X4830714Y-11757000D01*
X4845000Y-11771286D01*
X4859286Y-11799857D01*
X4873571Y-11857000D01*
X4873571Y-11928429D01*
X4859286Y-11985571D01*
X4845000Y-12014143D01*
X4830714Y-12028429D01*
X4802143Y-12042714D01*
X4773571Y-12042714D01*
X4745000Y-12028429D01*
X4730714Y-12014143D01*
X4716429Y-11985571D01*
X4702143Y-11928429D01*
X4702143Y-11857000D01*
X4716429Y-11799857D01*
X4730714Y-11771286D01*
X4745000Y-11757000D01*
X4773571Y-11742714D01*
X5002143Y-12014143D02*
X5016429Y-12028429D01*
X5002143Y-12042714D01*
X4987857Y-12028429D01*
X5002143Y-12014143D01*
X5002143Y-12042714D01*
X5187857Y-11871286D02*
X5159286Y-11857000D01*
X5145000Y-11842714D01*
X5130714Y-11814143D01*
X5130714Y-11799857D01*
X5145000Y-11771286D01*
X5159286Y-11757000D01*
X5187857Y-11742714D01*
X5245000Y-11742714D01*
X5273571Y-11757000D01*
X5287857Y-11771286D01*
X5302143Y-11799857D01*
X5302143Y-11814143D01*
X5287857Y-11842714D01*
X5273571Y-11857000D01*
X5245000Y-11871286D01*
X5187857Y-11871286D01*
X5159286Y-11885571D01*
X5145000Y-11899857D01*
X5130714Y-11928429D01*
X5130714Y-11985571D01*
X5145000Y-12014143D01*
X5159286Y-12028429D01*
X5187857Y-12042714D01*
X5245000Y-12042714D01*
X5273571Y-12028429D01*
X5287857Y-12014143D01*
X5302143Y-11985571D01*
X5302143Y-11928429D01*
X5287857Y-11899857D01*
X5273571Y-11885571D01*
X5245000Y-11871286D01*
X5487857Y-11742714D02*
X5516429Y-11742714D01*
X5545000Y-11757000D01*
X5559286Y-11771286D01*
X5573571Y-11799857D01*
X5587857Y-11857000D01*
X5587857Y-11928429D01*
X5573571Y-11985571D01*
X5559286Y-12014143D01*
X5545000Y-12028429D01*
X5516429Y-12042714D01*
X5487857Y-12042714D01*
X5459286Y-12028429D01*
X5445000Y-12014143D01*
X5430714Y-11985571D01*
X5416429Y-11928429D01*
X5416429Y-11857000D01*
X5430714Y-11799857D01*
X5445000Y-11771286D01*
X5459286Y-11757000D01*
X5487857Y-11742714D01*
X5716428Y-12042714D02*
X5716428Y-11842714D01*
X5716428Y-11871286D02*
X5730714Y-11857000D01*
X5759286Y-11842714D01*
X5802143Y-11842714D01*
X5830714Y-11857000D01*
X5845000Y-11885571D01*
X5845000Y-12042714D01*
X5845000Y-11885571D02*
X5859286Y-11857000D01*
X5887857Y-11842714D01*
X5930714Y-11842714D01*
X5959286Y-11857000D01*
X5973571Y-11885571D01*
X5973571Y-12042714D01*
X6116428Y-12042714D02*
X6116428Y-11842714D01*
X6116428Y-11871286D02*
X6130714Y-11857000D01*
X6159286Y-11842714D01*
X6202143Y-11842714D01*
X6230714Y-11857000D01*
X6245000Y-11885571D01*
X6245000Y-12042714D01*
X6245000Y-11885571D02*
X6259286Y-11857000D01*
X6287857Y-11842714D01*
X6330714Y-11842714D01*
X6359286Y-11857000D01*
X6373571Y-11885571D01*
X6373571Y-12042714D01*
X6959286Y-11728429D02*
X6702143Y-12114143D01*
X7345000Y-11742714D02*
X7373571Y-11742714D01*
X7402143Y-11757000D01*
X7416428Y-11771286D01*
X7430714Y-11799857D01*
X7445000Y-11857000D01*
X7445000Y-11928429D01*
X7430714Y-11985571D01*
X7416428Y-12014143D01*
X7402143Y-12028429D01*
X7373571Y-12042714D01*
X7345000Y-12042714D01*
X7316428Y-12028429D01*
X7302143Y-12014143D01*
X7287857Y-11985571D01*
X7273571Y-11928429D01*
X7273571Y-11857000D01*
X7287857Y-11799857D01*
X7302143Y-11771286D01*
X7316428Y-11757000D01*
X7345000Y-11742714D01*
X7573571Y-12014143D02*
X7587857Y-12028429D01*
X7573571Y-12042714D01*
X7559286Y-12028429D01*
X7573571Y-12014143D01*
X7573571Y-12042714D01*
X7773571Y-11742714D02*
X7802143Y-11742714D01*
X7830714Y-11757000D01*
X7845000Y-11771286D01*
X7859285Y-11799857D01*
X7873571Y-11857000D01*
X7873571Y-11928429D01*
X7859285Y-11985571D01*
X7845000Y-12014143D01*
X7830714Y-12028429D01*
X7802143Y-12042714D01*
X7773571Y-12042714D01*
X7745000Y-12028429D01*
X7730714Y-12014143D01*
X7716428Y-11985571D01*
X7702143Y-11928429D01*
X7702143Y-11857000D01*
X7716428Y-11799857D01*
X7730714Y-11771286D01*
X7745000Y-11757000D01*
X7773571Y-11742714D01*
X7973571Y-11742714D02*
X8159285Y-11742714D01*
X8059285Y-11857000D01*
X8102143Y-11857000D01*
X8130714Y-11871286D01*
X8145000Y-11885571D01*
X8159285Y-11914143D01*
X8159285Y-11985571D01*
X8145000Y-12014143D01*
X8130714Y-12028429D01*
X8102143Y-12042714D01*
X8016428Y-12042714D01*
X7987857Y-12028429D01*
X7973571Y-12014143D01*
X8445000Y-12042714D02*
X8273571Y-12042714D01*
X8359285Y-12042714D02*
X8359285Y-11742714D01*
X8330714Y-11785571D01*
X8302143Y-11814143D01*
X8273571Y-11828429D01*
X8559286Y-11742714D02*
X8559286Y-11799857D01*
X8673571Y-11742714D02*
X8673571Y-11799857D01*
X9116428Y-12157000D02*
X9102143Y-12142714D01*
X9073571Y-12099857D01*
X9059286Y-12071286D01*
X9045000Y-12028429D01*
X9030714Y-11957000D01*
X9030714Y-11899857D01*
X9045000Y-11828429D01*
X9059286Y-11785571D01*
X9073571Y-11757000D01*
X9102143Y-11714143D01*
X9116428Y-11699857D01*
X9202143Y-11742714D02*
X9387857Y-11742714D01*
X9287857Y-11857000D01*
X9330714Y-11857000D01*
X9359286Y-11871286D01*
X9373571Y-11885571D01*
X9387857Y-11914143D01*
X9387857Y-11985571D01*
X9373571Y-12014143D01*
X9359286Y-12028429D01*
X9330714Y-12042714D01*
X9245000Y-12042714D01*
X9216428Y-12028429D01*
X9202143Y-12014143D01*
X9559286Y-11871286D02*
X9530714Y-11857000D01*
X9516428Y-11842714D01*
X9502143Y-11814143D01*
X9502143Y-11799857D01*
X9516428Y-11771286D01*
X9530714Y-11757000D01*
X9559286Y-11742714D01*
X9616428Y-11742714D01*
X9645000Y-11757000D01*
X9659286Y-11771286D01*
X9673571Y-11799857D01*
X9673571Y-11814143D01*
X9659286Y-11842714D01*
X9645000Y-11857000D01*
X9616428Y-11871286D01*
X9559286Y-11871286D01*
X9530714Y-11885571D01*
X9516428Y-11899857D01*
X9502143Y-11928429D01*
X9502143Y-11985571D01*
X9516428Y-12014143D01*
X9530714Y-12028429D01*
X9559286Y-12042714D01*
X9616428Y-12042714D01*
X9645000Y-12028429D01*
X9659286Y-12014143D01*
X9673571Y-11985571D01*
X9673571Y-11928429D01*
X9659286Y-11899857D01*
X9645000Y-11885571D01*
X9616428Y-11871286D01*
X10030714Y-12042714D02*
X10030714Y-11742714D01*
X10159286Y-12042714D02*
X10159286Y-11885571D01*
X10145000Y-11857000D01*
X10116428Y-11842714D01*
X10073571Y-11842714D01*
X10045000Y-11857000D01*
X10030714Y-11871286D01*
X10345000Y-12042714D02*
X10316428Y-12028429D01*
X10302143Y-12014143D01*
X10287857Y-11985571D01*
X10287857Y-11899857D01*
X10302143Y-11871286D01*
X10316428Y-11857000D01*
X10345000Y-11842714D01*
X10387857Y-11842714D01*
X10416428Y-11857000D01*
X10430714Y-11871286D01*
X10445000Y-11899857D01*
X10445000Y-11985571D01*
X10430714Y-12014143D01*
X10416428Y-12028429D01*
X10387857Y-12042714D01*
X10345000Y-12042714D01*
X10616428Y-12042714D02*
X10587857Y-12028429D01*
X10573571Y-11999857D01*
X10573571Y-11742714D01*
X10845000Y-12028429D02*
X10816429Y-12042714D01*
X10759286Y-12042714D01*
X10730714Y-12028429D01*
X10716429Y-11999857D01*
X10716429Y-11885571D01*
X10730714Y-11857000D01*
X10759286Y-11842714D01*
X10816429Y-11842714D01*
X10845000Y-11857000D01*
X10859286Y-11885571D01*
X10859286Y-11914143D01*
X10716429Y-11942714D01*
X10973571Y-12028429D02*
X11002143Y-12042714D01*
X11059286Y-12042714D01*
X11087857Y-12028429D01*
X11102143Y-11999857D01*
X11102143Y-11985571D01*
X11087857Y-11957000D01*
X11059286Y-11942714D01*
X11016429Y-11942714D01*
X10987857Y-11928429D01*
X10973571Y-11899857D01*
X10973571Y-11885571D01*
X10987857Y-11857000D01*
X11016429Y-11842714D01*
X11059286Y-11842714D01*
X11087857Y-11857000D01*
X11202143Y-12157000D02*
X11216428Y-12142714D01*
X11245000Y-12099857D01*
X11259286Y-12071286D01*
X11273571Y-12028429D01*
X11287857Y-11957000D01*
X11287857Y-11899857D01*
X11273571Y-11828429D01*
X11259286Y-11785571D01*
X11245000Y-11757000D01*
X11216428Y-11714143D01*
X11202143Y-11699857D01*
X4433283Y-12331288D02*
X4433283Y-12274712D01*
X4376707Y-12274712D01*
X4376707Y-12331288D01*
X4433283Y-12331288D01*
X4773571Y-12138714D02*
X4802143Y-12138714D01*
X4830714Y-12153000D01*
X4845000Y-12167286D01*
X4859286Y-12195857D01*
X4873571Y-12253000D01*
X4873571Y-12324429D01*
X4859286Y-12381571D01*
X4845000Y-12410143D01*
X4830714Y-12424429D01*
X4802143Y-12438714D01*
X4773571Y-12438714D01*
X4745000Y-12424429D01*
X4730714Y-12410143D01*
X4716429Y-12381571D01*
X4702143Y-12324429D01*
X4702143Y-12253000D01*
X4716429Y-12195857D01*
X4730714Y-12167286D01*
X4745000Y-12153000D01*
X4773571Y-12138714D01*
X5002143Y-12410143D02*
X5016429Y-12424429D01*
X5002143Y-12438714D01*
X4987857Y-12424429D01*
X5002143Y-12410143D01*
X5002143Y-12438714D01*
X5187857Y-12267286D02*
X5159286Y-12253000D01*
X5145000Y-12238714D01*
X5130714Y-12210143D01*
X5130714Y-12195857D01*
X5145000Y-12167286D01*
X5159286Y-12153000D01*
X5187857Y-12138714D01*
X5245000Y-12138714D01*
X5273571Y-12153000D01*
X5287857Y-12167286D01*
X5302143Y-12195857D01*
X5302143Y-12210143D01*
X5287857Y-12238714D01*
X5273571Y-12253000D01*
X5245000Y-12267286D01*
X5187857Y-12267286D01*
X5159286Y-12281571D01*
X5145000Y-12295857D01*
X5130714Y-12324429D01*
X5130714Y-12381571D01*
X5145000Y-12410143D01*
X5159286Y-12424429D01*
X5187857Y-12438714D01*
X5245000Y-12438714D01*
X5273571Y-12424429D01*
X5287857Y-12410143D01*
X5302143Y-12381571D01*
X5302143Y-12324429D01*
X5287857Y-12295857D01*
X5273571Y-12281571D01*
X5245000Y-12267286D01*
X5487857Y-12138714D02*
X5516429Y-12138714D01*
X5545000Y-12153000D01*
X5559286Y-12167286D01*
X5573571Y-12195857D01*
X5587857Y-12253000D01*
X5587857Y-12324429D01*
X5573571Y-12381571D01*
X5559286Y-12410143D01*
X5545000Y-12424429D01*
X5516429Y-12438714D01*
X5487857Y-12438714D01*
X5459286Y-12424429D01*
X5445000Y-12410143D01*
X5430714Y-12381571D01*
X5416429Y-12324429D01*
X5416429Y-12253000D01*
X5430714Y-12195857D01*
X5445000Y-12167286D01*
X5459286Y-12153000D01*
X5487857Y-12138714D01*
X5716428Y-12438714D02*
X5716428Y-12238714D01*
X5716428Y-12267286D02*
X5730714Y-12253000D01*
X5759286Y-12238714D01*
X5802143Y-12238714D01*
X5830714Y-12253000D01*
X5845000Y-12281571D01*
X5845000Y-12438714D01*
X5845000Y-12281571D02*
X5859286Y-12253000D01*
X5887857Y-12238714D01*
X5930714Y-12238714D01*
X5959286Y-12253000D01*
X5973571Y-12281571D01*
X5973571Y-12438714D01*
X6116428Y-12438714D02*
X6116428Y-12238714D01*
X6116428Y-12267286D02*
X6130714Y-12253000D01*
X6159286Y-12238714D01*
X6202143Y-12238714D01*
X6230714Y-12253000D01*
X6245000Y-12281571D01*
X6245000Y-12438714D01*
X6245000Y-12281571D02*
X6259286Y-12253000D01*
X6287857Y-12238714D01*
X6330714Y-12238714D01*
X6359286Y-12253000D01*
X6373571Y-12281571D01*
X6373571Y-12438714D01*
X6959286Y-12124429D02*
X6702143Y-12510143D01*
X7345000Y-12138714D02*
X7373571Y-12138714D01*
X7402143Y-12153000D01*
X7416428Y-12167286D01*
X7430714Y-12195857D01*
X7445000Y-12253000D01*
X7445000Y-12324429D01*
X7430714Y-12381571D01*
X7416428Y-12410143D01*
X7402143Y-12424429D01*
X7373571Y-12438714D01*
X7345000Y-12438714D01*
X7316428Y-12424429D01*
X7302143Y-12410143D01*
X7287857Y-12381571D01*
X7273571Y-12324429D01*
X7273571Y-12253000D01*
X7287857Y-12195857D01*
X7302143Y-12167286D01*
X7316428Y-12153000D01*
X7345000Y-12138714D01*
X7573571Y-12410143D02*
X7587857Y-12424429D01*
X7573571Y-12438714D01*
X7559286Y-12424429D01*
X7573571Y-12410143D01*
X7573571Y-12438714D01*
X7773571Y-12138714D02*
X7802143Y-12138714D01*
X7830714Y-12153000D01*
X7845000Y-12167286D01*
X7859285Y-12195857D01*
X7873571Y-12253000D01*
X7873571Y-12324429D01*
X7859285Y-12381571D01*
X7845000Y-12410143D01*
X7830714Y-12424429D01*
X7802143Y-12438714D01*
X7773571Y-12438714D01*
X7745000Y-12424429D01*
X7730714Y-12410143D01*
X7716428Y-12381571D01*
X7702143Y-12324429D01*
X7702143Y-12253000D01*
X7716428Y-12195857D01*
X7730714Y-12167286D01*
X7745000Y-12153000D01*
X7773571Y-12138714D01*
X7973571Y-12138714D02*
X8159285Y-12138714D01*
X8059285Y-12253000D01*
X8102143Y-12253000D01*
X8130714Y-12267286D01*
X8145000Y-12281571D01*
X8159285Y-12310143D01*
X8159285Y-12381571D01*
X8145000Y-12410143D01*
X8130714Y-12424429D01*
X8102143Y-12438714D01*
X8016428Y-12438714D01*
X7987857Y-12424429D01*
X7973571Y-12410143D01*
X8273571Y-12167286D02*
X8287857Y-12153000D01*
X8316428Y-12138714D01*
X8387857Y-12138714D01*
X8416428Y-12153000D01*
X8430714Y-12167286D01*
X8445000Y-12195857D01*
X8445000Y-12224429D01*
X8430714Y-12267286D01*
X8259285Y-12438714D01*
X8445000Y-12438714D01*
X8559286Y-12138714D02*
X8559286Y-12195857D01*
X8673571Y-12138714D02*
X8673571Y-12195857D01*
X9116428Y-12553000D02*
X9102143Y-12538714D01*
X9073571Y-12495857D01*
X9059286Y-12467286D01*
X9045000Y-12424429D01*
X9030714Y-12353000D01*
X9030714Y-12295857D01*
X9045000Y-12224429D01*
X9059286Y-12181571D01*
X9073571Y-12153000D01*
X9102143Y-12110143D01*
X9116428Y-12095857D01*
X9202143Y-12138714D02*
X9402143Y-12138714D01*
X9273571Y-12438714D01*
X9745000Y-12438714D02*
X9745000Y-12138714D01*
X9873571Y-12438714D02*
X9873571Y-12281571D01*
X9859286Y-12253000D01*
X9830714Y-12238714D01*
X9787857Y-12238714D01*
X9759286Y-12253000D01*
X9745000Y-12267286D01*
X10059286Y-12438714D02*
X10030714Y-12424429D01*
X10016428Y-12410143D01*
X10002143Y-12381571D01*
X10002143Y-12295857D01*
X10016428Y-12267286D01*
X10030714Y-12253000D01*
X10059286Y-12238714D01*
X10102143Y-12238714D01*
X10130714Y-12253000D01*
X10145000Y-12267286D01*
X10159286Y-12295857D01*
X10159286Y-12381571D01*
X10145000Y-12410143D01*
X10130714Y-12424429D01*
X10102143Y-12438714D01*
X10059286Y-12438714D01*
X10330714Y-12438714D02*
X10302143Y-12424429D01*
X10287857Y-12395857D01*
X10287857Y-12138714D01*
X10559286Y-12424429D02*
X10530714Y-12438714D01*
X10473571Y-12438714D01*
X10445000Y-12424429D01*
X10430714Y-12395857D01*
X10430714Y-12281571D01*
X10445000Y-12253000D01*
X10473571Y-12238714D01*
X10530714Y-12238714D01*
X10559286Y-12253000D01*
X10573571Y-12281571D01*
X10573571Y-12310143D01*
X10430714Y-12338714D01*
X10687857Y-12424429D02*
X10716429Y-12438714D01*
X10773571Y-12438714D01*
X10802143Y-12424429D01*
X10816429Y-12395857D01*
X10816429Y-12381571D01*
X10802143Y-12353000D01*
X10773571Y-12338714D01*
X10730714Y-12338714D01*
X10702143Y-12324429D01*
X10687857Y-12295857D01*
X10687857Y-12281571D01*
X10702143Y-12253000D01*
X10730714Y-12238714D01*
X10773571Y-12238714D01*
X10802143Y-12253000D01*
X10916428Y-12553000D02*
X10930714Y-12538714D01*
X10959286Y-12495857D01*
X10973571Y-12467286D01*
X10987857Y-12424429D01*
X11002143Y-12353000D01*
X11002143Y-12295857D01*
X10987857Y-12224429D01*
X10973571Y-12181571D01*
X10959286Y-12153000D01*
X10930714Y-12110143D01*
X10916428Y-12095857D01*
X4395089Y-12748911D02*
X4445000Y-12699000D01*
X4395089Y-12649089D01*
X4345178Y-12699000D01*
X4395089Y-12748911D01*
X4873571Y-12834714D02*
X4702143Y-12834714D01*
X4787857Y-12834714D02*
X4787857Y-12534714D01*
X4759286Y-12577571D01*
X4730714Y-12606143D01*
X4702143Y-12620429D01*
X5002143Y-12806143D02*
X5016429Y-12820429D01*
X5002143Y-12834714D01*
X4987857Y-12820429D01*
X5002143Y-12806143D01*
X5002143Y-12834714D01*
X5202143Y-12534714D02*
X5230714Y-12534714D01*
X5259286Y-12549000D01*
X5273571Y-12563286D01*
X5287857Y-12591857D01*
X5302143Y-12649000D01*
X5302143Y-12720429D01*
X5287857Y-12777571D01*
X5273571Y-12806143D01*
X5259286Y-12820429D01*
X5230714Y-12834714D01*
X5202143Y-12834714D01*
X5173571Y-12820429D01*
X5159286Y-12806143D01*
X5145000Y-12777571D01*
X5130714Y-12720429D01*
X5130714Y-12649000D01*
X5145000Y-12591857D01*
X5159286Y-12563286D01*
X5173571Y-12549000D01*
X5202143Y-12534714D01*
X5487857Y-12534714D02*
X5516429Y-12534714D01*
X5545000Y-12549000D01*
X5559286Y-12563286D01*
X5573571Y-12591857D01*
X5587857Y-12649000D01*
X5587857Y-12720429D01*
X5573571Y-12777571D01*
X5559286Y-12806143D01*
X5545000Y-12820429D01*
X5516429Y-12834714D01*
X5487857Y-12834714D01*
X5459286Y-12820429D01*
X5445000Y-12806143D01*
X5430714Y-12777571D01*
X5416429Y-12720429D01*
X5416429Y-12649000D01*
X5430714Y-12591857D01*
X5445000Y-12563286D01*
X5459286Y-12549000D01*
X5487857Y-12534714D01*
X5716428Y-12834714D02*
X5716428Y-12634714D01*
X5716428Y-12663286D02*
X5730714Y-12649000D01*
X5759286Y-12634714D01*
X5802143Y-12634714D01*
X5830714Y-12649000D01*
X5845000Y-12677571D01*
X5845000Y-12834714D01*
X5845000Y-12677571D02*
X5859286Y-12649000D01*
X5887857Y-12634714D01*
X5930714Y-12634714D01*
X5959286Y-12649000D01*
X5973571Y-12677571D01*
X5973571Y-12834714D01*
X6116428Y-12834714D02*
X6116428Y-12634714D01*
X6116428Y-12663286D02*
X6130714Y-12649000D01*
X6159286Y-12634714D01*
X6202143Y-12634714D01*
X6230714Y-12649000D01*
X6245000Y-12677571D01*
X6245000Y-12834714D01*
X6245000Y-12677571D02*
X6259286Y-12649000D01*
X6287857Y-12634714D01*
X6330714Y-12634714D01*
X6359286Y-12649000D01*
X6373571Y-12677571D01*
X6373571Y-12834714D01*
X6959286Y-12520429D02*
X6702143Y-12906143D01*
X7345000Y-12534714D02*
X7373571Y-12534714D01*
X7402143Y-12549000D01*
X7416428Y-12563286D01*
X7430714Y-12591857D01*
X7445000Y-12649000D01*
X7445000Y-12720429D01*
X7430714Y-12777571D01*
X7416428Y-12806143D01*
X7402143Y-12820429D01*
X7373571Y-12834714D01*
X7345000Y-12834714D01*
X7316428Y-12820429D01*
X7302143Y-12806143D01*
X7287857Y-12777571D01*
X7273571Y-12720429D01*
X7273571Y-12649000D01*
X7287857Y-12591857D01*
X7302143Y-12563286D01*
X7316428Y-12549000D01*
X7345000Y-12534714D01*
X7573571Y-12806143D02*
X7587857Y-12820429D01*
X7573571Y-12834714D01*
X7559286Y-12820429D01*
X7573571Y-12806143D01*
X7573571Y-12834714D01*
X7773571Y-12534714D02*
X7802143Y-12534714D01*
X7830714Y-12549000D01*
X7845000Y-12563286D01*
X7859285Y-12591857D01*
X7873571Y-12649000D01*
X7873571Y-12720429D01*
X7859285Y-12777571D01*
X7845000Y-12806143D01*
X7830714Y-12820429D01*
X7802143Y-12834714D01*
X7773571Y-12834714D01*
X7745000Y-12820429D01*
X7730714Y-12806143D01*
X7716428Y-12777571D01*
X7702143Y-12720429D01*
X7702143Y-12649000D01*
X7716428Y-12591857D01*
X7730714Y-12563286D01*
X7745000Y-12549000D01*
X7773571Y-12534714D01*
X7973571Y-12534714D02*
X8159285Y-12534714D01*
X8059285Y-12649000D01*
X8102143Y-12649000D01*
X8130714Y-12663286D01*
X8145000Y-12677571D01*
X8159285Y-12706143D01*
X8159285Y-12777571D01*
X8145000Y-12806143D01*
X8130714Y-12820429D01*
X8102143Y-12834714D01*
X8016428Y-12834714D01*
X7987857Y-12820429D01*
X7973571Y-12806143D01*
X8302143Y-12834714D02*
X8359285Y-12834714D01*
X8387857Y-12820429D01*
X8402143Y-12806143D01*
X8430714Y-12763286D01*
X8445000Y-12706143D01*
X8445000Y-12591857D01*
X8430714Y-12563286D01*
X8416428Y-12549000D01*
X8387857Y-12534714D01*
X8330714Y-12534714D01*
X8302143Y-12549000D01*
X8287857Y-12563286D01*
X8273571Y-12591857D01*
X8273571Y-12663286D01*
X8287857Y-12691857D01*
X8302143Y-12706143D01*
X8330714Y-12720429D01*
X8387857Y-12720429D01*
X8416428Y-12706143D01*
X8430714Y-12691857D01*
X8445000Y-12663286D01*
X8559286Y-12534714D02*
X8559286Y-12591857D01*
X8673571Y-12534714D02*
X8673571Y-12591857D01*
X9116428Y-12949000D02*
X9102143Y-12934714D01*
X9073571Y-12891857D01*
X9059286Y-12863286D01*
X9045000Y-12820429D01*
X9030714Y-12749000D01*
X9030714Y-12691857D01*
X9045000Y-12620429D01*
X9059286Y-12577571D01*
X9073571Y-12549000D01*
X9102143Y-12506143D01*
X9116428Y-12491857D01*
X9359286Y-12634714D02*
X9359286Y-12834714D01*
X9287857Y-12520429D02*
X9216428Y-12734714D01*
X9402143Y-12734714D01*
X9559286Y-12663286D02*
X9530714Y-12649000D01*
X9516428Y-12634714D01*
X9502143Y-12606143D01*
X9502143Y-12591857D01*
X9516428Y-12563286D01*
X9530714Y-12549000D01*
X9559286Y-12534714D01*
X9616428Y-12534714D01*
X9645000Y-12549000D01*
X9659286Y-12563286D01*
X9673571Y-12591857D01*
X9673571Y-12606143D01*
X9659286Y-12634714D01*
X9645000Y-12649000D01*
X9616428Y-12663286D01*
X9559286Y-12663286D01*
X9530714Y-12677571D01*
X9516428Y-12691857D01*
X9502143Y-12720429D01*
X9502143Y-12777571D01*
X9516428Y-12806143D01*
X9530714Y-12820429D01*
X9559286Y-12834714D01*
X9616428Y-12834714D01*
X9645000Y-12820429D01*
X9659286Y-12806143D01*
X9673571Y-12777571D01*
X9673571Y-12720429D01*
X9659286Y-12691857D01*
X9645000Y-12677571D01*
X9616428Y-12663286D01*
X10030714Y-12834714D02*
X10030714Y-12534714D01*
X10159286Y-12834714D02*
X10159286Y-12677571D01*
X10145000Y-12649000D01*
X10116428Y-12634714D01*
X10073571Y-12634714D01*
X10045000Y-12649000D01*
X10030714Y-12663286D01*
X10345000Y-12834714D02*
X10316428Y-12820429D01*
X10302143Y-12806143D01*
X10287857Y-12777571D01*
X10287857Y-12691857D01*
X10302143Y-12663286D01*
X10316428Y-12649000D01*
X10345000Y-12634714D01*
X10387857Y-12634714D01*
X10416428Y-12649000D01*
X10430714Y-12663286D01*
X10445000Y-12691857D01*
X10445000Y-12777571D01*
X10430714Y-12806143D01*
X10416428Y-12820429D01*
X10387857Y-12834714D01*
X10345000Y-12834714D01*
X10616428Y-12834714D02*
X10587857Y-12820429D01*
X10573571Y-12791857D01*
X10573571Y-12534714D01*
X10845000Y-12820429D02*
X10816429Y-12834714D01*
X10759286Y-12834714D01*
X10730714Y-12820429D01*
X10716429Y-12791857D01*
X10716429Y-12677571D01*
X10730714Y-12649000D01*
X10759286Y-12634714D01*
X10816429Y-12634714D01*
X10845000Y-12649000D01*
X10859286Y-12677571D01*
X10859286Y-12706143D01*
X10716429Y-12734714D01*
X10973571Y-12820429D02*
X11002143Y-12834714D01*
X11059286Y-12834714D01*
X11087857Y-12820429D01*
X11102143Y-12791857D01*
X11102143Y-12777571D01*
X11087857Y-12749000D01*
X11059286Y-12734714D01*
X11016429Y-12734714D01*
X10987857Y-12720429D01*
X10973571Y-12691857D01*
X10973571Y-12677571D01*
X10987857Y-12649000D01*
X11016429Y-12634714D01*
X11059286Y-12634714D01*
X11087857Y-12649000D01*
X11202143Y-12949000D02*
X11216428Y-12934714D01*
X11245000Y-12891857D01*
X11259286Y-12863286D01*
X11273571Y-12820429D01*
X11287857Y-12749000D01*
X11287857Y-12691857D01*
X11273571Y-12620429D01*
X11259286Y-12577571D01*
X11245000Y-12549000D01*
X11216428Y-12506143D01*
X11202143Y-12491857D01*
X4345000Y-13045000D02*
X4445000Y-13145000D01*
X4445000Y-13045000D02*
X4345000Y-13145000D01*
X4445000Y-13095000D02*
G75*
G03X4445000Y-13095000I-50000J0D01*
G01*
X4873571Y-13230714D02*
X4702143Y-13230714D01*
X4787857Y-13230714D02*
X4787857Y-12930714D01*
X4759286Y-12973571D01*
X4730714Y-13002143D01*
X4702143Y-13016429D01*
X5002143Y-13202143D02*
X5016429Y-13216429D01*
X5002143Y-13230714D01*
X4987857Y-13216429D01*
X5002143Y-13202143D01*
X5002143Y-13230714D01*
X5202143Y-12930714D02*
X5230714Y-12930714D01*
X5259286Y-12945000D01*
X5273571Y-12959286D01*
X5287857Y-12987857D01*
X5302143Y-13045000D01*
X5302143Y-13116429D01*
X5287857Y-13173571D01*
X5273571Y-13202143D01*
X5259286Y-13216429D01*
X5230714Y-13230714D01*
X5202143Y-13230714D01*
X5173571Y-13216429D01*
X5159286Y-13202143D01*
X5145000Y-13173571D01*
X5130714Y-13116429D01*
X5130714Y-13045000D01*
X5145000Y-12987857D01*
X5159286Y-12959286D01*
X5173571Y-12945000D01*
X5202143Y-12930714D01*
X5487857Y-12930714D02*
X5516429Y-12930714D01*
X5545000Y-12945000D01*
X5559286Y-12959286D01*
X5573571Y-12987857D01*
X5587857Y-13045000D01*
X5587857Y-13116429D01*
X5573571Y-13173571D01*
X5559286Y-13202143D01*
X5545000Y-13216429D01*
X5516429Y-13230714D01*
X5487857Y-13230714D01*
X5459286Y-13216429D01*
X5445000Y-13202143D01*
X5430714Y-13173571D01*
X5416429Y-13116429D01*
X5416429Y-13045000D01*
X5430714Y-12987857D01*
X5445000Y-12959286D01*
X5459286Y-12945000D01*
X5487857Y-12930714D01*
X5716428Y-13230714D02*
X5716428Y-13030714D01*
X5716428Y-13059286D02*
X5730714Y-13045000D01*
X5759286Y-13030714D01*
X5802143Y-13030714D01*
X5830714Y-13045000D01*
X5845000Y-13073571D01*
X5845000Y-13230714D01*
X5845000Y-13073571D02*
X5859286Y-13045000D01*
X5887857Y-13030714D01*
X5930714Y-13030714D01*
X5959286Y-13045000D01*
X5973571Y-13073571D01*
X5973571Y-13230714D01*
X6116428Y-13230714D02*
X6116428Y-13030714D01*
X6116428Y-13059286D02*
X6130714Y-13045000D01*
X6159286Y-13030714D01*
X6202143Y-13030714D01*
X6230714Y-13045000D01*
X6245000Y-13073571D01*
X6245000Y-13230714D01*
X6245000Y-13073571D02*
X6259286Y-13045000D01*
X6287857Y-13030714D01*
X6330714Y-13030714D01*
X6359286Y-13045000D01*
X6373571Y-13073571D01*
X6373571Y-13230714D01*
X6959286Y-12916429D02*
X6702143Y-13302143D01*
X7345000Y-12930714D02*
X7373571Y-12930714D01*
X7402143Y-12945000D01*
X7416428Y-12959286D01*
X7430714Y-12987857D01*
X7445000Y-13045000D01*
X7445000Y-13116429D01*
X7430714Y-13173571D01*
X7416428Y-13202143D01*
X7402143Y-13216429D01*
X7373571Y-13230714D01*
X7345000Y-13230714D01*
X7316428Y-13216429D01*
X7302143Y-13202143D01*
X7287857Y-13173571D01*
X7273571Y-13116429D01*
X7273571Y-13045000D01*
X7287857Y-12987857D01*
X7302143Y-12959286D01*
X7316428Y-12945000D01*
X7345000Y-12930714D01*
X7573571Y-13202143D02*
X7587857Y-13216429D01*
X7573571Y-13230714D01*
X7559286Y-13216429D01*
X7573571Y-13202143D01*
X7573571Y-13230714D01*
X7773571Y-12930714D02*
X7802143Y-12930714D01*
X7830714Y-12945000D01*
X7845000Y-12959286D01*
X7859285Y-12987857D01*
X7873571Y-13045000D01*
X7873571Y-13116429D01*
X7859285Y-13173571D01*
X7845000Y-13202143D01*
X7830714Y-13216429D01*
X7802143Y-13230714D01*
X7773571Y-13230714D01*
X7745000Y-13216429D01*
X7730714Y-13202143D01*
X7716428Y-13173571D01*
X7702143Y-13116429D01*
X7702143Y-13045000D01*
X7716428Y-12987857D01*
X7730714Y-12959286D01*
X7745000Y-12945000D01*
X7773571Y-12930714D01*
X7973571Y-12930714D02*
X8159285Y-12930714D01*
X8059285Y-13045000D01*
X8102143Y-13045000D01*
X8130714Y-13059286D01*
X8145000Y-13073571D01*
X8159285Y-13102143D01*
X8159285Y-13173571D01*
X8145000Y-13202143D01*
X8130714Y-13216429D01*
X8102143Y-13230714D01*
X8016428Y-13230714D01*
X7987857Y-13216429D01*
X7973571Y-13202143D01*
X8302143Y-13230714D02*
X8359285Y-13230714D01*
X8387857Y-13216429D01*
X8402143Y-13202143D01*
X8430714Y-13159286D01*
X8445000Y-13102143D01*
X8445000Y-12987857D01*
X8430714Y-12959286D01*
X8416428Y-12945000D01*
X8387857Y-12930714D01*
X8330714Y-12930714D01*
X8302143Y-12945000D01*
X8287857Y-12959286D01*
X8273571Y-12987857D01*
X8273571Y-13059286D01*
X8287857Y-13087857D01*
X8302143Y-13102143D01*
X8330714Y-13116429D01*
X8387857Y-13116429D01*
X8416428Y-13102143D01*
X8430714Y-13087857D01*
X8445000Y-13059286D01*
X8559286Y-12930714D02*
X8559286Y-12987857D01*
X8673571Y-12930714D02*
X8673571Y-12987857D01*
X9116428Y-13345000D02*
X9102143Y-13330714D01*
X9073571Y-13287857D01*
X9059286Y-13259286D01*
X9045000Y-13216429D01*
X9030714Y-13145000D01*
X9030714Y-13087857D01*
X9045000Y-13016429D01*
X9059286Y-12973571D01*
X9073571Y-12945000D01*
X9102143Y-12902143D01*
X9116428Y-12887857D01*
X9216428Y-12959286D02*
X9230714Y-12945000D01*
X9259286Y-12930714D01*
X9330714Y-12930714D01*
X9359286Y-12945000D01*
X9373571Y-12959286D01*
X9387857Y-12987857D01*
X9387857Y-13016429D01*
X9373571Y-13059286D01*
X9202143Y-13230714D01*
X9387857Y-13230714D01*
X9502143Y-12959286D02*
X9516428Y-12945000D01*
X9545000Y-12930714D01*
X9616428Y-12930714D01*
X9645000Y-12945000D01*
X9659286Y-12959286D01*
X9673571Y-12987857D01*
X9673571Y-13016429D01*
X9659286Y-13059286D01*
X9487857Y-13230714D01*
X9673571Y-13230714D01*
X9959286Y-13230714D02*
X9787857Y-13230714D01*
X9873571Y-13230714D02*
X9873571Y-12930714D01*
X9845000Y-12973571D01*
X9816428Y-13002143D01*
X9787857Y-13016429D01*
X10316428Y-13230714D02*
X10316428Y-12930714D01*
X10445000Y-13230714D02*
X10445000Y-13073571D01*
X10430714Y-13045000D01*
X10402143Y-13030714D01*
X10359286Y-13030714D01*
X10330714Y-13045000D01*
X10316428Y-13059286D01*
X10630714Y-13230714D02*
X10602143Y-13216429D01*
X10587857Y-13202143D01*
X10573571Y-13173571D01*
X10573571Y-13087857D01*
X10587857Y-13059286D01*
X10602143Y-13045000D01*
X10630714Y-13030714D01*
X10673571Y-13030714D01*
X10702143Y-13045000D01*
X10716428Y-13059286D01*
X10730714Y-13087857D01*
X10730714Y-13173571D01*
X10716428Y-13202143D01*
X10702143Y-13216429D01*
X10673571Y-13230714D01*
X10630714Y-13230714D01*
X10902143Y-13230714D02*
X10873571Y-13216429D01*
X10859286Y-13187857D01*
X10859286Y-12930714D01*
X11130714Y-13216429D02*
X11102143Y-13230714D01*
X11045000Y-13230714D01*
X11016429Y-13216429D01*
X11002143Y-13187857D01*
X11002143Y-13073571D01*
X11016429Y-13045000D01*
X11045000Y-13030714D01*
X11102143Y-13030714D01*
X11130714Y-13045000D01*
X11145000Y-13073571D01*
X11145000Y-13102143D01*
X11002143Y-13130714D01*
X11259286Y-13216429D02*
X11287857Y-13230714D01*
X11345000Y-13230714D01*
X11373571Y-13216429D01*
X11387857Y-13187857D01*
X11387857Y-13173571D01*
X11373571Y-13145000D01*
X11345000Y-13130714D01*
X11302143Y-13130714D01*
X11273571Y-13116429D01*
X11259286Y-13087857D01*
X11259286Y-13073571D01*
X11273571Y-13045000D01*
X11302143Y-13030714D01*
X11345000Y-13030714D01*
X11373571Y-13045000D01*
X11487857Y-13345000D02*
X11502143Y-13330714D01*
X11530714Y-13287857D01*
X11545000Y-13259286D01*
X11559286Y-13216429D01*
X11573571Y-13145000D01*
X11573571Y-13087857D01*
X11559286Y-13016429D01*
X11545000Y-12973571D01*
X11530714Y-12945000D01*
X11502143Y-12902143D01*
X11487857Y-12887857D01*
X4344924Y-13440962D02*
X4445000Y-13541038D01*
X4445000Y-13440962D02*
X4344924Y-13541038D01*
X4394962Y-13440962D02*
X4394962Y-13541038D01*
X4344924Y-13491000D02*
X4445000Y-13491000D01*
X4873571Y-13626714D02*
X4702143Y-13626714D01*
X4787857Y-13626714D02*
X4787857Y-13326714D01*
X4759286Y-13369571D01*
X4730714Y-13398143D01*
X4702143Y-13412429D01*
X5002143Y-13598143D02*
X5016429Y-13612429D01*
X5002143Y-13626714D01*
X4987857Y-13612429D01*
X5002143Y-13598143D01*
X5002143Y-13626714D01*
X5202143Y-13326714D02*
X5230714Y-13326714D01*
X5259286Y-13341000D01*
X5273571Y-13355286D01*
X5287857Y-13383857D01*
X5302143Y-13441000D01*
X5302143Y-13512429D01*
X5287857Y-13569571D01*
X5273571Y-13598143D01*
X5259286Y-13612429D01*
X5230714Y-13626714D01*
X5202143Y-13626714D01*
X5173571Y-13612429D01*
X5159286Y-13598143D01*
X5145000Y-13569571D01*
X5130714Y-13512429D01*
X5130714Y-13441000D01*
X5145000Y-13383857D01*
X5159286Y-13355286D01*
X5173571Y-13341000D01*
X5202143Y-13326714D01*
X5487857Y-13326714D02*
X5516429Y-13326714D01*
X5545000Y-13341000D01*
X5559286Y-13355286D01*
X5573571Y-13383857D01*
X5587857Y-13441000D01*
X5587857Y-13512429D01*
X5573571Y-13569571D01*
X5559286Y-13598143D01*
X5545000Y-13612429D01*
X5516429Y-13626714D01*
X5487857Y-13626714D01*
X5459286Y-13612429D01*
X5445000Y-13598143D01*
X5430714Y-13569571D01*
X5416429Y-13512429D01*
X5416429Y-13441000D01*
X5430714Y-13383857D01*
X5445000Y-13355286D01*
X5459286Y-13341000D01*
X5487857Y-13326714D01*
X5716428Y-13626714D02*
X5716428Y-13426714D01*
X5716428Y-13455286D02*
X5730714Y-13441000D01*
X5759286Y-13426714D01*
X5802143Y-13426714D01*
X5830714Y-13441000D01*
X5845000Y-13469571D01*
X5845000Y-13626714D01*
X5845000Y-13469571D02*
X5859286Y-13441000D01*
X5887857Y-13426714D01*
X5930714Y-13426714D01*
X5959286Y-13441000D01*
X5973571Y-13469571D01*
X5973571Y-13626714D01*
X6116428Y-13626714D02*
X6116428Y-13426714D01*
X6116428Y-13455286D02*
X6130714Y-13441000D01*
X6159286Y-13426714D01*
X6202143Y-13426714D01*
X6230714Y-13441000D01*
X6245000Y-13469571D01*
X6245000Y-13626714D01*
X6245000Y-13469571D02*
X6259286Y-13441000D01*
X6287857Y-13426714D01*
X6330714Y-13426714D01*
X6359286Y-13441000D01*
X6373571Y-13469571D01*
X6373571Y-13626714D01*
X6959286Y-13312429D02*
X6702143Y-13698143D01*
X7345000Y-13326714D02*
X7373571Y-13326714D01*
X7402143Y-13341000D01*
X7416428Y-13355286D01*
X7430714Y-13383857D01*
X7445000Y-13441000D01*
X7445000Y-13512429D01*
X7430714Y-13569571D01*
X7416428Y-13598143D01*
X7402143Y-13612429D01*
X7373571Y-13626714D01*
X7345000Y-13626714D01*
X7316428Y-13612429D01*
X7302143Y-13598143D01*
X7287857Y-13569571D01*
X7273571Y-13512429D01*
X7273571Y-13441000D01*
X7287857Y-13383857D01*
X7302143Y-13355286D01*
X7316428Y-13341000D01*
X7345000Y-13326714D01*
X7573571Y-13598143D02*
X7587857Y-13612429D01*
X7573571Y-13626714D01*
X7559286Y-13612429D01*
X7573571Y-13598143D01*
X7573571Y-13626714D01*
X7773571Y-13326714D02*
X7802143Y-13326714D01*
X7830714Y-13341000D01*
X7845000Y-13355286D01*
X7859285Y-13383857D01*
X7873571Y-13441000D01*
X7873571Y-13512429D01*
X7859285Y-13569571D01*
X7845000Y-13598143D01*
X7830714Y-13612429D01*
X7802143Y-13626714D01*
X7773571Y-13626714D01*
X7745000Y-13612429D01*
X7730714Y-13598143D01*
X7716428Y-13569571D01*
X7702143Y-13512429D01*
X7702143Y-13441000D01*
X7716428Y-13383857D01*
X7730714Y-13355286D01*
X7745000Y-13341000D01*
X7773571Y-13326714D01*
X7973571Y-13326714D02*
X8159285Y-13326714D01*
X8059285Y-13441000D01*
X8102143Y-13441000D01*
X8130714Y-13455286D01*
X8145000Y-13469571D01*
X8159285Y-13498143D01*
X8159285Y-13569571D01*
X8145000Y-13598143D01*
X8130714Y-13612429D01*
X8102143Y-13626714D01*
X8016428Y-13626714D01*
X7987857Y-13612429D01*
X7973571Y-13598143D01*
X8302143Y-13626714D02*
X8359285Y-13626714D01*
X8387857Y-13612429D01*
X8402143Y-13598143D01*
X8430714Y-13555286D01*
X8445000Y-13498143D01*
X8445000Y-13383857D01*
X8430714Y-13355286D01*
X8416428Y-13341000D01*
X8387857Y-13326714D01*
X8330714Y-13326714D01*
X8302143Y-13341000D01*
X8287857Y-13355286D01*
X8273571Y-13383857D01*
X8273571Y-13455286D01*
X8287857Y-13483857D01*
X8302143Y-13498143D01*
X8330714Y-13512429D01*
X8387857Y-13512429D01*
X8416428Y-13498143D01*
X8430714Y-13483857D01*
X8445000Y-13455286D01*
X8559286Y-13326714D02*
X8559286Y-13383857D01*
X8673571Y-13326714D02*
X8673571Y-13383857D01*
X9116428Y-13741000D02*
X9102143Y-13726714D01*
X9073571Y-13683857D01*
X9059286Y-13655286D01*
X9045000Y-13612429D01*
X9030714Y-13541000D01*
X9030714Y-13483857D01*
X9045000Y-13412429D01*
X9059286Y-13369571D01*
X9073571Y-13341000D01*
X9102143Y-13298143D01*
X9116428Y-13283857D01*
X9373571Y-13326714D02*
X9230714Y-13326714D01*
X9216428Y-13469571D01*
X9230714Y-13455286D01*
X9259286Y-13441000D01*
X9330714Y-13441000D01*
X9359286Y-13455286D01*
X9373571Y-13469571D01*
X9387857Y-13498143D01*
X9387857Y-13569571D01*
X9373571Y-13598143D01*
X9359286Y-13612429D01*
X9330714Y-13626714D01*
X9259286Y-13626714D01*
X9230714Y-13612429D01*
X9216428Y-13598143D01*
X9645000Y-13326714D02*
X9587857Y-13326714D01*
X9559286Y-13341000D01*
X9545000Y-13355286D01*
X9516428Y-13398143D01*
X9502143Y-13455286D01*
X9502143Y-13569571D01*
X9516428Y-13598143D01*
X9530714Y-13612429D01*
X9559286Y-13626714D01*
X9616428Y-13626714D01*
X9645000Y-13612429D01*
X9659286Y-13598143D01*
X9673571Y-13569571D01*
X9673571Y-13498143D01*
X9659286Y-13469571D01*
X9645000Y-13455286D01*
X9616428Y-13441000D01*
X9559286Y-13441000D01*
X9530714Y-13455286D01*
X9516428Y-13469571D01*
X9502143Y-13498143D01*
X10030714Y-13626714D02*
X10030714Y-13326714D01*
X10159286Y-13626714D02*
X10159286Y-13469571D01*
X10145000Y-13441000D01*
X10116428Y-13426714D01*
X10073571Y-13426714D01*
X10045000Y-13441000D01*
X10030714Y-13455286D01*
X10345000Y-13626714D02*
X10316428Y-13612429D01*
X10302143Y-13598143D01*
X10287857Y-13569571D01*
X10287857Y-13483857D01*
X10302143Y-13455286D01*
X10316428Y-13441000D01*
X10345000Y-13426714D01*
X10387857Y-13426714D01*
X10416428Y-13441000D01*
X10430714Y-13455286D01*
X10445000Y-13483857D01*
X10445000Y-13569571D01*
X10430714Y-13598143D01*
X10416428Y-13612429D01*
X10387857Y-13626714D01*
X10345000Y-13626714D01*
X10616428Y-13626714D02*
X10587857Y-13612429D01*
X10573571Y-13583857D01*
X10573571Y-13326714D01*
X10845000Y-13612429D02*
X10816429Y-13626714D01*
X10759286Y-13626714D01*
X10730714Y-13612429D01*
X10716429Y-13583857D01*
X10716429Y-13469571D01*
X10730714Y-13441000D01*
X10759286Y-13426714D01*
X10816429Y-13426714D01*
X10845000Y-13441000D01*
X10859286Y-13469571D01*
X10859286Y-13498143D01*
X10716429Y-13526714D01*
X10973571Y-13612429D02*
X11002143Y-13626714D01*
X11059286Y-13626714D01*
X11087857Y-13612429D01*
X11102143Y-13583857D01*
X11102143Y-13569571D01*
X11087857Y-13541000D01*
X11059286Y-13526714D01*
X11016429Y-13526714D01*
X10987857Y-13512429D01*
X10973571Y-13483857D01*
X10973571Y-13469571D01*
X10987857Y-13441000D01*
X11016429Y-13426714D01*
X11059286Y-13426714D01*
X11087857Y-13441000D01*
X11202143Y-13741000D02*
X11216428Y-13726714D01*
X11245000Y-13683857D01*
X11259286Y-13655286D01*
X11273571Y-13612429D01*
X11287857Y-13541000D01*
X11287857Y-13483857D01*
X11273571Y-13412429D01*
X11259286Y-13369571D01*
X11245000Y-13341000D01*
X11216428Y-13298143D01*
X11202143Y-13283857D01*
X4343400Y-13836200D02*
X4445000Y-13937800D01*
X4445000Y-13836200D02*
X4343400Y-13937800D01*
X4430121Y-13922921D02*
X4430121Y-13851079D01*
X4358279Y-13851079D01*
X4358279Y-13922921D01*
X4430121Y-13922921D01*
X4873571Y-14022714D02*
X4702143Y-14022714D01*
X4787857Y-14022714D02*
X4787857Y-13722714D01*
X4759286Y-13765571D01*
X4730714Y-13794143D01*
X4702143Y-13808429D01*
X5002143Y-13994143D02*
X5016429Y-14008429D01*
X5002143Y-14022714D01*
X4987857Y-14008429D01*
X5002143Y-13994143D01*
X5002143Y-14022714D01*
X5202143Y-13722714D02*
X5230714Y-13722714D01*
X5259286Y-13737000D01*
X5273571Y-13751286D01*
X5287857Y-13779857D01*
X5302143Y-13837000D01*
X5302143Y-13908429D01*
X5287857Y-13965571D01*
X5273571Y-13994143D01*
X5259286Y-14008429D01*
X5230714Y-14022714D01*
X5202143Y-14022714D01*
X5173571Y-14008429D01*
X5159286Y-13994143D01*
X5145000Y-13965571D01*
X5130714Y-13908429D01*
X5130714Y-13837000D01*
X5145000Y-13779857D01*
X5159286Y-13751286D01*
X5173571Y-13737000D01*
X5202143Y-13722714D01*
X5416429Y-13751286D02*
X5430714Y-13737000D01*
X5459286Y-13722714D01*
X5530714Y-13722714D01*
X5559286Y-13737000D01*
X5573571Y-13751286D01*
X5587857Y-13779857D01*
X5587857Y-13808429D01*
X5573571Y-13851286D01*
X5402143Y-14022714D01*
X5587857Y-14022714D01*
X5716428Y-14022714D02*
X5716428Y-13822714D01*
X5716428Y-13851286D02*
X5730714Y-13837000D01*
X5759286Y-13822714D01*
X5802143Y-13822714D01*
X5830714Y-13837000D01*
X5845000Y-13865571D01*
X5845000Y-14022714D01*
X5845000Y-13865571D02*
X5859286Y-13837000D01*
X5887857Y-13822714D01*
X5930714Y-13822714D01*
X5959286Y-13837000D01*
X5973571Y-13865571D01*
X5973571Y-14022714D01*
X6116428Y-14022714D02*
X6116428Y-13822714D01*
X6116428Y-13851286D02*
X6130714Y-13837000D01*
X6159286Y-13822714D01*
X6202143Y-13822714D01*
X6230714Y-13837000D01*
X6245000Y-13865571D01*
X6245000Y-14022714D01*
X6245000Y-13865571D02*
X6259286Y-13837000D01*
X6287857Y-13822714D01*
X6330714Y-13822714D01*
X6359286Y-13837000D01*
X6373571Y-13865571D01*
X6373571Y-14022714D01*
X6959286Y-13708429D02*
X6702143Y-14094143D01*
X7345000Y-13722714D02*
X7373571Y-13722714D01*
X7402143Y-13737000D01*
X7416428Y-13751286D01*
X7430714Y-13779857D01*
X7445000Y-13837000D01*
X7445000Y-13908429D01*
X7430714Y-13965571D01*
X7416428Y-13994143D01*
X7402143Y-14008429D01*
X7373571Y-14022714D01*
X7345000Y-14022714D01*
X7316428Y-14008429D01*
X7302143Y-13994143D01*
X7287857Y-13965571D01*
X7273571Y-13908429D01*
X7273571Y-13837000D01*
X7287857Y-13779857D01*
X7302143Y-13751286D01*
X7316428Y-13737000D01*
X7345000Y-13722714D01*
X7573571Y-13994143D02*
X7587857Y-14008429D01*
X7573571Y-14022714D01*
X7559286Y-14008429D01*
X7573571Y-13994143D01*
X7573571Y-14022714D01*
X7773571Y-13722714D02*
X7802143Y-13722714D01*
X7830714Y-13737000D01*
X7845000Y-13751286D01*
X7859285Y-13779857D01*
X7873571Y-13837000D01*
X7873571Y-13908429D01*
X7859285Y-13965571D01*
X7845000Y-13994143D01*
X7830714Y-14008429D01*
X7802143Y-14022714D01*
X7773571Y-14022714D01*
X7745000Y-14008429D01*
X7730714Y-13994143D01*
X7716428Y-13965571D01*
X7702143Y-13908429D01*
X7702143Y-13837000D01*
X7716428Y-13779857D01*
X7730714Y-13751286D01*
X7745000Y-13737000D01*
X7773571Y-13722714D01*
X8130714Y-13822714D02*
X8130714Y-14022714D01*
X8059285Y-13708429D02*
X7987857Y-13922714D01*
X8173571Y-13922714D01*
X8345000Y-13722714D02*
X8373571Y-13722714D01*
X8402143Y-13737000D01*
X8416428Y-13751286D01*
X8430714Y-13779857D01*
X8445000Y-13837000D01*
X8445000Y-13908429D01*
X8430714Y-13965571D01*
X8416428Y-13994143D01*
X8402143Y-14008429D01*
X8373571Y-14022714D01*
X8345000Y-14022714D01*
X8316428Y-14008429D01*
X8302143Y-13994143D01*
X8287857Y-13965571D01*
X8273571Y-13908429D01*
X8273571Y-13837000D01*
X8287857Y-13779857D01*
X8302143Y-13751286D01*
X8316428Y-13737000D01*
X8345000Y-13722714D01*
X8559286Y-13722714D02*
X8559286Y-13779857D01*
X8673571Y-13722714D02*
X8673571Y-13779857D01*
X9116428Y-14137000D02*
X9102143Y-14122714D01*
X9073571Y-14079857D01*
X9059286Y-14051286D01*
X9045000Y-14008429D01*
X9030714Y-13937000D01*
X9030714Y-13879857D01*
X9045000Y-13808429D01*
X9059286Y-13765571D01*
X9073571Y-13737000D01*
X9102143Y-13694143D01*
X9116428Y-13679857D01*
X9216428Y-13751286D02*
X9230714Y-13737000D01*
X9259286Y-13722714D01*
X9330714Y-13722714D01*
X9359286Y-13737000D01*
X9373571Y-13751286D01*
X9387857Y-13779857D01*
X9387857Y-13808429D01*
X9373571Y-13851286D01*
X9202143Y-14022714D01*
X9387857Y-14022714D01*
X9487857Y-13722714D02*
X9673571Y-13722714D01*
X9573571Y-13837000D01*
X9616428Y-13837000D01*
X9645000Y-13851286D01*
X9659286Y-13865571D01*
X9673571Y-13894143D01*
X9673571Y-13965571D01*
X9659286Y-13994143D01*
X9645000Y-14008429D01*
X9616428Y-14022714D01*
X9530714Y-14022714D01*
X9502143Y-14008429D01*
X9487857Y-13994143D01*
X10030714Y-14022714D02*
X10030714Y-13722714D01*
X10159286Y-14022714D02*
X10159286Y-13865571D01*
X10145000Y-13837000D01*
X10116428Y-13822714D01*
X10073571Y-13822714D01*
X10045000Y-13837000D01*
X10030714Y-13851286D01*
X10345000Y-14022714D02*
X10316428Y-14008429D01*
X10302143Y-13994143D01*
X10287857Y-13965571D01*
X10287857Y-13879857D01*
X10302143Y-13851286D01*
X10316428Y-13837000D01*
X10345000Y-13822714D01*
X10387857Y-13822714D01*
X10416428Y-13837000D01*
X10430714Y-13851286D01*
X10445000Y-13879857D01*
X10445000Y-13965571D01*
X10430714Y-13994143D01*
X10416428Y-14008429D01*
X10387857Y-14022714D01*
X10345000Y-14022714D01*
X10616428Y-14022714D02*
X10587857Y-14008429D01*
X10573571Y-13979857D01*
X10573571Y-13722714D01*
X10845000Y-14008429D02*
X10816429Y-14022714D01*
X10759286Y-14022714D01*
X10730714Y-14008429D01*
X10716429Y-13979857D01*
X10716429Y-13865571D01*
X10730714Y-13837000D01*
X10759286Y-13822714D01*
X10816429Y-13822714D01*
X10845000Y-13837000D01*
X10859286Y-13865571D01*
X10859286Y-13894143D01*
X10716429Y-13922714D01*
X10973571Y-14008429D02*
X11002143Y-14022714D01*
X11059286Y-14022714D01*
X11087857Y-14008429D01*
X11102143Y-13979857D01*
X11102143Y-13965571D01*
X11087857Y-13937000D01*
X11059286Y-13922714D01*
X11016429Y-13922714D01*
X10987857Y-13908429D01*
X10973571Y-13879857D01*
X10973571Y-13865571D01*
X10987857Y-13837000D01*
X11016429Y-13822714D01*
X11059286Y-13822714D01*
X11087857Y-13837000D01*
X11202143Y-14137000D02*
X11216428Y-14122714D01*
X11245000Y-14079857D01*
X11259286Y-14051286D01*
X11273571Y-14008429D01*
X11287857Y-13937000D01*
X11287857Y-13879857D01*
X11273571Y-13808429D01*
X11259286Y-13765571D01*
X11245000Y-13737000D01*
X11216428Y-13694143D01*
X11202143Y-13679857D01*
X4325112Y-14223056D02*
X4445000Y-14342944D01*
X4445000Y-14223056D02*
X4325112Y-14342944D01*
X4385056Y-14342944D02*
X4445000Y-14283000D01*
X4385056Y-14223056D01*
X4325112Y-14283000D01*
X4385056Y-14342944D01*
X4873571Y-14418714D02*
X4702143Y-14418714D01*
X4787857Y-14418714D02*
X4787857Y-14118714D01*
X4759286Y-14161571D01*
X4730714Y-14190143D01*
X4702143Y-14204429D01*
X5002143Y-14390143D02*
X5016429Y-14404429D01*
X5002143Y-14418714D01*
X4987857Y-14404429D01*
X5002143Y-14390143D01*
X5002143Y-14418714D01*
X5130714Y-14147286D02*
X5145000Y-14133000D01*
X5173571Y-14118714D01*
X5245000Y-14118714D01*
X5273571Y-14133000D01*
X5287857Y-14147286D01*
X5302143Y-14175857D01*
X5302143Y-14204429D01*
X5287857Y-14247286D01*
X5116428Y-14418714D01*
X5302143Y-14418714D01*
X5487857Y-14118714D02*
X5516429Y-14118714D01*
X5545000Y-14133000D01*
X5559286Y-14147286D01*
X5573571Y-14175857D01*
X5587857Y-14233000D01*
X5587857Y-14304429D01*
X5573571Y-14361571D01*
X5559286Y-14390143D01*
X5545000Y-14404429D01*
X5516429Y-14418714D01*
X5487857Y-14418714D01*
X5459286Y-14404429D01*
X5445000Y-14390143D01*
X5430714Y-14361571D01*
X5416429Y-14304429D01*
X5416429Y-14233000D01*
X5430714Y-14175857D01*
X5445000Y-14147286D01*
X5459286Y-14133000D01*
X5487857Y-14118714D01*
X5716428Y-14418714D02*
X5716428Y-14218714D01*
X5716428Y-14247286D02*
X5730714Y-14233000D01*
X5759286Y-14218714D01*
X5802143Y-14218714D01*
X5830714Y-14233000D01*
X5845000Y-14261571D01*
X5845000Y-14418714D01*
X5845000Y-14261571D02*
X5859286Y-14233000D01*
X5887857Y-14218714D01*
X5930714Y-14218714D01*
X5959286Y-14233000D01*
X5973571Y-14261571D01*
X5973571Y-14418714D01*
X6116428Y-14418714D02*
X6116428Y-14218714D01*
X6116428Y-14247286D02*
X6130714Y-14233000D01*
X6159286Y-14218714D01*
X6202143Y-14218714D01*
X6230714Y-14233000D01*
X6245000Y-14261571D01*
X6245000Y-14418714D01*
X6245000Y-14261571D02*
X6259286Y-14233000D01*
X6287857Y-14218714D01*
X6330714Y-14218714D01*
X6359286Y-14233000D01*
X6373571Y-14261571D01*
X6373571Y-14418714D01*
X6959286Y-14104429D02*
X6702143Y-14490143D01*
X7345000Y-14118714D02*
X7373571Y-14118714D01*
X7402143Y-14133000D01*
X7416428Y-14147286D01*
X7430714Y-14175857D01*
X7445000Y-14233000D01*
X7445000Y-14304429D01*
X7430714Y-14361571D01*
X7416428Y-14390143D01*
X7402143Y-14404429D01*
X7373571Y-14418714D01*
X7345000Y-14418714D01*
X7316428Y-14404429D01*
X7302143Y-14390143D01*
X7287857Y-14361571D01*
X7273571Y-14304429D01*
X7273571Y-14233000D01*
X7287857Y-14175857D01*
X7302143Y-14147286D01*
X7316428Y-14133000D01*
X7345000Y-14118714D01*
X7573571Y-14390143D02*
X7587857Y-14404429D01*
X7573571Y-14418714D01*
X7559286Y-14404429D01*
X7573571Y-14390143D01*
X7573571Y-14418714D01*
X7773571Y-14118714D02*
X7802143Y-14118714D01*
X7830714Y-14133000D01*
X7845000Y-14147286D01*
X7859285Y-14175857D01*
X7873571Y-14233000D01*
X7873571Y-14304429D01*
X7859285Y-14361571D01*
X7845000Y-14390143D01*
X7830714Y-14404429D01*
X7802143Y-14418714D01*
X7773571Y-14418714D01*
X7745000Y-14404429D01*
X7730714Y-14390143D01*
X7716428Y-14361571D01*
X7702143Y-14304429D01*
X7702143Y-14233000D01*
X7716428Y-14175857D01*
X7730714Y-14147286D01*
X7745000Y-14133000D01*
X7773571Y-14118714D01*
X8130714Y-14218714D02*
X8130714Y-14418714D01*
X8059285Y-14104429D02*
X7987857Y-14318714D01*
X8173571Y-14318714D01*
X8259285Y-14118714D02*
X8459286Y-14118714D01*
X8330714Y-14418714D01*
X8559286Y-14118714D02*
X8559286Y-14175857D01*
X8673571Y-14118714D02*
X8673571Y-14175857D01*
X9116428Y-14533000D02*
X9102143Y-14518714D01*
X9073571Y-14475857D01*
X9059286Y-14447286D01*
X9045000Y-14404429D01*
X9030714Y-14333000D01*
X9030714Y-14275857D01*
X9045000Y-14204429D01*
X9059286Y-14161571D01*
X9073571Y-14133000D01*
X9102143Y-14090143D01*
X9116428Y-14075857D01*
X9359286Y-14118714D02*
X9302143Y-14118714D01*
X9273571Y-14133000D01*
X9259286Y-14147286D01*
X9230714Y-14190143D01*
X9216428Y-14247286D01*
X9216428Y-14361571D01*
X9230714Y-14390143D01*
X9245000Y-14404429D01*
X9273571Y-14418714D01*
X9330714Y-14418714D01*
X9359286Y-14404429D01*
X9373571Y-14390143D01*
X9387857Y-14361571D01*
X9387857Y-14290143D01*
X9373571Y-14261571D01*
X9359286Y-14247286D01*
X9330714Y-14233000D01*
X9273571Y-14233000D01*
X9245000Y-14247286D01*
X9230714Y-14261571D01*
X9216428Y-14290143D01*
X9745000Y-14418714D02*
X9745000Y-14118714D01*
X9873571Y-14418714D02*
X9873571Y-14261571D01*
X9859286Y-14233000D01*
X9830714Y-14218714D01*
X9787857Y-14218714D01*
X9759286Y-14233000D01*
X9745000Y-14247286D01*
X10059286Y-14418714D02*
X10030714Y-14404429D01*
X10016428Y-14390143D01*
X10002143Y-14361571D01*
X10002143Y-14275857D01*
X10016428Y-14247286D01*
X10030714Y-14233000D01*
X10059286Y-14218714D01*
X10102143Y-14218714D01*
X10130714Y-14233000D01*
X10145000Y-14247286D01*
X10159286Y-14275857D01*
X10159286Y-14361571D01*
X10145000Y-14390143D01*
X10130714Y-14404429D01*
X10102143Y-14418714D01*
X10059286Y-14418714D01*
X10330714Y-14418714D02*
X10302143Y-14404429D01*
X10287857Y-14375857D01*
X10287857Y-14118714D01*
X10559286Y-14404429D02*
X10530714Y-14418714D01*
X10473571Y-14418714D01*
X10445000Y-14404429D01*
X10430714Y-14375857D01*
X10430714Y-14261571D01*
X10445000Y-14233000D01*
X10473571Y-14218714D01*
X10530714Y-14218714D01*
X10559286Y-14233000D01*
X10573571Y-14261571D01*
X10573571Y-14290143D01*
X10430714Y-14318714D01*
X10687857Y-14404429D02*
X10716429Y-14418714D01*
X10773571Y-14418714D01*
X10802143Y-14404429D01*
X10816429Y-14375857D01*
X10816429Y-14361571D01*
X10802143Y-14333000D01*
X10773571Y-14318714D01*
X10730714Y-14318714D01*
X10702143Y-14304429D01*
X10687857Y-14275857D01*
X10687857Y-14261571D01*
X10702143Y-14233000D01*
X10730714Y-14218714D01*
X10773571Y-14218714D01*
X10802143Y-14233000D01*
X10916428Y-14533000D02*
X10930714Y-14518714D01*
X10959286Y-14475857D01*
X10973571Y-14447286D01*
X10987857Y-14404429D01*
X11002143Y-14333000D01*
X11002143Y-14275857D01*
X10987857Y-14204429D01*
X10973571Y-14161571D01*
X10959286Y-14133000D01*
X10930714Y-14090143D01*
X10916428Y-14075857D01*
X4285000Y-14519000D02*
X4285000Y-14839000D01*
X4125000Y-14679000D02*
X4445000Y-14679000D01*
X4445000Y-14679000D02*
G75*
G03X4445000Y-14679000I-160000J0D01*
G01*
X4687857Y-14514714D02*
X4873571Y-14514714D01*
X4773571Y-14629000D01*
X4816429Y-14629000D01*
X4845000Y-14643286D01*
X4859286Y-14657571D01*
X4873571Y-14686143D01*
X4873571Y-14757571D01*
X4859286Y-14786143D01*
X4845000Y-14800429D01*
X4816429Y-14814714D01*
X4730714Y-14814714D01*
X4702143Y-14800429D01*
X4687857Y-14786143D01*
X5002143Y-14786143D02*
X5016429Y-14800429D01*
X5002143Y-14814714D01*
X4987857Y-14800429D01*
X5002143Y-14786143D01*
X5002143Y-14814714D01*
X5130714Y-14543286D02*
X5145000Y-14529000D01*
X5173571Y-14514714D01*
X5245000Y-14514714D01*
X5273571Y-14529000D01*
X5287857Y-14543286D01*
X5302143Y-14571857D01*
X5302143Y-14600429D01*
X5287857Y-14643286D01*
X5116428Y-14814714D01*
X5302143Y-14814714D01*
X5487857Y-14514714D02*
X5516429Y-14514714D01*
X5545000Y-14529000D01*
X5559286Y-14543286D01*
X5573571Y-14571857D01*
X5587857Y-14629000D01*
X5587857Y-14700429D01*
X5573571Y-14757571D01*
X5559286Y-14786143D01*
X5545000Y-14800429D01*
X5516429Y-14814714D01*
X5487857Y-14814714D01*
X5459286Y-14800429D01*
X5445000Y-14786143D01*
X5430714Y-14757571D01*
X5416429Y-14700429D01*
X5416429Y-14629000D01*
X5430714Y-14571857D01*
X5445000Y-14543286D01*
X5459286Y-14529000D01*
X5487857Y-14514714D01*
X5716428Y-14814714D02*
X5716428Y-14614714D01*
X5716428Y-14643286D02*
X5730714Y-14629000D01*
X5759286Y-14614714D01*
X5802143Y-14614714D01*
X5830714Y-14629000D01*
X5845000Y-14657571D01*
X5845000Y-14814714D01*
X5845000Y-14657571D02*
X5859286Y-14629000D01*
X5887857Y-14614714D01*
X5930714Y-14614714D01*
X5959286Y-14629000D01*
X5973571Y-14657571D01*
X5973571Y-14814714D01*
X6116428Y-14814714D02*
X6116428Y-14614714D01*
X6116428Y-14643286D02*
X6130714Y-14629000D01*
X6159286Y-14614714D01*
X6202143Y-14614714D01*
X6230714Y-14629000D01*
X6245000Y-14657571D01*
X6245000Y-14814714D01*
X6245000Y-14657571D02*
X6259286Y-14629000D01*
X6287857Y-14614714D01*
X6330714Y-14614714D01*
X6359286Y-14629000D01*
X6373571Y-14657571D01*
X6373571Y-14814714D01*
X6959286Y-14500429D02*
X6702143Y-14886143D01*
X7345000Y-14514714D02*
X7373571Y-14514714D01*
X7402143Y-14529000D01*
X7416428Y-14543286D01*
X7430714Y-14571857D01*
X7445000Y-14629000D01*
X7445000Y-14700429D01*
X7430714Y-14757571D01*
X7416428Y-14786143D01*
X7402143Y-14800429D01*
X7373571Y-14814714D01*
X7345000Y-14814714D01*
X7316428Y-14800429D01*
X7302143Y-14786143D01*
X7287857Y-14757571D01*
X7273571Y-14700429D01*
X7273571Y-14629000D01*
X7287857Y-14571857D01*
X7302143Y-14543286D01*
X7316428Y-14529000D01*
X7345000Y-14514714D01*
X7573571Y-14786143D02*
X7587857Y-14800429D01*
X7573571Y-14814714D01*
X7559286Y-14800429D01*
X7573571Y-14786143D01*
X7573571Y-14814714D01*
X7873571Y-14814714D02*
X7702143Y-14814714D01*
X7787857Y-14814714D02*
X7787857Y-14514714D01*
X7759285Y-14557571D01*
X7730714Y-14586143D01*
X7702143Y-14600429D01*
X7987857Y-14543286D02*
X8002143Y-14529000D01*
X8030714Y-14514714D01*
X8102143Y-14514714D01*
X8130714Y-14529000D01*
X8145000Y-14543286D01*
X8159285Y-14571857D01*
X8159285Y-14600429D01*
X8145000Y-14643286D01*
X7973571Y-14814714D01*
X8159285Y-14814714D01*
X8416428Y-14514714D02*
X8359285Y-14514714D01*
X8330714Y-14529000D01*
X8316428Y-14543286D01*
X8287857Y-14586143D01*
X8273571Y-14643286D01*
X8273571Y-14757571D01*
X8287857Y-14786143D01*
X8302143Y-14800429D01*
X8330714Y-14814714D01*
X8387857Y-14814714D01*
X8416428Y-14800429D01*
X8430714Y-14786143D01*
X8445000Y-14757571D01*
X8445000Y-14686143D01*
X8430714Y-14657571D01*
X8416428Y-14643286D01*
X8387857Y-14629000D01*
X8330714Y-14629000D01*
X8302143Y-14643286D01*
X8287857Y-14657571D01*
X8273571Y-14686143D01*
X8559286Y-14514714D02*
X8559286Y-14571857D01*
X8673571Y-14514714D02*
X8673571Y-14571857D01*
X9116428Y-14929000D02*
X9102143Y-14914714D01*
X9073571Y-14871857D01*
X9059286Y-14843286D01*
X9045000Y-14800429D01*
X9030714Y-14729000D01*
X9030714Y-14671857D01*
X9045000Y-14600429D01*
X9059286Y-14557571D01*
X9073571Y-14529000D01*
X9102143Y-14486143D01*
X9116428Y-14471857D01*
X9359286Y-14614714D02*
X9359286Y-14814714D01*
X9287857Y-14500429D02*
X9216428Y-14714714D01*
X9402143Y-14714714D01*
X9745000Y-14814714D02*
X9745000Y-14514714D01*
X9873571Y-14814714D02*
X9873571Y-14657571D01*
X9859286Y-14629000D01*
X9830714Y-14614714D01*
X9787857Y-14614714D01*
X9759286Y-14629000D01*
X9745000Y-14643286D01*
X10059286Y-14814714D02*
X10030714Y-14800429D01*
X10016428Y-14786143D01*
X10002143Y-14757571D01*
X10002143Y-14671857D01*
X10016428Y-14643286D01*
X10030714Y-14629000D01*
X10059286Y-14614714D01*
X10102143Y-14614714D01*
X10130714Y-14629000D01*
X10145000Y-14643286D01*
X10159286Y-14671857D01*
X10159286Y-14757571D01*
X10145000Y-14786143D01*
X10130714Y-14800429D01*
X10102143Y-14814714D01*
X10059286Y-14814714D01*
X10330714Y-14814714D02*
X10302143Y-14800429D01*
X10287857Y-14771857D01*
X10287857Y-14514714D01*
X10559286Y-14800429D02*
X10530714Y-14814714D01*
X10473571Y-14814714D01*
X10445000Y-14800429D01*
X10430714Y-14771857D01*
X10430714Y-14657571D01*
X10445000Y-14629000D01*
X10473571Y-14614714D01*
X10530714Y-14614714D01*
X10559286Y-14629000D01*
X10573571Y-14657571D01*
X10573571Y-14686143D01*
X10430714Y-14714714D01*
X10687857Y-14800429D02*
X10716429Y-14814714D01*
X10773571Y-14814714D01*
X10802143Y-14800429D01*
X10816429Y-14771857D01*
X10816429Y-14757571D01*
X10802143Y-14729000D01*
X10773571Y-14714714D01*
X10730714Y-14714714D01*
X10702143Y-14700429D01*
X10687857Y-14671857D01*
X10687857Y-14657571D01*
X10702143Y-14629000D01*
X10730714Y-14614714D01*
X10773571Y-14614714D01*
X10802143Y-14629000D01*
X10916428Y-14929000D02*
X10930714Y-14914714D01*
X10959286Y-14871857D01*
X10973571Y-14843286D01*
X10987857Y-14800429D01*
X11002143Y-14729000D01*
X11002143Y-14671857D01*
X10987857Y-14600429D01*
X10973571Y-14557571D01*
X10959286Y-14529000D01*
X10930714Y-14486143D01*
X10916428Y-14471857D01*
M02*
