M48
;DRILL file {KiCad 4.0.2-stable} date 15/08/2016 17:49:41
;FORMAT={-:-/ absolute / metric / decimal}
FMAT,2
METRIC,TZ
T1C0.701
T2C0.762
T3C0.800
T4C0.800
T5C0.998
T6C1.000
T7C1.001
T8C1.016
T9C1.199
T10C3.200
%
G90
G05
M71
T1
X61.5Y-77.5
X71.66Y-77.5
T2
X122.05Y-63.578
X122.05Y-65.864
X122.05Y-68.15
T3
X115.73Y-33.19
X115.73Y-35.73
X115.73Y-38.27
X115.73Y-40.81
X115.73Y-43.35
X115.73Y-45.89
X115.73Y-48.43
X115.73Y-50.97
X115.73Y-53.51
X115.73Y-56.05
X123.35Y-33.19
X123.35Y-35.73
X123.35Y-38.27
X123.35Y-40.81
X123.35Y-43.35
X123.35Y-45.89
X123.35Y-48.43
X123.35Y-50.97
X123.35Y-53.51
X123.35Y-56.05
X129.05Y-59.95
X129.05Y-62.49
X129.05Y-65.03
X129.05Y-67.57
X129.05Y-70.11
X129.05Y-72.65
X129.05Y-75.19
X129.05Y-77.73
X136.67Y-59.95
X136.67Y-62.49
X136.67Y-65.03
X136.67Y-67.57
X136.67Y-70.11
X136.67Y-72.65
X136.67Y-75.19
X136.67Y-77.73
X150.25Y-18.75
X151.75Y-51.25
T4
X119.65Y-73.25
X119.65Y-75.79
X119.65Y-78.33
X119.65Y-80.87
X119.65Y-83.41
X147.75Y-18.75
X151.75Y-48.75
T5
X46.91Y-30.86
X46.91Y-81.66
X49.45Y-30.86
X49.45Y-81.66
X51.99Y-30.86
X51.99Y-81.66
X54.53Y-30.86
X54.53Y-81.66
X57.07Y-30.86
X57.07Y-81.66
X59.61Y-30.86
X59.61Y-81.66
X62.15Y-30.86
X62.15Y-81.66
X64.69Y-30.86
X64.69Y-81.66
X67.23Y-30.86
X67.23Y-81.66
X69.77Y-30.86
X69.77Y-81.66
X72.31Y-30.86
X72.31Y-81.66
X74.85Y-30.86
X74.85Y-81.66
X77.39Y-30.86
X77.39Y-81.66
X79.93Y-30.86
X79.93Y-81.66
X82.47Y-30.86
X82.47Y-81.66
X85.01Y-30.86
X85.01Y-81.66
X87.55Y-30.86
X87.55Y-81.66
X90.09Y-30.86
X90.09Y-81.66
X92.63Y-30.86
X92.63Y-81.66
X95.17Y-30.86
X95.17Y-81.66
X97.71Y-30.86
X97.71Y-81.66
X100.25Y-30.86
X100.25Y-81.66
X102.79Y-30.86
X102.79Y-81.66
X105.33Y-30.86
X105.33Y-81.66
T6
X56.85Y-38.35
X61.42Y-17.98
X61.42Y-20.52
X62.Y-26.
X63.25Y-89.104
X63.96Y-17.98
X63.96Y-20.52
X66.03Y-38.477
X66.42Y-94.73
X66.42Y-97.27
X66.5Y-17.98
X66.5Y-20.52
X67.Y-90.5
X68.215Y-88.5
X68.96Y-94.73
X68.96Y-97.27
X69.04Y-17.98
X69.04Y-20.52
X70.251Y-88.715
X71.5Y-94.73
X71.5Y-97.27
X71.58Y-17.98
X71.58Y-20.52
X72.95Y-88.599
X73.5Y-25.05
X74.04Y-94.73
X74.04Y-97.27
X75.634Y-57.418
X75.7Y-45.61
X76.58Y-94.73
X76.58Y-97.27
X77.271Y-88.271
X79.5Y-26.3
X79.799Y-48.88
X79.834Y-57.769
X82.227Y-28.272
X82.5Y-89.75
X82.67Y-17.98
X82.67Y-20.52
X82.799Y-87.039
X83.669Y-27.12
X84.Y-62.25
X84.082Y-49.529
X85.Y-25.75
X85.21Y-17.98
X85.21Y-20.52
X85.26Y-46.43
X85.75Y-63.
X87.75Y-17.98
X87.75Y-20.52
X87.92Y-94.73
X87.92Y-97.27
X88.25Y-62.5
X88.29Y-46.41
X88.649Y-28.093
X90.04Y-47.66
X90.114Y-26.628
X90.29Y-17.98
X90.29Y-20.52
X90.417Y-88.
X90.46Y-94.73
X90.46Y-97.27
X90.5Y-62.5
X91.25Y-28.25
X92.45Y-48.935
X92.83Y-17.98
X92.83Y-20.52
X93.Y-94.73
X93.Y-97.27
X93.5Y-61.5
X94.53Y-48.87
X94.853Y-57.35
X95.25Y-24.8
X95.54Y-94.73
X95.54Y-97.27
X96.7Y-60.
X96.77Y-48.856
X98.08Y-94.73
X98.08Y-97.27
X98.843Y-57.821
X98.876Y-54.221
X101.45Y-28.737
X102.Y-59.
X102.194Y-53.151
X103.92Y-17.98
X103.92Y-20.52
X104.102Y-67.648
X104.102Y-67.648
X104.25Y-53.5
X106.46Y-17.98
X106.46Y-20.52
X106.75Y-45.
X106.901Y-75.099
X109.Y-17.98
X109.Y-20.52
X109.25Y-87.25
X109.25Y-64.5
X109.42Y-94.73
X109.42Y-97.27
X111.54Y-17.98
X111.54Y-20.52
X111.55Y-29.881
X111.707Y-25.681
X111.96Y-94.73
X111.96Y-97.27
X112.75Y-66.25
X114.08Y-17.98
X114.08Y-20.52
X114.3Y-89.851
X114.398Y-86.45
X114.5Y-94.73
X114.5Y-97.27
X115.289Y-74.883
X115.75Y-67.5
X116.678Y-87.742
X117.04Y-94.73
X117.04Y-97.27
X117.177Y-59.573
X118.475Y-65.778
X119.58Y-94.73
X119.58Y-97.27
X119.823Y-89.427
X120.252Y-86.422
X122.5Y-76.25
X122.851Y-87.399
X124.25Y-71.25
X124.848Y-73.94
X125.17Y-17.98
X125.17Y-20.52
X125.75Y-62.156
X127.Y-72.25
X127.045Y-75.25
X127.71Y-17.98
X127.71Y-20.52
X130.232Y-85.121
X130.25Y-17.98
X130.25Y-20.52
X130.92Y-94.73
X130.92Y-97.27
X131.297Y-88.582
X132.79Y-17.98
X132.79Y-20.52
X133.46Y-94.73
X133.46Y-97.27
X134.05Y-85.701
X134.5Y-47.75
X135.33Y-17.98
X135.33Y-20.52
X136.Y-94.73
X136.Y-97.27
X138.5Y-60.5
X138.54Y-94.73
X138.54Y-97.27
X138.668Y-66.021
X140.Y-61.75
X140.237Y-58.602
X140.75Y-71.75
X140.81Y-76.44
X141.Y-86.068
X141.065Y-88.685
X141.08Y-94.73
X141.08Y-97.27
X141.2Y-65.579
X141.5Y-55.
X145.65Y-29.69
X145.65Y-32.23
X145.65Y-34.77
X145.65Y-37.31
X145.65Y-39.85
X145.78Y-58.66
X145.78Y-61.2
X145.78Y-63.74
X145.78Y-66.28
X145.78Y-68.82
X145.78Y-71.36
X145.78Y-73.9
X145.78Y-76.44
X147.024Y-84.637
X147.25Y-92.25
X148.19Y-29.69
X148.19Y-32.23
X148.19Y-34.77
X148.19Y-37.31
X148.19Y-39.85
X148.32Y-58.66
X148.32Y-61.2
X148.32Y-63.74
X148.32Y-66.28
X148.32Y-68.82
X148.32Y-71.36
X148.32Y-73.9
X148.32Y-76.44
X149.02Y-82.793
X149.75Y-52.5
X154.75Y-52.75
X155.48Y-29.67
X155.48Y-32.21
X155.48Y-34.75
X155.48Y-37.29
X155.48Y-39.83
X155.78Y-58.66
X155.78Y-61.2
X155.78Y-63.74
X155.78Y-66.28
X155.78Y-68.82
X155.78Y-71.36
X155.78Y-73.9
X155.78Y-76.44
X158.02Y-29.67
X158.02Y-32.21
X158.02Y-34.75
X158.02Y-37.29
X158.02Y-39.83
X158.32Y-58.66
X158.32Y-61.2
X158.32Y-63.74
X158.32Y-66.28
X158.32Y-68.82
X158.32Y-71.36
X158.32Y-73.9
X158.32Y-76.44
T7
X46.91Y-33.4
X46.91Y-84.2
X49.45Y-33.4
X49.45Y-84.2
X51.99Y-33.4
X51.99Y-84.2
X54.53Y-33.4
X54.53Y-84.2
X57.07Y-33.4
X57.07Y-84.2
X59.61Y-33.4
X59.61Y-84.2
X62.15Y-33.4
X62.15Y-84.2
X64.69Y-33.4
X64.69Y-84.2
X67.23Y-33.4
X67.23Y-84.2
X69.77Y-33.4
X69.77Y-84.2
X72.31Y-33.4
X72.31Y-84.2
X74.85Y-33.4
X74.85Y-84.2
X77.39Y-33.4
X77.39Y-84.2
X79.93Y-33.4
X79.93Y-84.2
X82.47Y-33.4
X82.47Y-84.2
X85.01Y-33.4
X85.01Y-84.2
X87.55Y-33.4
X87.55Y-84.2
X90.09Y-33.4
X90.09Y-84.2
X92.63Y-33.4
X92.63Y-84.2
X95.17Y-33.4
X95.17Y-84.2
X97.71Y-33.4
X97.71Y-84.2
X100.25Y-33.4
X100.25Y-84.2
X102.79Y-33.4
X102.79Y-84.2
X105.33Y-33.4
X105.33Y-84.2
X107.87Y-30.86
X107.87Y-33.4
X107.87Y-81.66
X107.87Y-84.2
X135.81Y-30.86
X135.81Y-84.2
X138.35Y-30.86
X138.35Y-84.2
T8
X56.46Y-92.75
X56.46Y-97.5
X56.785Y-88.5
X59.Y-92.75
X59.Y-97.5
X68.215Y-88.5
X84.535Y-77.75
X95.785Y-89.
X95.965Y-77.75
X107.215Y-89.
X111.605Y-89.28
X123.035Y-89.28
X126.845Y-89.28
X128.115Y-51.18
X128.115Y-54.99
X138.275Y-89.28
X139.545Y-51.18
X139.545Y-54.99
X143.25Y-17.46
X143.25Y-20.
X144.Y-83.87
X144.Y-86.41
X144.Y-88.95
T9
X144.351Y-46.85
X146.851Y-51.849
X149.35Y-46.85
X154.251Y-46.651
X156.75Y-51.65
X159.249Y-46.651
T10
X49.Y-18.75
X49.Y-96.
X158.Y-97.25
X158.05Y-18.65
T0
M30
