G04 #@! TF.GenerationSoftware,KiCad,Pcbnew,(7.0.0)*
G04 #@! TF.CreationDate,2023-06-04T18:46:28+02:00*
G04 #@! TF.ProjectId,Pot,506f742e-6b69-4636-9164-5f7063625858,rev?*
G04 #@! TF.SameCoordinates,Original*
G04 #@! TF.FileFunction,Copper,L2,Bot*
G04 #@! TF.FilePolarity,Positive*
%FSLAX46Y46*%
G04 Gerber Fmt 4.6, Leading zero omitted, Abs format (unit mm)*
G04 Created by KiCad (PCBNEW (7.0.0)) date 2023-06-04 18:46:28*
%MOMM*%
%LPD*%
G01*
G04 APERTURE LIST*
G04 Aperture macros list*
%AMRoundRect*
0 Rectangle with rounded corners*
0 $1 Rounding radius*
0 $2 $3 $4 $5 $6 $7 $8 $9 X,Y pos of 4 corners*
0 Add a 4 corners polygon primitive as box body*
4,1,4,$2,$3,$4,$5,$6,$7,$8,$9,$2,$3,0*
0 Add four circle primitives for the rounded corners*
1,1,$1+$1,$2,$3*
1,1,$1+$1,$4,$5*
1,1,$1+$1,$6,$7*
1,1,$1+$1,$8,$9*
0 Add four rect primitives between the rounded corners*
20,1,$1+$1,$2,$3,$4,$5,0*
20,1,$1+$1,$4,$5,$6,$7,0*
20,1,$1+$1,$6,$7,$8,$9,0*
20,1,$1+$1,$8,$9,$2,$3,0*%
G04 Aperture macros list end*
G04 #@! TA.AperFunction,ComponentPad*
%ADD10O,1.500000X2.000000*%
G04 #@! TD*
G04 #@! TA.AperFunction,ComponentPad*
%ADD11O,3.600000X3.300000*%
G04 #@! TD*
G04 #@! TA.AperFunction,ComponentPad*
%ADD12RoundRect,0.250000X-0.600000X0.600000X-0.600000X-0.600000X0.600000X-0.600000X0.600000X0.600000X0*%
G04 #@! TD*
G04 #@! TA.AperFunction,ComponentPad*
%ADD13C,1.700000*%
G04 #@! TD*
G04 #@! TA.AperFunction,Conductor*
%ADD14C,1.000000*%
G04 #@! TD*
G04 APERTURE END LIST*
D10*
X146999999Y-80751135D03*
X149493385Y-80753306D03*
X151999999Y-80746691D03*
D11*
X144599999Y-73499999D03*
X154399999Y-73499999D03*
D10*
X121999999Y-80751135D03*
X124493385Y-80753306D03*
X126999999Y-80746691D03*
D11*
X119599999Y-73499999D03*
X129399999Y-73499999D03*
D10*
X121999999Y-105687981D03*
X124493385Y-105690152D03*
X126999999Y-105683537D03*
D11*
X119599999Y-98436845D03*
X129399999Y-98436845D03*
D10*
X96999999Y-80751135D03*
X99493385Y-80753306D03*
X101999999Y-80746691D03*
D11*
X94599999Y-73499999D03*
X104399999Y-73499999D03*
D10*
X96999999Y-105751135D03*
X99493385Y-105753306D03*
X101999999Y-105746691D03*
D11*
X94599999Y-98499999D03*
X104399999Y-98499999D03*
D10*
X71999999Y-80687981D03*
X74493385Y-80690152D03*
X76999999Y-80683537D03*
D11*
X69599999Y-73436845D03*
X79399999Y-73436845D03*
D10*
X71999999Y-105687981D03*
X74493385Y-105690152D03*
X76999999Y-105683537D03*
D11*
X69599999Y-98436845D03*
X79399999Y-98436845D03*
D10*
X146999999Y-105687981D03*
X149493385Y-105690152D03*
X151999999Y-105683537D03*
D11*
X144599999Y-98436845D03*
X154399999Y-98436845D03*
D12*
X107414000Y-85946000D03*
D13*
X107414000Y-88486000D03*
X109954000Y-85946000D03*
X109954000Y-88486000D03*
X112494000Y-85946000D03*
X112494000Y-88486000D03*
X115034000Y-85946000D03*
X115034000Y-88486000D03*
X117574000Y-85946000D03*
X117574000Y-88486000D03*
D14*
X109954000Y-85454000D02*
X107500000Y-83000000D01*
X107500000Y-83000000D02*
X75000000Y-83000000D01*
X74500000Y-82500000D02*
X74500000Y-80375000D01*
X109954000Y-85946000D02*
X109954000Y-85454000D01*
X75000000Y-83000000D02*
X74500000Y-82500000D01*
X74500000Y-105375000D02*
X74500000Y-97500000D01*
X107500000Y-92000000D02*
X109954000Y-89546000D01*
X80000000Y-92000000D02*
X107500000Y-92000000D01*
X109954000Y-89546000D02*
X109954000Y-88486000D01*
X74500000Y-97500000D02*
X80000000Y-92000000D01*
X99500000Y-79585787D02*
X100460787Y-78625000D01*
X100460787Y-78625000D02*
X106125000Y-78625000D01*
X106125000Y-78625000D02*
X112494000Y-84994000D01*
X112494000Y-84994000D02*
X112494000Y-85946000D01*
X99500000Y-80375000D02*
X99500000Y-79585787D01*
X99500000Y-106000000D02*
X99500000Y-98000000D01*
X103500000Y-94000000D02*
X108000000Y-94000000D01*
X99500000Y-98000000D02*
X103500000Y-94000000D01*
X108000000Y-94000000D02*
X112494000Y-89506000D01*
X112494000Y-89506000D02*
X112494000Y-88486000D01*
X122818213Y-84096000D02*
X116807704Y-84096000D01*
X124500000Y-82414213D02*
X122818213Y-84096000D01*
X116807704Y-84096000D02*
X115034000Y-85869704D01*
X124500000Y-80375000D02*
X124500000Y-82414213D01*
X115034000Y-85869704D02*
X115034000Y-85946000D01*
X124500000Y-105352500D02*
X124500000Y-94500000D01*
X120336000Y-90336000D02*
X116807704Y-90336000D01*
X116807704Y-90336000D02*
X115034000Y-88562296D01*
X124500000Y-94500000D02*
X120336000Y-90336000D01*
X115034000Y-88562296D02*
X115034000Y-88486000D01*
X149500000Y-82414213D02*
X145968213Y-85946000D01*
X149500000Y-80375000D02*
X149500000Y-82414213D01*
X145968213Y-85946000D02*
X117574000Y-85946000D01*
X149500000Y-98427000D02*
X139559000Y-88486000D01*
X149500000Y-105375000D02*
X149500000Y-98427000D01*
X139559000Y-88486000D02*
X117574000Y-88486000D01*
G04 #@! TA.AperFunction,Conductor*
G36*
X153937000Y-61516881D02*
G01*
X153983119Y-61563000D01*
X154000000Y-61626000D01*
X154000000Y-69000000D01*
X161374000Y-69000000D01*
X161437000Y-69016881D01*
X161483119Y-69063000D01*
X161500000Y-69126000D01*
X161500000Y-102874000D01*
X161483119Y-102937000D01*
X161437000Y-102983119D01*
X161374000Y-103000000D01*
X154000000Y-103000000D01*
X154000000Y-103016590D01*
X154000000Y-105329964D01*
X153983896Y-105391599D01*
X153939701Y-105437479D01*
X153878711Y-105455876D01*
X153816517Y-105442088D01*
X153769017Y-105399639D01*
X153748352Y-105339380D01*
X153740887Y-105239767D01*
X153735802Y-105171908D01*
X153677420Y-104916122D01*
X153581568Y-104671895D01*
X153450386Y-104444681D01*
X153286805Y-104239557D01*
X153249905Y-104205319D01*
X153097934Y-104064310D01*
X153097928Y-104064305D01*
X153094479Y-104061105D01*
X153090586Y-104058450D01*
X153090580Y-104058446D01*
X152881600Y-103915966D01*
X152881597Y-103915964D01*
X152877704Y-103913310D01*
X152714240Y-103834590D01*
X152645572Y-103801521D01*
X152645569Y-103801520D01*
X152641323Y-103799475D01*
X152636825Y-103798087D01*
X152636816Y-103798084D01*
X152395121Y-103723532D01*
X152395122Y-103723532D01*
X152390615Y-103722142D01*
X152385962Y-103721440D01*
X152385955Y-103721439D01*
X152135842Y-103683740D01*
X152135836Y-103683739D01*
X152131182Y-103683038D01*
X151868818Y-103683038D01*
X151864164Y-103683739D01*
X151864157Y-103683740D01*
X151614044Y-103721439D01*
X151614034Y-103721441D01*
X151609385Y-103722142D01*
X151604880Y-103723531D01*
X151604878Y-103723532D01*
X151363183Y-103798084D01*
X151363170Y-103798089D01*
X151358677Y-103799475D01*
X151354434Y-103801517D01*
X151354427Y-103801521D01*
X151181169Y-103884958D01*
X151119435Y-103897238D01*
X151059464Y-103878123D01*
X151016222Y-103832385D01*
X151000500Y-103771436D01*
X151000500Y-98527983D01*
X151001081Y-98518623D01*
X151595722Y-98518623D01*
X151596079Y-98522483D01*
X151596080Y-98522492D01*
X151610094Y-98673719D01*
X151625890Y-98844183D01*
X151695836Y-99163568D01*
X151804501Y-99471937D01*
X151950237Y-99764615D01*
X151952377Y-99767844D01*
X151952379Y-99767848D01*
X152042380Y-99903672D01*
X152130836Y-100037165D01*
X152343558Y-100285455D01*
X152585181Y-100505723D01*
X152588336Y-100507956D01*
X152588343Y-100507962D01*
X152727311Y-100606335D01*
X152852040Y-100694629D01*
X153140091Y-100849309D01*
X153143709Y-100850710D01*
X153143712Y-100850712D01*
X153298373Y-100910628D01*
X153444967Y-100967419D01*
X153762046Y-101047167D01*
X154086523Y-101087346D01*
X154629732Y-101087346D01*
X154631665Y-101087346D01*
X154876334Y-101072255D01*
X155197722Y-101012178D01*
X155509291Y-100913061D01*
X155806317Y-100776406D01*
X156084300Y-100604287D01*
X156339024Y-100399312D01*
X156566628Y-100164587D01*
X156763662Y-99903672D01*
X156927139Y-99620521D01*
X157054581Y-99319426D01*
X157144057Y-99004953D01*
X157194209Y-98681868D01*
X157204278Y-98355069D01*
X157174110Y-98029509D01*
X157104164Y-97710124D01*
X156995499Y-97401755D01*
X156849763Y-97109077D01*
X156669164Y-96836527D01*
X156456442Y-96588237D01*
X156214819Y-96367969D01*
X156211665Y-96365736D01*
X156211656Y-96365729D01*
X155951122Y-96181301D01*
X155951118Y-96181298D01*
X155947960Y-96179063D01*
X155913280Y-96160440D01*
X155663325Y-96026217D01*
X155663320Y-96026214D01*
X155659909Y-96024383D01*
X155656298Y-96022984D01*
X155656287Y-96022979D01*
X155358656Y-95907676D01*
X155358647Y-95907673D01*
X155355033Y-95906273D01*
X155351275Y-95905327D01*
X155351263Y-95905324D01*
X155041724Y-95827473D01*
X155041721Y-95827472D01*
X155037954Y-95826525D01*
X155034109Y-95826048D01*
X155034099Y-95826047D01*
X154717329Y-95786823D01*
X154713477Y-95786346D01*
X154168335Y-95786346D01*
X154166438Y-95786462D01*
X154166405Y-95786464D01*
X153927533Y-95801198D01*
X153927525Y-95801198D01*
X153923666Y-95801437D01*
X153919869Y-95802146D01*
X153919859Y-95802148D01*
X153606082Y-95860802D01*
X153606067Y-95860805D01*
X153602278Y-95861514D01*
X153598597Y-95862684D01*
X153598589Y-95862687D01*
X153294403Y-95959455D01*
X153294390Y-95959459D01*
X153290709Y-95960631D01*
X153287196Y-95962246D01*
X153287181Y-95962253D01*
X152997225Y-96095656D01*
X152997219Y-96095658D01*
X152993683Y-96097286D01*
X152990381Y-96099330D01*
X152990367Y-96099338D01*
X152719008Y-96267356D01*
X152718999Y-96267362D01*
X152715700Y-96269405D01*
X152712679Y-96271835D01*
X152712669Y-96271843D01*
X152463999Y-96471947D01*
X152463995Y-96471950D01*
X152460976Y-96474380D01*
X152458289Y-96477151D01*
X152458277Y-96477162D01*
X152236067Y-96706324D01*
X152236054Y-96706338D01*
X152233372Y-96709105D01*
X152231044Y-96712186D01*
X152231036Y-96712197D01*
X152038679Y-96966919D01*
X152038673Y-96966927D01*
X152036338Y-96970020D01*
X152034396Y-96973382D01*
X152034395Y-96973385D01*
X151874802Y-97249807D01*
X151874794Y-97249822D01*
X151872861Y-97253171D01*
X151871352Y-97256734D01*
X151871347Y-97256746D01*
X151746932Y-97550690D01*
X151746929Y-97550698D01*
X151745419Y-97554266D01*
X151744361Y-97557981D01*
X151744356Y-97557998D01*
X151657005Y-97865003D01*
X151657001Y-97865018D01*
X151655943Y-97868739D01*
X151655347Y-97872573D01*
X151655347Y-97872577D01*
X151606386Y-98187984D01*
X151606384Y-98188001D01*
X151605791Y-98191824D01*
X151605671Y-98195705D01*
X151605671Y-98195710D01*
X151595841Y-98514741D01*
X151595841Y-98514750D01*
X151595722Y-98518623D01*
X151001081Y-98518623D01*
X151001468Y-98512397D01*
X151003712Y-98494392D01*
X151004357Y-98489221D01*
X151000608Y-98398576D01*
X151000500Y-98393369D01*
X151000500Y-98367539D01*
X151000500Y-98364933D01*
X150998150Y-98336585D01*
X150997829Y-98331406D01*
X150995213Y-98268149D01*
X150994081Y-98240763D01*
X150989287Y-98217905D01*
X150987036Y-98202450D01*
X150985538Y-98184371D01*
X150985108Y-98179179D01*
X150962826Y-98091192D01*
X150961662Y-98086157D01*
X150957727Y-98067392D01*
X150943049Y-97997386D01*
X150934562Y-97975636D01*
X150929797Y-97960763D01*
X150925342Y-97943169D01*
X150925341Y-97943166D01*
X150924063Y-97938119D01*
X150887621Y-97855040D01*
X150885638Y-97850253D01*
X150859492Y-97783247D01*
X150852656Y-97765726D01*
X150840699Y-97745660D01*
X150833549Y-97731770D01*
X150824173Y-97710393D01*
X150774572Y-97634472D01*
X150771814Y-97630055D01*
X150728029Y-97556575D01*
X150728028Y-97556574D01*
X150725366Y-97552106D01*
X150710266Y-97534278D01*
X150700938Y-97521767D01*
X150691016Y-97506579D01*
X150691010Y-97506571D01*
X150688164Y-97502215D01*
X150650627Y-97461439D01*
X150626724Y-97435473D01*
X150623278Y-97431570D01*
X150606591Y-97411868D01*
X150606588Y-97411865D01*
X150604902Y-97409874D01*
X150584793Y-97389765D01*
X150581187Y-97386007D01*
X150519744Y-97319262D01*
X150501302Y-97304908D01*
X150489606Y-97294578D01*
X140856623Y-87661595D01*
X140825885Y-87611436D01*
X140821269Y-87552789D01*
X140843782Y-87498439D01*
X140888515Y-87460233D01*
X140945718Y-87446500D01*
X145867230Y-87446500D01*
X145882814Y-87447467D01*
X145905992Y-87450357D01*
X145996636Y-87446608D01*
X146001844Y-87446500D01*
X146027675Y-87446500D01*
X146030280Y-87446500D01*
X146058623Y-87444150D01*
X146063791Y-87443829D01*
X146154450Y-87440081D01*
X146177314Y-87435286D01*
X146192759Y-87433036D01*
X146216034Y-87431108D01*
X146304031Y-87408823D01*
X146308976Y-87407679D01*
X146397827Y-87389049D01*
X146419581Y-87380559D01*
X146434445Y-87375797D01*
X146457094Y-87370063D01*
X146540192Y-87333612D01*
X146544944Y-87331643D01*
X146629487Y-87298656D01*
X146649547Y-87286701D01*
X146663440Y-87279551D01*
X146680041Y-87272269D01*
X146680039Y-87272269D01*
X146684820Y-87270173D01*
X146689185Y-87267321D01*
X146689189Y-87267319D01*
X146760760Y-87220559D01*
X146765180Y-87217800D01*
X146843107Y-87171366D01*
X146860933Y-87156267D01*
X146873438Y-87146942D01*
X146892998Y-87134164D01*
X146959760Y-87072703D01*
X146963600Y-87069312D01*
X146985339Y-87050902D01*
X147005480Y-87030759D01*
X147009164Y-87027224D01*
X147075951Y-86965744D01*
X147090308Y-86947297D01*
X147100628Y-86935611D01*
X150489611Y-83546628D01*
X150501297Y-83536308D01*
X150519744Y-83521951D01*
X150581224Y-83455164D01*
X150584759Y-83451480D01*
X150604902Y-83431339D01*
X150623312Y-83409600D01*
X150626703Y-83405760D01*
X150688164Y-83338998D01*
X150700942Y-83319438D01*
X150710267Y-83306933D01*
X150725366Y-83289107D01*
X150771801Y-83211176D01*
X150774559Y-83206760D01*
X150821319Y-83135189D01*
X150821321Y-83135185D01*
X150824173Y-83130820D01*
X150827613Y-83122976D01*
X150833551Y-83109440D01*
X150840702Y-83095547D01*
X150849988Y-83079964D01*
X150852656Y-83075487D01*
X150885643Y-82990944D01*
X150887612Y-82986192D01*
X150924063Y-82903094D01*
X150929797Y-82880445D01*
X150934562Y-82865575D01*
X150941152Y-82848688D01*
X150943049Y-82843827D01*
X150961679Y-82754976D01*
X150962823Y-82750031D01*
X150985108Y-82662034D01*
X150986801Y-82641591D01*
X151006078Y-82584330D01*
X151049798Y-82542626D01*
X151107905Y-82526069D01*
X151167040Y-82538468D01*
X151221456Y-82564673D01*
X151358677Y-82630755D01*
X151609385Y-82708088D01*
X151868818Y-82747192D01*
X152126466Y-82747192D01*
X152131182Y-82747192D01*
X152390615Y-82708088D01*
X152641323Y-82630755D01*
X152877704Y-82516920D01*
X153094479Y-82369125D01*
X153286805Y-82190673D01*
X153450386Y-81985549D01*
X153581568Y-81758335D01*
X153677420Y-81514108D01*
X153735802Y-81258322D01*
X153750500Y-81062186D01*
X153750500Y-80431198D01*
X153735802Y-80235062D01*
X153677420Y-79979276D01*
X153581568Y-79735049D01*
X153450386Y-79507835D01*
X153286805Y-79302711D01*
X153229835Y-79249851D01*
X153097934Y-79127464D01*
X153097928Y-79127459D01*
X153094479Y-79124259D01*
X153090586Y-79121604D01*
X153090580Y-79121600D01*
X152881600Y-78979120D01*
X152881597Y-78979118D01*
X152877704Y-78976464D01*
X152699341Y-78890569D01*
X152645572Y-78864675D01*
X152645569Y-78864674D01*
X152641323Y-78862629D01*
X152636825Y-78861241D01*
X152636816Y-78861238D01*
X152395121Y-78786686D01*
X152395122Y-78786686D01*
X152390615Y-78785296D01*
X152385962Y-78784594D01*
X152385955Y-78784593D01*
X152135842Y-78746894D01*
X152135836Y-78746893D01*
X152131182Y-78746192D01*
X151868818Y-78746192D01*
X151864164Y-78746893D01*
X151864157Y-78746894D01*
X151614044Y-78784593D01*
X151614034Y-78784595D01*
X151609385Y-78785296D01*
X151604880Y-78786685D01*
X151604878Y-78786686D01*
X151363183Y-78861238D01*
X151363170Y-78861243D01*
X151358677Y-78862629D01*
X151354434Y-78864671D01*
X151354427Y-78864675D01*
X151126544Y-78974418D01*
X151126541Y-78974419D01*
X151122296Y-78976464D01*
X151118407Y-78979114D01*
X151118399Y-78979120D01*
X150909416Y-79121603D01*
X150909412Y-79121605D01*
X150905521Y-79124259D01*
X150828830Y-79195417D01*
X150828829Y-79195418D01*
X150774219Y-79225156D01*
X150712037Y-79225156D01*
X150657427Y-79195417D01*
X150591320Y-79134080D01*
X150591319Y-79134079D01*
X150587865Y-79130874D01*
X150371090Y-78983079D01*
X150226213Y-78913310D01*
X150138958Y-78871290D01*
X150138955Y-78871289D01*
X150134709Y-78869244D01*
X150130211Y-78867856D01*
X150130202Y-78867853D01*
X149888507Y-78793301D01*
X149888508Y-78793301D01*
X149884001Y-78791911D01*
X149879348Y-78791209D01*
X149879341Y-78791208D01*
X149629228Y-78753509D01*
X149629222Y-78753508D01*
X149624568Y-78752807D01*
X149362204Y-78752807D01*
X149357550Y-78753508D01*
X149357543Y-78753509D01*
X149107430Y-78791208D01*
X149107420Y-78791210D01*
X149102771Y-78791911D01*
X149098266Y-78793300D01*
X149098264Y-78793301D01*
X148856569Y-78867853D01*
X148856556Y-78867858D01*
X148852063Y-78869244D01*
X148847820Y-78871286D01*
X148847813Y-78871290D01*
X148619930Y-78981033D01*
X148619927Y-78981034D01*
X148615682Y-78983079D01*
X148611793Y-78985729D01*
X148611785Y-78985735D01*
X148402805Y-79128215D01*
X148402793Y-79128224D01*
X148398907Y-79130874D01*
X148395463Y-79134068D01*
X148395451Y-79134079D01*
X148210030Y-79306125D01*
X148210024Y-79306130D01*
X148206581Y-79309326D01*
X148203653Y-79312996D01*
X148203646Y-79313005D01*
X148045935Y-79510769D01*
X148045932Y-79510773D01*
X148043000Y-79514450D01*
X148040651Y-79518516D01*
X148040641Y-79518533D01*
X148032663Y-79532352D01*
X147994132Y-79573720D01*
X147941391Y-79594077D01*
X147885058Y-79589324D01*
X147836473Y-79560419D01*
X147791609Y-79517525D01*
X147782799Y-79510499D01*
X147603262Y-79391989D01*
X147593326Y-79386642D01*
X147395523Y-79302097D01*
X147384796Y-79298611D01*
X147267840Y-79271917D01*
X147256520Y-79271917D01*
X147254000Y-79282956D01*
X147254000Y-82218191D01*
X147257946Y-82231700D01*
X147274052Y-82234128D01*
X147336564Y-82262452D01*
X147374959Y-82319337D01*
X147377845Y-82387906D01*
X147344367Y-82447816D01*
X145383590Y-84408595D01*
X145342713Y-84435909D01*
X145294495Y-84445500D01*
X124894932Y-84445500D01*
X124837729Y-84431767D01*
X124792996Y-84393561D01*
X124770483Y-84339211D01*
X124775099Y-84280564D01*
X124805836Y-84230405D01*
X124970858Y-84065383D01*
X125489614Y-83546625D01*
X125501314Y-83536295D01*
X125519744Y-83521951D01*
X125581224Y-83455164D01*
X125584759Y-83451480D01*
X125604902Y-83431339D01*
X125623312Y-83409600D01*
X125626703Y-83405760D01*
X125688164Y-83338998D01*
X125700942Y-83319438D01*
X125710267Y-83306933D01*
X125725366Y-83289107D01*
X125771801Y-83211176D01*
X125774559Y-83206760D01*
X125821319Y-83135189D01*
X125821321Y-83135185D01*
X125824173Y-83130820D01*
X125827613Y-83122976D01*
X125833551Y-83109440D01*
X125840702Y-83095547D01*
X125849988Y-83079964D01*
X125852656Y-83075487D01*
X125885643Y-82990944D01*
X125887612Y-82986192D01*
X125924063Y-82903094D01*
X125929797Y-82880445D01*
X125934562Y-82865575D01*
X125941152Y-82848688D01*
X125943049Y-82843827D01*
X125961679Y-82754976D01*
X125962823Y-82750031D01*
X125985108Y-82662034D01*
X125986801Y-82641591D01*
X126006078Y-82584330D01*
X126049798Y-82542626D01*
X126107905Y-82526069D01*
X126167040Y-82538468D01*
X126221456Y-82564673D01*
X126358677Y-82630755D01*
X126609385Y-82708088D01*
X126868818Y-82747192D01*
X127126466Y-82747192D01*
X127131182Y-82747192D01*
X127390615Y-82708088D01*
X127641323Y-82630755D01*
X127877704Y-82516920D01*
X128094479Y-82369125D01*
X128286805Y-82190673D01*
X128450386Y-81985549D01*
X128581568Y-81758335D01*
X128677420Y-81514108D01*
X128735802Y-81258322D01*
X128750500Y-81062186D01*
X128750500Y-81054814D01*
X145742000Y-81054814D01*
X145742252Y-81060444D01*
X145756705Y-81221031D01*
X145758719Y-81232127D01*
X145815949Y-81439491D01*
X145819913Y-81450055D01*
X145913248Y-81643868D01*
X145919034Y-81653552D01*
X146045481Y-81827592D01*
X146052895Y-81836078D01*
X146208390Y-81984746D01*
X146217200Y-81991772D01*
X146396737Y-82110282D01*
X146406673Y-82115629D01*
X146604476Y-82200174D01*
X146615203Y-82203660D01*
X146732160Y-82230355D01*
X146743480Y-82230355D01*
X146746000Y-82219316D01*
X146746000Y-81021726D01*
X146742493Y-81008642D01*
X146729410Y-81005136D01*
X145758590Y-81005136D01*
X145745506Y-81008642D01*
X145742000Y-81021726D01*
X145742000Y-81054814D01*
X128750500Y-81054814D01*
X128750500Y-80480546D01*
X145742000Y-80480546D01*
X145745506Y-80493629D01*
X145758590Y-80497136D01*
X146729410Y-80497136D01*
X146742493Y-80493629D01*
X146746000Y-80480546D01*
X146746000Y-79284081D01*
X146742053Y-79270571D01*
X146728133Y-79268473D01*
X146724539Y-79268960D01*
X146713556Y-79271467D01*
X146508954Y-79337946D01*
X146498596Y-79342373D01*
X146309152Y-79444317D01*
X146299749Y-79450524D01*
X146131550Y-79584659D01*
X146123406Y-79592446D01*
X145981868Y-79754448D01*
X145975239Y-79763572D01*
X145864899Y-79948251D01*
X145860013Y-79958396D01*
X145784420Y-80159813D01*
X145781422Y-80170676D01*
X145743011Y-80382342D01*
X145742000Y-80393576D01*
X145742000Y-80480546D01*
X128750500Y-80480546D01*
X128750500Y-80431198D01*
X128735802Y-80235062D01*
X128677420Y-79979276D01*
X128581568Y-79735049D01*
X128450386Y-79507835D01*
X128286805Y-79302711D01*
X128229835Y-79249851D01*
X128097934Y-79127464D01*
X128097928Y-79127459D01*
X128094479Y-79124259D01*
X128090586Y-79121604D01*
X128090580Y-79121600D01*
X127881600Y-78979120D01*
X127881597Y-78979118D01*
X127877704Y-78976464D01*
X127699341Y-78890569D01*
X127645572Y-78864675D01*
X127645569Y-78864674D01*
X127641323Y-78862629D01*
X127636825Y-78861241D01*
X127636816Y-78861238D01*
X127395121Y-78786686D01*
X127395122Y-78786686D01*
X127390615Y-78785296D01*
X127385962Y-78784594D01*
X127385955Y-78784593D01*
X127135842Y-78746894D01*
X127135836Y-78746893D01*
X127131182Y-78746192D01*
X126868818Y-78746192D01*
X126864164Y-78746893D01*
X126864157Y-78746894D01*
X126614044Y-78784593D01*
X126614034Y-78784595D01*
X126609385Y-78785296D01*
X126604880Y-78786685D01*
X126604878Y-78786686D01*
X126363183Y-78861238D01*
X126363170Y-78861243D01*
X126358677Y-78862629D01*
X126354434Y-78864671D01*
X126354427Y-78864675D01*
X126126544Y-78974418D01*
X126126541Y-78974419D01*
X126122296Y-78976464D01*
X126118407Y-78979114D01*
X126118399Y-78979120D01*
X125909416Y-79121603D01*
X125909412Y-79121605D01*
X125905521Y-79124259D01*
X125828830Y-79195417D01*
X125828829Y-79195418D01*
X125774219Y-79225156D01*
X125712037Y-79225156D01*
X125657427Y-79195417D01*
X125591320Y-79134080D01*
X125591319Y-79134079D01*
X125587865Y-79130874D01*
X125371090Y-78983079D01*
X125226213Y-78913310D01*
X125138958Y-78871290D01*
X125138955Y-78871289D01*
X125134709Y-78869244D01*
X125130211Y-78867856D01*
X125130202Y-78867853D01*
X124888507Y-78793301D01*
X124888508Y-78793301D01*
X124884001Y-78791911D01*
X124879348Y-78791209D01*
X124879341Y-78791208D01*
X124629228Y-78753509D01*
X124629222Y-78753508D01*
X124624568Y-78752807D01*
X124362204Y-78752807D01*
X124357550Y-78753508D01*
X124357543Y-78753509D01*
X124107430Y-78791208D01*
X124107420Y-78791210D01*
X124102771Y-78791911D01*
X124098266Y-78793300D01*
X124098264Y-78793301D01*
X123856569Y-78867853D01*
X123856556Y-78867858D01*
X123852063Y-78869244D01*
X123847820Y-78871286D01*
X123847813Y-78871290D01*
X123619930Y-78981033D01*
X123619927Y-78981034D01*
X123615682Y-78983079D01*
X123611793Y-78985729D01*
X123611785Y-78985735D01*
X123402805Y-79128215D01*
X123402793Y-79128224D01*
X123398907Y-79130874D01*
X123395463Y-79134068D01*
X123395451Y-79134079D01*
X123210030Y-79306125D01*
X123210024Y-79306130D01*
X123206581Y-79309326D01*
X123203653Y-79312996D01*
X123203646Y-79313005D01*
X123045935Y-79510769D01*
X123045932Y-79510773D01*
X123043000Y-79514450D01*
X123040651Y-79518516D01*
X123040641Y-79518533D01*
X123032663Y-79532352D01*
X122994132Y-79573720D01*
X122941391Y-79594077D01*
X122885058Y-79589324D01*
X122836473Y-79560419D01*
X122791609Y-79517525D01*
X122782799Y-79510499D01*
X122603262Y-79391989D01*
X122593326Y-79386642D01*
X122395523Y-79302097D01*
X122384796Y-79298611D01*
X122267840Y-79271917D01*
X122256520Y-79271917D01*
X122254000Y-79282956D01*
X122254000Y-82218191D01*
X122257946Y-82231700D01*
X122274052Y-82234128D01*
X122336564Y-82262452D01*
X122374959Y-82319337D01*
X122377845Y-82387906D01*
X122344368Y-82447816D01*
X122233590Y-82558595D01*
X122192712Y-82585909D01*
X122144494Y-82595500D01*
X116908687Y-82595500D01*
X116893101Y-82594532D01*
X116875096Y-82592287D01*
X116875089Y-82592286D01*
X116869925Y-82591643D01*
X116864722Y-82591858D01*
X116864718Y-82591858D01*
X116779289Y-82595392D01*
X116774082Y-82595500D01*
X116745637Y-82595500D01*
X116743076Y-82595712D01*
X116743055Y-82595713D01*
X116717281Y-82597849D01*
X116712087Y-82598171D01*
X116626674Y-82601704D01*
X116626666Y-82601704D01*
X116621467Y-82601920D01*
X116616372Y-82602988D01*
X116616366Y-82602989D01*
X116598615Y-82606711D01*
X116583170Y-82608961D01*
X116565088Y-82610459D01*
X116565067Y-82610462D01*
X116559883Y-82610892D01*
X116554840Y-82612168D01*
X116554828Y-82612171D01*
X116471920Y-82633166D01*
X116466849Y-82634339D01*
X116383189Y-82651881D01*
X116383179Y-82651883D01*
X116378090Y-82652951D01*
X116373241Y-82654842D01*
X116373224Y-82654848D01*
X116356328Y-82661440D01*
X116341473Y-82666199D01*
X116323884Y-82670654D01*
X116323870Y-82670658D01*
X116318823Y-82671937D01*
X116314063Y-82674024D01*
X116314045Y-82674031D01*
X116235730Y-82708383D01*
X116230922Y-82710375D01*
X116151283Y-82741451D01*
X116151279Y-82741452D01*
X116146430Y-82743345D01*
X116141960Y-82746007D01*
X116141944Y-82746016D01*
X116126354Y-82755305D01*
X116112485Y-82762444D01*
X116095868Y-82769734D01*
X116091097Y-82771827D01*
X116086742Y-82774671D01*
X116086733Y-82774677D01*
X116015151Y-82821443D01*
X116010735Y-82824199D01*
X115937291Y-82867962D01*
X115937275Y-82867973D01*
X115932810Y-82870634D01*
X115928838Y-82873997D01*
X115928835Y-82874000D01*
X115914984Y-82885731D01*
X115902473Y-82895059D01*
X115887284Y-82904982D01*
X115887267Y-82904995D01*
X115882919Y-82907836D01*
X115879094Y-82911357D01*
X115879089Y-82911361D01*
X115816170Y-82969281D01*
X115812272Y-82972723D01*
X115792568Y-82989412D01*
X115792561Y-82989418D01*
X115790578Y-82991098D01*
X115788735Y-82992939D01*
X115788737Y-82992939D01*
X115770477Y-83011198D01*
X115766725Y-83014798D01*
X115703794Y-83072731D01*
X115703787Y-83072737D01*
X115699966Y-83076256D01*
X115696778Y-83080351D01*
X115696763Y-83080368D01*
X115685612Y-83094695D01*
X115675280Y-83106394D01*
X114670946Y-84110728D01*
X114608635Y-84144753D01*
X114515720Y-84164966D01*
X114515716Y-84164966D01*
X114511322Y-84165923D01*
X114507120Y-84167489D01*
X114507107Y-84167494D01*
X114267528Y-84256852D01*
X114267514Y-84256858D01*
X114263311Y-84258426D01*
X114259368Y-84260578D01*
X114259357Y-84260584D01*
X114034938Y-84383127D01*
X114034931Y-84383131D01*
X114030989Y-84385284D01*
X114028755Y-84386955D01*
X113962162Y-84406826D01*
X113894807Y-84388008D01*
X113848105Y-84336440D01*
X113846656Y-84332726D01*
X113842807Y-84326267D01*
X113834699Y-84312660D01*
X113827549Y-84298770D01*
X113818173Y-84277393D01*
X113804753Y-84256852D01*
X113768572Y-84201472D01*
X113765814Y-84197055D01*
X113722029Y-84123575D01*
X113722028Y-84123574D01*
X113719366Y-84119106D01*
X113704266Y-84101278D01*
X113694938Y-84088767D01*
X113685016Y-84073579D01*
X113685010Y-84073571D01*
X113682164Y-84069215D01*
X113636623Y-84019744D01*
X113620724Y-84002473D01*
X113617278Y-83998570D01*
X113600591Y-83978868D01*
X113600588Y-83978865D01*
X113598902Y-83976874D01*
X113578792Y-83956764D01*
X113575187Y-83953007D01*
X113513744Y-83886262D01*
X113495302Y-83871908D01*
X113483606Y-83861578D01*
X110676842Y-81054814D01*
X120742000Y-81054814D01*
X120742252Y-81060444D01*
X120756705Y-81221031D01*
X120758719Y-81232127D01*
X120815949Y-81439491D01*
X120819913Y-81450055D01*
X120913248Y-81643868D01*
X120919034Y-81653552D01*
X121045481Y-81827592D01*
X121052895Y-81836078D01*
X121208390Y-81984746D01*
X121217200Y-81991772D01*
X121396737Y-82110282D01*
X121406673Y-82115629D01*
X121604476Y-82200174D01*
X121615203Y-82203660D01*
X121732160Y-82230355D01*
X121743480Y-82230355D01*
X121746000Y-82219316D01*
X121746000Y-81021726D01*
X121742493Y-81008642D01*
X121729410Y-81005136D01*
X120758590Y-81005136D01*
X120745506Y-81008642D01*
X120742000Y-81021726D01*
X120742000Y-81054814D01*
X110676842Y-81054814D01*
X110102574Y-80480546D01*
X120742000Y-80480546D01*
X120745506Y-80493629D01*
X120758590Y-80497136D01*
X121729410Y-80497136D01*
X121742493Y-80493629D01*
X121746000Y-80480546D01*
X121746000Y-79284081D01*
X121742053Y-79270571D01*
X121728133Y-79268473D01*
X121724539Y-79268960D01*
X121713556Y-79271467D01*
X121508954Y-79337946D01*
X121498596Y-79342373D01*
X121309152Y-79444317D01*
X121299749Y-79450524D01*
X121131550Y-79584659D01*
X121123406Y-79592446D01*
X120981868Y-79754448D01*
X120975239Y-79763572D01*
X120864899Y-79948251D01*
X120860013Y-79958396D01*
X120784420Y-80159813D01*
X120781422Y-80170676D01*
X120743011Y-80382342D01*
X120742000Y-80393576D01*
X120742000Y-80480546D01*
X110102574Y-80480546D01*
X107257425Y-77635397D01*
X107247088Y-77623692D01*
X107235942Y-77609372D01*
X107235938Y-77609368D01*
X107232738Y-77605256D01*
X107165967Y-77543789D01*
X107162233Y-77540205D01*
X107143976Y-77521948D01*
X107142126Y-77520098D01*
X107137156Y-77515889D01*
X107120427Y-77501719D01*
X107116525Y-77498274D01*
X107078327Y-77463111D01*
X107049785Y-77436836D01*
X107045423Y-77433986D01*
X107045419Y-77433983D01*
X107030228Y-77424058D01*
X107017712Y-77414725D01*
X107014215Y-77411764D01*
X106999894Y-77399634D01*
X106921916Y-77353169D01*
X106917543Y-77350438D01*
X106845973Y-77303679D01*
X106845969Y-77303677D01*
X106841607Y-77300827D01*
X106820223Y-77291447D01*
X106806345Y-77284303D01*
X106790749Y-77275010D01*
X106790744Y-77275007D01*
X106786274Y-77272344D01*
X106767664Y-77265082D01*
X106701776Y-77239372D01*
X106696967Y-77237380D01*
X106618651Y-77203029D01*
X106618648Y-77203027D01*
X106613881Y-77200937D01*
X106608842Y-77199661D01*
X106608828Y-77199656D01*
X106591231Y-77195200D01*
X106576371Y-77190440D01*
X106554614Y-77181951D01*
X106549517Y-77180882D01*
X106549513Y-77180881D01*
X106465850Y-77163338D01*
X106460779Y-77162165D01*
X106377868Y-77141169D01*
X106377855Y-77141166D01*
X106372821Y-77139892D01*
X106367639Y-77139462D01*
X106367630Y-77139461D01*
X106349550Y-77137963D01*
X106334107Y-77135713D01*
X106316342Y-77131988D01*
X106316326Y-77131986D01*
X106311237Y-77130919D01*
X106306035Y-77130703D01*
X106306029Y-77130703D01*
X106220606Y-77127170D01*
X106215412Y-77126848D01*
X106189673Y-77124715D01*
X106189651Y-77124714D01*
X106187067Y-77124500D01*
X106184453Y-77124500D01*
X106158631Y-77124500D01*
X106153424Y-77124392D01*
X106067986Y-77120858D01*
X106067981Y-77120858D01*
X106062779Y-77120643D01*
X106057615Y-77121286D01*
X106057607Y-77121287D01*
X106039602Y-77123532D01*
X106024017Y-77124500D01*
X100561770Y-77124500D01*
X100546185Y-77123532D01*
X100528179Y-77121287D01*
X100528172Y-77121286D01*
X100523008Y-77120643D01*
X100517804Y-77120858D01*
X100517800Y-77120858D01*
X100432363Y-77124392D01*
X100427156Y-77124500D01*
X100398720Y-77124500D01*
X100396136Y-77124714D01*
X100396113Y-77124715D01*
X100370376Y-77126848D01*
X100365182Y-77127170D01*
X100279759Y-77130703D01*
X100279752Y-77130703D01*
X100274550Y-77130919D01*
X100269454Y-77131987D01*
X100269441Y-77131989D01*
X100251679Y-77135713D01*
X100236237Y-77137963D01*
X100218160Y-77139461D01*
X100218153Y-77139462D01*
X100212966Y-77139892D01*
X100207925Y-77141168D01*
X100207916Y-77141170D01*
X100125016Y-77162163D01*
X100119945Y-77163336D01*
X100036275Y-77180881D01*
X100036273Y-77180881D01*
X100031173Y-77181951D01*
X100026322Y-77183843D01*
X100026304Y-77183849D01*
X100009411Y-77190440D01*
X99994556Y-77195199D01*
X99976965Y-77199654D01*
X99976945Y-77199660D01*
X99971906Y-77200937D01*
X99967142Y-77203026D01*
X99967129Y-77203031D01*
X99888835Y-77237373D01*
X99884028Y-77239365D01*
X99820807Y-77264034D01*
X99799513Y-77272344D01*
X99795041Y-77275008D01*
X99795034Y-77275012D01*
X99779442Y-77284302D01*
X99765569Y-77291443D01*
X99748952Y-77298732D01*
X99748935Y-77298741D01*
X99744180Y-77300827D01*
X99739823Y-77303673D01*
X99739822Y-77303674D01*
X99668245Y-77350436D01*
X99663830Y-77353192D01*
X99590371Y-77396965D01*
X99590365Y-77396968D01*
X99585893Y-77399634D01*
X99581917Y-77403000D01*
X99581916Y-77403002D01*
X99568067Y-77414731D01*
X99555556Y-77424059D01*
X99540367Y-77433982D01*
X99540350Y-77433995D01*
X99536002Y-77436836D01*
X99532177Y-77440357D01*
X99532172Y-77440361D01*
X99469253Y-77498281D01*
X99465355Y-77501723D01*
X99445651Y-77518412D01*
X99445644Y-77518418D01*
X99443661Y-77520098D01*
X99441818Y-77521939D01*
X99441820Y-77521939D01*
X99423560Y-77540198D01*
X99419808Y-77543798D01*
X99356877Y-77601731D01*
X99356870Y-77601737D01*
X99353049Y-77605256D01*
X99349861Y-77609351D01*
X99349846Y-77609368D01*
X99338695Y-77623695D01*
X99328363Y-77635394D01*
X98510394Y-78453363D01*
X98498695Y-78463695D01*
X98484368Y-78474846D01*
X98484351Y-78474861D01*
X98480256Y-78478049D01*
X98476737Y-78481870D01*
X98476731Y-78481877D01*
X98418798Y-78544808D01*
X98415198Y-78548560D01*
X98395098Y-78568661D01*
X98393418Y-78570644D01*
X98393412Y-78570651D01*
X98376723Y-78590355D01*
X98373281Y-78594253D01*
X98315361Y-78657172D01*
X98315357Y-78657177D01*
X98311836Y-78661002D01*
X98308995Y-78665350D01*
X98308982Y-78665367D01*
X98299059Y-78680556D01*
X98289731Y-78693067D01*
X98274634Y-78710893D01*
X98271968Y-78715365D01*
X98271965Y-78715371D01*
X98228192Y-78788830D01*
X98225436Y-78793245D01*
X98180107Y-78862629D01*
X98175827Y-78869180D01*
X98173741Y-78873935D01*
X98173732Y-78873952D01*
X98166443Y-78890569D01*
X98159302Y-78904442D01*
X98150012Y-78920034D01*
X98150008Y-78920041D01*
X98147344Y-78924513D01*
X98145452Y-78929362D01*
X98114365Y-79009028D01*
X98112373Y-79013835D01*
X98078031Y-79092129D01*
X98078026Y-79092142D01*
X98075937Y-79096906D01*
X98074660Y-79101945D01*
X98074654Y-79101965D01*
X98070199Y-79119556D01*
X98065440Y-79134411D01*
X98058849Y-79151304D01*
X98058843Y-79151322D01*
X98056951Y-79156173D01*
X98055881Y-79161273D01*
X98055881Y-79161275D01*
X98038336Y-79244945D01*
X98037163Y-79250016D01*
X98016170Y-79332916D01*
X98016168Y-79332925D01*
X98014892Y-79337966D01*
X98014462Y-79343153D01*
X98014461Y-79343160D01*
X98012963Y-79361237D01*
X98010713Y-79376679D01*
X98006989Y-79394441D01*
X98006987Y-79394454D01*
X98005919Y-79399550D01*
X98005703Y-79404754D01*
X98005703Y-79404760D01*
X98004590Y-79431675D01*
X97989284Y-79486856D01*
X97951135Y-79529563D01*
X97898025Y-79550976D01*
X97840922Y-79546671D01*
X97796528Y-79520437D01*
X97796036Y-79521055D01*
X97791633Y-79517544D01*
X97791623Y-79517538D01*
X97791609Y-79517524D01*
X97782799Y-79510499D01*
X97603262Y-79391989D01*
X97593326Y-79386642D01*
X97395523Y-79302097D01*
X97384796Y-79298611D01*
X97267840Y-79271917D01*
X97256520Y-79271917D01*
X97254000Y-79282956D01*
X97254000Y-80879136D01*
X97237119Y-80942136D01*
X97191000Y-80988255D01*
X97128000Y-81005136D01*
X95758590Y-81005136D01*
X95745506Y-81008642D01*
X95742000Y-81021726D01*
X95742000Y-81054814D01*
X95742252Y-81060444D01*
X95756705Y-81221031D01*
X95758719Y-81232127D01*
X95788485Y-81339979D01*
X95790741Y-81397387D01*
X95767275Y-81449829D01*
X95722966Y-81486402D01*
X95667026Y-81499500D01*
X78824339Y-81499500D01*
X78769670Y-81487022D01*
X78725828Y-81452060D01*
X78701498Y-81401537D01*
X78701498Y-81345462D01*
X78735802Y-81195168D01*
X78750500Y-80999032D01*
X78750500Y-80480546D01*
X95742000Y-80480546D01*
X95745506Y-80493629D01*
X95758590Y-80497136D01*
X96729410Y-80497136D01*
X96742493Y-80493629D01*
X96746000Y-80480546D01*
X96746000Y-79284081D01*
X96742053Y-79270571D01*
X96728133Y-79268473D01*
X96724539Y-79268960D01*
X96713556Y-79271467D01*
X96508954Y-79337946D01*
X96498596Y-79342373D01*
X96309152Y-79444317D01*
X96299749Y-79450524D01*
X96131550Y-79584659D01*
X96123406Y-79592446D01*
X95981868Y-79754448D01*
X95975239Y-79763572D01*
X95864899Y-79948251D01*
X95860013Y-79958396D01*
X95784420Y-80159813D01*
X95781422Y-80170676D01*
X95743011Y-80382342D01*
X95742000Y-80393576D01*
X95742000Y-80480546D01*
X78750500Y-80480546D01*
X78750500Y-80368044D01*
X78735802Y-80171908D01*
X78677420Y-79916122D01*
X78581568Y-79671895D01*
X78513935Y-79554752D01*
X78452741Y-79448760D01*
X78450386Y-79444681D01*
X78286805Y-79239557D01*
X78239233Y-79195417D01*
X78097934Y-79064310D01*
X78097928Y-79064305D01*
X78094479Y-79061105D01*
X78090586Y-79058450D01*
X78090580Y-79058446D01*
X77881600Y-78915966D01*
X77881597Y-78915964D01*
X77877704Y-78913310D01*
X77659308Y-78808136D01*
X77645572Y-78801521D01*
X77645569Y-78801520D01*
X77641323Y-78799475D01*
X77636825Y-78798087D01*
X77636816Y-78798084D01*
X77395121Y-78723532D01*
X77395122Y-78723532D01*
X77390615Y-78722142D01*
X77385962Y-78721440D01*
X77385955Y-78721439D01*
X77135842Y-78683740D01*
X77135836Y-78683739D01*
X77131182Y-78683038D01*
X76868818Y-78683038D01*
X76864164Y-78683739D01*
X76864157Y-78683740D01*
X76614044Y-78721439D01*
X76614034Y-78721441D01*
X76609385Y-78722142D01*
X76604880Y-78723531D01*
X76604878Y-78723532D01*
X76363183Y-78798084D01*
X76363170Y-78798089D01*
X76358677Y-78799475D01*
X76354434Y-78801517D01*
X76354427Y-78801521D01*
X76126544Y-78911264D01*
X76126541Y-78911265D01*
X76122296Y-78913310D01*
X76118407Y-78915960D01*
X76118399Y-78915966D01*
X75909416Y-79058449D01*
X75909412Y-79058451D01*
X75905521Y-79061105D01*
X75834360Y-79127132D01*
X75828829Y-79132264D01*
X75774219Y-79162002D01*
X75712037Y-79162002D01*
X75657427Y-79132263D01*
X75591320Y-79070926D01*
X75591319Y-79070925D01*
X75587865Y-79067720D01*
X75384932Y-78929362D01*
X75374986Y-78922581D01*
X75374983Y-78922579D01*
X75371090Y-78919925D01*
X75134709Y-78806090D01*
X75130211Y-78804702D01*
X75130202Y-78804699D01*
X74888507Y-78730147D01*
X74888508Y-78730147D01*
X74884001Y-78728757D01*
X74879348Y-78728055D01*
X74879341Y-78728054D01*
X74629228Y-78690355D01*
X74629222Y-78690354D01*
X74624568Y-78689653D01*
X74362204Y-78689653D01*
X74357550Y-78690354D01*
X74357543Y-78690355D01*
X74107430Y-78728054D01*
X74107420Y-78728056D01*
X74102771Y-78728757D01*
X74098266Y-78730146D01*
X74098264Y-78730147D01*
X73856569Y-78804699D01*
X73856556Y-78804704D01*
X73852063Y-78806090D01*
X73847820Y-78808132D01*
X73847813Y-78808136D01*
X73619930Y-78917879D01*
X73619927Y-78917880D01*
X73615682Y-78919925D01*
X73611793Y-78922575D01*
X73611785Y-78922581D01*
X73402805Y-79065061D01*
X73402793Y-79065070D01*
X73398907Y-79067720D01*
X73395463Y-79070914D01*
X73395451Y-79070925D01*
X73210030Y-79242971D01*
X73210024Y-79242976D01*
X73206581Y-79246172D01*
X73203653Y-79249842D01*
X73203646Y-79249851D01*
X73045935Y-79447615D01*
X73045932Y-79447619D01*
X73043000Y-79451296D01*
X73040651Y-79455362D01*
X73040641Y-79455379D01*
X73032663Y-79469198D01*
X72994132Y-79510566D01*
X72941391Y-79530923D01*
X72885058Y-79526170D01*
X72836473Y-79497265D01*
X72791609Y-79454371D01*
X72782799Y-79447345D01*
X72603262Y-79328835D01*
X72593326Y-79323488D01*
X72395523Y-79238943D01*
X72384796Y-79235457D01*
X72267840Y-79208763D01*
X72256520Y-79208763D01*
X72254000Y-79219802D01*
X72254000Y-82155037D01*
X72257946Y-82168546D01*
X72271866Y-82170644D01*
X72275460Y-82170157D01*
X72286443Y-82167650D01*
X72491045Y-82101171D01*
X72501403Y-82096744D01*
X72690847Y-81994800D01*
X72700250Y-81988593D01*
X72794940Y-81913081D01*
X72859392Y-81886384D01*
X72928169Y-81898070D01*
X72980187Y-81944556D01*
X72999500Y-82011592D01*
X72999500Y-82399017D01*
X72998532Y-82414602D01*
X72996287Y-82432607D01*
X72996286Y-82432615D01*
X72995643Y-82437779D01*
X72995858Y-82442981D01*
X72995858Y-82442986D01*
X72999392Y-82528424D01*
X72999500Y-82533631D01*
X72999500Y-82562067D01*
X72999714Y-82564651D01*
X72999715Y-82564673D01*
X73001848Y-82590412D01*
X73002170Y-82595606D01*
X73005703Y-82681029D01*
X73005703Y-82681035D01*
X73005919Y-82686237D01*
X73006986Y-82691326D01*
X73006988Y-82691342D01*
X73010713Y-82709107D01*
X73012963Y-82724550D01*
X73014461Y-82742630D01*
X73014462Y-82742639D01*
X73014892Y-82747821D01*
X73016166Y-82752855D01*
X73016169Y-82752868D01*
X73037165Y-82835779D01*
X73038338Y-82840850D01*
X73053123Y-82911361D01*
X73056951Y-82929614D01*
X73065439Y-82951367D01*
X73070200Y-82966231D01*
X73074656Y-82983828D01*
X73074661Y-82983842D01*
X73075937Y-82988881D01*
X73078027Y-82993648D01*
X73078029Y-82993651D01*
X73112380Y-83071967D01*
X73114372Y-83076776D01*
X73140082Y-83142664D01*
X73147344Y-83161274D01*
X73150007Y-83165744D01*
X73150010Y-83165749D01*
X73159303Y-83181345D01*
X73166447Y-83195223D01*
X73175827Y-83216607D01*
X73178677Y-83220969D01*
X73178679Y-83220973D01*
X73225438Y-83292543D01*
X73228169Y-83296916D01*
X73274634Y-83374894D01*
X73278001Y-83378869D01*
X73289725Y-83392712D01*
X73299058Y-83405228D01*
X73308983Y-83420419D01*
X73308986Y-83420423D01*
X73311836Y-83424785D01*
X73319558Y-83433173D01*
X73373274Y-83491525D01*
X73376719Y-83495427D01*
X73390889Y-83512156D01*
X73395098Y-83517126D01*
X73396947Y-83518975D01*
X73396948Y-83518976D01*
X73415205Y-83537233D01*
X73418789Y-83540967D01*
X73480256Y-83607738D01*
X73484369Y-83610939D01*
X73484372Y-83610942D01*
X73498692Y-83622088D01*
X73510397Y-83632425D01*
X73867578Y-83989606D01*
X73877908Y-84001302D01*
X73892262Y-84019744D01*
X73959007Y-84081187D01*
X73962765Y-84084793D01*
X73982874Y-84104902D01*
X73984865Y-84106588D01*
X73984868Y-84106591D01*
X74004570Y-84123278D01*
X74008473Y-84126724D01*
X74028058Y-84144753D01*
X74075215Y-84188164D01*
X74079571Y-84191010D01*
X74079579Y-84191016D01*
X74094767Y-84200938D01*
X74107278Y-84210266D01*
X74125106Y-84225366D01*
X74184210Y-84260584D01*
X74203040Y-84271804D01*
X74207428Y-84274543D01*
X74283393Y-84324173D01*
X74304775Y-84333552D01*
X74318658Y-84340698D01*
X74338727Y-84352656D01*
X74423265Y-84385642D01*
X74428060Y-84387629D01*
X74511119Y-84424063D01*
X74533755Y-84429794D01*
X74548622Y-84434557D01*
X74570386Y-84443050D01*
X74651803Y-84460121D01*
X74659178Y-84461668D01*
X74664255Y-84462842D01*
X74752179Y-84485108D01*
X74775453Y-84487036D01*
X74790900Y-84489287D01*
X74813763Y-84494081D01*
X74904423Y-84497830D01*
X74909585Y-84498150D01*
X74937933Y-84500500D01*
X74966369Y-84500500D01*
X74971576Y-84500608D01*
X75062221Y-84504357D01*
X75085398Y-84501467D01*
X75100983Y-84500500D01*
X106296602Y-84500500D01*
X106358966Y-84517016D01*
X106404981Y-84562235D01*
X106422583Y-84624301D01*
X106407157Y-84686944D01*
X106362749Y-84733741D01*
X106346908Y-84743511D01*
X106335467Y-84752558D01*
X106220558Y-84867467D01*
X106211511Y-84878908D01*
X106126192Y-85017232D01*
X106120035Y-85030435D01*
X106068767Y-85185153D01*
X106065907Y-85198511D01*
X106056325Y-85292307D01*
X106056000Y-85298698D01*
X106056000Y-85675410D01*
X106059506Y-85688493D01*
X106072590Y-85692000D01*
X107542000Y-85692000D01*
X107605000Y-85708881D01*
X107651119Y-85755000D01*
X107668000Y-85818000D01*
X107668000Y-86074000D01*
X107651119Y-86137000D01*
X107605000Y-86183119D01*
X107542000Y-86200000D01*
X106072590Y-86200000D01*
X106059506Y-86203506D01*
X106056000Y-86216590D01*
X106056000Y-86593303D01*
X106056325Y-86599692D01*
X106065907Y-86693488D01*
X106068767Y-86706846D01*
X106120035Y-86861564D01*
X106126192Y-86874766D01*
X106181487Y-86964414D01*
X106199530Y-87017147D01*
X106193060Y-87072505D01*
X106163342Y-87119655D01*
X106011913Y-87271085D01*
X106009221Y-87274680D01*
X106009215Y-87274688D01*
X105855983Y-87479382D01*
X105855975Y-87479392D01*
X105853284Y-87482989D01*
X105851128Y-87486936D01*
X105851125Y-87486942D01*
X105728584Y-87711357D01*
X105728578Y-87711368D01*
X105726426Y-87715311D01*
X105724858Y-87719514D01*
X105724852Y-87719528D01*
X105635496Y-87959103D01*
X105635493Y-87959110D01*
X105633923Y-87963322D01*
X105632967Y-87967712D01*
X105632966Y-87967719D01*
X105578612Y-88217580D01*
X105578610Y-88217591D01*
X105577657Y-88221974D01*
X105558773Y-88486000D01*
X105577657Y-88750026D01*
X105578610Y-88754410D01*
X105578612Y-88754419D01*
X105632966Y-89004280D01*
X105633923Y-89008678D01*
X105635495Y-89012893D01*
X105635496Y-89012896D01*
X105724852Y-89252471D01*
X105724856Y-89252480D01*
X105726426Y-89256689D01*
X105728581Y-89260636D01*
X105728584Y-89260642D01*
X105838758Y-89462410D01*
X105853284Y-89489011D01*
X106011913Y-89700915D01*
X106199085Y-89888087D01*
X106410989Y-90046716D01*
X106643311Y-90173574D01*
X106647526Y-90175146D01*
X106647528Y-90175147D01*
X106862814Y-90255444D01*
X106918562Y-90296558D01*
X106944153Y-90360926D01*
X106931854Y-90429094D01*
X106885382Y-90480460D01*
X106818782Y-90499500D01*
X80100983Y-90499500D01*
X80085398Y-90498532D01*
X80067392Y-90496287D01*
X80067385Y-90496286D01*
X80062221Y-90495643D01*
X80057017Y-90495858D01*
X80057013Y-90495858D01*
X79971576Y-90499392D01*
X79966369Y-90499500D01*
X79937933Y-90499500D01*
X79935349Y-90499714D01*
X79935326Y-90499715D01*
X79909589Y-90501848D01*
X79904395Y-90502170D01*
X79818973Y-90505703D01*
X79818967Y-90505703D01*
X79813763Y-90505919D01*
X79808665Y-90506987D01*
X79808655Y-90506989D01*
X79790893Y-90510713D01*
X79775450Y-90512963D01*
X79757373Y-90514461D01*
X79757367Y-90514461D01*
X79752179Y-90514892D01*
X79747132Y-90516169D01*
X79747126Y-90516171D01*
X79664242Y-90537159D01*
X79659172Y-90538332D01*
X79575485Y-90555880D01*
X79575476Y-90555882D01*
X79570386Y-90556950D01*
X79565538Y-90558841D01*
X79565530Y-90558844D01*
X79548617Y-90565443D01*
X79533759Y-90570203D01*
X79516168Y-90574658D01*
X79516163Y-90574659D01*
X79511119Y-90575937D01*
X79506352Y-90578027D01*
X79506343Y-90578031D01*
X79428042Y-90612376D01*
X79423234Y-90614368D01*
X79343577Y-90645451D01*
X79343572Y-90645453D01*
X79338727Y-90647344D01*
X79334254Y-90650008D01*
X79334250Y-90650011D01*
X79318657Y-90659301D01*
X79304794Y-90666437D01*
X79288169Y-90673731D01*
X79288160Y-90673735D01*
X79283393Y-90675827D01*
X79279033Y-90678674D01*
X79279030Y-90678677D01*
X79207444Y-90725445D01*
X79203029Y-90728201D01*
X79152220Y-90758476D01*
X79125106Y-90774634D01*
X79121135Y-90777996D01*
X79121128Y-90778002D01*
X79107280Y-90789731D01*
X79094769Y-90799059D01*
X79079580Y-90808982D01*
X79079563Y-90808995D01*
X79075215Y-90811836D01*
X79071390Y-90815357D01*
X79071385Y-90815361D01*
X79008469Y-90873279D01*
X79004568Y-90876723D01*
X78984882Y-90893396D01*
X78984853Y-90893421D01*
X78982875Y-90895098D01*
X78981028Y-90896943D01*
X78981030Y-90896943D01*
X78962785Y-90915187D01*
X78959033Y-90918787D01*
X78896090Y-90976731D01*
X78896083Y-90976737D01*
X78892262Y-90980256D01*
X78889071Y-90984355D01*
X78889066Y-90984361D01*
X78877906Y-90998699D01*
X78867573Y-91010398D01*
X73510394Y-96367576D01*
X73498695Y-96377908D01*
X73484368Y-96389059D01*
X73484351Y-96389074D01*
X73480256Y-96392262D01*
X73476737Y-96396083D01*
X73476731Y-96396090D01*
X73418798Y-96459021D01*
X73415198Y-96462773D01*
X73395098Y-96482874D01*
X73393418Y-96484857D01*
X73393412Y-96484864D01*
X73376723Y-96504568D01*
X73373281Y-96508466D01*
X73315361Y-96571385D01*
X73315357Y-96571390D01*
X73311836Y-96575215D01*
X73308995Y-96579563D01*
X73308982Y-96579580D01*
X73299059Y-96594769D01*
X73289731Y-96607280D01*
X73274634Y-96625106D01*
X73271968Y-96629578D01*
X73271965Y-96629584D01*
X73228192Y-96703043D01*
X73225436Y-96707458D01*
X73175827Y-96783393D01*
X73173741Y-96788148D01*
X73173732Y-96788165D01*
X73166443Y-96804782D01*
X73159302Y-96818655D01*
X73150012Y-96834247D01*
X73150008Y-96834254D01*
X73147344Y-96838726D01*
X73145452Y-96843575D01*
X73114365Y-96923241D01*
X73112373Y-96928048D01*
X73078031Y-97006342D01*
X73078026Y-97006355D01*
X73075937Y-97011119D01*
X73074660Y-97016158D01*
X73074654Y-97016178D01*
X73070199Y-97033769D01*
X73065440Y-97048624D01*
X73058849Y-97065517D01*
X73058843Y-97065535D01*
X73056951Y-97070386D01*
X73055881Y-97075486D01*
X73055881Y-97075488D01*
X73038336Y-97159158D01*
X73037163Y-97164229D01*
X73016170Y-97247129D01*
X73016168Y-97247138D01*
X73014892Y-97252179D01*
X73014462Y-97257366D01*
X73014461Y-97257373D01*
X73012963Y-97275450D01*
X73010713Y-97290892D01*
X73006989Y-97308654D01*
X73006987Y-97308667D01*
X73005919Y-97313763D01*
X73005703Y-97318965D01*
X73005703Y-97318972D01*
X73002170Y-97404395D01*
X73001848Y-97409589D01*
X72999715Y-97435326D01*
X72999714Y-97435349D01*
X72999500Y-97437933D01*
X72999500Y-97440548D01*
X72999500Y-97466369D01*
X72999392Y-97471576D01*
X72995877Y-97556575D01*
X72995643Y-97562221D01*
X72996286Y-97567385D01*
X72996287Y-97567392D01*
X72998532Y-97585398D01*
X72999500Y-97600983D01*
X72999500Y-104358517D01*
X72980187Y-104425553D01*
X72928169Y-104472039D01*
X72859392Y-104483725D01*
X72794940Y-104457028D01*
X72782793Y-104447341D01*
X72603262Y-104328835D01*
X72593326Y-104323488D01*
X72395523Y-104238943D01*
X72384796Y-104235457D01*
X72267840Y-104208763D01*
X72256520Y-104208763D01*
X72254000Y-104219802D01*
X72254000Y-107155037D01*
X72257946Y-107168546D01*
X72271866Y-107170644D01*
X72275460Y-107170157D01*
X72286443Y-107167650D01*
X72491045Y-107101171D01*
X72501403Y-107096744D01*
X72690847Y-106994800D01*
X72700257Y-106988588D01*
X72844026Y-106873936D01*
X72892256Y-106850151D01*
X72946011Y-106848643D01*
X72995499Y-106869686D01*
X73031704Y-106909444D01*
X73043000Y-106929010D01*
X73090113Y-106988088D01*
X73201305Y-107127519D01*
X73206581Y-107134134D01*
X73229109Y-107155037D01*
X73395451Y-107309380D01*
X73395456Y-107309384D01*
X73398907Y-107312586D01*
X73402801Y-107315241D01*
X73402805Y-107315244D01*
X73495435Y-107378398D01*
X73615682Y-107460381D01*
X73852063Y-107574216D01*
X74102771Y-107651549D01*
X74362204Y-107690653D01*
X74619852Y-107690653D01*
X74624568Y-107690653D01*
X74884001Y-107651549D01*
X75134709Y-107574216D01*
X75371090Y-107460381D01*
X75587865Y-107312586D01*
X75664557Y-107241425D01*
X75719165Y-107211687D01*
X75781348Y-107211687D01*
X75835955Y-107241424D01*
X75905521Y-107305971D01*
X76122296Y-107453766D01*
X76358677Y-107567601D01*
X76609385Y-107644934D01*
X76868818Y-107684038D01*
X77126466Y-107684038D01*
X77131182Y-107684038D01*
X77390615Y-107644934D01*
X77641323Y-107567601D01*
X77877704Y-107453766D01*
X78094479Y-107305971D01*
X78286805Y-107127519D01*
X78450386Y-106922395D01*
X78581568Y-106695181D01*
X78677420Y-106450954D01*
X78735802Y-106195168D01*
X78746320Y-106054814D01*
X95742000Y-106054814D01*
X95742252Y-106060444D01*
X95756705Y-106221031D01*
X95758719Y-106232127D01*
X95815949Y-106439491D01*
X95819913Y-106450055D01*
X95913248Y-106643868D01*
X95919034Y-106653552D01*
X96045481Y-106827592D01*
X96052895Y-106836078D01*
X96208390Y-106984746D01*
X96217200Y-106991772D01*
X96396737Y-107110282D01*
X96406673Y-107115629D01*
X96604476Y-107200174D01*
X96615203Y-107203660D01*
X96732160Y-107230355D01*
X96743480Y-107230355D01*
X96746000Y-107219316D01*
X96746000Y-106021726D01*
X96742493Y-106008642D01*
X96729410Y-106005136D01*
X95758590Y-106005136D01*
X95745506Y-106008642D01*
X95742000Y-106021726D01*
X95742000Y-106054814D01*
X78746320Y-106054814D01*
X78750500Y-105999032D01*
X78750500Y-105480546D01*
X95742000Y-105480546D01*
X95745506Y-105493629D01*
X95758590Y-105497136D01*
X96729410Y-105497136D01*
X96742493Y-105493629D01*
X96746000Y-105480546D01*
X96746000Y-104284081D01*
X96742053Y-104270571D01*
X96728133Y-104268473D01*
X96724539Y-104268960D01*
X96713556Y-104271467D01*
X96508954Y-104337946D01*
X96498596Y-104342373D01*
X96309152Y-104444317D01*
X96299749Y-104450524D01*
X96131550Y-104584659D01*
X96123406Y-104592446D01*
X95981868Y-104754448D01*
X95975239Y-104763572D01*
X95864899Y-104948251D01*
X95860013Y-104958396D01*
X95784420Y-105159813D01*
X95781422Y-105170676D01*
X95743011Y-105382342D01*
X95742000Y-105393576D01*
X95742000Y-105480546D01*
X78750500Y-105480546D01*
X78750500Y-105368044D01*
X78735802Y-105171908D01*
X78677420Y-104916122D01*
X78581568Y-104671895D01*
X78450386Y-104444681D01*
X78286805Y-104239557D01*
X78249905Y-104205319D01*
X78097934Y-104064310D01*
X78097928Y-104064305D01*
X78094479Y-104061105D01*
X78090586Y-104058450D01*
X78090580Y-104058446D01*
X77881600Y-103915966D01*
X77881597Y-103915964D01*
X77877704Y-103913310D01*
X77714240Y-103834590D01*
X77645572Y-103801521D01*
X77645569Y-103801520D01*
X77641323Y-103799475D01*
X77636825Y-103798087D01*
X77636816Y-103798084D01*
X77395121Y-103723532D01*
X77395122Y-103723532D01*
X77390615Y-103722142D01*
X77385962Y-103721440D01*
X77385955Y-103721439D01*
X77135842Y-103683740D01*
X77135836Y-103683739D01*
X77131182Y-103683038D01*
X76868818Y-103683038D01*
X76864164Y-103683739D01*
X76864157Y-103683740D01*
X76614044Y-103721439D01*
X76614034Y-103721441D01*
X76609385Y-103722142D01*
X76604880Y-103723531D01*
X76604878Y-103723532D01*
X76363183Y-103798084D01*
X76363170Y-103798089D01*
X76358677Y-103799475D01*
X76354434Y-103801517D01*
X76354427Y-103801521D01*
X76181169Y-103884958D01*
X76119435Y-103897238D01*
X76059464Y-103878123D01*
X76016222Y-103832385D01*
X76000500Y-103771436D01*
X76000500Y-98173719D01*
X76010091Y-98125501D01*
X76037404Y-98084624D01*
X76096305Y-98025723D01*
X76473017Y-97649009D01*
X76529872Y-97616301D01*
X76595469Y-97616603D01*
X76652023Y-97649838D01*
X76684208Y-97706997D01*
X76683299Y-97772587D01*
X76657007Y-97864993D01*
X76657000Y-97865020D01*
X76655943Y-97868739D01*
X76655347Y-97872573D01*
X76655347Y-97872577D01*
X76606386Y-98187984D01*
X76606384Y-98188001D01*
X76605791Y-98191824D01*
X76605671Y-98195705D01*
X76605671Y-98195710D01*
X76595841Y-98514741D01*
X76595841Y-98514750D01*
X76595722Y-98518623D01*
X76596079Y-98522483D01*
X76596080Y-98522492D01*
X76610094Y-98673719D01*
X76625890Y-98844183D01*
X76695836Y-99163568D01*
X76804501Y-99471937D01*
X76950237Y-99764615D01*
X76952377Y-99767844D01*
X76952379Y-99767848D01*
X77042380Y-99903672D01*
X77130836Y-100037165D01*
X77343558Y-100285455D01*
X77585181Y-100505723D01*
X77588336Y-100507956D01*
X77588343Y-100507962D01*
X77727311Y-100606335D01*
X77852040Y-100694629D01*
X78140091Y-100849309D01*
X78143709Y-100850710D01*
X78143712Y-100850712D01*
X78298373Y-100910628D01*
X78444967Y-100967419D01*
X78762046Y-101047167D01*
X79086523Y-101087346D01*
X79629732Y-101087346D01*
X79631665Y-101087346D01*
X79876334Y-101072255D01*
X80197722Y-101012178D01*
X80509291Y-100913061D01*
X80806317Y-100776406D01*
X81084300Y-100604287D01*
X81339024Y-100399312D01*
X81566628Y-100164587D01*
X81763662Y-99903672D01*
X81927139Y-99620521D01*
X82054581Y-99319426D01*
X82144057Y-99004953D01*
X82194209Y-98681868D01*
X82204278Y-98355069D01*
X82174110Y-98029509D01*
X82104164Y-97710124D01*
X81995499Y-97401755D01*
X81849763Y-97109077D01*
X81669164Y-96836527D01*
X81456442Y-96588237D01*
X81214819Y-96367969D01*
X81211665Y-96365736D01*
X81211656Y-96365729D01*
X80951122Y-96181301D01*
X80951118Y-96181298D01*
X80947960Y-96179063D01*
X80913280Y-96160440D01*
X80663325Y-96026217D01*
X80663320Y-96026214D01*
X80659909Y-96024383D01*
X80656298Y-96022984D01*
X80656287Y-96022979D01*
X80358656Y-95907676D01*
X80358647Y-95907673D01*
X80355033Y-95906273D01*
X80351275Y-95905327D01*
X80351263Y-95905324D01*
X80041724Y-95827473D01*
X80041721Y-95827472D01*
X80037954Y-95826525D01*
X80034109Y-95826048D01*
X80034099Y-95826047D01*
X79717329Y-95786823D01*
X79713477Y-95786346D01*
X79168335Y-95786346D01*
X79166438Y-95786462D01*
X79166405Y-95786464D01*
X78927533Y-95801198D01*
X78927525Y-95801198D01*
X78923666Y-95801437D01*
X78919869Y-95802146D01*
X78919859Y-95802148D01*
X78606082Y-95860802D01*
X78606067Y-95860805D01*
X78602278Y-95861514D01*
X78598601Y-95862683D01*
X78598580Y-95862689D01*
X78594482Y-95863993D01*
X78528195Y-95866744D01*
X78469700Y-95835443D01*
X78435213Y-95778767D01*
X78434296Y-95712430D01*
X78467201Y-95654825D01*
X79622026Y-94500000D01*
X83000000Y-94500000D01*
X83000000Y-102500000D01*
X90983410Y-102500000D01*
X91000000Y-102500000D01*
X91000000Y-98581777D01*
X91795722Y-98581777D01*
X91796079Y-98585637D01*
X91796080Y-98585646D01*
X91825532Y-98903474D01*
X91825890Y-98907337D01*
X91895836Y-99226722D01*
X92004501Y-99535091D01*
X92006226Y-99538555D01*
X92006228Y-99538560D01*
X92076706Y-99680099D01*
X92150237Y-99827769D01*
X92152377Y-99830998D01*
X92152379Y-99831002D01*
X92288988Y-100037165D01*
X92330836Y-100100319D01*
X92543558Y-100348609D01*
X92785181Y-100568877D01*
X92788336Y-100571110D01*
X92788343Y-100571116D01*
X92927311Y-100669489D01*
X93052040Y-100757783D01*
X93340091Y-100912463D01*
X93343709Y-100913864D01*
X93343712Y-100913866D01*
X93478324Y-100966015D01*
X93644967Y-101030573D01*
X93962046Y-101110321D01*
X94286523Y-101150500D01*
X94829732Y-101150500D01*
X94831665Y-101150500D01*
X95076334Y-101135409D01*
X95397722Y-101075332D01*
X95709291Y-100976215D01*
X96006317Y-100839560D01*
X96284300Y-100667441D01*
X96539024Y-100462466D01*
X96766628Y-100227741D01*
X96963662Y-99966826D01*
X97127139Y-99683675D01*
X97254581Y-99382580D01*
X97344057Y-99068107D01*
X97394209Y-98745022D01*
X97404278Y-98418223D01*
X97374110Y-98092663D01*
X97304164Y-97773278D01*
X97195499Y-97464909D01*
X97049763Y-97172231D01*
X96869164Y-96899681D01*
X96656442Y-96651391D01*
X96414819Y-96431123D01*
X96411665Y-96428890D01*
X96411656Y-96428883D01*
X96151122Y-96244455D01*
X96151118Y-96244452D01*
X96147960Y-96242217D01*
X96034520Y-96181301D01*
X95863325Y-96089371D01*
X95863320Y-96089368D01*
X95859909Y-96087537D01*
X95856298Y-96086138D01*
X95856287Y-96086133D01*
X95558656Y-95970830D01*
X95558647Y-95970827D01*
X95555033Y-95969427D01*
X95551275Y-95968481D01*
X95551263Y-95968478D01*
X95241724Y-95890627D01*
X95241721Y-95890626D01*
X95237954Y-95889679D01*
X95234109Y-95889202D01*
X95234099Y-95889201D01*
X94917329Y-95849977D01*
X94913477Y-95849500D01*
X94368335Y-95849500D01*
X94366438Y-95849616D01*
X94366405Y-95849618D01*
X94127533Y-95864352D01*
X94127525Y-95864352D01*
X94123666Y-95864591D01*
X94119869Y-95865300D01*
X94119859Y-95865302D01*
X93806082Y-95923956D01*
X93806067Y-95923959D01*
X93802278Y-95924668D01*
X93798597Y-95925838D01*
X93798589Y-95925841D01*
X93494403Y-96022609D01*
X93494390Y-96022613D01*
X93490709Y-96023785D01*
X93487196Y-96025400D01*
X93487181Y-96025407D01*
X93197225Y-96158810D01*
X93197219Y-96158812D01*
X93193683Y-96160440D01*
X93190381Y-96162484D01*
X93190367Y-96162492D01*
X92919008Y-96330510D01*
X92918999Y-96330516D01*
X92915700Y-96332559D01*
X92912679Y-96334989D01*
X92912669Y-96334997D01*
X92663999Y-96535101D01*
X92663995Y-96535104D01*
X92660976Y-96537534D01*
X92658289Y-96540305D01*
X92658277Y-96540316D01*
X92436067Y-96769478D01*
X92436054Y-96769492D01*
X92433372Y-96772259D01*
X92431044Y-96775340D01*
X92431036Y-96775351D01*
X92238679Y-97030073D01*
X92238673Y-97030081D01*
X92236338Y-97033174D01*
X92234396Y-97036536D01*
X92234395Y-97036539D01*
X92074802Y-97312961D01*
X92074794Y-97312976D01*
X92072861Y-97316325D01*
X92071352Y-97319888D01*
X92071347Y-97319900D01*
X91946932Y-97613844D01*
X91946929Y-97613852D01*
X91945419Y-97617420D01*
X91944361Y-97621135D01*
X91944356Y-97621152D01*
X91857005Y-97928157D01*
X91857001Y-97928172D01*
X91855943Y-97931893D01*
X91855347Y-97935727D01*
X91855347Y-97935731D01*
X91806386Y-98251138D01*
X91806384Y-98251155D01*
X91805791Y-98254978D01*
X91805671Y-98258859D01*
X91805671Y-98258864D01*
X91795841Y-98577895D01*
X91795841Y-98577904D01*
X91795722Y-98581777D01*
X91000000Y-98581777D01*
X91000000Y-94500000D01*
X83000000Y-94500000D01*
X79622026Y-94500000D01*
X80584622Y-93537404D01*
X80625499Y-93510091D01*
X80673717Y-93500500D01*
X101573282Y-93500500D01*
X101630485Y-93514233D01*
X101675218Y-93552439D01*
X101697731Y-93606789D01*
X101693115Y-93665436D01*
X101662377Y-93715595D01*
X98510394Y-96867576D01*
X98498695Y-96877908D01*
X98484368Y-96889059D01*
X98484351Y-96889074D01*
X98480256Y-96892262D01*
X98476737Y-96896083D01*
X98476731Y-96896090D01*
X98418798Y-96959021D01*
X98415198Y-96962773D01*
X98395098Y-96982874D01*
X98393418Y-96984857D01*
X98393412Y-96984864D01*
X98376723Y-97004568D01*
X98373281Y-97008466D01*
X98315361Y-97071385D01*
X98315357Y-97071390D01*
X98311836Y-97075215D01*
X98308995Y-97079563D01*
X98308982Y-97079580D01*
X98299059Y-97094769D01*
X98289731Y-97107280D01*
X98278002Y-97121129D01*
X98274634Y-97125106D01*
X98271968Y-97129578D01*
X98271965Y-97129584D01*
X98228192Y-97203043D01*
X98225436Y-97207458D01*
X98195571Y-97253171D01*
X98175827Y-97283393D01*
X98173741Y-97288148D01*
X98173732Y-97288165D01*
X98166443Y-97304782D01*
X98159302Y-97318655D01*
X98150012Y-97334247D01*
X98150008Y-97334254D01*
X98147344Y-97338726D01*
X98145452Y-97343575D01*
X98114365Y-97423241D01*
X98112373Y-97428048D01*
X98078031Y-97506342D01*
X98078026Y-97506355D01*
X98075937Y-97511119D01*
X98074660Y-97516158D01*
X98074654Y-97516178D01*
X98070199Y-97533769D01*
X98065440Y-97548624D01*
X98058849Y-97565517D01*
X98058843Y-97565535D01*
X98056951Y-97570386D01*
X98055881Y-97575486D01*
X98055881Y-97575488D01*
X98038336Y-97659158D01*
X98037163Y-97664229D01*
X98016170Y-97747129D01*
X98016168Y-97747138D01*
X98014892Y-97752179D01*
X98014462Y-97757366D01*
X98014461Y-97757373D01*
X98012963Y-97775450D01*
X98010713Y-97790892D01*
X98006989Y-97808654D01*
X98006987Y-97808667D01*
X98005919Y-97813763D01*
X98005703Y-97818965D01*
X98005703Y-97818972D01*
X98002170Y-97904395D01*
X98001848Y-97909589D01*
X97999715Y-97935326D01*
X97999714Y-97935349D01*
X97999500Y-97937933D01*
X97999500Y-97940548D01*
X97999500Y-97966369D01*
X97999392Y-97971576D01*
X97997153Y-98025723D01*
X97995643Y-98062221D01*
X97996286Y-98067385D01*
X97996287Y-98067392D01*
X97998532Y-98085398D01*
X97999500Y-98100983D01*
X97999500Y-104421671D01*
X97980187Y-104488707D01*
X97928169Y-104535193D01*
X97859392Y-104546879D01*
X97794940Y-104520182D01*
X97782793Y-104510495D01*
X97603262Y-104391989D01*
X97593326Y-104386642D01*
X97395523Y-104302097D01*
X97384796Y-104298611D01*
X97267840Y-104271917D01*
X97256520Y-104271917D01*
X97254000Y-104282956D01*
X97254000Y-107218191D01*
X97257946Y-107231700D01*
X97271866Y-107233798D01*
X97275460Y-107233311D01*
X97286443Y-107230804D01*
X97491045Y-107164325D01*
X97501403Y-107159898D01*
X97690847Y-107057954D01*
X97700257Y-107051742D01*
X97844026Y-106937090D01*
X97892256Y-106913305D01*
X97946011Y-106911797D01*
X97995499Y-106932840D01*
X98031704Y-106972598D01*
X98043000Y-106992164D01*
X98095466Y-107057954D01*
X98201305Y-107190673D01*
X98206581Y-107197288D01*
X98229109Y-107218191D01*
X98395451Y-107372534D01*
X98395456Y-107372538D01*
X98398907Y-107375740D01*
X98402801Y-107378395D01*
X98402805Y-107378398D01*
X98402808Y-107378400D01*
X98615682Y-107523535D01*
X98852063Y-107637370D01*
X99102771Y-107714703D01*
X99362204Y-107753807D01*
X99619852Y-107753807D01*
X99624568Y-107753807D01*
X99884001Y-107714703D01*
X100134709Y-107637370D01*
X100371090Y-107523535D01*
X100587865Y-107375740D01*
X100664557Y-107304579D01*
X100719165Y-107274841D01*
X100781348Y-107274841D01*
X100835955Y-107304578D01*
X100905521Y-107369125D01*
X101122296Y-107516920D01*
X101358677Y-107630755D01*
X101609385Y-107708088D01*
X101868818Y-107747192D01*
X102126466Y-107747192D01*
X102131182Y-107747192D01*
X102390615Y-107708088D01*
X102641323Y-107630755D01*
X102877704Y-107516920D01*
X103094479Y-107369125D01*
X103286805Y-107190673D01*
X103450386Y-106985549D01*
X103581568Y-106758335D01*
X103677420Y-106514108D01*
X103735802Y-106258322D01*
X103750500Y-106062186D01*
X103750500Y-105991660D01*
X120742000Y-105991660D01*
X120742252Y-105997290D01*
X120756705Y-106157877D01*
X120758719Y-106168973D01*
X120815949Y-106376337D01*
X120819913Y-106386901D01*
X120913248Y-106580714D01*
X120919034Y-106590398D01*
X121045481Y-106764438D01*
X121052895Y-106772924D01*
X121208390Y-106921592D01*
X121217200Y-106928618D01*
X121396737Y-107047128D01*
X121406673Y-107052475D01*
X121604476Y-107137020D01*
X121615203Y-107140506D01*
X121732160Y-107167201D01*
X121743480Y-107167201D01*
X121746000Y-107156162D01*
X121746000Y-105958572D01*
X121742493Y-105945488D01*
X121729410Y-105941982D01*
X120758590Y-105941982D01*
X120745506Y-105945488D01*
X120742000Y-105958572D01*
X120742000Y-105991660D01*
X103750500Y-105991660D01*
X103750500Y-105431198D01*
X103749465Y-105417392D01*
X120742000Y-105417392D01*
X120745506Y-105430475D01*
X120758590Y-105433982D01*
X121729410Y-105433982D01*
X121742493Y-105430475D01*
X121746000Y-105417392D01*
X121746000Y-104220927D01*
X121742053Y-104207417D01*
X121728133Y-104205319D01*
X121724539Y-104205806D01*
X121713556Y-104208313D01*
X121508954Y-104274792D01*
X121498596Y-104279219D01*
X121309152Y-104381163D01*
X121299749Y-104387370D01*
X121131550Y-104521505D01*
X121123406Y-104529292D01*
X120981868Y-104691294D01*
X120975239Y-104700418D01*
X120864899Y-104885097D01*
X120860013Y-104895242D01*
X120784420Y-105096659D01*
X120781422Y-105107522D01*
X120743011Y-105319188D01*
X120742000Y-105330422D01*
X120742000Y-105417392D01*
X103749465Y-105417392D01*
X103735802Y-105235062D01*
X103677420Y-104979276D01*
X103581568Y-104735049D01*
X103450386Y-104507835D01*
X103286805Y-104302711D01*
X103185068Y-104208313D01*
X103097934Y-104127464D01*
X103097928Y-104127459D01*
X103094479Y-104124259D01*
X103090586Y-104121604D01*
X103090580Y-104121600D01*
X102881600Y-103979120D01*
X102881597Y-103979118D01*
X102877704Y-103976464D01*
X102742315Y-103911264D01*
X102645572Y-103864675D01*
X102645569Y-103864674D01*
X102641323Y-103862629D01*
X102636825Y-103861241D01*
X102636816Y-103861238D01*
X102395121Y-103786686D01*
X102395122Y-103786686D01*
X102390615Y-103785296D01*
X102385962Y-103784594D01*
X102385955Y-103784593D01*
X102135842Y-103746894D01*
X102135836Y-103746893D01*
X102131182Y-103746192D01*
X101868818Y-103746192D01*
X101864164Y-103746893D01*
X101864157Y-103746894D01*
X101614044Y-103784593D01*
X101614034Y-103784595D01*
X101609385Y-103785296D01*
X101604880Y-103786685D01*
X101604878Y-103786686D01*
X101363183Y-103861238D01*
X101363170Y-103861243D01*
X101358677Y-103862629D01*
X101354434Y-103864671D01*
X101354427Y-103864675D01*
X101181169Y-103948112D01*
X101119435Y-103960392D01*
X101059464Y-103941277D01*
X101016222Y-103895539D01*
X101000500Y-103834590D01*
X101000500Y-98673719D01*
X101010091Y-98625501D01*
X101037404Y-98584624D01*
X101109631Y-98512397D01*
X101388555Y-98233471D01*
X101439450Y-98202498D01*
X101498890Y-98198372D01*
X101553580Y-98222019D01*
X101591290Y-98268149D01*
X101603588Y-98326449D01*
X101595841Y-98577894D01*
X101595841Y-98577904D01*
X101595722Y-98581777D01*
X101596079Y-98585637D01*
X101596080Y-98585646D01*
X101625532Y-98903474D01*
X101625890Y-98907337D01*
X101695836Y-99226722D01*
X101804501Y-99535091D01*
X101806226Y-99538555D01*
X101806228Y-99538560D01*
X101876706Y-99680099D01*
X101950237Y-99827769D01*
X101952377Y-99830998D01*
X101952379Y-99831002D01*
X102088988Y-100037165D01*
X102130836Y-100100319D01*
X102343558Y-100348609D01*
X102585181Y-100568877D01*
X102588336Y-100571110D01*
X102588343Y-100571116D01*
X102727311Y-100669489D01*
X102852040Y-100757783D01*
X103140091Y-100912463D01*
X103143709Y-100913864D01*
X103143712Y-100913866D01*
X103278324Y-100966015D01*
X103444967Y-101030573D01*
X103762046Y-101110321D01*
X104086523Y-101150500D01*
X104629732Y-101150500D01*
X104631665Y-101150500D01*
X104876334Y-101135409D01*
X105197722Y-101075332D01*
X105509291Y-100976215D01*
X105806317Y-100839560D01*
X106084300Y-100667441D01*
X106339024Y-100462466D01*
X106566628Y-100227741D01*
X106763662Y-99966826D01*
X106927139Y-99683675D01*
X107054581Y-99382580D01*
X107144057Y-99068107D01*
X107194209Y-98745022D01*
X107204278Y-98418223D01*
X107174110Y-98092663D01*
X107104164Y-97773278D01*
X106995499Y-97464909D01*
X106849763Y-97172231D01*
X106669164Y-96899681D01*
X106456442Y-96651391D01*
X106214819Y-96431123D01*
X106211665Y-96428890D01*
X106211656Y-96428883D01*
X105951122Y-96244455D01*
X105951118Y-96244452D01*
X105947960Y-96242217D01*
X105834520Y-96181301D01*
X105663325Y-96089371D01*
X105663320Y-96089368D01*
X105659909Y-96087537D01*
X105656298Y-96086138D01*
X105656287Y-96086133D01*
X105358656Y-95970830D01*
X105358647Y-95970827D01*
X105355033Y-95969427D01*
X105351275Y-95968481D01*
X105351263Y-95968478D01*
X105041724Y-95890627D01*
X105041721Y-95890626D01*
X105037954Y-95889679D01*
X105034109Y-95889202D01*
X105034099Y-95889201D01*
X104717329Y-95849977D01*
X104713477Y-95849500D01*
X104168335Y-95849500D01*
X104166438Y-95849616D01*
X104166405Y-95849618D01*
X104078708Y-95855028D01*
X104019348Y-95844215D01*
X103971821Y-95807044D01*
X103947026Y-95752037D01*
X103950647Y-95691810D01*
X103981855Y-95640172D01*
X104084623Y-95537404D01*
X104125501Y-95510091D01*
X104173719Y-95500500D01*
X107874000Y-95500500D01*
X107937000Y-95517381D01*
X107983119Y-95563500D01*
X108000000Y-95626500D01*
X108000000Y-102500000D01*
X115983410Y-102500000D01*
X116000000Y-102500000D01*
X116000000Y-98518623D01*
X116795722Y-98518623D01*
X116796079Y-98522483D01*
X116796080Y-98522492D01*
X116810094Y-98673719D01*
X116825890Y-98844183D01*
X116895836Y-99163568D01*
X117004501Y-99471937D01*
X117150237Y-99764615D01*
X117152377Y-99767844D01*
X117152379Y-99767848D01*
X117242380Y-99903672D01*
X117330836Y-100037165D01*
X117543558Y-100285455D01*
X117785181Y-100505723D01*
X117788336Y-100507956D01*
X117788343Y-100507962D01*
X117927311Y-100606335D01*
X118052040Y-100694629D01*
X118340091Y-100849309D01*
X118343709Y-100850710D01*
X118343712Y-100850712D01*
X118498373Y-100910628D01*
X118644967Y-100967419D01*
X118962046Y-101047167D01*
X119286523Y-101087346D01*
X119829732Y-101087346D01*
X119831665Y-101087346D01*
X120076334Y-101072255D01*
X120397722Y-101012178D01*
X120709291Y-100913061D01*
X121006317Y-100776406D01*
X121284300Y-100604287D01*
X121539024Y-100399312D01*
X121766628Y-100164587D01*
X121963662Y-99903672D01*
X122127139Y-99620521D01*
X122254581Y-99319426D01*
X122344057Y-99004953D01*
X122394209Y-98681868D01*
X122404278Y-98355069D01*
X122374110Y-98029509D01*
X122304164Y-97710124D01*
X122195499Y-97401755D01*
X122049763Y-97109077D01*
X121869164Y-96836527D01*
X121656442Y-96588237D01*
X121414819Y-96367969D01*
X121411665Y-96365736D01*
X121411656Y-96365729D01*
X121151122Y-96181301D01*
X121151118Y-96181298D01*
X121147960Y-96179063D01*
X121113280Y-96160440D01*
X120863325Y-96026217D01*
X120863320Y-96026214D01*
X120859909Y-96024383D01*
X120856298Y-96022984D01*
X120856287Y-96022979D01*
X120558656Y-95907676D01*
X120558647Y-95907673D01*
X120555033Y-95906273D01*
X120551275Y-95905327D01*
X120551263Y-95905324D01*
X120241724Y-95827473D01*
X120241721Y-95827472D01*
X120237954Y-95826525D01*
X120234109Y-95826048D01*
X120234099Y-95826047D01*
X119917329Y-95786823D01*
X119913477Y-95786346D01*
X119368335Y-95786346D01*
X119366438Y-95786462D01*
X119366405Y-95786464D01*
X119127533Y-95801198D01*
X119127525Y-95801198D01*
X119123666Y-95801437D01*
X119119869Y-95802146D01*
X119119859Y-95802148D01*
X118806082Y-95860802D01*
X118806067Y-95860805D01*
X118802278Y-95861514D01*
X118798597Y-95862684D01*
X118798589Y-95862687D01*
X118494403Y-95959455D01*
X118494390Y-95959459D01*
X118490709Y-95960631D01*
X118487196Y-95962246D01*
X118487181Y-95962253D01*
X118197225Y-96095656D01*
X118197219Y-96095658D01*
X118193683Y-96097286D01*
X118190381Y-96099330D01*
X118190367Y-96099338D01*
X117919008Y-96267356D01*
X117918999Y-96267362D01*
X117915700Y-96269405D01*
X117912679Y-96271835D01*
X117912669Y-96271843D01*
X117663999Y-96471947D01*
X117663995Y-96471950D01*
X117660976Y-96474380D01*
X117658289Y-96477151D01*
X117658277Y-96477162D01*
X117436067Y-96706324D01*
X117436054Y-96706338D01*
X117433372Y-96709105D01*
X117431044Y-96712186D01*
X117431036Y-96712197D01*
X117238679Y-96966919D01*
X117238673Y-96966927D01*
X117236338Y-96970020D01*
X117234396Y-96973382D01*
X117234395Y-96973385D01*
X117074802Y-97249807D01*
X117074794Y-97249822D01*
X117072861Y-97253171D01*
X117071352Y-97256734D01*
X117071347Y-97256746D01*
X116946932Y-97550690D01*
X116946929Y-97550698D01*
X116945419Y-97554266D01*
X116944361Y-97557981D01*
X116944356Y-97557998D01*
X116857005Y-97865003D01*
X116857001Y-97865018D01*
X116855943Y-97868739D01*
X116855347Y-97872573D01*
X116855347Y-97872577D01*
X116806386Y-98187984D01*
X116806384Y-98188001D01*
X116805791Y-98191824D01*
X116805671Y-98195705D01*
X116805671Y-98195710D01*
X116795841Y-98514741D01*
X116795841Y-98514750D01*
X116795722Y-98518623D01*
X116000000Y-98518623D01*
X116000000Y-94500000D01*
X115983410Y-94500000D01*
X109926218Y-94500000D01*
X109869015Y-94486267D01*
X109824282Y-94448061D01*
X109801769Y-94393711D01*
X109806385Y-94335064D01*
X109837123Y-94284905D01*
X110744114Y-93377914D01*
X113483611Y-90638415D01*
X113495297Y-90628095D01*
X113513744Y-90613738D01*
X113575224Y-90546951D01*
X113578759Y-90543267D01*
X113598902Y-90523126D01*
X113617312Y-90501387D01*
X113620703Y-90497547D01*
X113682164Y-90430785D01*
X113694942Y-90411225D01*
X113704267Y-90398720D01*
X113719366Y-90380894D01*
X113765820Y-90302932D01*
X113768556Y-90298550D01*
X113818173Y-90222607D01*
X113827554Y-90201219D01*
X113834697Y-90187342D01*
X113846656Y-90167273D01*
X113865748Y-90118342D01*
X113908634Y-90062524D01*
X113974769Y-90038421D01*
X114043514Y-90053556D01*
X114259351Y-90171412D01*
X114259354Y-90171413D01*
X114263311Y-90173574D01*
X114511322Y-90266077D01*
X114608636Y-90287246D01*
X114642238Y-90299779D01*
X114670948Y-90321272D01*
X115675282Y-91325606D01*
X115685612Y-91337302D01*
X115699966Y-91355744D01*
X115766711Y-91417187D01*
X115770469Y-91420793D01*
X115790578Y-91440902D01*
X115792569Y-91442588D01*
X115792572Y-91442591D01*
X115812274Y-91459278D01*
X115816177Y-91462724D01*
X115855548Y-91498967D01*
X115882919Y-91524164D01*
X115887275Y-91527010D01*
X115887283Y-91527016D01*
X115902471Y-91536938D01*
X115914982Y-91546266D01*
X115932810Y-91561366D01*
X115937288Y-91564034D01*
X116010741Y-91607802D01*
X116015129Y-91610541D01*
X116091097Y-91660173D01*
X116112496Y-91669559D01*
X116126360Y-91676696D01*
X116146430Y-91688655D01*
X116151279Y-91690547D01*
X116151281Y-91690548D01*
X116230943Y-91721632D01*
X116235748Y-91723622D01*
X116318823Y-91760063D01*
X116323870Y-91761341D01*
X116323873Y-91761342D01*
X116341467Y-91765797D01*
X116356340Y-91770562D01*
X116378090Y-91779049D01*
X116459976Y-91796218D01*
X116466859Y-91797662D01*
X116471936Y-91798836D01*
X116559883Y-91821108D01*
X116583156Y-91823035D01*
X116598616Y-91825288D01*
X116621467Y-91830080D01*
X116712096Y-91833828D01*
X116717276Y-91834150D01*
X116740456Y-91836070D01*
X116745637Y-91836500D01*
X116774082Y-91836500D01*
X116779289Y-91836608D01*
X116869925Y-91840357D01*
X116893101Y-91837467D01*
X116908687Y-91836500D01*
X119662282Y-91836500D01*
X119710500Y-91846091D01*
X119751377Y-91873405D01*
X122962595Y-95084623D01*
X122989909Y-95125500D01*
X122999500Y-95173718D01*
X122999500Y-104358517D01*
X122980187Y-104425553D01*
X122928169Y-104472039D01*
X122859392Y-104483725D01*
X122794940Y-104457028D01*
X122782793Y-104447341D01*
X122603262Y-104328835D01*
X122593326Y-104323488D01*
X122395523Y-104238943D01*
X122384796Y-104235457D01*
X122267840Y-104208763D01*
X122256520Y-104208763D01*
X122254000Y-104219802D01*
X122254000Y-107155037D01*
X122257946Y-107168546D01*
X122271866Y-107170644D01*
X122275460Y-107170157D01*
X122286443Y-107167650D01*
X122491045Y-107101171D01*
X122501403Y-107096744D01*
X122690847Y-106994800D01*
X122700257Y-106988588D01*
X122844026Y-106873936D01*
X122892256Y-106850151D01*
X122946011Y-106848643D01*
X122995499Y-106869686D01*
X123031704Y-106909444D01*
X123043000Y-106929010D01*
X123090113Y-106988088D01*
X123201305Y-107127519D01*
X123206581Y-107134134D01*
X123229109Y-107155037D01*
X123395451Y-107309380D01*
X123395456Y-107309384D01*
X123398907Y-107312586D01*
X123402801Y-107315241D01*
X123402805Y-107315244D01*
X123495435Y-107378398D01*
X123615682Y-107460381D01*
X123852063Y-107574216D01*
X124102771Y-107651549D01*
X124362204Y-107690653D01*
X124619852Y-107690653D01*
X124624568Y-107690653D01*
X124884001Y-107651549D01*
X125134709Y-107574216D01*
X125371090Y-107460381D01*
X125587865Y-107312586D01*
X125664557Y-107241425D01*
X125719165Y-107211687D01*
X125781348Y-107211687D01*
X125835955Y-107241424D01*
X125905521Y-107305971D01*
X126122296Y-107453766D01*
X126358677Y-107567601D01*
X126609385Y-107644934D01*
X126868818Y-107684038D01*
X127126466Y-107684038D01*
X127131182Y-107684038D01*
X127390615Y-107644934D01*
X127641323Y-107567601D01*
X127877704Y-107453766D01*
X128094479Y-107305971D01*
X128286805Y-107127519D01*
X128450386Y-106922395D01*
X128581568Y-106695181D01*
X128677420Y-106450954D01*
X128735802Y-106195168D01*
X128750500Y-105999032D01*
X128750500Y-105991660D01*
X145742000Y-105991660D01*
X145742252Y-105997290D01*
X145756705Y-106157877D01*
X145758719Y-106168973D01*
X145815949Y-106376337D01*
X145819913Y-106386901D01*
X145913248Y-106580714D01*
X145919034Y-106590398D01*
X146045481Y-106764438D01*
X146052895Y-106772924D01*
X146208390Y-106921592D01*
X146217200Y-106928618D01*
X146396737Y-107047128D01*
X146406673Y-107052475D01*
X146604476Y-107137020D01*
X146615203Y-107140506D01*
X146732160Y-107167201D01*
X146743480Y-107167201D01*
X146746000Y-107156162D01*
X146746000Y-105958572D01*
X146742493Y-105945488D01*
X146729410Y-105941982D01*
X145758590Y-105941982D01*
X145745506Y-105945488D01*
X145742000Y-105958572D01*
X145742000Y-105991660D01*
X128750500Y-105991660D01*
X128750500Y-105417392D01*
X145742000Y-105417392D01*
X145745506Y-105430475D01*
X145758590Y-105433982D01*
X146729410Y-105433982D01*
X146742493Y-105430475D01*
X146746000Y-105417392D01*
X146746000Y-104220927D01*
X146742053Y-104207417D01*
X146728133Y-104205319D01*
X146724539Y-104205806D01*
X146713556Y-104208313D01*
X146508954Y-104274792D01*
X146498596Y-104279219D01*
X146309152Y-104381163D01*
X146299749Y-104387370D01*
X146131550Y-104521505D01*
X146123406Y-104529292D01*
X145981868Y-104691294D01*
X145975239Y-104700418D01*
X145864899Y-104885097D01*
X145860013Y-104895242D01*
X145784420Y-105096659D01*
X145781422Y-105107522D01*
X145743011Y-105319188D01*
X145742000Y-105330422D01*
X145742000Y-105417392D01*
X128750500Y-105417392D01*
X128750500Y-105368044D01*
X128735802Y-105171908D01*
X128677420Y-104916122D01*
X128581568Y-104671895D01*
X128450386Y-104444681D01*
X128286805Y-104239557D01*
X128249905Y-104205319D01*
X128097934Y-104064310D01*
X128097928Y-104064305D01*
X128094479Y-104061105D01*
X128090586Y-104058450D01*
X128090580Y-104058446D01*
X127881600Y-103915966D01*
X127881597Y-103915964D01*
X127877704Y-103913310D01*
X127714240Y-103834590D01*
X127645572Y-103801521D01*
X127645569Y-103801520D01*
X127641323Y-103799475D01*
X127636825Y-103798087D01*
X127636816Y-103798084D01*
X127395121Y-103723532D01*
X127395122Y-103723532D01*
X127390615Y-103722142D01*
X127385962Y-103721440D01*
X127385955Y-103721439D01*
X127135842Y-103683740D01*
X127135836Y-103683739D01*
X127131182Y-103683038D01*
X126868818Y-103683038D01*
X126864164Y-103683739D01*
X126864157Y-103683740D01*
X126614044Y-103721439D01*
X126614034Y-103721441D01*
X126609385Y-103722142D01*
X126604880Y-103723531D01*
X126604878Y-103723532D01*
X126363183Y-103798084D01*
X126363170Y-103798089D01*
X126358677Y-103799475D01*
X126354434Y-103801517D01*
X126354427Y-103801521D01*
X126181169Y-103884958D01*
X126119435Y-103897238D01*
X126059464Y-103878123D01*
X126016222Y-103832385D01*
X126000500Y-103771436D01*
X126000500Y-98518623D01*
X126595722Y-98518623D01*
X126596079Y-98522483D01*
X126596080Y-98522492D01*
X126610094Y-98673719D01*
X126625890Y-98844183D01*
X126695836Y-99163568D01*
X126804501Y-99471937D01*
X126950237Y-99764615D01*
X126952377Y-99767844D01*
X126952379Y-99767848D01*
X127042380Y-99903672D01*
X127130836Y-100037165D01*
X127343558Y-100285455D01*
X127585181Y-100505723D01*
X127588336Y-100507956D01*
X127588343Y-100507962D01*
X127727311Y-100606335D01*
X127852040Y-100694629D01*
X128140091Y-100849309D01*
X128143709Y-100850710D01*
X128143712Y-100850712D01*
X128298373Y-100910628D01*
X128444967Y-100967419D01*
X128762046Y-101047167D01*
X129086523Y-101087346D01*
X129629732Y-101087346D01*
X129631665Y-101087346D01*
X129876334Y-101072255D01*
X130197722Y-101012178D01*
X130509291Y-100913061D01*
X130806317Y-100776406D01*
X131084300Y-100604287D01*
X131339024Y-100399312D01*
X131566628Y-100164587D01*
X131763662Y-99903672D01*
X131927139Y-99620521D01*
X132054581Y-99319426D01*
X132144057Y-99004953D01*
X132194209Y-98681868D01*
X132204278Y-98355069D01*
X132174110Y-98029509D01*
X132104164Y-97710124D01*
X131995499Y-97401755D01*
X131849763Y-97109077D01*
X131669164Y-96836527D01*
X131456442Y-96588237D01*
X131214819Y-96367969D01*
X131211665Y-96365736D01*
X131211656Y-96365729D01*
X130951122Y-96181301D01*
X130951118Y-96181298D01*
X130947960Y-96179063D01*
X130913280Y-96160440D01*
X130663325Y-96026217D01*
X130663320Y-96026214D01*
X130659909Y-96024383D01*
X130656298Y-96022984D01*
X130656287Y-96022979D01*
X130358656Y-95907676D01*
X130358647Y-95907673D01*
X130355033Y-95906273D01*
X130351275Y-95905327D01*
X130351263Y-95905324D01*
X130041724Y-95827473D01*
X130041721Y-95827472D01*
X130037954Y-95826525D01*
X130034109Y-95826048D01*
X130034099Y-95826047D01*
X129717329Y-95786823D01*
X129713477Y-95786346D01*
X129168335Y-95786346D01*
X129166438Y-95786462D01*
X129166405Y-95786464D01*
X128927533Y-95801198D01*
X128927525Y-95801198D01*
X128923666Y-95801437D01*
X128919869Y-95802146D01*
X128919859Y-95802148D01*
X128606082Y-95860802D01*
X128606067Y-95860805D01*
X128602278Y-95861514D01*
X128598597Y-95862684D01*
X128598589Y-95862687D01*
X128294403Y-95959455D01*
X128294390Y-95959459D01*
X128290709Y-95960631D01*
X128287196Y-95962246D01*
X128287181Y-95962253D01*
X127997225Y-96095656D01*
X127997219Y-96095658D01*
X127993683Y-96097286D01*
X127990381Y-96099330D01*
X127990367Y-96099338D01*
X127719008Y-96267356D01*
X127718999Y-96267362D01*
X127715700Y-96269405D01*
X127712679Y-96271835D01*
X127712669Y-96271843D01*
X127463999Y-96471947D01*
X127463995Y-96471950D01*
X127460976Y-96474380D01*
X127458289Y-96477151D01*
X127458277Y-96477162D01*
X127236067Y-96706324D01*
X127236054Y-96706338D01*
X127233372Y-96709105D01*
X127231044Y-96712186D01*
X127231036Y-96712197D01*
X127038679Y-96966919D01*
X127038673Y-96966927D01*
X127036338Y-96970020D01*
X127034396Y-96973382D01*
X127034395Y-96973385D01*
X126874802Y-97249807D01*
X126874794Y-97249822D01*
X126872861Y-97253171D01*
X126871352Y-97256734D01*
X126871347Y-97256746D01*
X126746932Y-97550690D01*
X126746929Y-97550698D01*
X126745419Y-97554266D01*
X126744361Y-97557981D01*
X126744356Y-97557998D01*
X126657005Y-97865003D01*
X126657001Y-97865018D01*
X126655943Y-97868739D01*
X126655347Y-97872573D01*
X126655347Y-97872577D01*
X126606386Y-98187984D01*
X126606384Y-98188001D01*
X126605791Y-98191824D01*
X126605671Y-98195705D01*
X126605671Y-98195710D01*
X126595841Y-98514741D01*
X126595841Y-98514750D01*
X126595722Y-98518623D01*
X126000500Y-98518623D01*
X126000500Y-94600983D01*
X126001468Y-94585397D01*
X126003712Y-94567392D01*
X126004357Y-94562221D01*
X126001783Y-94500000D01*
X133000000Y-94500000D01*
X133000000Y-102500000D01*
X140983410Y-102500000D01*
X141000000Y-102500000D01*
X141000000Y-94500000D01*
X133000000Y-94500000D01*
X126001783Y-94500000D01*
X126000608Y-94471585D01*
X126000500Y-94466378D01*
X126000500Y-94440546D01*
X126000500Y-94437933D01*
X125998150Y-94409572D01*
X125997827Y-94404370D01*
X125994080Y-94313763D01*
X125989288Y-94290912D01*
X125987035Y-94275447D01*
X125985538Y-94257372D01*
X125985108Y-94252179D01*
X125962836Y-94164229D01*
X125961662Y-94159155D01*
X125960218Y-94152272D01*
X125943049Y-94070386D01*
X125934562Y-94048636D01*
X125929797Y-94033763D01*
X125925342Y-94016169D01*
X125925341Y-94016166D01*
X125924063Y-94011119D01*
X125887622Y-93928044D01*
X125885632Y-93923239D01*
X125854548Y-93843577D01*
X125854547Y-93843575D01*
X125852655Y-93838726D01*
X125840696Y-93818656D01*
X125833559Y-93804792D01*
X125824173Y-93783393D01*
X125774541Y-93707425D01*
X125771802Y-93703037D01*
X125728034Y-93629584D01*
X125725366Y-93625106D01*
X125710266Y-93607278D01*
X125700938Y-93594767D01*
X125691016Y-93579579D01*
X125691010Y-93579571D01*
X125688164Y-93575215D01*
X125628213Y-93510091D01*
X125626724Y-93508473D01*
X125623278Y-93504570D01*
X125606591Y-93484868D01*
X125606588Y-93484865D01*
X125604902Y-93482874D01*
X125584792Y-93462764D01*
X125581187Y-93459007D01*
X125519744Y-93392262D01*
X125501302Y-93377908D01*
X125489606Y-93367578D01*
X122323623Y-90201595D01*
X122292885Y-90151436D01*
X122288269Y-90092789D01*
X122310782Y-90038439D01*
X122355515Y-90000233D01*
X122412718Y-89986500D01*
X138885282Y-89986500D01*
X138933500Y-89996091D01*
X138974377Y-90023405D01*
X144522223Y-95571251D01*
X144552961Y-95621410D01*
X144557577Y-95680057D01*
X144535064Y-95734407D01*
X144490331Y-95772613D01*
X144433128Y-95786346D01*
X144368335Y-95786346D01*
X144366438Y-95786462D01*
X144366405Y-95786464D01*
X144127533Y-95801198D01*
X144127525Y-95801198D01*
X144123666Y-95801437D01*
X144119869Y-95802146D01*
X144119859Y-95802148D01*
X143806082Y-95860802D01*
X143806067Y-95860805D01*
X143802278Y-95861514D01*
X143798597Y-95862684D01*
X143798589Y-95862687D01*
X143494403Y-95959455D01*
X143494390Y-95959459D01*
X143490709Y-95960631D01*
X143487196Y-95962246D01*
X143487181Y-95962253D01*
X143197225Y-96095656D01*
X143197219Y-96095658D01*
X143193683Y-96097286D01*
X143190381Y-96099330D01*
X143190367Y-96099338D01*
X142919008Y-96267356D01*
X142918999Y-96267362D01*
X142915700Y-96269405D01*
X142912679Y-96271835D01*
X142912669Y-96271843D01*
X142663999Y-96471947D01*
X142663995Y-96471950D01*
X142660976Y-96474380D01*
X142658289Y-96477151D01*
X142658277Y-96477162D01*
X142436067Y-96706324D01*
X142436054Y-96706338D01*
X142433372Y-96709105D01*
X142431044Y-96712186D01*
X142431036Y-96712197D01*
X142238679Y-96966919D01*
X142238673Y-96966927D01*
X142236338Y-96970020D01*
X142234396Y-96973382D01*
X142234395Y-96973385D01*
X142074802Y-97249807D01*
X142074794Y-97249822D01*
X142072861Y-97253171D01*
X142071352Y-97256734D01*
X142071347Y-97256746D01*
X141946932Y-97550690D01*
X141946929Y-97550698D01*
X141945419Y-97554266D01*
X141944361Y-97557981D01*
X141944356Y-97557998D01*
X141857005Y-97865003D01*
X141857001Y-97865018D01*
X141855943Y-97868739D01*
X141855347Y-97872573D01*
X141855347Y-97872577D01*
X141806386Y-98187984D01*
X141806384Y-98188001D01*
X141805791Y-98191824D01*
X141805671Y-98195705D01*
X141805671Y-98195710D01*
X141795841Y-98514741D01*
X141795841Y-98514750D01*
X141795722Y-98518623D01*
X141796079Y-98522483D01*
X141796080Y-98522492D01*
X141810094Y-98673719D01*
X141825890Y-98844183D01*
X141895836Y-99163568D01*
X142004501Y-99471937D01*
X142150237Y-99764615D01*
X142152377Y-99767844D01*
X142152379Y-99767848D01*
X142242380Y-99903672D01*
X142330836Y-100037165D01*
X142543558Y-100285455D01*
X142785181Y-100505723D01*
X142788336Y-100507956D01*
X142788343Y-100507962D01*
X142927311Y-100606335D01*
X143052040Y-100694629D01*
X143340091Y-100849309D01*
X143343709Y-100850710D01*
X143343712Y-100850712D01*
X143498373Y-100910628D01*
X143644967Y-100967419D01*
X143962046Y-101047167D01*
X144286523Y-101087346D01*
X144829732Y-101087346D01*
X144831665Y-101087346D01*
X145076334Y-101072255D01*
X145397722Y-101012178D01*
X145709291Y-100913061D01*
X146006317Y-100776406D01*
X146284300Y-100604287D01*
X146539024Y-100399312D01*
X146766628Y-100164587D01*
X146963662Y-99903672D01*
X147127139Y-99620521D01*
X147254581Y-99319426D01*
X147344057Y-99004953D01*
X147388197Y-98720596D01*
X147416706Y-98658315D01*
X147473585Y-98620151D01*
X147542026Y-98617383D01*
X147601801Y-98650829D01*
X147962595Y-99011623D01*
X147989909Y-99052500D01*
X147999500Y-99100718D01*
X147999500Y-104358517D01*
X147980187Y-104425553D01*
X147928169Y-104472039D01*
X147859392Y-104483725D01*
X147794940Y-104457028D01*
X147782793Y-104447341D01*
X147603262Y-104328835D01*
X147593326Y-104323488D01*
X147395523Y-104238943D01*
X147384796Y-104235457D01*
X147267840Y-104208763D01*
X147256520Y-104208763D01*
X147254000Y-104219802D01*
X147254000Y-107155037D01*
X147257946Y-107168546D01*
X147271866Y-107170644D01*
X147275460Y-107170157D01*
X147286443Y-107167650D01*
X147491045Y-107101171D01*
X147501403Y-107096744D01*
X147690847Y-106994800D01*
X147700257Y-106988588D01*
X147844026Y-106873936D01*
X147892256Y-106850151D01*
X147946011Y-106848643D01*
X147995499Y-106869686D01*
X148031704Y-106909444D01*
X148043000Y-106929010D01*
X148090113Y-106988088D01*
X148201305Y-107127519D01*
X148206581Y-107134134D01*
X148229109Y-107155037D01*
X148395451Y-107309380D01*
X148395456Y-107309384D01*
X148398907Y-107312586D01*
X148402801Y-107315241D01*
X148402805Y-107315244D01*
X148495435Y-107378398D01*
X148615682Y-107460381D01*
X148852063Y-107574216D01*
X149102771Y-107651549D01*
X149362204Y-107690653D01*
X149619852Y-107690653D01*
X149624568Y-107690653D01*
X149884001Y-107651549D01*
X150134709Y-107574216D01*
X150371090Y-107460381D01*
X150587865Y-107312586D01*
X150664557Y-107241425D01*
X150719165Y-107211687D01*
X150781348Y-107211687D01*
X150835955Y-107241424D01*
X150905521Y-107305971D01*
X151122296Y-107453766D01*
X151358677Y-107567601D01*
X151609385Y-107644934D01*
X151868818Y-107684038D01*
X152126466Y-107684038D01*
X152131182Y-107684038D01*
X152390615Y-107644934D01*
X152641323Y-107567601D01*
X152877704Y-107453766D01*
X153094479Y-107305971D01*
X153286805Y-107127519D01*
X153450386Y-106922395D01*
X153581568Y-106695181D01*
X153677420Y-106450954D01*
X153735802Y-106195168D01*
X153748351Y-106027696D01*
X153769017Y-105967437D01*
X153816517Y-105924988D01*
X153878711Y-105911200D01*
X153939701Y-105929597D01*
X153983896Y-105975477D01*
X154000000Y-106037112D01*
X154000000Y-110374000D01*
X153983119Y-110437000D01*
X153937000Y-110483119D01*
X153874000Y-110500000D01*
X70126000Y-110500000D01*
X70063000Y-110483119D01*
X70016881Y-110437000D01*
X70000000Y-110374000D01*
X70000000Y-105991660D01*
X70742000Y-105991660D01*
X70742252Y-105997290D01*
X70756705Y-106157877D01*
X70758719Y-106168973D01*
X70815949Y-106376337D01*
X70819913Y-106386901D01*
X70913248Y-106580714D01*
X70919034Y-106590398D01*
X71045481Y-106764438D01*
X71052895Y-106772924D01*
X71208390Y-106921592D01*
X71217200Y-106928618D01*
X71396737Y-107047128D01*
X71406673Y-107052475D01*
X71604476Y-107137020D01*
X71615203Y-107140506D01*
X71732160Y-107167201D01*
X71743480Y-107167201D01*
X71746000Y-107156162D01*
X71746000Y-105958572D01*
X71742493Y-105945488D01*
X71729410Y-105941982D01*
X70758590Y-105941982D01*
X70745506Y-105945488D01*
X70742000Y-105958572D01*
X70742000Y-105991660D01*
X70000000Y-105991660D01*
X70000000Y-105417392D01*
X70742000Y-105417392D01*
X70745506Y-105430475D01*
X70758590Y-105433982D01*
X71729410Y-105433982D01*
X71742493Y-105430475D01*
X71746000Y-105417392D01*
X71746000Y-104220927D01*
X71742053Y-104207417D01*
X71728133Y-104205319D01*
X71724539Y-104205806D01*
X71713556Y-104208313D01*
X71508954Y-104274792D01*
X71498596Y-104279219D01*
X71309152Y-104381163D01*
X71299749Y-104387370D01*
X71131550Y-104521505D01*
X71123406Y-104529292D01*
X70981868Y-104691294D01*
X70975239Y-104700418D01*
X70864899Y-104885097D01*
X70860013Y-104895242D01*
X70784420Y-105096659D01*
X70781422Y-105107522D01*
X70743011Y-105319188D01*
X70742000Y-105330422D01*
X70742000Y-105417392D01*
X70000000Y-105417392D01*
X70000000Y-103016590D01*
X70000000Y-103000000D01*
X62626000Y-103000000D01*
X62563000Y-102983119D01*
X62516881Y-102937000D01*
X62500000Y-102874000D01*
X62500000Y-98518623D01*
X66795722Y-98518623D01*
X66796079Y-98522483D01*
X66796080Y-98522492D01*
X66810094Y-98673719D01*
X66825890Y-98844183D01*
X66895836Y-99163568D01*
X67004501Y-99471937D01*
X67150237Y-99764615D01*
X67152377Y-99767844D01*
X67152379Y-99767848D01*
X67242380Y-99903672D01*
X67330836Y-100037165D01*
X67543558Y-100285455D01*
X67785181Y-100505723D01*
X67788336Y-100507956D01*
X67788343Y-100507962D01*
X67927311Y-100606335D01*
X68052040Y-100694629D01*
X68340091Y-100849309D01*
X68343709Y-100850710D01*
X68343712Y-100850712D01*
X68498373Y-100910628D01*
X68644967Y-100967419D01*
X68962046Y-101047167D01*
X69286523Y-101087346D01*
X69829732Y-101087346D01*
X69831665Y-101087346D01*
X70076334Y-101072255D01*
X70397722Y-101012178D01*
X70709291Y-100913061D01*
X71006317Y-100776406D01*
X71284300Y-100604287D01*
X71539024Y-100399312D01*
X71766628Y-100164587D01*
X71963662Y-99903672D01*
X72127139Y-99620521D01*
X72254581Y-99319426D01*
X72344057Y-99004953D01*
X72394209Y-98681868D01*
X72404278Y-98355069D01*
X72374110Y-98029509D01*
X72304164Y-97710124D01*
X72195499Y-97401755D01*
X72049763Y-97109077D01*
X71869164Y-96836527D01*
X71656442Y-96588237D01*
X71414819Y-96367969D01*
X71411665Y-96365736D01*
X71411656Y-96365729D01*
X71151122Y-96181301D01*
X71151118Y-96181298D01*
X71147960Y-96179063D01*
X71113280Y-96160440D01*
X70863325Y-96026217D01*
X70863320Y-96026214D01*
X70859909Y-96024383D01*
X70856298Y-96022984D01*
X70856287Y-96022979D01*
X70558656Y-95907676D01*
X70558647Y-95907673D01*
X70555033Y-95906273D01*
X70551275Y-95905327D01*
X70551263Y-95905324D01*
X70241724Y-95827473D01*
X70241721Y-95827472D01*
X70237954Y-95826525D01*
X70234109Y-95826048D01*
X70234099Y-95826047D01*
X69917329Y-95786823D01*
X69913477Y-95786346D01*
X69368335Y-95786346D01*
X69366438Y-95786462D01*
X69366405Y-95786464D01*
X69127533Y-95801198D01*
X69127525Y-95801198D01*
X69123666Y-95801437D01*
X69119869Y-95802146D01*
X69119859Y-95802148D01*
X68806082Y-95860802D01*
X68806067Y-95860805D01*
X68802278Y-95861514D01*
X68798597Y-95862684D01*
X68798589Y-95862687D01*
X68494403Y-95959455D01*
X68494390Y-95959459D01*
X68490709Y-95960631D01*
X68487196Y-95962246D01*
X68487181Y-95962253D01*
X68197225Y-96095656D01*
X68197219Y-96095658D01*
X68193683Y-96097286D01*
X68190381Y-96099330D01*
X68190367Y-96099338D01*
X67919008Y-96267356D01*
X67918999Y-96267362D01*
X67915700Y-96269405D01*
X67912679Y-96271835D01*
X67912669Y-96271843D01*
X67663999Y-96471947D01*
X67663995Y-96471950D01*
X67660976Y-96474380D01*
X67658289Y-96477151D01*
X67658277Y-96477162D01*
X67436067Y-96706324D01*
X67436054Y-96706338D01*
X67433372Y-96709105D01*
X67431044Y-96712186D01*
X67431036Y-96712197D01*
X67238679Y-96966919D01*
X67238673Y-96966927D01*
X67236338Y-96970020D01*
X67234396Y-96973382D01*
X67234395Y-96973385D01*
X67074802Y-97249807D01*
X67074794Y-97249822D01*
X67072861Y-97253171D01*
X67071352Y-97256734D01*
X67071347Y-97256746D01*
X66946932Y-97550690D01*
X66946929Y-97550698D01*
X66945419Y-97554266D01*
X66944361Y-97557981D01*
X66944356Y-97557998D01*
X66857005Y-97865003D01*
X66857001Y-97865018D01*
X66855943Y-97868739D01*
X66855347Y-97872573D01*
X66855347Y-97872577D01*
X66806386Y-98187984D01*
X66806384Y-98188001D01*
X66805791Y-98191824D01*
X66805671Y-98195705D01*
X66805671Y-98195710D01*
X66795841Y-98514741D01*
X66795841Y-98514750D01*
X66795722Y-98518623D01*
X62500000Y-98518623D01*
X62500000Y-80991660D01*
X70742000Y-80991660D01*
X70742252Y-80997290D01*
X70756705Y-81157877D01*
X70758719Y-81168973D01*
X70815949Y-81376337D01*
X70819913Y-81386901D01*
X70913248Y-81580714D01*
X70919034Y-81590398D01*
X71045481Y-81764438D01*
X71052895Y-81772924D01*
X71208390Y-81921592D01*
X71217200Y-81928618D01*
X71396737Y-82047128D01*
X71406673Y-82052475D01*
X71604476Y-82137020D01*
X71615203Y-82140506D01*
X71732160Y-82167201D01*
X71743480Y-82167201D01*
X71746000Y-82156162D01*
X71746000Y-80958572D01*
X71742493Y-80945488D01*
X71729410Y-80941982D01*
X70758590Y-80941982D01*
X70745506Y-80945488D01*
X70742000Y-80958572D01*
X70742000Y-80991660D01*
X62500000Y-80991660D01*
X62500000Y-80417392D01*
X70742000Y-80417392D01*
X70745506Y-80430475D01*
X70758590Y-80433982D01*
X71729410Y-80433982D01*
X71742493Y-80430475D01*
X71746000Y-80417392D01*
X71746000Y-79220927D01*
X71742053Y-79207417D01*
X71728133Y-79205319D01*
X71724539Y-79205806D01*
X71713556Y-79208313D01*
X71508954Y-79274792D01*
X71498596Y-79279219D01*
X71309152Y-79381163D01*
X71299749Y-79387370D01*
X71131550Y-79521505D01*
X71123406Y-79529292D01*
X70981868Y-79691294D01*
X70975239Y-79700418D01*
X70864899Y-79885097D01*
X70860013Y-79895242D01*
X70784420Y-80096659D01*
X70781422Y-80107522D01*
X70743011Y-80319188D01*
X70742000Y-80330422D01*
X70742000Y-80417392D01*
X62500000Y-80417392D01*
X62500000Y-73518623D01*
X66795722Y-73518623D01*
X66796079Y-73522483D01*
X66796080Y-73522492D01*
X66810489Y-73677981D01*
X66825890Y-73844183D01*
X66895836Y-74163568D01*
X67004501Y-74471937D01*
X67150237Y-74764615D01*
X67152377Y-74767844D01*
X67152379Y-74767848D01*
X67242380Y-74903672D01*
X67330836Y-75037165D01*
X67543558Y-75285455D01*
X67785181Y-75505723D01*
X67788336Y-75507956D01*
X67788343Y-75507962D01*
X67927311Y-75606335D01*
X68052040Y-75694629D01*
X68340091Y-75849309D01*
X68343709Y-75850710D01*
X68343712Y-75850712D01*
X68498373Y-75910628D01*
X68644967Y-75967419D01*
X68962046Y-76047167D01*
X69286523Y-76087346D01*
X69829732Y-76087346D01*
X69831665Y-76087346D01*
X70076334Y-76072255D01*
X70397722Y-76012178D01*
X70709291Y-75913061D01*
X71006317Y-75776406D01*
X71284300Y-75604287D01*
X71539024Y-75399312D01*
X71766628Y-75164587D01*
X71963662Y-74903672D01*
X72127139Y-74620521D01*
X72254581Y-74319426D01*
X72344057Y-74004953D01*
X72394209Y-73681868D01*
X72399239Y-73518623D01*
X76595722Y-73518623D01*
X76596079Y-73522483D01*
X76596080Y-73522492D01*
X76610489Y-73677981D01*
X76625890Y-73844183D01*
X76695836Y-74163568D01*
X76804501Y-74471937D01*
X76950237Y-74764615D01*
X76952377Y-74767844D01*
X76952379Y-74767848D01*
X77042380Y-74903672D01*
X77130836Y-75037165D01*
X77343558Y-75285455D01*
X77585181Y-75505723D01*
X77588336Y-75507956D01*
X77588343Y-75507962D01*
X77727311Y-75606335D01*
X77852040Y-75694629D01*
X78140091Y-75849309D01*
X78143709Y-75850710D01*
X78143712Y-75850712D01*
X78298373Y-75910628D01*
X78444967Y-75967419D01*
X78762046Y-76047167D01*
X79086523Y-76087346D01*
X79629732Y-76087346D01*
X79631665Y-76087346D01*
X79876334Y-76072255D01*
X80197722Y-76012178D01*
X80509291Y-75913061D01*
X80806317Y-75776406D01*
X81084300Y-75604287D01*
X81339024Y-75399312D01*
X81566628Y-75164587D01*
X81763662Y-74903672D01*
X81927139Y-74620521D01*
X82054581Y-74319426D01*
X82144057Y-74004953D01*
X82194209Y-73681868D01*
X82204278Y-73355069D01*
X82174110Y-73029509D01*
X82104164Y-72710124D01*
X81995499Y-72401755D01*
X81849763Y-72109077D01*
X81669164Y-71836527D01*
X81456442Y-71588237D01*
X81214819Y-71367969D01*
X81211665Y-71365736D01*
X81211656Y-71365729D01*
X80951122Y-71181301D01*
X80951118Y-71181298D01*
X80947960Y-71179063D01*
X80913280Y-71160440D01*
X80663325Y-71026217D01*
X80663320Y-71026214D01*
X80659909Y-71024383D01*
X80656298Y-71022984D01*
X80656287Y-71022979D01*
X80358656Y-70907676D01*
X80358647Y-70907673D01*
X80355033Y-70906273D01*
X80351275Y-70905327D01*
X80351263Y-70905324D01*
X80041724Y-70827473D01*
X80041721Y-70827472D01*
X80037954Y-70826525D01*
X80034109Y-70826048D01*
X80034099Y-70826047D01*
X79717329Y-70786823D01*
X79713477Y-70786346D01*
X79168335Y-70786346D01*
X79166438Y-70786462D01*
X79166405Y-70786464D01*
X78927533Y-70801198D01*
X78927525Y-70801198D01*
X78923666Y-70801437D01*
X78919869Y-70802146D01*
X78919859Y-70802148D01*
X78606082Y-70860802D01*
X78606067Y-70860805D01*
X78602278Y-70861514D01*
X78598597Y-70862684D01*
X78598589Y-70862687D01*
X78294403Y-70959455D01*
X78294390Y-70959459D01*
X78290709Y-70960631D01*
X78287196Y-70962246D01*
X78287181Y-70962253D01*
X77997225Y-71095656D01*
X77997219Y-71095658D01*
X77993683Y-71097286D01*
X77990381Y-71099330D01*
X77990367Y-71099338D01*
X77719008Y-71267356D01*
X77718999Y-71267362D01*
X77715700Y-71269405D01*
X77712679Y-71271835D01*
X77712669Y-71271843D01*
X77463999Y-71471947D01*
X77463995Y-71471950D01*
X77460976Y-71474380D01*
X77458289Y-71477151D01*
X77458277Y-71477162D01*
X77236067Y-71706324D01*
X77236054Y-71706338D01*
X77233372Y-71709105D01*
X77231044Y-71712186D01*
X77231036Y-71712197D01*
X77038679Y-71966919D01*
X77038673Y-71966927D01*
X77036338Y-71970020D01*
X77034396Y-71973382D01*
X77034395Y-71973385D01*
X76874802Y-72249807D01*
X76874794Y-72249822D01*
X76872861Y-72253171D01*
X76871352Y-72256734D01*
X76871347Y-72256746D01*
X76746932Y-72550690D01*
X76746929Y-72550698D01*
X76745419Y-72554266D01*
X76744361Y-72557981D01*
X76744356Y-72557998D01*
X76657005Y-72865003D01*
X76657001Y-72865018D01*
X76655943Y-72868739D01*
X76655347Y-72872573D01*
X76655347Y-72872577D01*
X76606386Y-73187984D01*
X76606384Y-73188001D01*
X76605791Y-73191824D01*
X76605671Y-73195705D01*
X76605671Y-73195710D01*
X76595841Y-73514741D01*
X76595841Y-73514750D01*
X76595722Y-73518623D01*
X72399239Y-73518623D01*
X72404278Y-73355069D01*
X72374110Y-73029509D01*
X72304164Y-72710124D01*
X72195499Y-72401755D01*
X72049763Y-72109077D01*
X71869164Y-71836527D01*
X71656442Y-71588237D01*
X71414819Y-71367969D01*
X71411665Y-71365736D01*
X71411656Y-71365729D01*
X71151122Y-71181301D01*
X71151118Y-71181298D01*
X71147960Y-71179063D01*
X71113280Y-71160440D01*
X70863325Y-71026217D01*
X70863320Y-71026214D01*
X70859909Y-71024383D01*
X70856298Y-71022984D01*
X70856287Y-71022979D01*
X70558656Y-70907676D01*
X70558647Y-70907673D01*
X70555033Y-70906273D01*
X70551275Y-70905327D01*
X70551263Y-70905324D01*
X70241724Y-70827473D01*
X70241721Y-70827472D01*
X70237954Y-70826525D01*
X70234109Y-70826048D01*
X70234099Y-70826047D01*
X69917329Y-70786823D01*
X69913477Y-70786346D01*
X69368335Y-70786346D01*
X69366438Y-70786462D01*
X69366405Y-70786464D01*
X69127533Y-70801198D01*
X69127525Y-70801198D01*
X69123666Y-70801437D01*
X69119869Y-70802146D01*
X69119859Y-70802148D01*
X68806082Y-70860802D01*
X68806067Y-70860805D01*
X68802278Y-70861514D01*
X68798597Y-70862684D01*
X68798589Y-70862687D01*
X68494403Y-70959455D01*
X68494390Y-70959459D01*
X68490709Y-70960631D01*
X68487196Y-70962246D01*
X68487181Y-70962253D01*
X68197225Y-71095656D01*
X68197219Y-71095658D01*
X68193683Y-71097286D01*
X68190381Y-71099330D01*
X68190367Y-71099338D01*
X67919008Y-71267356D01*
X67918999Y-71267362D01*
X67915700Y-71269405D01*
X67912679Y-71271835D01*
X67912669Y-71271843D01*
X67663999Y-71471947D01*
X67663995Y-71471950D01*
X67660976Y-71474380D01*
X67658289Y-71477151D01*
X67658277Y-71477162D01*
X67436067Y-71706324D01*
X67436054Y-71706338D01*
X67433372Y-71709105D01*
X67431044Y-71712186D01*
X67431036Y-71712197D01*
X67238679Y-71966919D01*
X67238673Y-71966927D01*
X67236338Y-71970020D01*
X67234396Y-71973382D01*
X67234395Y-71973385D01*
X67074802Y-72249807D01*
X67074794Y-72249822D01*
X67072861Y-72253171D01*
X67071352Y-72256734D01*
X67071347Y-72256746D01*
X66946932Y-72550690D01*
X66946929Y-72550698D01*
X66945419Y-72554266D01*
X66944361Y-72557981D01*
X66944356Y-72557998D01*
X66857005Y-72865003D01*
X66857001Y-72865018D01*
X66855943Y-72868739D01*
X66855347Y-72872573D01*
X66855347Y-72872577D01*
X66806386Y-73187984D01*
X66806384Y-73188001D01*
X66805791Y-73191824D01*
X66805671Y-73195705D01*
X66805671Y-73195710D01*
X66795841Y-73514741D01*
X66795841Y-73514750D01*
X66795722Y-73518623D01*
X62500000Y-73518623D01*
X62500000Y-69500000D01*
X83000000Y-69500000D01*
X83000000Y-77500000D01*
X90983410Y-77500000D01*
X91000000Y-77500000D01*
X91000000Y-73581777D01*
X91795722Y-73581777D01*
X91796079Y-73585637D01*
X91796080Y-73585646D01*
X91825532Y-73903474D01*
X91825890Y-73907337D01*
X91895836Y-74226722D01*
X92004501Y-74535091D01*
X92006226Y-74538555D01*
X92006228Y-74538560D01*
X92076706Y-74680099D01*
X92150237Y-74827769D01*
X92152377Y-74830998D01*
X92152379Y-74831002D01*
X92288988Y-75037165D01*
X92330836Y-75100319D01*
X92543558Y-75348609D01*
X92785181Y-75568877D01*
X92788336Y-75571110D01*
X92788343Y-75571116D01*
X92927311Y-75669489D01*
X93052040Y-75757783D01*
X93340091Y-75912463D01*
X93343709Y-75913864D01*
X93343712Y-75913866D01*
X93478324Y-75966015D01*
X93644967Y-76030573D01*
X93962046Y-76110321D01*
X94286523Y-76150500D01*
X94829732Y-76150500D01*
X94831665Y-76150500D01*
X95076334Y-76135409D01*
X95397722Y-76075332D01*
X95709291Y-75976215D01*
X96006317Y-75839560D01*
X96284300Y-75667441D01*
X96539024Y-75462466D01*
X96766628Y-75227741D01*
X96963662Y-74966826D01*
X97127139Y-74683675D01*
X97254581Y-74382580D01*
X97344057Y-74068107D01*
X97394209Y-73745022D01*
X97399239Y-73581777D01*
X101595722Y-73581777D01*
X101596079Y-73585637D01*
X101596080Y-73585646D01*
X101625532Y-73903474D01*
X101625890Y-73907337D01*
X101695836Y-74226722D01*
X101804501Y-74535091D01*
X101806226Y-74538555D01*
X101806228Y-74538560D01*
X101876706Y-74680099D01*
X101950237Y-74827769D01*
X101952377Y-74830998D01*
X101952379Y-74831002D01*
X102088988Y-75037165D01*
X102130836Y-75100319D01*
X102343558Y-75348609D01*
X102585181Y-75568877D01*
X102588336Y-75571110D01*
X102588343Y-75571116D01*
X102727311Y-75669489D01*
X102852040Y-75757783D01*
X103140091Y-75912463D01*
X103143709Y-75913864D01*
X103143712Y-75913866D01*
X103278324Y-75966015D01*
X103444967Y-76030573D01*
X103762046Y-76110321D01*
X104086523Y-76150500D01*
X104629732Y-76150500D01*
X104631665Y-76150500D01*
X104876334Y-76135409D01*
X105197722Y-76075332D01*
X105509291Y-75976215D01*
X105806317Y-75839560D01*
X106084300Y-75667441D01*
X106339024Y-75462466D01*
X106566628Y-75227741D01*
X106763662Y-74966826D01*
X106927139Y-74683675D01*
X107054581Y-74382580D01*
X107144057Y-74068107D01*
X107194209Y-73745022D01*
X107204278Y-73418223D01*
X107174110Y-73092663D01*
X107104164Y-72773278D01*
X106995499Y-72464909D01*
X106849763Y-72172231D01*
X106669164Y-71899681D01*
X106456442Y-71651391D01*
X106214819Y-71431123D01*
X106211665Y-71428890D01*
X106211656Y-71428883D01*
X105951122Y-71244455D01*
X105951118Y-71244452D01*
X105947960Y-71242217D01*
X105834520Y-71181301D01*
X105663325Y-71089371D01*
X105663320Y-71089368D01*
X105659909Y-71087537D01*
X105656298Y-71086138D01*
X105656287Y-71086133D01*
X105358656Y-70970830D01*
X105358647Y-70970827D01*
X105355033Y-70969427D01*
X105351275Y-70968481D01*
X105351263Y-70968478D01*
X105041724Y-70890627D01*
X105041721Y-70890626D01*
X105037954Y-70889679D01*
X105034109Y-70889202D01*
X105034099Y-70889201D01*
X104717329Y-70849977D01*
X104713477Y-70849500D01*
X104168335Y-70849500D01*
X104166438Y-70849616D01*
X104166405Y-70849618D01*
X103927533Y-70864352D01*
X103927525Y-70864352D01*
X103923666Y-70864591D01*
X103919869Y-70865300D01*
X103919859Y-70865302D01*
X103606082Y-70923956D01*
X103606067Y-70923959D01*
X103602278Y-70924668D01*
X103598597Y-70925838D01*
X103598589Y-70925841D01*
X103294403Y-71022609D01*
X103294390Y-71022613D01*
X103290709Y-71023785D01*
X103287196Y-71025400D01*
X103287181Y-71025407D01*
X102997225Y-71158810D01*
X102997219Y-71158812D01*
X102993683Y-71160440D01*
X102990381Y-71162484D01*
X102990367Y-71162492D01*
X102719008Y-71330510D01*
X102718999Y-71330516D01*
X102715700Y-71332559D01*
X102712679Y-71334989D01*
X102712669Y-71334997D01*
X102463999Y-71535101D01*
X102463995Y-71535104D01*
X102460976Y-71537534D01*
X102458289Y-71540305D01*
X102458277Y-71540316D01*
X102236067Y-71769478D01*
X102236054Y-71769492D01*
X102233372Y-71772259D01*
X102231044Y-71775340D01*
X102231036Y-71775351D01*
X102038679Y-72030073D01*
X102038673Y-72030081D01*
X102036338Y-72033174D01*
X102034396Y-72036536D01*
X102034395Y-72036539D01*
X101874802Y-72312961D01*
X101874794Y-72312976D01*
X101872861Y-72316325D01*
X101871352Y-72319888D01*
X101871347Y-72319900D01*
X101746932Y-72613844D01*
X101746929Y-72613852D01*
X101745419Y-72617420D01*
X101744361Y-72621135D01*
X101744356Y-72621152D01*
X101657005Y-72928157D01*
X101657001Y-72928172D01*
X101655943Y-72931893D01*
X101655347Y-72935727D01*
X101655347Y-72935731D01*
X101606386Y-73251138D01*
X101606384Y-73251155D01*
X101605791Y-73254978D01*
X101605671Y-73258859D01*
X101605671Y-73258864D01*
X101595841Y-73577895D01*
X101595841Y-73577904D01*
X101595722Y-73581777D01*
X97399239Y-73581777D01*
X97404278Y-73418223D01*
X97374110Y-73092663D01*
X97304164Y-72773278D01*
X97195499Y-72464909D01*
X97049763Y-72172231D01*
X96869164Y-71899681D01*
X96656442Y-71651391D01*
X96414819Y-71431123D01*
X96411665Y-71428890D01*
X96411656Y-71428883D01*
X96151122Y-71244455D01*
X96151118Y-71244452D01*
X96147960Y-71242217D01*
X96034520Y-71181301D01*
X95863325Y-71089371D01*
X95863320Y-71089368D01*
X95859909Y-71087537D01*
X95856298Y-71086138D01*
X95856287Y-71086133D01*
X95558656Y-70970830D01*
X95558647Y-70970827D01*
X95555033Y-70969427D01*
X95551275Y-70968481D01*
X95551263Y-70968478D01*
X95241724Y-70890627D01*
X95241721Y-70890626D01*
X95237954Y-70889679D01*
X95234109Y-70889202D01*
X95234099Y-70889201D01*
X94917329Y-70849977D01*
X94913477Y-70849500D01*
X94368335Y-70849500D01*
X94366438Y-70849616D01*
X94366405Y-70849618D01*
X94127533Y-70864352D01*
X94127525Y-70864352D01*
X94123666Y-70864591D01*
X94119869Y-70865300D01*
X94119859Y-70865302D01*
X93806082Y-70923956D01*
X93806067Y-70923959D01*
X93802278Y-70924668D01*
X93798597Y-70925838D01*
X93798589Y-70925841D01*
X93494403Y-71022609D01*
X93494390Y-71022613D01*
X93490709Y-71023785D01*
X93487196Y-71025400D01*
X93487181Y-71025407D01*
X93197225Y-71158810D01*
X93197219Y-71158812D01*
X93193683Y-71160440D01*
X93190381Y-71162484D01*
X93190367Y-71162492D01*
X92919008Y-71330510D01*
X92918999Y-71330516D01*
X92915700Y-71332559D01*
X92912679Y-71334989D01*
X92912669Y-71334997D01*
X92663999Y-71535101D01*
X92663995Y-71535104D01*
X92660976Y-71537534D01*
X92658289Y-71540305D01*
X92658277Y-71540316D01*
X92436067Y-71769478D01*
X92436054Y-71769492D01*
X92433372Y-71772259D01*
X92431044Y-71775340D01*
X92431036Y-71775351D01*
X92238679Y-72030073D01*
X92238673Y-72030081D01*
X92236338Y-72033174D01*
X92234396Y-72036536D01*
X92234395Y-72036539D01*
X92074802Y-72312961D01*
X92074794Y-72312976D01*
X92072861Y-72316325D01*
X92071352Y-72319888D01*
X92071347Y-72319900D01*
X91946932Y-72613844D01*
X91946929Y-72613852D01*
X91945419Y-72617420D01*
X91944361Y-72621135D01*
X91944356Y-72621152D01*
X91857005Y-72928157D01*
X91857001Y-72928172D01*
X91855943Y-72931893D01*
X91855347Y-72935727D01*
X91855347Y-72935731D01*
X91806386Y-73251138D01*
X91806384Y-73251155D01*
X91805791Y-73254978D01*
X91805671Y-73258859D01*
X91805671Y-73258864D01*
X91795841Y-73577895D01*
X91795841Y-73577904D01*
X91795722Y-73581777D01*
X91000000Y-73581777D01*
X91000000Y-69500000D01*
X108000000Y-69500000D01*
X108000000Y-77500000D01*
X115983410Y-77500000D01*
X116000000Y-77500000D01*
X116000000Y-73581777D01*
X116795722Y-73581777D01*
X116796079Y-73585637D01*
X116796080Y-73585646D01*
X116825532Y-73903474D01*
X116825890Y-73907337D01*
X116895836Y-74226722D01*
X117004501Y-74535091D01*
X117006226Y-74538555D01*
X117006228Y-74538560D01*
X117076706Y-74680099D01*
X117150237Y-74827769D01*
X117152377Y-74830998D01*
X117152379Y-74831002D01*
X117288988Y-75037165D01*
X117330836Y-75100319D01*
X117543558Y-75348609D01*
X117785181Y-75568877D01*
X117788336Y-75571110D01*
X117788343Y-75571116D01*
X117927311Y-75669489D01*
X118052040Y-75757783D01*
X118340091Y-75912463D01*
X118343709Y-75913864D01*
X118343712Y-75913866D01*
X118478324Y-75966015D01*
X118644967Y-76030573D01*
X118962046Y-76110321D01*
X119286523Y-76150500D01*
X119829732Y-76150500D01*
X119831665Y-76150500D01*
X120076334Y-76135409D01*
X120397722Y-76075332D01*
X120709291Y-75976215D01*
X121006317Y-75839560D01*
X121284300Y-75667441D01*
X121539024Y-75462466D01*
X121766628Y-75227741D01*
X121963662Y-74966826D01*
X122127139Y-74683675D01*
X122254581Y-74382580D01*
X122344057Y-74068107D01*
X122394209Y-73745022D01*
X122399239Y-73581777D01*
X126595722Y-73581777D01*
X126596079Y-73585637D01*
X126596080Y-73585646D01*
X126625532Y-73903474D01*
X126625890Y-73907337D01*
X126695836Y-74226722D01*
X126804501Y-74535091D01*
X126806226Y-74538555D01*
X126806228Y-74538560D01*
X126876706Y-74680099D01*
X126950237Y-74827769D01*
X126952377Y-74830998D01*
X126952379Y-74831002D01*
X127088988Y-75037165D01*
X127130836Y-75100319D01*
X127343558Y-75348609D01*
X127585181Y-75568877D01*
X127588336Y-75571110D01*
X127588343Y-75571116D01*
X127727311Y-75669489D01*
X127852040Y-75757783D01*
X128140091Y-75912463D01*
X128143709Y-75913864D01*
X128143712Y-75913866D01*
X128278324Y-75966015D01*
X128444967Y-76030573D01*
X128762046Y-76110321D01*
X129086523Y-76150500D01*
X129629732Y-76150500D01*
X129631665Y-76150500D01*
X129876334Y-76135409D01*
X130197722Y-76075332D01*
X130509291Y-75976215D01*
X130806317Y-75839560D01*
X131084300Y-75667441D01*
X131339024Y-75462466D01*
X131566628Y-75227741D01*
X131763662Y-74966826D01*
X131927139Y-74683675D01*
X132054581Y-74382580D01*
X132144057Y-74068107D01*
X132194209Y-73745022D01*
X132204278Y-73418223D01*
X132174110Y-73092663D01*
X132104164Y-72773278D01*
X131995499Y-72464909D01*
X131849763Y-72172231D01*
X131669164Y-71899681D01*
X131456442Y-71651391D01*
X131214819Y-71431123D01*
X131211665Y-71428890D01*
X131211656Y-71428883D01*
X130951122Y-71244455D01*
X130951118Y-71244452D01*
X130947960Y-71242217D01*
X130834520Y-71181301D01*
X130663325Y-71089371D01*
X130663320Y-71089368D01*
X130659909Y-71087537D01*
X130656298Y-71086138D01*
X130656287Y-71086133D01*
X130358656Y-70970830D01*
X130358647Y-70970827D01*
X130355033Y-70969427D01*
X130351275Y-70968481D01*
X130351263Y-70968478D01*
X130041724Y-70890627D01*
X130041721Y-70890626D01*
X130037954Y-70889679D01*
X130034109Y-70889202D01*
X130034099Y-70889201D01*
X129717329Y-70849977D01*
X129713477Y-70849500D01*
X129168335Y-70849500D01*
X129166438Y-70849616D01*
X129166405Y-70849618D01*
X128927533Y-70864352D01*
X128927525Y-70864352D01*
X128923666Y-70864591D01*
X128919869Y-70865300D01*
X128919859Y-70865302D01*
X128606082Y-70923956D01*
X128606067Y-70923959D01*
X128602278Y-70924668D01*
X128598597Y-70925838D01*
X128598589Y-70925841D01*
X128294403Y-71022609D01*
X128294390Y-71022613D01*
X128290709Y-71023785D01*
X128287196Y-71025400D01*
X128287181Y-71025407D01*
X127997225Y-71158810D01*
X127997219Y-71158812D01*
X127993683Y-71160440D01*
X127990381Y-71162484D01*
X127990367Y-71162492D01*
X127719008Y-71330510D01*
X127718999Y-71330516D01*
X127715700Y-71332559D01*
X127712679Y-71334989D01*
X127712669Y-71334997D01*
X127463999Y-71535101D01*
X127463995Y-71535104D01*
X127460976Y-71537534D01*
X127458289Y-71540305D01*
X127458277Y-71540316D01*
X127236067Y-71769478D01*
X127236054Y-71769492D01*
X127233372Y-71772259D01*
X127231044Y-71775340D01*
X127231036Y-71775351D01*
X127038679Y-72030073D01*
X127038673Y-72030081D01*
X127036338Y-72033174D01*
X127034396Y-72036536D01*
X127034395Y-72036539D01*
X126874802Y-72312961D01*
X126874794Y-72312976D01*
X126872861Y-72316325D01*
X126871352Y-72319888D01*
X126871347Y-72319900D01*
X126746932Y-72613844D01*
X126746929Y-72613852D01*
X126745419Y-72617420D01*
X126744361Y-72621135D01*
X126744356Y-72621152D01*
X126657005Y-72928157D01*
X126657001Y-72928172D01*
X126655943Y-72931893D01*
X126655347Y-72935727D01*
X126655347Y-72935731D01*
X126606386Y-73251138D01*
X126606384Y-73251155D01*
X126605791Y-73254978D01*
X126605671Y-73258859D01*
X126605671Y-73258864D01*
X126595841Y-73577895D01*
X126595841Y-73577904D01*
X126595722Y-73581777D01*
X122399239Y-73581777D01*
X122404278Y-73418223D01*
X122374110Y-73092663D01*
X122304164Y-72773278D01*
X122195499Y-72464909D01*
X122049763Y-72172231D01*
X121869164Y-71899681D01*
X121656442Y-71651391D01*
X121414819Y-71431123D01*
X121411665Y-71428890D01*
X121411656Y-71428883D01*
X121151122Y-71244455D01*
X121151118Y-71244452D01*
X121147960Y-71242217D01*
X121034520Y-71181301D01*
X120863325Y-71089371D01*
X120863320Y-71089368D01*
X120859909Y-71087537D01*
X120856298Y-71086138D01*
X120856287Y-71086133D01*
X120558656Y-70970830D01*
X120558647Y-70970827D01*
X120555033Y-70969427D01*
X120551275Y-70968481D01*
X120551263Y-70968478D01*
X120241724Y-70890627D01*
X120241721Y-70890626D01*
X120237954Y-70889679D01*
X120234109Y-70889202D01*
X120234099Y-70889201D01*
X119917329Y-70849977D01*
X119913477Y-70849500D01*
X119368335Y-70849500D01*
X119366438Y-70849616D01*
X119366405Y-70849618D01*
X119127533Y-70864352D01*
X119127525Y-70864352D01*
X119123666Y-70864591D01*
X119119869Y-70865300D01*
X119119859Y-70865302D01*
X118806082Y-70923956D01*
X118806067Y-70923959D01*
X118802278Y-70924668D01*
X118798597Y-70925838D01*
X118798589Y-70925841D01*
X118494403Y-71022609D01*
X118494390Y-71022613D01*
X118490709Y-71023785D01*
X118487196Y-71025400D01*
X118487181Y-71025407D01*
X118197225Y-71158810D01*
X118197219Y-71158812D01*
X118193683Y-71160440D01*
X118190381Y-71162484D01*
X118190367Y-71162492D01*
X117919008Y-71330510D01*
X117918999Y-71330516D01*
X117915700Y-71332559D01*
X117912679Y-71334989D01*
X117912669Y-71334997D01*
X117663999Y-71535101D01*
X117663995Y-71535104D01*
X117660976Y-71537534D01*
X117658289Y-71540305D01*
X117658277Y-71540316D01*
X117436067Y-71769478D01*
X117436054Y-71769492D01*
X117433372Y-71772259D01*
X117431044Y-71775340D01*
X117431036Y-71775351D01*
X117238679Y-72030073D01*
X117238673Y-72030081D01*
X117236338Y-72033174D01*
X117234396Y-72036536D01*
X117234395Y-72036539D01*
X117074802Y-72312961D01*
X117074794Y-72312976D01*
X117072861Y-72316325D01*
X117071352Y-72319888D01*
X117071347Y-72319900D01*
X116946932Y-72613844D01*
X116946929Y-72613852D01*
X116945419Y-72617420D01*
X116944361Y-72621135D01*
X116944356Y-72621152D01*
X116857005Y-72928157D01*
X116857001Y-72928172D01*
X116855943Y-72931893D01*
X116855347Y-72935727D01*
X116855347Y-72935731D01*
X116806386Y-73251138D01*
X116806384Y-73251155D01*
X116805791Y-73254978D01*
X116805671Y-73258859D01*
X116805671Y-73258864D01*
X116795841Y-73577895D01*
X116795841Y-73577904D01*
X116795722Y-73581777D01*
X116000000Y-73581777D01*
X116000000Y-69500000D01*
X133000000Y-69500000D01*
X133000000Y-77500000D01*
X140983410Y-77500000D01*
X141000000Y-77500000D01*
X141000000Y-73581777D01*
X141795722Y-73581777D01*
X141796079Y-73585637D01*
X141796080Y-73585646D01*
X141825532Y-73903474D01*
X141825890Y-73907337D01*
X141895836Y-74226722D01*
X142004501Y-74535091D01*
X142006226Y-74538555D01*
X142006228Y-74538560D01*
X142076706Y-74680099D01*
X142150237Y-74827769D01*
X142152377Y-74830998D01*
X142152379Y-74831002D01*
X142288988Y-75037165D01*
X142330836Y-75100319D01*
X142543558Y-75348609D01*
X142785181Y-75568877D01*
X142788336Y-75571110D01*
X142788343Y-75571116D01*
X142927311Y-75669489D01*
X143052040Y-75757783D01*
X143340091Y-75912463D01*
X143343709Y-75913864D01*
X143343712Y-75913866D01*
X143478324Y-75966015D01*
X143644967Y-76030573D01*
X143962046Y-76110321D01*
X144286523Y-76150500D01*
X144829732Y-76150500D01*
X144831665Y-76150500D01*
X145076334Y-76135409D01*
X145397722Y-76075332D01*
X145709291Y-75976215D01*
X146006317Y-75839560D01*
X146284300Y-75667441D01*
X146539024Y-75462466D01*
X146766628Y-75227741D01*
X146963662Y-74966826D01*
X147127139Y-74683675D01*
X147254581Y-74382580D01*
X147344057Y-74068107D01*
X147394209Y-73745022D01*
X147399239Y-73581777D01*
X151595722Y-73581777D01*
X151596079Y-73585637D01*
X151596080Y-73585646D01*
X151625532Y-73903474D01*
X151625890Y-73907337D01*
X151695836Y-74226722D01*
X151804501Y-74535091D01*
X151806226Y-74538555D01*
X151806228Y-74538560D01*
X151876706Y-74680099D01*
X151950237Y-74827769D01*
X151952377Y-74830998D01*
X151952379Y-74831002D01*
X152088988Y-75037165D01*
X152130836Y-75100319D01*
X152343558Y-75348609D01*
X152585181Y-75568877D01*
X152588336Y-75571110D01*
X152588343Y-75571116D01*
X152727311Y-75669489D01*
X152852040Y-75757783D01*
X153140091Y-75912463D01*
X153143709Y-75913864D01*
X153143712Y-75913866D01*
X153278324Y-75966015D01*
X153444967Y-76030573D01*
X153762046Y-76110321D01*
X154086523Y-76150500D01*
X154629732Y-76150500D01*
X154631665Y-76150500D01*
X154876334Y-76135409D01*
X155197722Y-76075332D01*
X155509291Y-75976215D01*
X155806317Y-75839560D01*
X156084300Y-75667441D01*
X156339024Y-75462466D01*
X156566628Y-75227741D01*
X156763662Y-74966826D01*
X156927139Y-74683675D01*
X157054581Y-74382580D01*
X157144057Y-74068107D01*
X157194209Y-73745022D01*
X157204278Y-73418223D01*
X157174110Y-73092663D01*
X157104164Y-72773278D01*
X156995499Y-72464909D01*
X156849763Y-72172231D01*
X156669164Y-71899681D01*
X156456442Y-71651391D01*
X156214819Y-71431123D01*
X156211665Y-71428890D01*
X156211656Y-71428883D01*
X155951122Y-71244455D01*
X155951118Y-71244452D01*
X155947960Y-71242217D01*
X155834520Y-71181301D01*
X155663325Y-71089371D01*
X155663320Y-71089368D01*
X155659909Y-71087537D01*
X155656298Y-71086138D01*
X155656287Y-71086133D01*
X155358656Y-70970830D01*
X155358647Y-70970827D01*
X155355033Y-70969427D01*
X155351275Y-70968481D01*
X155351263Y-70968478D01*
X155041724Y-70890627D01*
X155041721Y-70890626D01*
X155037954Y-70889679D01*
X155034109Y-70889202D01*
X155034099Y-70889201D01*
X154717329Y-70849977D01*
X154713477Y-70849500D01*
X154168335Y-70849500D01*
X154166438Y-70849616D01*
X154166405Y-70849618D01*
X153927533Y-70864352D01*
X153927525Y-70864352D01*
X153923666Y-70864591D01*
X153919869Y-70865300D01*
X153919859Y-70865302D01*
X153606082Y-70923956D01*
X153606067Y-70923959D01*
X153602278Y-70924668D01*
X153598597Y-70925838D01*
X153598589Y-70925841D01*
X153294403Y-71022609D01*
X153294390Y-71022613D01*
X153290709Y-71023785D01*
X153287196Y-71025400D01*
X153287181Y-71025407D01*
X152997225Y-71158810D01*
X152997219Y-71158812D01*
X152993683Y-71160440D01*
X152990381Y-71162484D01*
X152990367Y-71162492D01*
X152719008Y-71330510D01*
X152718999Y-71330516D01*
X152715700Y-71332559D01*
X152712679Y-71334989D01*
X152712669Y-71334997D01*
X152463999Y-71535101D01*
X152463995Y-71535104D01*
X152460976Y-71537534D01*
X152458289Y-71540305D01*
X152458277Y-71540316D01*
X152236067Y-71769478D01*
X152236054Y-71769492D01*
X152233372Y-71772259D01*
X152231044Y-71775340D01*
X152231036Y-71775351D01*
X152038679Y-72030073D01*
X152038673Y-72030081D01*
X152036338Y-72033174D01*
X152034396Y-72036536D01*
X152034395Y-72036539D01*
X151874802Y-72312961D01*
X151874794Y-72312976D01*
X151872861Y-72316325D01*
X151871352Y-72319888D01*
X151871347Y-72319900D01*
X151746932Y-72613844D01*
X151746929Y-72613852D01*
X151745419Y-72617420D01*
X151744361Y-72621135D01*
X151744356Y-72621152D01*
X151657005Y-72928157D01*
X151657001Y-72928172D01*
X151655943Y-72931893D01*
X151655347Y-72935727D01*
X151655347Y-72935731D01*
X151606386Y-73251138D01*
X151606384Y-73251155D01*
X151605791Y-73254978D01*
X151605671Y-73258859D01*
X151605671Y-73258864D01*
X151595841Y-73577895D01*
X151595841Y-73577904D01*
X151595722Y-73581777D01*
X147399239Y-73581777D01*
X147404278Y-73418223D01*
X147374110Y-73092663D01*
X147304164Y-72773278D01*
X147195499Y-72464909D01*
X147049763Y-72172231D01*
X146869164Y-71899681D01*
X146656442Y-71651391D01*
X146414819Y-71431123D01*
X146411665Y-71428890D01*
X146411656Y-71428883D01*
X146151122Y-71244455D01*
X146151118Y-71244452D01*
X146147960Y-71242217D01*
X146034520Y-71181301D01*
X145863325Y-71089371D01*
X145863320Y-71089368D01*
X145859909Y-71087537D01*
X145856298Y-71086138D01*
X145856287Y-71086133D01*
X145558656Y-70970830D01*
X145558647Y-70970827D01*
X145555033Y-70969427D01*
X145551275Y-70968481D01*
X145551263Y-70968478D01*
X145241724Y-70890627D01*
X145241721Y-70890626D01*
X145237954Y-70889679D01*
X145234109Y-70889202D01*
X145234099Y-70889201D01*
X144917329Y-70849977D01*
X144913477Y-70849500D01*
X144368335Y-70849500D01*
X144366438Y-70849616D01*
X144366405Y-70849618D01*
X144127533Y-70864352D01*
X144127525Y-70864352D01*
X144123666Y-70864591D01*
X144119869Y-70865300D01*
X144119859Y-70865302D01*
X143806082Y-70923956D01*
X143806067Y-70923959D01*
X143802278Y-70924668D01*
X143798597Y-70925838D01*
X143798589Y-70925841D01*
X143494403Y-71022609D01*
X143494390Y-71022613D01*
X143490709Y-71023785D01*
X143487196Y-71025400D01*
X143487181Y-71025407D01*
X143197225Y-71158810D01*
X143197219Y-71158812D01*
X143193683Y-71160440D01*
X143190381Y-71162484D01*
X143190367Y-71162492D01*
X142919008Y-71330510D01*
X142918999Y-71330516D01*
X142915700Y-71332559D01*
X142912679Y-71334989D01*
X142912669Y-71334997D01*
X142663999Y-71535101D01*
X142663995Y-71535104D01*
X142660976Y-71537534D01*
X142658289Y-71540305D01*
X142658277Y-71540316D01*
X142436067Y-71769478D01*
X142436054Y-71769492D01*
X142433372Y-71772259D01*
X142431044Y-71775340D01*
X142431036Y-71775351D01*
X142238679Y-72030073D01*
X142238673Y-72030081D01*
X142236338Y-72033174D01*
X142234396Y-72036536D01*
X142234395Y-72036539D01*
X142074802Y-72312961D01*
X142074794Y-72312976D01*
X142072861Y-72316325D01*
X142071352Y-72319888D01*
X142071347Y-72319900D01*
X141946932Y-72613844D01*
X141946929Y-72613852D01*
X141945419Y-72617420D01*
X141944361Y-72621135D01*
X141944356Y-72621152D01*
X141857005Y-72928157D01*
X141857001Y-72928172D01*
X141855943Y-72931893D01*
X141855347Y-72935727D01*
X141855347Y-72935731D01*
X141806386Y-73251138D01*
X141806384Y-73251155D01*
X141805791Y-73254978D01*
X141805671Y-73258859D01*
X141805671Y-73258864D01*
X141795841Y-73577895D01*
X141795841Y-73577904D01*
X141795722Y-73581777D01*
X141000000Y-73581777D01*
X141000000Y-69500000D01*
X133000000Y-69500000D01*
X116000000Y-69500000D01*
X108000000Y-69500000D01*
X91000000Y-69500000D01*
X83000000Y-69500000D01*
X62500000Y-69500000D01*
X62500000Y-69126000D01*
X62516881Y-69063000D01*
X62563000Y-69016881D01*
X62626000Y-69000000D01*
X69983410Y-69000000D01*
X70000000Y-69000000D01*
X70000000Y-61626000D01*
X70016881Y-61563000D01*
X70063000Y-61516881D01*
X70126000Y-61500000D01*
X153874000Y-61500000D01*
X153937000Y-61516881D01*
G37*
G04 #@! TD.AperFunction*
M02*
