G04 #@! TF.GenerationSoftware,KiCad,Pcbnew,(7.0.0)*
G04 #@! TF.CreationDate,2023-05-19T01:57:06+02:00*
G04 #@! TF.ProjectId,Pad,5061642e-6b69-4636-9164-5f7063625858,rev?*
G04 #@! TF.SameCoordinates,Original*
G04 #@! TF.FileFunction,Soldermask,Bot*
G04 #@! TF.FilePolarity,Negative*
%FSLAX46Y46*%
G04 Gerber Fmt 4.6, Leading zero omitted, Abs format (unit mm)*
G04 Created by KiCad (PCBNEW (7.0.0)) date 2023-05-19 01:57:06*
%MOMM*%
%LPD*%
G01*
G04 APERTURE LIST*
G04 Aperture macros list*
%AMRoundRect*
0 Rectangle with rounded corners*
0 $1 Rounding radius*
0 $2 $3 $4 $5 $6 $7 $8 $9 X,Y pos of 4 corners*
0 Add a 4 corners polygon primitive as box body*
4,1,4,$2,$3,$4,$5,$6,$7,$8,$9,$2,$3,0*
0 Add four circle primitives for the rounded corners*
1,1,$1+$1,$2,$3*
1,1,$1+$1,$4,$5*
1,1,$1+$1,$6,$7*
1,1,$1+$1,$8,$9*
0 Add four rect primitives between the rounded corners*
20,1,$1+$1,$2,$3,$4,$5,0*
20,1,$1+$1,$4,$5,$6,$7,0*
20,1,$1+$1,$6,$7,$8,$9,0*
20,1,$1+$1,$8,$9,$2,$3,0*%
G04 Aperture macros list end*
%ADD10O,30.000000X0.500000*%
%ADD11C,9.500000*%
%ADD12C,3.200000*%
%ADD13R,1.700000X1.700000*%
%ADD14O,1.700000X1.700000*%
%ADD15C,2.200000*%
%ADD16C,3.000000*%
%ADD17RoundRect,0.250000X0.600000X-0.600000X0.600000X0.600000X-0.600000X0.600000X-0.600000X-0.600000X0*%
%ADD18C,1.700000*%
G04 APERTURE END LIST*
D10*
X111001599Y-236998399D03*
X111001599Y-236998399D03*
X78099999Y-236999999D03*
X78099999Y-236999999D03*
X143799999Y-236999999D03*
X143799999Y-236999999D03*
D11*
X73500000Y-249500000D03*
D12*
X136000000Y-241000000D03*
D11*
X98500000Y-249500000D03*
X148500000Y-249500000D03*
X123500000Y-274500000D03*
D12*
X86000000Y-283000000D03*
D11*
X98500000Y-274500000D03*
X123500000Y-249500000D03*
D12*
X86000000Y-241000000D03*
D11*
X148500000Y-274500000D03*
D13*
X62749999Y-264539999D03*
D14*
X62749999Y-261999999D03*
X62749999Y-259459999D03*
D13*
X159249999Y-264539999D03*
D14*
X159249999Y-261999999D03*
X159249999Y-259459999D03*
D12*
X136000000Y-283000000D03*
D11*
X73500000Y-274500000D03*
D15*
X63500000Y-189500000D03*
X108500000Y-234500000D03*
X158500000Y-189500000D03*
D16*
X98550000Y-211950000D03*
D15*
X108500000Y-189500000D03*
X63500000Y-234500000D03*
D16*
X123550000Y-212000000D03*
D15*
X113500000Y-234500000D03*
D16*
X136050000Y-199450000D03*
D15*
X158500000Y-234500000D03*
D16*
X73559700Y-211939700D03*
D15*
X113500000Y-189500000D03*
D16*
X136050000Y-224450000D03*
X148550000Y-211950000D03*
X86050000Y-224450000D03*
X86050000Y-199450000D03*
D17*
X91080000Y-213200000D03*
D18*
X91080000Y-210660000D03*
X88540000Y-213200000D03*
X88540000Y-210660000D03*
X86000000Y-213200000D03*
X86000000Y-210660000D03*
X83460000Y-213200000D03*
X83460000Y-210660000D03*
X80920000Y-213200000D03*
X80920000Y-210660000D03*
D17*
X141100000Y-213252500D03*
D18*
X141100000Y-210712500D03*
X138560000Y-213252500D03*
X138560000Y-210712500D03*
X136020000Y-213252500D03*
X136020000Y-210712500D03*
X133480000Y-213252500D03*
X133480000Y-210712500D03*
X130940000Y-213252500D03*
X130940000Y-210712500D03*
D17*
X116080000Y-213252500D03*
D18*
X116080000Y-210712500D03*
X113540000Y-213252500D03*
X113540000Y-210712500D03*
X111000000Y-213252500D03*
X111000000Y-210712500D03*
X108460000Y-213252500D03*
X108460000Y-210712500D03*
X105920000Y-213252500D03*
X105920000Y-210712500D03*
M02*
