%TF.GenerationSoftware,KiCad,Pcbnew,(7.0.0)*%
%TF.CreationDate,2023-05-19T00:04:05+02:00*%
%TF.ProjectId,BP,42502e6b-6963-4616-945f-706362585858,rev?*%
%TF.SameCoordinates,Original*%
%TF.FileFunction,Legend,Top*%
%TF.FilePolarity,Positive*%
%FSLAX46Y46*%
G04 Gerber Fmt 4.6, Leading zero omitted, Abs format (unit mm)*
G04 Created by KiCad (PCBNEW (7.0.0)) date 2023-05-19 00:04:05*
%MOMM*%
%LPD*%
G01*
G04 APERTURE LIST*
G04 Aperture macros list*
%AMRoundRect*
0 Rectangle with rounded corners*
0 $1 Rounding radius*
0 $2 $3 $4 $5 $6 $7 $8 $9 X,Y pos of 4 corners*
0 Add a 4 corners polygon primitive as box body*
4,1,4,$2,$3,$4,$5,$6,$7,$8,$9,$2,$3,0*
0 Add four circle primitives for the rounded corners*
1,1,$1+$1,$2,$3*
1,1,$1+$1,$4,$5*
1,1,$1+$1,$6,$7*
1,1,$1+$1,$8,$9*
0 Add four rect primitives between the rounded corners*
20,1,$1+$1,$2,$3,$4,$5,0*
20,1,$1+$1,$4,$5,$6,$7,0*
20,1,$1+$1,$6,$7,$8,$9,0*
20,1,$1+$1,$8,$9,$2,$3,0*%
G04 Aperture macros list end*
%ADD10C,0.150000*%
%ADD11C,0.254000*%
%ADD12C,0.152400*%
%ADD13C,1.676400*%
%ADD14C,2.000000*%
%ADD15C,3.200000*%
%ADD16RoundRect,0.250000X0.600000X-0.600000X0.600000X0.600000X-0.600000X0.600000X-0.600000X-0.600000X0*%
%ADD17C,1.700000*%
G04 APERTURE END LIST*
D10*
X67342857Y-211042380D02*
X67961904Y-211042380D01*
X67961904Y-211042380D02*
X67628571Y-211423333D01*
X67628571Y-211423333D02*
X67771428Y-211423333D01*
X67771428Y-211423333D02*
X67866666Y-211470952D01*
X67866666Y-211470952D02*
X67914285Y-211518571D01*
X67914285Y-211518571D02*
X67961904Y-211613809D01*
X67961904Y-211613809D02*
X67961904Y-211851904D01*
X67961904Y-211851904D02*
X67914285Y-211947142D01*
X67914285Y-211947142D02*
X67866666Y-211994761D01*
X67866666Y-211994761D02*
X67771428Y-212042380D01*
X67771428Y-212042380D02*
X67485714Y-212042380D01*
X67485714Y-212042380D02*
X67390476Y-211994761D01*
X67390476Y-211994761D02*
X67342857Y-211947142D01*
X68723809Y-211518571D02*
X68390476Y-211518571D01*
X68390476Y-212042380D02*
X68390476Y-211042380D01*
X68390476Y-211042380D02*
X68866666Y-211042380D01*
X69104762Y-211042380D02*
X69676190Y-211042380D01*
X69390476Y-212042380D02*
X69390476Y-211042380D01*
X70485714Y-212042380D02*
X70009524Y-212042380D01*
X70009524Y-212042380D02*
X70009524Y-211042380D01*
X71247619Y-211042380D02*
X71057143Y-211042380D01*
X71057143Y-211042380D02*
X70961905Y-211090000D01*
X70961905Y-211090000D02*
X70914286Y-211137619D01*
X70914286Y-211137619D02*
X70819048Y-211280476D01*
X70819048Y-211280476D02*
X70771429Y-211470952D01*
X70771429Y-211470952D02*
X70771429Y-211851904D01*
X70771429Y-211851904D02*
X70819048Y-211947142D01*
X70819048Y-211947142D02*
X70866667Y-211994761D01*
X70866667Y-211994761D02*
X70961905Y-212042380D01*
X70961905Y-212042380D02*
X71152381Y-212042380D01*
X71152381Y-212042380D02*
X71247619Y-211994761D01*
X71247619Y-211994761D02*
X71295238Y-211947142D01*
X71295238Y-211947142D02*
X71342857Y-211851904D01*
X71342857Y-211851904D02*
X71342857Y-211613809D01*
X71342857Y-211613809D02*
X71295238Y-211518571D01*
X71295238Y-211518571D02*
X71247619Y-211470952D01*
X71247619Y-211470952D02*
X71152381Y-211423333D01*
X71152381Y-211423333D02*
X70961905Y-211423333D01*
X70961905Y-211423333D02*
X70866667Y-211470952D01*
X70866667Y-211470952D02*
X70819048Y-211518571D01*
X70819048Y-211518571D02*
X70771429Y-211613809D01*
X67580952Y-213662380D02*
X67485714Y-213614761D01*
X67485714Y-213614761D02*
X67438095Y-213567142D01*
X67438095Y-213567142D02*
X67390476Y-213471904D01*
X67390476Y-213471904D02*
X67390476Y-213186190D01*
X67390476Y-213186190D02*
X67438095Y-213090952D01*
X67438095Y-213090952D02*
X67485714Y-213043333D01*
X67485714Y-213043333D02*
X67580952Y-212995714D01*
X67580952Y-212995714D02*
X67723809Y-212995714D01*
X67723809Y-212995714D02*
X67819047Y-213043333D01*
X67819047Y-213043333D02*
X67866666Y-213090952D01*
X67866666Y-213090952D02*
X67914285Y-213186190D01*
X67914285Y-213186190D02*
X67914285Y-213471904D01*
X67914285Y-213471904D02*
X67866666Y-213567142D01*
X67866666Y-213567142D02*
X67819047Y-213614761D01*
X67819047Y-213614761D02*
X67723809Y-213662380D01*
X67723809Y-213662380D02*
X67580952Y-213662380D01*
X68342857Y-213662380D02*
X68342857Y-212995714D01*
X68342857Y-213186190D02*
X68390476Y-213090952D01*
X68390476Y-213090952D02*
X68438095Y-213043333D01*
X68438095Y-213043333D02*
X68533333Y-212995714D01*
X68533333Y-212995714D02*
X68628571Y-212995714D01*
X67342857Y-214282380D02*
X67961904Y-214282380D01*
X67961904Y-214282380D02*
X67628571Y-214663333D01*
X67628571Y-214663333D02*
X67771428Y-214663333D01*
X67771428Y-214663333D02*
X67866666Y-214710952D01*
X67866666Y-214710952D02*
X67914285Y-214758571D01*
X67914285Y-214758571D02*
X67961904Y-214853809D01*
X67961904Y-214853809D02*
X67961904Y-215091904D01*
X67961904Y-215091904D02*
X67914285Y-215187142D01*
X67914285Y-215187142D02*
X67866666Y-215234761D01*
X67866666Y-215234761D02*
X67771428Y-215282380D01*
X67771428Y-215282380D02*
X67485714Y-215282380D01*
X67485714Y-215282380D02*
X67390476Y-215234761D01*
X67390476Y-215234761D02*
X67342857Y-215187142D01*
X68723809Y-214758571D02*
X68390476Y-214758571D01*
X68390476Y-215282380D02*
X68390476Y-214282380D01*
X68390476Y-214282380D02*
X68866666Y-214282380D01*
X69104762Y-214282380D02*
X69676190Y-214282380D01*
X69390476Y-215282380D02*
X69390476Y-214282380D01*
X70009524Y-215282380D02*
X70009524Y-214282380D01*
X70009524Y-214758571D02*
X70580952Y-214758571D01*
X70580952Y-215282380D02*
X70580952Y-214282380D01*
X71104762Y-215282380D02*
X71295238Y-215282380D01*
X71295238Y-215282380D02*
X71390476Y-215234761D01*
X71390476Y-215234761D02*
X71438095Y-215187142D01*
X71438095Y-215187142D02*
X71533333Y-215044285D01*
X71533333Y-215044285D02*
X71580952Y-214853809D01*
X71580952Y-214853809D02*
X71580952Y-214472857D01*
X71580952Y-214472857D02*
X71533333Y-214377619D01*
X71533333Y-214377619D02*
X71485714Y-214330000D01*
X71485714Y-214330000D02*
X71390476Y-214282380D01*
X71390476Y-214282380D02*
X71200000Y-214282380D01*
X71200000Y-214282380D02*
X71104762Y-214330000D01*
X71104762Y-214330000D02*
X71057143Y-214377619D01*
X71057143Y-214377619D02*
X71009524Y-214472857D01*
X71009524Y-214472857D02*
X71009524Y-214710952D01*
X71009524Y-214710952D02*
X71057143Y-214806190D01*
X71057143Y-214806190D02*
X71104762Y-214853809D01*
X71104762Y-214853809D02*
X71200000Y-214901428D01*
X71200000Y-214901428D02*
X71390476Y-214901428D01*
X71390476Y-214901428D02*
X71485714Y-214853809D01*
X71485714Y-214853809D02*
X71533333Y-214806190D01*
X71533333Y-214806190D02*
X71580952Y-214710952D01*
X83738095Y-210282380D02*
X83738095Y-209282380D01*
X83738095Y-209282380D02*
X83976190Y-209282380D01*
X83976190Y-209282380D02*
X84119047Y-209330000D01*
X84119047Y-209330000D02*
X84214285Y-209425238D01*
X84214285Y-209425238D02*
X84261904Y-209520476D01*
X84261904Y-209520476D02*
X84309523Y-209710952D01*
X84309523Y-209710952D02*
X84309523Y-209853809D01*
X84309523Y-209853809D02*
X84261904Y-210044285D01*
X84261904Y-210044285D02*
X84214285Y-210139523D01*
X84214285Y-210139523D02*
X84119047Y-210234761D01*
X84119047Y-210234761D02*
X83976190Y-210282380D01*
X83976190Y-210282380D02*
X83738095Y-210282380D01*
X84690476Y-209377619D02*
X84738095Y-209330000D01*
X84738095Y-209330000D02*
X84833333Y-209282380D01*
X84833333Y-209282380D02*
X85071428Y-209282380D01*
X85071428Y-209282380D02*
X85166666Y-209330000D01*
X85166666Y-209330000D02*
X85214285Y-209377619D01*
X85214285Y-209377619D02*
X85261904Y-209472857D01*
X85261904Y-209472857D02*
X85261904Y-209568095D01*
X85261904Y-209568095D02*
X85214285Y-209710952D01*
X85214285Y-209710952D02*
X84642857Y-210282380D01*
X84642857Y-210282380D02*
X85261904Y-210282380D01*
X133738095Y-209782380D02*
X133738095Y-208782380D01*
X133738095Y-208782380D02*
X133976190Y-208782380D01*
X133976190Y-208782380D02*
X134119047Y-208830000D01*
X134119047Y-208830000D02*
X134214285Y-208925238D01*
X134214285Y-208925238D02*
X134261904Y-209020476D01*
X134261904Y-209020476D02*
X134309523Y-209210952D01*
X134309523Y-209210952D02*
X134309523Y-209353809D01*
X134309523Y-209353809D02*
X134261904Y-209544285D01*
X134261904Y-209544285D02*
X134214285Y-209639523D01*
X134214285Y-209639523D02*
X134119047Y-209734761D01*
X134119047Y-209734761D02*
X133976190Y-209782380D01*
X133976190Y-209782380D02*
X133738095Y-209782380D01*
X134690476Y-208877619D02*
X134738095Y-208830000D01*
X134738095Y-208830000D02*
X134833333Y-208782380D01*
X134833333Y-208782380D02*
X135071428Y-208782380D01*
X135071428Y-208782380D02*
X135166666Y-208830000D01*
X135166666Y-208830000D02*
X135214285Y-208877619D01*
X135214285Y-208877619D02*
X135261904Y-208972857D01*
X135261904Y-208972857D02*
X135261904Y-209068095D01*
X135261904Y-209068095D02*
X135214285Y-209210952D01*
X135214285Y-209210952D02*
X134642857Y-209782380D01*
X134642857Y-209782380D02*
X135261904Y-209782380D01*
X156438095Y-227101428D02*
X157200000Y-227101428D01*
X136238095Y-217282380D02*
X136238095Y-216282380D01*
X136238095Y-216282380D02*
X136476190Y-216282380D01*
X136476190Y-216282380D02*
X136619047Y-216330000D01*
X136619047Y-216330000D02*
X136714285Y-216425238D01*
X136714285Y-216425238D02*
X136761904Y-216520476D01*
X136761904Y-216520476D02*
X136809523Y-216710952D01*
X136809523Y-216710952D02*
X136809523Y-216853809D01*
X136809523Y-216853809D02*
X136761904Y-217044285D01*
X136761904Y-217044285D02*
X136714285Y-217139523D01*
X136714285Y-217139523D02*
X136619047Y-217234761D01*
X136619047Y-217234761D02*
X136476190Y-217282380D01*
X136476190Y-217282380D02*
X136238095Y-217282380D01*
X137714285Y-216282380D02*
X137238095Y-216282380D01*
X137238095Y-216282380D02*
X137190476Y-216758571D01*
X137190476Y-216758571D02*
X137238095Y-216710952D01*
X137238095Y-216710952D02*
X137333333Y-216663333D01*
X137333333Y-216663333D02*
X137571428Y-216663333D01*
X137571428Y-216663333D02*
X137666666Y-216710952D01*
X137666666Y-216710952D02*
X137714285Y-216758571D01*
X137714285Y-216758571D02*
X137761904Y-216853809D01*
X137761904Y-216853809D02*
X137761904Y-217091904D01*
X137761904Y-217091904D02*
X137714285Y-217187142D01*
X137714285Y-217187142D02*
X137666666Y-217234761D01*
X137666666Y-217234761D02*
X137571428Y-217282380D01*
X137571428Y-217282380D02*
X137333333Y-217282380D01*
X137333333Y-217282380D02*
X137238095Y-217234761D01*
X137238095Y-217234761D02*
X137190476Y-217187142D01*
X138738095Y-209782380D02*
X138738095Y-208782380D01*
X138738095Y-208782380D02*
X138976190Y-208782380D01*
X138976190Y-208782380D02*
X139119047Y-208830000D01*
X139119047Y-208830000D02*
X139214285Y-208925238D01*
X139214285Y-208925238D02*
X139261904Y-209020476D01*
X139261904Y-209020476D02*
X139309523Y-209210952D01*
X139309523Y-209210952D02*
X139309523Y-209353809D01*
X139309523Y-209353809D02*
X139261904Y-209544285D01*
X139261904Y-209544285D02*
X139214285Y-209639523D01*
X139214285Y-209639523D02*
X139119047Y-209734761D01*
X139119047Y-209734761D02*
X138976190Y-209782380D01*
X138976190Y-209782380D02*
X138738095Y-209782380D01*
X140166666Y-208782380D02*
X139976190Y-208782380D01*
X139976190Y-208782380D02*
X139880952Y-208830000D01*
X139880952Y-208830000D02*
X139833333Y-208877619D01*
X139833333Y-208877619D02*
X139738095Y-209020476D01*
X139738095Y-209020476D02*
X139690476Y-209210952D01*
X139690476Y-209210952D02*
X139690476Y-209591904D01*
X139690476Y-209591904D02*
X139738095Y-209687142D01*
X139738095Y-209687142D02*
X139785714Y-209734761D01*
X139785714Y-209734761D02*
X139880952Y-209782380D01*
X139880952Y-209782380D02*
X140071428Y-209782380D01*
X140071428Y-209782380D02*
X140166666Y-209734761D01*
X140166666Y-209734761D02*
X140214285Y-209687142D01*
X140214285Y-209687142D02*
X140261904Y-209591904D01*
X140261904Y-209591904D02*
X140261904Y-209353809D01*
X140261904Y-209353809D02*
X140214285Y-209258571D01*
X140214285Y-209258571D02*
X140166666Y-209210952D01*
X140166666Y-209210952D02*
X140071428Y-209163333D01*
X140071428Y-209163333D02*
X139880952Y-209163333D01*
X139880952Y-209163333D02*
X139785714Y-209210952D01*
X139785714Y-209210952D02*
X139738095Y-209258571D01*
X139738095Y-209258571D02*
X139690476Y-209353809D01*
X106838095Y-225201428D02*
X107600000Y-225201428D01*
X91538095Y-199401428D02*
X92300000Y-199401428D01*
X91919047Y-199782380D02*
X91919047Y-199020476D01*
X88738095Y-210282380D02*
X88738095Y-209282380D01*
X88738095Y-209282380D02*
X88976190Y-209282380D01*
X88976190Y-209282380D02*
X89119047Y-209330000D01*
X89119047Y-209330000D02*
X89214285Y-209425238D01*
X89214285Y-209425238D02*
X89261904Y-209520476D01*
X89261904Y-209520476D02*
X89309523Y-209710952D01*
X89309523Y-209710952D02*
X89309523Y-209853809D01*
X89309523Y-209853809D02*
X89261904Y-210044285D01*
X89261904Y-210044285D02*
X89214285Y-210139523D01*
X89214285Y-210139523D02*
X89119047Y-210234761D01*
X89119047Y-210234761D02*
X88976190Y-210282380D01*
X88976190Y-210282380D02*
X88738095Y-210282380D01*
X90166666Y-209282380D02*
X89976190Y-209282380D01*
X89976190Y-209282380D02*
X89880952Y-209330000D01*
X89880952Y-209330000D02*
X89833333Y-209377619D01*
X89833333Y-209377619D02*
X89738095Y-209520476D01*
X89738095Y-209520476D02*
X89690476Y-209710952D01*
X89690476Y-209710952D02*
X89690476Y-210091904D01*
X89690476Y-210091904D02*
X89738095Y-210187142D01*
X89738095Y-210187142D02*
X89785714Y-210234761D01*
X89785714Y-210234761D02*
X89880952Y-210282380D01*
X89880952Y-210282380D02*
X90071428Y-210282380D01*
X90071428Y-210282380D02*
X90166666Y-210234761D01*
X90166666Y-210234761D02*
X90214285Y-210187142D01*
X90214285Y-210187142D02*
X90261904Y-210091904D01*
X90261904Y-210091904D02*
X90261904Y-209853809D01*
X90261904Y-209853809D02*
X90214285Y-209758571D01*
X90214285Y-209758571D02*
X90166666Y-209710952D01*
X90166666Y-209710952D02*
X90071428Y-209663333D01*
X90071428Y-209663333D02*
X89880952Y-209663333D01*
X89880952Y-209663333D02*
X89785714Y-209710952D01*
X89785714Y-209710952D02*
X89738095Y-209758571D01*
X89738095Y-209758571D02*
X89690476Y-209853809D01*
X88738095Y-217782380D02*
X88738095Y-216782380D01*
X88738095Y-216782380D02*
X88976190Y-216782380D01*
X88976190Y-216782380D02*
X89119047Y-216830000D01*
X89119047Y-216830000D02*
X89214285Y-216925238D01*
X89214285Y-216925238D02*
X89261904Y-217020476D01*
X89261904Y-217020476D02*
X89309523Y-217210952D01*
X89309523Y-217210952D02*
X89309523Y-217353809D01*
X89309523Y-217353809D02*
X89261904Y-217544285D01*
X89261904Y-217544285D02*
X89214285Y-217639523D01*
X89214285Y-217639523D02*
X89119047Y-217734761D01*
X89119047Y-217734761D02*
X88976190Y-217782380D01*
X88976190Y-217782380D02*
X88738095Y-217782380D01*
X89642857Y-216782380D02*
X90309523Y-216782380D01*
X90309523Y-216782380D02*
X89880952Y-217782380D01*
X91938095Y-225501428D02*
X92700000Y-225501428D01*
X92319047Y-225882380D02*
X92319047Y-225120476D01*
X130938095Y-225001428D02*
X131700000Y-225001428D01*
X131238095Y-209782380D02*
X131238095Y-208782380D01*
X131238095Y-208782380D02*
X131476190Y-208782380D01*
X131476190Y-208782380D02*
X131619047Y-208830000D01*
X131619047Y-208830000D02*
X131714285Y-208925238D01*
X131714285Y-208925238D02*
X131761904Y-209020476D01*
X131761904Y-209020476D02*
X131809523Y-209210952D01*
X131809523Y-209210952D02*
X131809523Y-209353809D01*
X131809523Y-209353809D02*
X131761904Y-209544285D01*
X131761904Y-209544285D02*
X131714285Y-209639523D01*
X131714285Y-209639523D02*
X131619047Y-209734761D01*
X131619047Y-209734761D02*
X131476190Y-209782380D01*
X131476190Y-209782380D02*
X131238095Y-209782380D01*
X132428571Y-208782380D02*
X132523809Y-208782380D01*
X132523809Y-208782380D02*
X132619047Y-208830000D01*
X132619047Y-208830000D02*
X132666666Y-208877619D01*
X132666666Y-208877619D02*
X132714285Y-208972857D01*
X132714285Y-208972857D02*
X132761904Y-209163333D01*
X132761904Y-209163333D02*
X132761904Y-209401428D01*
X132761904Y-209401428D02*
X132714285Y-209591904D01*
X132714285Y-209591904D02*
X132666666Y-209687142D01*
X132666666Y-209687142D02*
X132619047Y-209734761D01*
X132619047Y-209734761D02*
X132523809Y-209782380D01*
X132523809Y-209782380D02*
X132428571Y-209782380D01*
X132428571Y-209782380D02*
X132333333Y-209734761D01*
X132333333Y-209734761D02*
X132285714Y-209687142D01*
X132285714Y-209687142D02*
X132238095Y-209591904D01*
X132238095Y-209591904D02*
X132190476Y-209401428D01*
X132190476Y-209401428D02*
X132190476Y-209163333D01*
X132190476Y-209163333D02*
X132238095Y-208972857D01*
X132238095Y-208972857D02*
X132285714Y-208877619D01*
X132285714Y-208877619D02*
X132333333Y-208830000D01*
X132333333Y-208830000D02*
X132428571Y-208782380D01*
X131238095Y-217282380D02*
X131238095Y-216282380D01*
X131238095Y-216282380D02*
X131476190Y-216282380D01*
X131476190Y-216282380D02*
X131619047Y-216330000D01*
X131619047Y-216330000D02*
X131714285Y-216425238D01*
X131714285Y-216425238D02*
X131761904Y-216520476D01*
X131761904Y-216520476D02*
X131809523Y-216710952D01*
X131809523Y-216710952D02*
X131809523Y-216853809D01*
X131809523Y-216853809D02*
X131761904Y-217044285D01*
X131761904Y-217044285D02*
X131714285Y-217139523D01*
X131714285Y-217139523D02*
X131619047Y-217234761D01*
X131619047Y-217234761D02*
X131476190Y-217282380D01*
X131476190Y-217282380D02*
X131238095Y-217282380D01*
X132761904Y-217282380D02*
X132190476Y-217282380D01*
X132476190Y-217282380D02*
X132476190Y-216282380D01*
X132476190Y-216282380D02*
X132380952Y-216425238D01*
X132380952Y-216425238D02*
X132285714Y-216520476D01*
X132285714Y-216520476D02*
X132190476Y-216568095D01*
X81038095Y-200201428D02*
X81800000Y-200201428D01*
X91095238Y-216782380D02*
X91428571Y-217782380D01*
X91428571Y-217782380D02*
X91761904Y-216782380D01*
X92047619Y-217734761D02*
X92190476Y-217782380D01*
X92190476Y-217782380D02*
X92428571Y-217782380D01*
X92428571Y-217782380D02*
X92523809Y-217734761D01*
X92523809Y-217734761D02*
X92571428Y-217687142D01*
X92571428Y-217687142D02*
X92619047Y-217591904D01*
X92619047Y-217591904D02*
X92619047Y-217496666D01*
X92619047Y-217496666D02*
X92571428Y-217401428D01*
X92571428Y-217401428D02*
X92523809Y-217353809D01*
X92523809Y-217353809D02*
X92428571Y-217306190D01*
X92428571Y-217306190D02*
X92238095Y-217258571D01*
X92238095Y-217258571D02*
X92142857Y-217210952D01*
X92142857Y-217210952D02*
X92095238Y-217163333D01*
X92095238Y-217163333D02*
X92047619Y-217068095D01*
X92047619Y-217068095D02*
X92047619Y-216972857D01*
X92047619Y-216972857D02*
X92095238Y-216877619D01*
X92095238Y-216877619D02*
X92142857Y-216830000D01*
X92142857Y-216830000D02*
X92238095Y-216782380D01*
X92238095Y-216782380D02*
X92476190Y-216782380D01*
X92476190Y-216782380D02*
X92619047Y-216830000D01*
X130738095Y-200101428D02*
X131500000Y-200101428D01*
X133738095Y-217282380D02*
X133738095Y-216282380D01*
X133738095Y-216282380D02*
X133976190Y-216282380D01*
X133976190Y-216282380D02*
X134119047Y-216330000D01*
X134119047Y-216330000D02*
X134214285Y-216425238D01*
X134214285Y-216425238D02*
X134261904Y-216520476D01*
X134261904Y-216520476D02*
X134309523Y-216710952D01*
X134309523Y-216710952D02*
X134309523Y-216853809D01*
X134309523Y-216853809D02*
X134261904Y-217044285D01*
X134261904Y-217044285D02*
X134214285Y-217139523D01*
X134214285Y-217139523D02*
X134119047Y-217234761D01*
X134119047Y-217234761D02*
X133976190Y-217282380D01*
X133976190Y-217282380D02*
X133738095Y-217282380D01*
X134642857Y-216282380D02*
X135261904Y-216282380D01*
X135261904Y-216282380D02*
X134928571Y-216663333D01*
X134928571Y-216663333D02*
X135071428Y-216663333D01*
X135071428Y-216663333D02*
X135166666Y-216710952D01*
X135166666Y-216710952D02*
X135214285Y-216758571D01*
X135214285Y-216758571D02*
X135261904Y-216853809D01*
X135261904Y-216853809D02*
X135261904Y-217091904D01*
X135261904Y-217091904D02*
X135214285Y-217187142D01*
X135214285Y-217187142D02*
X135166666Y-217234761D01*
X135166666Y-217234761D02*
X135071428Y-217282380D01*
X135071428Y-217282380D02*
X134785714Y-217282380D01*
X134785714Y-217282380D02*
X134690476Y-217234761D01*
X134690476Y-217234761D02*
X134642857Y-217187142D01*
X141938095Y-225701428D02*
X142700000Y-225701428D01*
X142319047Y-226082380D02*
X142319047Y-225320476D01*
X141438095Y-199401428D02*
X142200000Y-199401428D01*
X141819047Y-199782380D02*
X141819047Y-199020476D01*
X83738095Y-217782380D02*
X83738095Y-216782380D01*
X83738095Y-216782380D02*
X83976190Y-216782380D01*
X83976190Y-216782380D02*
X84119047Y-216830000D01*
X84119047Y-216830000D02*
X84214285Y-216925238D01*
X84214285Y-216925238D02*
X84261904Y-217020476D01*
X84261904Y-217020476D02*
X84309523Y-217210952D01*
X84309523Y-217210952D02*
X84309523Y-217353809D01*
X84309523Y-217353809D02*
X84261904Y-217544285D01*
X84261904Y-217544285D02*
X84214285Y-217639523D01*
X84214285Y-217639523D02*
X84119047Y-217734761D01*
X84119047Y-217734761D02*
X83976190Y-217782380D01*
X83976190Y-217782380D02*
X83738095Y-217782380D01*
X84642857Y-216782380D02*
X85261904Y-216782380D01*
X85261904Y-216782380D02*
X84928571Y-217163333D01*
X84928571Y-217163333D02*
X85071428Y-217163333D01*
X85071428Y-217163333D02*
X85166666Y-217210952D01*
X85166666Y-217210952D02*
X85214285Y-217258571D01*
X85214285Y-217258571D02*
X85261904Y-217353809D01*
X85261904Y-217353809D02*
X85261904Y-217591904D01*
X85261904Y-217591904D02*
X85214285Y-217687142D01*
X85214285Y-217687142D02*
X85166666Y-217734761D01*
X85166666Y-217734761D02*
X85071428Y-217782380D01*
X85071428Y-217782380D02*
X84785714Y-217782380D01*
X84785714Y-217782380D02*
X84690476Y-217734761D01*
X84690476Y-217734761D02*
X84642857Y-217687142D01*
X106538095Y-202101428D02*
X107300000Y-202101428D01*
X86238095Y-217782380D02*
X86238095Y-216782380D01*
X86238095Y-216782380D02*
X86476190Y-216782380D01*
X86476190Y-216782380D02*
X86619047Y-216830000D01*
X86619047Y-216830000D02*
X86714285Y-216925238D01*
X86714285Y-216925238D02*
X86761904Y-217020476D01*
X86761904Y-217020476D02*
X86809523Y-217210952D01*
X86809523Y-217210952D02*
X86809523Y-217353809D01*
X86809523Y-217353809D02*
X86761904Y-217544285D01*
X86761904Y-217544285D02*
X86714285Y-217639523D01*
X86714285Y-217639523D02*
X86619047Y-217734761D01*
X86619047Y-217734761D02*
X86476190Y-217782380D01*
X86476190Y-217782380D02*
X86238095Y-217782380D01*
X87714285Y-216782380D02*
X87238095Y-216782380D01*
X87238095Y-216782380D02*
X87190476Y-217258571D01*
X87190476Y-217258571D02*
X87238095Y-217210952D01*
X87238095Y-217210952D02*
X87333333Y-217163333D01*
X87333333Y-217163333D02*
X87571428Y-217163333D01*
X87571428Y-217163333D02*
X87666666Y-217210952D01*
X87666666Y-217210952D02*
X87714285Y-217258571D01*
X87714285Y-217258571D02*
X87761904Y-217353809D01*
X87761904Y-217353809D02*
X87761904Y-217591904D01*
X87761904Y-217591904D02*
X87714285Y-217687142D01*
X87714285Y-217687142D02*
X87666666Y-217734761D01*
X87666666Y-217734761D02*
X87571428Y-217782380D01*
X87571428Y-217782380D02*
X87333333Y-217782380D01*
X87333333Y-217782380D02*
X87238095Y-217734761D01*
X87238095Y-217734761D02*
X87190476Y-217687142D01*
X80738095Y-225101428D02*
X81500000Y-225101428D01*
X117038095Y-225501428D02*
X117800000Y-225501428D01*
X117419047Y-225882380D02*
X117419047Y-225120476D01*
X66538095Y-200001428D02*
X67300000Y-200001428D01*
X66919047Y-200382380D02*
X66919047Y-199620476D01*
X141095238Y-216282380D02*
X141428571Y-217282380D01*
X141428571Y-217282380D02*
X141761904Y-216282380D01*
X142047619Y-217234761D02*
X142190476Y-217282380D01*
X142190476Y-217282380D02*
X142428571Y-217282380D01*
X142428571Y-217282380D02*
X142523809Y-217234761D01*
X142523809Y-217234761D02*
X142571428Y-217187142D01*
X142571428Y-217187142D02*
X142619047Y-217091904D01*
X142619047Y-217091904D02*
X142619047Y-216996666D01*
X142619047Y-216996666D02*
X142571428Y-216901428D01*
X142571428Y-216901428D02*
X142523809Y-216853809D01*
X142523809Y-216853809D02*
X142428571Y-216806190D01*
X142428571Y-216806190D02*
X142238095Y-216758571D01*
X142238095Y-216758571D02*
X142142857Y-216710952D01*
X142142857Y-216710952D02*
X142095238Y-216663333D01*
X142095238Y-216663333D02*
X142047619Y-216568095D01*
X142047619Y-216568095D02*
X142047619Y-216472857D01*
X142047619Y-216472857D02*
X142095238Y-216377619D01*
X142095238Y-216377619D02*
X142142857Y-216330000D01*
X142142857Y-216330000D02*
X142238095Y-216282380D01*
X142238095Y-216282380D02*
X142476190Y-216282380D01*
X142476190Y-216282380D02*
X142619047Y-216330000D01*
X116438095Y-199901428D02*
X117200000Y-199901428D01*
X116819047Y-200282380D02*
X116819047Y-199520476D01*
X81238095Y-210282380D02*
X81238095Y-209282380D01*
X81238095Y-209282380D02*
X81476190Y-209282380D01*
X81476190Y-209282380D02*
X81619047Y-209330000D01*
X81619047Y-209330000D02*
X81714285Y-209425238D01*
X81714285Y-209425238D02*
X81761904Y-209520476D01*
X81761904Y-209520476D02*
X81809523Y-209710952D01*
X81809523Y-209710952D02*
X81809523Y-209853809D01*
X81809523Y-209853809D02*
X81761904Y-210044285D01*
X81761904Y-210044285D02*
X81714285Y-210139523D01*
X81714285Y-210139523D02*
X81619047Y-210234761D01*
X81619047Y-210234761D02*
X81476190Y-210282380D01*
X81476190Y-210282380D02*
X81238095Y-210282380D01*
X82428571Y-209282380D02*
X82523809Y-209282380D01*
X82523809Y-209282380D02*
X82619047Y-209330000D01*
X82619047Y-209330000D02*
X82666666Y-209377619D01*
X82666666Y-209377619D02*
X82714285Y-209472857D01*
X82714285Y-209472857D02*
X82761904Y-209663333D01*
X82761904Y-209663333D02*
X82761904Y-209901428D01*
X82761904Y-209901428D02*
X82714285Y-210091904D01*
X82714285Y-210091904D02*
X82666666Y-210187142D01*
X82666666Y-210187142D02*
X82619047Y-210234761D01*
X82619047Y-210234761D02*
X82523809Y-210282380D01*
X82523809Y-210282380D02*
X82428571Y-210282380D01*
X82428571Y-210282380D02*
X82333333Y-210234761D01*
X82333333Y-210234761D02*
X82285714Y-210187142D01*
X82285714Y-210187142D02*
X82238095Y-210091904D01*
X82238095Y-210091904D02*
X82190476Y-209901428D01*
X82190476Y-209901428D02*
X82190476Y-209663333D01*
X82190476Y-209663333D02*
X82238095Y-209472857D01*
X82238095Y-209472857D02*
X82285714Y-209377619D01*
X82285714Y-209377619D02*
X82333333Y-209330000D01*
X82333333Y-209330000D02*
X82428571Y-209282380D01*
X135238095Y-190882380D02*
X135238095Y-189882380D01*
X135238095Y-189882380D02*
X135571428Y-190596666D01*
X135571428Y-190596666D02*
X135904761Y-189882380D01*
X135904761Y-189882380D02*
X135904761Y-190882380D01*
X136714285Y-190358571D02*
X136857142Y-190406190D01*
X136857142Y-190406190D02*
X136904761Y-190453809D01*
X136904761Y-190453809D02*
X136952380Y-190549047D01*
X136952380Y-190549047D02*
X136952380Y-190691904D01*
X136952380Y-190691904D02*
X136904761Y-190787142D01*
X136904761Y-190787142D02*
X136857142Y-190834761D01*
X136857142Y-190834761D02*
X136761904Y-190882380D01*
X136761904Y-190882380D02*
X136380952Y-190882380D01*
X136380952Y-190882380D02*
X136380952Y-189882380D01*
X136380952Y-189882380D02*
X136714285Y-189882380D01*
X136714285Y-189882380D02*
X136809523Y-189930000D01*
X136809523Y-189930000D02*
X136857142Y-189977619D01*
X136857142Y-189977619D02*
X136904761Y-190072857D01*
X136904761Y-190072857D02*
X136904761Y-190168095D01*
X136904761Y-190168095D02*
X136857142Y-190263333D01*
X136857142Y-190263333D02*
X136809523Y-190310952D01*
X136809523Y-190310952D02*
X136714285Y-190358571D01*
X136714285Y-190358571D02*
X136380952Y-190358571D01*
X137380952Y-190501428D02*
X138142857Y-190501428D01*
X138952380Y-190358571D02*
X139095237Y-190406190D01*
X139095237Y-190406190D02*
X139142856Y-190453809D01*
X139142856Y-190453809D02*
X139190475Y-190549047D01*
X139190475Y-190549047D02*
X139190475Y-190691904D01*
X139190475Y-190691904D02*
X139142856Y-190787142D01*
X139142856Y-190787142D02*
X139095237Y-190834761D01*
X139095237Y-190834761D02*
X138999999Y-190882380D01*
X138999999Y-190882380D02*
X138619047Y-190882380D01*
X138619047Y-190882380D02*
X138619047Y-189882380D01*
X138619047Y-189882380D02*
X138952380Y-189882380D01*
X138952380Y-189882380D02*
X139047618Y-189930000D01*
X139047618Y-189930000D02*
X139095237Y-189977619D01*
X139095237Y-189977619D02*
X139142856Y-190072857D01*
X139142856Y-190072857D02*
X139142856Y-190168095D01*
X139142856Y-190168095D02*
X139095237Y-190263333D01*
X139095237Y-190263333D02*
X139047618Y-190310952D01*
X139047618Y-190310952D02*
X138952380Y-190358571D01*
X138952380Y-190358571D02*
X138619047Y-190358571D01*
X139619047Y-190882380D02*
X139619047Y-189882380D01*
X139619047Y-189882380D02*
X139999999Y-189882380D01*
X139999999Y-189882380D02*
X140095237Y-189930000D01*
X140095237Y-189930000D02*
X140142856Y-189977619D01*
X140142856Y-189977619D02*
X140190475Y-190072857D01*
X140190475Y-190072857D02*
X140190475Y-190215714D01*
X140190475Y-190215714D02*
X140142856Y-190310952D01*
X140142856Y-190310952D02*
X140095237Y-190358571D01*
X140095237Y-190358571D02*
X139999999Y-190406190D01*
X139999999Y-190406190D02*
X139619047Y-190406190D01*
X140571428Y-190834761D02*
X140666666Y-190882380D01*
X140666666Y-190882380D02*
X140857142Y-190882380D01*
X140857142Y-190882380D02*
X140952380Y-190834761D01*
X140952380Y-190834761D02*
X140999999Y-190739523D01*
X140999999Y-190739523D02*
X140999999Y-190691904D01*
X140999999Y-190691904D02*
X140952380Y-190596666D01*
X140952380Y-190596666D02*
X140857142Y-190549047D01*
X140857142Y-190549047D02*
X140714285Y-190549047D01*
X140714285Y-190549047D02*
X140619047Y-190501428D01*
X140619047Y-190501428D02*
X140571428Y-190406190D01*
X140571428Y-190406190D02*
X140571428Y-190358571D01*
X140571428Y-190358571D02*
X140619047Y-190263333D01*
X140619047Y-190263333D02*
X140714285Y-190215714D01*
X140714285Y-190215714D02*
X140857142Y-190215714D01*
X140857142Y-190215714D02*
X140952380Y-190263333D01*
X141428571Y-190501428D02*
X142190476Y-190501428D01*
X143095237Y-190215714D02*
X143095237Y-190882380D01*
X142857142Y-189834761D02*
X142619047Y-190549047D01*
X142619047Y-190549047D02*
X143238094Y-190549047D01*
X143523809Y-190882380D02*
X144047618Y-190215714D01*
X143523809Y-190215714D02*
X144047618Y-190882380D01*
X144380952Y-189977619D02*
X144428571Y-189930000D01*
X144428571Y-189930000D02*
X144523809Y-189882380D01*
X144523809Y-189882380D02*
X144761904Y-189882380D01*
X144761904Y-189882380D02*
X144857142Y-189930000D01*
X144857142Y-189930000D02*
X144904761Y-189977619D01*
X144904761Y-189977619D02*
X144952380Y-190072857D01*
X144952380Y-190072857D02*
X144952380Y-190168095D01*
X144952380Y-190168095D02*
X144904761Y-190310952D01*
X144904761Y-190310952D02*
X144333333Y-190882380D01*
X144333333Y-190882380D02*
X144952380Y-190882380D01*
X145952380Y-190787142D02*
X145904761Y-190834761D01*
X145904761Y-190834761D02*
X145761904Y-190882380D01*
X145761904Y-190882380D02*
X145666666Y-190882380D01*
X145666666Y-190882380D02*
X145523809Y-190834761D01*
X145523809Y-190834761D02*
X145428571Y-190739523D01*
X145428571Y-190739523D02*
X145380952Y-190644285D01*
X145380952Y-190644285D02*
X145333333Y-190453809D01*
X145333333Y-190453809D02*
X145333333Y-190310952D01*
X145333333Y-190310952D02*
X145380952Y-190120476D01*
X145380952Y-190120476D02*
X145428571Y-190025238D01*
X145428571Y-190025238D02*
X145523809Y-189930000D01*
X145523809Y-189930000D02*
X145666666Y-189882380D01*
X145666666Y-189882380D02*
X145761904Y-189882380D01*
X145761904Y-189882380D02*
X145904761Y-189930000D01*
X145904761Y-189930000D02*
X145952380Y-189977619D01*
X146333333Y-190834761D02*
X146476190Y-190882380D01*
X146476190Y-190882380D02*
X146714285Y-190882380D01*
X146714285Y-190882380D02*
X146809523Y-190834761D01*
X146809523Y-190834761D02*
X146857142Y-190787142D01*
X146857142Y-190787142D02*
X146904761Y-190691904D01*
X146904761Y-190691904D02*
X146904761Y-190596666D01*
X146904761Y-190596666D02*
X146857142Y-190501428D01*
X146857142Y-190501428D02*
X146809523Y-190453809D01*
X146809523Y-190453809D02*
X146714285Y-190406190D01*
X146714285Y-190406190D02*
X146523809Y-190358571D01*
X146523809Y-190358571D02*
X146428571Y-190310952D01*
X146428571Y-190310952D02*
X146380952Y-190263333D01*
X146380952Y-190263333D02*
X146333333Y-190168095D01*
X146333333Y-190168095D02*
X146333333Y-190072857D01*
X146333333Y-190072857D02*
X146380952Y-189977619D01*
X146380952Y-189977619D02*
X146428571Y-189930000D01*
X146428571Y-189930000D02*
X146523809Y-189882380D01*
X146523809Y-189882380D02*
X146761904Y-189882380D01*
X146761904Y-189882380D02*
X146904761Y-189930000D01*
X147333333Y-190501428D02*
X148095238Y-190501428D01*
X148428571Y-189882380D02*
X148761904Y-190882380D01*
X148761904Y-190882380D02*
X149095237Y-189882380D01*
X149619047Y-189882380D02*
X149714285Y-189882380D01*
X149714285Y-189882380D02*
X149809523Y-189930000D01*
X149809523Y-189930000D02*
X149857142Y-189977619D01*
X149857142Y-189977619D02*
X149904761Y-190072857D01*
X149904761Y-190072857D02*
X149952380Y-190263333D01*
X149952380Y-190263333D02*
X149952380Y-190501428D01*
X149952380Y-190501428D02*
X149904761Y-190691904D01*
X149904761Y-190691904D02*
X149857142Y-190787142D01*
X149857142Y-190787142D02*
X149809523Y-190834761D01*
X149809523Y-190834761D02*
X149714285Y-190882380D01*
X149714285Y-190882380D02*
X149619047Y-190882380D01*
X149619047Y-190882380D02*
X149523809Y-190834761D01*
X149523809Y-190834761D02*
X149476190Y-190787142D01*
X149476190Y-190787142D02*
X149428571Y-190691904D01*
X149428571Y-190691904D02*
X149380952Y-190501428D01*
X149380952Y-190501428D02*
X149380952Y-190263333D01*
X149380952Y-190263333D02*
X149428571Y-190072857D01*
X149428571Y-190072857D02*
X149476190Y-189977619D01*
X149476190Y-189977619D02*
X149523809Y-189930000D01*
X149523809Y-189930000D02*
X149619047Y-189882380D01*
X150380952Y-190787142D02*
X150428571Y-190834761D01*
X150428571Y-190834761D02*
X150380952Y-190882380D01*
X150380952Y-190882380D02*
X150333333Y-190834761D01*
X150333333Y-190834761D02*
X150380952Y-190787142D01*
X150380952Y-190787142D02*
X150380952Y-190882380D01*
X151380951Y-190882380D02*
X150809523Y-190882380D01*
X151095237Y-190882380D02*
X151095237Y-189882380D01*
X151095237Y-189882380D02*
X150999999Y-190025238D01*
X150999999Y-190025238D02*
X150904761Y-190120476D01*
X150904761Y-190120476D02*
X150809523Y-190168095D01*
X86238095Y-210282380D02*
X86238095Y-209282380D01*
X86238095Y-209282380D02*
X86476190Y-209282380D01*
X86476190Y-209282380D02*
X86619047Y-209330000D01*
X86619047Y-209330000D02*
X86714285Y-209425238D01*
X86714285Y-209425238D02*
X86761904Y-209520476D01*
X86761904Y-209520476D02*
X86809523Y-209710952D01*
X86809523Y-209710952D02*
X86809523Y-209853809D01*
X86809523Y-209853809D02*
X86761904Y-210044285D01*
X86761904Y-210044285D02*
X86714285Y-210139523D01*
X86714285Y-210139523D02*
X86619047Y-210234761D01*
X86619047Y-210234761D02*
X86476190Y-210282380D01*
X86476190Y-210282380D02*
X86238095Y-210282380D01*
X87666666Y-209615714D02*
X87666666Y-210282380D01*
X87428571Y-209234761D02*
X87190476Y-209949047D01*
X87190476Y-209949047D02*
X87809523Y-209949047D01*
X81238095Y-217782380D02*
X81238095Y-216782380D01*
X81238095Y-216782380D02*
X81476190Y-216782380D01*
X81476190Y-216782380D02*
X81619047Y-216830000D01*
X81619047Y-216830000D02*
X81714285Y-216925238D01*
X81714285Y-216925238D02*
X81761904Y-217020476D01*
X81761904Y-217020476D02*
X81809523Y-217210952D01*
X81809523Y-217210952D02*
X81809523Y-217353809D01*
X81809523Y-217353809D02*
X81761904Y-217544285D01*
X81761904Y-217544285D02*
X81714285Y-217639523D01*
X81714285Y-217639523D02*
X81619047Y-217734761D01*
X81619047Y-217734761D02*
X81476190Y-217782380D01*
X81476190Y-217782380D02*
X81238095Y-217782380D01*
X82761904Y-217782380D02*
X82190476Y-217782380D01*
X82476190Y-217782380D02*
X82476190Y-216782380D01*
X82476190Y-216782380D02*
X82380952Y-216925238D01*
X82380952Y-216925238D02*
X82285714Y-217020476D01*
X82285714Y-217020476D02*
X82190476Y-217068095D01*
X136238095Y-209782380D02*
X136238095Y-208782380D01*
X136238095Y-208782380D02*
X136476190Y-208782380D01*
X136476190Y-208782380D02*
X136619047Y-208830000D01*
X136619047Y-208830000D02*
X136714285Y-208925238D01*
X136714285Y-208925238D02*
X136761904Y-209020476D01*
X136761904Y-209020476D02*
X136809523Y-209210952D01*
X136809523Y-209210952D02*
X136809523Y-209353809D01*
X136809523Y-209353809D02*
X136761904Y-209544285D01*
X136761904Y-209544285D02*
X136714285Y-209639523D01*
X136714285Y-209639523D02*
X136619047Y-209734761D01*
X136619047Y-209734761D02*
X136476190Y-209782380D01*
X136476190Y-209782380D02*
X136238095Y-209782380D01*
X137666666Y-209115714D02*
X137666666Y-209782380D01*
X137428571Y-208734761D02*
X137190476Y-209449047D01*
X137190476Y-209449047D02*
X137809523Y-209449047D01*
X66638095Y-225101428D02*
X67400000Y-225101428D01*
X67019047Y-225482380D02*
X67019047Y-224720476D01*
X156138095Y-200101428D02*
X156900000Y-200101428D01*
X138738095Y-217282380D02*
X138738095Y-216282380D01*
X138738095Y-216282380D02*
X138976190Y-216282380D01*
X138976190Y-216282380D02*
X139119047Y-216330000D01*
X139119047Y-216330000D02*
X139214285Y-216425238D01*
X139214285Y-216425238D02*
X139261904Y-216520476D01*
X139261904Y-216520476D02*
X139309523Y-216710952D01*
X139309523Y-216710952D02*
X139309523Y-216853809D01*
X139309523Y-216853809D02*
X139261904Y-217044285D01*
X139261904Y-217044285D02*
X139214285Y-217139523D01*
X139214285Y-217139523D02*
X139119047Y-217234761D01*
X139119047Y-217234761D02*
X138976190Y-217282380D01*
X138976190Y-217282380D02*
X138738095Y-217282380D01*
X139642857Y-216282380D02*
X140309523Y-216282380D01*
X140309523Y-216282380D02*
X139880952Y-217282380D01*
%TO.C,SW3*%
X98166667Y-205319761D02*
X98309524Y-205367380D01*
X98309524Y-205367380D02*
X98547619Y-205367380D01*
X98547619Y-205367380D02*
X98642857Y-205319761D01*
X98642857Y-205319761D02*
X98690476Y-205272142D01*
X98690476Y-205272142D02*
X98738095Y-205176904D01*
X98738095Y-205176904D02*
X98738095Y-205081666D01*
X98738095Y-205081666D02*
X98690476Y-204986428D01*
X98690476Y-204986428D02*
X98642857Y-204938809D01*
X98642857Y-204938809D02*
X98547619Y-204891190D01*
X98547619Y-204891190D02*
X98357143Y-204843571D01*
X98357143Y-204843571D02*
X98261905Y-204795952D01*
X98261905Y-204795952D02*
X98214286Y-204748333D01*
X98214286Y-204748333D02*
X98166667Y-204653095D01*
X98166667Y-204653095D02*
X98166667Y-204557857D01*
X98166667Y-204557857D02*
X98214286Y-204462619D01*
X98214286Y-204462619D02*
X98261905Y-204415000D01*
X98261905Y-204415000D02*
X98357143Y-204367380D01*
X98357143Y-204367380D02*
X98595238Y-204367380D01*
X98595238Y-204367380D02*
X98738095Y-204415000D01*
X99071429Y-204367380D02*
X99309524Y-205367380D01*
X99309524Y-205367380D02*
X99500000Y-204653095D01*
X99500000Y-204653095D02*
X99690476Y-205367380D01*
X99690476Y-205367380D02*
X99928572Y-204367380D01*
X100214286Y-204367380D02*
X100833333Y-204367380D01*
X100833333Y-204367380D02*
X100500000Y-204748333D01*
X100500000Y-204748333D02*
X100642857Y-204748333D01*
X100642857Y-204748333D02*
X100738095Y-204795952D01*
X100738095Y-204795952D02*
X100785714Y-204843571D01*
X100785714Y-204843571D02*
X100833333Y-204938809D01*
X100833333Y-204938809D02*
X100833333Y-205176904D01*
X100833333Y-205176904D02*
X100785714Y-205272142D01*
X100785714Y-205272142D02*
X100738095Y-205319761D01*
X100738095Y-205319761D02*
X100642857Y-205367380D01*
X100642857Y-205367380D02*
X100357143Y-205367380D01*
X100357143Y-205367380D02*
X100261905Y-205319761D01*
X100261905Y-205319761D02*
X100214286Y-205272142D01*
%TO.C,SW5*%
X123166667Y-205319661D02*
X123309524Y-205367280D01*
X123309524Y-205367280D02*
X123547619Y-205367280D01*
X123547619Y-205367280D02*
X123642857Y-205319661D01*
X123642857Y-205319661D02*
X123690476Y-205272042D01*
X123690476Y-205272042D02*
X123738095Y-205176804D01*
X123738095Y-205176804D02*
X123738095Y-205081566D01*
X123738095Y-205081566D02*
X123690476Y-204986328D01*
X123690476Y-204986328D02*
X123642857Y-204938709D01*
X123642857Y-204938709D02*
X123547619Y-204891090D01*
X123547619Y-204891090D02*
X123357143Y-204843471D01*
X123357143Y-204843471D02*
X123261905Y-204795852D01*
X123261905Y-204795852D02*
X123214286Y-204748233D01*
X123214286Y-204748233D02*
X123166667Y-204652995D01*
X123166667Y-204652995D02*
X123166667Y-204557757D01*
X123166667Y-204557757D02*
X123214286Y-204462519D01*
X123214286Y-204462519D02*
X123261905Y-204414900D01*
X123261905Y-204414900D02*
X123357143Y-204367280D01*
X123357143Y-204367280D02*
X123595238Y-204367280D01*
X123595238Y-204367280D02*
X123738095Y-204414900D01*
X124071429Y-204367280D02*
X124309524Y-205367280D01*
X124309524Y-205367280D02*
X124500000Y-204652995D01*
X124500000Y-204652995D02*
X124690476Y-205367280D01*
X124690476Y-205367280D02*
X124928572Y-204367280D01*
X125785714Y-204367280D02*
X125309524Y-204367280D01*
X125309524Y-204367280D02*
X125261905Y-204843471D01*
X125261905Y-204843471D02*
X125309524Y-204795852D01*
X125309524Y-204795852D02*
X125404762Y-204748233D01*
X125404762Y-204748233D02*
X125642857Y-204748233D01*
X125642857Y-204748233D02*
X125738095Y-204795852D01*
X125738095Y-204795852D02*
X125785714Y-204843471D01*
X125785714Y-204843471D02*
X125833333Y-204938709D01*
X125833333Y-204938709D02*
X125833333Y-205176804D01*
X125833333Y-205176804D02*
X125785714Y-205272042D01*
X125785714Y-205272042D02*
X125738095Y-205319661D01*
X125738095Y-205319661D02*
X125642857Y-205367280D01*
X125642857Y-205367280D02*
X125404762Y-205367280D01*
X125404762Y-205367280D02*
X125309524Y-205319661D01*
X125309524Y-205319661D02*
X125261905Y-205272042D01*
%TO.C,SW7*%
X148213667Y-205370761D02*
X148356524Y-205418380D01*
X148356524Y-205418380D02*
X148594619Y-205418380D01*
X148594619Y-205418380D02*
X148689857Y-205370761D01*
X148689857Y-205370761D02*
X148737476Y-205323142D01*
X148737476Y-205323142D02*
X148785095Y-205227904D01*
X148785095Y-205227904D02*
X148785095Y-205132666D01*
X148785095Y-205132666D02*
X148737476Y-205037428D01*
X148737476Y-205037428D02*
X148689857Y-204989809D01*
X148689857Y-204989809D02*
X148594619Y-204942190D01*
X148594619Y-204942190D02*
X148404143Y-204894571D01*
X148404143Y-204894571D02*
X148308905Y-204846952D01*
X148308905Y-204846952D02*
X148261286Y-204799333D01*
X148261286Y-204799333D02*
X148213667Y-204704095D01*
X148213667Y-204704095D02*
X148213667Y-204608857D01*
X148213667Y-204608857D02*
X148261286Y-204513619D01*
X148261286Y-204513619D02*
X148308905Y-204466000D01*
X148308905Y-204466000D02*
X148404143Y-204418380D01*
X148404143Y-204418380D02*
X148642238Y-204418380D01*
X148642238Y-204418380D02*
X148785095Y-204466000D01*
X149118429Y-204418380D02*
X149356524Y-205418380D01*
X149356524Y-205418380D02*
X149547000Y-204704095D01*
X149547000Y-204704095D02*
X149737476Y-205418380D01*
X149737476Y-205418380D02*
X149975572Y-204418380D01*
X150261286Y-204418380D02*
X150927952Y-204418380D01*
X150927952Y-204418380D02*
X150499381Y-205418380D01*
%TO.C,SW2*%
X73166667Y-230819761D02*
X73309524Y-230867380D01*
X73309524Y-230867380D02*
X73547619Y-230867380D01*
X73547619Y-230867380D02*
X73642857Y-230819761D01*
X73642857Y-230819761D02*
X73690476Y-230772142D01*
X73690476Y-230772142D02*
X73738095Y-230676904D01*
X73738095Y-230676904D02*
X73738095Y-230581666D01*
X73738095Y-230581666D02*
X73690476Y-230486428D01*
X73690476Y-230486428D02*
X73642857Y-230438809D01*
X73642857Y-230438809D02*
X73547619Y-230391190D01*
X73547619Y-230391190D02*
X73357143Y-230343571D01*
X73357143Y-230343571D02*
X73261905Y-230295952D01*
X73261905Y-230295952D02*
X73214286Y-230248333D01*
X73214286Y-230248333D02*
X73166667Y-230153095D01*
X73166667Y-230153095D02*
X73166667Y-230057857D01*
X73166667Y-230057857D02*
X73214286Y-229962619D01*
X73214286Y-229962619D02*
X73261905Y-229915000D01*
X73261905Y-229915000D02*
X73357143Y-229867380D01*
X73357143Y-229867380D02*
X73595238Y-229867380D01*
X73595238Y-229867380D02*
X73738095Y-229915000D01*
X74071429Y-229867380D02*
X74309524Y-230867380D01*
X74309524Y-230867380D02*
X74500000Y-230153095D01*
X74500000Y-230153095D02*
X74690476Y-230867380D01*
X74690476Y-230867380D02*
X74928572Y-229867380D01*
X75261905Y-229962619D02*
X75309524Y-229915000D01*
X75309524Y-229915000D02*
X75404762Y-229867380D01*
X75404762Y-229867380D02*
X75642857Y-229867380D01*
X75642857Y-229867380D02*
X75738095Y-229915000D01*
X75738095Y-229915000D02*
X75785714Y-229962619D01*
X75785714Y-229962619D02*
X75833333Y-230057857D01*
X75833333Y-230057857D02*
X75833333Y-230153095D01*
X75833333Y-230153095D02*
X75785714Y-230295952D01*
X75785714Y-230295952D02*
X75214286Y-230867380D01*
X75214286Y-230867380D02*
X75833333Y-230867380D01*
%TO.C,SW6*%
X123166667Y-230319761D02*
X123309524Y-230367380D01*
X123309524Y-230367380D02*
X123547619Y-230367380D01*
X123547619Y-230367380D02*
X123642857Y-230319761D01*
X123642857Y-230319761D02*
X123690476Y-230272142D01*
X123690476Y-230272142D02*
X123738095Y-230176904D01*
X123738095Y-230176904D02*
X123738095Y-230081666D01*
X123738095Y-230081666D02*
X123690476Y-229986428D01*
X123690476Y-229986428D02*
X123642857Y-229938809D01*
X123642857Y-229938809D02*
X123547619Y-229891190D01*
X123547619Y-229891190D02*
X123357143Y-229843571D01*
X123357143Y-229843571D02*
X123261905Y-229795952D01*
X123261905Y-229795952D02*
X123214286Y-229748333D01*
X123214286Y-229748333D02*
X123166667Y-229653095D01*
X123166667Y-229653095D02*
X123166667Y-229557857D01*
X123166667Y-229557857D02*
X123214286Y-229462619D01*
X123214286Y-229462619D02*
X123261905Y-229415000D01*
X123261905Y-229415000D02*
X123357143Y-229367380D01*
X123357143Y-229367380D02*
X123595238Y-229367380D01*
X123595238Y-229367380D02*
X123738095Y-229415000D01*
X124071429Y-229367380D02*
X124309524Y-230367380D01*
X124309524Y-230367380D02*
X124500000Y-229653095D01*
X124500000Y-229653095D02*
X124690476Y-230367380D01*
X124690476Y-230367380D02*
X124928572Y-229367380D01*
X125738095Y-229367380D02*
X125547619Y-229367380D01*
X125547619Y-229367380D02*
X125452381Y-229415000D01*
X125452381Y-229415000D02*
X125404762Y-229462619D01*
X125404762Y-229462619D02*
X125309524Y-229605476D01*
X125309524Y-229605476D02*
X125261905Y-229795952D01*
X125261905Y-229795952D02*
X125261905Y-230176904D01*
X125261905Y-230176904D02*
X125309524Y-230272142D01*
X125309524Y-230272142D02*
X125357143Y-230319761D01*
X125357143Y-230319761D02*
X125452381Y-230367380D01*
X125452381Y-230367380D02*
X125642857Y-230367380D01*
X125642857Y-230367380D02*
X125738095Y-230319761D01*
X125738095Y-230319761D02*
X125785714Y-230272142D01*
X125785714Y-230272142D02*
X125833333Y-230176904D01*
X125833333Y-230176904D02*
X125833333Y-229938809D01*
X125833333Y-229938809D02*
X125785714Y-229843571D01*
X125785714Y-229843571D02*
X125738095Y-229795952D01*
X125738095Y-229795952D02*
X125642857Y-229748333D01*
X125642857Y-229748333D02*
X125452381Y-229748333D01*
X125452381Y-229748333D02*
X125357143Y-229795952D01*
X125357143Y-229795952D02*
X125309524Y-229843571D01*
X125309524Y-229843571D02*
X125261905Y-229938809D01*
%TO.C,SW8*%
X148166667Y-230819761D02*
X148309524Y-230867380D01*
X148309524Y-230867380D02*
X148547619Y-230867380D01*
X148547619Y-230867380D02*
X148642857Y-230819761D01*
X148642857Y-230819761D02*
X148690476Y-230772142D01*
X148690476Y-230772142D02*
X148738095Y-230676904D01*
X148738095Y-230676904D02*
X148738095Y-230581666D01*
X148738095Y-230581666D02*
X148690476Y-230486428D01*
X148690476Y-230486428D02*
X148642857Y-230438809D01*
X148642857Y-230438809D02*
X148547619Y-230391190D01*
X148547619Y-230391190D02*
X148357143Y-230343571D01*
X148357143Y-230343571D02*
X148261905Y-230295952D01*
X148261905Y-230295952D02*
X148214286Y-230248333D01*
X148214286Y-230248333D02*
X148166667Y-230153095D01*
X148166667Y-230153095D02*
X148166667Y-230057857D01*
X148166667Y-230057857D02*
X148214286Y-229962619D01*
X148214286Y-229962619D02*
X148261905Y-229915000D01*
X148261905Y-229915000D02*
X148357143Y-229867380D01*
X148357143Y-229867380D02*
X148595238Y-229867380D01*
X148595238Y-229867380D02*
X148738095Y-229915000D01*
X149071429Y-229867380D02*
X149309524Y-230867380D01*
X149309524Y-230867380D02*
X149500000Y-230153095D01*
X149500000Y-230153095D02*
X149690476Y-230867380D01*
X149690476Y-230867380D02*
X149928572Y-229867380D01*
X150452381Y-230295952D02*
X150357143Y-230248333D01*
X150357143Y-230248333D02*
X150309524Y-230200714D01*
X150309524Y-230200714D02*
X150261905Y-230105476D01*
X150261905Y-230105476D02*
X150261905Y-230057857D01*
X150261905Y-230057857D02*
X150309524Y-229962619D01*
X150309524Y-229962619D02*
X150357143Y-229915000D01*
X150357143Y-229915000D02*
X150452381Y-229867380D01*
X150452381Y-229867380D02*
X150642857Y-229867380D01*
X150642857Y-229867380D02*
X150738095Y-229915000D01*
X150738095Y-229915000D02*
X150785714Y-229962619D01*
X150785714Y-229962619D02*
X150833333Y-230057857D01*
X150833333Y-230057857D02*
X150833333Y-230105476D01*
X150833333Y-230105476D02*
X150785714Y-230200714D01*
X150785714Y-230200714D02*
X150738095Y-230248333D01*
X150738095Y-230248333D02*
X150642857Y-230295952D01*
X150642857Y-230295952D02*
X150452381Y-230295952D01*
X150452381Y-230295952D02*
X150357143Y-230343571D01*
X150357143Y-230343571D02*
X150309524Y-230391190D01*
X150309524Y-230391190D02*
X150261905Y-230486428D01*
X150261905Y-230486428D02*
X150261905Y-230676904D01*
X150261905Y-230676904D02*
X150309524Y-230772142D01*
X150309524Y-230772142D02*
X150357143Y-230819761D01*
X150357143Y-230819761D02*
X150452381Y-230867380D01*
X150452381Y-230867380D02*
X150642857Y-230867380D01*
X150642857Y-230867380D02*
X150738095Y-230819761D01*
X150738095Y-230819761D02*
X150785714Y-230772142D01*
X150785714Y-230772142D02*
X150833333Y-230676904D01*
X150833333Y-230676904D02*
X150833333Y-230486428D01*
X150833333Y-230486428D02*
X150785714Y-230391190D01*
X150785714Y-230391190D02*
X150738095Y-230343571D01*
X150738095Y-230343571D02*
X150642857Y-230295952D01*
%TO.C,SW1*%
X73237667Y-205319761D02*
X73380524Y-205367380D01*
X73380524Y-205367380D02*
X73618619Y-205367380D01*
X73618619Y-205367380D02*
X73713857Y-205319761D01*
X73713857Y-205319761D02*
X73761476Y-205272142D01*
X73761476Y-205272142D02*
X73809095Y-205176904D01*
X73809095Y-205176904D02*
X73809095Y-205081666D01*
X73809095Y-205081666D02*
X73761476Y-204986428D01*
X73761476Y-204986428D02*
X73713857Y-204938809D01*
X73713857Y-204938809D02*
X73618619Y-204891190D01*
X73618619Y-204891190D02*
X73428143Y-204843571D01*
X73428143Y-204843571D02*
X73332905Y-204795952D01*
X73332905Y-204795952D02*
X73285286Y-204748333D01*
X73285286Y-204748333D02*
X73237667Y-204653095D01*
X73237667Y-204653095D02*
X73237667Y-204557857D01*
X73237667Y-204557857D02*
X73285286Y-204462619D01*
X73285286Y-204462619D02*
X73332905Y-204415000D01*
X73332905Y-204415000D02*
X73428143Y-204367380D01*
X73428143Y-204367380D02*
X73666238Y-204367380D01*
X73666238Y-204367380D02*
X73809095Y-204415000D01*
X74142429Y-204367380D02*
X74380524Y-205367380D01*
X74380524Y-205367380D02*
X74571000Y-204653095D01*
X74571000Y-204653095D02*
X74761476Y-205367380D01*
X74761476Y-205367380D02*
X74999572Y-204367380D01*
X75904333Y-205367380D02*
X75332905Y-205367380D01*
X75618619Y-205367380D02*
X75618619Y-204367380D01*
X75618619Y-204367380D02*
X75523381Y-204510238D01*
X75523381Y-204510238D02*
X75428143Y-204605476D01*
X75428143Y-204605476D02*
X75332905Y-204653095D01*
%TO.C,D3*%
X98761905Y-196367380D02*
X98761905Y-195367380D01*
X98761905Y-195367380D02*
X99000000Y-195367380D01*
X99000000Y-195367380D02*
X99142857Y-195415000D01*
X99142857Y-195415000D02*
X99238095Y-195510238D01*
X99238095Y-195510238D02*
X99285714Y-195605476D01*
X99285714Y-195605476D02*
X99333333Y-195795952D01*
X99333333Y-195795952D02*
X99333333Y-195938809D01*
X99333333Y-195938809D02*
X99285714Y-196129285D01*
X99285714Y-196129285D02*
X99238095Y-196224523D01*
X99238095Y-196224523D02*
X99142857Y-196319761D01*
X99142857Y-196319761D02*
X99000000Y-196367380D01*
X99000000Y-196367380D02*
X98761905Y-196367380D01*
X99666667Y-195367380D02*
X100285714Y-195367380D01*
X100285714Y-195367380D02*
X99952381Y-195748333D01*
X99952381Y-195748333D02*
X100095238Y-195748333D01*
X100095238Y-195748333D02*
X100190476Y-195795952D01*
X100190476Y-195795952D02*
X100238095Y-195843571D01*
X100238095Y-195843571D02*
X100285714Y-195938809D01*
X100285714Y-195938809D02*
X100285714Y-196176904D01*
X100285714Y-196176904D02*
X100238095Y-196272142D01*
X100238095Y-196272142D02*
X100190476Y-196319761D01*
X100190476Y-196319761D02*
X100095238Y-196367380D01*
X100095238Y-196367380D02*
X99809524Y-196367380D01*
X99809524Y-196367380D02*
X99714286Y-196319761D01*
X99714286Y-196319761D02*
X99666667Y-196272142D01*
%TO.C,D5*%
X123761905Y-196367280D02*
X123761905Y-195367280D01*
X123761905Y-195367280D02*
X124000000Y-195367280D01*
X124000000Y-195367280D02*
X124142857Y-195414900D01*
X124142857Y-195414900D02*
X124238095Y-195510138D01*
X124238095Y-195510138D02*
X124285714Y-195605376D01*
X124285714Y-195605376D02*
X124333333Y-195795852D01*
X124333333Y-195795852D02*
X124333333Y-195938709D01*
X124333333Y-195938709D02*
X124285714Y-196129185D01*
X124285714Y-196129185D02*
X124238095Y-196224423D01*
X124238095Y-196224423D02*
X124142857Y-196319661D01*
X124142857Y-196319661D02*
X124000000Y-196367280D01*
X124000000Y-196367280D02*
X123761905Y-196367280D01*
X125238095Y-195367280D02*
X124761905Y-195367280D01*
X124761905Y-195367280D02*
X124714286Y-195843471D01*
X124714286Y-195843471D02*
X124761905Y-195795852D01*
X124761905Y-195795852D02*
X124857143Y-195748233D01*
X124857143Y-195748233D02*
X125095238Y-195748233D01*
X125095238Y-195748233D02*
X125190476Y-195795852D01*
X125190476Y-195795852D02*
X125238095Y-195843471D01*
X125238095Y-195843471D02*
X125285714Y-195938709D01*
X125285714Y-195938709D02*
X125285714Y-196176804D01*
X125285714Y-196176804D02*
X125238095Y-196272042D01*
X125238095Y-196272042D02*
X125190476Y-196319661D01*
X125190476Y-196319661D02*
X125095238Y-196367280D01*
X125095238Y-196367280D02*
X124857143Y-196367280D01*
X124857143Y-196367280D02*
X124761905Y-196319661D01*
X124761905Y-196319661D02*
X124714286Y-196272042D01*
%TO.C,D7*%
X148714905Y-196367380D02*
X148714905Y-195367380D01*
X148714905Y-195367380D02*
X148953000Y-195367380D01*
X148953000Y-195367380D02*
X149095857Y-195415000D01*
X149095857Y-195415000D02*
X149191095Y-195510238D01*
X149191095Y-195510238D02*
X149238714Y-195605476D01*
X149238714Y-195605476D02*
X149286333Y-195795952D01*
X149286333Y-195795952D02*
X149286333Y-195938809D01*
X149286333Y-195938809D02*
X149238714Y-196129285D01*
X149238714Y-196129285D02*
X149191095Y-196224523D01*
X149191095Y-196224523D02*
X149095857Y-196319761D01*
X149095857Y-196319761D02*
X148953000Y-196367380D01*
X148953000Y-196367380D02*
X148714905Y-196367380D01*
X149619667Y-195367380D02*
X150286333Y-195367380D01*
X150286333Y-195367380D02*
X149857762Y-196367380D01*
%TO.C,D2*%
X73761905Y-221416480D02*
X73761905Y-220416480D01*
X73761905Y-220416480D02*
X74000000Y-220416480D01*
X74000000Y-220416480D02*
X74142857Y-220464100D01*
X74142857Y-220464100D02*
X74238095Y-220559338D01*
X74238095Y-220559338D02*
X74285714Y-220654576D01*
X74285714Y-220654576D02*
X74333333Y-220845052D01*
X74333333Y-220845052D02*
X74333333Y-220987909D01*
X74333333Y-220987909D02*
X74285714Y-221178385D01*
X74285714Y-221178385D02*
X74238095Y-221273623D01*
X74238095Y-221273623D02*
X74142857Y-221368861D01*
X74142857Y-221368861D02*
X74000000Y-221416480D01*
X74000000Y-221416480D02*
X73761905Y-221416480D01*
X74714286Y-220511719D02*
X74761905Y-220464100D01*
X74761905Y-220464100D02*
X74857143Y-220416480D01*
X74857143Y-220416480D02*
X75095238Y-220416480D01*
X75095238Y-220416480D02*
X75190476Y-220464100D01*
X75190476Y-220464100D02*
X75238095Y-220511719D01*
X75238095Y-220511719D02*
X75285714Y-220606957D01*
X75285714Y-220606957D02*
X75285714Y-220702195D01*
X75285714Y-220702195D02*
X75238095Y-220845052D01*
X75238095Y-220845052D02*
X74666667Y-221416480D01*
X74666667Y-221416480D02*
X75285714Y-221416480D01*
%TO.C,D6*%
X123761905Y-221367380D02*
X123761905Y-220367380D01*
X123761905Y-220367380D02*
X124000000Y-220367380D01*
X124000000Y-220367380D02*
X124142857Y-220415000D01*
X124142857Y-220415000D02*
X124238095Y-220510238D01*
X124238095Y-220510238D02*
X124285714Y-220605476D01*
X124285714Y-220605476D02*
X124333333Y-220795952D01*
X124333333Y-220795952D02*
X124333333Y-220938809D01*
X124333333Y-220938809D02*
X124285714Y-221129285D01*
X124285714Y-221129285D02*
X124238095Y-221224523D01*
X124238095Y-221224523D02*
X124142857Y-221319761D01*
X124142857Y-221319761D02*
X124000000Y-221367380D01*
X124000000Y-221367380D02*
X123761905Y-221367380D01*
X125190476Y-220367380D02*
X125000000Y-220367380D01*
X125000000Y-220367380D02*
X124904762Y-220415000D01*
X124904762Y-220415000D02*
X124857143Y-220462619D01*
X124857143Y-220462619D02*
X124761905Y-220605476D01*
X124761905Y-220605476D02*
X124714286Y-220795952D01*
X124714286Y-220795952D02*
X124714286Y-221176904D01*
X124714286Y-221176904D02*
X124761905Y-221272142D01*
X124761905Y-221272142D02*
X124809524Y-221319761D01*
X124809524Y-221319761D02*
X124904762Y-221367380D01*
X124904762Y-221367380D02*
X125095238Y-221367380D01*
X125095238Y-221367380D02*
X125190476Y-221319761D01*
X125190476Y-221319761D02*
X125238095Y-221272142D01*
X125238095Y-221272142D02*
X125285714Y-221176904D01*
X125285714Y-221176904D02*
X125285714Y-220938809D01*
X125285714Y-220938809D02*
X125238095Y-220843571D01*
X125238095Y-220843571D02*
X125190476Y-220795952D01*
X125190476Y-220795952D02*
X125095238Y-220748333D01*
X125095238Y-220748333D02*
X124904762Y-220748333D01*
X124904762Y-220748333D02*
X124809524Y-220795952D01*
X124809524Y-220795952D02*
X124761905Y-220843571D01*
X124761905Y-220843571D02*
X124714286Y-220938809D01*
%TO.C,D8*%
X148698905Y-221367380D02*
X148698905Y-220367380D01*
X148698905Y-220367380D02*
X148937000Y-220367380D01*
X148937000Y-220367380D02*
X149079857Y-220415000D01*
X149079857Y-220415000D02*
X149175095Y-220510238D01*
X149175095Y-220510238D02*
X149222714Y-220605476D01*
X149222714Y-220605476D02*
X149270333Y-220795952D01*
X149270333Y-220795952D02*
X149270333Y-220938809D01*
X149270333Y-220938809D02*
X149222714Y-221129285D01*
X149222714Y-221129285D02*
X149175095Y-221224523D01*
X149175095Y-221224523D02*
X149079857Y-221319761D01*
X149079857Y-221319761D02*
X148937000Y-221367380D01*
X148937000Y-221367380D02*
X148698905Y-221367380D01*
X149841762Y-220795952D02*
X149746524Y-220748333D01*
X149746524Y-220748333D02*
X149698905Y-220700714D01*
X149698905Y-220700714D02*
X149651286Y-220605476D01*
X149651286Y-220605476D02*
X149651286Y-220557857D01*
X149651286Y-220557857D02*
X149698905Y-220462619D01*
X149698905Y-220462619D02*
X149746524Y-220415000D01*
X149746524Y-220415000D02*
X149841762Y-220367380D01*
X149841762Y-220367380D02*
X150032238Y-220367380D01*
X150032238Y-220367380D02*
X150127476Y-220415000D01*
X150127476Y-220415000D02*
X150175095Y-220462619D01*
X150175095Y-220462619D02*
X150222714Y-220557857D01*
X150222714Y-220557857D02*
X150222714Y-220605476D01*
X150222714Y-220605476D02*
X150175095Y-220700714D01*
X150175095Y-220700714D02*
X150127476Y-220748333D01*
X150127476Y-220748333D02*
X150032238Y-220795952D01*
X150032238Y-220795952D02*
X149841762Y-220795952D01*
X149841762Y-220795952D02*
X149746524Y-220843571D01*
X149746524Y-220843571D02*
X149698905Y-220891190D01*
X149698905Y-220891190D02*
X149651286Y-220986428D01*
X149651286Y-220986428D02*
X149651286Y-221176904D01*
X149651286Y-221176904D02*
X149698905Y-221272142D01*
X149698905Y-221272142D02*
X149746524Y-221319761D01*
X149746524Y-221319761D02*
X149841762Y-221367380D01*
X149841762Y-221367380D02*
X150032238Y-221367380D01*
X150032238Y-221367380D02*
X150127476Y-221319761D01*
X150127476Y-221319761D02*
X150175095Y-221272142D01*
X150175095Y-221272142D02*
X150222714Y-221176904D01*
X150222714Y-221176904D02*
X150222714Y-220986428D01*
X150222714Y-220986428D02*
X150175095Y-220891190D01*
X150175095Y-220891190D02*
X150127476Y-220843571D01*
X150127476Y-220843571D02*
X150032238Y-220795952D01*
%TO.C,D1*%
X73832905Y-196367380D02*
X73832905Y-195367380D01*
X73832905Y-195367380D02*
X74071000Y-195367380D01*
X74071000Y-195367380D02*
X74213857Y-195415000D01*
X74213857Y-195415000D02*
X74309095Y-195510238D01*
X74309095Y-195510238D02*
X74356714Y-195605476D01*
X74356714Y-195605476D02*
X74404333Y-195795952D01*
X74404333Y-195795952D02*
X74404333Y-195938809D01*
X74404333Y-195938809D02*
X74356714Y-196129285D01*
X74356714Y-196129285D02*
X74309095Y-196224523D01*
X74309095Y-196224523D02*
X74213857Y-196319761D01*
X74213857Y-196319761D02*
X74071000Y-196367380D01*
X74071000Y-196367380D02*
X73832905Y-196367380D01*
X75356714Y-196367380D02*
X74785286Y-196367380D01*
X75071000Y-196367380D02*
X75071000Y-195367380D01*
X75071000Y-195367380D02*
X74975762Y-195510238D01*
X74975762Y-195510238D02*
X74880524Y-195605476D01*
X74880524Y-195605476D02*
X74785286Y-195653095D01*
%TO.C,D4*%
X98761905Y-221367380D02*
X98761905Y-220367380D01*
X98761905Y-220367380D02*
X99000000Y-220367380D01*
X99000000Y-220367380D02*
X99142857Y-220415000D01*
X99142857Y-220415000D02*
X99238095Y-220510238D01*
X99238095Y-220510238D02*
X99285714Y-220605476D01*
X99285714Y-220605476D02*
X99333333Y-220795952D01*
X99333333Y-220795952D02*
X99333333Y-220938809D01*
X99333333Y-220938809D02*
X99285714Y-221129285D01*
X99285714Y-221129285D02*
X99238095Y-221224523D01*
X99238095Y-221224523D02*
X99142857Y-221319761D01*
X99142857Y-221319761D02*
X99000000Y-221367380D01*
X99000000Y-221367380D02*
X98761905Y-221367380D01*
X100190476Y-220700714D02*
X100190476Y-221367380D01*
X99952381Y-220319761D02*
X99714286Y-221034047D01*
X99714286Y-221034047D02*
X100333333Y-221034047D01*
%TO.C,SW4*%
X98166667Y-230819761D02*
X98309524Y-230867380D01*
X98309524Y-230867380D02*
X98547619Y-230867380D01*
X98547619Y-230867380D02*
X98642857Y-230819761D01*
X98642857Y-230819761D02*
X98690476Y-230772142D01*
X98690476Y-230772142D02*
X98738095Y-230676904D01*
X98738095Y-230676904D02*
X98738095Y-230581666D01*
X98738095Y-230581666D02*
X98690476Y-230486428D01*
X98690476Y-230486428D02*
X98642857Y-230438809D01*
X98642857Y-230438809D02*
X98547619Y-230391190D01*
X98547619Y-230391190D02*
X98357143Y-230343571D01*
X98357143Y-230343571D02*
X98261905Y-230295952D01*
X98261905Y-230295952D02*
X98214286Y-230248333D01*
X98214286Y-230248333D02*
X98166667Y-230153095D01*
X98166667Y-230153095D02*
X98166667Y-230057857D01*
X98166667Y-230057857D02*
X98214286Y-229962619D01*
X98214286Y-229962619D02*
X98261905Y-229915000D01*
X98261905Y-229915000D02*
X98357143Y-229867380D01*
X98357143Y-229867380D02*
X98595238Y-229867380D01*
X98595238Y-229867380D02*
X98738095Y-229915000D01*
X99071429Y-229867380D02*
X99309524Y-230867380D01*
X99309524Y-230867380D02*
X99500000Y-230153095D01*
X99500000Y-230153095D02*
X99690476Y-230867380D01*
X99690476Y-230867380D02*
X99928572Y-229867380D01*
X100738095Y-230200714D02*
X100738095Y-230867380D01*
X100500000Y-229819761D02*
X100261905Y-230534047D01*
X100261905Y-230534047D02*
X100880952Y-230534047D01*
%TO.C,SW3*%
X94500000Y-197950000D02*
X94500000Y-198450000D01*
X94500000Y-203000000D02*
X94500000Y-201000000D01*
X95700000Y-196700000D02*
X103400000Y-196700000D01*
X103300000Y-204200000D02*
X95700000Y-204200000D01*
X104500000Y-197900000D02*
X104500000Y-200100000D01*
X104500000Y-202500000D02*
X104500000Y-203000000D01*
X102328427Y-200400000D02*
G75*
G03*
X102328427Y-200400000I-2828427J0D01*
G01*
%TO.C,SW5*%
X119500000Y-197950000D02*
X119500000Y-198450000D01*
X119500000Y-203000000D02*
X119500000Y-201000000D01*
X120700000Y-196700000D02*
X128400000Y-196700000D01*
X128300000Y-204200000D02*
X120700000Y-204200000D01*
X129500000Y-197900000D02*
X129500000Y-200100000D01*
X129500000Y-202500000D02*
X129500000Y-203000000D01*
X127328427Y-200400000D02*
G75*
G03*
X127328427Y-200400000I-2828427J0D01*
G01*
%TO.C,SW7*%
X144500000Y-197950000D02*
X144500000Y-198450000D01*
X144500000Y-203000000D02*
X144500000Y-201000000D01*
X145700000Y-196700000D02*
X153400000Y-196700000D01*
X153300000Y-204200000D02*
X145700000Y-204200000D01*
X154500000Y-197900000D02*
X154500000Y-200100000D01*
X154500000Y-202500000D02*
X154500000Y-203000000D01*
X152328427Y-200400000D02*
G75*
G03*
X152328427Y-200400000I-2828427J0D01*
G01*
%TO.C,SW2*%
X69500000Y-222950100D02*
X69500000Y-223450100D01*
X69500000Y-228000100D02*
X69500000Y-226000100D01*
X70700000Y-221700100D02*
X78400000Y-221700100D01*
X78300000Y-229200100D02*
X70700000Y-229200100D01*
X79500000Y-222900100D02*
X79500000Y-225100100D01*
X79500000Y-227500100D02*
X79500000Y-228000100D01*
X77328427Y-225400100D02*
G75*
G03*
X77328427Y-225400100I-2828427J0D01*
G01*
%TO.C,SW6*%
X119500000Y-222950000D02*
X119500000Y-223450000D01*
X119500000Y-228000000D02*
X119500000Y-226000000D01*
X120700000Y-221700000D02*
X128400000Y-221700000D01*
X128300000Y-229200000D02*
X120700000Y-229200000D01*
X129500000Y-222900000D02*
X129500000Y-225100000D01*
X129500000Y-227500000D02*
X129500000Y-228000000D01*
X127328427Y-225400000D02*
G75*
G03*
X127328427Y-225400000I-2828427J0D01*
G01*
%TO.C,SW8*%
X144437000Y-222968700D02*
X144437000Y-223468700D01*
X144437000Y-228018700D02*
X144437000Y-226018700D01*
X145637000Y-221718700D02*
X153337000Y-221718700D01*
X153237000Y-229218700D02*
X145637000Y-229218700D01*
X154437000Y-222918700D02*
X154437000Y-225118700D01*
X154437000Y-227518700D02*
X154437000Y-228018700D01*
X152265427Y-225418700D02*
G75*
G03*
X152265427Y-225418700I-2828427J0D01*
G01*
%TO.C,SW1*%
X69571000Y-197931300D02*
X69571000Y-198431300D01*
X69571000Y-202981300D02*
X69571000Y-200981300D01*
X70771000Y-196681300D02*
X78471000Y-196681300D01*
X78371000Y-204181300D02*
X70771000Y-204181300D01*
X79571000Y-197881300D02*
X79571000Y-200081300D01*
X79571000Y-202481300D02*
X79571000Y-202981300D01*
X77399427Y-200381300D02*
G75*
G03*
X77399427Y-200381300I-2828427J0D01*
G01*
D11*
%TO.C,D3*%
X101100000Y-201770000D02*
X101100000Y-199230000D01*
X97736070Y-199536653D02*
G75*
G03*
X97493200Y-200500000I1789170J-963357D01*
G01*
X99524225Y-198470540D02*
G75*
G03*
X97734500Y-199544960I974J-2029458D01*
G01*
X97494276Y-200500100D02*
G75*
G03*
X97795460Y-201564260I2030884J90D01*
G01*
D12*
X98354336Y-199524473D02*
G75*
G03*
X98001200Y-200500000I1170864J-975527D01*
G01*
X99524399Y-198976000D02*
G75*
G03*
X98306000Y-199585600I801J-1524000D01*
G01*
X98003089Y-200500469D02*
G75*
G03*
X98387281Y-201510920I1522081J459D01*
G01*
X99525200Y-199484000D02*
G75*
G03*
X98509200Y-200500000I2J-1016002D01*
G01*
X99525200Y-199865000D02*
G75*
G03*
X98890200Y-200500000I0J-635000D01*
G01*
D11*
X101084080Y-199196574D02*
G75*
G03*
X99525200Y-198468000I-1558882J-1303432D01*
G01*
D12*
X100764366Y-199612845D02*
G75*
G03*
X99525200Y-198976000I-1239172J-887168D01*
G01*
X98322636Y-201436171D02*
G75*
G03*
X99525200Y-202024000I1202562J936167D01*
G01*
D11*
X97761901Y-201509851D02*
G75*
G03*
X99525200Y-202532000I1763297J1009847D01*
G01*
D12*
X99525200Y-201135000D02*
G75*
G03*
X100160200Y-200500000I0J635000D01*
G01*
X99525200Y-201516000D02*
G75*
G03*
X100541200Y-200500000I-2J1016002D01*
G01*
X101047346Y-200499966D02*
G75*
G03*
X100680900Y-199509400I-1522176J-44D01*
G01*
X99525642Y-202022206D02*
G75*
G03*
X100726620Y-201434720I-442J1522206D01*
G01*
X100696064Y-201475527D02*
G75*
G03*
X101049200Y-200500000I-1170864J975527D01*
G01*
D11*
X99527752Y-202529386D02*
G75*
G03*
X101074600Y-201810640I-2550J2029382D01*
G01*
%TO.C,D5*%
X126100000Y-201770000D02*
X126100000Y-199230000D01*
X122736070Y-199536653D02*
G75*
G03*
X122493200Y-200500000I1789170J-963357D01*
G01*
X124524225Y-198470540D02*
G75*
G03*
X122734500Y-199544960I974J-2029458D01*
G01*
X122494276Y-200500100D02*
G75*
G03*
X122795460Y-201564260I2030884J90D01*
G01*
D12*
X123354336Y-199524473D02*
G75*
G03*
X123001200Y-200500000I1170864J-975527D01*
G01*
X124524399Y-198976000D02*
G75*
G03*
X123306000Y-199585600I801J-1524000D01*
G01*
X123003089Y-200500469D02*
G75*
G03*
X123387281Y-201510920I1522081J459D01*
G01*
X124525200Y-199484000D02*
G75*
G03*
X123509200Y-200500000I2J-1016002D01*
G01*
X124525200Y-199865000D02*
G75*
G03*
X123890200Y-200500000I0J-635000D01*
G01*
D11*
X126084080Y-199196574D02*
G75*
G03*
X124525200Y-198468000I-1558882J-1303432D01*
G01*
D12*
X125764366Y-199612845D02*
G75*
G03*
X124525200Y-198976000I-1239172J-887168D01*
G01*
X123322636Y-201436171D02*
G75*
G03*
X124525200Y-202024000I1202562J936167D01*
G01*
D11*
X122761901Y-201509851D02*
G75*
G03*
X124525200Y-202532000I1763297J1009847D01*
G01*
D12*
X124525200Y-201135000D02*
G75*
G03*
X125160200Y-200500000I0J635000D01*
G01*
X124525200Y-201516000D02*
G75*
G03*
X125541200Y-200500000I-2J1016002D01*
G01*
X126047346Y-200499966D02*
G75*
G03*
X125680900Y-199509400I-1522176J-44D01*
G01*
X124525642Y-202022206D02*
G75*
G03*
X125726620Y-201434720I-442J1522206D01*
G01*
X125696064Y-201475527D02*
G75*
G03*
X126049200Y-200500000I-1170864J975527D01*
G01*
D11*
X124527752Y-202529386D02*
G75*
G03*
X126074600Y-201810640I-2550J2029382D01*
G01*
%TO.C,D7*%
X151100000Y-201770000D02*
X151100000Y-199230000D01*
X147736070Y-199536653D02*
G75*
G03*
X147493200Y-200500000I1789170J-963357D01*
G01*
X149524225Y-198470540D02*
G75*
G03*
X147734500Y-199544960I974J-2029458D01*
G01*
X147494276Y-200500100D02*
G75*
G03*
X147795460Y-201564260I2030884J90D01*
G01*
D12*
X148354336Y-199524473D02*
G75*
G03*
X148001200Y-200500000I1170864J-975527D01*
G01*
X149524399Y-198976000D02*
G75*
G03*
X148306000Y-199585600I801J-1524000D01*
G01*
X148003089Y-200500469D02*
G75*
G03*
X148387281Y-201510920I1522081J459D01*
G01*
X149525200Y-199484000D02*
G75*
G03*
X148509200Y-200500000I2J-1016002D01*
G01*
X149525200Y-199865000D02*
G75*
G03*
X148890200Y-200500000I0J-635000D01*
G01*
D11*
X151084080Y-199196574D02*
G75*
G03*
X149525200Y-198468000I-1558882J-1303432D01*
G01*
D12*
X150764366Y-199612845D02*
G75*
G03*
X149525200Y-198976000I-1239172J-887168D01*
G01*
X148322636Y-201436171D02*
G75*
G03*
X149525200Y-202024000I1202562J936167D01*
G01*
D11*
X147761901Y-201509851D02*
G75*
G03*
X149525200Y-202532000I1763297J1009847D01*
G01*
D12*
X149525200Y-201135000D02*
G75*
G03*
X150160200Y-200500000I0J635000D01*
G01*
X149525200Y-201516000D02*
G75*
G03*
X150541200Y-200500000I-2J1016002D01*
G01*
X151047346Y-200499966D02*
G75*
G03*
X150680900Y-199509400I-1522176J-44D01*
G01*
X149525642Y-202022206D02*
G75*
G03*
X150726620Y-201434720I-442J1522206D01*
G01*
X150696064Y-201475527D02*
G75*
G03*
X151049200Y-200500000I-1170864J975527D01*
G01*
D11*
X149527752Y-202529386D02*
G75*
G03*
X151074600Y-201810640I-2550J2029382D01*
G01*
%TO.C,D2*%
X76100000Y-226770100D02*
X76100000Y-224230100D01*
X72736070Y-224536753D02*
G75*
G03*
X72493200Y-225500100I1789170J-963357D01*
G01*
X74524225Y-223470640D02*
G75*
G03*
X72734500Y-224545060I974J-2029458D01*
G01*
X72494276Y-225500200D02*
G75*
G03*
X72795460Y-226564360I2030884J90D01*
G01*
D12*
X73354336Y-224524573D02*
G75*
G03*
X73001200Y-225500100I1170864J-975527D01*
G01*
X74524399Y-223976100D02*
G75*
G03*
X73306000Y-224585700I801J-1524000D01*
G01*
X73003089Y-225500569D02*
G75*
G03*
X73387281Y-226511020I1522081J459D01*
G01*
X74525200Y-224484100D02*
G75*
G03*
X73509200Y-225500100I2J-1016002D01*
G01*
X74525200Y-224865100D02*
G75*
G03*
X73890200Y-225500100I0J-635000D01*
G01*
D11*
X76084080Y-224196674D02*
G75*
G03*
X74525200Y-223468100I-1558882J-1303432D01*
G01*
D12*
X75764366Y-224612945D02*
G75*
G03*
X74525200Y-223976100I-1239172J-887168D01*
G01*
X73322636Y-226436271D02*
G75*
G03*
X74525200Y-227024100I1202562J936167D01*
G01*
D11*
X72761901Y-226509951D02*
G75*
G03*
X74525200Y-227532100I1763297J1009847D01*
G01*
D12*
X74525200Y-226135100D02*
G75*
G03*
X75160200Y-225500100I0J635000D01*
G01*
X74525200Y-226516100D02*
G75*
G03*
X75541200Y-225500100I-2J1016002D01*
G01*
X76047346Y-225500066D02*
G75*
G03*
X75680900Y-224509500I-1522176J-44D01*
G01*
X74525642Y-227022306D02*
G75*
G03*
X75726620Y-226434820I-442J1522206D01*
G01*
X75696064Y-226475627D02*
G75*
G03*
X76049200Y-225500100I-1170864J975527D01*
G01*
D11*
X74527752Y-227529486D02*
G75*
G03*
X76074600Y-226810740I-2550J2029382D01*
G01*
%TO.C,D6*%
X126100000Y-226770000D02*
X126100000Y-224230000D01*
X122736070Y-224536653D02*
G75*
G03*
X122493200Y-225500000I1789170J-963357D01*
G01*
X124524225Y-223470540D02*
G75*
G03*
X122734500Y-224544960I974J-2029458D01*
G01*
X122494276Y-225500100D02*
G75*
G03*
X122795460Y-226564260I2030884J90D01*
G01*
D12*
X123354336Y-224524473D02*
G75*
G03*
X123001200Y-225500000I1170864J-975527D01*
G01*
X124524399Y-223976000D02*
G75*
G03*
X123306000Y-224585600I801J-1524000D01*
G01*
X123003089Y-225500469D02*
G75*
G03*
X123387281Y-226510920I1522081J459D01*
G01*
X124525200Y-224484000D02*
G75*
G03*
X123509200Y-225500000I2J-1016002D01*
G01*
X124525200Y-224865000D02*
G75*
G03*
X123890200Y-225500000I0J-635000D01*
G01*
D11*
X126084080Y-224196574D02*
G75*
G03*
X124525200Y-223468000I-1558882J-1303432D01*
G01*
D12*
X125764366Y-224612845D02*
G75*
G03*
X124525200Y-223976000I-1239172J-887168D01*
G01*
X123322636Y-226436171D02*
G75*
G03*
X124525200Y-227024000I1202562J936167D01*
G01*
D11*
X122761901Y-226509851D02*
G75*
G03*
X124525200Y-227532000I1763297J1009847D01*
G01*
D12*
X124525200Y-226135000D02*
G75*
G03*
X125160200Y-225500000I0J635000D01*
G01*
X124525200Y-226516000D02*
G75*
G03*
X125541200Y-225500000I-2J1016002D01*
G01*
X126047346Y-225499966D02*
G75*
G03*
X125680900Y-224509400I-1522176J-44D01*
G01*
X124525642Y-227022206D02*
G75*
G03*
X125726620Y-226434720I-442J1522206D01*
G01*
X125696064Y-226475527D02*
G75*
G03*
X126049200Y-225500000I-1170864J975527D01*
G01*
D11*
X124527752Y-227529386D02*
G75*
G03*
X126074600Y-226810640I-2550J2029382D01*
G01*
%TO.C,D8*%
X151053000Y-226788700D02*
X151053000Y-224248700D01*
X147689070Y-224555353D02*
G75*
G03*
X147446200Y-225518700I1789170J-963357D01*
G01*
X149477225Y-223489240D02*
G75*
G03*
X147687500Y-224563660I974J-2029458D01*
G01*
X147447276Y-225518800D02*
G75*
G03*
X147748460Y-226582960I2030884J90D01*
G01*
D12*
X148307336Y-224543173D02*
G75*
G03*
X147954200Y-225518700I1170864J-975527D01*
G01*
X149477399Y-223994700D02*
G75*
G03*
X148259000Y-224604300I801J-1524000D01*
G01*
X147956089Y-225519169D02*
G75*
G03*
X148340281Y-226529620I1522081J459D01*
G01*
X149478200Y-224502700D02*
G75*
G03*
X148462200Y-225518700I2J-1016002D01*
G01*
X149478200Y-224883700D02*
G75*
G03*
X148843200Y-225518700I0J-635000D01*
G01*
D11*
X151037080Y-224215274D02*
G75*
G03*
X149478200Y-223486700I-1558882J-1303432D01*
G01*
D12*
X150717366Y-224631545D02*
G75*
G03*
X149478200Y-223994700I-1239172J-887168D01*
G01*
X148275636Y-226454871D02*
G75*
G03*
X149478200Y-227042700I1202562J936167D01*
G01*
D11*
X147714901Y-226528551D02*
G75*
G03*
X149478200Y-227550700I1763297J1009847D01*
G01*
D12*
X149478200Y-226153700D02*
G75*
G03*
X150113200Y-225518700I0J635000D01*
G01*
X149478200Y-226534700D02*
G75*
G03*
X150494200Y-225518700I-2J1016002D01*
G01*
X151000346Y-225518666D02*
G75*
G03*
X150633900Y-224528100I-1522176J-44D01*
G01*
X149478642Y-227040906D02*
G75*
G03*
X150679620Y-226453420I-442J1522206D01*
G01*
X150649064Y-226494227D02*
G75*
G03*
X151002200Y-225518700I-1170864J975527D01*
G01*
D11*
X149480752Y-227548086D02*
G75*
G03*
X151027600Y-226829340I-2550J2029382D01*
G01*
%TO.C,D1*%
X76171000Y-201751300D02*
X76171000Y-199211300D01*
X72807070Y-199517953D02*
G75*
G03*
X72564200Y-200481300I1789170J-963357D01*
G01*
X74595225Y-198451840D02*
G75*
G03*
X72805500Y-199526260I974J-2029458D01*
G01*
X72565276Y-200481400D02*
G75*
G03*
X72866460Y-201545560I2030884J90D01*
G01*
D12*
X73425336Y-199505773D02*
G75*
G03*
X73072200Y-200481300I1170864J-975527D01*
G01*
X74595399Y-198957300D02*
G75*
G03*
X73377000Y-199566900I801J-1524000D01*
G01*
X73074089Y-200481769D02*
G75*
G03*
X73458281Y-201492220I1522081J459D01*
G01*
X74596200Y-199465300D02*
G75*
G03*
X73580200Y-200481300I2J-1016002D01*
G01*
X74596200Y-199846300D02*
G75*
G03*
X73961200Y-200481300I0J-635000D01*
G01*
D11*
X76155080Y-199177874D02*
G75*
G03*
X74596200Y-198449300I-1558882J-1303432D01*
G01*
D12*
X75835366Y-199594145D02*
G75*
G03*
X74596200Y-198957300I-1239172J-887168D01*
G01*
X73393636Y-201417471D02*
G75*
G03*
X74596200Y-202005300I1202562J936167D01*
G01*
D11*
X72832901Y-201491151D02*
G75*
G03*
X74596200Y-202513300I1763297J1009847D01*
G01*
D12*
X74596200Y-201116300D02*
G75*
G03*
X75231200Y-200481300I0J635000D01*
G01*
X74596200Y-201497300D02*
G75*
G03*
X75612200Y-200481300I-2J1016002D01*
G01*
X76118346Y-200481266D02*
G75*
G03*
X75751900Y-199490700I-1522176J-44D01*
G01*
X74596642Y-202003506D02*
G75*
G03*
X75797620Y-201416020I-442J1522206D01*
G01*
X75767064Y-201456827D02*
G75*
G03*
X76120200Y-200481300I-1170864J975527D01*
G01*
D11*
X74598752Y-202510686D02*
G75*
G03*
X76145600Y-201791940I-2550J2029382D01*
G01*
%TO.C,D4*%
X101100000Y-226770000D02*
X101100000Y-224230000D01*
X97736070Y-224536653D02*
G75*
G03*
X97493200Y-225500000I1789170J-963357D01*
G01*
X99524225Y-223470540D02*
G75*
G03*
X97734500Y-224544960I974J-2029458D01*
G01*
X97494276Y-225500100D02*
G75*
G03*
X97795460Y-226564260I2030884J90D01*
G01*
D12*
X98354336Y-224524473D02*
G75*
G03*
X98001200Y-225500000I1170864J-975527D01*
G01*
X99524399Y-223976000D02*
G75*
G03*
X98306000Y-224585600I801J-1524000D01*
G01*
X98003089Y-225500469D02*
G75*
G03*
X98387281Y-226510920I1522081J459D01*
G01*
X99525200Y-224484000D02*
G75*
G03*
X98509200Y-225500000I2J-1016002D01*
G01*
X99525200Y-224865000D02*
G75*
G03*
X98890200Y-225500000I0J-635000D01*
G01*
D11*
X101084080Y-224196574D02*
G75*
G03*
X99525200Y-223468000I-1558882J-1303432D01*
G01*
D12*
X100764366Y-224612845D02*
G75*
G03*
X99525200Y-223976000I-1239172J-887168D01*
G01*
X98322636Y-226436171D02*
G75*
G03*
X99525200Y-227024000I1202562J936167D01*
G01*
D11*
X97761901Y-226509851D02*
G75*
G03*
X99525200Y-227532000I1763297J1009847D01*
G01*
D12*
X99525200Y-226135000D02*
G75*
G03*
X100160200Y-225500000I0J635000D01*
G01*
X99525200Y-226516000D02*
G75*
G03*
X100541200Y-225500000I-2J1016002D01*
G01*
X101047346Y-225499966D02*
G75*
G03*
X100680900Y-224509400I-1522176J-44D01*
G01*
X99525642Y-227022206D02*
G75*
G03*
X100726620Y-226434720I-442J1522206D01*
G01*
X100696064Y-226475527D02*
G75*
G03*
X101049200Y-225500000I-1170864J975527D01*
G01*
D11*
X99527752Y-227529386D02*
G75*
G03*
X101074600Y-226810640I-2550J2029382D01*
G01*
D10*
%TO.C,SW4*%
X94500000Y-222950000D02*
X94500000Y-223450000D01*
X94500000Y-228000000D02*
X94500000Y-226000000D01*
X95700000Y-221700000D02*
X103400000Y-221700000D01*
X103300000Y-229200000D02*
X95700000Y-229200000D01*
X104500000Y-222900000D02*
X104500000Y-225100000D01*
X104500000Y-227500000D02*
X104500000Y-228000000D01*
X102328427Y-225400000D02*
G75*
G03*
X102328427Y-225400000I-2828427J0D01*
G01*
%TD*%
D13*
%TO.C,D3*%
X94271200Y-199400000D03*
X104921200Y-201600000D03*
%TD*%
%TO.C,D5*%
X119271200Y-199400000D03*
X129921200Y-201600000D03*
%TD*%
%TO.C,D7*%
X144271200Y-199400000D03*
X154921200Y-201600000D03*
%TD*%
%TO.C,D2*%
X69271200Y-224400100D03*
X79921200Y-226600100D03*
%TD*%
%TO.C,D6*%
X119271200Y-224400000D03*
X129921200Y-226600000D03*
%TD*%
%TO.C,D8*%
X144224200Y-224418700D03*
X154874200Y-226618700D03*
%TD*%
%TO.C,D1*%
X69342200Y-199381300D03*
X79992200Y-201581300D03*
%TD*%
%TO.C,D4*%
X94271200Y-224400000D03*
X104921200Y-226600000D03*
%TD*%
%LPC*%
D14*
%TO.C,SW3*%
X104500000Y-196700000D03*
X104500000Y-204200000D03*
X94500000Y-196700000D03*
X94500000Y-204200000D03*
%TD*%
%TO.C,SW5*%
X129500000Y-196700000D03*
X129500000Y-204200000D03*
X119500000Y-196700000D03*
X119500000Y-204200000D03*
%TD*%
%TO.C,SW7*%
X154500000Y-196700000D03*
X154500000Y-204200000D03*
X144500000Y-196700000D03*
X144500000Y-204200000D03*
%TD*%
%TO.C,SW2*%
X79500000Y-221700100D03*
X79500000Y-229200100D03*
X69500000Y-221700100D03*
X69500000Y-229200100D03*
%TD*%
%TO.C,SW6*%
X129500000Y-221700000D03*
X129500000Y-229200000D03*
X119500000Y-221700000D03*
X119500000Y-229200000D03*
%TD*%
%TO.C,SW8*%
X154437000Y-221718700D03*
X154437000Y-229218700D03*
X144437000Y-221718700D03*
X144437000Y-229218700D03*
%TD*%
%TO.C,SW1*%
X79571000Y-196681300D03*
X79571000Y-204181300D03*
X69571000Y-196681300D03*
X69571000Y-204181300D03*
%TD*%
D13*
%TO.C,D3*%
X94271200Y-199400000D03*
X104921200Y-201600000D03*
%TD*%
%TO.C,D5*%
X119271200Y-199400000D03*
X129921200Y-201600000D03*
%TD*%
%TO.C,D7*%
X144271200Y-199400000D03*
X154921200Y-201600000D03*
%TD*%
%TO.C,D2*%
X69271200Y-224400100D03*
X79921200Y-226600100D03*
%TD*%
%TO.C,D6*%
X119271200Y-224400000D03*
X129921200Y-226600000D03*
%TD*%
%TO.C,D8*%
X144224200Y-224418700D03*
X154874200Y-226618700D03*
%TD*%
%TO.C,D1*%
X69342200Y-199381300D03*
X79992200Y-201581300D03*
%TD*%
%TO.C,D4*%
X94271200Y-224400000D03*
X104921200Y-226600000D03*
%TD*%
D14*
%TO.C,SW4*%
X104500000Y-221700000D03*
X104500000Y-229200000D03*
X94500000Y-221700000D03*
X94500000Y-229200000D03*
%TD*%
D15*
%TO.C,H3*%
X87000000Y-225500000D03*
%TD*%
%TO.C,H4*%
X66000000Y-192000000D03*
%TD*%
%TO.C,H1*%
X87000000Y-200500000D03*
%TD*%
%TO.C,H2*%
X158000000Y-234000000D03*
%TD*%
%TO.C,H3*%
X66000000Y-234000000D03*
%TD*%
%TO.C,H4*%
X137000000Y-225500000D03*
%TD*%
%TO.C,H2*%
X137000000Y-200500000D03*
%TD*%
%TO.C,H1*%
X158000000Y-192000000D03*
%TD*%
D16*
%TO.C,J2*%
X142100000Y-214100000D03*
D17*
X142100000Y-211560000D03*
X139560000Y-214100000D03*
X139560000Y-211560000D03*
X137020000Y-214100000D03*
X137020000Y-211560000D03*
X134480000Y-214100000D03*
X134480000Y-211560000D03*
X131940000Y-214100000D03*
X131940000Y-211560000D03*
%TD*%
D16*
%TO.C,J1*%
X92000000Y-214700000D03*
D17*
X92000000Y-212160000D03*
X89460000Y-214700000D03*
X89460000Y-212160000D03*
X86920000Y-214700000D03*
X86920000Y-212160000D03*
X84380000Y-214700000D03*
X84380000Y-212160000D03*
X81840000Y-214700000D03*
X81840000Y-212160000D03*
%TD*%
M02*
