%TF.GenerationSoftware,KiCad,Pcbnew,(7.0.0)*%
%TF.CreationDate,2023-05-19T00:04:05+02:00*%
%TF.ProjectId,BP,42502e6b-6963-4616-945f-706362585858,rev?*%
%TF.SameCoordinates,Original*%
%TF.FileFunction,Soldermask,Top*%
%TF.FilePolarity,Negative*%
%FSLAX46Y46*%
G04 Gerber Fmt 4.6, Leading zero omitted, Abs format (unit mm)*
G04 Created by KiCad (PCBNEW (7.0.0)) date 2023-05-19 00:04:05*
%MOMM*%
%LPD*%
G01*
G04 APERTURE LIST*
G04 Aperture macros list*
%AMRoundRect*
0 Rectangle with rounded corners*
0 $1 Rounding radius*
0 $2 $3 $4 $5 $6 $7 $8 $9 X,Y pos of 4 corners*
0 Add a 4 corners polygon primitive as box body*
4,1,4,$2,$3,$4,$5,$6,$7,$8,$9,$2,$3,0*
0 Add four circle primitives for the rounded corners*
1,1,$1+$1,$2,$3*
1,1,$1+$1,$4,$5*
1,1,$1+$1,$6,$7*
1,1,$1+$1,$8,$9*
0 Add four rect primitives between the rounded corners*
20,1,$1+$1,$2,$3,$4,$5,0*
20,1,$1+$1,$4,$5,$6,$7,0*
20,1,$1+$1,$6,$7,$8,$9,0*
20,1,$1+$1,$8,$9,$2,$3,0*%
G04 Aperture macros list end*
%ADD10C,2.000000*%
%ADD11C,1.676400*%
%ADD12C,3.200000*%
%ADD13RoundRect,0.250000X0.600000X-0.600000X0.600000X0.600000X-0.600000X0.600000X-0.600000X-0.600000X0*%
%ADD14C,1.700000*%
G04 APERTURE END LIST*
D10*
%TO.C,SW3*%
X104500000Y-196700000D03*
X104500000Y-204200000D03*
X94500000Y-196700000D03*
X94500000Y-204200000D03*
%TD*%
%TO.C,SW5*%
X129500000Y-196700000D03*
X129500000Y-204200000D03*
X119500000Y-196700000D03*
X119500000Y-204200000D03*
%TD*%
%TO.C,SW7*%
X154500000Y-196700000D03*
X154500000Y-204200000D03*
X144500000Y-196700000D03*
X144500000Y-204200000D03*
%TD*%
%TO.C,SW2*%
X79500000Y-221700100D03*
X79500000Y-229200100D03*
X69500000Y-221700100D03*
X69500000Y-229200100D03*
%TD*%
%TO.C,SW6*%
X129500000Y-221700000D03*
X129500000Y-229200000D03*
X119500000Y-221700000D03*
X119500000Y-229200000D03*
%TD*%
%TO.C,SW8*%
X154437000Y-221718700D03*
X154437000Y-229218700D03*
X144437000Y-221718700D03*
X144437000Y-229218700D03*
%TD*%
%TO.C,SW1*%
X79571000Y-196681300D03*
X79571000Y-204181300D03*
X69571000Y-196681300D03*
X69571000Y-204181300D03*
%TD*%
D11*
%TO.C,D3*%
X94271200Y-199400000D03*
X104921200Y-201600000D03*
%TD*%
%TO.C,D5*%
X119271200Y-199400000D03*
X129921200Y-201600000D03*
%TD*%
%TO.C,D7*%
X144271200Y-199400000D03*
X154921200Y-201600000D03*
%TD*%
%TO.C,D2*%
X69271200Y-224400100D03*
X79921200Y-226600100D03*
%TD*%
%TO.C,D6*%
X119271200Y-224400000D03*
X129921200Y-226600000D03*
%TD*%
%TO.C,D8*%
X144224200Y-224418700D03*
X154874200Y-226618700D03*
%TD*%
%TO.C,D1*%
X69342200Y-199381300D03*
X79992200Y-201581300D03*
%TD*%
%TO.C,D4*%
X94271200Y-224400000D03*
X104921200Y-226600000D03*
%TD*%
D10*
%TO.C,SW4*%
X104500000Y-221700000D03*
X104500000Y-229200000D03*
X94500000Y-221700000D03*
X94500000Y-229200000D03*
%TD*%
D12*
%TO.C,H3*%
X87000000Y-225500000D03*
%TD*%
%TO.C,H4*%
X66000000Y-192000000D03*
%TD*%
%TO.C,H1*%
X87000000Y-200500000D03*
%TD*%
%TO.C,H2*%
X158000000Y-234000000D03*
%TD*%
%TO.C,H3*%
X66000000Y-234000000D03*
%TD*%
%TO.C,H4*%
X137000000Y-225500000D03*
%TD*%
%TO.C,H2*%
X137000000Y-200500000D03*
%TD*%
%TO.C,H1*%
X158000000Y-192000000D03*
%TD*%
D13*
%TO.C,J2*%
X142100000Y-214100000D03*
D14*
X142100000Y-211560000D03*
X139560000Y-214100000D03*
X139560000Y-211560000D03*
X137020000Y-214100000D03*
X137020000Y-211560000D03*
X134480000Y-214100000D03*
X134480000Y-211560000D03*
X131940000Y-214100000D03*
X131940000Y-211560000D03*
%TD*%
D13*
%TO.C,J1*%
X92000000Y-214700000D03*
D14*
X92000000Y-212160000D03*
X89460000Y-214700000D03*
X89460000Y-212160000D03*
X86920000Y-214700000D03*
X86920000Y-212160000D03*
X84380000Y-214700000D03*
X84380000Y-212160000D03*
X81840000Y-214700000D03*
X81840000Y-212160000D03*
%TD*%
M02*
