%TF.GenerationSoftware,KiCad,Pcbnew,(7.0.0)*%
%TF.CreationDate,2023-05-19T00:04:05+02:00*%
%TF.ProjectId,BP,42502e6b-6963-4616-945f-706362585858,rev?*%
%TF.SameCoordinates,Original*%
%TF.FileFunction,Legend,Bot*%
%TF.FilePolarity,Positive*%
%FSLAX46Y46*%
G04 Gerber Fmt 4.6, Leading zero omitted, Abs format (unit mm)*
G04 Created by KiCad (PCBNEW (7.0.0)) date 2023-05-19 00:04:05*
%MOMM*%
%LPD*%
G01*
G04 APERTURE LIST*
G04 Aperture macros list*
%AMRoundRect*
0 Rectangle with rounded corners*
0 $1 Rounding radius*
0 $2 $3 $4 $5 $6 $7 $8 $9 X,Y pos of 4 corners*
0 Add a 4 corners polygon primitive as box body*
4,1,4,$2,$3,$4,$5,$6,$7,$8,$9,$2,$3,0*
0 Add four circle primitives for the rounded corners*
1,1,$1+$1,$2,$3*
1,1,$1+$1,$4,$5*
1,1,$1+$1,$6,$7*
1,1,$1+$1,$8,$9*
0 Add four rect primitives between the rounded corners*
20,1,$1+$1,$2,$3,$4,$5,0*
20,1,$1+$1,$4,$5,$6,$7,0*
20,1,$1+$1,$6,$7,$8,$9,0*
20,1,$1+$1,$8,$9,$2,$3,0*%
G04 Aperture macros list end*
%ADD10C,0.150000*%
%ADD11C,0.120000*%
%ADD12C,2.000000*%
%ADD13C,1.676400*%
%ADD14C,3.200000*%
%ADD15RoundRect,0.250000X0.600000X-0.600000X0.600000X0.600000X-0.600000X0.600000X-0.600000X-0.600000X0*%
%ADD16C,1.700000*%
G04 APERTURE END LIST*
D10*
X90261904Y-219282380D02*
X90261904Y-218282380D01*
X90261904Y-218282380D02*
X90023809Y-218282380D01*
X90023809Y-218282380D02*
X89880952Y-218330000D01*
X89880952Y-218330000D02*
X89785714Y-218425238D01*
X89785714Y-218425238D02*
X89738095Y-218520476D01*
X89738095Y-218520476D02*
X89690476Y-218710952D01*
X89690476Y-218710952D02*
X89690476Y-218853809D01*
X89690476Y-218853809D02*
X89738095Y-219044285D01*
X89738095Y-219044285D02*
X89785714Y-219139523D01*
X89785714Y-219139523D02*
X89880952Y-219234761D01*
X89880952Y-219234761D02*
X90023809Y-219282380D01*
X90023809Y-219282380D02*
X90261904Y-219282380D01*
X89357142Y-218282380D02*
X88690476Y-218282380D01*
X88690476Y-218282380D02*
X89119047Y-219282380D01*
X135261904Y-207982380D02*
X135261904Y-206982380D01*
X135261904Y-206982380D02*
X135023809Y-206982380D01*
X135023809Y-206982380D02*
X134880952Y-207030000D01*
X134880952Y-207030000D02*
X134785714Y-207125238D01*
X134785714Y-207125238D02*
X134738095Y-207220476D01*
X134738095Y-207220476D02*
X134690476Y-207410952D01*
X134690476Y-207410952D02*
X134690476Y-207553809D01*
X134690476Y-207553809D02*
X134738095Y-207744285D01*
X134738095Y-207744285D02*
X134785714Y-207839523D01*
X134785714Y-207839523D02*
X134880952Y-207934761D01*
X134880952Y-207934761D02*
X135023809Y-207982380D01*
X135023809Y-207982380D02*
X135261904Y-207982380D01*
X134309523Y-207077619D02*
X134261904Y-207030000D01*
X134261904Y-207030000D02*
X134166666Y-206982380D01*
X134166666Y-206982380D02*
X133928571Y-206982380D01*
X133928571Y-206982380D02*
X133833333Y-207030000D01*
X133833333Y-207030000D02*
X133785714Y-207077619D01*
X133785714Y-207077619D02*
X133738095Y-207172857D01*
X133738095Y-207172857D02*
X133738095Y-207268095D01*
X133738095Y-207268095D02*
X133785714Y-207410952D01*
X133785714Y-207410952D02*
X134357142Y-207982380D01*
X134357142Y-207982380D02*
X133738095Y-207982380D01*
X137761904Y-207982380D02*
X137761904Y-206982380D01*
X137761904Y-206982380D02*
X137523809Y-206982380D01*
X137523809Y-206982380D02*
X137380952Y-207030000D01*
X137380952Y-207030000D02*
X137285714Y-207125238D01*
X137285714Y-207125238D02*
X137238095Y-207220476D01*
X137238095Y-207220476D02*
X137190476Y-207410952D01*
X137190476Y-207410952D02*
X137190476Y-207553809D01*
X137190476Y-207553809D02*
X137238095Y-207744285D01*
X137238095Y-207744285D02*
X137285714Y-207839523D01*
X137285714Y-207839523D02*
X137380952Y-207934761D01*
X137380952Y-207934761D02*
X137523809Y-207982380D01*
X137523809Y-207982380D02*
X137761904Y-207982380D01*
X136333333Y-207315714D02*
X136333333Y-207982380D01*
X136571428Y-206934761D02*
X136809523Y-207649047D01*
X136809523Y-207649047D02*
X136190476Y-207649047D01*
X94404761Y-218282380D02*
X94071428Y-219282380D01*
X94071428Y-219282380D02*
X93738095Y-218282380D01*
X93452380Y-219234761D02*
X93309523Y-219282380D01*
X93309523Y-219282380D02*
X93071428Y-219282380D01*
X93071428Y-219282380D02*
X92976190Y-219234761D01*
X92976190Y-219234761D02*
X92928571Y-219187142D01*
X92928571Y-219187142D02*
X92880952Y-219091904D01*
X92880952Y-219091904D02*
X92880952Y-218996666D01*
X92880952Y-218996666D02*
X92928571Y-218901428D01*
X92928571Y-218901428D02*
X92976190Y-218853809D01*
X92976190Y-218853809D02*
X93071428Y-218806190D01*
X93071428Y-218806190D02*
X93261904Y-218758571D01*
X93261904Y-218758571D02*
X93357142Y-218710952D01*
X93357142Y-218710952D02*
X93404761Y-218663333D01*
X93404761Y-218663333D02*
X93452380Y-218568095D01*
X93452380Y-218568095D02*
X93452380Y-218472857D01*
X93452380Y-218472857D02*
X93404761Y-218377619D01*
X93404761Y-218377619D02*
X93357142Y-218330000D01*
X93357142Y-218330000D02*
X93261904Y-218282380D01*
X93261904Y-218282380D02*
X93023809Y-218282380D01*
X93023809Y-218282380D02*
X92880952Y-218330000D01*
X90261904Y-208582380D02*
X90261904Y-207582380D01*
X90261904Y-207582380D02*
X90023809Y-207582380D01*
X90023809Y-207582380D02*
X89880952Y-207630000D01*
X89880952Y-207630000D02*
X89785714Y-207725238D01*
X89785714Y-207725238D02*
X89738095Y-207820476D01*
X89738095Y-207820476D02*
X89690476Y-208010952D01*
X89690476Y-208010952D02*
X89690476Y-208153809D01*
X89690476Y-208153809D02*
X89738095Y-208344285D01*
X89738095Y-208344285D02*
X89785714Y-208439523D01*
X89785714Y-208439523D02*
X89880952Y-208534761D01*
X89880952Y-208534761D02*
X90023809Y-208582380D01*
X90023809Y-208582380D02*
X90261904Y-208582380D01*
X88833333Y-207582380D02*
X89023809Y-207582380D01*
X89023809Y-207582380D02*
X89119047Y-207630000D01*
X89119047Y-207630000D02*
X89166666Y-207677619D01*
X89166666Y-207677619D02*
X89261904Y-207820476D01*
X89261904Y-207820476D02*
X89309523Y-208010952D01*
X89309523Y-208010952D02*
X89309523Y-208391904D01*
X89309523Y-208391904D02*
X89261904Y-208487142D01*
X89261904Y-208487142D02*
X89214285Y-208534761D01*
X89214285Y-208534761D02*
X89119047Y-208582380D01*
X89119047Y-208582380D02*
X88928571Y-208582380D01*
X88928571Y-208582380D02*
X88833333Y-208534761D01*
X88833333Y-208534761D02*
X88785714Y-208487142D01*
X88785714Y-208487142D02*
X88738095Y-208391904D01*
X88738095Y-208391904D02*
X88738095Y-208153809D01*
X88738095Y-208153809D02*
X88785714Y-208058571D01*
X88785714Y-208058571D02*
X88833333Y-208010952D01*
X88833333Y-208010952D02*
X88928571Y-207963333D01*
X88928571Y-207963333D02*
X89119047Y-207963333D01*
X89119047Y-207963333D02*
X89214285Y-208010952D01*
X89214285Y-208010952D02*
X89261904Y-208058571D01*
X89261904Y-208058571D02*
X89309523Y-208153809D01*
X140261904Y-218782380D02*
X140261904Y-217782380D01*
X140261904Y-217782380D02*
X140023809Y-217782380D01*
X140023809Y-217782380D02*
X139880952Y-217830000D01*
X139880952Y-217830000D02*
X139785714Y-217925238D01*
X139785714Y-217925238D02*
X139738095Y-218020476D01*
X139738095Y-218020476D02*
X139690476Y-218210952D01*
X139690476Y-218210952D02*
X139690476Y-218353809D01*
X139690476Y-218353809D02*
X139738095Y-218544285D01*
X139738095Y-218544285D02*
X139785714Y-218639523D01*
X139785714Y-218639523D02*
X139880952Y-218734761D01*
X139880952Y-218734761D02*
X140023809Y-218782380D01*
X140023809Y-218782380D02*
X140261904Y-218782380D01*
X139357142Y-217782380D02*
X138690476Y-217782380D01*
X138690476Y-217782380D02*
X139119047Y-218782380D01*
X87761904Y-219282380D02*
X87761904Y-218282380D01*
X87761904Y-218282380D02*
X87523809Y-218282380D01*
X87523809Y-218282380D02*
X87380952Y-218330000D01*
X87380952Y-218330000D02*
X87285714Y-218425238D01*
X87285714Y-218425238D02*
X87238095Y-218520476D01*
X87238095Y-218520476D02*
X87190476Y-218710952D01*
X87190476Y-218710952D02*
X87190476Y-218853809D01*
X87190476Y-218853809D02*
X87238095Y-219044285D01*
X87238095Y-219044285D02*
X87285714Y-219139523D01*
X87285714Y-219139523D02*
X87380952Y-219234761D01*
X87380952Y-219234761D02*
X87523809Y-219282380D01*
X87523809Y-219282380D02*
X87761904Y-219282380D01*
X86285714Y-218282380D02*
X86761904Y-218282380D01*
X86761904Y-218282380D02*
X86809523Y-218758571D01*
X86809523Y-218758571D02*
X86761904Y-218710952D01*
X86761904Y-218710952D02*
X86666666Y-218663333D01*
X86666666Y-218663333D02*
X86428571Y-218663333D01*
X86428571Y-218663333D02*
X86333333Y-218710952D01*
X86333333Y-218710952D02*
X86285714Y-218758571D01*
X86285714Y-218758571D02*
X86238095Y-218853809D01*
X86238095Y-218853809D02*
X86238095Y-219091904D01*
X86238095Y-219091904D02*
X86285714Y-219187142D01*
X86285714Y-219187142D02*
X86333333Y-219234761D01*
X86333333Y-219234761D02*
X86428571Y-219282380D01*
X86428571Y-219282380D02*
X86666666Y-219282380D01*
X86666666Y-219282380D02*
X86761904Y-219234761D01*
X86761904Y-219234761D02*
X86809523Y-219187142D01*
X85261904Y-219282380D02*
X85261904Y-218282380D01*
X85261904Y-218282380D02*
X85023809Y-218282380D01*
X85023809Y-218282380D02*
X84880952Y-218330000D01*
X84880952Y-218330000D02*
X84785714Y-218425238D01*
X84785714Y-218425238D02*
X84738095Y-218520476D01*
X84738095Y-218520476D02*
X84690476Y-218710952D01*
X84690476Y-218710952D02*
X84690476Y-218853809D01*
X84690476Y-218853809D02*
X84738095Y-219044285D01*
X84738095Y-219044285D02*
X84785714Y-219139523D01*
X84785714Y-219139523D02*
X84880952Y-219234761D01*
X84880952Y-219234761D02*
X85023809Y-219282380D01*
X85023809Y-219282380D02*
X85261904Y-219282380D01*
X84357142Y-218282380D02*
X83738095Y-218282380D01*
X83738095Y-218282380D02*
X84071428Y-218663333D01*
X84071428Y-218663333D02*
X83928571Y-218663333D01*
X83928571Y-218663333D02*
X83833333Y-218710952D01*
X83833333Y-218710952D02*
X83785714Y-218758571D01*
X83785714Y-218758571D02*
X83738095Y-218853809D01*
X83738095Y-218853809D02*
X83738095Y-219091904D01*
X83738095Y-219091904D02*
X83785714Y-219187142D01*
X83785714Y-219187142D02*
X83833333Y-219234761D01*
X83833333Y-219234761D02*
X83928571Y-219282380D01*
X83928571Y-219282380D02*
X84214285Y-219282380D01*
X84214285Y-219282380D02*
X84309523Y-219234761D01*
X84309523Y-219234761D02*
X84357142Y-219187142D01*
X140261904Y-207982380D02*
X140261904Y-206982380D01*
X140261904Y-206982380D02*
X140023809Y-206982380D01*
X140023809Y-206982380D02*
X139880952Y-207030000D01*
X139880952Y-207030000D02*
X139785714Y-207125238D01*
X139785714Y-207125238D02*
X139738095Y-207220476D01*
X139738095Y-207220476D02*
X139690476Y-207410952D01*
X139690476Y-207410952D02*
X139690476Y-207553809D01*
X139690476Y-207553809D02*
X139738095Y-207744285D01*
X139738095Y-207744285D02*
X139785714Y-207839523D01*
X139785714Y-207839523D02*
X139880952Y-207934761D01*
X139880952Y-207934761D02*
X140023809Y-207982380D01*
X140023809Y-207982380D02*
X140261904Y-207982380D01*
X138833333Y-206982380D02*
X139023809Y-206982380D01*
X139023809Y-206982380D02*
X139119047Y-207030000D01*
X139119047Y-207030000D02*
X139166666Y-207077619D01*
X139166666Y-207077619D02*
X139261904Y-207220476D01*
X139261904Y-207220476D02*
X139309523Y-207410952D01*
X139309523Y-207410952D02*
X139309523Y-207791904D01*
X139309523Y-207791904D02*
X139261904Y-207887142D01*
X139261904Y-207887142D02*
X139214285Y-207934761D01*
X139214285Y-207934761D02*
X139119047Y-207982380D01*
X139119047Y-207982380D02*
X138928571Y-207982380D01*
X138928571Y-207982380D02*
X138833333Y-207934761D01*
X138833333Y-207934761D02*
X138785714Y-207887142D01*
X138785714Y-207887142D02*
X138738095Y-207791904D01*
X138738095Y-207791904D02*
X138738095Y-207553809D01*
X138738095Y-207553809D02*
X138785714Y-207458571D01*
X138785714Y-207458571D02*
X138833333Y-207410952D01*
X138833333Y-207410952D02*
X138928571Y-207363333D01*
X138928571Y-207363333D02*
X139119047Y-207363333D01*
X139119047Y-207363333D02*
X139214285Y-207410952D01*
X139214285Y-207410952D02*
X139261904Y-207458571D01*
X139261904Y-207458571D02*
X139309523Y-207553809D01*
X135261904Y-218782380D02*
X135261904Y-217782380D01*
X135261904Y-217782380D02*
X135023809Y-217782380D01*
X135023809Y-217782380D02*
X134880952Y-217830000D01*
X134880952Y-217830000D02*
X134785714Y-217925238D01*
X134785714Y-217925238D02*
X134738095Y-218020476D01*
X134738095Y-218020476D02*
X134690476Y-218210952D01*
X134690476Y-218210952D02*
X134690476Y-218353809D01*
X134690476Y-218353809D02*
X134738095Y-218544285D01*
X134738095Y-218544285D02*
X134785714Y-218639523D01*
X134785714Y-218639523D02*
X134880952Y-218734761D01*
X134880952Y-218734761D02*
X135023809Y-218782380D01*
X135023809Y-218782380D02*
X135261904Y-218782380D01*
X134357142Y-217782380D02*
X133738095Y-217782380D01*
X133738095Y-217782380D02*
X134071428Y-218163333D01*
X134071428Y-218163333D02*
X133928571Y-218163333D01*
X133928571Y-218163333D02*
X133833333Y-218210952D01*
X133833333Y-218210952D02*
X133785714Y-218258571D01*
X133785714Y-218258571D02*
X133738095Y-218353809D01*
X133738095Y-218353809D02*
X133738095Y-218591904D01*
X133738095Y-218591904D02*
X133785714Y-218687142D01*
X133785714Y-218687142D02*
X133833333Y-218734761D01*
X133833333Y-218734761D02*
X133928571Y-218782380D01*
X133928571Y-218782380D02*
X134214285Y-218782380D01*
X134214285Y-218782380D02*
X134309523Y-218734761D01*
X134309523Y-218734761D02*
X134357142Y-218687142D01*
X132761904Y-218782380D02*
X132761904Y-217782380D01*
X132761904Y-217782380D02*
X132523809Y-217782380D01*
X132523809Y-217782380D02*
X132380952Y-217830000D01*
X132380952Y-217830000D02*
X132285714Y-217925238D01*
X132285714Y-217925238D02*
X132238095Y-218020476D01*
X132238095Y-218020476D02*
X132190476Y-218210952D01*
X132190476Y-218210952D02*
X132190476Y-218353809D01*
X132190476Y-218353809D02*
X132238095Y-218544285D01*
X132238095Y-218544285D02*
X132285714Y-218639523D01*
X132285714Y-218639523D02*
X132380952Y-218734761D01*
X132380952Y-218734761D02*
X132523809Y-218782380D01*
X132523809Y-218782380D02*
X132761904Y-218782380D01*
X131238095Y-218782380D02*
X131809523Y-218782380D01*
X131523809Y-218782380D02*
X131523809Y-217782380D01*
X131523809Y-217782380D02*
X131619047Y-217925238D01*
X131619047Y-217925238D02*
X131714285Y-218020476D01*
X131714285Y-218020476D02*
X131809523Y-218068095D01*
X82761904Y-219282380D02*
X82761904Y-218282380D01*
X82761904Y-218282380D02*
X82523809Y-218282380D01*
X82523809Y-218282380D02*
X82380952Y-218330000D01*
X82380952Y-218330000D02*
X82285714Y-218425238D01*
X82285714Y-218425238D02*
X82238095Y-218520476D01*
X82238095Y-218520476D02*
X82190476Y-218710952D01*
X82190476Y-218710952D02*
X82190476Y-218853809D01*
X82190476Y-218853809D02*
X82238095Y-219044285D01*
X82238095Y-219044285D02*
X82285714Y-219139523D01*
X82285714Y-219139523D02*
X82380952Y-219234761D01*
X82380952Y-219234761D02*
X82523809Y-219282380D01*
X82523809Y-219282380D02*
X82761904Y-219282380D01*
X81238095Y-219282380D02*
X81809523Y-219282380D01*
X81523809Y-219282380D02*
X81523809Y-218282380D01*
X81523809Y-218282380D02*
X81619047Y-218425238D01*
X81619047Y-218425238D02*
X81714285Y-218520476D01*
X81714285Y-218520476D02*
X81809523Y-218568095D01*
X85261904Y-208582380D02*
X85261904Y-207582380D01*
X85261904Y-207582380D02*
X85023809Y-207582380D01*
X85023809Y-207582380D02*
X84880952Y-207630000D01*
X84880952Y-207630000D02*
X84785714Y-207725238D01*
X84785714Y-207725238D02*
X84738095Y-207820476D01*
X84738095Y-207820476D02*
X84690476Y-208010952D01*
X84690476Y-208010952D02*
X84690476Y-208153809D01*
X84690476Y-208153809D02*
X84738095Y-208344285D01*
X84738095Y-208344285D02*
X84785714Y-208439523D01*
X84785714Y-208439523D02*
X84880952Y-208534761D01*
X84880952Y-208534761D02*
X85023809Y-208582380D01*
X85023809Y-208582380D02*
X85261904Y-208582380D01*
X84309523Y-207677619D02*
X84261904Y-207630000D01*
X84261904Y-207630000D02*
X84166666Y-207582380D01*
X84166666Y-207582380D02*
X83928571Y-207582380D01*
X83928571Y-207582380D02*
X83833333Y-207630000D01*
X83833333Y-207630000D02*
X83785714Y-207677619D01*
X83785714Y-207677619D02*
X83738095Y-207772857D01*
X83738095Y-207772857D02*
X83738095Y-207868095D01*
X83738095Y-207868095D02*
X83785714Y-208010952D01*
X83785714Y-208010952D02*
X84357142Y-208582380D01*
X84357142Y-208582380D02*
X83738095Y-208582380D01*
X82761904Y-208582380D02*
X82761904Y-207582380D01*
X82761904Y-207582380D02*
X82523809Y-207582380D01*
X82523809Y-207582380D02*
X82380952Y-207630000D01*
X82380952Y-207630000D02*
X82285714Y-207725238D01*
X82285714Y-207725238D02*
X82238095Y-207820476D01*
X82238095Y-207820476D02*
X82190476Y-208010952D01*
X82190476Y-208010952D02*
X82190476Y-208153809D01*
X82190476Y-208153809D02*
X82238095Y-208344285D01*
X82238095Y-208344285D02*
X82285714Y-208439523D01*
X82285714Y-208439523D02*
X82380952Y-208534761D01*
X82380952Y-208534761D02*
X82523809Y-208582380D01*
X82523809Y-208582380D02*
X82761904Y-208582380D01*
X81571428Y-207582380D02*
X81476190Y-207582380D01*
X81476190Y-207582380D02*
X81380952Y-207630000D01*
X81380952Y-207630000D02*
X81333333Y-207677619D01*
X81333333Y-207677619D02*
X81285714Y-207772857D01*
X81285714Y-207772857D02*
X81238095Y-207963333D01*
X81238095Y-207963333D02*
X81238095Y-208201428D01*
X81238095Y-208201428D02*
X81285714Y-208391904D01*
X81285714Y-208391904D02*
X81333333Y-208487142D01*
X81333333Y-208487142D02*
X81380952Y-208534761D01*
X81380952Y-208534761D02*
X81476190Y-208582380D01*
X81476190Y-208582380D02*
X81571428Y-208582380D01*
X81571428Y-208582380D02*
X81666666Y-208534761D01*
X81666666Y-208534761D02*
X81714285Y-208487142D01*
X81714285Y-208487142D02*
X81761904Y-208391904D01*
X81761904Y-208391904D02*
X81809523Y-208201428D01*
X81809523Y-208201428D02*
X81809523Y-207963333D01*
X81809523Y-207963333D02*
X81761904Y-207772857D01*
X81761904Y-207772857D02*
X81714285Y-207677619D01*
X81714285Y-207677619D02*
X81666666Y-207630000D01*
X81666666Y-207630000D02*
X81571428Y-207582380D01*
X132761904Y-207982380D02*
X132761904Y-206982380D01*
X132761904Y-206982380D02*
X132523809Y-206982380D01*
X132523809Y-206982380D02*
X132380952Y-207030000D01*
X132380952Y-207030000D02*
X132285714Y-207125238D01*
X132285714Y-207125238D02*
X132238095Y-207220476D01*
X132238095Y-207220476D02*
X132190476Y-207410952D01*
X132190476Y-207410952D02*
X132190476Y-207553809D01*
X132190476Y-207553809D02*
X132238095Y-207744285D01*
X132238095Y-207744285D02*
X132285714Y-207839523D01*
X132285714Y-207839523D02*
X132380952Y-207934761D01*
X132380952Y-207934761D02*
X132523809Y-207982380D01*
X132523809Y-207982380D02*
X132761904Y-207982380D01*
X131571428Y-206982380D02*
X131476190Y-206982380D01*
X131476190Y-206982380D02*
X131380952Y-207030000D01*
X131380952Y-207030000D02*
X131333333Y-207077619D01*
X131333333Y-207077619D02*
X131285714Y-207172857D01*
X131285714Y-207172857D02*
X131238095Y-207363333D01*
X131238095Y-207363333D02*
X131238095Y-207601428D01*
X131238095Y-207601428D02*
X131285714Y-207791904D01*
X131285714Y-207791904D02*
X131333333Y-207887142D01*
X131333333Y-207887142D02*
X131380952Y-207934761D01*
X131380952Y-207934761D02*
X131476190Y-207982380D01*
X131476190Y-207982380D02*
X131571428Y-207982380D01*
X131571428Y-207982380D02*
X131666666Y-207934761D01*
X131666666Y-207934761D02*
X131714285Y-207887142D01*
X131714285Y-207887142D02*
X131761904Y-207791904D01*
X131761904Y-207791904D02*
X131809523Y-207601428D01*
X131809523Y-207601428D02*
X131809523Y-207363333D01*
X131809523Y-207363333D02*
X131761904Y-207172857D01*
X131761904Y-207172857D02*
X131714285Y-207077619D01*
X131714285Y-207077619D02*
X131666666Y-207030000D01*
X131666666Y-207030000D02*
X131571428Y-206982380D01*
X151261904Y-192382380D02*
X151261904Y-191382380D01*
X151261904Y-191382380D02*
X150928571Y-192096666D01*
X150928571Y-192096666D02*
X150595238Y-191382380D01*
X150595238Y-191382380D02*
X150595238Y-192382380D01*
X149785714Y-191858571D02*
X149642857Y-191906190D01*
X149642857Y-191906190D02*
X149595238Y-191953809D01*
X149595238Y-191953809D02*
X149547619Y-192049047D01*
X149547619Y-192049047D02*
X149547619Y-192191904D01*
X149547619Y-192191904D02*
X149595238Y-192287142D01*
X149595238Y-192287142D02*
X149642857Y-192334761D01*
X149642857Y-192334761D02*
X149738095Y-192382380D01*
X149738095Y-192382380D02*
X150119047Y-192382380D01*
X150119047Y-192382380D02*
X150119047Y-191382380D01*
X150119047Y-191382380D02*
X149785714Y-191382380D01*
X149785714Y-191382380D02*
X149690476Y-191430000D01*
X149690476Y-191430000D02*
X149642857Y-191477619D01*
X149642857Y-191477619D02*
X149595238Y-191572857D01*
X149595238Y-191572857D02*
X149595238Y-191668095D01*
X149595238Y-191668095D02*
X149642857Y-191763333D01*
X149642857Y-191763333D02*
X149690476Y-191810952D01*
X149690476Y-191810952D02*
X149785714Y-191858571D01*
X149785714Y-191858571D02*
X150119047Y-191858571D01*
X149119047Y-192001428D02*
X148357143Y-192001428D01*
X147547619Y-191858571D02*
X147404762Y-191906190D01*
X147404762Y-191906190D02*
X147357143Y-191953809D01*
X147357143Y-191953809D02*
X147309524Y-192049047D01*
X147309524Y-192049047D02*
X147309524Y-192191904D01*
X147309524Y-192191904D02*
X147357143Y-192287142D01*
X147357143Y-192287142D02*
X147404762Y-192334761D01*
X147404762Y-192334761D02*
X147500000Y-192382380D01*
X147500000Y-192382380D02*
X147880952Y-192382380D01*
X147880952Y-192382380D02*
X147880952Y-191382380D01*
X147880952Y-191382380D02*
X147547619Y-191382380D01*
X147547619Y-191382380D02*
X147452381Y-191430000D01*
X147452381Y-191430000D02*
X147404762Y-191477619D01*
X147404762Y-191477619D02*
X147357143Y-191572857D01*
X147357143Y-191572857D02*
X147357143Y-191668095D01*
X147357143Y-191668095D02*
X147404762Y-191763333D01*
X147404762Y-191763333D02*
X147452381Y-191810952D01*
X147452381Y-191810952D02*
X147547619Y-191858571D01*
X147547619Y-191858571D02*
X147880952Y-191858571D01*
X146880952Y-192382380D02*
X146880952Y-191382380D01*
X146880952Y-191382380D02*
X146500000Y-191382380D01*
X146500000Y-191382380D02*
X146404762Y-191430000D01*
X146404762Y-191430000D02*
X146357143Y-191477619D01*
X146357143Y-191477619D02*
X146309524Y-191572857D01*
X146309524Y-191572857D02*
X146309524Y-191715714D01*
X146309524Y-191715714D02*
X146357143Y-191810952D01*
X146357143Y-191810952D02*
X146404762Y-191858571D01*
X146404762Y-191858571D02*
X146500000Y-191906190D01*
X146500000Y-191906190D02*
X146880952Y-191906190D01*
X145928571Y-192334761D02*
X145833333Y-192382380D01*
X145833333Y-192382380D02*
X145642857Y-192382380D01*
X145642857Y-192382380D02*
X145547619Y-192334761D01*
X145547619Y-192334761D02*
X145500000Y-192239523D01*
X145500000Y-192239523D02*
X145500000Y-192191904D01*
X145500000Y-192191904D02*
X145547619Y-192096666D01*
X145547619Y-192096666D02*
X145642857Y-192049047D01*
X145642857Y-192049047D02*
X145785714Y-192049047D01*
X145785714Y-192049047D02*
X145880952Y-192001428D01*
X145880952Y-192001428D02*
X145928571Y-191906190D01*
X145928571Y-191906190D02*
X145928571Y-191858571D01*
X145928571Y-191858571D02*
X145880952Y-191763333D01*
X145880952Y-191763333D02*
X145785714Y-191715714D01*
X145785714Y-191715714D02*
X145642857Y-191715714D01*
X145642857Y-191715714D02*
X145547619Y-191763333D01*
X145071428Y-192001428D02*
X144309524Y-192001428D01*
X143404762Y-191715714D02*
X143404762Y-192382380D01*
X143642857Y-191334761D02*
X143880952Y-192049047D01*
X143880952Y-192049047D02*
X143261905Y-192049047D01*
X142976190Y-192382380D02*
X142452381Y-191715714D01*
X142976190Y-191715714D02*
X142452381Y-192382380D01*
X142119047Y-191477619D02*
X142071428Y-191430000D01*
X142071428Y-191430000D02*
X141976190Y-191382380D01*
X141976190Y-191382380D02*
X141738095Y-191382380D01*
X141738095Y-191382380D02*
X141642857Y-191430000D01*
X141642857Y-191430000D02*
X141595238Y-191477619D01*
X141595238Y-191477619D02*
X141547619Y-191572857D01*
X141547619Y-191572857D02*
X141547619Y-191668095D01*
X141547619Y-191668095D02*
X141595238Y-191810952D01*
X141595238Y-191810952D02*
X142166666Y-192382380D01*
X142166666Y-192382380D02*
X141547619Y-192382380D01*
X140547619Y-192287142D02*
X140595238Y-192334761D01*
X140595238Y-192334761D02*
X140738095Y-192382380D01*
X140738095Y-192382380D02*
X140833333Y-192382380D01*
X140833333Y-192382380D02*
X140976190Y-192334761D01*
X140976190Y-192334761D02*
X141071428Y-192239523D01*
X141071428Y-192239523D02*
X141119047Y-192144285D01*
X141119047Y-192144285D02*
X141166666Y-191953809D01*
X141166666Y-191953809D02*
X141166666Y-191810952D01*
X141166666Y-191810952D02*
X141119047Y-191620476D01*
X141119047Y-191620476D02*
X141071428Y-191525238D01*
X141071428Y-191525238D02*
X140976190Y-191430000D01*
X140976190Y-191430000D02*
X140833333Y-191382380D01*
X140833333Y-191382380D02*
X140738095Y-191382380D01*
X140738095Y-191382380D02*
X140595238Y-191430000D01*
X140595238Y-191430000D02*
X140547619Y-191477619D01*
X140166666Y-192334761D02*
X140023809Y-192382380D01*
X140023809Y-192382380D02*
X139785714Y-192382380D01*
X139785714Y-192382380D02*
X139690476Y-192334761D01*
X139690476Y-192334761D02*
X139642857Y-192287142D01*
X139642857Y-192287142D02*
X139595238Y-192191904D01*
X139595238Y-192191904D02*
X139595238Y-192096666D01*
X139595238Y-192096666D02*
X139642857Y-192001428D01*
X139642857Y-192001428D02*
X139690476Y-191953809D01*
X139690476Y-191953809D02*
X139785714Y-191906190D01*
X139785714Y-191906190D02*
X139976190Y-191858571D01*
X139976190Y-191858571D02*
X140071428Y-191810952D01*
X140071428Y-191810952D02*
X140119047Y-191763333D01*
X140119047Y-191763333D02*
X140166666Y-191668095D01*
X140166666Y-191668095D02*
X140166666Y-191572857D01*
X140166666Y-191572857D02*
X140119047Y-191477619D01*
X140119047Y-191477619D02*
X140071428Y-191430000D01*
X140071428Y-191430000D02*
X139976190Y-191382380D01*
X139976190Y-191382380D02*
X139738095Y-191382380D01*
X139738095Y-191382380D02*
X139595238Y-191430000D01*
X139166666Y-192001428D02*
X138404762Y-192001428D01*
X138071428Y-191382380D02*
X137738095Y-192382380D01*
X137738095Y-192382380D02*
X137404762Y-191382380D01*
X136880952Y-191382380D02*
X136785714Y-191382380D01*
X136785714Y-191382380D02*
X136690476Y-191430000D01*
X136690476Y-191430000D02*
X136642857Y-191477619D01*
X136642857Y-191477619D02*
X136595238Y-191572857D01*
X136595238Y-191572857D02*
X136547619Y-191763333D01*
X136547619Y-191763333D02*
X136547619Y-192001428D01*
X136547619Y-192001428D02*
X136595238Y-192191904D01*
X136595238Y-192191904D02*
X136642857Y-192287142D01*
X136642857Y-192287142D02*
X136690476Y-192334761D01*
X136690476Y-192334761D02*
X136785714Y-192382380D01*
X136785714Y-192382380D02*
X136880952Y-192382380D01*
X136880952Y-192382380D02*
X136976190Y-192334761D01*
X136976190Y-192334761D02*
X137023809Y-192287142D01*
X137023809Y-192287142D02*
X137071428Y-192191904D01*
X137071428Y-192191904D02*
X137119047Y-192001428D01*
X137119047Y-192001428D02*
X137119047Y-191763333D01*
X137119047Y-191763333D02*
X137071428Y-191572857D01*
X137071428Y-191572857D02*
X137023809Y-191477619D01*
X137023809Y-191477619D02*
X136976190Y-191430000D01*
X136976190Y-191430000D02*
X136880952Y-191382380D01*
X136119047Y-192287142D02*
X136071428Y-192334761D01*
X136071428Y-192334761D02*
X136119047Y-192382380D01*
X136119047Y-192382380D02*
X136166666Y-192334761D01*
X136166666Y-192334761D02*
X136119047Y-192287142D01*
X136119047Y-192287142D02*
X136119047Y-192382380D01*
X135119048Y-192382380D02*
X135690476Y-192382380D01*
X135404762Y-192382380D02*
X135404762Y-191382380D01*
X135404762Y-191382380D02*
X135500000Y-191525238D01*
X135500000Y-191525238D02*
X135595238Y-191620476D01*
X135595238Y-191620476D02*
X135690476Y-191668095D01*
X87761904Y-208582380D02*
X87761904Y-207582380D01*
X87761904Y-207582380D02*
X87523809Y-207582380D01*
X87523809Y-207582380D02*
X87380952Y-207630000D01*
X87380952Y-207630000D02*
X87285714Y-207725238D01*
X87285714Y-207725238D02*
X87238095Y-207820476D01*
X87238095Y-207820476D02*
X87190476Y-208010952D01*
X87190476Y-208010952D02*
X87190476Y-208153809D01*
X87190476Y-208153809D02*
X87238095Y-208344285D01*
X87238095Y-208344285D02*
X87285714Y-208439523D01*
X87285714Y-208439523D02*
X87380952Y-208534761D01*
X87380952Y-208534761D02*
X87523809Y-208582380D01*
X87523809Y-208582380D02*
X87761904Y-208582380D01*
X86333333Y-207915714D02*
X86333333Y-208582380D01*
X86571428Y-207534761D02*
X86809523Y-208249047D01*
X86809523Y-208249047D02*
X86190476Y-208249047D01*
X144404761Y-217782380D02*
X144071428Y-218782380D01*
X144071428Y-218782380D02*
X143738095Y-217782380D01*
X143452380Y-218734761D02*
X143309523Y-218782380D01*
X143309523Y-218782380D02*
X143071428Y-218782380D01*
X143071428Y-218782380D02*
X142976190Y-218734761D01*
X142976190Y-218734761D02*
X142928571Y-218687142D01*
X142928571Y-218687142D02*
X142880952Y-218591904D01*
X142880952Y-218591904D02*
X142880952Y-218496666D01*
X142880952Y-218496666D02*
X142928571Y-218401428D01*
X142928571Y-218401428D02*
X142976190Y-218353809D01*
X142976190Y-218353809D02*
X143071428Y-218306190D01*
X143071428Y-218306190D02*
X143261904Y-218258571D01*
X143261904Y-218258571D02*
X143357142Y-218210952D01*
X143357142Y-218210952D02*
X143404761Y-218163333D01*
X143404761Y-218163333D02*
X143452380Y-218068095D01*
X143452380Y-218068095D02*
X143452380Y-217972857D01*
X143452380Y-217972857D02*
X143404761Y-217877619D01*
X143404761Y-217877619D02*
X143357142Y-217830000D01*
X143357142Y-217830000D02*
X143261904Y-217782380D01*
X143261904Y-217782380D02*
X143023809Y-217782380D01*
X143023809Y-217782380D02*
X142880952Y-217830000D01*
X137761904Y-218782380D02*
X137761904Y-217782380D01*
X137761904Y-217782380D02*
X137523809Y-217782380D01*
X137523809Y-217782380D02*
X137380952Y-217830000D01*
X137380952Y-217830000D02*
X137285714Y-217925238D01*
X137285714Y-217925238D02*
X137238095Y-218020476D01*
X137238095Y-218020476D02*
X137190476Y-218210952D01*
X137190476Y-218210952D02*
X137190476Y-218353809D01*
X137190476Y-218353809D02*
X137238095Y-218544285D01*
X137238095Y-218544285D02*
X137285714Y-218639523D01*
X137285714Y-218639523D02*
X137380952Y-218734761D01*
X137380952Y-218734761D02*
X137523809Y-218782380D01*
X137523809Y-218782380D02*
X137761904Y-218782380D01*
X136285714Y-217782380D02*
X136761904Y-217782380D01*
X136761904Y-217782380D02*
X136809523Y-218258571D01*
X136809523Y-218258571D02*
X136761904Y-218210952D01*
X136761904Y-218210952D02*
X136666666Y-218163333D01*
X136666666Y-218163333D02*
X136428571Y-218163333D01*
X136428571Y-218163333D02*
X136333333Y-218210952D01*
X136333333Y-218210952D02*
X136285714Y-218258571D01*
X136285714Y-218258571D02*
X136238095Y-218353809D01*
X136238095Y-218353809D02*
X136238095Y-218591904D01*
X136238095Y-218591904D02*
X136285714Y-218687142D01*
X136285714Y-218687142D02*
X136333333Y-218734761D01*
X136333333Y-218734761D02*
X136428571Y-218782380D01*
X136428571Y-218782380D02*
X136666666Y-218782380D01*
X136666666Y-218782380D02*
X136761904Y-218734761D01*
X136761904Y-218734761D02*
X136809523Y-218687142D01*
%TO.C,J2*%
X125367380Y-212666666D02*
X126081666Y-212666666D01*
X126081666Y-212666666D02*
X126224523Y-212619047D01*
X126224523Y-212619047D02*
X126319761Y-212523809D01*
X126319761Y-212523809D02*
X126367380Y-212380952D01*
X126367380Y-212380952D02*
X126367380Y-212285714D01*
X125462619Y-213095238D02*
X125415000Y-213142857D01*
X125415000Y-213142857D02*
X125367380Y-213238095D01*
X125367380Y-213238095D02*
X125367380Y-213476190D01*
X125367380Y-213476190D02*
X125415000Y-213571428D01*
X125415000Y-213571428D02*
X125462619Y-213619047D01*
X125462619Y-213619047D02*
X125557857Y-213666666D01*
X125557857Y-213666666D02*
X125653095Y-213666666D01*
X125653095Y-213666666D02*
X125795952Y-213619047D01*
X125795952Y-213619047D02*
X126367380Y-213047619D01*
X126367380Y-213047619D02*
X126367380Y-213666666D01*
X148867380Y-212857142D02*
X148867380Y-212380952D01*
X148867380Y-212380952D02*
X147867380Y-212380952D01*
X148343571Y-213190476D02*
X148343571Y-213523809D01*
X148867380Y-213666666D02*
X148867380Y-213190476D01*
X148867380Y-213190476D02*
X147867380Y-213190476D01*
X147867380Y-213190476D02*
X147867380Y-213666666D01*
X148867380Y-214095238D02*
X147867380Y-214095238D01*
X147867380Y-214095238D02*
X147867380Y-214333333D01*
X147867380Y-214333333D02*
X147915000Y-214476190D01*
X147915000Y-214476190D02*
X148010238Y-214571428D01*
X148010238Y-214571428D02*
X148105476Y-214619047D01*
X148105476Y-214619047D02*
X148295952Y-214666666D01*
X148295952Y-214666666D02*
X148438809Y-214666666D01*
X148438809Y-214666666D02*
X148629285Y-214619047D01*
X148629285Y-214619047D02*
X148724523Y-214571428D01*
X148724523Y-214571428D02*
X148819761Y-214476190D01*
X148819761Y-214476190D02*
X148867380Y-214333333D01*
X148867380Y-214333333D02*
X148867380Y-214095238D01*
%TO.C,J1*%
X97367380Y-213666666D02*
X98081666Y-213666666D01*
X98081666Y-213666666D02*
X98224523Y-213619047D01*
X98224523Y-213619047D02*
X98319761Y-213523809D01*
X98319761Y-213523809D02*
X98367380Y-213380952D01*
X98367380Y-213380952D02*
X98367380Y-213285714D01*
X98367380Y-214666666D02*
X98367380Y-214095238D01*
X98367380Y-214380952D02*
X97367380Y-214380952D01*
X97367380Y-214380952D02*
X97510238Y-214285714D01*
X97510238Y-214285714D02*
X97605476Y-214190476D01*
X97605476Y-214190476D02*
X97653095Y-214095238D01*
X75180238Y-215714285D02*
X75132619Y-215571428D01*
X75132619Y-215571428D02*
X75132619Y-215333333D01*
X75132619Y-215333333D02*
X75180238Y-215238095D01*
X75180238Y-215238095D02*
X75227857Y-215190476D01*
X75227857Y-215190476D02*
X75323095Y-215142857D01*
X75323095Y-215142857D02*
X75418333Y-215142857D01*
X75418333Y-215142857D02*
X75513571Y-215190476D01*
X75513571Y-215190476D02*
X75561190Y-215238095D01*
X75561190Y-215238095D02*
X75608809Y-215333333D01*
X75608809Y-215333333D02*
X75656428Y-215523809D01*
X75656428Y-215523809D02*
X75704047Y-215619047D01*
X75704047Y-215619047D02*
X75751666Y-215666666D01*
X75751666Y-215666666D02*
X75846904Y-215714285D01*
X75846904Y-215714285D02*
X75942142Y-215714285D01*
X75942142Y-215714285D02*
X76037380Y-215666666D01*
X76037380Y-215666666D02*
X76085000Y-215619047D01*
X76085000Y-215619047D02*
X76132619Y-215523809D01*
X76132619Y-215523809D02*
X76132619Y-215285714D01*
X76132619Y-215285714D02*
X76085000Y-215142857D01*
X75799285Y-214809523D02*
X75132619Y-214619047D01*
X75132619Y-214619047D02*
X75608809Y-214428571D01*
X75608809Y-214428571D02*
X75132619Y-214238095D01*
X75132619Y-214238095D02*
X75799285Y-214047619D01*
X75132619Y-213666666D02*
X75799285Y-213666666D01*
X76132619Y-213666666D02*
X76085000Y-213714285D01*
X76085000Y-213714285D02*
X76037380Y-213666666D01*
X76037380Y-213666666D02*
X76085000Y-213619047D01*
X76085000Y-213619047D02*
X76132619Y-213666666D01*
X76132619Y-213666666D02*
X76037380Y-213666666D01*
X75799285Y-213333333D02*
X75799285Y-212952381D01*
X76132619Y-213190476D02*
X75275476Y-213190476D01*
X75275476Y-213190476D02*
X75180238Y-213142857D01*
X75180238Y-213142857D02*
X75132619Y-213047619D01*
X75132619Y-213047619D02*
X75132619Y-212952381D01*
X75180238Y-212190476D02*
X75132619Y-212285714D01*
X75132619Y-212285714D02*
X75132619Y-212476190D01*
X75132619Y-212476190D02*
X75180238Y-212571428D01*
X75180238Y-212571428D02*
X75227857Y-212619047D01*
X75227857Y-212619047D02*
X75323095Y-212666666D01*
X75323095Y-212666666D02*
X75608809Y-212666666D01*
X75608809Y-212666666D02*
X75704047Y-212619047D01*
X75704047Y-212619047D02*
X75751666Y-212571428D01*
X75751666Y-212571428D02*
X75799285Y-212476190D01*
X75799285Y-212476190D02*
X75799285Y-212285714D01*
X75799285Y-212285714D02*
X75751666Y-212190476D01*
X75132619Y-211761904D02*
X76132619Y-211761904D01*
X75132619Y-211333333D02*
X75656428Y-211333333D01*
X75656428Y-211333333D02*
X75751666Y-211380952D01*
X75751666Y-211380952D02*
X75799285Y-211476190D01*
X75799285Y-211476190D02*
X75799285Y-211619047D01*
X75799285Y-211619047D02*
X75751666Y-211714285D01*
X75751666Y-211714285D02*
X75704047Y-211761904D01*
D11*
%TO.C,J2*%
X141600000Y-218780000D02*
X142100000Y-217780000D01*
X142600000Y-218780000D02*
X141600000Y-218780000D01*
X142100000Y-217780000D02*
X142600000Y-218780000D01*
X126730000Y-217390000D02*
X147310000Y-217390000D01*
X139070000Y-217390000D02*
X139070000Y-216080000D01*
X147310000Y-217390000D02*
X147310000Y-208270000D01*
X128030000Y-216080000D02*
X134970000Y-216080000D01*
X134970000Y-216080000D02*
X134970000Y-217390000D01*
X134970000Y-216080000D02*
X134970000Y-216080000D01*
X139070000Y-216080000D02*
X146010000Y-216080000D01*
X146010000Y-216080000D02*
X146010000Y-209580000D01*
X128030000Y-209580000D02*
X128030000Y-216080000D01*
X146010000Y-209580000D02*
X128030000Y-209580000D01*
X126730000Y-208270000D02*
X126730000Y-217390000D01*
X147310000Y-208270000D02*
X126730000Y-208270000D01*
%TO.C,J1*%
X91500000Y-219380000D02*
X92000000Y-218380000D01*
X92500000Y-219380000D02*
X91500000Y-219380000D01*
X92000000Y-218380000D02*
X92500000Y-219380000D01*
X76630000Y-217990000D02*
X97210000Y-217990000D01*
X88970000Y-217990000D02*
X88970000Y-216680000D01*
X97210000Y-217990000D02*
X97210000Y-208870000D01*
X77930000Y-216680000D02*
X84870000Y-216680000D01*
X84870000Y-216680000D02*
X84870000Y-217990000D01*
X84870000Y-216680000D02*
X84870000Y-216680000D01*
X88970000Y-216680000D02*
X95910000Y-216680000D01*
X95910000Y-216680000D02*
X95910000Y-210180000D01*
X77930000Y-210180000D02*
X77930000Y-216680000D01*
X95910000Y-210180000D02*
X77930000Y-210180000D01*
X76630000Y-208870000D02*
X76630000Y-217990000D01*
X97210000Y-208870000D02*
X76630000Y-208870000D01*
%TD*%
%LPC*%
D12*
%TO.C,SW3*%
X104500000Y-196700000D03*
X104500000Y-204200000D03*
X94500000Y-196700000D03*
X94500000Y-204200000D03*
%TD*%
%TO.C,SW5*%
X129500000Y-196700000D03*
X129500000Y-204200000D03*
X119500000Y-196700000D03*
X119500000Y-204200000D03*
%TD*%
%TO.C,SW7*%
X154500000Y-196700000D03*
X154500000Y-204200000D03*
X144500000Y-196700000D03*
X144500000Y-204200000D03*
%TD*%
%TO.C,SW2*%
X79500000Y-221700100D03*
X79500000Y-229200100D03*
X69500000Y-221700100D03*
X69500000Y-229200100D03*
%TD*%
%TO.C,SW6*%
X129500000Y-221700000D03*
X129500000Y-229200000D03*
X119500000Y-221700000D03*
X119500000Y-229200000D03*
%TD*%
%TO.C,SW8*%
X154437000Y-221718700D03*
X154437000Y-229218700D03*
X144437000Y-221718700D03*
X144437000Y-229218700D03*
%TD*%
%TO.C,SW1*%
X79571000Y-196681300D03*
X79571000Y-204181300D03*
X69571000Y-196681300D03*
X69571000Y-204181300D03*
%TD*%
D13*
%TO.C,D3*%
X94271200Y-199400000D03*
X104921200Y-201600000D03*
%TD*%
%TO.C,D5*%
X119271200Y-199400000D03*
X129921200Y-201600000D03*
%TD*%
%TO.C,D7*%
X144271200Y-199400000D03*
X154921200Y-201600000D03*
%TD*%
%TO.C,D2*%
X69271200Y-224400100D03*
X79921200Y-226600100D03*
%TD*%
%TO.C,D6*%
X119271200Y-224400000D03*
X129921200Y-226600000D03*
%TD*%
%TO.C,D8*%
X144224200Y-224418700D03*
X154874200Y-226618700D03*
%TD*%
%TO.C,D1*%
X69342200Y-199381300D03*
X79992200Y-201581300D03*
%TD*%
%TO.C,D4*%
X94271200Y-224400000D03*
X104921200Y-226600000D03*
%TD*%
D12*
%TO.C,SW4*%
X104500000Y-221700000D03*
X104500000Y-229200000D03*
X94500000Y-221700000D03*
X94500000Y-229200000D03*
%TD*%
D14*
%TO.C,H3*%
X87000000Y-225500000D03*
%TD*%
%TO.C,H4*%
X66000000Y-192000000D03*
%TD*%
%TO.C,H1*%
X87000000Y-200500000D03*
%TD*%
%TO.C,H2*%
X158000000Y-234000000D03*
%TD*%
%TO.C,H3*%
X66000000Y-234000000D03*
%TD*%
%TO.C,H4*%
X137000000Y-225500000D03*
%TD*%
%TO.C,H2*%
X137000000Y-200500000D03*
%TD*%
%TO.C,H1*%
X158000000Y-192000000D03*
%TD*%
D15*
%TO.C,J2*%
X142100000Y-214100000D03*
D16*
X142100000Y-211560000D03*
X139560000Y-214100000D03*
X139560000Y-211560000D03*
X137020000Y-214100000D03*
X137020000Y-211560000D03*
X134480000Y-214100000D03*
X134480000Y-211560000D03*
X131940000Y-214100000D03*
X131940000Y-211560000D03*
%TD*%
D15*
%TO.C,J1*%
X92000000Y-214700000D03*
D16*
X92000000Y-212160000D03*
X89460000Y-214700000D03*
X89460000Y-212160000D03*
X86920000Y-214700000D03*
X86920000Y-212160000D03*
X84380000Y-214700000D03*
X84380000Y-212160000D03*
X81840000Y-214700000D03*
X81840000Y-212160000D03*
%TD*%
M02*
