%TF.GenerationSoftware,KiCad,Pcbnew,(7.0.0)*%
%TF.CreationDate,2023-05-19T00:04:20+02:00*%
%TF.ProjectId,BP,42502e6b-6963-4616-945f-706362585858,rev?*%
%TF.SameCoordinates,Original*%
%TF.FileFunction,Drillmap*%
%TF.FilePolarity,Positive*%
%FSLAX45Y45*%
G04 Gerber Fmt 4.5, Leading zero omitted, Abs format (unit mm)*
G04 Created by KiCad (PCBNEW (7.0.0)) date 2023-05-19 00:04:20*
%MOMM*%
%LPD*%
G01*
G04 APERTURE LIST*
%ADD10C,0.100000*%
%ADD11C,0.200000*%
%ADD12C,0.320000*%
G04 APERTURE END LIST*
D10*
X16200000Y-23800000D02*
X6200000Y-23800000D01*
X6200000Y-18800000D01*
X16200000Y-18800000D01*
X16200000Y-23800000D01*
D11*
D10*
X7900000Y-22120010D02*
X8000000Y-22220010D01*
X8000000Y-22120010D02*
X7900000Y-22220010D01*
X7900000Y-22870010D02*
X8000000Y-22970010D01*
X8000000Y-22870010D02*
X7900000Y-22970010D01*
X7907100Y-19618130D02*
X8007100Y-19718130D01*
X8007100Y-19618130D02*
X7907100Y-19718130D01*
X7907100Y-20368130D02*
X8007100Y-20468130D01*
X8007100Y-20368130D02*
X7907100Y-20468130D01*
X10400000Y-19620000D02*
X10500000Y-19720000D01*
X10500000Y-19620000D02*
X10400000Y-19720000D01*
X10400000Y-20370000D02*
X10500000Y-20470000D01*
X10500000Y-20370000D02*
X10400000Y-20470000D01*
X10400000Y-22120000D02*
X10500000Y-22220000D01*
X10500000Y-22120000D02*
X10400000Y-22220000D01*
X10400000Y-22870000D02*
X10500000Y-22970000D01*
X10500000Y-22870000D02*
X10400000Y-22970000D01*
X12900000Y-19620000D02*
X13000000Y-19720000D01*
X13000000Y-19620000D02*
X12900000Y-19720000D01*
X12900000Y-20370000D02*
X13000000Y-20470000D01*
X13000000Y-20370000D02*
X12900000Y-20470000D01*
X12900000Y-22120000D02*
X13000000Y-22220000D01*
X13000000Y-22120000D02*
X12900000Y-22220000D01*
X12900000Y-22870000D02*
X13000000Y-22970000D01*
X13000000Y-22870000D02*
X12900000Y-22970000D01*
X15393700Y-22121870D02*
X15493700Y-22221870D01*
X15493700Y-22121870D02*
X15393700Y-22221870D01*
X15393700Y-22871870D02*
X15493700Y-22971870D01*
X15493700Y-22871870D02*
X15393700Y-22971870D01*
X15400000Y-19620000D02*
X15500000Y-19720000D01*
X15500000Y-19620000D02*
X15400000Y-19720000D01*
X15400000Y-20370000D02*
X15500000Y-20470000D01*
X15500000Y-20370000D02*
X15400000Y-20470000D01*
D12*
X6760000Y-19200000D02*
G75*
G03*
X6760000Y-19200000I-160000J0D01*
G01*
X6760000Y-23400000D02*
G75*
G03*
X6760000Y-23400000I-160000J0D01*
G01*
X8860000Y-20050000D02*
G75*
G03*
X8860000Y-20050000I-160000J0D01*
G01*
X8860000Y-22550000D02*
G75*
G03*
X8860000Y-22550000I-160000J0D01*
G01*
X13860000Y-20050000D02*
G75*
G03*
X13860000Y-20050000I-160000J0D01*
G01*
X13860000Y-22550000D02*
G75*
G03*
X13860000Y-22550000I-160000J0D01*
G01*
X15960000Y-19200000D02*
G75*
G03*
X15960000Y-19200000I-160000J0D01*
G01*
X15960000Y-23400000D02*
G75*
G03*
X15960000Y-23400000I-160000J0D01*
G01*
D11*
X6442619Y-24098476D02*
X6442619Y-23898476D01*
X6442619Y-23898476D02*
X6490238Y-23898476D01*
X6490238Y-23898476D02*
X6518809Y-23908000D01*
X6518809Y-23908000D02*
X6537857Y-23927048D01*
X6537857Y-23927048D02*
X6547381Y-23946095D01*
X6547381Y-23946095D02*
X6556905Y-23984190D01*
X6556905Y-23984190D02*
X6556905Y-24012762D01*
X6556905Y-24012762D02*
X6547381Y-24050857D01*
X6547381Y-24050857D02*
X6537857Y-24069905D01*
X6537857Y-24069905D02*
X6518809Y-24088952D01*
X6518809Y-24088952D02*
X6490238Y-24098476D01*
X6490238Y-24098476D02*
X6442619Y-24098476D01*
X6642619Y-24098476D02*
X6642619Y-23965143D01*
X6642619Y-24003238D02*
X6652143Y-23984190D01*
X6652143Y-23984190D02*
X6661667Y-23974667D01*
X6661667Y-23974667D02*
X6680714Y-23965143D01*
X6680714Y-23965143D02*
X6699762Y-23965143D01*
X6766428Y-24098476D02*
X6766428Y-23965143D01*
X6766428Y-23898476D02*
X6756905Y-23908000D01*
X6756905Y-23908000D02*
X6766428Y-23917524D01*
X6766428Y-23917524D02*
X6775952Y-23908000D01*
X6775952Y-23908000D02*
X6766428Y-23898476D01*
X6766428Y-23898476D02*
X6766428Y-23917524D01*
X6890238Y-24098476D02*
X6871190Y-24088952D01*
X6871190Y-24088952D02*
X6861667Y-24069905D01*
X6861667Y-24069905D02*
X6861667Y-23898476D01*
X6995000Y-24098476D02*
X6975952Y-24088952D01*
X6975952Y-24088952D02*
X6966428Y-24069905D01*
X6966428Y-24069905D02*
X6966428Y-23898476D01*
X7191190Y-24098476D02*
X7191190Y-23898476D01*
X7191190Y-23898476D02*
X7257857Y-24041333D01*
X7257857Y-24041333D02*
X7324524Y-23898476D01*
X7324524Y-23898476D02*
X7324524Y-24098476D01*
X7505476Y-24098476D02*
X7505476Y-23993714D01*
X7505476Y-23993714D02*
X7495952Y-23974667D01*
X7495952Y-23974667D02*
X7476905Y-23965143D01*
X7476905Y-23965143D02*
X7438809Y-23965143D01*
X7438809Y-23965143D02*
X7419762Y-23974667D01*
X7505476Y-24088952D02*
X7486428Y-24098476D01*
X7486428Y-24098476D02*
X7438809Y-24098476D01*
X7438809Y-24098476D02*
X7419762Y-24088952D01*
X7419762Y-24088952D02*
X7410238Y-24069905D01*
X7410238Y-24069905D02*
X7410238Y-24050857D01*
X7410238Y-24050857D02*
X7419762Y-24031809D01*
X7419762Y-24031809D02*
X7438809Y-24022286D01*
X7438809Y-24022286D02*
X7486428Y-24022286D01*
X7486428Y-24022286D02*
X7505476Y-24012762D01*
X7600714Y-23965143D02*
X7600714Y-24165143D01*
X7600714Y-23974667D02*
X7619762Y-23965143D01*
X7619762Y-23965143D02*
X7657857Y-23965143D01*
X7657857Y-23965143D02*
X7676905Y-23974667D01*
X7676905Y-23974667D02*
X7686428Y-23984190D01*
X7686428Y-23984190D02*
X7695952Y-24003238D01*
X7695952Y-24003238D02*
X7695952Y-24060381D01*
X7695952Y-24060381D02*
X7686428Y-24079428D01*
X7686428Y-24079428D02*
X7676905Y-24088952D01*
X7676905Y-24088952D02*
X7657857Y-24098476D01*
X7657857Y-24098476D02*
X7619762Y-24098476D01*
X7619762Y-24098476D02*
X7600714Y-24088952D01*
X7781667Y-24079428D02*
X7791190Y-24088952D01*
X7791190Y-24088952D02*
X7781667Y-24098476D01*
X7781667Y-24098476D02*
X7772143Y-24088952D01*
X7772143Y-24088952D02*
X7781667Y-24079428D01*
X7781667Y-24079428D02*
X7781667Y-24098476D01*
X7781667Y-23974667D02*
X7791190Y-23984190D01*
X7791190Y-23984190D02*
X7781667Y-23993714D01*
X7781667Y-23993714D02*
X7772143Y-23984190D01*
X7772143Y-23984190D02*
X7781667Y-23974667D01*
X7781667Y-23974667D02*
X7781667Y-23993714D01*
D10*
X6095000Y-24395000D02*
X6195000Y-24495000D01*
X6195000Y-24395000D02*
X6095000Y-24495000D01*
D11*
X6547381Y-24518476D02*
X6433095Y-24518476D01*
X6490238Y-24518476D02*
X6490238Y-24318476D01*
X6490238Y-24318476D02*
X6471190Y-24347048D01*
X6471190Y-24347048D02*
X6452143Y-24366095D01*
X6452143Y-24366095D02*
X6433095Y-24375619D01*
X6633095Y-24499428D02*
X6642619Y-24508952D01*
X6642619Y-24508952D02*
X6633095Y-24518476D01*
X6633095Y-24518476D02*
X6623571Y-24508952D01*
X6623571Y-24508952D02*
X6633095Y-24499428D01*
X6633095Y-24499428D02*
X6633095Y-24518476D01*
X6766428Y-24318476D02*
X6785476Y-24318476D01*
X6785476Y-24318476D02*
X6804524Y-24328000D01*
X6804524Y-24328000D02*
X6814048Y-24337524D01*
X6814048Y-24337524D02*
X6823571Y-24356571D01*
X6823571Y-24356571D02*
X6833095Y-24394667D01*
X6833095Y-24394667D02*
X6833095Y-24442286D01*
X6833095Y-24442286D02*
X6823571Y-24480381D01*
X6823571Y-24480381D02*
X6814048Y-24499428D01*
X6814048Y-24499428D02*
X6804524Y-24508952D01*
X6804524Y-24508952D02*
X6785476Y-24518476D01*
X6785476Y-24518476D02*
X6766428Y-24518476D01*
X6766428Y-24518476D02*
X6747381Y-24508952D01*
X6747381Y-24508952D02*
X6737857Y-24499428D01*
X6737857Y-24499428D02*
X6728333Y-24480381D01*
X6728333Y-24480381D02*
X6718809Y-24442286D01*
X6718809Y-24442286D02*
X6718809Y-24394667D01*
X6718809Y-24394667D02*
X6728333Y-24356571D01*
X6728333Y-24356571D02*
X6737857Y-24337524D01*
X6737857Y-24337524D02*
X6747381Y-24328000D01*
X6747381Y-24328000D02*
X6766428Y-24318476D01*
X6956905Y-24318476D02*
X6975952Y-24318476D01*
X6975952Y-24318476D02*
X6995000Y-24328000D01*
X6995000Y-24328000D02*
X7004524Y-24337524D01*
X7004524Y-24337524D02*
X7014048Y-24356571D01*
X7014048Y-24356571D02*
X7023571Y-24394667D01*
X7023571Y-24394667D02*
X7023571Y-24442286D01*
X7023571Y-24442286D02*
X7014048Y-24480381D01*
X7014048Y-24480381D02*
X7004524Y-24499428D01*
X7004524Y-24499428D02*
X6995000Y-24508952D01*
X6995000Y-24508952D02*
X6975952Y-24518476D01*
X6975952Y-24518476D02*
X6956905Y-24518476D01*
X6956905Y-24518476D02*
X6937857Y-24508952D01*
X6937857Y-24508952D02*
X6928333Y-24499428D01*
X6928333Y-24499428D02*
X6918809Y-24480381D01*
X6918809Y-24480381D02*
X6909286Y-24442286D01*
X6909286Y-24442286D02*
X6909286Y-24394667D01*
X6909286Y-24394667D02*
X6918809Y-24356571D01*
X6918809Y-24356571D02*
X6928333Y-24337524D01*
X6928333Y-24337524D02*
X6937857Y-24328000D01*
X6937857Y-24328000D02*
X6956905Y-24318476D01*
X7147381Y-24318476D02*
X7166429Y-24318476D01*
X7166429Y-24318476D02*
X7185476Y-24328000D01*
X7185476Y-24328000D02*
X7195000Y-24337524D01*
X7195000Y-24337524D02*
X7204524Y-24356571D01*
X7204524Y-24356571D02*
X7214048Y-24394667D01*
X7214048Y-24394667D02*
X7214048Y-24442286D01*
X7214048Y-24442286D02*
X7204524Y-24480381D01*
X7204524Y-24480381D02*
X7195000Y-24499428D01*
X7195000Y-24499428D02*
X7185476Y-24508952D01*
X7185476Y-24508952D02*
X7166429Y-24518476D01*
X7166429Y-24518476D02*
X7147381Y-24518476D01*
X7147381Y-24518476D02*
X7128333Y-24508952D01*
X7128333Y-24508952D02*
X7118809Y-24499428D01*
X7118809Y-24499428D02*
X7109286Y-24480381D01*
X7109286Y-24480381D02*
X7099762Y-24442286D01*
X7099762Y-24442286D02*
X7099762Y-24394667D01*
X7099762Y-24394667D02*
X7109286Y-24356571D01*
X7109286Y-24356571D02*
X7118809Y-24337524D01*
X7118809Y-24337524D02*
X7128333Y-24328000D01*
X7128333Y-24328000D02*
X7147381Y-24318476D01*
X7299762Y-24518476D02*
X7299762Y-24385143D01*
X7299762Y-24404190D02*
X7309286Y-24394667D01*
X7309286Y-24394667D02*
X7328333Y-24385143D01*
X7328333Y-24385143D02*
X7356905Y-24385143D01*
X7356905Y-24385143D02*
X7375952Y-24394667D01*
X7375952Y-24394667D02*
X7385476Y-24413714D01*
X7385476Y-24413714D02*
X7385476Y-24518476D01*
X7385476Y-24413714D02*
X7395000Y-24394667D01*
X7395000Y-24394667D02*
X7414048Y-24385143D01*
X7414048Y-24385143D02*
X7442619Y-24385143D01*
X7442619Y-24385143D02*
X7461667Y-24394667D01*
X7461667Y-24394667D02*
X7471190Y-24413714D01*
X7471190Y-24413714D02*
X7471190Y-24518476D01*
X7566429Y-24518476D02*
X7566429Y-24385143D01*
X7566429Y-24404190D02*
X7575952Y-24394667D01*
X7575952Y-24394667D02*
X7595000Y-24385143D01*
X7595000Y-24385143D02*
X7623571Y-24385143D01*
X7623571Y-24385143D02*
X7642619Y-24394667D01*
X7642619Y-24394667D02*
X7652143Y-24413714D01*
X7652143Y-24413714D02*
X7652143Y-24518476D01*
X7652143Y-24413714D02*
X7661667Y-24394667D01*
X7661667Y-24394667D02*
X7680714Y-24385143D01*
X7680714Y-24385143D02*
X7709286Y-24385143D01*
X7709286Y-24385143D02*
X7728333Y-24394667D01*
X7728333Y-24394667D02*
X7737857Y-24413714D01*
X7737857Y-24413714D02*
X7737857Y-24518476D01*
X8095952Y-24308952D02*
X7924524Y-24566095D01*
X8320714Y-24318476D02*
X8339762Y-24318476D01*
X8339762Y-24318476D02*
X8358810Y-24328000D01*
X8358810Y-24328000D02*
X8368333Y-24337524D01*
X8368333Y-24337524D02*
X8377857Y-24356571D01*
X8377857Y-24356571D02*
X8387381Y-24394667D01*
X8387381Y-24394667D02*
X8387381Y-24442286D01*
X8387381Y-24442286D02*
X8377857Y-24480381D01*
X8377857Y-24480381D02*
X8368333Y-24499428D01*
X8368333Y-24499428D02*
X8358810Y-24508952D01*
X8358810Y-24508952D02*
X8339762Y-24518476D01*
X8339762Y-24518476D02*
X8320714Y-24518476D01*
X8320714Y-24518476D02*
X8301667Y-24508952D01*
X8301667Y-24508952D02*
X8292143Y-24499428D01*
X8292143Y-24499428D02*
X8282619Y-24480381D01*
X8282619Y-24480381D02*
X8273095Y-24442286D01*
X8273095Y-24442286D02*
X8273095Y-24394667D01*
X8273095Y-24394667D02*
X8282619Y-24356571D01*
X8282619Y-24356571D02*
X8292143Y-24337524D01*
X8292143Y-24337524D02*
X8301667Y-24328000D01*
X8301667Y-24328000D02*
X8320714Y-24318476D01*
X8473095Y-24499428D02*
X8482619Y-24508952D01*
X8482619Y-24508952D02*
X8473095Y-24518476D01*
X8473095Y-24518476D02*
X8463572Y-24508952D01*
X8463572Y-24508952D02*
X8473095Y-24499428D01*
X8473095Y-24499428D02*
X8473095Y-24518476D01*
X8606429Y-24318476D02*
X8625476Y-24318476D01*
X8625476Y-24318476D02*
X8644524Y-24328000D01*
X8644524Y-24328000D02*
X8654048Y-24337524D01*
X8654048Y-24337524D02*
X8663572Y-24356571D01*
X8663572Y-24356571D02*
X8673095Y-24394667D01*
X8673095Y-24394667D02*
X8673095Y-24442286D01*
X8673095Y-24442286D02*
X8663572Y-24480381D01*
X8663572Y-24480381D02*
X8654048Y-24499428D01*
X8654048Y-24499428D02*
X8644524Y-24508952D01*
X8644524Y-24508952D02*
X8625476Y-24518476D01*
X8625476Y-24518476D02*
X8606429Y-24518476D01*
X8606429Y-24518476D02*
X8587381Y-24508952D01*
X8587381Y-24508952D02*
X8577857Y-24499428D01*
X8577857Y-24499428D02*
X8568333Y-24480381D01*
X8568333Y-24480381D02*
X8558810Y-24442286D01*
X8558810Y-24442286D02*
X8558810Y-24394667D01*
X8558810Y-24394667D02*
X8568333Y-24356571D01*
X8568333Y-24356571D02*
X8577857Y-24337524D01*
X8577857Y-24337524D02*
X8587381Y-24328000D01*
X8587381Y-24328000D02*
X8606429Y-24318476D01*
X8739762Y-24318476D02*
X8863572Y-24318476D01*
X8863572Y-24318476D02*
X8796905Y-24394667D01*
X8796905Y-24394667D02*
X8825476Y-24394667D01*
X8825476Y-24394667D02*
X8844524Y-24404190D01*
X8844524Y-24404190D02*
X8854048Y-24413714D01*
X8854048Y-24413714D02*
X8863572Y-24432762D01*
X8863572Y-24432762D02*
X8863572Y-24480381D01*
X8863572Y-24480381D02*
X8854048Y-24499428D01*
X8854048Y-24499428D02*
X8844524Y-24508952D01*
X8844524Y-24508952D02*
X8825476Y-24518476D01*
X8825476Y-24518476D02*
X8768333Y-24518476D01*
X8768333Y-24518476D02*
X8749286Y-24508952D01*
X8749286Y-24508952D02*
X8739762Y-24499428D01*
X8958810Y-24518476D02*
X8996905Y-24518476D01*
X8996905Y-24518476D02*
X9015953Y-24508952D01*
X9015953Y-24508952D02*
X9025476Y-24499428D01*
X9025476Y-24499428D02*
X9044524Y-24470857D01*
X9044524Y-24470857D02*
X9054048Y-24432762D01*
X9054048Y-24432762D02*
X9054048Y-24356571D01*
X9054048Y-24356571D02*
X9044524Y-24337524D01*
X9044524Y-24337524D02*
X9035000Y-24328000D01*
X9035000Y-24328000D02*
X9015953Y-24318476D01*
X9015953Y-24318476D02*
X8977857Y-24318476D01*
X8977857Y-24318476D02*
X8958810Y-24328000D01*
X8958810Y-24328000D02*
X8949286Y-24337524D01*
X8949286Y-24337524D02*
X8939762Y-24356571D01*
X8939762Y-24356571D02*
X8939762Y-24404190D01*
X8939762Y-24404190D02*
X8949286Y-24423238D01*
X8949286Y-24423238D02*
X8958810Y-24432762D01*
X8958810Y-24432762D02*
X8977857Y-24442286D01*
X8977857Y-24442286D02*
X9015953Y-24442286D01*
X9015953Y-24442286D02*
X9035000Y-24432762D01*
X9035000Y-24432762D02*
X9044524Y-24423238D01*
X9044524Y-24423238D02*
X9054048Y-24404190D01*
X9225476Y-24385143D02*
X9225476Y-24518476D01*
X9177857Y-24308952D02*
X9130238Y-24451809D01*
X9130238Y-24451809D02*
X9254048Y-24451809D01*
X9320714Y-24318476D02*
X9320714Y-24356571D01*
X9396905Y-24318476D02*
X9396905Y-24356571D01*
X9659762Y-24594667D02*
X9650238Y-24585143D01*
X9650238Y-24585143D02*
X9631191Y-24556571D01*
X9631191Y-24556571D02*
X9621667Y-24537524D01*
X9621667Y-24537524D02*
X9612143Y-24508952D01*
X9612143Y-24508952D02*
X9602619Y-24461333D01*
X9602619Y-24461333D02*
X9602619Y-24423238D01*
X9602619Y-24423238D02*
X9612143Y-24375619D01*
X9612143Y-24375619D02*
X9621667Y-24347048D01*
X9621667Y-24347048D02*
X9631191Y-24328000D01*
X9631191Y-24328000D02*
X9650238Y-24299428D01*
X9650238Y-24299428D02*
X9659762Y-24289905D01*
X9840714Y-24518476D02*
X9726429Y-24518476D01*
X9783572Y-24518476D02*
X9783572Y-24318476D01*
X9783572Y-24318476D02*
X9764524Y-24347048D01*
X9764524Y-24347048D02*
X9745476Y-24366095D01*
X9745476Y-24366095D02*
X9726429Y-24375619D01*
X10012143Y-24318476D02*
X9974048Y-24318476D01*
X9974048Y-24318476D02*
X9955000Y-24328000D01*
X9955000Y-24328000D02*
X9945476Y-24337524D01*
X9945476Y-24337524D02*
X9926429Y-24366095D01*
X9926429Y-24366095D02*
X9916905Y-24404190D01*
X9916905Y-24404190D02*
X9916905Y-24480381D01*
X9916905Y-24480381D02*
X9926429Y-24499428D01*
X9926429Y-24499428D02*
X9935953Y-24508952D01*
X9935953Y-24508952D02*
X9955000Y-24518476D01*
X9955000Y-24518476D02*
X9993095Y-24518476D01*
X9993095Y-24518476D02*
X10012143Y-24508952D01*
X10012143Y-24508952D02*
X10021667Y-24499428D01*
X10021667Y-24499428D02*
X10031191Y-24480381D01*
X10031191Y-24480381D02*
X10031191Y-24432762D01*
X10031191Y-24432762D02*
X10021667Y-24413714D01*
X10021667Y-24413714D02*
X10012143Y-24404190D01*
X10012143Y-24404190D02*
X9993095Y-24394667D01*
X9993095Y-24394667D02*
X9955000Y-24394667D01*
X9955000Y-24394667D02*
X9935953Y-24404190D01*
X9935953Y-24404190D02*
X9926429Y-24413714D01*
X9926429Y-24413714D02*
X9916905Y-24432762D01*
X10236905Y-24518476D02*
X10236905Y-24318476D01*
X10322619Y-24518476D02*
X10322619Y-24413714D01*
X10322619Y-24413714D02*
X10313095Y-24394667D01*
X10313095Y-24394667D02*
X10294048Y-24385143D01*
X10294048Y-24385143D02*
X10265476Y-24385143D01*
X10265476Y-24385143D02*
X10246429Y-24394667D01*
X10246429Y-24394667D02*
X10236905Y-24404190D01*
X10446429Y-24518476D02*
X10427381Y-24508952D01*
X10427381Y-24508952D02*
X10417857Y-24499428D01*
X10417857Y-24499428D02*
X10408334Y-24480381D01*
X10408334Y-24480381D02*
X10408334Y-24423238D01*
X10408334Y-24423238D02*
X10417857Y-24404190D01*
X10417857Y-24404190D02*
X10427381Y-24394667D01*
X10427381Y-24394667D02*
X10446429Y-24385143D01*
X10446429Y-24385143D02*
X10475000Y-24385143D01*
X10475000Y-24385143D02*
X10494048Y-24394667D01*
X10494048Y-24394667D02*
X10503572Y-24404190D01*
X10503572Y-24404190D02*
X10513095Y-24423238D01*
X10513095Y-24423238D02*
X10513095Y-24480381D01*
X10513095Y-24480381D02*
X10503572Y-24499428D01*
X10503572Y-24499428D02*
X10494048Y-24508952D01*
X10494048Y-24508952D02*
X10475000Y-24518476D01*
X10475000Y-24518476D02*
X10446429Y-24518476D01*
X10627381Y-24518476D02*
X10608334Y-24508952D01*
X10608334Y-24508952D02*
X10598810Y-24489905D01*
X10598810Y-24489905D02*
X10598810Y-24318476D01*
X10779762Y-24508952D02*
X10760715Y-24518476D01*
X10760715Y-24518476D02*
X10722619Y-24518476D01*
X10722619Y-24518476D02*
X10703572Y-24508952D01*
X10703572Y-24508952D02*
X10694048Y-24489905D01*
X10694048Y-24489905D02*
X10694048Y-24413714D01*
X10694048Y-24413714D02*
X10703572Y-24394667D01*
X10703572Y-24394667D02*
X10722619Y-24385143D01*
X10722619Y-24385143D02*
X10760715Y-24385143D01*
X10760715Y-24385143D02*
X10779762Y-24394667D01*
X10779762Y-24394667D02*
X10789286Y-24413714D01*
X10789286Y-24413714D02*
X10789286Y-24432762D01*
X10789286Y-24432762D02*
X10694048Y-24451809D01*
X10865476Y-24508952D02*
X10884524Y-24518476D01*
X10884524Y-24518476D02*
X10922619Y-24518476D01*
X10922619Y-24518476D02*
X10941667Y-24508952D01*
X10941667Y-24508952D02*
X10951191Y-24489905D01*
X10951191Y-24489905D02*
X10951191Y-24480381D01*
X10951191Y-24480381D02*
X10941667Y-24461333D01*
X10941667Y-24461333D02*
X10922619Y-24451809D01*
X10922619Y-24451809D02*
X10894048Y-24451809D01*
X10894048Y-24451809D02*
X10875000Y-24442286D01*
X10875000Y-24442286D02*
X10865476Y-24423238D01*
X10865476Y-24423238D02*
X10865476Y-24413714D01*
X10865476Y-24413714D02*
X10875000Y-24394667D01*
X10875000Y-24394667D02*
X10894048Y-24385143D01*
X10894048Y-24385143D02*
X10922619Y-24385143D01*
X10922619Y-24385143D02*
X10941667Y-24394667D01*
X11017857Y-24594667D02*
X11027381Y-24585143D01*
X11027381Y-24585143D02*
X11046429Y-24556571D01*
X11046429Y-24556571D02*
X11055953Y-24537524D01*
X11055953Y-24537524D02*
X11065476Y-24508952D01*
X11065476Y-24508952D02*
X11075000Y-24461333D01*
X11075000Y-24461333D02*
X11075000Y-24423238D01*
X11075000Y-24423238D02*
X11065476Y-24375619D01*
X11065476Y-24375619D02*
X11055953Y-24347048D01*
X11055953Y-24347048D02*
X11046429Y-24328000D01*
X11046429Y-24328000D02*
X11027381Y-24299428D01*
X11027381Y-24299428D02*
X11017857Y-24289905D01*
X11347381Y-24594667D02*
X11337857Y-24585143D01*
X11337857Y-24585143D02*
X11318810Y-24556571D01*
X11318810Y-24556571D02*
X11309286Y-24537524D01*
X11309286Y-24537524D02*
X11299762Y-24508952D01*
X11299762Y-24508952D02*
X11290238Y-24461333D01*
X11290238Y-24461333D02*
X11290238Y-24423238D01*
X11290238Y-24423238D02*
X11299762Y-24375619D01*
X11299762Y-24375619D02*
X11309286Y-24347048D01*
X11309286Y-24347048D02*
X11318810Y-24328000D01*
X11318810Y-24328000D02*
X11337857Y-24299428D01*
X11337857Y-24299428D02*
X11347381Y-24289905D01*
X11423572Y-24385143D02*
X11423572Y-24518476D01*
X11423572Y-24404190D02*
X11433095Y-24394667D01*
X11433095Y-24394667D02*
X11452143Y-24385143D01*
X11452143Y-24385143D02*
X11480714Y-24385143D01*
X11480714Y-24385143D02*
X11499762Y-24394667D01*
X11499762Y-24394667D02*
X11509286Y-24413714D01*
X11509286Y-24413714D02*
X11509286Y-24518476D01*
X11633095Y-24518476D02*
X11614048Y-24508952D01*
X11614048Y-24508952D02*
X11604524Y-24499428D01*
X11604524Y-24499428D02*
X11595000Y-24480381D01*
X11595000Y-24480381D02*
X11595000Y-24423238D01*
X11595000Y-24423238D02*
X11604524Y-24404190D01*
X11604524Y-24404190D02*
X11614048Y-24394667D01*
X11614048Y-24394667D02*
X11633095Y-24385143D01*
X11633095Y-24385143D02*
X11661667Y-24385143D01*
X11661667Y-24385143D02*
X11680714Y-24394667D01*
X11680714Y-24394667D02*
X11690238Y-24404190D01*
X11690238Y-24404190D02*
X11699762Y-24423238D01*
X11699762Y-24423238D02*
X11699762Y-24480381D01*
X11699762Y-24480381D02*
X11690238Y-24499428D01*
X11690238Y-24499428D02*
X11680714Y-24508952D01*
X11680714Y-24508952D02*
X11661667Y-24518476D01*
X11661667Y-24518476D02*
X11633095Y-24518476D01*
X11756905Y-24385143D02*
X11833095Y-24385143D01*
X11785476Y-24318476D02*
X11785476Y-24489905D01*
X11785476Y-24489905D02*
X11795000Y-24508952D01*
X11795000Y-24508952D02*
X11814048Y-24518476D01*
X11814048Y-24518476D02*
X11833095Y-24518476D01*
X12019762Y-24385143D02*
X12019762Y-24585143D01*
X12019762Y-24394667D02*
X12038810Y-24385143D01*
X12038810Y-24385143D02*
X12076905Y-24385143D01*
X12076905Y-24385143D02*
X12095953Y-24394667D01*
X12095953Y-24394667D02*
X12105476Y-24404190D01*
X12105476Y-24404190D02*
X12115000Y-24423238D01*
X12115000Y-24423238D02*
X12115000Y-24480381D01*
X12115000Y-24480381D02*
X12105476Y-24499428D01*
X12105476Y-24499428D02*
X12095953Y-24508952D01*
X12095953Y-24508952D02*
X12076905Y-24518476D01*
X12076905Y-24518476D02*
X12038810Y-24518476D01*
X12038810Y-24518476D02*
X12019762Y-24508952D01*
X12229286Y-24518476D02*
X12210238Y-24508952D01*
X12210238Y-24508952D02*
X12200714Y-24489905D01*
X12200714Y-24489905D02*
X12200714Y-24318476D01*
X12391191Y-24518476D02*
X12391191Y-24413714D01*
X12391191Y-24413714D02*
X12381667Y-24394667D01*
X12381667Y-24394667D02*
X12362619Y-24385143D01*
X12362619Y-24385143D02*
X12324524Y-24385143D01*
X12324524Y-24385143D02*
X12305476Y-24394667D01*
X12391191Y-24508952D02*
X12372143Y-24518476D01*
X12372143Y-24518476D02*
X12324524Y-24518476D01*
X12324524Y-24518476D02*
X12305476Y-24508952D01*
X12305476Y-24508952D02*
X12295953Y-24489905D01*
X12295953Y-24489905D02*
X12295953Y-24470857D01*
X12295953Y-24470857D02*
X12305476Y-24451809D01*
X12305476Y-24451809D02*
X12324524Y-24442286D01*
X12324524Y-24442286D02*
X12372143Y-24442286D01*
X12372143Y-24442286D02*
X12391191Y-24432762D01*
X12457857Y-24385143D02*
X12534048Y-24385143D01*
X12486429Y-24318476D02*
X12486429Y-24489905D01*
X12486429Y-24489905D02*
X12495953Y-24508952D01*
X12495953Y-24508952D02*
X12515000Y-24518476D01*
X12515000Y-24518476D02*
X12534048Y-24518476D01*
X12676905Y-24508952D02*
X12657857Y-24518476D01*
X12657857Y-24518476D02*
X12619762Y-24518476D01*
X12619762Y-24518476D02*
X12600714Y-24508952D01*
X12600714Y-24508952D02*
X12591191Y-24489905D01*
X12591191Y-24489905D02*
X12591191Y-24413714D01*
X12591191Y-24413714D02*
X12600714Y-24394667D01*
X12600714Y-24394667D02*
X12619762Y-24385143D01*
X12619762Y-24385143D02*
X12657857Y-24385143D01*
X12657857Y-24385143D02*
X12676905Y-24394667D01*
X12676905Y-24394667D02*
X12686429Y-24413714D01*
X12686429Y-24413714D02*
X12686429Y-24432762D01*
X12686429Y-24432762D02*
X12591191Y-24451809D01*
X12857857Y-24518476D02*
X12857857Y-24318476D01*
X12857857Y-24508952D02*
X12838810Y-24518476D01*
X12838810Y-24518476D02*
X12800714Y-24518476D01*
X12800714Y-24518476D02*
X12781667Y-24508952D01*
X12781667Y-24508952D02*
X12772143Y-24499428D01*
X12772143Y-24499428D02*
X12762619Y-24480381D01*
X12762619Y-24480381D02*
X12762619Y-24423238D01*
X12762619Y-24423238D02*
X12772143Y-24404190D01*
X12772143Y-24404190D02*
X12781667Y-24394667D01*
X12781667Y-24394667D02*
X12800714Y-24385143D01*
X12800714Y-24385143D02*
X12838810Y-24385143D01*
X12838810Y-24385143D02*
X12857857Y-24394667D01*
X12934048Y-24594667D02*
X12943572Y-24585143D01*
X12943572Y-24585143D02*
X12962619Y-24556571D01*
X12962619Y-24556571D02*
X12972143Y-24537524D01*
X12972143Y-24537524D02*
X12981667Y-24508952D01*
X12981667Y-24508952D02*
X12991191Y-24461333D01*
X12991191Y-24461333D02*
X12991191Y-24423238D01*
X12991191Y-24423238D02*
X12981667Y-24375619D01*
X12981667Y-24375619D02*
X12972143Y-24347048D01*
X12972143Y-24347048D02*
X12962619Y-24328000D01*
X12962619Y-24328000D02*
X12943572Y-24299428D01*
X12943572Y-24299428D02*
X12934048Y-24289905D01*
X6195000Y-24709000D02*
G75*
G03*
X6195000Y-24709000I-100000J0D01*
G01*
X6423571Y-24582476D02*
X6547381Y-24582476D01*
X6547381Y-24582476D02*
X6480714Y-24658667D01*
X6480714Y-24658667D02*
X6509286Y-24658667D01*
X6509286Y-24658667D02*
X6528333Y-24668190D01*
X6528333Y-24668190D02*
X6537857Y-24677714D01*
X6537857Y-24677714D02*
X6547381Y-24696762D01*
X6547381Y-24696762D02*
X6547381Y-24744381D01*
X6547381Y-24744381D02*
X6537857Y-24763428D01*
X6537857Y-24763428D02*
X6528333Y-24772952D01*
X6528333Y-24772952D02*
X6509286Y-24782476D01*
X6509286Y-24782476D02*
X6452143Y-24782476D01*
X6452143Y-24782476D02*
X6433095Y-24772952D01*
X6433095Y-24772952D02*
X6423571Y-24763428D01*
X6633095Y-24763428D02*
X6642619Y-24772952D01*
X6642619Y-24772952D02*
X6633095Y-24782476D01*
X6633095Y-24782476D02*
X6623571Y-24772952D01*
X6623571Y-24772952D02*
X6633095Y-24763428D01*
X6633095Y-24763428D02*
X6633095Y-24782476D01*
X6718809Y-24601524D02*
X6728333Y-24592000D01*
X6728333Y-24592000D02*
X6747381Y-24582476D01*
X6747381Y-24582476D02*
X6795000Y-24582476D01*
X6795000Y-24582476D02*
X6814048Y-24592000D01*
X6814048Y-24592000D02*
X6823571Y-24601524D01*
X6823571Y-24601524D02*
X6833095Y-24620571D01*
X6833095Y-24620571D02*
X6833095Y-24639619D01*
X6833095Y-24639619D02*
X6823571Y-24668190D01*
X6823571Y-24668190D02*
X6709286Y-24782476D01*
X6709286Y-24782476D02*
X6833095Y-24782476D01*
X6956905Y-24582476D02*
X6975952Y-24582476D01*
X6975952Y-24582476D02*
X6995000Y-24592000D01*
X6995000Y-24592000D02*
X7004524Y-24601524D01*
X7004524Y-24601524D02*
X7014048Y-24620571D01*
X7014048Y-24620571D02*
X7023571Y-24658667D01*
X7023571Y-24658667D02*
X7023571Y-24706286D01*
X7023571Y-24706286D02*
X7014048Y-24744381D01*
X7014048Y-24744381D02*
X7004524Y-24763428D01*
X7004524Y-24763428D02*
X6995000Y-24772952D01*
X6995000Y-24772952D02*
X6975952Y-24782476D01*
X6975952Y-24782476D02*
X6956905Y-24782476D01*
X6956905Y-24782476D02*
X6937857Y-24772952D01*
X6937857Y-24772952D02*
X6928333Y-24763428D01*
X6928333Y-24763428D02*
X6918809Y-24744381D01*
X6918809Y-24744381D02*
X6909286Y-24706286D01*
X6909286Y-24706286D02*
X6909286Y-24658667D01*
X6909286Y-24658667D02*
X6918809Y-24620571D01*
X6918809Y-24620571D02*
X6928333Y-24601524D01*
X6928333Y-24601524D02*
X6937857Y-24592000D01*
X6937857Y-24592000D02*
X6956905Y-24582476D01*
X7147381Y-24582476D02*
X7166429Y-24582476D01*
X7166429Y-24582476D02*
X7185476Y-24592000D01*
X7185476Y-24592000D02*
X7195000Y-24601524D01*
X7195000Y-24601524D02*
X7204524Y-24620571D01*
X7204524Y-24620571D02*
X7214048Y-24658667D01*
X7214048Y-24658667D02*
X7214048Y-24706286D01*
X7214048Y-24706286D02*
X7204524Y-24744381D01*
X7204524Y-24744381D02*
X7195000Y-24763428D01*
X7195000Y-24763428D02*
X7185476Y-24772952D01*
X7185476Y-24772952D02*
X7166429Y-24782476D01*
X7166429Y-24782476D02*
X7147381Y-24782476D01*
X7147381Y-24782476D02*
X7128333Y-24772952D01*
X7128333Y-24772952D02*
X7118809Y-24763428D01*
X7118809Y-24763428D02*
X7109286Y-24744381D01*
X7109286Y-24744381D02*
X7099762Y-24706286D01*
X7099762Y-24706286D02*
X7099762Y-24658667D01*
X7099762Y-24658667D02*
X7109286Y-24620571D01*
X7109286Y-24620571D02*
X7118809Y-24601524D01*
X7118809Y-24601524D02*
X7128333Y-24592000D01*
X7128333Y-24592000D02*
X7147381Y-24582476D01*
X7299762Y-24782476D02*
X7299762Y-24649143D01*
X7299762Y-24668190D02*
X7309286Y-24658667D01*
X7309286Y-24658667D02*
X7328333Y-24649143D01*
X7328333Y-24649143D02*
X7356905Y-24649143D01*
X7356905Y-24649143D02*
X7375952Y-24658667D01*
X7375952Y-24658667D02*
X7385476Y-24677714D01*
X7385476Y-24677714D02*
X7385476Y-24782476D01*
X7385476Y-24677714D02*
X7395000Y-24658667D01*
X7395000Y-24658667D02*
X7414048Y-24649143D01*
X7414048Y-24649143D02*
X7442619Y-24649143D01*
X7442619Y-24649143D02*
X7461667Y-24658667D01*
X7461667Y-24658667D02*
X7471190Y-24677714D01*
X7471190Y-24677714D02*
X7471190Y-24782476D01*
X7566429Y-24782476D02*
X7566429Y-24649143D01*
X7566429Y-24668190D02*
X7575952Y-24658667D01*
X7575952Y-24658667D02*
X7595000Y-24649143D01*
X7595000Y-24649143D02*
X7623571Y-24649143D01*
X7623571Y-24649143D02*
X7642619Y-24658667D01*
X7642619Y-24658667D02*
X7652143Y-24677714D01*
X7652143Y-24677714D02*
X7652143Y-24782476D01*
X7652143Y-24677714D02*
X7661667Y-24658667D01*
X7661667Y-24658667D02*
X7680714Y-24649143D01*
X7680714Y-24649143D02*
X7709286Y-24649143D01*
X7709286Y-24649143D02*
X7728333Y-24658667D01*
X7728333Y-24658667D02*
X7737857Y-24677714D01*
X7737857Y-24677714D02*
X7737857Y-24782476D01*
X8095952Y-24572952D02*
X7924524Y-24830095D01*
X8320714Y-24582476D02*
X8339762Y-24582476D01*
X8339762Y-24582476D02*
X8358810Y-24592000D01*
X8358810Y-24592000D02*
X8368333Y-24601524D01*
X8368333Y-24601524D02*
X8377857Y-24620571D01*
X8377857Y-24620571D02*
X8387381Y-24658667D01*
X8387381Y-24658667D02*
X8387381Y-24706286D01*
X8387381Y-24706286D02*
X8377857Y-24744381D01*
X8377857Y-24744381D02*
X8368333Y-24763428D01*
X8368333Y-24763428D02*
X8358810Y-24772952D01*
X8358810Y-24772952D02*
X8339762Y-24782476D01*
X8339762Y-24782476D02*
X8320714Y-24782476D01*
X8320714Y-24782476D02*
X8301667Y-24772952D01*
X8301667Y-24772952D02*
X8292143Y-24763428D01*
X8292143Y-24763428D02*
X8282619Y-24744381D01*
X8282619Y-24744381D02*
X8273095Y-24706286D01*
X8273095Y-24706286D02*
X8273095Y-24658667D01*
X8273095Y-24658667D02*
X8282619Y-24620571D01*
X8282619Y-24620571D02*
X8292143Y-24601524D01*
X8292143Y-24601524D02*
X8301667Y-24592000D01*
X8301667Y-24592000D02*
X8320714Y-24582476D01*
X8473095Y-24763428D02*
X8482619Y-24772952D01*
X8482619Y-24772952D02*
X8473095Y-24782476D01*
X8473095Y-24782476D02*
X8463572Y-24772952D01*
X8463572Y-24772952D02*
X8473095Y-24763428D01*
X8473095Y-24763428D02*
X8473095Y-24782476D01*
X8673095Y-24782476D02*
X8558810Y-24782476D01*
X8615952Y-24782476D02*
X8615952Y-24582476D01*
X8615952Y-24582476D02*
X8596905Y-24611048D01*
X8596905Y-24611048D02*
X8577857Y-24630095D01*
X8577857Y-24630095D02*
X8558810Y-24639619D01*
X8749286Y-24601524D02*
X8758810Y-24592000D01*
X8758810Y-24592000D02*
X8777857Y-24582476D01*
X8777857Y-24582476D02*
X8825476Y-24582476D01*
X8825476Y-24582476D02*
X8844524Y-24592000D01*
X8844524Y-24592000D02*
X8854048Y-24601524D01*
X8854048Y-24601524D02*
X8863572Y-24620571D01*
X8863572Y-24620571D02*
X8863572Y-24639619D01*
X8863572Y-24639619D02*
X8854048Y-24668190D01*
X8854048Y-24668190D02*
X8739762Y-24782476D01*
X8739762Y-24782476D02*
X8863572Y-24782476D01*
X9035000Y-24582476D02*
X8996905Y-24582476D01*
X8996905Y-24582476D02*
X8977857Y-24592000D01*
X8977857Y-24592000D02*
X8968333Y-24601524D01*
X8968333Y-24601524D02*
X8949286Y-24630095D01*
X8949286Y-24630095D02*
X8939762Y-24668190D01*
X8939762Y-24668190D02*
X8939762Y-24744381D01*
X8939762Y-24744381D02*
X8949286Y-24763428D01*
X8949286Y-24763428D02*
X8958810Y-24772952D01*
X8958810Y-24772952D02*
X8977857Y-24782476D01*
X8977857Y-24782476D02*
X9015953Y-24782476D01*
X9015953Y-24782476D02*
X9035000Y-24772952D01*
X9035000Y-24772952D02*
X9044524Y-24763428D01*
X9044524Y-24763428D02*
X9054048Y-24744381D01*
X9054048Y-24744381D02*
X9054048Y-24696762D01*
X9054048Y-24696762D02*
X9044524Y-24677714D01*
X9044524Y-24677714D02*
X9035000Y-24668190D01*
X9035000Y-24668190D02*
X9015953Y-24658667D01*
X9015953Y-24658667D02*
X8977857Y-24658667D01*
X8977857Y-24658667D02*
X8958810Y-24668190D01*
X8958810Y-24668190D02*
X8949286Y-24677714D01*
X8949286Y-24677714D02*
X8939762Y-24696762D01*
X9177857Y-24582476D02*
X9196905Y-24582476D01*
X9196905Y-24582476D02*
X9215953Y-24592000D01*
X9215953Y-24592000D02*
X9225476Y-24601524D01*
X9225476Y-24601524D02*
X9235000Y-24620571D01*
X9235000Y-24620571D02*
X9244524Y-24658667D01*
X9244524Y-24658667D02*
X9244524Y-24706286D01*
X9244524Y-24706286D02*
X9235000Y-24744381D01*
X9235000Y-24744381D02*
X9225476Y-24763428D01*
X9225476Y-24763428D02*
X9215953Y-24772952D01*
X9215953Y-24772952D02*
X9196905Y-24782476D01*
X9196905Y-24782476D02*
X9177857Y-24782476D01*
X9177857Y-24782476D02*
X9158810Y-24772952D01*
X9158810Y-24772952D02*
X9149286Y-24763428D01*
X9149286Y-24763428D02*
X9139762Y-24744381D01*
X9139762Y-24744381D02*
X9130238Y-24706286D01*
X9130238Y-24706286D02*
X9130238Y-24658667D01*
X9130238Y-24658667D02*
X9139762Y-24620571D01*
X9139762Y-24620571D02*
X9149286Y-24601524D01*
X9149286Y-24601524D02*
X9158810Y-24592000D01*
X9158810Y-24592000D02*
X9177857Y-24582476D01*
X9320714Y-24582476D02*
X9320714Y-24620571D01*
X9396905Y-24582476D02*
X9396905Y-24620571D01*
X9659762Y-24858667D02*
X9650238Y-24849143D01*
X9650238Y-24849143D02*
X9631191Y-24820571D01*
X9631191Y-24820571D02*
X9621667Y-24801524D01*
X9621667Y-24801524D02*
X9612143Y-24772952D01*
X9612143Y-24772952D02*
X9602619Y-24725333D01*
X9602619Y-24725333D02*
X9602619Y-24687238D01*
X9602619Y-24687238D02*
X9612143Y-24639619D01*
X9612143Y-24639619D02*
X9621667Y-24611048D01*
X9621667Y-24611048D02*
X9631191Y-24592000D01*
X9631191Y-24592000D02*
X9650238Y-24563428D01*
X9650238Y-24563428D02*
X9659762Y-24553905D01*
X9764524Y-24668190D02*
X9745476Y-24658667D01*
X9745476Y-24658667D02*
X9735953Y-24649143D01*
X9735953Y-24649143D02*
X9726429Y-24630095D01*
X9726429Y-24630095D02*
X9726429Y-24620571D01*
X9726429Y-24620571D02*
X9735953Y-24601524D01*
X9735953Y-24601524D02*
X9745476Y-24592000D01*
X9745476Y-24592000D02*
X9764524Y-24582476D01*
X9764524Y-24582476D02*
X9802619Y-24582476D01*
X9802619Y-24582476D02*
X9821667Y-24592000D01*
X9821667Y-24592000D02*
X9831191Y-24601524D01*
X9831191Y-24601524D02*
X9840714Y-24620571D01*
X9840714Y-24620571D02*
X9840714Y-24630095D01*
X9840714Y-24630095D02*
X9831191Y-24649143D01*
X9831191Y-24649143D02*
X9821667Y-24658667D01*
X9821667Y-24658667D02*
X9802619Y-24668190D01*
X9802619Y-24668190D02*
X9764524Y-24668190D01*
X9764524Y-24668190D02*
X9745476Y-24677714D01*
X9745476Y-24677714D02*
X9735953Y-24687238D01*
X9735953Y-24687238D02*
X9726429Y-24706286D01*
X9726429Y-24706286D02*
X9726429Y-24744381D01*
X9726429Y-24744381D02*
X9735953Y-24763428D01*
X9735953Y-24763428D02*
X9745476Y-24772952D01*
X9745476Y-24772952D02*
X9764524Y-24782476D01*
X9764524Y-24782476D02*
X9802619Y-24782476D01*
X9802619Y-24782476D02*
X9821667Y-24772952D01*
X9821667Y-24772952D02*
X9831191Y-24763428D01*
X9831191Y-24763428D02*
X9840714Y-24744381D01*
X9840714Y-24744381D02*
X9840714Y-24706286D01*
X9840714Y-24706286D02*
X9831191Y-24687238D01*
X9831191Y-24687238D02*
X9821667Y-24677714D01*
X9821667Y-24677714D02*
X9802619Y-24668190D01*
X10046429Y-24782476D02*
X10046429Y-24582476D01*
X10132143Y-24782476D02*
X10132143Y-24677714D01*
X10132143Y-24677714D02*
X10122619Y-24658667D01*
X10122619Y-24658667D02*
X10103572Y-24649143D01*
X10103572Y-24649143D02*
X10075000Y-24649143D01*
X10075000Y-24649143D02*
X10055953Y-24658667D01*
X10055953Y-24658667D02*
X10046429Y-24668190D01*
X10255953Y-24782476D02*
X10236905Y-24772952D01*
X10236905Y-24772952D02*
X10227381Y-24763428D01*
X10227381Y-24763428D02*
X10217857Y-24744381D01*
X10217857Y-24744381D02*
X10217857Y-24687238D01*
X10217857Y-24687238D02*
X10227381Y-24668190D01*
X10227381Y-24668190D02*
X10236905Y-24658667D01*
X10236905Y-24658667D02*
X10255953Y-24649143D01*
X10255953Y-24649143D02*
X10284524Y-24649143D01*
X10284524Y-24649143D02*
X10303572Y-24658667D01*
X10303572Y-24658667D02*
X10313095Y-24668190D01*
X10313095Y-24668190D02*
X10322619Y-24687238D01*
X10322619Y-24687238D02*
X10322619Y-24744381D01*
X10322619Y-24744381D02*
X10313095Y-24763428D01*
X10313095Y-24763428D02*
X10303572Y-24772952D01*
X10303572Y-24772952D02*
X10284524Y-24782476D01*
X10284524Y-24782476D02*
X10255953Y-24782476D01*
X10436905Y-24782476D02*
X10417857Y-24772952D01*
X10417857Y-24772952D02*
X10408334Y-24753905D01*
X10408334Y-24753905D02*
X10408334Y-24582476D01*
X10589286Y-24772952D02*
X10570238Y-24782476D01*
X10570238Y-24782476D02*
X10532143Y-24782476D01*
X10532143Y-24782476D02*
X10513095Y-24772952D01*
X10513095Y-24772952D02*
X10503572Y-24753905D01*
X10503572Y-24753905D02*
X10503572Y-24677714D01*
X10503572Y-24677714D02*
X10513095Y-24658667D01*
X10513095Y-24658667D02*
X10532143Y-24649143D01*
X10532143Y-24649143D02*
X10570238Y-24649143D01*
X10570238Y-24649143D02*
X10589286Y-24658667D01*
X10589286Y-24658667D02*
X10598810Y-24677714D01*
X10598810Y-24677714D02*
X10598810Y-24696762D01*
X10598810Y-24696762D02*
X10503572Y-24715809D01*
X10675000Y-24772952D02*
X10694048Y-24782476D01*
X10694048Y-24782476D02*
X10732143Y-24782476D01*
X10732143Y-24782476D02*
X10751191Y-24772952D01*
X10751191Y-24772952D02*
X10760715Y-24753905D01*
X10760715Y-24753905D02*
X10760715Y-24744381D01*
X10760715Y-24744381D02*
X10751191Y-24725333D01*
X10751191Y-24725333D02*
X10732143Y-24715809D01*
X10732143Y-24715809D02*
X10703572Y-24715809D01*
X10703572Y-24715809D02*
X10684524Y-24706286D01*
X10684524Y-24706286D02*
X10675000Y-24687238D01*
X10675000Y-24687238D02*
X10675000Y-24677714D01*
X10675000Y-24677714D02*
X10684524Y-24658667D01*
X10684524Y-24658667D02*
X10703572Y-24649143D01*
X10703572Y-24649143D02*
X10732143Y-24649143D01*
X10732143Y-24649143D02*
X10751191Y-24658667D01*
X10827381Y-24858667D02*
X10836905Y-24849143D01*
X10836905Y-24849143D02*
X10855953Y-24820571D01*
X10855953Y-24820571D02*
X10865476Y-24801524D01*
X10865476Y-24801524D02*
X10875000Y-24772952D01*
X10875000Y-24772952D02*
X10884524Y-24725333D01*
X10884524Y-24725333D02*
X10884524Y-24687238D01*
X10884524Y-24687238D02*
X10875000Y-24639619D01*
X10875000Y-24639619D02*
X10865476Y-24611048D01*
X10865476Y-24611048D02*
X10855953Y-24592000D01*
X10855953Y-24592000D02*
X10836905Y-24563428D01*
X10836905Y-24563428D02*
X10827381Y-24553905D01*
X11156905Y-24858667D02*
X11147381Y-24849143D01*
X11147381Y-24849143D02*
X11128334Y-24820571D01*
X11128334Y-24820571D02*
X11118810Y-24801524D01*
X11118810Y-24801524D02*
X11109286Y-24772952D01*
X11109286Y-24772952D02*
X11099762Y-24725333D01*
X11099762Y-24725333D02*
X11099762Y-24687238D01*
X11099762Y-24687238D02*
X11109286Y-24639619D01*
X11109286Y-24639619D02*
X11118810Y-24611048D01*
X11118810Y-24611048D02*
X11128334Y-24592000D01*
X11128334Y-24592000D02*
X11147381Y-24563428D01*
X11147381Y-24563428D02*
X11156905Y-24553905D01*
X11233095Y-24649143D02*
X11233095Y-24782476D01*
X11233095Y-24668190D02*
X11242619Y-24658667D01*
X11242619Y-24658667D02*
X11261667Y-24649143D01*
X11261667Y-24649143D02*
X11290238Y-24649143D01*
X11290238Y-24649143D02*
X11309286Y-24658667D01*
X11309286Y-24658667D02*
X11318810Y-24677714D01*
X11318810Y-24677714D02*
X11318810Y-24782476D01*
X11442619Y-24782476D02*
X11423572Y-24772952D01*
X11423572Y-24772952D02*
X11414048Y-24763428D01*
X11414048Y-24763428D02*
X11404524Y-24744381D01*
X11404524Y-24744381D02*
X11404524Y-24687238D01*
X11404524Y-24687238D02*
X11414048Y-24668190D01*
X11414048Y-24668190D02*
X11423572Y-24658667D01*
X11423572Y-24658667D02*
X11442619Y-24649143D01*
X11442619Y-24649143D02*
X11471191Y-24649143D01*
X11471191Y-24649143D02*
X11490238Y-24658667D01*
X11490238Y-24658667D02*
X11499762Y-24668190D01*
X11499762Y-24668190D02*
X11509286Y-24687238D01*
X11509286Y-24687238D02*
X11509286Y-24744381D01*
X11509286Y-24744381D02*
X11499762Y-24763428D01*
X11499762Y-24763428D02*
X11490238Y-24772952D01*
X11490238Y-24772952D02*
X11471191Y-24782476D01*
X11471191Y-24782476D02*
X11442619Y-24782476D01*
X11566429Y-24649143D02*
X11642619Y-24649143D01*
X11595000Y-24582476D02*
X11595000Y-24753905D01*
X11595000Y-24753905D02*
X11604524Y-24772952D01*
X11604524Y-24772952D02*
X11623572Y-24782476D01*
X11623572Y-24782476D02*
X11642619Y-24782476D01*
X11829286Y-24649143D02*
X11829286Y-24849143D01*
X11829286Y-24658667D02*
X11848333Y-24649143D01*
X11848333Y-24649143D02*
X11886429Y-24649143D01*
X11886429Y-24649143D02*
X11905476Y-24658667D01*
X11905476Y-24658667D02*
X11915000Y-24668190D01*
X11915000Y-24668190D02*
X11924524Y-24687238D01*
X11924524Y-24687238D02*
X11924524Y-24744381D01*
X11924524Y-24744381D02*
X11915000Y-24763428D01*
X11915000Y-24763428D02*
X11905476Y-24772952D01*
X11905476Y-24772952D02*
X11886429Y-24782476D01*
X11886429Y-24782476D02*
X11848333Y-24782476D01*
X11848333Y-24782476D02*
X11829286Y-24772952D01*
X12038810Y-24782476D02*
X12019762Y-24772952D01*
X12019762Y-24772952D02*
X12010238Y-24753905D01*
X12010238Y-24753905D02*
X12010238Y-24582476D01*
X12200714Y-24782476D02*
X12200714Y-24677714D01*
X12200714Y-24677714D02*
X12191191Y-24658667D01*
X12191191Y-24658667D02*
X12172143Y-24649143D01*
X12172143Y-24649143D02*
X12134048Y-24649143D01*
X12134048Y-24649143D02*
X12115000Y-24658667D01*
X12200714Y-24772952D02*
X12181667Y-24782476D01*
X12181667Y-24782476D02*
X12134048Y-24782476D01*
X12134048Y-24782476D02*
X12115000Y-24772952D01*
X12115000Y-24772952D02*
X12105476Y-24753905D01*
X12105476Y-24753905D02*
X12105476Y-24734857D01*
X12105476Y-24734857D02*
X12115000Y-24715809D01*
X12115000Y-24715809D02*
X12134048Y-24706286D01*
X12134048Y-24706286D02*
X12181667Y-24706286D01*
X12181667Y-24706286D02*
X12200714Y-24696762D01*
X12267381Y-24649143D02*
X12343572Y-24649143D01*
X12295953Y-24582476D02*
X12295953Y-24753905D01*
X12295953Y-24753905D02*
X12305476Y-24772952D01*
X12305476Y-24772952D02*
X12324524Y-24782476D01*
X12324524Y-24782476D02*
X12343572Y-24782476D01*
X12486429Y-24772952D02*
X12467381Y-24782476D01*
X12467381Y-24782476D02*
X12429286Y-24782476D01*
X12429286Y-24782476D02*
X12410238Y-24772952D01*
X12410238Y-24772952D02*
X12400714Y-24753905D01*
X12400714Y-24753905D02*
X12400714Y-24677714D01*
X12400714Y-24677714D02*
X12410238Y-24658667D01*
X12410238Y-24658667D02*
X12429286Y-24649143D01*
X12429286Y-24649143D02*
X12467381Y-24649143D01*
X12467381Y-24649143D02*
X12486429Y-24658667D01*
X12486429Y-24658667D02*
X12495953Y-24677714D01*
X12495953Y-24677714D02*
X12495953Y-24696762D01*
X12495953Y-24696762D02*
X12400714Y-24715809D01*
X12667381Y-24782476D02*
X12667381Y-24582476D01*
X12667381Y-24772952D02*
X12648334Y-24782476D01*
X12648334Y-24782476D02*
X12610238Y-24782476D01*
X12610238Y-24782476D02*
X12591191Y-24772952D01*
X12591191Y-24772952D02*
X12581667Y-24763428D01*
X12581667Y-24763428D02*
X12572143Y-24744381D01*
X12572143Y-24744381D02*
X12572143Y-24687238D01*
X12572143Y-24687238D02*
X12581667Y-24668190D01*
X12581667Y-24668190D02*
X12591191Y-24658667D01*
X12591191Y-24658667D02*
X12610238Y-24649143D01*
X12610238Y-24649143D02*
X12648334Y-24649143D01*
X12648334Y-24649143D02*
X12667381Y-24658667D01*
X12743572Y-24858667D02*
X12753095Y-24849143D01*
X12753095Y-24849143D02*
X12772143Y-24820571D01*
X12772143Y-24820571D02*
X12781667Y-24801524D01*
X12781667Y-24801524D02*
X12791191Y-24772952D01*
X12791191Y-24772952D02*
X12800714Y-24725333D01*
X12800714Y-24725333D02*
X12800714Y-24687238D01*
X12800714Y-24687238D02*
X12791191Y-24639619D01*
X12791191Y-24639619D02*
X12781667Y-24611048D01*
X12781667Y-24611048D02*
X12772143Y-24592000D01*
X12772143Y-24592000D02*
X12753095Y-24563428D01*
X12753095Y-24563428D02*
X12743572Y-24553905D01*
M02*
