M48
; DRILL file {KiCad (7.0.0)} date Fri May 19 00:04:18 2023
; FORMAT={-:-/ absolute / metric / decimal}
; #@! TF.CreationDate,2023-05-19T00:04:18+02:00
; #@! TF.GenerationSoftware,Kicad,Pcbnew,(7.0.0)
; #@! TF.FileFunction,Plated,1,2,PTH
FMAT,2
METRIC
; #@! TA.AperFunction,Plated,PTH,ComponentDrill
T1C0.600
; #@! TA.AperFunction,Plated,PTH,ComponentDrill
T2C0.813
; #@! TA.AperFunction,Plated,PTH,ComponentDrill
T3C1.000
%
G90
G05
T1
X69.5Y-221.7
X69.5Y-229.2
X69.571Y-196.681
X69.571Y-204.181
X94.5Y-196.7
X94.5Y-204.2
X94.5Y-221.7
X94.5Y-229.2
X119.5Y-196.7
X119.5Y-204.2
X119.5Y-221.7
X119.5Y-229.2
X144.437Y-221.719
X144.437Y-229.219
X144.5Y-196.7
X144.5Y-204.2
T2
X69.271Y-224.4
X69.342Y-199.381
X79.921Y-226.6
X79.992Y-201.581
X94.271Y-199.4
X94.271Y-224.4
X104.921Y-201.6
X104.921Y-226.6
X119.271Y-199.4
X119.271Y-224.4
X129.921Y-201.6
X129.921Y-226.6
X144.224Y-224.419
X144.271Y-199.4
X154.874Y-226.619
X154.921Y-201.6
T3
X81.84Y-212.16
X81.84Y-214.7
X84.38Y-212.16
X84.38Y-214.7
X86.92Y-212.16
X86.92Y-214.7
X89.46Y-212.16
X89.46Y-214.7
X92.0Y-212.16
X92.0Y-214.7
X131.94Y-211.56
X131.94Y-214.1
X134.48Y-211.56
X134.48Y-214.1
X137.02Y-211.56
X137.02Y-214.1
X139.56Y-211.56
X139.56Y-214.1
X142.1Y-211.56
X142.1Y-214.1
T0
M30
