G04 #@! TF.FileFunction,Copper,L2,Bot,Signal*
%FSLAX46Y46*%
G04 Gerber Fmt 4.6, Leading zero omitted, Abs format (unit mm)*
G04 Created by KiCad (PCBNEW 4.0.2-stable) date 15/07/2016 14:21:10*
%MOMM*%
G01*
G04 APERTURE LIST*
%ADD10C,0.100000*%
%ADD11R,1.397000X1.397000*%
%ADD12C,1.397000*%
%ADD13O,1.600000X1.600000*%
%ADD14C,2.499360*%
%ADD15O,2.000000X1.500000*%
%ADD16R,2.000000X1.500000*%
%ADD17C,1.000000*%
%ADD18C,0.500000*%
%ADD19C,0.400000*%
%ADD20C,0.254000*%
G04 APERTURE END LIST*
D10*
D11*
X46250000Y-65250000D03*
D12*
X46250000Y-57630000D03*
D11*
X88750000Y-64810000D03*
D12*
X88750000Y-57190000D03*
D13*
X45750000Y-46500000D03*
X45750000Y-49040000D03*
X45750000Y-51580000D03*
X45750000Y-54120000D03*
X53370000Y-54120000D03*
X53370000Y-51580000D03*
X53370000Y-49040000D03*
X53370000Y-46500000D03*
X112500000Y-47170000D03*
X112500000Y-49710000D03*
X112500000Y-52250000D03*
X112500000Y-54790000D03*
X120120000Y-54790000D03*
X120120000Y-52250000D03*
X120120000Y-49710000D03*
X120120000Y-47170000D03*
D14*
X43854681Y-73227540D03*
X56348941Y-70725640D03*
X51352761Y-73225000D03*
X58850841Y-73227540D03*
X46356581Y-70725640D03*
X56354021Y-83222440D03*
X46351501Y-83222440D03*
X87104681Y-72867540D03*
X99598941Y-70365640D03*
X94602761Y-72865000D03*
X102100841Y-72867540D03*
X89606581Y-70365640D03*
X99604021Y-82862440D03*
X89601501Y-82862440D03*
X65554681Y-73227540D03*
X78048941Y-70725640D03*
X73052761Y-73225000D03*
X80550841Y-73227540D03*
X68056581Y-70725640D03*
X78054021Y-83222440D03*
X68051501Y-83222440D03*
X108001920Y-73002800D03*
X120496180Y-70500900D03*
X115500000Y-73000260D03*
X122998080Y-73002800D03*
X110503820Y-70500900D03*
X120501260Y-82997700D03*
X110498740Y-82997700D03*
D15*
X61290000Y-49380000D03*
X58250000Y-49380000D03*
X58250000Y-51920000D03*
X61290000Y-51920000D03*
D16*
X61290000Y-59540000D03*
D15*
X58250000Y-59540000D03*
X61290000Y-57000000D03*
X58250000Y-57000000D03*
X61290000Y-54460000D03*
X58250000Y-54460000D03*
X107040000Y-49630000D03*
X104000000Y-49630000D03*
X104000000Y-52170000D03*
X107040000Y-52170000D03*
D16*
X107040000Y-59790000D03*
D15*
X104000000Y-59790000D03*
X107040000Y-57250000D03*
X104000000Y-57250000D03*
X107040000Y-54710000D03*
X104000000Y-54710000D03*
D12*
X74690000Y-55750000D03*
X82310000Y-55750000D03*
X70250000Y-45940000D03*
X70250000Y-53560000D03*
X119250000Y-66560000D03*
X119250000Y-58940000D03*
X123000000Y-52190000D03*
X123000000Y-59810000D03*
X49000000Y-65310000D03*
X49000000Y-57690000D03*
X68000000Y-65870000D03*
X68000000Y-58250000D03*
X72750000Y-64560000D03*
X72750000Y-56940000D03*
X94500000Y-65250000D03*
X94500000Y-57630000D03*
X112000000Y-66370000D03*
X112000000Y-58750000D03*
X116500000Y-67250000D03*
X116500000Y-59630000D03*
D17*
X96000000Y-56250020D03*
X66583965Y-64033832D03*
X70412903Y-61162903D03*
X114000000Y-63500000D03*
X108500000Y-62250000D03*
X76740034Y-45367758D03*
X75064209Y-53657698D03*
X64879974Y-61870008D03*
X72750000Y-46367769D03*
X72750000Y-53750054D03*
X95089677Y-47367780D03*
X98500000Y-52250000D03*
X66064124Y-47000042D03*
X67000000Y-53750000D03*
X104500000Y-47000000D03*
X109750000Y-47000000D03*
X76133903Y-57616097D03*
X55970021Y-53932531D03*
D18*
X46250000Y-63000000D02*
X46250000Y-64051500D01*
X50448501Y-58801499D02*
X46250000Y-63000000D01*
X46250000Y-64051500D02*
X46250000Y-65250000D01*
X50448501Y-56278501D02*
X50448501Y-58801499D01*
X45750000Y-51580000D02*
X50448501Y-56278501D01*
D19*
X46250000Y-65250000D02*
X46250000Y-66000000D01*
D18*
X46356581Y-70725640D02*
X46356581Y-68958326D01*
X46356581Y-68958326D02*
X46250000Y-68851745D01*
X46250000Y-68851745D02*
X46250000Y-66000000D01*
X43000000Y-51790000D02*
X43000000Y-54380000D01*
X45750000Y-49040000D02*
X43000000Y-51790000D01*
X43000000Y-54380000D02*
X45551501Y-56931501D01*
X45551501Y-56931501D02*
X46250000Y-57630000D01*
X46250000Y-57630000D02*
X45500000Y-57630000D01*
X45500000Y-57630000D02*
X45560000Y-57690000D01*
X45560000Y-57690000D02*
X49000000Y-57690000D01*
X96893804Y-65500024D02*
X95195281Y-63801499D01*
X112999989Y-62428473D02*
X109928438Y-65500024D01*
X89948500Y-64810000D02*
X88750000Y-64810000D01*
X92796218Y-64810000D02*
X89948500Y-64810000D01*
X112500000Y-52250000D02*
X114051488Y-53801488D01*
X114051488Y-58842295D02*
X112999989Y-59893793D01*
X112999989Y-59893793D02*
X112999989Y-62428473D01*
X95195281Y-63801499D02*
X93804719Y-63801499D01*
X93804719Y-63801499D02*
X92796218Y-64810000D01*
X114051488Y-53801488D02*
X114051488Y-58842295D01*
X109928438Y-65500024D02*
X96893804Y-65500024D01*
X89606581Y-70365640D02*
X89606581Y-65666581D01*
X89606581Y-65666581D02*
X88750000Y-64810000D01*
X94500000Y-57630000D02*
X95879980Y-56250020D01*
X95879980Y-56250020D02*
X96000000Y-56250020D01*
X94500000Y-57630000D02*
X89190000Y-57630000D01*
X89190000Y-57630000D02*
X88750000Y-57190000D01*
X64317760Y-59540000D02*
X61040000Y-59540000D01*
X66250002Y-62600002D02*
X66250002Y-61472242D01*
X70912902Y-60662904D02*
X70412903Y-61162903D01*
X66250002Y-62600002D02*
X66583965Y-62933965D01*
X65600002Y-63250002D02*
X66250002Y-62600002D01*
X105289990Y-61290010D02*
X96926479Y-61290010D01*
X66583965Y-62933965D02*
X66583965Y-63326726D01*
X53370000Y-54120000D02*
X53370000Y-58870000D01*
X92073521Y-61290010D02*
X74452250Y-61290010D01*
X74452250Y-61290010D02*
X73825144Y-60662904D01*
X66583965Y-63326726D02*
X66583965Y-64033832D01*
X66250002Y-61472242D02*
X64317760Y-59540000D01*
X96926479Y-61290010D02*
X96437935Y-60801466D01*
X92562065Y-60801466D02*
X92073521Y-61290010D01*
X96437935Y-60801466D02*
X92562065Y-60801466D01*
X53370000Y-58870000D02*
X57750002Y-63250002D01*
X73825144Y-60662904D02*
X70912902Y-60662904D01*
X57750002Y-63250002D02*
X65600002Y-63250002D01*
X106790000Y-59790000D02*
X105289990Y-61290010D01*
X70250000Y-61000000D02*
X70412903Y-61162903D01*
X70250000Y-53560000D02*
X70250000Y-61000000D01*
X114000000Y-63500000D02*
X114000000Y-60308011D01*
X114000000Y-60308011D02*
X115051499Y-59256512D01*
X115051499Y-59256512D02*
X115051499Y-58727131D01*
X115051499Y-58727131D02*
X118988630Y-54790000D01*
X118988630Y-54790000D02*
X120120000Y-54790000D01*
X106790000Y-59790000D02*
X106790000Y-60540000D01*
X106790000Y-60540000D02*
X108500000Y-62250000D01*
X121830000Y-56500000D02*
X121830000Y-58640000D01*
X121830000Y-58640000D02*
X123000000Y-59810000D01*
X120120000Y-54790000D02*
X121830000Y-56500000D01*
X76740034Y-45367758D02*
X76032928Y-45367758D01*
X50750000Y-45500000D02*
X52500000Y-43750000D01*
X76032928Y-45367758D02*
X74415170Y-43750000D01*
X74415170Y-43750000D02*
X52500000Y-43750000D01*
X79296188Y-53111510D02*
X79671510Y-53111510D01*
X79671510Y-53111510D02*
X82310000Y-55750000D01*
X104250000Y-54710000D02*
X99138440Y-54710000D01*
X99138440Y-54710000D02*
X97539950Y-53111510D01*
X97539950Y-53111510D02*
X79296188Y-53111510D01*
X79296188Y-53111510D02*
X78750000Y-53657698D01*
X50750000Y-48960000D02*
X50750000Y-45500000D01*
X53370000Y-51580000D02*
X50750000Y-48960000D01*
X75947698Y-53657698D02*
X78750000Y-53657698D01*
X75771315Y-53657698D02*
X75064209Y-53657698D01*
X75947698Y-53657698D02*
X75771315Y-53657698D01*
X54169999Y-52379999D02*
X53370000Y-51580000D01*
X54820001Y-54816001D02*
X54820001Y-53030001D01*
X57004000Y-57000000D02*
X54820001Y-54816001D01*
X58500000Y-57000000D02*
X57004000Y-57000000D01*
X54820001Y-53030001D02*
X54169999Y-52379999D01*
X51750010Y-45914216D02*
X52914215Y-44750011D01*
X53370000Y-49040000D02*
X51750010Y-47420010D01*
X52914215Y-44750011D02*
X68877991Y-44750011D01*
X68877991Y-44750011D02*
X70500000Y-45820000D01*
X51750010Y-47420010D02*
X51750010Y-45914216D01*
X58500000Y-59850002D02*
X60399998Y-61750000D01*
X58500000Y-59540000D02*
X58500000Y-59850002D01*
X60399998Y-61750000D02*
X64759966Y-61750000D01*
X64759966Y-61750000D02*
X64879974Y-61870008D01*
X85646848Y-46617778D02*
X71716004Y-46617778D01*
X117569988Y-44619988D02*
X87644639Y-44619988D01*
X87644639Y-44619988D02*
X85646848Y-46617778D01*
X120120000Y-47170000D02*
X117569988Y-44619988D01*
X54501370Y-46500000D02*
X53370000Y-46500000D01*
X55251348Y-45750022D02*
X54501370Y-46500000D01*
X70945281Y-47388501D02*
X69554719Y-47388501D01*
X71716004Y-46617778D02*
X70945281Y-47388501D01*
X67916240Y-45750022D02*
X55251348Y-45750022D01*
X69554719Y-47388501D02*
X67916240Y-45750022D01*
X83585782Y-59999990D02*
X76750000Y-59999990D01*
X72750000Y-56940000D02*
X75809990Y-59999990D01*
X75809990Y-59999990D02*
X76750000Y-59999990D01*
X74690000Y-55750000D02*
X73940000Y-55750000D01*
X73940000Y-55750000D02*
X72750000Y-56940000D01*
X83795772Y-59790000D02*
X83585782Y-59999990D01*
X104250000Y-59790000D02*
X83795772Y-59790000D01*
X72750000Y-57440000D02*
X72750000Y-53750054D01*
X116500000Y-59630000D02*
X119250000Y-62380000D01*
X119250000Y-62380000D02*
X119250000Y-66560000D01*
X72810000Y-57500000D02*
X72750000Y-57440000D01*
X119250000Y-66560000D02*
X119250000Y-63380000D01*
X120120000Y-47170000D02*
X127000000Y-54050000D01*
X127000000Y-54050000D02*
X127000000Y-60250000D01*
X127000000Y-60250000D02*
X120690000Y-66560000D01*
X120690000Y-66560000D02*
X119250000Y-66560000D01*
X80078434Y-63500022D02*
X73833804Y-63500022D01*
X80288424Y-63290032D02*
X80078434Y-63500022D01*
X63191989Y-57000000D02*
X61040000Y-57000000D01*
X93390501Y-62801488D02*
X92901957Y-63290032D01*
X68000013Y-61808024D02*
X63191989Y-57000000D01*
X71666196Y-63500022D02*
X69514255Y-63500022D01*
X69514255Y-63500022D02*
X68000013Y-61985780D01*
X73833804Y-63500022D02*
X73445281Y-63111499D01*
X73445281Y-63111499D02*
X72054719Y-63111499D01*
X110750013Y-61235780D02*
X110750013Y-63264220D01*
X97308022Y-64500013D02*
X95609499Y-62801488D01*
X106790000Y-54710000D02*
X107960000Y-54710000D01*
X110750013Y-63264220D02*
X109514220Y-64500013D01*
X109514220Y-64500013D02*
X97308022Y-64500013D01*
X92901957Y-63290032D02*
X80288424Y-63290032D01*
X110500011Y-57250011D02*
X110500011Y-60985778D01*
X95609499Y-62801488D02*
X93390501Y-62801488D01*
X68000013Y-61985780D02*
X68000013Y-61808024D01*
X107960000Y-54710000D02*
X110500011Y-57250011D01*
X110500011Y-60985778D02*
X110750013Y-61235780D01*
X72054719Y-63111499D02*
X71666196Y-63500022D01*
X120120000Y-52250000D02*
X113489999Y-45619999D01*
X113489999Y-45619999D02*
X108957704Y-45619999D01*
X108297734Y-47102171D02*
X109790021Y-48594458D01*
X108957704Y-45619999D02*
X108297734Y-46279969D01*
X106871334Y-54710000D02*
X106790000Y-54710000D01*
X108297734Y-46279969D02*
X108297734Y-47102171D01*
X109790021Y-48594458D02*
X109790021Y-51791313D01*
X109790021Y-51791313D02*
X106871334Y-54710000D01*
X119948499Y-59638499D02*
X119250000Y-58940000D01*
X125000000Y-60000000D02*
X123741499Y-61258501D01*
X123741499Y-61258501D02*
X121568501Y-61258501D01*
X121568501Y-61258501D02*
X119948499Y-59638499D01*
X125000000Y-57130000D02*
X125000000Y-60000000D01*
X120120000Y-52250000D02*
X125000000Y-57130000D01*
X120120000Y-52250000D02*
X120750000Y-52250000D01*
X120120000Y-49710000D02*
X120520000Y-49710000D01*
X120520000Y-49710000D02*
X123000000Y-52190000D01*
X120460000Y-49710000D02*
X120120000Y-49710000D01*
X49000000Y-65310000D02*
X51352761Y-67662761D01*
X51352761Y-67662761D02*
X51352761Y-73225000D01*
X94602761Y-72865000D02*
X94602761Y-65352761D01*
X94602761Y-65352761D02*
X94500000Y-65250000D01*
X72750000Y-65060000D02*
X72750000Y-72922239D01*
X72750000Y-72922239D02*
X73052761Y-73225000D01*
X68000000Y-65870000D02*
X68000000Y-70669059D01*
X68000000Y-70669059D02*
X68056581Y-70725640D01*
X116500000Y-67250000D02*
X116500000Y-72000260D01*
X116500000Y-72000260D02*
X115500000Y-73000260D01*
D19*
X112000000Y-66370000D02*
X112000000Y-69004720D01*
X112000000Y-69004720D02*
X110503820Y-70500900D01*
D18*
X68726283Y-49388523D02*
X71773718Y-49388522D01*
X68717760Y-49380000D02*
X68726283Y-49388523D01*
X61040000Y-49380000D02*
X68717760Y-49380000D01*
X96617800Y-48750000D02*
X99617801Y-45749999D01*
X71773718Y-49388522D02*
X72412240Y-48750000D01*
X72412240Y-48750000D02*
X96617800Y-48750000D01*
X105531333Y-45749999D02*
X108790010Y-49008676D01*
X99617801Y-45749999D02*
X105531333Y-45749999D01*
X106871334Y-52170000D02*
X106790000Y-52170000D01*
X108790010Y-49008676D02*
X108790010Y-50251324D01*
X108790010Y-50251324D02*
X106871334Y-52170000D01*
X94000362Y-47749989D02*
X94382571Y-47367780D01*
X58500000Y-49380000D02*
X60000010Y-47879990D01*
X60000010Y-47879990D02*
X65094068Y-47879990D01*
X65094068Y-47879990D02*
X65464122Y-48250044D01*
X65464122Y-48250044D02*
X69002033Y-48250044D01*
X69140501Y-48388512D02*
X71359499Y-48388512D01*
X69002033Y-48250044D02*
X69140501Y-48388512D01*
X71359499Y-48388512D02*
X71998021Y-47749989D01*
X71998021Y-47749989D02*
X94000362Y-47749989D01*
X94382571Y-47367780D02*
X95089677Y-47367780D01*
X98500000Y-52250000D02*
X99207106Y-52250000D01*
X99207106Y-52250000D02*
X99287106Y-52170000D01*
X99287106Y-52170000D02*
X104250000Y-52170000D01*
X58508625Y-46750042D02*
X65814124Y-46750042D01*
X65814124Y-46750042D02*
X66064124Y-47000042D01*
X58500000Y-51920000D02*
X56670000Y-51920000D01*
X56000000Y-49258667D02*
X58508625Y-46750042D01*
X56000000Y-51250000D02*
X56000000Y-49258667D01*
X56670000Y-51920000D02*
X56000000Y-51250000D01*
X67707106Y-53750000D02*
X67000000Y-53750000D01*
X67916218Y-53750000D02*
X67707106Y-53750000D01*
X96565931Y-52111499D02*
X69554719Y-52111499D01*
X104250000Y-49630000D02*
X99047429Y-49630000D01*
X99047429Y-49630000D02*
X96565931Y-52111499D01*
X69554719Y-52111499D02*
X67916218Y-53750000D01*
X67000000Y-53750000D02*
X67000000Y-57250000D01*
X67000000Y-57250000D02*
X68000000Y-58250000D01*
X104919699Y-48013201D02*
X99250000Y-48013201D01*
X62330000Y-51920000D02*
X63138512Y-51111488D01*
X63138512Y-51111488D02*
X96151713Y-51111488D01*
X96151713Y-51111488D02*
X99250000Y-48013201D01*
X61040000Y-51920000D02*
X62330000Y-51920000D01*
X106371334Y-49630000D02*
X104919699Y-48013201D01*
X104500000Y-47593502D02*
X104919699Y-48013201D01*
X104500000Y-47000000D02*
X104500000Y-47593502D01*
X106790000Y-49630000D02*
X106371334Y-49630000D01*
X112000000Y-56584002D02*
X110790031Y-55374033D01*
X112000000Y-58750000D02*
X112000000Y-56584002D01*
X110790031Y-55374033D02*
X110790031Y-48180241D01*
X110790031Y-48180241D02*
X109750000Y-47140211D01*
X79664216Y-62500011D02*
X74248022Y-62500011D01*
X109750002Y-61649998D02*
X109750002Y-62850002D01*
X109100002Y-60999998D02*
X109750002Y-61649998D01*
X92976283Y-61801477D02*
X92487739Y-62290021D01*
X62138462Y-54460000D02*
X61040000Y-54460000D01*
X69000024Y-61321562D02*
X62138462Y-54460000D01*
X71640501Y-62111488D02*
X71251978Y-62500011D01*
X73859499Y-62111488D02*
X71640501Y-62111488D01*
X109750002Y-62850002D02*
X109100002Y-63500002D01*
X79874206Y-62290021D02*
X79664216Y-62500011D01*
X109100002Y-63500002D02*
X97722242Y-63500002D01*
X96023717Y-61801477D02*
X92976283Y-61801477D01*
X97722242Y-63500002D02*
X96023717Y-61801477D01*
X109100002Y-58750000D02*
X109100002Y-60999998D01*
X106790000Y-57250000D02*
X107600002Y-57250000D01*
X107600002Y-57250000D02*
X109100002Y-58750000D01*
X92487739Y-62290021D02*
X79874206Y-62290021D01*
X74248022Y-62500011D02*
X73859499Y-62111488D01*
X71251978Y-62500011D02*
X69928473Y-62500011D01*
X69928473Y-62500011D02*
X69000024Y-61571562D01*
X69000024Y-61571562D02*
X69000024Y-61321562D01*
X76841009Y-57616097D02*
X76133903Y-57616097D01*
X84555445Y-57616097D02*
X76841009Y-57616097D01*
X100264211Y-57250000D02*
X97125732Y-54111521D01*
X88060021Y-54111521D02*
X84555445Y-57616097D01*
X100750000Y-57250000D02*
X100264211Y-57250000D01*
X97125732Y-54111521D02*
X88060021Y-54111521D01*
X104250000Y-57250000D02*
X100750000Y-57250000D01*
X100750000Y-57250000D02*
X100500000Y-57250000D01*
X55970021Y-53932531D02*
X57972531Y-53932531D01*
X57972531Y-53932531D02*
X58500000Y-54460000D01*
D20*
G36*
X50124210Y-44874210D02*
X49932367Y-45161325D01*
X49921190Y-45217516D01*
X49864999Y-45500000D01*
X49865000Y-45500005D01*
X49865000Y-48959995D01*
X49864999Y-48960000D01*
X49916767Y-49220248D01*
X49932367Y-49298675D01*
X50112078Y-49567633D01*
X50124210Y-49585790D01*
X51941983Y-51403562D01*
X51906887Y-51580000D01*
X52016120Y-52129151D01*
X52327189Y-52594698D01*
X52731703Y-52864986D01*
X52514866Y-52967611D01*
X52138959Y-53382577D01*
X51978096Y-53770961D01*
X52100085Y-53993000D01*
X53243000Y-53993000D01*
X53243000Y-53973000D01*
X53497000Y-53973000D01*
X53497000Y-53993000D01*
X53517000Y-53993000D01*
X53517000Y-54247000D01*
X53497000Y-54247000D01*
X53497000Y-55390629D01*
X53719041Y-55511914D01*
X54115645Y-55324208D01*
X54192575Y-55439343D01*
X54194211Y-55441791D01*
X56378208Y-57625787D01*
X56378210Y-57625790D01*
X56665325Y-57817633D01*
X56721516Y-57828810D01*
X56913568Y-57867013D01*
X56988625Y-57979343D01*
X57423624Y-58270000D01*
X56988625Y-58560657D01*
X56688395Y-59009983D01*
X56582968Y-59540000D01*
X56688395Y-60070017D01*
X56988625Y-60519343D01*
X57437951Y-60819573D01*
X57967968Y-60925000D01*
X58323418Y-60925000D01*
X59774206Y-62375787D01*
X59774208Y-62375790D01*
X60061323Y-62567633D01*
X60117514Y-62578810D01*
X60399998Y-62635001D01*
X60400003Y-62635000D01*
X64039899Y-62635000D01*
X64236209Y-62831653D01*
X64653218Y-63004811D01*
X65104749Y-63005205D01*
X65522060Y-62832775D01*
X65841619Y-62513773D01*
X66014777Y-62096764D01*
X66015171Y-61645233D01*
X65842741Y-61227922D01*
X65523739Y-60908363D01*
X65106730Y-60735205D01*
X64655199Y-60734811D01*
X64340119Y-60865000D01*
X62561163Y-60865000D01*
X62649699Y-60828327D01*
X62828327Y-60649698D01*
X62925000Y-60416309D01*
X62925000Y-59825750D01*
X62766250Y-59667000D01*
X61417000Y-59667000D01*
X61417000Y-59687000D01*
X61163000Y-59687000D01*
X61163000Y-59667000D01*
X61143000Y-59667000D01*
X61143000Y-59413000D01*
X61163000Y-59413000D01*
X61163000Y-59393000D01*
X61417000Y-59393000D01*
X61417000Y-59413000D01*
X62766250Y-59413000D01*
X62925000Y-59254250D01*
X62925000Y-58663691D01*
X62828327Y-58430302D01*
X62649699Y-58251673D01*
X62416310Y-58155000D01*
X62288486Y-58155000D01*
X62551375Y-57979343D01*
X62614413Y-57885000D01*
X62825409Y-57885000D01*
X67161899Y-62221489D01*
X67182380Y-62324455D01*
X67374223Y-62611570D01*
X68888463Y-64125809D01*
X68888465Y-64125812D01*
X69062903Y-64242367D01*
X69175581Y-64317656D01*
X69514255Y-64385023D01*
X69514260Y-64385022D01*
X71416652Y-64385022D01*
X71416269Y-64824086D01*
X71618854Y-65314380D01*
X71865000Y-65560956D01*
X71865000Y-71747672D01*
X71455939Y-72156021D01*
X71168409Y-72848469D01*
X71167755Y-73598241D01*
X71454075Y-74291191D01*
X71983782Y-74821822D01*
X72676230Y-75109352D01*
X73426002Y-75110006D01*
X74118952Y-74823686D01*
X74649583Y-74293979D01*
X74937113Y-73601531D01*
X74937767Y-72851759D01*
X74651447Y-72158809D01*
X74121740Y-71628178D01*
X73635000Y-71426066D01*
X73635000Y-71098881D01*
X76163935Y-71098881D01*
X76450255Y-71791831D01*
X76979962Y-72322462D01*
X77672410Y-72609992D01*
X78422182Y-72610646D01*
X78837565Y-72439014D01*
X78666489Y-72851009D01*
X78665835Y-73600781D01*
X78952155Y-74293731D01*
X79481862Y-74824362D01*
X80174310Y-75111892D01*
X80924082Y-75112546D01*
X81617032Y-74826226D01*
X82147663Y-74296519D01*
X82435193Y-73604071D01*
X82435847Y-72854299D01*
X82149527Y-72161349D01*
X81619820Y-71630718D01*
X80927372Y-71343188D01*
X80177600Y-71342534D01*
X79762217Y-71514166D01*
X79933293Y-71102171D01*
X79933947Y-70352399D01*
X79647627Y-69659449D01*
X79117920Y-69128818D01*
X78425472Y-68841288D01*
X77675700Y-68840634D01*
X76982750Y-69126954D01*
X76452119Y-69656661D01*
X76164589Y-70349109D01*
X76163935Y-71098881D01*
X73635000Y-71098881D01*
X73635000Y-65560754D01*
X73879827Y-65316353D01*
X74083268Y-64826413D01*
X74083653Y-64385022D01*
X80078429Y-64385022D01*
X80078434Y-64385023D01*
X80360918Y-64328832D01*
X80417109Y-64317655D01*
X80630561Y-64175032D01*
X87404060Y-64175032D01*
X87404060Y-65508500D01*
X87448338Y-65743817D01*
X87587410Y-65959941D01*
X87799610Y-66104931D01*
X88051500Y-66155940D01*
X88721581Y-66155940D01*
X88721581Y-68692088D01*
X88540390Y-68766954D01*
X88009759Y-69296661D01*
X87722229Y-69989109D01*
X87721575Y-70738881D01*
X87893207Y-71154264D01*
X87481212Y-70983188D01*
X86731440Y-70982534D01*
X86038490Y-71268854D01*
X85507859Y-71798561D01*
X85220329Y-72491009D01*
X85219675Y-73240781D01*
X85505995Y-73933731D01*
X86035702Y-74464362D01*
X86728150Y-74751892D01*
X87477922Y-74752546D01*
X88170872Y-74466226D01*
X88701503Y-73936519D01*
X88989033Y-73244071D01*
X88989687Y-72494299D01*
X88818055Y-72078916D01*
X89230050Y-72249992D01*
X89979822Y-72250646D01*
X90672772Y-71964326D01*
X91203403Y-71434619D01*
X91490933Y-70742171D01*
X91491587Y-69992399D01*
X91205267Y-69299449D01*
X90675560Y-68768818D01*
X90491581Y-68692423D01*
X90491581Y-65695000D01*
X92796213Y-65695000D01*
X92796218Y-65695001D01*
X93078702Y-65638810D01*
X93134893Y-65627633D01*
X93196247Y-65586638D01*
X93368854Y-66004380D01*
X93717761Y-66353896D01*
X93717761Y-71191448D01*
X93536570Y-71266314D01*
X93005939Y-71796021D01*
X92718409Y-72488469D01*
X92717755Y-73238241D01*
X93004075Y-73931191D01*
X93533782Y-74461822D01*
X94226230Y-74749352D01*
X94976002Y-74750006D01*
X95668952Y-74463686D01*
X96199583Y-73933979D01*
X96487113Y-73241531D01*
X96487767Y-72491759D01*
X96201447Y-71798809D01*
X95671740Y-71268178D01*
X95487761Y-71191783D01*
X95487761Y-70738881D01*
X97713935Y-70738881D01*
X98000255Y-71431831D01*
X98529962Y-71962462D01*
X99222410Y-72249992D01*
X99972182Y-72250646D01*
X100387565Y-72079014D01*
X100216489Y-72491009D01*
X100215835Y-73240781D01*
X100502155Y-73933731D01*
X101031862Y-74464362D01*
X101724310Y-74751892D01*
X102474082Y-74752546D01*
X103167032Y-74466226D01*
X103697663Y-73936519D01*
X103985193Y-73244071D01*
X103985847Y-72494299D01*
X103699527Y-71801349D01*
X103169820Y-71270718D01*
X102477372Y-70983188D01*
X101727600Y-70982534D01*
X101312217Y-71154166D01*
X101483293Y-70742171D01*
X101483947Y-69992399D01*
X101197627Y-69299449D01*
X100667920Y-68768818D01*
X99975472Y-68481288D01*
X99225700Y-68480634D01*
X98532750Y-68766954D01*
X98002119Y-69296661D01*
X97714589Y-69989109D01*
X97713935Y-70738881D01*
X95487761Y-70738881D01*
X95487761Y-66148172D01*
X95629827Y-66006353D01*
X95782024Y-65639822D01*
X96268012Y-66125811D01*
X96268014Y-66125814D01*
X96522588Y-66295914D01*
X96555129Y-66317657D01*
X96893804Y-66385025D01*
X96893809Y-66385024D01*
X109928433Y-66385024D01*
X109928438Y-66385025D01*
X110210922Y-66328834D01*
X110267113Y-66317657D01*
X110554228Y-66125814D01*
X110730837Y-65949205D01*
X110666732Y-66103587D01*
X110666269Y-66634086D01*
X110868854Y-67124380D01*
X111165000Y-67421043D01*
X111165000Y-68658852D01*
X111111375Y-68712477D01*
X110880351Y-68616548D01*
X110130579Y-68615894D01*
X109437629Y-68902214D01*
X108906998Y-69431921D01*
X108619468Y-70124369D01*
X108618814Y-70874141D01*
X108790446Y-71289524D01*
X108378451Y-71118448D01*
X107628679Y-71117794D01*
X106935729Y-71404114D01*
X106405098Y-71933821D01*
X106117568Y-72626269D01*
X106116914Y-73376041D01*
X106403234Y-74068991D01*
X106932941Y-74599622D01*
X107625389Y-74887152D01*
X108375161Y-74887806D01*
X109068111Y-74601486D01*
X109598742Y-74071779D01*
X109886272Y-73379331D01*
X109886277Y-73373501D01*
X113614994Y-73373501D01*
X113901314Y-74066451D01*
X114431021Y-74597082D01*
X115123469Y-74884612D01*
X115873241Y-74885266D01*
X116566191Y-74598946D01*
X117096822Y-74069239D01*
X117384352Y-73376791D01*
X117385006Y-72627019D01*
X117285712Y-72386708D01*
X117286685Y-72385252D01*
X117317634Y-72338934D01*
X117385001Y-72000260D01*
X117385000Y-72000255D01*
X117385000Y-70874141D01*
X118611174Y-70874141D01*
X118897494Y-71567091D01*
X119427201Y-72097722D01*
X120119649Y-72385252D01*
X120869421Y-72385906D01*
X121284804Y-72214274D01*
X121113728Y-72626269D01*
X121113074Y-73376041D01*
X121399394Y-74068991D01*
X121929101Y-74599622D01*
X122621549Y-74887152D01*
X123371321Y-74887806D01*
X124064271Y-74601486D01*
X124594902Y-74071779D01*
X124882432Y-73379331D01*
X124883086Y-72629559D01*
X124596766Y-71936609D01*
X124067059Y-71405978D01*
X123374611Y-71118448D01*
X122624839Y-71117794D01*
X122209456Y-71289426D01*
X122380532Y-70877431D01*
X122381186Y-70127659D01*
X122094866Y-69434709D01*
X121565159Y-68904078D01*
X120872711Y-68616548D01*
X120122939Y-68615894D01*
X119429989Y-68902214D01*
X118899358Y-69431921D01*
X118611828Y-70124369D01*
X118611174Y-70874141D01*
X117385000Y-70874141D01*
X117385000Y-68250754D01*
X117629827Y-68006353D01*
X117833268Y-67516413D01*
X117833731Y-66985914D01*
X117631146Y-66495620D01*
X117256353Y-66120173D01*
X116766413Y-65916732D01*
X116235914Y-65916269D01*
X115745620Y-66118854D01*
X115370173Y-66493647D01*
X115166732Y-66983587D01*
X115166269Y-67514086D01*
X115368854Y-68004380D01*
X115615000Y-68250956D01*
X115615000Y-71115680D01*
X115126759Y-71115254D01*
X114433809Y-71401574D01*
X113903178Y-71931281D01*
X113615648Y-72623729D01*
X113614994Y-73373501D01*
X109886277Y-73373501D01*
X109886926Y-72629559D01*
X109715294Y-72214176D01*
X110127289Y-72385252D01*
X110877061Y-72385906D01*
X111570011Y-72099586D01*
X112100642Y-71569879D01*
X112388172Y-70877431D01*
X112388826Y-70127659D01*
X112292078Y-69893510D01*
X112590434Y-69595154D01*
X112663778Y-69485387D01*
X112771439Y-69324261D01*
X112835000Y-69004720D01*
X112835000Y-67420666D01*
X113129827Y-67126353D01*
X113333268Y-66636413D01*
X113333731Y-66105914D01*
X113131146Y-65615620D01*
X112756353Y-65240173D01*
X112266413Y-65036732D01*
X111735914Y-65036269D01*
X111578893Y-65101149D01*
X113625776Y-63054265D01*
X113625779Y-63054263D01*
X113817622Y-62767148D01*
X113834486Y-62682369D01*
X113884990Y-62428473D01*
X113884989Y-62428468D01*
X113884989Y-60260372D01*
X114677275Y-59468087D01*
X114677278Y-59468085D01*
X114869121Y-59180970D01*
X114901854Y-59016413D01*
X114936488Y-58842296D01*
X114936488Y-55139039D01*
X118728096Y-55139039D01*
X118888959Y-55527423D01*
X119264866Y-55942389D01*
X119770959Y-56181914D01*
X119993000Y-56060629D01*
X119993000Y-54917000D01*
X118850085Y-54917000D01*
X118728096Y-55139039D01*
X114936488Y-55139039D01*
X114936488Y-53801488D01*
X114869121Y-53462813D01*
X114677278Y-53175698D01*
X114677275Y-53175696D01*
X113928017Y-52426438D01*
X113963113Y-52250000D01*
X113853880Y-51700849D01*
X113542811Y-51235302D01*
X113160725Y-50980000D01*
X113542811Y-50724698D01*
X113853880Y-50259151D01*
X113963113Y-49710000D01*
X113853880Y-49160849D01*
X113542811Y-48695302D01*
X113160725Y-48440000D01*
X113542811Y-48184698D01*
X113853880Y-47719151D01*
X113934130Y-47315709D01*
X118691983Y-52073562D01*
X118656887Y-52250000D01*
X118766120Y-52799151D01*
X119077189Y-53264698D01*
X119481703Y-53534986D01*
X119264866Y-53637611D01*
X118888959Y-54052577D01*
X118728096Y-54440961D01*
X118850085Y-54663000D01*
X119993000Y-54663000D01*
X119993000Y-54643000D01*
X120247000Y-54643000D01*
X120247000Y-54663000D01*
X120267000Y-54663000D01*
X120267000Y-54917000D01*
X120247000Y-54917000D01*
X120247000Y-56060629D01*
X120469041Y-56181914D01*
X120975134Y-55942389D01*
X121351041Y-55527423D01*
X121511904Y-55139039D01*
X121389916Y-54917002D01*
X121535422Y-54917002D01*
X124115000Y-57496579D01*
X124115000Y-59102731D01*
X123934188Y-59055417D01*
X123179605Y-59810000D01*
X123193748Y-59824143D01*
X123014143Y-60003748D01*
X123000000Y-59989605D01*
X122985858Y-60003748D01*
X122806253Y-59824143D01*
X122820395Y-59810000D01*
X122065812Y-59055417D01*
X121830200Y-59117071D01*
X121654073Y-59617480D01*
X121681363Y-60119783D01*
X120583429Y-59021849D01*
X120583556Y-58875812D01*
X122245417Y-58875812D01*
X123000000Y-59630395D01*
X123754583Y-58875812D01*
X123692929Y-58640200D01*
X123192520Y-58464073D01*
X122662801Y-58492852D01*
X122307071Y-58640200D01*
X122245417Y-58875812D01*
X120583556Y-58875812D01*
X120583731Y-58675914D01*
X120381146Y-58185620D01*
X120006353Y-57810173D01*
X119516413Y-57606732D01*
X118985914Y-57606269D01*
X118495620Y-57808854D01*
X118120173Y-58183647D01*
X117916732Y-58673587D01*
X117916269Y-59204086D01*
X118118854Y-59694380D01*
X118493647Y-60069827D01*
X118983587Y-60273268D01*
X119331992Y-60273572D01*
X120942709Y-61884288D01*
X120942711Y-61884291D01*
X121229826Y-62076134D01*
X121286017Y-62087311D01*
X121568501Y-62143502D01*
X121568506Y-62143501D01*
X123741494Y-62143501D01*
X123741499Y-62143502D01*
X123883082Y-62115339D01*
X120323420Y-65675000D01*
X120250754Y-65675000D01*
X120135000Y-65559044D01*
X120135000Y-62380000D01*
X120067633Y-62041325D01*
X119875790Y-61754210D01*
X119875787Y-61754208D01*
X117833429Y-59711849D01*
X117833731Y-59365914D01*
X117631146Y-58875620D01*
X117256353Y-58500173D01*
X116766413Y-58296732D01*
X116235914Y-58296269D01*
X115745620Y-58498854D01*
X115370173Y-58873647D01*
X115166732Y-59363587D01*
X115166269Y-59894086D01*
X115368854Y-60384380D01*
X115743647Y-60759827D01*
X116233587Y-60963268D01*
X116581992Y-60963572D01*
X118365000Y-62746579D01*
X118365000Y-65559246D01*
X118120173Y-65803647D01*
X117916732Y-66293587D01*
X117916269Y-66824086D01*
X118118854Y-67314380D01*
X118493647Y-67689827D01*
X118983587Y-67893268D01*
X119514086Y-67893731D01*
X120000815Y-67692619D01*
X125514613Y-67692619D01*
X125854155Y-68514372D01*
X126482321Y-69143636D01*
X127303481Y-69484611D01*
X128192619Y-69485387D01*
X129014372Y-69145845D01*
X129643636Y-68517679D01*
X129984611Y-67696519D01*
X129985387Y-66807381D01*
X129645845Y-65985628D01*
X129017679Y-65356364D01*
X128196519Y-65015389D01*
X127307381Y-65014613D01*
X126485628Y-65354155D01*
X125856364Y-65982321D01*
X125515389Y-66803481D01*
X125514613Y-67692619D01*
X120000815Y-67692619D01*
X120004380Y-67691146D01*
X120250956Y-67445000D01*
X120689995Y-67445000D01*
X120690000Y-67445001D01*
X120972484Y-67388810D01*
X121028675Y-67377633D01*
X121315790Y-67185790D01*
X127625787Y-60875792D01*
X127625790Y-60875790D01*
X127792834Y-60625790D01*
X127817634Y-60588674D01*
X127885001Y-60250000D01*
X127885000Y-60249995D01*
X127885000Y-54050000D01*
X127817633Y-53711325D01*
X127625790Y-53424210D01*
X127625787Y-53424208D01*
X122394199Y-48192619D01*
X124514613Y-48192619D01*
X124854155Y-49014372D01*
X125482321Y-49643636D01*
X126303481Y-49984611D01*
X127192619Y-49985387D01*
X128014372Y-49645845D01*
X128643636Y-49017679D01*
X128984611Y-48196519D01*
X128985387Y-47307381D01*
X128645845Y-46485628D01*
X128017679Y-45856364D01*
X127196519Y-45515389D01*
X126307381Y-45514613D01*
X125485628Y-45854155D01*
X124856364Y-46482321D01*
X124515389Y-47303481D01*
X124514613Y-48192619D01*
X122394199Y-48192619D01*
X121548017Y-47346437D01*
X121583113Y-47170000D01*
X121473880Y-46620849D01*
X121162811Y-46155302D01*
X120697264Y-45844233D01*
X120148113Y-45735000D01*
X120091887Y-45735000D01*
X119962347Y-45760767D01*
X118195778Y-43994198D01*
X118103257Y-43932378D01*
X117908663Y-43802355D01*
X117852472Y-43791178D01*
X117569988Y-43734987D01*
X117569983Y-43734988D01*
X87644639Y-43734988D01*
X87305964Y-43802355D01*
X87018849Y-43994198D01*
X87018847Y-43994201D01*
X85280269Y-45732778D01*
X77817425Y-45732778D01*
X77874837Y-45594514D01*
X77875231Y-45142983D01*
X77702801Y-44725672D01*
X77383799Y-44406113D01*
X76966790Y-44232955D01*
X76515259Y-44232561D01*
X76256307Y-44339558D01*
X75126750Y-43210000D01*
X130790000Y-43210000D01*
X130790000Y-84290000D01*
X121874371Y-84290000D01*
X122098082Y-84066679D01*
X122385612Y-83374231D01*
X122386266Y-82624459D01*
X122099946Y-81931509D01*
X121570239Y-81400878D01*
X120877791Y-81113348D01*
X120128019Y-81112694D01*
X119435069Y-81399014D01*
X118904438Y-81928721D01*
X118616908Y-82621169D01*
X118616254Y-83370941D01*
X118902574Y-84063891D01*
X119128289Y-84290000D01*
X111871851Y-84290000D01*
X112095562Y-84066679D01*
X112383092Y-83374231D01*
X112383746Y-82624459D01*
X112097426Y-81931509D01*
X111567719Y-81400878D01*
X110875271Y-81113348D01*
X110125499Y-81112694D01*
X109432549Y-81399014D01*
X108901918Y-81928721D01*
X108614388Y-82621169D01*
X108613734Y-83370941D01*
X108900054Y-84063891D01*
X109125769Y-84290000D01*
X100841637Y-84290000D01*
X101200843Y-83931419D01*
X101488373Y-83238971D01*
X101489027Y-82489199D01*
X101202707Y-81796249D01*
X100673000Y-81265618D01*
X99980552Y-80978088D01*
X99230780Y-80977434D01*
X98537830Y-81263754D01*
X98007199Y-81793461D01*
X97719669Y-82485909D01*
X97719015Y-83235681D01*
X98005335Y-83928631D01*
X98366075Y-84290000D01*
X90839117Y-84290000D01*
X91198323Y-83931419D01*
X91485853Y-83238971D01*
X91486507Y-82489199D01*
X91200187Y-81796249D01*
X90670480Y-81265618D01*
X89978032Y-80978088D01*
X89228260Y-80977434D01*
X88535310Y-81263754D01*
X88004679Y-81793461D01*
X87717149Y-82485909D01*
X87716495Y-83235681D01*
X88002815Y-83928631D01*
X88363555Y-84290000D01*
X79651432Y-84290000D01*
X79938373Y-83598971D01*
X79939027Y-82849199D01*
X79652707Y-82156249D01*
X79123000Y-81625618D01*
X78430552Y-81338088D01*
X77680780Y-81337434D01*
X76987830Y-81623754D01*
X76457199Y-82153461D01*
X76169669Y-82845909D01*
X76169015Y-83595681D01*
X76455335Y-84288631D01*
X76456702Y-84290000D01*
X69648912Y-84290000D01*
X69935853Y-83598971D01*
X69936507Y-82849199D01*
X69650187Y-82156249D01*
X69120480Y-81625618D01*
X68428032Y-81338088D01*
X67678260Y-81337434D01*
X66985310Y-81623754D01*
X66454679Y-82153461D01*
X66167149Y-82845909D01*
X66166495Y-83595681D01*
X66452815Y-84288631D01*
X66454182Y-84290000D01*
X57951432Y-84290000D01*
X58238373Y-83598971D01*
X58239027Y-82849199D01*
X57952707Y-82156249D01*
X57423000Y-81625618D01*
X56730552Y-81338088D01*
X55980780Y-81337434D01*
X55287830Y-81623754D01*
X54757199Y-82153461D01*
X54469669Y-82845909D01*
X54469015Y-83595681D01*
X54755335Y-84288631D01*
X54756702Y-84290000D01*
X47948912Y-84290000D01*
X48235853Y-83598971D01*
X48236507Y-82849199D01*
X47950187Y-82156249D01*
X47420480Y-81625618D01*
X46728032Y-81338088D01*
X45978260Y-81337434D01*
X45285310Y-81623754D01*
X44754679Y-82153461D01*
X44467149Y-82845909D01*
X44466495Y-83595681D01*
X44752815Y-84288631D01*
X44754182Y-84290000D01*
X35210000Y-84290000D01*
X35210000Y-73600781D01*
X41969675Y-73600781D01*
X42255995Y-74293731D01*
X42785702Y-74824362D01*
X43478150Y-75111892D01*
X44227922Y-75112546D01*
X44920872Y-74826226D01*
X45451503Y-74296519D01*
X45739033Y-73604071D01*
X45739687Y-72854299D01*
X45568055Y-72438916D01*
X45980050Y-72609992D01*
X46729822Y-72610646D01*
X47422772Y-72324326D01*
X47953403Y-71794619D01*
X48240933Y-71102171D01*
X48241587Y-70352399D01*
X47955267Y-69659449D01*
X47425560Y-69128818D01*
X47241581Y-69052423D01*
X47241581Y-68958326D01*
X47174214Y-68619651D01*
X47135000Y-68560963D01*
X47135000Y-66560848D01*
X47183817Y-66551662D01*
X47399941Y-66412590D01*
X47544931Y-66200390D01*
X47595940Y-65948500D01*
X47595940Y-65574086D01*
X47666269Y-65574086D01*
X47868854Y-66064380D01*
X48243647Y-66439827D01*
X48733587Y-66643268D01*
X49081992Y-66643572D01*
X50467761Y-68029340D01*
X50467761Y-71551448D01*
X50286570Y-71626314D01*
X49755939Y-72156021D01*
X49468409Y-72848469D01*
X49467755Y-73598241D01*
X49754075Y-74291191D01*
X50283782Y-74821822D01*
X50976230Y-75109352D01*
X51726002Y-75110006D01*
X52418952Y-74823686D01*
X52949583Y-74293979D01*
X53237113Y-73601531D01*
X53237767Y-72851759D01*
X52951447Y-72158809D01*
X52421740Y-71628178D01*
X52237761Y-71551783D01*
X52237761Y-71098881D01*
X54463935Y-71098881D01*
X54750255Y-71791831D01*
X55279962Y-72322462D01*
X55972410Y-72609992D01*
X56722182Y-72610646D01*
X57137565Y-72439014D01*
X56966489Y-72851009D01*
X56965835Y-73600781D01*
X57252155Y-74293731D01*
X57781862Y-74824362D01*
X58474310Y-75111892D01*
X59224082Y-75112546D01*
X59917032Y-74826226D01*
X60447663Y-74296519D01*
X60735193Y-73604071D01*
X60735195Y-73600781D01*
X63669675Y-73600781D01*
X63955995Y-74293731D01*
X64485702Y-74824362D01*
X65178150Y-75111892D01*
X65927922Y-75112546D01*
X66620872Y-74826226D01*
X67151503Y-74296519D01*
X67439033Y-73604071D01*
X67439687Y-72854299D01*
X67268055Y-72438916D01*
X67680050Y-72609992D01*
X68429822Y-72610646D01*
X69122772Y-72324326D01*
X69653403Y-71794619D01*
X69940933Y-71102171D01*
X69941587Y-70352399D01*
X69655267Y-69659449D01*
X69125560Y-69128818D01*
X68885000Y-69028929D01*
X68885000Y-66870754D01*
X69129827Y-66626353D01*
X69333268Y-66136413D01*
X69333731Y-65605914D01*
X69131146Y-65115620D01*
X68756353Y-64740173D01*
X68266413Y-64536732D01*
X67735914Y-64536269D01*
X67245620Y-64738854D01*
X66870173Y-65113647D01*
X66666732Y-65603587D01*
X66666269Y-66134086D01*
X66868854Y-66624380D01*
X67115000Y-66870956D01*
X67115000Y-69075466D01*
X66990390Y-69126954D01*
X66459759Y-69656661D01*
X66172229Y-70349109D01*
X66171575Y-71098881D01*
X66343207Y-71514264D01*
X65931212Y-71343188D01*
X65181440Y-71342534D01*
X64488490Y-71628854D01*
X63957859Y-72158561D01*
X63670329Y-72851009D01*
X63669675Y-73600781D01*
X60735195Y-73600781D01*
X60735847Y-72854299D01*
X60449527Y-72161349D01*
X59919820Y-71630718D01*
X59227372Y-71343188D01*
X58477600Y-71342534D01*
X58062217Y-71514166D01*
X58233293Y-71102171D01*
X58233947Y-70352399D01*
X57947627Y-69659449D01*
X57417920Y-69128818D01*
X56725472Y-68841288D01*
X55975700Y-68840634D01*
X55282750Y-69126954D01*
X54752119Y-69656661D01*
X54464589Y-70349109D01*
X54463935Y-71098881D01*
X52237761Y-71098881D01*
X52237761Y-67662766D01*
X52237762Y-67662761D01*
X52170395Y-67324087D01*
X52077988Y-67185790D01*
X51978551Y-67036971D01*
X51978548Y-67036969D01*
X50333429Y-65391849D01*
X50333731Y-65045914D01*
X50131146Y-64555620D01*
X49756353Y-64180173D01*
X49266413Y-63976732D01*
X48735914Y-63976269D01*
X48245620Y-64178854D01*
X47870173Y-64553647D01*
X47666732Y-65043587D01*
X47666269Y-65574086D01*
X47595940Y-65574086D01*
X47595940Y-64551500D01*
X47551662Y-64316183D01*
X47412590Y-64100059D01*
X47200390Y-63955069D01*
X47135000Y-63941827D01*
X47135000Y-63366580D01*
X51074288Y-59427291D01*
X51074291Y-59427289D01*
X51266134Y-59140174D01*
X51291215Y-59014086D01*
X51333502Y-58801499D01*
X51333501Y-58801494D01*
X51333501Y-56278506D01*
X51333502Y-56278501D01*
X51266134Y-55939827D01*
X51266134Y-55939826D01*
X51074291Y-55652711D01*
X51074288Y-55652709D01*
X49890618Y-54469039D01*
X51978096Y-54469039D01*
X52138959Y-54857423D01*
X52514866Y-55272389D01*
X53020959Y-55511914D01*
X53243000Y-55390629D01*
X53243000Y-54247000D01*
X52100085Y-54247000D01*
X51978096Y-54469039D01*
X49890618Y-54469039D01*
X47178017Y-51756438D01*
X47213113Y-51580000D01*
X47103880Y-51030849D01*
X46792811Y-50565302D01*
X46410725Y-50310000D01*
X46792811Y-50054698D01*
X47103880Y-49589151D01*
X47213113Y-49040000D01*
X47103880Y-48490849D01*
X46792811Y-48025302D01*
X46410725Y-47770000D01*
X46792811Y-47514698D01*
X47103880Y-47049151D01*
X47213113Y-46500000D01*
X47103880Y-45950849D01*
X46792811Y-45485302D01*
X46327264Y-45174233D01*
X45778113Y-45065000D01*
X45721887Y-45065000D01*
X45172736Y-45174233D01*
X44707189Y-45485302D01*
X44396120Y-45950849D01*
X44286887Y-46500000D01*
X44396120Y-47049151D01*
X44707189Y-47514698D01*
X45089275Y-47770000D01*
X44707189Y-48025302D01*
X44396120Y-48490849D01*
X44286887Y-49040000D01*
X44321983Y-49216438D01*
X42374210Y-51164210D01*
X42182367Y-51451325D01*
X42182367Y-51451326D01*
X42114999Y-51790000D01*
X42115000Y-51790005D01*
X42115000Y-54379995D01*
X42114999Y-54380000D01*
X42162832Y-54620465D01*
X42182367Y-54718675D01*
X42300382Y-54895298D01*
X42374210Y-55005790D01*
X44678614Y-57310193D01*
X44614999Y-57630000D01*
X44663891Y-57875790D01*
X44682367Y-57968675D01*
X44856539Y-58229343D01*
X44874210Y-58255790D01*
X44934208Y-58315787D01*
X44934210Y-58315790D01*
X45221325Y-58507633D01*
X45246988Y-58512738D01*
X45493647Y-58759827D01*
X45983587Y-58963268D01*
X46514086Y-58963731D01*
X47004380Y-58761146D01*
X47190851Y-58575000D01*
X47999246Y-58575000D01*
X48243647Y-58819827D01*
X48733587Y-59023268D01*
X48974942Y-59023479D01*
X45624210Y-62374210D01*
X45432367Y-62661325D01*
X45421190Y-62717516D01*
X45364999Y-63000000D01*
X45365000Y-63000005D01*
X45365000Y-63939152D01*
X45316183Y-63948338D01*
X45100059Y-64087410D01*
X44955069Y-64299610D01*
X44904060Y-64551500D01*
X44904060Y-65948500D01*
X44948338Y-66183817D01*
X45087410Y-66399941D01*
X45299610Y-66544931D01*
X45365000Y-66558173D01*
X45365000Y-68851740D01*
X45364999Y-68851745D01*
X45409919Y-69077566D01*
X45290390Y-69126954D01*
X44759759Y-69656661D01*
X44472229Y-70349109D01*
X44471575Y-71098881D01*
X44643207Y-71514264D01*
X44231212Y-71343188D01*
X43481440Y-71342534D01*
X42788490Y-71628854D01*
X42257859Y-72158561D01*
X41970329Y-72851009D01*
X41969675Y-73600781D01*
X35210000Y-73600781D01*
X35210000Y-65442619D01*
X36764613Y-65442619D01*
X37104155Y-66264372D01*
X37732321Y-66893636D01*
X38553481Y-67234611D01*
X39442619Y-67235387D01*
X40264372Y-66895845D01*
X40893636Y-66267679D01*
X41234611Y-65446519D01*
X41235387Y-64557381D01*
X40895845Y-63735628D01*
X40267679Y-63106364D01*
X39446519Y-62765389D01*
X38557381Y-62764613D01*
X37735628Y-63104155D01*
X37106364Y-63732321D01*
X36765389Y-64553481D01*
X36764613Y-65442619D01*
X35210000Y-65442619D01*
X35210000Y-48192619D01*
X36764613Y-48192619D01*
X37104155Y-49014372D01*
X37732321Y-49643636D01*
X38553481Y-49984611D01*
X39442619Y-49985387D01*
X40264372Y-49645845D01*
X40893636Y-49017679D01*
X41234611Y-48196519D01*
X41235387Y-47307381D01*
X40895845Y-46485628D01*
X40267679Y-45856364D01*
X39446519Y-45515389D01*
X38557381Y-45514613D01*
X37735628Y-45854155D01*
X37106364Y-46482321D01*
X36765389Y-47303481D01*
X36764613Y-48192619D01*
X35210000Y-48192619D01*
X35210000Y-43210000D01*
X51788421Y-43210000D01*
X50124210Y-44874210D01*
X50124210Y-44874210D01*
G37*
X50124210Y-44874210D02*
X49932367Y-45161325D01*
X49921190Y-45217516D01*
X49864999Y-45500000D01*
X49865000Y-45500005D01*
X49865000Y-48959995D01*
X49864999Y-48960000D01*
X49916767Y-49220248D01*
X49932367Y-49298675D01*
X50112078Y-49567633D01*
X50124210Y-49585790D01*
X51941983Y-51403562D01*
X51906887Y-51580000D01*
X52016120Y-52129151D01*
X52327189Y-52594698D01*
X52731703Y-52864986D01*
X52514866Y-52967611D01*
X52138959Y-53382577D01*
X51978096Y-53770961D01*
X52100085Y-53993000D01*
X53243000Y-53993000D01*
X53243000Y-53973000D01*
X53497000Y-53973000D01*
X53497000Y-53993000D01*
X53517000Y-53993000D01*
X53517000Y-54247000D01*
X53497000Y-54247000D01*
X53497000Y-55390629D01*
X53719041Y-55511914D01*
X54115645Y-55324208D01*
X54192575Y-55439343D01*
X54194211Y-55441791D01*
X56378208Y-57625787D01*
X56378210Y-57625790D01*
X56665325Y-57817633D01*
X56721516Y-57828810D01*
X56913568Y-57867013D01*
X56988625Y-57979343D01*
X57423624Y-58270000D01*
X56988625Y-58560657D01*
X56688395Y-59009983D01*
X56582968Y-59540000D01*
X56688395Y-60070017D01*
X56988625Y-60519343D01*
X57437951Y-60819573D01*
X57967968Y-60925000D01*
X58323418Y-60925000D01*
X59774206Y-62375787D01*
X59774208Y-62375790D01*
X60061323Y-62567633D01*
X60117514Y-62578810D01*
X60399998Y-62635001D01*
X60400003Y-62635000D01*
X64039899Y-62635000D01*
X64236209Y-62831653D01*
X64653218Y-63004811D01*
X65104749Y-63005205D01*
X65522060Y-62832775D01*
X65841619Y-62513773D01*
X66014777Y-62096764D01*
X66015171Y-61645233D01*
X65842741Y-61227922D01*
X65523739Y-60908363D01*
X65106730Y-60735205D01*
X64655199Y-60734811D01*
X64340119Y-60865000D01*
X62561163Y-60865000D01*
X62649699Y-60828327D01*
X62828327Y-60649698D01*
X62925000Y-60416309D01*
X62925000Y-59825750D01*
X62766250Y-59667000D01*
X61417000Y-59667000D01*
X61417000Y-59687000D01*
X61163000Y-59687000D01*
X61163000Y-59667000D01*
X61143000Y-59667000D01*
X61143000Y-59413000D01*
X61163000Y-59413000D01*
X61163000Y-59393000D01*
X61417000Y-59393000D01*
X61417000Y-59413000D01*
X62766250Y-59413000D01*
X62925000Y-59254250D01*
X62925000Y-58663691D01*
X62828327Y-58430302D01*
X62649699Y-58251673D01*
X62416310Y-58155000D01*
X62288486Y-58155000D01*
X62551375Y-57979343D01*
X62614413Y-57885000D01*
X62825409Y-57885000D01*
X67161899Y-62221489D01*
X67182380Y-62324455D01*
X67374223Y-62611570D01*
X68888463Y-64125809D01*
X68888465Y-64125812D01*
X69062903Y-64242367D01*
X69175581Y-64317656D01*
X69514255Y-64385023D01*
X69514260Y-64385022D01*
X71416652Y-64385022D01*
X71416269Y-64824086D01*
X71618854Y-65314380D01*
X71865000Y-65560956D01*
X71865000Y-71747672D01*
X71455939Y-72156021D01*
X71168409Y-72848469D01*
X71167755Y-73598241D01*
X71454075Y-74291191D01*
X71983782Y-74821822D01*
X72676230Y-75109352D01*
X73426002Y-75110006D01*
X74118952Y-74823686D01*
X74649583Y-74293979D01*
X74937113Y-73601531D01*
X74937767Y-72851759D01*
X74651447Y-72158809D01*
X74121740Y-71628178D01*
X73635000Y-71426066D01*
X73635000Y-71098881D01*
X76163935Y-71098881D01*
X76450255Y-71791831D01*
X76979962Y-72322462D01*
X77672410Y-72609992D01*
X78422182Y-72610646D01*
X78837565Y-72439014D01*
X78666489Y-72851009D01*
X78665835Y-73600781D01*
X78952155Y-74293731D01*
X79481862Y-74824362D01*
X80174310Y-75111892D01*
X80924082Y-75112546D01*
X81617032Y-74826226D01*
X82147663Y-74296519D01*
X82435193Y-73604071D01*
X82435847Y-72854299D01*
X82149527Y-72161349D01*
X81619820Y-71630718D01*
X80927372Y-71343188D01*
X80177600Y-71342534D01*
X79762217Y-71514166D01*
X79933293Y-71102171D01*
X79933947Y-70352399D01*
X79647627Y-69659449D01*
X79117920Y-69128818D01*
X78425472Y-68841288D01*
X77675700Y-68840634D01*
X76982750Y-69126954D01*
X76452119Y-69656661D01*
X76164589Y-70349109D01*
X76163935Y-71098881D01*
X73635000Y-71098881D01*
X73635000Y-65560754D01*
X73879827Y-65316353D01*
X74083268Y-64826413D01*
X74083653Y-64385022D01*
X80078429Y-64385022D01*
X80078434Y-64385023D01*
X80360918Y-64328832D01*
X80417109Y-64317655D01*
X80630561Y-64175032D01*
X87404060Y-64175032D01*
X87404060Y-65508500D01*
X87448338Y-65743817D01*
X87587410Y-65959941D01*
X87799610Y-66104931D01*
X88051500Y-66155940D01*
X88721581Y-66155940D01*
X88721581Y-68692088D01*
X88540390Y-68766954D01*
X88009759Y-69296661D01*
X87722229Y-69989109D01*
X87721575Y-70738881D01*
X87893207Y-71154264D01*
X87481212Y-70983188D01*
X86731440Y-70982534D01*
X86038490Y-71268854D01*
X85507859Y-71798561D01*
X85220329Y-72491009D01*
X85219675Y-73240781D01*
X85505995Y-73933731D01*
X86035702Y-74464362D01*
X86728150Y-74751892D01*
X87477922Y-74752546D01*
X88170872Y-74466226D01*
X88701503Y-73936519D01*
X88989033Y-73244071D01*
X88989687Y-72494299D01*
X88818055Y-72078916D01*
X89230050Y-72249992D01*
X89979822Y-72250646D01*
X90672772Y-71964326D01*
X91203403Y-71434619D01*
X91490933Y-70742171D01*
X91491587Y-69992399D01*
X91205267Y-69299449D01*
X90675560Y-68768818D01*
X90491581Y-68692423D01*
X90491581Y-65695000D01*
X92796213Y-65695000D01*
X92796218Y-65695001D01*
X93078702Y-65638810D01*
X93134893Y-65627633D01*
X93196247Y-65586638D01*
X93368854Y-66004380D01*
X93717761Y-66353896D01*
X93717761Y-71191448D01*
X93536570Y-71266314D01*
X93005939Y-71796021D01*
X92718409Y-72488469D01*
X92717755Y-73238241D01*
X93004075Y-73931191D01*
X93533782Y-74461822D01*
X94226230Y-74749352D01*
X94976002Y-74750006D01*
X95668952Y-74463686D01*
X96199583Y-73933979D01*
X96487113Y-73241531D01*
X96487767Y-72491759D01*
X96201447Y-71798809D01*
X95671740Y-71268178D01*
X95487761Y-71191783D01*
X95487761Y-70738881D01*
X97713935Y-70738881D01*
X98000255Y-71431831D01*
X98529962Y-71962462D01*
X99222410Y-72249992D01*
X99972182Y-72250646D01*
X100387565Y-72079014D01*
X100216489Y-72491009D01*
X100215835Y-73240781D01*
X100502155Y-73933731D01*
X101031862Y-74464362D01*
X101724310Y-74751892D01*
X102474082Y-74752546D01*
X103167032Y-74466226D01*
X103697663Y-73936519D01*
X103985193Y-73244071D01*
X103985847Y-72494299D01*
X103699527Y-71801349D01*
X103169820Y-71270718D01*
X102477372Y-70983188D01*
X101727600Y-70982534D01*
X101312217Y-71154166D01*
X101483293Y-70742171D01*
X101483947Y-69992399D01*
X101197627Y-69299449D01*
X100667920Y-68768818D01*
X99975472Y-68481288D01*
X99225700Y-68480634D01*
X98532750Y-68766954D01*
X98002119Y-69296661D01*
X97714589Y-69989109D01*
X97713935Y-70738881D01*
X95487761Y-70738881D01*
X95487761Y-66148172D01*
X95629827Y-66006353D01*
X95782024Y-65639822D01*
X96268012Y-66125811D01*
X96268014Y-66125814D01*
X96522588Y-66295914D01*
X96555129Y-66317657D01*
X96893804Y-66385025D01*
X96893809Y-66385024D01*
X109928433Y-66385024D01*
X109928438Y-66385025D01*
X110210922Y-66328834D01*
X110267113Y-66317657D01*
X110554228Y-66125814D01*
X110730837Y-65949205D01*
X110666732Y-66103587D01*
X110666269Y-66634086D01*
X110868854Y-67124380D01*
X111165000Y-67421043D01*
X111165000Y-68658852D01*
X111111375Y-68712477D01*
X110880351Y-68616548D01*
X110130579Y-68615894D01*
X109437629Y-68902214D01*
X108906998Y-69431921D01*
X108619468Y-70124369D01*
X108618814Y-70874141D01*
X108790446Y-71289524D01*
X108378451Y-71118448D01*
X107628679Y-71117794D01*
X106935729Y-71404114D01*
X106405098Y-71933821D01*
X106117568Y-72626269D01*
X106116914Y-73376041D01*
X106403234Y-74068991D01*
X106932941Y-74599622D01*
X107625389Y-74887152D01*
X108375161Y-74887806D01*
X109068111Y-74601486D01*
X109598742Y-74071779D01*
X109886272Y-73379331D01*
X109886277Y-73373501D01*
X113614994Y-73373501D01*
X113901314Y-74066451D01*
X114431021Y-74597082D01*
X115123469Y-74884612D01*
X115873241Y-74885266D01*
X116566191Y-74598946D01*
X117096822Y-74069239D01*
X117384352Y-73376791D01*
X117385006Y-72627019D01*
X117285712Y-72386708D01*
X117286685Y-72385252D01*
X117317634Y-72338934D01*
X117385001Y-72000260D01*
X117385000Y-72000255D01*
X117385000Y-70874141D01*
X118611174Y-70874141D01*
X118897494Y-71567091D01*
X119427201Y-72097722D01*
X120119649Y-72385252D01*
X120869421Y-72385906D01*
X121284804Y-72214274D01*
X121113728Y-72626269D01*
X121113074Y-73376041D01*
X121399394Y-74068991D01*
X121929101Y-74599622D01*
X122621549Y-74887152D01*
X123371321Y-74887806D01*
X124064271Y-74601486D01*
X124594902Y-74071779D01*
X124882432Y-73379331D01*
X124883086Y-72629559D01*
X124596766Y-71936609D01*
X124067059Y-71405978D01*
X123374611Y-71118448D01*
X122624839Y-71117794D01*
X122209456Y-71289426D01*
X122380532Y-70877431D01*
X122381186Y-70127659D01*
X122094866Y-69434709D01*
X121565159Y-68904078D01*
X120872711Y-68616548D01*
X120122939Y-68615894D01*
X119429989Y-68902214D01*
X118899358Y-69431921D01*
X118611828Y-70124369D01*
X118611174Y-70874141D01*
X117385000Y-70874141D01*
X117385000Y-68250754D01*
X117629827Y-68006353D01*
X117833268Y-67516413D01*
X117833731Y-66985914D01*
X117631146Y-66495620D01*
X117256353Y-66120173D01*
X116766413Y-65916732D01*
X116235914Y-65916269D01*
X115745620Y-66118854D01*
X115370173Y-66493647D01*
X115166732Y-66983587D01*
X115166269Y-67514086D01*
X115368854Y-68004380D01*
X115615000Y-68250956D01*
X115615000Y-71115680D01*
X115126759Y-71115254D01*
X114433809Y-71401574D01*
X113903178Y-71931281D01*
X113615648Y-72623729D01*
X113614994Y-73373501D01*
X109886277Y-73373501D01*
X109886926Y-72629559D01*
X109715294Y-72214176D01*
X110127289Y-72385252D01*
X110877061Y-72385906D01*
X111570011Y-72099586D01*
X112100642Y-71569879D01*
X112388172Y-70877431D01*
X112388826Y-70127659D01*
X112292078Y-69893510D01*
X112590434Y-69595154D01*
X112663778Y-69485387D01*
X112771439Y-69324261D01*
X112835000Y-69004720D01*
X112835000Y-67420666D01*
X113129827Y-67126353D01*
X113333268Y-66636413D01*
X113333731Y-66105914D01*
X113131146Y-65615620D01*
X112756353Y-65240173D01*
X112266413Y-65036732D01*
X111735914Y-65036269D01*
X111578893Y-65101149D01*
X113625776Y-63054265D01*
X113625779Y-63054263D01*
X113817622Y-62767148D01*
X113834486Y-62682369D01*
X113884990Y-62428473D01*
X113884989Y-62428468D01*
X113884989Y-60260372D01*
X114677275Y-59468087D01*
X114677278Y-59468085D01*
X114869121Y-59180970D01*
X114901854Y-59016413D01*
X114936488Y-58842296D01*
X114936488Y-55139039D01*
X118728096Y-55139039D01*
X118888959Y-55527423D01*
X119264866Y-55942389D01*
X119770959Y-56181914D01*
X119993000Y-56060629D01*
X119993000Y-54917000D01*
X118850085Y-54917000D01*
X118728096Y-55139039D01*
X114936488Y-55139039D01*
X114936488Y-53801488D01*
X114869121Y-53462813D01*
X114677278Y-53175698D01*
X114677275Y-53175696D01*
X113928017Y-52426438D01*
X113963113Y-52250000D01*
X113853880Y-51700849D01*
X113542811Y-51235302D01*
X113160725Y-50980000D01*
X113542811Y-50724698D01*
X113853880Y-50259151D01*
X113963113Y-49710000D01*
X113853880Y-49160849D01*
X113542811Y-48695302D01*
X113160725Y-48440000D01*
X113542811Y-48184698D01*
X113853880Y-47719151D01*
X113934130Y-47315709D01*
X118691983Y-52073562D01*
X118656887Y-52250000D01*
X118766120Y-52799151D01*
X119077189Y-53264698D01*
X119481703Y-53534986D01*
X119264866Y-53637611D01*
X118888959Y-54052577D01*
X118728096Y-54440961D01*
X118850085Y-54663000D01*
X119993000Y-54663000D01*
X119993000Y-54643000D01*
X120247000Y-54643000D01*
X120247000Y-54663000D01*
X120267000Y-54663000D01*
X120267000Y-54917000D01*
X120247000Y-54917000D01*
X120247000Y-56060629D01*
X120469041Y-56181914D01*
X120975134Y-55942389D01*
X121351041Y-55527423D01*
X121511904Y-55139039D01*
X121389916Y-54917002D01*
X121535422Y-54917002D01*
X124115000Y-57496579D01*
X124115000Y-59102731D01*
X123934188Y-59055417D01*
X123179605Y-59810000D01*
X123193748Y-59824143D01*
X123014143Y-60003748D01*
X123000000Y-59989605D01*
X122985858Y-60003748D01*
X122806253Y-59824143D01*
X122820395Y-59810000D01*
X122065812Y-59055417D01*
X121830200Y-59117071D01*
X121654073Y-59617480D01*
X121681363Y-60119783D01*
X120583429Y-59021849D01*
X120583556Y-58875812D01*
X122245417Y-58875812D01*
X123000000Y-59630395D01*
X123754583Y-58875812D01*
X123692929Y-58640200D01*
X123192520Y-58464073D01*
X122662801Y-58492852D01*
X122307071Y-58640200D01*
X122245417Y-58875812D01*
X120583556Y-58875812D01*
X120583731Y-58675914D01*
X120381146Y-58185620D01*
X120006353Y-57810173D01*
X119516413Y-57606732D01*
X118985914Y-57606269D01*
X118495620Y-57808854D01*
X118120173Y-58183647D01*
X117916732Y-58673587D01*
X117916269Y-59204086D01*
X118118854Y-59694380D01*
X118493647Y-60069827D01*
X118983587Y-60273268D01*
X119331992Y-60273572D01*
X120942709Y-61884288D01*
X120942711Y-61884291D01*
X121229826Y-62076134D01*
X121286017Y-62087311D01*
X121568501Y-62143502D01*
X121568506Y-62143501D01*
X123741494Y-62143501D01*
X123741499Y-62143502D01*
X123883082Y-62115339D01*
X120323420Y-65675000D01*
X120250754Y-65675000D01*
X120135000Y-65559044D01*
X120135000Y-62380000D01*
X120067633Y-62041325D01*
X119875790Y-61754210D01*
X119875787Y-61754208D01*
X117833429Y-59711849D01*
X117833731Y-59365914D01*
X117631146Y-58875620D01*
X117256353Y-58500173D01*
X116766413Y-58296732D01*
X116235914Y-58296269D01*
X115745620Y-58498854D01*
X115370173Y-58873647D01*
X115166732Y-59363587D01*
X115166269Y-59894086D01*
X115368854Y-60384380D01*
X115743647Y-60759827D01*
X116233587Y-60963268D01*
X116581992Y-60963572D01*
X118365000Y-62746579D01*
X118365000Y-65559246D01*
X118120173Y-65803647D01*
X117916732Y-66293587D01*
X117916269Y-66824086D01*
X118118854Y-67314380D01*
X118493647Y-67689827D01*
X118983587Y-67893268D01*
X119514086Y-67893731D01*
X120000815Y-67692619D01*
X125514613Y-67692619D01*
X125854155Y-68514372D01*
X126482321Y-69143636D01*
X127303481Y-69484611D01*
X128192619Y-69485387D01*
X129014372Y-69145845D01*
X129643636Y-68517679D01*
X129984611Y-67696519D01*
X129985387Y-66807381D01*
X129645845Y-65985628D01*
X129017679Y-65356364D01*
X128196519Y-65015389D01*
X127307381Y-65014613D01*
X126485628Y-65354155D01*
X125856364Y-65982321D01*
X125515389Y-66803481D01*
X125514613Y-67692619D01*
X120000815Y-67692619D01*
X120004380Y-67691146D01*
X120250956Y-67445000D01*
X120689995Y-67445000D01*
X120690000Y-67445001D01*
X120972484Y-67388810D01*
X121028675Y-67377633D01*
X121315790Y-67185790D01*
X127625787Y-60875792D01*
X127625790Y-60875790D01*
X127792834Y-60625790D01*
X127817634Y-60588674D01*
X127885001Y-60250000D01*
X127885000Y-60249995D01*
X127885000Y-54050000D01*
X127817633Y-53711325D01*
X127625790Y-53424210D01*
X127625787Y-53424208D01*
X122394199Y-48192619D01*
X124514613Y-48192619D01*
X124854155Y-49014372D01*
X125482321Y-49643636D01*
X126303481Y-49984611D01*
X127192619Y-49985387D01*
X128014372Y-49645845D01*
X128643636Y-49017679D01*
X128984611Y-48196519D01*
X128985387Y-47307381D01*
X128645845Y-46485628D01*
X128017679Y-45856364D01*
X127196519Y-45515389D01*
X126307381Y-45514613D01*
X125485628Y-45854155D01*
X124856364Y-46482321D01*
X124515389Y-47303481D01*
X124514613Y-48192619D01*
X122394199Y-48192619D01*
X121548017Y-47346437D01*
X121583113Y-47170000D01*
X121473880Y-46620849D01*
X121162811Y-46155302D01*
X120697264Y-45844233D01*
X120148113Y-45735000D01*
X120091887Y-45735000D01*
X119962347Y-45760767D01*
X118195778Y-43994198D01*
X118103257Y-43932378D01*
X117908663Y-43802355D01*
X117852472Y-43791178D01*
X117569988Y-43734987D01*
X117569983Y-43734988D01*
X87644639Y-43734988D01*
X87305964Y-43802355D01*
X87018849Y-43994198D01*
X87018847Y-43994201D01*
X85280269Y-45732778D01*
X77817425Y-45732778D01*
X77874837Y-45594514D01*
X77875231Y-45142983D01*
X77702801Y-44725672D01*
X77383799Y-44406113D01*
X76966790Y-44232955D01*
X76515259Y-44232561D01*
X76256307Y-44339558D01*
X75126750Y-43210000D01*
X130790000Y-43210000D01*
X130790000Y-84290000D01*
X121874371Y-84290000D01*
X122098082Y-84066679D01*
X122385612Y-83374231D01*
X122386266Y-82624459D01*
X122099946Y-81931509D01*
X121570239Y-81400878D01*
X120877791Y-81113348D01*
X120128019Y-81112694D01*
X119435069Y-81399014D01*
X118904438Y-81928721D01*
X118616908Y-82621169D01*
X118616254Y-83370941D01*
X118902574Y-84063891D01*
X119128289Y-84290000D01*
X111871851Y-84290000D01*
X112095562Y-84066679D01*
X112383092Y-83374231D01*
X112383746Y-82624459D01*
X112097426Y-81931509D01*
X111567719Y-81400878D01*
X110875271Y-81113348D01*
X110125499Y-81112694D01*
X109432549Y-81399014D01*
X108901918Y-81928721D01*
X108614388Y-82621169D01*
X108613734Y-83370941D01*
X108900054Y-84063891D01*
X109125769Y-84290000D01*
X100841637Y-84290000D01*
X101200843Y-83931419D01*
X101488373Y-83238971D01*
X101489027Y-82489199D01*
X101202707Y-81796249D01*
X100673000Y-81265618D01*
X99980552Y-80978088D01*
X99230780Y-80977434D01*
X98537830Y-81263754D01*
X98007199Y-81793461D01*
X97719669Y-82485909D01*
X97719015Y-83235681D01*
X98005335Y-83928631D01*
X98366075Y-84290000D01*
X90839117Y-84290000D01*
X91198323Y-83931419D01*
X91485853Y-83238971D01*
X91486507Y-82489199D01*
X91200187Y-81796249D01*
X90670480Y-81265618D01*
X89978032Y-80978088D01*
X89228260Y-80977434D01*
X88535310Y-81263754D01*
X88004679Y-81793461D01*
X87717149Y-82485909D01*
X87716495Y-83235681D01*
X88002815Y-83928631D01*
X88363555Y-84290000D01*
X79651432Y-84290000D01*
X79938373Y-83598971D01*
X79939027Y-82849199D01*
X79652707Y-82156249D01*
X79123000Y-81625618D01*
X78430552Y-81338088D01*
X77680780Y-81337434D01*
X76987830Y-81623754D01*
X76457199Y-82153461D01*
X76169669Y-82845909D01*
X76169015Y-83595681D01*
X76455335Y-84288631D01*
X76456702Y-84290000D01*
X69648912Y-84290000D01*
X69935853Y-83598971D01*
X69936507Y-82849199D01*
X69650187Y-82156249D01*
X69120480Y-81625618D01*
X68428032Y-81338088D01*
X67678260Y-81337434D01*
X66985310Y-81623754D01*
X66454679Y-82153461D01*
X66167149Y-82845909D01*
X66166495Y-83595681D01*
X66452815Y-84288631D01*
X66454182Y-84290000D01*
X57951432Y-84290000D01*
X58238373Y-83598971D01*
X58239027Y-82849199D01*
X57952707Y-82156249D01*
X57423000Y-81625618D01*
X56730552Y-81338088D01*
X55980780Y-81337434D01*
X55287830Y-81623754D01*
X54757199Y-82153461D01*
X54469669Y-82845909D01*
X54469015Y-83595681D01*
X54755335Y-84288631D01*
X54756702Y-84290000D01*
X47948912Y-84290000D01*
X48235853Y-83598971D01*
X48236507Y-82849199D01*
X47950187Y-82156249D01*
X47420480Y-81625618D01*
X46728032Y-81338088D01*
X45978260Y-81337434D01*
X45285310Y-81623754D01*
X44754679Y-82153461D01*
X44467149Y-82845909D01*
X44466495Y-83595681D01*
X44752815Y-84288631D01*
X44754182Y-84290000D01*
X35210000Y-84290000D01*
X35210000Y-73600781D01*
X41969675Y-73600781D01*
X42255995Y-74293731D01*
X42785702Y-74824362D01*
X43478150Y-75111892D01*
X44227922Y-75112546D01*
X44920872Y-74826226D01*
X45451503Y-74296519D01*
X45739033Y-73604071D01*
X45739687Y-72854299D01*
X45568055Y-72438916D01*
X45980050Y-72609992D01*
X46729822Y-72610646D01*
X47422772Y-72324326D01*
X47953403Y-71794619D01*
X48240933Y-71102171D01*
X48241587Y-70352399D01*
X47955267Y-69659449D01*
X47425560Y-69128818D01*
X47241581Y-69052423D01*
X47241581Y-68958326D01*
X47174214Y-68619651D01*
X47135000Y-68560963D01*
X47135000Y-66560848D01*
X47183817Y-66551662D01*
X47399941Y-66412590D01*
X47544931Y-66200390D01*
X47595940Y-65948500D01*
X47595940Y-65574086D01*
X47666269Y-65574086D01*
X47868854Y-66064380D01*
X48243647Y-66439827D01*
X48733587Y-66643268D01*
X49081992Y-66643572D01*
X50467761Y-68029340D01*
X50467761Y-71551448D01*
X50286570Y-71626314D01*
X49755939Y-72156021D01*
X49468409Y-72848469D01*
X49467755Y-73598241D01*
X49754075Y-74291191D01*
X50283782Y-74821822D01*
X50976230Y-75109352D01*
X51726002Y-75110006D01*
X52418952Y-74823686D01*
X52949583Y-74293979D01*
X53237113Y-73601531D01*
X53237767Y-72851759D01*
X52951447Y-72158809D01*
X52421740Y-71628178D01*
X52237761Y-71551783D01*
X52237761Y-71098881D01*
X54463935Y-71098881D01*
X54750255Y-71791831D01*
X55279962Y-72322462D01*
X55972410Y-72609992D01*
X56722182Y-72610646D01*
X57137565Y-72439014D01*
X56966489Y-72851009D01*
X56965835Y-73600781D01*
X57252155Y-74293731D01*
X57781862Y-74824362D01*
X58474310Y-75111892D01*
X59224082Y-75112546D01*
X59917032Y-74826226D01*
X60447663Y-74296519D01*
X60735193Y-73604071D01*
X60735195Y-73600781D01*
X63669675Y-73600781D01*
X63955995Y-74293731D01*
X64485702Y-74824362D01*
X65178150Y-75111892D01*
X65927922Y-75112546D01*
X66620872Y-74826226D01*
X67151503Y-74296519D01*
X67439033Y-73604071D01*
X67439687Y-72854299D01*
X67268055Y-72438916D01*
X67680050Y-72609992D01*
X68429822Y-72610646D01*
X69122772Y-72324326D01*
X69653403Y-71794619D01*
X69940933Y-71102171D01*
X69941587Y-70352399D01*
X69655267Y-69659449D01*
X69125560Y-69128818D01*
X68885000Y-69028929D01*
X68885000Y-66870754D01*
X69129827Y-66626353D01*
X69333268Y-66136413D01*
X69333731Y-65605914D01*
X69131146Y-65115620D01*
X68756353Y-64740173D01*
X68266413Y-64536732D01*
X67735914Y-64536269D01*
X67245620Y-64738854D01*
X66870173Y-65113647D01*
X66666732Y-65603587D01*
X66666269Y-66134086D01*
X66868854Y-66624380D01*
X67115000Y-66870956D01*
X67115000Y-69075466D01*
X66990390Y-69126954D01*
X66459759Y-69656661D01*
X66172229Y-70349109D01*
X66171575Y-71098881D01*
X66343207Y-71514264D01*
X65931212Y-71343188D01*
X65181440Y-71342534D01*
X64488490Y-71628854D01*
X63957859Y-72158561D01*
X63670329Y-72851009D01*
X63669675Y-73600781D01*
X60735195Y-73600781D01*
X60735847Y-72854299D01*
X60449527Y-72161349D01*
X59919820Y-71630718D01*
X59227372Y-71343188D01*
X58477600Y-71342534D01*
X58062217Y-71514166D01*
X58233293Y-71102171D01*
X58233947Y-70352399D01*
X57947627Y-69659449D01*
X57417920Y-69128818D01*
X56725472Y-68841288D01*
X55975700Y-68840634D01*
X55282750Y-69126954D01*
X54752119Y-69656661D01*
X54464589Y-70349109D01*
X54463935Y-71098881D01*
X52237761Y-71098881D01*
X52237761Y-67662766D01*
X52237762Y-67662761D01*
X52170395Y-67324087D01*
X52077988Y-67185790D01*
X51978551Y-67036971D01*
X51978548Y-67036969D01*
X50333429Y-65391849D01*
X50333731Y-65045914D01*
X50131146Y-64555620D01*
X49756353Y-64180173D01*
X49266413Y-63976732D01*
X48735914Y-63976269D01*
X48245620Y-64178854D01*
X47870173Y-64553647D01*
X47666732Y-65043587D01*
X47666269Y-65574086D01*
X47595940Y-65574086D01*
X47595940Y-64551500D01*
X47551662Y-64316183D01*
X47412590Y-64100059D01*
X47200390Y-63955069D01*
X47135000Y-63941827D01*
X47135000Y-63366580D01*
X51074288Y-59427291D01*
X51074291Y-59427289D01*
X51266134Y-59140174D01*
X51291215Y-59014086D01*
X51333502Y-58801499D01*
X51333501Y-58801494D01*
X51333501Y-56278506D01*
X51333502Y-56278501D01*
X51266134Y-55939827D01*
X51266134Y-55939826D01*
X51074291Y-55652711D01*
X51074288Y-55652709D01*
X49890618Y-54469039D01*
X51978096Y-54469039D01*
X52138959Y-54857423D01*
X52514866Y-55272389D01*
X53020959Y-55511914D01*
X53243000Y-55390629D01*
X53243000Y-54247000D01*
X52100085Y-54247000D01*
X51978096Y-54469039D01*
X49890618Y-54469039D01*
X47178017Y-51756438D01*
X47213113Y-51580000D01*
X47103880Y-51030849D01*
X46792811Y-50565302D01*
X46410725Y-50310000D01*
X46792811Y-50054698D01*
X47103880Y-49589151D01*
X47213113Y-49040000D01*
X47103880Y-48490849D01*
X46792811Y-48025302D01*
X46410725Y-47770000D01*
X46792811Y-47514698D01*
X47103880Y-47049151D01*
X47213113Y-46500000D01*
X47103880Y-45950849D01*
X46792811Y-45485302D01*
X46327264Y-45174233D01*
X45778113Y-45065000D01*
X45721887Y-45065000D01*
X45172736Y-45174233D01*
X44707189Y-45485302D01*
X44396120Y-45950849D01*
X44286887Y-46500000D01*
X44396120Y-47049151D01*
X44707189Y-47514698D01*
X45089275Y-47770000D01*
X44707189Y-48025302D01*
X44396120Y-48490849D01*
X44286887Y-49040000D01*
X44321983Y-49216438D01*
X42374210Y-51164210D01*
X42182367Y-51451325D01*
X42182367Y-51451326D01*
X42114999Y-51790000D01*
X42115000Y-51790005D01*
X42115000Y-54379995D01*
X42114999Y-54380000D01*
X42162832Y-54620465D01*
X42182367Y-54718675D01*
X42300382Y-54895298D01*
X42374210Y-55005790D01*
X44678614Y-57310193D01*
X44614999Y-57630000D01*
X44663891Y-57875790D01*
X44682367Y-57968675D01*
X44856539Y-58229343D01*
X44874210Y-58255790D01*
X44934208Y-58315787D01*
X44934210Y-58315790D01*
X45221325Y-58507633D01*
X45246988Y-58512738D01*
X45493647Y-58759827D01*
X45983587Y-58963268D01*
X46514086Y-58963731D01*
X47004380Y-58761146D01*
X47190851Y-58575000D01*
X47999246Y-58575000D01*
X48243647Y-58819827D01*
X48733587Y-59023268D01*
X48974942Y-59023479D01*
X45624210Y-62374210D01*
X45432367Y-62661325D01*
X45421190Y-62717516D01*
X45364999Y-63000000D01*
X45365000Y-63000005D01*
X45365000Y-63939152D01*
X45316183Y-63948338D01*
X45100059Y-64087410D01*
X44955069Y-64299610D01*
X44904060Y-64551500D01*
X44904060Y-65948500D01*
X44948338Y-66183817D01*
X45087410Y-66399941D01*
X45299610Y-66544931D01*
X45365000Y-66558173D01*
X45365000Y-68851740D01*
X45364999Y-68851745D01*
X45409919Y-69077566D01*
X45290390Y-69126954D01*
X44759759Y-69656661D01*
X44472229Y-70349109D01*
X44471575Y-71098881D01*
X44643207Y-71514264D01*
X44231212Y-71343188D01*
X43481440Y-71342534D01*
X42788490Y-71628854D01*
X42257859Y-72158561D01*
X41970329Y-72851009D01*
X41969675Y-73600781D01*
X35210000Y-73600781D01*
X35210000Y-65442619D01*
X36764613Y-65442619D01*
X37104155Y-66264372D01*
X37732321Y-66893636D01*
X38553481Y-67234611D01*
X39442619Y-67235387D01*
X40264372Y-66895845D01*
X40893636Y-66267679D01*
X41234611Y-65446519D01*
X41235387Y-64557381D01*
X40895845Y-63735628D01*
X40267679Y-63106364D01*
X39446519Y-62765389D01*
X38557381Y-62764613D01*
X37735628Y-63104155D01*
X37106364Y-63732321D01*
X36765389Y-64553481D01*
X36764613Y-65442619D01*
X35210000Y-65442619D01*
X35210000Y-48192619D01*
X36764613Y-48192619D01*
X37104155Y-49014372D01*
X37732321Y-49643636D01*
X38553481Y-49984611D01*
X39442619Y-49985387D01*
X40264372Y-49645845D01*
X40893636Y-49017679D01*
X41234611Y-48196519D01*
X41235387Y-47307381D01*
X40895845Y-46485628D01*
X40267679Y-45856364D01*
X39446519Y-45515389D01*
X38557381Y-45514613D01*
X37735628Y-45854155D01*
X37106364Y-46482321D01*
X36765389Y-47303481D01*
X36764613Y-48192619D01*
X35210000Y-48192619D01*
X35210000Y-43210000D01*
X51788421Y-43210000D01*
X50124210Y-44874210D01*
G36*
X71788355Y-53106289D02*
X71615197Y-53523298D01*
X71614803Y-53974829D01*
X71787233Y-54392140D01*
X71865000Y-54470043D01*
X71865000Y-55939246D01*
X71620173Y-56183647D01*
X71416732Y-56673587D01*
X71416269Y-57204086D01*
X71618854Y-57694380D01*
X71993647Y-58069827D01*
X72275799Y-58186987D01*
X72471326Y-58317633D01*
X72810000Y-58385001D01*
X72921285Y-58362865D01*
X75184198Y-60625777D01*
X75184200Y-60625780D01*
X75471315Y-60817623D01*
X75809990Y-60884990D01*
X83585777Y-60884990D01*
X83585782Y-60884991D01*
X83870645Y-60828327D01*
X83924457Y-60817623D01*
X84137909Y-60675000D01*
X102675587Y-60675000D01*
X102738625Y-60769343D01*
X103187951Y-61069573D01*
X103717968Y-61175000D01*
X104282032Y-61175000D01*
X104812049Y-61069573D01*
X105261375Y-60769343D01*
X105405000Y-60554393D01*
X105405000Y-60666309D01*
X105501673Y-60899698D01*
X105680301Y-61078327D01*
X105913690Y-61175000D01*
X106754250Y-61175000D01*
X106913000Y-61016250D01*
X106913000Y-59917000D01*
X106893000Y-59917000D01*
X106893000Y-59663000D01*
X106913000Y-59663000D01*
X106913000Y-59643000D01*
X107167000Y-59643000D01*
X107167000Y-59663000D01*
X107187000Y-59663000D01*
X107187000Y-59917000D01*
X107167000Y-59917000D01*
X107167000Y-61016250D01*
X107325750Y-61175000D01*
X108166310Y-61175000D01*
X108243456Y-61143045D01*
X108246018Y-61155927D01*
X108282369Y-61338673D01*
X108380608Y-61485699D01*
X108474212Y-61625788D01*
X108865002Y-62016577D01*
X108865002Y-62483423D01*
X108733422Y-62615002D01*
X98088821Y-62615002D01*
X96649507Y-61175687D01*
X96648479Y-61175000D01*
X96362392Y-60983844D01*
X96261278Y-60963731D01*
X96023717Y-60916476D01*
X96023712Y-60916477D01*
X92976288Y-60916477D01*
X92976283Y-60916476D01*
X92637609Y-60983843D01*
X92577197Y-61024209D01*
X92350493Y-61175687D01*
X92350491Y-61175690D01*
X92121160Y-61405021D01*
X79874211Y-61405021D01*
X79874206Y-61405020D01*
X79591722Y-61461211D01*
X79535531Y-61472388D01*
X79322079Y-61615011D01*
X74614602Y-61615011D01*
X74485289Y-61485698D01*
X74451024Y-61462803D01*
X74198174Y-61293855D01*
X74141983Y-61282678D01*
X73859499Y-61226487D01*
X73859494Y-61226488D01*
X71640501Y-61226488D01*
X71301826Y-61293855D01*
X71014711Y-61485698D01*
X71014709Y-61485701D01*
X70885399Y-61615011D01*
X70295052Y-61615011D01*
X69856077Y-61176036D01*
X69828834Y-61039078D01*
X69817657Y-60982887D01*
X69625814Y-60695772D01*
X69625811Y-60695770D01*
X68440769Y-59510727D01*
X68754380Y-59381146D01*
X69129827Y-59006353D01*
X69333268Y-58516413D01*
X69333731Y-57985914D01*
X69131146Y-57495620D01*
X68756353Y-57120173D01*
X68266413Y-56916732D01*
X67918008Y-56916428D01*
X67885000Y-56883420D01*
X67885000Y-54635000D01*
X67916213Y-54635000D01*
X67916218Y-54635001D01*
X68219782Y-54574617D01*
X68254893Y-54567633D01*
X68364811Y-54494188D01*
X69495417Y-54494188D01*
X69557071Y-54729800D01*
X70057480Y-54905927D01*
X70587199Y-54877148D01*
X70942929Y-54729800D01*
X71004583Y-54494188D01*
X70250000Y-53739605D01*
X69495417Y-54494188D01*
X68364811Y-54494188D01*
X68542008Y-54375790D01*
X68958552Y-53959245D01*
X69080200Y-54252929D01*
X69315812Y-54314583D01*
X70070395Y-53560000D01*
X70056253Y-53545858D01*
X70235858Y-53366253D01*
X70250000Y-53380395D01*
X70264143Y-53366253D01*
X70443748Y-53545858D01*
X70429605Y-53560000D01*
X71184188Y-54314583D01*
X71419800Y-54252929D01*
X71595927Y-53752520D01*
X71567148Y-53222801D01*
X71473411Y-52996499D01*
X71898337Y-52996499D01*
X71788355Y-53106289D01*
X71788355Y-53106289D01*
G37*
X71788355Y-53106289D02*
X71615197Y-53523298D01*
X71614803Y-53974829D01*
X71787233Y-54392140D01*
X71865000Y-54470043D01*
X71865000Y-55939246D01*
X71620173Y-56183647D01*
X71416732Y-56673587D01*
X71416269Y-57204086D01*
X71618854Y-57694380D01*
X71993647Y-58069827D01*
X72275799Y-58186987D01*
X72471326Y-58317633D01*
X72810000Y-58385001D01*
X72921285Y-58362865D01*
X75184198Y-60625777D01*
X75184200Y-60625780D01*
X75471315Y-60817623D01*
X75809990Y-60884990D01*
X83585777Y-60884990D01*
X83585782Y-60884991D01*
X83870645Y-60828327D01*
X83924457Y-60817623D01*
X84137909Y-60675000D01*
X102675587Y-60675000D01*
X102738625Y-60769343D01*
X103187951Y-61069573D01*
X103717968Y-61175000D01*
X104282032Y-61175000D01*
X104812049Y-61069573D01*
X105261375Y-60769343D01*
X105405000Y-60554393D01*
X105405000Y-60666309D01*
X105501673Y-60899698D01*
X105680301Y-61078327D01*
X105913690Y-61175000D01*
X106754250Y-61175000D01*
X106913000Y-61016250D01*
X106913000Y-59917000D01*
X106893000Y-59917000D01*
X106893000Y-59663000D01*
X106913000Y-59663000D01*
X106913000Y-59643000D01*
X107167000Y-59643000D01*
X107167000Y-59663000D01*
X107187000Y-59663000D01*
X107187000Y-59917000D01*
X107167000Y-59917000D01*
X107167000Y-61016250D01*
X107325750Y-61175000D01*
X108166310Y-61175000D01*
X108243456Y-61143045D01*
X108246018Y-61155927D01*
X108282369Y-61338673D01*
X108380608Y-61485699D01*
X108474212Y-61625788D01*
X108865002Y-62016577D01*
X108865002Y-62483423D01*
X108733422Y-62615002D01*
X98088821Y-62615002D01*
X96649507Y-61175687D01*
X96648479Y-61175000D01*
X96362392Y-60983844D01*
X96261278Y-60963731D01*
X96023717Y-60916476D01*
X96023712Y-60916477D01*
X92976288Y-60916477D01*
X92976283Y-60916476D01*
X92637609Y-60983843D01*
X92577197Y-61024209D01*
X92350493Y-61175687D01*
X92350491Y-61175690D01*
X92121160Y-61405021D01*
X79874211Y-61405021D01*
X79874206Y-61405020D01*
X79591722Y-61461211D01*
X79535531Y-61472388D01*
X79322079Y-61615011D01*
X74614602Y-61615011D01*
X74485289Y-61485698D01*
X74451024Y-61462803D01*
X74198174Y-61293855D01*
X74141983Y-61282678D01*
X73859499Y-61226487D01*
X73859494Y-61226488D01*
X71640501Y-61226488D01*
X71301826Y-61293855D01*
X71014711Y-61485698D01*
X71014709Y-61485701D01*
X70885399Y-61615011D01*
X70295052Y-61615011D01*
X69856077Y-61176036D01*
X69828834Y-61039078D01*
X69817657Y-60982887D01*
X69625814Y-60695772D01*
X69625811Y-60695770D01*
X68440769Y-59510727D01*
X68754380Y-59381146D01*
X69129827Y-59006353D01*
X69333268Y-58516413D01*
X69333731Y-57985914D01*
X69131146Y-57495620D01*
X68756353Y-57120173D01*
X68266413Y-56916732D01*
X67918008Y-56916428D01*
X67885000Y-56883420D01*
X67885000Y-54635000D01*
X67916213Y-54635000D01*
X67916218Y-54635001D01*
X68219782Y-54574617D01*
X68254893Y-54567633D01*
X68364811Y-54494188D01*
X69495417Y-54494188D01*
X69557071Y-54729800D01*
X70057480Y-54905927D01*
X70587199Y-54877148D01*
X70942929Y-54729800D01*
X71004583Y-54494188D01*
X70250000Y-53739605D01*
X69495417Y-54494188D01*
X68364811Y-54494188D01*
X68542008Y-54375790D01*
X68958552Y-53959245D01*
X69080200Y-54252929D01*
X69315812Y-54314583D01*
X70070395Y-53560000D01*
X70056253Y-53545858D01*
X70235858Y-53366253D01*
X70250000Y-53380395D01*
X70264143Y-53366253D01*
X70443748Y-53545858D01*
X70429605Y-53560000D01*
X71184188Y-54314583D01*
X71419800Y-54252929D01*
X71595927Y-53752520D01*
X71567148Y-53222801D01*
X71473411Y-52996499D01*
X71898337Y-52996499D01*
X71788355Y-53106289D01*
M02*
