M48
;DRILL file {KiCad 4.0.2-stable} date 15/07/2016 14:21:14
;FORMAT={-:-/ absolute / metric / decimal}
FMAT,2
METRIC,TZ
T1C0.500
T2C0.800
T3C0.813
T4C1.000
T5C1.397
%
G90
G05
M71
T1
X55.97Y-53.933
X64.88Y-61.87
X66.064Y-47.
X66.584Y-64.034
X67.Y-53.75
X70.413Y-61.163
X72.75Y-46.368
X72.75Y-53.75
X75.064Y-53.658
X76.134Y-57.616
X76.74Y-45.368
X95.09Y-47.368
X96.Y-56.25
X98.5Y-52.25
X104.5Y-47.
X108.5Y-62.25
X109.75Y-47.
X114.Y-63.5
T2
X45.75Y-46.5
X45.75Y-49.04
X45.75Y-51.58
X45.75Y-54.12
X53.37Y-46.5
X53.37Y-49.04
X53.37Y-51.58
X53.37Y-54.12
X112.5Y-47.17
X112.5Y-49.71
X112.5Y-52.25
X112.5Y-54.79
X120.12Y-47.17
X120.12Y-49.71
X120.12Y-52.25
X120.12Y-54.79
T3
X46.25Y-57.63
X46.25Y-65.25
X49.Y-57.69
X49.Y-65.31
X68.Y-58.25
X68.Y-65.87
X70.25Y-45.94
X70.25Y-53.56
X72.75Y-56.94
X72.75Y-64.56
X74.69Y-55.75
X82.31Y-55.75
X88.75Y-57.19
X88.75Y-64.81
X94.5Y-57.63
X94.5Y-65.25
X112.Y-58.75
X112.Y-66.37
X116.5Y-59.63
X116.5Y-67.25
X119.25Y-58.94
X119.25Y-66.56
X123.Y-52.19
X123.Y-59.81
T4
X58.5Y-49.38
X58.5Y-51.92
X58.5Y-54.46
X58.5Y-57.
X58.5Y-59.54
X61.04Y-49.38
X61.04Y-51.92
X61.04Y-54.46
X61.04Y-57.
X61.04Y-59.54
X104.25Y-49.63
X104.25Y-52.17
X104.25Y-54.71
X104.25Y-57.25
X104.25Y-59.79
X106.79Y-49.63
X106.79Y-52.17
X106.79Y-54.71
X106.79Y-57.25
X106.79Y-59.79
T5
X43.855Y-73.228
X46.357Y-70.726
X51.353Y-73.225
X56.349Y-70.726
X58.851Y-73.228
X65.555Y-73.228
X68.057Y-70.726
X73.053Y-73.225
X78.049Y-70.726
X80.551Y-73.228
X87.105Y-72.868
X89.607Y-70.366
X94.603Y-72.865
X99.599Y-70.366
X102.101Y-72.868
X108.002Y-73.003
X110.504Y-70.501
X115.5Y-73.
X120.496Y-70.501
X122.998Y-73.003
T0
M30
