G04 #@! TF.FileFunction,Legend,Top*
%FSLAX46Y46*%
G04 Gerber Fmt 4.6, Leading zero omitted, Abs format (unit mm)*
G04 Created by KiCad (PCBNEW 4.0.2-stable) date 15/07/2016 14:21:11*
%MOMM*%
G01*
G04 APERTURE LIST*
%ADD10C,0.100000*%
%ADD11C,0.150000*%
%ADD12C,0.304800*%
%ADD13C,0.299720*%
%ADD14C,0.203200*%
G04 APERTURE END LIST*
D10*
D11*
X46250000Y-65250000D02*
X46250000Y-64488000D01*
X46250000Y-64488000D02*
X47266000Y-64488000D01*
X47266000Y-64488000D02*
X47266000Y-58392000D01*
X47266000Y-58392000D02*
X46250000Y-58392000D01*
X46250000Y-58392000D02*
X46250000Y-57630000D01*
X46250000Y-58392000D02*
X45234000Y-58392000D01*
X45234000Y-58392000D02*
X45234000Y-64488000D01*
X45234000Y-64488000D02*
X46250000Y-64488000D01*
X47266000Y-63980000D02*
X45234000Y-63980000D01*
X45234000Y-63726000D02*
X47266000Y-63726000D01*
X88750000Y-64810000D02*
X88750000Y-64048000D01*
X88750000Y-64048000D02*
X89766000Y-64048000D01*
X89766000Y-64048000D02*
X89766000Y-57952000D01*
X89766000Y-57952000D02*
X88750000Y-57952000D01*
X88750000Y-57952000D02*
X88750000Y-57190000D01*
X88750000Y-57952000D02*
X87734000Y-57952000D01*
X87734000Y-57952000D02*
X87734000Y-64048000D01*
X87734000Y-64048000D02*
X88750000Y-64048000D01*
X89766000Y-63540000D02*
X87734000Y-63540000D01*
X87734000Y-63286000D02*
X89766000Y-63286000D01*
X45885000Y-44205000D02*
X45885000Y-45475000D01*
X53235000Y-44205000D02*
X53235000Y-45475000D01*
X53235000Y-56415000D02*
X53235000Y-55145000D01*
X45885000Y-56415000D02*
X45885000Y-55145000D01*
X45885000Y-44205000D02*
X53235000Y-44205000D01*
X45885000Y-56415000D02*
X53235000Y-56415000D01*
X45885000Y-45475000D02*
X44950000Y-45475000D01*
X112635000Y-44875000D02*
X112635000Y-46145000D01*
X119985000Y-44875000D02*
X119985000Y-46145000D01*
X119985000Y-57085000D02*
X119985000Y-55815000D01*
X112635000Y-57085000D02*
X112635000Y-55815000D01*
X112635000Y-44875000D02*
X119985000Y-44875000D01*
X112635000Y-57085000D02*
X119985000Y-57085000D01*
X112635000Y-46145000D02*
X111700000Y-46145000D01*
D12*
X42353541Y-84975040D02*
X61853121Y-84975040D01*
X60351981Y-85223960D02*
X42353541Y-85223960D01*
X40852401Y-85475420D02*
X60351981Y-85475420D01*
X42353541Y-67225520D02*
X42353541Y-84225740D01*
X42353541Y-67225520D02*
X42853921Y-66725140D01*
X42853921Y-66725140D02*
X45353281Y-66725140D01*
X45353281Y-66725140D02*
X45853661Y-67225520D01*
X45853661Y-67225520D02*
X45853661Y-69224500D01*
X45853661Y-69224500D02*
X49353781Y-69224500D01*
X60351981Y-67225520D02*
X60351981Y-84225740D01*
X60351981Y-67225520D02*
X59851601Y-66725140D01*
X59851601Y-66725140D02*
X57852621Y-66725140D01*
X57852621Y-66725140D02*
X57352241Y-66725140D01*
X57352241Y-66725140D02*
X56851861Y-67225520D01*
X56851861Y-67225520D02*
X56851861Y-69224500D01*
X56851861Y-69224500D02*
X53351741Y-69224500D01*
X49851621Y-66725140D02*
X49353781Y-67225520D01*
X49353781Y-67225520D02*
X49353781Y-69224500D01*
X49851621Y-66725140D02*
X52853901Y-66725140D01*
X52853901Y-66725140D02*
X53351741Y-67225520D01*
X53351741Y-67225520D02*
X53351741Y-69224500D01*
X61853121Y-85223960D02*
X60351981Y-85223960D01*
X60351981Y-85223960D02*
X60351981Y-85724340D01*
X60351981Y-85724340D02*
X40852401Y-85724340D01*
X40852401Y-85223960D02*
X42353541Y-85223960D01*
X42353541Y-85223960D02*
X42353541Y-84723580D01*
X42353541Y-84723580D02*
X61853121Y-84723580D01*
X60351981Y-84225740D02*
X59851601Y-84225740D01*
X42353541Y-84225740D02*
X42853921Y-84225740D01*
X59851601Y-84723580D02*
X59851601Y-84225740D01*
X42853921Y-84225740D02*
X42853921Y-84723580D01*
X40852401Y-85724340D02*
X40852401Y-85223960D01*
X61853121Y-84723580D02*
X61853121Y-85223960D01*
X85603541Y-84615040D02*
X105103121Y-84615040D01*
X103601981Y-84863960D02*
X85603541Y-84863960D01*
X84102401Y-85115420D02*
X103601981Y-85115420D01*
X85603541Y-66865520D02*
X85603541Y-83865740D01*
X85603541Y-66865520D02*
X86103921Y-66365140D01*
X86103921Y-66365140D02*
X88603281Y-66365140D01*
X88603281Y-66365140D02*
X89103661Y-66865520D01*
X89103661Y-66865520D02*
X89103661Y-68864500D01*
X89103661Y-68864500D02*
X92603781Y-68864500D01*
X103601981Y-66865520D02*
X103601981Y-83865740D01*
X103601981Y-66865520D02*
X103101601Y-66365140D01*
X103101601Y-66365140D02*
X101102621Y-66365140D01*
X101102621Y-66365140D02*
X100602241Y-66365140D01*
X100602241Y-66365140D02*
X100101861Y-66865520D01*
X100101861Y-66865520D02*
X100101861Y-68864500D01*
X100101861Y-68864500D02*
X96601741Y-68864500D01*
X93101621Y-66365140D02*
X92603781Y-66865520D01*
X92603781Y-66865520D02*
X92603781Y-68864500D01*
X93101621Y-66365140D02*
X96103901Y-66365140D01*
X96103901Y-66365140D02*
X96601741Y-66865520D01*
X96601741Y-66865520D02*
X96601741Y-68864500D01*
X105103121Y-84863960D02*
X103601981Y-84863960D01*
X103601981Y-84863960D02*
X103601981Y-85364340D01*
X103601981Y-85364340D02*
X84102401Y-85364340D01*
X84102401Y-84863960D02*
X85603541Y-84863960D01*
X85603541Y-84863960D02*
X85603541Y-84363580D01*
X85603541Y-84363580D02*
X105103121Y-84363580D01*
X103601981Y-83865740D02*
X103101601Y-83865740D01*
X85603541Y-83865740D02*
X86103921Y-83865740D01*
X103101601Y-84363580D02*
X103101601Y-83865740D01*
X86103921Y-83865740D02*
X86103921Y-84363580D01*
X84102401Y-85364340D02*
X84102401Y-84863960D01*
X105103121Y-84363580D02*
X105103121Y-84863960D01*
X64053541Y-84975040D02*
X83553121Y-84975040D01*
X82051981Y-85223960D02*
X64053541Y-85223960D01*
X62552401Y-85475420D02*
X82051981Y-85475420D01*
X64053541Y-67225520D02*
X64053541Y-84225740D01*
X64053541Y-67225520D02*
X64553921Y-66725140D01*
X64553921Y-66725140D02*
X67053281Y-66725140D01*
X67053281Y-66725140D02*
X67553661Y-67225520D01*
X67553661Y-67225520D02*
X67553661Y-69224500D01*
X67553661Y-69224500D02*
X71053781Y-69224500D01*
X82051981Y-67225520D02*
X82051981Y-84225740D01*
X82051981Y-67225520D02*
X81551601Y-66725140D01*
X81551601Y-66725140D02*
X79552621Y-66725140D01*
X79552621Y-66725140D02*
X79052241Y-66725140D01*
X79052241Y-66725140D02*
X78551861Y-67225520D01*
X78551861Y-67225520D02*
X78551861Y-69224500D01*
X78551861Y-69224500D02*
X75051741Y-69224500D01*
X71551621Y-66725140D02*
X71053781Y-67225520D01*
X71053781Y-67225520D02*
X71053781Y-69224500D01*
X71551621Y-66725140D02*
X74553901Y-66725140D01*
X74553901Y-66725140D02*
X75051741Y-67225520D01*
X75051741Y-67225520D02*
X75051741Y-69224500D01*
X83553121Y-85223960D02*
X82051981Y-85223960D01*
X82051981Y-85223960D02*
X82051981Y-85724340D01*
X82051981Y-85724340D02*
X62552401Y-85724340D01*
X62552401Y-85223960D02*
X64053541Y-85223960D01*
X64053541Y-85223960D02*
X64053541Y-84723580D01*
X64053541Y-84723580D02*
X83553121Y-84723580D01*
X82051981Y-84225740D02*
X81551601Y-84225740D01*
X64053541Y-84225740D02*
X64553921Y-84225740D01*
X81551601Y-84723580D02*
X81551601Y-84225740D01*
X64553921Y-84225740D02*
X64553921Y-84723580D01*
X62552401Y-85724340D02*
X62552401Y-85223960D01*
X83553121Y-84723580D02*
X83553121Y-85223960D01*
X106500780Y-84750300D02*
X126000360Y-84750300D01*
X124499220Y-84999220D02*
X106500780Y-84999220D01*
X104999640Y-85250680D02*
X124499220Y-85250680D01*
X106500780Y-67000780D02*
X106500780Y-84001000D01*
X106500780Y-67000780D02*
X107001160Y-66500400D01*
X107001160Y-66500400D02*
X109500520Y-66500400D01*
X109500520Y-66500400D02*
X110000900Y-67000780D01*
X110000900Y-67000780D02*
X110000900Y-68999760D01*
X110000900Y-68999760D02*
X113501020Y-68999760D01*
X124499220Y-67000780D02*
X124499220Y-84001000D01*
X124499220Y-67000780D02*
X123998840Y-66500400D01*
X123998840Y-66500400D02*
X121999860Y-66500400D01*
X121999860Y-66500400D02*
X121499480Y-66500400D01*
X121499480Y-66500400D02*
X120999100Y-67000780D01*
X120999100Y-67000780D02*
X120999100Y-68999760D01*
X120999100Y-68999760D02*
X117498980Y-68999760D01*
X113998860Y-66500400D02*
X113501020Y-67000780D01*
X113501020Y-67000780D02*
X113501020Y-68999760D01*
X113998860Y-66500400D02*
X117001140Y-66500400D01*
X117001140Y-66500400D02*
X117498980Y-67000780D01*
X117498980Y-67000780D02*
X117498980Y-68999760D01*
X126000360Y-84999220D02*
X124499220Y-84999220D01*
X124499220Y-84999220D02*
X124499220Y-85499600D01*
X124499220Y-85499600D02*
X104999640Y-85499600D01*
X104999640Y-84999220D02*
X106500780Y-84999220D01*
X106500780Y-84999220D02*
X106500780Y-84498840D01*
X106500780Y-84498840D02*
X126000360Y-84498840D01*
X124499220Y-84001000D02*
X123998840Y-84001000D01*
X106500780Y-84001000D02*
X107001160Y-84001000D01*
X123998840Y-84498840D02*
X123998840Y-84001000D01*
X107001160Y-84001000D02*
X107001160Y-84498840D01*
X104999640Y-85499600D02*
X104999640Y-84999220D01*
X126000360Y-84498840D02*
X126000360Y-84999220D01*
X64470000Y-64860000D02*
X64470000Y-44060000D01*
X55070000Y-44060000D02*
X55070000Y-64860000D01*
X55070000Y-64860000D02*
X64470000Y-64860000D01*
X55070000Y-44060000D02*
X64470000Y-44060000D01*
D13*
X64470000Y-52160000D02*
X63070000Y-52160000D01*
X63070000Y-52160000D02*
X63070000Y-56760000D01*
X63070000Y-56760000D02*
X64470000Y-56760000D01*
D12*
X110220000Y-65110000D02*
X110220000Y-44310000D01*
X100820000Y-44310000D02*
X100820000Y-65110000D01*
X100820000Y-65110000D02*
X110220000Y-65110000D01*
X100820000Y-44310000D02*
X110220000Y-44310000D01*
D13*
X110220000Y-52410000D02*
X108820000Y-52410000D01*
X108820000Y-52410000D02*
X108820000Y-57010000D01*
X108820000Y-57010000D02*
X110220000Y-57010000D01*
D11*
X74690000Y-55750000D02*
X75198000Y-55750000D01*
X82310000Y-55750000D02*
X81802000Y-55750000D01*
X81802000Y-55750000D02*
X81802000Y-54734000D01*
X81802000Y-54734000D02*
X75198000Y-54734000D01*
X75198000Y-54734000D02*
X75198000Y-56766000D01*
X75198000Y-56766000D02*
X81802000Y-56766000D01*
X81802000Y-56766000D02*
X81802000Y-55750000D01*
X75198000Y-55242000D02*
X75706000Y-54734000D01*
X70250000Y-45940000D02*
X70250000Y-46448000D01*
X70250000Y-53560000D02*
X70250000Y-53052000D01*
X70250000Y-53052000D02*
X71266000Y-53052000D01*
X71266000Y-53052000D02*
X71266000Y-46448000D01*
X71266000Y-46448000D02*
X69234000Y-46448000D01*
X69234000Y-46448000D02*
X69234000Y-53052000D01*
X69234000Y-53052000D02*
X70250000Y-53052000D01*
X70758000Y-46448000D02*
X71266000Y-46956000D01*
X119250000Y-66560000D02*
X119250000Y-66052000D01*
X119250000Y-58940000D02*
X119250000Y-59448000D01*
X119250000Y-59448000D02*
X118234000Y-59448000D01*
X118234000Y-59448000D02*
X118234000Y-66052000D01*
X118234000Y-66052000D02*
X120266000Y-66052000D01*
X120266000Y-66052000D02*
X120266000Y-59448000D01*
X120266000Y-59448000D02*
X119250000Y-59448000D01*
X118742000Y-66052000D02*
X118234000Y-65544000D01*
X123000000Y-52190000D02*
X123000000Y-52698000D01*
X123000000Y-59810000D02*
X123000000Y-59302000D01*
X123000000Y-59302000D02*
X124016000Y-59302000D01*
X124016000Y-59302000D02*
X124016000Y-52698000D01*
X124016000Y-52698000D02*
X121984000Y-52698000D01*
X121984000Y-52698000D02*
X121984000Y-59302000D01*
X121984000Y-59302000D02*
X123000000Y-59302000D01*
X123508000Y-52698000D02*
X124016000Y-53206000D01*
X49000000Y-65310000D02*
X49000000Y-64802000D01*
X49000000Y-57690000D02*
X49000000Y-58198000D01*
X49000000Y-58198000D02*
X47984000Y-58198000D01*
X47984000Y-58198000D02*
X47984000Y-64802000D01*
X47984000Y-64802000D02*
X50016000Y-64802000D01*
X50016000Y-64802000D02*
X50016000Y-58198000D01*
X50016000Y-58198000D02*
X49000000Y-58198000D01*
X48492000Y-64802000D02*
X47984000Y-64294000D01*
X68000000Y-65870000D02*
X68000000Y-65362000D01*
X68000000Y-58250000D02*
X68000000Y-58758000D01*
X68000000Y-58758000D02*
X66984000Y-58758000D01*
X66984000Y-58758000D02*
X66984000Y-65362000D01*
X66984000Y-65362000D02*
X69016000Y-65362000D01*
X69016000Y-65362000D02*
X69016000Y-58758000D01*
X69016000Y-58758000D02*
X68000000Y-58758000D01*
X67492000Y-65362000D02*
X66984000Y-64854000D01*
X72750000Y-64560000D02*
X72750000Y-64052000D01*
X72750000Y-56940000D02*
X72750000Y-57448000D01*
X72750000Y-57448000D02*
X71734000Y-57448000D01*
X71734000Y-57448000D02*
X71734000Y-64052000D01*
X71734000Y-64052000D02*
X73766000Y-64052000D01*
X73766000Y-64052000D02*
X73766000Y-57448000D01*
X73766000Y-57448000D02*
X72750000Y-57448000D01*
X72242000Y-64052000D02*
X71734000Y-63544000D01*
X94500000Y-65250000D02*
X94500000Y-64742000D01*
X94500000Y-57630000D02*
X94500000Y-58138000D01*
X94500000Y-58138000D02*
X93484000Y-58138000D01*
X93484000Y-58138000D02*
X93484000Y-64742000D01*
X93484000Y-64742000D02*
X95516000Y-64742000D01*
X95516000Y-64742000D02*
X95516000Y-58138000D01*
X95516000Y-58138000D02*
X94500000Y-58138000D01*
X93992000Y-64742000D02*
X93484000Y-64234000D01*
X112000000Y-66370000D02*
X112000000Y-65862000D01*
X112000000Y-58750000D02*
X112000000Y-59258000D01*
X112000000Y-59258000D02*
X110984000Y-59258000D01*
X110984000Y-59258000D02*
X110984000Y-65862000D01*
X110984000Y-65862000D02*
X113016000Y-65862000D01*
X113016000Y-65862000D02*
X113016000Y-59258000D01*
X113016000Y-59258000D02*
X112000000Y-59258000D01*
X111492000Y-65862000D02*
X110984000Y-65354000D01*
X116500000Y-67250000D02*
X116500000Y-66742000D01*
X116500000Y-59630000D02*
X116500000Y-60138000D01*
X116500000Y-60138000D02*
X115484000Y-60138000D01*
X115484000Y-60138000D02*
X115484000Y-66742000D01*
X115484000Y-66742000D02*
X117516000Y-66742000D01*
X117516000Y-66742000D02*
X117516000Y-60138000D01*
X117516000Y-60138000D02*
X116500000Y-60138000D01*
X115992000Y-66742000D02*
X115484000Y-66234000D01*
X37666667Y-61252381D02*
X37333333Y-60776190D01*
X37095238Y-61252381D02*
X37095238Y-60252381D01*
X37476191Y-60252381D01*
X37571429Y-60300000D01*
X37619048Y-60347619D01*
X37666667Y-60442857D01*
X37666667Y-60585714D01*
X37619048Y-60680952D01*
X37571429Y-60728571D01*
X37476191Y-60776190D01*
X37095238Y-60776190D01*
X38095238Y-60728571D02*
X38428572Y-60728571D01*
X38571429Y-61252381D02*
X38095238Y-61252381D01*
X38095238Y-60252381D01*
X38571429Y-60252381D01*
X39333334Y-60728571D02*
X39000000Y-60728571D01*
X39000000Y-61252381D02*
X39000000Y-60252381D01*
X39476191Y-60252381D01*
X40000000Y-60252381D02*
X40000000Y-60490476D01*
X39761905Y-60395238D02*
X40000000Y-60490476D01*
X40238096Y-60395238D01*
X39857143Y-60680952D02*
X40000000Y-60490476D01*
X40142858Y-60680952D01*
X40761905Y-60252381D02*
X40761905Y-60490476D01*
X40523810Y-60395238D02*
X40761905Y-60490476D01*
X41000001Y-60395238D01*
X40619048Y-60680952D02*
X40761905Y-60490476D01*
X40904763Y-60680952D01*
X126416667Y-63502381D02*
X126083333Y-63026190D01*
X125845238Y-63502381D02*
X125845238Y-62502381D01*
X126226191Y-62502381D01*
X126321429Y-62550000D01*
X126369048Y-62597619D01*
X126416667Y-62692857D01*
X126416667Y-62835714D01*
X126369048Y-62930952D01*
X126321429Y-62978571D01*
X126226191Y-63026190D01*
X125845238Y-63026190D01*
X126845238Y-62978571D02*
X127178572Y-62978571D01*
X127321429Y-63502381D02*
X126845238Y-63502381D01*
X126845238Y-62502381D01*
X127321429Y-62502381D01*
X128083334Y-62978571D02*
X127750000Y-62978571D01*
X127750000Y-63502381D02*
X127750000Y-62502381D01*
X128226191Y-62502381D01*
X128750000Y-62502381D02*
X128750000Y-62740476D01*
X128511905Y-62645238D02*
X128750000Y-62740476D01*
X128988096Y-62645238D01*
X128607143Y-62930952D02*
X128750000Y-62740476D01*
X128892858Y-62930952D01*
X129511905Y-62502381D02*
X129511905Y-62740476D01*
X129273810Y-62645238D02*
X129511905Y-62740476D01*
X129750001Y-62645238D01*
X129369048Y-62930952D02*
X129511905Y-62740476D01*
X129654763Y-62930952D01*
X125416667Y-44002381D02*
X125083333Y-43526190D01*
X124845238Y-44002381D02*
X124845238Y-43002381D01*
X125226191Y-43002381D01*
X125321429Y-43050000D01*
X125369048Y-43097619D01*
X125416667Y-43192857D01*
X125416667Y-43335714D01*
X125369048Y-43430952D01*
X125321429Y-43478571D01*
X125226191Y-43526190D01*
X124845238Y-43526190D01*
X125845238Y-43478571D02*
X126178572Y-43478571D01*
X126321429Y-44002381D02*
X125845238Y-44002381D01*
X125845238Y-43002381D01*
X126321429Y-43002381D01*
X127083334Y-43478571D02*
X126750000Y-43478571D01*
X126750000Y-44002381D02*
X126750000Y-43002381D01*
X127226191Y-43002381D01*
X127750000Y-43002381D02*
X127750000Y-43240476D01*
X127511905Y-43145238D02*
X127750000Y-43240476D01*
X127988096Y-43145238D01*
X127607143Y-43430952D02*
X127750000Y-43240476D01*
X127892858Y-43430952D01*
X128511905Y-43002381D02*
X128511905Y-43240476D01*
X128273810Y-43145238D02*
X128511905Y-43240476D01*
X128750001Y-43145238D01*
X128369048Y-43430952D02*
X128511905Y-43240476D01*
X128654763Y-43430952D01*
X37666667Y-44002381D02*
X37333333Y-43526190D01*
X37095238Y-44002381D02*
X37095238Y-43002381D01*
X37476191Y-43002381D01*
X37571429Y-43050000D01*
X37619048Y-43097619D01*
X37666667Y-43192857D01*
X37666667Y-43335714D01*
X37619048Y-43430952D01*
X37571429Y-43478571D01*
X37476191Y-43526190D01*
X37095238Y-43526190D01*
X38095238Y-43478571D02*
X38428572Y-43478571D01*
X38571429Y-44002381D02*
X38095238Y-44002381D01*
X38095238Y-43002381D01*
X38571429Y-43002381D01*
X39333334Y-43478571D02*
X39000000Y-43478571D01*
X39000000Y-44002381D02*
X39000000Y-43002381D01*
X39476191Y-43002381D01*
X40000000Y-43002381D02*
X40000000Y-43240476D01*
X39761905Y-43145238D02*
X40000000Y-43240476D01*
X40238096Y-43145238D01*
X39857143Y-43430952D02*
X40000000Y-43240476D01*
X40142858Y-43430952D01*
X40761905Y-43002381D02*
X40761905Y-43240476D01*
X40523810Y-43145238D02*
X40761905Y-43240476D01*
X41000001Y-43145238D01*
X40619048Y-43430952D02*
X40761905Y-43240476D01*
X40904763Y-43430952D01*
X46762381Y-60178095D02*
X45762381Y-60178095D01*
X45762381Y-59940000D01*
X45810000Y-59797142D01*
X45905238Y-59701904D01*
X46000476Y-59654285D01*
X46190952Y-59606666D01*
X46333810Y-59606666D01*
X46524286Y-59654285D01*
X46619524Y-59701904D01*
X46714762Y-59797142D01*
X46762381Y-59940000D01*
X46762381Y-60178095D01*
X46762381Y-58654285D02*
X46762381Y-59225714D01*
X46762381Y-58940000D02*
X45762381Y-58940000D01*
X45905238Y-59035238D01*
X46000476Y-59130476D01*
X46048095Y-59225714D01*
X89202381Y-61738095D02*
X88202381Y-61738095D01*
X88202381Y-61500000D01*
X88250000Y-61357142D01*
X88345238Y-61261904D01*
X88440476Y-61214285D01*
X88630952Y-61166666D01*
X88773810Y-61166666D01*
X88964286Y-61214285D01*
X89059524Y-61261904D01*
X89154762Y-61357142D01*
X89202381Y-61500000D01*
X89202381Y-61738095D01*
X88297619Y-60785714D02*
X88250000Y-60738095D01*
X88202381Y-60642857D01*
X88202381Y-60404761D01*
X88250000Y-60309523D01*
X88297619Y-60261904D01*
X88392857Y-60214285D01*
X88488095Y-60214285D01*
X88630952Y-60261904D01*
X89202381Y-60833333D01*
X89202381Y-60214285D01*
X44773810Y-41732381D02*
X44773810Y-40732381D01*
X45821429Y-41637143D02*
X45773810Y-41684762D01*
X45630953Y-41732381D01*
X45535715Y-41732381D01*
X45392857Y-41684762D01*
X45297619Y-41589524D01*
X45250000Y-41494286D01*
X45202381Y-41303810D01*
X45202381Y-41160952D01*
X45250000Y-40970476D01*
X45297619Y-40875238D01*
X45392857Y-40780000D01*
X45535715Y-40732381D01*
X45630953Y-40732381D01*
X45773810Y-40780000D01*
X45821429Y-40827619D01*
X46773810Y-41732381D02*
X46202381Y-41732381D01*
X46488095Y-41732381D02*
X46488095Y-40732381D01*
X46392857Y-40875238D01*
X46297619Y-40970476D01*
X46202381Y-41018095D01*
X111523810Y-42402381D02*
X111523810Y-41402381D01*
X112571429Y-42307143D02*
X112523810Y-42354762D01*
X112380953Y-42402381D01*
X112285715Y-42402381D01*
X112142857Y-42354762D01*
X112047619Y-42259524D01*
X112000000Y-42164286D01*
X111952381Y-41973810D01*
X111952381Y-41830952D01*
X112000000Y-41640476D01*
X112047619Y-41545238D01*
X112142857Y-41450000D01*
X112285715Y-41402381D01*
X112380953Y-41402381D01*
X112523810Y-41450000D01*
X112571429Y-41497619D01*
X112952381Y-41497619D02*
X113000000Y-41450000D01*
X113095238Y-41402381D01*
X113333334Y-41402381D01*
X113428572Y-41450000D01*
X113476191Y-41497619D01*
X113523810Y-41592857D01*
X113523810Y-41688095D01*
X113476191Y-41830952D01*
X112904762Y-42402381D01*
X113523810Y-42402381D01*
D12*
X47294858Y-79439429D02*
X47294858Y-78423429D01*
X47294858Y-78568571D02*
X47367430Y-78496000D01*
X47512572Y-78423429D01*
X47730287Y-78423429D01*
X47875430Y-78496000D01*
X47948001Y-78641143D01*
X47948001Y-79439429D01*
X47948001Y-78641143D02*
X48020572Y-78496000D01*
X48165715Y-78423429D01*
X48383430Y-78423429D01*
X48528572Y-78496000D01*
X48601144Y-78641143D01*
X48601144Y-79439429D01*
X49326858Y-79439429D02*
X49326858Y-78423429D01*
X49326858Y-77915429D02*
X49254287Y-77988000D01*
X49326858Y-78060571D01*
X49399430Y-77988000D01*
X49326858Y-77915429D01*
X49326858Y-78060571D01*
X50705715Y-79439429D02*
X50705715Y-77915429D01*
X50705715Y-79366857D02*
X50560572Y-79439429D01*
X50270286Y-79439429D01*
X50125144Y-79366857D01*
X50052572Y-79294286D01*
X49980001Y-79149143D01*
X49980001Y-78713714D01*
X50052572Y-78568571D01*
X50125144Y-78496000D01*
X50270286Y-78423429D01*
X50560572Y-78423429D01*
X50705715Y-78496000D01*
X51431429Y-79439429D02*
X51431429Y-78423429D01*
X51431429Y-77915429D02*
X51358858Y-77988000D01*
X51431429Y-78060571D01*
X51504001Y-77988000D01*
X51431429Y-77915429D01*
X51431429Y-78060571D01*
X52157143Y-79439429D02*
X52157143Y-77915429D01*
X52882857Y-79439429D02*
X52882857Y-77915429D01*
X53753714Y-79439429D01*
X53753714Y-77915429D01*
X55277714Y-79439429D02*
X54406857Y-79439429D01*
X54842285Y-79439429D02*
X54842285Y-77915429D01*
X54697142Y-78133143D01*
X54552000Y-78278286D01*
X54406857Y-78350857D01*
X48740190Y-65913429D02*
X48014476Y-65913429D01*
X48014476Y-64389429D01*
X49248190Y-65115143D02*
X49756190Y-65115143D01*
X49973904Y-65913429D02*
X49248190Y-65913429D01*
X49248190Y-64389429D01*
X49973904Y-64389429D01*
X50627047Y-65913429D02*
X50627047Y-64389429D01*
X51135047Y-65478000D01*
X51643047Y-64389429D01*
X51643047Y-65913429D01*
X52659047Y-64389429D02*
X52949333Y-64389429D01*
X53094475Y-64462000D01*
X53239618Y-64607143D01*
X53312190Y-64897429D01*
X53312190Y-65405429D01*
X53239618Y-65695714D01*
X53094475Y-65840857D01*
X52949333Y-65913429D01*
X52659047Y-65913429D01*
X52513904Y-65840857D01*
X52368761Y-65695714D01*
X52296190Y-65405429D01*
X52296190Y-64897429D01*
X52368761Y-64607143D01*
X52513904Y-64462000D01*
X52659047Y-64389429D01*
X54691046Y-64389429D02*
X53965332Y-64389429D01*
X53892761Y-65115143D01*
X53965332Y-65042571D01*
X54110475Y-64970000D01*
X54473332Y-64970000D01*
X54618475Y-65042571D01*
X54691046Y-65115143D01*
X54763618Y-65260286D01*
X54763618Y-65623143D01*
X54691046Y-65768286D01*
X54618475Y-65840857D01*
X54473332Y-65913429D01*
X54110475Y-65913429D01*
X53965332Y-65840857D01*
X53892761Y-65768286D01*
X90647619Y-77689429D02*
X90647619Y-76673429D01*
X90647619Y-76818571D02*
X90720191Y-76746000D01*
X90865333Y-76673429D01*
X91083048Y-76673429D01*
X91228191Y-76746000D01*
X91300762Y-76891143D01*
X91300762Y-77689429D01*
X91300762Y-76891143D02*
X91373333Y-76746000D01*
X91518476Y-76673429D01*
X91736191Y-76673429D01*
X91881333Y-76746000D01*
X91953905Y-76891143D01*
X91953905Y-77689429D01*
X92679619Y-77689429D02*
X92679619Y-76673429D01*
X92679619Y-76165429D02*
X92607048Y-76238000D01*
X92679619Y-76310571D01*
X92752191Y-76238000D01*
X92679619Y-76165429D01*
X92679619Y-76310571D01*
X94058476Y-77689429D02*
X94058476Y-76165429D01*
X94058476Y-77616857D02*
X93913333Y-77689429D01*
X93623047Y-77689429D01*
X93477905Y-77616857D01*
X93405333Y-77544286D01*
X93332762Y-77399143D01*
X93332762Y-76963714D01*
X93405333Y-76818571D01*
X93477905Y-76746000D01*
X93623047Y-76673429D01*
X93913333Y-76673429D01*
X94058476Y-76746000D01*
X94784190Y-77689429D02*
X94784190Y-76673429D01*
X94784190Y-76165429D02*
X94711619Y-76238000D01*
X94784190Y-76310571D01*
X94856762Y-76238000D01*
X94784190Y-76165429D01*
X94784190Y-76310571D01*
X95509904Y-77689429D02*
X95509904Y-76165429D01*
X96235618Y-77689429D02*
X96235618Y-76165429D01*
X97106475Y-77689429D01*
X97106475Y-76165429D01*
X97759618Y-76310571D02*
X97832189Y-76238000D01*
X97977332Y-76165429D01*
X98340189Y-76165429D01*
X98485332Y-76238000D01*
X98557903Y-76310571D01*
X98630475Y-76455714D01*
X98630475Y-76600857D01*
X98557903Y-76818571D01*
X97687046Y-77689429D01*
X98630475Y-77689429D01*
X91990190Y-65553429D02*
X91264476Y-65553429D01*
X91264476Y-64029429D01*
X92498190Y-64755143D02*
X93006190Y-64755143D01*
X93223904Y-65553429D02*
X92498190Y-65553429D01*
X92498190Y-64029429D01*
X93223904Y-64029429D01*
X93877047Y-65553429D02*
X93877047Y-64029429D01*
X94385047Y-65118000D01*
X94893047Y-64029429D01*
X94893047Y-65553429D01*
X95909047Y-64029429D02*
X96199333Y-64029429D01*
X96344475Y-64102000D01*
X96489618Y-64247143D01*
X96562190Y-64537429D01*
X96562190Y-65045429D01*
X96489618Y-65335714D01*
X96344475Y-65480857D01*
X96199333Y-65553429D01*
X95909047Y-65553429D01*
X95763904Y-65480857D01*
X95618761Y-65335714D01*
X95546190Y-65045429D01*
X95546190Y-64537429D01*
X95618761Y-64247143D01*
X95763904Y-64102000D01*
X95909047Y-64029429D01*
X97941046Y-64029429D02*
X97215332Y-64029429D01*
X97142761Y-64755143D01*
X97215332Y-64682571D01*
X97360475Y-64610000D01*
X97723332Y-64610000D01*
X97868475Y-64682571D01*
X97941046Y-64755143D01*
X98013618Y-64900286D01*
X98013618Y-65263143D01*
X97941046Y-65408286D01*
X97868475Y-65480857D01*
X97723332Y-65553429D01*
X97360475Y-65553429D01*
X97215332Y-65480857D01*
X97142761Y-65408286D01*
X67778858Y-78689429D02*
X67778858Y-77673429D01*
X67778858Y-77818571D02*
X67851430Y-77746000D01*
X67996572Y-77673429D01*
X68214287Y-77673429D01*
X68359430Y-77746000D01*
X68432001Y-77891143D01*
X68432001Y-78689429D01*
X68432001Y-77891143D02*
X68504572Y-77746000D01*
X68649715Y-77673429D01*
X68867430Y-77673429D01*
X69012572Y-77746000D01*
X69085144Y-77891143D01*
X69085144Y-78689429D01*
X69810858Y-78689429D02*
X69810858Y-77673429D01*
X69810858Y-77165429D02*
X69738287Y-77238000D01*
X69810858Y-77310571D01*
X69883430Y-77238000D01*
X69810858Y-77165429D01*
X69810858Y-77310571D01*
X71189715Y-78689429D02*
X71189715Y-77165429D01*
X71189715Y-78616857D02*
X71044572Y-78689429D01*
X70754286Y-78689429D01*
X70609144Y-78616857D01*
X70536572Y-78544286D01*
X70464001Y-78399143D01*
X70464001Y-77963714D01*
X70536572Y-77818571D01*
X70609144Y-77746000D01*
X70754286Y-77673429D01*
X71044572Y-77673429D01*
X71189715Y-77746000D01*
X71915429Y-78689429D02*
X71915429Y-77673429D01*
X71915429Y-77165429D02*
X71842858Y-77238000D01*
X71915429Y-77310571D01*
X71988001Y-77238000D01*
X71915429Y-77165429D01*
X71915429Y-77310571D01*
X72931429Y-77165429D02*
X73221715Y-77165429D01*
X73366857Y-77238000D01*
X73512000Y-77383143D01*
X73584572Y-77673429D01*
X73584572Y-78181429D01*
X73512000Y-78471714D01*
X73366857Y-78616857D01*
X73221715Y-78689429D01*
X72931429Y-78689429D01*
X72786286Y-78616857D01*
X72641143Y-78471714D01*
X72568572Y-78181429D01*
X72568572Y-77673429D01*
X72641143Y-77383143D01*
X72786286Y-77238000D01*
X72931429Y-77165429D01*
X74237714Y-77165429D02*
X74237714Y-78399143D01*
X74310286Y-78544286D01*
X74382857Y-78616857D01*
X74528000Y-78689429D01*
X74818286Y-78689429D01*
X74963428Y-78616857D01*
X75036000Y-78544286D01*
X75108571Y-78399143D01*
X75108571Y-77165429D01*
X75616571Y-77165429D02*
X76487428Y-77165429D01*
X76051999Y-78689429D02*
X76051999Y-77165429D01*
X77793714Y-78689429D02*
X76922857Y-78689429D01*
X77358285Y-78689429D02*
X77358285Y-77165429D01*
X77213142Y-77383143D01*
X77068000Y-77528286D01*
X76922857Y-77600857D01*
X70440190Y-65913429D02*
X69714476Y-65913429D01*
X69714476Y-64389429D01*
X70948190Y-65115143D02*
X71456190Y-65115143D01*
X71673904Y-65913429D02*
X70948190Y-65913429D01*
X70948190Y-64389429D01*
X71673904Y-64389429D01*
X72327047Y-65913429D02*
X72327047Y-64389429D01*
X72835047Y-65478000D01*
X73343047Y-64389429D01*
X73343047Y-65913429D01*
X74359047Y-64389429D02*
X74649333Y-64389429D01*
X74794475Y-64462000D01*
X74939618Y-64607143D01*
X75012190Y-64897429D01*
X75012190Y-65405429D01*
X74939618Y-65695714D01*
X74794475Y-65840857D01*
X74649333Y-65913429D01*
X74359047Y-65913429D01*
X74213904Y-65840857D01*
X74068761Y-65695714D01*
X73996190Y-65405429D01*
X73996190Y-64897429D01*
X74068761Y-64607143D01*
X74213904Y-64462000D01*
X74359047Y-64389429D01*
X76391046Y-64389429D02*
X75665332Y-64389429D01*
X75592761Y-65115143D01*
X75665332Y-65042571D01*
X75810475Y-64970000D01*
X76173332Y-64970000D01*
X76318475Y-65042571D01*
X76391046Y-65115143D01*
X76463618Y-65260286D01*
X76463618Y-65623143D01*
X76391046Y-65768286D01*
X76318475Y-65840857D01*
X76173332Y-65913429D01*
X75810475Y-65913429D01*
X75665332Y-65840857D01*
X75592761Y-65768286D01*
X110278858Y-77689429D02*
X110278858Y-76673429D01*
X110278858Y-76818571D02*
X110351430Y-76746000D01*
X110496572Y-76673429D01*
X110714287Y-76673429D01*
X110859430Y-76746000D01*
X110932001Y-76891143D01*
X110932001Y-77689429D01*
X110932001Y-76891143D02*
X111004572Y-76746000D01*
X111149715Y-76673429D01*
X111367430Y-76673429D01*
X111512572Y-76746000D01*
X111585144Y-76891143D01*
X111585144Y-77689429D01*
X112310858Y-77689429D02*
X112310858Y-76673429D01*
X112310858Y-76165429D02*
X112238287Y-76238000D01*
X112310858Y-76310571D01*
X112383430Y-76238000D01*
X112310858Y-76165429D01*
X112310858Y-76310571D01*
X113689715Y-77689429D02*
X113689715Y-76165429D01*
X113689715Y-77616857D02*
X113544572Y-77689429D01*
X113254286Y-77689429D01*
X113109144Y-77616857D01*
X113036572Y-77544286D01*
X112964001Y-77399143D01*
X112964001Y-76963714D01*
X113036572Y-76818571D01*
X113109144Y-76746000D01*
X113254286Y-76673429D01*
X113544572Y-76673429D01*
X113689715Y-76746000D01*
X114415429Y-77689429D02*
X114415429Y-76673429D01*
X114415429Y-76165429D02*
X114342858Y-76238000D01*
X114415429Y-76310571D01*
X114488001Y-76238000D01*
X114415429Y-76165429D01*
X114415429Y-76310571D01*
X115431429Y-76165429D02*
X115721715Y-76165429D01*
X115866857Y-76238000D01*
X116012000Y-76383143D01*
X116084572Y-76673429D01*
X116084572Y-77181429D01*
X116012000Y-77471714D01*
X115866857Y-77616857D01*
X115721715Y-77689429D01*
X115431429Y-77689429D01*
X115286286Y-77616857D01*
X115141143Y-77471714D01*
X115068572Y-77181429D01*
X115068572Y-76673429D01*
X115141143Y-76383143D01*
X115286286Y-76238000D01*
X115431429Y-76165429D01*
X116737714Y-76165429D02*
X116737714Y-77399143D01*
X116810286Y-77544286D01*
X116882857Y-77616857D01*
X117028000Y-77689429D01*
X117318286Y-77689429D01*
X117463428Y-77616857D01*
X117536000Y-77544286D01*
X117608571Y-77399143D01*
X117608571Y-76165429D01*
X118116571Y-76165429D02*
X118987428Y-76165429D01*
X118551999Y-77689429D02*
X118551999Y-76165429D01*
X119422857Y-76310571D02*
X119495428Y-76238000D01*
X119640571Y-76165429D01*
X120003428Y-76165429D01*
X120148571Y-76238000D01*
X120221142Y-76310571D01*
X120293714Y-76455714D01*
X120293714Y-76600857D01*
X120221142Y-76818571D01*
X119350285Y-77689429D01*
X120293714Y-77689429D01*
X112887429Y-65688689D02*
X112161715Y-65688689D01*
X112161715Y-64164689D01*
X113395429Y-64890403D02*
X113903429Y-64890403D01*
X114121143Y-65688689D02*
X113395429Y-65688689D01*
X113395429Y-64164689D01*
X114121143Y-64164689D01*
X114774286Y-65688689D02*
X114774286Y-64164689D01*
X115282286Y-65253260D01*
X115790286Y-64164689D01*
X115790286Y-65688689D01*
X116806286Y-64164689D02*
X117096572Y-64164689D01*
X117241714Y-64237260D01*
X117386857Y-64382403D01*
X117459429Y-64672689D01*
X117459429Y-65180689D01*
X117386857Y-65470974D01*
X117241714Y-65616117D01*
X117096572Y-65688689D01*
X116806286Y-65688689D01*
X116661143Y-65616117D01*
X116516000Y-65470974D01*
X116443429Y-65180689D01*
X116443429Y-64672689D01*
X116516000Y-64382403D01*
X116661143Y-64237260D01*
X116806286Y-64164689D01*
X118838285Y-64164689D02*
X118112571Y-64164689D01*
X118040000Y-64890403D01*
X118112571Y-64817831D01*
X118257714Y-64745260D01*
X118620571Y-64745260D01*
X118765714Y-64817831D01*
X118838285Y-64890403D01*
X118910857Y-65035546D01*
X118910857Y-65398403D01*
X118838285Y-65543546D01*
X118765714Y-65616117D01*
X118620571Y-65688689D01*
X118257714Y-65688689D01*
X118112571Y-65616117D01*
X118040000Y-65543546D01*
D14*
X54522381Y-55198095D02*
X53522381Y-55198095D01*
X53522381Y-54817142D01*
X53570000Y-54721904D01*
X53617619Y-54674285D01*
X53712857Y-54626666D01*
X53855714Y-54626666D01*
X53950952Y-54674285D01*
X53998571Y-54721904D01*
X54046190Y-54817142D01*
X54046190Y-55198095D01*
X54522381Y-53674285D02*
X54522381Y-54245714D01*
X54522381Y-53960000D02*
X53522381Y-53960000D01*
X53665238Y-54055238D01*
X53760476Y-54150476D01*
X53808095Y-54245714D01*
X100272381Y-55448095D02*
X99272381Y-55448095D01*
X99272381Y-55067142D01*
X99320000Y-54971904D01*
X99367619Y-54924285D01*
X99462857Y-54876666D01*
X99605714Y-54876666D01*
X99700952Y-54924285D01*
X99748571Y-54971904D01*
X99796190Y-55067142D01*
X99796190Y-55448095D01*
X99367619Y-54495714D02*
X99320000Y-54448095D01*
X99272381Y-54352857D01*
X99272381Y-54114761D01*
X99320000Y-54019523D01*
X99367619Y-53971904D01*
X99462857Y-53924285D01*
X99558095Y-53924285D01*
X99700952Y-53971904D01*
X100272381Y-54543333D01*
X100272381Y-53924285D01*
D11*
X78333334Y-56329381D02*
X78000000Y-55853190D01*
X77761905Y-56329381D02*
X77761905Y-55329381D01*
X78142858Y-55329381D01*
X78238096Y-55377000D01*
X78285715Y-55424619D01*
X78333334Y-55519857D01*
X78333334Y-55662714D01*
X78285715Y-55757952D01*
X78238096Y-55805571D01*
X78142858Y-55853190D01*
X77761905Y-55853190D01*
X79285715Y-56329381D02*
X78714286Y-56329381D01*
X79000000Y-56329381D02*
X79000000Y-55329381D01*
X78904762Y-55472238D01*
X78809524Y-55567476D01*
X78714286Y-55615095D01*
X70575381Y-49916666D02*
X70099190Y-50250000D01*
X70575381Y-50488095D02*
X69575381Y-50488095D01*
X69575381Y-50107142D01*
X69623000Y-50011904D01*
X69670619Y-49964285D01*
X69765857Y-49916666D01*
X69908714Y-49916666D01*
X70003952Y-49964285D01*
X70051571Y-50011904D01*
X70099190Y-50107142D01*
X70099190Y-50488095D01*
X69670619Y-49535714D02*
X69623000Y-49488095D01*
X69575381Y-49392857D01*
X69575381Y-49154761D01*
X69623000Y-49059523D01*
X69670619Y-49011904D01*
X69765857Y-48964285D01*
X69861095Y-48964285D01*
X70003952Y-49011904D01*
X70575381Y-49583333D01*
X70575381Y-48964285D01*
X119829381Y-62916666D02*
X119353190Y-63250000D01*
X119829381Y-63488095D02*
X118829381Y-63488095D01*
X118829381Y-63107142D01*
X118877000Y-63011904D01*
X118924619Y-62964285D01*
X119019857Y-62916666D01*
X119162714Y-62916666D01*
X119257952Y-62964285D01*
X119305571Y-63011904D01*
X119353190Y-63107142D01*
X119353190Y-63488095D01*
X118829381Y-62583333D02*
X118829381Y-61964285D01*
X119210333Y-62297619D01*
X119210333Y-62154761D01*
X119257952Y-62059523D01*
X119305571Y-62011904D01*
X119400810Y-61964285D01*
X119638905Y-61964285D01*
X119734143Y-62011904D01*
X119781762Y-62059523D01*
X119829381Y-62154761D01*
X119829381Y-62440476D01*
X119781762Y-62535714D01*
X119734143Y-62583333D01*
X123325381Y-56166666D02*
X122849190Y-56500000D01*
X123325381Y-56738095D02*
X122325381Y-56738095D01*
X122325381Y-56357142D01*
X122373000Y-56261904D01*
X122420619Y-56214285D01*
X122515857Y-56166666D01*
X122658714Y-56166666D01*
X122753952Y-56214285D01*
X122801571Y-56261904D01*
X122849190Y-56357142D01*
X122849190Y-56738095D01*
X122658714Y-55309523D02*
X123325381Y-55309523D01*
X122277762Y-55547619D02*
X122992048Y-55785714D01*
X122992048Y-55166666D01*
X49579381Y-61666666D02*
X49103190Y-62000000D01*
X49579381Y-62238095D02*
X48579381Y-62238095D01*
X48579381Y-61857142D01*
X48627000Y-61761904D01*
X48674619Y-61714285D01*
X48769857Y-61666666D01*
X48912714Y-61666666D01*
X49007952Y-61714285D01*
X49055571Y-61761904D01*
X49103190Y-61857142D01*
X49103190Y-62238095D01*
X48579381Y-60761904D02*
X48579381Y-61238095D01*
X49055571Y-61285714D01*
X49007952Y-61238095D01*
X48960333Y-61142857D01*
X48960333Y-60904761D01*
X49007952Y-60809523D01*
X49055571Y-60761904D01*
X49150810Y-60714285D01*
X49388905Y-60714285D01*
X49484143Y-60761904D01*
X49531762Y-60809523D01*
X49579381Y-60904761D01*
X49579381Y-61142857D01*
X49531762Y-61238095D01*
X49484143Y-61285714D01*
X68579381Y-62226666D02*
X68103190Y-62560000D01*
X68579381Y-62798095D02*
X67579381Y-62798095D01*
X67579381Y-62417142D01*
X67627000Y-62321904D01*
X67674619Y-62274285D01*
X67769857Y-62226666D01*
X67912714Y-62226666D01*
X68007952Y-62274285D01*
X68055571Y-62321904D01*
X68103190Y-62417142D01*
X68103190Y-62798095D01*
X67579381Y-61369523D02*
X67579381Y-61560000D01*
X67627000Y-61655238D01*
X67674619Y-61702857D01*
X67817476Y-61798095D01*
X68007952Y-61845714D01*
X68388905Y-61845714D01*
X68484143Y-61798095D01*
X68531762Y-61750476D01*
X68579381Y-61655238D01*
X68579381Y-61464761D01*
X68531762Y-61369523D01*
X68484143Y-61321904D01*
X68388905Y-61274285D01*
X68150810Y-61274285D01*
X68055571Y-61321904D01*
X68007952Y-61369523D01*
X67960333Y-61464761D01*
X67960333Y-61655238D01*
X68007952Y-61750476D01*
X68055571Y-61798095D01*
X68150810Y-61845714D01*
X73329381Y-60916666D02*
X72853190Y-61250000D01*
X73329381Y-61488095D02*
X72329381Y-61488095D01*
X72329381Y-61107142D01*
X72377000Y-61011904D01*
X72424619Y-60964285D01*
X72519857Y-60916666D01*
X72662714Y-60916666D01*
X72757952Y-60964285D01*
X72805571Y-61011904D01*
X72853190Y-61107142D01*
X72853190Y-61488095D01*
X72329381Y-60583333D02*
X72329381Y-59916666D01*
X73329381Y-60345238D01*
X95079381Y-61606666D02*
X94603190Y-61940000D01*
X95079381Y-62178095D02*
X94079381Y-62178095D01*
X94079381Y-61797142D01*
X94127000Y-61701904D01*
X94174619Y-61654285D01*
X94269857Y-61606666D01*
X94412714Y-61606666D01*
X94507952Y-61654285D01*
X94555571Y-61701904D01*
X94603190Y-61797142D01*
X94603190Y-62178095D01*
X94507952Y-61035238D02*
X94460333Y-61130476D01*
X94412714Y-61178095D01*
X94317476Y-61225714D01*
X94269857Y-61225714D01*
X94174619Y-61178095D01*
X94127000Y-61130476D01*
X94079381Y-61035238D01*
X94079381Y-60844761D01*
X94127000Y-60749523D01*
X94174619Y-60701904D01*
X94269857Y-60654285D01*
X94317476Y-60654285D01*
X94412714Y-60701904D01*
X94460333Y-60749523D01*
X94507952Y-60844761D01*
X94507952Y-61035238D01*
X94555571Y-61130476D01*
X94603190Y-61178095D01*
X94698429Y-61225714D01*
X94888905Y-61225714D01*
X94984143Y-61178095D01*
X95031762Y-61130476D01*
X95079381Y-61035238D01*
X95079381Y-60844761D01*
X95031762Y-60749523D01*
X94984143Y-60701904D01*
X94888905Y-60654285D01*
X94698429Y-60654285D01*
X94603190Y-60701904D01*
X94555571Y-60749523D01*
X94507952Y-60844761D01*
X112579381Y-62726666D02*
X112103190Y-63060000D01*
X112579381Y-63298095D02*
X111579381Y-63298095D01*
X111579381Y-62917142D01*
X111627000Y-62821904D01*
X111674619Y-62774285D01*
X111769857Y-62726666D01*
X111912714Y-62726666D01*
X112007952Y-62774285D01*
X112055571Y-62821904D01*
X112103190Y-62917142D01*
X112103190Y-63298095D01*
X112579381Y-62250476D02*
X112579381Y-62060000D01*
X112531762Y-61964761D01*
X112484143Y-61917142D01*
X112341286Y-61821904D01*
X112150810Y-61774285D01*
X111769857Y-61774285D01*
X111674619Y-61821904D01*
X111627000Y-61869523D01*
X111579381Y-61964761D01*
X111579381Y-62155238D01*
X111627000Y-62250476D01*
X111674619Y-62298095D01*
X111769857Y-62345714D01*
X112007952Y-62345714D01*
X112103190Y-62298095D01*
X112150810Y-62250476D01*
X112198429Y-62155238D01*
X112198429Y-61964761D01*
X112150810Y-61869523D01*
X112103190Y-61821904D01*
X112007952Y-61774285D01*
X117079381Y-64082857D02*
X116603190Y-64416191D01*
X117079381Y-64654286D02*
X116079381Y-64654286D01*
X116079381Y-64273333D01*
X116127000Y-64178095D01*
X116174619Y-64130476D01*
X116269857Y-64082857D01*
X116412714Y-64082857D01*
X116507952Y-64130476D01*
X116555571Y-64178095D01*
X116603190Y-64273333D01*
X116603190Y-64654286D01*
X117079381Y-63130476D02*
X117079381Y-63701905D01*
X117079381Y-63416191D02*
X116079381Y-63416191D01*
X116222238Y-63511429D01*
X116317476Y-63606667D01*
X116365095Y-63701905D01*
X116079381Y-62511429D02*
X116079381Y-62416190D01*
X116127000Y-62320952D01*
X116174619Y-62273333D01*
X116269857Y-62225714D01*
X116460333Y-62178095D01*
X116698429Y-62178095D01*
X116888905Y-62225714D01*
X116984143Y-62273333D01*
X117031762Y-62320952D01*
X117079381Y-62416190D01*
X117079381Y-62511429D01*
X117031762Y-62606667D01*
X116984143Y-62654286D01*
X116888905Y-62701905D01*
X116698429Y-62749524D01*
X116460333Y-62749524D01*
X116269857Y-62701905D01*
X116174619Y-62654286D01*
X116127000Y-62606667D01*
X116079381Y-62511429D01*
M02*
