%FSLAX45Y45*%
G04 Gerber Fmt 4.5, Leading zero omitted, Abs format (unit mm)*
G04 Created by KiCad (PCBNEW 4.0.2-stable) date 15/07/2016 14:21:15*
%MOMM*%
G01*
G04 APERTURE LIST*
%ADD10C,0.127000*%
%ADD11C,0.150000*%
%ADD12C,0.200000*%
%ADD13C,0.300000*%
G04 APERTURE END LIST*
D10*
D11*
X13150000Y-4250000D02*
X13150000Y-4350000D01*
X3450000Y-4250000D02*
X13150000Y-4250000D01*
X3450000Y-4350000D02*
X3450000Y-4250000D01*
X3450000Y-8500000D02*
X3450000Y-4350000D01*
X3775000Y-8500000D02*
X3450000Y-8500000D01*
X13150000Y-4350000D02*
X13150000Y-4825000D01*
X13150000Y-8500000D02*
X4075000Y-8500000D01*
X13150000Y-8475000D02*
X13150000Y-8500000D01*
X13150000Y-4825000D02*
X13150000Y-8475000D01*
X4075000Y-8500000D02*
X3775000Y-8500000D01*
D12*
X5572002Y-5368253D02*
X5622002Y-5418253D01*
X5622002Y-5368253D02*
X5572002Y-5418253D01*
X6462997Y-6162001D02*
X6512997Y-6212001D01*
X6512997Y-6162001D02*
X6462997Y-6212001D01*
X6581412Y-4675004D02*
X6631412Y-4725004D01*
X6631412Y-4675004D02*
X6581412Y-4725004D01*
X6633396Y-6378383D02*
X6683396Y-6428383D01*
X6683396Y-6378383D02*
X6633396Y-6428383D01*
X6675000Y-5350000D02*
X6725000Y-5400000D01*
X6725000Y-5350000D02*
X6675000Y-5400000D01*
X7016290Y-6091290D02*
X7066290Y-6141290D01*
X7066290Y-6091290D02*
X7016290Y-6141290D01*
X7250000Y-4611777D02*
X7300000Y-4661777D01*
X7300000Y-4611777D02*
X7250000Y-4661777D01*
X7250000Y-5350005D02*
X7300000Y-5400005D01*
X7300000Y-5350005D02*
X7250000Y-5400005D01*
X7481421Y-5340770D02*
X7531421Y-5390770D01*
X7531421Y-5340770D02*
X7481421Y-5390770D01*
X7588390Y-5736610D02*
X7638390Y-5786610D01*
X7638390Y-5736610D02*
X7588390Y-5786610D01*
X7649003Y-4511776D02*
X7699003Y-4561776D01*
X7699003Y-4511776D02*
X7649003Y-4561776D01*
X9483968Y-4711778D02*
X9533968Y-4761778D01*
X9533968Y-4711778D02*
X9483968Y-4761778D01*
X9575000Y-5600002D02*
X9625000Y-5650002D01*
X9625000Y-5600002D02*
X9575000Y-5650002D01*
X9825000Y-5200000D02*
X9875000Y-5250000D01*
X9875000Y-5200000D02*
X9825000Y-5250000D01*
X10425000Y-4675000D02*
X10475000Y-4725000D01*
X10475000Y-4675000D02*
X10425000Y-4725000D01*
X10825000Y-6200000D02*
X10875000Y-6250000D01*
X10875000Y-6200000D02*
X10825000Y-6250000D01*
X10950000Y-4675000D02*
X11000000Y-4725000D01*
X11000000Y-4675000D02*
X10950000Y-4725000D01*
X11375000Y-6325000D02*
X11425000Y-6375000D01*
X11425000Y-6325000D02*
X11375000Y-6375000D01*
X4615000Y-4650000D02*
G75*
G03X4615000Y-4650000I-40000J0D01*
G01*
X4615000Y-4904000D02*
G75*
G03X4615000Y-4904000I-40000J0D01*
G01*
X4615000Y-5158000D02*
G75*
G03X4615000Y-5158000I-40000J0D01*
G01*
X4615000Y-5412000D02*
G75*
G03X4615000Y-5412000I-40000J0D01*
G01*
X5377000Y-4650000D02*
G75*
G03X5377000Y-4650000I-40000J0D01*
G01*
X5377000Y-4904000D02*
G75*
G03X5377000Y-4904000I-40000J0D01*
G01*
X5377000Y-5158000D02*
G75*
G03X5377000Y-5158000I-40000J0D01*
G01*
X5377000Y-5412000D02*
G75*
G03X5377000Y-5412000I-40000J0D01*
G01*
X11290000Y-4717000D02*
G75*
G03X11290000Y-4717000I-40000J0D01*
G01*
X11290000Y-4971000D02*
G75*
G03X11290000Y-4971000I-40000J0D01*
G01*
X11290000Y-5225000D02*
G75*
G03X11290000Y-5225000I-40000J0D01*
G01*
X11290000Y-5479000D02*
G75*
G03X11290000Y-5479000I-40000J0D01*
G01*
X12052000Y-4717000D02*
G75*
G03X12052000Y-4717000I-40000J0D01*
G01*
X12052000Y-4971000D02*
G75*
G03X12052000Y-4971000I-40000J0D01*
G01*
X12052000Y-5225000D02*
G75*
G03X12052000Y-5225000I-40000J0D01*
G01*
X12052000Y-5479000D02*
G75*
G03X12052000Y-5479000I-40000J0D01*
G01*
X4625000Y-5722360D02*
X4625000Y-5803640D01*
X4584360Y-5763000D02*
X4665640Y-5763000D01*
X4625000Y-6484360D02*
X4625000Y-6565640D01*
X4584360Y-6525000D02*
X4665640Y-6525000D01*
X4900000Y-5728360D02*
X4900000Y-5809640D01*
X4859360Y-5769000D02*
X4940640Y-5769000D01*
X4900000Y-6490360D02*
X4900000Y-6571640D01*
X4859360Y-6531000D02*
X4940640Y-6531000D01*
X6800000Y-5784360D02*
X6800000Y-5865640D01*
X6759360Y-5825000D02*
X6840640Y-5825000D01*
X6800000Y-6546360D02*
X6800000Y-6627640D01*
X6759360Y-6587000D02*
X6840640Y-6587000D01*
X7025000Y-4553360D02*
X7025000Y-4634640D01*
X6984360Y-4594000D02*
X7065640Y-4594000D01*
X7025000Y-5315360D02*
X7025000Y-5396640D01*
X6984360Y-5356000D02*
X7065640Y-5356000D01*
X7275000Y-5653360D02*
X7275000Y-5734640D01*
X7234360Y-5694000D02*
X7315640Y-5694000D01*
X7275000Y-6415360D02*
X7275000Y-6496640D01*
X7234360Y-6456000D02*
X7315640Y-6456000D01*
X7469000Y-5534360D02*
X7469000Y-5615640D01*
X7428360Y-5575000D02*
X7509640Y-5575000D01*
X8231000Y-5534360D02*
X8231000Y-5615640D01*
X8190360Y-5575000D02*
X8271640Y-5575000D01*
X8875000Y-5678360D02*
X8875000Y-5759640D01*
X8834360Y-5719000D02*
X8915640Y-5719000D01*
X8875000Y-6440360D02*
X8875000Y-6521640D01*
X8834360Y-6481000D02*
X8915640Y-6481000D01*
X9450000Y-5722360D02*
X9450000Y-5803640D01*
X9409360Y-5763000D02*
X9490640Y-5763000D01*
X9450000Y-6484360D02*
X9450000Y-6565640D01*
X9409360Y-6525000D02*
X9490640Y-6525000D01*
X11200000Y-5834360D02*
X11200000Y-5915640D01*
X11159360Y-5875000D02*
X11240640Y-5875000D01*
X11200000Y-6596360D02*
X11200000Y-6677640D01*
X11159360Y-6637000D02*
X11240640Y-6637000D01*
X11650000Y-5922360D02*
X11650000Y-6003640D01*
X11609360Y-5963000D02*
X11690640Y-5963000D01*
X11650000Y-6684360D02*
X11650000Y-6765640D01*
X11609360Y-6725000D02*
X11690640Y-6725000D01*
X11925000Y-5853360D02*
X11925000Y-5934640D01*
X11884360Y-5894000D02*
X11965640Y-5894000D01*
X11925000Y-6615360D02*
X11925000Y-6696640D01*
X11884360Y-6656000D02*
X11965640Y-6656000D01*
X12300000Y-5178360D02*
X12300000Y-5259640D01*
X12259360Y-5219000D02*
X12340640Y-5219000D01*
X12300000Y-5940360D02*
X12300000Y-6021640D01*
X12259360Y-5981000D02*
X12340640Y-5981000D01*
X5885356Y-4973356D02*
X5885356Y-4902644D01*
X5814644Y-4902644D01*
X5814644Y-4973356D01*
X5885356Y-4973356D01*
X5885356Y-5227356D02*
X5885356Y-5156644D01*
X5814644Y-5156644D01*
X5814644Y-5227356D01*
X5885356Y-5227356D01*
X5885356Y-5481356D02*
X5885356Y-5410644D01*
X5814644Y-5410644D01*
X5814644Y-5481356D01*
X5885356Y-5481356D01*
X5885356Y-5735356D02*
X5885356Y-5664644D01*
X5814644Y-5664644D01*
X5814644Y-5735356D01*
X5885356Y-5735356D01*
X5885356Y-5989356D02*
X5885356Y-5918644D01*
X5814644Y-5918644D01*
X5814644Y-5989356D01*
X5885356Y-5989356D01*
X6139356Y-4973356D02*
X6139356Y-4902644D01*
X6068644Y-4902644D01*
X6068644Y-4973356D01*
X6139356Y-4973356D01*
X6139356Y-5227356D02*
X6139356Y-5156644D01*
X6068644Y-5156644D01*
X6068644Y-5227356D01*
X6139356Y-5227356D01*
X6139356Y-5481356D02*
X6139356Y-5410644D01*
X6068644Y-5410644D01*
X6068644Y-5481356D01*
X6139356Y-5481356D01*
X6139356Y-5735356D02*
X6139356Y-5664644D01*
X6068644Y-5664644D01*
X6068644Y-5735356D01*
X6139356Y-5735356D01*
X6139356Y-5989356D02*
X6139356Y-5918644D01*
X6068644Y-5918644D01*
X6068644Y-5989356D01*
X6139356Y-5989356D01*
X10460356Y-4998356D02*
X10460356Y-4927644D01*
X10389644Y-4927644D01*
X10389644Y-4998356D01*
X10460356Y-4998356D01*
X10460356Y-5252356D02*
X10460356Y-5181644D01*
X10389644Y-5181644D01*
X10389644Y-5252356D01*
X10460356Y-5252356D01*
X10460356Y-5506356D02*
X10460356Y-5435644D01*
X10389644Y-5435644D01*
X10389644Y-5506356D01*
X10460356Y-5506356D01*
X10460356Y-5760356D02*
X10460356Y-5689644D01*
X10389644Y-5689644D01*
X10389644Y-5760356D01*
X10460356Y-5760356D01*
X10460356Y-6014356D02*
X10460356Y-5943644D01*
X10389644Y-5943644D01*
X10389644Y-6014356D01*
X10460356Y-6014356D01*
X10714356Y-4998356D02*
X10714356Y-4927644D01*
X10643644Y-4927644D01*
X10643644Y-4998356D01*
X10714356Y-4998356D01*
X10714356Y-5252356D02*
X10714356Y-5181644D01*
X10643644Y-5181644D01*
X10643644Y-5252356D01*
X10714356Y-5252356D01*
X10714356Y-5506356D02*
X10714356Y-5435644D01*
X10643644Y-5435644D01*
X10643644Y-5506356D01*
X10714356Y-5506356D01*
X10714356Y-5760356D02*
X10714356Y-5689644D01*
X10643644Y-5689644D01*
X10643644Y-5760356D01*
X10714356Y-5760356D01*
X10714356Y-6014356D02*
X10714356Y-5943644D01*
X10643644Y-5943644D01*
X10643644Y-6014356D01*
X10714356Y-6014356D01*
X4385468Y-7392604D02*
X4455318Y-7322754D01*
X4385468Y-7252904D01*
X4315618Y-7322754D01*
X4385468Y-7392604D01*
X4635658Y-7142414D02*
X4705508Y-7072564D01*
X4635658Y-7002714D01*
X4565808Y-7072564D01*
X4635658Y-7142414D01*
X5135276Y-7392350D02*
X5205126Y-7322500D01*
X5135276Y-7252650D01*
X5065426Y-7322500D01*
X5135276Y-7392350D01*
X5634894Y-7142414D02*
X5704744Y-7072564D01*
X5634894Y-7002714D01*
X5565044Y-7072564D01*
X5634894Y-7142414D01*
X5885084Y-7392604D02*
X5954934Y-7322754D01*
X5885084Y-7252904D01*
X5815234Y-7322754D01*
X5885084Y-7392604D01*
X6555468Y-7392604D02*
X6625318Y-7322754D01*
X6555468Y-7252904D01*
X6485618Y-7322754D01*
X6555468Y-7392604D01*
X6805658Y-7142414D02*
X6875508Y-7072564D01*
X6805658Y-7002714D01*
X6735808Y-7072564D01*
X6805658Y-7142414D01*
X7305276Y-7392350D02*
X7375126Y-7322500D01*
X7305276Y-7252650D01*
X7235426Y-7322500D01*
X7305276Y-7392350D01*
X7804894Y-7142414D02*
X7874744Y-7072564D01*
X7804894Y-7002714D01*
X7735044Y-7072564D01*
X7804894Y-7142414D01*
X8055084Y-7392604D02*
X8124934Y-7322754D01*
X8055084Y-7252904D01*
X7985234Y-7322754D01*
X8055084Y-7392604D01*
X8710468Y-7356604D02*
X8780318Y-7286754D01*
X8710468Y-7216904D01*
X8640618Y-7286754D01*
X8710468Y-7356604D01*
X8960658Y-7106414D02*
X9030508Y-7036564D01*
X8960658Y-6966714D01*
X8890808Y-7036564D01*
X8960658Y-7106414D01*
X9460276Y-7356350D02*
X9530126Y-7286500D01*
X9460276Y-7216650D01*
X9390426Y-7286500D01*
X9460276Y-7356350D01*
X9959894Y-7106414D02*
X10029744Y-7036564D01*
X9959894Y-6966714D01*
X9890044Y-7036564D01*
X9959894Y-7106414D01*
X10210084Y-7356604D02*
X10279934Y-7286754D01*
X10210084Y-7216904D01*
X10140234Y-7286754D01*
X10210084Y-7356604D01*
X10800192Y-7370130D02*
X10870042Y-7300280D01*
X10800192Y-7230430D01*
X10730342Y-7300280D01*
X10800192Y-7370130D01*
X11050382Y-7119940D02*
X11120232Y-7050090D01*
X11050382Y-6980240D01*
X10980532Y-7050090D01*
X11050382Y-7119940D01*
X11550000Y-7369876D02*
X11619850Y-7300026D01*
X11550000Y-7230176D01*
X11480150Y-7300026D01*
X11550000Y-7369876D01*
X12049618Y-7119940D02*
X12119468Y-7050090D01*
X12049618Y-6980240D01*
X11979768Y-7050090D01*
X12049618Y-7119940D01*
X12299808Y-7370130D02*
X12369658Y-7300280D01*
X12299808Y-7230430D01*
X12229958Y-7300280D01*
X12299808Y-7370130D01*
D13*
X3713928Y-8973214D02*
X3713928Y-8673214D01*
X3785357Y-8673214D01*
X3828214Y-8687500D01*
X3856786Y-8716072D01*
X3871071Y-8744643D01*
X3885357Y-8801786D01*
X3885357Y-8844643D01*
X3871071Y-8901786D01*
X3856786Y-8930357D01*
X3828214Y-8958929D01*
X3785357Y-8973214D01*
X3713928Y-8973214D01*
X4013928Y-8973214D02*
X4013928Y-8773214D01*
X4013928Y-8830357D02*
X4028214Y-8801786D01*
X4042500Y-8787500D01*
X4071071Y-8773214D01*
X4099643Y-8773214D01*
X4199643Y-8973214D02*
X4199643Y-8773214D01*
X4199643Y-8673214D02*
X4185357Y-8687500D01*
X4199643Y-8701786D01*
X4213929Y-8687500D01*
X4199643Y-8673214D01*
X4199643Y-8701786D01*
X4385357Y-8973214D02*
X4356786Y-8958929D01*
X4342500Y-8930357D01*
X4342500Y-8673214D01*
X4542500Y-8973214D02*
X4513929Y-8958929D01*
X4499643Y-8930357D01*
X4499643Y-8673214D01*
X4885357Y-8973214D02*
X4885357Y-8673214D01*
X4985357Y-8887500D01*
X5085357Y-8673214D01*
X5085357Y-8973214D01*
X5356786Y-8973214D02*
X5356786Y-8816072D01*
X5342500Y-8787500D01*
X5313929Y-8773214D01*
X5256786Y-8773214D01*
X5228214Y-8787500D01*
X5356786Y-8958929D02*
X5328214Y-8973214D01*
X5256786Y-8973214D01*
X5228214Y-8958929D01*
X5213929Y-8930357D01*
X5213929Y-8901786D01*
X5228214Y-8873214D01*
X5256786Y-8858929D01*
X5328214Y-8858929D01*
X5356786Y-8844643D01*
X5499643Y-8773214D02*
X5499643Y-9073214D01*
X5499643Y-8787500D02*
X5528214Y-8773214D01*
X5585357Y-8773214D01*
X5613928Y-8787500D01*
X5628214Y-8801786D01*
X5642500Y-8830357D01*
X5642500Y-8916072D01*
X5628214Y-8944643D01*
X5613928Y-8958929D01*
X5585357Y-8973214D01*
X5528214Y-8973214D01*
X5499643Y-8958929D01*
X5771071Y-8944643D02*
X5785357Y-8958929D01*
X5771071Y-8973214D01*
X5756786Y-8958929D01*
X5771071Y-8944643D01*
X5771071Y-8973214D01*
X5771071Y-8787500D02*
X5785357Y-8801786D01*
X5771071Y-8816072D01*
X5756786Y-8801786D01*
X5771071Y-8787500D01*
X5771071Y-8816072D01*
X3392500Y-9442500D02*
X3442500Y-9492500D01*
X3442500Y-9442500D02*
X3392500Y-9492500D01*
X3771071Y-9303214D02*
X3799643Y-9303214D01*
X3828214Y-9317500D01*
X3842500Y-9331786D01*
X3856786Y-9360357D01*
X3871071Y-9417500D01*
X3871071Y-9488929D01*
X3856786Y-9546072D01*
X3842500Y-9574643D01*
X3828214Y-9588929D01*
X3799643Y-9603214D01*
X3771071Y-9603214D01*
X3742500Y-9588929D01*
X3728214Y-9574643D01*
X3713928Y-9546072D01*
X3699643Y-9488929D01*
X3699643Y-9417500D01*
X3713928Y-9360357D01*
X3728214Y-9331786D01*
X3742500Y-9317500D01*
X3771071Y-9303214D01*
X3999643Y-9574643D02*
X4013928Y-9588929D01*
X3999643Y-9603214D01*
X3985357Y-9588929D01*
X3999643Y-9574643D01*
X3999643Y-9603214D01*
X4285357Y-9303214D02*
X4142500Y-9303214D01*
X4128214Y-9446072D01*
X4142500Y-9431786D01*
X4171071Y-9417500D01*
X4242500Y-9417500D01*
X4271071Y-9431786D01*
X4285357Y-9446072D01*
X4299643Y-9474643D01*
X4299643Y-9546072D01*
X4285357Y-9574643D01*
X4271071Y-9588929D01*
X4242500Y-9603214D01*
X4171071Y-9603214D01*
X4142500Y-9588929D01*
X4128214Y-9574643D01*
X4485357Y-9303214D02*
X4513929Y-9303214D01*
X4542500Y-9317500D01*
X4556786Y-9331786D01*
X4571071Y-9360357D01*
X4585357Y-9417500D01*
X4585357Y-9488929D01*
X4571071Y-9546072D01*
X4556786Y-9574643D01*
X4542500Y-9588929D01*
X4513929Y-9603214D01*
X4485357Y-9603214D01*
X4456786Y-9588929D01*
X4442500Y-9574643D01*
X4428214Y-9546072D01*
X4413929Y-9488929D01*
X4413929Y-9417500D01*
X4428214Y-9360357D01*
X4442500Y-9331786D01*
X4456786Y-9317500D01*
X4485357Y-9303214D01*
X4713929Y-9603214D02*
X4713929Y-9403214D01*
X4713929Y-9431786D02*
X4728214Y-9417500D01*
X4756786Y-9403214D01*
X4799643Y-9403214D01*
X4828214Y-9417500D01*
X4842500Y-9446072D01*
X4842500Y-9603214D01*
X4842500Y-9446072D02*
X4856786Y-9417500D01*
X4885357Y-9403214D01*
X4928214Y-9403214D01*
X4956786Y-9417500D01*
X4971071Y-9446072D01*
X4971071Y-9603214D01*
X5113929Y-9603214D02*
X5113929Y-9403214D01*
X5113929Y-9431786D02*
X5128214Y-9417500D01*
X5156786Y-9403214D01*
X5199643Y-9403214D01*
X5228214Y-9417500D01*
X5242500Y-9446072D01*
X5242500Y-9603214D01*
X5242500Y-9446072D02*
X5256786Y-9417500D01*
X5285357Y-9403214D01*
X5328214Y-9403214D01*
X5356786Y-9417500D01*
X5371071Y-9446072D01*
X5371071Y-9603214D01*
X5956786Y-9288929D02*
X5699643Y-9674643D01*
X6342500Y-9303214D02*
X6371071Y-9303214D01*
X6399643Y-9317500D01*
X6413928Y-9331786D01*
X6428214Y-9360357D01*
X6442500Y-9417500D01*
X6442500Y-9488929D01*
X6428214Y-9546072D01*
X6413928Y-9574643D01*
X6399643Y-9588929D01*
X6371071Y-9603214D01*
X6342500Y-9603214D01*
X6313928Y-9588929D01*
X6299643Y-9574643D01*
X6285357Y-9546072D01*
X6271071Y-9488929D01*
X6271071Y-9417500D01*
X6285357Y-9360357D01*
X6299643Y-9331786D01*
X6313928Y-9317500D01*
X6342500Y-9303214D01*
X6571071Y-9574643D02*
X6585357Y-9588929D01*
X6571071Y-9603214D01*
X6556786Y-9588929D01*
X6571071Y-9574643D01*
X6571071Y-9603214D01*
X6771071Y-9303214D02*
X6799643Y-9303214D01*
X6828214Y-9317500D01*
X6842500Y-9331786D01*
X6856785Y-9360357D01*
X6871071Y-9417500D01*
X6871071Y-9488929D01*
X6856785Y-9546072D01*
X6842500Y-9574643D01*
X6828214Y-9588929D01*
X6799643Y-9603214D01*
X6771071Y-9603214D01*
X6742500Y-9588929D01*
X6728214Y-9574643D01*
X6713928Y-9546072D01*
X6699643Y-9488929D01*
X6699643Y-9417500D01*
X6713928Y-9360357D01*
X6728214Y-9331786D01*
X6742500Y-9317500D01*
X6771071Y-9303214D01*
X6985357Y-9331786D02*
X6999643Y-9317500D01*
X7028214Y-9303214D01*
X7099643Y-9303214D01*
X7128214Y-9317500D01*
X7142500Y-9331786D01*
X7156785Y-9360357D01*
X7156785Y-9388929D01*
X7142500Y-9431786D01*
X6971071Y-9603214D01*
X7156785Y-9603214D01*
X7342500Y-9303214D02*
X7371071Y-9303214D01*
X7399643Y-9317500D01*
X7413928Y-9331786D01*
X7428214Y-9360357D01*
X7442500Y-9417500D01*
X7442500Y-9488929D01*
X7428214Y-9546072D01*
X7413928Y-9574643D01*
X7399643Y-9588929D01*
X7371071Y-9603214D01*
X7342500Y-9603214D01*
X7313928Y-9588929D01*
X7299643Y-9574643D01*
X7285357Y-9546072D01*
X7271071Y-9488929D01*
X7271071Y-9417500D01*
X7285357Y-9360357D01*
X7299643Y-9331786D01*
X7313928Y-9317500D01*
X7342500Y-9303214D01*
X7556786Y-9303214D02*
X7556786Y-9360357D01*
X7671071Y-9303214D02*
X7671071Y-9360357D01*
X8113928Y-9717500D02*
X8099643Y-9703214D01*
X8071071Y-9660357D01*
X8056785Y-9631786D01*
X8042500Y-9588929D01*
X8028214Y-9517500D01*
X8028214Y-9460357D01*
X8042500Y-9388929D01*
X8056785Y-9346072D01*
X8071071Y-9317500D01*
X8099643Y-9274643D01*
X8113928Y-9260357D01*
X8385357Y-9603214D02*
X8213928Y-9603214D01*
X8299643Y-9603214D02*
X8299643Y-9303214D01*
X8271071Y-9346072D01*
X8242500Y-9374643D01*
X8213928Y-9388929D01*
X8556786Y-9431786D02*
X8528214Y-9417500D01*
X8513928Y-9403214D01*
X8499643Y-9374643D01*
X8499643Y-9360357D01*
X8513928Y-9331786D01*
X8528214Y-9317500D01*
X8556786Y-9303214D01*
X8613928Y-9303214D01*
X8642500Y-9317500D01*
X8656786Y-9331786D01*
X8671071Y-9360357D01*
X8671071Y-9374643D01*
X8656786Y-9403214D01*
X8642500Y-9417500D01*
X8613928Y-9431786D01*
X8556786Y-9431786D01*
X8528214Y-9446072D01*
X8513928Y-9460357D01*
X8499643Y-9488929D01*
X8499643Y-9546072D01*
X8513928Y-9574643D01*
X8528214Y-9588929D01*
X8556786Y-9603214D01*
X8613928Y-9603214D01*
X8642500Y-9588929D01*
X8656786Y-9574643D01*
X8671071Y-9546072D01*
X8671071Y-9488929D01*
X8656786Y-9460357D01*
X8642500Y-9446072D01*
X8613928Y-9431786D01*
X9028214Y-9603214D02*
X9028214Y-9303214D01*
X9156786Y-9603214D02*
X9156786Y-9446072D01*
X9142500Y-9417500D01*
X9113928Y-9403214D01*
X9071071Y-9403214D01*
X9042500Y-9417500D01*
X9028214Y-9431786D01*
X9342500Y-9603214D02*
X9313928Y-9588929D01*
X9299643Y-9574643D01*
X9285357Y-9546072D01*
X9285357Y-9460357D01*
X9299643Y-9431786D01*
X9313928Y-9417500D01*
X9342500Y-9403214D01*
X9385357Y-9403214D01*
X9413928Y-9417500D01*
X9428214Y-9431786D01*
X9442500Y-9460357D01*
X9442500Y-9546072D01*
X9428214Y-9574643D01*
X9413928Y-9588929D01*
X9385357Y-9603214D01*
X9342500Y-9603214D01*
X9613928Y-9603214D02*
X9585357Y-9588929D01*
X9571071Y-9560357D01*
X9571071Y-9303214D01*
X9842500Y-9588929D02*
X9813929Y-9603214D01*
X9756786Y-9603214D01*
X9728214Y-9588929D01*
X9713929Y-9560357D01*
X9713929Y-9446072D01*
X9728214Y-9417500D01*
X9756786Y-9403214D01*
X9813929Y-9403214D01*
X9842500Y-9417500D01*
X9856786Y-9446072D01*
X9856786Y-9474643D01*
X9713929Y-9503214D01*
X9971071Y-9588929D02*
X9999643Y-9603214D01*
X10056786Y-9603214D01*
X10085357Y-9588929D01*
X10099643Y-9560357D01*
X10099643Y-9546072D01*
X10085357Y-9517500D01*
X10056786Y-9503214D01*
X10013929Y-9503214D01*
X9985357Y-9488929D01*
X9971071Y-9460357D01*
X9971071Y-9446072D01*
X9985357Y-9417500D01*
X10013929Y-9403214D01*
X10056786Y-9403214D01*
X10085357Y-9417500D01*
X10199643Y-9717500D02*
X10213929Y-9703214D01*
X10242500Y-9660357D01*
X10256786Y-9631786D01*
X10271071Y-9588929D01*
X10285357Y-9517500D01*
X10285357Y-9460357D01*
X10271071Y-9388929D01*
X10256786Y-9346072D01*
X10242500Y-9317500D01*
X10213929Y-9274643D01*
X10199643Y-9260357D01*
X3442500Y-9863500D02*
G75*
G03X3442500Y-9863500I-40000J0D01*
G01*
X3771071Y-9699214D02*
X3799643Y-9699214D01*
X3828214Y-9713500D01*
X3842500Y-9727786D01*
X3856786Y-9756357D01*
X3871071Y-9813500D01*
X3871071Y-9884929D01*
X3856786Y-9942072D01*
X3842500Y-9970643D01*
X3828214Y-9984929D01*
X3799643Y-9999214D01*
X3771071Y-9999214D01*
X3742500Y-9984929D01*
X3728214Y-9970643D01*
X3713928Y-9942072D01*
X3699643Y-9884929D01*
X3699643Y-9813500D01*
X3713928Y-9756357D01*
X3728214Y-9727786D01*
X3742500Y-9713500D01*
X3771071Y-9699214D01*
X3999643Y-9970643D02*
X4013928Y-9984929D01*
X3999643Y-9999214D01*
X3985357Y-9984929D01*
X3999643Y-9970643D01*
X3999643Y-9999214D01*
X4185357Y-9827786D02*
X4156786Y-9813500D01*
X4142500Y-9799214D01*
X4128214Y-9770643D01*
X4128214Y-9756357D01*
X4142500Y-9727786D01*
X4156786Y-9713500D01*
X4185357Y-9699214D01*
X4242500Y-9699214D01*
X4271071Y-9713500D01*
X4285357Y-9727786D01*
X4299643Y-9756357D01*
X4299643Y-9770643D01*
X4285357Y-9799214D01*
X4271071Y-9813500D01*
X4242500Y-9827786D01*
X4185357Y-9827786D01*
X4156786Y-9842072D01*
X4142500Y-9856357D01*
X4128214Y-9884929D01*
X4128214Y-9942072D01*
X4142500Y-9970643D01*
X4156786Y-9984929D01*
X4185357Y-9999214D01*
X4242500Y-9999214D01*
X4271071Y-9984929D01*
X4285357Y-9970643D01*
X4299643Y-9942072D01*
X4299643Y-9884929D01*
X4285357Y-9856357D01*
X4271071Y-9842072D01*
X4242500Y-9827786D01*
X4485357Y-9699214D02*
X4513929Y-9699214D01*
X4542500Y-9713500D01*
X4556786Y-9727786D01*
X4571071Y-9756357D01*
X4585357Y-9813500D01*
X4585357Y-9884929D01*
X4571071Y-9942072D01*
X4556786Y-9970643D01*
X4542500Y-9984929D01*
X4513929Y-9999214D01*
X4485357Y-9999214D01*
X4456786Y-9984929D01*
X4442500Y-9970643D01*
X4428214Y-9942072D01*
X4413929Y-9884929D01*
X4413929Y-9813500D01*
X4428214Y-9756357D01*
X4442500Y-9727786D01*
X4456786Y-9713500D01*
X4485357Y-9699214D01*
X4713929Y-9999214D02*
X4713929Y-9799214D01*
X4713929Y-9827786D02*
X4728214Y-9813500D01*
X4756786Y-9799214D01*
X4799643Y-9799214D01*
X4828214Y-9813500D01*
X4842500Y-9842072D01*
X4842500Y-9999214D01*
X4842500Y-9842072D02*
X4856786Y-9813500D01*
X4885357Y-9799214D01*
X4928214Y-9799214D01*
X4956786Y-9813500D01*
X4971071Y-9842072D01*
X4971071Y-9999214D01*
X5113929Y-9999214D02*
X5113929Y-9799214D01*
X5113929Y-9827786D02*
X5128214Y-9813500D01*
X5156786Y-9799214D01*
X5199643Y-9799214D01*
X5228214Y-9813500D01*
X5242500Y-9842072D01*
X5242500Y-9999214D01*
X5242500Y-9842072D02*
X5256786Y-9813500D01*
X5285357Y-9799214D01*
X5328214Y-9799214D01*
X5356786Y-9813500D01*
X5371071Y-9842072D01*
X5371071Y-9999214D01*
X5956786Y-9684929D02*
X5699643Y-10070643D01*
X6342500Y-9699214D02*
X6371071Y-9699214D01*
X6399643Y-9713500D01*
X6413928Y-9727786D01*
X6428214Y-9756357D01*
X6442500Y-9813500D01*
X6442500Y-9884929D01*
X6428214Y-9942072D01*
X6413928Y-9970643D01*
X6399643Y-9984929D01*
X6371071Y-9999214D01*
X6342500Y-9999214D01*
X6313928Y-9984929D01*
X6299643Y-9970643D01*
X6285357Y-9942072D01*
X6271071Y-9884929D01*
X6271071Y-9813500D01*
X6285357Y-9756357D01*
X6299643Y-9727786D01*
X6313928Y-9713500D01*
X6342500Y-9699214D01*
X6571071Y-9970643D02*
X6585357Y-9984929D01*
X6571071Y-9999214D01*
X6556786Y-9984929D01*
X6571071Y-9970643D01*
X6571071Y-9999214D01*
X6771071Y-9699214D02*
X6799643Y-9699214D01*
X6828214Y-9713500D01*
X6842500Y-9727786D01*
X6856785Y-9756357D01*
X6871071Y-9813500D01*
X6871071Y-9884929D01*
X6856785Y-9942072D01*
X6842500Y-9970643D01*
X6828214Y-9984929D01*
X6799643Y-9999214D01*
X6771071Y-9999214D01*
X6742500Y-9984929D01*
X6728214Y-9970643D01*
X6713928Y-9942072D01*
X6699643Y-9884929D01*
X6699643Y-9813500D01*
X6713928Y-9756357D01*
X6728214Y-9727786D01*
X6742500Y-9713500D01*
X6771071Y-9699214D01*
X6971071Y-9699214D02*
X7156785Y-9699214D01*
X7056785Y-9813500D01*
X7099643Y-9813500D01*
X7128214Y-9827786D01*
X7142500Y-9842072D01*
X7156785Y-9870643D01*
X7156785Y-9942072D01*
X7142500Y-9970643D01*
X7128214Y-9984929D01*
X7099643Y-9999214D01*
X7013928Y-9999214D01*
X6985357Y-9984929D01*
X6971071Y-9970643D01*
X7442500Y-9999214D02*
X7271071Y-9999214D01*
X7356785Y-9999214D02*
X7356785Y-9699214D01*
X7328214Y-9742072D01*
X7299643Y-9770643D01*
X7271071Y-9784929D01*
X7556786Y-9699214D02*
X7556786Y-9756357D01*
X7671071Y-9699214D02*
X7671071Y-9756357D01*
X8113928Y-10113500D02*
X8099643Y-10099214D01*
X8071071Y-10056357D01*
X8056785Y-10027786D01*
X8042500Y-9984929D01*
X8028214Y-9913500D01*
X8028214Y-9856357D01*
X8042500Y-9784929D01*
X8056785Y-9742072D01*
X8071071Y-9713500D01*
X8099643Y-9670643D01*
X8113928Y-9656357D01*
X8385357Y-9999214D02*
X8213928Y-9999214D01*
X8299643Y-9999214D02*
X8299643Y-9699214D01*
X8271071Y-9742072D01*
X8242500Y-9770643D01*
X8213928Y-9784929D01*
X8642500Y-9699214D02*
X8585357Y-9699214D01*
X8556786Y-9713500D01*
X8542500Y-9727786D01*
X8513928Y-9770643D01*
X8499643Y-9827786D01*
X8499643Y-9942072D01*
X8513928Y-9970643D01*
X8528214Y-9984929D01*
X8556786Y-9999214D01*
X8613928Y-9999214D01*
X8642500Y-9984929D01*
X8656786Y-9970643D01*
X8671071Y-9942072D01*
X8671071Y-9870643D01*
X8656786Y-9842072D01*
X8642500Y-9827786D01*
X8613928Y-9813500D01*
X8556786Y-9813500D01*
X8528214Y-9827786D01*
X8513928Y-9842072D01*
X8499643Y-9870643D01*
X9028214Y-9999214D02*
X9028214Y-9699214D01*
X9156786Y-9999214D02*
X9156786Y-9842072D01*
X9142500Y-9813500D01*
X9113928Y-9799214D01*
X9071071Y-9799214D01*
X9042500Y-9813500D01*
X9028214Y-9827786D01*
X9342500Y-9999214D02*
X9313928Y-9984929D01*
X9299643Y-9970643D01*
X9285357Y-9942072D01*
X9285357Y-9856357D01*
X9299643Y-9827786D01*
X9313928Y-9813500D01*
X9342500Y-9799214D01*
X9385357Y-9799214D01*
X9413928Y-9813500D01*
X9428214Y-9827786D01*
X9442500Y-9856357D01*
X9442500Y-9942072D01*
X9428214Y-9970643D01*
X9413928Y-9984929D01*
X9385357Y-9999214D01*
X9342500Y-9999214D01*
X9613928Y-9999214D02*
X9585357Y-9984929D01*
X9571071Y-9956357D01*
X9571071Y-9699214D01*
X9842500Y-9984929D02*
X9813929Y-9999214D01*
X9756786Y-9999214D01*
X9728214Y-9984929D01*
X9713929Y-9956357D01*
X9713929Y-9842072D01*
X9728214Y-9813500D01*
X9756786Y-9799214D01*
X9813929Y-9799214D01*
X9842500Y-9813500D01*
X9856786Y-9842072D01*
X9856786Y-9870643D01*
X9713929Y-9899214D01*
X9971071Y-9984929D02*
X9999643Y-9999214D01*
X10056786Y-9999214D01*
X10085357Y-9984929D01*
X10099643Y-9956357D01*
X10099643Y-9942072D01*
X10085357Y-9913500D01*
X10056786Y-9899214D01*
X10013929Y-9899214D01*
X9985357Y-9884929D01*
X9971071Y-9856357D01*
X9971071Y-9842072D01*
X9985357Y-9813500D01*
X10013929Y-9799214D01*
X10056786Y-9799214D01*
X10085357Y-9813500D01*
X10199643Y-10113500D02*
X10213929Y-10099214D01*
X10242500Y-10056357D01*
X10256786Y-10027786D01*
X10271071Y-9984929D01*
X10285357Y-9913500D01*
X10285357Y-9856357D01*
X10271071Y-9784929D01*
X10256786Y-9742072D01*
X10242500Y-9713500D01*
X10213929Y-9670643D01*
X10199643Y-9656357D01*
X3401860Y-10218860D02*
X3401860Y-10300140D01*
X3361220Y-10259500D02*
X3442500Y-10259500D01*
X3771071Y-10095214D02*
X3799643Y-10095214D01*
X3828214Y-10109500D01*
X3842500Y-10123786D01*
X3856786Y-10152357D01*
X3871071Y-10209500D01*
X3871071Y-10280929D01*
X3856786Y-10338072D01*
X3842500Y-10366643D01*
X3828214Y-10380929D01*
X3799643Y-10395214D01*
X3771071Y-10395214D01*
X3742500Y-10380929D01*
X3728214Y-10366643D01*
X3713928Y-10338072D01*
X3699643Y-10280929D01*
X3699643Y-10209500D01*
X3713928Y-10152357D01*
X3728214Y-10123786D01*
X3742500Y-10109500D01*
X3771071Y-10095214D01*
X3999643Y-10366643D02*
X4013928Y-10380929D01*
X3999643Y-10395214D01*
X3985357Y-10380929D01*
X3999643Y-10366643D01*
X3999643Y-10395214D01*
X4185357Y-10223786D02*
X4156786Y-10209500D01*
X4142500Y-10195214D01*
X4128214Y-10166643D01*
X4128214Y-10152357D01*
X4142500Y-10123786D01*
X4156786Y-10109500D01*
X4185357Y-10095214D01*
X4242500Y-10095214D01*
X4271071Y-10109500D01*
X4285357Y-10123786D01*
X4299643Y-10152357D01*
X4299643Y-10166643D01*
X4285357Y-10195214D01*
X4271071Y-10209500D01*
X4242500Y-10223786D01*
X4185357Y-10223786D01*
X4156786Y-10238072D01*
X4142500Y-10252357D01*
X4128214Y-10280929D01*
X4128214Y-10338072D01*
X4142500Y-10366643D01*
X4156786Y-10380929D01*
X4185357Y-10395214D01*
X4242500Y-10395214D01*
X4271071Y-10380929D01*
X4285357Y-10366643D01*
X4299643Y-10338072D01*
X4299643Y-10280929D01*
X4285357Y-10252357D01*
X4271071Y-10238072D01*
X4242500Y-10223786D01*
X4585357Y-10395214D02*
X4413929Y-10395214D01*
X4499643Y-10395214D02*
X4499643Y-10095214D01*
X4471071Y-10138072D01*
X4442500Y-10166643D01*
X4413929Y-10180929D01*
X4713929Y-10395214D02*
X4713929Y-10195214D01*
X4713929Y-10223786D02*
X4728214Y-10209500D01*
X4756786Y-10195214D01*
X4799643Y-10195214D01*
X4828214Y-10209500D01*
X4842500Y-10238072D01*
X4842500Y-10395214D01*
X4842500Y-10238072D02*
X4856786Y-10209500D01*
X4885357Y-10195214D01*
X4928214Y-10195214D01*
X4956786Y-10209500D01*
X4971071Y-10238072D01*
X4971071Y-10395214D01*
X5113929Y-10395214D02*
X5113929Y-10195214D01*
X5113929Y-10223786D02*
X5128214Y-10209500D01*
X5156786Y-10195214D01*
X5199643Y-10195214D01*
X5228214Y-10209500D01*
X5242500Y-10238072D01*
X5242500Y-10395214D01*
X5242500Y-10238072D02*
X5256786Y-10209500D01*
X5285357Y-10195214D01*
X5328214Y-10195214D01*
X5356786Y-10209500D01*
X5371071Y-10238072D01*
X5371071Y-10395214D01*
X5956786Y-10080929D02*
X5699643Y-10466643D01*
X6342500Y-10095214D02*
X6371071Y-10095214D01*
X6399643Y-10109500D01*
X6413928Y-10123786D01*
X6428214Y-10152357D01*
X6442500Y-10209500D01*
X6442500Y-10280929D01*
X6428214Y-10338072D01*
X6413928Y-10366643D01*
X6399643Y-10380929D01*
X6371071Y-10395214D01*
X6342500Y-10395214D01*
X6313928Y-10380929D01*
X6299643Y-10366643D01*
X6285357Y-10338072D01*
X6271071Y-10280929D01*
X6271071Y-10209500D01*
X6285357Y-10152357D01*
X6299643Y-10123786D01*
X6313928Y-10109500D01*
X6342500Y-10095214D01*
X6571071Y-10366643D02*
X6585357Y-10380929D01*
X6571071Y-10395214D01*
X6556786Y-10380929D01*
X6571071Y-10366643D01*
X6571071Y-10395214D01*
X6771071Y-10095214D02*
X6799643Y-10095214D01*
X6828214Y-10109500D01*
X6842500Y-10123786D01*
X6856785Y-10152357D01*
X6871071Y-10209500D01*
X6871071Y-10280929D01*
X6856785Y-10338072D01*
X6842500Y-10366643D01*
X6828214Y-10380929D01*
X6799643Y-10395214D01*
X6771071Y-10395214D01*
X6742500Y-10380929D01*
X6728214Y-10366643D01*
X6713928Y-10338072D01*
X6699643Y-10280929D01*
X6699643Y-10209500D01*
X6713928Y-10152357D01*
X6728214Y-10123786D01*
X6742500Y-10109500D01*
X6771071Y-10095214D01*
X6971071Y-10095214D02*
X7156785Y-10095214D01*
X7056785Y-10209500D01*
X7099643Y-10209500D01*
X7128214Y-10223786D01*
X7142500Y-10238072D01*
X7156785Y-10266643D01*
X7156785Y-10338072D01*
X7142500Y-10366643D01*
X7128214Y-10380929D01*
X7099643Y-10395214D01*
X7013928Y-10395214D01*
X6985357Y-10380929D01*
X6971071Y-10366643D01*
X7271071Y-10123786D02*
X7285357Y-10109500D01*
X7313928Y-10095214D01*
X7385357Y-10095214D01*
X7413928Y-10109500D01*
X7428214Y-10123786D01*
X7442500Y-10152357D01*
X7442500Y-10180929D01*
X7428214Y-10223786D01*
X7256785Y-10395214D01*
X7442500Y-10395214D01*
X7556786Y-10095214D02*
X7556786Y-10152357D01*
X7671071Y-10095214D02*
X7671071Y-10152357D01*
X8113928Y-10509500D02*
X8099643Y-10495214D01*
X8071071Y-10452357D01*
X8056785Y-10423786D01*
X8042500Y-10380929D01*
X8028214Y-10309500D01*
X8028214Y-10252357D01*
X8042500Y-10180929D01*
X8056785Y-10138072D01*
X8071071Y-10109500D01*
X8099643Y-10066643D01*
X8113928Y-10052357D01*
X8213928Y-10123786D02*
X8228214Y-10109500D01*
X8256785Y-10095214D01*
X8328214Y-10095214D01*
X8356785Y-10109500D01*
X8371071Y-10123786D01*
X8385357Y-10152357D01*
X8385357Y-10180929D01*
X8371071Y-10223786D01*
X8199643Y-10395214D01*
X8385357Y-10395214D01*
X8642500Y-10195214D02*
X8642500Y-10395214D01*
X8571071Y-10080929D02*
X8499643Y-10295214D01*
X8685357Y-10295214D01*
X9028214Y-10395214D02*
X9028214Y-10095214D01*
X9156786Y-10395214D02*
X9156786Y-10238072D01*
X9142500Y-10209500D01*
X9113928Y-10195214D01*
X9071071Y-10195214D01*
X9042500Y-10209500D01*
X9028214Y-10223786D01*
X9342500Y-10395214D02*
X9313928Y-10380929D01*
X9299643Y-10366643D01*
X9285357Y-10338072D01*
X9285357Y-10252357D01*
X9299643Y-10223786D01*
X9313928Y-10209500D01*
X9342500Y-10195214D01*
X9385357Y-10195214D01*
X9413928Y-10209500D01*
X9428214Y-10223786D01*
X9442500Y-10252357D01*
X9442500Y-10338072D01*
X9428214Y-10366643D01*
X9413928Y-10380929D01*
X9385357Y-10395214D01*
X9342500Y-10395214D01*
X9613928Y-10395214D02*
X9585357Y-10380929D01*
X9571071Y-10352357D01*
X9571071Y-10095214D01*
X9842500Y-10380929D02*
X9813929Y-10395214D01*
X9756786Y-10395214D01*
X9728214Y-10380929D01*
X9713929Y-10352357D01*
X9713929Y-10238072D01*
X9728214Y-10209500D01*
X9756786Y-10195214D01*
X9813929Y-10195214D01*
X9842500Y-10209500D01*
X9856786Y-10238072D01*
X9856786Y-10266643D01*
X9713929Y-10295214D01*
X9971071Y-10380929D02*
X9999643Y-10395214D01*
X10056786Y-10395214D01*
X10085357Y-10380929D01*
X10099643Y-10352357D01*
X10099643Y-10338072D01*
X10085357Y-10309500D01*
X10056786Y-10295214D01*
X10013929Y-10295214D01*
X9985357Y-10280929D01*
X9971071Y-10252357D01*
X9971071Y-10238072D01*
X9985357Y-10209500D01*
X10013929Y-10195214D01*
X10056786Y-10195214D01*
X10085357Y-10209500D01*
X10199643Y-10509500D02*
X10213929Y-10495214D01*
X10242500Y-10452357D01*
X10256786Y-10423786D01*
X10271071Y-10380929D01*
X10285357Y-10309500D01*
X10285357Y-10252357D01*
X10271071Y-10180929D01*
X10256786Y-10138072D01*
X10242500Y-10109500D01*
X10213929Y-10066643D01*
X10199643Y-10052357D01*
X3427856Y-10690856D02*
X3427856Y-10620144D01*
X3357144Y-10620144D01*
X3357144Y-10690856D01*
X3427856Y-10690856D01*
X3871071Y-10791214D02*
X3699643Y-10791214D01*
X3785357Y-10791214D02*
X3785357Y-10491214D01*
X3756786Y-10534072D01*
X3728214Y-10562643D01*
X3699643Y-10576929D01*
X3999643Y-10762643D02*
X4013928Y-10776929D01*
X3999643Y-10791214D01*
X3985357Y-10776929D01*
X3999643Y-10762643D01*
X3999643Y-10791214D01*
X4199643Y-10491214D02*
X4228214Y-10491214D01*
X4256786Y-10505500D01*
X4271071Y-10519786D01*
X4285357Y-10548357D01*
X4299643Y-10605500D01*
X4299643Y-10676929D01*
X4285357Y-10734072D01*
X4271071Y-10762643D01*
X4256786Y-10776929D01*
X4228214Y-10791214D01*
X4199643Y-10791214D01*
X4171071Y-10776929D01*
X4156786Y-10762643D01*
X4142500Y-10734072D01*
X4128214Y-10676929D01*
X4128214Y-10605500D01*
X4142500Y-10548357D01*
X4156786Y-10519786D01*
X4171071Y-10505500D01*
X4199643Y-10491214D01*
X4485357Y-10491214D02*
X4513929Y-10491214D01*
X4542500Y-10505500D01*
X4556786Y-10519786D01*
X4571071Y-10548357D01*
X4585357Y-10605500D01*
X4585357Y-10676929D01*
X4571071Y-10734072D01*
X4556786Y-10762643D01*
X4542500Y-10776929D01*
X4513929Y-10791214D01*
X4485357Y-10791214D01*
X4456786Y-10776929D01*
X4442500Y-10762643D01*
X4428214Y-10734072D01*
X4413929Y-10676929D01*
X4413929Y-10605500D01*
X4428214Y-10548357D01*
X4442500Y-10519786D01*
X4456786Y-10505500D01*
X4485357Y-10491214D01*
X4713929Y-10791214D02*
X4713929Y-10591214D01*
X4713929Y-10619786D02*
X4728214Y-10605500D01*
X4756786Y-10591214D01*
X4799643Y-10591214D01*
X4828214Y-10605500D01*
X4842500Y-10634072D01*
X4842500Y-10791214D01*
X4842500Y-10634072D02*
X4856786Y-10605500D01*
X4885357Y-10591214D01*
X4928214Y-10591214D01*
X4956786Y-10605500D01*
X4971071Y-10634072D01*
X4971071Y-10791214D01*
X5113929Y-10791214D02*
X5113929Y-10591214D01*
X5113929Y-10619786D02*
X5128214Y-10605500D01*
X5156786Y-10591214D01*
X5199643Y-10591214D01*
X5228214Y-10605500D01*
X5242500Y-10634072D01*
X5242500Y-10791214D01*
X5242500Y-10634072D02*
X5256786Y-10605500D01*
X5285357Y-10591214D01*
X5328214Y-10591214D01*
X5356786Y-10605500D01*
X5371071Y-10634072D01*
X5371071Y-10791214D01*
X5956786Y-10476929D02*
X5699643Y-10862643D01*
X6342500Y-10491214D02*
X6371071Y-10491214D01*
X6399643Y-10505500D01*
X6413928Y-10519786D01*
X6428214Y-10548357D01*
X6442500Y-10605500D01*
X6442500Y-10676929D01*
X6428214Y-10734072D01*
X6413928Y-10762643D01*
X6399643Y-10776929D01*
X6371071Y-10791214D01*
X6342500Y-10791214D01*
X6313928Y-10776929D01*
X6299643Y-10762643D01*
X6285357Y-10734072D01*
X6271071Y-10676929D01*
X6271071Y-10605500D01*
X6285357Y-10548357D01*
X6299643Y-10519786D01*
X6313928Y-10505500D01*
X6342500Y-10491214D01*
X6571071Y-10762643D02*
X6585357Y-10776929D01*
X6571071Y-10791214D01*
X6556786Y-10776929D01*
X6571071Y-10762643D01*
X6571071Y-10791214D01*
X6771071Y-10491214D02*
X6799643Y-10491214D01*
X6828214Y-10505500D01*
X6842500Y-10519786D01*
X6856785Y-10548357D01*
X6871071Y-10605500D01*
X6871071Y-10676929D01*
X6856785Y-10734072D01*
X6842500Y-10762643D01*
X6828214Y-10776929D01*
X6799643Y-10791214D01*
X6771071Y-10791214D01*
X6742500Y-10776929D01*
X6728214Y-10762643D01*
X6713928Y-10734072D01*
X6699643Y-10676929D01*
X6699643Y-10605500D01*
X6713928Y-10548357D01*
X6728214Y-10519786D01*
X6742500Y-10505500D01*
X6771071Y-10491214D01*
X6971071Y-10491214D02*
X7156785Y-10491214D01*
X7056785Y-10605500D01*
X7099643Y-10605500D01*
X7128214Y-10619786D01*
X7142500Y-10634072D01*
X7156785Y-10662643D01*
X7156785Y-10734072D01*
X7142500Y-10762643D01*
X7128214Y-10776929D01*
X7099643Y-10791214D01*
X7013928Y-10791214D01*
X6985357Y-10776929D01*
X6971071Y-10762643D01*
X7299643Y-10791214D02*
X7356785Y-10791214D01*
X7385357Y-10776929D01*
X7399643Y-10762643D01*
X7428214Y-10719786D01*
X7442500Y-10662643D01*
X7442500Y-10548357D01*
X7428214Y-10519786D01*
X7413928Y-10505500D01*
X7385357Y-10491214D01*
X7328214Y-10491214D01*
X7299643Y-10505500D01*
X7285357Y-10519786D01*
X7271071Y-10548357D01*
X7271071Y-10619786D01*
X7285357Y-10648357D01*
X7299643Y-10662643D01*
X7328214Y-10676929D01*
X7385357Y-10676929D01*
X7413928Y-10662643D01*
X7428214Y-10648357D01*
X7442500Y-10619786D01*
X7556786Y-10491214D02*
X7556786Y-10548357D01*
X7671071Y-10491214D02*
X7671071Y-10548357D01*
X8113928Y-10905500D02*
X8099643Y-10891214D01*
X8071071Y-10848357D01*
X8056785Y-10819786D01*
X8042500Y-10776929D01*
X8028214Y-10705500D01*
X8028214Y-10648357D01*
X8042500Y-10576929D01*
X8056785Y-10534072D01*
X8071071Y-10505500D01*
X8099643Y-10462643D01*
X8113928Y-10448357D01*
X8213928Y-10519786D02*
X8228214Y-10505500D01*
X8256785Y-10491214D01*
X8328214Y-10491214D01*
X8356785Y-10505500D01*
X8371071Y-10519786D01*
X8385357Y-10548357D01*
X8385357Y-10576929D01*
X8371071Y-10619786D01*
X8199643Y-10791214D01*
X8385357Y-10791214D01*
X8571071Y-10491214D02*
X8599643Y-10491214D01*
X8628214Y-10505500D01*
X8642500Y-10519786D01*
X8656786Y-10548357D01*
X8671071Y-10605500D01*
X8671071Y-10676929D01*
X8656786Y-10734072D01*
X8642500Y-10762643D01*
X8628214Y-10776929D01*
X8599643Y-10791214D01*
X8571071Y-10791214D01*
X8542500Y-10776929D01*
X8528214Y-10762643D01*
X8513928Y-10734072D01*
X8499643Y-10676929D01*
X8499643Y-10605500D01*
X8513928Y-10548357D01*
X8528214Y-10519786D01*
X8542500Y-10505500D01*
X8571071Y-10491214D01*
X9028214Y-10791214D02*
X9028214Y-10491214D01*
X9156786Y-10791214D02*
X9156786Y-10634072D01*
X9142500Y-10605500D01*
X9113928Y-10591214D01*
X9071071Y-10591214D01*
X9042500Y-10605500D01*
X9028214Y-10619786D01*
X9342500Y-10791214D02*
X9313928Y-10776929D01*
X9299643Y-10762643D01*
X9285357Y-10734072D01*
X9285357Y-10648357D01*
X9299643Y-10619786D01*
X9313928Y-10605500D01*
X9342500Y-10591214D01*
X9385357Y-10591214D01*
X9413928Y-10605500D01*
X9428214Y-10619786D01*
X9442500Y-10648357D01*
X9442500Y-10734072D01*
X9428214Y-10762643D01*
X9413928Y-10776929D01*
X9385357Y-10791214D01*
X9342500Y-10791214D01*
X9613928Y-10791214D02*
X9585357Y-10776929D01*
X9571071Y-10748357D01*
X9571071Y-10491214D01*
X9842500Y-10776929D02*
X9813929Y-10791214D01*
X9756786Y-10791214D01*
X9728214Y-10776929D01*
X9713929Y-10748357D01*
X9713929Y-10634072D01*
X9728214Y-10605500D01*
X9756786Y-10591214D01*
X9813929Y-10591214D01*
X9842500Y-10605500D01*
X9856786Y-10634072D01*
X9856786Y-10662643D01*
X9713929Y-10691214D01*
X9971071Y-10776929D02*
X9999643Y-10791214D01*
X10056786Y-10791214D01*
X10085357Y-10776929D01*
X10099643Y-10748357D01*
X10099643Y-10734072D01*
X10085357Y-10705500D01*
X10056786Y-10691214D01*
X10013929Y-10691214D01*
X9985357Y-10676929D01*
X9971071Y-10648357D01*
X9971071Y-10634072D01*
X9985357Y-10605500D01*
X10013929Y-10591214D01*
X10056786Y-10591214D01*
X10085357Y-10605500D01*
X10199643Y-10905500D02*
X10213929Y-10891214D01*
X10242500Y-10848357D01*
X10256786Y-10819786D01*
X10271071Y-10776929D01*
X10285357Y-10705500D01*
X10285357Y-10648357D01*
X10271071Y-10576929D01*
X10256786Y-10534072D01*
X10242500Y-10505500D01*
X10213929Y-10462643D01*
X10199643Y-10448357D01*
X3372650Y-11121350D02*
X3442500Y-11051500D01*
X3372650Y-10981650D01*
X3302800Y-11051500D01*
X3372650Y-11121350D01*
X3871071Y-11187214D02*
X3699643Y-11187214D01*
X3785357Y-11187214D02*
X3785357Y-10887214D01*
X3756786Y-10930072D01*
X3728214Y-10958643D01*
X3699643Y-10972929D01*
X3999643Y-11158643D02*
X4013928Y-11172929D01*
X3999643Y-11187214D01*
X3985357Y-11172929D01*
X3999643Y-11158643D01*
X3999643Y-11187214D01*
X4271071Y-10987214D02*
X4271071Y-11187214D01*
X4199643Y-10872929D02*
X4128214Y-11087214D01*
X4313928Y-11087214D01*
X4485357Y-10887214D02*
X4513929Y-10887214D01*
X4542500Y-10901500D01*
X4556786Y-10915786D01*
X4571071Y-10944357D01*
X4585357Y-11001500D01*
X4585357Y-11072929D01*
X4571071Y-11130072D01*
X4556786Y-11158643D01*
X4542500Y-11172929D01*
X4513929Y-11187214D01*
X4485357Y-11187214D01*
X4456786Y-11172929D01*
X4442500Y-11158643D01*
X4428214Y-11130072D01*
X4413929Y-11072929D01*
X4413929Y-11001500D01*
X4428214Y-10944357D01*
X4442500Y-10915786D01*
X4456786Y-10901500D01*
X4485357Y-10887214D01*
X4713929Y-11187214D02*
X4713929Y-10987214D01*
X4713929Y-11015786D02*
X4728214Y-11001500D01*
X4756786Y-10987214D01*
X4799643Y-10987214D01*
X4828214Y-11001500D01*
X4842500Y-11030072D01*
X4842500Y-11187214D01*
X4842500Y-11030072D02*
X4856786Y-11001500D01*
X4885357Y-10987214D01*
X4928214Y-10987214D01*
X4956786Y-11001500D01*
X4971071Y-11030072D01*
X4971071Y-11187214D01*
X5113929Y-11187214D02*
X5113929Y-10987214D01*
X5113929Y-11015786D02*
X5128214Y-11001500D01*
X5156786Y-10987214D01*
X5199643Y-10987214D01*
X5228214Y-11001500D01*
X5242500Y-11030072D01*
X5242500Y-11187214D01*
X5242500Y-11030072D02*
X5256786Y-11001500D01*
X5285357Y-10987214D01*
X5328214Y-10987214D01*
X5356786Y-11001500D01*
X5371071Y-11030072D01*
X5371071Y-11187214D01*
X5956786Y-10872929D02*
X5699643Y-11258643D01*
X6342500Y-10887214D02*
X6371071Y-10887214D01*
X6399643Y-10901500D01*
X6413928Y-10915786D01*
X6428214Y-10944357D01*
X6442500Y-11001500D01*
X6442500Y-11072929D01*
X6428214Y-11130072D01*
X6413928Y-11158643D01*
X6399643Y-11172929D01*
X6371071Y-11187214D01*
X6342500Y-11187214D01*
X6313928Y-11172929D01*
X6299643Y-11158643D01*
X6285357Y-11130072D01*
X6271071Y-11072929D01*
X6271071Y-11001500D01*
X6285357Y-10944357D01*
X6299643Y-10915786D01*
X6313928Y-10901500D01*
X6342500Y-10887214D01*
X6571071Y-11158643D02*
X6585357Y-11172929D01*
X6571071Y-11187214D01*
X6556786Y-11172929D01*
X6571071Y-11158643D01*
X6571071Y-11187214D01*
X6771071Y-10887214D02*
X6799643Y-10887214D01*
X6828214Y-10901500D01*
X6842500Y-10915786D01*
X6856785Y-10944357D01*
X6871071Y-11001500D01*
X6871071Y-11072929D01*
X6856785Y-11130072D01*
X6842500Y-11158643D01*
X6828214Y-11172929D01*
X6799643Y-11187214D01*
X6771071Y-11187214D01*
X6742500Y-11172929D01*
X6728214Y-11158643D01*
X6713928Y-11130072D01*
X6699643Y-11072929D01*
X6699643Y-11001500D01*
X6713928Y-10944357D01*
X6728214Y-10915786D01*
X6742500Y-10901500D01*
X6771071Y-10887214D01*
X7142500Y-10887214D02*
X6999643Y-10887214D01*
X6985357Y-11030072D01*
X6999643Y-11015786D01*
X7028214Y-11001500D01*
X7099643Y-11001500D01*
X7128214Y-11015786D01*
X7142500Y-11030072D01*
X7156785Y-11058643D01*
X7156785Y-11130072D01*
X7142500Y-11158643D01*
X7128214Y-11172929D01*
X7099643Y-11187214D01*
X7028214Y-11187214D01*
X6999643Y-11172929D01*
X6985357Y-11158643D01*
X7428214Y-10887214D02*
X7285357Y-10887214D01*
X7271071Y-11030072D01*
X7285357Y-11015786D01*
X7313928Y-11001500D01*
X7385357Y-11001500D01*
X7413928Y-11015786D01*
X7428214Y-11030072D01*
X7442500Y-11058643D01*
X7442500Y-11130072D01*
X7428214Y-11158643D01*
X7413928Y-11172929D01*
X7385357Y-11187214D01*
X7313928Y-11187214D01*
X7285357Y-11172929D01*
X7271071Y-11158643D01*
X7556786Y-10887214D02*
X7556786Y-10944357D01*
X7671071Y-10887214D02*
X7671071Y-10944357D01*
X8113928Y-11301500D02*
X8099643Y-11287214D01*
X8071071Y-11244357D01*
X8056785Y-11215786D01*
X8042500Y-11172929D01*
X8028214Y-11101500D01*
X8028214Y-11044357D01*
X8042500Y-10972929D01*
X8056785Y-10930072D01*
X8071071Y-10901500D01*
X8099643Y-10858643D01*
X8113928Y-10844357D01*
X8213928Y-10915786D02*
X8228214Y-10901500D01*
X8256785Y-10887214D01*
X8328214Y-10887214D01*
X8356785Y-10901500D01*
X8371071Y-10915786D01*
X8385357Y-10944357D01*
X8385357Y-10972929D01*
X8371071Y-11015786D01*
X8199643Y-11187214D01*
X8385357Y-11187214D01*
X8571071Y-10887214D02*
X8599643Y-10887214D01*
X8628214Y-10901500D01*
X8642500Y-10915786D01*
X8656786Y-10944357D01*
X8671071Y-11001500D01*
X8671071Y-11072929D01*
X8656786Y-11130072D01*
X8642500Y-11158643D01*
X8628214Y-11172929D01*
X8599643Y-11187214D01*
X8571071Y-11187214D01*
X8542500Y-11172929D01*
X8528214Y-11158643D01*
X8513928Y-11130072D01*
X8499643Y-11072929D01*
X8499643Y-11001500D01*
X8513928Y-10944357D01*
X8528214Y-10915786D01*
X8542500Y-10901500D01*
X8571071Y-10887214D01*
X9028214Y-11187214D02*
X9028214Y-10887214D01*
X9156786Y-11187214D02*
X9156786Y-11030072D01*
X9142500Y-11001500D01*
X9113928Y-10987214D01*
X9071071Y-10987214D01*
X9042500Y-11001500D01*
X9028214Y-11015786D01*
X9342500Y-11187214D02*
X9313928Y-11172929D01*
X9299643Y-11158643D01*
X9285357Y-11130072D01*
X9285357Y-11044357D01*
X9299643Y-11015786D01*
X9313928Y-11001500D01*
X9342500Y-10987214D01*
X9385357Y-10987214D01*
X9413928Y-11001500D01*
X9428214Y-11015786D01*
X9442500Y-11044357D01*
X9442500Y-11130072D01*
X9428214Y-11158643D01*
X9413928Y-11172929D01*
X9385357Y-11187214D01*
X9342500Y-11187214D01*
X9613928Y-11187214D02*
X9585357Y-11172929D01*
X9571071Y-11144357D01*
X9571071Y-10887214D01*
X9842500Y-11172929D02*
X9813929Y-11187214D01*
X9756786Y-11187214D01*
X9728214Y-11172929D01*
X9713929Y-11144357D01*
X9713929Y-11030072D01*
X9728214Y-11001500D01*
X9756786Y-10987214D01*
X9813929Y-10987214D01*
X9842500Y-11001500D01*
X9856786Y-11030072D01*
X9856786Y-11058643D01*
X9713929Y-11087214D01*
X9971071Y-11172929D02*
X9999643Y-11187214D01*
X10056786Y-11187214D01*
X10085357Y-11172929D01*
X10099643Y-11144357D01*
X10099643Y-11130072D01*
X10085357Y-11101500D01*
X10056786Y-11087214D01*
X10013929Y-11087214D01*
X9985357Y-11072929D01*
X9971071Y-11044357D01*
X9971071Y-11030072D01*
X9985357Y-11001500D01*
X10013929Y-10987214D01*
X10056786Y-10987214D01*
X10085357Y-11001500D01*
X10199643Y-11301500D02*
X10213929Y-11287214D01*
X10242500Y-11244357D01*
X10256786Y-11215786D01*
X10271071Y-11172929D01*
X10285357Y-11101500D01*
X10285357Y-11044357D01*
X10271071Y-10972929D01*
X10256786Y-10930072D01*
X10242500Y-10901500D01*
X10213929Y-10858643D01*
X10199643Y-10844357D01*
M02*
