G04 #@! TF.FileFunction,Copper,L1,Top,Signal*
%FSLAX46Y46*%
G04 Gerber Fmt 4.6, Leading zero omitted, Abs format (unit mm)*
G04 Created by KiCad (PCBNEW 4.0.2-stable) date 15/07/2016 14:21:10*
%MOMM*%
G01*
G04 APERTURE LIST*
%ADD10C,0.100000*%
%ADD11R,1.397000X1.397000*%
%ADD12C,1.397000*%
%ADD13O,1.600000X1.600000*%
%ADD14C,2.499360*%
%ADD15O,2.000000X1.500000*%
%ADD16R,2.000000X1.500000*%
%ADD17C,1.000000*%
%ADD18C,0.500000*%
%ADD19C,0.254000*%
G04 APERTURE END LIST*
D10*
D11*
X46250000Y-65250000D03*
D12*
X46250000Y-57630000D03*
D11*
X88750000Y-64810000D03*
D12*
X88750000Y-57190000D03*
D13*
X45750000Y-46500000D03*
X45750000Y-49040000D03*
X45750000Y-51580000D03*
X45750000Y-54120000D03*
X53370000Y-54120000D03*
X53370000Y-51580000D03*
X53370000Y-49040000D03*
X53370000Y-46500000D03*
X112500000Y-47170000D03*
X112500000Y-49710000D03*
X112500000Y-52250000D03*
X112500000Y-54790000D03*
X120120000Y-54790000D03*
X120120000Y-52250000D03*
X120120000Y-49710000D03*
X120120000Y-47170000D03*
D14*
X43854681Y-73227540D03*
X56348941Y-70725640D03*
X51352761Y-73225000D03*
X58850841Y-73227540D03*
X46356581Y-70725640D03*
X56354021Y-83222440D03*
X46351501Y-83222440D03*
X87104681Y-72867540D03*
X99598941Y-70365640D03*
X94602761Y-72865000D03*
X102100841Y-72867540D03*
X89606581Y-70365640D03*
X99604021Y-82862440D03*
X89601501Y-82862440D03*
X65554681Y-73227540D03*
X78048941Y-70725640D03*
X73052761Y-73225000D03*
X80550841Y-73227540D03*
X68056581Y-70725640D03*
X78054021Y-83222440D03*
X68051501Y-83222440D03*
X108001920Y-73002800D03*
X120496180Y-70500900D03*
X115500000Y-73000260D03*
X122998080Y-73002800D03*
X110503820Y-70500900D03*
X120501260Y-82997700D03*
X110498740Y-82997700D03*
D15*
X61290000Y-49380000D03*
X58250000Y-49380000D03*
X58250000Y-51920000D03*
X61290000Y-51920000D03*
D16*
X61290000Y-59540000D03*
D15*
X58250000Y-59540000D03*
X61290000Y-57000000D03*
X58250000Y-57000000D03*
X61290000Y-54460000D03*
X58250000Y-54460000D03*
X107040000Y-49630000D03*
X104000000Y-49630000D03*
X104000000Y-52170000D03*
X107040000Y-52170000D03*
D16*
X107040000Y-59790000D03*
D15*
X104000000Y-59790000D03*
X107040000Y-57250000D03*
X104000000Y-57250000D03*
X107040000Y-54710000D03*
X104000000Y-54710000D03*
D12*
X74690000Y-55750000D03*
X82310000Y-55750000D03*
X70250000Y-45940000D03*
X70250000Y-53560000D03*
X119250000Y-66560000D03*
X119250000Y-58940000D03*
X123000000Y-52190000D03*
X123000000Y-59810000D03*
X49000000Y-65310000D03*
X49000000Y-57690000D03*
X68000000Y-65870000D03*
X68000000Y-58250000D03*
X72750000Y-64560000D03*
X72750000Y-56940000D03*
X94500000Y-65250000D03*
X94500000Y-57630000D03*
X112000000Y-66370000D03*
X112000000Y-58750000D03*
X116500000Y-67250000D03*
X116500000Y-59630000D03*
D17*
X96000000Y-56250020D03*
X66583965Y-64033832D03*
X70412903Y-61162903D03*
X114000000Y-63500000D03*
X108500000Y-62250000D03*
X76740034Y-45367758D03*
X75064209Y-53657698D03*
X64879974Y-61870008D03*
X72750000Y-46367769D03*
X72750000Y-53750054D03*
X95089677Y-47367780D03*
X98500000Y-52250000D03*
X66064124Y-47000042D03*
X67000000Y-53750000D03*
X104500000Y-47000000D03*
X109750000Y-47000000D03*
X76133903Y-57616097D03*
X55970021Y-53932531D03*
D18*
X96707106Y-56250020D02*
X96000000Y-56250020D01*
X112500000Y-49710000D02*
X115500000Y-46710000D01*
X115500000Y-46710000D02*
X115500000Y-46000000D01*
X114000000Y-44500000D02*
X104750000Y-44500000D01*
X101500000Y-51457126D02*
X96707106Y-56250020D01*
X101500000Y-47750000D02*
X101500000Y-51457126D01*
X104750000Y-44500000D02*
X101500000Y-47750000D01*
X115500000Y-46000000D02*
X114000000Y-44500000D01*
X67291071Y-64033832D02*
X66583965Y-64033832D01*
X70412903Y-61162903D02*
X67541974Y-64033832D01*
X67541974Y-64033832D02*
X67291071Y-64033832D01*
X109750000Y-63500000D02*
X114000000Y-63500000D01*
X108500000Y-62250000D02*
X109750000Y-63500000D01*
X76740034Y-51981873D02*
X76740034Y-46074864D01*
X76740034Y-46074864D02*
X76740034Y-45367758D01*
X75064209Y-53657698D02*
X76740034Y-51981873D01*
X65000000Y-61040001D02*
X67353781Y-61040001D01*
X64879974Y-61870008D02*
X64879974Y-61160027D01*
X64879974Y-61160027D02*
X65000000Y-61040001D01*
X72750000Y-53750054D02*
X72750000Y-46367769D01*
X58500000Y-59540000D02*
X58500000Y-59850002D01*
X67353781Y-61040001D02*
X72750000Y-55643782D01*
X72750000Y-55643782D02*
X72750000Y-54457160D01*
X72750000Y-54457160D02*
X72750000Y-53750054D01*
X98500000Y-52250000D02*
X95089677Y-48839677D01*
X95089677Y-48074886D02*
X95089677Y-47367780D01*
X95089677Y-48839677D02*
X95089677Y-48074886D01*
X67000000Y-53750000D02*
X66064124Y-52814124D01*
X66064124Y-47707148D02*
X66064124Y-47000042D01*
X66064124Y-52814124D02*
X66064124Y-47707148D01*
X109750000Y-47000000D02*
X104750000Y-47000000D01*
X104750000Y-46750000D02*
X104500000Y-47000000D01*
X67268007Y-62540003D02*
X70385632Y-59422378D01*
X74327622Y-59422378D02*
X75633904Y-58116096D01*
X66250001Y-62540003D02*
X67268007Y-62540003D01*
X55970021Y-61720021D02*
X57500001Y-63250001D01*
X55970021Y-53932531D02*
X55970021Y-61720021D01*
X75633904Y-58116096D02*
X76133903Y-57616097D01*
X65540003Y-63250001D02*
X66250001Y-62540003D01*
X57500001Y-63250001D02*
X65540003Y-63250001D01*
X70385632Y-59422378D02*
X74327622Y-59422378D01*
D19*
G36*
X130790000Y-84290000D02*
X121874371Y-84290000D01*
X122098082Y-84066679D01*
X122385612Y-83374231D01*
X122386266Y-82624459D01*
X122099946Y-81931509D01*
X121570239Y-81400878D01*
X120877791Y-81113348D01*
X120128019Y-81112694D01*
X119435069Y-81399014D01*
X118904438Y-81928721D01*
X118616908Y-82621169D01*
X118616254Y-83370941D01*
X118902574Y-84063891D01*
X119128289Y-84290000D01*
X111871851Y-84290000D01*
X112095562Y-84066679D01*
X112383092Y-83374231D01*
X112383746Y-82624459D01*
X112097426Y-81931509D01*
X111567719Y-81400878D01*
X110875271Y-81113348D01*
X110125499Y-81112694D01*
X109432549Y-81399014D01*
X108901918Y-81928721D01*
X108614388Y-82621169D01*
X108613734Y-83370941D01*
X108900054Y-84063891D01*
X109125769Y-84290000D01*
X100841637Y-84290000D01*
X101200843Y-83931419D01*
X101488373Y-83238971D01*
X101489027Y-82489199D01*
X101202707Y-81796249D01*
X100673000Y-81265618D01*
X99980552Y-80978088D01*
X99230780Y-80977434D01*
X98537830Y-81263754D01*
X98007199Y-81793461D01*
X97719669Y-82485909D01*
X97719015Y-83235681D01*
X98005335Y-83928631D01*
X98366075Y-84290000D01*
X90839117Y-84290000D01*
X91198323Y-83931419D01*
X91485853Y-83238971D01*
X91486507Y-82489199D01*
X91200187Y-81796249D01*
X90670480Y-81265618D01*
X89978032Y-80978088D01*
X89228260Y-80977434D01*
X88535310Y-81263754D01*
X88004679Y-81793461D01*
X87717149Y-82485909D01*
X87716495Y-83235681D01*
X88002815Y-83928631D01*
X88363555Y-84290000D01*
X79651432Y-84290000D01*
X79938373Y-83598971D01*
X79939027Y-82849199D01*
X79652707Y-82156249D01*
X79123000Y-81625618D01*
X78430552Y-81338088D01*
X77680780Y-81337434D01*
X76987830Y-81623754D01*
X76457199Y-82153461D01*
X76169669Y-82845909D01*
X76169015Y-83595681D01*
X76455335Y-84288631D01*
X76456702Y-84290000D01*
X69648912Y-84290000D01*
X69935853Y-83598971D01*
X69936507Y-82849199D01*
X69650187Y-82156249D01*
X69120480Y-81625618D01*
X68428032Y-81338088D01*
X67678260Y-81337434D01*
X66985310Y-81623754D01*
X66454679Y-82153461D01*
X66167149Y-82845909D01*
X66166495Y-83595681D01*
X66452815Y-84288631D01*
X66454182Y-84290000D01*
X57951432Y-84290000D01*
X58238373Y-83598971D01*
X58239027Y-82849199D01*
X57952707Y-82156249D01*
X57423000Y-81625618D01*
X56730552Y-81338088D01*
X55980780Y-81337434D01*
X55287830Y-81623754D01*
X54757199Y-82153461D01*
X54469669Y-82845909D01*
X54469015Y-83595681D01*
X54755335Y-84288631D01*
X54756702Y-84290000D01*
X47948912Y-84290000D01*
X48235853Y-83598971D01*
X48236507Y-82849199D01*
X47950187Y-82156249D01*
X47420480Y-81625618D01*
X46728032Y-81338088D01*
X45978260Y-81337434D01*
X45285310Y-81623754D01*
X44754679Y-82153461D01*
X44467149Y-82845909D01*
X44466495Y-83595681D01*
X44752815Y-84288631D01*
X44754182Y-84290000D01*
X35210000Y-84290000D01*
X35210000Y-73600781D01*
X41969675Y-73600781D01*
X42255995Y-74293731D01*
X42785702Y-74824362D01*
X43478150Y-75111892D01*
X44227922Y-75112546D01*
X44920872Y-74826226D01*
X45451503Y-74296519D01*
X45739033Y-73604071D01*
X45739038Y-73598241D01*
X49467755Y-73598241D01*
X49754075Y-74291191D01*
X50283782Y-74821822D01*
X50976230Y-75109352D01*
X51726002Y-75110006D01*
X52418952Y-74823686D01*
X52949583Y-74293979D01*
X53237113Y-73601531D01*
X53237767Y-72851759D01*
X52951447Y-72158809D01*
X52421740Y-71628178D01*
X51729292Y-71340648D01*
X50979520Y-71339994D01*
X50286570Y-71626314D01*
X49755939Y-72156021D01*
X49468409Y-72848469D01*
X49467755Y-73598241D01*
X45739038Y-73598241D01*
X45739687Y-72854299D01*
X45568055Y-72438916D01*
X45980050Y-72609992D01*
X46729822Y-72610646D01*
X47422772Y-72324326D01*
X47953403Y-71794619D01*
X48240933Y-71102171D01*
X48240935Y-71098881D01*
X54463935Y-71098881D01*
X54750255Y-71791831D01*
X55279962Y-72322462D01*
X55972410Y-72609992D01*
X56722182Y-72610646D01*
X57137565Y-72439014D01*
X56966489Y-72851009D01*
X56965835Y-73600781D01*
X57252155Y-74293731D01*
X57781862Y-74824362D01*
X58474310Y-75111892D01*
X59224082Y-75112546D01*
X59917032Y-74826226D01*
X60447663Y-74296519D01*
X60735193Y-73604071D01*
X60735195Y-73600781D01*
X63669675Y-73600781D01*
X63955995Y-74293731D01*
X64485702Y-74824362D01*
X65178150Y-75111892D01*
X65927922Y-75112546D01*
X66620872Y-74826226D01*
X67151503Y-74296519D01*
X67439033Y-73604071D01*
X67439038Y-73598241D01*
X71167755Y-73598241D01*
X71454075Y-74291191D01*
X71983782Y-74821822D01*
X72676230Y-75109352D01*
X73426002Y-75110006D01*
X74118952Y-74823686D01*
X74649583Y-74293979D01*
X74937113Y-73601531D01*
X74937767Y-72851759D01*
X74651447Y-72158809D01*
X74121740Y-71628178D01*
X73429292Y-71340648D01*
X72679520Y-71339994D01*
X71986570Y-71626314D01*
X71455939Y-72156021D01*
X71168409Y-72848469D01*
X71167755Y-73598241D01*
X67439038Y-73598241D01*
X67439687Y-72854299D01*
X67268055Y-72438916D01*
X67680050Y-72609992D01*
X68429822Y-72610646D01*
X69122772Y-72324326D01*
X69653403Y-71794619D01*
X69940933Y-71102171D01*
X69940935Y-71098881D01*
X76163935Y-71098881D01*
X76450255Y-71791831D01*
X76979962Y-72322462D01*
X77672410Y-72609992D01*
X78422182Y-72610646D01*
X78837565Y-72439014D01*
X78666489Y-72851009D01*
X78665835Y-73600781D01*
X78952155Y-74293731D01*
X79481862Y-74824362D01*
X80174310Y-75111892D01*
X80924082Y-75112546D01*
X81617032Y-74826226D01*
X82147663Y-74296519D01*
X82435193Y-73604071D01*
X82435509Y-73240781D01*
X85219675Y-73240781D01*
X85505995Y-73933731D01*
X86035702Y-74464362D01*
X86728150Y-74751892D01*
X87477922Y-74752546D01*
X88170872Y-74466226D01*
X88701503Y-73936519D01*
X88989033Y-73244071D01*
X88989038Y-73238241D01*
X92717755Y-73238241D01*
X93004075Y-73931191D01*
X93533782Y-74461822D01*
X94226230Y-74749352D01*
X94976002Y-74750006D01*
X95668952Y-74463686D01*
X96199583Y-73933979D01*
X96487113Y-73241531D01*
X96487767Y-72491759D01*
X96201447Y-71798809D01*
X95671740Y-71268178D01*
X94979292Y-70980648D01*
X94229520Y-70979994D01*
X93536570Y-71266314D01*
X93005939Y-71796021D01*
X92718409Y-72488469D01*
X92717755Y-73238241D01*
X88989038Y-73238241D01*
X88989687Y-72494299D01*
X88818055Y-72078916D01*
X89230050Y-72249992D01*
X89979822Y-72250646D01*
X90672772Y-71964326D01*
X91203403Y-71434619D01*
X91490933Y-70742171D01*
X91490935Y-70738881D01*
X97713935Y-70738881D01*
X98000255Y-71431831D01*
X98529962Y-71962462D01*
X99222410Y-72249992D01*
X99972182Y-72250646D01*
X100387565Y-72079014D01*
X100216489Y-72491009D01*
X100215835Y-73240781D01*
X100502155Y-73933731D01*
X101031862Y-74464362D01*
X101724310Y-74751892D01*
X102474082Y-74752546D01*
X103167032Y-74466226D01*
X103697663Y-73936519D01*
X103930394Y-73376041D01*
X106116914Y-73376041D01*
X106403234Y-74068991D01*
X106932941Y-74599622D01*
X107625389Y-74887152D01*
X108375161Y-74887806D01*
X109068111Y-74601486D01*
X109598742Y-74071779D01*
X109886272Y-73379331D01*
X109886277Y-73373501D01*
X113614994Y-73373501D01*
X113901314Y-74066451D01*
X114431021Y-74597082D01*
X115123469Y-74884612D01*
X115873241Y-74885266D01*
X116566191Y-74598946D01*
X117096822Y-74069239D01*
X117384352Y-73376791D01*
X117385006Y-72627019D01*
X117098686Y-71934069D01*
X116568979Y-71403438D01*
X115876531Y-71115908D01*
X115126759Y-71115254D01*
X114433809Y-71401574D01*
X113903178Y-71931281D01*
X113615648Y-72623729D01*
X113614994Y-73373501D01*
X109886277Y-73373501D01*
X109886926Y-72629559D01*
X109715294Y-72214176D01*
X110127289Y-72385252D01*
X110877061Y-72385906D01*
X111570011Y-72099586D01*
X112100642Y-71569879D01*
X112388172Y-70877431D01*
X112388174Y-70874141D01*
X118611174Y-70874141D01*
X118897494Y-71567091D01*
X119427201Y-72097722D01*
X120119649Y-72385252D01*
X120869421Y-72385906D01*
X121284804Y-72214274D01*
X121113728Y-72626269D01*
X121113074Y-73376041D01*
X121399394Y-74068991D01*
X121929101Y-74599622D01*
X122621549Y-74887152D01*
X123371321Y-74887806D01*
X124064271Y-74601486D01*
X124594902Y-74071779D01*
X124882432Y-73379331D01*
X124883086Y-72629559D01*
X124596766Y-71936609D01*
X124067059Y-71405978D01*
X123374611Y-71118448D01*
X122624839Y-71117794D01*
X122209456Y-71289426D01*
X122380532Y-70877431D01*
X122381186Y-70127659D01*
X122094866Y-69434709D01*
X121565159Y-68904078D01*
X120872711Y-68616548D01*
X120122939Y-68615894D01*
X119429989Y-68902214D01*
X118899358Y-69431921D01*
X118611828Y-70124369D01*
X118611174Y-70874141D01*
X112388174Y-70874141D01*
X112388826Y-70127659D01*
X112102506Y-69434709D01*
X111572799Y-68904078D01*
X110880351Y-68616548D01*
X110130579Y-68615894D01*
X109437629Y-68902214D01*
X108906998Y-69431921D01*
X108619468Y-70124369D01*
X108618814Y-70874141D01*
X108790446Y-71289524D01*
X108378451Y-71118448D01*
X107628679Y-71117794D01*
X106935729Y-71404114D01*
X106405098Y-71933821D01*
X106117568Y-72626269D01*
X106116914Y-73376041D01*
X103930394Y-73376041D01*
X103985193Y-73244071D01*
X103985847Y-72494299D01*
X103699527Y-71801349D01*
X103169820Y-71270718D01*
X102477372Y-70983188D01*
X101727600Y-70982534D01*
X101312217Y-71154166D01*
X101483293Y-70742171D01*
X101483947Y-69992399D01*
X101197627Y-69299449D01*
X100667920Y-68768818D01*
X99975472Y-68481288D01*
X99225700Y-68480634D01*
X98532750Y-68766954D01*
X98002119Y-69296661D01*
X97714589Y-69989109D01*
X97713935Y-70738881D01*
X91490935Y-70738881D01*
X91491587Y-69992399D01*
X91205267Y-69299449D01*
X90675560Y-68768818D01*
X89983112Y-68481288D01*
X89233340Y-68480634D01*
X88540390Y-68766954D01*
X88009759Y-69296661D01*
X87722229Y-69989109D01*
X87721575Y-70738881D01*
X87893207Y-71154264D01*
X87481212Y-70983188D01*
X86731440Y-70982534D01*
X86038490Y-71268854D01*
X85507859Y-71798561D01*
X85220329Y-72491009D01*
X85219675Y-73240781D01*
X82435509Y-73240781D01*
X82435847Y-72854299D01*
X82149527Y-72161349D01*
X81619820Y-71630718D01*
X80927372Y-71343188D01*
X80177600Y-71342534D01*
X79762217Y-71514166D01*
X79933293Y-71102171D01*
X79933947Y-70352399D01*
X79647627Y-69659449D01*
X79117920Y-69128818D01*
X78425472Y-68841288D01*
X77675700Y-68840634D01*
X76982750Y-69126954D01*
X76452119Y-69656661D01*
X76164589Y-70349109D01*
X76163935Y-71098881D01*
X69940935Y-71098881D01*
X69941587Y-70352399D01*
X69655267Y-69659449D01*
X69125560Y-69128818D01*
X68433112Y-68841288D01*
X67683340Y-68840634D01*
X66990390Y-69126954D01*
X66459759Y-69656661D01*
X66172229Y-70349109D01*
X66171575Y-71098881D01*
X66343207Y-71514264D01*
X65931212Y-71343188D01*
X65181440Y-71342534D01*
X64488490Y-71628854D01*
X63957859Y-72158561D01*
X63670329Y-72851009D01*
X63669675Y-73600781D01*
X60735195Y-73600781D01*
X60735847Y-72854299D01*
X60449527Y-72161349D01*
X59919820Y-71630718D01*
X59227372Y-71343188D01*
X58477600Y-71342534D01*
X58062217Y-71514166D01*
X58233293Y-71102171D01*
X58233947Y-70352399D01*
X57947627Y-69659449D01*
X57417920Y-69128818D01*
X56725472Y-68841288D01*
X55975700Y-68840634D01*
X55282750Y-69126954D01*
X54752119Y-69656661D01*
X54464589Y-70349109D01*
X54463935Y-71098881D01*
X48240935Y-71098881D01*
X48241587Y-70352399D01*
X47955267Y-69659449D01*
X47425560Y-69128818D01*
X46733112Y-68841288D01*
X45983340Y-68840634D01*
X45290390Y-69126954D01*
X44759759Y-69656661D01*
X44472229Y-70349109D01*
X44471575Y-71098881D01*
X44643207Y-71514264D01*
X44231212Y-71343188D01*
X43481440Y-71342534D01*
X42788490Y-71628854D01*
X42257859Y-72158561D01*
X41970329Y-72851009D01*
X41969675Y-73600781D01*
X35210000Y-73600781D01*
X35210000Y-65442619D01*
X36764613Y-65442619D01*
X37104155Y-66264372D01*
X37732321Y-66893636D01*
X38553481Y-67234611D01*
X39442619Y-67235387D01*
X40264372Y-66895845D01*
X40893636Y-66267679D01*
X41234611Y-65446519D01*
X41235387Y-64557381D01*
X41232958Y-64551500D01*
X44904060Y-64551500D01*
X44904060Y-65948500D01*
X44948338Y-66183817D01*
X45087410Y-66399941D01*
X45299610Y-66544931D01*
X45551500Y-66595940D01*
X46948500Y-66595940D01*
X47183817Y-66551662D01*
X47399941Y-66412590D01*
X47544931Y-66200390D01*
X47595940Y-65948500D01*
X47595940Y-65574086D01*
X47666269Y-65574086D01*
X47868854Y-66064380D01*
X48243647Y-66439827D01*
X48733587Y-66643268D01*
X49264086Y-66643731D01*
X49754380Y-66441146D01*
X50061975Y-66134086D01*
X66666269Y-66134086D01*
X66868854Y-66624380D01*
X67243647Y-66999827D01*
X67733587Y-67203268D01*
X68264086Y-67203731D01*
X68754380Y-67001146D01*
X69122080Y-66634086D01*
X110666269Y-66634086D01*
X110868854Y-67124380D01*
X111243647Y-67499827D01*
X111733587Y-67703268D01*
X112264086Y-67703731D01*
X112723062Y-67514086D01*
X115166269Y-67514086D01*
X115368854Y-68004380D01*
X115743647Y-68379827D01*
X116233587Y-68583268D01*
X116764086Y-68583731D01*
X117254380Y-68381146D01*
X117629827Y-68006353D01*
X117833268Y-67516413D01*
X117833731Y-66985914D01*
X117766866Y-66824086D01*
X117916269Y-66824086D01*
X118118854Y-67314380D01*
X118493647Y-67689827D01*
X118983587Y-67893268D01*
X119514086Y-67893731D01*
X120000815Y-67692619D01*
X125514613Y-67692619D01*
X125854155Y-68514372D01*
X126482321Y-69143636D01*
X127303481Y-69484611D01*
X128192619Y-69485387D01*
X129014372Y-69145845D01*
X129643636Y-68517679D01*
X129984611Y-67696519D01*
X129985387Y-66807381D01*
X129645845Y-65985628D01*
X129017679Y-65356364D01*
X128196519Y-65015389D01*
X127307381Y-65014613D01*
X126485628Y-65354155D01*
X125856364Y-65982321D01*
X125515389Y-66803481D01*
X125514613Y-67692619D01*
X120000815Y-67692619D01*
X120004380Y-67691146D01*
X120379827Y-67316353D01*
X120583268Y-66826413D01*
X120583731Y-66295914D01*
X120381146Y-65805620D01*
X120006353Y-65430173D01*
X119516413Y-65226732D01*
X118985914Y-65226269D01*
X118495620Y-65428854D01*
X118120173Y-65803647D01*
X117916732Y-66293587D01*
X117916269Y-66824086D01*
X117766866Y-66824086D01*
X117631146Y-66495620D01*
X117256353Y-66120173D01*
X116766413Y-65916732D01*
X116235914Y-65916269D01*
X115745620Y-66118854D01*
X115370173Y-66493647D01*
X115166732Y-66983587D01*
X115166269Y-67514086D01*
X112723062Y-67514086D01*
X112754380Y-67501146D01*
X113129827Y-67126353D01*
X113333268Y-66636413D01*
X113333731Y-66105914D01*
X113131146Y-65615620D01*
X112756353Y-65240173D01*
X112266413Y-65036732D01*
X111735914Y-65036269D01*
X111245620Y-65238854D01*
X110870173Y-65613647D01*
X110666732Y-66103587D01*
X110666269Y-66634086D01*
X69122080Y-66634086D01*
X69129827Y-66626353D01*
X69333268Y-66136413D01*
X69333731Y-65605914D01*
X69131146Y-65115620D01*
X68840120Y-64824086D01*
X71416269Y-64824086D01*
X71618854Y-65314380D01*
X71993647Y-65689827D01*
X72483587Y-65893268D01*
X73014086Y-65893731D01*
X73504380Y-65691146D01*
X73879827Y-65316353D01*
X74083268Y-64826413D01*
X74083731Y-64295914D01*
X74007533Y-64111500D01*
X87404060Y-64111500D01*
X87404060Y-65508500D01*
X87448338Y-65743817D01*
X87587410Y-65959941D01*
X87799610Y-66104931D01*
X88051500Y-66155940D01*
X89448500Y-66155940D01*
X89683817Y-66111662D01*
X89899941Y-65972590D01*
X90044931Y-65760390D01*
X90094808Y-65514086D01*
X93166269Y-65514086D01*
X93368854Y-66004380D01*
X93743647Y-66379827D01*
X94233587Y-66583268D01*
X94764086Y-66583731D01*
X95254380Y-66381146D01*
X95629827Y-66006353D01*
X95833268Y-65516413D01*
X95833731Y-64985914D01*
X95631146Y-64495620D01*
X95256353Y-64120173D01*
X94766413Y-63916732D01*
X94235914Y-63916269D01*
X93745620Y-64118854D01*
X93370173Y-64493647D01*
X93166732Y-64983587D01*
X93166269Y-65514086D01*
X90094808Y-65514086D01*
X90095940Y-65508500D01*
X90095940Y-64111500D01*
X90051662Y-63876183D01*
X89912590Y-63660059D01*
X89700390Y-63515069D01*
X89448500Y-63464060D01*
X88051500Y-63464060D01*
X87816183Y-63508338D01*
X87600059Y-63647410D01*
X87455069Y-63859610D01*
X87404060Y-64111500D01*
X74007533Y-64111500D01*
X73881146Y-63805620D01*
X73506353Y-63430173D01*
X73016413Y-63226732D01*
X72485914Y-63226269D01*
X71995620Y-63428854D01*
X71620173Y-63803647D01*
X71416732Y-64293587D01*
X71416269Y-64824086D01*
X68840120Y-64824086D01*
X68756353Y-64740173D01*
X68266413Y-64536732D01*
X67735914Y-64536269D01*
X67245620Y-64738854D01*
X66870173Y-65113647D01*
X66666732Y-65603587D01*
X66666269Y-66134086D01*
X50061975Y-66134086D01*
X50129827Y-66066353D01*
X50333268Y-65576413D01*
X50333731Y-65045914D01*
X50131146Y-64555620D01*
X49756353Y-64180173D01*
X49266413Y-63976732D01*
X48735914Y-63976269D01*
X48245620Y-64178854D01*
X47870173Y-64553647D01*
X47666732Y-65043587D01*
X47666269Y-65574086D01*
X47595940Y-65574086D01*
X47595940Y-64551500D01*
X47551662Y-64316183D01*
X47412590Y-64100059D01*
X47200390Y-63955069D01*
X46948500Y-63904060D01*
X45551500Y-63904060D01*
X45316183Y-63948338D01*
X45100059Y-64087410D01*
X44955069Y-64299610D01*
X44904060Y-64551500D01*
X41232958Y-64551500D01*
X40895845Y-63735628D01*
X40267679Y-63106364D01*
X39446519Y-62765389D01*
X38557381Y-62764613D01*
X37735628Y-63104155D01*
X37106364Y-63732321D01*
X36765389Y-64553481D01*
X36764613Y-65442619D01*
X35210000Y-65442619D01*
X35210000Y-57894086D01*
X44916269Y-57894086D01*
X45118854Y-58384380D01*
X45493647Y-58759827D01*
X45983587Y-58963268D01*
X46514086Y-58963731D01*
X47004380Y-58761146D01*
X47379827Y-58386353D01*
X47559320Y-57954086D01*
X47666269Y-57954086D01*
X47868854Y-58444380D01*
X48243647Y-58819827D01*
X48733587Y-59023268D01*
X49264086Y-59023731D01*
X49754380Y-58821146D01*
X50129827Y-58446353D01*
X50333268Y-57956413D01*
X50333731Y-57425914D01*
X50131146Y-56935620D01*
X49756353Y-56560173D01*
X49266413Y-56356732D01*
X48735914Y-56356269D01*
X48245620Y-56558854D01*
X47870173Y-56933647D01*
X47666732Y-57423587D01*
X47666269Y-57954086D01*
X47559320Y-57954086D01*
X47583268Y-57896413D01*
X47583731Y-57365914D01*
X47381146Y-56875620D01*
X47006353Y-56500173D01*
X46516413Y-56296732D01*
X45985914Y-56296269D01*
X45495620Y-56498854D01*
X45120173Y-56873647D01*
X44916732Y-57363587D01*
X44916269Y-57894086D01*
X35210000Y-57894086D01*
X35210000Y-48192619D01*
X36764613Y-48192619D01*
X37104155Y-49014372D01*
X37732321Y-49643636D01*
X38553481Y-49984611D01*
X39442619Y-49985387D01*
X40264372Y-49645845D01*
X40893636Y-49017679D01*
X41234611Y-48196519D01*
X41235387Y-47307381D01*
X40901784Y-46500000D01*
X44286887Y-46500000D01*
X44396120Y-47049151D01*
X44707189Y-47514698D01*
X45089275Y-47770000D01*
X44707189Y-48025302D01*
X44396120Y-48490849D01*
X44286887Y-49040000D01*
X44396120Y-49589151D01*
X44707189Y-50054698D01*
X45089275Y-50310000D01*
X44707189Y-50565302D01*
X44396120Y-51030849D01*
X44286887Y-51580000D01*
X44396120Y-52129151D01*
X44707189Y-52594698D01*
X45089275Y-52850000D01*
X44707189Y-53105302D01*
X44396120Y-53570849D01*
X44286887Y-54120000D01*
X44396120Y-54669151D01*
X44707189Y-55134698D01*
X45172736Y-55445767D01*
X45721887Y-55555000D01*
X45778113Y-55555000D01*
X46327264Y-55445767D01*
X46792811Y-55134698D01*
X47103880Y-54669151D01*
X47143684Y-54469039D01*
X51978096Y-54469039D01*
X52138959Y-54857423D01*
X52514866Y-55272389D01*
X53020959Y-55511914D01*
X53243000Y-55390629D01*
X53243000Y-54247000D01*
X53497000Y-54247000D01*
X53497000Y-55390629D01*
X53719041Y-55511914D01*
X54225134Y-55272389D01*
X54601041Y-54857423D01*
X54761904Y-54469039D01*
X54639915Y-54247000D01*
X53497000Y-54247000D01*
X53243000Y-54247000D01*
X52100085Y-54247000D01*
X51978096Y-54469039D01*
X47143684Y-54469039D01*
X47205692Y-54157306D01*
X54834824Y-54157306D01*
X55007254Y-54574617D01*
X55085021Y-54652520D01*
X55085021Y-61720016D01*
X55085020Y-61720021D01*
X55112394Y-61857634D01*
X55152388Y-62058696D01*
X55247691Y-62201328D01*
X55344231Y-62345811D01*
X56874209Y-63875788D01*
X56874211Y-63875791D01*
X57161326Y-64067634D01*
X57500001Y-64135001D01*
X65539998Y-64135001D01*
X65540003Y-64135002D01*
X65822487Y-64078811D01*
X65878678Y-64067634D01*
X66165793Y-63875791D01*
X66165794Y-63875790D01*
X66616580Y-63425003D01*
X67268002Y-63425003D01*
X67268007Y-63425004D01*
X67550491Y-63368813D01*
X67606682Y-63357636D01*
X67893797Y-63165793D01*
X67893798Y-63165792D01*
X70752211Y-60307378D01*
X74327617Y-60307378D01*
X74327622Y-60307379D01*
X74610106Y-60251188D01*
X74666297Y-60240011D01*
X74953412Y-60048168D01*
X76250380Y-58751200D01*
X76358678Y-58751294D01*
X76775989Y-58578864D01*
X77095548Y-58259862D01*
X77268706Y-57842853D01*
X77269045Y-57454086D01*
X87416269Y-57454086D01*
X87618854Y-57944380D01*
X87993647Y-58319827D01*
X88483587Y-58523268D01*
X89014086Y-58523731D01*
X89504380Y-58321146D01*
X89879827Y-57946353D01*
X89901530Y-57894086D01*
X93166269Y-57894086D01*
X93368854Y-58384380D01*
X93743647Y-58759827D01*
X94233587Y-58963268D01*
X94764086Y-58963731D01*
X95254380Y-58761146D01*
X95629827Y-58386353D01*
X95833268Y-57896413D01*
X95833714Y-57384876D01*
X96224775Y-57385217D01*
X96642086Y-57212787D01*
X96723193Y-57131821D01*
X96989590Y-57078830D01*
X97045781Y-57067653D01*
X97332896Y-56875810D01*
X102125787Y-52082918D01*
X102125790Y-52082916D01*
X102317633Y-51795801D01*
X102347988Y-51643199D01*
X102385001Y-51457126D01*
X102385000Y-51457121D01*
X102385000Y-49891582D01*
X102438395Y-50160017D01*
X102738625Y-50609343D01*
X103173624Y-50900000D01*
X102738625Y-51190657D01*
X102438395Y-51639983D01*
X102332968Y-52170000D01*
X102438395Y-52700017D01*
X102738625Y-53149343D01*
X103173624Y-53440000D01*
X102738625Y-53730657D01*
X102438395Y-54179983D01*
X102332968Y-54710000D01*
X102438395Y-55240017D01*
X102738625Y-55689343D01*
X103173624Y-55980000D01*
X102738625Y-56270657D01*
X102438395Y-56719983D01*
X102332968Y-57250000D01*
X102438395Y-57780017D01*
X102738625Y-58229343D01*
X103173624Y-58520000D01*
X102738625Y-58810657D01*
X102438395Y-59259983D01*
X102332968Y-59790000D01*
X102438395Y-60320017D01*
X102738625Y-60769343D01*
X103187951Y-61069573D01*
X103717968Y-61175000D01*
X104282032Y-61175000D01*
X104812049Y-61069573D01*
X105261375Y-60769343D01*
X105405000Y-60554393D01*
X105405000Y-60666309D01*
X105501673Y-60899698D01*
X105680301Y-61078327D01*
X105913690Y-61175000D01*
X106754250Y-61175000D01*
X106913000Y-61016250D01*
X106913000Y-59917000D01*
X107167000Y-59917000D01*
X107167000Y-61016250D01*
X107325750Y-61175000D01*
X108166310Y-61175000D01*
X108399699Y-61078327D01*
X108578327Y-60899698D01*
X108675000Y-60666309D01*
X108675000Y-60075750D01*
X108516250Y-59917000D01*
X107167000Y-59917000D01*
X106913000Y-59917000D01*
X106893000Y-59917000D01*
X106893000Y-59663000D01*
X106913000Y-59663000D01*
X106913000Y-59643000D01*
X107167000Y-59643000D01*
X107167000Y-59663000D01*
X108516250Y-59663000D01*
X108675000Y-59504250D01*
X108675000Y-59014086D01*
X110666269Y-59014086D01*
X110868854Y-59504380D01*
X111243647Y-59879827D01*
X111733587Y-60083268D01*
X112264086Y-60083731D01*
X112723062Y-59894086D01*
X115166269Y-59894086D01*
X115368854Y-60384380D01*
X115743647Y-60759827D01*
X116233587Y-60963268D01*
X116764086Y-60963731D01*
X117254380Y-60761146D01*
X117271367Y-60744188D01*
X122245417Y-60744188D01*
X122307071Y-60979800D01*
X122807480Y-61155927D01*
X123337199Y-61127148D01*
X123692929Y-60979800D01*
X123754583Y-60744188D01*
X123000000Y-59989605D01*
X122245417Y-60744188D01*
X117271367Y-60744188D01*
X117629827Y-60386353D01*
X117833268Y-59896413D01*
X117833731Y-59365914D01*
X117766866Y-59204086D01*
X117916269Y-59204086D01*
X118118854Y-59694380D01*
X118493647Y-60069827D01*
X118983587Y-60273268D01*
X119514086Y-60273731D01*
X120004380Y-60071146D01*
X120379827Y-59696353D01*
X120412577Y-59617480D01*
X121654073Y-59617480D01*
X121682852Y-60147199D01*
X121830200Y-60502929D01*
X122065812Y-60564583D01*
X122820395Y-59810000D01*
X123179605Y-59810000D01*
X123934188Y-60564583D01*
X124169800Y-60502929D01*
X124345927Y-60002520D01*
X124317148Y-59472801D01*
X124169800Y-59117071D01*
X123934188Y-59055417D01*
X123179605Y-59810000D01*
X122820395Y-59810000D01*
X122065812Y-59055417D01*
X121830200Y-59117071D01*
X121654073Y-59617480D01*
X120412577Y-59617480D01*
X120583268Y-59206413D01*
X120583556Y-58875812D01*
X122245417Y-58875812D01*
X123000000Y-59630395D01*
X123754583Y-58875812D01*
X123692929Y-58640200D01*
X123192520Y-58464073D01*
X122662801Y-58492852D01*
X122307071Y-58640200D01*
X122245417Y-58875812D01*
X120583556Y-58875812D01*
X120583731Y-58675914D01*
X120381146Y-58185620D01*
X120006353Y-57810173D01*
X119516413Y-57606732D01*
X118985914Y-57606269D01*
X118495620Y-57808854D01*
X118120173Y-58183647D01*
X117916732Y-58673587D01*
X117916269Y-59204086D01*
X117766866Y-59204086D01*
X117631146Y-58875620D01*
X117256353Y-58500173D01*
X116766413Y-58296732D01*
X116235914Y-58296269D01*
X115745620Y-58498854D01*
X115370173Y-58873647D01*
X115166732Y-59363587D01*
X115166269Y-59894086D01*
X112723062Y-59894086D01*
X112754380Y-59881146D01*
X113129827Y-59506353D01*
X113333268Y-59016413D01*
X113333731Y-58485914D01*
X113131146Y-57995620D01*
X112756353Y-57620173D01*
X112266413Y-57416732D01*
X111735914Y-57416269D01*
X111245620Y-57618854D01*
X110870173Y-57993647D01*
X110666732Y-58483587D01*
X110666269Y-59014086D01*
X108675000Y-59014086D01*
X108675000Y-58913691D01*
X108578327Y-58680302D01*
X108399699Y-58501673D01*
X108166310Y-58405000D01*
X108038486Y-58405000D01*
X108301375Y-58229343D01*
X108601605Y-57780017D01*
X108707032Y-57250000D01*
X108601605Y-56719983D01*
X108301375Y-56270657D01*
X107866376Y-55980000D01*
X108301375Y-55689343D01*
X108601605Y-55240017D01*
X108707032Y-54710000D01*
X108601605Y-54179983D01*
X108301375Y-53730657D01*
X107866376Y-53440000D01*
X108301375Y-53149343D01*
X108601605Y-52700017D01*
X108707032Y-52170000D01*
X108601605Y-51639983D01*
X108301375Y-51190657D01*
X107866376Y-50900000D01*
X108301375Y-50609343D01*
X108601605Y-50160017D01*
X108707032Y-49630000D01*
X108601605Y-49099983D01*
X108301375Y-48650657D01*
X107852049Y-48350427D01*
X107322032Y-48245000D01*
X106757968Y-48245000D01*
X106227951Y-48350427D01*
X105778625Y-48650657D01*
X105520000Y-49037717D01*
X105261375Y-48650657D01*
X104812049Y-48350427D01*
X104282032Y-48245000D01*
X103717968Y-48245000D01*
X103187951Y-48350427D01*
X102738625Y-48650657D01*
X102438395Y-49099983D01*
X102385000Y-49368418D01*
X102385000Y-48116580D01*
X103364880Y-47136700D01*
X103364803Y-47224775D01*
X103537233Y-47642086D01*
X103856235Y-47961645D01*
X104273244Y-48134803D01*
X104724775Y-48135197D01*
X105142086Y-47962767D01*
X105219989Y-47885000D01*
X109029724Y-47885000D01*
X109106235Y-47961645D01*
X109523244Y-48134803D01*
X109974775Y-48135197D01*
X110392086Y-47962767D01*
X110711645Y-47643765D01*
X110884803Y-47226756D01*
X110885197Y-46775225D01*
X110712767Y-46357914D01*
X110393765Y-46038355D01*
X109976756Y-45865197D01*
X109525225Y-45864803D01*
X109107914Y-46037233D01*
X109030011Y-46115000D01*
X105362004Y-46115000D01*
X105088674Y-45932367D01*
X104750000Y-45865000D01*
X104733964Y-45868190D01*
X104726756Y-45865197D01*
X104636461Y-45865118D01*
X105116579Y-45385000D01*
X113633420Y-45385000D01*
X114603421Y-46355000D01*
X113934130Y-47024291D01*
X113853880Y-46620849D01*
X113542811Y-46155302D01*
X113077264Y-45844233D01*
X112528113Y-45735000D01*
X112471887Y-45735000D01*
X111922736Y-45844233D01*
X111457189Y-46155302D01*
X111146120Y-46620849D01*
X111036887Y-47170000D01*
X111146120Y-47719151D01*
X111457189Y-48184698D01*
X111839275Y-48440000D01*
X111457189Y-48695302D01*
X111146120Y-49160849D01*
X111036887Y-49710000D01*
X111146120Y-50259151D01*
X111457189Y-50724698D01*
X111839275Y-50980000D01*
X111457189Y-51235302D01*
X111146120Y-51700849D01*
X111036887Y-52250000D01*
X111146120Y-52799151D01*
X111457189Y-53264698D01*
X111839275Y-53520000D01*
X111457189Y-53775302D01*
X111146120Y-54240849D01*
X111036887Y-54790000D01*
X111146120Y-55339151D01*
X111457189Y-55804698D01*
X111922736Y-56115767D01*
X112471887Y-56225000D01*
X112528113Y-56225000D01*
X113077264Y-56115767D01*
X113542811Y-55804698D01*
X113853880Y-55339151D01*
X113893684Y-55139039D01*
X118728096Y-55139039D01*
X118888959Y-55527423D01*
X119264866Y-55942389D01*
X119770959Y-56181914D01*
X119993000Y-56060629D01*
X119993000Y-54917000D01*
X120247000Y-54917000D01*
X120247000Y-56060629D01*
X120469041Y-56181914D01*
X120975134Y-55942389D01*
X121351041Y-55527423D01*
X121511904Y-55139039D01*
X121389915Y-54917000D01*
X120247000Y-54917000D01*
X119993000Y-54917000D01*
X118850085Y-54917000D01*
X118728096Y-55139039D01*
X113893684Y-55139039D01*
X113963113Y-54790000D01*
X113853880Y-54240849D01*
X113542811Y-53775302D01*
X113160725Y-53520000D01*
X113542811Y-53264698D01*
X113853880Y-52799151D01*
X113963113Y-52250000D01*
X113853880Y-51700849D01*
X113542811Y-51235302D01*
X113160725Y-50980000D01*
X113542811Y-50724698D01*
X113853880Y-50259151D01*
X113963113Y-49710000D01*
X113928017Y-49533562D01*
X116125787Y-47335792D01*
X116125790Y-47335790D01*
X116236566Y-47170000D01*
X118656887Y-47170000D01*
X118766120Y-47719151D01*
X119077189Y-48184698D01*
X119459275Y-48440000D01*
X119077189Y-48695302D01*
X118766120Y-49160849D01*
X118656887Y-49710000D01*
X118766120Y-50259151D01*
X119077189Y-50724698D01*
X119459275Y-50980000D01*
X119077189Y-51235302D01*
X118766120Y-51700849D01*
X118656887Y-52250000D01*
X118766120Y-52799151D01*
X119077189Y-53264698D01*
X119481703Y-53534986D01*
X119264866Y-53637611D01*
X118888959Y-54052577D01*
X118728096Y-54440961D01*
X118850085Y-54663000D01*
X119993000Y-54663000D01*
X119993000Y-54643000D01*
X120247000Y-54643000D01*
X120247000Y-54663000D01*
X121389915Y-54663000D01*
X121511904Y-54440961D01*
X121351041Y-54052577D01*
X120975134Y-53637611D01*
X120758297Y-53534986D01*
X121162811Y-53264698D01*
X121473880Y-52799151D01*
X121542517Y-52454086D01*
X121666269Y-52454086D01*
X121868854Y-52944380D01*
X122243647Y-53319827D01*
X122733587Y-53523268D01*
X123264086Y-53523731D01*
X123754380Y-53321146D01*
X124129827Y-52946353D01*
X124333268Y-52456413D01*
X124333731Y-51925914D01*
X124131146Y-51435620D01*
X123756353Y-51060173D01*
X123266413Y-50856732D01*
X122735914Y-50856269D01*
X122245620Y-51058854D01*
X121870173Y-51433647D01*
X121666732Y-51923587D01*
X121666269Y-52454086D01*
X121542517Y-52454086D01*
X121583113Y-52250000D01*
X121473880Y-51700849D01*
X121162811Y-51235302D01*
X120780725Y-50980000D01*
X121162811Y-50724698D01*
X121473880Y-50259151D01*
X121583113Y-49710000D01*
X121473880Y-49160849D01*
X121162811Y-48695302D01*
X120780725Y-48440000D01*
X121150956Y-48192619D01*
X124514613Y-48192619D01*
X124854155Y-49014372D01*
X125482321Y-49643636D01*
X126303481Y-49984611D01*
X127192619Y-49985387D01*
X128014372Y-49645845D01*
X128643636Y-49017679D01*
X128984611Y-48196519D01*
X128985387Y-47307381D01*
X128645845Y-46485628D01*
X128017679Y-45856364D01*
X127196519Y-45515389D01*
X126307381Y-45514613D01*
X125485628Y-45854155D01*
X124856364Y-46482321D01*
X124515389Y-47303481D01*
X124514613Y-48192619D01*
X121150956Y-48192619D01*
X121162811Y-48184698D01*
X121473880Y-47719151D01*
X121583113Y-47170000D01*
X121473880Y-46620849D01*
X121162811Y-46155302D01*
X120697264Y-45844233D01*
X120148113Y-45735000D01*
X120091887Y-45735000D01*
X119542736Y-45844233D01*
X119077189Y-46155302D01*
X118766120Y-46620849D01*
X118656887Y-47170000D01*
X116236566Y-47170000D01*
X116317633Y-47048675D01*
X116349292Y-46889515D01*
X116385001Y-46710000D01*
X116385000Y-46709995D01*
X116385000Y-46000000D01*
X116317633Y-45661325D01*
X116125790Y-45374210D01*
X116125787Y-45374208D01*
X114625790Y-43874210D01*
X114338675Y-43682367D01*
X114282484Y-43671190D01*
X114000000Y-43614999D01*
X113999995Y-43615000D01*
X104750005Y-43615000D01*
X104750000Y-43614999D01*
X104411325Y-43682367D01*
X104124210Y-43874210D01*
X104124208Y-43874213D01*
X100874210Y-47124210D01*
X100682367Y-47411325D01*
X100682367Y-47411326D01*
X100614999Y-47750000D01*
X100615000Y-47750005D01*
X100615000Y-51090547D01*
X99635158Y-52070389D01*
X99635197Y-52025225D01*
X99462767Y-51607914D01*
X99143765Y-51288355D01*
X98726756Y-51115197D01*
X98616680Y-51115101D01*
X95974677Y-48473097D01*
X95974677Y-48088056D01*
X96051322Y-48011545D01*
X96224480Y-47594536D01*
X96224874Y-47143005D01*
X96052444Y-46725694D01*
X95733442Y-46406135D01*
X95316433Y-46232977D01*
X94864902Y-46232583D01*
X94447591Y-46405013D01*
X94128032Y-46724015D01*
X93954874Y-47141024D01*
X93954480Y-47592555D01*
X94126910Y-48009866D01*
X94204677Y-48087769D01*
X94204677Y-48839672D01*
X94204676Y-48839677D01*
X94239426Y-49014372D01*
X94272044Y-49178352D01*
X94406780Y-49380000D01*
X94463887Y-49465467D01*
X97364897Y-52366477D01*
X97364803Y-52474775D01*
X97537233Y-52892086D01*
X97856235Y-53211645D01*
X98273244Y-53384803D01*
X98320702Y-53384844D01*
X96483655Y-55221891D01*
X96226756Y-55115217D01*
X95775225Y-55114823D01*
X95357914Y-55287253D01*
X95038355Y-55606255D01*
X94865197Y-56023264D01*
X94864923Y-56337637D01*
X94766413Y-56296732D01*
X94235914Y-56296269D01*
X93745620Y-56498854D01*
X93370173Y-56873647D01*
X93166732Y-57363587D01*
X93166269Y-57894086D01*
X89901530Y-57894086D01*
X90083268Y-57456413D01*
X90083731Y-56925914D01*
X89881146Y-56435620D01*
X89506353Y-56060173D01*
X89016413Y-55856732D01*
X88485914Y-55856269D01*
X87995620Y-56058854D01*
X87620173Y-56433647D01*
X87416732Y-56923587D01*
X87416269Y-57454086D01*
X77269045Y-57454086D01*
X77269100Y-57391322D01*
X77096670Y-56974011D01*
X76777668Y-56654452D01*
X76360659Y-56481294D01*
X75909128Y-56480900D01*
X75800264Y-56525882D01*
X75819827Y-56506353D01*
X76023268Y-56016413D01*
X76023270Y-56014086D01*
X80976269Y-56014086D01*
X81178854Y-56504380D01*
X81553647Y-56879827D01*
X82043587Y-57083268D01*
X82574086Y-57083731D01*
X83064380Y-56881146D01*
X83439827Y-56506353D01*
X83643268Y-56016413D01*
X83643731Y-55485914D01*
X83441146Y-54995620D01*
X83066353Y-54620173D01*
X82576413Y-54416732D01*
X82045914Y-54416269D01*
X81555620Y-54618854D01*
X81180173Y-54993647D01*
X80976732Y-55483587D01*
X80976269Y-56014086D01*
X76023270Y-56014086D01*
X76023731Y-55485914D01*
X75821146Y-54995620D01*
X75522468Y-54696421D01*
X75706295Y-54620465D01*
X76025854Y-54301463D01*
X76199012Y-53884454D01*
X76199108Y-53774379D01*
X77365821Y-52607665D01*
X77365824Y-52607663D01*
X77557667Y-52320548D01*
X77625034Y-51981873D01*
X77625034Y-46088034D01*
X77701679Y-46011523D01*
X77874837Y-45594514D01*
X77875231Y-45142983D01*
X77702801Y-44725672D01*
X77383799Y-44406113D01*
X76966790Y-44232955D01*
X76515259Y-44232561D01*
X76097948Y-44404991D01*
X75778389Y-44723993D01*
X75605231Y-45141002D01*
X75604837Y-45592533D01*
X75777267Y-46009844D01*
X75855034Y-46087747D01*
X75855034Y-51615294D01*
X74947732Y-52522595D01*
X74839434Y-52522501D01*
X74422123Y-52694931D01*
X74102564Y-53013933D01*
X73929406Y-53430942D01*
X73929012Y-53882473D01*
X74101442Y-54299784D01*
X74278520Y-54477171D01*
X73935620Y-54618854D01*
X73635000Y-54918950D01*
X73635000Y-54470330D01*
X73711645Y-54393819D01*
X73884803Y-53976810D01*
X73885197Y-53525279D01*
X73712767Y-53107968D01*
X73635000Y-53030065D01*
X73635000Y-47088045D01*
X73711645Y-47011534D01*
X73884803Y-46594525D01*
X73885197Y-46142994D01*
X73712767Y-45725683D01*
X73393765Y-45406124D01*
X72976756Y-45232966D01*
X72525225Y-45232572D01*
X72107914Y-45405002D01*
X71788355Y-45724004D01*
X71615197Y-46141013D01*
X71614803Y-46592544D01*
X71787233Y-47009855D01*
X71865000Y-47087758D01*
X71865000Y-53029778D01*
X71788355Y-53106289D01*
X71615197Y-53523298D01*
X71614803Y-53974829D01*
X71787233Y-54392140D01*
X71865000Y-54470043D01*
X71865000Y-55277203D01*
X69281850Y-57860352D01*
X69131146Y-57495620D01*
X68756353Y-57120173D01*
X68266413Y-56916732D01*
X67735914Y-56916269D01*
X67245620Y-57118854D01*
X66870173Y-57493647D01*
X66666732Y-57983587D01*
X66666269Y-58514086D01*
X66868854Y-59004380D01*
X67243647Y-59379827D01*
X67610178Y-59532024D01*
X66987201Y-60155001D01*
X65000000Y-60155001D01*
X64661325Y-60222368D01*
X64374210Y-60414211D01*
X64374208Y-60414214D01*
X64254184Y-60534237D01*
X64062341Y-60821352D01*
X64062341Y-60821353D01*
X63997528Y-61147182D01*
X63918329Y-61226243D01*
X63745171Y-61643252D01*
X63744777Y-62094783D01*
X63856429Y-62365001D01*
X57866580Y-62365001D01*
X56855021Y-61353441D01*
X56855021Y-60319390D01*
X56988625Y-60519343D01*
X57437951Y-60819573D01*
X57967968Y-60925000D01*
X58532032Y-60925000D01*
X59062049Y-60819573D01*
X59511375Y-60519343D01*
X59655000Y-60304393D01*
X59655000Y-60416309D01*
X59751673Y-60649698D01*
X59930301Y-60828327D01*
X60163690Y-60925000D01*
X61004250Y-60925000D01*
X61163000Y-60766250D01*
X61163000Y-59667000D01*
X61417000Y-59667000D01*
X61417000Y-60766250D01*
X61575750Y-60925000D01*
X62416310Y-60925000D01*
X62649699Y-60828327D01*
X62828327Y-60649698D01*
X62925000Y-60416309D01*
X62925000Y-59825750D01*
X62766250Y-59667000D01*
X61417000Y-59667000D01*
X61163000Y-59667000D01*
X61143000Y-59667000D01*
X61143000Y-59413000D01*
X61163000Y-59413000D01*
X61163000Y-59393000D01*
X61417000Y-59393000D01*
X61417000Y-59413000D01*
X62766250Y-59413000D01*
X62925000Y-59254250D01*
X62925000Y-58663691D01*
X62828327Y-58430302D01*
X62649699Y-58251673D01*
X62416310Y-58155000D01*
X62288486Y-58155000D01*
X62551375Y-57979343D01*
X62851605Y-57530017D01*
X62957032Y-57000000D01*
X62851605Y-56469983D01*
X62551375Y-56020657D01*
X62116376Y-55730000D01*
X62551375Y-55439343D01*
X62851605Y-54990017D01*
X62957032Y-54460000D01*
X62851605Y-53929983D01*
X62551375Y-53480657D01*
X62116376Y-53190000D01*
X62551375Y-52899343D01*
X62851605Y-52450017D01*
X62957032Y-51920000D01*
X62851605Y-51389983D01*
X62551375Y-50940657D01*
X62116376Y-50650000D01*
X62551375Y-50359343D01*
X62851605Y-49910017D01*
X62957032Y-49380000D01*
X62851605Y-48849983D01*
X62551375Y-48400657D01*
X62102049Y-48100427D01*
X61572032Y-47995000D01*
X61007968Y-47995000D01*
X60477951Y-48100427D01*
X60028625Y-48400657D01*
X59770000Y-48787717D01*
X59511375Y-48400657D01*
X59062049Y-48100427D01*
X58532032Y-47995000D01*
X57967968Y-47995000D01*
X57437951Y-48100427D01*
X56988625Y-48400657D01*
X56688395Y-48849983D01*
X56582968Y-49380000D01*
X56688395Y-49910017D01*
X56988625Y-50359343D01*
X57423624Y-50650000D01*
X56988625Y-50940657D01*
X56688395Y-51389983D01*
X56582968Y-51920000D01*
X56688395Y-52450017D01*
X56988625Y-52899343D01*
X57423624Y-53190000D01*
X57006459Y-53468741D01*
X56932788Y-53290445D01*
X56613786Y-52970886D01*
X56196777Y-52797728D01*
X55745246Y-52797334D01*
X55327935Y-52969764D01*
X55008376Y-53288766D01*
X54835218Y-53705775D01*
X54834824Y-54157306D01*
X47205692Y-54157306D01*
X47213113Y-54120000D01*
X47103880Y-53570849D01*
X46792811Y-53105302D01*
X46410725Y-52850000D01*
X46792811Y-52594698D01*
X47103880Y-52129151D01*
X47213113Y-51580000D01*
X47103880Y-51030849D01*
X46792811Y-50565302D01*
X46410725Y-50310000D01*
X46792811Y-50054698D01*
X47103880Y-49589151D01*
X47213113Y-49040000D01*
X47103880Y-48490849D01*
X46792811Y-48025302D01*
X46410725Y-47770000D01*
X46792811Y-47514698D01*
X47103880Y-47049151D01*
X47213113Y-46500000D01*
X51906887Y-46500000D01*
X52016120Y-47049151D01*
X52327189Y-47514698D01*
X52709275Y-47770000D01*
X52327189Y-48025302D01*
X52016120Y-48490849D01*
X51906887Y-49040000D01*
X52016120Y-49589151D01*
X52327189Y-50054698D01*
X52709275Y-50310000D01*
X52327189Y-50565302D01*
X52016120Y-51030849D01*
X51906887Y-51580000D01*
X52016120Y-52129151D01*
X52327189Y-52594698D01*
X52731703Y-52864986D01*
X52514866Y-52967611D01*
X52138959Y-53382577D01*
X51978096Y-53770961D01*
X52100085Y-53993000D01*
X53243000Y-53993000D01*
X53243000Y-53973000D01*
X53497000Y-53973000D01*
X53497000Y-53993000D01*
X54639915Y-53993000D01*
X54761904Y-53770961D01*
X54601041Y-53382577D01*
X54225134Y-52967611D01*
X54008297Y-52864986D01*
X54412811Y-52594698D01*
X54723880Y-52129151D01*
X54833113Y-51580000D01*
X54723880Y-51030849D01*
X54412811Y-50565302D01*
X54030725Y-50310000D01*
X54412811Y-50054698D01*
X54723880Y-49589151D01*
X54833113Y-49040000D01*
X54723880Y-48490849D01*
X54412811Y-48025302D01*
X54030725Y-47770000D01*
X54412811Y-47514698D01*
X54606503Y-47224817D01*
X64928927Y-47224817D01*
X65101357Y-47642128D01*
X65179124Y-47720031D01*
X65179124Y-52814119D01*
X65179123Y-52814124D01*
X65222444Y-53031908D01*
X65246491Y-53152799D01*
X65410386Y-53398086D01*
X65438334Y-53439914D01*
X65864897Y-53866477D01*
X65864803Y-53974775D01*
X66037233Y-54392086D01*
X66356235Y-54711645D01*
X66773244Y-54884803D01*
X67224775Y-54885197D01*
X67642086Y-54712767D01*
X67861046Y-54494188D01*
X69495417Y-54494188D01*
X69557071Y-54729800D01*
X70057480Y-54905927D01*
X70587199Y-54877148D01*
X70942929Y-54729800D01*
X71004583Y-54494188D01*
X70250000Y-53739605D01*
X69495417Y-54494188D01*
X67861046Y-54494188D01*
X67961645Y-54393765D01*
X68134803Y-53976756D01*
X68135197Y-53525225D01*
X68070018Y-53367480D01*
X68904073Y-53367480D01*
X68932852Y-53897199D01*
X69080200Y-54252929D01*
X69315812Y-54314583D01*
X70070395Y-53560000D01*
X70429605Y-53560000D01*
X71184188Y-54314583D01*
X71419800Y-54252929D01*
X71595927Y-53752520D01*
X71567148Y-53222801D01*
X71419800Y-52867071D01*
X71184188Y-52805417D01*
X70429605Y-53560000D01*
X70070395Y-53560000D01*
X69315812Y-52805417D01*
X69080200Y-52867071D01*
X68904073Y-53367480D01*
X68070018Y-53367480D01*
X67962767Y-53107914D01*
X67643765Y-52788355D01*
X67252320Y-52625812D01*
X69495417Y-52625812D01*
X70250000Y-53380395D01*
X71004583Y-52625812D01*
X70942929Y-52390200D01*
X70442520Y-52214073D01*
X69912801Y-52242852D01*
X69557071Y-52390200D01*
X69495417Y-52625812D01*
X67252320Y-52625812D01*
X67226756Y-52615197D01*
X67116680Y-52615101D01*
X66949124Y-52447544D01*
X66949124Y-47720318D01*
X67025769Y-47643807D01*
X67198927Y-47226798D01*
X67199321Y-46775267D01*
X67026891Y-46357956D01*
X66873290Y-46204086D01*
X68916269Y-46204086D01*
X69118854Y-46694380D01*
X69493647Y-47069827D01*
X69983587Y-47273268D01*
X70514086Y-47273731D01*
X71004380Y-47071146D01*
X71379827Y-46696353D01*
X71583268Y-46206413D01*
X71583731Y-45675914D01*
X71381146Y-45185620D01*
X71006353Y-44810173D01*
X70516413Y-44606732D01*
X69985914Y-44606269D01*
X69495620Y-44808854D01*
X69120173Y-45183647D01*
X68916732Y-45673587D01*
X68916269Y-46204086D01*
X66873290Y-46204086D01*
X66707889Y-46038397D01*
X66290880Y-45865239D01*
X65839349Y-45864845D01*
X65422038Y-46037275D01*
X65102479Y-46356277D01*
X64929321Y-46773286D01*
X64928927Y-47224817D01*
X54606503Y-47224817D01*
X54723880Y-47049151D01*
X54833113Y-46500000D01*
X54723880Y-45950849D01*
X54412811Y-45485302D01*
X53947264Y-45174233D01*
X53398113Y-45065000D01*
X53341887Y-45065000D01*
X52792736Y-45174233D01*
X52327189Y-45485302D01*
X52016120Y-45950849D01*
X51906887Y-46500000D01*
X47213113Y-46500000D01*
X47103880Y-45950849D01*
X46792811Y-45485302D01*
X46327264Y-45174233D01*
X45778113Y-45065000D01*
X45721887Y-45065000D01*
X45172736Y-45174233D01*
X44707189Y-45485302D01*
X44396120Y-45950849D01*
X44286887Y-46500000D01*
X40901784Y-46500000D01*
X40895845Y-46485628D01*
X40267679Y-45856364D01*
X39446519Y-45515389D01*
X38557381Y-45514613D01*
X37735628Y-45854155D01*
X37106364Y-46482321D01*
X36765389Y-47303481D01*
X36764613Y-48192619D01*
X35210000Y-48192619D01*
X35210000Y-43210000D01*
X130790000Y-43210000D01*
X130790000Y-84290000D01*
X130790000Y-84290000D01*
G37*
X130790000Y-84290000D02*
X121874371Y-84290000D01*
X122098082Y-84066679D01*
X122385612Y-83374231D01*
X122386266Y-82624459D01*
X122099946Y-81931509D01*
X121570239Y-81400878D01*
X120877791Y-81113348D01*
X120128019Y-81112694D01*
X119435069Y-81399014D01*
X118904438Y-81928721D01*
X118616908Y-82621169D01*
X118616254Y-83370941D01*
X118902574Y-84063891D01*
X119128289Y-84290000D01*
X111871851Y-84290000D01*
X112095562Y-84066679D01*
X112383092Y-83374231D01*
X112383746Y-82624459D01*
X112097426Y-81931509D01*
X111567719Y-81400878D01*
X110875271Y-81113348D01*
X110125499Y-81112694D01*
X109432549Y-81399014D01*
X108901918Y-81928721D01*
X108614388Y-82621169D01*
X108613734Y-83370941D01*
X108900054Y-84063891D01*
X109125769Y-84290000D01*
X100841637Y-84290000D01*
X101200843Y-83931419D01*
X101488373Y-83238971D01*
X101489027Y-82489199D01*
X101202707Y-81796249D01*
X100673000Y-81265618D01*
X99980552Y-80978088D01*
X99230780Y-80977434D01*
X98537830Y-81263754D01*
X98007199Y-81793461D01*
X97719669Y-82485909D01*
X97719015Y-83235681D01*
X98005335Y-83928631D01*
X98366075Y-84290000D01*
X90839117Y-84290000D01*
X91198323Y-83931419D01*
X91485853Y-83238971D01*
X91486507Y-82489199D01*
X91200187Y-81796249D01*
X90670480Y-81265618D01*
X89978032Y-80978088D01*
X89228260Y-80977434D01*
X88535310Y-81263754D01*
X88004679Y-81793461D01*
X87717149Y-82485909D01*
X87716495Y-83235681D01*
X88002815Y-83928631D01*
X88363555Y-84290000D01*
X79651432Y-84290000D01*
X79938373Y-83598971D01*
X79939027Y-82849199D01*
X79652707Y-82156249D01*
X79123000Y-81625618D01*
X78430552Y-81338088D01*
X77680780Y-81337434D01*
X76987830Y-81623754D01*
X76457199Y-82153461D01*
X76169669Y-82845909D01*
X76169015Y-83595681D01*
X76455335Y-84288631D01*
X76456702Y-84290000D01*
X69648912Y-84290000D01*
X69935853Y-83598971D01*
X69936507Y-82849199D01*
X69650187Y-82156249D01*
X69120480Y-81625618D01*
X68428032Y-81338088D01*
X67678260Y-81337434D01*
X66985310Y-81623754D01*
X66454679Y-82153461D01*
X66167149Y-82845909D01*
X66166495Y-83595681D01*
X66452815Y-84288631D01*
X66454182Y-84290000D01*
X57951432Y-84290000D01*
X58238373Y-83598971D01*
X58239027Y-82849199D01*
X57952707Y-82156249D01*
X57423000Y-81625618D01*
X56730552Y-81338088D01*
X55980780Y-81337434D01*
X55287830Y-81623754D01*
X54757199Y-82153461D01*
X54469669Y-82845909D01*
X54469015Y-83595681D01*
X54755335Y-84288631D01*
X54756702Y-84290000D01*
X47948912Y-84290000D01*
X48235853Y-83598971D01*
X48236507Y-82849199D01*
X47950187Y-82156249D01*
X47420480Y-81625618D01*
X46728032Y-81338088D01*
X45978260Y-81337434D01*
X45285310Y-81623754D01*
X44754679Y-82153461D01*
X44467149Y-82845909D01*
X44466495Y-83595681D01*
X44752815Y-84288631D01*
X44754182Y-84290000D01*
X35210000Y-84290000D01*
X35210000Y-73600781D01*
X41969675Y-73600781D01*
X42255995Y-74293731D01*
X42785702Y-74824362D01*
X43478150Y-75111892D01*
X44227922Y-75112546D01*
X44920872Y-74826226D01*
X45451503Y-74296519D01*
X45739033Y-73604071D01*
X45739038Y-73598241D01*
X49467755Y-73598241D01*
X49754075Y-74291191D01*
X50283782Y-74821822D01*
X50976230Y-75109352D01*
X51726002Y-75110006D01*
X52418952Y-74823686D01*
X52949583Y-74293979D01*
X53237113Y-73601531D01*
X53237767Y-72851759D01*
X52951447Y-72158809D01*
X52421740Y-71628178D01*
X51729292Y-71340648D01*
X50979520Y-71339994D01*
X50286570Y-71626314D01*
X49755939Y-72156021D01*
X49468409Y-72848469D01*
X49467755Y-73598241D01*
X45739038Y-73598241D01*
X45739687Y-72854299D01*
X45568055Y-72438916D01*
X45980050Y-72609992D01*
X46729822Y-72610646D01*
X47422772Y-72324326D01*
X47953403Y-71794619D01*
X48240933Y-71102171D01*
X48240935Y-71098881D01*
X54463935Y-71098881D01*
X54750255Y-71791831D01*
X55279962Y-72322462D01*
X55972410Y-72609992D01*
X56722182Y-72610646D01*
X57137565Y-72439014D01*
X56966489Y-72851009D01*
X56965835Y-73600781D01*
X57252155Y-74293731D01*
X57781862Y-74824362D01*
X58474310Y-75111892D01*
X59224082Y-75112546D01*
X59917032Y-74826226D01*
X60447663Y-74296519D01*
X60735193Y-73604071D01*
X60735195Y-73600781D01*
X63669675Y-73600781D01*
X63955995Y-74293731D01*
X64485702Y-74824362D01*
X65178150Y-75111892D01*
X65927922Y-75112546D01*
X66620872Y-74826226D01*
X67151503Y-74296519D01*
X67439033Y-73604071D01*
X67439038Y-73598241D01*
X71167755Y-73598241D01*
X71454075Y-74291191D01*
X71983782Y-74821822D01*
X72676230Y-75109352D01*
X73426002Y-75110006D01*
X74118952Y-74823686D01*
X74649583Y-74293979D01*
X74937113Y-73601531D01*
X74937767Y-72851759D01*
X74651447Y-72158809D01*
X74121740Y-71628178D01*
X73429292Y-71340648D01*
X72679520Y-71339994D01*
X71986570Y-71626314D01*
X71455939Y-72156021D01*
X71168409Y-72848469D01*
X71167755Y-73598241D01*
X67439038Y-73598241D01*
X67439687Y-72854299D01*
X67268055Y-72438916D01*
X67680050Y-72609992D01*
X68429822Y-72610646D01*
X69122772Y-72324326D01*
X69653403Y-71794619D01*
X69940933Y-71102171D01*
X69940935Y-71098881D01*
X76163935Y-71098881D01*
X76450255Y-71791831D01*
X76979962Y-72322462D01*
X77672410Y-72609992D01*
X78422182Y-72610646D01*
X78837565Y-72439014D01*
X78666489Y-72851009D01*
X78665835Y-73600781D01*
X78952155Y-74293731D01*
X79481862Y-74824362D01*
X80174310Y-75111892D01*
X80924082Y-75112546D01*
X81617032Y-74826226D01*
X82147663Y-74296519D01*
X82435193Y-73604071D01*
X82435509Y-73240781D01*
X85219675Y-73240781D01*
X85505995Y-73933731D01*
X86035702Y-74464362D01*
X86728150Y-74751892D01*
X87477922Y-74752546D01*
X88170872Y-74466226D01*
X88701503Y-73936519D01*
X88989033Y-73244071D01*
X88989038Y-73238241D01*
X92717755Y-73238241D01*
X93004075Y-73931191D01*
X93533782Y-74461822D01*
X94226230Y-74749352D01*
X94976002Y-74750006D01*
X95668952Y-74463686D01*
X96199583Y-73933979D01*
X96487113Y-73241531D01*
X96487767Y-72491759D01*
X96201447Y-71798809D01*
X95671740Y-71268178D01*
X94979292Y-70980648D01*
X94229520Y-70979994D01*
X93536570Y-71266314D01*
X93005939Y-71796021D01*
X92718409Y-72488469D01*
X92717755Y-73238241D01*
X88989038Y-73238241D01*
X88989687Y-72494299D01*
X88818055Y-72078916D01*
X89230050Y-72249992D01*
X89979822Y-72250646D01*
X90672772Y-71964326D01*
X91203403Y-71434619D01*
X91490933Y-70742171D01*
X91490935Y-70738881D01*
X97713935Y-70738881D01*
X98000255Y-71431831D01*
X98529962Y-71962462D01*
X99222410Y-72249992D01*
X99972182Y-72250646D01*
X100387565Y-72079014D01*
X100216489Y-72491009D01*
X100215835Y-73240781D01*
X100502155Y-73933731D01*
X101031862Y-74464362D01*
X101724310Y-74751892D01*
X102474082Y-74752546D01*
X103167032Y-74466226D01*
X103697663Y-73936519D01*
X103930394Y-73376041D01*
X106116914Y-73376041D01*
X106403234Y-74068991D01*
X106932941Y-74599622D01*
X107625389Y-74887152D01*
X108375161Y-74887806D01*
X109068111Y-74601486D01*
X109598742Y-74071779D01*
X109886272Y-73379331D01*
X109886277Y-73373501D01*
X113614994Y-73373501D01*
X113901314Y-74066451D01*
X114431021Y-74597082D01*
X115123469Y-74884612D01*
X115873241Y-74885266D01*
X116566191Y-74598946D01*
X117096822Y-74069239D01*
X117384352Y-73376791D01*
X117385006Y-72627019D01*
X117098686Y-71934069D01*
X116568979Y-71403438D01*
X115876531Y-71115908D01*
X115126759Y-71115254D01*
X114433809Y-71401574D01*
X113903178Y-71931281D01*
X113615648Y-72623729D01*
X113614994Y-73373501D01*
X109886277Y-73373501D01*
X109886926Y-72629559D01*
X109715294Y-72214176D01*
X110127289Y-72385252D01*
X110877061Y-72385906D01*
X111570011Y-72099586D01*
X112100642Y-71569879D01*
X112388172Y-70877431D01*
X112388174Y-70874141D01*
X118611174Y-70874141D01*
X118897494Y-71567091D01*
X119427201Y-72097722D01*
X120119649Y-72385252D01*
X120869421Y-72385906D01*
X121284804Y-72214274D01*
X121113728Y-72626269D01*
X121113074Y-73376041D01*
X121399394Y-74068991D01*
X121929101Y-74599622D01*
X122621549Y-74887152D01*
X123371321Y-74887806D01*
X124064271Y-74601486D01*
X124594902Y-74071779D01*
X124882432Y-73379331D01*
X124883086Y-72629559D01*
X124596766Y-71936609D01*
X124067059Y-71405978D01*
X123374611Y-71118448D01*
X122624839Y-71117794D01*
X122209456Y-71289426D01*
X122380532Y-70877431D01*
X122381186Y-70127659D01*
X122094866Y-69434709D01*
X121565159Y-68904078D01*
X120872711Y-68616548D01*
X120122939Y-68615894D01*
X119429989Y-68902214D01*
X118899358Y-69431921D01*
X118611828Y-70124369D01*
X118611174Y-70874141D01*
X112388174Y-70874141D01*
X112388826Y-70127659D01*
X112102506Y-69434709D01*
X111572799Y-68904078D01*
X110880351Y-68616548D01*
X110130579Y-68615894D01*
X109437629Y-68902214D01*
X108906998Y-69431921D01*
X108619468Y-70124369D01*
X108618814Y-70874141D01*
X108790446Y-71289524D01*
X108378451Y-71118448D01*
X107628679Y-71117794D01*
X106935729Y-71404114D01*
X106405098Y-71933821D01*
X106117568Y-72626269D01*
X106116914Y-73376041D01*
X103930394Y-73376041D01*
X103985193Y-73244071D01*
X103985847Y-72494299D01*
X103699527Y-71801349D01*
X103169820Y-71270718D01*
X102477372Y-70983188D01*
X101727600Y-70982534D01*
X101312217Y-71154166D01*
X101483293Y-70742171D01*
X101483947Y-69992399D01*
X101197627Y-69299449D01*
X100667920Y-68768818D01*
X99975472Y-68481288D01*
X99225700Y-68480634D01*
X98532750Y-68766954D01*
X98002119Y-69296661D01*
X97714589Y-69989109D01*
X97713935Y-70738881D01*
X91490935Y-70738881D01*
X91491587Y-69992399D01*
X91205267Y-69299449D01*
X90675560Y-68768818D01*
X89983112Y-68481288D01*
X89233340Y-68480634D01*
X88540390Y-68766954D01*
X88009759Y-69296661D01*
X87722229Y-69989109D01*
X87721575Y-70738881D01*
X87893207Y-71154264D01*
X87481212Y-70983188D01*
X86731440Y-70982534D01*
X86038490Y-71268854D01*
X85507859Y-71798561D01*
X85220329Y-72491009D01*
X85219675Y-73240781D01*
X82435509Y-73240781D01*
X82435847Y-72854299D01*
X82149527Y-72161349D01*
X81619820Y-71630718D01*
X80927372Y-71343188D01*
X80177600Y-71342534D01*
X79762217Y-71514166D01*
X79933293Y-71102171D01*
X79933947Y-70352399D01*
X79647627Y-69659449D01*
X79117920Y-69128818D01*
X78425472Y-68841288D01*
X77675700Y-68840634D01*
X76982750Y-69126954D01*
X76452119Y-69656661D01*
X76164589Y-70349109D01*
X76163935Y-71098881D01*
X69940935Y-71098881D01*
X69941587Y-70352399D01*
X69655267Y-69659449D01*
X69125560Y-69128818D01*
X68433112Y-68841288D01*
X67683340Y-68840634D01*
X66990390Y-69126954D01*
X66459759Y-69656661D01*
X66172229Y-70349109D01*
X66171575Y-71098881D01*
X66343207Y-71514264D01*
X65931212Y-71343188D01*
X65181440Y-71342534D01*
X64488490Y-71628854D01*
X63957859Y-72158561D01*
X63670329Y-72851009D01*
X63669675Y-73600781D01*
X60735195Y-73600781D01*
X60735847Y-72854299D01*
X60449527Y-72161349D01*
X59919820Y-71630718D01*
X59227372Y-71343188D01*
X58477600Y-71342534D01*
X58062217Y-71514166D01*
X58233293Y-71102171D01*
X58233947Y-70352399D01*
X57947627Y-69659449D01*
X57417920Y-69128818D01*
X56725472Y-68841288D01*
X55975700Y-68840634D01*
X55282750Y-69126954D01*
X54752119Y-69656661D01*
X54464589Y-70349109D01*
X54463935Y-71098881D01*
X48240935Y-71098881D01*
X48241587Y-70352399D01*
X47955267Y-69659449D01*
X47425560Y-69128818D01*
X46733112Y-68841288D01*
X45983340Y-68840634D01*
X45290390Y-69126954D01*
X44759759Y-69656661D01*
X44472229Y-70349109D01*
X44471575Y-71098881D01*
X44643207Y-71514264D01*
X44231212Y-71343188D01*
X43481440Y-71342534D01*
X42788490Y-71628854D01*
X42257859Y-72158561D01*
X41970329Y-72851009D01*
X41969675Y-73600781D01*
X35210000Y-73600781D01*
X35210000Y-65442619D01*
X36764613Y-65442619D01*
X37104155Y-66264372D01*
X37732321Y-66893636D01*
X38553481Y-67234611D01*
X39442619Y-67235387D01*
X40264372Y-66895845D01*
X40893636Y-66267679D01*
X41234611Y-65446519D01*
X41235387Y-64557381D01*
X41232958Y-64551500D01*
X44904060Y-64551500D01*
X44904060Y-65948500D01*
X44948338Y-66183817D01*
X45087410Y-66399941D01*
X45299610Y-66544931D01*
X45551500Y-66595940D01*
X46948500Y-66595940D01*
X47183817Y-66551662D01*
X47399941Y-66412590D01*
X47544931Y-66200390D01*
X47595940Y-65948500D01*
X47595940Y-65574086D01*
X47666269Y-65574086D01*
X47868854Y-66064380D01*
X48243647Y-66439827D01*
X48733587Y-66643268D01*
X49264086Y-66643731D01*
X49754380Y-66441146D01*
X50061975Y-66134086D01*
X66666269Y-66134086D01*
X66868854Y-66624380D01*
X67243647Y-66999827D01*
X67733587Y-67203268D01*
X68264086Y-67203731D01*
X68754380Y-67001146D01*
X69122080Y-66634086D01*
X110666269Y-66634086D01*
X110868854Y-67124380D01*
X111243647Y-67499827D01*
X111733587Y-67703268D01*
X112264086Y-67703731D01*
X112723062Y-67514086D01*
X115166269Y-67514086D01*
X115368854Y-68004380D01*
X115743647Y-68379827D01*
X116233587Y-68583268D01*
X116764086Y-68583731D01*
X117254380Y-68381146D01*
X117629827Y-68006353D01*
X117833268Y-67516413D01*
X117833731Y-66985914D01*
X117766866Y-66824086D01*
X117916269Y-66824086D01*
X118118854Y-67314380D01*
X118493647Y-67689827D01*
X118983587Y-67893268D01*
X119514086Y-67893731D01*
X120000815Y-67692619D01*
X125514613Y-67692619D01*
X125854155Y-68514372D01*
X126482321Y-69143636D01*
X127303481Y-69484611D01*
X128192619Y-69485387D01*
X129014372Y-69145845D01*
X129643636Y-68517679D01*
X129984611Y-67696519D01*
X129985387Y-66807381D01*
X129645845Y-65985628D01*
X129017679Y-65356364D01*
X128196519Y-65015389D01*
X127307381Y-65014613D01*
X126485628Y-65354155D01*
X125856364Y-65982321D01*
X125515389Y-66803481D01*
X125514613Y-67692619D01*
X120000815Y-67692619D01*
X120004380Y-67691146D01*
X120379827Y-67316353D01*
X120583268Y-66826413D01*
X120583731Y-66295914D01*
X120381146Y-65805620D01*
X120006353Y-65430173D01*
X119516413Y-65226732D01*
X118985914Y-65226269D01*
X118495620Y-65428854D01*
X118120173Y-65803647D01*
X117916732Y-66293587D01*
X117916269Y-66824086D01*
X117766866Y-66824086D01*
X117631146Y-66495620D01*
X117256353Y-66120173D01*
X116766413Y-65916732D01*
X116235914Y-65916269D01*
X115745620Y-66118854D01*
X115370173Y-66493647D01*
X115166732Y-66983587D01*
X115166269Y-67514086D01*
X112723062Y-67514086D01*
X112754380Y-67501146D01*
X113129827Y-67126353D01*
X113333268Y-66636413D01*
X113333731Y-66105914D01*
X113131146Y-65615620D01*
X112756353Y-65240173D01*
X112266413Y-65036732D01*
X111735914Y-65036269D01*
X111245620Y-65238854D01*
X110870173Y-65613647D01*
X110666732Y-66103587D01*
X110666269Y-66634086D01*
X69122080Y-66634086D01*
X69129827Y-66626353D01*
X69333268Y-66136413D01*
X69333731Y-65605914D01*
X69131146Y-65115620D01*
X68840120Y-64824086D01*
X71416269Y-64824086D01*
X71618854Y-65314380D01*
X71993647Y-65689827D01*
X72483587Y-65893268D01*
X73014086Y-65893731D01*
X73504380Y-65691146D01*
X73879827Y-65316353D01*
X74083268Y-64826413D01*
X74083731Y-64295914D01*
X74007533Y-64111500D01*
X87404060Y-64111500D01*
X87404060Y-65508500D01*
X87448338Y-65743817D01*
X87587410Y-65959941D01*
X87799610Y-66104931D01*
X88051500Y-66155940D01*
X89448500Y-66155940D01*
X89683817Y-66111662D01*
X89899941Y-65972590D01*
X90044931Y-65760390D01*
X90094808Y-65514086D01*
X93166269Y-65514086D01*
X93368854Y-66004380D01*
X93743647Y-66379827D01*
X94233587Y-66583268D01*
X94764086Y-66583731D01*
X95254380Y-66381146D01*
X95629827Y-66006353D01*
X95833268Y-65516413D01*
X95833731Y-64985914D01*
X95631146Y-64495620D01*
X95256353Y-64120173D01*
X94766413Y-63916732D01*
X94235914Y-63916269D01*
X93745620Y-64118854D01*
X93370173Y-64493647D01*
X93166732Y-64983587D01*
X93166269Y-65514086D01*
X90094808Y-65514086D01*
X90095940Y-65508500D01*
X90095940Y-64111500D01*
X90051662Y-63876183D01*
X89912590Y-63660059D01*
X89700390Y-63515069D01*
X89448500Y-63464060D01*
X88051500Y-63464060D01*
X87816183Y-63508338D01*
X87600059Y-63647410D01*
X87455069Y-63859610D01*
X87404060Y-64111500D01*
X74007533Y-64111500D01*
X73881146Y-63805620D01*
X73506353Y-63430173D01*
X73016413Y-63226732D01*
X72485914Y-63226269D01*
X71995620Y-63428854D01*
X71620173Y-63803647D01*
X71416732Y-64293587D01*
X71416269Y-64824086D01*
X68840120Y-64824086D01*
X68756353Y-64740173D01*
X68266413Y-64536732D01*
X67735914Y-64536269D01*
X67245620Y-64738854D01*
X66870173Y-65113647D01*
X66666732Y-65603587D01*
X66666269Y-66134086D01*
X50061975Y-66134086D01*
X50129827Y-66066353D01*
X50333268Y-65576413D01*
X50333731Y-65045914D01*
X50131146Y-64555620D01*
X49756353Y-64180173D01*
X49266413Y-63976732D01*
X48735914Y-63976269D01*
X48245620Y-64178854D01*
X47870173Y-64553647D01*
X47666732Y-65043587D01*
X47666269Y-65574086D01*
X47595940Y-65574086D01*
X47595940Y-64551500D01*
X47551662Y-64316183D01*
X47412590Y-64100059D01*
X47200390Y-63955069D01*
X46948500Y-63904060D01*
X45551500Y-63904060D01*
X45316183Y-63948338D01*
X45100059Y-64087410D01*
X44955069Y-64299610D01*
X44904060Y-64551500D01*
X41232958Y-64551500D01*
X40895845Y-63735628D01*
X40267679Y-63106364D01*
X39446519Y-62765389D01*
X38557381Y-62764613D01*
X37735628Y-63104155D01*
X37106364Y-63732321D01*
X36765389Y-64553481D01*
X36764613Y-65442619D01*
X35210000Y-65442619D01*
X35210000Y-57894086D01*
X44916269Y-57894086D01*
X45118854Y-58384380D01*
X45493647Y-58759827D01*
X45983587Y-58963268D01*
X46514086Y-58963731D01*
X47004380Y-58761146D01*
X47379827Y-58386353D01*
X47559320Y-57954086D01*
X47666269Y-57954086D01*
X47868854Y-58444380D01*
X48243647Y-58819827D01*
X48733587Y-59023268D01*
X49264086Y-59023731D01*
X49754380Y-58821146D01*
X50129827Y-58446353D01*
X50333268Y-57956413D01*
X50333731Y-57425914D01*
X50131146Y-56935620D01*
X49756353Y-56560173D01*
X49266413Y-56356732D01*
X48735914Y-56356269D01*
X48245620Y-56558854D01*
X47870173Y-56933647D01*
X47666732Y-57423587D01*
X47666269Y-57954086D01*
X47559320Y-57954086D01*
X47583268Y-57896413D01*
X47583731Y-57365914D01*
X47381146Y-56875620D01*
X47006353Y-56500173D01*
X46516413Y-56296732D01*
X45985914Y-56296269D01*
X45495620Y-56498854D01*
X45120173Y-56873647D01*
X44916732Y-57363587D01*
X44916269Y-57894086D01*
X35210000Y-57894086D01*
X35210000Y-48192619D01*
X36764613Y-48192619D01*
X37104155Y-49014372D01*
X37732321Y-49643636D01*
X38553481Y-49984611D01*
X39442619Y-49985387D01*
X40264372Y-49645845D01*
X40893636Y-49017679D01*
X41234611Y-48196519D01*
X41235387Y-47307381D01*
X40901784Y-46500000D01*
X44286887Y-46500000D01*
X44396120Y-47049151D01*
X44707189Y-47514698D01*
X45089275Y-47770000D01*
X44707189Y-48025302D01*
X44396120Y-48490849D01*
X44286887Y-49040000D01*
X44396120Y-49589151D01*
X44707189Y-50054698D01*
X45089275Y-50310000D01*
X44707189Y-50565302D01*
X44396120Y-51030849D01*
X44286887Y-51580000D01*
X44396120Y-52129151D01*
X44707189Y-52594698D01*
X45089275Y-52850000D01*
X44707189Y-53105302D01*
X44396120Y-53570849D01*
X44286887Y-54120000D01*
X44396120Y-54669151D01*
X44707189Y-55134698D01*
X45172736Y-55445767D01*
X45721887Y-55555000D01*
X45778113Y-55555000D01*
X46327264Y-55445767D01*
X46792811Y-55134698D01*
X47103880Y-54669151D01*
X47143684Y-54469039D01*
X51978096Y-54469039D01*
X52138959Y-54857423D01*
X52514866Y-55272389D01*
X53020959Y-55511914D01*
X53243000Y-55390629D01*
X53243000Y-54247000D01*
X53497000Y-54247000D01*
X53497000Y-55390629D01*
X53719041Y-55511914D01*
X54225134Y-55272389D01*
X54601041Y-54857423D01*
X54761904Y-54469039D01*
X54639915Y-54247000D01*
X53497000Y-54247000D01*
X53243000Y-54247000D01*
X52100085Y-54247000D01*
X51978096Y-54469039D01*
X47143684Y-54469039D01*
X47205692Y-54157306D01*
X54834824Y-54157306D01*
X55007254Y-54574617D01*
X55085021Y-54652520D01*
X55085021Y-61720016D01*
X55085020Y-61720021D01*
X55112394Y-61857634D01*
X55152388Y-62058696D01*
X55247691Y-62201328D01*
X55344231Y-62345811D01*
X56874209Y-63875788D01*
X56874211Y-63875791D01*
X57161326Y-64067634D01*
X57500001Y-64135001D01*
X65539998Y-64135001D01*
X65540003Y-64135002D01*
X65822487Y-64078811D01*
X65878678Y-64067634D01*
X66165793Y-63875791D01*
X66165794Y-63875790D01*
X66616580Y-63425003D01*
X67268002Y-63425003D01*
X67268007Y-63425004D01*
X67550491Y-63368813D01*
X67606682Y-63357636D01*
X67893797Y-63165793D01*
X67893798Y-63165792D01*
X70752211Y-60307378D01*
X74327617Y-60307378D01*
X74327622Y-60307379D01*
X74610106Y-60251188D01*
X74666297Y-60240011D01*
X74953412Y-60048168D01*
X76250380Y-58751200D01*
X76358678Y-58751294D01*
X76775989Y-58578864D01*
X77095548Y-58259862D01*
X77268706Y-57842853D01*
X77269045Y-57454086D01*
X87416269Y-57454086D01*
X87618854Y-57944380D01*
X87993647Y-58319827D01*
X88483587Y-58523268D01*
X89014086Y-58523731D01*
X89504380Y-58321146D01*
X89879827Y-57946353D01*
X89901530Y-57894086D01*
X93166269Y-57894086D01*
X93368854Y-58384380D01*
X93743647Y-58759827D01*
X94233587Y-58963268D01*
X94764086Y-58963731D01*
X95254380Y-58761146D01*
X95629827Y-58386353D01*
X95833268Y-57896413D01*
X95833714Y-57384876D01*
X96224775Y-57385217D01*
X96642086Y-57212787D01*
X96723193Y-57131821D01*
X96989590Y-57078830D01*
X97045781Y-57067653D01*
X97332896Y-56875810D01*
X102125787Y-52082918D01*
X102125790Y-52082916D01*
X102317633Y-51795801D01*
X102347988Y-51643199D01*
X102385001Y-51457126D01*
X102385000Y-51457121D01*
X102385000Y-49891582D01*
X102438395Y-50160017D01*
X102738625Y-50609343D01*
X103173624Y-50900000D01*
X102738625Y-51190657D01*
X102438395Y-51639983D01*
X102332968Y-52170000D01*
X102438395Y-52700017D01*
X102738625Y-53149343D01*
X103173624Y-53440000D01*
X102738625Y-53730657D01*
X102438395Y-54179983D01*
X102332968Y-54710000D01*
X102438395Y-55240017D01*
X102738625Y-55689343D01*
X103173624Y-55980000D01*
X102738625Y-56270657D01*
X102438395Y-56719983D01*
X102332968Y-57250000D01*
X102438395Y-57780017D01*
X102738625Y-58229343D01*
X103173624Y-58520000D01*
X102738625Y-58810657D01*
X102438395Y-59259983D01*
X102332968Y-59790000D01*
X102438395Y-60320017D01*
X102738625Y-60769343D01*
X103187951Y-61069573D01*
X103717968Y-61175000D01*
X104282032Y-61175000D01*
X104812049Y-61069573D01*
X105261375Y-60769343D01*
X105405000Y-60554393D01*
X105405000Y-60666309D01*
X105501673Y-60899698D01*
X105680301Y-61078327D01*
X105913690Y-61175000D01*
X106754250Y-61175000D01*
X106913000Y-61016250D01*
X106913000Y-59917000D01*
X107167000Y-59917000D01*
X107167000Y-61016250D01*
X107325750Y-61175000D01*
X108166310Y-61175000D01*
X108399699Y-61078327D01*
X108578327Y-60899698D01*
X108675000Y-60666309D01*
X108675000Y-60075750D01*
X108516250Y-59917000D01*
X107167000Y-59917000D01*
X106913000Y-59917000D01*
X106893000Y-59917000D01*
X106893000Y-59663000D01*
X106913000Y-59663000D01*
X106913000Y-59643000D01*
X107167000Y-59643000D01*
X107167000Y-59663000D01*
X108516250Y-59663000D01*
X108675000Y-59504250D01*
X108675000Y-59014086D01*
X110666269Y-59014086D01*
X110868854Y-59504380D01*
X111243647Y-59879827D01*
X111733587Y-60083268D01*
X112264086Y-60083731D01*
X112723062Y-59894086D01*
X115166269Y-59894086D01*
X115368854Y-60384380D01*
X115743647Y-60759827D01*
X116233587Y-60963268D01*
X116764086Y-60963731D01*
X117254380Y-60761146D01*
X117271367Y-60744188D01*
X122245417Y-60744188D01*
X122307071Y-60979800D01*
X122807480Y-61155927D01*
X123337199Y-61127148D01*
X123692929Y-60979800D01*
X123754583Y-60744188D01*
X123000000Y-59989605D01*
X122245417Y-60744188D01*
X117271367Y-60744188D01*
X117629827Y-60386353D01*
X117833268Y-59896413D01*
X117833731Y-59365914D01*
X117766866Y-59204086D01*
X117916269Y-59204086D01*
X118118854Y-59694380D01*
X118493647Y-60069827D01*
X118983587Y-60273268D01*
X119514086Y-60273731D01*
X120004380Y-60071146D01*
X120379827Y-59696353D01*
X120412577Y-59617480D01*
X121654073Y-59617480D01*
X121682852Y-60147199D01*
X121830200Y-60502929D01*
X122065812Y-60564583D01*
X122820395Y-59810000D01*
X123179605Y-59810000D01*
X123934188Y-60564583D01*
X124169800Y-60502929D01*
X124345927Y-60002520D01*
X124317148Y-59472801D01*
X124169800Y-59117071D01*
X123934188Y-59055417D01*
X123179605Y-59810000D01*
X122820395Y-59810000D01*
X122065812Y-59055417D01*
X121830200Y-59117071D01*
X121654073Y-59617480D01*
X120412577Y-59617480D01*
X120583268Y-59206413D01*
X120583556Y-58875812D01*
X122245417Y-58875812D01*
X123000000Y-59630395D01*
X123754583Y-58875812D01*
X123692929Y-58640200D01*
X123192520Y-58464073D01*
X122662801Y-58492852D01*
X122307071Y-58640200D01*
X122245417Y-58875812D01*
X120583556Y-58875812D01*
X120583731Y-58675914D01*
X120381146Y-58185620D01*
X120006353Y-57810173D01*
X119516413Y-57606732D01*
X118985914Y-57606269D01*
X118495620Y-57808854D01*
X118120173Y-58183647D01*
X117916732Y-58673587D01*
X117916269Y-59204086D01*
X117766866Y-59204086D01*
X117631146Y-58875620D01*
X117256353Y-58500173D01*
X116766413Y-58296732D01*
X116235914Y-58296269D01*
X115745620Y-58498854D01*
X115370173Y-58873647D01*
X115166732Y-59363587D01*
X115166269Y-59894086D01*
X112723062Y-59894086D01*
X112754380Y-59881146D01*
X113129827Y-59506353D01*
X113333268Y-59016413D01*
X113333731Y-58485914D01*
X113131146Y-57995620D01*
X112756353Y-57620173D01*
X112266413Y-57416732D01*
X111735914Y-57416269D01*
X111245620Y-57618854D01*
X110870173Y-57993647D01*
X110666732Y-58483587D01*
X110666269Y-59014086D01*
X108675000Y-59014086D01*
X108675000Y-58913691D01*
X108578327Y-58680302D01*
X108399699Y-58501673D01*
X108166310Y-58405000D01*
X108038486Y-58405000D01*
X108301375Y-58229343D01*
X108601605Y-57780017D01*
X108707032Y-57250000D01*
X108601605Y-56719983D01*
X108301375Y-56270657D01*
X107866376Y-55980000D01*
X108301375Y-55689343D01*
X108601605Y-55240017D01*
X108707032Y-54710000D01*
X108601605Y-54179983D01*
X108301375Y-53730657D01*
X107866376Y-53440000D01*
X108301375Y-53149343D01*
X108601605Y-52700017D01*
X108707032Y-52170000D01*
X108601605Y-51639983D01*
X108301375Y-51190657D01*
X107866376Y-50900000D01*
X108301375Y-50609343D01*
X108601605Y-50160017D01*
X108707032Y-49630000D01*
X108601605Y-49099983D01*
X108301375Y-48650657D01*
X107852049Y-48350427D01*
X107322032Y-48245000D01*
X106757968Y-48245000D01*
X106227951Y-48350427D01*
X105778625Y-48650657D01*
X105520000Y-49037717D01*
X105261375Y-48650657D01*
X104812049Y-48350427D01*
X104282032Y-48245000D01*
X103717968Y-48245000D01*
X103187951Y-48350427D01*
X102738625Y-48650657D01*
X102438395Y-49099983D01*
X102385000Y-49368418D01*
X102385000Y-48116580D01*
X103364880Y-47136700D01*
X103364803Y-47224775D01*
X103537233Y-47642086D01*
X103856235Y-47961645D01*
X104273244Y-48134803D01*
X104724775Y-48135197D01*
X105142086Y-47962767D01*
X105219989Y-47885000D01*
X109029724Y-47885000D01*
X109106235Y-47961645D01*
X109523244Y-48134803D01*
X109974775Y-48135197D01*
X110392086Y-47962767D01*
X110711645Y-47643765D01*
X110884803Y-47226756D01*
X110885197Y-46775225D01*
X110712767Y-46357914D01*
X110393765Y-46038355D01*
X109976756Y-45865197D01*
X109525225Y-45864803D01*
X109107914Y-46037233D01*
X109030011Y-46115000D01*
X105362004Y-46115000D01*
X105088674Y-45932367D01*
X104750000Y-45865000D01*
X104733964Y-45868190D01*
X104726756Y-45865197D01*
X104636461Y-45865118D01*
X105116579Y-45385000D01*
X113633420Y-45385000D01*
X114603421Y-46355000D01*
X113934130Y-47024291D01*
X113853880Y-46620849D01*
X113542811Y-46155302D01*
X113077264Y-45844233D01*
X112528113Y-45735000D01*
X112471887Y-45735000D01*
X111922736Y-45844233D01*
X111457189Y-46155302D01*
X111146120Y-46620849D01*
X111036887Y-47170000D01*
X111146120Y-47719151D01*
X111457189Y-48184698D01*
X111839275Y-48440000D01*
X111457189Y-48695302D01*
X111146120Y-49160849D01*
X111036887Y-49710000D01*
X111146120Y-50259151D01*
X111457189Y-50724698D01*
X111839275Y-50980000D01*
X111457189Y-51235302D01*
X111146120Y-51700849D01*
X111036887Y-52250000D01*
X111146120Y-52799151D01*
X111457189Y-53264698D01*
X111839275Y-53520000D01*
X111457189Y-53775302D01*
X111146120Y-54240849D01*
X111036887Y-54790000D01*
X111146120Y-55339151D01*
X111457189Y-55804698D01*
X111922736Y-56115767D01*
X112471887Y-56225000D01*
X112528113Y-56225000D01*
X113077264Y-56115767D01*
X113542811Y-55804698D01*
X113853880Y-55339151D01*
X113893684Y-55139039D01*
X118728096Y-55139039D01*
X118888959Y-55527423D01*
X119264866Y-55942389D01*
X119770959Y-56181914D01*
X119993000Y-56060629D01*
X119993000Y-54917000D01*
X120247000Y-54917000D01*
X120247000Y-56060629D01*
X120469041Y-56181914D01*
X120975134Y-55942389D01*
X121351041Y-55527423D01*
X121511904Y-55139039D01*
X121389915Y-54917000D01*
X120247000Y-54917000D01*
X119993000Y-54917000D01*
X118850085Y-54917000D01*
X118728096Y-55139039D01*
X113893684Y-55139039D01*
X113963113Y-54790000D01*
X113853880Y-54240849D01*
X113542811Y-53775302D01*
X113160725Y-53520000D01*
X113542811Y-53264698D01*
X113853880Y-52799151D01*
X113963113Y-52250000D01*
X113853880Y-51700849D01*
X113542811Y-51235302D01*
X113160725Y-50980000D01*
X113542811Y-50724698D01*
X113853880Y-50259151D01*
X113963113Y-49710000D01*
X113928017Y-49533562D01*
X116125787Y-47335792D01*
X116125790Y-47335790D01*
X116236566Y-47170000D01*
X118656887Y-47170000D01*
X118766120Y-47719151D01*
X119077189Y-48184698D01*
X119459275Y-48440000D01*
X119077189Y-48695302D01*
X118766120Y-49160849D01*
X118656887Y-49710000D01*
X118766120Y-50259151D01*
X119077189Y-50724698D01*
X119459275Y-50980000D01*
X119077189Y-51235302D01*
X118766120Y-51700849D01*
X118656887Y-52250000D01*
X118766120Y-52799151D01*
X119077189Y-53264698D01*
X119481703Y-53534986D01*
X119264866Y-53637611D01*
X118888959Y-54052577D01*
X118728096Y-54440961D01*
X118850085Y-54663000D01*
X119993000Y-54663000D01*
X119993000Y-54643000D01*
X120247000Y-54643000D01*
X120247000Y-54663000D01*
X121389915Y-54663000D01*
X121511904Y-54440961D01*
X121351041Y-54052577D01*
X120975134Y-53637611D01*
X120758297Y-53534986D01*
X121162811Y-53264698D01*
X121473880Y-52799151D01*
X121542517Y-52454086D01*
X121666269Y-52454086D01*
X121868854Y-52944380D01*
X122243647Y-53319827D01*
X122733587Y-53523268D01*
X123264086Y-53523731D01*
X123754380Y-53321146D01*
X124129827Y-52946353D01*
X124333268Y-52456413D01*
X124333731Y-51925914D01*
X124131146Y-51435620D01*
X123756353Y-51060173D01*
X123266413Y-50856732D01*
X122735914Y-50856269D01*
X122245620Y-51058854D01*
X121870173Y-51433647D01*
X121666732Y-51923587D01*
X121666269Y-52454086D01*
X121542517Y-52454086D01*
X121583113Y-52250000D01*
X121473880Y-51700849D01*
X121162811Y-51235302D01*
X120780725Y-50980000D01*
X121162811Y-50724698D01*
X121473880Y-50259151D01*
X121583113Y-49710000D01*
X121473880Y-49160849D01*
X121162811Y-48695302D01*
X120780725Y-48440000D01*
X121150956Y-48192619D01*
X124514613Y-48192619D01*
X124854155Y-49014372D01*
X125482321Y-49643636D01*
X126303481Y-49984611D01*
X127192619Y-49985387D01*
X128014372Y-49645845D01*
X128643636Y-49017679D01*
X128984611Y-48196519D01*
X128985387Y-47307381D01*
X128645845Y-46485628D01*
X128017679Y-45856364D01*
X127196519Y-45515389D01*
X126307381Y-45514613D01*
X125485628Y-45854155D01*
X124856364Y-46482321D01*
X124515389Y-47303481D01*
X124514613Y-48192619D01*
X121150956Y-48192619D01*
X121162811Y-48184698D01*
X121473880Y-47719151D01*
X121583113Y-47170000D01*
X121473880Y-46620849D01*
X121162811Y-46155302D01*
X120697264Y-45844233D01*
X120148113Y-45735000D01*
X120091887Y-45735000D01*
X119542736Y-45844233D01*
X119077189Y-46155302D01*
X118766120Y-46620849D01*
X118656887Y-47170000D01*
X116236566Y-47170000D01*
X116317633Y-47048675D01*
X116349292Y-46889515D01*
X116385001Y-46710000D01*
X116385000Y-46709995D01*
X116385000Y-46000000D01*
X116317633Y-45661325D01*
X116125790Y-45374210D01*
X116125787Y-45374208D01*
X114625790Y-43874210D01*
X114338675Y-43682367D01*
X114282484Y-43671190D01*
X114000000Y-43614999D01*
X113999995Y-43615000D01*
X104750005Y-43615000D01*
X104750000Y-43614999D01*
X104411325Y-43682367D01*
X104124210Y-43874210D01*
X104124208Y-43874213D01*
X100874210Y-47124210D01*
X100682367Y-47411325D01*
X100682367Y-47411326D01*
X100614999Y-47750000D01*
X100615000Y-47750005D01*
X100615000Y-51090547D01*
X99635158Y-52070389D01*
X99635197Y-52025225D01*
X99462767Y-51607914D01*
X99143765Y-51288355D01*
X98726756Y-51115197D01*
X98616680Y-51115101D01*
X95974677Y-48473097D01*
X95974677Y-48088056D01*
X96051322Y-48011545D01*
X96224480Y-47594536D01*
X96224874Y-47143005D01*
X96052444Y-46725694D01*
X95733442Y-46406135D01*
X95316433Y-46232977D01*
X94864902Y-46232583D01*
X94447591Y-46405013D01*
X94128032Y-46724015D01*
X93954874Y-47141024D01*
X93954480Y-47592555D01*
X94126910Y-48009866D01*
X94204677Y-48087769D01*
X94204677Y-48839672D01*
X94204676Y-48839677D01*
X94239426Y-49014372D01*
X94272044Y-49178352D01*
X94406780Y-49380000D01*
X94463887Y-49465467D01*
X97364897Y-52366477D01*
X97364803Y-52474775D01*
X97537233Y-52892086D01*
X97856235Y-53211645D01*
X98273244Y-53384803D01*
X98320702Y-53384844D01*
X96483655Y-55221891D01*
X96226756Y-55115217D01*
X95775225Y-55114823D01*
X95357914Y-55287253D01*
X95038355Y-55606255D01*
X94865197Y-56023264D01*
X94864923Y-56337637D01*
X94766413Y-56296732D01*
X94235914Y-56296269D01*
X93745620Y-56498854D01*
X93370173Y-56873647D01*
X93166732Y-57363587D01*
X93166269Y-57894086D01*
X89901530Y-57894086D01*
X90083268Y-57456413D01*
X90083731Y-56925914D01*
X89881146Y-56435620D01*
X89506353Y-56060173D01*
X89016413Y-55856732D01*
X88485914Y-55856269D01*
X87995620Y-56058854D01*
X87620173Y-56433647D01*
X87416732Y-56923587D01*
X87416269Y-57454086D01*
X77269045Y-57454086D01*
X77269100Y-57391322D01*
X77096670Y-56974011D01*
X76777668Y-56654452D01*
X76360659Y-56481294D01*
X75909128Y-56480900D01*
X75800264Y-56525882D01*
X75819827Y-56506353D01*
X76023268Y-56016413D01*
X76023270Y-56014086D01*
X80976269Y-56014086D01*
X81178854Y-56504380D01*
X81553647Y-56879827D01*
X82043587Y-57083268D01*
X82574086Y-57083731D01*
X83064380Y-56881146D01*
X83439827Y-56506353D01*
X83643268Y-56016413D01*
X83643731Y-55485914D01*
X83441146Y-54995620D01*
X83066353Y-54620173D01*
X82576413Y-54416732D01*
X82045914Y-54416269D01*
X81555620Y-54618854D01*
X81180173Y-54993647D01*
X80976732Y-55483587D01*
X80976269Y-56014086D01*
X76023270Y-56014086D01*
X76023731Y-55485914D01*
X75821146Y-54995620D01*
X75522468Y-54696421D01*
X75706295Y-54620465D01*
X76025854Y-54301463D01*
X76199012Y-53884454D01*
X76199108Y-53774379D01*
X77365821Y-52607665D01*
X77365824Y-52607663D01*
X77557667Y-52320548D01*
X77625034Y-51981873D01*
X77625034Y-46088034D01*
X77701679Y-46011523D01*
X77874837Y-45594514D01*
X77875231Y-45142983D01*
X77702801Y-44725672D01*
X77383799Y-44406113D01*
X76966790Y-44232955D01*
X76515259Y-44232561D01*
X76097948Y-44404991D01*
X75778389Y-44723993D01*
X75605231Y-45141002D01*
X75604837Y-45592533D01*
X75777267Y-46009844D01*
X75855034Y-46087747D01*
X75855034Y-51615294D01*
X74947732Y-52522595D01*
X74839434Y-52522501D01*
X74422123Y-52694931D01*
X74102564Y-53013933D01*
X73929406Y-53430942D01*
X73929012Y-53882473D01*
X74101442Y-54299784D01*
X74278520Y-54477171D01*
X73935620Y-54618854D01*
X73635000Y-54918950D01*
X73635000Y-54470330D01*
X73711645Y-54393819D01*
X73884803Y-53976810D01*
X73885197Y-53525279D01*
X73712767Y-53107968D01*
X73635000Y-53030065D01*
X73635000Y-47088045D01*
X73711645Y-47011534D01*
X73884803Y-46594525D01*
X73885197Y-46142994D01*
X73712767Y-45725683D01*
X73393765Y-45406124D01*
X72976756Y-45232966D01*
X72525225Y-45232572D01*
X72107914Y-45405002D01*
X71788355Y-45724004D01*
X71615197Y-46141013D01*
X71614803Y-46592544D01*
X71787233Y-47009855D01*
X71865000Y-47087758D01*
X71865000Y-53029778D01*
X71788355Y-53106289D01*
X71615197Y-53523298D01*
X71614803Y-53974829D01*
X71787233Y-54392140D01*
X71865000Y-54470043D01*
X71865000Y-55277203D01*
X69281850Y-57860352D01*
X69131146Y-57495620D01*
X68756353Y-57120173D01*
X68266413Y-56916732D01*
X67735914Y-56916269D01*
X67245620Y-57118854D01*
X66870173Y-57493647D01*
X66666732Y-57983587D01*
X66666269Y-58514086D01*
X66868854Y-59004380D01*
X67243647Y-59379827D01*
X67610178Y-59532024D01*
X66987201Y-60155001D01*
X65000000Y-60155001D01*
X64661325Y-60222368D01*
X64374210Y-60414211D01*
X64374208Y-60414214D01*
X64254184Y-60534237D01*
X64062341Y-60821352D01*
X64062341Y-60821353D01*
X63997528Y-61147182D01*
X63918329Y-61226243D01*
X63745171Y-61643252D01*
X63744777Y-62094783D01*
X63856429Y-62365001D01*
X57866580Y-62365001D01*
X56855021Y-61353441D01*
X56855021Y-60319390D01*
X56988625Y-60519343D01*
X57437951Y-60819573D01*
X57967968Y-60925000D01*
X58532032Y-60925000D01*
X59062049Y-60819573D01*
X59511375Y-60519343D01*
X59655000Y-60304393D01*
X59655000Y-60416309D01*
X59751673Y-60649698D01*
X59930301Y-60828327D01*
X60163690Y-60925000D01*
X61004250Y-60925000D01*
X61163000Y-60766250D01*
X61163000Y-59667000D01*
X61417000Y-59667000D01*
X61417000Y-60766250D01*
X61575750Y-60925000D01*
X62416310Y-60925000D01*
X62649699Y-60828327D01*
X62828327Y-60649698D01*
X62925000Y-60416309D01*
X62925000Y-59825750D01*
X62766250Y-59667000D01*
X61417000Y-59667000D01*
X61163000Y-59667000D01*
X61143000Y-59667000D01*
X61143000Y-59413000D01*
X61163000Y-59413000D01*
X61163000Y-59393000D01*
X61417000Y-59393000D01*
X61417000Y-59413000D01*
X62766250Y-59413000D01*
X62925000Y-59254250D01*
X62925000Y-58663691D01*
X62828327Y-58430302D01*
X62649699Y-58251673D01*
X62416310Y-58155000D01*
X62288486Y-58155000D01*
X62551375Y-57979343D01*
X62851605Y-57530017D01*
X62957032Y-57000000D01*
X62851605Y-56469983D01*
X62551375Y-56020657D01*
X62116376Y-55730000D01*
X62551375Y-55439343D01*
X62851605Y-54990017D01*
X62957032Y-54460000D01*
X62851605Y-53929983D01*
X62551375Y-53480657D01*
X62116376Y-53190000D01*
X62551375Y-52899343D01*
X62851605Y-52450017D01*
X62957032Y-51920000D01*
X62851605Y-51389983D01*
X62551375Y-50940657D01*
X62116376Y-50650000D01*
X62551375Y-50359343D01*
X62851605Y-49910017D01*
X62957032Y-49380000D01*
X62851605Y-48849983D01*
X62551375Y-48400657D01*
X62102049Y-48100427D01*
X61572032Y-47995000D01*
X61007968Y-47995000D01*
X60477951Y-48100427D01*
X60028625Y-48400657D01*
X59770000Y-48787717D01*
X59511375Y-48400657D01*
X59062049Y-48100427D01*
X58532032Y-47995000D01*
X57967968Y-47995000D01*
X57437951Y-48100427D01*
X56988625Y-48400657D01*
X56688395Y-48849983D01*
X56582968Y-49380000D01*
X56688395Y-49910017D01*
X56988625Y-50359343D01*
X57423624Y-50650000D01*
X56988625Y-50940657D01*
X56688395Y-51389983D01*
X56582968Y-51920000D01*
X56688395Y-52450017D01*
X56988625Y-52899343D01*
X57423624Y-53190000D01*
X57006459Y-53468741D01*
X56932788Y-53290445D01*
X56613786Y-52970886D01*
X56196777Y-52797728D01*
X55745246Y-52797334D01*
X55327935Y-52969764D01*
X55008376Y-53288766D01*
X54835218Y-53705775D01*
X54834824Y-54157306D01*
X47205692Y-54157306D01*
X47213113Y-54120000D01*
X47103880Y-53570849D01*
X46792811Y-53105302D01*
X46410725Y-52850000D01*
X46792811Y-52594698D01*
X47103880Y-52129151D01*
X47213113Y-51580000D01*
X47103880Y-51030849D01*
X46792811Y-50565302D01*
X46410725Y-50310000D01*
X46792811Y-50054698D01*
X47103880Y-49589151D01*
X47213113Y-49040000D01*
X47103880Y-48490849D01*
X46792811Y-48025302D01*
X46410725Y-47770000D01*
X46792811Y-47514698D01*
X47103880Y-47049151D01*
X47213113Y-46500000D01*
X51906887Y-46500000D01*
X52016120Y-47049151D01*
X52327189Y-47514698D01*
X52709275Y-47770000D01*
X52327189Y-48025302D01*
X52016120Y-48490849D01*
X51906887Y-49040000D01*
X52016120Y-49589151D01*
X52327189Y-50054698D01*
X52709275Y-50310000D01*
X52327189Y-50565302D01*
X52016120Y-51030849D01*
X51906887Y-51580000D01*
X52016120Y-52129151D01*
X52327189Y-52594698D01*
X52731703Y-52864986D01*
X52514866Y-52967611D01*
X52138959Y-53382577D01*
X51978096Y-53770961D01*
X52100085Y-53993000D01*
X53243000Y-53993000D01*
X53243000Y-53973000D01*
X53497000Y-53973000D01*
X53497000Y-53993000D01*
X54639915Y-53993000D01*
X54761904Y-53770961D01*
X54601041Y-53382577D01*
X54225134Y-52967611D01*
X54008297Y-52864986D01*
X54412811Y-52594698D01*
X54723880Y-52129151D01*
X54833113Y-51580000D01*
X54723880Y-51030849D01*
X54412811Y-50565302D01*
X54030725Y-50310000D01*
X54412811Y-50054698D01*
X54723880Y-49589151D01*
X54833113Y-49040000D01*
X54723880Y-48490849D01*
X54412811Y-48025302D01*
X54030725Y-47770000D01*
X54412811Y-47514698D01*
X54606503Y-47224817D01*
X64928927Y-47224817D01*
X65101357Y-47642128D01*
X65179124Y-47720031D01*
X65179124Y-52814119D01*
X65179123Y-52814124D01*
X65222444Y-53031908D01*
X65246491Y-53152799D01*
X65410386Y-53398086D01*
X65438334Y-53439914D01*
X65864897Y-53866477D01*
X65864803Y-53974775D01*
X66037233Y-54392086D01*
X66356235Y-54711645D01*
X66773244Y-54884803D01*
X67224775Y-54885197D01*
X67642086Y-54712767D01*
X67861046Y-54494188D01*
X69495417Y-54494188D01*
X69557071Y-54729800D01*
X70057480Y-54905927D01*
X70587199Y-54877148D01*
X70942929Y-54729800D01*
X71004583Y-54494188D01*
X70250000Y-53739605D01*
X69495417Y-54494188D01*
X67861046Y-54494188D01*
X67961645Y-54393765D01*
X68134803Y-53976756D01*
X68135197Y-53525225D01*
X68070018Y-53367480D01*
X68904073Y-53367480D01*
X68932852Y-53897199D01*
X69080200Y-54252929D01*
X69315812Y-54314583D01*
X70070395Y-53560000D01*
X70429605Y-53560000D01*
X71184188Y-54314583D01*
X71419800Y-54252929D01*
X71595927Y-53752520D01*
X71567148Y-53222801D01*
X71419800Y-52867071D01*
X71184188Y-52805417D01*
X70429605Y-53560000D01*
X70070395Y-53560000D01*
X69315812Y-52805417D01*
X69080200Y-52867071D01*
X68904073Y-53367480D01*
X68070018Y-53367480D01*
X67962767Y-53107914D01*
X67643765Y-52788355D01*
X67252320Y-52625812D01*
X69495417Y-52625812D01*
X70250000Y-53380395D01*
X71004583Y-52625812D01*
X70942929Y-52390200D01*
X70442520Y-52214073D01*
X69912801Y-52242852D01*
X69557071Y-52390200D01*
X69495417Y-52625812D01*
X67252320Y-52625812D01*
X67226756Y-52615197D01*
X67116680Y-52615101D01*
X66949124Y-52447544D01*
X66949124Y-47720318D01*
X67025769Y-47643807D01*
X67198927Y-47226798D01*
X67199321Y-46775267D01*
X67026891Y-46357956D01*
X66873290Y-46204086D01*
X68916269Y-46204086D01*
X69118854Y-46694380D01*
X69493647Y-47069827D01*
X69983587Y-47273268D01*
X70514086Y-47273731D01*
X71004380Y-47071146D01*
X71379827Y-46696353D01*
X71583268Y-46206413D01*
X71583731Y-45675914D01*
X71381146Y-45185620D01*
X71006353Y-44810173D01*
X70516413Y-44606732D01*
X69985914Y-44606269D01*
X69495620Y-44808854D01*
X69120173Y-45183647D01*
X68916732Y-45673587D01*
X68916269Y-46204086D01*
X66873290Y-46204086D01*
X66707889Y-46038397D01*
X66290880Y-45865239D01*
X65839349Y-45864845D01*
X65422038Y-46037275D01*
X65102479Y-46356277D01*
X64929321Y-46773286D01*
X64928927Y-47224817D01*
X54606503Y-47224817D01*
X54723880Y-47049151D01*
X54833113Y-46500000D01*
X54723880Y-45950849D01*
X54412811Y-45485302D01*
X53947264Y-45174233D01*
X53398113Y-45065000D01*
X53341887Y-45065000D01*
X52792736Y-45174233D01*
X52327189Y-45485302D01*
X52016120Y-45950849D01*
X51906887Y-46500000D01*
X47213113Y-46500000D01*
X47103880Y-45950849D01*
X46792811Y-45485302D01*
X46327264Y-45174233D01*
X45778113Y-45065000D01*
X45721887Y-45065000D01*
X45172736Y-45174233D01*
X44707189Y-45485302D01*
X44396120Y-45950849D01*
X44286887Y-46500000D01*
X40901784Y-46500000D01*
X40895845Y-46485628D01*
X40267679Y-45856364D01*
X39446519Y-45515389D01*
X38557381Y-45514613D01*
X37735628Y-45854155D01*
X37106364Y-46482321D01*
X36765389Y-47303481D01*
X36764613Y-48192619D01*
X35210000Y-48192619D01*
X35210000Y-43210000D01*
X130790000Y-43210000D01*
X130790000Y-84290000D01*
M02*
