M48
; DRILL file {KiCad (7.0.0)} date Fri May 19 01:57:22 2023
; FORMAT={-:-/ absolute / metric / decimal}
; #@! TF.CreationDate,2023-05-19T01:57:22+02:00
; #@! TF.GenerationSoftware,Kicad,Pcbnew,(7.0.0)
; #@! TF.FileFunction,Plated,1,2,PTH
FMAT,2
METRIC
; #@! TA.AperFunction,Plated,PTH,ViaDrill
T1C0.400
; #@! TA.AperFunction,Plated,PTH,ViaDrill
T2C0.635
; #@! TA.AperFunction,Plated,PTH,ComponentDrill
T3C1.000
%
G90
G05
T1
X70.35Y-254.131
X72.01Y-267.26
X72.4Y-269.011
X74.81Y-256.69
X75.37Y-284.64
X81.37Y-284.51
X84.75Y-267.39
X92.55Y-270.12
X94.83Y-269.021
X95.26Y-254.381
X97.01Y-256.66
X100.68Y-284.615
X107.2Y-284.8
X109.99Y-259.42
X119.51Y-268.3
X120.17Y-254.42
X121.77Y-256.7
X122.4Y-269.051
X125.53Y-284.8
X131.58Y-284.29
X142.3Y-270.31
X145.4Y-254.1
X145.45Y-269.891
X147.04Y-256.66
X150.53Y-284.96
X155.13Y-263.29
X158.47Y-282.26
T2
X73.5Y-202.0
X73.5Y-227.0
X75.5Y-197.0
X75.5Y-222.0
X76.0Y-225.0
X76.1Y-200.0
X81.0Y-204.7
X98.5Y-202.5
X98.5Y-227.5
X100.5Y-222.0
X100.7Y-197.0
X101.0Y-201.0
X101.0Y-225.5
X113.5Y-205.5
X123.5Y-202.5
X123.5Y-227.5
X125.5Y-197.0
X125.5Y-222.0
X126.0Y-201.0
X126.0Y-225.5
X148.5Y-202.5
X148.5Y-227.5
X150.5Y-197.0
X150.5Y-222.0
X151.0Y-201.0
X151.0Y-225.5
T3
X62.75Y-259.46
X62.75Y-262.0
X62.75Y-264.54
X80.92Y-210.66
X80.92Y-213.2
X83.46Y-210.66
X83.46Y-213.2
X86.0Y-210.66
X86.0Y-213.2
X88.54Y-210.66
X88.54Y-213.2
X91.08Y-210.66
X91.08Y-213.2
X105.92Y-210.712
X105.92Y-213.252
X108.46Y-210.712
X108.46Y-213.252
X111.0Y-210.712
X111.0Y-213.252
X113.54Y-210.712
X113.54Y-213.252
X116.08Y-210.712
X116.08Y-213.252
X130.94Y-210.712
X130.94Y-213.252
X133.48Y-210.712
X133.48Y-213.252
X136.02Y-210.712
X136.02Y-213.252
X138.56Y-210.712
X138.56Y-213.252
X141.1Y-210.712
X141.1Y-213.252
X159.25Y-259.46
X159.25Y-262.0
X159.25Y-264.54
T0
M30
