M48
; DRILL file {KiCad (7.0.0)} date Fri May 19 01:57:22 2023
; FORMAT={-:-/ absolute / metric / decimal}
; #@! TF.CreationDate,2023-05-19T01:57:22+02:00
; #@! TF.GenerationSoftware,Kicad,Pcbnew,(7.0.0)
; #@! TF.FileFunction,NonPlated,1,2,NPTH
FMAT,2
METRIC
; #@! TA.AperFunction,NonPlated,NPTH,ComponentDrill
T1C0.500
; #@! TA.AperFunction,NonPlated,NPTH,ComponentDrill
T2C2.200
; #@! TA.AperFunction,NonPlated,NPTH,ComponentDrill
T3C3.000
; #@! TA.AperFunction,NonPlated,NPTH,ComponentDrill
T4C3.200
; #@! TA.AperFunction,NonPlated,NPTH,ComponentDrill
T5C9.500
%
G90
G05
T2
X63.5Y-189.5
X63.5Y-234.5
X108.5Y-189.5
X108.5Y-234.5
X113.5Y-189.5
X113.5Y-234.5
X158.5Y-189.5
X158.5Y-234.5
T3
X73.56Y-211.94
X86.05Y-199.45
X86.05Y-224.45
X98.55Y-211.95
X123.55Y-212.0
X136.05Y-199.45
X136.05Y-224.45
X148.55Y-211.95
T4
X86.0Y-241.0
X86.0Y-283.0
X136.0Y-241.0
X136.0Y-283.0
T5
X73.5Y-249.5
X73.5Y-274.5
X98.5Y-249.5
X98.5Y-274.5
X123.5Y-249.5
X123.5Y-274.5
X148.5Y-249.5
X148.5Y-274.5
T1
X63.35Y-237.0G85X92.85Y-237.0
G05
X63.35Y-237.0G85X92.85Y-237.0
G05
X96.252Y-236.998G85X125.752Y-236.998
G05
X96.252Y-236.998G85X125.752Y-236.998
G05
X129.05Y-237.0G85X158.55Y-237.0
G05
X129.05Y-237.0G85X158.55Y-237.0
G05
T0
M30
