G04 #@! TF.GenerationSoftware,KiCad,Pcbnew,(7.0.0)*
G04 #@! TF.CreationDate,2023-06-04T12:17:04+02:00*
G04 #@! TF.ProjectId,DOUT,444f5554-2e6b-4696-9361-645f70636258,rev?*
G04 #@! TF.SameCoordinates,Original*
G04 #@! TF.FileFunction,Legend,Bot*
G04 #@! TF.FilePolarity,Positive*
%FSLAX46Y46*%
G04 Gerber Fmt 4.6, Leading zero omitted, Abs format (unit mm)*
G04 Created by KiCad (PCBNEW (7.0.0)) date 2023-06-04 12:17:04*
%MOMM*%
%LPD*%
G01*
G04 APERTURE LIST*
G04 Aperture macros list*
%AMRoundRect*
0 Rectangle with rounded corners*
0 $1 Rounding radius*
0 $2 $3 $4 $5 $6 $7 $8 $9 X,Y pos of 4 corners*
0 Add a 4 corners polygon primitive as box body*
4,1,4,$2,$3,$4,$5,$6,$7,$8,$9,$2,$3,0*
0 Add four circle primitives for the rounded corners*
1,1,$1+$1,$2,$3*
1,1,$1+$1,$4,$5*
1,1,$1+$1,$6,$7*
1,1,$1+$1,$8,$9*
0 Add four rect primitives between the rounded corners*
20,1,$1+$1,$2,$3,$4,$5,0*
20,1,$1+$1,$4,$5,$6,$7,0*
20,1,$1+$1,$6,$7,$8,$9,0*
20,1,$1+$1,$8,$9,$2,$3,0*%
G04 Aperture macros list end*
%ADD10RoundRect,0.250000X-0.600000X0.600000X-0.600000X-0.600000X0.600000X-0.600000X0.600000X0.600000X0*%
%ADD11C,1.700000*%
%ADD12RoundRect,0.250000X0.600000X-0.600000X0.600000X0.600000X-0.600000X0.600000X-0.600000X-0.600000X0*%
%ADD13C,3.200000*%
%ADD14R,1.600000X2.400000*%
%ADD15O,1.600000X2.400000*%
%ADD16C,1.600000*%
G04 APERTURE END LIST*
%LPC*%
D10*
X227410000Y-44210000D03*
D11*
X227410000Y-46750000D03*
X224870000Y-44210000D03*
X224870000Y-46750000D03*
X222330000Y-44210000D03*
X222330000Y-46750000D03*
X219790000Y-44210000D03*
X219790000Y-46750000D03*
X217250000Y-44210000D03*
X217250000Y-46750000D03*
D10*
X205930000Y-44210000D03*
D11*
X205930000Y-46750000D03*
X203390000Y-44210000D03*
X203390000Y-46750000D03*
X200850000Y-44210000D03*
X200850000Y-46750000D03*
X198310000Y-44210000D03*
X198310000Y-46750000D03*
X195770000Y-44210000D03*
X195770000Y-46750000D03*
D10*
X184230000Y-44200000D03*
D11*
X184230000Y-46740000D03*
X181690000Y-44200000D03*
X181690000Y-46740000D03*
X179150000Y-44200000D03*
X179150000Y-46740000D03*
X176610000Y-44200000D03*
X176610000Y-46740000D03*
X174070000Y-44200000D03*
X174070000Y-46740000D03*
D10*
X162790000Y-44200000D03*
D11*
X162790000Y-46740000D03*
X160250000Y-44200000D03*
X160250000Y-46740000D03*
X157710000Y-44200000D03*
X157710000Y-46740000D03*
X155170000Y-44200000D03*
X155170000Y-46740000D03*
X152630000Y-44200000D03*
X152630000Y-46740000D03*
D12*
X216970000Y-86290000D03*
D11*
X216970000Y-83750000D03*
X219510000Y-86290000D03*
X219510000Y-83750000D03*
X222050000Y-86290000D03*
X222050000Y-83750000D03*
X224590000Y-86290000D03*
X224590000Y-83750000D03*
X227130000Y-86290000D03*
X227130000Y-83750000D03*
D12*
X152700000Y-85600000D03*
D11*
X152700000Y-83060000D03*
X155240000Y-85600000D03*
X155240000Y-83060000D03*
X157780000Y-85600000D03*
X157780000Y-83060000D03*
X160320000Y-85600000D03*
X160320000Y-83060000D03*
X162860000Y-85600000D03*
X162860000Y-83060000D03*
D13*
X143500000Y-86500000D03*
D14*
X188369999Y-67519999D03*
D15*
X185829999Y-67519999D03*
X183289999Y-67519999D03*
X180749999Y-67519999D03*
X178209999Y-67519999D03*
X175669999Y-67519999D03*
X173129999Y-67519999D03*
X170589999Y-67519999D03*
X170589999Y-75139999D03*
X173129999Y-75139999D03*
X175669999Y-75139999D03*
X178209999Y-75139999D03*
X180749999Y-75139999D03*
X183289999Y-75139999D03*
X185829999Y-75139999D03*
X188369999Y-75139999D03*
D13*
X236500000Y-43500000D03*
D16*
X209500000Y-80450000D03*
X209500000Y-77950000D03*
D14*
X230449999Y-53319999D03*
D15*
X227909999Y-53319999D03*
X225369999Y-53319999D03*
X222829999Y-53319999D03*
X220289999Y-53319999D03*
X217749999Y-53319999D03*
X215209999Y-53319999D03*
X212669999Y-53319999D03*
X212669999Y-60939999D03*
X215209999Y-60939999D03*
X217749999Y-60939999D03*
X220289999Y-60939999D03*
X222829999Y-60939999D03*
X225369999Y-60939999D03*
X227909999Y-60939999D03*
X230449999Y-60939999D03*
D16*
X188400000Y-80500000D03*
X188400000Y-78000000D03*
D14*
X230559999Y-67519999D03*
D15*
X228019999Y-67519999D03*
X225479999Y-67519999D03*
X222939999Y-67519999D03*
X220399999Y-67519999D03*
X217859999Y-67519999D03*
X215319999Y-67519999D03*
X212779999Y-67519999D03*
X212779999Y-75139999D03*
X215319999Y-75139999D03*
X217859999Y-75139999D03*
X220399999Y-75139999D03*
X222939999Y-75139999D03*
X225479999Y-75139999D03*
X228019999Y-75139999D03*
X230559999Y-75139999D03*
D14*
X188299999Y-53309999D03*
D15*
X185759999Y-53309999D03*
X183219999Y-53309999D03*
X180679999Y-53309999D03*
X178139999Y-53309999D03*
X175599999Y-53309999D03*
X173059999Y-53309999D03*
X170519999Y-53309999D03*
X170519999Y-60929999D03*
X173059999Y-60929999D03*
X175599999Y-60929999D03*
X178139999Y-60929999D03*
X180679999Y-60929999D03*
X183219999Y-60929999D03*
X185759999Y-60929999D03*
X188299999Y-60929999D03*
D14*
X209449999Y-53319999D03*
D15*
X206909999Y-53319999D03*
X204369999Y-53319999D03*
X201829999Y-53319999D03*
X199289999Y-53319999D03*
X196749999Y-53319999D03*
X194209999Y-53319999D03*
X191669999Y-53319999D03*
X191669999Y-60939999D03*
X194209999Y-60939999D03*
X196749999Y-60939999D03*
X199289999Y-60939999D03*
X201829999Y-60939999D03*
X204369999Y-60939999D03*
X206909999Y-60939999D03*
X209449999Y-60939999D03*
D13*
X143500000Y-43500000D03*
X236500000Y-86500000D03*
D16*
X170160000Y-82940000D03*
X170160000Y-80440000D03*
D14*
X167269999Y-67519999D03*
D15*
X164729999Y-67519999D03*
X162189999Y-67519999D03*
X159649999Y-67519999D03*
X157109999Y-67519999D03*
X154569999Y-67519999D03*
X152029999Y-67519999D03*
X149489999Y-67519999D03*
X149489999Y-75139999D03*
X152029999Y-75139999D03*
X154569999Y-75139999D03*
X157109999Y-75139999D03*
X159649999Y-75139999D03*
X162189999Y-75139999D03*
X164729999Y-75139999D03*
X167269999Y-75139999D03*
D16*
X233040000Y-78350000D03*
X230540000Y-78350000D03*
D14*
X167329999Y-53319999D03*
D15*
X164789999Y-53319999D03*
X162249999Y-53319999D03*
X159709999Y-53319999D03*
X157169999Y-53319999D03*
X154629999Y-53319999D03*
X152089999Y-53319999D03*
X149549999Y-53319999D03*
X149549999Y-60939999D03*
X152089999Y-60939999D03*
X154629999Y-60939999D03*
X157169999Y-60939999D03*
X159709999Y-60939999D03*
X162249999Y-60939999D03*
X164789999Y-60939999D03*
X167329999Y-60939999D03*
D14*
X209479999Y-67519999D03*
D15*
X206939999Y-67519999D03*
X204399999Y-67519999D03*
X201859999Y-67519999D03*
X199319999Y-67519999D03*
X196779999Y-67519999D03*
X194239999Y-67519999D03*
X191699999Y-67519999D03*
X191699999Y-75139999D03*
X194239999Y-75139999D03*
X196779999Y-75139999D03*
X199319999Y-75139999D03*
X201859999Y-75139999D03*
X204399999Y-75139999D03*
X206939999Y-75139999D03*
X209479999Y-75139999D03*
M02*
