G04 #@! TF.GenerationSoftware,KiCad,Pcbnew,(7.0.0)*
G04 #@! TF.CreationDate,2023-05-18T23:50:50+02:00*
G04 #@! TF.ProjectId,Fad_2,4661645f-322e-46b6-9963-61645f706362,rev?*
G04 #@! TF.SameCoordinates,Original*
G04 #@! TF.FileFunction,Legend,Top*
G04 #@! TF.FilePolarity,Positive*
%FSLAX46Y46*%
G04 Gerber Fmt 4.6, Leading zero omitted, Abs format (unit mm)*
G04 Created by KiCad (PCBNEW (7.0.0)) date 2023-05-18 23:50:50*
%MOMM*%
%LPD*%
G01*
G04 APERTURE LIST*
G04 Aperture macros list*
%AMRoundRect*
0 Rectangle with rounded corners*
0 $1 Rounding radius*
0 $2 $3 $4 $5 $6 $7 $8 $9 X,Y pos of 4 corners*
0 Add a 4 corners polygon primitive as box body*
4,1,4,$2,$3,$4,$5,$6,$7,$8,$9,$2,$3,0*
0 Add four circle primitives for the rounded corners*
1,1,$1+$1,$2,$3*
1,1,$1+$1,$4,$5*
1,1,$1+$1,$6,$7*
1,1,$1+$1,$8,$9*
0 Add four rect primitives between the rounded corners*
20,1,$1+$1,$2,$3,$4,$5,0*
20,1,$1+$1,$4,$5,$6,$7,0*
20,1,$1+$1,$6,$7,$8,$9,0*
20,1,$1+$1,$8,$9,$2,$3,0*%
G04 Aperture macros list end*
%ADD10C,0.150000*%
%ADD11C,4.000000*%
%ADD12C,3.200000*%
%ADD13RoundRect,0.250000X0.600000X0.600000X-0.600000X0.600000X-0.600000X-0.600000X0.600000X-0.600000X0*%
%ADD14C,1.700000*%
G04 APERTURE END LIST*
D10*
X128470000Y-86261904D02*
X128517619Y-86166666D01*
X128517619Y-86166666D02*
X128517619Y-86023809D01*
X128517619Y-86023809D02*
X128470000Y-85880952D01*
X128470000Y-85880952D02*
X128374761Y-85785714D01*
X128374761Y-85785714D02*
X128279523Y-85738095D01*
X128279523Y-85738095D02*
X128089047Y-85690476D01*
X128089047Y-85690476D02*
X127946190Y-85690476D01*
X127946190Y-85690476D02*
X127755714Y-85738095D01*
X127755714Y-85738095D02*
X127660476Y-85785714D01*
X127660476Y-85785714D02*
X127565238Y-85880952D01*
X127565238Y-85880952D02*
X127517619Y-86023809D01*
X127517619Y-86023809D02*
X127517619Y-86119047D01*
X127517619Y-86119047D02*
X127565238Y-86261904D01*
X127565238Y-86261904D02*
X127612857Y-86309523D01*
X127612857Y-86309523D02*
X127946190Y-86309523D01*
X127946190Y-86309523D02*
X127946190Y-86119047D01*
X127517619Y-86738095D02*
X128517619Y-86738095D01*
X128517619Y-86738095D02*
X127517619Y-87309523D01*
X127517619Y-87309523D02*
X128517619Y-87309523D01*
X127517619Y-87785714D02*
X128517619Y-87785714D01*
X128517619Y-87785714D02*
X128517619Y-88023809D01*
X128517619Y-88023809D02*
X128470000Y-88166666D01*
X128470000Y-88166666D02*
X128374761Y-88261904D01*
X128374761Y-88261904D02*
X128279523Y-88309523D01*
X128279523Y-88309523D02*
X128089047Y-88357142D01*
X128089047Y-88357142D02*
X127946190Y-88357142D01*
X127946190Y-88357142D02*
X127755714Y-88309523D01*
X127755714Y-88309523D02*
X127660476Y-88261904D01*
X127660476Y-88261904D02*
X127565238Y-88166666D01*
X127565238Y-88166666D02*
X127517619Y-88023809D01*
X127517619Y-88023809D02*
X127517619Y-87785714D01*
X146719048Y-53267380D02*
X146719048Y-52267380D01*
X146719048Y-52267380D02*
X147052381Y-52981666D01*
X147052381Y-52981666D02*
X147385714Y-52267380D01*
X147385714Y-52267380D02*
X147385714Y-53267380D01*
X148195238Y-52743571D02*
X148338095Y-52791190D01*
X148338095Y-52791190D02*
X148385714Y-52838809D01*
X148385714Y-52838809D02*
X148433333Y-52934047D01*
X148433333Y-52934047D02*
X148433333Y-53076904D01*
X148433333Y-53076904D02*
X148385714Y-53172142D01*
X148385714Y-53172142D02*
X148338095Y-53219761D01*
X148338095Y-53219761D02*
X148242857Y-53267380D01*
X148242857Y-53267380D02*
X147861905Y-53267380D01*
X147861905Y-53267380D02*
X147861905Y-52267380D01*
X147861905Y-52267380D02*
X148195238Y-52267380D01*
X148195238Y-52267380D02*
X148290476Y-52315000D01*
X148290476Y-52315000D02*
X148338095Y-52362619D01*
X148338095Y-52362619D02*
X148385714Y-52457857D01*
X148385714Y-52457857D02*
X148385714Y-52553095D01*
X148385714Y-52553095D02*
X148338095Y-52648333D01*
X148338095Y-52648333D02*
X148290476Y-52695952D01*
X148290476Y-52695952D02*
X148195238Y-52743571D01*
X148195238Y-52743571D02*
X147861905Y-52743571D01*
X148861905Y-52886428D02*
X149623810Y-52886428D01*
X150433333Y-52743571D02*
X150100000Y-52743571D01*
X150100000Y-53267380D02*
X150100000Y-52267380D01*
X150100000Y-52267380D02*
X150576190Y-52267380D01*
X150909524Y-52981666D02*
X151385714Y-52981666D01*
X150814286Y-53267380D02*
X151147619Y-52267380D01*
X151147619Y-52267380D02*
X151480952Y-53267380D01*
X151814286Y-53267380D02*
X151814286Y-52267380D01*
X151814286Y-52267380D02*
X152052381Y-52267380D01*
X152052381Y-52267380D02*
X152195238Y-52315000D01*
X152195238Y-52315000D02*
X152290476Y-52410238D01*
X152290476Y-52410238D02*
X152338095Y-52505476D01*
X152338095Y-52505476D02*
X152385714Y-52695952D01*
X152385714Y-52695952D02*
X152385714Y-52838809D01*
X152385714Y-52838809D02*
X152338095Y-53029285D01*
X152338095Y-53029285D02*
X152290476Y-53124523D01*
X152290476Y-53124523D02*
X152195238Y-53219761D01*
X152195238Y-53219761D02*
X152052381Y-53267380D01*
X152052381Y-53267380D02*
X151814286Y-53267380D01*
X152766667Y-53219761D02*
X152861905Y-53267380D01*
X152861905Y-53267380D02*
X153052381Y-53267380D01*
X153052381Y-53267380D02*
X153147619Y-53219761D01*
X153147619Y-53219761D02*
X153195238Y-53124523D01*
X153195238Y-53124523D02*
X153195238Y-53076904D01*
X153195238Y-53076904D02*
X153147619Y-52981666D01*
X153147619Y-52981666D02*
X153052381Y-52934047D01*
X153052381Y-52934047D02*
X152909524Y-52934047D01*
X152909524Y-52934047D02*
X152814286Y-52886428D01*
X152814286Y-52886428D02*
X152766667Y-52791190D01*
X152766667Y-52791190D02*
X152766667Y-52743571D01*
X152766667Y-52743571D02*
X152814286Y-52648333D01*
X152814286Y-52648333D02*
X152909524Y-52600714D01*
X152909524Y-52600714D02*
X153052381Y-52600714D01*
X153052381Y-52600714D02*
X153147619Y-52648333D01*
X153576191Y-52362619D02*
X153623810Y-52315000D01*
X153623810Y-52315000D02*
X153719048Y-52267380D01*
X153719048Y-52267380D02*
X153957143Y-52267380D01*
X153957143Y-52267380D02*
X154052381Y-52315000D01*
X154052381Y-52315000D02*
X154100000Y-52362619D01*
X154100000Y-52362619D02*
X154147619Y-52457857D01*
X154147619Y-52457857D02*
X154147619Y-52553095D01*
X154147619Y-52553095D02*
X154100000Y-52695952D01*
X154100000Y-52695952D02*
X153528572Y-53267380D01*
X153528572Y-53267380D02*
X154147619Y-53267380D01*
X154576191Y-52886428D02*
X155338096Y-52886428D01*
X156242857Y-52600714D02*
X156242857Y-53267380D01*
X156004762Y-52219761D02*
X155766667Y-52934047D01*
X155766667Y-52934047D02*
X156385714Y-52934047D01*
X156671429Y-53267380D02*
X157195238Y-52600714D01*
X156671429Y-52600714D02*
X157195238Y-53267380D01*
X158100000Y-53267380D02*
X157528572Y-53267380D01*
X157814286Y-53267380D02*
X157814286Y-52267380D01*
X157814286Y-52267380D02*
X157719048Y-52410238D01*
X157719048Y-52410238D02*
X157623810Y-52505476D01*
X157623810Y-52505476D02*
X157528572Y-52553095D01*
X159100000Y-53172142D02*
X159052381Y-53219761D01*
X159052381Y-53219761D02*
X158909524Y-53267380D01*
X158909524Y-53267380D02*
X158814286Y-53267380D01*
X158814286Y-53267380D02*
X158671429Y-53219761D01*
X158671429Y-53219761D02*
X158576191Y-53124523D01*
X158576191Y-53124523D02*
X158528572Y-53029285D01*
X158528572Y-53029285D02*
X158480953Y-52838809D01*
X158480953Y-52838809D02*
X158480953Y-52695952D01*
X158480953Y-52695952D02*
X158528572Y-52505476D01*
X158528572Y-52505476D02*
X158576191Y-52410238D01*
X158576191Y-52410238D02*
X158671429Y-52315000D01*
X158671429Y-52315000D02*
X158814286Y-52267380D01*
X158814286Y-52267380D02*
X158909524Y-52267380D01*
X158909524Y-52267380D02*
X159052381Y-52315000D01*
X159052381Y-52315000D02*
X159100000Y-52362619D01*
X159480953Y-53219761D02*
X159623810Y-53267380D01*
X159623810Y-53267380D02*
X159861905Y-53267380D01*
X159861905Y-53267380D02*
X159957143Y-53219761D01*
X159957143Y-53219761D02*
X160004762Y-53172142D01*
X160004762Y-53172142D02*
X160052381Y-53076904D01*
X160052381Y-53076904D02*
X160052381Y-52981666D01*
X160052381Y-52981666D02*
X160004762Y-52886428D01*
X160004762Y-52886428D02*
X159957143Y-52838809D01*
X159957143Y-52838809D02*
X159861905Y-52791190D01*
X159861905Y-52791190D02*
X159671429Y-52743571D01*
X159671429Y-52743571D02*
X159576191Y-52695952D01*
X159576191Y-52695952D02*
X159528572Y-52648333D01*
X159528572Y-52648333D02*
X159480953Y-52553095D01*
X159480953Y-52553095D02*
X159480953Y-52457857D01*
X159480953Y-52457857D02*
X159528572Y-52362619D01*
X159528572Y-52362619D02*
X159576191Y-52315000D01*
X159576191Y-52315000D02*
X159671429Y-52267380D01*
X159671429Y-52267380D02*
X159909524Y-52267380D01*
X159909524Y-52267380D02*
X160052381Y-52315000D01*
X160480953Y-52886428D02*
X161242858Y-52886428D01*
X161576191Y-52267380D02*
X161909524Y-53267380D01*
X161909524Y-53267380D02*
X162242857Y-52267380D01*
X162766667Y-52267380D02*
X162861905Y-52267380D01*
X162861905Y-52267380D02*
X162957143Y-52315000D01*
X162957143Y-52315000D02*
X163004762Y-52362619D01*
X163004762Y-52362619D02*
X163052381Y-52457857D01*
X163052381Y-52457857D02*
X163100000Y-52648333D01*
X163100000Y-52648333D02*
X163100000Y-52886428D01*
X163100000Y-52886428D02*
X163052381Y-53076904D01*
X163052381Y-53076904D02*
X163004762Y-53172142D01*
X163004762Y-53172142D02*
X162957143Y-53219761D01*
X162957143Y-53219761D02*
X162861905Y-53267380D01*
X162861905Y-53267380D02*
X162766667Y-53267380D01*
X162766667Y-53267380D02*
X162671429Y-53219761D01*
X162671429Y-53219761D02*
X162623810Y-53172142D01*
X162623810Y-53172142D02*
X162576191Y-53076904D01*
X162576191Y-53076904D02*
X162528572Y-52886428D01*
X162528572Y-52886428D02*
X162528572Y-52648333D01*
X162528572Y-52648333D02*
X162576191Y-52457857D01*
X162576191Y-52457857D02*
X162623810Y-52362619D01*
X162623810Y-52362619D02*
X162671429Y-52315000D01*
X162671429Y-52315000D02*
X162766667Y-52267380D01*
X163528572Y-53172142D02*
X163576191Y-53219761D01*
X163576191Y-53219761D02*
X163528572Y-53267380D01*
X163528572Y-53267380D02*
X163480953Y-53219761D01*
X163480953Y-53219761D02*
X163528572Y-53172142D01*
X163528572Y-53172142D02*
X163528572Y-53267380D01*
X164528571Y-53267380D02*
X163957143Y-53267380D01*
X164242857Y-53267380D02*
X164242857Y-52267380D01*
X164242857Y-52267380D02*
X164147619Y-52410238D01*
X164147619Y-52410238D02*
X164052381Y-52505476D01*
X164052381Y-52505476D02*
X163957143Y-52553095D01*
X138602142Y-126914287D02*
X137173571Y-127914287D01*
X138602142Y-128628573D02*
X135602142Y-128628573D01*
X135602142Y-128628573D02*
X135602142Y-127485716D01*
X135602142Y-127485716D02*
X135745000Y-127200001D01*
X135745000Y-127200001D02*
X135887857Y-127057144D01*
X135887857Y-127057144D02*
X136173571Y-126914287D01*
X136173571Y-126914287D02*
X136602142Y-126914287D01*
X136602142Y-126914287D02*
X136887857Y-127057144D01*
X136887857Y-127057144D02*
X137030714Y-127200001D01*
X137030714Y-127200001D02*
X137173571Y-127485716D01*
X137173571Y-127485716D02*
X137173571Y-128628573D01*
X137745000Y-125771430D02*
X137745000Y-124342859D01*
X138602142Y-126057144D02*
X135602142Y-125057144D01*
X135602142Y-125057144D02*
X138602142Y-124057144D01*
X135602142Y-121771430D02*
X135602142Y-122342858D01*
X135602142Y-122342858D02*
X135745000Y-122628572D01*
X135745000Y-122628572D02*
X135887857Y-122771430D01*
X135887857Y-122771430D02*
X136316428Y-123057144D01*
X136316428Y-123057144D02*
X136887857Y-123200001D01*
X136887857Y-123200001D02*
X138030714Y-123200001D01*
X138030714Y-123200001D02*
X138316428Y-123057144D01*
X138316428Y-123057144D02*
X138459285Y-122914287D01*
X138459285Y-122914287D02*
X138602142Y-122628572D01*
X138602142Y-122628572D02*
X138602142Y-122057144D01*
X138602142Y-122057144D02*
X138459285Y-121771430D01*
X138459285Y-121771430D02*
X138316428Y-121628572D01*
X138316428Y-121628572D02*
X138030714Y-121485715D01*
X138030714Y-121485715D02*
X137316428Y-121485715D01*
X137316428Y-121485715D02*
X137030714Y-121628572D01*
X137030714Y-121628572D02*
X136887857Y-121771430D01*
X136887857Y-121771430D02*
X136745000Y-122057144D01*
X136745000Y-122057144D02*
X136745000Y-122628572D01*
X136745000Y-122628572D02*
X136887857Y-122914287D01*
X136887857Y-122914287D02*
X137030714Y-123057144D01*
X137030714Y-123057144D02*
X137316428Y-123200001D01*
X135602142Y-119628572D02*
X135602142Y-119342858D01*
X135602142Y-119342858D02*
X135745000Y-119057144D01*
X135745000Y-119057144D02*
X135887857Y-118914287D01*
X135887857Y-118914287D02*
X136173571Y-118771429D01*
X136173571Y-118771429D02*
X136745000Y-118628572D01*
X136745000Y-118628572D02*
X137459285Y-118628572D01*
X137459285Y-118628572D02*
X138030714Y-118771429D01*
X138030714Y-118771429D02*
X138316428Y-118914287D01*
X138316428Y-118914287D02*
X138459285Y-119057144D01*
X138459285Y-119057144D02*
X138602142Y-119342858D01*
X138602142Y-119342858D02*
X138602142Y-119628572D01*
X138602142Y-119628572D02*
X138459285Y-119914287D01*
X138459285Y-119914287D02*
X138316428Y-120057144D01*
X138316428Y-120057144D02*
X138030714Y-120200001D01*
X138030714Y-120200001D02*
X137459285Y-120342858D01*
X137459285Y-120342858D02*
X136745000Y-120342858D01*
X136745000Y-120342858D02*
X136173571Y-120200001D01*
X136173571Y-120200001D02*
X135887857Y-120057144D01*
X135887857Y-120057144D02*
X135745000Y-119914287D01*
X135745000Y-119914287D02*
X135602142Y-119628572D01*
X135887857Y-117485715D02*
X135745000Y-117342858D01*
X135745000Y-117342858D02*
X135602142Y-117057144D01*
X135602142Y-117057144D02*
X135602142Y-116342858D01*
X135602142Y-116342858D02*
X135745000Y-116057144D01*
X135745000Y-116057144D02*
X135887857Y-115914286D01*
X135887857Y-115914286D02*
X136173571Y-115771429D01*
X136173571Y-115771429D02*
X136459285Y-115771429D01*
X136459285Y-115771429D02*
X136887857Y-115914286D01*
X136887857Y-115914286D02*
X138602142Y-117628572D01*
X138602142Y-117628572D02*
X138602142Y-115771429D01*
X135602142Y-113914286D02*
X135602142Y-113628572D01*
X135602142Y-113628572D02*
X135745000Y-113342858D01*
X135745000Y-113342858D02*
X135887857Y-113200001D01*
X135887857Y-113200001D02*
X136173571Y-113057143D01*
X136173571Y-113057143D02*
X136745000Y-112914286D01*
X136745000Y-112914286D02*
X137459285Y-112914286D01*
X137459285Y-112914286D02*
X138030714Y-113057143D01*
X138030714Y-113057143D02*
X138316428Y-113200001D01*
X138316428Y-113200001D02*
X138459285Y-113342858D01*
X138459285Y-113342858D02*
X138602142Y-113628572D01*
X138602142Y-113628572D02*
X138602142Y-113914286D01*
X138602142Y-113914286D02*
X138459285Y-114200001D01*
X138459285Y-114200001D02*
X138316428Y-114342858D01*
X138316428Y-114342858D02*
X138030714Y-114485715D01*
X138030714Y-114485715D02*
X137459285Y-114628572D01*
X137459285Y-114628572D02*
X136745000Y-114628572D01*
X136745000Y-114628572D02*
X136173571Y-114485715D01*
X136173571Y-114485715D02*
X135887857Y-114342858D01*
X135887857Y-114342858D02*
X135745000Y-114200001D01*
X135745000Y-114200001D02*
X135602142Y-113914286D01*
X137030714Y-110628572D02*
X137030714Y-111628572D01*
X138602142Y-111628572D02*
X135602142Y-111628572D01*
X135602142Y-111628572D02*
X135602142Y-110200000D01*
X137459285Y-109057143D02*
X137459285Y-106771429D01*
X138602142Y-103771428D02*
X138602142Y-105485714D01*
X138602142Y-104628571D02*
X135602142Y-104628571D01*
X135602142Y-104628571D02*
X136030714Y-104914285D01*
X136030714Y-104914285D02*
X136316428Y-105200000D01*
X136316428Y-105200000D02*
X136459285Y-105485714D01*
X135602142Y-101914285D02*
X135602142Y-101628571D01*
X135602142Y-101628571D02*
X135745000Y-101342857D01*
X135745000Y-101342857D02*
X135887857Y-101200000D01*
X135887857Y-101200000D02*
X136173571Y-101057142D01*
X136173571Y-101057142D02*
X136745000Y-100914285D01*
X136745000Y-100914285D02*
X137459285Y-100914285D01*
X137459285Y-100914285D02*
X138030714Y-101057142D01*
X138030714Y-101057142D02*
X138316428Y-101200000D01*
X138316428Y-101200000D02*
X138459285Y-101342857D01*
X138459285Y-101342857D02*
X138602142Y-101628571D01*
X138602142Y-101628571D02*
X138602142Y-101914285D01*
X138602142Y-101914285D02*
X138459285Y-102200000D01*
X138459285Y-102200000D02*
X138316428Y-102342857D01*
X138316428Y-102342857D02*
X138030714Y-102485714D01*
X138030714Y-102485714D02*
X137459285Y-102628571D01*
X137459285Y-102628571D02*
X136745000Y-102628571D01*
X136745000Y-102628571D02*
X136173571Y-102485714D01*
X136173571Y-102485714D02*
X135887857Y-102342857D01*
X135887857Y-102342857D02*
X135745000Y-102200000D01*
X135745000Y-102200000D02*
X135602142Y-101914285D01*
X137459285Y-99628571D02*
X137459285Y-97342857D01*
X138602142Y-94342856D02*
X138602142Y-96057142D01*
X138602142Y-95199999D02*
X135602142Y-95199999D01*
X135602142Y-95199999D02*
X136030714Y-95485713D01*
X136030714Y-95485713D02*
X136316428Y-95771428D01*
X136316428Y-95771428D02*
X136459285Y-96057142D01*
X135602142Y-91628570D02*
X135602142Y-93057142D01*
X135602142Y-93057142D02*
X137030714Y-93199999D01*
X137030714Y-93199999D02*
X136887857Y-93057142D01*
X136887857Y-93057142D02*
X136745000Y-92771428D01*
X136745000Y-92771428D02*
X136745000Y-92057142D01*
X136745000Y-92057142D02*
X136887857Y-91771428D01*
X136887857Y-91771428D02*
X137030714Y-91628570D01*
X137030714Y-91628570D02*
X137316428Y-91485713D01*
X137316428Y-91485713D02*
X138030714Y-91485713D01*
X138030714Y-91485713D02*
X138316428Y-91628570D01*
X138316428Y-91628570D02*
X138459285Y-91771428D01*
X138459285Y-91771428D02*
X138602142Y-92057142D01*
X138602142Y-92057142D02*
X138602142Y-92771428D01*
X138602142Y-92771428D02*
X138459285Y-93057142D01*
X138459285Y-93057142D02*
X138316428Y-93199999D01*
X137030714Y-89199999D02*
X137030714Y-90199999D01*
X138602142Y-90199999D02*
X135602142Y-90199999D01*
X135602142Y-90199999D02*
X135602142Y-88771427D01*
X135887857Y-87771427D02*
X135745000Y-87628570D01*
X135745000Y-87628570D02*
X135602142Y-87342856D01*
X135602142Y-87342856D02*
X135602142Y-86628570D01*
X135602142Y-86628570D02*
X135745000Y-86342856D01*
X135745000Y-86342856D02*
X135887857Y-86199998D01*
X135887857Y-86199998D02*
X136173571Y-86057141D01*
X136173571Y-86057141D02*
X136459285Y-86057141D01*
X136459285Y-86057141D02*
X136887857Y-86199998D01*
X136887857Y-86199998D02*
X138602142Y-87914284D01*
X138602142Y-87914284D02*
X138602142Y-86057141D01*
X137459285Y-84771427D02*
X137459285Y-82485713D01*
X137030714Y-80057141D02*
X137173571Y-79628569D01*
X137173571Y-79628569D02*
X137316428Y-79485712D01*
X137316428Y-79485712D02*
X137602142Y-79342855D01*
X137602142Y-79342855D02*
X138030714Y-79342855D01*
X138030714Y-79342855D02*
X138316428Y-79485712D01*
X138316428Y-79485712D02*
X138459285Y-79628569D01*
X138459285Y-79628569D02*
X138602142Y-79914284D01*
X138602142Y-79914284D02*
X138602142Y-81057141D01*
X138602142Y-81057141D02*
X135602142Y-81057141D01*
X135602142Y-81057141D02*
X135602142Y-80057141D01*
X135602142Y-80057141D02*
X135745000Y-79771427D01*
X135745000Y-79771427D02*
X135887857Y-79628569D01*
X135887857Y-79628569D02*
X136173571Y-79485712D01*
X136173571Y-79485712D02*
X136459285Y-79485712D01*
X136459285Y-79485712D02*
X136745000Y-79628569D01*
X136745000Y-79628569D02*
X136887857Y-79771427D01*
X136887857Y-79771427D02*
X137030714Y-80057141D01*
X137030714Y-80057141D02*
X137030714Y-81057141D01*
X138602142Y-76485712D02*
X138602142Y-78199998D01*
X138602142Y-77342855D02*
X135602142Y-77342855D01*
X135602142Y-77342855D02*
X136030714Y-77628569D01*
X136030714Y-77628569D02*
X136316428Y-77914284D01*
X136316428Y-77914284D02*
X136459285Y-78199998D01*
X135602142Y-74628569D02*
X135602142Y-74342855D01*
X135602142Y-74342855D02*
X135745000Y-74057141D01*
X135745000Y-74057141D02*
X135887857Y-73914284D01*
X135887857Y-73914284D02*
X136173571Y-73771426D01*
X136173571Y-73771426D02*
X136745000Y-73628569D01*
X136745000Y-73628569D02*
X137459285Y-73628569D01*
X137459285Y-73628569D02*
X138030714Y-73771426D01*
X138030714Y-73771426D02*
X138316428Y-73914284D01*
X138316428Y-73914284D02*
X138459285Y-74057141D01*
X138459285Y-74057141D02*
X138602142Y-74342855D01*
X138602142Y-74342855D02*
X138602142Y-74628569D01*
X138602142Y-74628569D02*
X138459285Y-74914284D01*
X138459285Y-74914284D02*
X138316428Y-75057141D01*
X138316428Y-75057141D02*
X138030714Y-75199998D01*
X138030714Y-75199998D02*
X137459285Y-75342855D01*
X137459285Y-75342855D02*
X136745000Y-75342855D01*
X136745000Y-75342855D02*
X136173571Y-75199998D01*
X136173571Y-75199998D02*
X135887857Y-75057141D01*
X135887857Y-75057141D02*
X135745000Y-74914284D01*
X135745000Y-74914284D02*
X135602142Y-74628569D01*
X138602142Y-72342855D02*
X135602142Y-72342855D01*
X138602142Y-70628569D02*
X136887857Y-71914283D01*
X135602142Y-70628569D02*
X137316428Y-72342855D01*
X163702142Y-126714287D02*
X162273571Y-127714287D01*
X163702142Y-128428573D02*
X160702142Y-128428573D01*
X160702142Y-128428573D02*
X160702142Y-127285716D01*
X160702142Y-127285716D02*
X160845000Y-127000001D01*
X160845000Y-127000001D02*
X160987857Y-126857144D01*
X160987857Y-126857144D02*
X161273571Y-126714287D01*
X161273571Y-126714287D02*
X161702142Y-126714287D01*
X161702142Y-126714287D02*
X161987857Y-126857144D01*
X161987857Y-126857144D02*
X162130714Y-127000001D01*
X162130714Y-127000001D02*
X162273571Y-127285716D01*
X162273571Y-127285716D02*
X162273571Y-128428573D01*
X162845000Y-125571430D02*
X162845000Y-124142859D01*
X163702142Y-125857144D02*
X160702142Y-124857144D01*
X160702142Y-124857144D02*
X163702142Y-123857144D01*
X160702142Y-121571430D02*
X160702142Y-122142858D01*
X160702142Y-122142858D02*
X160845000Y-122428572D01*
X160845000Y-122428572D02*
X160987857Y-122571430D01*
X160987857Y-122571430D02*
X161416428Y-122857144D01*
X161416428Y-122857144D02*
X161987857Y-123000001D01*
X161987857Y-123000001D02*
X163130714Y-123000001D01*
X163130714Y-123000001D02*
X163416428Y-122857144D01*
X163416428Y-122857144D02*
X163559285Y-122714287D01*
X163559285Y-122714287D02*
X163702142Y-122428572D01*
X163702142Y-122428572D02*
X163702142Y-121857144D01*
X163702142Y-121857144D02*
X163559285Y-121571430D01*
X163559285Y-121571430D02*
X163416428Y-121428572D01*
X163416428Y-121428572D02*
X163130714Y-121285715D01*
X163130714Y-121285715D02*
X162416428Y-121285715D01*
X162416428Y-121285715D02*
X162130714Y-121428572D01*
X162130714Y-121428572D02*
X161987857Y-121571430D01*
X161987857Y-121571430D02*
X161845000Y-121857144D01*
X161845000Y-121857144D02*
X161845000Y-122428572D01*
X161845000Y-122428572D02*
X161987857Y-122714287D01*
X161987857Y-122714287D02*
X162130714Y-122857144D01*
X162130714Y-122857144D02*
X162416428Y-123000001D01*
X160702142Y-119428572D02*
X160702142Y-119142858D01*
X160702142Y-119142858D02*
X160845000Y-118857144D01*
X160845000Y-118857144D02*
X160987857Y-118714287D01*
X160987857Y-118714287D02*
X161273571Y-118571429D01*
X161273571Y-118571429D02*
X161845000Y-118428572D01*
X161845000Y-118428572D02*
X162559285Y-118428572D01*
X162559285Y-118428572D02*
X163130714Y-118571429D01*
X163130714Y-118571429D02*
X163416428Y-118714287D01*
X163416428Y-118714287D02*
X163559285Y-118857144D01*
X163559285Y-118857144D02*
X163702142Y-119142858D01*
X163702142Y-119142858D02*
X163702142Y-119428572D01*
X163702142Y-119428572D02*
X163559285Y-119714287D01*
X163559285Y-119714287D02*
X163416428Y-119857144D01*
X163416428Y-119857144D02*
X163130714Y-120000001D01*
X163130714Y-120000001D02*
X162559285Y-120142858D01*
X162559285Y-120142858D02*
X161845000Y-120142858D01*
X161845000Y-120142858D02*
X161273571Y-120000001D01*
X161273571Y-120000001D02*
X160987857Y-119857144D01*
X160987857Y-119857144D02*
X160845000Y-119714287D01*
X160845000Y-119714287D02*
X160702142Y-119428572D01*
X160987857Y-117285715D02*
X160845000Y-117142858D01*
X160845000Y-117142858D02*
X160702142Y-116857144D01*
X160702142Y-116857144D02*
X160702142Y-116142858D01*
X160702142Y-116142858D02*
X160845000Y-115857144D01*
X160845000Y-115857144D02*
X160987857Y-115714286D01*
X160987857Y-115714286D02*
X161273571Y-115571429D01*
X161273571Y-115571429D02*
X161559285Y-115571429D01*
X161559285Y-115571429D02*
X161987857Y-115714286D01*
X161987857Y-115714286D02*
X163702142Y-117428572D01*
X163702142Y-117428572D02*
X163702142Y-115571429D01*
X160702142Y-113714286D02*
X160702142Y-113428572D01*
X160702142Y-113428572D02*
X160845000Y-113142858D01*
X160845000Y-113142858D02*
X160987857Y-113000001D01*
X160987857Y-113000001D02*
X161273571Y-112857143D01*
X161273571Y-112857143D02*
X161845000Y-112714286D01*
X161845000Y-112714286D02*
X162559285Y-112714286D01*
X162559285Y-112714286D02*
X163130714Y-112857143D01*
X163130714Y-112857143D02*
X163416428Y-113000001D01*
X163416428Y-113000001D02*
X163559285Y-113142858D01*
X163559285Y-113142858D02*
X163702142Y-113428572D01*
X163702142Y-113428572D02*
X163702142Y-113714286D01*
X163702142Y-113714286D02*
X163559285Y-114000001D01*
X163559285Y-114000001D02*
X163416428Y-114142858D01*
X163416428Y-114142858D02*
X163130714Y-114285715D01*
X163130714Y-114285715D02*
X162559285Y-114428572D01*
X162559285Y-114428572D02*
X161845000Y-114428572D01*
X161845000Y-114428572D02*
X161273571Y-114285715D01*
X161273571Y-114285715D02*
X160987857Y-114142858D01*
X160987857Y-114142858D02*
X160845000Y-114000001D01*
X160845000Y-114000001D02*
X160702142Y-113714286D01*
X162130714Y-110428572D02*
X162130714Y-111428572D01*
X163702142Y-111428572D02*
X160702142Y-111428572D01*
X160702142Y-111428572D02*
X160702142Y-110000000D01*
X162559285Y-108857143D02*
X162559285Y-106571429D01*
X163702142Y-103571428D02*
X163702142Y-105285714D01*
X163702142Y-104428571D02*
X160702142Y-104428571D01*
X160702142Y-104428571D02*
X161130714Y-104714285D01*
X161130714Y-104714285D02*
X161416428Y-105000000D01*
X161416428Y-105000000D02*
X161559285Y-105285714D01*
X160702142Y-101714285D02*
X160702142Y-101428571D01*
X160702142Y-101428571D02*
X160845000Y-101142857D01*
X160845000Y-101142857D02*
X160987857Y-101000000D01*
X160987857Y-101000000D02*
X161273571Y-100857142D01*
X161273571Y-100857142D02*
X161845000Y-100714285D01*
X161845000Y-100714285D02*
X162559285Y-100714285D01*
X162559285Y-100714285D02*
X163130714Y-100857142D01*
X163130714Y-100857142D02*
X163416428Y-101000000D01*
X163416428Y-101000000D02*
X163559285Y-101142857D01*
X163559285Y-101142857D02*
X163702142Y-101428571D01*
X163702142Y-101428571D02*
X163702142Y-101714285D01*
X163702142Y-101714285D02*
X163559285Y-102000000D01*
X163559285Y-102000000D02*
X163416428Y-102142857D01*
X163416428Y-102142857D02*
X163130714Y-102285714D01*
X163130714Y-102285714D02*
X162559285Y-102428571D01*
X162559285Y-102428571D02*
X161845000Y-102428571D01*
X161845000Y-102428571D02*
X161273571Y-102285714D01*
X161273571Y-102285714D02*
X160987857Y-102142857D01*
X160987857Y-102142857D02*
X160845000Y-102000000D01*
X160845000Y-102000000D02*
X160702142Y-101714285D01*
X162559285Y-99428571D02*
X162559285Y-97142857D01*
X163702142Y-94142856D02*
X163702142Y-95857142D01*
X163702142Y-94999999D02*
X160702142Y-94999999D01*
X160702142Y-94999999D02*
X161130714Y-95285713D01*
X161130714Y-95285713D02*
X161416428Y-95571428D01*
X161416428Y-95571428D02*
X161559285Y-95857142D01*
X160702142Y-91428570D02*
X160702142Y-92857142D01*
X160702142Y-92857142D02*
X162130714Y-92999999D01*
X162130714Y-92999999D02*
X161987857Y-92857142D01*
X161987857Y-92857142D02*
X161845000Y-92571428D01*
X161845000Y-92571428D02*
X161845000Y-91857142D01*
X161845000Y-91857142D02*
X161987857Y-91571428D01*
X161987857Y-91571428D02*
X162130714Y-91428570D01*
X162130714Y-91428570D02*
X162416428Y-91285713D01*
X162416428Y-91285713D02*
X163130714Y-91285713D01*
X163130714Y-91285713D02*
X163416428Y-91428570D01*
X163416428Y-91428570D02*
X163559285Y-91571428D01*
X163559285Y-91571428D02*
X163702142Y-91857142D01*
X163702142Y-91857142D02*
X163702142Y-92571428D01*
X163702142Y-92571428D02*
X163559285Y-92857142D01*
X163559285Y-92857142D02*
X163416428Y-92999999D01*
X162130714Y-88999999D02*
X162130714Y-89999999D01*
X163702142Y-89999999D02*
X160702142Y-89999999D01*
X160702142Y-89999999D02*
X160702142Y-88571427D01*
X160987857Y-87571427D02*
X160845000Y-87428570D01*
X160845000Y-87428570D02*
X160702142Y-87142856D01*
X160702142Y-87142856D02*
X160702142Y-86428570D01*
X160702142Y-86428570D02*
X160845000Y-86142856D01*
X160845000Y-86142856D02*
X160987857Y-85999998D01*
X160987857Y-85999998D02*
X161273571Y-85857141D01*
X161273571Y-85857141D02*
X161559285Y-85857141D01*
X161559285Y-85857141D02*
X161987857Y-85999998D01*
X161987857Y-85999998D02*
X163702142Y-87714284D01*
X163702142Y-87714284D02*
X163702142Y-85857141D01*
X162559285Y-84571427D02*
X162559285Y-82285713D01*
X162130714Y-79857141D02*
X162273571Y-79428569D01*
X162273571Y-79428569D02*
X162416428Y-79285712D01*
X162416428Y-79285712D02*
X162702142Y-79142855D01*
X162702142Y-79142855D02*
X163130714Y-79142855D01*
X163130714Y-79142855D02*
X163416428Y-79285712D01*
X163416428Y-79285712D02*
X163559285Y-79428569D01*
X163559285Y-79428569D02*
X163702142Y-79714284D01*
X163702142Y-79714284D02*
X163702142Y-80857141D01*
X163702142Y-80857141D02*
X160702142Y-80857141D01*
X160702142Y-80857141D02*
X160702142Y-79857141D01*
X160702142Y-79857141D02*
X160845000Y-79571427D01*
X160845000Y-79571427D02*
X160987857Y-79428569D01*
X160987857Y-79428569D02*
X161273571Y-79285712D01*
X161273571Y-79285712D02*
X161559285Y-79285712D01*
X161559285Y-79285712D02*
X161845000Y-79428569D01*
X161845000Y-79428569D02*
X161987857Y-79571427D01*
X161987857Y-79571427D02*
X162130714Y-79857141D01*
X162130714Y-79857141D02*
X162130714Y-80857141D01*
X163702142Y-76285712D02*
X163702142Y-77999998D01*
X163702142Y-77142855D02*
X160702142Y-77142855D01*
X160702142Y-77142855D02*
X161130714Y-77428569D01*
X161130714Y-77428569D02*
X161416428Y-77714284D01*
X161416428Y-77714284D02*
X161559285Y-77999998D01*
X160702142Y-74428569D02*
X160702142Y-74142855D01*
X160702142Y-74142855D02*
X160845000Y-73857141D01*
X160845000Y-73857141D02*
X160987857Y-73714284D01*
X160987857Y-73714284D02*
X161273571Y-73571426D01*
X161273571Y-73571426D02*
X161845000Y-73428569D01*
X161845000Y-73428569D02*
X162559285Y-73428569D01*
X162559285Y-73428569D02*
X163130714Y-73571426D01*
X163130714Y-73571426D02*
X163416428Y-73714284D01*
X163416428Y-73714284D02*
X163559285Y-73857141D01*
X163559285Y-73857141D02*
X163702142Y-74142855D01*
X163702142Y-74142855D02*
X163702142Y-74428569D01*
X163702142Y-74428569D02*
X163559285Y-74714284D01*
X163559285Y-74714284D02*
X163416428Y-74857141D01*
X163416428Y-74857141D02*
X163130714Y-74999998D01*
X163130714Y-74999998D02*
X162559285Y-75142855D01*
X162559285Y-75142855D02*
X161845000Y-75142855D01*
X161845000Y-75142855D02*
X161273571Y-74999998D01*
X161273571Y-74999998D02*
X160987857Y-74857141D01*
X160987857Y-74857141D02*
X160845000Y-74714284D01*
X160845000Y-74714284D02*
X160702142Y-74428569D01*
X163702142Y-72142855D02*
X160702142Y-72142855D01*
X163702142Y-70428569D02*
X161987857Y-71714283D01*
X160702142Y-70428569D02*
X162416428Y-72142855D01*
X88602142Y-126914287D02*
X87173571Y-127914287D01*
X88602142Y-128628573D02*
X85602142Y-128628573D01*
X85602142Y-128628573D02*
X85602142Y-127485716D01*
X85602142Y-127485716D02*
X85745000Y-127200001D01*
X85745000Y-127200001D02*
X85887857Y-127057144D01*
X85887857Y-127057144D02*
X86173571Y-126914287D01*
X86173571Y-126914287D02*
X86602142Y-126914287D01*
X86602142Y-126914287D02*
X86887857Y-127057144D01*
X86887857Y-127057144D02*
X87030714Y-127200001D01*
X87030714Y-127200001D02*
X87173571Y-127485716D01*
X87173571Y-127485716D02*
X87173571Y-128628573D01*
X87745000Y-125771430D02*
X87745000Y-124342859D01*
X88602142Y-126057144D02*
X85602142Y-125057144D01*
X85602142Y-125057144D02*
X88602142Y-124057144D01*
X85602142Y-121771430D02*
X85602142Y-122342858D01*
X85602142Y-122342858D02*
X85745000Y-122628572D01*
X85745000Y-122628572D02*
X85887857Y-122771430D01*
X85887857Y-122771430D02*
X86316428Y-123057144D01*
X86316428Y-123057144D02*
X86887857Y-123200001D01*
X86887857Y-123200001D02*
X88030714Y-123200001D01*
X88030714Y-123200001D02*
X88316428Y-123057144D01*
X88316428Y-123057144D02*
X88459285Y-122914287D01*
X88459285Y-122914287D02*
X88602142Y-122628572D01*
X88602142Y-122628572D02*
X88602142Y-122057144D01*
X88602142Y-122057144D02*
X88459285Y-121771430D01*
X88459285Y-121771430D02*
X88316428Y-121628572D01*
X88316428Y-121628572D02*
X88030714Y-121485715D01*
X88030714Y-121485715D02*
X87316428Y-121485715D01*
X87316428Y-121485715D02*
X87030714Y-121628572D01*
X87030714Y-121628572D02*
X86887857Y-121771430D01*
X86887857Y-121771430D02*
X86745000Y-122057144D01*
X86745000Y-122057144D02*
X86745000Y-122628572D01*
X86745000Y-122628572D02*
X86887857Y-122914287D01*
X86887857Y-122914287D02*
X87030714Y-123057144D01*
X87030714Y-123057144D02*
X87316428Y-123200001D01*
X85602142Y-119628572D02*
X85602142Y-119342858D01*
X85602142Y-119342858D02*
X85745000Y-119057144D01*
X85745000Y-119057144D02*
X85887857Y-118914287D01*
X85887857Y-118914287D02*
X86173571Y-118771429D01*
X86173571Y-118771429D02*
X86745000Y-118628572D01*
X86745000Y-118628572D02*
X87459285Y-118628572D01*
X87459285Y-118628572D02*
X88030714Y-118771429D01*
X88030714Y-118771429D02*
X88316428Y-118914287D01*
X88316428Y-118914287D02*
X88459285Y-119057144D01*
X88459285Y-119057144D02*
X88602142Y-119342858D01*
X88602142Y-119342858D02*
X88602142Y-119628572D01*
X88602142Y-119628572D02*
X88459285Y-119914287D01*
X88459285Y-119914287D02*
X88316428Y-120057144D01*
X88316428Y-120057144D02*
X88030714Y-120200001D01*
X88030714Y-120200001D02*
X87459285Y-120342858D01*
X87459285Y-120342858D02*
X86745000Y-120342858D01*
X86745000Y-120342858D02*
X86173571Y-120200001D01*
X86173571Y-120200001D02*
X85887857Y-120057144D01*
X85887857Y-120057144D02*
X85745000Y-119914287D01*
X85745000Y-119914287D02*
X85602142Y-119628572D01*
X85887857Y-117485715D02*
X85745000Y-117342858D01*
X85745000Y-117342858D02*
X85602142Y-117057144D01*
X85602142Y-117057144D02*
X85602142Y-116342858D01*
X85602142Y-116342858D02*
X85745000Y-116057144D01*
X85745000Y-116057144D02*
X85887857Y-115914286D01*
X85887857Y-115914286D02*
X86173571Y-115771429D01*
X86173571Y-115771429D02*
X86459285Y-115771429D01*
X86459285Y-115771429D02*
X86887857Y-115914286D01*
X86887857Y-115914286D02*
X88602142Y-117628572D01*
X88602142Y-117628572D02*
X88602142Y-115771429D01*
X85602142Y-113914286D02*
X85602142Y-113628572D01*
X85602142Y-113628572D02*
X85745000Y-113342858D01*
X85745000Y-113342858D02*
X85887857Y-113200001D01*
X85887857Y-113200001D02*
X86173571Y-113057143D01*
X86173571Y-113057143D02*
X86745000Y-112914286D01*
X86745000Y-112914286D02*
X87459285Y-112914286D01*
X87459285Y-112914286D02*
X88030714Y-113057143D01*
X88030714Y-113057143D02*
X88316428Y-113200001D01*
X88316428Y-113200001D02*
X88459285Y-113342858D01*
X88459285Y-113342858D02*
X88602142Y-113628572D01*
X88602142Y-113628572D02*
X88602142Y-113914286D01*
X88602142Y-113914286D02*
X88459285Y-114200001D01*
X88459285Y-114200001D02*
X88316428Y-114342858D01*
X88316428Y-114342858D02*
X88030714Y-114485715D01*
X88030714Y-114485715D02*
X87459285Y-114628572D01*
X87459285Y-114628572D02*
X86745000Y-114628572D01*
X86745000Y-114628572D02*
X86173571Y-114485715D01*
X86173571Y-114485715D02*
X85887857Y-114342858D01*
X85887857Y-114342858D02*
X85745000Y-114200001D01*
X85745000Y-114200001D02*
X85602142Y-113914286D01*
X87030714Y-110628572D02*
X87030714Y-111628572D01*
X88602142Y-111628572D02*
X85602142Y-111628572D01*
X85602142Y-111628572D02*
X85602142Y-110200000D01*
X87459285Y-109057143D02*
X87459285Y-106771429D01*
X88602142Y-103771428D02*
X88602142Y-105485714D01*
X88602142Y-104628571D02*
X85602142Y-104628571D01*
X85602142Y-104628571D02*
X86030714Y-104914285D01*
X86030714Y-104914285D02*
X86316428Y-105200000D01*
X86316428Y-105200000D02*
X86459285Y-105485714D01*
X85602142Y-101914285D02*
X85602142Y-101628571D01*
X85602142Y-101628571D02*
X85745000Y-101342857D01*
X85745000Y-101342857D02*
X85887857Y-101200000D01*
X85887857Y-101200000D02*
X86173571Y-101057142D01*
X86173571Y-101057142D02*
X86745000Y-100914285D01*
X86745000Y-100914285D02*
X87459285Y-100914285D01*
X87459285Y-100914285D02*
X88030714Y-101057142D01*
X88030714Y-101057142D02*
X88316428Y-101200000D01*
X88316428Y-101200000D02*
X88459285Y-101342857D01*
X88459285Y-101342857D02*
X88602142Y-101628571D01*
X88602142Y-101628571D02*
X88602142Y-101914285D01*
X88602142Y-101914285D02*
X88459285Y-102200000D01*
X88459285Y-102200000D02*
X88316428Y-102342857D01*
X88316428Y-102342857D02*
X88030714Y-102485714D01*
X88030714Y-102485714D02*
X87459285Y-102628571D01*
X87459285Y-102628571D02*
X86745000Y-102628571D01*
X86745000Y-102628571D02*
X86173571Y-102485714D01*
X86173571Y-102485714D02*
X85887857Y-102342857D01*
X85887857Y-102342857D02*
X85745000Y-102200000D01*
X85745000Y-102200000D02*
X85602142Y-101914285D01*
X87459285Y-99628571D02*
X87459285Y-97342857D01*
X88602142Y-94342856D02*
X88602142Y-96057142D01*
X88602142Y-95199999D02*
X85602142Y-95199999D01*
X85602142Y-95199999D02*
X86030714Y-95485713D01*
X86030714Y-95485713D02*
X86316428Y-95771428D01*
X86316428Y-95771428D02*
X86459285Y-96057142D01*
X85602142Y-91628570D02*
X85602142Y-93057142D01*
X85602142Y-93057142D02*
X87030714Y-93199999D01*
X87030714Y-93199999D02*
X86887857Y-93057142D01*
X86887857Y-93057142D02*
X86745000Y-92771428D01*
X86745000Y-92771428D02*
X86745000Y-92057142D01*
X86745000Y-92057142D02*
X86887857Y-91771428D01*
X86887857Y-91771428D02*
X87030714Y-91628570D01*
X87030714Y-91628570D02*
X87316428Y-91485713D01*
X87316428Y-91485713D02*
X88030714Y-91485713D01*
X88030714Y-91485713D02*
X88316428Y-91628570D01*
X88316428Y-91628570D02*
X88459285Y-91771428D01*
X88459285Y-91771428D02*
X88602142Y-92057142D01*
X88602142Y-92057142D02*
X88602142Y-92771428D01*
X88602142Y-92771428D02*
X88459285Y-93057142D01*
X88459285Y-93057142D02*
X88316428Y-93199999D01*
X87030714Y-89199999D02*
X87030714Y-90199999D01*
X88602142Y-90199999D02*
X85602142Y-90199999D01*
X85602142Y-90199999D02*
X85602142Y-88771427D01*
X85887857Y-87771427D02*
X85745000Y-87628570D01*
X85745000Y-87628570D02*
X85602142Y-87342856D01*
X85602142Y-87342856D02*
X85602142Y-86628570D01*
X85602142Y-86628570D02*
X85745000Y-86342856D01*
X85745000Y-86342856D02*
X85887857Y-86199998D01*
X85887857Y-86199998D02*
X86173571Y-86057141D01*
X86173571Y-86057141D02*
X86459285Y-86057141D01*
X86459285Y-86057141D02*
X86887857Y-86199998D01*
X86887857Y-86199998D02*
X88602142Y-87914284D01*
X88602142Y-87914284D02*
X88602142Y-86057141D01*
X87459285Y-84771427D02*
X87459285Y-82485713D01*
X87030714Y-80057141D02*
X87173571Y-79628569D01*
X87173571Y-79628569D02*
X87316428Y-79485712D01*
X87316428Y-79485712D02*
X87602142Y-79342855D01*
X87602142Y-79342855D02*
X88030714Y-79342855D01*
X88030714Y-79342855D02*
X88316428Y-79485712D01*
X88316428Y-79485712D02*
X88459285Y-79628569D01*
X88459285Y-79628569D02*
X88602142Y-79914284D01*
X88602142Y-79914284D02*
X88602142Y-81057141D01*
X88602142Y-81057141D02*
X85602142Y-81057141D01*
X85602142Y-81057141D02*
X85602142Y-80057141D01*
X85602142Y-80057141D02*
X85745000Y-79771427D01*
X85745000Y-79771427D02*
X85887857Y-79628569D01*
X85887857Y-79628569D02*
X86173571Y-79485712D01*
X86173571Y-79485712D02*
X86459285Y-79485712D01*
X86459285Y-79485712D02*
X86745000Y-79628569D01*
X86745000Y-79628569D02*
X86887857Y-79771427D01*
X86887857Y-79771427D02*
X87030714Y-80057141D01*
X87030714Y-80057141D02*
X87030714Y-81057141D01*
X88602142Y-76485712D02*
X88602142Y-78199998D01*
X88602142Y-77342855D02*
X85602142Y-77342855D01*
X85602142Y-77342855D02*
X86030714Y-77628569D01*
X86030714Y-77628569D02*
X86316428Y-77914284D01*
X86316428Y-77914284D02*
X86459285Y-78199998D01*
X85602142Y-74628569D02*
X85602142Y-74342855D01*
X85602142Y-74342855D02*
X85745000Y-74057141D01*
X85745000Y-74057141D02*
X85887857Y-73914284D01*
X85887857Y-73914284D02*
X86173571Y-73771426D01*
X86173571Y-73771426D02*
X86745000Y-73628569D01*
X86745000Y-73628569D02*
X87459285Y-73628569D01*
X87459285Y-73628569D02*
X88030714Y-73771426D01*
X88030714Y-73771426D02*
X88316428Y-73914284D01*
X88316428Y-73914284D02*
X88459285Y-74057141D01*
X88459285Y-74057141D02*
X88602142Y-74342855D01*
X88602142Y-74342855D02*
X88602142Y-74628569D01*
X88602142Y-74628569D02*
X88459285Y-74914284D01*
X88459285Y-74914284D02*
X88316428Y-75057141D01*
X88316428Y-75057141D02*
X88030714Y-75199998D01*
X88030714Y-75199998D02*
X87459285Y-75342855D01*
X87459285Y-75342855D02*
X86745000Y-75342855D01*
X86745000Y-75342855D02*
X86173571Y-75199998D01*
X86173571Y-75199998D02*
X85887857Y-75057141D01*
X85887857Y-75057141D02*
X85745000Y-74914284D01*
X85745000Y-74914284D02*
X85602142Y-74628569D01*
X88602142Y-72342855D02*
X85602142Y-72342855D01*
X88602142Y-70628569D02*
X86887857Y-71914283D01*
X85602142Y-70628569D02*
X87316428Y-72342855D01*
X114002142Y-126914287D02*
X112573571Y-127914287D01*
X114002142Y-128628573D02*
X111002142Y-128628573D01*
X111002142Y-128628573D02*
X111002142Y-127485716D01*
X111002142Y-127485716D02*
X111145000Y-127200001D01*
X111145000Y-127200001D02*
X111287857Y-127057144D01*
X111287857Y-127057144D02*
X111573571Y-126914287D01*
X111573571Y-126914287D02*
X112002142Y-126914287D01*
X112002142Y-126914287D02*
X112287857Y-127057144D01*
X112287857Y-127057144D02*
X112430714Y-127200001D01*
X112430714Y-127200001D02*
X112573571Y-127485716D01*
X112573571Y-127485716D02*
X112573571Y-128628573D01*
X113145000Y-125771430D02*
X113145000Y-124342859D01*
X114002142Y-126057144D02*
X111002142Y-125057144D01*
X111002142Y-125057144D02*
X114002142Y-124057144D01*
X111002142Y-121771430D02*
X111002142Y-122342858D01*
X111002142Y-122342858D02*
X111145000Y-122628572D01*
X111145000Y-122628572D02*
X111287857Y-122771430D01*
X111287857Y-122771430D02*
X111716428Y-123057144D01*
X111716428Y-123057144D02*
X112287857Y-123200001D01*
X112287857Y-123200001D02*
X113430714Y-123200001D01*
X113430714Y-123200001D02*
X113716428Y-123057144D01*
X113716428Y-123057144D02*
X113859285Y-122914287D01*
X113859285Y-122914287D02*
X114002142Y-122628572D01*
X114002142Y-122628572D02*
X114002142Y-122057144D01*
X114002142Y-122057144D02*
X113859285Y-121771430D01*
X113859285Y-121771430D02*
X113716428Y-121628572D01*
X113716428Y-121628572D02*
X113430714Y-121485715D01*
X113430714Y-121485715D02*
X112716428Y-121485715D01*
X112716428Y-121485715D02*
X112430714Y-121628572D01*
X112430714Y-121628572D02*
X112287857Y-121771430D01*
X112287857Y-121771430D02*
X112145000Y-122057144D01*
X112145000Y-122057144D02*
X112145000Y-122628572D01*
X112145000Y-122628572D02*
X112287857Y-122914287D01*
X112287857Y-122914287D02*
X112430714Y-123057144D01*
X112430714Y-123057144D02*
X112716428Y-123200001D01*
X111002142Y-119628572D02*
X111002142Y-119342858D01*
X111002142Y-119342858D02*
X111145000Y-119057144D01*
X111145000Y-119057144D02*
X111287857Y-118914287D01*
X111287857Y-118914287D02*
X111573571Y-118771429D01*
X111573571Y-118771429D02*
X112145000Y-118628572D01*
X112145000Y-118628572D02*
X112859285Y-118628572D01*
X112859285Y-118628572D02*
X113430714Y-118771429D01*
X113430714Y-118771429D02*
X113716428Y-118914287D01*
X113716428Y-118914287D02*
X113859285Y-119057144D01*
X113859285Y-119057144D02*
X114002142Y-119342858D01*
X114002142Y-119342858D02*
X114002142Y-119628572D01*
X114002142Y-119628572D02*
X113859285Y-119914287D01*
X113859285Y-119914287D02*
X113716428Y-120057144D01*
X113716428Y-120057144D02*
X113430714Y-120200001D01*
X113430714Y-120200001D02*
X112859285Y-120342858D01*
X112859285Y-120342858D02*
X112145000Y-120342858D01*
X112145000Y-120342858D02*
X111573571Y-120200001D01*
X111573571Y-120200001D02*
X111287857Y-120057144D01*
X111287857Y-120057144D02*
X111145000Y-119914287D01*
X111145000Y-119914287D02*
X111002142Y-119628572D01*
X111287857Y-117485715D02*
X111145000Y-117342858D01*
X111145000Y-117342858D02*
X111002142Y-117057144D01*
X111002142Y-117057144D02*
X111002142Y-116342858D01*
X111002142Y-116342858D02*
X111145000Y-116057144D01*
X111145000Y-116057144D02*
X111287857Y-115914286D01*
X111287857Y-115914286D02*
X111573571Y-115771429D01*
X111573571Y-115771429D02*
X111859285Y-115771429D01*
X111859285Y-115771429D02*
X112287857Y-115914286D01*
X112287857Y-115914286D02*
X114002142Y-117628572D01*
X114002142Y-117628572D02*
X114002142Y-115771429D01*
X111002142Y-113914286D02*
X111002142Y-113628572D01*
X111002142Y-113628572D02*
X111145000Y-113342858D01*
X111145000Y-113342858D02*
X111287857Y-113200001D01*
X111287857Y-113200001D02*
X111573571Y-113057143D01*
X111573571Y-113057143D02*
X112145000Y-112914286D01*
X112145000Y-112914286D02*
X112859285Y-112914286D01*
X112859285Y-112914286D02*
X113430714Y-113057143D01*
X113430714Y-113057143D02*
X113716428Y-113200001D01*
X113716428Y-113200001D02*
X113859285Y-113342858D01*
X113859285Y-113342858D02*
X114002142Y-113628572D01*
X114002142Y-113628572D02*
X114002142Y-113914286D01*
X114002142Y-113914286D02*
X113859285Y-114200001D01*
X113859285Y-114200001D02*
X113716428Y-114342858D01*
X113716428Y-114342858D02*
X113430714Y-114485715D01*
X113430714Y-114485715D02*
X112859285Y-114628572D01*
X112859285Y-114628572D02*
X112145000Y-114628572D01*
X112145000Y-114628572D02*
X111573571Y-114485715D01*
X111573571Y-114485715D02*
X111287857Y-114342858D01*
X111287857Y-114342858D02*
X111145000Y-114200001D01*
X111145000Y-114200001D02*
X111002142Y-113914286D01*
X112430714Y-110628572D02*
X112430714Y-111628572D01*
X114002142Y-111628572D02*
X111002142Y-111628572D01*
X111002142Y-111628572D02*
X111002142Y-110200000D01*
X112859285Y-109057143D02*
X112859285Y-106771429D01*
X114002142Y-103771428D02*
X114002142Y-105485714D01*
X114002142Y-104628571D02*
X111002142Y-104628571D01*
X111002142Y-104628571D02*
X111430714Y-104914285D01*
X111430714Y-104914285D02*
X111716428Y-105200000D01*
X111716428Y-105200000D02*
X111859285Y-105485714D01*
X111002142Y-101914285D02*
X111002142Y-101628571D01*
X111002142Y-101628571D02*
X111145000Y-101342857D01*
X111145000Y-101342857D02*
X111287857Y-101200000D01*
X111287857Y-101200000D02*
X111573571Y-101057142D01*
X111573571Y-101057142D02*
X112145000Y-100914285D01*
X112145000Y-100914285D02*
X112859285Y-100914285D01*
X112859285Y-100914285D02*
X113430714Y-101057142D01*
X113430714Y-101057142D02*
X113716428Y-101200000D01*
X113716428Y-101200000D02*
X113859285Y-101342857D01*
X113859285Y-101342857D02*
X114002142Y-101628571D01*
X114002142Y-101628571D02*
X114002142Y-101914285D01*
X114002142Y-101914285D02*
X113859285Y-102200000D01*
X113859285Y-102200000D02*
X113716428Y-102342857D01*
X113716428Y-102342857D02*
X113430714Y-102485714D01*
X113430714Y-102485714D02*
X112859285Y-102628571D01*
X112859285Y-102628571D02*
X112145000Y-102628571D01*
X112145000Y-102628571D02*
X111573571Y-102485714D01*
X111573571Y-102485714D02*
X111287857Y-102342857D01*
X111287857Y-102342857D02*
X111145000Y-102200000D01*
X111145000Y-102200000D02*
X111002142Y-101914285D01*
X112859285Y-99628571D02*
X112859285Y-97342857D01*
X114002142Y-94342856D02*
X114002142Y-96057142D01*
X114002142Y-95199999D02*
X111002142Y-95199999D01*
X111002142Y-95199999D02*
X111430714Y-95485713D01*
X111430714Y-95485713D02*
X111716428Y-95771428D01*
X111716428Y-95771428D02*
X111859285Y-96057142D01*
X111002142Y-91628570D02*
X111002142Y-93057142D01*
X111002142Y-93057142D02*
X112430714Y-93199999D01*
X112430714Y-93199999D02*
X112287857Y-93057142D01*
X112287857Y-93057142D02*
X112145000Y-92771428D01*
X112145000Y-92771428D02*
X112145000Y-92057142D01*
X112145000Y-92057142D02*
X112287857Y-91771428D01*
X112287857Y-91771428D02*
X112430714Y-91628570D01*
X112430714Y-91628570D02*
X112716428Y-91485713D01*
X112716428Y-91485713D02*
X113430714Y-91485713D01*
X113430714Y-91485713D02*
X113716428Y-91628570D01*
X113716428Y-91628570D02*
X113859285Y-91771428D01*
X113859285Y-91771428D02*
X114002142Y-92057142D01*
X114002142Y-92057142D02*
X114002142Y-92771428D01*
X114002142Y-92771428D02*
X113859285Y-93057142D01*
X113859285Y-93057142D02*
X113716428Y-93199999D01*
X112430714Y-89199999D02*
X112430714Y-90199999D01*
X114002142Y-90199999D02*
X111002142Y-90199999D01*
X111002142Y-90199999D02*
X111002142Y-88771427D01*
X111287857Y-87771427D02*
X111145000Y-87628570D01*
X111145000Y-87628570D02*
X111002142Y-87342856D01*
X111002142Y-87342856D02*
X111002142Y-86628570D01*
X111002142Y-86628570D02*
X111145000Y-86342856D01*
X111145000Y-86342856D02*
X111287857Y-86199998D01*
X111287857Y-86199998D02*
X111573571Y-86057141D01*
X111573571Y-86057141D02*
X111859285Y-86057141D01*
X111859285Y-86057141D02*
X112287857Y-86199998D01*
X112287857Y-86199998D02*
X114002142Y-87914284D01*
X114002142Y-87914284D02*
X114002142Y-86057141D01*
X112859285Y-84771427D02*
X112859285Y-82485713D01*
X112430714Y-80057141D02*
X112573571Y-79628569D01*
X112573571Y-79628569D02*
X112716428Y-79485712D01*
X112716428Y-79485712D02*
X113002142Y-79342855D01*
X113002142Y-79342855D02*
X113430714Y-79342855D01*
X113430714Y-79342855D02*
X113716428Y-79485712D01*
X113716428Y-79485712D02*
X113859285Y-79628569D01*
X113859285Y-79628569D02*
X114002142Y-79914284D01*
X114002142Y-79914284D02*
X114002142Y-81057141D01*
X114002142Y-81057141D02*
X111002142Y-81057141D01*
X111002142Y-81057141D02*
X111002142Y-80057141D01*
X111002142Y-80057141D02*
X111145000Y-79771427D01*
X111145000Y-79771427D02*
X111287857Y-79628569D01*
X111287857Y-79628569D02*
X111573571Y-79485712D01*
X111573571Y-79485712D02*
X111859285Y-79485712D01*
X111859285Y-79485712D02*
X112145000Y-79628569D01*
X112145000Y-79628569D02*
X112287857Y-79771427D01*
X112287857Y-79771427D02*
X112430714Y-80057141D01*
X112430714Y-80057141D02*
X112430714Y-81057141D01*
X114002142Y-76485712D02*
X114002142Y-78199998D01*
X114002142Y-77342855D02*
X111002142Y-77342855D01*
X111002142Y-77342855D02*
X111430714Y-77628569D01*
X111430714Y-77628569D02*
X111716428Y-77914284D01*
X111716428Y-77914284D02*
X111859285Y-78199998D01*
X111002142Y-74628569D02*
X111002142Y-74342855D01*
X111002142Y-74342855D02*
X111145000Y-74057141D01*
X111145000Y-74057141D02*
X111287857Y-73914284D01*
X111287857Y-73914284D02*
X111573571Y-73771426D01*
X111573571Y-73771426D02*
X112145000Y-73628569D01*
X112145000Y-73628569D02*
X112859285Y-73628569D01*
X112859285Y-73628569D02*
X113430714Y-73771426D01*
X113430714Y-73771426D02*
X113716428Y-73914284D01*
X113716428Y-73914284D02*
X113859285Y-74057141D01*
X113859285Y-74057141D02*
X114002142Y-74342855D01*
X114002142Y-74342855D02*
X114002142Y-74628569D01*
X114002142Y-74628569D02*
X113859285Y-74914284D01*
X113859285Y-74914284D02*
X113716428Y-75057141D01*
X113716428Y-75057141D02*
X113430714Y-75199998D01*
X113430714Y-75199998D02*
X112859285Y-75342855D01*
X112859285Y-75342855D02*
X112145000Y-75342855D01*
X112145000Y-75342855D02*
X111573571Y-75199998D01*
X111573571Y-75199998D02*
X111287857Y-75057141D01*
X111287857Y-75057141D02*
X111145000Y-74914284D01*
X111145000Y-74914284D02*
X111002142Y-74628569D01*
X114002142Y-72342855D02*
X111002142Y-72342855D01*
X114002142Y-70628569D02*
X112287857Y-71914283D01*
X111002142Y-70628569D02*
X112716428Y-72342855D01*
X163141071Y-143988214D02*
X163522023Y-143988214D01*
X163283928Y-144654880D02*
X163283928Y-143797738D01*
X163283928Y-143797738D02*
X163331547Y-143702500D01*
X163331547Y-143702500D02*
X163426785Y-143654880D01*
X163426785Y-143654880D02*
X163522023Y-143654880D01*
X164283928Y-144654880D02*
X164283928Y-144131071D01*
X164283928Y-144131071D02*
X164236309Y-144035833D01*
X164236309Y-144035833D02*
X164141071Y-143988214D01*
X164141071Y-143988214D02*
X163950595Y-143988214D01*
X163950595Y-143988214D02*
X163855357Y-144035833D01*
X164283928Y-144607261D02*
X164188690Y-144654880D01*
X164188690Y-144654880D02*
X163950595Y-144654880D01*
X163950595Y-144654880D02*
X163855357Y-144607261D01*
X163855357Y-144607261D02*
X163807738Y-144512023D01*
X163807738Y-144512023D02*
X163807738Y-144416785D01*
X163807738Y-144416785D02*
X163855357Y-144321547D01*
X163855357Y-144321547D02*
X163950595Y-144273928D01*
X163950595Y-144273928D02*
X164188690Y-144273928D01*
X164188690Y-144273928D02*
X164283928Y-144226309D01*
X165188690Y-144654880D02*
X165188690Y-143654880D01*
X165188690Y-144607261D02*
X165093452Y-144654880D01*
X165093452Y-144654880D02*
X164902976Y-144654880D01*
X164902976Y-144654880D02*
X164807738Y-144607261D01*
X164807738Y-144607261D02*
X164760119Y-144559642D01*
X164760119Y-144559642D02*
X164712500Y-144464404D01*
X164712500Y-144464404D02*
X164712500Y-144178690D01*
X164712500Y-144178690D02*
X164760119Y-144083452D01*
X164760119Y-144083452D02*
X164807738Y-144035833D01*
X164807738Y-144035833D02*
X164902976Y-143988214D01*
X164902976Y-143988214D02*
X165093452Y-143988214D01*
X165093452Y-143988214D02*
X165188690Y-144035833D01*
X165569643Y-143654880D02*
X166188690Y-143654880D01*
X166188690Y-143654880D02*
X165855357Y-144035833D01*
X165855357Y-144035833D02*
X165998214Y-144035833D01*
X165998214Y-144035833D02*
X166093452Y-144083452D01*
X166093452Y-144083452D02*
X166141071Y-144131071D01*
X166141071Y-144131071D02*
X166188690Y-144226309D01*
X166188690Y-144226309D02*
X166188690Y-144464404D01*
X166188690Y-144464404D02*
X166141071Y-144559642D01*
X166141071Y-144559642D02*
X166093452Y-144607261D01*
X166093452Y-144607261D02*
X165998214Y-144654880D01*
X165998214Y-144654880D02*
X165712500Y-144654880D01*
X165712500Y-144654880D02*
X165617262Y-144607261D01*
X165617262Y-144607261D02*
X165569643Y-144559642D01*
X81941071Y-143688214D02*
X82322023Y-143688214D01*
X82083928Y-144354880D02*
X82083928Y-143497738D01*
X82083928Y-143497738D02*
X82131547Y-143402500D01*
X82131547Y-143402500D02*
X82226785Y-143354880D01*
X82226785Y-143354880D02*
X82322023Y-143354880D01*
X83083928Y-144354880D02*
X83083928Y-143831071D01*
X83083928Y-143831071D02*
X83036309Y-143735833D01*
X83036309Y-143735833D02*
X82941071Y-143688214D01*
X82941071Y-143688214D02*
X82750595Y-143688214D01*
X82750595Y-143688214D02*
X82655357Y-143735833D01*
X83083928Y-144307261D02*
X82988690Y-144354880D01*
X82988690Y-144354880D02*
X82750595Y-144354880D01*
X82750595Y-144354880D02*
X82655357Y-144307261D01*
X82655357Y-144307261D02*
X82607738Y-144212023D01*
X82607738Y-144212023D02*
X82607738Y-144116785D01*
X82607738Y-144116785D02*
X82655357Y-144021547D01*
X82655357Y-144021547D02*
X82750595Y-143973928D01*
X82750595Y-143973928D02*
X82988690Y-143973928D01*
X82988690Y-143973928D02*
X83083928Y-143926309D01*
X83988690Y-144354880D02*
X83988690Y-143354880D01*
X83988690Y-144307261D02*
X83893452Y-144354880D01*
X83893452Y-144354880D02*
X83702976Y-144354880D01*
X83702976Y-144354880D02*
X83607738Y-144307261D01*
X83607738Y-144307261D02*
X83560119Y-144259642D01*
X83560119Y-144259642D02*
X83512500Y-144164404D01*
X83512500Y-144164404D02*
X83512500Y-143878690D01*
X83512500Y-143878690D02*
X83560119Y-143783452D01*
X83560119Y-143783452D02*
X83607738Y-143735833D01*
X83607738Y-143735833D02*
X83702976Y-143688214D01*
X83702976Y-143688214D02*
X83893452Y-143688214D01*
X83893452Y-143688214D02*
X83988690Y-143735833D01*
X84893452Y-143688214D02*
X84893452Y-144354880D01*
X84655357Y-143307261D02*
X84417262Y-144021547D01*
X84417262Y-144021547D02*
X85036309Y-144021547D01*
X136041071Y-143988214D02*
X136422023Y-143988214D01*
X136183928Y-144654880D02*
X136183928Y-143797738D01*
X136183928Y-143797738D02*
X136231547Y-143702500D01*
X136231547Y-143702500D02*
X136326785Y-143654880D01*
X136326785Y-143654880D02*
X136422023Y-143654880D01*
X137183928Y-144654880D02*
X137183928Y-144131071D01*
X137183928Y-144131071D02*
X137136309Y-144035833D01*
X137136309Y-144035833D02*
X137041071Y-143988214D01*
X137041071Y-143988214D02*
X136850595Y-143988214D01*
X136850595Y-143988214D02*
X136755357Y-144035833D01*
X137183928Y-144607261D02*
X137088690Y-144654880D01*
X137088690Y-144654880D02*
X136850595Y-144654880D01*
X136850595Y-144654880D02*
X136755357Y-144607261D01*
X136755357Y-144607261D02*
X136707738Y-144512023D01*
X136707738Y-144512023D02*
X136707738Y-144416785D01*
X136707738Y-144416785D02*
X136755357Y-144321547D01*
X136755357Y-144321547D02*
X136850595Y-144273928D01*
X136850595Y-144273928D02*
X137088690Y-144273928D01*
X137088690Y-144273928D02*
X137183928Y-144226309D01*
X138088690Y-144654880D02*
X138088690Y-143654880D01*
X138088690Y-144607261D02*
X137993452Y-144654880D01*
X137993452Y-144654880D02*
X137802976Y-144654880D01*
X137802976Y-144654880D02*
X137707738Y-144607261D01*
X137707738Y-144607261D02*
X137660119Y-144559642D01*
X137660119Y-144559642D02*
X137612500Y-144464404D01*
X137612500Y-144464404D02*
X137612500Y-144178690D01*
X137612500Y-144178690D02*
X137660119Y-144083452D01*
X137660119Y-144083452D02*
X137707738Y-144035833D01*
X137707738Y-144035833D02*
X137802976Y-143988214D01*
X137802976Y-143988214D02*
X137993452Y-143988214D01*
X137993452Y-143988214D02*
X138088690Y-144035833D01*
X139088690Y-144654880D02*
X138517262Y-144654880D01*
X138802976Y-144654880D02*
X138802976Y-143654880D01*
X138802976Y-143654880D02*
X138707738Y-143797738D01*
X138707738Y-143797738D02*
X138612500Y-143892976D01*
X138612500Y-143892976D02*
X138517262Y-143940595D01*
X107141071Y-143800714D02*
X107522023Y-143800714D01*
X107283928Y-144467380D02*
X107283928Y-143610238D01*
X107283928Y-143610238D02*
X107331547Y-143515000D01*
X107331547Y-143515000D02*
X107426785Y-143467380D01*
X107426785Y-143467380D02*
X107522023Y-143467380D01*
X108283928Y-144467380D02*
X108283928Y-143943571D01*
X108283928Y-143943571D02*
X108236309Y-143848333D01*
X108236309Y-143848333D02*
X108141071Y-143800714D01*
X108141071Y-143800714D02*
X107950595Y-143800714D01*
X107950595Y-143800714D02*
X107855357Y-143848333D01*
X108283928Y-144419761D02*
X108188690Y-144467380D01*
X108188690Y-144467380D02*
X107950595Y-144467380D01*
X107950595Y-144467380D02*
X107855357Y-144419761D01*
X107855357Y-144419761D02*
X107807738Y-144324523D01*
X107807738Y-144324523D02*
X107807738Y-144229285D01*
X107807738Y-144229285D02*
X107855357Y-144134047D01*
X107855357Y-144134047D02*
X107950595Y-144086428D01*
X107950595Y-144086428D02*
X108188690Y-144086428D01*
X108188690Y-144086428D02*
X108283928Y-144038809D01*
X109188690Y-144467380D02*
X109188690Y-143467380D01*
X109188690Y-144419761D02*
X109093452Y-144467380D01*
X109093452Y-144467380D02*
X108902976Y-144467380D01*
X108902976Y-144467380D02*
X108807738Y-144419761D01*
X108807738Y-144419761D02*
X108760119Y-144372142D01*
X108760119Y-144372142D02*
X108712500Y-144276904D01*
X108712500Y-144276904D02*
X108712500Y-143991190D01*
X108712500Y-143991190D02*
X108760119Y-143895952D01*
X108760119Y-143895952D02*
X108807738Y-143848333D01*
X108807738Y-143848333D02*
X108902976Y-143800714D01*
X108902976Y-143800714D02*
X109093452Y-143800714D01*
X109093452Y-143800714D02*
X109188690Y-143848333D01*
X109617262Y-143562619D02*
X109664881Y-143515000D01*
X109664881Y-143515000D02*
X109760119Y-143467380D01*
X109760119Y-143467380D02*
X109998214Y-143467380D01*
X109998214Y-143467380D02*
X110093452Y-143515000D01*
X110093452Y-143515000D02*
X110141071Y-143562619D01*
X110141071Y-143562619D02*
X110188690Y-143657857D01*
X110188690Y-143657857D02*
X110188690Y-143753095D01*
X110188690Y-143753095D02*
X110141071Y-143895952D01*
X110141071Y-143895952D02*
X109569643Y-144467380D01*
X109569643Y-144467380D02*
X110188690Y-144467380D01*
X156500000Y-145000000D02*
X156500000Y-55000000D01*
X168500000Y-55000000D02*
X156500000Y-55000000D01*
X168500000Y-56000000D02*
X168500000Y-55000000D01*
X168500000Y-145000000D02*
X156500000Y-145000000D01*
X168500000Y-145000000D02*
X168500000Y-56000000D01*
X81500000Y-145000000D02*
X81500000Y-55000000D01*
X93500000Y-55000000D02*
X81500000Y-55000000D01*
X93500000Y-56000000D02*
X93500000Y-55000000D01*
X93500000Y-145000000D02*
X81500000Y-145000000D01*
X93500000Y-145000000D02*
X93500000Y-56000000D01*
X131500000Y-145000000D02*
X131500000Y-55000000D01*
X143500000Y-55000000D02*
X131500000Y-55000000D01*
X143500000Y-56000000D02*
X143500000Y-55000000D01*
X143500000Y-145000000D02*
X131500000Y-145000000D01*
X143500000Y-145000000D02*
X143500000Y-56000000D01*
X106500000Y-145000000D02*
X106500000Y-55000000D01*
X118500000Y-55000000D02*
X106500000Y-55000000D01*
X118500000Y-56000000D02*
X118500000Y-55000000D01*
X118500000Y-145000000D02*
X106500000Y-145000000D01*
X118500000Y-145000000D02*
X118500000Y-56000000D01*
D11*
X165000000Y-135000000D03*
X160000000Y-60000000D03*
X160000000Y-140000000D03*
X165000000Y-65000000D03*
X90000000Y-135000000D03*
X85000000Y-60000000D03*
X85000000Y-140000000D03*
X90000000Y-65000000D03*
X140000000Y-135000000D03*
X135000000Y-60000000D03*
X135000000Y-140000000D03*
X140000000Y-65000000D03*
X115000000Y-135000000D03*
X110000000Y-60000000D03*
X110000000Y-140000000D03*
X115000000Y-65000000D03*
%LPC*%
X165000000Y-135000000D03*
X160000000Y-60000000D03*
X160000000Y-140000000D03*
X165000000Y-65000000D03*
X90000000Y-135000000D03*
X85000000Y-60000000D03*
X85000000Y-140000000D03*
X90000000Y-65000000D03*
X140000000Y-135000000D03*
X135000000Y-60000000D03*
X135000000Y-140000000D03*
X140000000Y-65000000D03*
D12*
X100000000Y-75000000D03*
X79000000Y-146000000D03*
X150000000Y-125000000D03*
X100000000Y-125000000D03*
X171000000Y-54000000D03*
X79000000Y-54000000D03*
X150000000Y-75000000D03*
X171000000Y-146000000D03*
D11*
X115000000Y-135000000D03*
X110000000Y-60000000D03*
X110000000Y-140000000D03*
X115000000Y-65000000D03*
D13*
X126252500Y-89920000D03*
D14*
X123712500Y-89920000D03*
X126252500Y-92460000D03*
X123712500Y-92460000D03*
X126252500Y-95000000D03*
X123712500Y-95000000D03*
X126252500Y-97540000D03*
X123712500Y-97540000D03*
X126252500Y-100080000D03*
X123712500Y-100080000D03*
M02*
