%TF.GenerationSoftware,KiCad,Pcbnew,(7.0.0)*%
%TF.CreationDate,2023-05-18T23:59:09+02:00*%
%TF.ProjectId,Fad_2,4661645f-322e-46b6-9963-61645f706362,rev?*%
%TF.SameCoordinates,Original*%
%TF.FileFunction,Drillmap*%
%TF.FilePolarity,Positive*%
%FSLAX45Y45*%
G04 Gerber Fmt 4.5, Leading zero omitted, Abs format (unit mm)*
G04 Created by KiCad (PCBNEW (7.0.0)) date 2023-05-18 23:59:09*
%MOMM*%
%LPD*%
G01*
G04 APERTURE LIST*
%ADD10C,0.100000*%
%ADD11C,0.200000*%
%ADD12C,0.320000*%
G04 APERTURE END LIST*
D10*
X17500000Y-5200000D02*
X17500000Y-15000000D01*
X17300000Y-15000000D01*
X7500000Y-15000000D01*
X7500000Y-14800000D01*
X7500000Y-5200000D01*
X7500000Y-5000000D01*
X17500000Y-5000000D01*
X17500000Y-5200000D01*
D11*
D12*
X7740000Y-5240000D02*
X8060000Y-5560000D01*
X8060000Y-5240000D02*
X7740000Y-5560000D01*
X7740000Y-14440000D02*
X8060000Y-14760000D01*
X8060000Y-14440000D02*
X7740000Y-14760000D01*
X9840000Y-7340000D02*
X10160000Y-7660000D01*
X10160000Y-7340000D02*
X9840000Y-7660000D01*
X9840000Y-12340000D02*
X10160000Y-12660000D01*
X10160000Y-12340000D02*
X9840000Y-12660000D01*
X14840000Y-7340000D02*
X15160000Y-7660000D01*
X15160000Y-7340000D02*
X14840000Y-7660000D01*
X14840000Y-12340000D02*
X15160000Y-12660000D01*
X15160000Y-12340000D02*
X14840000Y-12660000D01*
X16940000Y-5240000D02*
X17260000Y-5560000D01*
X17260000Y-5240000D02*
X16940000Y-5560000D01*
X16940000Y-14440000D02*
X17260000Y-14760000D01*
X17260000Y-14440000D02*
X16940000Y-14760000D01*
D11*
X7742619Y-15298476D02*
X7742619Y-15098476D01*
X7742619Y-15098476D02*
X7790238Y-15098476D01*
X7790238Y-15098476D02*
X7818809Y-15108000D01*
X7818809Y-15108000D02*
X7837857Y-15127048D01*
X7837857Y-15127048D02*
X7847381Y-15146095D01*
X7847381Y-15146095D02*
X7856905Y-15184190D01*
X7856905Y-15184190D02*
X7856905Y-15212762D01*
X7856905Y-15212762D02*
X7847381Y-15250857D01*
X7847381Y-15250857D02*
X7837857Y-15269905D01*
X7837857Y-15269905D02*
X7818809Y-15288952D01*
X7818809Y-15288952D02*
X7790238Y-15298476D01*
X7790238Y-15298476D02*
X7742619Y-15298476D01*
X7942619Y-15298476D02*
X7942619Y-15165143D01*
X7942619Y-15203238D02*
X7952143Y-15184190D01*
X7952143Y-15184190D02*
X7961667Y-15174667D01*
X7961667Y-15174667D02*
X7980714Y-15165143D01*
X7980714Y-15165143D02*
X7999762Y-15165143D01*
X8066428Y-15298476D02*
X8066428Y-15165143D01*
X8066428Y-15098476D02*
X8056905Y-15108000D01*
X8056905Y-15108000D02*
X8066428Y-15117524D01*
X8066428Y-15117524D02*
X8075952Y-15108000D01*
X8075952Y-15108000D02*
X8066428Y-15098476D01*
X8066428Y-15098476D02*
X8066428Y-15117524D01*
X8190238Y-15298476D02*
X8171190Y-15288952D01*
X8171190Y-15288952D02*
X8161667Y-15269905D01*
X8161667Y-15269905D02*
X8161667Y-15098476D01*
X8295000Y-15298476D02*
X8275952Y-15288952D01*
X8275952Y-15288952D02*
X8266428Y-15269905D01*
X8266428Y-15269905D02*
X8266428Y-15098476D01*
X8491190Y-15298476D02*
X8491190Y-15098476D01*
X8491190Y-15098476D02*
X8557857Y-15241333D01*
X8557857Y-15241333D02*
X8624524Y-15098476D01*
X8624524Y-15098476D02*
X8624524Y-15298476D01*
X8805476Y-15298476D02*
X8805476Y-15193714D01*
X8805476Y-15193714D02*
X8795952Y-15174667D01*
X8795952Y-15174667D02*
X8776905Y-15165143D01*
X8776905Y-15165143D02*
X8738809Y-15165143D01*
X8738809Y-15165143D02*
X8719762Y-15174667D01*
X8805476Y-15288952D02*
X8786429Y-15298476D01*
X8786429Y-15298476D02*
X8738809Y-15298476D01*
X8738809Y-15298476D02*
X8719762Y-15288952D01*
X8719762Y-15288952D02*
X8710238Y-15269905D01*
X8710238Y-15269905D02*
X8710238Y-15250857D01*
X8710238Y-15250857D02*
X8719762Y-15231809D01*
X8719762Y-15231809D02*
X8738809Y-15222286D01*
X8738809Y-15222286D02*
X8786429Y-15222286D01*
X8786429Y-15222286D02*
X8805476Y-15212762D01*
X8900714Y-15165143D02*
X8900714Y-15365143D01*
X8900714Y-15174667D02*
X8919762Y-15165143D01*
X8919762Y-15165143D02*
X8957857Y-15165143D01*
X8957857Y-15165143D02*
X8976905Y-15174667D01*
X8976905Y-15174667D02*
X8986429Y-15184190D01*
X8986429Y-15184190D02*
X8995952Y-15203238D01*
X8995952Y-15203238D02*
X8995952Y-15260381D01*
X8995952Y-15260381D02*
X8986429Y-15279428D01*
X8986429Y-15279428D02*
X8976905Y-15288952D01*
X8976905Y-15288952D02*
X8957857Y-15298476D01*
X8957857Y-15298476D02*
X8919762Y-15298476D01*
X8919762Y-15298476D02*
X8900714Y-15288952D01*
X9081667Y-15279428D02*
X9091190Y-15288952D01*
X9091190Y-15288952D02*
X9081667Y-15298476D01*
X9081667Y-15298476D02*
X9072143Y-15288952D01*
X9072143Y-15288952D02*
X9081667Y-15279428D01*
X9081667Y-15279428D02*
X9081667Y-15298476D01*
X9081667Y-15174667D02*
X9091190Y-15184190D01*
X9091190Y-15184190D02*
X9081667Y-15193714D01*
X9081667Y-15193714D02*
X9072143Y-15184190D01*
X9072143Y-15184190D02*
X9081667Y-15174667D01*
X9081667Y-15174667D02*
X9081667Y-15193714D01*
X7295000Y-15545000D02*
X7495000Y-15745000D01*
X7495000Y-15545000D02*
X7295000Y-15745000D01*
X7723571Y-15518476D02*
X7847381Y-15518476D01*
X7847381Y-15518476D02*
X7780714Y-15594667D01*
X7780714Y-15594667D02*
X7809286Y-15594667D01*
X7809286Y-15594667D02*
X7828333Y-15604190D01*
X7828333Y-15604190D02*
X7837857Y-15613714D01*
X7837857Y-15613714D02*
X7847381Y-15632762D01*
X7847381Y-15632762D02*
X7847381Y-15680381D01*
X7847381Y-15680381D02*
X7837857Y-15699428D01*
X7837857Y-15699428D02*
X7828333Y-15708952D01*
X7828333Y-15708952D02*
X7809286Y-15718476D01*
X7809286Y-15718476D02*
X7752143Y-15718476D01*
X7752143Y-15718476D02*
X7733095Y-15708952D01*
X7733095Y-15708952D02*
X7723571Y-15699428D01*
X7933095Y-15699428D02*
X7942619Y-15708952D01*
X7942619Y-15708952D02*
X7933095Y-15718476D01*
X7933095Y-15718476D02*
X7923571Y-15708952D01*
X7923571Y-15708952D02*
X7933095Y-15699428D01*
X7933095Y-15699428D02*
X7933095Y-15718476D01*
X8018809Y-15537524D02*
X8028333Y-15528000D01*
X8028333Y-15528000D02*
X8047381Y-15518476D01*
X8047381Y-15518476D02*
X8095000Y-15518476D01*
X8095000Y-15518476D02*
X8114048Y-15528000D01*
X8114048Y-15528000D02*
X8123571Y-15537524D01*
X8123571Y-15537524D02*
X8133095Y-15556571D01*
X8133095Y-15556571D02*
X8133095Y-15575619D01*
X8133095Y-15575619D02*
X8123571Y-15604190D01*
X8123571Y-15604190D02*
X8009286Y-15718476D01*
X8009286Y-15718476D02*
X8133095Y-15718476D01*
X8256905Y-15518476D02*
X8275952Y-15518476D01*
X8275952Y-15518476D02*
X8295000Y-15528000D01*
X8295000Y-15528000D02*
X8304524Y-15537524D01*
X8304524Y-15537524D02*
X8314048Y-15556571D01*
X8314048Y-15556571D02*
X8323571Y-15594667D01*
X8323571Y-15594667D02*
X8323571Y-15642286D01*
X8323571Y-15642286D02*
X8314048Y-15680381D01*
X8314048Y-15680381D02*
X8304524Y-15699428D01*
X8304524Y-15699428D02*
X8295000Y-15708952D01*
X8295000Y-15708952D02*
X8275952Y-15718476D01*
X8275952Y-15718476D02*
X8256905Y-15718476D01*
X8256905Y-15718476D02*
X8237857Y-15708952D01*
X8237857Y-15708952D02*
X8228333Y-15699428D01*
X8228333Y-15699428D02*
X8218809Y-15680381D01*
X8218809Y-15680381D02*
X8209286Y-15642286D01*
X8209286Y-15642286D02*
X8209286Y-15594667D01*
X8209286Y-15594667D02*
X8218809Y-15556571D01*
X8218809Y-15556571D02*
X8228333Y-15537524D01*
X8228333Y-15537524D02*
X8237857Y-15528000D01*
X8237857Y-15528000D02*
X8256905Y-15518476D01*
X8447381Y-15518476D02*
X8466429Y-15518476D01*
X8466429Y-15518476D02*
X8485476Y-15528000D01*
X8485476Y-15528000D02*
X8495000Y-15537524D01*
X8495000Y-15537524D02*
X8504524Y-15556571D01*
X8504524Y-15556571D02*
X8514048Y-15594667D01*
X8514048Y-15594667D02*
X8514048Y-15642286D01*
X8514048Y-15642286D02*
X8504524Y-15680381D01*
X8504524Y-15680381D02*
X8495000Y-15699428D01*
X8495000Y-15699428D02*
X8485476Y-15708952D01*
X8485476Y-15708952D02*
X8466429Y-15718476D01*
X8466429Y-15718476D02*
X8447381Y-15718476D01*
X8447381Y-15718476D02*
X8428333Y-15708952D01*
X8428333Y-15708952D02*
X8418810Y-15699428D01*
X8418810Y-15699428D02*
X8409286Y-15680381D01*
X8409286Y-15680381D02*
X8399762Y-15642286D01*
X8399762Y-15642286D02*
X8399762Y-15594667D01*
X8399762Y-15594667D02*
X8409286Y-15556571D01*
X8409286Y-15556571D02*
X8418810Y-15537524D01*
X8418810Y-15537524D02*
X8428333Y-15528000D01*
X8428333Y-15528000D02*
X8447381Y-15518476D01*
X8599762Y-15718476D02*
X8599762Y-15585143D01*
X8599762Y-15604190D02*
X8609286Y-15594667D01*
X8609286Y-15594667D02*
X8628333Y-15585143D01*
X8628333Y-15585143D02*
X8656905Y-15585143D01*
X8656905Y-15585143D02*
X8675952Y-15594667D01*
X8675952Y-15594667D02*
X8685476Y-15613714D01*
X8685476Y-15613714D02*
X8685476Y-15718476D01*
X8685476Y-15613714D02*
X8695000Y-15594667D01*
X8695000Y-15594667D02*
X8714048Y-15585143D01*
X8714048Y-15585143D02*
X8742619Y-15585143D01*
X8742619Y-15585143D02*
X8761667Y-15594667D01*
X8761667Y-15594667D02*
X8771191Y-15613714D01*
X8771191Y-15613714D02*
X8771191Y-15718476D01*
X8866429Y-15718476D02*
X8866429Y-15585143D01*
X8866429Y-15604190D02*
X8875952Y-15594667D01*
X8875952Y-15594667D02*
X8895000Y-15585143D01*
X8895000Y-15585143D02*
X8923572Y-15585143D01*
X8923572Y-15585143D02*
X8942619Y-15594667D01*
X8942619Y-15594667D02*
X8952143Y-15613714D01*
X8952143Y-15613714D02*
X8952143Y-15718476D01*
X8952143Y-15613714D02*
X8961667Y-15594667D01*
X8961667Y-15594667D02*
X8980714Y-15585143D01*
X8980714Y-15585143D02*
X9009286Y-15585143D01*
X9009286Y-15585143D02*
X9028333Y-15594667D01*
X9028333Y-15594667D02*
X9037857Y-15613714D01*
X9037857Y-15613714D02*
X9037857Y-15718476D01*
X9395952Y-15508952D02*
X9224524Y-15766095D01*
X9620714Y-15518476D02*
X9639762Y-15518476D01*
X9639762Y-15518476D02*
X9658810Y-15528000D01*
X9658810Y-15528000D02*
X9668333Y-15537524D01*
X9668333Y-15537524D02*
X9677857Y-15556571D01*
X9677857Y-15556571D02*
X9687381Y-15594667D01*
X9687381Y-15594667D02*
X9687381Y-15642286D01*
X9687381Y-15642286D02*
X9677857Y-15680381D01*
X9677857Y-15680381D02*
X9668333Y-15699428D01*
X9668333Y-15699428D02*
X9658810Y-15708952D01*
X9658810Y-15708952D02*
X9639762Y-15718476D01*
X9639762Y-15718476D02*
X9620714Y-15718476D01*
X9620714Y-15718476D02*
X9601667Y-15708952D01*
X9601667Y-15708952D02*
X9592143Y-15699428D01*
X9592143Y-15699428D02*
X9582619Y-15680381D01*
X9582619Y-15680381D02*
X9573095Y-15642286D01*
X9573095Y-15642286D02*
X9573095Y-15594667D01*
X9573095Y-15594667D02*
X9582619Y-15556571D01*
X9582619Y-15556571D02*
X9592143Y-15537524D01*
X9592143Y-15537524D02*
X9601667Y-15528000D01*
X9601667Y-15528000D02*
X9620714Y-15518476D01*
X9773095Y-15699428D02*
X9782619Y-15708952D01*
X9782619Y-15708952D02*
X9773095Y-15718476D01*
X9773095Y-15718476D02*
X9763572Y-15708952D01*
X9763572Y-15708952D02*
X9773095Y-15699428D01*
X9773095Y-15699428D02*
X9773095Y-15718476D01*
X9973095Y-15718476D02*
X9858810Y-15718476D01*
X9915952Y-15718476D02*
X9915952Y-15518476D01*
X9915952Y-15518476D02*
X9896905Y-15547048D01*
X9896905Y-15547048D02*
X9877857Y-15566095D01*
X9877857Y-15566095D02*
X9858810Y-15575619D01*
X10049286Y-15537524D02*
X10058810Y-15528000D01*
X10058810Y-15528000D02*
X10077857Y-15518476D01*
X10077857Y-15518476D02*
X10125476Y-15518476D01*
X10125476Y-15518476D02*
X10144524Y-15528000D01*
X10144524Y-15528000D02*
X10154048Y-15537524D01*
X10154048Y-15537524D02*
X10163572Y-15556571D01*
X10163572Y-15556571D02*
X10163572Y-15575619D01*
X10163572Y-15575619D02*
X10154048Y-15604190D01*
X10154048Y-15604190D02*
X10039762Y-15718476D01*
X10039762Y-15718476D02*
X10163572Y-15718476D01*
X10335000Y-15518476D02*
X10296905Y-15518476D01*
X10296905Y-15518476D02*
X10277857Y-15528000D01*
X10277857Y-15528000D02*
X10268333Y-15537524D01*
X10268333Y-15537524D02*
X10249286Y-15566095D01*
X10249286Y-15566095D02*
X10239762Y-15604190D01*
X10239762Y-15604190D02*
X10239762Y-15680381D01*
X10239762Y-15680381D02*
X10249286Y-15699428D01*
X10249286Y-15699428D02*
X10258810Y-15708952D01*
X10258810Y-15708952D02*
X10277857Y-15718476D01*
X10277857Y-15718476D02*
X10315953Y-15718476D01*
X10315953Y-15718476D02*
X10335000Y-15708952D01*
X10335000Y-15708952D02*
X10344524Y-15699428D01*
X10344524Y-15699428D02*
X10354048Y-15680381D01*
X10354048Y-15680381D02*
X10354048Y-15632762D01*
X10354048Y-15632762D02*
X10344524Y-15613714D01*
X10344524Y-15613714D02*
X10335000Y-15604190D01*
X10335000Y-15604190D02*
X10315953Y-15594667D01*
X10315953Y-15594667D02*
X10277857Y-15594667D01*
X10277857Y-15594667D02*
X10258810Y-15604190D01*
X10258810Y-15604190D02*
X10249286Y-15613714D01*
X10249286Y-15613714D02*
X10239762Y-15632762D01*
X10477857Y-15518476D02*
X10496905Y-15518476D01*
X10496905Y-15518476D02*
X10515953Y-15528000D01*
X10515953Y-15528000D02*
X10525476Y-15537524D01*
X10525476Y-15537524D02*
X10535000Y-15556571D01*
X10535000Y-15556571D02*
X10544524Y-15594667D01*
X10544524Y-15594667D02*
X10544524Y-15642286D01*
X10544524Y-15642286D02*
X10535000Y-15680381D01*
X10535000Y-15680381D02*
X10525476Y-15699428D01*
X10525476Y-15699428D02*
X10515953Y-15708952D01*
X10515953Y-15708952D02*
X10496905Y-15718476D01*
X10496905Y-15718476D02*
X10477857Y-15718476D01*
X10477857Y-15718476D02*
X10458810Y-15708952D01*
X10458810Y-15708952D02*
X10449286Y-15699428D01*
X10449286Y-15699428D02*
X10439762Y-15680381D01*
X10439762Y-15680381D02*
X10430238Y-15642286D01*
X10430238Y-15642286D02*
X10430238Y-15594667D01*
X10430238Y-15594667D02*
X10439762Y-15556571D01*
X10439762Y-15556571D02*
X10449286Y-15537524D01*
X10449286Y-15537524D02*
X10458810Y-15528000D01*
X10458810Y-15528000D02*
X10477857Y-15518476D01*
X10620714Y-15518476D02*
X10620714Y-15556571D01*
X10696905Y-15518476D02*
X10696905Y-15556571D01*
X10959762Y-15794667D02*
X10950238Y-15785143D01*
X10950238Y-15785143D02*
X10931191Y-15756571D01*
X10931191Y-15756571D02*
X10921667Y-15737524D01*
X10921667Y-15737524D02*
X10912143Y-15708952D01*
X10912143Y-15708952D02*
X10902619Y-15661333D01*
X10902619Y-15661333D02*
X10902619Y-15623238D01*
X10902619Y-15623238D02*
X10912143Y-15575619D01*
X10912143Y-15575619D02*
X10921667Y-15547048D01*
X10921667Y-15547048D02*
X10931191Y-15528000D01*
X10931191Y-15528000D02*
X10950238Y-15499428D01*
X10950238Y-15499428D02*
X10959762Y-15489905D01*
X11064524Y-15604190D02*
X11045476Y-15594667D01*
X11045476Y-15594667D02*
X11035953Y-15585143D01*
X11035953Y-15585143D02*
X11026429Y-15566095D01*
X11026429Y-15566095D02*
X11026429Y-15556571D01*
X11026429Y-15556571D02*
X11035953Y-15537524D01*
X11035953Y-15537524D02*
X11045476Y-15528000D01*
X11045476Y-15528000D02*
X11064524Y-15518476D01*
X11064524Y-15518476D02*
X11102619Y-15518476D01*
X11102619Y-15518476D02*
X11121667Y-15528000D01*
X11121667Y-15528000D02*
X11131191Y-15537524D01*
X11131191Y-15537524D02*
X11140714Y-15556571D01*
X11140714Y-15556571D02*
X11140714Y-15566095D01*
X11140714Y-15566095D02*
X11131191Y-15585143D01*
X11131191Y-15585143D02*
X11121667Y-15594667D01*
X11121667Y-15594667D02*
X11102619Y-15604190D01*
X11102619Y-15604190D02*
X11064524Y-15604190D01*
X11064524Y-15604190D02*
X11045476Y-15613714D01*
X11045476Y-15613714D02*
X11035953Y-15623238D01*
X11035953Y-15623238D02*
X11026429Y-15642286D01*
X11026429Y-15642286D02*
X11026429Y-15680381D01*
X11026429Y-15680381D02*
X11035953Y-15699428D01*
X11035953Y-15699428D02*
X11045476Y-15708952D01*
X11045476Y-15708952D02*
X11064524Y-15718476D01*
X11064524Y-15718476D02*
X11102619Y-15718476D01*
X11102619Y-15718476D02*
X11121667Y-15708952D01*
X11121667Y-15708952D02*
X11131191Y-15699428D01*
X11131191Y-15699428D02*
X11140714Y-15680381D01*
X11140714Y-15680381D02*
X11140714Y-15642286D01*
X11140714Y-15642286D02*
X11131191Y-15623238D01*
X11131191Y-15623238D02*
X11121667Y-15613714D01*
X11121667Y-15613714D02*
X11102619Y-15604190D01*
X11346429Y-15718476D02*
X11346429Y-15518476D01*
X11432143Y-15718476D02*
X11432143Y-15613714D01*
X11432143Y-15613714D02*
X11422619Y-15594667D01*
X11422619Y-15594667D02*
X11403572Y-15585143D01*
X11403572Y-15585143D02*
X11375000Y-15585143D01*
X11375000Y-15585143D02*
X11355952Y-15594667D01*
X11355952Y-15594667D02*
X11346429Y-15604190D01*
X11555952Y-15718476D02*
X11536905Y-15708952D01*
X11536905Y-15708952D02*
X11527381Y-15699428D01*
X11527381Y-15699428D02*
X11517857Y-15680381D01*
X11517857Y-15680381D02*
X11517857Y-15623238D01*
X11517857Y-15623238D02*
X11527381Y-15604190D01*
X11527381Y-15604190D02*
X11536905Y-15594667D01*
X11536905Y-15594667D02*
X11555952Y-15585143D01*
X11555952Y-15585143D02*
X11584524Y-15585143D01*
X11584524Y-15585143D02*
X11603572Y-15594667D01*
X11603572Y-15594667D02*
X11613095Y-15604190D01*
X11613095Y-15604190D02*
X11622619Y-15623238D01*
X11622619Y-15623238D02*
X11622619Y-15680381D01*
X11622619Y-15680381D02*
X11613095Y-15699428D01*
X11613095Y-15699428D02*
X11603572Y-15708952D01*
X11603572Y-15708952D02*
X11584524Y-15718476D01*
X11584524Y-15718476D02*
X11555952Y-15718476D01*
X11736905Y-15718476D02*
X11717857Y-15708952D01*
X11717857Y-15708952D02*
X11708333Y-15689905D01*
X11708333Y-15689905D02*
X11708333Y-15518476D01*
X11889286Y-15708952D02*
X11870238Y-15718476D01*
X11870238Y-15718476D02*
X11832143Y-15718476D01*
X11832143Y-15718476D02*
X11813095Y-15708952D01*
X11813095Y-15708952D02*
X11803572Y-15689905D01*
X11803572Y-15689905D02*
X11803572Y-15613714D01*
X11803572Y-15613714D02*
X11813095Y-15594667D01*
X11813095Y-15594667D02*
X11832143Y-15585143D01*
X11832143Y-15585143D02*
X11870238Y-15585143D01*
X11870238Y-15585143D02*
X11889286Y-15594667D01*
X11889286Y-15594667D02*
X11898810Y-15613714D01*
X11898810Y-15613714D02*
X11898810Y-15632762D01*
X11898810Y-15632762D02*
X11803572Y-15651809D01*
X11975000Y-15708952D02*
X11994048Y-15718476D01*
X11994048Y-15718476D02*
X12032143Y-15718476D01*
X12032143Y-15718476D02*
X12051191Y-15708952D01*
X12051191Y-15708952D02*
X12060714Y-15689905D01*
X12060714Y-15689905D02*
X12060714Y-15680381D01*
X12060714Y-15680381D02*
X12051191Y-15661333D01*
X12051191Y-15661333D02*
X12032143Y-15651809D01*
X12032143Y-15651809D02*
X12003572Y-15651809D01*
X12003572Y-15651809D02*
X11984524Y-15642286D01*
X11984524Y-15642286D02*
X11975000Y-15623238D01*
X11975000Y-15623238D02*
X11975000Y-15613714D01*
X11975000Y-15613714D02*
X11984524Y-15594667D01*
X11984524Y-15594667D02*
X12003572Y-15585143D01*
X12003572Y-15585143D02*
X12032143Y-15585143D01*
X12032143Y-15585143D02*
X12051191Y-15594667D01*
X12127381Y-15794667D02*
X12136905Y-15785143D01*
X12136905Y-15785143D02*
X12155953Y-15756571D01*
X12155953Y-15756571D02*
X12165476Y-15737524D01*
X12165476Y-15737524D02*
X12175000Y-15708952D01*
X12175000Y-15708952D02*
X12184524Y-15661333D01*
X12184524Y-15661333D02*
X12184524Y-15623238D01*
X12184524Y-15623238D02*
X12175000Y-15575619D01*
X12175000Y-15575619D02*
X12165476Y-15547048D01*
X12165476Y-15547048D02*
X12155953Y-15528000D01*
X12155953Y-15528000D02*
X12136905Y-15499428D01*
X12136905Y-15499428D02*
X12127381Y-15489905D01*
X12456905Y-15794667D02*
X12447381Y-15785143D01*
X12447381Y-15785143D02*
X12428333Y-15756571D01*
X12428333Y-15756571D02*
X12418810Y-15737524D01*
X12418810Y-15737524D02*
X12409286Y-15708952D01*
X12409286Y-15708952D02*
X12399762Y-15661333D01*
X12399762Y-15661333D02*
X12399762Y-15623238D01*
X12399762Y-15623238D02*
X12409286Y-15575619D01*
X12409286Y-15575619D02*
X12418810Y-15547048D01*
X12418810Y-15547048D02*
X12428333Y-15528000D01*
X12428333Y-15528000D02*
X12447381Y-15499428D01*
X12447381Y-15499428D02*
X12456905Y-15489905D01*
X12533095Y-15585143D02*
X12533095Y-15718476D01*
X12533095Y-15604190D02*
X12542619Y-15594667D01*
X12542619Y-15594667D02*
X12561667Y-15585143D01*
X12561667Y-15585143D02*
X12590238Y-15585143D01*
X12590238Y-15585143D02*
X12609286Y-15594667D01*
X12609286Y-15594667D02*
X12618810Y-15613714D01*
X12618810Y-15613714D02*
X12618810Y-15718476D01*
X12742619Y-15718476D02*
X12723572Y-15708952D01*
X12723572Y-15708952D02*
X12714048Y-15699428D01*
X12714048Y-15699428D02*
X12704524Y-15680381D01*
X12704524Y-15680381D02*
X12704524Y-15623238D01*
X12704524Y-15623238D02*
X12714048Y-15604190D01*
X12714048Y-15604190D02*
X12723572Y-15594667D01*
X12723572Y-15594667D02*
X12742619Y-15585143D01*
X12742619Y-15585143D02*
X12771191Y-15585143D01*
X12771191Y-15585143D02*
X12790238Y-15594667D01*
X12790238Y-15594667D02*
X12799762Y-15604190D01*
X12799762Y-15604190D02*
X12809286Y-15623238D01*
X12809286Y-15623238D02*
X12809286Y-15680381D01*
X12809286Y-15680381D02*
X12799762Y-15699428D01*
X12799762Y-15699428D02*
X12790238Y-15708952D01*
X12790238Y-15708952D02*
X12771191Y-15718476D01*
X12771191Y-15718476D02*
X12742619Y-15718476D01*
X12866429Y-15585143D02*
X12942619Y-15585143D01*
X12895000Y-15518476D02*
X12895000Y-15689905D01*
X12895000Y-15689905D02*
X12904524Y-15708952D01*
X12904524Y-15708952D02*
X12923572Y-15718476D01*
X12923572Y-15718476D02*
X12942619Y-15718476D01*
X13129286Y-15585143D02*
X13129286Y-15785143D01*
X13129286Y-15594667D02*
X13148333Y-15585143D01*
X13148333Y-15585143D02*
X13186429Y-15585143D01*
X13186429Y-15585143D02*
X13205476Y-15594667D01*
X13205476Y-15594667D02*
X13215000Y-15604190D01*
X13215000Y-15604190D02*
X13224524Y-15623238D01*
X13224524Y-15623238D02*
X13224524Y-15680381D01*
X13224524Y-15680381D02*
X13215000Y-15699428D01*
X13215000Y-15699428D02*
X13205476Y-15708952D01*
X13205476Y-15708952D02*
X13186429Y-15718476D01*
X13186429Y-15718476D02*
X13148333Y-15718476D01*
X13148333Y-15718476D02*
X13129286Y-15708952D01*
X13338810Y-15718476D02*
X13319762Y-15708952D01*
X13319762Y-15708952D02*
X13310238Y-15689905D01*
X13310238Y-15689905D02*
X13310238Y-15518476D01*
X13500714Y-15718476D02*
X13500714Y-15613714D01*
X13500714Y-15613714D02*
X13491191Y-15594667D01*
X13491191Y-15594667D02*
X13472143Y-15585143D01*
X13472143Y-15585143D02*
X13434048Y-15585143D01*
X13434048Y-15585143D02*
X13415000Y-15594667D01*
X13500714Y-15708952D02*
X13481667Y-15718476D01*
X13481667Y-15718476D02*
X13434048Y-15718476D01*
X13434048Y-15718476D02*
X13415000Y-15708952D01*
X13415000Y-15708952D02*
X13405476Y-15689905D01*
X13405476Y-15689905D02*
X13405476Y-15670857D01*
X13405476Y-15670857D02*
X13415000Y-15651809D01*
X13415000Y-15651809D02*
X13434048Y-15642286D01*
X13434048Y-15642286D02*
X13481667Y-15642286D01*
X13481667Y-15642286D02*
X13500714Y-15632762D01*
X13567381Y-15585143D02*
X13643572Y-15585143D01*
X13595953Y-15518476D02*
X13595953Y-15689905D01*
X13595953Y-15689905D02*
X13605476Y-15708952D01*
X13605476Y-15708952D02*
X13624524Y-15718476D01*
X13624524Y-15718476D02*
X13643572Y-15718476D01*
X13786429Y-15708952D02*
X13767381Y-15718476D01*
X13767381Y-15718476D02*
X13729286Y-15718476D01*
X13729286Y-15718476D02*
X13710238Y-15708952D01*
X13710238Y-15708952D02*
X13700714Y-15689905D01*
X13700714Y-15689905D02*
X13700714Y-15613714D01*
X13700714Y-15613714D02*
X13710238Y-15594667D01*
X13710238Y-15594667D02*
X13729286Y-15585143D01*
X13729286Y-15585143D02*
X13767381Y-15585143D01*
X13767381Y-15585143D02*
X13786429Y-15594667D01*
X13786429Y-15594667D02*
X13795953Y-15613714D01*
X13795953Y-15613714D02*
X13795953Y-15632762D01*
X13795953Y-15632762D02*
X13700714Y-15651809D01*
X13967381Y-15718476D02*
X13967381Y-15518476D01*
X13967381Y-15708952D02*
X13948334Y-15718476D01*
X13948334Y-15718476D02*
X13910238Y-15718476D01*
X13910238Y-15718476D02*
X13891191Y-15708952D01*
X13891191Y-15708952D02*
X13881667Y-15699428D01*
X13881667Y-15699428D02*
X13872143Y-15680381D01*
X13872143Y-15680381D02*
X13872143Y-15623238D01*
X13872143Y-15623238D02*
X13881667Y-15604190D01*
X13881667Y-15604190D02*
X13891191Y-15594667D01*
X13891191Y-15594667D02*
X13910238Y-15585143D01*
X13910238Y-15585143D02*
X13948334Y-15585143D01*
X13948334Y-15585143D02*
X13967381Y-15594667D01*
X14043572Y-15794667D02*
X14053095Y-15785143D01*
X14053095Y-15785143D02*
X14072143Y-15756571D01*
X14072143Y-15756571D02*
X14081667Y-15737524D01*
X14081667Y-15737524D02*
X14091191Y-15708952D01*
X14091191Y-15708952D02*
X14100714Y-15661333D01*
X14100714Y-15661333D02*
X14100714Y-15623238D01*
X14100714Y-15623238D02*
X14091191Y-15575619D01*
X14091191Y-15575619D02*
X14081667Y-15547048D01*
X14081667Y-15547048D02*
X14072143Y-15528000D01*
X14072143Y-15528000D02*
X14053095Y-15499428D01*
X14053095Y-15499428D02*
X14043572Y-15489905D01*
M02*
