%TF.GenerationSoftware,KiCad,Pcbnew,(7.0.0)*%
%TF.CreationDate,2023-05-18T23:59:09+02:00*%
%TF.ProjectId,Fad_2,4661645f-322e-46b6-9963-61645f706362,rev?*%
%TF.SameCoordinates,Original*%
%TF.FileFunction,Drillmap*%
%TF.FilePolarity,Positive*%
%FSLAX45Y45*%
G04 Gerber Fmt 4.5, Leading zero omitted, Abs format (unit mm)*
G04 Created by KiCad (PCBNEW (7.0.0)) date 2023-05-18 23:59:09*
%MOMM*%
%LPD*%
G01*
G04 APERTURE LIST*
%ADD10C,0.100000*%
%ADD11C,0.200000*%
%ADD12C,0.250000*%
G04 APERTURE END LIST*
D10*
X17500000Y-5200000D02*
X17500000Y-15000000D01*
X17300000Y-15000000D01*
X7500000Y-15000000D01*
X7500000Y-14800000D01*
X7500000Y-5200000D01*
X7500000Y-5000000D01*
X17500000Y-5000000D01*
X17500000Y-5200000D01*
D11*
D10*
X12321250Y-8942000D02*
X12421250Y-9042000D01*
X12421250Y-8942000D02*
X12321250Y-9042000D01*
X12321250Y-9196000D02*
X12421250Y-9296000D01*
X12421250Y-9196000D02*
X12321250Y-9296000D01*
X12321250Y-9450000D02*
X12421250Y-9550000D01*
X12421250Y-9450000D02*
X12321250Y-9550000D01*
X12321250Y-9704000D02*
X12421250Y-9804000D01*
X12421250Y-9704000D02*
X12321250Y-9804000D01*
X12321250Y-9958000D02*
X12421250Y-10058000D01*
X12421250Y-9958000D02*
X12321250Y-10058000D01*
X12575250Y-8942000D02*
X12675250Y-9042000D01*
X12675250Y-8942000D02*
X12575250Y-9042000D01*
X12575250Y-9196000D02*
X12675250Y-9296000D01*
X12675250Y-9196000D02*
X12575250Y-9296000D01*
X12575250Y-9450000D02*
X12675250Y-9550000D01*
X12675250Y-9450000D02*
X12575250Y-9550000D01*
X12575250Y-9704000D02*
X12675250Y-9804000D01*
X12675250Y-9704000D02*
X12575250Y-9804000D01*
X12575250Y-9958000D02*
X12675250Y-10058000D01*
X12675250Y-9958000D02*
X12575250Y-10058000D01*
D12*
X8625000Y-6000000D02*
G75*
G03*
X8625000Y-6000000I-125000J0D01*
G01*
X8625000Y-14000000D02*
G75*
G03*
X8625000Y-14000000I-125000J0D01*
G01*
X9125000Y-6500000D02*
G75*
G03*
X9125000Y-6500000I-125000J0D01*
G01*
X9125000Y-13500000D02*
G75*
G03*
X9125000Y-13500000I-125000J0D01*
G01*
X11125000Y-6000000D02*
G75*
G03*
X11125000Y-6000000I-125000J0D01*
G01*
X11125000Y-14000000D02*
G75*
G03*
X11125000Y-14000000I-125000J0D01*
G01*
X11625000Y-6500000D02*
G75*
G03*
X11625000Y-6500000I-125000J0D01*
G01*
X11625000Y-13500000D02*
G75*
G03*
X11625000Y-13500000I-125000J0D01*
G01*
X13625000Y-6000000D02*
G75*
G03*
X13625000Y-6000000I-125000J0D01*
G01*
X13625000Y-14000000D02*
G75*
G03*
X13625000Y-14000000I-125000J0D01*
G01*
X14125000Y-6500000D02*
G75*
G03*
X14125000Y-6500000I-125000J0D01*
G01*
X14125000Y-13500000D02*
G75*
G03*
X14125000Y-13500000I-125000J0D01*
G01*
X16125000Y-6000000D02*
G75*
G03*
X16125000Y-6000000I-125000J0D01*
G01*
X16125000Y-14000000D02*
G75*
G03*
X16125000Y-14000000I-125000J0D01*
G01*
X16625000Y-6500000D02*
G75*
G03*
X16625000Y-6500000I-125000J0D01*
G01*
X16625000Y-13500000D02*
G75*
G03*
X16625000Y-13500000I-125000J0D01*
G01*
D11*
X7742619Y-15298476D02*
X7742619Y-15098476D01*
X7742619Y-15098476D02*
X7790238Y-15098476D01*
X7790238Y-15098476D02*
X7818809Y-15108000D01*
X7818809Y-15108000D02*
X7837857Y-15127048D01*
X7837857Y-15127048D02*
X7847381Y-15146095D01*
X7847381Y-15146095D02*
X7856905Y-15184190D01*
X7856905Y-15184190D02*
X7856905Y-15212762D01*
X7856905Y-15212762D02*
X7847381Y-15250857D01*
X7847381Y-15250857D02*
X7837857Y-15269905D01*
X7837857Y-15269905D02*
X7818809Y-15288952D01*
X7818809Y-15288952D02*
X7790238Y-15298476D01*
X7790238Y-15298476D02*
X7742619Y-15298476D01*
X7942619Y-15298476D02*
X7942619Y-15165143D01*
X7942619Y-15203238D02*
X7952143Y-15184190D01*
X7952143Y-15184190D02*
X7961667Y-15174667D01*
X7961667Y-15174667D02*
X7980714Y-15165143D01*
X7980714Y-15165143D02*
X7999762Y-15165143D01*
X8066428Y-15298476D02*
X8066428Y-15165143D01*
X8066428Y-15098476D02*
X8056905Y-15108000D01*
X8056905Y-15108000D02*
X8066428Y-15117524D01*
X8066428Y-15117524D02*
X8075952Y-15108000D01*
X8075952Y-15108000D02*
X8066428Y-15098476D01*
X8066428Y-15098476D02*
X8066428Y-15117524D01*
X8190238Y-15298476D02*
X8171190Y-15288952D01*
X8171190Y-15288952D02*
X8161667Y-15269905D01*
X8161667Y-15269905D02*
X8161667Y-15098476D01*
X8295000Y-15298476D02*
X8275952Y-15288952D01*
X8275952Y-15288952D02*
X8266428Y-15269905D01*
X8266428Y-15269905D02*
X8266428Y-15098476D01*
X8491190Y-15298476D02*
X8491190Y-15098476D01*
X8491190Y-15098476D02*
X8557857Y-15241333D01*
X8557857Y-15241333D02*
X8624524Y-15098476D01*
X8624524Y-15098476D02*
X8624524Y-15298476D01*
X8805476Y-15298476D02*
X8805476Y-15193714D01*
X8805476Y-15193714D02*
X8795952Y-15174667D01*
X8795952Y-15174667D02*
X8776905Y-15165143D01*
X8776905Y-15165143D02*
X8738809Y-15165143D01*
X8738809Y-15165143D02*
X8719762Y-15174667D01*
X8805476Y-15288952D02*
X8786429Y-15298476D01*
X8786429Y-15298476D02*
X8738809Y-15298476D01*
X8738809Y-15298476D02*
X8719762Y-15288952D01*
X8719762Y-15288952D02*
X8710238Y-15269905D01*
X8710238Y-15269905D02*
X8710238Y-15250857D01*
X8710238Y-15250857D02*
X8719762Y-15231809D01*
X8719762Y-15231809D02*
X8738809Y-15222286D01*
X8738809Y-15222286D02*
X8786429Y-15222286D01*
X8786429Y-15222286D02*
X8805476Y-15212762D01*
X8900714Y-15165143D02*
X8900714Y-15365143D01*
X8900714Y-15174667D02*
X8919762Y-15165143D01*
X8919762Y-15165143D02*
X8957857Y-15165143D01*
X8957857Y-15165143D02*
X8976905Y-15174667D01*
X8976905Y-15174667D02*
X8986429Y-15184190D01*
X8986429Y-15184190D02*
X8995952Y-15203238D01*
X8995952Y-15203238D02*
X8995952Y-15260381D01*
X8995952Y-15260381D02*
X8986429Y-15279428D01*
X8986429Y-15279428D02*
X8976905Y-15288952D01*
X8976905Y-15288952D02*
X8957857Y-15298476D01*
X8957857Y-15298476D02*
X8919762Y-15298476D01*
X8919762Y-15298476D02*
X8900714Y-15288952D01*
X9081667Y-15279428D02*
X9091190Y-15288952D01*
X9091190Y-15288952D02*
X9081667Y-15298476D01*
X9081667Y-15298476D02*
X9072143Y-15288952D01*
X9072143Y-15288952D02*
X9081667Y-15279428D01*
X9081667Y-15279428D02*
X9081667Y-15298476D01*
X9081667Y-15174667D02*
X9091190Y-15184190D01*
X9091190Y-15184190D02*
X9081667Y-15193714D01*
X9081667Y-15193714D02*
X9072143Y-15184190D01*
X9072143Y-15184190D02*
X9081667Y-15174667D01*
X9081667Y-15174667D02*
X9081667Y-15193714D01*
D10*
X7395000Y-15595000D02*
X7495000Y-15695000D01*
X7495000Y-15595000D02*
X7395000Y-15695000D01*
D11*
X7847381Y-15718476D02*
X7733095Y-15718476D01*
X7790238Y-15718476D02*
X7790238Y-15518476D01*
X7790238Y-15518476D02*
X7771190Y-15547048D01*
X7771190Y-15547048D02*
X7752143Y-15566095D01*
X7752143Y-15566095D02*
X7733095Y-15575619D01*
X7933095Y-15699428D02*
X7942619Y-15708952D01*
X7942619Y-15708952D02*
X7933095Y-15718476D01*
X7933095Y-15718476D02*
X7923571Y-15708952D01*
X7923571Y-15708952D02*
X7933095Y-15699428D01*
X7933095Y-15699428D02*
X7933095Y-15718476D01*
X8066428Y-15518476D02*
X8085476Y-15518476D01*
X8085476Y-15518476D02*
X8104524Y-15528000D01*
X8104524Y-15528000D02*
X8114048Y-15537524D01*
X8114048Y-15537524D02*
X8123571Y-15556571D01*
X8123571Y-15556571D02*
X8133095Y-15594667D01*
X8133095Y-15594667D02*
X8133095Y-15642286D01*
X8133095Y-15642286D02*
X8123571Y-15680381D01*
X8123571Y-15680381D02*
X8114048Y-15699428D01*
X8114048Y-15699428D02*
X8104524Y-15708952D01*
X8104524Y-15708952D02*
X8085476Y-15718476D01*
X8085476Y-15718476D02*
X8066428Y-15718476D01*
X8066428Y-15718476D02*
X8047381Y-15708952D01*
X8047381Y-15708952D02*
X8037857Y-15699428D01*
X8037857Y-15699428D02*
X8028333Y-15680381D01*
X8028333Y-15680381D02*
X8018809Y-15642286D01*
X8018809Y-15642286D02*
X8018809Y-15594667D01*
X8018809Y-15594667D02*
X8028333Y-15556571D01*
X8028333Y-15556571D02*
X8037857Y-15537524D01*
X8037857Y-15537524D02*
X8047381Y-15528000D01*
X8047381Y-15528000D02*
X8066428Y-15518476D01*
X8256905Y-15518476D02*
X8275952Y-15518476D01*
X8275952Y-15518476D02*
X8295000Y-15528000D01*
X8295000Y-15528000D02*
X8304524Y-15537524D01*
X8304524Y-15537524D02*
X8314048Y-15556571D01*
X8314048Y-15556571D02*
X8323571Y-15594667D01*
X8323571Y-15594667D02*
X8323571Y-15642286D01*
X8323571Y-15642286D02*
X8314048Y-15680381D01*
X8314048Y-15680381D02*
X8304524Y-15699428D01*
X8304524Y-15699428D02*
X8295000Y-15708952D01*
X8295000Y-15708952D02*
X8275952Y-15718476D01*
X8275952Y-15718476D02*
X8256905Y-15718476D01*
X8256905Y-15718476D02*
X8237857Y-15708952D01*
X8237857Y-15708952D02*
X8228333Y-15699428D01*
X8228333Y-15699428D02*
X8218809Y-15680381D01*
X8218809Y-15680381D02*
X8209286Y-15642286D01*
X8209286Y-15642286D02*
X8209286Y-15594667D01*
X8209286Y-15594667D02*
X8218809Y-15556571D01*
X8218809Y-15556571D02*
X8228333Y-15537524D01*
X8228333Y-15537524D02*
X8237857Y-15528000D01*
X8237857Y-15528000D02*
X8256905Y-15518476D01*
X8447381Y-15518476D02*
X8466429Y-15518476D01*
X8466429Y-15518476D02*
X8485476Y-15528000D01*
X8485476Y-15528000D02*
X8495000Y-15537524D01*
X8495000Y-15537524D02*
X8504524Y-15556571D01*
X8504524Y-15556571D02*
X8514048Y-15594667D01*
X8514048Y-15594667D02*
X8514048Y-15642286D01*
X8514048Y-15642286D02*
X8504524Y-15680381D01*
X8504524Y-15680381D02*
X8495000Y-15699428D01*
X8495000Y-15699428D02*
X8485476Y-15708952D01*
X8485476Y-15708952D02*
X8466429Y-15718476D01*
X8466429Y-15718476D02*
X8447381Y-15718476D01*
X8447381Y-15718476D02*
X8428333Y-15708952D01*
X8428333Y-15708952D02*
X8418810Y-15699428D01*
X8418810Y-15699428D02*
X8409286Y-15680381D01*
X8409286Y-15680381D02*
X8399762Y-15642286D01*
X8399762Y-15642286D02*
X8399762Y-15594667D01*
X8399762Y-15594667D02*
X8409286Y-15556571D01*
X8409286Y-15556571D02*
X8418810Y-15537524D01*
X8418810Y-15537524D02*
X8428333Y-15528000D01*
X8428333Y-15528000D02*
X8447381Y-15518476D01*
X8599762Y-15718476D02*
X8599762Y-15585143D01*
X8599762Y-15604190D02*
X8609286Y-15594667D01*
X8609286Y-15594667D02*
X8628333Y-15585143D01*
X8628333Y-15585143D02*
X8656905Y-15585143D01*
X8656905Y-15585143D02*
X8675952Y-15594667D01*
X8675952Y-15594667D02*
X8685476Y-15613714D01*
X8685476Y-15613714D02*
X8685476Y-15718476D01*
X8685476Y-15613714D02*
X8695000Y-15594667D01*
X8695000Y-15594667D02*
X8714048Y-15585143D01*
X8714048Y-15585143D02*
X8742619Y-15585143D01*
X8742619Y-15585143D02*
X8761667Y-15594667D01*
X8761667Y-15594667D02*
X8771191Y-15613714D01*
X8771191Y-15613714D02*
X8771191Y-15718476D01*
X8866429Y-15718476D02*
X8866429Y-15585143D01*
X8866429Y-15604190D02*
X8875952Y-15594667D01*
X8875952Y-15594667D02*
X8895000Y-15585143D01*
X8895000Y-15585143D02*
X8923572Y-15585143D01*
X8923572Y-15585143D02*
X8942619Y-15594667D01*
X8942619Y-15594667D02*
X8952143Y-15613714D01*
X8952143Y-15613714D02*
X8952143Y-15718476D01*
X8952143Y-15613714D02*
X8961667Y-15594667D01*
X8961667Y-15594667D02*
X8980714Y-15585143D01*
X8980714Y-15585143D02*
X9009286Y-15585143D01*
X9009286Y-15585143D02*
X9028333Y-15594667D01*
X9028333Y-15594667D02*
X9037857Y-15613714D01*
X9037857Y-15613714D02*
X9037857Y-15718476D01*
X9395952Y-15508952D02*
X9224524Y-15766095D01*
X9620714Y-15518476D02*
X9639762Y-15518476D01*
X9639762Y-15518476D02*
X9658810Y-15528000D01*
X9658810Y-15528000D02*
X9668333Y-15537524D01*
X9668333Y-15537524D02*
X9677857Y-15556571D01*
X9677857Y-15556571D02*
X9687381Y-15594667D01*
X9687381Y-15594667D02*
X9687381Y-15642286D01*
X9687381Y-15642286D02*
X9677857Y-15680381D01*
X9677857Y-15680381D02*
X9668333Y-15699428D01*
X9668333Y-15699428D02*
X9658810Y-15708952D01*
X9658810Y-15708952D02*
X9639762Y-15718476D01*
X9639762Y-15718476D02*
X9620714Y-15718476D01*
X9620714Y-15718476D02*
X9601667Y-15708952D01*
X9601667Y-15708952D02*
X9592143Y-15699428D01*
X9592143Y-15699428D02*
X9582619Y-15680381D01*
X9582619Y-15680381D02*
X9573095Y-15642286D01*
X9573095Y-15642286D02*
X9573095Y-15594667D01*
X9573095Y-15594667D02*
X9582619Y-15556571D01*
X9582619Y-15556571D02*
X9592143Y-15537524D01*
X9592143Y-15537524D02*
X9601667Y-15528000D01*
X9601667Y-15528000D02*
X9620714Y-15518476D01*
X9773095Y-15699428D02*
X9782619Y-15708952D01*
X9782619Y-15708952D02*
X9773095Y-15718476D01*
X9773095Y-15718476D02*
X9763572Y-15708952D01*
X9763572Y-15708952D02*
X9773095Y-15699428D01*
X9773095Y-15699428D02*
X9773095Y-15718476D01*
X9906429Y-15518476D02*
X9925476Y-15518476D01*
X9925476Y-15518476D02*
X9944524Y-15528000D01*
X9944524Y-15528000D02*
X9954048Y-15537524D01*
X9954048Y-15537524D02*
X9963572Y-15556571D01*
X9963572Y-15556571D02*
X9973095Y-15594667D01*
X9973095Y-15594667D02*
X9973095Y-15642286D01*
X9973095Y-15642286D02*
X9963572Y-15680381D01*
X9963572Y-15680381D02*
X9954048Y-15699428D01*
X9954048Y-15699428D02*
X9944524Y-15708952D01*
X9944524Y-15708952D02*
X9925476Y-15718476D01*
X9925476Y-15718476D02*
X9906429Y-15718476D01*
X9906429Y-15718476D02*
X9887381Y-15708952D01*
X9887381Y-15708952D02*
X9877857Y-15699428D01*
X9877857Y-15699428D02*
X9868333Y-15680381D01*
X9868333Y-15680381D02*
X9858810Y-15642286D01*
X9858810Y-15642286D02*
X9858810Y-15594667D01*
X9858810Y-15594667D02*
X9868333Y-15556571D01*
X9868333Y-15556571D02*
X9877857Y-15537524D01*
X9877857Y-15537524D02*
X9887381Y-15528000D01*
X9887381Y-15528000D02*
X9906429Y-15518476D01*
X10039762Y-15518476D02*
X10163572Y-15518476D01*
X10163572Y-15518476D02*
X10096905Y-15594667D01*
X10096905Y-15594667D02*
X10125476Y-15594667D01*
X10125476Y-15594667D02*
X10144524Y-15604190D01*
X10144524Y-15604190D02*
X10154048Y-15613714D01*
X10154048Y-15613714D02*
X10163572Y-15632762D01*
X10163572Y-15632762D02*
X10163572Y-15680381D01*
X10163572Y-15680381D02*
X10154048Y-15699428D01*
X10154048Y-15699428D02*
X10144524Y-15708952D01*
X10144524Y-15708952D02*
X10125476Y-15718476D01*
X10125476Y-15718476D02*
X10068333Y-15718476D01*
X10068333Y-15718476D02*
X10049286Y-15708952D01*
X10049286Y-15708952D02*
X10039762Y-15699428D01*
X10258810Y-15718476D02*
X10296905Y-15718476D01*
X10296905Y-15718476D02*
X10315953Y-15708952D01*
X10315953Y-15708952D02*
X10325476Y-15699428D01*
X10325476Y-15699428D02*
X10344524Y-15670857D01*
X10344524Y-15670857D02*
X10354048Y-15632762D01*
X10354048Y-15632762D02*
X10354048Y-15556571D01*
X10354048Y-15556571D02*
X10344524Y-15537524D01*
X10344524Y-15537524D02*
X10335000Y-15528000D01*
X10335000Y-15528000D02*
X10315953Y-15518476D01*
X10315953Y-15518476D02*
X10277857Y-15518476D01*
X10277857Y-15518476D02*
X10258810Y-15528000D01*
X10258810Y-15528000D02*
X10249286Y-15537524D01*
X10249286Y-15537524D02*
X10239762Y-15556571D01*
X10239762Y-15556571D02*
X10239762Y-15604190D01*
X10239762Y-15604190D02*
X10249286Y-15623238D01*
X10249286Y-15623238D02*
X10258810Y-15632762D01*
X10258810Y-15632762D02*
X10277857Y-15642286D01*
X10277857Y-15642286D02*
X10315953Y-15642286D01*
X10315953Y-15642286D02*
X10335000Y-15632762D01*
X10335000Y-15632762D02*
X10344524Y-15623238D01*
X10344524Y-15623238D02*
X10354048Y-15604190D01*
X10525476Y-15585143D02*
X10525476Y-15718476D01*
X10477857Y-15508952D02*
X10430238Y-15651809D01*
X10430238Y-15651809D02*
X10554048Y-15651809D01*
X10620714Y-15518476D02*
X10620714Y-15556571D01*
X10696905Y-15518476D02*
X10696905Y-15556571D01*
X10959762Y-15794667D02*
X10950238Y-15785143D01*
X10950238Y-15785143D02*
X10931191Y-15756571D01*
X10931191Y-15756571D02*
X10921667Y-15737524D01*
X10921667Y-15737524D02*
X10912143Y-15708952D01*
X10912143Y-15708952D02*
X10902619Y-15661333D01*
X10902619Y-15661333D02*
X10902619Y-15623238D01*
X10902619Y-15623238D02*
X10912143Y-15575619D01*
X10912143Y-15575619D02*
X10921667Y-15547048D01*
X10921667Y-15547048D02*
X10931191Y-15528000D01*
X10931191Y-15528000D02*
X10950238Y-15499428D01*
X10950238Y-15499428D02*
X10959762Y-15489905D01*
X11140714Y-15718476D02*
X11026429Y-15718476D01*
X11083572Y-15718476D02*
X11083572Y-15518476D01*
X11083572Y-15518476D02*
X11064524Y-15547048D01*
X11064524Y-15547048D02*
X11045476Y-15566095D01*
X11045476Y-15566095D02*
X11026429Y-15575619D01*
X11264524Y-15518476D02*
X11283572Y-15518476D01*
X11283572Y-15518476D02*
X11302619Y-15528000D01*
X11302619Y-15528000D02*
X11312143Y-15537524D01*
X11312143Y-15537524D02*
X11321667Y-15556571D01*
X11321667Y-15556571D02*
X11331191Y-15594667D01*
X11331191Y-15594667D02*
X11331191Y-15642286D01*
X11331191Y-15642286D02*
X11321667Y-15680381D01*
X11321667Y-15680381D02*
X11312143Y-15699428D01*
X11312143Y-15699428D02*
X11302619Y-15708952D01*
X11302619Y-15708952D02*
X11283572Y-15718476D01*
X11283572Y-15718476D02*
X11264524Y-15718476D01*
X11264524Y-15718476D02*
X11245476Y-15708952D01*
X11245476Y-15708952D02*
X11235952Y-15699428D01*
X11235952Y-15699428D02*
X11226429Y-15680381D01*
X11226429Y-15680381D02*
X11216905Y-15642286D01*
X11216905Y-15642286D02*
X11216905Y-15594667D01*
X11216905Y-15594667D02*
X11226429Y-15556571D01*
X11226429Y-15556571D02*
X11235952Y-15537524D01*
X11235952Y-15537524D02*
X11245476Y-15528000D01*
X11245476Y-15528000D02*
X11264524Y-15518476D01*
X11536905Y-15718476D02*
X11536905Y-15518476D01*
X11622619Y-15718476D02*
X11622619Y-15613714D01*
X11622619Y-15613714D02*
X11613095Y-15594667D01*
X11613095Y-15594667D02*
X11594048Y-15585143D01*
X11594048Y-15585143D02*
X11565476Y-15585143D01*
X11565476Y-15585143D02*
X11546429Y-15594667D01*
X11546429Y-15594667D02*
X11536905Y-15604190D01*
X11746429Y-15718476D02*
X11727381Y-15708952D01*
X11727381Y-15708952D02*
X11717857Y-15699428D01*
X11717857Y-15699428D02*
X11708333Y-15680381D01*
X11708333Y-15680381D02*
X11708333Y-15623238D01*
X11708333Y-15623238D02*
X11717857Y-15604190D01*
X11717857Y-15604190D02*
X11727381Y-15594667D01*
X11727381Y-15594667D02*
X11746429Y-15585143D01*
X11746429Y-15585143D02*
X11775000Y-15585143D01*
X11775000Y-15585143D02*
X11794048Y-15594667D01*
X11794048Y-15594667D02*
X11803572Y-15604190D01*
X11803572Y-15604190D02*
X11813095Y-15623238D01*
X11813095Y-15623238D02*
X11813095Y-15680381D01*
X11813095Y-15680381D02*
X11803572Y-15699428D01*
X11803572Y-15699428D02*
X11794048Y-15708952D01*
X11794048Y-15708952D02*
X11775000Y-15718476D01*
X11775000Y-15718476D02*
X11746429Y-15718476D01*
X11927381Y-15718476D02*
X11908333Y-15708952D01*
X11908333Y-15708952D02*
X11898810Y-15689905D01*
X11898810Y-15689905D02*
X11898810Y-15518476D01*
X12079762Y-15708952D02*
X12060714Y-15718476D01*
X12060714Y-15718476D02*
X12022619Y-15718476D01*
X12022619Y-15718476D02*
X12003572Y-15708952D01*
X12003572Y-15708952D02*
X11994048Y-15689905D01*
X11994048Y-15689905D02*
X11994048Y-15613714D01*
X11994048Y-15613714D02*
X12003572Y-15594667D01*
X12003572Y-15594667D02*
X12022619Y-15585143D01*
X12022619Y-15585143D02*
X12060714Y-15585143D01*
X12060714Y-15585143D02*
X12079762Y-15594667D01*
X12079762Y-15594667D02*
X12089286Y-15613714D01*
X12089286Y-15613714D02*
X12089286Y-15632762D01*
X12089286Y-15632762D02*
X11994048Y-15651809D01*
X12165476Y-15708952D02*
X12184524Y-15718476D01*
X12184524Y-15718476D02*
X12222619Y-15718476D01*
X12222619Y-15718476D02*
X12241667Y-15708952D01*
X12241667Y-15708952D02*
X12251191Y-15689905D01*
X12251191Y-15689905D02*
X12251191Y-15680381D01*
X12251191Y-15680381D02*
X12241667Y-15661333D01*
X12241667Y-15661333D02*
X12222619Y-15651809D01*
X12222619Y-15651809D02*
X12194048Y-15651809D01*
X12194048Y-15651809D02*
X12175000Y-15642286D01*
X12175000Y-15642286D02*
X12165476Y-15623238D01*
X12165476Y-15623238D02*
X12165476Y-15613714D01*
X12165476Y-15613714D02*
X12175000Y-15594667D01*
X12175000Y-15594667D02*
X12194048Y-15585143D01*
X12194048Y-15585143D02*
X12222619Y-15585143D01*
X12222619Y-15585143D02*
X12241667Y-15594667D01*
X12317857Y-15794667D02*
X12327381Y-15785143D01*
X12327381Y-15785143D02*
X12346429Y-15756571D01*
X12346429Y-15756571D02*
X12355953Y-15737524D01*
X12355953Y-15737524D02*
X12365476Y-15708952D01*
X12365476Y-15708952D02*
X12375000Y-15661333D01*
X12375000Y-15661333D02*
X12375000Y-15623238D01*
X12375000Y-15623238D02*
X12365476Y-15575619D01*
X12365476Y-15575619D02*
X12355953Y-15547048D01*
X12355953Y-15547048D02*
X12346429Y-15528000D01*
X12346429Y-15528000D02*
X12327381Y-15499428D01*
X12327381Y-15499428D02*
X12317857Y-15489905D01*
X7495000Y-15909000D02*
G75*
G03*
X7495000Y-15909000I-100000J0D01*
G01*
X7733095Y-15801524D02*
X7742619Y-15792000D01*
X7742619Y-15792000D02*
X7761667Y-15782476D01*
X7761667Y-15782476D02*
X7809286Y-15782476D01*
X7809286Y-15782476D02*
X7828333Y-15792000D01*
X7828333Y-15792000D02*
X7837857Y-15801524D01*
X7837857Y-15801524D02*
X7847381Y-15820571D01*
X7847381Y-15820571D02*
X7847381Y-15839619D01*
X7847381Y-15839619D02*
X7837857Y-15868190D01*
X7837857Y-15868190D02*
X7723571Y-15982476D01*
X7723571Y-15982476D02*
X7847381Y-15982476D01*
X7933095Y-15963428D02*
X7942619Y-15972952D01*
X7942619Y-15972952D02*
X7933095Y-15982476D01*
X7933095Y-15982476D02*
X7923571Y-15972952D01*
X7923571Y-15972952D02*
X7933095Y-15963428D01*
X7933095Y-15963428D02*
X7933095Y-15982476D01*
X8123571Y-15782476D02*
X8028333Y-15782476D01*
X8028333Y-15782476D02*
X8018809Y-15877714D01*
X8018809Y-15877714D02*
X8028333Y-15868190D01*
X8028333Y-15868190D02*
X8047381Y-15858667D01*
X8047381Y-15858667D02*
X8095000Y-15858667D01*
X8095000Y-15858667D02*
X8114048Y-15868190D01*
X8114048Y-15868190D02*
X8123571Y-15877714D01*
X8123571Y-15877714D02*
X8133095Y-15896762D01*
X8133095Y-15896762D02*
X8133095Y-15944381D01*
X8133095Y-15944381D02*
X8123571Y-15963428D01*
X8123571Y-15963428D02*
X8114048Y-15972952D01*
X8114048Y-15972952D02*
X8095000Y-15982476D01*
X8095000Y-15982476D02*
X8047381Y-15982476D01*
X8047381Y-15982476D02*
X8028333Y-15972952D01*
X8028333Y-15972952D02*
X8018809Y-15963428D01*
X8256905Y-15782476D02*
X8275952Y-15782476D01*
X8275952Y-15782476D02*
X8295000Y-15792000D01*
X8295000Y-15792000D02*
X8304524Y-15801524D01*
X8304524Y-15801524D02*
X8314048Y-15820571D01*
X8314048Y-15820571D02*
X8323571Y-15858667D01*
X8323571Y-15858667D02*
X8323571Y-15906286D01*
X8323571Y-15906286D02*
X8314048Y-15944381D01*
X8314048Y-15944381D02*
X8304524Y-15963428D01*
X8304524Y-15963428D02*
X8295000Y-15972952D01*
X8295000Y-15972952D02*
X8275952Y-15982476D01*
X8275952Y-15982476D02*
X8256905Y-15982476D01*
X8256905Y-15982476D02*
X8237857Y-15972952D01*
X8237857Y-15972952D02*
X8228333Y-15963428D01*
X8228333Y-15963428D02*
X8218809Y-15944381D01*
X8218809Y-15944381D02*
X8209286Y-15906286D01*
X8209286Y-15906286D02*
X8209286Y-15858667D01*
X8209286Y-15858667D02*
X8218809Y-15820571D01*
X8218809Y-15820571D02*
X8228333Y-15801524D01*
X8228333Y-15801524D02*
X8237857Y-15792000D01*
X8237857Y-15792000D02*
X8256905Y-15782476D01*
X8447381Y-15782476D02*
X8466429Y-15782476D01*
X8466429Y-15782476D02*
X8485476Y-15792000D01*
X8485476Y-15792000D02*
X8495000Y-15801524D01*
X8495000Y-15801524D02*
X8504524Y-15820571D01*
X8504524Y-15820571D02*
X8514048Y-15858667D01*
X8514048Y-15858667D02*
X8514048Y-15906286D01*
X8514048Y-15906286D02*
X8504524Y-15944381D01*
X8504524Y-15944381D02*
X8495000Y-15963428D01*
X8495000Y-15963428D02*
X8485476Y-15972952D01*
X8485476Y-15972952D02*
X8466429Y-15982476D01*
X8466429Y-15982476D02*
X8447381Y-15982476D01*
X8447381Y-15982476D02*
X8428333Y-15972952D01*
X8428333Y-15972952D02*
X8418810Y-15963428D01*
X8418810Y-15963428D02*
X8409286Y-15944381D01*
X8409286Y-15944381D02*
X8399762Y-15906286D01*
X8399762Y-15906286D02*
X8399762Y-15858667D01*
X8399762Y-15858667D02*
X8409286Y-15820571D01*
X8409286Y-15820571D02*
X8418810Y-15801524D01*
X8418810Y-15801524D02*
X8428333Y-15792000D01*
X8428333Y-15792000D02*
X8447381Y-15782476D01*
X8599762Y-15982476D02*
X8599762Y-15849143D01*
X8599762Y-15868190D02*
X8609286Y-15858667D01*
X8609286Y-15858667D02*
X8628333Y-15849143D01*
X8628333Y-15849143D02*
X8656905Y-15849143D01*
X8656905Y-15849143D02*
X8675952Y-15858667D01*
X8675952Y-15858667D02*
X8685476Y-15877714D01*
X8685476Y-15877714D02*
X8685476Y-15982476D01*
X8685476Y-15877714D02*
X8695000Y-15858667D01*
X8695000Y-15858667D02*
X8714048Y-15849143D01*
X8714048Y-15849143D02*
X8742619Y-15849143D01*
X8742619Y-15849143D02*
X8761667Y-15858667D01*
X8761667Y-15858667D02*
X8771191Y-15877714D01*
X8771191Y-15877714D02*
X8771191Y-15982476D01*
X8866429Y-15982476D02*
X8866429Y-15849143D01*
X8866429Y-15868190D02*
X8875952Y-15858667D01*
X8875952Y-15858667D02*
X8895000Y-15849143D01*
X8895000Y-15849143D02*
X8923572Y-15849143D01*
X8923572Y-15849143D02*
X8942619Y-15858667D01*
X8942619Y-15858667D02*
X8952143Y-15877714D01*
X8952143Y-15877714D02*
X8952143Y-15982476D01*
X8952143Y-15877714D02*
X8961667Y-15858667D01*
X8961667Y-15858667D02*
X8980714Y-15849143D01*
X8980714Y-15849143D02*
X9009286Y-15849143D01*
X9009286Y-15849143D02*
X9028333Y-15858667D01*
X9028333Y-15858667D02*
X9037857Y-15877714D01*
X9037857Y-15877714D02*
X9037857Y-15982476D01*
X9395952Y-15772952D02*
X9224524Y-16030095D01*
X9620714Y-15782476D02*
X9639762Y-15782476D01*
X9639762Y-15782476D02*
X9658810Y-15792000D01*
X9658810Y-15792000D02*
X9668333Y-15801524D01*
X9668333Y-15801524D02*
X9677857Y-15820571D01*
X9677857Y-15820571D02*
X9687381Y-15858667D01*
X9687381Y-15858667D02*
X9687381Y-15906286D01*
X9687381Y-15906286D02*
X9677857Y-15944381D01*
X9677857Y-15944381D02*
X9668333Y-15963428D01*
X9668333Y-15963428D02*
X9658810Y-15972952D01*
X9658810Y-15972952D02*
X9639762Y-15982476D01*
X9639762Y-15982476D02*
X9620714Y-15982476D01*
X9620714Y-15982476D02*
X9601667Y-15972952D01*
X9601667Y-15972952D02*
X9592143Y-15963428D01*
X9592143Y-15963428D02*
X9582619Y-15944381D01*
X9582619Y-15944381D02*
X9573095Y-15906286D01*
X9573095Y-15906286D02*
X9573095Y-15858667D01*
X9573095Y-15858667D02*
X9582619Y-15820571D01*
X9582619Y-15820571D02*
X9592143Y-15801524D01*
X9592143Y-15801524D02*
X9601667Y-15792000D01*
X9601667Y-15792000D02*
X9620714Y-15782476D01*
X9773095Y-15963428D02*
X9782619Y-15972952D01*
X9782619Y-15972952D02*
X9773095Y-15982476D01*
X9773095Y-15982476D02*
X9763572Y-15972952D01*
X9763572Y-15972952D02*
X9773095Y-15963428D01*
X9773095Y-15963428D02*
X9773095Y-15982476D01*
X9906429Y-15782476D02*
X9925476Y-15782476D01*
X9925476Y-15782476D02*
X9944524Y-15792000D01*
X9944524Y-15792000D02*
X9954048Y-15801524D01*
X9954048Y-15801524D02*
X9963572Y-15820571D01*
X9963572Y-15820571D02*
X9973095Y-15858667D01*
X9973095Y-15858667D02*
X9973095Y-15906286D01*
X9973095Y-15906286D02*
X9963572Y-15944381D01*
X9963572Y-15944381D02*
X9954048Y-15963428D01*
X9954048Y-15963428D02*
X9944524Y-15972952D01*
X9944524Y-15972952D02*
X9925476Y-15982476D01*
X9925476Y-15982476D02*
X9906429Y-15982476D01*
X9906429Y-15982476D02*
X9887381Y-15972952D01*
X9887381Y-15972952D02*
X9877857Y-15963428D01*
X9877857Y-15963428D02*
X9868333Y-15944381D01*
X9868333Y-15944381D02*
X9858810Y-15906286D01*
X9858810Y-15906286D02*
X9858810Y-15858667D01*
X9858810Y-15858667D02*
X9868333Y-15820571D01*
X9868333Y-15820571D02*
X9877857Y-15801524D01*
X9877857Y-15801524D02*
X9887381Y-15792000D01*
X9887381Y-15792000D02*
X9906429Y-15782476D01*
X10068333Y-15982476D02*
X10106429Y-15982476D01*
X10106429Y-15982476D02*
X10125476Y-15972952D01*
X10125476Y-15972952D02*
X10135000Y-15963428D01*
X10135000Y-15963428D02*
X10154048Y-15934857D01*
X10154048Y-15934857D02*
X10163572Y-15896762D01*
X10163572Y-15896762D02*
X10163572Y-15820571D01*
X10163572Y-15820571D02*
X10154048Y-15801524D01*
X10154048Y-15801524D02*
X10144524Y-15792000D01*
X10144524Y-15792000D02*
X10125476Y-15782476D01*
X10125476Y-15782476D02*
X10087381Y-15782476D01*
X10087381Y-15782476D02*
X10068333Y-15792000D01*
X10068333Y-15792000D02*
X10058810Y-15801524D01*
X10058810Y-15801524D02*
X10049286Y-15820571D01*
X10049286Y-15820571D02*
X10049286Y-15868190D01*
X10049286Y-15868190D02*
X10058810Y-15887238D01*
X10058810Y-15887238D02*
X10068333Y-15896762D01*
X10068333Y-15896762D02*
X10087381Y-15906286D01*
X10087381Y-15906286D02*
X10125476Y-15906286D01*
X10125476Y-15906286D02*
X10144524Y-15896762D01*
X10144524Y-15896762D02*
X10154048Y-15887238D01*
X10154048Y-15887238D02*
X10163572Y-15868190D01*
X10277857Y-15868190D02*
X10258810Y-15858667D01*
X10258810Y-15858667D02*
X10249286Y-15849143D01*
X10249286Y-15849143D02*
X10239762Y-15830095D01*
X10239762Y-15830095D02*
X10239762Y-15820571D01*
X10239762Y-15820571D02*
X10249286Y-15801524D01*
X10249286Y-15801524D02*
X10258810Y-15792000D01*
X10258810Y-15792000D02*
X10277857Y-15782476D01*
X10277857Y-15782476D02*
X10315953Y-15782476D01*
X10315953Y-15782476D02*
X10335000Y-15792000D01*
X10335000Y-15792000D02*
X10344524Y-15801524D01*
X10344524Y-15801524D02*
X10354048Y-15820571D01*
X10354048Y-15820571D02*
X10354048Y-15830095D01*
X10354048Y-15830095D02*
X10344524Y-15849143D01*
X10344524Y-15849143D02*
X10335000Y-15858667D01*
X10335000Y-15858667D02*
X10315953Y-15868190D01*
X10315953Y-15868190D02*
X10277857Y-15868190D01*
X10277857Y-15868190D02*
X10258810Y-15877714D01*
X10258810Y-15877714D02*
X10249286Y-15887238D01*
X10249286Y-15887238D02*
X10239762Y-15906286D01*
X10239762Y-15906286D02*
X10239762Y-15944381D01*
X10239762Y-15944381D02*
X10249286Y-15963428D01*
X10249286Y-15963428D02*
X10258810Y-15972952D01*
X10258810Y-15972952D02*
X10277857Y-15982476D01*
X10277857Y-15982476D02*
X10315953Y-15982476D01*
X10315953Y-15982476D02*
X10335000Y-15972952D01*
X10335000Y-15972952D02*
X10344524Y-15963428D01*
X10344524Y-15963428D02*
X10354048Y-15944381D01*
X10354048Y-15944381D02*
X10354048Y-15906286D01*
X10354048Y-15906286D02*
X10344524Y-15887238D01*
X10344524Y-15887238D02*
X10335000Y-15877714D01*
X10335000Y-15877714D02*
X10315953Y-15868190D01*
X10525476Y-15849143D02*
X10525476Y-15982476D01*
X10477857Y-15772952D02*
X10430238Y-15915809D01*
X10430238Y-15915809D02*
X10554048Y-15915809D01*
X10620714Y-15782476D02*
X10620714Y-15820571D01*
X10696905Y-15782476D02*
X10696905Y-15820571D01*
X10959762Y-16058667D02*
X10950238Y-16049143D01*
X10950238Y-16049143D02*
X10931191Y-16020571D01*
X10931191Y-16020571D02*
X10921667Y-16001524D01*
X10921667Y-16001524D02*
X10912143Y-15972952D01*
X10912143Y-15972952D02*
X10902619Y-15925333D01*
X10902619Y-15925333D02*
X10902619Y-15887238D01*
X10902619Y-15887238D02*
X10912143Y-15839619D01*
X10912143Y-15839619D02*
X10921667Y-15811048D01*
X10921667Y-15811048D02*
X10931191Y-15792000D01*
X10931191Y-15792000D02*
X10950238Y-15763428D01*
X10950238Y-15763428D02*
X10959762Y-15753905D01*
X11140714Y-15982476D02*
X11026429Y-15982476D01*
X11083572Y-15982476D02*
X11083572Y-15782476D01*
X11083572Y-15782476D02*
X11064524Y-15811048D01*
X11064524Y-15811048D02*
X11045476Y-15830095D01*
X11045476Y-15830095D02*
X11026429Y-15839619D01*
X11312143Y-15782476D02*
X11274048Y-15782476D01*
X11274048Y-15782476D02*
X11255000Y-15792000D01*
X11255000Y-15792000D02*
X11245476Y-15801524D01*
X11245476Y-15801524D02*
X11226429Y-15830095D01*
X11226429Y-15830095D02*
X11216905Y-15868190D01*
X11216905Y-15868190D02*
X11216905Y-15944381D01*
X11216905Y-15944381D02*
X11226429Y-15963428D01*
X11226429Y-15963428D02*
X11235952Y-15972952D01*
X11235952Y-15972952D02*
X11255000Y-15982476D01*
X11255000Y-15982476D02*
X11293095Y-15982476D01*
X11293095Y-15982476D02*
X11312143Y-15972952D01*
X11312143Y-15972952D02*
X11321667Y-15963428D01*
X11321667Y-15963428D02*
X11331191Y-15944381D01*
X11331191Y-15944381D02*
X11331191Y-15896762D01*
X11331191Y-15896762D02*
X11321667Y-15877714D01*
X11321667Y-15877714D02*
X11312143Y-15868190D01*
X11312143Y-15868190D02*
X11293095Y-15858667D01*
X11293095Y-15858667D02*
X11255000Y-15858667D01*
X11255000Y-15858667D02*
X11235952Y-15868190D01*
X11235952Y-15868190D02*
X11226429Y-15877714D01*
X11226429Y-15877714D02*
X11216905Y-15896762D01*
X11536905Y-15982476D02*
X11536905Y-15782476D01*
X11622619Y-15982476D02*
X11622619Y-15877714D01*
X11622619Y-15877714D02*
X11613095Y-15858667D01*
X11613095Y-15858667D02*
X11594048Y-15849143D01*
X11594048Y-15849143D02*
X11565476Y-15849143D01*
X11565476Y-15849143D02*
X11546429Y-15858667D01*
X11546429Y-15858667D02*
X11536905Y-15868190D01*
X11746429Y-15982476D02*
X11727381Y-15972952D01*
X11727381Y-15972952D02*
X11717857Y-15963428D01*
X11717857Y-15963428D02*
X11708333Y-15944381D01*
X11708333Y-15944381D02*
X11708333Y-15887238D01*
X11708333Y-15887238D02*
X11717857Y-15868190D01*
X11717857Y-15868190D02*
X11727381Y-15858667D01*
X11727381Y-15858667D02*
X11746429Y-15849143D01*
X11746429Y-15849143D02*
X11775000Y-15849143D01*
X11775000Y-15849143D02*
X11794048Y-15858667D01*
X11794048Y-15858667D02*
X11803572Y-15868190D01*
X11803572Y-15868190D02*
X11813095Y-15887238D01*
X11813095Y-15887238D02*
X11813095Y-15944381D01*
X11813095Y-15944381D02*
X11803572Y-15963428D01*
X11803572Y-15963428D02*
X11794048Y-15972952D01*
X11794048Y-15972952D02*
X11775000Y-15982476D01*
X11775000Y-15982476D02*
X11746429Y-15982476D01*
X11927381Y-15982476D02*
X11908333Y-15972952D01*
X11908333Y-15972952D02*
X11898810Y-15953905D01*
X11898810Y-15953905D02*
X11898810Y-15782476D01*
X12079762Y-15972952D02*
X12060714Y-15982476D01*
X12060714Y-15982476D02*
X12022619Y-15982476D01*
X12022619Y-15982476D02*
X12003572Y-15972952D01*
X12003572Y-15972952D02*
X11994048Y-15953905D01*
X11994048Y-15953905D02*
X11994048Y-15877714D01*
X11994048Y-15877714D02*
X12003572Y-15858667D01*
X12003572Y-15858667D02*
X12022619Y-15849143D01*
X12022619Y-15849143D02*
X12060714Y-15849143D01*
X12060714Y-15849143D02*
X12079762Y-15858667D01*
X12079762Y-15858667D02*
X12089286Y-15877714D01*
X12089286Y-15877714D02*
X12089286Y-15896762D01*
X12089286Y-15896762D02*
X11994048Y-15915809D01*
X12165476Y-15972952D02*
X12184524Y-15982476D01*
X12184524Y-15982476D02*
X12222619Y-15982476D01*
X12222619Y-15982476D02*
X12241667Y-15972952D01*
X12241667Y-15972952D02*
X12251191Y-15953905D01*
X12251191Y-15953905D02*
X12251191Y-15944381D01*
X12251191Y-15944381D02*
X12241667Y-15925333D01*
X12241667Y-15925333D02*
X12222619Y-15915809D01*
X12222619Y-15915809D02*
X12194048Y-15915809D01*
X12194048Y-15915809D02*
X12175000Y-15906286D01*
X12175000Y-15906286D02*
X12165476Y-15887238D01*
X12165476Y-15887238D02*
X12165476Y-15877714D01*
X12165476Y-15877714D02*
X12175000Y-15858667D01*
X12175000Y-15858667D02*
X12194048Y-15849143D01*
X12194048Y-15849143D02*
X12222619Y-15849143D01*
X12222619Y-15849143D02*
X12241667Y-15858667D01*
X12317857Y-16058667D02*
X12327381Y-16049143D01*
X12327381Y-16049143D02*
X12346429Y-16020571D01*
X12346429Y-16020571D02*
X12355953Y-16001524D01*
X12355953Y-16001524D02*
X12365476Y-15972952D01*
X12365476Y-15972952D02*
X12375000Y-15925333D01*
X12375000Y-15925333D02*
X12375000Y-15887238D01*
X12375000Y-15887238D02*
X12365476Y-15839619D01*
X12365476Y-15839619D02*
X12355953Y-15811048D01*
X12355953Y-15811048D02*
X12346429Y-15792000D01*
X12346429Y-15792000D02*
X12327381Y-15763428D01*
X12327381Y-15763428D02*
X12317857Y-15753905D01*
M02*
