M48
; DRILL file {KiCad (7.0.0)} date Thu May 18 23:59:08 2023
; FORMAT={-:-/ absolute / metric / decimal}
; #@! TF.CreationDate,2023-05-18T23:59:08+02:00
; #@! TF.GenerationSoftware,Kicad,Pcbnew,(7.0.0)
; #@! TF.FileFunction,Plated,1,2,PTH
FMAT,2
METRIC
; #@! TA.AperFunction,Plated,PTH,ComponentDrill
T1C1.000
; #@! TA.AperFunction,Plated,PTH,ComponentDrill
T2C2.500
%
G90
G05
T1
X123.712Y-89.92
X123.712Y-92.46
X123.712Y-95.0
X123.712Y-97.54
X123.712Y-100.08
X126.252Y-89.92
X126.252Y-92.46
X126.252Y-95.0
X126.252Y-97.54
X126.252Y-100.08
T2
X85.0Y-60.0
X85.0Y-140.0
X90.0Y-65.0
X90.0Y-135.0
X110.0Y-60.0
X110.0Y-140.0
X115.0Y-65.0
X115.0Y-135.0
X135.0Y-60.0
X135.0Y-140.0
X140.0Y-65.0
X140.0Y-135.0
X160.0Y-60.0
X160.0Y-140.0
X165.0Y-65.0
X165.0Y-135.0
T0
M30
